<?xml version="1.0" encoding="utf-8"?>
<!-- Generator: Adobe Illustrator 26.4.1, SVG Export Plug-In . SVG Version: 6.00 Build 0)  -->
<svg version="1.1"
	 id="svg32" xmlns:svg="http://www.w3.org/2000/svg" xmlns:rdf="http://www.w3.org/1999/02/22-rdf-syntax-ns#" xmlns:cc="http://creativecommons.org/ns#" xmlns:dc="http://purl.org/dc/elements/1.1/"
	 xmlns="http://www.w3.org/2000/svg" xmlns:xlink="http://www.w3.org/1999/xlink" x="0px" y="0px" viewBox="0 0 155.9 155.9"
	 style="enable-background:new 0 0 155.9 155.9;" xml:space="preserve">
<style type="text/css">
	.st0{fill:none;stroke:#1B1918;stroke-width:1.4173;}
	.st1{fill:none;stroke:#1B1918;stroke-width:0.7087;}
	.st2{fill-rule:evenodd;clip-rule:evenodd;fill:#1B1918;}
	.st3{fill:none;stroke:#1B1918;stroke-width:0.5669;}
</style>
<path id="path6" class="st0" d="M76.5,25c29.3,0,53,23.7,53,53c0,29.3-23.7,53-53,53s-53-23.7-53-53C23.5,48.7,47.3,25,76.5,25z"/>
<path id="path8" class="st1" d="M76.8,44.9c18.4,0,33.3,14.9,33.3,33.3s-14.9,33.3-33.3,33.3S43.4,96.6,43.4,78.2
	S58.4,44.9,76.8,44.9z"/>
<path id="path10" class="st2" d="M101.6,105.1c0-0.2-0.1-0.4-0.1-0.6c-0.1-0.3-0.2-0.5-0.2-0.6c0-0.2,0-0.3,0.1-0.3
	c0.1-0.1,0.2-0.1,0.3-0.1c0.1,0,0.2,0,0.2,0.1c0.1,0.1,0.1,0.2,0.1,0.3c0,0.1,0,0.3-0.1,0.5c-0.1,0.2-0.1,0.5-0.1,0.7
	c0.2-0.1,0.3-0.2,0.4-0.4c0.2-0.2,0.3-0.4,0.4-0.4c0.1-0.1,0.2-0.1,0.3-0.1c0.1,0,0.2,0,0.2,0.1c0.1,0.1,0.1,0.1,0.1,0.2
	c0,0.1,0,0.2-0.1,0.3c-0.1,0.1-0.3,0.2-0.7,0.3c-0.2,0.1-0.4,0.1-0.6,0.2c0.2,0.1,0.3,0.1,0.6,0.2c0.4,0.1,0.6,0.1,0.7,0.2
	c0.1,0.1,0.2,0.2,0.2,0.3c0,0.1,0,0.2-0.1,0.2c-0.1,0.1-0.1,0.1-0.2,0.1c-0.1,0-0.2,0-0.3-0.1c-0.1-0.1-0.3-0.2-0.4-0.4
	c-0.1-0.1-0.3-0.3-0.4-0.4c0,0.2,0,0.3,0.1,0.5c0.1,0.3,0.2,0.6,0.2,0.7c0,0.1,0,0.2-0.1,0.3c-0.1,0.1-0.1,0.1-0.2,0.1
	c-0.1,0-0.2,0-0.3-0.1c-0.1-0.1-0.1-0.2-0.1-0.3c0-0.1,0-0.3,0.1-0.5c0.1-0.2,0.1-0.3,0.1-0.4c0-0.1,0-0.2,0-0.3
	c-0.2,0.1-0.3,0.2-0.5,0.4c-0.2,0.2-0.4,0.4-0.5,0.5c-0.1,0-0.2,0.1-0.2,0.1c-0.1,0-0.2,0-0.3-0.1c-0.1-0.1-0.1-0.1-0.1-0.2
	c0-0.1,0-0.1,0.1-0.2c0.1-0.1,0.1-0.1,0.3-0.2c0.1,0,0.3-0.1,0.5-0.1c0.2,0,0.4-0.1,0.5-0.2c-0.2-0.1-0.3-0.1-0.6-0.2
	c-0.4-0.1-0.6-0.1-0.7-0.2c-0.1-0.1-0.2-0.2-0.2-0.3c0-0.1,0-0.2,0.1-0.2c0.1-0.1,0.1-0.1,0.2-0.1c0.1,0,0.2,0,0.3,0.1
	c0.1,0.1,0.2,0.2,0.4,0.4C101.3,104.9,101.5,105,101.6,105.1L101.6,105.1z"/>
<path id="path12" class="st2" d="M51.7,106.2c0-0.2-0.1-0.4-0.1-0.6c-0.1-0.3-0.2-0.5-0.2-0.6c0-0.2,0-0.3,0.1-0.3
	c0.1-0.1,0.2-0.1,0.3-0.1c0.1,0,0.2,0,0.2,0.1c0.1,0.1,0.1,0.2,0.1,0.3c0,0.1,0,0.3-0.1,0.5c-0.1,0.2-0.1,0.5-0.1,0.7
	c0.2-0.1,0.3-0.2,0.4-0.4c0.2-0.2,0.3-0.4,0.4-0.4c0.1-0.1,0.2-0.1,0.3-0.1c0.1,0,0.2,0,0.2,0.1c0.1,0.1,0.1,0.1,0.1,0.2
	c0,0.1,0,0.2-0.1,0.3c-0.1,0.1-0.3,0.2-0.7,0.3c-0.2,0.1-0.4,0.1-0.6,0.2c0.2,0.1,0.3,0.1,0.6,0.2c0.4,0.1,0.6,0.1,0.7,0.2
	c0.1,0.1,0.2,0.2,0.2,0.3c0,0.1,0,0.2-0.1,0.2c-0.1,0.1-0.1,0.1-0.2,0.1c-0.1,0-0.2,0-0.3-0.1c-0.1-0.1-0.3-0.2-0.4-0.4
	c-0.1-0.1-0.3-0.3-0.4-0.4c0,0.2,0,0.3,0.1,0.5c0.1,0.3,0.2,0.6,0.2,0.7c0,0.1,0,0.2-0.1,0.3c-0.1,0.1-0.1,0.1-0.2,0.1
	c-0.1,0-0.2,0-0.3-0.1c-0.1-0.1-0.1-0.2-0.1-0.3c0-0.1,0-0.3,0.1-0.5c0.1-0.2,0.1-0.3,0.1-0.4c0-0.1,0-0.2,0-0.3
	c-0.2,0.1-0.3,0.2-0.5,0.4c-0.2,0.2-0.4,0.4-0.5,0.5c-0.1,0-0.2,0.1-0.2,0.1c-0.1,0-0.2,0-0.3-0.1c-0.1-0.1-0.1-0.1-0.1-0.2
	c0-0.1,0-0.1,0.1-0.2c0.1-0.1,0.1-0.1,0.3-0.2c0.1,0,0.3-0.1,0.5-0.1c0.2,0,0.4-0.1,0.5-0.2c-0.2-0.1-0.3-0.1-0.6-0.2
	c-0.4-0.1-0.6-0.1-0.7-0.2c-0.1-0.1-0.2-0.2-0.2-0.3c0-0.1,0-0.2,0.1-0.2c0.1-0.1,0.1-0.1,0.2-0.1c0.1,0,0.2,0,0.3,0.1
	c0.1,0.1,0.2,0.2,0.4,0.4C51.3,106,51.5,106.1,51.7,106.2z"/>
<path id="path14" class="st2" d="M83.2,32.1c0-0.2-0.1-0.4-0.1-0.7c-0.1-0.3-0.2-0.5-0.2-0.7c0-0.2,0-0.3,0.1-0.4
	c0.1-0.1,0.2-0.1,0.3-0.1c0.1,0,0.2,0,0.3,0.1c0.1,0.1,0.1,0.2,0.1,0.4c0,0.1,0,0.3-0.1,0.6c-0.1,0.3-0.1,0.5-0.2,0.7
	c0.2-0.1,0.3-0.3,0.5-0.4c0.2-0.3,0.4-0.4,0.5-0.5c0.1-0.1,0.2-0.1,0.3-0.1c0.1,0,0.2,0,0.3,0.1c0.1,0.1,0.1,0.2,0.1,0.3
	c0,0.1-0.1,0.2-0.2,0.3c-0.1,0.1-0.4,0.2-0.8,0.3c-0.2,0.1-0.5,0.1-0.6,0.2c0.2,0.1,0.4,0.2,0.6,0.2c0.4,0.1,0.7,0.2,0.8,0.3
	c0.1,0.1,0.2,0.2,0.2,0.4c0,0.1,0,0.2-0.1,0.3c-0.1,0.1-0.2,0.1-0.3,0.1c-0.1,0-0.2,0-0.3-0.1c-0.1-0.1-0.3-0.2-0.5-0.5
	c-0.1-0.2-0.3-0.3-0.5-0.5c0,0.2,0,0.4,0.1,0.6c0.1,0.4,0.2,0.6,0.2,0.8c0,0.1,0,0.2-0.1,0.3c-0.1,0.1-0.2,0.1-0.2,0.1
	c-0.1,0-0.2,0-0.3-0.1c-0.1-0.1-0.1-0.2-0.1-0.3c0-0.2,0-0.3,0.1-0.6c0.1-0.2,0.1-0.4,0.1-0.5c0-0.1,0-0.2,0.1-0.4
	c-0.2,0.1-0.4,0.3-0.5,0.4c-0.2,0.3-0.4,0.4-0.5,0.5c-0.1,0.1-0.2,0.1-0.3,0.1c-0.1,0-0.2,0-0.3-0.1c-0.1-0.1-0.1-0.2-0.1-0.2
	c0-0.1,0-0.2,0.1-0.3c0.1-0.1,0.2-0.2,0.3-0.2c0.1,0,0.3-0.1,0.6-0.2c0.2,0,0.4-0.1,0.6-0.2c-0.2-0.1-0.4-0.2-0.6-0.2
	c-0.4-0.1-0.6-0.2-0.7-0.2c-0.1-0.1-0.2-0.2-0.2-0.4c0-0.1,0-0.2,0.1-0.2c0.1-0.1,0.2-0.1,0.3-0.1c0.1,0,0.2,0,0.3,0.1
	c0.1,0.1,0.3,0.2,0.4,0.4C82.8,31.8,83,31.9,83.2,32.1z"/>
<path id="path16" class="st2" d="M109.6,110.6c0-0.2-0.1-0.4-0.1-0.7c-0.1-0.3-0.2-0.5-0.2-0.7c0-0.2,0-0.3,0.1-0.4
	c0.1-0.1,0.2-0.1,0.3-0.1c0.1,0,0.2,0,0.3,0.1c0.1,0.1,0.1,0.2,0.1,0.4c0,0.1,0,0.3-0.1,0.6c-0.1,0.3-0.1,0.5-0.2,0.7
	c0.2-0.1,0.3-0.3,0.5-0.4c0.2-0.3,0.4-0.4,0.5-0.5c0.1-0.1,0.2-0.1,0.3-0.1c0.1,0,0.2,0,0.3,0.1c0.1,0.1,0.1,0.2,0.1,0.3
	c0,0.1-0.1,0.2-0.2,0.3c-0.1,0.1-0.4,0.2-0.8,0.3c-0.2,0.1-0.5,0.1-0.6,0.2c0.2,0.1,0.4,0.2,0.6,0.2c0.4,0.1,0.7,0.2,0.8,0.3
	c0.1,0.1,0.2,0.2,0.2,0.4c0,0.1,0,0.2-0.1,0.3c-0.1,0.1-0.2,0.1-0.3,0.1c-0.1,0-0.2,0-0.3-0.1c-0.1-0.1-0.3-0.2-0.5-0.5
	c-0.1-0.2-0.3-0.3-0.5-0.5c0,0.2,0,0.4,0.1,0.6c0.1,0.4,0.2,0.6,0.2,0.8c0,0.1,0,0.2-0.1,0.3c-0.1,0.1-0.2,0.1-0.2,0.1
	c-0.1,0-0.2,0-0.3-0.1c-0.1-0.1-0.1-0.2-0.1-0.3c0-0.2,0-0.3,0.1-0.6c0.1-0.2,0.1-0.4,0.1-0.5c0-0.1,0-0.2,0.1-0.4
	c-0.2,0.1-0.4,0.3-0.5,0.4c-0.2,0.3-0.4,0.4-0.5,0.5c-0.1,0.1-0.2,0.1-0.3,0.1c-0.1,0-0.2,0-0.3-0.1c-0.1-0.1-0.1-0.2-0.1-0.2
	c0-0.1,0-0.2,0.1-0.3c0.1-0.1,0.2-0.2,0.3-0.2c0.1,0,0.3-0.1,0.6-0.2c0.2,0,0.4-0.1,0.6-0.2c-0.2-0.1-0.4-0.2-0.6-0.2
	c-0.4-0.1-0.6-0.2-0.7-0.2c-0.1-0.1-0.2-0.2-0.2-0.4c0-0.1,0-0.2,0.1-0.2c0.1-0.1,0.2-0.1,0.3-0.1c0.1,0,0.2,0,0.3,0.1
	c0.1,0.1,0.3,0.2,0.4,0.4C109.3,110.4,109.4,110.5,109.6,110.6z"/>
<path id="path18" class="st2" d="M42.4,110.6c0-0.2-0.1-0.4-0.1-0.7c-0.1-0.3-0.2-0.5-0.2-0.7c0-0.2,0-0.3,0.1-0.4
	c0.1-0.1,0.2-0.1,0.3-0.1c0.1,0,0.2,0,0.3,0.1c0.1,0.1,0.1,0.2,0.1,0.4c0,0.1,0,0.3-0.1,0.6c-0.1,0.3-0.1,0.5-0.2,0.7
	c0.2-0.1,0.3-0.3,0.5-0.4c0.2-0.3,0.4-0.4,0.5-0.5c0.1-0.1,0.2-0.1,0.3-0.1c0.1,0,0.2,0,0.3,0.1c0.1,0.1,0.1,0.2,0.1,0.3
	c0,0.1-0.1,0.2-0.2,0.3c-0.1,0.1-0.4,0.2-0.8,0.3c-0.2,0.1-0.5,0.1-0.6,0.2c0.2,0.1,0.4,0.2,0.6,0.2c0.4,0.1,0.7,0.2,0.8,0.3
	c0.1,0.1,0.2,0.2,0.2,0.4c0,0.1,0,0.2-0.1,0.3c-0.1,0.1-0.2,0.1-0.3,0.1c-0.1,0-0.2,0-0.3-0.1c-0.1-0.1-0.3-0.2-0.5-0.5
	c-0.1-0.2-0.3-0.3-0.5-0.5c0,0.2,0,0.4,0.1,0.6c0.1,0.4,0.2,0.6,0.2,0.8c0,0.1,0,0.2-0.1,0.3c-0.1,0.1-0.2,0.1-0.2,0.1
	c-0.1,0-0.2,0-0.3-0.1c-0.1-0.1-0.1-0.2-0.1-0.3c0-0.2,0-0.3,0.1-0.6c0.1-0.2,0.1-0.4,0.1-0.5c0-0.1,0-0.2,0.1-0.4
	c-0.2,0.1-0.4,0.3-0.5,0.4c-0.2,0.3-0.4,0.4-0.5,0.5c-0.1,0.1-0.2,0.1-0.3,0.1c-0.1,0-0.2,0-0.3-0.1c-0.1-0.1-0.1-0.2-0.1-0.2
	c0-0.1,0-0.2,0.1-0.3c0.1-0.1,0.2-0.2,0.3-0.2c0.1,0,0.3-0.1,0.6-0.2c0.2,0,0.4-0.1,0.6-0.2c-0.2-0.1-0.4-0.2-0.6-0.2
	c-0.4-0.1-0.6-0.2-0.7-0.2c-0.1-0.1-0.2-0.2-0.2-0.4c0-0.1,0-0.2,0.1-0.2c0.1-0.1,0.2-0.1,0.3-0.1c0.1,0,0.2,0,0.3,0.1
	c0.1,0.1,0.3,0.2,0.4,0.4C42,110.4,42.2,110.5,42.4,110.6z"/>
<path id="path20" class="st3" d="M76.5,26.6c28.3,0,51.3,23,51.3,51.3c0,28.3-23,51.3-51.3,51.3c-28.3,0-51.3-23-51.3-51.3
	C25.2,49.6,48.2,26.6,76.5,26.6z"/>
<path id="path22" class="st2" d="M43,99.4l-0.3-0.5l3.6-2.1l-4.9-0.2L41.1,96l4.5-2.6l0.3,0.5L42.3,96l4.9,0.2l0.3,0.6L43,99.4z
	 M45.1,92.2l-4.9,1.9L40,93.5l2-0.8l-1-2.4l-2,0.8l-0.2-0.6l4.9-1.9l0.2,0.6l-2.3,0.9l1,2.4l2.3-0.9L45.1,92.2z M38.1,88l-0.7-2.9
	l4.5-1l-0.1-0.4l1.8-0.4l0.1,0.6L42.6,84l0.7,3.2l1.2-0.3l0.1,0.6l-1.8,0.4l-0.1-0.4c-0.7-0.3-2-0.2-3.9,0.3L38.1,88z M38.2,85.6
	l0.4,1.7l0.3-0.1c0.4-0.1,1-0.2,1.8-0.3c0.8-0.1,1.4-0.1,2,0l-0.5-2.2L38.2,85.6z M37.2,82.8l0-0.6l4.1-0.3l-4.3-2.3l-0.1-0.7
	l5.2-0.4l0,0.6L38,79.4l4.3,2.3l0,0.7L37.2,82.8z M42.1,77.2l-5.2-0.4l0.1-1.9c0-0.4,0.1-0.7,0.2-0.9c0.1-0.2,0.3-0.4,0.5-0.5
	c0.2-0.1,0.5-0.2,0.7-0.2c0.2,0,0.4,0.1,0.6,0.2c0.2,0.1,0.3,0.3,0.4,0.5c0.1-0.3,0.3-0.5,0.5-0.6c0.2-0.1,0.5-0.2,0.8-0.2
	c0.3,0,0.6,0.1,0.8,0.3c0.2,0.2,0.4,0.4,0.5,0.6c0.1,0.3,0.1,0.6,0.1,1L42.1,77.2z M39.1,76.4l0.1-1.1c0-0.3,0-0.5,0-0.6
	c0-0.2-0.1-0.3-0.2-0.4c-0.1-0.1-0.3-0.2-0.5-0.2c-0.2,0-0.3,0-0.5,0.1c-0.1,0.1-0.2,0.2-0.3,0.3c-0.1,0.1-0.1,0.4-0.1,0.7l-0.1,1
	L39.1,76.4z M41.6,76.5l0.1-1.2c0-0.3,0-0.5,0-0.6c0-0.2-0.1-0.3-0.3-0.4c-0.1-0.1-0.3-0.2-0.5-0.2c-0.2,0-0.4,0-0.5,0.1
	c-0.1,0.1-0.3,0.2-0.3,0.4c-0.1,0.2-0.1,0.4-0.2,0.7l-0.1,1.1L41.6,76.5z M37.5,71.2l0.1-0.6l4,0.9L38.2,68l0.1-0.6l5.1,1.2
	l-0.1,0.6l-4-0.9l3.4,3.5l-0.1,0.6L37.5,71.2z M39.1,65l1.1-2.8l4.3,1.7l0.2-0.4l1.7,0.7l-0.2,0.5l-1.1-0.4l-1.2,3.1l1.1,0.4
	l-0.2,0.5l-1.7-0.7l0.1-0.4c-0.4-0.6-1.6-1.3-3.3-2L39.1,65z M40.6,63l-0.6,1.6l0.2,0.1c0.4,0.2,1,0.4,1.6,0.8
	c0.7,0.4,1.2,0.7,1.6,1.1l0.8-2.1L40.6,63z M40.9,60.6l0.3-0.6l3.6,0.2l-2.1-2.8l0.3-0.6l2.6,3.6c0.3,0.5,0.5,0.8,0.6,1
	c0.1,0.2,0,0.4-0.1,0.7c-0.1,0.2-0.2,0.3-0.4,0.5l-0.5-0.3c0.2-0.1,0.3-0.2,0.4-0.4c0.1-0.1,0.1-0.3,0.1-0.4c0-0.2-0.2-0.4-0.4-0.7
	L40.9,60.6z M47.7,59.1l-2.9-4.7l0.4-0.6l5.4,1.6l-0.5,0.6l-1.6-0.5l-1.3,1.7l0.9,1.4L47.7,59.1z M46.9,56.7l1-1.3l-1.5-0.5
	c-0.4-0.1-0.8-0.3-1.1-0.4c0.2,0.3,0.4,0.5,0.6,0.8L46.9,56.7z M47.7,50.9l2.3-2.2l3.6,3.8l-0.5,0.5l-3.2-3.3l-1.3,1.2l1.9,1.9
	c0.4,0.4,0.6,0.7,0.8,0.9c0.1,0.2,0.2,0.4,0.2,0.7c0,0.2-0.1,0.4-0.3,0.6c-0.1,0.1-0.3,0.2-0.4,0.3l-0.3-0.5c0.1,0,0.2-0.1,0.3-0.1
	c0.1-0.1,0.1-0.2,0.1-0.4c0-0.1-0.2-0.4-0.5-0.7L47.7,50.9z M51.3,47.5l0.5-0.4l1.4,1.8l0.9-0.7c0.3-0.3,0.6-0.4,0.9-0.5
	c0.3-0.1,0.5-0.1,0.8,0c0.3,0.1,0.5,0.3,0.7,0.5c0.2,0.3,0.4,0.7,0.3,1.1c0,0.4-0.3,0.8-0.9,1.3l-1.5,1.2L51.3,47.5z M54.7,50.7
	l0.9-0.7c0.3-0.3,0.5-0.5,0.6-0.7c0.1-0.2,0-0.5-0.2-0.7c-0.1-0.2-0.3-0.3-0.5-0.3c-0.2,0-0.3,0-0.5,0c-0.2,0.1-0.4,0.2-0.8,0.5
	l-0.7,0.5L54.7,50.7z M58.4,48.8l-2.6-4.5l0.6-0.3l1.1,1.9l2.2-1.3l-1.1-1.9l0.6-0.3l2.6,4.5l-0.6,0.3L60,45l-2.2,1.3l1.2,2.1
	L58.4,48.8z M61.4,41.3l0.6-0.2l0.7,2.1l1.1-0.4c0.4-0.1,0.8-0.2,1-0.2c0.3,0,0.5,0.1,0.7,0.3c0.2,0.2,0.4,0.4,0.5,0.7
	c0.1,0.4,0.1,0.8,0,1.1c-0.1,0.4-0.6,0.7-1.2,0.9l-1.8,0.6L61.4,41.3z M63.5,45.5l1.1-0.4c0.4-0.1,0.6-0.3,0.8-0.5
	c0.1-0.2,0.1-0.5,0-0.8c-0.1-0.2-0.2-0.4-0.3-0.5c-0.2-0.1-0.3-0.1-0.5-0.1c-0.2,0-0.5,0.1-0.9,0.2l-0.8,0.3L63.5,45.5z M67.5,44.8
	l-1.7-4.9l0.6-0.2l1.7,4.9L67.5,44.8z M68.5,39.2l0.6-0.1l0.7,4.1l1.9-4.6l0.6-0.1l0.9,5.1l-0.6,0.1L72,39.6l-1.9,4.6l-0.6,0.1
	L68.5,39.2z M70.9,37.5l0.4-0.1c0,0.3,0,0.6-0.2,0.7c-0.1,0.2-0.4,0.3-0.6,0.3c-0.3,0-0.5,0-0.7-0.1c-0.2-0.1-0.3-0.3-0.4-0.6
	l0.4-0.1c0.1,0.3,0.3,0.4,0.6,0.4c0.2,0,0.3-0.1,0.4-0.2C70.9,37.8,70.9,37.6,70.9,37.5z M77.2,43.6l-0.7,0l0.1-5.2l3.9,0.1
	l-0.1,5.2l-0.7,0L80,39L77.4,39L77.2,43.6z M81.8,43.9l0.9-5.1l1.8,0.3c0.4,0.1,0.7,0.2,0.9,0.3c0.3,0.1,0.5,0.3,0.6,0.6
	c0.1,0.3,0.2,0.6,0.1,0.9c-0.1,0.5-0.3,0.8-0.6,1.1c-0.3,0.2-0.8,0.3-1.5,0.2l-1.3-0.2L82.4,44L81.8,43.9z M82.9,41.3l1.3,0.2
	c0.4,0.1,0.7,0,0.9-0.1c0.2-0.1,0.3-0.3,0.4-0.7c0-0.2,0-0.4,0-0.5c-0.1-0.2-0.2-0.3-0.3-0.4c-0.1-0.1-0.3-0.1-0.7-0.2l-1.3-0.2
	L82.9,41.3z M86.6,44.9l1.7-4.9l3.4,1.2l-0.2,0.6l-2.8-0.9l-0.5,1.5l2.6,0.9l-0.2,0.6L88,42.9l-0.6,1.7l2.9,1l-0.2,0.6L86.6,44.9z
	 M93.9,42.2l2.7,1.4l-2.1,4.1l0.4,0.2L94,49.5l-0.5-0.3l0.6-1.1l-2.9-1.5l-0.6,1.1l-0.5-0.3l0.8-1.6l0.3,0.2
	c0.6-0.4,1.4-1.4,2.3-3.1L93.9,42.2z M95.7,43.8L94.2,43l-0.1,0.2c-0.2,0.4-0.5,0.9-0.9,1.6c-0.4,0.6-0.8,1.1-1.3,1.5l2,1L95.7,43.8
	z M96,49.4L95.5,49l3-4.3l3.2,2.3l-3,4.3l-0.5-0.4l2.7-3.8l-2.1-1.5L96,49.4z M99.6,52.2l3.6-3.8l1.4,1.3c0.3,0.3,0.5,0.6,0.6,0.7
	c0.1,0.3,0.2,0.5,0.2,0.8c0,0.3-0.2,0.6-0.4,0.8c-0.3,0.3-0.7,0.5-1.1,0.5c-0.4,0-0.9-0.2-1.4-0.7l-0.9-0.9l-1.5,1.5L99.6,52.2z
	 M102,50.6l0.9,0.9c0.3,0.3,0.6,0.4,0.8,0.4c0.2,0,0.5-0.1,0.7-0.3c0.1-0.1,0.2-0.3,0.3-0.5c0-0.2,0-0.3,0-0.5
	c-0.1-0.1-0.2-0.3-0.5-0.5l-0.9-0.9L102,50.6z M107.2,52.4l0.4,0.5l-3.3,2.6l4.9-0.5l0.4,0.5l-4.1,3.2l-0.4-0.5l3.3-2.6l-4.9,0.5
	l-0.4-0.5L107.2,52.4z M106.1,59.8l4.5-2.6l0.3,0.6l-1.9,1.1l1.3,2.2l1.9-1.1l0.3,0.6l-4.5,2.6l-0.3-0.6l2.1-1.2l-1.3-2.2l-2.1,1.2
	L106.1,59.8z M113.6,62.8l0.2,0.6l-3.9,1.3l4.8,1.2l0.2,0.6l-4.9,1.7l-0.2-0.6l3.9-1.3l-4.8-1.2l-0.2-0.6L113.6,62.8z M110.4,69.4
	l5.1-0.9l0.2,1l-3.4,1.8l-0.7,0.4c0.2,0,0.5,0.1,0.9,0.1l3.8,0.5l0.2,0.9l-5.1,0.9l-0.1-0.6l4.3-0.8l-4.6-0.6l-0.1-0.6l4.1-2.2
	l-4.4,0.8L110.4,69.4z M111.3,74.8l5.3,1.8l0,0.7l-5.2,2.2l0-0.8l1.6-0.6l-0.1-2.1l-1.6-0.5L111.3,74.8z M113.5,76.1l0,1.7l1.4-0.6
	c0.4-0.2,0.8-0.3,1.1-0.4c-0.3-0.1-0.7-0.1-1-0.2L113.5,76.1z M111.2,81.5l4.6,0.6l0.2-1.6l0.6,0.1l-0.5,3.9l-0.6-0.1l0.2-1.6
	l-4.6-0.6L111.2,81.5z M110.8,84.6l5.1,1.2l-0.8,3.5l-0.6-0.1l0.7-2.9l-1.6-0.4l-0.6,2.7l-0.6-0.1l0.6-2.7l-1.7-0.4l-0.7,3l-0.6-0.1
	L110.8,84.6z M114.3,91.6l-1.2,2.9l-4.9-1.9l0.2-0.6l4.3,1.7l0.7-1.7l-2.5-1c-0.5-0.2-0.9-0.4-1.1-0.5c-0.2-0.1-0.4-0.3-0.4-0.5
	c-0.1-0.2-0.1-0.4,0-0.6c0.1-0.1,0.1-0.3,0.3-0.5l0.5,0.3c-0.1,0.1-0.1,0.2-0.2,0.2c-0.1,0.1,0,0.3,0,0.4c0.1,0.1,0.3,0.3,0.7,0.4
	L114.3,91.6z M112.3,96.4l-0.3,0.6l-1.9-1.1l-0.6,1c-0.2,0.4-0.4,0.7-0.6,0.8c-0.2,0.2-0.5,0.3-0.7,0.3c-0.3,0-0.6-0.1-0.9-0.2
	c-0.3-0.2-0.6-0.5-0.7-0.9c-0.1-0.4,0-0.9,0.3-1.5l0.9-1.6L112.3,96.4z M107.9,94.7l-0.6,1c-0.2,0.4-0.3,0.6-0.3,0.9
	c0,0.2,0.2,0.4,0.5,0.6c0.2,0.1,0.4,0.1,0.5,0.1c0.2,0,0.3-0.1,0.5-0.2c0.1-0.1,0.3-0.4,0.5-0.8l0.4-0.8L107.9,94.7z"/>
<path id="path24" class="st2" d="M42.3,105.1l-4.3,3l-1.1-1.6c-0.2-0.3-0.3-0.5-0.4-0.7c-0.1-0.2-0.2-0.5-0.2-0.7
	c0-0.2,0.1-0.4,0.2-0.6c0.1-0.2,0.3-0.4,0.5-0.5c0.4-0.3,0.8-0.4,1.2-0.3c0.4,0.1,0.8,0.4,1.3,1l0.8,1.1l1.8-1.2L42.3,105.1z
	 M39.6,106.1l-0.8-1.1c-0.3-0.4-0.5-0.6-0.8-0.6c-0.2-0.1-0.5,0-0.7,0.2c-0.2,0.1-0.3,0.3-0.4,0.5c-0.1,0.2-0.1,0.4,0,0.5
	c0,0.1,0.2,0.3,0.3,0.6l0.8,1.1L39.6,106.1z M37.5,102.7c-0.8,0.4-1.5,0.6-2.1,0.4c-0.7-0.2-1.2-0.6-1.5-1.2
	c-0.2-0.4-0.4-0.9-0.3-1.3c0-0.5,0.1-0.9,0.4-1.3c0.3-0.4,0.6-0.7,1.1-1c0.5-0.3,0.9-0.4,1.4-0.4c0.5,0,0.9,0.1,1.3,0.3
	c0.4,0.2,0.7,0.6,0.9,1c0.2,0.4,0.4,0.9,0.3,1.3c0,0.5-0.2,0.9-0.4,1.3C38.2,102.1,37.9,102.4,37.5,102.7z M37.1,102
	c0.6-0.3,0.9-0.7,1.1-1.2c0.2-0.5,0.1-0.9-0.2-1.4c-0.3-0.5-0.6-0.7-1.1-0.9c-0.5-0.1-1,0-1.6,0.3c-0.4,0.2-0.7,0.5-0.9,0.7
	c-0.2,0.3-0.3,0.6-0.3,0.9c0,0.3,0.1,0.6,0.2,1c0.2,0.4,0.6,0.7,1.1,0.9C35.8,102.5,36.4,102.4,37.1,102z M33.7,93.4l-0.1-0.7
	c0.6-0.1,1.1,0,1.5,0.2c0.4,0.2,0.7,0.6,0.9,1.1c0.2,0.5,0.3,1,0.2,1.4c-0.1,0.4-0.3,0.8-0.6,1.1c-0.3,0.3-0.7,0.6-1.2,0.8
	c-0.5,0.2-1,0.3-1.5,0.2c-0.5,0-0.9-0.2-1.2-0.5c-0.3-0.3-0.6-0.6-0.8-1.1c-0.2-0.5-0.2-1-0.1-1.4c0.1-0.4,0.4-0.8,0.8-1.1l0.4,0.6
	c-0.3,0.3-0.5,0.5-0.6,0.8c-0.1,0.3,0,0.6,0.1,0.9c0.2,0.4,0.4,0.7,0.7,0.8c0.3,0.2,0.6,0.3,0.9,0.2c0.3,0,0.7-0.1,1-0.2
	c0.4-0.2,0.8-0.4,1-0.6c0.3-0.2,0.4-0.5,0.5-0.8c0.1-0.3,0-0.6-0.1-0.9c-0.1-0.4-0.4-0.6-0.7-0.8C34.5,93.3,34.1,93.3,33.7,93.4z
	 M32.1,88.1l0-0.7c0.6,0,1.1,0.1,1.5,0.4c0.4,0.3,0.7,0.7,0.8,1.2c0.2,0.5,0.2,1,0.1,1.4c-0.1,0.4-0.4,0.8-0.7,1.1
	c-0.4,0.3-0.8,0.5-1.3,0.7c-0.5,0.2-1,0.2-1.5,0.1c-0.5-0.1-0.8-0.3-1.1-0.6s-0.5-0.7-0.7-1.1c-0.1-0.5-0.1-1,0-1.4
	c0.2-0.4,0.5-0.8,0.9-1l0.3,0.6c-0.3,0.2-0.6,0.5-0.7,0.7c-0.1,0.3-0.1,0.6,0,0.9c0.1,0.4,0.3,0.7,0.6,0.9c0.3,0.2,0.6,0.3,0.9,0.3
	c0.3,0,0.7,0,1-0.1c0.4-0.1,0.8-0.3,1.1-0.5c0.3-0.2,0.5-0.5,0.6-0.8c0.1-0.3,0.1-0.6,0-0.9c-0.1-0.4-0.3-0.7-0.6-0.9
	C32.9,88.1,32.6,88,32.1,88.1z M28.4,86.7l-0.1-0.6l4.2-0.6l-4.5-2.2l-0.1-0.7l5.2-0.7l0.1,0.6L29,83.1l4.5,2.2l0.1,0.7L28.4,86.7z
	 M27.7,80.8l0-0.6l4.2-0.1l-4.2-2.7l0-0.7l5.3-0.1l0,0.6l-4.2,0.1L33,80l0,0.7L27.7,80.8z M26.4,78.2l0-0.4c0.3,0,0.5,0.1,0.7,0.3
	c0.2,0.2,0.3,0.4,0.3,0.7c0,0.3-0.1,0.6-0.2,0.7c-0.2,0.2-0.4,0.3-0.7,0.3l0-0.4c0.2,0,0.3-0.1,0.4-0.2c0.1-0.1,0.1-0.2,0.1-0.4
	c0-0.2,0-0.3-0.1-0.4C26.7,78.3,26.5,78.2,26.4,78.2z M31.5,71.4l0.3-0.7c0.6,0.2,0.9,0.5,1.2,1c0.2,0.4,0.3,0.9,0.3,1.4
	c-0.1,0.6-0.3,1-0.5,1.3c-0.3,0.3-0.6,0.5-1.1,0.7c-0.5,0.1-0.9,0.2-1.4,0.1c-0.5-0.1-1-0.2-1.4-0.5c-0.4-0.3-0.6-0.6-0.8-1
	c-0.2-0.4-0.2-0.9-0.1-1.3c0.1-0.5,0.3-0.9,0.6-1.3c0.3-0.3,0.7-0.5,1.2-0.6l0.1,0.7c-0.4,0.1-0.7,0.2-0.9,0.4
	c-0.2,0.2-0.3,0.5-0.4,0.8c-0.1,0.4,0,0.8,0.2,1c0.2,0.3,0.4,0.5,0.7,0.7c0.3,0.2,0.6,0.3,1,0.3c0.4,0.1,0.8,0,1.2,0
	c0.4-0.1,0.6-0.3,0.8-0.5c0.2-0.3,0.3-0.5,0.4-0.9c0.1-0.4,0-0.7-0.2-1C32.3,71.8,32,71.6,31.5,71.4z M28.4,68.9l0.2-0.7l2.3,0.5
	c0.1-0.3,0.1-0.5,0-0.7c-0.1-0.2-0.3-0.4-0.8-0.7c-0.3-0.2-0.5-0.4-0.6-0.5c-0.1-0.1-0.2-0.3-0.3-0.5c-0.1-0.2-0.1-0.4,0-0.6
	c0.1-0.3,0.1-0.4,0.1-0.4l0.6,0.1c0,0,0,0.1,0,0.1c0,0.1,0,0.1,0,0.1c0,0.2,0,0.4,0,0.5c0.1,0.1,0.3,0.3,0.6,0.5
	c0.4,0.3,0.6,0.5,0.7,0.6c0.1,0.1,0.1,0.3,0.2,0.5c0.2-0.3,0.6-0.6,1.1-0.8l2-0.7l-0.2,0.8l-1.6,0.5c-0.4,0.1-0.8,0.3-0.9,0.4
	c-0.2,0.1-0.3,0.3-0.4,0.6l2.4,0.5l-0.2,0.7L28.4,68.9z M34.4,66.5L30,62.8l0.3-0.7l5.7-0.3l-0.3,0.8L34,62.6l-0.7,2.1l1.3,1.1
	L34.4,66.5z M32.8,64.3l0.6-1.7l-1.6,0c-0.5,0-0.9,0-1.2,0c0.3,0.2,0.6,0.4,0.9,0.6L32.8,64.3z M37.9,57.5l-4.8-2.2l-1,2.1
	c-0.2,0.4-0.3,0.8-0.3,1c0,0.3,0.1,0.5,0.2,0.7c0.2,0.2,0.4,0.4,0.6,0.5c0.3,0.2,0.7,0.2,1,0.1c0.3-0.1,0.6-0.4,0.9-0.8
	c0,0.2,0,0.4,0.1,0.5c0.1,0.3,0.2,0.5,0.4,0.8l0.9,1.4l0.4-0.8l-0.7-1.1c-0.2-0.3-0.4-0.6-0.5-0.8c-0.1-0.2-0.2-0.3-0.2-0.5
	c0-0.1,0-0.2,0-0.3c0-0.1,0.1-0.2,0.1-0.4l0.3-0.7l2.1,1L37.9,57.5z M35,56.9l-0.6,1.4c-0.1,0.3-0.3,0.5-0.4,0.6
	c-0.1,0.1-0.3,0.2-0.5,0.2c-0.2,0-0.3,0-0.5-0.1c-0.2-0.1-0.4-0.3-0.4-0.5c-0.1-0.2,0-0.5,0.1-0.9l0.7-1.5L35,56.9z M36.9,50.4
	L36.3,50l0.4-0.5l0.5,0.4c0.4-0.5,0.9-0.8,1.4-0.9c0.5-0.1,1,0,1.5,0.3c0.4,0.3,0.7,0.7,0.8,1.3c0.1,0.5-0.1,1.1-0.4,1.7l0.6,0.4
	l-0.4,0.5l-0.6-0.4c-0.4,0.5-0.8,0.8-1.4,0.9c-0.5,0.1-1,0-1.5-0.3c-0.5-0.3-0.7-0.8-0.8-1.3C36.4,51.5,36.5,50.9,36.9,50.4z
	 M37.7,50.2l2.3,1.6c0.2-0.4,0.3-0.7,0.3-1.1c0-0.4-0.2-0.7-0.6-0.9c-0.3-0.2-0.7-0.3-1-0.3C38.3,49.6,38,49.9,37.7,50.2z
	 M37.4,50.8c-0.2,0.4-0.3,0.7-0.3,1.1c0,0.4,0.2,0.7,0.6,0.9c0.3,0.2,0.7,0.3,1,0.2c0.4-0.1,0.7-0.3,0.9-0.6L37.4,50.8z M42.9,50.2
	l-4-3.5l2.5-2.9l0.5,0.4l-2,2.4l1.2,1.1l1.9-2.2l0.5,0.4L41.6,48l1.4,1.2l2.1-2.5l0.5,0.4L42.9,50.2z M43.1,42.2l2.4-2.1l3.1,3.5
	l0.4-0.3l1.2,1.4l-0.5,0.4l-0.8-0.9l-2.6,2.3l0.8,0.9l-0.5,0.4l-1.2-1.4l0.3-0.3c-0.1-0.8-0.8-1.9-2.1-3.4L43.1,42.2z M45.4,41
	L44,42.2l0.2,0.2c0.3,0.3,0.7,0.8,1.1,1.5c0.5,0.6,0.8,1.2,0.9,1.8l1.8-1.6L45.4,41z M50.1,43.3l-3-4.3l3.1-2.2l0.4,0.5L48,39
	l0.9,1.3l2.4-1.7l0.4,0.5l-2.4,1.7l1,1.5l2.7-1.9l0.4,0.5L50.1,43.3z M54.1,40.5l-2.6-4.6l1.7-1c0.3-0.2,0.5-0.3,0.7-0.4
	c0.2-0.1,0.5-0.1,0.7-0.1c0.2,0,0.4,0.1,0.6,0.2c0.2,0.1,0.4,0.3,0.5,0.5c0.2,0.4,0.3,0.8,0.2,1.2c-0.1,0.4-0.5,0.8-1.1,1.2
	l-1.2,0.7l1.1,1.9L54.1,40.5z M53.4,37.7l1.2-0.7c0.4-0.2,0.6-0.5,0.7-0.7c0.1-0.2,0-0.5-0.1-0.8c-0.1-0.2-0.2-0.3-0.4-0.4
	c-0.2-0.1-0.4-0.1-0.5-0.1c-0.1,0-0.3,0.1-0.6,0.3l-1.2,0.7L53.4,37.7z M57.5,38.5l0-5.7l0.7-0.3l3.9,4.1L61.4,37l-1.2-1.3l-2.1,0.8
	l0,1.7L57.5,38.5z M58.1,36l1.7-0.7l-1-1.2c-0.3-0.4-0.6-0.7-0.8-0.9c0.1,0.3,0.1,0.7,0.1,1.1L58.1,36z M61.2,31.5l0.7-0.2l1.3,4.5
	l2.6-0.8l-1.3-4.5l0.7-0.2l1.3,4.5l0.5-0.1l0.6,2l-0.6,0.2l-0.4-1.4l-3.9,1.1L61.2,31.5z M67.2,29.9l0.6-0.1l0.6,4.2l2.2-4.5
	l0.7-0.1l0.7,5.2l-0.6,0.1l-0.6-4.1L68.6,35l-0.7,0.1L67.2,29.9z M77.4,34.3L77.3,29l-2.3,0c-0.5,0-0.8,0.1-1.1,0.2
	c-0.2,0.1-0.4,0.3-0.6,0.5c-0.1,0.2-0.2,0.5-0.2,0.8c0,0.4,0.1,0.7,0.4,0.9c0.2,0.3,0.6,0.4,1.1,0.5c-0.2,0.1-0.3,0.2-0.4,0.3
	c-0.2,0.2-0.4,0.4-0.6,0.7l-0.9,1.5l0.9,0l0.7-1.1c0.2-0.3,0.4-0.6,0.5-0.7c0.1-0.2,0.2-0.3,0.4-0.4c0.1-0.1,0.2-0.1,0.3-0.1
	c0.1,0,0.2,0,0.4,0l0.8,0l0,2.4L77.4,34.3z M76.6,31.4l-1.5,0c-0.3,0-0.6,0-0.8-0.1c-0.2-0.1-0.3-0.2-0.4-0.3
	c-0.1-0.1-0.1-0.3-0.1-0.5c0-0.2,0.1-0.5,0.3-0.6c0.2-0.2,0.5-0.2,0.9-0.3l1.7,0L76.6,31.4z M87.6,35.7l1.6-5l1,0.3l0,4
	c0,0.4,0,0.6,0,0.8c0.1-0.2,0.3-0.4,0.5-0.7l2.3-3.1l0.9,0.3l-1.6,5l-0.6-0.2l1.4-4.2l-2.8,3.7l-0.6-0.2l-0.1-4.8l-1.4,4.3
	L87.6,35.7z M94.5,35.2c0.4-0.8,0.9-1.3,1.6-1.5c0.6-0.2,1.3-0.2,2,0.2c0.4,0.2,0.8,0.5,1,0.9c0.2,0.4,0.4,0.8,0.3,1.3
	c0,0.5-0.1,0.9-0.4,1.4c-0.2,0.5-0.6,0.9-1,1.1c-0.4,0.3-0.8,0.4-1.3,0.4c-0.5,0-0.9-0.1-1.3-0.3c-0.4-0.2-0.8-0.5-1-0.9
	c-0.2-0.4-0.3-0.8-0.3-1.3C94.2,36.1,94.3,35.6,94.5,35.2z M95.2,35.6c-0.3,0.6-0.4,1.1-0.2,1.6c0.1,0.5,0.4,0.8,0.9,1.1
	c0.5,0.2,0.9,0.3,1.4,0.1c0.5-0.2,0.9-0.6,1.2-1.2c0.2-0.4,0.3-0.7,0.3-1.1c0-0.4-0.1-0.7-0.2-1c-0.2-0.3-0.4-0.5-0.7-0.7
	c-0.4-0.2-0.9-0.3-1.4-0.1C96,34.5,95.5,34.9,95.2,35.6z M102.8,40.7l0.5,0.5c-0.4,0.4-0.9,0.6-1.4,0.7c-0.5,0.1-1-0.1-1.4-0.4
	c-0.5-0.3-0.8-0.6-1-1c-0.2-0.4-0.2-0.8-0.2-1.3c0.1-0.5,0.3-0.9,0.5-1.3c0.3-0.5,0.6-0.8,1-1.1c0.4-0.2,0.8-0.3,1.3-0.3
	c0.4,0,0.9,0.2,1.3,0.4c0.4,0.3,0.8,0.6,0.9,1.1c0.2,0.4,0.2,0.9,0,1.4l-0.7-0.2c0.1-0.4,0.1-0.7,0-1c-0.1-0.3-0.3-0.5-0.6-0.7
	c-0.3-0.2-0.7-0.3-1-0.3s-0.6,0.1-0.9,0.4c-0.3,0.2-0.5,0.5-0.7,0.8c-0.2,0.4-0.4,0.7-0.5,1.1c-0.1,0.4,0,0.7,0.1,1
	c0.1,0.3,0.4,0.5,0.6,0.7c0.3,0.2,0.7,0.3,1,0.2C102.1,41.3,102.5,41.1,102.8,40.7L102.8,40.7z M106.4,39.2l0.5,0.4l-1.5,1.8
	c0.2,0.2,0.5,0.3,0.6,0.3c0.2,0,0.5-0.1,0.9-0.4c0.3-0.2,0.6-0.3,0.7-0.3c0.2-0.1,0.3-0.1,0.5,0c0.2,0,0.4,0.1,0.5,0.2
	c0.2,0.2,0.3,0.3,0.3,0.3l-0.4,0.5c0,0-0.1,0-0.1-0.1c-0.1-0.1-0.1-0.1-0.1-0.1c-0.2-0.1-0.3-0.2-0.5-0.2c-0.2,0-0.4,0.1-0.7,0.3
	c-0.4,0.2-0.7,0.4-0.9,0.4c-0.2,0-0.3,0-0.5-0.1c0.2,0.3,0.3,0.7,0.2,1.4l-0.3,2.1l-0.7-0.5l0.2-1.7c0.1-0.5,0.1-0.8,0-1
	c0-0.2-0.2-0.4-0.4-0.6l-1.5,1.9l-0.5-0.4L106.4,39.2z M108,44c0.6-0.6,1.3-0.9,2-0.9c0.7,0,1.3,0.3,1.8,0.8
	c0.3,0.4,0.6,0.8,0.7,1.2c0.1,0.4,0.1,0.9-0.1,1.3c-0.2,0.4-0.4,0.8-0.8,1.2c-0.4,0.4-0.8,0.6-1.3,0.8c-0.5,0.1-0.9,0.1-1.3,0
	c-0.4-0.1-0.8-0.4-1.1-0.7c-0.3-0.4-0.6-0.8-0.7-1.2c-0.1-0.5-0.1-0.9,0.1-1.3C107.5,44.7,107.7,44.4,108,44z M108.5,44.6
	c-0.5,0.4-0.7,0.9-0.7,1.4c0,0.5,0.1,0.9,0.5,1.3c0.4,0.4,0.8,0.6,1.3,0.6c0.5,0,1-0.2,1.5-0.7c0.3-0.3,0.5-0.6,0.7-0.9
	c0.1-0.3,0.2-0.7,0.1-1c-0.1-0.3-0.2-0.6-0.5-0.9c-0.3-0.4-0.8-0.6-1.2-0.6C109.6,43.8,109.1,44,108.5,44.6z M110.2,50.2l4.2-3.3
	l1.2,1.6c0.2,0.3,0.4,0.6,0.5,0.9c0.1,0.3,0.1,0.5,0,0.8c-0.1,0.2-0.2,0.4-0.4,0.6c-0.2,0.1-0.4,0.2-0.6,0.2c-0.2,0-0.5,0-0.7-0.1
	c0.1,0.3,0.1,0.6,0.1,0.9c-0.1,0.3-0.2,0.5-0.5,0.7c-0.2,0.2-0.4,0.3-0.6,0.3c-0.2,0-0.4,0-0.6,0c-0.2-0.1-0.4-0.1-0.6-0.3
	c-0.2-0.1-0.4-0.4-0.6-0.6L110.2,50.2z M113,48.8l0.7,0.9c0.2,0.2,0.3,0.4,0.5,0.5c0.2,0.1,0.3,0.2,0.5,0.2c0.2,0,0.3-0.1,0.4-0.2
	c0.1-0.1,0.2-0.2,0.3-0.4c0.1-0.1,0.1-0.3,0-0.5c-0.1-0.2-0.2-0.4-0.4-0.7l-0.7-0.8L113,48.8z M111.1,50.3l0.8,1
	c0.1,0.2,0.2,0.3,0.3,0.4c0.1,0.1,0.2,0.2,0.4,0.2c0.1,0,0.3,0.1,0.4,0c0.1,0,0.3-0.1,0.4-0.2c0.2-0.1,0.3-0.3,0.3-0.4
	c0.1-0.2,0-0.3,0-0.5c-0.1-0.2-0.2-0.4-0.4-0.7l-0.8-1L111.1,50.3z M116.5,56.3l0.2,0.7c-0.6,0.2-1.1,0.1-1.5,0
	c-0.4-0.2-0.8-0.5-1.1-1c-0.3-0.5-0.4-1-0.4-1.4c0-0.4,0.2-0.8,0.5-1.2c0.3-0.4,0.7-0.7,1.1-0.9c0.5-0.3,1-0.4,1.4-0.4
	c0.5,0,0.9,0.1,1.3,0.3c0.4,0.2,0.7,0.6,0.9,1c0.3,0.5,0.4,0.9,0.3,1.4c-0.1,0.4-0.3,0.9-0.6,1.2l-0.5-0.5c0.3-0.3,0.4-0.6,0.5-0.9
	c0-0.3,0-0.6-0.2-0.9c-0.2-0.4-0.5-0.6-0.8-0.7c-0.3-0.1-0.6-0.2-1-0.1c-0.3,0.1-0.7,0.2-1,0.4c-0.4,0.2-0.7,0.5-0.9,0.7
	c-0.2,0.3-0.3,0.6-0.4,0.9c0,0.3,0.1,0.6,0.2,0.9c0.2,0.3,0.5,0.6,0.8,0.7C115.7,56.4,116.1,56.4,116.5,56.3L116.5,56.3z
	 M120.5,56.4l0.3,0.6l-2.1,1c0.1,0.3,0.3,0.5,0.4,0.5c0.2,0.1,0.5,0.1,1,0.1c0.4,0,0.7,0,0.8,0c0.2,0,0.3,0.1,0.5,0.2
	c0.2,0.1,0.3,0.3,0.4,0.5c0.1,0.2,0.2,0.4,0.2,0.4l-0.6,0.2c0,0,0-0.1-0.1-0.1c0-0.1,0-0.1-0.1-0.1c-0.1-0.2-0.2-0.3-0.4-0.4
	c-0.1-0.1-0.4-0.1-0.8-0.1c-0.5,0-0.8,0-1-0.1c-0.2-0.1-0.3-0.2-0.4-0.3c0.1,0.3-0.1,0.8-0.4,1.3l-1.2,1.7l-0.4-0.8l0.9-1.4
	c0.3-0.4,0.4-0.7,0.5-0.9c0.1-0.2,0-0.4-0.1-0.7l-2.3,1l-0.3-0.6L120.5,56.4z M117.2,62l5.7,0.3l0.2,0.7l-4.4,3.7l-0.2-0.8l1.3-1.1
	l-0.7-2.1l-1.7-0.1L117.2,62z M119.8,62.8l0.5,1.7l1.2-1c0.4-0.3,0.7-0.5,0.9-0.7c-0.4,0-0.7,0-1.1,0L119.8,62.8z M119.7,71.3
	l5.2-0.9l-0.4-2.3c-0.1-0.5-0.2-0.8-0.3-1c-0.1-0.2-0.3-0.4-0.6-0.5c-0.3-0.1-0.5-0.1-0.8-0.1c-0.4,0.1-0.7,0.2-0.9,0.5
	c-0.2,0.3-0.3,0.7-0.3,1.2c-0.1-0.2-0.2-0.3-0.3-0.4c-0.2-0.2-0.5-0.3-0.8-0.5l-1.6-0.7l0.1,0.9l1.2,0.5c0.3,0.1,0.6,0.3,0.8,0.4
	c0.2,0.1,0.3,0.2,0.4,0.3c0.1,0.1,0.1,0.2,0.2,0.3c0,0.1,0.1,0.2,0.1,0.4l0.1,0.8l-2.3,0.4L119.7,71.3z M122.5,70.2l-0.3-1.5
	c-0.1-0.3-0.1-0.6,0-0.8c0-0.2,0.1-0.3,0.2-0.5c0.1-0.1,0.3-0.2,0.4-0.2c0.2,0,0.5,0,0.7,0.2c0.2,0.2,0.3,0.4,0.4,0.8l0.3,1.7
	L122.5,70.2z M122.7,74.3c0.9,0,1.6,0.2,2.1,0.7c0.5,0.5,0.8,1.1,0.8,1.8c0,0.5-0.1,0.9-0.3,1.3c-0.2,0.4-0.5,0.7-1,0.9
	c-0.4,0.2-0.9,0.3-1.4,0.3c-0.5,0-1-0.1-1.4-0.3c-0.4-0.2-0.8-0.5-1-0.9c-0.2-0.4-0.3-0.8-0.3-1.3c0-0.5,0.1-0.9,0.3-1.3
	c0.2-0.4,0.6-0.7,1-0.9C121.8,74.4,122.2,74.3,122.7,74.3z M122.7,75c-0.6,0-1.1,0.2-1.5,0.5c-0.4,0.3-0.5,0.8-0.5,1.3
	c0,0.5,0.2,1,0.6,1.3c0.4,0.3,0.9,0.5,1.6,0.5c0.4,0,0.8-0.1,1.1-0.2c0.3-0.2,0.6-0.4,0.7-0.7c0.2-0.3,0.3-0.6,0.2-0.9
	c0-0.5-0.2-0.9-0.5-1.3C124,75.2,123.5,75,122.7,75z M125.4,80.7l-0.3,3.4l-0.6,0l0.2-2.7l-1.6-0.1l-0.1,1.3c0,0.5-0.1,0.8-0.2,1.1
	c-0.1,0.3-0.3,0.5-0.6,0.6c-0.3,0.1-0.6,0.2-0.9,0.2c-0.3,0-0.5-0.1-0.7-0.2c-0.2-0.1-0.4-0.3-0.5-0.6c-0.1-0.2-0.2-0.7-0.1-1.2
	l0.2-2.1L125.4,80.7z M120.7,81.1l-0.1,1.4c0,0.4,0,0.7,0.2,0.9c0.1,0.2,0.4,0.3,0.7,0.3c0.2,0,0.4,0,0.6-0.1
	c0.2-0.1,0.3-0.2,0.3-0.4c0.1-0.2,0.1-0.5,0.1-1l0.1-0.9L120.7,81.1z M124.7,86.7l-0.7,3.2l-5.2-1.2L119,88l4.6,1l0.4-1.9l-2.7-0.6
	c-0.5-0.1-0.9-0.2-1.2-0.3c-0.2-0.1-0.4-0.3-0.5-0.5c-0.1-0.2-0.1-0.4-0.1-0.7c0-0.2,0.1-0.3,0.2-0.5l0.6,0.3
	c-0.1,0.1-0.1,0.2-0.2,0.3c0,0.2,0,0.3,0.1,0.4c0.1,0.1,0.4,0.2,0.8,0.3L124.7,86.7z M118.8,89.3l4.3,3.6l-0.3,0.7l-5.7,0.3l0.3-0.8
	l1.7-0.1l0.7-2.1l-1.3-1.1L118.8,89.3z M120.3,91.4l-0.6,1.7l1.6,0c0.5,0,0.9,0,1.2,0c-0.3-0.2-0.6-0.4-0.9-0.6L120.3,91.4z
	 M117.1,98.6l-0.5,0.6c-0.5-0.4-0.7-0.8-0.9-1.3c-0.1-0.5-0.1-1,0.2-1.5c0.2-0.5,0.5-0.9,0.9-1.1c0.4-0.2,0.8-0.3,1.3-0.3
	c0.5,0,0.9,0.1,1.4,0.3c0.5,0.2,0.9,0.5,1.2,0.9c0.3,0.4,0.4,0.8,0.5,1.2c0,0.4-0.1,0.9-0.2,1.3c-0.2,0.5-0.5,0.8-0.9,1
	c-0.4,0.2-0.8,0.3-1.3,0.2l0.1-0.7c0.4,0,0.7,0,1-0.1c0.3-0.1,0.5-0.4,0.6-0.7c0.2-0.4,0.2-0.7,0.2-1c-0.1-0.3-0.2-0.6-0.5-0.8
	c-0.3-0.2-0.5-0.4-0.9-0.6c-0.4-0.2-0.8-0.3-1.2-0.3c-0.4,0-0.7,0.1-0.9,0.2c-0.3,0.2-0.5,0.4-0.6,0.7c-0.2,0.4-0.2,0.7-0.1,1
	C116.5,98,116.8,98.3,117.1,98.6L117.1,98.6z M114.1,100.1l4.1,2.3l0.9-1.5l0.5,0.3l-2.1,3.6l-0.5-0.3l0.9-1.5l-4.1-2.3L114.1,100.1
	z M116.6,106.2l-0.4,0.5l-1.8-1.4l-0.8,1c-0.4,0.5-0.7,0.7-1,0.9c-0.3,0.1-0.5,0.2-0.8,0.1c-0.3-0.1-0.5-0.2-0.7-0.3
	c-0.3-0.3-0.5-0.6-0.6-1c-0.1-0.4,0.1-0.9,0.6-1.5l1.3-1.6L116.6,106.2z M112.5,103.8l-0.8,1c-0.3,0.4-0.5,0.7-0.4,1
	c0,0.2,0.2,0.4,0.4,0.6c0.2,0.1,0.3,0.2,0.5,0.2c0.2,0,0.4-0.1,0.5-0.2c0.2-0.1,0.4-0.4,0.7-0.7l0.6-0.7L112.5,103.8z"/>
<path id="path26" class="st2" d="M58.7,114.5l1.9-5l1,0.4l-0.2,4c0,0.4,0,0.6,0,0.8c0.1-0.2,0.3-0.4,0.6-0.7l2.5-3l0.9,0.3l-1.9,5
	l-0.6-0.2l1.6-4.2l-3.1,3.6l-0.6-0.2l0.2-4.8l-1.6,4.3L58.7,114.5z M66.1,114.5c0.2-0.9,0.6-1.5,1.2-1.9c0.6-0.4,1.2-0.5,2-0.3
	c0.5,0.1,0.9,0.3,1.2,0.6c0.3,0.3,0.6,0.7,0.7,1.2c0.1,0.5,0.1,0.9,0,1.5c-0.1,0.5-0.3,1-0.6,1.3c-0.3,0.4-0.7,0.6-1.1,0.7
	c-0.4,0.1-0.9,0.1-1.3,0c-0.5-0.1-0.9-0.3-1.2-0.7c-0.3-0.3-0.6-0.7-0.7-1.2C66,115.4,66,114.9,66.1,114.5z M66.8,114.6
	c-0.1,0.6-0.1,1.2,0.2,1.6c0.3,0.4,0.6,0.7,1.2,0.8c0.5,0.1,1,0,1.4-0.3c0.4-0.3,0.7-0.8,0.9-1.4c0.1-0.4,0.1-0.8,0-1.2
	c-0.1-0.3-0.2-0.6-0.5-0.9c-0.2-0.2-0.5-0.4-0.9-0.5c-0.5-0.1-0.9,0-1.4,0.2C67.3,113.3,67,113.9,66.8,114.6z M76.6,116.6l0.7,0.2
	c-0.2,0.6-0.4,1-0.8,1.3c-0.4,0.3-0.9,0.4-1.4,0.4c-0.6,0-1-0.1-1.4-0.4c-0.4-0.2-0.6-0.6-0.8-1c-0.2-0.4-0.3-0.9-0.3-1.4
	c0-0.6,0.1-1,0.3-1.5s0.5-0.7,0.9-0.9c0.4-0.2,0.8-0.3,1.3-0.3c0.5,0,1,0.1,1.3,0.4c0.4,0.3,0.6,0.7,0.7,1.2l-0.7,0.2
	c-0.1-0.4-0.3-0.7-0.5-0.9c-0.2-0.2-0.5-0.3-0.9-0.3c-0.4,0-0.8,0.1-1,0.3c-0.3,0.2-0.5,0.5-0.6,0.8c-0.1,0.3-0.2,0.7-0.2,1
	c0,0.5,0.1,0.9,0.2,1.2c0.1,0.3,0.3,0.6,0.6,0.8c0.3,0.2,0.6,0.3,0.9,0.3c0.4,0,0.7-0.1,1-0.3C76.3,117.4,76.5,117,76.6,116.6
	L76.6,116.6z M78.7,113.1l0.7-0.1l0.3,2.3c0.3,0,0.5-0.1,0.6-0.3c0.1-0.1,0.2-0.5,0.4-1c0.1-0.4,0.2-0.6,0.3-0.8
	c0.1-0.2,0.2-0.3,0.4-0.4c0.2-0.1,0.3-0.2,0.6-0.2c0.3,0,0.4-0.1,0.4-0.1l0.1,0.6c0,0-0.1,0-0.1,0c-0.1,0-0.1,0-0.1,0
	c-0.2,0-0.4,0.1-0.5,0.2c-0.1,0.1-0.2,0.4-0.3,0.7c-0.1,0.5-0.2,0.8-0.3,0.9c-0.1,0.1-0.2,0.2-0.4,0.3c0.4,0,0.7,0.3,1.1,0.8
	l1.3,1.6l-0.9,0.1l-1.1-1.3c-0.3-0.4-0.5-0.6-0.7-0.7c-0.2-0.1-0.4-0.2-0.7-0.1l0.3,2.5l-0.7,0.1L78.7,113.1z M85,117.7l-1.5-5.1
	l1.9-0.6c0.4-0.1,0.7-0.2,1-0.1c0.3,0,0.5,0.1,0.7,0.3c0.2,0.2,0.3,0.4,0.4,0.6c0.1,0.2,0.1,0.4,0,0.7c-0.1,0.2-0.2,0.4-0.4,0.6
	c0.3,0,0.6,0.1,0.9,0.3c0.2,0.2,0.4,0.4,0.5,0.7c0.1,0.2,0.1,0.5,0,0.7c0,0.2-0.1,0.4-0.2,0.6c-0.1,0.2-0.3,0.3-0.5,0.4
	c-0.2,0.1-0.5,0.2-0.8,0.3L85,117.7z M84.8,114.5l1.1-0.3c0.3-0.1,0.5-0.2,0.6-0.2c0.2-0.1,0.3-0.2,0.3-0.4c0.1-0.1,0.1-0.3,0-0.5
	c-0.1-0.2-0.1-0.3-0.3-0.4c-0.1-0.1-0.3-0.2-0.4-0.2c-0.2,0-0.4,0-0.8,0.2l-1,0.3L84.8,114.5z M85.5,116.9l1.3-0.4
	c0.2-0.1,0.4-0.1,0.5-0.2c0.1-0.1,0.3-0.2,0.4-0.3c0.1-0.1,0.1-0.2,0.2-0.4c0-0.1,0-0.3,0-0.5c-0.1-0.2-0.2-0.3-0.3-0.5
	c-0.1-0.1-0.3-0.2-0.5-0.2c-0.2,0-0.5,0-0.8,0.1l-1.2,0.3L85.5,116.9z M90.3,116.2l-0.3-5.7l0.7-0.3l4.2,4l-0.7,0.3l-1.2-1.2
	l-2.1,0.9l0.1,1.7L90.3,116.2z M90.8,113.6l1.7-0.8l-1.1-1.1c-0.3-0.3-0.6-0.6-0.8-0.9c0.1,0.3,0.1,0.7,0.2,1.1L90.8,113.6z"/>
<path id="path28" class="st2" d="M46.2,113.6c0.5-0.6,1-1,1.6-1.1c0.6-0.1,1.1,0,1.6,0.4c0.3,0.2,0.5,0.5,0.7,0.9
	c0.1,0.3,0.2,0.7,0.1,1.1c-0.1,0.4-0.3,0.8-0.6,1.2c-0.4,0.6-0.9,0.9-1.4,1c-0.6,0.1-1.2,0-1.7-0.4c-0.5-0.4-0.8-0.9-0.8-1.5
	C45.6,114.6,45.8,114.1,46.2,113.6z M46.7,113.9c-0.3,0.5-0.5,0.9-0.5,1.3c0,0.4,0.2,0.8,0.5,1c0.3,0.3,0.7,0.3,1.1,0.3
	c0.4-0.1,0.8-0.4,1.2-0.9c0.2-0.3,0.4-0.6,0.5-1c0.1-0.3,0-0.5-0.1-0.8c-0.1-0.3-0.2-0.5-0.5-0.6c-0.3-0.3-0.7-0.3-1.1-0.3
	C47.5,113.1,47.1,113.4,46.7,113.9z M51.4,114.5l2.2,1.4l-0.3,0.5l-1.7-1.1l-2.3,3.4l-0.5-0.3L51.4,114.5z M51.7,120.3l2.3-4
	l1.4,0.8c0.3,0.2,0.6,0.4,0.7,0.5c0.2,0.2,0.3,0.4,0.3,0.7c0,0.3-0.1,0.5-0.2,0.8c-0.2,0.4-0.5,0.6-0.8,0.7c-0.3,0.1-0.8,0-1.3-0.3
	l-1-0.6l-1,1.6L51.7,120.3z M53.4,118.4l1,0.6c0.3,0.2,0.6,0.2,0.8,0.2c0.2,0,0.4-0.2,0.5-0.4c0.1-0.2,0.1-0.3,0.1-0.5
	c0-0.2,0-0.3-0.1-0.4c-0.1-0.1-0.2-0.2-0.5-0.4l-1-0.6L53.4,118.4z M55.4,122.3l1.9-4.3l0.5,0.2L57,120l2,0.9l0.8-1.8l0.5,0.2
	l-1.9,4.3l-0.5-0.2l0.9-2l-2-0.9l-0.9,2L55.4,122.3z M61.1,119.7l0.5,0.2l-1.2,3.5l3.4-2.7l0.5,0.2l-1.6,4.4l-0.5-0.2l1.2-3.5
	l-3.4,2.7l-0.5-0.2L61.1,119.7z M64.5,125.6l-0.6-0.1l1.1-4.5l3.3,0.8l-1.1,4.5l-0.6-0.1l0.9-4l-2.2-0.5L64.5,125.6z M70,124.4
	c0.1-0.8,0.3-1.4,0.5-1.7c0.3-0.4,0.6-0.5,1.1-0.5c0.4,0,0.7,0.2,0.9,0.6c0.2,0.4,0.3,1.1,0.2,1.9c-0.1,0.8-0.3,1.3-0.5,1.7
	c-0.3,0.4-0.6,0.5-1.1,0.5c-0.4,0-0.7-0.3-0.9-0.6C70,125.9,69.9,125.2,70,124.4z M70.5,124.4c-0.1,0.8-0.1,1.3,0.1,1.5
	c0.1,0.3,0.3,0.4,0.6,0.5c0.2,0,0.5-0.1,0.6-0.3c0.2-0.2,0.3-0.7,0.4-1.5c0.1-0.8,0.1-1.3-0.1-1.5c-0.1-0.3-0.3-0.4-0.6-0.5
	c-0.2,0-0.4,0.1-0.6,0.3C70.7,123.2,70.6,123.7,70.5,124.4z M73.3,124.7c0-0.8,0.2-1.4,0.4-1.8c0.3-0.4,0.6-0.6,1.1-0.6
	c0.4,0,0.7,0.2,0.9,0.5c0.3,0.4,0.4,1,0.4,1.9c0,0.8-0.2,1.4-0.4,1.8c-0.3,0.4-0.6,0.6-1.1,0.6c-0.4,0-0.7-0.2-1-0.6
	C73.4,126.2,73.3,125.6,73.3,124.7z M73.9,124.7c0,0.8,0,1.3,0.2,1.5c0.2,0.3,0.4,0.4,0.6,0.4c0.2,0,0.4-0.1,0.6-0.4
	c0.2-0.3,0.3-0.8,0.3-1.5c0-0.8,0-1.3-0.2-1.5c-0.2-0.3-0.4-0.4-0.6-0.4c-0.2,0-0.4,0.1-0.6,0.4C74,123.5,73.9,124,73.9,124.7z
	 M76.7,124.9c0-0.8,0.1-1.4,0.3-1.8c0.2-0.4,0.6-0.6,1-0.6c0.4,0,0.7,0.1,1,0.4c0.3,0.4,0.5,1,0.5,1.9c0,0.8-0.1,1.4-0.3,1.8
	c-0.2,0.4-0.6,0.6-1,0.7c-0.4,0-0.8-0.1-1-0.5C76.9,126.4,76.7,125.7,76.7,124.9z M77.2,124.8c0,0.8,0.1,1.3,0.3,1.5
	c0.2,0.3,0.4,0.4,0.6,0.4c0.2,0,0.4-0.1,0.6-0.4c0.1-0.3,0.2-0.8,0.2-1.5c0-0.8-0.1-1.3-0.3-1.5c-0.2-0.3-0.4-0.4-0.6-0.4
	c-0.2,0-0.4,0.1-0.6,0.4C77.3,123.6,77.2,124.1,77.2,124.8z M80.1,124.7c-0.1-0.8,0-1.4,0.2-1.8c0.2-0.4,0.5-0.6,1-0.7
	c0.4,0,0.7,0.1,1,0.4c0.3,0.4,0.5,1,0.6,1.9c0.1,0.8,0,1.4-0.2,1.8c-0.2,0.4-0.5,0.6-1,0.7c-0.4,0-0.8-0.1-1-0.5
	C80.4,126.2,80.2,125.6,80.1,124.7L80.1,124.7z M80.7,124.6c0.1,0.8,0.2,1.3,0.4,1.5c0.2,0.2,0.4,0.4,0.7,0.3c0.2,0,0.4-0.2,0.6-0.4
	c0.1-0.3,0.2-0.8,0.1-1.5c-0.1-0.8-0.2-1.3-0.4-1.5c-0.2-0.2-0.4-0.4-0.7-0.3c-0.2,0-0.4,0.2-0.6,0.4
	C80.7,123.4,80.6,123.9,80.7,124.6L80.7,124.6z M83.4,124.4c-0.2-0.8-0.1-1.4,0-1.8c0.2-0.4,0.5-0.7,0.9-0.8c0.4-0.1,0.7,0,1,0.3
	c0.4,0.3,0.6,0.9,0.8,1.8c0.1,0.8,0.1,1.4,0,1.8c-0.2,0.4-0.5,0.7-0.9,0.8c-0.4,0.1-0.8,0-1.1-0.3C83.8,125.9,83.6,125.3,83.4,124.4
	z M83.9,124.3c0.1,0.7,0.3,1.2,0.5,1.5c0.2,0.2,0.4,0.3,0.7,0.3c0.2,0,0.4-0.2,0.5-0.5c0.1-0.3,0.1-0.8-0.1-1.5
	c-0.1-0.7-0.3-1.2-0.5-1.5c-0.2-0.2-0.4-0.3-0.7-0.3c-0.2,0-0.4,0.2-0.5,0.5C83.8,123.1,83.8,123.6,83.9,124.3z M86.8,123.7
	c-0.2-0.8-0.2-1.4-0.1-1.8c0.1-0.4,0.4-0.7,0.9-0.8c0.4-0.1,0.7,0,1.1,0.3c0.4,0.3,0.6,0.9,0.8,1.7c0.2,0.8,0.2,1.4,0.1,1.8
	c-0.1,0.4-0.4,0.7-0.9,0.8c-0.4,0.1-0.8,0-1.1-0.3C87.3,125.2,87,124.6,86.8,123.7z M87.3,123.6c0.2,0.7,0.4,1.2,0.6,1.4
	c0.2,0.2,0.4,0.3,0.7,0.2c0.2-0.1,0.4-0.2,0.5-0.5c0.1-0.3,0.1-0.8-0.1-1.5c-0.2-0.7-0.4-1.2-0.6-1.4s-0.5-0.3-0.7-0.2
	c-0.2,0.1-0.4,0.2-0.5,0.5C87.1,122.4,87.2,122.9,87.3,123.6z M90,123c-0.3-0.7-0.3-1.3-0.2-1.8c0.1-0.5,0.4-0.8,0.8-0.9
	c0.4-0.1,0.7-0.1,1.1,0.1c0.4,0.3,0.7,0.8,1,1.6c0.3,0.7,0.3,1.3,0.2,1.8c-0.1,0.5-0.4,0.8-0.8,0.9c-0.4,0.1-0.8,0.1-1.1-0.2
	C90.6,124.3,90.3,123.8,90,123L90,123z M90.5,122.8c0.2,0.7,0.5,1.2,0.7,1.4c0.2,0.2,0.5,0.2,0.7,0.2c0.2-0.1,0.4-0.3,0.4-0.6
	c0.1-0.3,0-0.8-0.3-1.5c-0.2-0.7-0.5-1.2-0.7-1.4c-0.2-0.2-0.5-0.2-0.7-0.2c-0.2,0.1-0.4,0.3-0.4,0.6
	C90.2,121.6,90.3,122.1,90.5,122.8z M93.2,121.8c-0.3-0.7-0.4-1.3-0.3-1.8c0.1-0.5,0.3-0.8,0.7-1c0.4-0.2,0.7-0.1,1.1,0.1
	c0.4,0.3,0.8,0.8,1.1,1.6c0.3,0.7,0.4,1.3,0.3,1.8c-0.1,0.5-0.3,0.8-0.7,1c-0.4,0.2-0.8,0.1-1.1-0.1
	C93.9,123.2,93.6,122.6,93.2,121.8z M93.7,121.6c0.3,0.7,0.5,1.1,0.8,1.3c0.2,0.2,0.5,0.2,0.7,0.1c0.2-0.1,0.4-0.3,0.4-0.6
	c0.1-0.3-0.1-0.8-0.3-1.5c-0.3-0.7-0.5-1.1-0.8-1.3s-0.5-0.2-0.7-0.1c-0.2,0.1-0.4,0.3-0.4,0.6C93.4,120.4,93.5,120.9,93.7,121.6z
	 M96.4,120.5c-0.3-0.7-0.5-1.3-0.4-1.8c0-0.5,0.3-0.8,0.7-1c0.4-0.2,0.7-0.2,1.1,0c0.4,0.2,0.8,0.7,1.2,1.5c0.3,0.7,0.5,1.3,0.4,1.8
	c0,0.5-0.3,0.8-0.7,1c-0.4,0.2-0.7,0.2-1.1,0C97.1,121.8,96.7,121.3,96.4,120.5z M96.9,120.3c0.3,0.7,0.6,1.1,0.9,1.3
	c0.3,0.2,0.5,0.2,0.7,0.1c0.2-0.1,0.3-0.3,0.4-0.6c0-0.3-0.1-0.8-0.4-1.5c-0.3-0.7-0.6-1.1-0.9-1.3c-0.3-0.2-0.5-0.2-0.7-0.1
	c-0.2,0.1-0.3,0.3-0.4,0.6C96.4,119.1,96.5,119.6,96.9,120.3z M99.4,119c-0.4-0.7-0.6-1.2-0.6-1.7c0-0.5,0.2-0.8,0.6-1.1
	c0.4-0.2,0.7-0.2,1.1-0.1c0.4,0.2,0.9,0.7,1.3,1.4c0.4,0.7,0.6,1.2,0.6,1.7c0,0.5-0.2,0.8-0.6,1.1c-0.4,0.2-0.7,0.2-1.1,0.1
	C100.2,120.3,99.8,119.8,99.4,119L99.4,119z M99.8,118.8c0.4,0.7,0.7,1,1,1.2c0.3,0.1,0.5,0.1,0.7,0c0.2-0.1,0.3-0.3,0.3-0.6
	c0-0.3-0.2-0.8-0.6-1.4c-0.4-0.7-0.7-1-1-1.2c-0.3-0.1-0.5-0.1-0.7,0c-0.2,0.1-0.3,0.3-0.3,0.6C99.2,117.6,99.4,118.1,99.8,118.8
	L99.8,118.8z M102.2,117.4c-0.5-0.6-0.7-1.2-0.8-1.6c0-0.5,0.1-0.8,0.5-1.1c0.3-0.2,0.7-0.3,1.1-0.2c0.5,0.2,1,0.6,1.5,1.3
	c0.5,0.6,0.7,1.2,0.8,1.6c0,0.5-0.1,0.8-0.5,1.1c-0.3,0.2-0.7,0.3-1.1,0.2C103.2,118.5,102.7,118.1,102.2,117.4z M102.7,117
	c0.4,0.6,0.8,1,1.1,1.1c0.3,0.1,0.5,0.1,0.7-0.1c0.2-0.1,0.3-0.4,0.3-0.7c0-0.3-0.3-0.8-0.7-1.4c-0.4-0.6-0.8-1-1.1-1.1
	c-0.3-0.1-0.5-0.1-0.7,0.1c-0.2,0.1-0.3,0.4-0.3,0.7C102,116,102.2,116.4,102.7,117z M105,115.3c-0.5-0.6-0.8-1.2-0.8-1.6
	c-0.1-0.5,0.1-0.8,0.4-1.1c0.3-0.3,0.7-0.3,1.1-0.2c0.5,0.1,1,0.5,1.5,1.2c0.5,0.6,0.8,1.1,0.8,1.6c0.1,0.5-0.1,0.8-0.4,1.1
	c-0.3,0.3-0.7,0.3-1.1,0.2C106,116.4,105.5,116,105,115.3z M105.4,115c0.5,0.6,0.9,0.9,1.1,1c0.3,0.1,0.5,0.1,0.7-0.1
	c0.2-0.1,0.3-0.4,0.2-0.7c0-0.3-0.3-0.8-0.8-1.3c-0.5-0.6-0.9-0.9-1.1-1c-0.3-0.1-0.5-0.1-0.7,0.1c-0.2,0.1-0.3,0.4-0.2,0.7
	C104.7,113.9,105,114.4,105.4,115z"/>
<path id="path30" class="st2" d="M54.5,61h1v6.3l4.3-6.3h1v8h-1v-6.3L55.6,69h-1.1V61z M62.5,69v-8h3c0.6,0,1.1,0.1,1.5,0.2
	c0.4,0.2,0.7,0.4,0.9,0.7c0.2,0.3,0.3,0.7,0.3,1.1c0,0.3-0.1,0.7-0.3,1c-0.2,0.3-0.5,0.5-0.8,0.7c0.5,0.1,0.9,0.4,1.1,0.7
	c0.3,0.3,0.4,0.7,0.4,1.2c0,0.4-0.1,0.7-0.2,1c-0.2,0.3-0.4,0.6-0.6,0.7c-0.2,0.2-0.5,0.3-0.9,0.4C66.5,68.9,66,69,65.5,69L62.5,69z
	 M63.5,64.3h1.7c0.5,0,0.8,0,1-0.1c0.3-0.1,0.5-0.2,0.6-0.4c0.1-0.2,0.2-0.4,0.2-0.7c0-0.3-0.1-0.5-0.2-0.7
	c-0.1-0.2-0.3-0.3-0.5-0.4c-0.2-0.1-0.6-0.1-1.2-0.1h-1.6L63.5,64.3z M63.5,68h2c0.3,0,0.6,0,0.7,0c0.2,0,0.4-0.1,0.6-0.2
	c0.2-0.1,0.3-0.3,0.4-0.4c0.1-0.2,0.2-0.4,0.2-0.7c0-0.3-0.1-0.6-0.2-0.8c-0.2-0.2-0.4-0.4-0.6-0.5c-0.3-0.1-0.7-0.1-1.2-0.1h-1.8
	V68z M68.7,69l3.1-8h1.2l3.3,8H75l-0.9-2.4h-3.4L69.8,69H68.7z M71,65.7h2.7l-0.8-2.2c-0.3-0.7-0.4-1.2-0.6-1.7
	c-0.1,0.5-0.3,1-0.4,1.5L71,65.7z M77.1,69v-8h1.1v3.3h4.1V61h1.1v8h-1.1v-3.8h-4.1V69H77.1z M84.8,65.1c0-1.3,0.4-2.4,1.1-3.1
	c0.7-0.7,1.6-1.1,2.8-1.1c0.7,0,1.4,0.2,2,0.5c0.6,0.4,1,0.8,1.4,1.5c0.3,0.6,0.5,1.3,0.5,2.1c0,0.8-0.2,1.5-0.5,2.2
	c-0.3,0.6-0.8,1.1-1.4,1.5c-0.6,0.3-1.2,0.5-1.9,0.5c-0.8,0-1.4-0.2-2-0.5c-0.6-0.4-1-0.9-1.3-1.5C84.9,66.4,84.8,65.8,84.8,65.1z
	 M85.8,65.1c0,1,0.3,1.7,0.8,2.3c0.5,0.6,1.2,0.8,1.9,0.8c0.8,0,1.4-0.3,2-0.8c0.5-0.6,0.8-1.3,0.8-2.4c0-0.6-0.1-1.2-0.3-1.7
	c-0.2-0.5-0.5-0.9-1-1.1c-0.4-0.3-0.9-0.4-1.4-0.4c-0.7,0-1.4,0.3-1.9,0.8C86.1,63,85.8,63.9,85.8,65.1z M93.7,69v-8h3
	c0.6,0,1.1,0.1,1.5,0.2c0.4,0.2,0.7,0.4,0.9,0.7c0.2,0.3,0.3,0.7,0.3,1.1c0,0.3-0.1,0.7-0.3,1c-0.2,0.3-0.5,0.5-0.8,0.7
	c0.5,0.1,0.9,0.4,1.1,0.7c0.3,0.3,0.4,0.7,0.4,1.2c0,0.4-0.1,0.7-0.2,1c-0.2,0.3-0.4,0.6-0.6,0.7c-0.2,0.2-0.5,0.3-0.9,0.4
	c-0.4,0.1-0.8,0.1-1.3,0.1L93.7,69z M94.8,64.3h1.7c0.5,0,0.8,0,1-0.1c0.3-0.1,0.5-0.2,0.6-0.4c0.1-0.2,0.2-0.4,0.2-0.7
	c0-0.3-0.1-0.5-0.2-0.7c-0.1-0.2-0.3-0.3-0.5-0.4c-0.2-0.1-0.6-0.1-1.2-0.1h-1.6L94.8,64.3z M94.8,68h2c0.3,0,0.6,0,0.7,0
	c0.2,0,0.4-0.1,0.6-0.2c0.2-0.1,0.3-0.3,0.4-0.4c0.1-0.2,0.2-0.4,0.2-0.7c0-0.3-0.1-0.6-0.2-0.8c-0.2-0.2-0.4-0.4-0.6-0.5
	c-0.3-0.1-0.7-0.1-1.2-0.1h-1.8V68z M64.8,73.4h1v6.3l4.3-6.3h1v8h-1v-6.3l-4.2,6.3h-1.1V73.4z M72.6,75.6h2.3c0.6,0,1,0,1.2,0.1
	c0.3,0.1,0.5,0.3,0.7,0.5c0.2,0.2,0.3,0.5,0.3,0.9c0,0.3-0.1,0.5-0.2,0.7c-0.1,0.2-0.3,0.4-0.5,0.5c0.3,0.1,0.5,0.3,0.7,0.5
	c0.2,0.2,0.3,0.5,0.3,0.9c0,0.5-0.2,1-0.6,1.2c-0.4,0.3-0.9,0.4-1.5,0.4h-2.6L72.6,75.6z M73.6,78.1h1c0.4,0,0.7,0,0.9-0.1
	c0.2,0,0.3-0.1,0.4-0.3c0.1-0.1,0.2-0.3,0.2-0.5c0-0.3-0.1-0.5-0.3-0.6c-0.2-0.1-0.6-0.2-1.1-0.2h-1.1V78.1z M73.6,80.6h1.3
	c0.6,0,0.9-0.1,1.1-0.2c0.2-0.1,0.3-0.4,0.3-0.7c0-0.2-0.1-0.4-0.2-0.5c-0.1-0.2-0.3-0.3-0.5-0.3c-0.2,0-0.5-0.1-0.9-0.1h-1.2V80.6z
	 M82.2,80.7c-0.4,0.3-0.7,0.5-1.1,0.7c-0.3,0.1-0.7,0.2-1.1,0.2c-0.6,0-1.1-0.2-1.5-0.5c-0.3-0.3-0.5-0.7-0.5-1.2
	c0-0.3,0.1-0.5,0.2-0.8c0.1-0.2,0.3-0.4,0.5-0.6c0.2-0.1,0.4-0.2,0.7-0.3c0.2-0.1,0.5-0.1,0.9-0.1c0.8-0.1,1.4-0.2,1.8-0.3
	c0-0.1,0-0.2,0-0.3c0-0.4-0.1-0.7-0.3-0.8c-0.3-0.2-0.6-0.3-1.1-0.3c-0.5,0-0.8,0.1-1,0.2c-0.2,0.2-0.4,0.4-0.5,0.9l-1-0.1
	c0.1-0.4,0.2-0.7,0.4-1c0.2-0.3,0.5-0.4,0.9-0.6c0.4-0.1,0.8-0.2,1.3-0.2c0.5,0,0.9,0.1,1.2,0.2c0.3,0.1,0.5,0.3,0.7,0.4
	c0.1,0.2,0.2,0.4,0.3,0.7c0,0.2,0,0.5,0,0.9V79c0,0.9,0,1.5,0.1,1.7c0,0.2,0.1,0.5,0.2,0.7h-1C82.3,81.2,82.3,81,82.2,80.7z
	 M82.2,78.5c-0.4,0.1-0.9,0.3-1.6,0.4c-0.4,0.1-0.7,0.1-0.9,0.2c-0.2,0.1-0.3,0.2-0.4,0.3c-0.1,0.1-0.1,0.3-0.1,0.5
	c0,0.3,0.1,0.5,0.3,0.6c0.2,0.2,0.5,0.3,0.9,0.3c0.4,0,0.7-0.1,1-0.2c0.3-0.2,0.5-0.4,0.6-0.7c0.1-0.2,0.2-0.5,0.2-1L82.2,78.5z
	 M84.7,75.6h1V78h2.7v-2.4h1v5.8h-1v-2.6h-2.7v2.6h-1V75.6z M52.7,85.9h1v6.3l4.3-6.3h1v8h-1v-6.3l-4.2,6.3h-1.1V85.9z M60.6,88.1
	h2.3c0.6,0,1,0,1.2,0.1c0.3,0.1,0.5,0.3,0.7,0.5c0.2,0.2,0.3,0.5,0.3,0.9c0,0.3-0.1,0.5-0.2,0.7c-0.1,0.2-0.3,0.4-0.5,0.5
	c0.3,0.1,0.5,0.3,0.7,0.5c0.2,0.2,0.3,0.5,0.3,0.9c0,0.5-0.2,1-0.6,1.2c-0.4,0.3-0.9,0.4-1.5,0.4h-2.6L60.6,88.1z M61.5,90.5h1
	c0.4,0,0.7,0,0.9-0.1c0.2,0,0.3-0.1,0.4-0.3c0.1-0.1,0.2-0.3,0.2-0.5c0-0.3-0.1-0.5-0.3-0.6c-0.2-0.1-0.6-0.2-1.1-0.2h-1.1
	L61.5,90.5z M61.5,93.1h1.3c0.6,0,0.9-0.1,1.1-0.2c0.2-0.1,0.3-0.4,0.3-0.7c0-0.2-0.1-0.4-0.2-0.5c-0.1-0.2-0.3-0.3-0.5-0.3
	c-0.2,0-0.5-0.1-0.9-0.1h-1.2V93.1z M70.1,93.2c-0.4,0.3-0.7,0.5-1.1,0.7C68.8,94,68.4,94,68,94c-0.6,0-1.1-0.2-1.5-0.5
	c-0.3-0.3-0.5-0.7-0.5-1.2c0-0.3,0.1-0.5,0.2-0.8c0.1-0.2,0.3-0.4,0.5-0.6c0.2-0.1,0.4-0.2,0.7-0.3c0.2-0.1,0.5-0.1,0.9-0.1
	c0.8-0.1,1.4-0.2,1.8-0.3c0-0.1,0-0.2,0-0.3c0-0.4-0.1-0.7-0.3-0.8c-0.3-0.2-0.6-0.3-1.1-0.3c-0.5,0-0.8,0.1-1,0.2
	c-0.2,0.2-0.4,0.4-0.5,0.9l-1-0.1c0.1-0.4,0.2-0.7,0.4-1c0.2-0.3,0.5-0.4,0.9-0.6c0.4-0.1,0.8-0.2,1.3-0.2c0.5,0,0.9,0.1,1.2,0.2
	c0.3,0.1,0.5,0.3,0.7,0.4c0.1,0.2,0.2,0.4,0.3,0.7c0,0.2,0,0.5,0,0.9v1.3c0,0.9,0,1.5,0.1,1.7c0,0.2,0.1,0.5,0.2,0.7h-1
	C70.2,93.7,70.2,93.4,70.1,93.2z M70.1,91c-0.4,0.1-0.9,0.3-1.6,0.4c-0.4,0.1-0.7,0.1-0.9,0.2c-0.2,0.1-0.3,0.2-0.4,0.3
	c-0.1,0.1-0.1,0.3-0.1,0.5c0,0.3,0.1,0.5,0.3,0.6c0.2,0.2,0.5,0.3,0.9,0.3c0.4,0,0.7-0.1,1-0.2c0.3-0.2,0.5-0.4,0.6-0.7
	c0.1-0.2,0.2-0.5,0.2-1L70.1,91z M72.6,88.1h1v2.4h2.7v-2.4h1v5.8h-1v-2.6h-2.7v2.6h-1L72.6,88.1z M78.4,91c0-1.1,0.3-1.9,0.9-2.4
	c0.5-0.4,1.1-0.6,1.8-0.6c0.8,0,1.4,0.3,2,0.8c0.5,0.5,0.8,1.2,0.8,2.2c0,0.7-0.1,1.3-0.3,1.8c-0.2,0.4-0.5,0.8-1,1
	C82,93.9,81.6,94,81.1,94c-0.8,0-1.5-0.3-2-0.8C78.6,92.7,78.4,92,78.4,91z M79.4,91c0,0.7,0.2,1.3,0.5,1.7c0.3,0.4,0.7,0.6,1.2,0.6
	c0.5,0,0.9-0.2,1.2-0.6c0.3-0.4,0.5-0.9,0.5-1.7c0-0.7-0.2-1.3-0.5-1.6c-0.3-0.4-0.7-0.6-1.2-0.6c-0.5,0-0.9,0.2-1.2,0.5
	C79.5,89.7,79.4,90.3,79.4,91z M84.9,88.1h2.3c0.6,0,1,0,1.2,0.1c0.3,0.1,0.5,0.3,0.7,0.5c0.2,0.2,0.3,0.5,0.3,0.9
	c0,0.3-0.1,0.5-0.2,0.7c-0.1,0.2-0.3,0.4-0.5,0.5c0.3,0.1,0.5,0.3,0.7,0.5c0.2,0.2,0.3,0.5,0.3,0.9c0,0.5-0.2,1-0.6,1.2
	c-0.4,0.3-0.9,0.4-1.5,0.4h-2.6L84.9,88.1z M85.9,90.5h1c0.4,0,0.7,0,0.9-0.1c0.2,0,0.3-0.1,0.4-0.3c0.1-0.1,0.2-0.3,0.2-0.5
	c0-0.3-0.1-0.5-0.3-0.6c-0.2-0.1-0.6-0.2-1.1-0.2h-1.1V90.5z M85.9,93.1h1.3c0.6,0,0.9-0.1,1.1-0.2c0.2-0.1,0.3-0.4,0.3-0.7
	c0-0.2-0.1-0.4-0.2-0.5c-0.1-0.2-0.3-0.3-0.5-0.3c-0.2,0-0.5-0.1-0.9-0.1h-1.2V93.1z M90.9,88.1h1v4.4l2.7-4.4h1.1v5.8h-1v-4.4
	l-2.7,4.4h-1.1V88.1z M96.7,88.1h1v1.1c0,0.5,0,0.8,0.1,1c0.1,0.2,0.2,0.4,0.4,0.6c0.2,0.2,0.5,0.2,0.8,0.2c0.4,0,0.9-0.1,1.4-0.3
	v-2.6h1v5.8h-1v-2.3c-0.6,0.2-1.2,0.3-1.7,0.3c-0.4,0-0.8-0.1-1.2-0.3c-0.3-0.2-0.6-0.5-0.7-0.8c-0.1-0.3-0.2-0.7-0.2-1.1L96.7,88.1
	z"/>
</svg>
