<?xml version="1.0" encoding="UTF-8" standalone="no"?>
<svg
   xmlns:dc="http://purl.org/dc/elements/1.1/"
   xmlns:cc="http://creativecommons.org/ns#"
   xmlns:rdf="http://www.w3.org/1999/02/22-rdf-syntax-ns#"
   xmlns:svg="http://www.w3.org/2000/svg"
   xmlns="http://www.w3.org/2000/svg"
   viewBox="0 0 155.9055 155.9055"
   id="svg23"
   height="155.9055"
   width="155.9055"
   version="1.1">
  <metadata
     id="metadata29">
    <rdf:RDF>
      <cc:Work
         rdf:about="">
        <dc:format>image/svg+xml</dc:format>
        <dc:type
           rdf:resource="http://purl.org/dc/dcmitype/StillImage" />
      </cc:Work>
    </rdf:RDF>
  </metadata>
  <defs
     id="defs27" />
  <path
     id="path2"
     style="fill:none;stroke:#1b1918;stroke-width:1.13390005;stroke-linecap:butt;stroke-linejoin:miter;stroke-dasharray:none"
     d="m 77.9527,24.6613 c 29.427,0 53.2913,23.8638 53.2913,53.2908 0,29.4273 -23.8643,53.2919 -53.2913,53.2919 -29.4271,0 -53.2914,-23.8646 -53.2914,-53.2919 0,-29.427 23.8643,-53.2908 53.2914,-53.2908 z" />
  <path
     id="path4"
     style="fill:none;stroke:#1b1918;stroke-width:0.85039997;stroke-linecap:butt;stroke-linejoin:miter;stroke-dasharray:none"
     d="m 77.9527,26.9285 c 28.1749,0 51.0235,22.8492 51.0235,51.0236 0,28.1755 -22.8486,51.0239 -51.0235,51.0239 -28.175,0 -51.0236,-22.8484 -51.0236,-51.0239 0,-28.1744 22.8486,-51.0236 51.0236,-51.0236 z" />
  <path
     id="path6"
     style="fill:none;stroke:#1b1918;stroke-width:0.85039997;stroke-linecap:butt;stroke-linejoin:miter;stroke-dasharray:none"
     d="m 77.9527,37.5252 c 22.3236,0 40.4274,18.1032 40.4274,40.4269 0,22.3237 -18.1038,40.4277 -40.4274,40.4277 -22.3237,0 -40.4275,-18.104 -40.4275,-40.4277 0,-22.3237 18.1038,-40.4269 40.4275,-40.4269 z" />
  <path
     id="path8"
     style="fill:#1b1918;fill-rule:evenodd"
     d="m 48.5754,113.0675 c -0.0094,-0.157 -0.0409,-0.314 -0.096,-0.4697 -0.0797,-0.2259 -0.1195,-0.3805 -0.1195,-0.4638 0,-0.1182 0.0282,-0.2081 0.0855,-0.2706 0.0573,-0.0617 0.1264,-0.092 0.2097,-0.092 0.0703,0 0.1322,0.0303 0.1849,0.092 0.0528,0.0625 0.0785,0.1512 0.0785,0.267 0,0.1011 -0.0303,0.2439 -0.09,0.4276 -0.0609,0.1838 -0.0985,0.3537 -0.1125,0.5095 0.1264,-0.0797 0.2401,-0.1766 0.3395,-0.2918 0.1558,-0.1803 0.2718,-0.2928 0.3467,-0.3361 0.0761,-0.0433 0.1522,-0.0653 0.2307,-0.0653 0.0727,0 0.1358,0.0255 0.1885,0.0773 0.0527,0.0517 0.0785,0.1136 0.0785,0.1837 0,0.0845 -0.0375,0.1606 -0.1136,0.2259 -0.0749,0.0667 -0.2634,0.134 -0.5656,0.1991 -0.1757,0.0399 -0.3221,0.0845 -0.4392,0.135 0.1195,0.0607 0.2646,0.1078 0.4356,0.1404 0.2764,0.0505 0.4579,0.1122 0.5434,0.1883 0.0867,0.0749 0.1288,0.1584 0.1288,0.2475 0,0.0679 -0.0257,0.1274 -0.0773,0.1777 -0.0515,0.0507 -0.1112,0.0761 -0.1791,0.0761 -0.0691,0 -0.1452,-0.0242 -0.2283,-0.0725 -0.0833,-0.0481 -0.1969,-0.1558 -0.3385,-0.3221 -0.0936,-0.1125 -0.2097,-0.2177 -0.3501,-0.3158 0.0046,0.1306 0.0316,0.2724 0.0795,0.4246 0.0821,0.271 0.123,0.4535 0.123,0.5492 0,0.0941 -0.0269,0.1725 -0.0818,0.2355 -0.0552,0.0637 -0.1137,0.094 -0.1746,0.094 -0.0855,0 -0.1616,-0.0327 -0.2307,-0.0988 -0.0481,-0.048 -0.0715,-0.1249 -0.0715,-0.2307 0,-0.11 0.0258,-0.2412 0.0785,-0.3958 0.0528,-0.1546 0.0855,-0.261 0.0995,-0.3194 0.0142,-0.0577 0.0269,-0.1439 0.0375,-0.2586 -0.1346,0.0885 -0.253,0.1885 -0.3525,0.2986 -0.1675,0.1871 -0.2927,0.3067 -0.3782,0.3567 -0.0597,0.0367 -0.1206,0.0551 -0.1851,0.0551 -0.0773,0 -0.144,-0.0266 -0.1989,-0.0797 -0.0552,-0.0527 -0.0821,-0.1098 -0.0821,-0.1741 0,-0.0578 0.0233,-0.1171 0.0703,-0.1808 0.0469,-0.0629 0.117,-0.1146 0.2107,-0.1556 0.0621,-0.0281 0.2027,-0.0645 0.4216,-0.1102 0.1429,-0.0292 0.2811,-0.0737 0.4157,-0.1296 -0.124,-0.0623 -0.2716,-0.1104 -0.4425,-0.1444 -0.2812,-0.0595 -0.4555,-0.1136 -0.5212,-0.1612 -0.1031,-0.0761 -0.1546,-0.1675 -0.1546,-0.274 0,-0.0625 0.0257,-0.1194 0.0773,-0.1701 0.0515,-0.0515 0.1112,-0.0773 0.1803,-0.0773 0.0749,0 0.1546,0.0234 0.2401,0.0713 0.0842,0.0483 0.1897,0.1452 0.3151,0.2908 0.1264,0.1452 0.254,0.2574 0.384,0.3371 z" />
  <path
     id="path10"
     style="fill:#1b1918;fill-rule:evenodd"
     d="m 41.3853,109.1214 -0.3552,-0.4482 2.9548,-2.3405 -4.528,0.3543 -0.3875,-0.489 3.7312,-2.9557 0.3549,0.4482 -2.9469,2.3346 4.5162,-0.3535 0.3914,0.4944 z m 0.8036,-6.7907 -4.0122,2.5614 -0.3398,-0.5324 1.6528,-1.0553 -1.3235,-2.073 -1.6528,1.0554 -0.3399,-0.5324 4.0119,-2.5616 0.3398,0.5323 -1.8884,1.2059 1.3238,2.0729 1.8881,-1.2055 z m -7.0546,-2.5208 -1.1945,-2.6414 3.8282,-1.7311 -0.1752,-0.3878 1.5205,-0.6874 0.2302,0.5089 -1.0117,0.4575 1.2982,2.8712 1.0117,-0.4575 0.2302,0.5088 -1.5205,0.6877 -0.1508,-0.3334 c -0.6857,-0.1128 -1.8303,0.1931 -3.4325,0.9179 z m -0.4255,-2.2961 0.6849,1.5145 0.2219,-0.1006 c 0.3694,-0.1669 0.8907,-0.3625 1.5616,-0.5856 0.671,-0.2242 1.2572,-0.3311 1.7578,-0.3243 l -0.9065,-2.0049 z m -1.4454,-1.8592 -0.1868,-0.5403 3.5629,-1.2311 -4.3903,-1.1639 -0.2038,-0.5896 4.4989,-1.5546 0.1868,0.5403 -3.5536,1.228 4.379,1.1611 0.2058,0.5958 z m 2.9744,-6.0778 -4.638,1.0706 -0.4017,-1.7402 c -0.0819,-0.354 -0.1009,-0.6488 -0.0567,-0.8852 0.0445,-0.2356 0.1508,-0.4363 0.3181,-0.6024 0.1664,-0.1667 0.3566,-0.2744 0.57,-0.3237 0.1976,-0.0456 0.3969,-0.0349 0.5964,0.0318 0.1996,0.0663 0.3784,0.1955 0.5363,0.3877 0.0173,-0.2996 0.108,-0.5479 0.2719,-0.7438 0.1627,-0.197 0.3795,-0.3262 0.6497,-0.3886 0.2177,-0.0505 0.4303,-0.0507 0.6383,-0.002 0.2081,0.0485 0.3776,0.129 0.5106,0.2401 0.1312,0.112 0.2471,0.2639 0.3461,0.455 0.0986,0.1919 0.1822,0.4354 0.2506,0.731 z m -2.8304,0.0051 -0.2316,-1.0029 c -0.0626,-0.2719 -0.1261,-0.4632 -0.1887,-0.5726 -0.0828,-0.146 -0.1877,-0.2458 -0.3138,-0.2993 -0.1265,-0.0542 -0.2702,-0.063 -0.4335,-0.0253 -0.1544,0.0357 -0.2817,0.1038 -0.3812,0.205 -0.1006,0.1006 -0.1573,0.225 -0.169,0.3724 -0.0113,0.1469 0.0213,0.3873 0.0981,0.7198 l 0.2143,0.9275 z m 2.1442,-0.4949 -0.2668,-1.1554 c -0.0456,-0.1985 -0.0853,-0.3359 -0.1193,-0.4133 -0.0573,-0.1347 -0.1264,-0.2438 -0.2078,-0.3252 -0.0814,-0.0813 -0.186,-0.1391 -0.3135,-0.1743 -0.1276,-0.0354 -0.2651,-0.0357 -0.413,-0.0014 -0.1738,0.04 -0.3135,0.119 -0.4215,0.2384 -0.108,0.1179 -0.1693,0.2619 -0.1848,0.4317 -0.0154,0.1684 0.011,0.4008 0.079,0.6959 l 0.2478,1.0729 z m -5.0174,-3.3262 -0.0703,-0.5675 3.7409,-0.4635 -4.0524,-2.0511 -0.0768,-0.6194 4.7239,-0.5851 0.0703,0.5675 -3.7312,0.4621 4.0419,2.046 0.0774,0.6256 z m -0.5547,-5.652 -0.0831,-2.8976 4.1999,-0.1205 -0.0122,-0.4252 1.6682,-0.0479 0.0158,0.5582 -1.1097,0.0317 0.0904,3.1502 1.1098,-0.0318 0.0158,0.5582 -1.6679,0.0476 -0.0105,-0.3654 c -0.589,-0.3688 -1.7631,-0.5278 -3.5212,-0.4776 z m 0.4932,-2.2822 0.0476,1.6611 0.2438,-0.0068 c 0.4051,-0.0116 0.9613,0.0088 1.6668,0.0618 0.7053,0.0519 1.2875,0.1794 1.7467,0.379 L 34.1144,77.722 Z m -0.5176,-1.9111 0.0482,-0.6318 3.0362,-1.3323 -2.8148,-1.5735 0.047,-0.6188 3.557,2.059 c 0.4447,0.2569 0.7336,0.4624 0.8651,0.616 0.1318,0.1531 0.1871,0.3617 0.167,0.627 -0.0122,0.1613 -0.065,0.3563 -0.1579,0.5857 L 34.1657,75.606 c 0.11,-0.1605 0.1723,-0.3345 0.1865,-0.5225 0.0116,-0.1525 -0.028,-0.2877 -0.1179,-0.4067 -0.0901,-0.118 -0.3047,-0.2577 -0.6449,-0.4182 z m 5.0156,-3.4064 -4.356,-2.649 0.1242,-0.6811 5.0298,-1.054 -0.1284,0.7053 -1.5177,0.2835 -0.3591,1.972 1.3269,0.7662 z m -1.6778,-1.6971 0.2906,-1.5962 -1.3873,0.252 c -0.4215,0.0754 -0.7673,0.1273 -1.0389,0.1579 0.2937,0.1199 0.5777,0.2605 0.8546,0.4226 z m -1.819,-4.9725 0.8059,-2.8602 4.5816,1.2912 -0.1714,0.608 -4.044,-1.1398 -0.4634,1.6444 2.3601,0.6653 c 0.4799,0.1352 0.8243,0.2565 1.0347,0.3639 0.2114,0.1083 0.3574,0.2515 0.4416,0.4306 0.083,0.1792 0.0933,0.3799 0.0309,0.6007 -0.038,0.1344 -0.1108,0.2877 -0.2191,0.4598 l -0.5071,-0.2605 c 0.0793,-0.0845 0.1289,-0.1627 0.1488,-0.2333 0.0385,-0.1364 0.0161,-0.2543 -0.0678,-0.3518 -0.0842,-0.0972 -0.3177,-0.1998 -0.7016,-0.3081 z m 1.3468,-4.3626 0.2338,-0.5867 1.8836,0.75 0.4193,-1.0528 c 0.1961,-0.4923 0.3954,-0.8254 0.5981,-1.0014 0.2027,-0.1744 0.4224,-0.2705 0.6576,-0.2892 0.2359,-0.0167 0.459,0.0159 0.6676,0.0992 0.343,0.1364 0.5973,0.3725 0.7614,0.7087 0.1655,0.3356 0.1219,0.8201 -0.131,1.4553 l -0.6681,1.6778 z m 4.1556,0.9749 0.4254,-1.0684 c 0.1727,-0.4334 0.2078,-0.7464 0.1069,-0.9391 -0.1015,-0.1916 -0.2614,-0.332 -0.4788,-0.4184 -0.1757,-0.07 -0.3449,-0.0825 -0.5068,-0.036 -0.161,0.0453 -0.2923,0.1412 -0.3915,0.2854 -0.0992,0.144 -0.2245,0.4054 -0.3756,0.7844 l -0.3112,0.7821 z m 1.9777,-3.2633 -4.2429,-2.1574 0.2863,-0.563 1.7481,0.889 1.1149,-2.1926 -1.7481,-0.8887 0.2863,-0.5629 4.2428,2.1574 -0.2863,0.563 -1.997,-1.0157 -1.1148,2.1926 1.997,1.0154 z m -1.5817,-7.0271 0.3665,-0.5144 1.6514,1.1763 0.6577,-0.9232 c 0.4311,-0.6058 0.8268,-0.9241 1.1877,-0.9553 0.3591,-0.0309 0.6817,0.0547 0.9663,0.2571 0.3002,0.214 0.4904,0.5032 0.5701,0.8688 0.0793,0.3637 -0.0777,0.8232 -0.4729,1.3785 l -1.0496,1.4738 z m 3.8046,1.9347 0.6662,-0.9352 c 0.2287,-0.3211 0.3412,-0.5935 0.3359,-0.8149 -0.0051,-0.2225 -0.127,-0.4181 -0.3651,-0.5879 -0.1616,-0.1148 -0.3294,-0.1681 -0.5012,-0.1582 -0.1715,0.0099 -0.3217,0.074 -0.4507,0.1916 -0.1281,0.1171 -0.3084,0.3382 -0.54,0.6631 l -0.4879,0.6851 z m -1.3943,-5.3189 0.3665,-0.5145 3.8772,2.7615 -0.3665,0.5142 z m 1.4816,-1.9341 0.3952,-0.4133 2.7243,2.605 -0.9734,-4.4365 0.4312,-0.451 3.4404,3.2896 -0.3952,0.4133 -2.7173,-2.5982 0.9709,4.4249 -0.4357,0.4558 z m 0.8136,-2.5058 0.2758,-0.288 c 0.1752,0.2123 0.2588,0.4297 0.2494,0.6511 -0.0082,0.2219 -0.1077,0.4317 -0.2985,0.6313 -0.1913,0.2001 -0.3974,0.3098 -0.6165,0.3288 -0.2197,0.0181 -0.4408,-0.0553 -0.6622,-0.2225 l 0.2756,-0.2883 c 0.1284,0.0816 0.2514,0.1148 0.3665,0.1006 0.1156,-0.0136 0.2265,-0.0765 0.3313,-0.1862 0.1217,-0.1273 0.188,-0.2481 0.1979,-0.3626 0.0108,-0.1139 -0.0286,-0.2361 -0.1193,-0.3642 z m 4.2131,-2.5685 2.9364,-2.3102 2.9435,3.7408 -0.4963,0.3904 -2.598,-3.3018 -1.944,1.5293 2.598,3.3018 -0.4964,0.3906 z m 6.7272,0.7747 -2.5611,-4.0122 1.5145,-0.9669 c 0.2662,-0.1698 0.4782,-0.2868 0.6353,-0.3517 0.218,-0.093 0.4232,-0.1361 0.6154,-0.1296 0.1924,0.0071 0.3821,0.0675 0.5689,0.1806 0.1868,0.1137 0.3433,0.2701 0.4703,0.4691 0.2168,0.3396 0.2928,0.6976 0.2253,1.0718 -0.0658,0.3745 -0.3838,0.7435 -0.9516,1.1061 l -1.0292,0.6568 1.0445,1.6361 z m -0.8127,-2.4466 1.0369,-0.6619 c 0.3436,-0.2194 0.5457,-0.4379 0.6086,-0.6585 0.0624,-0.2194 0.0196,-0.4447 -0.1287,-0.6774 -0.1069,-0.1673 -0.2407,-0.2841 -0.4017,-0.3496 -0.1615,-0.0652 -0.324,-0.0728 -0.487,-0.0229 -0.1043,0.034 -0.2775,0.1273 -0.5173,0.2803 l -1.0264,0.6554 z m 4.6086,0.0632 -2.147,-4.2483 3.0676,-1.5502 0.2518,0.4986 -2.5039,1.2654 0.6596,1.305 2.3437,-1.1843 0.252,0.4984 -2.3439,1.1843 0.7319,1.4479 2.6047,-1.3164 0.252,0.4983 z m 2.6739,-6.546 2.7003,-1.0542 1.5278,3.9138 0.3963,-0.1545 0.6069,1.5545 -0.5204,0.203 -0.4037,-1.0344 -2.9355,1.146 0.4036,1.0344 -0.5201,0.203 -0.6067,-1.5546 0.3405,-0.1329 c 0.1488,-0.6789 -0.0967,-1.838 -0.7362,-3.4761 z m 2.315,-0.3045 -1.5483,0.6044 0.0888,0.2273 c 0.1474,0.3776 0.3152,0.908 0.5028,1.59 0.1888,0.6817 0.2648,1.2727 0.2316,1.7725 l 2.0498,-0.8002 z m 1.982,-1.2597 3.5963,-1.0134 1.2909,4.5817 -0.6077,0.1712 -1.1395,-4.0439 -2.3806,0.6707 1.1395,4.0441 -0.608,0.1713 z m 5.9389,3.3327 -0.5851,-4.7239 1.7836,-0.2208 c 0.3132,-0.0389 0.5547,-0.0533 0.7245,-0.0443 0.237,0.01 0.4405,0.0596 0.6112,0.1477 0.1709,0.0896 0.316,0.2254 0.4359,0.4082 0.1199,0.1828 0.1936,0.3915 0.2225,0.6256 0.0496,0.4 -0.036,0.7557 -0.2579,1.0647 -0.2203,0.3098 -0.6662,0.5057 -1.3348,0.5885 l -1.2119,0.1502 0.2387,1.9264 z m 0.3194,-2.5583 1.2206,-0.1513 c 0.4045,-0.0499 0.6812,-0.1602 0.8329,-0.3322 0.1508,-0.1715 0.2094,-0.3932 0.1754,-0.667 -0.0244,-0.1968 -0.0949,-0.36 -0.2123,-0.4884 -0.1173,-0.1282 -0.2611,-0.2053 -0.4294,-0.2302 -0.1089,-0.0145 -0.3053,-0.0046 -0.5879,0.0303 l -1.2085,0.1497 z m 3.9904,-2.7938 0.5714,-0.0164 0.108,3.7678 2.4248,-3.8404 0.6236,-0.0178 0.1366,4.7579 -0.5714,0.0164 -0.108,-3.7581 -2.4185,3.8304 -0.6302,0.0182 z m 4.9632,4.6228 0.3611,-4.7461 0.6298,0.0479 -0.1488,1.9554 2.4526,0.1868 0.1488,-1.9557 0.6296,0.0482 -0.3612,4.7461 -0.6298,-0.0479 0.17,-2.234 -2.4525,-0.1868 -0.1701,2.234 z m 5.6596,-4.2917 0.5624,0.1026 -0.6752,3.7086 3.168,-3.2548 0.614,0.1117 -0.8527,4.6829 -0.5624,-0.1024 0.6732,-3.6986 -3.1597,3.2459 -0.6203,-0.1128 z m 3.8407,5.6157 1.2909,-4.5813 0.9088,0.2559 0.1698,3.5482 c 0.015,0.3302 0.0238,0.5768 0.0274,0.7401 0.0993,-0.1517 0.2501,-0.3739 0.4522,-0.6659 l 2.0009,-2.8757 0.8113,0.2287 -1.2909,4.5817 -0.5822,-0.1641 1.08,-3.8331 -2.4177,3.456 -0.5459,-0.1539 -0.2226,-4.2758 -1.0998,3.9033 z m 4.8515,1.4621 3.6178,-3.592 0.6316,0.284 -0.1851,5.1358 -0.654,-0.2939 0.0896,-1.5418 -1.8281,-0.8221 -1.0624,1.1039 z m 2.0505,-1.2208 1.4797,0.6652 0.0885,-1.4071 c 0.028,-0.4272 0.0606,-0.7755 0.0964,-1.0465 -0.1868,0.2562 -0.3918,0.4983 -0.6154,0.7282 z m 3.0912,3.6308 2.0988,-3.6396 -1.3592,-0.7838 0.2789,-0.4839 3.2655,1.8831 -0.2789,0.4838 -1.3592,-0.7837 -2.0988,3.6396 z m 2.5277,1.425 2.7618,-3.8766 2.7995,1.9941 -0.324,0.4547 -2.285,-1.6276 -0.8487,1.1911 2.139,1.5236 -0.324,0.4547 -2.139,-1.5236 -0.9411,1.3212 2.3771,1.6934 -0.324,0.455 z m 7.0027,-0.7931 2.2521,1.9383 -3.1051,3.6077 -0.4784,-0.4119 2.7408,-3.1844 -1.2949,-1.1146 -1.5996,1.8584 c -0.3254,0.3781 -0.5808,0.6392 -0.767,0.7843 -0.1874,0.146 -0.379,0.2177 -0.5769,0.2183 -0.1973,0 -0.3835,-0.0757 -0.5573,-0.2254 -0.106,-0.0912 -0.214,-0.2219 -0.3243,-0.3929 l 0.4502,-0.3495 c 0.0434,0.1075 0.093,0.1854 0.1485,0.2333 0.1075,0.0924 0.2237,0.1222 0.3475,0.0871 0.1239,-0.0352 0.3155,-0.2036 0.5758,-0.5057 z m 3.4019,2.9959 0.4365,0.4567 -1.4652,1.4014 0.7832,0.819 c 0.3662,0.3829 0.5865,0.7027 0.6621,0.9601 0.0743,0.2568 0.0703,0.4966 -0.0102,0.7183 -0.0827,0.2213 -0.2052,0.4107 -0.3676,0.566 -0.2668,0.2552 -0.5871,0.3881 -0.9612,0.398 -0.3742,0.0111 -0.7966,-0.2301 -1.2691,-0.7242 l -1.2484,-1.3051 z m -2.6142,3.3744 0.7952,0.8311 c 0.3223,0.337 0.5921,0.4992 0.8093,0.4876 0.2168,-0.0128 0.4107,-0.0998 0.5796,-0.2614 0.1369,-0.1309 0.2186,-0.2798 0.2432,-0.4462 0.0258,-0.1655 -0.007,-0.3245 -0.0966,-0.4748 -0.0899,-0.1499 -0.2753,-0.3727 -0.5573,-0.6675 l -0.582,-0.6083 z m 4.7903,2.5744 c 0.6613,-0.4697 1.2722,-0.6848 1.8346,-0.6454 0.5618,0.0388 0.9975,0.2755 1.3062,0.7098 0.1996,0.2809 0.3016,0.593 0.3081,0.9365 0.005,0.3442 -0.0949,0.6914 -0.3013,1.0418 -0.2061,0.3489 -0.5185,0.6729 -0.9354,0.9691 -0.5746,0.4082 -1.1356,0.6098 -1.6824,0.6052 -0.6032,-0.0051 -1.0704,-0.2401 -1.4014,-0.7061 -0.3337,-0.4697 -0.3977,-0.9921 -0.192,-1.5692 0.186,-0.5222 0.5398,-0.9695 1.0636,-1.3417 z m 0.3019,0.438 c -0.4788,0.3401 -0.7739,0.7092 -0.8878,1.1077 -0.114,0.398 -0.0632,0.749 0.1514,1.0509 0.2194,0.3086 0.5363,0.4736 0.9515,0.4937 0.4156,0.0205 0.8819,-0.1536 1.3984,-0.5204 0.3336,-0.237 0.5933,-0.5029 0.7795,-0.7968 0.1417,-0.2257 0.2149,-0.4652 0.216,-0.7175 0.002,-0.2534 -0.0666,-0.4787 -0.2072,-0.6766 -0.2259,-0.3178 -0.544,-0.4861 -0.955,-0.504 -0.4107,-0.0179 -0.8932,0.1698 -1.4468,0.563 z m 4.3483,1.9632 1.2737,1.9948 -0.4709,0.3005 -0.9944,-1.5577 -3.5413,2.2612 -0.2789,-0.4371 z m -2.4681,5.0562 4.248,-2.1472 0.6636,1.313 c 0.1565,0.3098 0.2449,0.5505 0.265,0.7254 0.0284,0.2378 -0.0263,0.4663 -0.1646,0.6865 -0.1381,0.22 -0.3521,0.4039 -0.6407,0.5496 -0.3818,0.1931 -0.7427,0.2529 -1.0814,0.1792 -0.3399,-0.0729 -0.631,-0.3487 -0.8728,-0.8274 l -0.451,-0.8921 -1.7322,0.8756 z m 2.4647,-0.6647 0.4553,0.9008 c 0.1434,0.2838 0.3126,0.459 0.508,0.5253 0.1947,0.0666 0.4215,0.034 0.6806,-0.097 0.168,-0.085 0.295,-0.1902 0.3821,-0.3149 0.0878,-0.1261 0.1304,-0.246 0.1289,-0.3591 -0.002,-0.1146 -0.0643,-0.2917 -0.1851,-0.531 l -0.451,-0.892 z m -0.8044,3.933 4.4342,-1.7308 0.1885,0.483 -1.8266,0.713 0.7373,1.8887 1.8266,-0.7129 0.1885,0.483 -4.4339,1.7308 -0.1886,-0.483 2.0869,-0.8147 -0.7373,-1.889 -2.0868,0.815 z m 6.0653,2.3945 0.1261,0.4478 -3.6419,1.0265 4.2085,0.9839 0.1404,0.498 -4.5817,1.2909 -0.1261,-0.4476 3.6473,-1.0278 -4.2148,-0.9856 -0.1395,-0.4949 z m -3.4158,5.6131 -0.1168,-0.5051 4.6381,-1.0706 0.6894,2.9863 -4.6381,1.0706 -0.1165,-0.5054 4.0938,-0.9451 -0.4561,-1.9757 z m 3.1808,4.3325 c 0.7954,-0.0607 1.4065,6e-4 1.8329,0.1837 0.4263,0.1831 0.6559,0.4836 0.6876,0.9011 0.0281,0.3702 -0.1156,0.6747 -0.4317,0.9131 -0.3824,0.2891 -1.0145,0.4671 -1.8961,0.5343 -0.7923,0.0604 -1.4023,0 -1.8295,-0.182 -0.4271,-0.182 -0.657,-0.4833 -0.6888,-0.9031 -0.0283,-0.3702 0.1299,-0.6868 0.4743,-0.9505 0.3444,-0.263 0.9618,-0.4288 1.8513,-0.4966 z m 0.0385,0.4901 c -0.7716,0.059 -1.2838,0.1724 -1.5344,0.3393 -0.252,0.167 -0.369,0.366 -0.3515,0.5959 0.0165,0.2177 0.1627,0.3886 0.4403,0.5153 0.2775,0.1253 0.7979,0.159 1.5635,0.1009 0.7745,-0.0589 1.2858,-0.1723 1.5364,-0.339 0.2509,-0.167 0.3665,-0.3679 0.3487,-0.6024 -0.0165,-0.2154 -0.1627,-0.3852 -0.44,-0.5096 -0.2772,-0.1248 -0.7976,-0.1585 -1.563,-0.1004 z m 0.1999,2.6708 c 0.7973,-0.0229 1.4051,0.0669 1.8221,0.2699 0.4172,0.2032 0.6324,0.5142 0.6446,0.9326 0.0105,0.371 -0.1474,0.6684 -0.4743,0.8915 -0.3957,0.271 -1.0355,0.4189 -1.9193,0.4444 -0.7943,0.023 -1.4009,-0.066 -1.819,-0.2678 -0.4181,-0.2019 -0.6333,-0.5139 -0.6454,-0.9346 -0.0108,-0.3713 0.1621,-0.68 0.5187,-0.9272 0.3563,-0.2466 0.9808,-0.383 1.8726,-0.4088 z m 0.0153,0.4916 c -0.7733,0.0223 -1.2906,0.1114 -1.5486,0.2664 -0.2596,0.1548 -0.3861,0.3484 -0.3793,0.5786 0.006,0.2182 0.1443,0.396 0.4156,0.5357 0.271,0.1381 0.7894,0.1964 1.5571,0.1743 0.7764,-0.0224 1.2926,-0.1114 1.5505,-0.2661 0.2585,-0.1551 0.3835,-0.3504 0.3767,-0.5851 -0.006,-0.216 -0.1442,-0.3926 -0.4152,-0.5301 -0.2713,-0.1377 -0.7895,-0.1959 -1.5568,-0.1737 z m 0.0255,2.7011 c 0.7971,0.0227 1.3989,0.1474 1.8037,0.3739 0.4048,0.2267 0.6018,0.5496 0.5899,0.968 -0.0105,0.3711 -0.1854,0.6588 -0.5247,0.8629 -0.4105,0.2477 -1.0576,0.3588 -1.9415,0.3336 -0.7943,-0.0227 -1.3946,-0.146 -1.8006,-0.3716 -0.4059,-0.2254 -0.6029,-0.5494 -0.5907,-0.97 0.0105,-0.3714 0.2007,-0.6696 0.5709,-0.8961 0.3699,-0.2256 1.0012,-0.3262 1.893,-0.3007 z m -0.0131,0.4915 c -0.7732,-0.0218 -1.2948,0.0374 -1.5613,0.1775 -0.2679,0.1397 -0.4051,0.3254 -0.4119,0.5558 -0.006,0.2183 0.1217,0.4037 0.3844,0.5585 0.2628,0.1536 0.777,0.2415 1.5443,0.2633 0.7764,0.0221 1.2969,-0.0369 1.5636,-0.1769 0.2668,-0.1397 0.4028,-0.3277 0.4096,-0.5624 0.006,-0.216 -0.1216,-0.4002 -0.3843,-0.553 -0.2628,-0.1528 -0.777,-0.2407 -1.5444,-0.2628 z m -0.1448,2.7868 c 0.7917,0.098 1.3788,0.2789 1.7603,0.5428 0.3816,0.2642 0.5471,0.6041 0.4958,1.0193 -0.0457,0.3685 -0.2469,0.6384 -0.6041,0.8096 -0.432,0.2078 -1.0868,0.2574 -1.9644,0.1485 -0.7883,-0.0978 -1.3745,-0.2775 -1.7572,-0.5405 -0.3827,-0.2628 -0.5482,-0.6038 -0.4963,-1.0214 0.0456,-0.3685 0.2633,-0.6474 0.6531,-0.8379 0.3895,-0.1899 1.0275,-0.2301 1.9128,-0.1204 z m -0.0593,0.4881 c -0.7679,-0.095 -1.2925,-0.0853 -1.5712,0.0289 -0.2801,0.1137 -0.434,0.2857 -0.4623,0.5145 -0.027,0.2165 0.0827,0.4133 0.3294,0.5924 0.2471,0.1778 0.7506,0.3138 1.5128,0.4082 0.7708,0.0955 1.2943,0.0856 1.573,-0.0283 0.2789,-0.114 0.4322,-0.288 0.4612,-0.5213 0.0263,-0.2143 -0.0834,-0.4099 -0.3306,-0.5868 -0.2469,-0.1772 -0.7506,-0.3132 -1.5123,-0.4076 z m -0.3554,2.6767 c 0.7849,0.1429 1.3606,0.3569 1.7266,0.6418 0.3662,0.2854 0.5122,0.6341 0.4371,1.046 -0.0664,0.3654 -0.2826,0.6233 -0.6489,0.7738 -0.4433,0.1832 -1.0998,0.1951 -1.9695,0.0369 -0.7818,-0.1423 -1.3567,-0.3552 -1.724,-0.6395 -0.3671,-0.284 -0.5128,-0.6338 -0.4374,-1.048 0.0663,-0.3654 0.2996,-0.6315 0.6996,-0.7996 0.3997,-0.1673 1.0389,-0.1712 1.9165,-0.0114 z m -0.0868,0.4839 c -0.7611,-0.1383 -1.2858,-0.1584 -1.5703,-0.0604 -0.2861,0.0978 -0.4496,0.2608 -0.491,0.4873 -0.0391,0.2149 0.0592,0.4176 0.2956,0.6103 0.2365,0.1913 0.7314,0.3558 1.4871,0.4935 0.7639,0.1389 1.2875,0.159 1.5721,0.061 0.2849,-0.0978 0.4476,-0.2631 0.4898,-0.4941 0.0386,-0.2126 -0.0598,-0.4142 -0.2965,-0.6046 -0.2367,-0.1908 -0.7316,-0.3555 -1.4868,-0.493 z m -0.5275,2.7411 c 0.7679,0.2163 1.321,0.4836 1.6583,0.8019 0.3376,0.3186 0.4501,0.6798 0.3365,1.0826 -0.1007,0.3574 -0.3402,0.5938 -0.7192,0.7092 -0.4586,0.1403 -1.1132,0.0904 -1.9641,-0.1494 -0.7648,-0.2154 -1.3173,-0.4816 -1.656,-0.7993 -0.3388,-0.3175 -0.4507,-0.6795 -0.3365,-1.0849 0.1006,-0.3574 0.358,-0.6003 0.7719,-0.7299 0.4138,-0.1287 1.0505,-0.0723 1.9091,0.1698 z m -0.1321,0.4737 c -0.7446,-0.2101 -1.2648,-0.2792 -1.5576,-0.2086 -0.294,0.0703 -0.4723,0.2171 -0.5346,0.4388 -0.0593,0.21 0.0192,0.4212 0.2364,0.6355 0.2174,0.2129 0.6948,0.4232 1.4337,0.6315 0.7478,0.2107 1.2668,0.2801 1.5594,0.2095 0.2928,-0.0706 0.4705,-0.2197 0.5343,-0.4459 0.0587,-0.2077 -0.0204,-0.4178 -0.2378,-0.6298 -0.2177,-0.2123 -0.6951,-0.423 -1.4338,-0.631 z m -0.7322,2.5823 c 0.756,0.2543 1.2952,0.5488 1.6163,0.8836 0.3212,0.3351 0.4156,0.701 0.2821,1.0979 -0.1182,0.352 -0.3694,0.5762 -0.7535,0.6726 -0.4648,0.1174 -1.1162,0.0349 -1.9544,-0.2469 -0.7529,-0.2534 -1.2915,-0.5465 -1.6138,-0.8807 -0.3226,-0.3339 -0.4164,-0.701 -0.2823,-1.1001 0.1182,-0.3521 0.3872,-0.5817 0.8073,-0.6905 0.4198,-0.108 1.0528,-0.0202 1.8983,0.2641 z m -0.1556,0.4666 c -0.7333,-0.2466 -1.2495,-0.3418 -1.5452,-0.2857 -0.297,0.0556 -0.4824,0.1933 -0.5558,0.4116 -0.0698,0.2069 -0.002,0.4215 0.2043,0.6463 0.2067,0.2236 0.673,0.4575 1.4009,0.7024 0.7362,0.2475 1.2512,0.3424 1.5469,0.2866 0.2959,-0.0561 0.481,-0.1959 0.5559,-0.4187 0.0689,-0.2046 3e-4,-0.4184 -0.2064,-0.6409 -0.2069,-0.2231 -0.6729,-0.4569 -1.4006,-0.7016 z m -0.9042,2.6499 c 0.7276,0.3268 1.2353,0.6729 1.5219,1.0374 0.2871,0.3649 0.345,0.7385 0.1735,1.1203 -0.1523,0.3387 -0.4241,0.5374 -0.8159,0.5955 -0.4742,0.0712 -1.1142,-0.0745 -1.9207,-0.4371 -0.7248,-0.3257 -1.2319,-0.6704 -1.5199,-1.0343 -0.2883,-0.364 -0.3459,-0.7387 -0.1735,-1.1225 0.1525,-0.3388 0.4425,-0.5412 0.8711,-0.6084 0.4283,-0.0663 1.0499,0.0831 1.8635,0.4491 z m -0.2007,0.449 c -0.7056,-0.3172 -1.2099,-0.4627 -1.5098,-0.4357 -0.301,0.0261 -0.4991,0.1451 -0.5935,0.3554 -0.0896,0.199 -0.0428,0.4193 0.1403,0.6631 0.1837,0.2426 0.6247,0.5213 1.3252,0.8359 0.7083,0.3186 1.2115,0.4637 1.5114,0.4368 0.3002,-0.0266 0.4981,-0.1479 0.5944,-0.3622 0.0885,-0.1971 0.0411,-0.4162 -0.1428,-0.658 -0.184,-0.2423 -0.6251,-0.5207 -1.3252,-0.8353 z m -1.0922,2.4474 c 0.7109,0.3617 1.2016,0.7316 1.4706,1.1095 0.269,0.3781 0.309,0.754 0.1193,1.1273 -0.1683,0.3308 -0.4493,0.5162 -0.8433,0.5556 -0.477,0.0485 -1.1097,-0.1278 -1.8978,-0.5287 -0.7081,-0.3602 -1.1982,-0.7285 -1.4686,-1.106 -0.2704,-0.3773 -0.3101,-0.7543 -0.1193,-1.1296 0.1683,-0.3308 0.468,-0.5194 0.8994,-0.5658 0.4309,-0.0457 1.0446,0.1335 1.8397,0.5377 z m -0.222,0.4391 c -0.6894,-0.3507 -1.1863,-0.5202 -1.487,-0.5077 -0.3022,0.0119 -0.5057,0.121 -0.61,0.3265 -0.099,0.1945 -0.063,0.4167 0.1082,0.6693 0.1721,0.2512 0.5993,0.5502 1.2838,0.8983 0.6923,0.3521 1.188,0.5213 1.4888,0.5088 0.301,-0.0122 0.5043,-0.1238 0.6109,-0.3333 0.0978,-0.1925 0.0612,-0.4139 -0.1111,-0.6642 -0.1721,-0.2506 -0.5993,-0.5499 -1.2836,-0.8977 z m -1.2583,2.3777 c 0.6911,0.3985 1.1614,0.794 1.4103,1.1854 0.2486,0.3918 0.269,0.7694 0.0598,1.1319 -0.1857,0.3217 -0.476,0.4921 -0.8714,0.5105 -0.4791,0.0233 -1.1015,-0.1859 -1.8672,-0.6279 -0.6885,-0.3968 -1.1582,-0.7905 -1.4085,-1.1817 -0.2503,-0.3912 -0.2699,-0.7696 -0.0595,-1.1342 0.1853,-0.3217 0.4946,-0.494 0.9277,-0.5178 0.4329,-0.023 1.0361,0.1882 1.8088,0.6338 z m -0.2446,0.4266 c -0.6701,-0.3864 -1.1574,-0.5817 -1.4584,-0.5851 -0.3022,-0.004 -0.5111,0.0944 -0.6262,0.294 -0.1091,0.189 -0.0848,0.413 0.0728,0.6741 0.1585,0.2596 0.5695,0.5811 1.2345,0.9649 0.673,0.3877 1.1591,0.5828 1.4602,0.5862 0.301,0.004 0.5099,-0.0973 0.6276,-0.3008 0.1077,-0.1871 0.0827,-0.4099 -0.076,-0.669 -0.1588,-0.2593 -0.5695,-0.5808 -1.2345,-0.9643 z m -1.4641,2.3777 c 0.6497,0.4626 1.08,0.9011 1.2903,1.3147 0.2101,0.4139 0.1942,0.7914 -0.0487,1.1324 -0.2155,0.3025 -0.5207,0.4442 -0.9162,0.425 -0.479,-0.0227 -1.0786,-0.2906 -1.7986,-0.8037 -0.6471,-0.4609 -1.0774,-0.8977 -1.2889,-1.311 -0.2117,-0.4133 -0.195,-0.792 0.0491,-1.1347 0.2154,-0.3025 0.5394,-0.4445 0.9731,-0.4266 0.4328,0.0184 1.0134,0.2863 1.7399,0.8039 z m -0.2843,0.4011 c -0.6302,-0.4487 -1.0965,-0.6897 -1.3958,-0.7217 -0.3005,-0.0332 -0.5179,0.0448 -0.6517,0.2327 -0.1264,0.1778 -0.1236,0.4028 0.008,0.6778 0.1327,0.2738 0.5108,0.633 1.1364,1.0786 0.6327,0.4504 1.0979,0.6911 1.3972,0.7231 0.2997,0.0323 0.5171,-0.0479 0.6534,-0.2393 0.1253,-0.176 0.1219,-0.4002 -0.0113,-0.6732 -0.1332,-0.2732 -0.5117,-0.6327 -1.1367,-1.078 z m -1.5724,2.1569 c 0.629,0.4907 1.0398,0.9473 1.2317,1.3697 0.1922,0.4226 0.1596,0.7994 -0.0978,1.1293 -0.2285,0.2928 -0.5398,0.4212 -0.934,0.3847 -0.4774,-0.0437 -1.0647,-0.3374 -1.7618,-0.8813 -0.6264,-0.4887 -1.0372,-0.944 -1.2305,-1.366 -0.1936,-0.4221 -0.1604,-0.7997 0.0984,-1.1316 0.2284,-0.2929 0.5584,-0.4204 0.9907,-0.3836 0.4317,0.0372 1,0.3303 1.7033,0.8788 z m -0.3016,0.3886 c -0.61,-0.4759 -1.0653,-0.737 -1.3629,-0.7821 -0.2988,-0.0462 -0.5193,0.0224 -0.661,0.2041 -0.1344,0.1721 -0.1412,0.3972 -0.0213,0.6775 0.1208,0.2795 0.483,0.6548 1.0885,1.1271 0.6123,0.4776 1.0667,0.7381 1.3643,0.7835 0.2977,0.0453 0.5188,-0.0253 0.6633,-0.2107 0.1327,-0.1703 0.1389,-0.3945 0.0176,-0.6732 -0.121,-0.2789 -0.4833,-0.6542 -1.0885,-1.1262 z m -1.7807,2.1657 c 0.5765,0.5513 0.9394,1.0471 1.0879,1.4865 0.1488,0.4396 0.0785,0.8112 -0.2106,1.1137 -0.2568,0.2684 -0.5791,0.3648 -0.9677,0.2889 -0.4709,-0.0913 -1.0256,-0.4425 -1.6648,-1.0534 -0.5743,-0.5491 -0.9372,-1.0432 -1.0871,-1.4828 -0.1503,-0.4394 -0.0794,-0.8116 0.2114,-1.1157 0.2569,-0.2685 0.5979,-0.3623 1.0242,-0.2826 0.426,0.0805 0.9618,0.4291 1.6067,1.0454 z m -0.339,0.3563 c -0.5593,-0.5346 -0.9862,-0.8399 -1.2776,-0.9147 -0.2928,-0.076 -0.519,-0.0301 -0.6784,0.1366 -0.1508,0.1579 -0.1802,0.381 -0.0892,0.6721 0.0921,0.29 0.4149,0.6999 0.97,1.2305 0.5612,0.5366 0.9873,0.8416 1.2787,0.9164 0.2919,0.0752 0.5187,0.027 0.6811,-0.1431 0.1494,-0.1559 0.1781,-0.3784 0.0854,-0.6679 -0.0924,-0.2897 -0.4153,-0.6993 -0.97,-1.2299 z" />
  <path
     id="path12"
     style="fill:#1b1918;fill-rule:evenodd"
     d="m 107.4394,113.0675 c -0.009,-0.157 -0.0409,-0.314 -0.0961,-0.4697 -0.0796,-0.2259 -0.1194,-0.3805 -0.1194,-0.4638 0,-0.1182 0.0282,-0.2081 0.0855,-0.2706 0.0573,-0.0617 0.1264,-0.092 0.2097,-0.092 0.0703,0 0.1322,0.0303 0.1849,0.092 0.0527,0.0625 0.0785,0.1512 0.0785,0.267 0,0.1011 -0.0304,0.2439 -0.0901,0.4276 -0.0609,0.1838 -0.0984,0.3537 -0.1124,0.5095 0.1264,-0.0797 0.24,-0.1766 0.3395,-0.2918 0.1558,-0.1803 0.2718,-0.2928 0.3467,-0.3361 0.0761,-0.0433 0.1522,-0.0653 0.2307,-0.0653 0.0727,0 0.1358,0.0255 0.1885,0.0773 0.0527,0.0517 0.0785,0.1136 0.0785,0.1837 0,0.0845 -0.0376,0.1606 -0.1137,0.2259 -0.0748,0.0667 -0.2634,0.134 -0.5655,0.1991 -0.1758,0.0399 -0.3222,0.0845 -0.4392,0.135 0.1194,0.0607 0.2646,0.1078 0.4356,0.1404 0.2764,0.0505 0.4579,0.1122 0.5434,0.1883 0.0867,0.0749 0.1288,0.1584 0.1288,0.2475 0,0.0679 -0.0258,0.1274 -0.0773,0.1777 -0.0515,0.0507 -0.1112,0.0761 -0.1791,0.0761 -0.0691,0 -0.1452,-0.0242 -0.2283,-0.0725 -0.0833,-0.0481 -0.1969,-0.1558 -0.3385,-0.3221 -0.0937,-0.1125 -0.2097,-0.2177 -0.3501,-0.3158 0.005,0.1306 0.0316,0.2724 0.0795,0.4246 0.0821,0.271 0.123,0.4535 0.123,0.5492 0,0.0941 -0.027,0.1725 -0.0819,0.2355 -0.0551,0.0637 -0.1136,0.094 -0.1745,0.094 -0.0855,0 -0.1616,-0.0327 -0.2307,-0.0988 -0.0481,-0.048 -0.0715,-0.1249 -0.0715,-0.2307 0,-0.11 0.0258,-0.2412 0.0785,-0.3958 0.0527,-0.1546 0.0855,-0.261 0.0995,-0.3194 0.0141,-0.0577 0.0269,-0.1439 0.0375,-0.2586 -0.1346,0.0885 -0.253,0.1885 -0.3525,0.2986 -0.1675,0.1871 -0.2928,0.3067 -0.3782,0.3567 -0.0597,0.0367 -0.1207,0.0551 -0.1852,0.0551 -0.0773,0 -0.144,-0.0266 -0.1989,-0.0797 -0.0551,-0.0527 -0.0821,-0.1098 -0.0821,-0.1741 0,-0.0578 0.0234,-0.1171 0.0703,-0.1808 0.047,-0.0629 0.1171,-0.1146 0.2107,-0.1556 0.0621,-0.0281 0.2027,-0.0645 0.4216,-0.1102 0.143,-0.0292 0.2812,-0.0737 0.4158,-0.1296 -0.124,-0.0623 -0.2716,-0.1104 -0.4425,-0.1444 -0.2812,-0.0595 -0.4556,-0.1136 -0.5213,-0.1612 -0.103,-0.0761 -0.1546,-0.1675 -0.1546,-0.274 0,-0.0625 0.0258,-0.1194 0.0773,-0.1701 0.0516,-0.0515 0.1113,-0.0773 0.1804,-0.0773 0.0749,0 0.1545,0.0234 0.24,0.0713 0.0843,0.0483 0.1897,0.1452 0.3152,0.2908 0.1264,0.1452 0.254,0.2574 0.384,0.3371 z" />
  <g
     id="Layer1000">
    <path
       id="path14"
       style="fill:#1b1918;fill-rule:evenodd"
       d="m 55.4482,62.322 c 0,1.0454 -0.0093,1.6474 -0.028,1.8062 -0.0188,0.1026 -0.042,0.1655 -0.0701,0.1888 -0.028,0.0235 -0.0745,0.0351 -0.14,0.0351 l -0.364,-0.0141 c -0.0745,-0.0094 -0.1819,-0.0139 -0.322,-0.0139 l -0.4898,0.0139 c -0.3081,0 -0.462,-0.0746 -0.462,-0.224 l 0.0138,-0.896 c 0.0094,-0.1213 0.0142,-0.2659 0.0142,-0.434 v -1.442 c 0,-0.0745 0.0023,-0.2168 0.0068,-0.4269 0.0048,-0.21 0.0071,-0.6185 0.0071,-1.2251 l 0.0139,-0.5179 -0.5318,1.078 c -0.2426,0.4853 -0.4249,0.8399 -0.5462,1.0639 l -0.616,1.2322 c -0.0371,0.0558 -0.112,0.0839 -0.2239,0.0839 -0.2053,0 -0.3172,-0.0281 -0.3359,-0.0839 L 50.7722,61.2581 C 50.567,60.8567 50.385,60.474 50.2262,60.1101 l -0.462,-1.0219 0.0139,0.616 0.0422,1.7217 c 0,1.6427 -0.0093,2.5435 -0.028,2.7023 -0.0188,0.1026 -0.042,0.1655 -0.0701,0.1888 -0.028,0.0235 -0.0748,0.0351 -0.14,0.0351 l -0.364,-0.0141 c -0.0748,-0.0094 -0.1819,-0.0139 -0.322,-0.0139 l -0.4901,0.0139 c -0.3078,0 -0.462,-0.0746 -0.462,-0.224 l 0.0141,-0.896 c 0.0094,-0.1213 0.0139,-0.2659 0.0139,-0.434 v -1.442 l 0.0142,-0.7979 -0.0142,-1.19 v -4.6622 c 0,-0.0558 0.0749,-0.0978 0.224,-0.1258 0.1493,-0.0281 0.4807,-0.042 0.9941,-0.042 0.1307,0 0.231,0.0278 0.301,0.0839 0.07,0.0562 0.1284,0.154 0.1749,0.294 0.3268,0.8492 0.7257,1.813 1.1971,2.891 0.4714,1.0781 0.7395,1.6169 0.805,1.6169 0.0559,0 0.3198,-0.5224 0.7909,-1.5678 0.4714,-1.0454 0.875,-1.9786 1.2112,-2.8001 0.0839,-0.2052 0.161,-0.343 0.2308,-0.413 0.07,-0.07 0.1703,-0.1049 0.301,-0.1049 0.5976,0 0.9567,0.0187 1.078,0.0559 0.0936,0.028 0.1401,0.1448 0.1401,0.35 v 0.7141 l 0.0141,0.966 -0.0422,1.988 z m 6.7198,-5.3898 0.0142,3.9339 c 0,0.756 -0.1239,1.4094 -0.3711,1.9599 -0.2474,0.5507 -0.5879,0.9708 -1.0221,1.26 -0.434,0.2894 -0.9261,0.4339 -1.4769,0.4339 -0.4759,0 -0.9099,-0.0722 -1.3019,-0.2168 -0.3921,-0.1446 -0.7025,-0.3127 -0.9312,-0.504 -0.2285,-0.1914 -0.343,-0.343 -0.343,-0.455 0,-0.1681 0.0351,-0.4036 0.1052,-0.7069 0.07,-0.3033 0.1539,-0.5695 0.252,-0.7983 0.0978,-0.2284 0.1981,-0.343 0.301,-0.343 0.0371,0 0.0791,0.0236 0.1259,0.0701 0.1681,0.2055 0.4178,0.3943 0.7489,0.5672 0.3313,0.1726 0.6604,0.2588 0.987,0.2588 0.3081,0 0.5624,-0.1214 0.7631,-0.364 0.2007,-0.2426 0.3056,-0.6021 0.3149,-1.078 -0.2333,0.0842 -0.4898,0.1261 -0.7699,0.1261 -0.5507,0 -1.036,-0.1307 -1.4561,-0.392 -0.4198,-0.2614 -0.7441,-0.6276 -0.9729,-1.099 -0.2287,-0.4714 -0.343,-1.0151 -0.343,-1.6311 V 55.8119 54.86 c 0,-0.1306 0.0536,-0.2194 0.161,-0.2659 0.1075,-0.0467 0.2637,-0.07 0.4689,-0.07 0.1494,-0.0093 0.3455,-0.0048 0.5882,0.0139 0.2426,0.0187 0.3965,0.042 0.462,0.07 0.0933,0.0374 0.1398,0.154 0.1398,0.3501 v 0.826 c 0,0.2707 -0.0046,0.5086 -0.0139,0.7141 l -0.0139,1.3858 c 0,0.476 0.1003,0.819 0.301,1.029 0.2004,0.2101 0.4502,0.3149 0.7489,0.3149 0.2333,0 0.4714,-0.0419 0.7141,-0.1258 v -2.492 c 0,-0.28 -0.0048,-0.5227 -0.0142,-0.7282 -0.0093,-0.2052 -0.0139,-0.3404 -0.0139,-0.4059 v -0.5179 c 0,-0.1961 0.0723,-0.3175 0.2169,-0.364 0.1448,-0.0467 0.3946,-0.07 0.7492,-0.07 0.5972,0 0.896,0.0607 0.896,0.182 z m 6.7763,6.4119 c 0,0.1494 -0.1097,0.322 -0.3292,0.5179 -0.2194,0.1962 -0.5156,0.364 -0.8889,0.504 -0.3733,0.14 -0.7747,0.2101 -1.2042,0.2101 -0.3452,0 -0.6882,-0.0771 -1.0289,-0.2311 -0.3408,-0.1539 -0.6324,-0.3336 -0.8751,-0.5388 -0.3452,-0.2988 -0.6392,-0.7376 -0.8818,-1.3162 -0.2427,-0.5785 -0.364,-1.3067 -0.364,-2.184 0,-2.2306 0.3407,-3.8126 1.0219,-4.7461 0.5695,-0.7838 1.3813,-1.1758 2.4361,-1.1758 0.2426,0 0.5111,0.049 0.805,0.1468 0.294,0.0981 0.5437,0.2172 0.7489,0.3572 0.2053,0.14 0.3082,0.2565 0.3082,0.3501 0,0.1865 -0.0562,0.4246 -0.1681,0.7137 -0.112,0.2895 -0.2382,0.5485 -0.3782,0.777 -0.1397,0.2288 -0.252,0.343 -0.3359,0.343 -0.0281,0 -0.0723,-0.021 -0.1329,-0.0629 -0.0607,-0.042 -0.1052,-0.0723 -0.133,-0.091 -0.1774,-0.1213 -0.3407,-0.2194 -0.4901,-0.294 -0.1494,-0.0745 -0.3078,-0.1119 -0.4759,-0.1119 -0.3827,0 -0.6976,0.2962 -0.9451,0.8889 -0.2472,0.5927 -0.3711,1.561 -0.3711,2.905 0,0.5788 0.1097,1.0805 0.3291,1.5051 0.2195,0.4247 0.5296,0.637 0.9309,0.637 0.2056,0 0.4411,-0.0748 0.707,-0.2239 0.2662,-0.1494 0.5298,-0.3688 0.7912,-0.6582 0.0374,-0.0465 0.0839,-0.0701 0.14,-0.0701 0.112,0 0.2287,0.1146 0.3501,0.343 0.1213,0.2288 0.2239,0.4924 0.3078,0.7912 0.0839,0.2988 0.1262,0.5366 0.1262,0.714 z m 5.8799,-7.9662 c 0.2797,0.3733 0.5085,0.9312 0.6859,1.673 0.1772,0.7421 0.2659,1.8272 0.2659,3.2551 v 1.904 l -0.0139,0.868 v 0.854 c 0,0.1962 -0.0467,0.3127 -0.14,0.3501 -0.0748,0.0374 -0.2194,0.0559 -0.434,0.0559 L 74.838,64.3241 c -0.5972,0 -0.896,-0.0513 -0.896,-0.154 V 62.168 h -0.028 c -0.8493,0 -1.5308,0.0049 -2.0441,0.0139 V 62.21 l -0.0139,0.868 v 0.7982 c 0,0.1959 -0.0468,0.3127 -0.14,0.3498 -0.0652,0.0374 -0.1797,0.0655 -0.343,0.0842 -0.1633,0.0184 -0.3104,0.0232 -0.4411,0.0139 -0.5973,0 -0.8957,-0.0513 -0.8957,-0.154 V 60.306 c 0,-1.4372 0.0932,-2.4872 0.2797,-3.1499 0.1868,-0.6627 0.4153,-1.1855 0.686,-1.5681 0.252,-0.3734 0.5275,-0.6673 0.826,-0.8819 0.2988,-0.2149 0.6954,-0.322 1.19,-0.322 0.3827,0 0.7141,0.0794 0.9941,0.2378 0.2801,0.1588 0.5508,0.4108 0.8122,0.756 z M 73.578,60.334 c 0.0652,0.0094 0.1866,0.0142 0.364,0.0142 V 60.306 c 0,-1.3346 -0.0955,-2.3006 -0.2869,-2.8979 -0.1913,-0.5973 -0.4317,-0.896 -0.7211,-0.896 -0.6721,0 -1.008,1.2645 -1.008,3.7939 v 0.028 z m 6.1322,-1.5259 c 0.9519,0 1.673,0.2707 2.1629,0.8119 0.4901,0.5414 0.735,1.2367 0.735,2.086 0,0.644 -0.161,1.19 -0.483,1.6381 -0.322,0.4479 -0.7583,0.7654 -1.3088,0.9519 -0.4481,0.1494 -0.9896,0.2239 -1.6242,0.2239 -0.6531,0 -1.2413,-0.0652 -1.764,-0.1958 -0.0278,-0.0094 -0.0746,-0.021 -0.1398,-0.0349 C 77.2228,64.275 77.1761,64.254 77.1483,64.226 77.1202,64.1979 77.106,64.1608 77.106,64.114 l 0.0142,-0.896 c 0.0094,-0.1213 0.0139,-0.2659 0.0139,-0.434 v -1.26 l 0.0142,-2.814 -0.0142,-1.1899 v -2.5762 c 0,-0.2704 0.0748,-0.4059 0.2239,-0.4059 0.2614,0 0.5741,-0.0139 0.9383,-0.0419 0.1398,-0.0094 0.3127,-0.0187 0.5179,-0.0281 0.2052,-0.0094 0.434,-0.0139 0.686,-0.0139 0.2988,0 0.4995,0.0187 0.6021,0.0559 0.0277,0.0093 0.3172,0.0141 0.8679,0.0141 l 0.4899,-0.028 0.3642,-0.0139 c 0.0933,0 0.1656,0.0232 0.2169,0.0697 0.0513,0.0468 0.0771,0.14 0.0771,0.2801 0,0.1026 -0.0142,0.2194 -0.042,0.35 0,0.0562 -0.0071,0.1378 -0.0212,0.245 -0.0139,0.1074 -0.021,0.2029 -0.021,0.2871 0,0.1678 0.0048,0.301 0.0142,0.3988 0.0093,0.0981 0.0138,0.1939 0.0138,0.2872 0,0.0933 -0.0629,0.1562 -0.189,0.1891 -0.1259,0.0326 -0.3195,0.0487 -0.5808,0.0487 L 80.6202,56.624 c -0.6628,0 -1.2133,0.0049 -1.6521,0.0139 v 2.2261 c 0.3362,-0.0372 0.5834,-0.0559 0.7421,-0.0559 z m -0.21,3.5839 c 0.8028,0 1.2039,-0.2846 1.2039,-0.8538 0,-0.3175 -0.0956,-0.5437 -0.2869,-0.6792 -0.1913,-0.1352 -0.4969,-0.203 -0.917,-0.203 -0.1213,0 -0.294,0.0094 -0.5179,0.0281 v 0.6021 1.0499 c 0.2239,0.0372 0.3966,0.0559 0.5179,0.0559 z m 9.2259,1.0499 c -0.0093,0.1307 0,0.243 0.0281,0.3362 0.028,0.0933 0.0419,0.1633 0.0419,0.2101 0,0.14 -0.0374,0.231 -0.1119,0.2729 -0.0749,0.042 -0.1914,0.063 -0.3501,0.063 l -1.0361,-0.0139 -2.45,0.0139 -0.5179,0.0139 c -0.3452,0 -0.5181,-0.0746 -0.5181,-0.224 L 83.84,61.342 83.8542,58.864 83.84,56.9322 V 54.832 c 0,-0.1026 0.021,-0.1797 0.063,-0.2311 0.0422,-0.0513 0.1238,-0.0839 0.2452,-0.0978 0.1213,-0.0141 0.3172,-0.0209 0.5879,-0.0209 l 1.3019,0.0139 c 0.2149,0.0093 0.4714,0.0139 0.7702,0.0139 0.1213,0.0093 0.3498,0.0141 0.686,0.0141 l 0.4898,-0.028 0.364,-0.0139 c 0.0935,0 0.1658,0.0232 0.2171,0.0697 0.0513,0.0468 0.0771,0.14 0.0771,0.2801 0,0.0654 -0.0093,0.1632 -0.0281,0.2939 l -0.0419,0.3501 c -0.0094,0.2055 -0.0142,0.5134 -0.0142,0.9241 0,0.0933 -0.0581,0.1562 -0.1749,0.1891 -0.1168,0.0326 -0.3056,0.0487 -0.5669,0.0487 L 87.1441,56.624 c -0.5786,0 -1.0687,0.0049 -1.4701,0.0139 v 0.252 2.4642 c 0.4295,0.0093 0.9009,0.0139 1.414,0.0139 l 0.784,0.0141 c 0.0936,0 0.1659,0.0233 0.2172,0.0701 0.0513,0.0464 0.0768,0.14 0.0768,0.2797 l 0.0142,0.3501 c 0,0.0933 -0.0049,0.1726 -0.0142,0.2381 -0.0091,0.1494 -0.0139,0.2801 -0.0139,0.3921 0,0.1119 0,0.1958 0,0.252 0,0.0745 -0.0397,0.1213 -0.1191,0.14 -0.0793,0.0184 -0.189,0.0278 -0.3288,0.0278 -0.14,0 -0.2381,0 -0.2942,0 l -1.12,-0.0139 -0.6018,0.028 v 0.2798 0.8541 l 0.7418,0.0142 1.2181,-0.0142 0.4901,-0.0281 0.364,-0.0139 c 0.0932,0 0.1655,0.0233 0.2168,0.0701 0.0513,0.0467 0.0771,0.14 0.0771,0.28 0,0.0746 -0.0093,0.2333 -0.028,0.476 z m 6.944,0.0281 c 0.0375,0.0561 0.0562,0.112 0.0562,0.1681 0,0.0839 -0.07,0.1726 -0.2101,0.2659 -0.1865,0.1029 -0.3827,0.1913 -0.5879,0.2661 l -0.364,0.1259 c -0.252,0.112 -0.4339,0.1681 -0.5462,0.1681 -0.1026,0 -0.1936,-0.0352 -0.273,-0.1052 -0.0791,-0.0697 -0.1749,-0.2075 -0.2868,-0.413 -0.0281,-0.0465 -0.1262,-0.2565 -0.294,-0.6298 -0.1868,-0.4014 -0.2846,-0.6067 -0.2939,-0.616 -0.0281,-0.0561 -0.1239,-0.2475 -0.2872,-0.574 -0.1633,-0.3266 -0.3569,-0.6908 -0.5811,-1.0919 L 91.8624,61.02 v 0.4059 c 0,1.6427 -0.0094,2.5435 -0.0281,2.7023 -0.0187,0.1026 -0.042,0.1655 -0.07,0.1888 -0.0281,0.0235 -0.0749,0.0351 -0.14,0.0351 l -0.364,-0.0141 c -0.0749,-0.0094 -0.182,-0.0139 -0.322,-0.0139 l -0.4901,0.0139 c -0.3079,0 -0.4621,-0.0746 -0.4621,-0.224 l 0.0142,-0.896 c 0.0093,-0.1213 0.0139,-0.2659 0.0139,-0.434 v -1.442 l 0.0141,-0.7979 -0.0141,-1.19 V 54.65 c 0,-0.0559 0.0932,-0.0981 0.28,-0.1259 0.1868,-0.028 0.3921,-0.0419 0.616,-0.0419 l 0.3501,-0.0142 c 0.2146,0 0.3594,0.0187 0.434,0.0561 0.0932,0.0372 0.14,0.1539 0.14,0.3498 v 0.8683 l 0.0139,0.8679 v 2.744 c 0.1026,0.0093 0.2381,0.0139 0.4059,0.0139 0.4108,0 0.7257,-0.1469 0.9451,-0.4408 0.2194,-0.2943 0.3291,-0.7679 0.3291,-1.421 L 93.5141,56.274 v -1.5398 c 0,-0.0842 0.1216,-0.1471 0.3643,-0.1891 0.2426,-0.042 0.5085,-0.0629 0.7979,-0.0629 0.2891,0 0.4621,0.0139 0.5179,0.0419 0.0933,0.0372 0.14,0.1539 0.14,0.3498 l 0.0139,0.8961 v 1.0221 l 0.0142,0.434 c 0,0.8493 -0.1355,1.5888 -0.4059,2.219 -0.2707,0.6298 -0.6676,1.0803 -1.1903,1.351 l 0.5462,0.8121 c 0.2985,0.4292 0.4527,0.6624 0.4618,0.6999 0.0748,0.1119 0.2194,0.2987 0.4343,0.5601 0.2798,0.3546 0.434,0.5553 0.4617,0.6018 z m 7.1399,-3.164 c 0,0.4013 -0.0464,0.8589 -0.1397,1.3719 -0.0935,0.5134 -0.2662,0.9941 -0.5182,1.4423 -0.1865,0.3172 -0.3827,0.5785 -0.5879,0.7838 -0.2052,0.2055 -0.4853,0.3688 -0.8399,0.4901 -0.3549,0.1213 -0.8076,0.182 -1.3581,0.182 -0.2055,0 -0.462,-0.0584 -0.7701,-0.1749 -0.3079,-0.1168 -0.5599,-0.2639 -0.756,-0.4411 -0.3359,-0.2894 -0.6276,-0.7489 -0.8748,-1.3791 -0.2475,-0.6298 -0.3711,-1.3884 -0.3711,-2.275 0,-1.5308 0.0794,-2.5946 0.2379,-3.1919 0.1587,-0.5975 0.3104,-0.9892 0.4552,-1.1761 0.1446,-0.1868 0.2356,-0.3033 0.273,-0.35 0.2426,-0.364 0.5388,-0.6557 0.8889,-0.8751 0.3501,-0.2191 0.8051,-0.3288 1.3649,-0.3288 0.4947,0 0.8938,0.0768 1.1971,0.231 0.3033,0.1539 0.5856,0.4082 0.847,0.7628 0.1958,0.2614 0.3594,0.5508 0.4901,0.8683 0.1307,0.3172 0.2404,0.8025 0.3288,1.4558 0.0887,0.6534 0.1329,1.5214 0.1329,2.604 z m -3.0798,-3.7939 c -0.8305,0 -1.2461,1.2645 -1.2461,3.7939 0,0.6159 0.0958,1.127 0.2871,1.5329 0.1914,0.4062 0.5108,0.6092 0.959,0.6092 0.4107,0 0.7209,-0.2217 0.9309,-0.665 0.21,-0.4434 0.3152,-0.9357 0.3152,-1.4771 0,-1.372 -0.1074,-2.3474 -0.322,-2.926 -0.2149,-0.5785 -0.5227,-0.8679 -0.9241,-0.8679 z m 8.1899,3.122 c 1.0173,0.3453 1.5261,1.0358 1.5261,2.0719 0,0.644 -0.161,1.19 -0.483,1.6381 -0.322,0.4479 -0.7585,0.7654 -1.309,0.9519 -0.4201,0.1494 -0.9428,0.2239 -1.5682,0.2239 -0.644,0 -1.218,-0.0652 -1.722,-0.1958 -0.0278,-0.0094 -0.0746,-0.021 -0.1397,-0.0349 -0.0655,-0.0142 -0.1123,-0.0352 -0.1401,-0.0632 -0.028,-0.0281 -0.0422,-0.0652 -0.0422,-0.112 l 0.0142,-0.896 c 0.009,-0.1213 0.0138,-0.2659 0.0138,-0.434 v -1.26 L 104.0842,58.71 104.07,57.5201 V 54.65 c 0,-0.0374 0.0749,-0.0746 0.224,-0.112 0.0187,-0.0093 0.1261,-0.0374 0.322,-0.0839 0.1962,-0.0468 0.5647,-0.07 1.1061,-0.07 1.0548,0 1.8691,0.2846 2.4432,0.8541 0.5737,0.5692 0.8608,1.3345 0.8608,2.2958 0,0.4668 -0.098,0.8773 -0.2939,1.2322 -0.1962,0.3546 -0.4669,0.6437 -0.8121,0.8679 z m -0.728,-1.6939 c 0,-0.4856 -0.0958,-0.8448 -0.2868,-1.0781 -0.1914,-0.2332 -0.404,-0.35 -0.6373,-0.35 -0.1306,0 -0.252,0.0139 -0.3639,0.0419 v 0.0561 2.6178 h 0.1819 c 0.3082,0 0.5695,-0.1187 0.7841,-0.3568 0.2146,-0.2382 0.322,-0.5483 0.322,-0.9309 z m -0.756,4.4518 c 0.3266,0 0.5928,-0.0675 0.798,-0.203 0.2055,-0.1352 0.3081,-0.3523 0.3081,-0.6508 0,-0.3175 -0.091,-0.5437 -0.273,-0.6792 -0.182,-0.1352 -0.4598,-0.203 -0.8331,-0.203 -0.1213,0 -0.2939,0.0094 -0.5179,0.0281 v 0.6021 1.0499 c 0.224,0.0372 0.3966,0.0559 0.5179,0.0559 z M 66.865,72.178 c 0.2798,0.3733 0.5086,0.9312 0.686,1.673 0.1772,0.7421 0.2659,1.8272 0.2659,3.255 v 1.9041 L 67.803,79.878 v 0.8541 c 0,0.1962 -0.0467,0.3127 -0.14,0.3501 -0.0748,0.0374 -0.2194,0.0558 -0.434,0.0558 l -0.3501,-0.0138 c -0.5972,0 -0.896,-0.0513 -0.896,-0.154 v -2.0021 h -0.0281 c -0.8492,0 -1.5307,0.0048 -2.044,0.0139 v 0.0281 l -0.0139,0.8679 v 0.7983 c 0,0.1959 -0.0468,0.3126 -0.14,0.3498 -0.0652,0.0374 -0.1798,0.0655 -0.343,0.0842 -0.1633,0.0184 -0.3104,0.0232 -0.4411,0.0139 -0.5973,0 -0.8958,-0.0513 -0.8958,-0.154 V 77.106 c 0,-1.4371 0.0933,-2.4871 0.2798,-3.1498 0.1868,-0.6628 0.4153,-1.1855 0.686,-1.5681 0.252,-0.3734 0.5275,-0.6673 0.826,-0.8819 0.2988,-0.2149 0.6954,-0.322 1.19,-0.322 0.3827,0 0.7141,0.0794 0.9941,0.2378 0.2801,0.1588 0.5508,0.4108 0.8121,0.756 z m -1.2461,4.9561 c 0.0652,0.0094 0.1865,0.0142 0.364,0.0142 V 77.106 c 0,-1.3345 -0.0955,-2.3006 -0.2869,-2.8978 -0.1913,-0.5973 -0.4317,-0.896 -0.7211,-0.896 -0.6721,0 -1.008,1.2645 -1.008,3.7938 v 0.0281 z m 9.2121,1.0919 -0.0139,2.4503 c 0,0.3172 -0.0933,0.4759 -0.2801,0.4759 L 74.215,81.138 C 74.1498,81.1287 74.0472,81.1242 73.9071,81.1242 L 73.417,81.138 c -0.3078,0 -0.462,-0.0745 -0.462,-0.2239 l 0.0142,-0.7418 c 0.0184,-0.3175 0.0232,-0.5134 0.0139,-0.5882 v -1.5959 l 0.028,-2.2122 -0.28,0.6302 c -0.9613,2.1654 -1.4607,3.2853 -1.4982,3.3599 l -0.1678,0.3501 c -0.1306,0.3081 -0.2497,0.553 -0.3571,0.735 -0.1072,0.182 -0.203,0.273 -0.2869,0.273 h -0.7002 c -0.2332,0 -0.3872,-0.0117 -0.4617,-0.0349 -0.0749,-0.0235 -0.1123,-0.0678 -0.1123,-0.1332 l 0.0142,-0.9238 c 0.0094,-0.1307 0.0139,-0.2801 0.0139,-0.4482 v -1.442 l 0.0142,-0.7979 -0.0142,-1.19 v -4.7041 c 0,-0.0559 0.0933,-0.0981 0.2801,-0.1259 0.1868,-0.028 0.392,-0.0419 0.6159,-0.0419 0.1401,-0.0094 0.2894,-0.0071 0.4482,0.0068 0.1584,0.0141 0.2704,0.0397 0.3359,0.0771 0.0932,0.0374 0.14,0.1539 0.14,0.3501 v 0.826 l -0.0142,2.2399 0.0281,1.6659 0.2801,-0.6721 c 0.3826,-0.9051 0.7676,-1.8037 1.1551,-2.6949 0.3872,-0.8912 0.6321,-1.4164 0.7347,-1.5749 0.0842,-0.1213 0.1962,-0.182 0.3362,-0.182 L 74.075,71.31 c 0.3268,0 0.5227,0.0188 0.5881,0.0562 0.0933,0.0558 0.1401,0.1726 0.1401,0.3501 v 2.2399 l 0.0139,0.868 z m -1.9319,-9.8699 c 0.0278,-0.0746 0.0956,-0.133 0.203,-0.1749 0.1072,-0.042 0.2262,-0.063 0.3569,-0.063 0.1213,0 0.2239,0.021 0.3081,0.063 0.0839,0.0419 0.1259,0.1097 0.1259,0.2029 0,0.6908 -0.1704,1.2507 -0.5108,1.6801 -0.3408,0.4292 -0.8238,0.6441 -1.4491,0.6441 -0.3733,0 -0.7095,-0.1097 -1.008,-0.3292 -0.2988,-0.2194 -0.5321,-0.5088 -0.7002,-0.8679 -0.1678,-0.3595 -0.252,-0.735 -0.252,-1.1271 0,-0.0932 0.0445,-0.161 0.1333,-0.2029 0.0884,-0.042 0.1981,-0.063 0.3288,-0.063 0.1307,0 0.252,0.021 0.364,0.063 0.1119,0.0419 0.1868,0.1003 0.2242,0.1749 0.1119,0.2613 0.2333,0.4643 0.3639,0.6091 0.1307,0.1446 0.3127,0.2169 0.546,0.2169 0.2707,0 0.4782,-0.0768 0.6231,-0.231 0.1445,-0.154 0.2588,-0.3524 0.3429,-0.595 z m 8.8759,12.3202 c 0,0.3172 -0.0933,0.4759 -0.2798,0.4759 l -0.322,-0.0142 c -0.0655,-0.0093 -0.1681,-0.0138 -0.3081,-0.0138 l -0.4899,0.0138 c -0.3081,0 -0.462,-0.0745 -0.462,-0.2239 l 0.0139,-0.7418 c 0.0187,-0.3175 0.0232,-0.5134 0.0142,-0.5882 v -1.5959 c -0.7841,0 -1.3955,0.0045 -1.8341,0.0139 v 0.2239 l -0.0141,2.3522 c 0,0.2239 -0.0233,0.3756 -0.07,0.455 -0.0465,0.0793 -0.1165,0.119 -0.2101,0.119 L 77.491,81.138 C 77.4258,81.1287 77.3232,81.1242 77.1831,81.1242 L 76.693,81.138 c -0.3078,0 -0.462,-0.0745 -0.462,-0.2239 l 0.0142,-0.896 c 0.0093,-0.1213 0.0139,-0.2659 0.0139,-0.434 v -1.442 l 0.0141,-0.7979 -0.0141,-1.19 v -4.7041 c 0,-0.0559 0.0932,-0.0981 0.28,-0.1259 0.1868,-0.028 0.392,-0.0419 0.616,-0.0419 0.14,-0.0094 0.2894,-0.0071 0.4481,0.0068 0.1585,0.0141 0.2705,0.0397 0.3359,0.0771 0.0933,0.0374 0.1401,0.1539 0.1401,0.3501 v 0.826 l -0.0142,2.2399 c 0,0.2985 0.0094,0.756 0.0281,1.372 l 1.8482,0.0139 v -4.718 c 0,-0.0559 0.0932,-0.0981 0.2797,-0.1259 0.1868,-0.028 0.3921,-0.0419 0.616,-0.0419 0.1494,-0.0094 0.301,-0.0071 0.4553,0.0068 0.1539,0.0141 0.2636,0.0397 0.3288,0.0771 0.0932,0.0558 0.14,0.1726 0.14,0.3501 v 2.2399 l 0.0139,0.868 0.0142,3.4018 z m 6.734,-6.944 0.0141,3.9339 c 0,0.756 -0.1238,1.4094 -0.371,1.9598 -0.2475,0.5508 -0.5879,0.9709 -1.0222,1.26 -0.434,0.2895 -0.9261,0.434 -1.4768,0.434 -0.476,0 -0.91,-0.0723 -1.302,-0.2168 -0.392,-0.1446 -0.7024,-0.3127 -0.9312,-0.504 -0.2284,-0.1914 -0.343,-0.343 -0.343,-0.455 0,-0.1681 0.0352,-0.4036 0.1052,-0.7069 0.07,-0.3033 0.1539,-0.5695 0.252,-0.7983 0.0978,-0.2284 0.1982,-0.343 0.301,-0.343 0.0372,0 0.0791,0.0236 0.1259,0.07 0.1681,0.2056 0.4178,0.3943 0.7489,0.5673 0.3314,0.1726 0.6605,0.2588 0.987,0.2588 0.3082,0 0.5624,-0.1214 0.7631,-0.364 0.2007,-0.2427 0.3056,-0.6021 0.315,-1.078 -0.2333,0.0842 -0.4899,0.1261 -0.7699,0.1261 -0.5508,0 -1.0361,-0.1307 -1.4562,-0.392 -0.4198,-0.2614 -0.7441,-0.6276 -0.9728,-1.099 -0.2288,-0.4714 -0.343,-1.0151 -0.343,-1.6311 V 72.612 71.6601 c 0,-0.1307 0.0535,-0.2194 0.161,-0.2659 0.1074,-0.0467 0.2636,-0.07 0.4688,-0.07 0.1494,-0.0093 0.3456,-0.0048 0.5882,0.0139 0.2427,0.0187 0.3966,0.042 0.4621,0.07 0.0932,0.0374 0.1397,0.1539 0.1397,0.3501 v 0.826 c 0,0.2707 -0.0045,0.5086 -0.0139,0.7141 l -0.0139,1.3858 c 0,0.476 0.1004,0.819 0.3011,1.029 0.2004,0.21 0.4501,0.3149 0.7489,0.3149 0.2333,0 0.4714,-0.0419 0.714,-0.1258 v -2.492 c 0,-0.28 -0.0048,-0.5227 -0.0141,-0.7282 -0.0094,-0.2052 -0.0139,-0.3404 -0.0139,-0.4059 v -0.5179 c 0,-0.1962 0.0723,-0.3175 0.2168,-0.364 0.1449,-0.0467 0.3946,-0.07 0.7492,-0.07 0.5973,0 0.896,0.0607 0.896,0.182 z m 3.2621,-2.5481 c 0.5972,0 1.1574,0.1307 1.6801,0.392 0.5227,0.2614 0.9473,0.6767 1.2739,1.2458 0.3265,0.5695 0.4901,1.2929 0.4901,2.1703 0,0.6998 -0.1307,1.3087 -0.3921,1.8269 -0.2613,0.5179 -0.6137,0.917 -1.057,1.1971 -0.4433,0.2797 -0.9357,0.4198 -1.4771,0.4198 -0.1678,0 -0.3453,-0.0139 -0.5318,-0.042 0,1.5494 -0.0094,2.3942 -0.0281,2.5342 -0.0187,0.1026 -0.0419,0.1655 -0.07,0.1888 -0.028,0.0235 -0.0748,0.0351 -0.14,0.0351 l -0.364,-0.0142 c -0.0748,-0.0093 -0.182,-0.0138 -0.322,-0.0138 L 90.343,81.138 c -0.3079,0 -0.4621,-0.0745 -0.4621,-0.2239 l 0.0142,-0.896 c 0.0094,-0.1213 0.0139,-0.2659 0.0139,-0.434 v -1.442 l 0.0142,-0.7979 -0.0142,-1.19 v -4.7041 c 0,-0.0374 0.0748,-0.0746 0.2239,-0.112 0.2056,-0.0468 0.4108,-0.0839 0.6163,-0.112 0.2052,-0.028 0.5459,-0.0419 1.0219,-0.0419 z m 0.4479,5.404 c 0.3642,0 0.6488,-0.1004 0.854,-0.3011 0.2056,-0.2007 0.3082,-0.5482 0.3082,-1.0428 0,-0.6441 -0.1214,-1.1271 -0.364,-1.4491 -0.2426,-0.322 -0.6021,-0.483 -1.078,-0.483 -0.0749,0 -0.1401,0.0045 -0.1962,0.0138 v 0.0842 3.136 c 0.1681,0.0281 0.3269,0.042 0.476,0.042 z M 56.7431,88.9781 c 0.2798,0.3733 0.5085,0.9312 0.686,1.673 0.1771,0.7421 0.2659,1.8272 0.2659,3.255 v 1.9041 l -0.0139,0.8679 v 0.8541 c 0,0.1962 -0.0468,0.3127 -0.1401,0.3501 -0.0748,0.0374 -0.2194,0.0558 -0.4339,0.0558 L 56.757,97.9243 c -0.5973,0 -0.8961,-0.0514 -0.8961,-0.154 v -2.0021 h -0.028 c -0.8493,0 -1.5307,0.0048 -2.0441,0.0139 v 0.0281 l -0.0139,0.8679 v 0.7983 c 0,0.1959 -0.0467,0.3126 -0.14,0.3498 -0.0652,0.0374 -0.1797,0.0655 -0.343,0.0842 -0.1633,0.0184 -0.3104,0.0232 -0.4411,0.0139 -0.5972,0 -0.8957,-0.0514 -0.8957,-0.154 v -3.8642 c 0,-1.4371 0.0932,-2.4871 0.2798,-3.1498 0.1868,-0.6628 0.4152,-1.1855 0.686,-1.5681 0.252,-0.3734 0.5275,-0.6673 0.826,-0.8819 0.2987,-0.2149 0.6953,-0.322 1.19,-0.322 0.3826,0 0.714,0.0794 0.9941,0.2378 0.28,0.1588 0.5507,0.4108 0.8121,0.756 z m -1.2461,4.9561 c 0.0652,0.0094 0.1865,0.0142 0.3639,0.0142 v -0.0423 c 0,-1.3345 -0.0955,-2.3006 -0.2868,-2.8978 -0.1914,-0.5973 -0.4317,-0.896 -0.7212,-0.896 -0.672,0 -1.008,1.2645 -1.008,3.7938 v 0.0281 z m 7.1402,-0.6999 c 1.0173,0.3453 1.5259,1.0358 1.5259,2.0719 0,0.5975 -0.1307,1.1083 -0.3921,1.5329 -0.2613,0.4247 -0.6137,0.7444 -1.057,0.959 -0.4434,0.2149 -0.9448,0.322 -1.5049,0.322 -0.476,0 -0.91,-0.0723 -1.302,-0.2168 -0.392,-0.1446 -0.7024,-0.3127 -0.9309,-0.504 -0.2287,-0.1914 -0.343,-0.343 -0.343,-0.455 0,-0.1681 0.0349,-0.4036 0.1049,-0.7069 0.07,-0.3034 0.1539,-0.5695 0.252,-0.7983 0.0981,-0.2285 0.1984,-0.343 0.301,-0.343 0.0375,0 0.0794,0.0236 0.1259,0.07 0.1681,0.2056 0.4178,0.3943 0.7492,0.5673 0.3314,0.1726 0.6602,0.2588 0.987,0.2588 0.3266,0 0.5925,-0.0675 0.798,-0.203 0.2052,-0.1352 0.3078,-0.3523 0.3078,-0.6508 0,-0.5882 -0.3685,-0.8822 -1.1058,-0.8822 -0.2707,0 -0.5414,0.0281 -0.8121,0.0839 -0.0652,0.0187 -0.1259,-0.0513 -0.182,-0.2097 -0.0561,-0.1588 -0.0839,-0.3782 -0.0839,-0.6582 0,-0.3266 0.021,-0.5599 0.0629,-0.6999 0.042,-0.14 0.1097,-0.2055 0.203,-0.1962 0.1587,0.0281 0.3127,0.0423 0.462,0.0423 0.7373,0 1.1061,-0.4156 1.1061,-1.2461 0,-0.4108 -0.0958,-0.7234 -0.2871,-0.938 -0.1914,-0.2146 -0.4037,-0.322 -0.637,-0.322 -0.2145,0 -0.4223,0.0583 -0.623,0.1748 -0.2007,0.1168 -0.343,0.2452 -0.4269,0.385 -0.0187,0.0374 -0.0513,0.0561 -0.0981,0.0561 -0.112,0 -0.2288,-0.0932 -0.3501,-0.28 -0.1213,-0.2146 -0.231,-0.4947 -0.3288,-0.8399 -0.0981,-0.3453 -0.1471,-0.6021 -0.1471,-0.7699 0,-0.1029 0.0655,-0.2217 0.1961,-0.3572 0.1304,-0.1352 0.3218,-0.252 0.5738,-0.3501 0.252,-0.0978 0.5601,-0.1468 0.9241,-0.1468 0.6159,0 1.1525,0.1307 1.61,0.392 0.4573,0.2614 0.8096,0.6299 1.0571,1.1058 0.2472,0.4762 0.371,1.0267 0.371,1.652 0,0.4669 -0.098,0.8774 -0.2942,1.2323 -0.1959,0.3546 -0.4666,0.6437 -0.8118,0.8679 z m 7.4199,-4.2562 c 0.2798,0.3733 0.5086,0.9312 0.686,1.673 0.1772,0.7421 0.2659,1.8272 0.2659,3.255 v 1.9041 l -0.0139,0.8679 v 0.8541 c 0,0.1962 -0.0468,0.3127 -0.14,0.3501 -0.0748,0.0374 -0.2194,0.0558 -0.434,0.0558 L 70.071,97.9243 c -0.5972,0 -0.896,-0.0514 -0.896,-0.154 v -2.0021 h -0.0281 c -0.8492,0 -1.5307,0.0048 -2.044,0.0139 v 0.0281 l -0.0139,0.8679 v 0.7983 c 0,0.1959 -0.0468,0.3126 -0.1401,0.3498 -0.0652,0.0374 -0.1797,0.0655 -0.3429,0.0842 -0.1633,0.0184 -0.3104,0.0232 -0.4411,0.0139 -0.5973,0 -0.8958,-0.0514 -0.8958,-0.154 v -3.8642 c 0,-1.4371 0.0933,-2.4871 0.2798,-3.1498 0.1868,-0.6628 0.4153,-1.1855 0.686,-1.5681 0.252,-0.3734 0.5275,-0.6673 0.826,-0.8819 0.2988,-0.2149 0.6954,-0.322 1.19,-0.322 0.3827,0 0.714,0.0794 0.9941,0.2378 0.2801,0.1588 0.5508,0.4108 0.8121,0.756 z m -1.2461,4.9561 c 0.0652,0.0094 0.1865,0.0142 0.364,0.0142 v -0.0423 c 0,-1.3345 -0.0955,-2.3006 -0.2869,-2.8978 -0.1913,-0.5973 -0.4317,-0.896 -0.7211,-0.896 -0.6721,0 -1.008,1.2645 -1.008,3.7938 v 0.0281 z m 8.568,-5.8099 c 0.0936,0 0.1659,0.0233 0.2172,0.07 0.0513,0.0465 0.0771,0.1401 0.0771,0.2798 v 0.644 l -0.0142,0.6441 c 0,0.0932 -0.0675,0.1564 -0.203,0.189 -0.1352,0.0326 -0.3381,0.0491 -0.6089,0.0491 l -0.6721,-0.0142 h -0.3778 c 0.0091,0.14 0.0139,0.3549 0.0139,0.644 v 1.8902 l 0.0139,3.5138 c 0,0.9709 -0.0094,1.5355 -0.0278,1.6943 -0.0187,0.1026 -0.0422,0.1655 -0.07,0.1888 -0.0281,0.0235 -0.0749,0.0351 -0.1401,0.0351 l -0.3639,-0.0142 c -0.0749,-0.0093 -0.182,-0.0138 -0.322,-0.0138 l -0.4902,0.0138 c -0.3081,0 -0.462,-0.0745 -0.462,-0.2239 l 0.0142,-0.896 c 0.0093,-0.1213 0.0139,-0.2659 0.0139,-0.434 v -2.9821 l 0.0139,-0.7979 -0.0139,-1.19 v -1.442 h -1.6801 c -0.1307,0 -0.1959,-0.1213 -0.1959,-0.3639 v -0.476 -0.7979 c 0,-0.0936 0.0187,-0.1494 0.0558,-0.1681 0.0375,-0.0187 0.1168,-0.0326 0.2381,-0.042 l 1.806,0.0139 2.3241,0.0281 0.4899,-0.0281 z" />
    <path
       id="path16"
       style="fill:#1b1918;fill-rule:evenodd"
       d="m 84.8829,93.9061 c 0,0.4014 -0.0465,0.8589 -0.1398,1.372 -0.0935,0.5134 -0.2661,0.9941 -0.5181,1.4423 -0.1865,0.3172 -0.3827,0.5785 -0.5879,0.7838 -0.2053,0.2055 -0.4853,0.3687 -0.8399,0.4901 -0.3549,0.1213 -0.8076,0.182 -1.3581,0.182 -0.2055,0 -0.4621,-0.0584 -0.7702,-0.1749 -0.3078,-0.1168 -0.5598,-0.264 -0.756,-0.4411 -0.3359,-0.2894 -0.6276,-0.7489 -0.8748,-1.3791 -0.2474,-0.6298 -0.371,-1.3884 -0.371,-2.2751 0,-1.5307 0.0794,-2.5945 0.2378,-3.1918 0.1588,-0.5975 0.3104,-0.9893 0.4553,-1.1761 0.1445,-0.1868 0.2355,-0.3033 0.2729,-0.35 0.2427,-0.364 0.5389,-0.6557 0.889,-0.8751 0.3501,-0.2191 0.805,-0.3288 1.3649,-0.3288 0.4946,0 0.8937,0.0768 1.197,0.231 0.3033,0.1539 0.5857,0.4082 0.847,0.7628 0.1959,0.2614 0.3595,0.5508 0.4901,0.8683 0.1307,0.3172 0.2404,0.8025 0.3289,1.4558 0.0887,0.6534 0.1329,1.5214 0.1329,2.6039 z m -3.0798,-3.7938 c -0.8306,0 -1.2462,1.2645 -1.2462,3.7938 0,0.616 0.0959,1.1271 0.2872,1.533 0.1913,0.4062 0.5108,0.6092 0.959,0.6092 0.4107,0 0.7208,-0.2217 0.9309,-0.665 0.21,-0.4434 0.3152,-0.9357 0.3152,-1.4772 0,-1.3719 -0.1075,-2.3473 -0.3221,-2.9259 -0.2148,-0.5785 -0.5227,-0.8679 -0.924,-0.8679 z m 8.1898,3.122 c 1.0174,0.3453 1.5262,1.0358 1.5262,2.0719 0,0.644 -0.161,1.19 -0.483,1.6381 -0.3221,0.4479 -0.7586,0.7654 -1.3091,0.9519 -0.4201,0.1494 -0.9428,0.2239 -1.5681,0.2239 -0.644,0 -1.218,-0.0652 -1.722,-0.1958 -0.0278,-0.0094 -0.0746,-0.021 -0.1398,-0.0349 -0.0655,-0.0142 -0.1122,-0.0352 -0.14,-0.0632 -0.0281,-0.0281 -0.0423,-0.0652 -0.0423,-0.112 l 0.0142,-0.896 c 0.0094,-0.1213 0.0139,-0.2659 0.0139,-0.434 v -1.26 l 0.0142,-2.814 -0.0142,-1.1899 v -2.8701 c 0,-0.0374 0.0748,-0.0746 0.2239,-0.112 0.0187,-0.0093 0.1262,-0.0374 0.3221,-0.0839 0.1961,-0.0468 0.5646,-0.07 1.106,-0.07 1.0548,0 1.8692,0.2846 2.4432,0.8541 0.5737,0.5692 0.8609,1.3345 0.8609,2.2957 0,0.4669 -0.0981,0.8774 -0.294,1.2323 -0.1961,0.3546 -0.4668,0.6437 -0.8121,0.8679 z m -0.7279,-1.694 c 0,-0.4855 -0.0958,-0.8447 -0.2869,-1.078 -0.1913,-0.2333 -0.4039,-0.35 -0.6372,-0.35 -0.1307,0 -0.252,0.0138 -0.364,0.0419 v 0.0561 2.6178 h 0.182 c 0.3081,0 0.5695,-0.1187 0.7841,-0.3569 0.2145,-0.2381 0.322,-0.5482 0.322,-0.9309 z m -0.756,4.4519 c 0.3265,0 0.5927,-0.0675 0.7979,-0.203 0.2055,-0.1352 0.3082,-0.3523 0.3082,-0.6508 0,-0.3175 -0.091,-0.5437 -0.273,-0.6792 -0.182,-0.1352 -0.4598,-0.203 -0.8331,-0.203 -0.1213,0 -0.294,0.0094 -0.5179,0.0281 v 0.6021 1.0499 c 0.2239,0.0371 0.3966,0.0559 0.5179,0.0559 z m 9.8699,-0.9661 -0.0139,2.4503 c 0,0.3172 -0.0932,0.4759 -0.28,0.4759 l -0.322,-0.0142 c -0.0652,-0.0093 -0.1679,-0.0138 -0.3079,-0.0138 l -0.4901,0.0138 c -0.3078,0 -0.462,-0.0745 -0.462,-0.2239 l 0.0141,-0.7418 c 0.0185,-0.3175 0.0233,-0.5134 0.0139,-0.5882 v -1.5959 l 0.0281,-2.2122 -0.2801,0.6302 c -0.9612,2.1654 -1.4607,3.2853 -1.4981,3.3599 l -0.1678,0.3501 c -0.1307,0.3081 -0.2497,0.553 -0.3572,0.735 -0.1071,0.182 -0.2029,0.273 -0.2868,0.273 h -0.7002 c -0.2333,0 -0.3872,-0.0117 -0.4618,-0.0349 -0.0748,-0.0235 -0.1122,-0.0678 -0.1122,-0.1332 l 0.0142,-0.9239 c 0.0093,-0.1306 0.0139,-0.28 0.0139,-0.4481 v -1.442 l 0.0141,-0.7979 -0.0141,-1.19 v -4.7041 c 0,-0.0559 0.0932,-0.0981 0.28,-0.1259 0.1868,-0.028 0.3921,-0.0419 0.616,-0.0419 0.14,-0.0094 0.2894,-0.0071 0.4481,0.0068 0.1585,0.0141 0.2705,0.0397 0.336,0.0771 0.0932,0.0374 0.14,0.1539 0.14,0.35 v 0.8261 l -0.0142,2.2399 0.0281,1.6659 0.28,-0.6721 c 0.3827,-0.9051 0.7677,-1.8037 1.1552,-2.6949 0.3872,-0.8912 0.6321,-1.4164 0.7347,-1.5749 0.0842,-0.1213 0.1962,-0.182 0.3362,-0.182 l 0.5598,-0.0142 c 0.3269,0 0.5227,0.0188 0.5882,0.0562 0.0933,0.0558 0.14,0.1726 0.14,0.35 v 2.24 l 0.0139,0.868 z m 6.7343,1.3581 c 0,0.1681 0.004,0.3127 0.0139,0.434 l 0.0139,0.896 c 0,0.1494 -0.1539,0.2239 -0.4618,0.2239 l -0.4901,-0.0138 c -0.14,0 -0.2426,0.0045 -0.3081,0.0138 l -0.322,0.0142 h -0.0559 c -0.0655,0 -0.112,-0.0116 -0.14,-0.0351 -0.0281,-0.0233 -0.0513,-0.0862 -0.07,-0.1888 -0.0187,-0.1494 -0.0281,-1.0222 -0.0281,-2.6181 -0.2333,0.0839 -0.4898,0.1259 -0.7699,0.1259 -0.8492,0 -1.5236,-0.3056 -2.0231,-0.9171 -0.4991,-0.6111 -0.7489,-1.4536 -0.7489,-2.5268 v -3.3321 c 0,-0.14 0.0513,-0.231 0.1539,-0.273 0.1027,-0.0419 0.2614,-0.0629 0.476,-0.0629 0.1494,-0.0093 0.3455,-0.0048 0.5882,0.0139 0.2426,0.0187 0.3965,0.042 0.462,0.07 0.0933,0.0374 0.1398,0.1539 0.1398,0.3501 v 0.826 l -0.0278,2.66 c 0,0.476 0.1003,0.819 0.301,1.029 0.2004,0.2101 0.4502,0.315 0.7489,0.315 0.252,0 0.4899,-0.0468 0.7141,-0.1401 v -3.0379 l 0.0139,-1.1341 v -0.5179 c 0,-0.1962 0.0467,-0.3127 0.14,-0.3501 0.112,-0.0561 0.3733,-0.0839 0.7841,-0.0839 0.5972,0 0.896,0.0607 0.896,0.182 v 4.648 l -0.0142,1.19 0.0142,0.7979 z" />
  </g>
  <path
     id="path19"
     style="fill:#1b1918;fill-rule:evenodd"
     d="m 58.0272,103.7268 0.4909,0.3483 -2.2977,3.2366 4.473,-1.6922 0.5358,0.3804 -2.9013,4.0867 -0.4909,-0.3484 2.2912,-3.2278 -4.4609,1.6875 -0.5414,-0.3844 z m 1.2988,6.8819 2.2998,-4.4532 0.591,0.305 -0.9476,1.8349 2.3011,1.1885 0.9477,-1.8348 0.5907,0.3053 -2.2998,4.4529 -0.5907,-0.305 1.0823,-2.0959 -2.3012,-1.1886 -1.0825,2.0959 z m 4.5377,2.232 1.618,-4.7435 0.6296,0.2146 -0.6667,1.9545 2.4511,0.8362 0.6667,-1.9545 0.6296,0.2146 -1.6183,4.7438 -0.6293,-0.2149 0.7617,-2.2325 -2.4514,-0.8363 -0.7617,2.2326 z m 6.8692,-0.5261 c 0.1018,-0.5828 0.2435,-1.0434 0.4252,-1.379 0.1831,-0.3362 0.409,-0.58 0.6795,-0.7305 0.269,-0.1508 0.5833,-0.1942 0.9419,-0.1318 0.2642,0.0462 0.4873,0.1394 0.6699,0.2814 0.1811,0.1418 0.32,0.3246 0.4135,0.5485 0.0939,0.2223 0.1522,0.4845 0.1755,0.7858 0.0244,0.3016 -0.0068,0.6979 -0.0918,1.1863 -0.1012,0.5791 -0.2427,1.0375 -0.4233,1.3731 -0.1808,0.3368 -0.4067,0.5805 -0.6772,0.7322 -0.2695,0.1522 -0.585,0.1964 -0.9459,0.1335 -0.4748,-0.083 -0.8189,-0.3169 -1.0309,-0.7033 -0.2532,-0.4702 -0.2982,-1.1687 -0.1364,-2.0962 z m 0.6205,0.1106 c -0.142,0.8127 -0.142,1.3691 0.0012,1.6687 0.1428,0.3011 0.354,0.4751 0.6324,0.5236 0.278,0.0485 0.5357,-0.0448 0.7724,-0.2795 0.2364,-0.2359 0.4246,-0.7586 0.5658,-1.5687 0.142,-0.8127 0.142,-1.3691 -0.0011,-1.669 -0.1418,-0.3008 -0.3552,-0.4751 -0.6392,-0.5247 -0.2781,-0.0485 -0.5216,0.0309 -0.7294,0.2372 -0.2605,0.2636 -0.4609,0.8019 -0.6021,1.6124 z m 2.9892,0.4447 c 0.0447,-0.5899 0.1414,-1.0621 0.2897,-1.4136 0.1493,-0.3524 0.3509,-0.6168 0.6051,-0.7929 0.2535,-0.1763 0.5622,-0.25 0.925,-0.2225 0.2673,0.0201 0.4986,0.0916 0.6939,0.2152 0.1942,0.1236 0.3498,0.2919 0.4649,0.5057 0.1148,0.2123 0.1984,0.4677 0.2506,0.765 0.0536,0.298 0.0609,0.6954 0.0235,1.1897 -0.0442,0.5862 -0.1409,1.0562 -0.288,1.4077 -0.1471,0.3527 -0.3487,0.6171 -0.6032,0.7943 -0.2531,0.1777 -0.563,0.2523 -0.9284,0.2245 -0.4804,-0.0363 -0.8455,-0.2361 -1.0941,-0.5998 -0.2977,-0.4436 -0.4102,-1.1344 -0.339,-2.0733 z m 0.6281,0.0499 c -0.0624,0.8226 -0.0085,1.3765 0.163,1.6608 0.1715,0.2858 0.3986,0.4385 0.6803,0.4598 0.2815,0.0216 0.529,-0.0967 0.7416,-0.3532 0.2126,-0.2577 0.3492,-0.796 0.4113,-1.616 0.0623,-0.8226 0.0085,-1.3765 -0.163,-1.6608 -0.1701,-0.2858 -0.3997,-0.4386 -0.6871,-0.4604 -0.2815,-0.0212 -0.5162,0.0814 -0.703,0.307 -0.2336,0.2874 -0.3807,0.8427 -0.4431,1.6628 z m 3.0192,0.1245 c -0.0128,-0.5916 0.0377,-1.071 0.1511,-1.4352 0.1145,-0.3654 0.2894,-0.648 0.5255,-0.8482 0.235,-0.1998 0.5352,-0.303 0.8989,-0.3109 0.2681,-0.006 0.5051,0.0428 0.7115,0.1468 0.2052,0.1043 0.3767,0.2568 0.5116,0.4584 0.1352,0.1998 0.243,0.4459 0.3238,0.7373 0.0824,0.2911 0.1284,0.6857 0.1388,1.1815 0.0128,0.5879 -0.0377,1.0649 -0.1499,1.4292 -0.1125,0.3651 -0.2872,0.648 -0.5233,0.849 -0.235,0.2012 -0.5363,0.3055 -0.9022,0.3135 -0.4819,0.0102 -0.8649,-0.1531 -1.1472,-0.4913 -0.3393,-0.4124 -0.5185,-1.089 -0.5386,-2.0301 z m 0.6301,-0.0114 c 0.0176,0.8246 0.125,1.3706 0.3232,1.6373 0.1984,0.2676 0.4394,0.3977 0.7217,0.3915 0.282,-0.006 0.517,-0.1474 0.7038,-0.4235 0.1865,-0.277 0.2702,-0.826 0.2526,-1.6484 -0.0179,-0.8246 -0.125,-1.3708 -0.3234,-1.6373 -0.197,-0.2676 -0.4403,-0.3977 -0.7285,-0.3914 -0.2824,0.006 -0.5057,0.1312 -0.6699,0.3736 -0.2046,0.309 -0.2973,0.8759 -0.2795,1.6982 z m 2.9875,-0.1701 c -0.0771,-0.5865 -0.0791,-1.0686 -0.006,-1.4428 0.0743,-0.3759 0.2174,-0.6758 0.4303,-0.9003 0.212,-0.2242 0.4989,-0.3594 0.86,-0.4068 0.2659,-0.0348 0.5066,-0.0124 0.7232,0.0686 0.2151,0.0814 0.4022,0.2143 0.5584,0.4 0.1559,0.1843 0.29,0.417 0.4019,0.6976 0.1134,0.2806 0.2019,0.6681 0.2665,1.1597 0.0765,0.5828 0.0782,1.0627 0.0059,1.4369 -0.072,0.3753 -0.2148,0.6754 -0.4277,0.9008 -0.2117,0.2256 -0.4997,0.362 -0.8629,0.4096 -0.4779,0.0627 -0.8762,-0.0578 -1.1939,-0.3634 -0.3818,-0.3733 -0.6336,-1.0264 -0.7557,-1.9599 z m 0.625,-0.0796 c 0.1072,0.8178 0.2733,1.349 0.4992,1.5925 0.2262,0.2443 0.4799,0.3475 0.76,0.3109 0.2797,-0.0368 0.4977,-0.2029 0.6536,-0.4974 0.1554,-0.2957 0.1789,-0.8507 0.072,-1.6662 -0.1074,-0.8181 -0.2732,-1.349 -0.4994,-1.5925 -0.2251,-0.2447 -0.4808,-0.3476 -0.7668,-0.3099 -0.2798,0.0366 -0.4884,0.1851 -0.6253,0.4442 -0.1698,0.3294 -0.2004,0.9029 -0.0933,1.7184 z m 2.8803,-0.3742 c -0.163,-0.5686 -0.2364,-1.0451 -0.2194,-1.4264 0.0176,-0.3824 0.1148,-0.7004 0.2922,-0.9538 0.1764,-0.2532 0.44,-0.4295 0.7901,-0.5298 0.2576,-0.0737 0.4991,-0.0873 0.7253,-0.0392 0.2248,0.0485 0.4295,0.1523 0.6115,0.313 0.1814,0.159 0.3486,0.3693 0.5009,0.6304 0.1536,0.2605 0.2987,0.6307 0.4351,1.1072 0.1621,0.5653 0.2347,1.0395 0.2188,1.4202 -0.0156,0.3821 -0.1125,0.6999 -0.2897,0.9544 -0.176,0.2546 -0.4405,0.432 -0.7926,0.5329 -0.4631,0.1327 -0.875,0.0723 -1.2344,-0.1825 -0.4332,-0.3127 -0.7787,-0.9216 -1.0378,-1.8264 z m 0.6063,-0.1715 c 0.2271,0.7931 0.47,1.2937 0.7297,1.501 0.2599,0.2083 0.5261,0.2726 0.7973,0.195 0.2716,-0.078 0.4627,-0.2744 0.5729,-0.5888 0.11,-0.3155 0.051,-0.8677 -0.1754,-1.6585 -0.2274,-0.7929 -0.4703,-1.2938 -0.7297,-1.501 -0.2588,-0.2086 -0.5272,-0.2724 -0.8045,-0.193 -0.2712,0.0779 -0.4555,0.2557 -0.5524,0.5321 -0.1194,0.3509 -0.0647,0.9226 0.1621,1.7132 z m 2.9245,-0.7566 c -0.2194,-0.5493 -0.3404,-1.0159 -0.3617,-1.3969 -0.021,-0.3824 0.0437,-0.7083 0.1948,-0.9785 0.1499,-0.2696 0.3945,-0.4714 0.7327,-0.6063 0.2489,-0.0995 0.4879,-0.1372 0.7177,-0.112 0.2288,0.0255 0.4428,0.1083 0.6398,0.2497 0.1968,0.1401 0.3841,0.3325 0.5619,0.5769 0.1791,0.2438 0.3605,0.5975 0.5445,1.0579 0.2177,0.5459 0.3379,1.0105 0.3603,1.3909 0.0229,0.3816 -0.0417,0.7079 -0.1922,0.9788 -0.1494,0.2708 -0.3949,0.474 -0.735,0.6098 -0.4476,0.1788 -0.8635,0.1601 -1.2467,-0.0576 -0.4623,-0.2673 -0.8671,-0.8382 -1.2161,-1.7127 z m 0.5859,-0.2313 c 0.3059,0.766 0.5979,1.2396 0.8771,1.4199 0.2795,0.1811 0.5508,0.2183 0.813,0.1137 0.2622,-0.1046 0.4325,-0.3195 0.5108,-0.6435 0.0773,-0.3248 -0.0366,-0.8682 -0.3416,-1.6322 -0.3059,-0.7662 -0.5978,-1.2398 -0.8771,-1.4201 -0.2783,-0.1814 -0.5516,-0.218 -0.8194,-0.1111 -0.2623,0.1048 -0.4278,0.3001 -0.4964,0.5847 -0.0833,0.3612 0.0286,0.9244 0.3336,1.6886 z m 2.8225,-1.0771 c -0.273,-0.525 -0.4397,-0.9774 -0.4989,-1.3541 -0.059,-0.3785 -0.0272,-0.7093 0.0964,-0.993 0.1224,-0.2832 0.3458,-0.5085 0.6687,-0.6766 0.2378,-0.1236 0.4719,-0.1849 0.703,-0.1829 0.2301,0.003 0.4512,0.0638 0.6616,0.1848 0.2095,0.1199 0.4152,0.2929 0.6165,0.5182 0.2024,0.2248 0.4181,0.5587 0.6469,0.9984 0.2712,0.5218 0.4371,0.972 0.4972,1.3484 0.0606,0.3773 0.0289,0.7081 -0.0939,0.993 -0.1218,0.2843 -0.3458,0.5111 -0.6706,0.68 -0.4278,0.2223 -0.8433,0.2449 -1.2461,0.0666 -0.4868,-0.2199 -0.9465,-0.7477 -1.3808,-1.5828 z m 0.5601,-0.2889 c 0.3804,0.7319 0.7183,1.1741 1.014,1.3255 0.2959,0.1525 0.5697,0.1627 0.82,0.0323 0.2506,-0.1301 0.3989,-0.3608 0.4442,-0.6911 0.0451,-0.3308 -0.1227,-0.8603 -0.5023,-1.5902 -0.3804,-0.7319 -0.718,-1.1741 -1.0136,-1.3255 -0.2954,-0.1531 -0.5709,-0.1621 -0.8266,-0.0289 -0.2506,0.1301 -0.3957,0.341 -0.4357,0.6313 -0.0471,0.3673 0.1205,0.9167 0.5,1.6466 z m 2.7046,-1.3805 c -0.3206,-0.4974 -0.5287,-0.9323 -0.6225,-1.3019 -0.0936,-0.3713 -0.0924,-0.7038 0.0039,-0.9978 0.0959,-0.2931 0.2974,-0.5383 0.6033,-0.7356 0.2253,-0.1451 0.4526,-0.2279 0.6831,-0.2472 0.2293,-0.0184 0.4552,0.0219 0.6758,0.1228 0.2197,0.0997 0.4405,0.2531 0.6619,0.4589 0.2222,0.2049 0.468,0.5173 0.7367,0.934 0.3183,0.4944 0.525,0.9272 0.6199,1.2963 0.0956,0.3702 0.0944,0.7027 -0.0014,0.9975 -0.0949,0.2945 -0.2971,0.5409 -0.6049,0.7393 -0.4051,0.2611 -0.8167,0.3223 -1.2345,0.182 -0.5051,-0.1741 -1.0117,-0.6568 -1.5213,-1.4483 z m 0.5309,-0.3393 c 0.4467,0.6934 0.8237,1.1024 1.1321,1.2257 0.309,0.1245 0.5826,0.1092 0.8198,-0.0439 0.2376,-0.1528 0.3634,-0.3963 0.3785,-0.7291 0.0138,-0.3339 -0.2022,-0.8455 -0.6478,-1.5369 -0.4467,-0.6934 -0.8237,-1.1027 -1.1321,-1.226 -0.3081,-0.1247 -0.5834,-0.1083 -0.8258,0.0479 -0.2375,0.1528 -0.3625,0.3765 -0.3753,0.669 -0.0127,0.3702 0.205,0.9017 0.6506,1.5933 z m 2.5461,-1.6503 c -0.3654,-0.4654 -0.6129,-0.879 -0.741,-1.2384 -0.1276,-0.3612 -0.1576,-0.6923 -0.0887,-0.9939 0.068,-0.3007 0.2457,-0.5638 0.532,-0.7883 0.2109,-0.1655 0.4295,-0.2693 0.6571,-0.3098 0.2268,-0.04 0.4555,-0.0207 0.6843,0.0592 0.2282,0.0791 0.4623,0.2109 0.7018,0.3952 0.2404,0.1837 0.5142,0.4717 0.8204,0.8617 0.3628,0.4623 0.6092,0.8742 0.7378,1.2331 0.1296,0.3594 0.1596,0.6905 0.0913,0.9932 -0.0669,0.3019 -0.2452,0.5661 -0.5332,0.7923 -0.3792,0.2974 -0.7835,0.3969 -1.2124,0.296 -0.519,-0.1262 -1.0683,-0.5599 -1.6494,-1.3003 z m 0.4969,-0.3875 c 0.5094,0.6489 0.9229,1.0211 1.2416,1.1152 0.3191,0.0952 0.5898,0.0544 0.8121,-0.1199 0.2219,-0.1744 0.3248,-0.4284 0.3087,-0.7611 -0.017,-0.3337 -0.2798,-0.8229 -0.7878,-1.4701 -0.5094,-0.6488 -0.9229,-1.021 -1.2415,-1.1151 -0.3184,-0.0959 -0.5908,-0.0539 -0.8176,0.1241 -0.2222,0.1743 -0.3259,0.4088 -0.3115,0.701 0.0218,0.3699 0.288,0.8788 0.796,1.5259 z" />
  <path
     id="path21"
     style="fill:#1b1918;fill-rule:evenodd"
     d="m 49.2715,115.8676 2.4866,-3.5034 1.3229,0.9389 c 0.2322,0.1649 0.402,0.3027 0.5094,0.4118 0.1519,0.1511 0.2574,0.3079 0.3172,0.4706 0.0592,0.1635 0.0734,0.3427 0.0419,0.5374 -0.0317,0.1948 -0.1097,0.3787 -0.2327,0.5522 -0.2106,0.2968 -0.4841,0.4816 -0.82,0.5522 -0.3357,0.0723 -0.7518,-0.0689 -1.2479,-0.4207 l -0.8983,-0.6377 -1.0142,1.4286 z m 1.7708,-1.5098 0.9051,0.6426 c 0.3002,0.2129 0.5514,0.3079 0.7572,0.2861 0.2046,-0.0227 0.379,-0.1347 0.523,-0.3376 0.1037,-0.1463 0.1559,-0.298 0.1556,-0.4547 0,-0.1573 -0.0485,-0.296 -0.1454,-0.415 -0.0638,-0.076 -0.2007,-0.1894 -0.4102,-0.3379 l -0.8963,-0.6361 z m 2.2139,1.7941 c 0.354,-0.6177 0.7982,-1.0063 1.3311,-1.1653 0.5327,-0.1591 1.061,-0.0879 1.5869,0.2134 0.3444,0.1976 0.6066,0.4578 0.7897,0.7804 0.1817,0.3223 0.2614,0.6721 0.2375,1.0491 -0.0235,0.3764 -0.1414,0.7512 -0.3551,1.1234 -0.2163,0.3775 -0.4865,0.6718 -0.8099,0.8818 -0.3237,0.2112 -0.669,0.3127 -1.0358,0.3053 -0.3685,-0.007 -0.714,-0.1037 -1.0377,-0.2894 -0.3512,-0.2016 -0.6157,-0.4663 -0.7954,-0.794 -0.1789,-0.3274 -0.2566,-0.6786 -0.2308,-1.0531 0.0253,-0.3741 0.1318,-0.7245 0.3195,-1.0516 z m 0.5048,0.3013 c -0.2571,0.4482 -0.3387,0.8705 -0.2454,1.2665 0.0935,0.396 0.322,0.6988 0.6865,0.9077 0.3713,0.2129 0.7503,0.2574 1.1401,0.1349 0.3884,-0.1227 0.72,-0.4238 0.9947,-0.9028 0.1737,-0.3028 0.2741,-0.5967 0.3013,-0.8808 0.0267,-0.2843 -0.023,-0.5456 -0.1488,-0.7826 -0.1264,-0.2375 -0.3118,-0.4269 -0.5573,-0.5675 -0.3487,-0.2001 -0.7177,-0.2523 -1.1067,-0.157 -0.3886,0.0949 -0.7435,0.4218 -1.0644,0.9816 z m 5.9922,3.7786 0.4592,0.3671 c -0.3016,0.3756 -0.6435,0.61 -1.0261,0.7052 -0.3827,0.0953 -0.7779,0.0505 -1.1849,-0.1346 -0.4201,-0.1911 -0.7237,-0.4326 -0.9094,-0.7246 -0.1859,-0.2914 -0.2732,-0.6309 -0.263,-1.0182 0.0107,-0.3886 0.1003,-0.7684 0.2701,-1.142 0.1851,-0.4068 0.4238,-0.7263 0.7175,-0.9587 0.2936,-0.2325 0.6196,-0.3623 0.9779,-0.3892 0.3583,-0.0269 0.7098,0.0385 1.0539,0.1947 0.3915,0.1783 0.675,0.4272 0.8499,0.7475 0.1763,0.3206 0.2347,0.6843 0.1754,1.0925 l -0.5626,-0.1108 c 0.0391,-0.3252 0.0017,-0.5925 -0.1117,-0.8003 -0.1128,-0.2083 -0.3002,-0.3716 -0.5613,-0.4904 -0.2996,-0.1363 -0.5834,-0.1785 -0.8501,-0.1264 -0.2665,0.0522 -0.4966,0.1817 -0.688,0.387 -0.1924,0.2057 -0.3472,0.4373 -0.4643,0.6953 -0.1511,0.3319 -0.235,0.6443 -0.2511,0.9357 -0.0165,0.2925 0.0496,0.5457 0.1975,0.7614 0.1477,0.2154 0.3405,0.3764 0.578,0.4847 0.2897,0.1315 0.5715,0.159 0.8476,0.0834 0.2764,-0.0763 0.5247,-0.262 0.7455,-0.5593 z m 3.837,1.4445 0.4929,0.32 c -0.2633,0.4037 -0.5802,0.6704 -0.9519,0.8028 -0.3713,0.1321 -0.769,0.1267 -1.1922,-0.0176 -0.4371,-0.1488 -0.7628,-0.3594 -0.9763,-0.6315 -0.2137,-0.2719 -0.3339,-0.6012 -0.3617,-0.9876 -0.0275,-0.3878 0.0241,-0.7747 0.1565,-1.1628 0.144,-0.4232 0.3504,-0.7648 0.6197,-1.025 0.2693,-0.2599 0.5811,-0.4212 0.9348,-0.4833 0.3541,-0.0618 0.7104,-0.0315 1.0681,0.0904 0.4071,0.1386 0.7135,0.3586 0.9193,0.6602 0.2069,0.3016 0.3008,0.6579 0.2818,1.0698 l -0.5709,-0.055 c 0.0071,-0.3274 -0.0564,-0.5896 -0.1897,-0.7852 -0.1326,-0.1964 -0.3353,-0.3404 -0.6069,-0.4328 -0.3115,-0.1063 -0.5981,-0.1202 -0.858,-0.0423 -0.2602,0.0783 -0.4768,0.2296 -0.6466,0.4527 -0.1715,0.2237 -0.3027,0.4695 -0.394,0.7373 -0.1177,0.3456 -0.1707,0.6647 -0.1579,0.9562 0.0122,0.2925 0.1029,0.5383 0.2713,0.7381 0.1684,0.2001 0.3761,0.3413 0.623,0.4258 0.3011,0.1026 0.5842,0.102 0.8516,-3e-4 0.2675,-0.1032 0.4963,-0.3124 0.6871,-0.6299 z m 1.8411,-2.3374 0.4963,0.142 -0.9371,3.2706 3.1357,-2.6405 0.5411,0.1551 -1.1835,4.1301 -0.496,-0.1423 0.9348,-3.2619 -3.1274,2.6337 -0.5474,-0.1568 z m 6.247,5.7588 0.7395,-4.2318 -1.8757,-0.328 c -0.377,-0.066 -0.6695,-0.0774 -0.8787,-0.0357 -0.2092,0.0414 -0.3895,0.1483 -0.5403,0.3198 -0.1505,0.1717 -0.2469,0.3741 -0.2874,0.6066 -0.0527,0.3004 6e-4,0.5706 0.1587,0.8104 0.1579,0.2398 0.4349,0.4221 0.8309,0.5493 -0.1613,0.0451 -0.2861,0.0964 -0.3748,0.152 -0.1899,0.121 -0.3773,0.282 -0.5615,0.4822 l -0.9332,1.0247 0.699,0.1222 0.7138,-0.783 c 0.2069,-0.2267 0.3762,-0.3971 0.5048,-0.5136 0.1302,-0.1162 0.241,-0.1933 0.3343,-0.2327 0.0921,-0.0392 0.1842,-0.0615 0.2746,-0.0681 0.0652,-0.002 0.1701,0.01 0.3147,0.0349 l 0.6485,0.1134 -0.3285,1.8794 z m -0.148,-2.4621 -1.2019,-0.2101 c -0.2562,-0.0448 -0.4504,-0.1063 -0.5851,-0.1845 -0.1346,-0.0774 -0.2293,-0.1812 -0.2829,-0.3116 -0.0544,-0.1292 -0.0697,-0.2619 -0.0459,-0.3988 0.0349,-0.1998 0.1361,-0.3529 0.303,-0.4566 0.1676,-0.1035 0.4071,-0.1276 0.7198,-0.0729 l 1.3376,0.2336 z m 1.0723,2.5409 0.078,-0.595 0.595,0.078 -0.078,0.595 c -0.0286,0.2194 -0.0907,0.3915 -0.1868,0.5162 -0.0949,0.1247 -0.2324,0.2137 -0.4116,0.2647 l -0.1131,-0.2449 c 0.1174,-0.0337 0.2078,-0.0944 0.2719,-0.1811 0.0646,-0.087 0.1122,-0.2183 0.1411,-0.394 z m 5.0766,-0.8464 0.5142,0.0831 c -0.0646,0.3537 -0.2146,0.6276 -0.4518,0.8234 -0.2373,0.1959 -0.5267,0.2897 -0.8652,0.2826 -0.4252,-0.009 -0.7639,-0.1559 -1.0162,-0.439 -0.2528,-0.2835 -0.373,-0.6843 -0.362,-1.2025 0.0074,-0.3356 0.0695,-0.6276 0.186,-0.877 0.1162,-0.2484 0.2894,-0.4337 0.5199,-0.5539 0.2299,-0.1211 0.4779,-0.1789 0.746,-0.1732 0.3368,0.007 0.612,0.0983 0.8224,0.2741 0.2112,0.1754 0.3438,0.4215 0.3971,0.7367 l -0.5116,0.0669 c -0.0443,-0.2098 -0.127,-0.3688 -0.2498,-0.4773 -0.1216,-0.108 -0.2704,-0.1639 -0.4464,-0.1676 -0.2659,-0.006 -0.4839,0.0845 -0.6551,0.2707 -0.1698,0.1874 -0.2594,0.4856 -0.2682,0.8978 -0.0091,0.4175 0.0644,0.7222 0.2203,0.9147 0.1567,0.1925 0.3639,0.292 0.6205,0.2974 0.208,0.004 0.3824,-0.0547 0.523,-0.1786 0.142,-0.123 0.2341,-0.3164 0.2769,-0.5783 z m 1.0077,1.1302 -0.013,-0.6001 0.5998,-0.0131 0.013,0.6001 z m 2.6178,-0.0224 1.0769,-4.4736 0.6197,-0.0811 2.2915,4.0328 -0.6412,0.0839 -0.6622,-1.2262 -1.7935,0.2347 -0.2931,1.3513 z m 0.997,-1.9094 1.4513,-0.1899 -0.5987,-1.1231 c -0.1805,-0.3413 -0.3206,-0.6245 -0.4218,-0.8493 -0.0221,0.2855 -0.0646,0.5684 -0.1275,0.8507 z m 3.7241,-0.1766 -0.0711,-0.4079 c 0.2182,-0.0403 0.3665,-0.0754 0.4427,-0.1038 0.0772,-0.0297 0.1449,-0.0884 0.2024,-0.1774 0.0576,-0.0896 0.0763,-0.1914 0.0562,-0.3065 -0.0244,-0.1389 -0.0902,-0.2429 -0.1982,-0.3092 -0.1083,-0.0675 -0.2355,-0.0879 -0.3844,-0.0618 -0.2925,0.051 -0.4674,0.2579 -0.5246,0.6213 l -0.5111,0.004 c 0.0538,-0.5981 0.3764,-0.9493 0.9652,-1.0522 0.3271,-0.057 0.5989,-0.0131 0.8161,0.1329 0.2174,0.1454 0.3472,0.3422 0.3903,0.5893 0.0436,0.2492 -0.0428,0.4695 -0.2582,0.6582 0.1686,0.0562 0.3024,0.1412 0.4028,0.2557 0.0992,0.1146 0.1641,0.2597 0.1947,0.4349 0.0482,0.2749 -0.0133,0.515 -0.1834,0.7214 -0.1712,0.2066 -0.436,0.3413 -0.7965,0.4042 -0.6993,0.1222 -1.1591,-0.1162 -1.3788,-0.7152 l 0.4722,-0.1922 c 0.0783,0.1871 0.1945,0.3232 0.349,0.4068 0.1548,0.0836 0.3189,0.1097 0.4941,0.0791 0.1754,-0.0306 0.3126,-0.1052 0.4116,-0.2251 0.0989,-0.119 0.1349,-0.2551 0.1082,-0.4087 -0.0209,-0.1191 -0.0756,-0.2163 -0.1641,-0.2923 -0.0881,-0.076 -0.1755,-0.1173 -0.2622,-0.1247 -0.0867,-0.008 -0.2381,0.007 -0.455,0.0451 -0.0178,0.003 -0.0569,0.011 -0.1179,0.0238 z m 1.4834,-2.0228 0.5145,-0.1188 0.5343,2.3145 0.8952,-2.6445 0.5522,-0.1275 0.7007,3.0345 -0.5145,0.1187 -0.5309,-2.2997 -0.8966,2.6291 -0.5545,0.1282 z m 3.0061,-0.7764 1.7246,-0.4941 0.1208,0.4212 -1.2169,0.3487 0.737,2.5724 -0.5077,0.1454 z m 3.5847,3.4256 -0.2367,-0.4311 c 0.1194,-0.0142 0.2183,-0.0363 0.298,-0.0683 0.1097,-0.0437 0.1896,-0.0973 0.2401,-0.1593 0.0513,-0.0624 0.085,-0.1353 0.1009,-0.2169 0.0107,-0.0615 0.0127,-0.203 0.0034,-0.4255 -0.0014,-0.0306 -0.0034,-0.0762 -0.004,-0.1375 l -2.2558,-2.4633 0.5238,-0.2089 1.27,1.429 c 0.1632,0.1794 0.322,0.3744 0.4773,0.5839 -0.0312,-0.2429 -0.051,-0.487 -0.0581,-0.7316 l -0.0564,-1.933 0.4895,-0.1953 0.0811,3.3789 c 0.0082,0.3634 0.0031,0.6177 -0.0153,0.7637 -0.023,0.1956 -0.0763,0.3535 -0.1585,0.4737 -0.0833,0.1204 -0.2032,0.2114 -0.3594,0.2735 -0.0944,0.0377 -0.2083,0.0607 -0.3399,0.068 z m 1.1209,-5.0884 2.2365,-1.0109 1.2812,2.835 -0.481,0.2174 -1.101,-2.4356 -1.2739,0.5758 0.6378,1.4113 c 0.1489,0.3291 0.2359,0.5508 0.2625,0.6665 0.0258,0.1142 0.0085,0.2318 -0.0516,0.3532 -0.0612,0.1224 -0.1822,0.2242 -0.3634,0.3061 -0.1122,0.0507 -0.2449,0.1018 -0.3968,0.1539 l -0.1809,-0.4 0.2106,-0.0949 c 0.0993,-0.0448 0.1659,-0.0873 0.199,-0.1273 0.0341,-0.0397 0.0477,-0.0853 0.0417,-0.1366 -0.0065,-0.0508 -0.0646,-0.199 -0.1755,-0.4442 z m 3.306,0.1706 c -0.265,-0.5099 -0.3198,-0.9618 -0.1627,-1.3555 0.1307,-0.3274 0.3676,-0.5806 0.7092,-0.758 0.379,-0.197 0.754,-0.2341 1.1248,-0.1111 0.3691,0.1224 0.6684,0.4031 0.8958,0.8404 0.1845,0.3549 0.276,0.6614 0.2752,0.9199 -9e-4,0.2585 -0.074,0.4972 -0.2194,0.716 -0.1446,0.2183 -0.3385,0.3901 -0.5788,0.5151 -0.387,0.201 -0.7634,0.2398 -1.1308,0.1165 -0.3673,-0.1233 -0.6715,-0.4184 -0.9133,-0.8833 z m 0.4796,-0.248 c 0.1837,0.3529 0.398,0.5774 0.6435,0.6718 0.2466,0.0949 0.4864,0.0819 0.7217,-0.0406 0.2324,-0.1207 0.3804,-0.3092 0.4439,-0.5663 0.0624,-0.2571 0,-0.5658 -0.1879,-0.9269 -0.1772,-0.3411 -0.3895,-0.5585 -0.6356,-0.6526 -0.2469,-0.0949 -0.4858,-0.0819 -0.7163,0.038 -0.2353,0.1222 -0.3844,0.3098 -0.449,0.5655 -0.0635,0.2551 -0.0034,0.5587 0.1797,0.9111 z m 1.5888,-2.6303 1.0216,-0.6576 c 0.2506,-0.1616 0.451,-0.2605 0.6007,-0.2977 0.1488,-0.0365 0.303,-0.0278 0.4626,0.0281 0.161,0.0556 0.2909,0.161 0.3915,0.3175 0.0808,0.1253 0.125,0.2514 0.1335,0.377 0.008,0.1267 -0.0193,0.2548 -0.0833,0.3841 0.1491,-0.038 0.3001,-0.027 0.4544,0.0334 0.1527,0.0596 0.2789,0.1673 0.3781,0.3215 0.1437,0.2579 0.1732,0.4997 0.0896,0.7225 -0.0834,0.2237 -0.2784,0.4337 -0.5845,0.6307 l -1.1778,0.7589 z m 1.1557,0.8189 0.4706,-0.303 c 0.1876,-0.1207 0.3107,-0.2143 0.3679,-0.2786 0.0576,-0.0655 0.0953,-0.1457 0.1117,-0.2421 0.017,-0.0955 -0.002,-0.1854 -0.0558,-0.2696 -0.0896,-0.1389 -0.1999,-0.2032 -0.3317,-0.1956 -0.1327,0.008 -0.3166,0.0887 -0.5519,0.2401 l -0.485,0.3124 z m 0.7407,1.1503 0.5825,-0.3753 c 0.2506,-0.1613 0.404,-0.3016 0.4601,-0.4198 0.0553,-0.119 0.0397,-0.2506 -0.0479,-0.3974 -0.0536,-0.0833 -0.131,-0.144 -0.2307,-0.1809 -0.1007,-0.0362 -0.2005,-0.0365 -0.2991,0.001 -0.0989,0.0363 -0.2446,0.1171 -0.4363,0.2404 l -0.5354,0.3447 z m 1.2745,-2.1668 c -0.332,-0.4694 -0.4473,-0.9096 -0.345,-1.3212 0.0853,-0.3419 0.286,-0.6248 0.6004,-0.847 0.3486,-0.2463 0.7152,-0.3339 1.099,-0.2622 0.3824,0.0712 0.7168,0.309 1.0014,0.7115 0.2308,0.3266 0.3632,0.618 0.3975,0.8742 0.034,0.2563 -0.006,0.5026 -0.1208,0.739 -0.1137,0.2358 -0.2823,0.4323 -0.5037,0.5888 -0.356,0.2514 -0.724,0.341 -1.1047,0.2684 -0.3804,-0.0726 -0.7217,-0.3234 -1.0241,-0.7515 z m 0.4416,-0.3106 c 0.2296,0.3248 0.4723,0.5181 0.7282,0.5785 0.2574,0.0607 0.4933,0.0153 0.7095,-0.1378 0.2141,-0.151 0.3351,-0.358 0.3632,-0.6213 0.0272,-0.2631 -0.0766,-0.5607 -0.3116,-0.8932 -0.2216,-0.3135 -0.4614,-0.5003 -0.718,-0.5604 -0.2574,-0.0604 -0.4924,-0.0153 -0.7047,0.1346 -0.2165,0.1531 -0.3387,0.3592 -0.3682,0.6211 -0.0283,0.2614 0.0723,0.5539 0.3016,0.8785 z" />
</svg>
