<?xml version="1.0" encoding="utf-8"?>
<!-- Generator: Adobe Illustrator 26.4.1, SVG Export Plug-In . SVG Version: 6.00 Build 0)  -->
<svg version="1.1"
	 id="svg52" xmlns:svg="http://www.w3.org/2000/svg" xmlns:rdf="http://www.w3.org/1999/02/22-rdf-syntax-ns#" xmlns:cc="http://creativecommons.org/ns#" xmlns:dc="http://purl.org/dc/elements/1.1/"
	 xmlns="http://www.w3.org/2000/svg" xmlns:xlink="http://www.w3.org/1999/xlink" x="0px" y="0px" viewBox="0 0 119.1 119.1"
	 style="enable-background:new 0 0 119.1 119.1;" xml:space="preserve">
<style type="text/css">
	.st0{fill:none;stroke:#1B1918;stroke-width:0.5669;}
	.st1{fill:none;stroke:#1B1918;stroke-width:0.5;}
	.st2{fill-rule:evenodd;clip-rule:evenodd;fill:#1B1918;}
	.st3{fill-rule:evenodd;clip-rule:evenodd;}
	.st4{fill-rule:evenodd;clip-rule:evenodd;fill:#050505;}
	.st5{fill:none;stroke:#1B1918;stroke-width:1.0001;}
</style>
<g id="Layer1000">
	<path id="path2" class="st0" d="M61.3,4.8c30.1,0,54.5,24.4,54.5,54.5s-24.4,54.5-54.5,54.5c-30.1,0-54.5-24.4-54.5-54.5
		S31.2,4.8,61.3,4.8z"/>
	<path id="path4" class="st1" d="M19.1,57.7c0-23.3,18.9-42.1,42.1-42.1c23.3,0,42.1,18.9,42.1,42.1"/>
	<path id="path6" class="st2" d="M9.6,58.7l0-0.6l3.7,0.1l-3.7-2.6l0-0.6l4.7,0.1l0,0.6l-3.7-0.1l3.7,2.6l0,0.6L9.6,58.7z
		 M14.6,53.6l-4.7-0.8l0.1-0.6l1.9,0.3l0.4-2.4l-1.9-0.3l0.1-0.6l4.7,0.8l-0.1,0.6l-2.2-0.4l-0.4,2.4l2.2,0.4L14.6,53.6z M11,46.7
		l0.8-2.8l4,1.2l0.1-0.4l1.6,0.5l-0.2,0.5l-1.1-0.3l-0.9,3l1.1,0.3l-0.2,0.5l-1.6-0.5l0.1-0.3c-0.4-0.5-1.5-1-3.2-1.5L11,46.7z
		 M12.2,44.7l-0.5,1.6l0.2,0.1c0.4,0.1,0.9,0.3,1.6,0.6c0.7,0.3,1.2,0.6,1.5,0.9l0.6-2.1L12.2,44.7z M12.5,42l0.2-0.5l3.5,1.3
		l-2.6-3.7l0.2-0.6l4.4,1.7L18,40.8l-3.5-1.3l2.6,3.7l-0.2,0.6L12.5,42z M18.9,38.9l-4.2-2.2l0.8-1.6c0.2-0.3,0.3-0.6,0.5-0.7
		c0.2-0.1,0.4-0.2,0.6-0.2c0.2,0,0.4,0,0.6,0.1c0.2,0.1,0.3,0.2,0.4,0.4c0.1,0.2,0.2,0.4,0.2,0.6c0.2-0.2,0.4-0.3,0.7-0.4
		c0.2,0,0.5,0,0.7,0.1c0.2,0.1,0.4,0.2,0.5,0.4c0.1,0.2,0.2,0.3,0.2,0.5c0,0.2,0,0.4,0,0.6c0,0.2-0.1,0.4-0.3,0.7L18.9,38.9z
		 M16.7,37.1l0.5-0.9c0.1-0.2,0.2-0.4,0.2-0.6c0-0.2,0-0.3,0-0.4c-0.1-0.1-0.2-0.2-0.3-0.3c-0.1-0.1-0.3-0.1-0.4-0.1
		c-0.1,0-0.3,0.1-0.4,0.2c-0.1,0.1-0.2,0.3-0.4,0.6l-0.4,0.8L16.7,37.1z M18.7,38.1l0.5-1c0.1-0.2,0.2-0.3,0.2-0.4
		c0-0.1,0.1-0.3,0.1-0.4c0-0.1-0.1-0.2-0.1-0.3c-0.1-0.1-0.2-0.2-0.3-0.3c-0.2-0.1-0.3-0.1-0.5-0.1c-0.2,0-0.3,0.1-0.4,0.2
		c-0.1,0.1-0.3,0.3-0.4,0.6l-0.5,1L18.7,38.1z M17.2,32.1l0.3-0.5l3.2,2l-1.8-4.1l0.3-0.5l4,2.5L22.9,32l-3.2-2l1.8,4.1l-0.3,0.5
		L17.2,32.1z M20.9,26.9l1.9-2.2l3.1,2.8l0.3-0.3l1.2,1.1l-0.4,0.4l-0.8-0.7l-2.1,2.4L25,31l-0.4,0.4l-1.2-1.1l0.2-0.3
		c-0.2-0.7-0.9-1.6-2.2-2.7L20.9,26.9z M22.8,25.6l-1.1,1.2l0.2,0.2c0.3,0.3,0.7,0.7,1.2,1.2c0.5,0.5,0.8,1,1,1.5l1.4-1.6L22.8,25.6
		z M23.8,23.5l0.5-0.4l3.1,1l-1-3l0.4-0.4l1.3,3.9c0.2,0.5,0.2,0.8,0.2,1c0,0.2-0.1,0.4-0.3,0.6c-0.1,0.1-0.3,0.2-0.5,0.3l-0.4-0.4
		c0.2,0,0.3-0.1,0.5-0.3c0.1-0.1,0.2-0.2,0.2-0.4c0-0.1-0.1-0.4-0.2-0.7L23.8,23.5z M30.1,24l-1.5-4.8l0.5-0.4l4.4,2.5L33,21.7
		l-1.3-0.8l-1.6,1.2l0.5,1.4L30.1,24z M30,21.6l1.3-1L30,19.9c-0.4-0.2-0.7-0.4-0.9-0.6c0.1,0.3,0.3,0.6,0.4,0.9L30,21.6z
		 M32.2,16.5l2.5-1.6l2.6,4l-0.5,0.3l-2.3-3.5L33,16.6l1.3,2c0.3,0.4,0.4,0.7,0.5,1c0.1,0.2,0.1,0.4,0,0.6c-0.1,0.2-0.2,0.3-0.4,0.5
		c-0.1,0.1-0.3,0.1-0.5,0.2l-0.2-0.5c0.1,0,0.2,0,0.3-0.1c0.1-0.1,0.2-0.2,0.2-0.3c0-0.1-0.1-0.4-0.3-0.7L32.2,16.5z M36.4,13.9
		l0.6-0.3l0.9,1.8l1-0.5c0.5-0.2,0.8-0.4,1.1-0.4c0.3,0,0.5,0.1,0.7,0.2c0.2,0.1,0.3,0.3,0.4,0.5c0.2,0.3,0.2,0.7,0.1,1
		c-0.1,0.4-0.4,0.7-1,1l-1.6,0.8L36.4,13.9z M38.9,17.3l1-0.5c0.4-0.2,0.6-0.4,0.7-0.6c0-0.2,0-0.4-0.1-0.6
		c-0.1-0.2-0.2-0.3-0.4-0.4c-0.2-0.1-0.3-0.1-0.5,0c-0.2,0-0.4,0.2-0.8,0.4l-0.7,0.4L38.9,17.3z M42.9,16l-1.8-4.4l0.6-0.2l0.7,1.8
		l2.3-0.9l-0.7-1.8l0.6-0.2l1.8,4.4l-0.6,0.2l-0.8-2.1l-2.3,0.9l0.8,2.1L42.9,16z M46.7,9.5l0.6-0.1l0.5,2l1.1-0.3
		c0.7-0.2,1.2-0.1,1.5,0.1c0.3,0.2,0.5,0.5,0.5,0.8c0.1,0.4,0,0.7-0.1,1c-0.2,0.3-0.6,0.6-1.3,0.7l-1.8,0.4L46.7,9.5z M48.3,13.5
		l1.1-0.3c0.4-0.1,0.6-0.2,0.8-0.4c0.1-0.2,0.2-0.4,0.1-0.7c0-0.2-0.1-0.3-0.3-0.4c-0.1-0.1-0.3-0.2-0.5-0.2c-0.2,0-0.5,0-0.8,0.1
		l-0.8,0.2L48.3,13.5z M50.7,8.6l0.6-0.1l1.1,4.6l-0.6,0.1L50.7,8.6z M53.3,8.1l0.6-0.1l0.5,3.7l2-4L57,7.7l0.6,4.7L57,12.4
		l-0.5-3.7l-2,4l-0.6,0.1L53.3,8.1z M55.5,6.7l0.4-0.1c0,0.3-0.1,0.5-0.2,0.7c-0.1,0.2-0.4,0.3-0.6,0.3c-0.3,0-0.5,0-0.7-0.1
		C54.2,7.4,54,7.2,54,6.9l0.4-0.1c0,0.1,0.1,0.2,0.2,0.3c0.1,0.1,0.2,0.1,0.4,0.1c0.2,0,0.3-0.1,0.4-0.2C55.4,7,55.5,6.9,55.5,6.7z
		 M61.5,7.5l3.7,0.1l-0.1,4.7l-0.6,0l0.1-4.2l-2.5,0L62,12.3l-0.6,0L61.5,7.5z M66.6,12.6l0.6-4.7L69,8.1c0.3,0,0.5,0.1,0.7,0.1
		c0.2,0.1,0.4,0.2,0.5,0.3c0.1,0.1,0.2,0.3,0.3,0.5c0.1,0.2,0.1,0.4,0.1,0.7c-0.1,0.4-0.2,0.7-0.5,1c-0.3,0.2-0.8,0.3-1.4,0.2
		l-1.2-0.2l-0.3,1.9L66.6,12.6z M67.5,10.2l1.2,0.2c0.4,0.1,0.7,0,0.9-0.1c0.2-0.1,0.3-0.3,0.3-0.6c0-0.2,0-0.4-0.1-0.5
		c-0.1-0.2-0.2-0.3-0.4-0.3c-0.1,0-0.3-0.1-0.6-0.1l-1.2-0.2L67.5,10.2z M71.4,13.3l1.3-4.5L76,9.7l-0.2,0.5l-2.7-0.8l-0.4,1.4
		l2.5,0.7l-0.2,0.5l-2.5-0.7l-0.4,1.5l2.8,0.8l-0.2,0.5L71.4,13.3z M78.2,10.3l2.7,1l-1.5,3.9l0.4,0.2L79.2,17l-0.5-0.2l0.4-1
		l-2.9-1.1l-0.4,1l-0.5-0.2l0.6-1.5l0.3,0.1c0.6-0.4,1.2-1.4,1.8-3L78.2,10.3z M80.1,11.7l-1.5-0.6l-0.1,0.2
		c-0.1,0.4-0.4,0.9-0.7,1.5c-0.3,0.6-0.7,1.1-1,1.5l2,0.8L80.1,11.7z M82.9,12.2l3.3,1.7L84,18.1l-0.6-0.3l1.9-3.7L83.2,13l-1.9,3.7
		l-0.6-0.3L82.9,12.2z M85.3,18.9l2.5-4l1.5,1c0.3,0.2,0.5,0.3,0.6,0.4c0.2,0.2,0.3,0.3,0.4,0.5c0.1,0.2,0.1,0.4,0.1,0.6
		c0,0.2-0.1,0.4-0.2,0.6c-0.2,0.3-0.5,0.6-0.9,0.7c-0.4,0.1-0.8,0-1.4-0.4l-1-0.6l-1,1.6L85.3,18.9z M87.1,17.1l1,0.7
		C88.5,18,88.8,18,89,18c0.2,0,0.4-0.2,0.6-0.4c0.1-0.2,0.2-0.3,0.1-0.5c0-0.2-0.1-0.3-0.2-0.4c-0.1-0.1-0.2-0.2-0.5-0.3l-1-0.6
		L87.1,17.1z M92.2,17.8l0.4,0.4l-2.3,2.9l4.3-1.4l0.5,0.4l-2.9,3.7l-0.4-0.4l2.3-2.9l-4.3,1.4l-0.5-0.4L92.2,17.8z M93.4,24.9
		l3.4-3.3l0.4,0.5l-1.4,1.4l1.7,1.8l1.4-1.4l0.4,0.5l-3.4,3.3l-0.4-0.5l1.6-1.5l-1.7-1.8l-1.6,1.5L93.4,24.9z M100.7,25.7l0.4,0.4
		l-2.9,2.3l4.5-0.3l0.4,0.5l-3.7,2.9l-0.4-0.4l2.9-2.3l-4.5,0.3L97,28.6L100.7,25.7z M100.1,32.8l4-2.6l0.5,0.8l-2.2,2.8
		c-0.2,0.3-0.4,0.4-0.5,0.6c0.2,0,0.4-0.1,0.8-0.2l3.4-0.8l0.5,0.7l-4,2.6l-0.3-0.5l3.3-2.1l-4.1,1l-0.3-0.5l2.6-3.3l-3.4,2.2
		L100.1,32.8z M103,37.4l5.1-0.3l0.3,0.6l-3.5,3.7l-0.3-0.6l1.1-1.1l-0.8-1.8l-1.5,0.1L103,37.4z M105.3,37.9l0.7,1.5l1-1
		c0.3-0.3,0.6-0.5,0.8-0.7c-0.3,0.1-0.6,0.1-0.9,0.1L105.3,37.9z M105.4,43l4-1.3l-0.5-1.5l0.5-0.2l1.1,3.6l-0.5,0.2l-0.5-1.5
		l-4,1.3L105.4,43z M106.5,46.1l4.6-1.1l0.8,3.3l-0.5,0.1l-0.6-2.7l-1.4,0.3l0.6,2.5l-0.5,0.1l-0.6-2.5l-1.6,0.4l0.7,2.8l-0.5,0.1
		L106.5,46.1z M112.3,50.6l0.4,2.9l-4.7,0.6l-0.1-0.6l4.1-0.6l-0.2-1.7l-2.4,0.3c-0.5,0.1-0.9,0.1-1.1,0.1c-0.2,0-0.4-0.1-0.6-0.2
		c-0.1-0.1-0.2-0.3-0.3-0.5c0-0.1,0-0.3,0-0.5l0.6,0c0,0.1-0.1,0.2,0,0.3c0,0.1,0.1,0.2,0.2,0.3c0.1,0.1,0.4,0.1,0.8,0L112.3,50.6z
		 M112.9,55.5l0,0.6l-2,0l0,1.1c0,0.5,0,0.9-0.2,1.1c-0.1,0.2-0.3,0.4-0.5,0.5c-0.2,0.1-0.4,0.2-0.7,0.2c-0.4,0-0.7-0.1-1-0.4
		c-0.3-0.2-0.4-0.7-0.4-1.4l0-1.8L112.9,55.5z M108.7,56.2l0,1.1c0,0.5,0.1,0.8,0.3,0.9c0.2,0.1,0.4,0.2,0.6,0.2
		c0.2,0,0.3-0.1,0.5-0.2c0.1-0.1,0.2-0.2,0.2-0.4c0-0.2,0.1-0.5,0-0.9l0-0.8L108.7,56.2z"/>
	<path id="path8" class="st2" d="M26.4,95.9l3.1-3.6l1.3,1.2c0.2,0.2,0.4,0.4,0.5,0.5c0.1,0.2,0.2,0.4,0.3,0.6c0,0.2,0,0.4,0,0.6
		c-0.1,0.2-0.2,0.4-0.3,0.6c-0.3,0.3-0.6,0.5-1,0.5c-0.4,0-0.8-0.2-1.3-0.6l-0.9-0.8l-1.3,1.5L26.4,95.9z M28.5,94.4l0.9,0.8
		c0.3,0.3,0.6,0.4,0.8,0.4c0.2,0,0.4-0.1,0.6-0.3c0.1-0.1,0.2-0.3,0.2-0.5c0-0.2,0-0.3-0.1-0.5c-0.1-0.1-0.2-0.2-0.4-0.4l-0.9-0.8
		L28.5,94.4z M31.8,97.5c0.5-0.6,1-1,1.6-1.1c0.6-0.1,1.2,0,1.7,0.4c0.4,0.3,0.6,0.6,0.8,0.9c0.2,0.4,0.2,0.8,0.1,1.2
		c-0.1,0.4-0.2,0.8-0.5,1.2c-0.3,0.4-0.6,0.7-1,0.9c-0.4,0.2-0.8,0.3-1.2,0.2c-0.4,0-0.8-0.2-1.1-0.4c-0.4-0.3-0.6-0.6-0.8-1
		c-0.2-0.4-0.2-0.8-0.1-1.2C31.4,98.2,31.6,97.8,31.8,97.5z M32.3,97.8c-0.3,0.5-0.5,0.9-0.4,1.4c0.1,0.4,0.3,0.8,0.7,1.1
		c0.4,0.3,0.8,0.4,1.2,0.3c0.4-0.1,0.8-0.4,1.2-0.9c0.2-0.3,0.4-0.6,0.4-0.9c0.1-0.3,0-0.6-0.1-0.9c-0.1-0.3-0.3-0.5-0.6-0.7
		c-0.4-0.3-0.8-0.4-1.2-0.3C33.2,96.9,32.8,97.3,32.3,97.8z M39.7,103.1l0.5,0.4c-0.4,0.4-0.7,0.6-1.2,0.7c-0.4,0.1-0.9,0-1.3-0.2
		c-0.5-0.2-0.8-0.5-1-0.8c-0.2-0.3-0.3-0.7-0.2-1.1c0-0.4,0.2-0.8,0.4-1.2c0.2-0.4,0.5-0.8,0.8-1c0.3-0.2,0.7-0.4,1.1-0.4
		c0.4,0,0.8,0.1,1.1,0.3c0.4,0.2,0.7,0.5,0.9,0.9c0.2,0.4,0.2,0.8,0.1,1.2l-0.6-0.2c0.1-0.4,0-0.7-0.1-0.9c-0.1-0.2-0.3-0.4-0.6-0.6
		c-0.3-0.2-0.6-0.2-0.9-0.2c-0.3,0-0.6,0.2-0.8,0.4c-0.2,0.2-0.4,0.5-0.5,0.7c-0.2,0.4-0.3,0.7-0.3,1c0,0.3,0,0.6,0.2,0.8
		c0.2,0.2,0.4,0.4,0.6,0.6c0.3,0.2,0.6,0.2,0.9,0.1C39.2,103.6,39.5,103.4,39.7,103.1L39.7,103.1z M45.1,105.4l0.5,0.4
		c-0.3,0.4-0.7,0.7-1.1,0.8c-0.4,0.1-0.9,0.1-1.3-0.1c-0.5-0.2-0.8-0.4-1-0.7c-0.2-0.3-0.3-0.7-0.4-1.1c0-0.4,0.1-0.9,0.2-1.3
		c0.2-0.5,0.4-0.8,0.7-1.1c0.3-0.3,0.7-0.4,1.1-0.5c0.4-0.1,0.8,0,1.2,0.2c0.4,0.2,0.8,0.4,1,0.8c0.2,0.3,0.3,0.7,0.3,1.2l-0.6-0.1
		c0-0.4,0-0.7-0.2-0.9c-0.1-0.2-0.4-0.4-0.6-0.5c-0.3-0.1-0.7-0.2-0.9-0.1c-0.3,0.1-0.5,0.2-0.7,0.5c-0.2,0.2-0.4,0.5-0.5,0.8
		c-0.1,0.4-0.2,0.7-0.2,1c0,0.3,0.1,0.6,0.3,0.8c0.2,0.2,0.4,0.4,0.7,0.5c0.3,0.1,0.6,0.1,0.9,0C44.7,106,44.9,105.7,45.1,105.4
		L45.1,105.4z M48.2,103.2l0.6,0.1l-0.8,3.6l3.3-3.1l0.6,0.1l-1.1,4.6l-0.6-0.1l0.8-3.6l-3.3,3.1l-0.6-0.1L48.2,103.2z M56.7,109.6
		l0.6-4.7l-2.1-0.3c-0.4-0.1-0.7-0.1-1,0c-0.2,0.1-0.4,0.2-0.6,0.4c-0.2,0.2-0.3,0.4-0.3,0.7c0,0.3,0,0.6,0.2,0.9
		c0.2,0.3,0.5,0.4,0.9,0.6c-0.2,0.1-0.3,0.1-0.4,0.2c-0.2,0.1-0.4,0.3-0.6,0.6l-1,1.2l0.8,0.1l0.7-0.9c0.2-0.3,0.4-0.5,0.5-0.6
		c0.1-0.1,0.3-0.2,0.4-0.3c0.1,0,0.2-0.1,0.3-0.1c0.1,0,0.2,0,0.3,0l0.7,0.1l-0.3,2.1L56.7,109.6z M56.4,106.9l-1.3-0.2
		c-0.3,0-0.5-0.1-0.7-0.2c-0.2-0.1-0.3-0.2-0.3-0.3c-0.1-0.1-0.1-0.3-0.1-0.4c0-0.2,0.1-0.4,0.3-0.5c0.2-0.1,0.4-0.2,0.8-0.1
		l1.5,0.2L56.4,106.9z M59.1,109.7l0-0.7l0.7,0l0,0.7c0,0.2-0.1,0.4-0.1,0.6c-0.1,0.1-0.2,0.3-0.4,0.3l-0.2-0.3
		c0.1-0.1,0.2-0.1,0.3-0.2c0.1-0.1,0.1-0.3,0.1-0.4L59.1,109.7z M64.9,106.2l2-0.1l0,0.5l-1.4,0.1l0.2,2.9l-0.6,0L64.9,106.2z
		 M68.2,109.3l-0.1-0.7l0.7-0.1l0.1,0.7L68.2,109.3z M74.2,108.1l-1.5-4.5l0.9-0.3l2.1,2.8c0.2,0.3,0.3,0.5,0.4,0.6
		c0-0.2,0-0.4,0-0.8l0.1-3.5l0.8-0.3l1.5,4.5l-0.6,0.2l-1.2-3.8l-0.1,4.2l-0.5,0.2l-2.6-3.4l1.3,3.8L74.2,108.1z M79.7,104.4
		c-0.3-0.6-0.3-1.1-0.1-1.5c0.2-0.4,0.4-0.6,0.8-0.8c0.4-0.2,0.8-0.2,1.2-0.1c0.4,0.2,0.7,0.5,0.9,1c0.2,0.4,0.3,0.7,0.2,1
		c0,0.3-0.1,0.5-0.3,0.8c-0.2,0.2-0.4,0.4-0.7,0.5c-0.4,0.2-0.9,0.2-1.2,0.1C80.3,105.3,80,105,79.7,104.4z M80.3,104.2
		c0.2,0.4,0.4,0.7,0.7,0.8c0.3,0.1,0.5,0.1,0.8,0c0.3-0.1,0.4-0.3,0.5-0.6c0.1-0.3,0-0.6-0.2-1c-0.2-0.4-0.4-0.6-0.7-0.8
		c-0.3-0.1-0.5-0.1-0.8,0c-0.3,0.1-0.4,0.3-0.5,0.6C80.1,103.5,80.1,103.8,80.3,104.2z M86.4,101.6l0.5-0.2c0.1,0.4,0.2,0.7,0,1
		c-0.1,0.3-0.3,0.6-0.7,0.8c-0.4,0.2-0.8,0.3-1.2,0.2c-0.4-0.1-0.7-0.4-1-0.9c-0.2-0.3-0.3-0.6-0.3-0.9c0-0.3,0-0.6,0.2-0.8
		c0.1-0.2,0.4-0.4,0.6-0.6c0.3-0.2,0.6-0.3,0.9-0.2c0.3,0,0.6,0.2,0.8,0.5l-0.4,0.4c-0.2-0.2-0.3-0.3-0.5-0.3c-0.2,0-0.3,0-0.5,0.1
		c-0.3,0.1-0.4,0.4-0.5,0.6c-0.1,0.3,0,0.6,0.3,1c0.2,0.4,0.5,0.6,0.7,0.7c0.3,0.1,0.5,0.1,0.8-0.1c0.2-0.1,0.3-0.3,0.4-0.5
		C86.6,102.1,86.6,101.8,86.4,101.6z M87.1,98.6l0.5-0.3l0.9,1.2c0.2-0.1,0.2-0.2,0.3-0.3c0-0.1,0-0.3-0.1-0.7
		c-0.1-0.3-0.1-0.5-0.1-0.6c0-0.1,0-0.2,0.1-0.3c0.1-0.1,0.2-0.2,0.3-0.3l0.1-0.1l0.3,0.4l-0.1,0.1C89,97.8,89,97.9,89,98
		c0,0.1,0,0.2,0.1,0.5c0.1,0.2,0.1,0.4,0.1,0.5c0,0.1-0.1,0.2-0.1,0.4c0.2-0.1,0.6,0,1,0.1l1.1,0.5l-0.5,0.4l-1.1-0.5
		c-0.2-0.1-0.4-0.2-0.5-0.2c-0.1,0-0.2,0-0.3,0.1l0.9,1.3l-0.5,0.3L87.1,98.6z M90.2,96.4l1-0.9c0.2-0.2,0.5-0.4,0.6-0.4
		c0.2-0.1,0.3-0.1,0.5,0c0.2,0,0.3,0.1,0.5,0.3c0.1,0.1,0.2,0.3,0.2,0.4c0,0.1,0,0.3,0,0.4c0.2-0.1,0.3-0.1,0.5,0
		c0.2,0,0.3,0.1,0.5,0.3c0.2,0.3,0.3,0.5,0.2,0.8c-0.1,0.3-0.2,0.5-0.5,0.8l-1.2,1L90.2,96.4z M91.6,97.1l0.5-0.4
		c0.2-0.2,0.3-0.3,0.4-0.4c0.1-0.1,0.1-0.2,0.1-0.3c0-0.1,0-0.2-0.1-0.3c-0.1-0.1-0.2-0.2-0.4-0.2c-0.1,0-0.3,0.1-0.6,0.3L91,96.4
		L91.6,97.1z M92.6,98.3l0.6-0.5c0.2-0.2,0.4-0.4,0.4-0.5c0-0.1,0-0.3-0.1-0.4c-0.1-0.1-0.2-0.1-0.3-0.2c-0.1,0-0.2,0-0.3,0
		c-0.1,0.1-0.2,0.2-0.4,0.3l-0.5,0.5L92.6,98.3z M97.3,94c0,0.3-0.1,0.5-0.1,0.7c-0.1,0.2-0.2,0.4-0.4,0.5c-0.3,0.3-0.5,0.4-0.8,0.4
		c-0.3,0-0.5-0.1-0.7-0.3c-0.1-0.1-0.2-0.2-0.3-0.4c0-0.2-0.1-0.3,0-0.4c0-0.1,0.1-0.3,0.2-0.4c0.1-0.1,0.2-0.2,0.3-0.4
		c0.3-0.4,0.5-0.7,0.6-0.9c-0.1-0.1-0.1-0.1-0.1-0.1c-0.2-0.2-0.3-0.2-0.5-0.2c-0.2,0-0.4,0.1-0.6,0.3c-0.2,0.2-0.3,0.4-0.3,0.5
		c0,0.2,0,0.3,0.2,0.6l-0.4,0.4c-0.1-0.2-0.2-0.4-0.3-0.6c0-0.2,0-0.4,0.1-0.6c0.1-0.2,0.2-0.4,0.4-0.6c0.2-0.2,0.4-0.4,0.6-0.4
		c0.2-0.1,0.3-0.1,0.5-0.1c0.1,0,0.3,0.1,0.4,0.1c0.1,0.1,0.2,0.2,0.4,0.3l0.6,0.5c0.4,0.4,0.6,0.6,0.8,0.7c0.1,0.1,0.3,0.1,0.4,0.2
		l-0.4,0.4C97.5,94.2,97.4,94.1,97.3,94z M96.3,93.1c-0.1,0.2-0.2,0.5-0.5,0.8c-0.1,0.2-0.2,0.3-0.3,0.4c0,0.1,0,0.2,0,0.3
		c0,0.1,0.1,0.2,0.1,0.2c0.1,0.1,0.2,0.2,0.4,0.1c0.2,0,0.3-0.1,0.5-0.3c0.2-0.2,0.3-0.3,0.3-0.5c0-0.2,0-0.4,0-0.6
		c-0.1-0.1-0.2-0.3-0.4-0.5L96.3,93.1z"/>
	<g id="Layer1001">
		<path id="path10" class="st3" d="M100.2,88.5c0,0,0.1,0.1,0.1,0.1c0,0,0,0,0,0l0.1,0.1c0,0,0,0,0,0c0,0,0,0.1,0,0.1
			c0,0.1,0,0.1,0,0.2c0,0.1-0.1,0.3-0.1,0.4c0,0,0.1,0,0.1,0l0.2-0.1c0,0,0.3-0.2,0.3-0.2c0,0,0.3,0.1,0.3,0.2
			c0.1,0,0.1,0.1,0.2,0.1c0,0,0.1,0,0.1,0c0,0,0.1,0,0.1,0c0-0.1,0-0.1,0-0.2l-0.1-0.4c0-0.1,0-0.1,0-0.2l0.4-0.4c0,0,0,0,0.1-0.1
			l-0.7-0.1l-0.3-0.6l-0.3,0.6l-0.7,0.1L100.2,88.5z"/>
		<path id="path12" class="st3" d="M99.6,88.1c0,0,0.9-0.1,1-0.1c0,0,0,0,0.1,0l0.1-0.3c0-0.1,0.1-0.1,0.1-0.2l0.2-0.3
			c0,0,0-0.1,0.1-0.1c0,0,0.1,0.2,0.1,0.2l0.3,0.6c0,0.1,0,0.1,0.1,0.1c0.3,0,0.7,0.1,1,0.1c0,0-0.1,0.1-0.1,0.1
			c0,0-0.1,0.1-0.1,0.1l-0.3,0.3c0,0-0.1,0.1-0.1,0.1l0,0l0.2,1c0,0-0.2-0.1-0.2-0.1c-0.1,0-0.7-0.4-0.7-0.4c0,0-0.4,0.2-0.5,0.2
			c-0.1,0-0.2,0.1-0.2,0.1c0,0-0.1,0-0.1,0.1c0,0-0.1,0.1-0.1,0.1c0-0.1,0-0.2,0-0.3c0-0.1,0-0.2,0-0.3l0.1-0.4c0,0,0,0,0,0
			c0,0,0,0,0,0l-0.2-0.2c0,0-0.1-0.1-0.1-0.1c0,0,0,0,0,0L99.6,88.1z M99.9,90.1L99.9,90.1c0,0,0.3-0.1,0.3-0.1
			c0.1,0,0.2-0.1,0.3-0.1c0.1,0,0.5-0.3,0.5-0.3c0,0,1.1,0.6,1.1,0.6c0,0,0,0,0,0c0,0,0,0,0,0c0,0,0,0,0,0l-0.2-1.2l0.3-0.3
			c0,0,0.1-0.1,0.1-0.1c0,0,0,0,0.1-0.1c0,0,0,0,0.1-0.1l0.1-0.1c0,0,0,0,0.1-0.1l0.2-0.2c0,0,0,0,0,0v0c-0.2,0-0.4-0.1-0.6-0.1
			c-0.1,0-0.2,0-0.3,0c0,0-0.3,0-0.3,0l-0.6-1.1c0,0,0,0,0,0.1l-0.2,0.5c-0.1,0.2-0.2,0.4-0.3,0.6c0,0,0,0,0,0L99.4,88
			c0,0-0.2,0-0.2,0c0,0,0.1,0.1,0.2,0.2c0,0,0,0,0.1,0.1l0.3,0.3c0.1,0.1,0.1,0.1,0.1,0.1c0.1,0.1,0.1,0.1,0.1,0.1c0,0,0,0,0,0
			c0,0,0,0,0,0L99.9,90.1z"/>
	</g>
	<g id="Layer1002">
		<path id="path15" class="st3" d="M21.3,87.2c0,0,0.1,0.1,0.1,0.1c0,0,0,0,0,0l0.1,0.1c0,0,0,0,0,0c0,0,0,0.1,0,0.1
			c0,0.1,0,0.1,0,0.2c0,0.1-0.1,0.3-0.1,0.4c0,0,0.1,0,0.1,0l0.2-0.1c0,0,0.3-0.2,0.3-0.2c0,0,0.3,0.1,0.3,0.2
			c0.1,0,0.1,0.1,0.2,0.1c0,0,0.1,0,0.1,0c0,0,0.1,0,0.1,0c0-0.1,0-0.1,0-0.2l-0.1-0.4c0-0.1,0-0.1,0-0.2L23,87c0,0,0,0,0.1-0.1
			l-0.7-0.1l-0.3-0.6l-0.3,0.6L21,86.9L21.3,87.2z"/>
		<path id="path17" class="st3" d="M20.6,86.8c0,0,0.9-0.1,1-0.1c0,0,0,0,0.1,0l0.1-0.3c0-0.1,0.1-0.1,0.1-0.2l0.2-0.3
			c0,0,0-0.1,0.1-0.1c0,0,0.1,0.2,0.1,0.2l0.3,0.6c0,0.1,0,0.1,0.1,0.1c0.3,0,0.7,0.1,1,0.1c0,0-0.1,0.1-0.1,0.1
			c0,0-0.1,0.1-0.1,0.1L23,87.4c0,0-0.1,0.1-0.1,0.1l0,0l0.2,1c0,0-0.2-0.1-0.2-0.1c-0.1,0-0.7-0.4-0.7-0.4c0,0-0.4,0.2-0.5,0.2
			c-0.1,0-0.2,0.1-0.2,0.1c0,0-0.1,0-0.1,0.1c0,0-0.1,0.1-0.1,0.1c0-0.1,0-0.2,0-0.3c0-0.1,0-0.2,0-0.3l0.1-0.4c0,0,0,0,0,0
			c0,0,0,0,0,0l-0.2-0.2c0,0-0.1-0.1-0.1-0.1c0,0,0,0,0,0L20.6,86.8z M21,88.9L21,88.9c0,0,0.3-0.1,0.3-0.1c0.1,0,0.2-0.1,0.3-0.1
			c0.1,0,0.5-0.3,0.5-0.3c0,0,1.1,0.6,1.1,0.6c0,0,0,0,0,0c0,0,0,0,0,0c0,0,0,0,0,0L23,87.6l0.3-0.3c0,0,0.1-0.1,0.1-0.1
			c0,0,0,0,0.1-0.1c0,0,0,0,0.1-0.1l0.1-0.1c0,0,0,0,0.1-0.1l0.2-0.2c0,0,0,0,0,0v0c-0.2,0-0.4-0.1-0.6-0.1c-0.1,0-0.2,0-0.3,0
			c0,0-0.3,0-0.3,0l-0.6-1.1c0,0,0,0,0,0.1L21.8,86c-0.1,0.2-0.2,0.4-0.3,0.6c0,0,0,0,0,0l-1.1,0.2c0,0-0.2,0-0.2,0
			c0,0,0.1,0.1,0.2,0.2c0,0,0,0,0.1,0.1l0.3,0.3c0.1,0.1,0.1,0.1,0.1,0.1c0.1,0.1,0.1,0.1,0.1,0.1c0,0,0,0,0,0c0,0,0,0,0,0L21,88.9z
			"/>
	</g>
	<g id="Layer1003">
		<g id="Layer1004">
			<path id="path20" class="st3" d="M51,31.3c0.3,0.2,0.5,0.4,0.8,0.7c0.8,1,4,4.4,4.7,5.4c0.3,0,0.2,0.1,0.6,0.6l1.2,1.3
				c0.3,0.3,0.3,0.4,0.6,0.7l2.5,2.7c0.6-0.5,2-2.4,2.5-2.6c0.1-0.4,0.5-0.7,0.8-1l0.3-0.3c0.2-0.4,1-1.3,1.4-1.7l6-6.8
				c-0.4-0.9-1.4-1.6-1.8-2.4c-0.5,0.2-1.2,0.8-1.6,1.1l-4.7,3.6c-0.1-0.1-1-2.1-1.1-2.3c-0.6-1.3-0.1-1.8,1.3-1.6
				c-0.1-0.8-0.8-0.9-2-1c-1.1-0.1-1.8,0.1-2.2,0.8c-0.5,0.8-1.5,3.3-1.9,4.1c-0.6-0.3-3.9-3-4.6-3.6c-0.5-0.4-1-0.9-1.5-1.2
				c-0.6,0.6-1.5,1.4-1.9,2.4c0.2,0.3,0.4,0.4,0.6,0.7C51,31.3,50.9,31.1,51,31.3z"/>
			<path id="path22" class="st3" d="M72.5,28.4l0.3,0.5c0.3,0.1,0.9,1.3,1.1,1.6c1,2,1.6,3.8,1.7,6.2c0.2,3.6-0.7,5.5-2.1,8.4
				c-0.4,0.6-0.8,1.4-1.4,1.7c-0.1,0.2,0,0.2-0.2,0.5c-0.6,0.6-1.9,1.8-2.7,2.3c-4,2.6-9,3.1-13.4,1.3c-4.7-2-8.9-6.9-8.8-13.7
				c0.3-11.3,13-18.2,22.7-11.3C71.1,26.7,71.6,27.6,72.5,28.4L72.5,28.4z M45.6,38.6c0.6,8.2,7.8,15.2,16.8,14.5
				c8.3-0.6,15.2-7.9,14.5-17c-0.6-8.3-7.8-15.3-16.9-14.5C51.7,22.3,44.9,29.5,45.6,38.6z"/>
			<path id="path24" class="st3" d="M56.4,43.9c-0.1,0.3-2.4,3.7-2.8,4.2c1.5,1.5,5.3,2.4,7.7,2.4c3.1,0,5.7-1,7.7-2.4
				c-0.3-0.6-0.8-1.2-1.2-1.8c-0.4-0.6-0.9-1.3-1.3-1.9c-0.2-0.3-2.4-3.3-2.5-3.7c-0.4,0.2-0.5,0.4-0.8,0.7l-1.9,2.1l-2.5-2.7
				c-0.4,0.3-1.3,1.8-1.7,2.4c-0.1,0.2-0.2,0.3-0.3,0.4c0,0-0.1,0.2-0.1,0.2C56.4,43.9,56.5,43.8,56.4,43.9z"/>
			<path id="path26" class="st3" d="M66,40.8l4.6,5.7l0.4-0.2c0,0,0,0,0.1,0c0.2-0.4,0.3-0.4,0.5-0.8c0.4-0.6,1.1-1.4,1.4-2.1
				c-0.1-0.3,0,0-0.2-0.3c0,0-0.1-0.2-0.2-0.2c-0.1-0.2-0.2-0.2-0.3-0.4l-4.8-5.2c-0.8,0.8-1.3,1.6-2.1,2.4c0.1,0.3,0.2,0.3,0.3,0.5
				L66,40.8z"/>
			<path id="path28" class="st3" d="M49.8,43l-0.3,0.2c0.2,0.8,1.7,2.9,2.4,3.2l1.9-2.5c0.2-0.3,0-0.2,0.3-0.2l2.3-2.9
				c0.2-0.3,0.5-0.7,0.8-1c-0.2-0.6-1.4-1.7-1.6-2.2L55,37.3L49.8,43z"/>
			<path id="path30" class="st3" d="M48.2,38.3c0,0.8,0.6,4.6,1.3,4.5c0.2-0.5,3.3-3.7,4-4.4c0.2-0.3,0.4-0.5,0.6-0.7
				c0.3-0.3,0.4-0.4,0.7-0.7c-0.3-0.5-0.7-0.8-1.1-1.3c-0.3-0.3-0.8-1.1-1.1-1.3L48.2,38.3z"/>
			<path id="path32" class="st3" d="M73.9,41.6c0-0.6,0.3-1.2,0.4-1.8c0-0.3,0.1-0.7,0.1-1c0-0.6,0-0.5-0.4-0.8
				c-0.2-0.3-0.3-0.3-0.5-0.5c-0.1-0.1-0.2-0.1-0.2-0.2l-3.3-2.9L67.8,37c0.5,0.7,1.5,1.6,2,2.2c0.8,0.9,2.6,3,3.4,3.7
				C73.5,42.5,73.5,41.9,73.9,41.6z"/>
			<path id="path34" class="st3" d="M74.2,37.9c0.2-0.3,0.1,0,0.1-0.5c0.2-2.4-1.5-6.2-1.6-6.3c-0.5,0.2-1,1-1.4,1.5
				c-0.3,0.4-1.1,1.2-1.3,1.7l3.8,3.4C74.2,37.8,74.1,37.6,74.2,37.9z"/>
			<path id="path36" class="st3" d="M48.2,37.8c0.2-0.1,1.2-1,1.5-1.3c0.2-0.2,0.3-0.3,0.5-0.5l1.1-1c0.4-0.4,0.8-0.5,1.1-1l-2.4-3
				c-0.6,0.1-1.2,2.5-1.3,2.9C48.3,35.2,48.1,36.5,48.2,37.8z"/>
		</g>
		<path id="path39" class="st4" d="M59.5,21.2c9.6-1.1,17,6.1,17.9,14.5c1,9.5-6,17.1-14.3,18c-3.9,0.4-8.2-0.6-11.3-2.9
			c-1.3-1-1.4-1.2-2.2-1.9c-2.5-2.1-4.1-6.4-4.5-9.6c-0.7-6.6,2.6-12.8,8.2-16C55,22.1,57.2,21.4,59.5,21.2z M44.5,35.9v3
			c0.2,0.4,0.5,2.5,0.7,3.3c1.3,4.6,4.5,8.4,8.7,10.4c3.2,1.6,5,1.4,5.9,1.7h3.1c0.6-0.2,1.5-0.2,2.1-0.4c0.6-0.1,1.5-0.5,2-0.5
			c0.3-0.3,1.9-0.9,2.3-1.2c0.7-0.4,1.6-1.1,2.1-1.3c0.1-0.1-0.1,0,0.1-0.2c0.1-0.1,0.1-0.1,0.2-0.2c0.2-0.2,0.2-0.1,0.4-0.3
			c0.3-0.3,0.6-0.5,0.9-0.8c0.3-0.3,0.5-0.6,0.8-0.9c0.8-0.6,2.2-3.1,2.7-4.2c1.3-2.9,1.2-4.8,1.5-5.5v-2.6
			c-0.2-0.6-0.4-2.5-0.6-3.4c-1.6-5.7-6-10.1-11.7-11.7c-1-0.3-2.6-0.4-3.3-0.6h-2.8c-1.1,0.5-5.8,0.3-10.4,5
			C44.7,30.4,45,34.6,44.5,35.9z"/>
	</g>
	<path id="path42" class="st2" d="M48.2,58.3h0.7v4.5l3-4.5h0.7V64H52v-4.5L49,64h-0.8V58.3z M53.8,59.9h1.6c0.4,0,0.7,0,0.9,0.1
		c0.2,0.1,0.4,0.2,0.5,0.4c0.1,0.2,0.2,0.4,0.2,0.6c0,0.2,0,0.4-0.1,0.5c-0.1,0.1-0.2,0.3-0.4,0.4c0.2,0.1,0.4,0.2,0.5,0.4
		c0.1,0.2,0.2,0.4,0.2,0.6c0,0.4-0.2,0.7-0.4,0.9c-0.3,0.2-0.6,0.3-1.1,0.3h-1.9L53.8,59.9z M54.5,61.6h0.7c0.3,0,0.5,0,0.6,0
		c0.1,0,0.2-0.1,0.3-0.2c0.1-0.1,0.1-0.2,0.1-0.3c0-0.2-0.1-0.4-0.2-0.5c-0.2-0.1-0.4-0.1-0.8-0.1h-0.8V61.6z M54.5,63.4h0.9
		c0.4,0,0.7,0,0.8-0.1c0.1-0.1,0.2-0.2,0.2-0.5c0-0.1,0-0.3-0.1-0.4c-0.1-0.1-0.2-0.2-0.3-0.2c-0.1,0-0.4,0-0.7,0h-0.8L54.5,63.4z
		 M60.6,63.5c-0.3,0.2-0.5,0.4-0.7,0.5c-0.2,0.1-0.5,0.1-0.8,0.1c-0.5,0-0.8-0.1-1-0.3c-0.2-0.2-0.4-0.5-0.4-0.8
		c0-0.2,0-0.4,0.1-0.6c0.1-0.2,0.2-0.3,0.4-0.4c0.1-0.1,0.3-0.2,0.5-0.2c0.1,0,0.3-0.1,0.6-0.1c0.6-0.1,1-0.1,1.2-0.2
		c0-0.1,0-0.2,0-0.2c0-0.3-0.1-0.5-0.2-0.6c-0.2-0.2-0.4-0.2-0.8-0.2c-0.3,0-0.6,0.1-0.7,0.2c-0.2,0.1-0.3,0.3-0.3,0.6l-0.7-0.1
		c0.1-0.3,0.2-0.5,0.3-0.7s0.3-0.3,0.6-0.4c0.3-0.1,0.6-0.1,0.9-0.1c0.4,0,0.6,0,0.9,0.1c0.2,0.1,0.4,0.2,0.5,0.3
		c0.1,0.1,0.2,0.3,0.2,0.5c0,0.1,0,0.3,0,0.6v0.9c0,0.6,0,1.1,0,1.2c0,0.2,0.1,0.3,0.2,0.5h-0.7C60.7,63.8,60.6,63.7,60.6,63.5z
		 M60.6,61.9c-0.3,0.1-0.6,0.2-1.1,0.3c-0.3,0-0.5,0.1-0.6,0.1c-0.1,0.1-0.2,0.1-0.3,0.2c-0.1,0.1-0.1,0.2-0.1,0.3
		c0,0.2,0.1,0.3,0.2,0.5c0.1,0.1,0.3,0.2,0.6,0.2c0.3,0,0.5-0.1,0.7-0.2c0.2-0.1,0.4-0.3,0.5-0.5c0.1-0.2,0.1-0.4,0.1-0.7L60.6,61.9
		z M62.3,59.9H63v1.7H65v-1.7h0.7V64H65v-1.8H63V64h-0.7L62.3,59.9z M66.5,61.9c0-0.8,0.2-1.3,0.6-1.7c0.4-0.3,0.8-0.5,1.3-0.5
		c0.6,0,1,0.2,1.4,0.6c0.4,0.4,0.5,0.9,0.5,1.5c0,0.5-0.1,0.9-0.2,1.2c-0.2,0.3-0.4,0.5-0.7,0.7c-0.3,0.2-0.6,0.3-1,0.3
		c-0.6,0-1-0.2-1.4-0.6C66.6,63.2,66.5,62.6,66.5,61.9z M67.2,61.9c0,0.5,0.1,0.9,0.3,1.2c0.2,0.3,0.5,0.4,0.9,0.4
		c0.3,0,0.6-0.1,0.9-0.4c0.2-0.3,0.3-0.7,0.3-1.2c0-0.5-0.1-0.9-0.3-1.2c-0.2-0.3-0.5-0.4-0.9-0.4c-0.4,0-0.6,0.1-0.9,0.4
		C67.3,61,67.2,61.4,67.2,61.9z M71.1,59.9h1.6c0.4,0,0.7,0,0.9,0.1c0.2,0.1,0.4,0.2,0.5,0.4c0.1,0.2,0.2,0.4,0.2,0.6
		c0,0.2,0,0.4-0.1,0.5c-0.1,0.1-0.2,0.3-0.4,0.4c0.2,0.1,0.4,0.2,0.5,0.4c0.1,0.2,0.2,0.4,0.2,0.6c0,0.4-0.2,0.7-0.4,0.9
		C73.8,63.9,73.5,64,73,64h-1.9V59.9z M71.8,61.6h0.7c0.3,0,0.5,0,0.6,0c0.1,0,0.2-0.1,0.3-0.2c0.1-0.1,0.1-0.2,0.1-0.3
		c0-0.2-0.1-0.4-0.2-0.5c-0.2-0.1-0.4-0.1-0.8-0.1h-0.8V61.6z M71.8,63.4h0.9c0.4,0,0.7,0,0.8-0.1c0.1-0.1,0.2-0.2,0.2-0.5
		c0-0.1,0-0.3-0.1-0.4c-0.1-0.1-0.2-0.2-0.3-0.2c-0.1,0-0.4,0-0.7,0h-0.8L71.8,63.4z M33.9,67.2h0.7v4.5l3-4.5h0.7v5.7h-0.7v-4.5
		l-3,4.5h-0.8V67.2z M39.5,68.7h1.6c0.4,0,0.7,0,0.9,0.1c0.2,0.1,0.4,0.2,0.5,0.4c0.1,0.2,0.2,0.4,0.2,0.6c0,0.2,0,0.4-0.1,0.5
		c-0.1,0.1-0.2,0.3-0.4,0.4c0.2,0.1,0.4,0.2,0.5,0.4c0.1,0.2,0.2,0.4,0.2,0.6c0,0.4-0.2,0.7-0.4,0.9c-0.3,0.2-0.6,0.3-1.1,0.3h-1.9
		V68.7z M40.2,70.5h0.7c0.3,0,0.5,0,0.6,0c0.1,0,0.2-0.1,0.3-0.2c0.1-0.1,0.1-0.2,0.1-0.3c0-0.2-0.1-0.4-0.2-0.5
		c-0.2-0.1-0.4-0.1-0.8-0.1h-0.8L40.2,70.5z M40.2,72.3h0.9c0.4,0,0.7,0,0.8-0.1c0.1-0.1,0.2-0.2,0.2-0.5c0-0.1,0-0.3-0.1-0.4
		c-0.1-0.1-0.2-0.2-0.3-0.2c-0.1,0-0.4,0-0.7,0h-0.8L40.2,72.3z M46.3,72.3c-0.3,0.2-0.5,0.4-0.7,0.5c-0.2,0.1-0.5,0.1-0.8,0.1
		c-0.5,0-0.8-0.1-1-0.3c-0.2-0.2-0.4-0.5-0.4-0.8c0-0.2,0-0.4,0.1-0.6c0.1-0.2,0.2-0.3,0.4-0.4c0.1-0.1,0.3-0.2,0.5-0.2
		c0.1,0,0.3-0.1,0.6-0.1c0.6-0.1,1-0.1,1.2-0.2c0-0.1,0-0.2,0-0.2c0-0.3-0.1-0.5-0.2-0.6c-0.2-0.2-0.4-0.2-0.8-0.2
		c-0.3,0-0.6,0.1-0.7,0.2c-0.2,0.1-0.3,0.3-0.3,0.6l-0.7-0.1c0.1-0.3,0.2-0.5,0.3-0.7c0.1-0.2,0.3-0.3,0.6-0.4
		c0.3-0.1,0.6-0.1,0.9-0.1c0.4,0,0.6,0,0.9,0.1c0.2,0.1,0.4,0.2,0.5,0.3c0.1,0.1,0.2,0.3,0.2,0.5c0,0.1,0,0.3,0,0.6v0.9
		c0,0.6,0,1.1,0,1.2c0,0.2,0.1,0.3,0.2,0.5h-0.7C46.4,72.7,46.3,72.5,46.3,72.3z M46.2,70.8C46,70.9,45.6,71,45.1,71
		c-0.3,0-0.5,0.1-0.6,0.1c-0.1,0.1-0.2,0.1-0.3,0.2c-0.1,0.1-0.1,0.2-0.1,0.3c0,0.2,0.1,0.3,0.2,0.5c0.1,0.1,0.3,0.2,0.6,0.2
		c0.3,0,0.5-0.1,0.7-0.2c0.2-0.1,0.4-0.3,0.5-0.5c0.1-0.2,0.1-0.4,0.1-0.7L46.2,70.8z M48,68.7h0.7v1.7h1.9v-1.7h0.7v4.1h-0.7V71
		h-1.9v1.8H48L48,68.7z M54.7,67.2h4.5v5.7h-0.8v-5h-2.9v5h-0.8L54.7,67.2z M63.1,71.5l0.7,0.1c-0.1,0.4-0.3,0.7-0.6,1
		c-0.3,0.2-0.7,0.3-1.2,0.3c-0.6,0-1.1-0.2-1.4-0.6c-0.4-0.4-0.5-0.9-0.5-1.6c0-0.7,0.2-1.2,0.5-1.6c0.4-0.4,0.8-0.6,1.4-0.6
		c0.5,0,1,0.2,1.3,0.6c0.3,0.4,0.5,0.9,0.5,1.6c0,0,0,0.1,0,0.2h-3.1c0,0.5,0.2,0.8,0.4,1c0.2,0.2,0.5,0.4,0.9,0.4
		c0.3,0,0.5-0.1,0.7-0.2C62.9,72,63,71.8,63.1,71.5L63.1,71.5z M60.8,70.4h2.3c0-0.3-0.1-0.6-0.3-0.8c-0.2-0.3-0.5-0.4-0.9-0.4
		c-0.3,0-0.6,0.1-0.8,0.3C61,69.7,60.8,70,60.8,70.4z M64.1,68.7h3.3v0.6h-1.3v3.5h-0.7v-3.5h-1.3L64.1,68.7z M68.1,74.4v-5.7h0.6
		v0.5c0.1-0.2,0.3-0.4,0.5-0.5c0.2-0.1,0.4-0.2,0.7-0.2c0.4,0,0.7,0.1,0.9,0.3c0.3,0.2,0.5,0.4,0.6,0.8c0.1,0.3,0.2,0.7,0.2,1.1
		c0,0.4-0.1,0.8-0.2,1.1c-0.2,0.3-0.4,0.6-0.7,0.8c-0.3,0.2-0.6,0.3-0.9,0.3c-0.2,0-0.4,0-0.6-0.1c-0.2-0.1-0.3-0.2-0.5-0.4v2
		L68.1,74.4z M68.7,70.8c0,0.5,0.1,0.9,0.3,1.2c0.2,0.3,0.5,0.4,0.8,0.4c0.3,0,0.6-0.1,0.8-0.4c0.2-0.3,0.3-0.7,0.3-1.2
		c0-0.5-0.1-0.9-0.3-1.2c-0.2-0.3-0.5-0.4-0.8-0.4c-0.3,0-0.6,0.1-0.8,0.4C68.8,69.9,68.7,70.3,68.7,70.8z M72.2,70.8
		c0-0.8,0.2-1.3,0.6-1.7c0.4-0.3,0.8-0.5,1.3-0.5c0.6,0,1,0.2,1.4,0.6c0.4,0.4,0.5,0.9,0.5,1.5c0,0.5-0.1,0.9-0.2,1.2
		c-0.2,0.3-0.4,0.5-0.7,0.7c-0.3,0.2-0.6,0.3-1,0.3c-0.6,0-1-0.2-1.4-0.6C72.4,72,72.2,71.5,72.2,70.8z M72.9,70.8
		c0,0.5,0.1,0.9,0.3,1.2c0.2,0.3,0.5,0.4,0.9,0.4c0.3,0,0.6-0.1,0.9-0.4c0.2-0.3,0.3-0.7,0.3-1.2c0-0.5-0.1-0.9-0.3-1.2
		c-0.2-0.3-0.5-0.4-0.9-0.4c-0.4,0-0.6,0.1-0.9,0.4C73,69.9,72.9,70.3,72.9,70.8z M76.9,68.7h1.6c0.4,0,0.7,0,0.9,0.1
		c0.2,0.1,0.4,0.2,0.5,0.4c0.1,0.2,0.2,0.4,0.2,0.6c0,0.2,0,0.4-0.1,0.5c-0.1,0.1-0.2,0.3-0.4,0.4c0.2,0.1,0.4,0.2,0.5,0.4
		c0.1,0.2,0.2,0.4,0.2,0.6c0,0.4-0.2,0.7-0.4,0.9c-0.3,0.2-0.6,0.3-1.1,0.3h-1.9V68.7z M77.6,70.5h0.7c0.3,0,0.5,0,0.6,0
		c0.1,0,0.2-0.1,0.3-0.2c0.1-0.1,0.1-0.2,0.1-0.3c0-0.2-0.1-0.4-0.2-0.5c-0.2-0.1-0.4-0.1-0.8-0.1h-0.8V70.5z M77.6,72.3h0.9
		c0.4,0,0.7,0,0.8-0.1c0.1-0.1,0.2-0.2,0.2-0.5c0-0.1,0-0.3-0.1-0.4c-0.1-0.1-0.2-0.2-0.3-0.2c-0.1,0-0.4,0-0.7,0h-0.8L77.6,72.3z
		 M81.1,68.7h0.7v3.1l1.9-3.1h0.7v4.1h-0.7v-3.1l-1.9,3.1h-0.8L81.1,68.7z M85.3,68.7H86v0.8c0,0.3,0,0.6,0.1,0.7
		c0,0.2,0.1,0.3,0.3,0.4c0.2,0.1,0.3,0.2,0.6,0.2c0.3,0,0.6-0.1,1-0.2v-1.9h0.7v4.1h-0.7v-1.7c-0.4,0.1-0.8,0.2-1.2,0.2
		c-0.3,0-0.6-0.1-0.8-0.2c-0.2-0.2-0.4-0.4-0.5-0.6c-0.1-0.2-0.1-0.5-0.1-0.8L85.3,68.7z"/>
	<g id="Layer1005">
		<path id="path44" class="st2" d="M19.4,81c0-0.8,0.2-1.4,0.6-1.8s1-0.7,1.6-0.7c0.4,0,0.8,0.1,1.2,0.3c0.3,0.2,0.6,0.5,0.8,0.9
			c0.2,0.4,0.3,0.8,0.3,1.3c0,0.5-0.1,0.9-0.3,1.3c-0.2,0.4-0.5,0.7-0.8,0.9c-0.4,0.2-0.7,0.3-1.1,0.3c-0.4,0-0.8-0.1-1.2-0.3
			c-0.4-0.2-0.6-0.5-0.8-0.9C19.5,81.8,19.4,81.4,19.4,81z M20.1,81c0,0.6,0.2,1,0.5,1.3c0.3,0.3,0.7,0.5,1.2,0.5
			c0.5,0,0.9-0.2,1.2-0.5c0.3-0.3,0.5-0.8,0.5-1.4c0-0.4-0.1-0.7-0.2-1c-0.1-0.3-0.3-0.5-0.6-0.7C22.3,79.1,22,79,21.7,79
			c-0.4,0-0.8,0.2-1.1,0.5C20.2,79.8,20.1,80.3,20.1,81z M24.8,78.6h3.1v0.6h-2.4v4.2h-0.6L24.8,78.6z M28.3,83.3v-4.7h1.8
			c0.3,0,0.6,0,0.7,0c0.2,0,0.4,0.1,0.6,0.2c0.2,0.1,0.3,0.3,0.4,0.5c0.1,0.2,0.1,0.4,0.1,0.6c0,0.4-0.1,0.7-0.4,1
			c-0.3,0.3-0.7,0.4-1.4,0.4h-1.2v1.9L28.3,83.3z M28.9,80.8h1.2c0.4,0,0.7-0.1,0.9-0.2c0.2-0.2,0.3-0.4,0.3-0.6
			c0-0.2,0-0.4-0.1-0.5c-0.1-0.1-0.2-0.2-0.4-0.3c-0.1,0-0.3,0-0.6,0h-1.2L28.9,80.8z M32.8,83.3v-4.7h0.6v1.9h2.4v-1.9h0.6v4.7
			h-0.6v-2.2h-2.4v2.2H32.8z M37.5,78.6h0.6v3.7l2.5-3.7h0.6v4.7h-0.6v-3.7l-2.5,3.7h-0.6V78.6z M42.2,78.6H46v4.7h-0.6v-4.2h-2.5
			v4.2h-0.6V78.6z M48.6,81c0-0.6,0.1-1,0.2-1.4c0.1-0.3,0.3-0.6,0.5-0.8c0.2-0.2,0.5-0.3,0.9-0.3c0.3,0,0.5,0.1,0.7,0.2
			c0.2,0.1,0.4,0.2,0.5,0.4c0.1,0.2,0.2,0.4,0.3,0.7c0.1,0.3,0.1,0.6,0.1,1.1c0,0.6-0.1,1-0.2,1.3c-0.1,0.3-0.3,0.6-0.5,0.8
			c-0.2,0.2-0.5,0.3-0.9,0.3c-0.5,0-0.8-0.2-1.1-0.5C48.7,82.5,48.6,81.9,48.6,81z M49.2,81c0,0.8,0.1,1.3,0.3,1.6
			c0.2,0.3,0.4,0.4,0.7,0.4c0.3,0,0.5-0.1,0.7-0.4c0.2-0.3,0.3-0.8,0.3-1.6c0-0.8-0.1-1.3-0.3-1.6c-0.2-0.3-0.4-0.4-0.7-0.4
			c-0.3,0-0.5,0.1-0.6,0.3C49.3,79.7,49.2,80.2,49.2,81z M52.3,81c0-0.6,0.1-1,0.2-1.4c0.1-0.3,0.3-0.6,0.5-0.8
			c0.2-0.2,0.5-0.3,0.9-0.3c0.3,0,0.5,0.1,0.7,0.2c0.2,0.1,0.4,0.2,0.5,0.4c0.1,0.2,0.2,0.4,0.3,0.7c0.1,0.3,0.1,0.6,0.1,1.1
			c0,0.6-0.1,1-0.2,1.3c-0.1,0.3-0.3,0.6-0.5,0.8c-0.2,0.2-0.5,0.3-0.9,0.3c-0.5,0-0.8-0.2-1.1-0.5C52.4,82.5,52.3,81.9,52.3,81z
			 M52.9,81c0,0.8,0.1,1.3,0.3,1.6c0.2,0.3,0.4,0.4,0.7,0.4c0.3,0,0.5-0.1,0.7-0.4c0.2-0.3,0.3-0.8,0.3-1.6c0-0.8-0.1-1.3-0.3-1.6
			c-0.2-0.3-0.4-0.4-0.7-0.4c-0.3,0-0.5,0.1-0.6,0.3C53,79.7,52.9,80.2,52.9,81z M55.9,81c0-0.6,0.1-1,0.2-1.4
			c0.1-0.3,0.3-0.6,0.5-0.8c0.2-0.2,0.5-0.3,0.9-0.3c0.3,0,0.5,0.1,0.7,0.2c0.2,0.1,0.3,0.2,0.5,0.4c0.1,0.2,0.2,0.4,0.3,0.7
			C59,80.1,59,80.5,59,81c0,0.6-0.1,1-0.2,1.3c-0.1,0.3-0.3,0.6-0.5,0.8c-0.2,0.2-0.5,0.3-0.9,0.3c-0.5,0-0.8-0.2-1.1-0.5
			C56.1,82.5,55.9,81.9,55.9,81z M56.5,81c0,0.8,0.1,1.3,0.3,1.6c0.2,0.3,0.4,0.4,0.7,0.4c0.3,0,0.5-0.1,0.7-0.4
			c0.2-0.3,0.3-0.8,0.3-1.6c0-0.8-0.1-1.3-0.3-1.6C58,79.2,57.7,79,57.5,79c-0.3,0-0.5,0.1-0.6,0.3C56.6,79.7,56.5,80.2,56.5,81z
			 M59.6,81c0-0.6,0.1-1,0.2-1.4c0.1-0.3,0.3-0.6,0.5-0.8c0.2-0.2,0.5-0.3,0.9-0.3c0.3,0,0.5,0.1,0.7,0.2c0.2,0.1,0.4,0.2,0.5,0.4
			c0.1,0.2,0.2,0.4,0.3,0.7c0.1,0.3,0.1,0.6,0.1,1.1c0,0.6-0.1,1-0.2,1.3c-0.1,0.3-0.3,0.6-0.5,0.8c-0.2,0.2-0.5,0.3-0.9,0.3
			c-0.5,0-0.8-0.2-1.1-0.5C59.8,82.5,59.6,81.9,59.6,81z M60.2,81c0,0.8,0.1,1.3,0.3,1.6c0.2,0.3,0.4,0.4,0.7,0.4
			c0.3,0,0.5-0.1,0.7-0.4c0.2-0.3,0.3-0.8,0.3-1.6c0-0.8-0.1-1.3-0.3-1.6c-0.2-0.3-0.4-0.4-0.7-0.4c-0.3,0-0.5,0.1-0.6,0.3
			C60.3,79.7,60.2,80.2,60.2,81z M63.3,81c0-0.6,0.1-1,0.2-1.4c0.1-0.3,0.3-0.6,0.5-0.8c0.2-0.2,0.5-0.3,0.9-0.3
			c0.3,0,0.5,0.1,0.7,0.2c0.2,0.1,0.4,0.2,0.5,0.4c0.1,0.2,0.2,0.4,0.3,0.7c0.1,0.3,0.1,0.6,0.1,1.1c0,0.6-0.1,1-0.2,1.3
			c-0.1,0.3-0.3,0.6-0.5,0.8c-0.2,0.2-0.5,0.3-0.9,0.3c-0.5,0-0.8-0.2-1.1-0.5C63.4,82.5,63.3,81.9,63.3,81z M63.9,81
			c0,0.8,0.1,1.3,0.3,1.6c0.2,0.3,0.4,0.4,0.7,0.4c0.3,0,0.5-0.1,0.7-0.4c0.2-0.3,0.3-0.8,0.3-1.6c0-0.8-0.1-1.3-0.3-1.6
			c-0.2-0.3-0.4-0.4-0.7-0.4c-0.3,0-0.5,0.1-0.6,0.3C64,79.7,63.9,80.2,63.9,81z M67,81c0-0.6,0.1-1,0.2-1.4
			c0.1-0.3,0.3-0.6,0.5-0.8c0.2-0.2,0.5-0.3,0.9-0.3c0.3,0,0.5,0.1,0.7,0.2c0.2,0.1,0.3,0.2,0.5,0.4c0.1,0.2,0.2,0.4,0.3,0.7
			C70,80.1,70,80.5,70,81c0,0.6-0.1,1-0.2,1.3c-0.1,0.3-0.3,0.6-0.5,0.8c-0.2,0.2-0.5,0.3-0.9,0.3c-0.5,0-0.8-0.2-1.1-0.5
			C67.1,82.5,67,81.9,67,81z M67.6,81c0,0.8,0.1,1.3,0.3,1.6c0.2,0.3,0.4,0.4,0.7,0.4c0.3,0,0.5-0.1,0.7-0.4
			c0.2-0.3,0.3-0.8,0.3-1.6c0-0.8-0.1-1.3-0.3-1.6C69,79.2,68.8,79,68.5,79c-0.3,0-0.5,0.1-0.6,0.3C67.7,79.7,67.6,80.2,67.6,81z
			 M70.6,81c0-0.6,0.1-1,0.2-1.4c0.1-0.3,0.3-0.6,0.5-0.8c0.2-0.2,0.5-0.3,0.9-0.3c0.3,0,0.5,0.1,0.7,0.2c0.2,0.1,0.4,0.2,0.5,0.4
			c0.1,0.2,0.2,0.4,0.3,0.7c0.1,0.3,0.1,0.6,0.1,1.1c0,0.6-0.1,1-0.2,1.3c-0.1,0.3-0.3,0.6-0.5,0.8c-0.2,0.2-0.5,0.3-0.9,0.3
			c-0.5,0-0.8-0.2-1.1-0.5C70.8,82.5,70.6,81.9,70.6,81z M71.2,81c0,0.8,0.1,1.3,0.3,1.6c0.2,0.3,0.4,0.4,0.7,0.4
			c0.3,0,0.5-0.1,0.7-0.4c0.2-0.3,0.3-0.8,0.3-1.6c0-0.8-0.1-1.3-0.3-1.6c-0.2-0.3-0.4-0.4-0.7-0.4c-0.3,0-0.5,0.1-0.6,0.3
			C71.3,79.7,71.2,80.2,71.2,81z M74.3,81c0-0.6,0.1-1,0.2-1.4c0.1-0.3,0.3-0.6,0.5-0.8c0.2-0.2,0.5-0.3,0.9-0.3
			c0.3,0,0.5,0.1,0.7,0.2c0.2,0.1,0.4,0.2,0.5,0.4c0.1,0.2,0.2,0.4,0.3,0.7c0.1,0.3,0.1,0.6,0.1,1.1c0,0.6-0.1,1-0.2,1.3
			c-0.1,0.3-0.3,0.6-0.5,0.8c-0.2,0.2-0.5,0.3-0.9,0.3c-0.5,0-0.8-0.2-1.1-0.5C74.5,82.5,74.3,81.9,74.3,81z M74.9,81
			c0,0.8,0.1,1.3,0.3,1.6c0.2,0.3,0.4,0.4,0.7,0.4c0.3,0,0.5-0.1,0.7-0.4c0.2-0.3,0.3-0.8,0.3-1.6c0-0.8-0.1-1.3-0.3-1.6
			c-0.2-0.3-0.4-0.4-0.7-0.4c-0.3,0-0.5,0.1-0.6,0.3C75,79.7,74.9,80.2,74.9,81z M78,81c0-0.6,0.1-1,0.2-1.4
			c0.1-0.3,0.3-0.6,0.5-0.8c0.2-0.2,0.5-0.3,0.9-0.3c0.3,0,0.5,0.1,0.7,0.2c0.2,0.1,0.4,0.2,0.5,0.4c0.1,0.2,0.2,0.4,0.3,0.7
			c0.1,0.3,0.1,0.6,0.1,1.1c0,0.6-0.1,1-0.2,1.3c-0.1,0.3-0.3,0.6-0.5,0.8c-0.2,0.2-0.5,0.3-0.9,0.3c-0.5,0-0.8-0.2-1.1-0.5
			C78.1,82.5,78,81.9,78,81z M78.6,81c0,0.8,0.1,1.3,0.3,1.6c0.2,0.3,0.4,0.4,0.7,0.4c0.3,0,0.5-0.1,0.7-0.4
			c0.2-0.3,0.3-0.8,0.3-1.6c0-0.8-0.1-1.3-0.3-1.6C80,79.2,79.8,79,79.5,79c-0.3,0-0.5,0.1-0.6,0.3C78.7,79.7,78.6,80.2,78.6,81z
			 M81.7,81c0-0.6,0.1-1,0.2-1.4c0.1-0.3,0.3-0.6,0.5-0.8c0.2-0.2,0.5-0.3,0.9-0.3c0.3,0,0.5,0.1,0.7,0.2c0.2,0.1,0.4,0.2,0.5,0.4
			c0.1,0.2,0.2,0.4,0.3,0.7c0.1,0.3,0.1,0.6,0.1,1.1c0,0.6-0.1,1-0.2,1.3c-0.1,0.3-0.3,0.6-0.5,0.8c-0.2,0.2-0.5,0.3-0.9,0.3
			c-0.5,0-0.8-0.2-1.1-0.5C81.8,82.5,81.7,81.9,81.7,81z M82.2,81c0,0.8,0.1,1.3,0.3,1.6c0.2,0.3,0.4,0.4,0.7,0.4
			c0.3,0,0.5-0.1,0.7-0.4c0.2-0.3,0.3-0.8,0.3-1.6c0-0.8-0.1-1.3-0.3-1.6c-0.2-0.3-0.4-0.4-0.7-0.4c-0.3,0-0.5,0.1-0.6,0.3
			C82.3,79.7,82.2,80.2,82.2,81z M85.3,81c0-0.6,0.1-1,0.2-1.4c0.1-0.3,0.3-0.6,0.5-0.8c0.2-0.2,0.5-0.3,0.9-0.3
			c0.3,0,0.5,0.1,0.7,0.2c0.2,0.1,0.4,0.2,0.5,0.4c0.1,0.2,0.2,0.4,0.3,0.7c0.1,0.3,0.1,0.6,0.1,1.1c0,0.6-0.1,1-0.2,1.3
			c-0.1,0.3-0.3,0.6-0.5,0.8c-0.2,0.2-0.5,0.3-0.9,0.3c-0.5,0-0.8-0.2-1.1-0.5C85.5,82.5,85.3,81.9,85.3,81L85.3,81z M85.9,81
			c0,0.8,0.1,1.3,0.3,1.6c0.2,0.3,0.4,0.4,0.7,0.4c0.3,0,0.5-0.1,0.7-0.4c0.2-0.3,0.3-0.8,0.3-1.6c0-0.8-0.1-1.3-0.3-1.6
			c-0.2-0.3-0.4-0.4-0.7-0.4c-0.3,0-0.5,0.1-0.6,0.3C86,79.7,85.9,80.2,85.9,81z M89,81c0-0.6,0.1-1,0.2-1.4
			c0.1-0.3,0.3-0.6,0.5-0.8c0.2-0.2,0.5-0.3,0.9-0.3c0.3,0,0.5,0.1,0.7,0.2c0.2,0.1,0.4,0.2,0.5,0.4c0.1,0.2,0.2,0.4,0.3,0.7
			c0.1,0.3,0.1,0.6,0.1,1.1c0,0.6-0.1,1-0.2,1.3c-0.1,0.3-0.3,0.6-0.5,0.8c-0.2,0.2-0.5,0.3-0.9,0.3c-0.5,0-0.8-0.2-1.1-0.5
			C89.2,82.5,89,81.9,89,81z M89.6,81c0,0.8,0.1,1.3,0.3,1.6c0.2,0.3,0.4,0.4,0.7,0.4c0.3,0,0.5-0.1,0.7-0.4
			c0.2-0.3,0.3-0.8,0.3-1.6c0-0.8-0.1-1.3-0.3-1.6C91,79.2,90.8,79,90.5,79c-0.3,0-0.5,0.1-0.6,0.3C89.7,79.7,89.6,80.2,89.6,81z
			 M92.7,81c0-0.6,0.1-1,0.2-1.4c0.1-0.3,0.3-0.6,0.5-0.8c0.2-0.2,0.5-0.3,0.9-0.3c0.3,0,0.5,0.1,0.7,0.2c0.2,0.1,0.4,0.2,0.5,0.4
			c0.1,0.2,0.2,0.4,0.3,0.7c0.1,0.3,0.1,0.6,0.1,1.1c0,0.6-0.1,1-0.2,1.3c-0.1,0.3-0.3,0.6-0.5,0.8c-0.2,0.2-0.5,0.3-0.9,0.3
			c-0.5,0-0.8-0.2-1.1-0.5C92.8,82.5,92.7,81.9,92.7,81z M93.3,81c0,0.8,0.1,1.3,0.3,1.6c0.2,0.3,0.4,0.4,0.7,0.4
			c0.3,0,0.5-0.1,0.7-0.4c0.2-0.3,0.3-0.8,0.3-1.6c0-0.8-0.1-1.3-0.3-1.6c-0.2-0.3-0.4-0.4-0.7-0.4c-0.3,0-0.5,0.1-0.6,0.3
			C93.4,79.7,93.3,80.2,93.3,81z M96.3,81c0-0.6,0.1-1,0.2-1.4c0.1-0.3,0.3-0.6,0.5-0.8c0.2-0.2,0.5-0.3,0.9-0.3
			c0.3,0,0.5,0.1,0.7,0.2c0.2,0.1,0.4,0.2,0.5,0.4c0.1,0.2,0.2,0.4,0.3,0.7c0.1,0.3,0.1,0.6,0.1,1.1c0,0.6-0.1,1-0.2,1.3
			c-0.1,0.3-0.3,0.6-0.5,0.8c-0.2,0.2-0.5,0.3-0.9,0.3c-0.5,0-0.8-0.2-1.1-0.5C96.5,82.5,96.3,81.9,96.3,81z M96.9,81
			c0,0.8,0.1,1.3,0.3,1.6c0.2,0.3,0.4,0.4,0.7,0.4c0.3,0,0.5-0.1,0.7-0.4c0.2-0.3,0.3-0.8,0.3-1.6c0-0.8-0.1-1.3-0.3-1.6
			c-0.2-0.3-0.4-0.4-0.7-0.4c-0.3,0-0.5,0.1-0.6,0.3C97,79.7,96.9,80.2,96.9,81z M100,81c0-0.6,0.1-1,0.2-1.4
			c0.1-0.3,0.3-0.6,0.5-0.8c0.2-0.2,0.5-0.3,0.9-0.3c0.3,0,0.5,0.1,0.7,0.2c0.2,0.1,0.4,0.2,0.5,0.4c0.1,0.2,0.2,0.4,0.3,0.7
			c0.1,0.3,0.1,0.6,0.1,1.1c0,0.6-0.1,1-0.2,1.3c-0.1,0.3-0.3,0.6-0.5,0.8c-0.2,0.2-0.5,0.3-0.9,0.3c-0.5,0-0.8-0.2-1.1-0.5
			C100.2,82.5,100,81.9,100,81z M100.6,81c0,0.8,0.1,1.3,0.3,1.6c0.2,0.3,0.4,0.4,0.7,0.4c0.3,0,0.5-0.1,0.7-0.4
			c0.2-0.3,0.3-0.8,0.3-1.6c0-0.8-0.1-1.3-0.3-1.6c-0.2-0.3-0.4-0.4-0.7-0.4c-0.3,0-0.5,0.1-0.6,0.3C100.7,79.7,100.6,80.2,100.6,81
			z M31.7,86h0.6v3.7l2.5-3.7h0.6v4.7h-0.6v-3.7l-2.5,3.7h-0.6V86z M36.4,90.7V86h0.6v1.9h2.4V86h0.6v4.7h-0.6v-2.2h-2.4v2.2H36.4z
			 M41.2,90.7V86h0.6v1.9h2.4V86h0.6v4.7h-0.6v-2.2h-2.4v2.2H41.2z M47.6,88.4c0-0.6,0.1-1,0.2-1.4c0.1-0.3,0.3-0.6,0.5-0.8
			c0.2-0.2,0.5-0.3,0.9-0.3c0.3,0,0.5,0.1,0.7,0.2c0.2,0.1,0.4,0.2,0.5,0.4c0.1,0.2,0.2,0.4,0.3,0.7c0.1,0.3,0.1,0.6,0.1,1.1
			c0,0.6-0.1,1-0.2,1.3c-0.1,0.3-0.3,0.6-0.5,0.8c-0.2,0.2-0.5,0.3-0.9,0.3c-0.5,0-0.8-0.2-1.1-0.5C47.7,89.9,47.6,89.2,47.6,88.4z
			 M48.1,88.4c0,0.8,0.1,1.3,0.3,1.6c0.2,0.3,0.4,0.4,0.7,0.4c0.3,0,0.5-0.1,0.7-0.4c0.2-0.3,0.3-0.8,0.3-1.6c0-0.8-0.1-1.3-0.3-1.6
			c-0.2-0.3-0.4-0.4-0.7-0.4c-0.3,0-0.5,0.1-0.6,0.3C48.2,87,48.1,87.6,48.1,88.4z M51.2,88.4c0-0.6,0.1-1,0.2-1.4
			c0.1-0.3,0.3-0.6,0.5-0.8c0.2-0.2,0.5-0.3,0.9-0.3c0.3,0,0.5,0.1,0.7,0.2c0.2,0.1,0.4,0.2,0.5,0.4c0.1,0.2,0.2,0.4,0.3,0.7
			c0.1,0.3,0.1,0.6,0.1,1.1c0,0.6-0.1,1-0.2,1.3c-0.1,0.3-0.3,0.6-0.5,0.8c-0.2,0.2-0.5,0.3-0.9,0.3c-0.5,0-0.8-0.2-1.1-0.5
			C51.4,89.9,51.2,89.2,51.2,88.4z M51.8,88.4c0,0.8,0.1,1.3,0.3,1.6c0.2,0.3,0.4,0.4,0.7,0.4c0.3,0,0.5-0.1,0.7-0.4
			c0.2-0.3,0.3-0.8,0.3-1.6c0-0.8-0.1-1.3-0.3-1.6c-0.2-0.3-0.4-0.4-0.7-0.4c-0.3,0-0.5,0.1-0.6,0.3C51.9,87,51.8,87.6,51.8,88.4z
			 M54.9,88.4c0-0.6,0.1-1,0.2-1.4c0.1-0.3,0.3-0.6,0.5-0.8c0.2-0.2,0.5-0.3,0.9-0.3c0.3,0,0.5,0.1,0.7,0.2c0.2,0.1,0.3,0.2,0.5,0.4
			c0.1,0.2,0.2,0.4,0.3,0.7c0.1,0.3,0.1,0.6,0.1,1.1c0,0.6-0.1,1-0.2,1.3c-0.1,0.3-0.3,0.6-0.5,0.8c-0.2,0.2-0.5,0.3-0.9,0.3
			c-0.5,0-0.8-0.2-1.1-0.5C55.1,89.9,54.9,89.2,54.9,88.4z M55.5,88.4c0,0.8,0.1,1.3,0.3,1.6c0.2,0.3,0.4,0.4,0.7,0.4
			c0.3,0,0.5-0.1,0.7-0.4c0.2-0.3,0.3-0.8,0.3-1.6c0-0.8-0.1-1.3-0.3-1.6c-0.2-0.3-0.4-0.4-0.7-0.4c-0.3,0-0.5,0.1-0.6,0.3
			C55.6,87,55.5,87.6,55.5,88.4z M58.6,88.4c0-0.6,0.1-1,0.2-1.4c0.1-0.3,0.3-0.6,0.5-0.8c0.2-0.2,0.5-0.3,0.9-0.3
			c0.3,0,0.5,0.1,0.7,0.2c0.2,0.1,0.4,0.2,0.5,0.4c0.1,0.2,0.2,0.4,0.3,0.7c0.1,0.3,0.1,0.6,0.1,1.1c0,0.6-0.1,1-0.2,1.3
			c-0.1,0.3-0.3,0.6-0.5,0.8c-0.2,0.2-0.5,0.3-0.9,0.3c-0.5,0-0.8-0.2-1.1-0.5C58.7,89.9,58.6,89.2,58.6,88.4z M59.2,88.4
			c0,0.8,0.1,1.3,0.3,1.6c0.2,0.3,0.4,0.4,0.7,0.4c0.3,0,0.5-0.1,0.7-0.4c0.2-0.3,0.3-0.8,0.3-1.6c0-0.8-0.1-1.3-0.3-1.6
			c-0.2-0.3-0.4-0.4-0.7-0.4c-0.3,0-0.5,0.1-0.6,0.3C59.3,87,59.2,87.6,59.2,88.4z M62.2,88.4c0-0.6,0.1-1,0.2-1.4
			c0.1-0.3,0.3-0.6,0.5-0.8c0.2-0.2,0.5-0.3,0.9-0.3c0.3,0,0.5,0.1,0.7,0.2c0.2,0.1,0.4,0.2,0.5,0.4c0.1,0.2,0.2,0.4,0.3,0.7
			c0.1,0.3,0.1,0.6,0.1,1.1c0,0.6-0.1,1-0.2,1.3c-0.1,0.3-0.3,0.6-0.5,0.8c-0.2,0.2-0.5,0.3-0.9,0.3c-0.5,0-0.8-0.2-1.1-0.5
			C62.4,89.9,62.2,89.2,62.2,88.4L62.2,88.4z M62.8,88.4c0,0.8,0.1,1.3,0.3,1.6c0.2,0.3,0.4,0.4,0.7,0.4c0.3,0,0.5-0.1,0.7-0.4
			c0.2-0.3,0.3-0.8,0.3-1.6c0-0.8-0.1-1.3-0.3-1.6c-0.2-0.3-0.4-0.4-0.7-0.4c-0.3,0-0.5,0.1-0.6,0.3C62.9,87,62.8,87.6,62.8,88.4z
			 M65.9,88.4c0-0.6,0.1-1,0.2-1.4c0.1-0.3,0.3-0.6,0.5-0.8c0.2-0.2,0.5-0.3,0.9-0.3c0.3,0,0.5,0.1,0.7,0.2c0.2,0.1,0.3,0.2,0.5,0.4
			c0.1,0.2,0.2,0.4,0.3,0.7c0.1,0.3,0.1,0.6,0.1,1.1c0,0.6-0.1,1-0.2,1.3c-0.1,0.3-0.3,0.6-0.5,0.8c-0.2,0.2-0.5,0.3-0.9,0.3
			c-0.5,0-0.8-0.2-1.1-0.5C66.1,89.9,65.9,89.2,65.9,88.4z M66.5,88.4c0,0.8,0.1,1.3,0.3,1.6c0.2,0.3,0.4,0.4,0.7,0.4
			c0.3,0,0.5-0.1,0.7-0.4c0.2-0.3,0.3-0.8,0.3-1.6c0-0.8-0.1-1.3-0.3-1.6c-0.2-0.3-0.4-0.4-0.7-0.4c-0.3,0-0.5,0.1-0.6,0.3
			C66.6,87,66.5,87.6,66.5,88.4z M69.6,88.4c0-0.6,0.1-1,0.2-1.4c0.1-0.3,0.3-0.6,0.5-0.8c0.2-0.2,0.5-0.3,0.9-0.3
			c0.3,0,0.5,0.1,0.7,0.2c0.2,0.1,0.4,0.2,0.5,0.4c0.1,0.2,0.2,0.4,0.3,0.7c0.1,0.3,0.1,0.6,0.1,1.1c0,0.6-0.1,1-0.2,1.3
			c-0.1,0.3-0.3,0.6-0.5,0.8c-0.2,0.2-0.5,0.3-0.9,0.3c-0.5,0-0.8-0.2-1.1-0.5C69.7,89.9,69.6,89.2,69.6,88.4z M70.2,88.4
			c0,0.8,0.1,1.3,0.3,1.6c0.2,0.3,0.4,0.4,0.7,0.4c0.3,0,0.5-0.1,0.7-0.4c0.2-0.3,0.3-0.8,0.3-1.6c0-0.8-0.1-1.3-0.3-1.6
			c-0.2-0.3-0.4-0.4-0.7-0.4c-0.3,0-0.5,0.1-0.6,0.3C70.3,87,70.2,87.6,70.2,88.4z M73.3,88.4c0-0.6,0.1-1,0.2-1.4
			c0.1-0.3,0.3-0.6,0.5-0.8c0.2-0.2,0.5-0.3,0.9-0.3c0.3,0,0.5,0.1,0.7,0.2c0.2,0.1,0.4,0.2,0.5,0.4c0.1,0.2,0.2,0.4,0.3,0.7
			c0.1,0.3,0.1,0.6,0.1,1.1c0,0.6-0.1,1-0.2,1.3c-0.1,0.3-0.3,0.6-0.5,0.8c-0.2,0.2-0.5,0.3-0.9,0.3c-0.5,0-0.8-0.2-1.1-0.5
			C73.4,89.9,73.3,89.2,73.3,88.4z M73.9,88.4c0,0.8,0.1,1.3,0.3,1.6c0.2,0.3,0.4,0.4,0.7,0.4s0.5-0.1,0.7-0.4
			c0.2-0.3,0.3-0.8,0.3-1.6c0-0.8-0.1-1.3-0.3-1.6c-0.2-0.3-0.4-0.4-0.7-0.4c-0.3,0-0.5,0.1-0.6,0.3C74,87,73.9,87.6,73.9,88.4z"/>
		<path id="path46" class="st2" d="M76.9,88.4c0-0.6,0.1-1,0.2-1.4c0.1-0.3,0.3-0.6,0.5-0.8c0.2-0.2,0.5-0.3,0.9-0.3
			c0.3,0,0.5,0.1,0.7,0.2c0.2,0.1,0.3,0.2,0.5,0.4c0.1,0.2,0.2,0.4,0.3,0.7c0.1,0.3,0.1,0.6,0.1,1.1c0,0.6-0.1,1-0.2,1.3
			c-0.1,0.3-0.3,0.6-0.5,0.8c-0.2,0.2-0.5,0.3-0.9,0.3c-0.5,0-0.8-0.2-1.1-0.5C77.1,89.9,76.9,89.2,76.9,88.4z M77.5,88.4
			c0,0.8,0.1,1.3,0.3,1.6c0.2,0.3,0.4,0.4,0.7,0.4c0.3,0,0.5-0.1,0.7-0.4c0.2-0.3,0.3-0.8,0.3-1.6c0-0.8-0.1-1.3-0.3-1.6
			c-0.2-0.3-0.4-0.4-0.7-0.4c-0.3,0-0.5,0.1-0.6,0.3C77.6,87,77.5,87.6,77.5,88.4z M80.6,88.4c0-0.6,0.1-1,0.2-1.4
			c0.1-0.3,0.3-0.6,0.5-0.8c0.2-0.2,0.5-0.3,0.9-0.3c0.3,0,0.5,0.1,0.7,0.2c0.2,0.1,0.4,0.2,0.5,0.4c0.1,0.2,0.2,0.4,0.3,0.7
			c0.1,0.3,0.1,0.6,0.1,1.1c0,0.6-0.1,1-0.2,1.3c-0.1,0.3-0.3,0.6-0.5,0.8c-0.2,0.2-0.5,0.3-0.9,0.3c-0.5,0-0.8-0.2-1.1-0.5
			C80.8,89.9,80.6,89.2,80.6,88.4z M81.2,88.4c0,0.8,0.1,1.3,0.3,1.6c0.2,0.3,0.4,0.4,0.7,0.4c0.3,0,0.5-0.1,0.7-0.4
			c0.2-0.3,0.3-0.8,0.3-1.6c0-0.8-0.1-1.3-0.3-1.6c-0.2-0.3-0.4-0.4-0.7-0.4c-0.3,0-0.5,0.1-0.6,0.3C81.3,87,81.2,87.6,81.2,88.4z
			 M84.3,88.4c0-0.6,0.1-1,0.2-1.4c0.1-0.3,0.3-0.6,0.5-0.8c0.2-0.2,0.5-0.3,0.9-0.3c0.3,0,0.5,0.1,0.7,0.2c0.2,0.1,0.4,0.2,0.5,0.4
			c0.1,0.2,0.2,0.4,0.3,0.7c0.1,0.3,0.1,0.6,0.1,1.1c0,0.6-0.1,1-0.2,1.3c-0.1,0.3-0.3,0.6-0.5,0.8c-0.2,0.2-0.5,0.3-0.9,0.3
			c-0.5,0-0.8-0.2-1.1-0.5C84.4,89.9,84.3,89.2,84.3,88.4z M84.9,88.4c0,0.8,0.1,1.3,0.3,1.6c0.2,0.3,0.4,0.4,0.7,0.4
			s0.5-0.1,0.7-0.4c0.2-0.3,0.3-0.8,0.3-1.6c0-0.8-0.1-1.3-0.3-1.6c-0.2-0.3-0.4-0.4-0.7-0.4c-0.3,0-0.5,0.1-0.6,0.3
			C85,87,84.9,87.6,84.9,88.4z M88,88.4c0-0.6,0.1-1,0.2-1.4c0.1-0.3,0.3-0.6,0.5-0.8c0.2-0.2,0.5-0.3,0.9-0.3
			c0.3,0,0.5,0.1,0.7,0.2c0.2,0.1,0.3,0.2,0.5,0.4c0.1,0.2,0.2,0.4,0.3,0.7c0.1,0.3,0.1,0.6,0.1,1.1c0,0.6-0.1,1-0.2,1.3
			c-0.1,0.3-0.3,0.6-0.5,0.8c-0.2,0.2-0.5,0.3-0.9,0.3c-0.5,0-0.8-0.2-1.1-0.5C88.1,89.9,88,89.2,88,88.4z M88.6,88.4
			c0,0.8,0.1,1.3,0.3,1.6c0.2,0.3,0.4,0.4,0.7,0.4c0.3,0,0.5-0.1,0.7-0.4c0.2-0.3,0.3-0.8,0.3-1.6c0-0.8-0.1-1.3-0.3-1.6
			c-0.2-0.3-0.4-0.4-0.7-0.4c-0.3,0-0.5,0.1-0.6,0.3C88.7,87,88.6,87.6,88.6,88.4z"/>
	</g>
	<path id="path49" class="st5" d="M61.3,2.6c31.3,0,56.7,25.4,56.7,56.7s-25.4,56.7-56.7,56.7c-31.3,0-56.7-25.4-56.7-56.7
		S29.9,2.6,61.3,2.6z"/>
</g>
</svg>
