<?xml version="1.0" encoding="utf-8"?>
<!-- Generator: Adobe Illustrator 26.4.1, SVG Export Plug-In . SVG Version: 6.00 Build 0)  -->
<svg version="1.1"
	 id="svg27" xmlns:svg="http://www.w3.org/2000/svg" xmlns:rdf="http://www.w3.org/1999/02/22-rdf-syntax-ns#" xmlns:cc="http://creativecommons.org/ns#" xmlns:dc="http://purl.org/dc/elements/1.1/"
	 xmlns="http://www.w3.org/2000/svg" xmlns:xlink="http://www.w3.org/1999/xlink" x="0px" y="0px" viewBox="0 0 155.9 155.9"
	 style="enable-background:new 0 0 155.9 155.9;" xml:space="preserve">
<style type="text/css">
	.st0{fill:none;stroke:#1B1918;stroke-width:1.4173;}
	.st1{fill:none;stroke:#1B1918;stroke-width:0.7087;}
	.st2{fill-rule:evenodd;clip-rule:evenodd;fill:#1B1918;}
</style>
<path id="path2" class="st0" d="M78,21.3c31.3,0,56.7,25.4,56.7,56.7c0,31.3-25.4,56.7-56.7,56.7c-31.3,0-56.7-25.4-56.7-56.7
	C21.3,46.6,46.6,21.3,78,21.3z"/>
<path id="path4" class="st1" d="M78,23.6c30,0,54.4,24.3,54.4,54.4c0,30-24.3,54.4-54.4,54.4c-30,0-54.4-24.3-54.4-54.4
	C23.6,47.9,47.9,23.6,78,23.6z"/>
<path id="path6" class="st1" d="M77.9,42.8c19.4,0,35.1,15.7,35.1,35.1c0,19.4-15.7,35.1-35.1,35.1S42.8,97.3,42.8,77.9
	C42.8,58.5,58.5,42.8,77.9,42.8z"/>
<path id="path8" class="st2" d="M55.4,112.3l0.2-0.6c0.5,0.2,0.8,0.3,1,0.4c-0.1-0.5-0.1-0.9-0.1-1.1h0.6c0,0.3,0,0.6-0.1,1.1
	c0.3-0.1,0.6-0.3,1-0.4l0.2,0.6c-0.4,0.1-0.7,0.2-1.1,0.2c0.2,0.2,0.4,0.4,0.7,0.8l-0.5,0.4c-0.2-0.2-0.4-0.5-0.6-0.9
	c-0.2,0.4-0.4,0.7-0.6,0.9l-0.5-0.4c0.3-0.4,0.6-0.7,0.7-0.8C56.1,112.5,55.8,112.4,55.4,112.3z"/>
<path id="path10" class="st2" d="M96.8,112.7l0.2-0.6c0.5,0.2,0.8,0.3,1,0.4c-0.1-0.5-0.1-0.9-0.1-1.1h0.6c0,0.3,0,0.6-0.1,1.1
	c0.3-0.1,0.6-0.3,1-0.4l0.2,0.6c-0.4,0.1-0.7,0.2-1.1,0.2c0.2,0.2,0.4,0.4,0.7,0.8l-0.5,0.4c-0.2-0.2-0.4-0.5-0.6-0.9
	c-0.2,0.4-0.4,0.7-0.6,0.9l-0.5-0.4c0.3-0.4,0.6-0.7,0.7-0.8C97.5,112.9,97.1,112.8,96.8,112.7z"/>
<path id="path12" class="st2" d="M51.5,111.1l-0.4-0.4l2.4-2.8l-4.3,1.2l-0.5-0.4l3-3.5l0.4,0.4l-2.4,2.8l4.3-1.2l0.5,0.4
	L51.5,111.1z M49.9,103.3l-3.7,2.9l-0.4-0.5l1.5-1.2l-1.5-1.9l-1.5,1.2l-0.4-0.5l3.7-2.9l0.4,0.5l-1.7,1.4l1.5,1.9l1.7-1.4
	L49.9,103.3z M41.9,100.2l-1.4-2.5l3.6-2.1l-0.2-0.4l1.4-0.8l0.3,0.5l-0.9,0.5l1.5,2.7l0.9-0.5l0.3,0.5l-1.4,0.8l-0.2-0.3
	c-0.7,0-1.8,0.4-3.2,1.2L41.9,100.2z M41.3,98l0.8,1.4l0.2-0.1c0.3-0.2,0.8-0.4,1.5-0.7c0.6-0.3,1.2-0.4,1.7-0.5l-1.1-1.9L41.3,98z
	 M39,94.6l-0.2-0.5l3.4-1.3l-4.3-1l-0.2-0.6l4.3-1.7l0.2,0.5l-3.4,1.3l4.3,1l0.2,0.6L39,94.6z M41.3,86.9l-4.6,0.8l-0.3-1.7
	c-0.1-0.3-0.1-0.6,0-0.9c0.1-0.2,0.2-0.4,0.3-0.6c0.2-0.2,0.4-0.3,0.6-0.3c0.2,0,0.4,0,0.6,0.1c0.2,0.1,0.4,0.2,0.5,0.4
	c0-0.3,0.1-0.5,0.3-0.7c0.2-0.2,0.4-0.3,0.7-0.4c0.2,0,0.4,0,0.6,0c0.2,0.1,0.4,0.1,0.5,0.3c0.1,0.1,0.2,0.3,0.3,0.5
	c0.1,0.2,0.2,0.4,0.2,0.7L41.3,86.9z M38.5,86.8l-0.2-1c0-0.3-0.1-0.5-0.2-0.6C38.1,85.1,38,85,37.9,85c-0.1-0.1-0.3-0.1-0.4,0
	c-0.2,0-0.3,0.1-0.4,0.2c-0.1,0.1-0.2,0.2-0.2,0.4c0,0.1,0,0.4,0.1,0.7l0.2,0.9L38.5,86.8z M40.6,86.4l-0.2-1.1
	c0-0.2-0.1-0.3-0.1-0.4c0-0.1-0.1-0.2-0.2-0.3c-0.1-0.1-0.2-0.1-0.3-0.2c-0.1,0-0.3,0-0.4,0c-0.2,0-0.3,0.1-0.4,0.2
	c-0.1,0.1-0.2,0.2-0.2,0.4c0,0.2,0,0.4,0,0.7l0.2,1.1L40.6,86.4z M35.7,81.1l0-0.6l3.7-0.1l-3.8-2.4l0-0.6l4.7-0.1l0,0.6L36.6,78
	l3.7,2.4l0,0.6L35.7,81.1z M35.8,73.7l0.3-2.8l4.1,0.5l0.1-0.4l1.6,0.2l-0.1,0.5l-1.1-0.1l-0.4,3.1l1.1,0.1l-0.1,0.5l-1.6-0.2l0-0.4
	c-0.5-0.4-1.6-0.8-3.3-1L35.8,73.7z M36.6,71.6l-0.2,1.6l0.2,0c0.4,0,0.9,0.2,1.6,0.3c0.7,0.2,1.2,0.4,1.6,0.6l0.3-2.1L36.6,71.6z
	 M36.8,67.9l0.2-0.6l3.2-0.7l-2.4-2.1l0.2-0.6l3,2.7c0.4,0.3,0.6,0.6,0.7,0.8c0.1,0.2,0.1,0.4,0,0.6c0,0.2-0.1,0.3-0.3,0.5l-0.5-0.1
	c0.1-0.1,0.2-0.3,0.3-0.5c0-0.1,0-0.3,0-0.4c-0.1-0.1-0.2-0.3-0.5-0.5L36.8,67.9z M42.8,64.1l-3.5-3.5l0.3-0.6l5,0.2l-0.3,0.6
	l-1.5-0.1L42,62.5l1.1,1L42.8,64.1z M41.6,62.1l0.7-1.4l-1.4-0.1c-0.4,0-0.8-0.1-1-0.1c0.3,0.2,0.5,0.4,0.7,0.6L41.6,62.1z
	 M42.2,55.2l1.7-2.4l3.8,2.7L47.3,56L44,53.6L43,55l2,1.4c0.4,0.3,0.7,0.5,0.8,0.7c0.2,0.2,0.2,0.3,0.3,0.5c0,0.2,0,0.4-0.2,0.6
	c-0.1,0.1-0.2,0.2-0.4,0.4l-0.4-0.4c0.1-0.1,0.2-0.1,0.2-0.2c0.1-0.1,0.1-0.2,0.1-0.3c0-0.1-0.2-0.3-0.5-0.5L42.2,55.2z M45.9,50.2
	l0.4-0.4l1.4,1.4l0.8-0.8c0.4-0.4,0.7-0.6,0.9-0.7c0.2-0.1,0.5-0.1,0.7,0c0.2,0.1,0.4,0.2,0.6,0.3c0.3,0.2,0.4,0.6,0.4,0.9
	c0,0.4-0.2,0.8-0.7,1.3l-1.2,1.3L45.9,50.2z M49.3,52.6l0.8-0.8c0.3-0.3,0.5-0.6,0.4-0.8c0-0.2-0.1-0.4-0.3-0.6
	c-0.1-0.1-0.3-0.2-0.4-0.2c-0.2,0-0.3,0-0.5,0.1c-0.1,0.1-0.4,0.3-0.6,0.6l-0.6,0.6L49.3,52.6z M53.5,49.2l-2.9-3.7l0.5-0.4l1.2,1.5
	l1.9-1.5L53,43.7l0.5-0.4l2.9,3.7l-0.5,0.4l-1.4-1.7l-1.9,1.5l1.4,1.7L53.5,49.2z M56.5,41.3l0.6-0.3l0.9,1.8l1-0.5
	c0.6-0.3,1.1-0.4,1.5-0.3c0.3,0.1,0.6,0.4,0.7,0.7c0.2,0.3,0.2,0.7,0.1,1c-0.1,0.4-0.4,0.7-1,1l-1.6,0.8L56.5,41.3z M58.9,44.7
	l1-0.5c0.3-0.2,0.6-0.4,0.7-0.6c0.1-0.2,0.1-0.4,0-0.7c-0.1-0.2-0.2-0.3-0.4-0.4c-0.2-0.1-0.3-0.1-0.5,0c-0.2,0-0.4,0.2-0.8,0.3
	l-0.7,0.4L58.9,44.7z M60.1,39.5l0.6-0.3l2.1,4.2l-0.6,0.3L60.1,39.5z M64,37.9l0.5-0.2l1,3.5l1.4-4.2l0.6-0.2l1.3,4.5l-0.5,0.2
	l-1-3.5l-1.4,4.2l-0.6,0.2L64,37.9z M65.9,36.2l0.4-0.1c0,0.3,0,0.5-0.1,0.7c-0.1,0.2-0.3,0.3-0.6,0.4c-0.3,0.1-0.5,0.1-0.7,0
	c-0.2-0.1-0.3-0.3-0.4-0.5l0.4-0.1c0.1,0.1,0.2,0.2,0.3,0.3c0.1,0,0.2,0,0.4,0c0.2,0,0.3-0.1,0.3-0.2C65.9,36.4,66,36.3,65.9,36.2z
	 M85,36.1l3.6,0.8l-1.1,4.5l-0.6-0.1l0.9-4l-2.4-0.5l-0.9,4L84,40.6L85,36.1z M90.1,42.2l1.7-4.3l1.6,0.7c0.3,0.1,0.5,0.2,0.6,0.3
	c0.2,0.1,0.3,0.3,0.5,0.4c0.1,0.2,0.2,0.3,0.2,0.6c0,0.2,0,0.4-0.1,0.6c-0.1,0.4-0.4,0.6-0.7,0.8c-0.3,0.2-0.8,0.1-1.4-0.1l-1.1-0.4
	l-0.7,1.8L90.1,42.2z M91.6,40.1l1.1,0.4c0.4,0.1,0.7,0.2,0.9,0.1c0.2-0.1,0.4-0.2,0.5-0.5c0.1-0.2,0.1-0.4,0-0.5
	c0-0.2-0.1-0.3-0.3-0.4c-0.1-0.1-0.3-0.1-0.5-0.3l-1.1-0.4L91.6,40.1z M95.6,44.6l2.3-4l2.9,1.7l-0.3,0.5l-2.4-1.4l-0.7,1.2l2.2,1.3
	l-0.3,0.5L97.2,43l-0.8,1.4l2.5,1.4l-0.3,0.5L95.6,44.6z M103.8,44.4l2.2,1.7l-2.5,3.3l0.3,0.3l-1,1.3l-0.4-0.3l0.7-0.9l-2.4-1.9
	l-0.7,0.9l-0.4-0.3l1-1.3l0.3,0.2c0.6-0.2,1.5-1,2.5-2.4L103.8,44.4z M105.2,46.1l-1.3-1l-0.1,0.2c-0.2,0.3-0.6,0.7-1.1,1.2
	c-0.5,0.5-0.9,0.9-1.4,1.1L103,49L105.2,46.1z M108.6,48.7l2.4,2.8l-3.5,3.1l-0.4-0.5l3.1-2.7l-1.6-1.8l-3.1,2.7l-0.4-0.5
	L108.6,48.7z M109.1,56.7l3.9-2.5l0.9,1.5c0.2,0.3,0.3,0.5,0.3,0.6c0.1,0.2,0.1,0.4,0.1,0.6c0,0.2-0.1,0.4-0.2,0.6
	c-0.1,0.2-0.3,0.3-0.5,0.5c-0.3,0.2-0.7,0.3-1,0.2c-0.4-0.1-0.7-0.4-1.1-0.9l-0.6-1l-1.6,1L109.1,56.7z M111.5,55.9l0.6,1
	c0.2,0.3,0.4,0.5,0.6,0.6c0.2,0.1,0.4,0,0.7-0.1c0.2-0.1,0.3-0.2,0.3-0.4c0.1-0.2,0.1-0.3,0-0.5c0-0.1-0.1-0.3-0.3-0.5l-0.6-1
	L111.5,55.9z M116.5,60.1l0.2,0.5l-3.4,1.3l4.3,1l0.2,0.6l-4.3,1.7l-0.2-0.5l3.4-1.3l-4.3-1l-0.2-0.6L116.5,60.1z M114.3,67.8l4.5-1
	l0.1,0.6l-1.9,0.4l0.5,2.3l1.9-0.4l0.1,0.6l-4.5,1l-0.1-0.6l2.1-0.5l-0.5-2.3l-2.1,0.5L114.3,67.8z M120.1,73.6l0,0.6l-3.7,0.3
	l3.9,2.2l0,0.6l-4.6,0.4l0-0.6l3.7-0.3l-3.9-2.2l0-0.6L120.1,73.6z M115.6,80.3l4.6,0.6l-0.1,0.9l-3.4,0.7c-0.3,0.1-0.6,0.1-0.7,0.1
	c0.2,0.1,0.4,0.2,0.7,0.3l3.1,1.5l-0.1,0.8l-4.6-0.6l0.1-0.6l3.9,0.5l-3.7-1.8l0.1-0.6l4.1-0.8l-3.9-0.5L115.6,80.3z M114.6,86.7
	l4,3l-0.2,0.7l-5,0.6l0.2-0.7l1.5-0.1l0.5-1.9l-1.2-0.9L114.6,86.7z M116.1,88.5l-0.4,1.5l1.4-0.1c0.4,0,0.8-0.1,1-0.1
	c-0.3-0.1-0.5-0.3-0.8-0.5L116.1,88.5z M112.3,93.5l3.7,1.7l0.6-1.4l0.5,0.2l-1.5,3.4l-0.5-0.2l0.6-1.4L112,94L112.3,93.5z
	 M110.2,97.4l3.9,2.5l-1.8,2.8l-0.5-0.3l1.5-2.3l-1.2-0.8l-1.4,2.2l-0.5-0.3l1.4-2.2l-1.3-0.9l-1.5,2.4l-0.5-0.3L110.2,97.4z
	 M109.9,105.8l-2,2.1l-3.4-3.2l0.4-0.4l3,2.8l1.2-1.2l-1.7-1.7c-0.4-0.3-0.6-0.6-0.7-0.8c-0.1-0.2-0.2-0.4-0.2-0.6
	c0-0.2,0.1-0.4,0.2-0.5c0.1-0.1,0.2-0.2,0.4-0.3l0.3,0.5c-0.1,0-0.2,0.1-0.2,0.1c-0.1,0.1-0.1,0.2-0.1,0.3c0,0.1,0.2,0.3,0.5,0.6
	L109.9,105.8z M105.5,110.1l-0.5,0.4l-1.2-1.6l-0.9,0.7c-0.4,0.3-0.7,0.5-1,0.6c-0.3,0-0.5,0-0.7-0.1c-0.2-0.1-0.4-0.2-0.5-0.4
	c-0.2-0.3-0.3-0.6-0.3-1c0-0.4,0.3-0.8,0.8-1.2l1.4-1.1L105.5,110.1z M102.5,107.3l-0.9,0.7c-0.4,0.3-0.5,0.5-0.6,0.7
	c0,0.2,0.1,0.4,0.2,0.6c0.1,0.1,0.3,0.2,0.4,0.3c0.2,0,0.3,0,0.5,0c0.2-0.1,0.4-0.2,0.7-0.5l0.6-0.5L102.5,107.3z"/>
<path id="path14" class="st1" d="M77.4,33.3c24.9,0,45.2,20.2,45.2,45.2c0,24.9-20.2,45.2-45.2,45.2s-45.2-20.2-45.2-45.2
	C32.3,53.5,52.5,33.3,77.4,33.3z"/>
<path id="path16" class="st2" d="M54.2,65.7v-9.3h1.8l2.2,6.6c0.2,0.6,0.3,1.1,0.4,1.4c0.1-0.3,0.3-0.8,0.5-1.5l2.2-6.4h1.6v9.3
	h-1.2v-7.8l-2.7,7.8h-1.1l-2.7-7.9v7.9L54.2,65.7z M71.3,58.9h1.1v6.7h-1.1V58.9z M65,58.9h1.1v2.6h1.4c0.9,0,1.7,0.2,2.2,0.5
	c0.5,0.4,0.8,0.9,0.8,1.5c0,0.6-0.2,1-0.6,1.4c-0.4,0.4-1.1,0.6-2,0.6H65L65,58.9z M66.1,64.7h1.2c0.7,0,1.2-0.1,1.5-0.3
	c0.3-0.2,0.5-0.5,0.5-0.8c0-0.3-0.1-0.6-0.3-0.8c-0.2-0.2-0.7-0.3-1.5-0.3h-1.3L66.1,64.7z M74.3,58.9h1.1v5.8H78v-5.8h1.1v5.8h2.6
	v-5.8h1.1v6.7h-8.6L74.3,58.9z M84.6,58.9h1.1v2.9c0.4,0,0.6-0.1,0.8-0.2c0.1-0.1,0.4-0.5,0.6-1.2c0.2-0.5,0.4-0.9,0.5-1
	c0.1-0.2,0.3-0.3,0.5-0.3c0.2-0.1,0.5-0.1,0.9-0.1h0.2v0.9l-0.3,0c-0.3,0-0.5,0-0.6,0.1c-0.1,0.1-0.2,0.4-0.4,0.8
	c-0.2,0.4-0.3,0.7-0.5,0.9c-0.1,0.2-0.4,0.3-0.7,0.5c0.5,0.1,1,0.6,1.4,1.4l1.2,2.1h-1.3l-1.2-2.1c-0.2-0.4-0.5-0.7-0.6-0.8
	c-0.2-0.1-0.4-0.2-0.7-0.2v3.1h-1.1L84.6,58.9z M90.3,58.9h1.1v5.1l3.2-5.1h1.2v6.7h-1.1v-5.1l-3.2,5.1h-1.2L90.3,58.9z M97.5,58.9
	h1.1v2.8h3.2v-2.8h1.1v6.7h-1.1v-3h-3.2v3h-1.1L97.5,58.9z M60.8,70.9H68v9.3h-1.2v-8.2H62v8.2h-1.2V70.9z M74.3,79.3
	c-0.4,0.4-0.8,0.6-1.2,0.8c-0.4,0.1-0.8,0.2-1.3,0.2c-0.7,0-1.3-0.2-1.7-0.5c-0.4-0.4-0.6-0.8-0.6-1.4c0-0.3,0.1-0.6,0.2-0.9
	c0.2-0.3,0.3-0.5,0.6-0.7c0.2-0.2,0.5-0.3,0.8-0.4c0.2-0.1,0.6-0.1,1-0.2c0.9-0.1,1.6-0.2,2-0.4c0-0.2,0-0.3,0-0.3
	c0-0.5-0.1-0.8-0.3-1c-0.3-0.3-0.7-0.4-1.3-0.4c-0.5,0-0.9,0.1-1.2,0.3c-0.3,0.2-0.4,0.5-0.6,1l-1.1-0.2c0.1-0.5,0.3-0.9,0.5-1.2
	c0.2-0.3,0.6-0.5,1-0.7c0.4-0.2,1-0.2,1.5-0.2c0.6,0,1,0.1,1.4,0.2c0.4,0.1,0.6,0.3,0.8,0.5c0.2,0.2,0.3,0.5,0.4,0.8
	c0,0.2,0.1,0.5,0.1,1v1.5c0,1.1,0,1.7,0.1,2c0,0.3,0.1,0.6,0.3,0.8h-1.2C74.4,79.9,74.3,79.6,74.3,79.3z M74.2,76.8
	c-0.4,0.2-1,0.3-1.9,0.4c-0.5,0.1-0.8,0.1-1,0.2c-0.2,0.1-0.3,0.2-0.4,0.4c-0.1,0.2-0.2,0.3-0.2,0.5c0,0.3,0.1,0.6,0.3,0.8
	c0.2,0.2,0.6,0.3,1,0.3c0.4,0,0.8-0.1,1.2-0.3c0.3-0.2,0.6-0.5,0.8-0.8c0.1-0.3,0.2-0.6,0.2-1.1L74.2,76.8z M77.1,73.4h2.6
	c0.6,0,1.1,0.1,1.4,0.2c0.3,0.1,0.6,0.3,0.8,0.6c0.2,0.3,0.3,0.6,0.3,1c0,0.3-0.1,0.6-0.2,0.8c-0.1,0.2-0.3,0.4-0.6,0.6
	c0.3,0.1,0.6,0.3,0.8,0.6c0.2,0.3,0.3,0.6,0.3,1c0,0.6-0.3,1.1-0.7,1.4c-0.4,0.3-1,0.5-1.8,0.5h-3V73.4z M78.3,76.2h1.2
	c0.5,0,0.8,0,1-0.1c0.2-0.1,0.3-0.2,0.5-0.3c0.1-0.2,0.2-0.3,0.2-0.6c0-0.4-0.1-0.6-0.4-0.7c-0.3-0.1-0.7-0.2-1.3-0.2h-1.2V76.2z
	 M78.3,79.2h1.5c0.6,0,1.1-0.1,1.3-0.2c0.2-0.2,0.4-0.4,0.4-0.8c0-0.2-0.1-0.4-0.2-0.6c-0.1-0.2-0.3-0.3-0.5-0.3
	c-0.2,0-0.6-0.1-1.1-0.1h-1.4V79.2z M88.4,78l1.2,0.2c-0.2,0.7-0.5,1.2-1,1.6c-0.5,0.4-1.1,0.6-1.9,0.6c-1,0-1.8-0.3-2.3-0.9
	c-0.6-0.6-0.9-1.5-0.9-2.5c0-1.1,0.3-2,0.9-2.6c0.6-0.6,1.3-0.9,2.3-0.9c0.9,0,1.6,0.3,2.2,0.9c0.6,0.6,0.9,1.5,0.9,2.6
	c0,0.1,0,0.2,0,0.3h-5c0,0.7,0.3,1.3,0.6,1.7c0.4,0.4,0.8,0.6,1.4,0.6c0.4,0,0.8-0.1,1.1-0.3C88,78.8,88.3,78.4,88.4,78z M84.7,76.1
	h3.7c0-0.6-0.2-1-0.4-1.3c-0.4-0.4-0.8-0.7-1.4-0.7c-0.5,0-1,0.2-1.3,0.5C84.9,75.1,84.8,75.5,84.7,76.1z M91.2,73.4h5.3v6.7h-1.1
	v-5.8h-3v3.3c0,0.8,0,1.3-0.1,1.5c-0.1,0.2-0.2,0.5-0.4,0.6c-0.2,0.2-0.6,0.3-1,0.3c-0.3,0-0.6,0-0.9,0v-0.9h0.5
	c0.2,0,0.4,0,0.5-0.1c0.1,0,0.2-0.1,0.2-0.2c0-0.1,0-0.4,0-1L91.2,73.4z M50.1,85.3h7.3v9.3h-1.2v-8.2h-4.8v8.2h-1.2V85.3z
	 M63.7,93.8c-0.4,0.4-0.8,0.6-1.2,0.8c-0.4,0.1-0.8,0.2-1.3,0.2c-0.7,0-1.3-0.2-1.7-0.5c-0.4-0.4-0.6-0.8-0.6-1.4
	c0-0.3,0.1-0.6,0.2-0.9c0.2-0.3,0.3-0.5,0.6-0.7c0.2-0.2,0.5-0.3,0.8-0.4c0.2-0.1,0.6-0.1,1-0.2c0.9-0.1,1.6-0.2,2-0.4
	c0-0.2,0-0.3,0-0.3c0-0.5-0.1-0.8-0.3-1c-0.3-0.3-0.7-0.4-1.3-0.4c-0.5,0-0.9,0.1-1.2,0.3c-0.3,0.2-0.4,0.5-0.6,1l-1.1-0.2
	c0.1-0.5,0.3-0.9,0.5-1.2c0.2-0.3,0.6-0.5,1-0.7c0.4-0.2,1-0.2,1.5-0.2c0.6,0,1,0.1,1.4,0.2c0.4,0.1,0.6,0.3,0.8,0.5
	c0.2,0.2,0.3,0.5,0.4,0.8c0,0.2,0.1,0.5,0.1,1v1.5c0,1.1,0,1.7,0.1,2c0,0.3,0.1,0.6,0.3,0.8h-1.2C63.8,94.4,63.7,94.1,63.7,93.8z
	 M63.6,91.2c-0.4,0.2-1,0.3-1.9,0.4c-0.5,0.1-0.8,0.1-1,0.2c-0.2,0.1-0.3,0.2-0.4,0.4c-0.1,0.2-0.2,0.3-0.2,0.5
	c0,0.3,0.1,0.6,0.3,0.8c0.2,0.2,0.6,0.3,1,0.3c0.4,0,0.8-0.1,1.2-0.3c0.3-0.2,0.6-0.5,0.8-0.8c0.1-0.3,0.2-0.6,0.2-1.1L63.6,91.2z
	 M66.5,87.9h2.6c0.6,0,1.1,0.1,1.4,0.2c0.3,0.1,0.6,0.3,0.8,0.6c0.2,0.3,0.3,0.6,0.3,1c0,0.3-0.1,0.6-0.2,0.8
	c-0.1,0.2-0.3,0.4-0.6,0.6c0.3,0.1,0.6,0.3,0.8,0.6c0.2,0.3,0.3,0.6,0.3,1c0,0.6-0.3,1.1-0.7,1.4c-0.4,0.3-1,0.5-1.8,0.5h-3
	L66.5,87.9z M67.6,90.7h1.2c0.5,0,0.8,0,1-0.1c0.2-0.1,0.3-0.2,0.5-0.3c0.1-0.2,0.2-0.3,0.2-0.6c0-0.4-0.1-0.6-0.4-0.7
	c-0.3-0.1-0.7-0.2-1.3-0.2h-1.2V90.7z M67.6,93.7h1.5c0.6,0,1.1-0.1,1.3-0.2c0.2-0.2,0.4-0.4,0.4-0.8c0-0.2-0.1-0.4-0.2-0.6
	c-0.1-0.2-0.3-0.3-0.5-0.3c-0.2,0-0.6-0.1-1.1-0.1h-1.4V93.7z M73.6,87.9h5.3v6.7h-1.1v-5.8h-3v3.3c0,0.8,0,1.3-0.1,1.5
	c-0.1,0.2-0.2,0.5-0.4,0.6c-0.2,0.2-0.6,0.3-1,0.3c-0.3,0-0.6,0-0.9,0v-0.9h0.5c0.2,0,0.4,0,0.5-0.1c0.1,0,0.2-0.1,0.2-0.2
	c0-0.1,0-0.4,0-1L73.6,87.9z M80.3,91.2c0-1.2,0.3-2.2,1-2.8c0.6-0.5,1.3-0.7,2.1-0.7c0.9,0,1.7,0.3,2.3,0.9
	c0.6,0.6,0.9,1.4,0.9,2.5c0,0.9-0.1,1.5-0.4,2c-0.3,0.5-0.6,0.9-1.1,1.2c-0.5,0.3-1,0.4-1.6,0.4c-0.9,0-1.7-0.3-2.3-0.9
	C80.6,93.2,80.3,92.4,80.3,91.2z M81.5,91.2c0,0.9,0.2,1.5,0.6,1.9c0.4,0.4,0.9,0.6,1.4,0.6c0.6,0,1-0.2,1.4-0.6
	c0.4-0.4,0.6-1.1,0.6-2c0-0.8-0.2-1.5-0.6-1.9c-0.4-0.4-0.8-0.6-1.4-0.6c-0.6,0-1,0.2-1.4,0.6C81.7,89.7,81.5,90.4,81.5,91.2z
	 M88,87.9h2.6c0.6,0,1.1,0.1,1.4,0.2c0.3,0.1,0.6,0.3,0.8,0.6c0.2,0.3,0.3,0.6,0.3,1c0,0.3-0.1,0.6-0.2,0.8
	c-0.1,0.2-0.3,0.4-0.6,0.6c0.3,0.1,0.6,0.3,0.8,0.6c0.2,0.3,0.3,0.6,0.3,1c0,0.6-0.3,1.1-0.7,1.4c-0.4,0.3-1,0.5-1.8,0.5h-3V87.9z
	 M89.1,90.7h1.2c0.5,0,0.8,0,1-0.1c0.2-0.1,0.3-0.2,0.5-0.3c0.1-0.2,0.2-0.3,0.2-0.6c0-0.4-0.1-0.6-0.4-0.7
	c-0.3-0.1-0.7-0.2-1.3-0.2h-1.2V90.7z M89.1,93.7h1.5c0.6,0,1.1-0.1,1.3-0.2c0.2-0.2,0.4-0.4,0.4-0.8c0-0.2-0.1-0.4-0.2-0.6
	c-0.1-0.2-0.3-0.3-0.5-0.3c-0.2,0-0.6-0.1-1.1-0.1h-1.4V93.7z M94.8,87.9H96V93l3.2-5.1h1.2v6.7h-1.1v-5.1l-3.2,5.1h-1.2L94.8,87.9z
	 M101.7,87.9h1.1v1.3c0,0.5,0,0.9,0.1,1.2c0.1,0.2,0.2,0.5,0.5,0.6c0.2,0.2,0.6,0.3,0.9,0.3c0.4,0,1-0.1,1.7-0.3v-3h1.1v6.7H106
	v-2.7c-0.7,0.2-1.4,0.3-2,0.3c-0.5,0-1-0.1-1.4-0.4c-0.4-0.3-0.7-0.6-0.8-1c-0.1-0.4-0.2-0.8-0.2-1.2L101.7,87.9z"/>
<g id="Layer1000">
	<path id="path18" class="st2" d="M76.8,129.7l-0.5,0l0.3-3.4l-2.5,3.2l-0.6,0l0.3-4.3l0.5,0l-0.3,3.4l2.5-3.2l0.6,0L76.8,129.7z
		 M72.4,125l-0.7,4.2l-0.6-0.1l0.3-1.7l-2.2-0.4l-0.3,1.7l-0.6-0.1l0.7-4.2l0.6,0.1l-0.3,2l2.2,0.4l0.3-2L72.4,125z M67.6,124.3
		l-1.2,4.1l-0.5-0.2l0.5-1.7l-2.1-0.6l-0.5,1.7l-0.5-0.2l1.2-4.1l0.5,0.2l-0.6,1.9l2.1,0.6l0.6-1.9L67.6,124.3z M61.3,124.6
		c-0.2,0.5-0.4,0.8-0.6,1.1c-0.2,0.3-0.4,0.4-0.7,0.5c-0.3,0.1-0.5,0.1-0.8,0c-0.2-0.1-0.4-0.2-0.5-0.3c-0.1-0.1-0.2-0.3-0.3-0.5
		c0-0.2,0-0.4,0-0.7c0-0.3,0.1-0.6,0.3-1c0.2-0.5,0.4-0.8,0.6-1.1c0.2-0.3,0.4-0.4,0.7-0.5c0.3-0.1,0.5-0.1,0.8,0
		c0.4,0.1,0.6,0.4,0.7,0.8C61.7,123.2,61.6,123.8,61.3,124.6z M60.8,124.4c0.3-0.7,0.3-1.1,0.3-1.4c-0.1-0.3-0.2-0.5-0.4-0.5
		c-0.2-0.1-0.5-0.1-0.7,0.1c-0.2,0.2-0.5,0.6-0.7,1.2c-0.3,0.7-0.3,1.1-0.3,1.4c0.1,0.3,0.2,0.5,0.4,0.5c0.2,0.1,0.4,0.1,0.7-0.1
		C60.3,125.5,60.6,125.1,60.8,124.4z M57.6,123.1c-0.2,0.4-0.5,0.8-0.7,1c-0.2,0.2-0.5,0.4-0.7,0.4c-0.3,0.1-0.5,0-0.8-0.1
		c-0.2-0.1-0.4-0.2-0.5-0.4c-0.1-0.2-0.2-0.3-0.2-0.6c0-0.2,0-0.4,0.1-0.7c0.1-0.3,0.2-0.6,0.4-0.9c0.2-0.4,0.5-0.8,0.7-1
		c0.2-0.2,0.5-0.4,0.7-0.4c0.3-0.1,0.5,0,0.8,0.1c0.4,0.2,0.6,0.5,0.7,0.8C58.1,121.8,58,122.4,57.6,123.1z M57.1,122.9
		c0.3-0.6,0.5-1.1,0.4-1.4c0-0.3-0.2-0.5-0.4-0.6c-0.2-0.1-0.4-0.1-0.7,0c-0.3,0.1-0.5,0.5-0.9,1.1c-0.3,0.6-0.5,1.1-0.4,1.4
		c0,0.3,0.2,0.5,0.4,0.6c0.2,0.1,0.4,0.1,0.7,0C56.5,123.9,56.8,123.5,57.1,122.9L57.1,122.9z M54.2,121.4c-0.2,0.4-0.5,0.8-0.7,1
		c-0.2,0.2-0.5,0.4-0.8,0.4c-0.3,0-0.5,0-0.8-0.2c-0.2-0.1-0.4-0.3-0.5-0.4c-0.1-0.2-0.2-0.4-0.2-0.6c0-0.2,0-0.4,0.1-0.7
		c0.1-0.3,0.2-0.6,0.4-0.9c0.2-0.4,0.5-0.8,0.7-1c0.2-0.2,0.5-0.4,0.8-0.4c0.3,0,0.5,0,0.8,0.2c0.4,0.2,0.6,0.5,0.6,0.9
		C54.7,120.1,54.6,120.6,54.2,121.4z M53.7,121.1c0.3-0.6,0.5-1.1,0.5-1.4c0-0.3-0.2-0.5-0.4-0.6c-0.2-0.1-0.4-0.1-0.7,0
		c-0.3,0.1-0.6,0.5-0.9,1.1c-0.3,0.6-0.5,1.1-0.5,1.4c0,0.3,0.2,0.5,0.4,0.6c0.2,0.1,0.4,0.1,0.7,0
		C53.1,122.1,53.4,121.7,53.7,121.1z M50.7,119.3c-0.3,0.4-0.6,0.7-0.8,0.9c-0.3,0.2-0.5,0.3-0.8,0.3c-0.3,0-0.5-0.1-0.8-0.2
		c-0.2-0.1-0.3-0.3-0.4-0.5c-0.1-0.2-0.1-0.4-0.1-0.6c0-0.2,0.1-0.4,0.2-0.7c0.1-0.2,0.3-0.5,0.5-0.9c0.3-0.4,0.6-0.7,0.8-0.9
		c0.3-0.2,0.5-0.3,0.8-0.3c0.3,0,0.5,0.1,0.8,0.2c0.3,0.2,0.5,0.5,0.5,0.9C51.4,118.1,51.2,118.7,50.7,119.3z M50.3,119
		c0.4-0.6,0.6-1,0.6-1.3c0-0.3-0.1-0.5-0.3-0.6c-0.2-0.1-0.4-0.2-0.7-0.1c-0.3,0.1-0.6,0.4-1,1c-0.4,0.6-0.6,1-0.6,1.3
		c0,0.3,0.1,0.5,0.3,0.6c0.2,0.1,0.4,0.2,0.7,0.1C49.5,119.9,49.9,119.6,50.3,119z M47.5,117c-0.3,0.4-0.6,0.7-0.9,0.8
		c-0.3,0.2-0.6,0.3-0.8,0.2c-0.3,0-0.5-0.1-0.8-0.3c-0.2-0.1-0.3-0.3-0.4-0.5c-0.1-0.2-0.1-0.4-0.1-0.6c0-0.2,0.1-0.4,0.2-0.7
		c0.1-0.2,0.3-0.5,0.6-0.8c0.3-0.4,0.6-0.7,0.9-0.8c0.3-0.2,0.6-0.3,0.8-0.2c0.3,0,0.5,0.1,0.8,0.3c0.3,0.3,0.5,0.6,0.5,1
		C48.3,115.8,48,116.4,47.5,117z M47.1,116.6c0.5-0.5,0.7-1,0.7-1.2c0-0.3-0.1-0.5-0.2-0.7c-0.2-0.2-0.4-0.2-0.7-0.1
		c-0.3,0.1-0.6,0.4-1.1,0.9c-0.5,0.5-0.7,1-0.7,1.2c0,0.3,0.1,0.5,0.2,0.7c0.2,0.2,0.4,0.2,0.6,0.1
		C46.3,117.5,46.6,117.2,47.1,116.6z M44.5,114.4c-0.3,0.4-0.7,0.6-1,0.8c-0.3,0.2-0.6,0.2-0.8,0.2c-0.3,0-0.5-0.1-0.7-0.4
		c-0.2-0.2-0.3-0.3-0.3-0.5c-0.1-0.2-0.1-0.4,0-0.6c0-0.2,0.1-0.4,0.2-0.6c0.1-0.2,0.3-0.5,0.6-0.8c0.3-0.4,0.7-0.6,1-0.8
		c0.3-0.2,0.6-0.2,0.8-0.2c0.3,0,0.5,0.1,0.7,0.4c0.3,0.3,0.4,0.6,0.4,1C45.4,113.3,45.1,113.9,44.5,114.4z M44.2,114.1
		c0.5-0.5,0.8-0.9,0.8-1.2c0-0.3,0-0.5-0.2-0.7c-0.2-0.2-0.4-0.2-0.7-0.2c-0.3,0.1-0.7,0.3-1.1,0.9c-0.5,0.5-0.8,0.9-0.8,1.2
		c0,0.3,0,0.5,0.2,0.7c0.2,0.2,0.4,0.2,0.6,0.2C43.3,114.9,43.7,114.6,44.2,114.1z M41.7,111.7c-0.4,0.3-0.7,0.6-1,0.7
		c-0.3,0.1-0.6,0.2-0.8,0.1c-0.3,0-0.5-0.2-0.7-0.4c-0.2-0.2-0.3-0.4-0.3-0.5c0-0.2,0-0.4,0-0.6c0.1-0.2,0.2-0.4,0.3-0.6
		c0.1-0.2,0.4-0.5,0.7-0.7c0.4-0.3,0.7-0.6,1-0.7c0.3-0.1,0.6-0.2,0.8-0.1c0.3,0,0.5,0.2,0.7,0.4c0.3,0.3,0.4,0.7,0.3,1
		C42.7,110.6,42.3,111.1,41.7,111.7z M41.3,111.2c0.5-0.5,0.8-0.8,0.9-1.1c0.1-0.3,0-0.5-0.1-0.7c-0.2-0.2-0.4-0.3-0.7-0.2
		c-0.3,0-0.7,0.3-1.2,0.7c-0.5,0.5-0.8,0.8-0.9,1.1c-0.1,0.3,0,0.5,0.1,0.7c0.2,0.2,0.4,0.3,0.6,0.2C40.4,112,40.8,111.7,41.3,111.2
		z M39.1,108.6c-0.4,0.3-0.8,0.5-1.1,0.6c-0.3,0.1-0.6,0.1-0.9,0c-0.3-0.1-0.5-0.2-0.7-0.5c-0.1-0.2-0.2-0.4-0.2-0.6
		c0-0.2,0-0.4,0.1-0.6c0.1-0.2,0.2-0.4,0.4-0.6c0.2-0.2,0.4-0.4,0.8-0.7c0.4-0.3,0.8-0.5,1.1-0.6c0.3-0.1,0.6-0.1,0.9,0
		c0.3,0.1,0.5,0.2,0.7,0.5c0.2,0.3,0.3,0.7,0.2,1C40.1,107.7,39.7,108.2,39.1,108.6z M38.8,108.2c0.6-0.4,0.9-0.8,1-1
		c0.1-0.3,0.1-0.5-0.1-0.7c-0.1-0.2-0.4-0.3-0.6-0.3c-0.3,0-0.7,0.2-1.3,0.6c-0.6,0.4-0.9,0.8-1,1c-0.1,0.3-0.1,0.5,0.1,0.7
		c0.1,0.2,0.3,0.3,0.6,0.3C37.7,108.8,38.2,108.6,38.8,108.2z M36.8,105.5c-0.4,0.3-0.8,0.4-1.1,0.5c-0.3,0.1-0.6,0.1-0.9,0
		c-0.3-0.1-0.5-0.3-0.6-0.5c-0.1-0.2-0.2-0.4-0.2-0.6c0-0.2,0-0.4,0.1-0.6c0.1-0.2,0.2-0.4,0.4-0.6c0.2-0.2,0.4-0.4,0.8-0.6
		c0.4-0.3,0.8-0.4,1.1-0.5c0.3-0.1,0.6-0.1,0.9,0c0.3,0.1,0.5,0.3,0.6,0.5c0.2,0.3,0.3,0.7,0.1,1.1C37.9,104.6,37.5,105,36.8,105.5
		L36.8,105.5z M36.5,105c0.6-0.4,1-0.7,1.1-1c0.1-0.3,0.1-0.5,0-0.7c-0.1-0.2-0.3-0.3-0.6-0.3c-0.3,0-0.7,0.2-1.3,0.5
		c-0.6,0.4-1,0.7-1.1,1c-0.1,0.3-0.1,0.5,0,0.7c0.1,0.2,0.3,0.3,0.6,0.3C35.5,105.6,35.9,105.4,36.5,105z M34.7,102.1
		c-0.4,0.2-0.8,0.4-1.2,0.4c-0.3,0.1-0.6,0-0.9-0.1c-0.2-0.1-0.4-0.3-0.6-0.6c-0.1-0.2-0.2-0.4-0.2-0.6c0-0.2,0.1-0.4,0.2-0.6
		c0.1-0.2,0.2-0.4,0.4-0.5c0.2-0.2,0.5-0.4,0.9-0.6c0.4-0.2,0.8-0.4,1.2-0.4c0.3-0.1,0.6,0,0.9,0.1c0.2,0.1,0.4,0.3,0.6,0.6
		c0.2,0.4,0.2,0.7,0.1,1.1C35.9,101.3,35.5,101.7,34.7,102.1z M34.5,101.6c0.6-0.3,1-0.6,1.1-0.9c0.1-0.3,0.1-0.5,0-0.7
		c-0.1-0.2-0.3-0.3-0.6-0.4c-0.3,0-0.7,0.1-1.4,0.4c-0.6,0.3-1,0.6-1.1,0.9c-0.1,0.3-0.1,0.5,0,0.7c0.1,0.2,0.3,0.3,0.5,0.4
		C33.4,102.1,33.9,101.9,34.5,101.6z M33,98.6c-0.5,0.2-0.9,0.3-1.2,0.4c-0.3,0-0.6,0-0.8-0.1c-0.2-0.1-0.4-0.3-0.5-0.6
		c-0.1-0.2-0.1-0.4-0.1-0.6c0-0.2,0.1-0.4,0.2-0.6c0.1-0.2,0.3-0.3,0.5-0.5c0.2-0.2,0.5-0.3,0.9-0.5c0.5-0.2,0.9-0.3,1.2-0.4
		c0.3,0,0.6,0,0.8,0.1c0.2,0.1,0.4,0.3,0.6,0.6c0.2,0.4,0.2,0.7,0,1.1C34.2,97.9,33.7,98.3,33,98.6z M32.7,98.1
		c0.6-0.3,1-0.6,1.2-0.8c0.1-0.2,0.2-0.5,0.1-0.7c-0.1-0.2-0.3-0.4-0.6-0.4c-0.3-0.1-0.7,0.1-1.4,0.4c-0.6,0.3-1,0.6-1.2,0.8
		c-0.1,0.2-0.2,0.5-0.1,0.7c0.1,0.2,0.3,0.4,0.5,0.4C31.6,98.5,32.1,98.4,32.7,98.1z M31.4,94.9c-0.5,0.2-0.9,0.2-1.2,0.2
		c-0.3,0-0.6-0.1-0.8-0.2c-0.2-0.1-0.4-0.4-0.5-0.7c-0.1-0.2-0.1-0.4-0.1-0.6c0-0.2,0.1-0.4,0.3-0.5c0.1-0.2,0.3-0.3,0.5-0.4
		c0.2-0.1,0.5-0.3,0.9-0.4c0.5-0.2,0.9-0.2,1.2-0.2c0.3,0,0.6,0.1,0.8,0.2c0.2,0.1,0.4,0.4,0.5,0.7c0.1,0.4,0.1,0.7-0.1,1.1
		C32.7,94.3,32.2,94.6,31.4,94.9z M31.2,94.4c0.7-0.2,1.1-0.4,1.3-0.7c0.2-0.2,0.2-0.5,0.1-0.7c-0.1-0.2-0.2-0.4-0.5-0.5
		c-0.3-0.1-0.7,0-1.4,0.2c-0.7,0.2-1.1,0.4-1.3,0.7c-0.2,0.2-0.2,0.5-0.1,0.7c0.1,0.2,0.2,0.4,0.5,0.5
		C30.1,94.7,30.6,94.6,31.2,94.4z M29.8,89.8c-0.7,0.1-1.3,0-1.7-0.3c-0.5-0.3-0.7-0.8-0.8-1.4c-0.1-0.4,0-0.8,0.1-1.1
		c0.1-0.3,0.4-0.6,0.7-0.9c0.3-0.2,0.7-0.4,1.1-0.4c0.4-0.1,0.8-0.1,1.2,0.1c0.4,0.1,0.7,0.3,0.9,0.6c0.2,0.3,0.4,0.6,0.4,1
		c0.1,0.4,0,0.8-0.1,1.1c-0.1,0.3-0.4,0.6-0.7,0.8C30.5,89.6,30.2,89.7,29.8,89.8z M29.7,89.2c0.5-0.1,0.9-0.3,1.1-0.6
		c0.2-0.3,0.3-0.7,0.3-1.1c-0.1-0.4-0.3-0.7-0.6-1c-0.3-0.2-0.8-0.3-1.3-0.2c-0.3,0.1-0.6,0.2-0.9,0.3c-0.2,0.2-0.4,0.4-0.5,0.6
		c-0.1,0.2-0.1,0.5-0.1,0.8c0.1,0.4,0.3,0.7,0.6,1C28.6,89.3,29.1,89.3,29.7,89.2z M26.7,84.8L26.4,82l0.5-0.1l0.3,2.2l3.8-0.5
		l0.1,0.6L26.7,84.8z M30.6,80.5l-4.3,0.1l0-1.6c0-0.3,0-0.5,0-0.7c0-0.2,0.1-0.4,0.2-0.5c0.1-0.1,0.2-0.3,0.4-0.4
		c0.2-0.1,0.4-0.1,0.6-0.1c0.4,0,0.7,0.1,0.9,0.3c0.3,0.2,0.4,0.6,0.4,1.3l0,1.1l1.8,0L30.6,80.5z M28.4,80l0-1.1
		c0-0.4-0.1-0.6-0.2-0.8c-0.1-0.2-0.3-0.2-0.6-0.2c-0.2,0-0.3,0.1-0.5,0.1c-0.1,0.1-0.2,0.2-0.2,0.4c0,0.1,0,0.3,0,0.5l0,1.1
		L28.4,80z M30.6,76.1l-4.3-0.3l0-0.6l1.8,0.1l0.2-2.2L26.5,73l0-0.6l4.3,0.3l0,0.6l-2-0.2l-0.2,2.2l2,0.2L30.6,76.1z M26.8,70.6
		l0.1-0.5l3.4,0.6l-3-2.8l0.1-0.6l4.2,0.7l-0.1,0.5l-3.3-0.6l3,2.8L31,71.3L26.8,70.6z M27.8,65.4l0.9-3.2l4.1,1.2l-0.2,0.5L29,62.9
		L28.4,65l3.6,1.1l-0.2,0.5L27.8,65.4z M32.4,60.7l-0.5-0.2l0.6-1.5l0.5,0.2L32.4,60.7z M32.7,58c-0.5-0.2-0.8-0.4-1.1-0.7
		c-0.2-0.2-0.4-0.5-0.5-0.7c-0.1-0.3,0-0.5,0.1-0.8c0.1-0.2,0.2-0.4,0.4-0.5c0.2-0.1,0.3-0.2,0.5-0.2c0.2,0,0.4,0,0.7,0
		c0.3,0,0.6,0.2,1,0.3c0.5,0.2,0.8,0.4,1,0.6c0.2,0.2,0.4,0.5,0.5,0.7c0.1,0.3,0,0.5-0.1,0.8c-0.2,0.4-0.4,0.6-0.8,0.7
		C34,58.4,33.4,58.3,32.7,58z M32.9,57.5c0.6,0.3,1.1,0.4,1.4,0.4c0.3-0.1,0.5-0.2,0.6-0.4c0.1-0.2,0.1-0.5-0.1-0.7
		c-0.1-0.2-0.5-0.5-1.2-0.8c-0.6-0.3-1.1-0.4-1.4-0.4c-0.3,0.1-0.5,0.2-0.6,0.4c-0.1,0.2-0.1,0.4,0,0.7
		C31.8,56.9,32.2,57.2,32.9,57.5z M34.4,54.4c-0.4-0.2-0.8-0.5-1-0.7c-0.2-0.2-0.4-0.5-0.4-0.8c0-0.3,0-0.5,0.2-0.8
		c0.1-0.2,0.3-0.4,0.4-0.5c0.2-0.1,0.4-0.2,0.6-0.2c0.2,0,0.4,0,0.7,0.1c0.3,0.1,0.6,0.2,0.9,0.4c0.4,0.2,0.8,0.5,1,0.7
		c0.2,0.2,0.4,0.5,0.4,0.8c0,0.3,0,0.5-0.2,0.8c-0.2,0.4-0.5,0.6-0.9,0.6C35.7,55,35.1,54.8,34.4,54.4z M34.7,54
		c0.6,0.3,1.1,0.5,1.4,0.5c0.3,0,0.5-0.2,0.6-0.4c0.1-0.2,0.1-0.4,0-0.7c-0.1-0.3-0.5-0.6-1.1-0.9c-0.6-0.3-1.1-0.5-1.4-0.5
		c-0.3,0-0.5,0.2-0.6,0.4c-0.1,0.2-0.1,0.4,0,0.7C33.7,53.3,34.1,53.6,34.7,54z M36.4,51c-0.4-0.3-0.7-0.6-0.9-0.8
		c-0.2-0.3-0.3-0.5-0.3-0.8c0-0.3,0.1-0.5,0.2-0.8c0.1-0.2,0.3-0.3,0.5-0.4c0.2-0.1,0.4-0.1,0.6-0.1c0.2,0,0.4,0.1,0.7,0.2
		c0.2,0.1,0.5,0.3,0.9,0.5c0.4,0.3,0.7,0.6,0.9,0.8c0.2,0.3,0.3,0.5,0.3,0.8c0,0.3-0.1,0.5-0.2,0.8c-0.2,0.3-0.5,0.5-0.9,0.5
		C37.6,51.7,37.1,51.4,36.4,51z M36.7,50.5c0.6,0.4,1,0.6,1.3,0.6c0.3,0,0.5-0.1,0.6-0.3c0.1-0.2,0.2-0.4,0.1-0.7
		c-0.1-0.3-0.4-0.6-1-1c-0.6-0.4-1-0.6-1.3-0.6c-0.3,0-0.5,0.1-0.6,0.3c-0.1,0.2-0.2,0.4-0.1,0.7C35.8,49.8,36.2,50.1,36.7,50.5z
		 M38.7,47.8c-0.4-0.3-0.7-0.6-0.9-0.9c-0.2-0.3-0.3-0.5-0.3-0.8c0-0.3,0.1-0.5,0.3-0.8c0.1-0.2,0.3-0.3,0.5-0.4
		c0.2-0.1,0.4-0.1,0.6-0.1c0.2,0,0.4,0.1,0.7,0.2c0.2,0.1,0.5,0.3,0.8,0.6c0.4,0.3,0.7,0.6,0.8,0.9c0.2,0.3,0.3,0.5,0.3,0.8
		c0,0.3-0.1,0.5-0.3,0.8c-0.3,0.3-0.6,0.5-1,0.5C39.9,48.6,39.4,48.3,38.7,47.8z M39.1,47.4c0.5,0.4,1,0.7,1.2,0.7
		c0.3,0,0.5-0.1,0.7-0.3c0.2-0.2,0.2-0.4,0.1-0.7c-0.1-0.3-0.4-0.6-0.9-1.1c-0.5-0.4-1-0.7-1.2-0.7c-0.3,0-0.5,0.1-0.7,0.3
		c-0.2,0.2-0.2,0.4-0.1,0.6C38.2,46.6,38.5,46.9,39.1,47.4z M41.2,44.8c-0.4-0.3-0.6-0.7-0.8-1c-0.2-0.3-0.2-0.6-0.2-0.8
		c0-0.3,0.1-0.5,0.4-0.7c0.2-0.2,0.3-0.3,0.5-0.3c0.2-0.1,0.4-0.1,0.6,0c0.2,0,0.4,0.1,0.6,0.2c0.2,0.1,0.5,0.3,0.8,0.6
		c0.4,0.3,0.6,0.7,0.8,1c0.2,0.3,0.2,0.6,0.2,0.8c0,0.3-0.1,0.5-0.4,0.7c-0.3,0.3-0.6,0.4-1,0.4C42.4,45.6,41.8,45.3,41.2,44.8z
		 M41.6,44.4c0.5,0.5,0.9,0.8,1.2,0.8c0.3,0,0.5,0,0.7-0.2c0.2-0.2,0.2-0.4,0.2-0.7c-0.1-0.3-0.3-0.7-0.9-1.1
		c-0.5-0.5-0.9-0.8-1.2-0.8c-0.3,0-0.5,0-0.7,0.2c-0.2,0.2-0.2,0.4-0.2,0.6C40.8,43.5,41.1,43.9,41.6,44.4z M44,41.9
		c-0.3-0.4-0.6-0.7-0.7-1c-0.1-0.3-0.2-0.6-0.1-0.8c0-0.3,0.2-0.5,0.4-0.7c0.2-0.2,0.4-0.3,0.5-0.3c0.2,0,0.4,0,0.6,0
		c0.2,0.1,0.4,0.2,0.6,0.3c0.2,0.1,0.5,0.4,0.7,0.7c0.3,0.4,0.6,0.7,0.7,1c0.1,0.3,0.2,0.6,0.1,0.8c0,0.3-0.2,0.5-0.4,0.7
		c-0.3,0.3-0.7,0.4-1,0.3C45,42.9,44.6,42.5,44,41.9z M44.4,41.5c0.5,0.5,0.8,0.8,1.1,0.9c0.3,0.1,0.5,0,0.7-0.1
		c0.2-0.2,0.3-0.4,0.2-0.7c0-0.3-0.3-0.7-0.7-1.2c-0.5-0.5-0.8-0.8-1.1-0.9c-0.3-0.1-0.5,0-0.7,0.1c-0.2,0.2-0.3,0.4-0.2,0.6
		C43.7,40.6,44,41,44.4,41.5z M47,39.4c-0.3-0.4-0.5-0.8-0.6-1.1c-0.1-0.3-0.1-0.6-0.1-0.9c0.1-0.3,0.2-0.5,0.5-0.7
		c0.2-0.1,0.4-0.2,0.6-0.3c0.2,0,0.4,0,0.6,0.1c0.2,0.1,0.4,0.2,0.6,0.3c0.2,0.2,0.4,0.4,0.7,0.7c0.3,0.4,0.5,0.7,0.6,1.1
		c0.1,0.3,0.1,0.6,0.1,0.9c-0.1,0.3-0.2,0.5-0.5,0.7c-0.3,0.3-0.7,0.3-1,0.3C47.9,40.4,47.5,40,47,39.4z M47.4,39
		c0.4,0.6,0.8,0.9,1.1,1c0.3,0.1,0.5,0,0.7-0.1c0.2-0.1,0.3-0.4,0.3-0.7c0-0.3-0.2-0.7-0.7-1.3c-0.4-0.6-0.8-0.9-1.1-1
		c-0.3-0.1-0.5,0-0.7,0.1c-0.2,0.1-0.3,0.4-0.3,0.6C46.7,38,47,38.5,47.4,39z M50.2,37c-0.3-0.4-0.4-0.8-0.5-1.1
		c-0.1-0.3-0.1-0.6,0-0.9c0.1-0.3,0.3-0.5,0.5-0.6c0.2-0.1,0.4-0.2,0.6-0.2c0.2,0,0.4,0,0.6,0.1c0.2,0.1,0.4,0.2,0.6,0.4
		c0.2,0.2,0.4,0.4,0.6,0.8c0.3,0.4,0.4,0.8,0.5,1.1c0.1,0.3,0.1,0.6,0,0.9c-0.1,0.3-0.3,0.5-0.5,0.6c-0.3,0.2-0.7,0.3-1.1,0.1
		C51,38.1,50.6,37.6,50.2,37z M50.6,36.7c0.4,0.6,0.7,1,1,1.1c0.3,0.1,0.5,0.1,0.7,0c0.2-0.1,0.3-0.3,0.3-0.6c0-0.3-0.2-0.7-0.5-1.3
		c-0.4-0.6-0.7-1-1-1.1c-0.3-0.1-0.5-0.1-0.7,0c-0.2,0.1-0.3,0.3-0.3,0.6C50.1,35.6,50.3,36.1,50.6,36.7z M53.5,34.9
		c-0.2-0.4-0.4-0.8-0.4-1.2c-0.1-0.3,0-0.6,0.1-0.9c0.1-0.2,0.3-0.4,0.6-0.6c0.2-0.1,0.4-0.2,0.6-0.2c0.2,0,0.4,0.1,0.6,0.2
		c0.2,0.1,0.4,0.2,0.5,0.4c0.2,0.2,0.4,0.5,0.6,0.9c0.2,0.4,0.4,0.8,0.4,1.2c0.1,0.3,0,0.6-0.1,0.9c-0.1,0.2-0.3,0.4-0.6,0.6
		c-0.4,0.2-0.7,0.2-1.1,0.1C54.3,36,53.9,35.6,53.5,34.9z M54,34.6c0.3,0.6,0.6,1,0.9,1.1c0.3,0.1,0.5,0.1,0.7,0
		c0.2-0.1,0.3-0.3,0.4-0.6c0-0.3-0.1-0.7-0.4-1.4c-0.3-0.6-0.6-1-0.9-1.1c-0.3-0.1-0.5-0.1-0.7,0c-0.2,0.1-0.3,0.3-0.4,0.5
		C53.6,33.5,53.7,34,54,34.6z M57,33.1c-0.2-0.5-0.3-0.9-0.4-1.2c0-0.3,0-0.6,0.1-0.8c0.1-0.2,0.3-0.4,0.6-0.5
		c0.2-0.1,0.4-0.1,0.6-0.1c0.2,0,0.4,0.1,0.6,0.2c0.2,0.1,0.3,0.3,0.5,0.5c0.2,0.2,0.3,0.5,0.5,0.9c0.2,0.5,0.3,0.9,0.4,1.2
		c0,0.3,0,0.6-0.1,0.8c-0.1,0.2-0.3,0.4-0.6,0.6c-0.4,0.2-0.7,0.2-1.1,0C57.7,34.3,57.4,33.8,57,33.1z M57.5,32.9
		c0.3,0.6,0.6,1,0.8,1.2c0.2,0.1,0.5,0.2,0.7,0.1c0.2-0.1,0.4-0.3,0.4-0.6c0.1-0.3-0.1-0.7-0.4-1.4c-0.3-0.6-0.6-1-0.8-1.2
		c-0.2-0.1-0.5-0.2-0.7-0.1c-0.2,0.1-0.4,0.3-0.4,0.5C57.1,31.7,57.2,32.2,57.5,32.9z M60.7,31.5c-0.2-0.5-0.2-0.9-0.2-1.2
		c0-0.3,0.1-0.6,0.2-0.8c0.1-0.2,0.4-0.4,0.7-0.5c0.2-0.1,0.4-0.1,0.6-0.1c0.2,0,0.4,0.1,0.5,0.3c0.2,0.1,0.3,0.3,0.4,0.5
		c0.1,0.2,0.3,0.5,0.4,0.9c0.2,0.5,0.2,0.9,0.2,1.2c0,0.3-0.1,0.6-0.2,0.8c-0.1,0.2-0.4,0.4-0.7,0.5c-0.4,0.1-0.7,0.1-1.1-0.1
		C61.3,32.8,61,32.3,60.7,31.5z M61.2,31.3c0.2,0.7,0.4,1.1,0.7,1.3c0.2,0.2,0.5,0.2,0.7,0.1c0.2-0.1,0.4-0.2,0.5-0.5
		c0.1-0.3,0-0.7-0.2-1.4c-0.2-0.7-0.4-1.1-0.7-1.3c-0.2-0.2-0.5-0.2-0.7-0.1c-0.2,0.1-0.4,0.2-0.5,0.5C61,30.2,61,30.7,61.2,31.3z"
		/>
	<path id="path20" class="st2" d="M64.5,30.3c-0.1-0.5-0.2-0.9-0.1-1.2c0-0.3,0.1-0.6,0.3-0.8c0.2-0.2,0.4-0.3,0.7-0.4
		c0.2-0.1,0.4-0.1,0.6,0c0.2,0.1,0.4,0.1,0.5,0.3c0.1,0.1,0.3,0.3,0.4,0.6c0.1,0.2,0.2,0.6,0.3,1c0.1,0.5,0.2,0.9,0.1,1.2
		c0,0.3-0.1,0.6-0.3,0.8c-0.2,0.2-0.4,0.3-0.7,0.4c-0.4,0.1-0.8,0-1-0.2C64.9,31.6,64.7,31,64.5,30.3z M65,30.1
		c0.2,0.7,0.3,1.1,0.6,1.3c0.2,0.2,0.4,0.3,0.7,0.2c0.2-0.1,0.4-0.2,0.5-0.5c0.1-0.3,0.1-0.7-0.1-1.4c-0.2-0.7-0.3-1.1-0.6-1.3
		c-0.2-0.2-0.4-0.3-0.7-0.2c-0.2,0.1-0.4,0.2-0.5,0.4C64.8,29,64.9,29.5,65,30.1z M68.3,29.4c-0.1-0.5-0.1-0.9-0.1-1.2
		c0.1-0.3,0.2-0.6,0.3-0.8c0.2-0.2,0.4-0.3,0.7-0.4c0.2,0,0.4,0,0.6,0c0.2,0.1,0.4,0.2,0.5,0.3c0.1,0.2,0.3,0.3,0.4,0.6
		c0.1,0.2,0.2,0.6,0.3,1c0.1,0.5,0.1,0.9,0.1,1.2c0,0.3-0.2,0.6-0.3,0.8c-0.2,0.2-0.4,0.3-0.7,0.4c-0.4,0.1-0.8,0-1-0.3
		C68.7,30.7,68.4,30.2,68.3,29.4L68.3,29.4z M68.8,29.3c0.1,0.7,0.3,1.1,0.5,1.3c0.2,0.2,0.4,0.3,0.7,0.2c0.2,0,0.4-0.2,0.5-0.4
		c0.1-0.3,0.1-0.7,0-1.4c-0.1-0.7-0.3-1.1-0.5-1.3c-0.2-0.2-0.4-0.3-0.7-0.2c-0.2,0-0.4,0.2-0.5,0.4C68.7,28.1,68.7,28.6,68.8,29.3z
		 M72.3,26.6l0.5,0l0.3,3.4l2-3.6l0.6,0l0.3,4.3l-0.5,0l-0.3-3.4l-2,3.6l-0.6,0L72.3,26.6z M77.4,30.6l0.1-4.3l0.6,0l0,1.8l2.2,0
		l0-1.8l0.6,0l-0.1,4.3l-0.6,0l0-2l-2.2,0l0,2L77.4,30.6z M82.2,30.7l0.6-4.3l0.6,0.1l-0.2,1.8l2.2,0.3l0.2-1.8l0.6,0.1l-0.6,4.3
		l-0.6-0.1l0.3-2L83,28.8l-0.3,2L82.2,30.7z M88.3,29.6c0.1-0.5,0.3-0.9,0.4-1.2c0.2-0.3,0.4-0.5,0.6-0.6c0.2-0.1,0.5-0.1,0.8-0.1
		c0.2,0.1,0.4,0.1,0.6,0.3c0.1,0.1,0.3,0.3,0.3,0.5c0.1,0.2,0.1,0.4,0.1,0.7c0,0.3,0,0.6-0.1,1c-0.1,0.5-0.3,0.9-0.4,1.2
		c-0.2,0.3-0.4,0.5-0.6,0.6c-0.2,0.1-0.5,0.1-0.8,0.1c-0.4-0.1-0.7-0.3-0.9-0.6C88.2,30.9,88.2,30.3,88.3,29.6z M88.9,29.7
		c-0.2,0.7-0.2,1.2-0.1,1.4c0.1,0.3,0.3,0.4,0.5,0.5c0.2,0.1,0.5,0,0.7-0.2c0.2-0.2,0.4-0.6,0.6-1.3c0.2-0.7,0.2-1.2,0.1-1.4
		c-0.1-0.3-0.3-0.4-0.5-0.5c-0.2-0.1-0.4,0-0.6,0.2C89.2,28.5,89,29,88.9,29.7z M92.2,30.5c0.2-0.5,0.3-0.9,0.5-1.1
		c0.2-0.3,0.4-0.4,0.7-0.5c0.2-0.1,0.5-0.1,0.8,0c0.2,0.1,0.4,0.2,0.5,0.3c0.1,0.1,0.2,0.3,0.3,0.5c0,0.2,0.1,0.4,0,0.7
		c0,0.3-0.1,0.6-0.2,1c-0.2,0.5-0.3,0.8-0.5,1.1c-0.2,0.3-0.4,0.4-0.7,0.5c-0.2,0.1-0.5,0.1-0.8,0c-0.4-0.1-0.7-0.4-0.8-0.7
		C91.9,31.9,92,31.3,92.2,30.5z M92.7,30.7c-0.2,0.7-0.3,1.1-0.2,1.4c0.1,0.3,0.2,0.4,0.5,0.5c0.2,0.1,0.5,0,0.7-0.1
		c0.2-0.2,0.5-0.6,0.7-1.3c0.2-0.7,0.3-1.1,0.2-1.4c-0.1-0.3-0.2-0.5-0.5-0.5c-0.2-0.1-0.4,0-0.6,0.1C93.2,29.6,93,30,92.7,30.7z
		 M96,31.8c0.2-0.5,0.4-0.8,0.7-1.1c0.2-0.2,0.5-0.4,0.7-0.5c0.3-0.1,0.5,0,0.8,0.1c0.2,0.1,0.4,0.2,0.5,0.4
		c0.1,0.2,0.2,0.3,0.2,0.5c0,0.2,0,0.4,0,0.7c0,0.3-0.2,0.6-0.3,1c-0.2,0.5-0.4,0.8-0.6,1c-0.2,0.2-0.5,0.4-0.7,0.5
		c-0.3,0.1-0.5,0-0.8-0.1c-0.4-0.2-0.6-0.4-0.7-0.8C95.6,33.1,95.7,32.5,96,31.8z M96.5,32c-0.3,0.6-0.4,1.1-0.4,1.4
		c0.1,0.3,0.2,0.5,0.4,0.6c0.2,0.1,0.5,0.1,0.7-0.1c0.2-0.1,0.5-0.5,0.8-1.2c0.3-0.6,0.4-1.1,0.4-1.4c-0.1-0.3-0.2-0.5-0.4-0.6
		c-0.2-0.1-0.4-0.1-0.7,0C97.1,31,96.8,31.4,96.5,32L96.5,32z M99.6,33.4c0.2-0.4,0.5-0.8,0.7-1c0.2-0.2,0.5-0.4,0.7-0.4
		c0.3-0.1,0.5,0,0.8,0.1c0.2,0.1,0.4,0.2,0.5,0.4c0.1,0.2,0.2,0.3,0.2,0.6c0,0.2,0,0.4-0.1,0.7c-0.1,0.3-0.2,0.6-0.4,0.9
		c-0.2,0.4-0.5,0.8-0.7,1c-0.2,0.2-0.5,0.4-0.7,0.4c-0.3,0.1-0.5,0-0.8-0.1c-0.4-0.2-0.6-0.5-0.7-0.8C99.1,34.7,99.2,34.1,99.6,33.4
		z M100,33.7c-0.3,0.6-0.5,1.1-0.4,1.4c0,0.3,0.2,0.5,0.4,0.6c0.2,0.1,0.4,0.1,0.7,0c0.3-0.1,0.5-0.5,0.9-1.1
		c0.3-0.6,0.5-1.1,0.4-1.4c0-0.3-0.2-0.5-0.4-0.6c-0.2-0.1-0.4-0.1-0.7,0C100.7,32.7,100.4,33,100,33.7z M103.1,35.3
		c0.3-0.4,0.5-0.7,0.8-0.9c0.3-0.2,0.5-0.3,0.8-0.3c0.3,0,0.5,0,0.8,0.2c0.2,0.1,0.3,0.3,0.4,0.4c0.1,0.2,0.1,0.4,0.1,0.6
		c0,0.2,0,0.4-0.1,0.7c-0.1,0.2-0.2,0.5-0.5,0.9c-0.3,0.4-0.5,0.7-0.8,0.9c-0.3,0.2-0.5,0.3-0.8,0.4c-0.3,0-0.5,0-0.8-0.2
		c-0.3-0.2-0.5-0.5-0.6-0.9C102.5,36.5,102.7,36,103.1,35.3z M103.6,35.6c-0.4,0.6-0.6,1-0.6,1.3c0,0.3,0.1,0.5,0.3,0.6
		s0.4,0.1,0.7,0c0.3-0.1,0.6-0.5,1-1c0.4-0.6,0.6-1,0.6-1.3c0-0.3-0.1-0.5-0.3-0.6c-0.2-0.1-0.4-0.2-0.7-0.1
		C104.3,34.6,103.9,35,103.6,35.6z M106.3,37.4c0.3-0.4,0.6-0.7,0.8-0.9c0.3-0.2,0.5-0.3,0.8-0.3c0.3,0,0.5,0.1,0.8,0.2
		c0.2,0.1,0.3,0.3,0.4,0.5c0.1,0.2,0.1,0.4,0.1,0.6c0,0.2-0.1,0.4-0.2,0.7c-0.1,0.2-0.3,0.5-0.5,0.9c-0.3,0.4-0.6,0.7-0.8,0.9
		c-0.3,0.2-0.5,0.3-0.8,0.3c-0.3,0-0.5-0.1-0.8-0.2c-0.3-0.2-0.5-0.5-0.5-0.9C105.6,38.6,105.9,38.1,106.3,37.4z M106.8,37.7
		c-0.4,0.6-0.6,1-0.6,1.3c0,0.3,0.1,0.5,0.3,0.6c0.2,0.1,0.4,0.2,0.7,0.1c0.3-0.1,0.6-0.4,1-1c0.4-0.6,0.6-1,0.6-1.3
		c0-0.3-0.1-0.5-0.3-0.6c-0.2-0.1-0.4-0.2-0.7-0.1C107.5,36.8,107.2,37.2,106.8,37.7z M109.5,39.8c0.3-0.4,0.6-0.7,0.9-0.8
		c0.3-0.2,0.6-0.3,0.8-0.2c0.3,0,0.5,0.1,0.8,0.3c0.2,0.1,0.3,0.3,0.4,0.5c0.1,0.2,0.1,0.4,0.1,0.6c0,0.2-0.1,0.4-0.2,0.7
		c-0.1,0.2-0.3,0.5-0.6,0.8c-0.3,0.4-0.6,0.7-0.9,0.8c-0.3,0.2-0.6,0.3-0.8,0.2c-0.3,0-0.5-0.1-0.8-0.3c-0.3-0.3-0.5-0.6-0.5-1
		C108.7,41,109,40.5,109.5,39.8z M109.9,40.2c-0.5,0.5-0.7,1-0.7,1.2c0,0.3,0.1,0.5,0.2,0.7c0.2,0.2,0.4,0.2,0.7,0.1
		c0.3-0.1,0.6-0.4,1.1-0.9c0.5-0.5,0.7-1,0.7-1.2c0-0.3-0.1-0.5-0.2-0.7c-0.2-0.2-0.4-0.2-0.6-0.1C110.7,39.3,110.3,39.7,109.9,40.2
		z M112.5,42.5c0.4-0.3,0.7-0.6,1-0.7c0.3-0.1,0.6-0.2,0.8-0.2c0.3,0,0.5,0.2,0.7,0.4c0.2,0.2,0.3,0.3,0.3,0.5
		c0.1,0.2,0.1,0.4,0,0.6c0,0.2-0.1,0.4-0.3,0.6c-0.1,0.2-0.4,0.5-0.7,0.8c-0.4,0.3-0.7,0.6-1,0.7c-0.3,0.1-0.6,0.2-0.8,0.2
		c-0.3,0-0.5-0.2-0.7-0.4c-0.3-0.3-0.4-0.6-0.3-1C111.6,43.5,111.9,43,112.5,42.5L112.5,42.5z M112.9,42.9c-0.5,0.5-0.8,0.9-0.9,1.1
		c-0.1,0.3,0,0.5,0.2,0.7c0.2,0.2,0.4,0.2,0.7,0.2c0.3,0,0.7-0.3,1.2-0.8c0.5-0.5,0.8-0.9,0.9-1.1c0.1-0.3,0-0.5-0.2-0.7
		c-0.2-0.2-0.4-0.2-0.6-0.2C113.8,42.1,113.4,42.4,112.9,42.9z M115.1,45.3c0.4-0.3,0.7-0.6,1-0.7c0.3-0.1,0.6-0.2,0.8-0.1
		c0.3,0,0.5,0.2,0.7,0.4c0.2,0.2,0.3,0.4,0.3,0.5c0,0.2,0,0.4,0,0.6c-0.1,0.2-0.2,0.4-0.3,0.6c-0.1,0.2-0.4,0.5-0.7,0.7
		c-0.4,0.3-0.7,0.6-1,0.7c-0.3,0.1-0.6,0.2-0.8,0.1c-0.3,0-0.5-0.2-0.7-0.4c-0.3-0.3-0.4-0.7-0.3-1
		C114.2,46.3,114.5,45.8,115.1,45.3L115.1,45.3z M115.5,45.7c-0.5,0.5-0.8,0.8-0.9,1.1c-0.1,0.3,0,0.5,0.1,0.7
		c0.2,0.2,0.4,0.3,0.7,0.2c0.3,0,0.7-0.3,1.2-0.7c0.5-0.5,0.8-0.8,0.9-1.1c0.1-0.3,0-0.5-0.1-0.7c-0.2-0.2-0.4-0.3-0.6-0.2
		C116.4,45,116,45.3,115.5,45.7z M117.7,48.4c0.4-0.3,0.8-0.5,1.1-0.6c0.3-0.1,0.6-0.1,0.9,0c0.3,0.1,0.5,0.2,0.7,0.5
		c0.1,0.2,0.2,0.4,0.2,0.6c0,0.2,0,0.4-0.1,0.6c-0.1,0.2-0.2,0.4-0.4,0.6c-0.2,0.2-0.4,0.4-0.8,0.7c-0.4,0.3-0.8,0.5-1.1,0.6
		c-0.3,0.1-0.6,0.1-0.9,0c-0.3-0.1-0.5-0.2-0.7-0.5c-0.2-0.3-0.3-0.7-0.2-1C116.6,49.3,117,48.9,117.7,48.4L117.7,48.4z M118,48.8
		c-0.6,0.4-0.9,0.8-1,1c-0.1,0.3-0.1,0.5,0.1,0.7c0.1,0.2,0.4,0.3,0.6,0.3c0.3,0,0.7-0.2,1.3-0.6c0.6-0.4,0.9-0.8,1-1
		c0.1-0.3,0.1-0.5-0.1-0.7c-0.1-0.2-0.3-0.3-0.6-0.3C119,48.2,118.5,48.4,118,48.8z M120,51.7c0.4-0.2,0.8-0.4,1.1-0.5
		c0.3-0.1,0.6,0,0.9,0.1c0.2,0.1,0.4,0.3,0.6,0.6c0.1,0.2,0.2,0.4,0.2,0.6c0,0.2,0,0.4-0.1,0.6c-0.1,0.2-0.2,0.4-0.4,0.5
		c-0.2,0.2-0.5,0.4-0.8,0.6c-0.4,0.2-0.8,0.4-1.1,0.5c-0.3,0.1-0.6,0-0.9-0.1c-0.2-0.1-0.4-0.3-0.6-0.6c-0.2-0.4-0.2-0.7-0.1-1.1
		C118.8,52.5,119.2,52.1,120,51.7z M120.2,52.2c-0.6,0.3-1,0.7-1.1,0.9c-0.1,0.3-0.1,0.5,0,0.7c0.1,0.2,0.3,0.3,0.6,0.4
		c0.3,0,0.7-0.1,1.3-0.5c0.6-0.3,1-0.7,1.1-0.9c0.1-0.3,0.1-0.5,0-0.7c-0.1-0.2-0.3-0.3-0.6-0.4C121.3,51.7,120.8,51.8,120.2,52.2
		L120.2,52.2z M121.8,55.1c0.4-0.2,0.8-0.4,1.2-0.4c0.3-0.1,0.6,0,0.9,0.1c0.2,0.1,0.4,0.3,0.6,0.6c0.1,0.2,0.2,0.4,0.2,0.6
		c0,0.2-0.1,0.4-0.2,0.6c-0.1,0.2-0.2,0.4-0.4,0.5c-0.2,0.2-0.5,0.4-0.9,0.6c-0.4,0.2-0.8,0.4-1.2,0.4c-0.3,0.1-0.6,0-0.9-0.1
		c-0.2-0.1-0.4-0.3-0.6-0.6c-0.2-0.4-0.2-0.7-0.1-1.1C120.7,55.8,121.1,55.4,121.8,55.1z M122.1,55.5c-0.6,0.3-1,0.6-1.1,0.9
		c-0.1,0.3-0.1,0.5,0,0.7c0.1,0.2,0.3,0.3,0.6,0.4c0.3,0,0.7-0.1,1.4-0.4c0.6-0.3,1-0.6,1.1-0.9c0.1-0.3,0.1-0.5,0-0.7
		c-0.1-0.2-0.3-0.3-0.5-0.4C123.2,55.1,122.7,55.2,122.1,55.5z M123.6,58.7c0.5-0.2,0.9-0.3,1.2-0.3c0.3,0,0.6,0,0.8,0.2
		c0.2,0.1,0.4,0.3,0.5,0.6c0.1,0.2,0.1,0.4,0.1,0.6c0,0.2-0.1,0.4-0.2,0.5c-0.1,0.2-0.3,0.3-0.5,0.5c-0.2,0.2-0.5,0.3-0.9,0.5
		c-0.5,0.2-0.9,0.3-1.2,0.3c-0.3,0-0.6,0-0.8-0.2c-0.2-0.1-0.4-0.3-0.5-0.6c-0.2-0.4-0.1-0.7,0-1.1C122.3,59.3,122.8,59,123.6,58.7
		L123.6,58.7z M123.8,59.2c-0.7,0.3-1.1,0.5-1.2,0.8c-0.2,0.2-0.2,0.5-0.1,0.7c0.1,0.2,0.3,0.4,0.6,0.4c0.3,0.1,0.7,0,1.4-0.3
		c0.7-0.3,1.1-0.5,1.2-0.8c0.2-0.2,0.2-0.5,0.1-0.7c-0.1-0.2-0.3-0.4-0.5-0.4C124.9,58.8,124.4,58.9,123.8,59.2z M125.8,65.3
		c0.7-0.2,1.3-0.1,1.8,0.2c0.5,0.3,0.8,0.7,0.9,1.3c0.1,0.4,0.1,0.8,0,1.1c-0.1,0.4-0.3,0.6-0.6,0.9c-0.3,0.2-0.6,0.4-1.1,0.5
		c-0.4,0.1-0.8,0.1-1.2,0c-0.4-0.1-0.7-0.3-0.9-0.6c-0.2-0.3-0.4-0.6-0.5-1c-0.1-0.4-0.1-0.8,0-1.1c0.1-0.4,0.3-0.6,0.6-0.9
		C125.1,65.6,125.4,65.4,125.8,65.3L125.8,65.3z M125.9,65.9c-0.5,0.1-0.9,0.3-1.1,0.7c-0.2,0.3-0.3,0.7-0.2,1.1
		c0.1,0.4,0.3,0.7,0.7,0.9c0.4,0.2,0.8,0.2,1.3,0.1c0.3-0.1,0.6-0.2,0.9-0.4c0.2-0.2,0.4-0.4,0.5-0.6c0.1-0.3,0.1-0.5,0-0.8
		c-0.1-0.4-0.3-0.7-0.6-0.9C127,65.8,126.6,65.8,125.9,65.9z M129.1,70.4l0.4,2.8l-0.5,0.1l-0.3-2.2l-3.8,0.5l-0.1-0.6L129.1,70.4z
		 M125.3,74.7l4.3-0.1l0,1.6c0,0.3,0,0.5,0,0.7c0,0.2-0.1,0.4-0.2,0.5c-0.1,0.1-0.2,0.3-0.4,0.4c-0.2,0.1-0.4,0.1-0.6,0.1
		c-0.4,0-0.7-0.1-0.9-0.3c-0.3-0.2-0.4-0.6-0.4-1.3l0-1.1l-1.8,0L125.3,74.7z M127.5,75.2l0,1.1c0,0.4,0.1,0.6,0.2,0.8
		c0.1,0.2,0.3,0.2,0.6,0.2c0.2,0,0.3-0.1,0.5-0.1c0.1-0.1,0.2-0.2,0.2-0.4c0-0.1,0-0.3,0-0.5l0-1.1L127.5,75.2z M125.4,79.1l4.3,0.3
		l0,0.6l-1.8-0.1l-0.2,2.2l1.8,0.1l0,0.6l-4.3-0.3l0-0.6l2,0.2l0.2-2.2l-2-0.2L125.4,79.1z M129.2,84.6l-0.1,0.5l-3.4-0.6l3,2.8
		l-0.1,0.6l-4.2-0.7l0.1-0.5l3.3,0.6l-3-2.8l0.1-0.6L129.2,84.6z M128.3,89.8l-0.9,3.2l-4.1-1.2l0.2-0.5l3.6,1.1l0.6-2.1l-3.6-1.1
		l0.2-0.5L128.3,89.8z M124.5,94.9c0.5,0.2,0.8,0.4,1.1,0.6c0.3,0.2,0.4,0.4,0.5,0.7c0.1,0.3,0.1,0.5,0,0.8
		c-0.1,0.2-0.2,0.4-0.3,0.5c-0.1,0.1-0.3,0.2-0.5,0.3c-0.2,0-0.4,0-0.7,0c-0.3,0-0.6-0.1-1-0.3c-0.5-0.2-0.8-0.4-1.1-0.6
		c-0.3-0.2-0.4-0.4-0.5-0.7c-0.1-0.3-0.1-0.5,0-0.8c0.1-0.4,0.4-0.6,0.8-0.7C123.1,94.5,123.7,94.6,124.5,94.9L124.5,94.9z
		 M124.3,95.4c-0.7-0.3-1.1-0.3-1.4-0.3c-0.3,0.1-0.5,0.2-0.5,0.4c-0.1,0.2-0.1,0.5,0.1,0.7c0.2,0.2,0.6,0.5,1.2,0.7
		c0.7,0.3,1.1,0.3,1.4,0.3c0.3-0.1,0.5-0.2,0.5-0.4c0.1-0.2,0.1-0.4-0.1-0.7C125.4,95.9,124.9,95.6,124.3,95.4z M123,98.6
		c0.4,0.2,0.8,0.5,1,0.7c0.2,0.2,0.4,0.5,0.4,0.7c0.1,0.3,0,0.5-0.1,0.8c-0.1,0.2-0.2,0.4-0.4,0.5c-0.2,0.1-0.3,0.2-0.6,0.2
		c-0.2,0-0.4,0-0.7-0.1c-0.3-0.1-0.6-0.2-0.9-0.4c-0.4-0.2-0.8-0.5-1-0.7c-0.2-0.2-0.4-0.5-0.4-0.7c-0.1-0.3,0-0.5,0.1-0.8
		c0.2-0.4,0.5-0.6,0.8-0.7C121.7,98.1,122.3,98.2,123,98.6z M122.7,99.1c-0.6-0.3-1.1-0.5-1.4-0.4c-0.3,0-0.5,0.2-0.6,0.4
		c-0.1,0.2-0.1,0.4,0,0.7c0.1,0.3,0.5,0.5,1.1,0.9c0.6,0.3,1.1,0.5,1.4,0.4c0.3,0,0.5-0.2,0.6-0.4c0.1-0.2,0.1-0.4,0-0.7
		C123.7,99.7,123.4,99.4,122.7,99.1L122.7,99.1z M121.2,102c0.4,0.2,0.8,0.5,1,0.7c0.2,0.2,0.4,0.5,0.4,0.8c0,0.3,0,0.5-0.2,0.8
		c-0.1,0.2-0.3,0.4-0.4,0.5c-0.2,0.1-0.4,0.2-0.6,0.2c-0.2,0-0.4,0-0.7-0.1c-0.3-0.1-0.6-0.2-0.9-0.4c-0.4-0.2-0.8-0.5-1-0.7
		c-0.2-0.2-0.4-0.5-0.4-0.8c0-0.3,0-0.5,0.2-0.8c0.2-0.4,0.5-0.6,0.9-0.6C119.9,101.5,120.5,101.6,121.2,102z M120.9,102.5
		c-0.6-0.3-1.1-0.5-1.4-0.5c-0.3,0-0.5,0.2-0.6,0.4c-0.1,0.2-0.1,0.4,0,0.7c0.1,0.3,0.5,0.6,1.1,0.9c0.6,0.3,1.1,0.5,1.4,0.5
		c0.3,0,0.5-0.2,0.6-0.4c0.1-0.2,0.1-0.4,0-0.7C121.9,103.1,121.5,102.8,120.9,102.5L120.9,102.5z M119.1,105.5
		c0.4,0.3,0.7,0.6,0.9,0.8c0.2,0.3,0.3,0.5,0.3,0.8c0,0.3-0.1,0.5-0.2,0.8c-0.1,0.2-0.3,0.3-0.5,0.4c-0.2,0.1-0.4,0.1-0.6,0.1
		c-0.2,0-0.4-0.1-0.7-0.2c-0.2-0.1-0.5-0.3-0.9-0.5c-0.4-0.3-0.7-0.6-0.9-0.8c-0.2-0.3-0.3-0.5-0.3-0.8c0-0.3,0.1-0.5,0.2-0.8
		c0.2-0.3,0.5-0.5,0.9-0.5C117.9,104.8,118.5,105,119.1,105.5z M118.8,105.9c-0.6-0.4-1-0.6-1.3-0.6c-0.3,0-0.5,0.1-0.6,0.3
		c-0.1,0.2-0.2,0.4-0.1,0.7c0.1,0.3,0.4,0.6,1,1c0.6,0.4,1,0.6,1.3,0.6c0.3,0,0.5-0.1,0.6-0.3c0.1-0.2,0.2-0.4,0.1-0.7
		C119.7,106.7,119.4,106.3,118.8,105.9z M116.8,108.6c0.4,0.3,0.7,0.6,0.8,0.9c0.2,0.3,0.3,0.6,0.2,0.8c0,0.3-0.1,0.5-0.3,0.8
		c-0.1,0.2-0.3,0.3-0.5,0.4c-0.2,0.1-0.4,0.1-0.6,0.1c-0.2,0-0.4-0.1-0.7-0.2c-0.2-0.1-0.5-0.3-0.8-0.6c-0.4-0.3-0.7-0.6-0.8-0.9
		c-0.2-0.3-0.3-0.6-0.2-0.8c0-0.3,0.1-0.5,0.3-0.8c0.3-0.3,0.6-0.5,1-0.5C115.6,107.9,116.2,108.1,116.8,108.6z M116.4,109.1
		c-0.5-0.5-1-0.7-1.2-0.7c-0.3,0-0.5,0.1-0.7,0.2c-0.2,0.2-0.2,0.4-0.1,0.7c0.1,0.3,0.4,0.6,0.9,1.1c0.5,0.5,1,0.7,1.2,0.7
		c0.3,0,0.5-0.1,0.7-0.2c0.2-0.2,0.2-0.4,0.1-0.6C117.3,109.9,117,109.5,116.4,109.1z M114.2,111.6c0.4,0.3,0.6,0.7,0.8,1
		c0.2,0.3,0.2,0.6,0.2,0.8c0,0.3-0.1,0.5-0.4,0.7c-0.2,0.2-0.3,0.3-0.5,0.3c-0.2,0.1-0.4,0.1-0.6,0c-0.2,0-0.4-0.1-0.6-0.2
		c-0.2-0.1-0.5-0.3-0.8-0.6c-0.4-0.3-0.6-0.7-0.8-1c-0.2-0.3-0.2-0.6-0.2-0.8c0-0.3,0.1-0.5,0.4-0.7c0.3-0.3,0.6-0.4,1-0.4
		C113.1,110.8,113.6,111.1,114.2,111.6z M113.8,112c-0.5-0.5-0.9-0.8-1.2-0.8c-0.3,0-0.5,0-0.7,0.2c-0.2,0.2-0.2,0.4-0.2,0.7
		c0.1,0.3,0.3,0.7,0.9,1.1c0.5,0.5,0.9,0.8,1.2,0.8c0.3,0,0.5,0,0.7-0.2c0.2-0.2,0.2-0.4,0.2-0.6C114.6,112.9,114.4,112.5,113.8,112
		z M111.4,114.4c0.3,0.4,0.6,0.7,0.7,1c0.1,0.3,0.2,0.6,0.1,0.8c0,0.3-0.2,0.5-0.4,0.7c-0.2,0.2-0.4,0.3-0.5,0.3c-0.2,0-0.4,0-0.6,0
		c-0.2-0.1-0.4-0.2-0.6-0.3c-0.2-0.1-0.5-0.4-0.7-0.7c-0.3-0.4-0.6-0.7-0.7-1c-0.1-0.3-0.2-0.6-0.1-0.8c0-0.3,0.2-0.5,0.4-0.7
		c0.3-0.3,0.7-0.4,1-0.3C110.4,113.5,110.9,113.8,111.4,114.4L111.4,114.4z M111,114.8c-0.5-0.5-0.8-0.8-1.1-0.9
		c-0.3-0.1-0.5,0-0.7,0.1c-0.2,0.2-0.3,0.4-0.2,0.7c0,0.3,0.3,0.7,0.7,1.2c0.5,0.5,0.8,0.8,1.1,0.9c0.3,0.1,0.5,0,0.7-0.1
		c0.2-0.2,0.3-0.4,0.2-0.6C111.7,115.7,111.5,115.3,111,114.8z M108.4,117c0.3,0.4,0.5,0.8,0.6,1.1c0.1,0.3,0.1,0.6,0,0.9
		c-0.1,0.3-0.2,0.5-0.5,0.7c-0.2,0.1-0.4,0.2-0.6,0.2c-0.2,0-0.4,0-0.6-0.1c-0.2-0.1-0.4-0.2-0.6-0.4c-0.2-0.2-0.4-0.4-0.7-0.8
		c-0.3-0.4-0.5-0.8-0.6-1.1c-0.1-0.3-0.1-0.6,0-0.9c0.1-0.3,0.2-0.5,0.5-0.7c0.3-0.2,0.7-0.3,1-0.2C107.5,116,107.9,116.4,108.4,117
		L108.4,117z M107.9,117.3c-0.4-0.6-0.8-0.9-1-1c-0.3-0.1-0.5-0.1-0.7,0.1c-0.2,0.1-0.3,0.4-0.3,0.6c0,0.3,0.2,0.7,0.6,1.3
		c0.4,0.6,0.8,0.9,1,1c0.3,0.1,0.5,0.1,0.7-0.1c0.2-0.1,0.3-0.3,0.3-0.6C108.6,118.4,108.3,117.9,107.9,117.3z"/>
	<path id="path22" class="st2" d="M105.2,119.3c0.3,0.4,0.4,0.8,0.5,1.1c0.1,0.3,0.1,0.6,0,0.9c-0.1,0.3-0.3,0.5-0.5,0.6
		c-0.2,0.1-0.4,0.2-0.6,0.2c-0.2,0-0.4,0-0.6-0.1c-0.2-0.1-0.4-0.2-0.6-0.4c-0.2-0.2-0.4-0.4-0.6-0.8c-0.3-0.4-0.4-0.8-0.5-1.1
		c-0.1-0.3-0.1-0.6,0-0.9c0.1-0.3,0.3-0.5,0.5-0.6c0.3-0.2,0.7-0.3,1.1-0.1C104.3,118.2,104.8,118.6,105.2,119.3L105.2,119.3z
		 M104.7,119.6c-0.4-0.6-0.7-1-1-1.1c-0.3-0.1-0.5-0.1-0.7,0c-0.2,0.1-0.3,0.3-0.3,0.6c0,0.3,0.2,0.7,0.5,1.3c0.4,0.6,0.7,1,1,1.1
		c0.3,0.1,0.5,0.1,0.7,0c0.2-0.1,0.3-0.3,0.3-0.6C105.3,120.6,105.1,120.2,104.7,119.6z M101.8,121.3c0.2,0.4,0.4,0.8,0.4,1.2
		c0.1,0.3,0,0.6-0.1,0.9c-0.1,0.2-0.3,0.4-0.6,0.6c-0.2,0.1-0.4,0.2-0.6,0.2c-0.2,0-0.4-0.1-0.6-0.2c-0.2-0.1-0.4-0.2-0.5-0.4
		c-0.2-0.2-0.4-0.5-0.6-0.9c-0.2-0.4-0.4-0.8-0.4-1.2c-0.1-0.3,0-0.6,0.1-0.9c0.1-0.2,0.3-0.4,0.6-0.6c0.4-0.2,0.7-0.2,1.1-0.1
		C101,120.2,101.4,120.6,101.8,121.3z M101.3,121.6c-0.3-0.6-0.6-1-0.9-1.1c-0.3-0.1-0.5-0.1-0.7,0c-0.2,0.1-0.3,0.3-0.4,0.6
		c0,0.3,0.1,0.7,0.4,1.4c0.3,0.6,0.6,1,0.9,1.1c0.3,0.1,0.5,0.1,0.7,0c0.2-0.1,0.3-0.3,0.4-0.5C101.8,122.7,101.6,122.2,101.3,121.6
		z M98.2,123.2c0.2,0.5,0.3,0.9,0.3,1.2c0,0.3,0,0.6-0.2,0.8c-0.1,0.2-0.3,0.4-0.6,0.5c-0.2,0.1-0.4,0.1-0.6,0.1
		c-0.2,0-0.4-0.1-0.5-0.2c-0.2-0.1-0.3-0.3-0.5-0.5c-0.2-0.2-0.3-0.5-0.5-0.9c-0.2-0.5-0.3-0.9-0.3-1.2c0-0.3,0-0.6,0.2-0.8
		c0.1-0.2,0.3-0.4,0.6-0.5c0.4-0.2,0.7-0.1,1.1,0C97.6,121.9,97.9,122.4,98.2,123.2L98.2,123.2z M97.7,123.4
		c-0.3-0.7-0.5-1.1-0.8-1.2c-0.2-0.2-0.5-0.2-0.7-0.1c-0.2,0.1-0.4,0.3-0.4,0.6c-0.1,0.3,0,0.7,0.3,1.4c0.3,0.7,0.5,1.1,0.8,1.2
		c0.2,0.2,0.5,0.2,0.7,0.1c0.2-0.1,0.4-0.3,0.4-0.5C98.1,124.5,98,124,97.7,123.4z M94.6,124.6c0.2,0.5,0.2,0.9,0.2,1.2
		c0,0.3-0.1,0.6-0.2,0.8c-0.1,0.2-0.4,0.4-0.7,0.5c-0.2,0.1-0.4,0.1-0.6,0.1c-0.2,0-0.4-0.1-0.5-0.3c-0.2-0.1-0.3-0.3-0.4-0.5
		c-0.1-0.2-0.3-0.5-0.4-0.9c-0.2-0.5-0.2-0.9-0.2-1.2c0-0.3,0.1-0.6,0.2-0.8c0.1-0.2,0.4-0.4,0.7-0.5c0.4-0.1,0.7-0.1,1.1,0.1
		C94,123.3,94.3,123.8,94.6,124.6z M94.1,124.8c-0.2-0.7-0.4-1.1-0.7-1.3c-0.2-0.2-0.5-0.2-0.7-0.1c-0.2,0.1-0.4,0.2-0.5,0.5
		c-0.1,0.3,0,0.7,0.2,1.4c0.2,0.7,0.4,1.1,0.7,1.3c0.2,0.2,0.5,0.2,0.7,0.1c0.2-0.1,0.4-0.2,0.5-0.5
		C94.3,125.9,94.3,125.4,94.1,124.8z M90.8,125.8c0.1,0.5,0.2,0.9,0.1,1.2c0,0.3-0.1,0.6-0.3,0.8c-0.2,0.2-0.4,0.3-0.7,0.4
		c-0.2,0.1-0.4,0.1-0.6,0c-0.2-0.1-0.4-0.1-0.5-0.3c-0.1-0.1-0.3-0.3-0.4-0.6c-0.1-0.2-0.2-0.6-0.3-1c-0.1-0.5-0.2-0.9-0.1-1.2
		c0-0.3,0.1-0.6,0.3-0.8c0.2-0.2,0.4-0.4,0.7-0.4c0.4-0.1,0.8,0,1,0.2C90.3,124.5,90.6,125,90.8,125.8L90.8,125.8z M90.3,125.9
		c-0.2-0.7-0.3-1.1-0.6-1.3c-0.2-0.2-0.4-0.3-0.7-0.2c-0.2,0.1-0.4,0.2-0.5,0.5c-0.1,0.3-0.1,0.7,0.1,1.4c0.2,0.7,0.3,1.1,0.6,1.3
		c0.2,0.2,0.4,0.3,0.7,0.2c0.2-0.1,0.4-0.2,0.5-0.4C90.4,127.1,90.4,126.6,90.3,125.9z M87,126.6c0.1,0.5,0.1,0.9,0.1,1.2
		c-0.1,0.3-0.2,0.6-0.3,0.8c-0.2,0.2-0.4,0.3-0.7,0.4c-0.2,0-0.4,0-0.6,0c-0.2-0.1-0.4-0.2-0.5-0.3c-0.1-0.2-0.3-0.3-0.4-0.6
		c-0.1-0.2-0.2-0.6-0.3-1c-0.1-0.5-0.1-0.9-0.1-1.2c0-0.3,0.2-0.6,0.3-0.8c0.2-0.2,0.4-0.3,0.7-0.4c0.4-0.1,0.8,0,1,0.3
		C86.6,125.3,86.8,125.8,87,126.6L87,126.6z M86.4,126.7c-0.1-0.7-0.3-1.1-0.5-1.3c-0.2-0.2-0.4-0.3-0.7-0.2c-0.2,0-0.4,0.2-0.5,0.4
		c-0.1,0.3-0.1,0.7,0,1.4c0.1,0.7,0.3,1.1,0.5,1.3c0.2,0.2,0.4,0.3,0.7,0.2c0.2,0,0.4-0.2,0.5-0.4C86.5,127.9,86.6,127.4,86.4,126.7
		L86.4,126.7z"/>
</g>
<path id="path25" class="st2" d="M63.5,113.1l0.6,0.2l-1.4,4l4.1-3.1l0.7,0.2l-1.7,5.1l-0.6-0.2l1.3-4l-4.1,3.1l-0.7-0.2L63.5,113.1
	z M71.3,115.3l-0.4,2.3c0.3,0.1,0.6,0,0.7-0.1c0.2-0.1,0.4-0.4,0.6-0.8c0.2-0.3,0.4-0.5,0.5-0.7c0.1-0.1,0.3-0.2,0.5-0.3
	c0.2-0.1,0.4-0.1,0.6,0c0.2,0,0.4,0.1,0.4,0.1l-0.1,0.6c0,0-0.1,0-0.1,0c-0.1,0-0.1,0-0.1,0c-0.2,0-0.4,0-0.5,0.1
	c-0.1,0.1-0.3,0.3-0.5,0.6c-0.2,0.4-0.4,0.6-0.5,0.7c-0.1,0.1-0.3,0.2-0.6,0.3c0.3,0.2,0.6,0.5,0.8,1.1l0.8,2l-0.9-0.2l-0.6-1.6
	c-0.2-0.4-0.3-0.7-0.5-0.9c-0.1-0.2-0.3-0.3-0.6-0.4l-0.4,2.5l-0.7-0.1l0.4-2.5c-0.2,0-0.4,0-0.6,0.1c-0.2,0.1-0.4,0.3-0.8,0.7
	l-0.1,0.1l-1.1,1.3l-0.9-0.2l1.4-1.6c0.4-0.5,0.8-0.7,1.2-0.8c-0.2-0.1-0.3-0.2-0.4-0.4c-0.1-0.2-0.2-0.4-0.3-0.9
	c-0.1-0.4-0.2-0.7-0.3-0.8c-0.1-0.1-0.2-0.2-0.5-0.2l-0.3,0l0.1-0.6c0,0,0.2,0,0.4,0.1c0.2,0,0.4,0.1,0.6,0.2
	c0.2,0.1,0.3,0.3,0.3,0.4c0.1,0.2,0.2,0.4,0.2,0.8c0.1,0.5,0.2,0.8,0.3,1c0.1,0.1,0.3,0.2,0.7,0.3l0.4-2.3L71.3,115.3z M74.3,121.1
	l0.1-5.4l3.9,0.1l0,0.6l-3.2-0.1l0,1.6l3,0.1l0,0.6l-3-0.1l0,1.8l3.3,0.1l0,0.6L74.3,121.1z M79.5,121.1l-0.4-5.4l2-0.2
	c0.4,0,0.7,0,1,0.1c0.3,0.1,0.5,0.2,0.6,0.5c0.2,0.2,0.2,0.4,0.3,0.7c0,0.2,0,0.4-0.1,0.7c-0.1,0.2-0.3,0.4-0.5,0.5
	c0.3,0.1,0.6,0.2,0.8,0.4c0.2,0.2,0.3,0.5,0.3,0.8c0,0.3,0,0.5-0.1,0.7c-0.1,0.2-0.2,0.4-0.4,0.5c-0.1,0.1-0.3,0.2-0.6,0.3
	c-0.2,0.1-0.5,0.1-0.9,0.2L79.5,121.1z M80,117.9l1.2-0.1c0.3,0,0.5-0.1,0.7-0.1c0.2-0.1,0.3-0.2,0.4-0.3c0.1-0.1,0.1-0.3,0.1-0.5
	c0-0.2-0.1-0.3-0.2-0.5c-0.1-0.1-0.2-0.2-0.4-0.3c-0.2,0-0.4,0-0.8,0l-1.1,0.1L80,117.9z M80.2,120.4l1.3-0.1c0.2,0,0.4,0,0.5-0.1
	c0.2,0,0.3-0.1,0.4-0.2c0.1-0.1,0.2-0.2,0.2-0.3c0.1-0.1,0.1-0.3,0.1-0.5c0-0.2-0.1-0.4-0.2-0.5c-0.1-0.1-0.3-0.2-0.5-0.3
	c-0.2,0-0.4-0.1-0.8,0l-1.2,0.1L80.2,120.4z M87.9,117.9l0.7,0c0,0.6-0.2,1.1-0.5,1.5c-0.3,0.4-0.7,0.6-1.3,0.8
	c-0.6,0.1-1,0.1-1.5,0c-0.4-0.1-0.8-0.4-1-0.8c-0.3-0.4-0.5-0.8-0.6-1.3c-0.1-0.5-0.1-1,0-1.5c0.1-0.5,0.3-0.8,0.7-1.1
	c0.3-0.3,0.7-0.5,1.2-0.6c0.5-0.1,1-0.1,1.4,0.1c0.4,0.2,0.8,0.5,1,1l-0.6,0.3c-0.2-0.4-0.4-0.6-0.7-0.7c-0.3-0.1-0.6-0.1-0.9-0.1
	c-0.4,0.1-0.7,0.3-0.9,0.5c-0.2,0.3-0.4,0.6-0.4,0.9c0,0.4,0,0.7,0.1,1c0.1,0.4,0.3,0.8,0.5,1.1c0.2,0.3,0.5,0.5,0.8,0.6
	c0.3,0.1,0.6,0.1,0.9,0c0.4-0.1,0.7-0.3,0.9-0.6C87.8,118.8,87.9,118.4,87.9,117.9z M88.4,114.1l0.7-0.2l0.8,2.2
	c0.3-0.1,0.5-0.2,0.6-0.4c0.1-0.2,0.1-0.5,0.2-1c0-0.4,0.1-0.7,0.1-0.8c0-0.2,0.1-0.3,0.3-0.5c0.1-0.2,0.3-0.3,0.5-0.3
	c0.3-0.1,0.4-0.1,0.4-0.1l0.2,0.6c0,0-0.1,0-0.1,0c-0.1,0-0.1,0-0.1,0c-0.2,0.1-0.4,0.2-0.4,0.3c-0.1,0.1-0.1,0.4-0.1,0.8
	c0,0.5-0.1,0.8-0.2,1c-0.1,0.2-0.2,0.3-0.3,0.4c0.4,0,0.8,0.2,1.3,0.6l1.6,1.3l-0.8,0.3l-1.3-1.1c-0.4-0.3-0.6-0.5-0.9-0.6
	c-0.2-0.1-0.4-0.1-0.7,0l0.8,2.4l-0.7,0.2L88.4,114.1z"/>
</svg>
