<?xml version="1.0" encoding="UTF-8" standalone="no"?>
<svg
   xmlns:dc="http://purl.org/dc/elements/1.1/"
   xmlns:cc="http://creativecommons.org/ns#"
   xmlns:rdf="http://www.w3.org/1999/02/22-rdf-syntax-ns#"
   xmlns:svg="http://www.w3.org/2000/svg"
   xmlns="http://www.w3.org/2000/svg"
   viewBox="0 0 155.9055 155.9055"
   id="svg18"
   height="155.9055"
   width="155.9055"
   version="1.1">
  <metadata
     id="metadata24">
    <rdf:RDF>
      <cc:Work
         rdf:about="">
        <dc:format>image/svg+xml</dc:format>
        <dc:type
           rdf:resource="http://purl.org/dc/dcmitype/StillImage" />
      </cc:Work>
    </rdf:RDF>
  </metadata>
  <defs
     id="defs22" />
  <path
     id="path2"
     style="fill:none;stroke:#1b1918;stroke-width:1.41729999;stroke-linecap:butt;stroke-linejoin:miter;stroke-dasharray:none"
     d="m 77.9528,21.2598 c 31.3106,0 56.6929,25.3823 56.6929,56.693 0,31.3106 -25.3823,56.6929 -56.6929,56.6929 -31.3107,0 -56.693,-25.3823 -56.693,-56.6929 0,-31.3107 25.3823,-56.693 56.693,-56.693 z" />
  <path
     id="path4"
     style="fill:none;stroke:#1b1918;stroke-width:0.7087;stroke-linecap:butt;stroke-linejoin:miter;stroke-dasharray:none"
     d="m 77.9528,23.5984 c 30.0191,0 54.3543,24.3352 54.3543,54.3544 0,30.0191 -24.3352,54.3543 -54.3543,54.3543 -30.0192,0 -54.3544,-24.3352 -54.3544,-54.3543 0,-30.0192 24.3352,-54.3544 54.3544,-54.3544 z" />
  <path
     id="path6"
     style="fill:none;stroke:#1b1918;stroke-width:0.7087;stroke-linecap:butt;stroke-linejoin:miter;stroke-dasharray:none"
     d="m 77.9528,34.3913 c 24.0582,0 43.5614,19.5033 43.5614,43.5615 0,24.0582 -19.5032,43.5614 -43.5614,43.5614 -24.0582,0 -43.5615,-19.5032 -43.5615,-43.5614 0,-24.0582 19.5033,-43.5615 43.5615,-43.5615 z" />
  <path
     id="path8"
     style="fill:#1b1918;fill-rule:evenodd"
     d="m 48.0288,120.1371 -0.4994,-0.3898 2.5693,-3.2924 -4.7826,1.5653 -0.5449,-0.4252 3.2443,-4.1579 0.4995,0.3898 -2.5623,3.2839 4.7699,-1.5613 0.5505,0.4297 z m -0.902,-7.4735 -3.6433,3.8128 -0.506,-0.4833 1.5012,-1.5712 -1.9701,-1.8828 -1.5015,1.5713 -0.506,-0.4836 3.6437,-3.8129 0.506,0.4836 -1.715,1.7946 1.9704,1.8828 1.7149,-1.7946 z m -8.2377,-0.8079 -1.9857,-2.5243 3.6587,-2.878 -0.2914,-0.3705 1.453,-1.1429 0.3827,0.4864 -0.9666,0.7603 2.1583,2.7439 0.9669,-0.7602 0.3824,0.4861 -1.4531,1.1432 -0.2503,-0.3183 c -0.7676,0.0601 -1.9179,0.6931 -3.4489,1.8975 z m -1.0664,-2.3567 1.1384,1.4473 0.2123,-0.1669 c 0.3532,-0.2778 0.8617,-0.6262 1.5242,-1.0449 0.6619,-0.4189 1.2642,-0.6896 1.8045,-0.8149 l -1.5072,-1.916 z m -2.0588,-1.6042 -0.3408,-0.5337 3.5198,-2.2476 -5.0309,-0.1191 -0.3719,-0.5822 4.445,-2.8383 0.341,0.5337 -3.5107,2.2419 5.0176,0.1182 0.3759,0.5888 z m 1.6517,-7.2853 -4.7061,2.3805 -0.8932,-1.7657 c -0.1817,-0.3591 -0.28,-0.6712 -0.2953,-0.9374 -0.0145,-0.2653 0.0467,-0.5094 0.1825,-0.7322 0.135,-0.2233 0.3107,-0.3894 0.5278,-0.4994 0.2002,-0.1012 0.4179,-0.1423 0.65,-0.1236 0.2322,0.0184 0.459,0.1103 0.6798,0.2749 -0.061,-0.3268 -0.0292,-0.6179 0.0952,-0.8722 0.123,-0.2545 0.3217,-0.4515 0.5959,-0.5901 0.2211,-0.112 0.4498,-0.1684 0.6865,-0.1713 0.2364,-0.0028 0.4402,0.0386 0.6126,0.1233 0.1712,0.0857 0.3359,0.2183 0.4926,0.3977 0.1574,0.1803 0.3116,0.4201 0.4635,0.72 z m -3.0433,0.7554 -0.515,-1.0176 c -0.1395,-0.2761 -0.2585,-0.4649 -0.3552,-0.5661 -0.1273,-0.1349 -0.2667,-0.2146 -0.4167,-0.2389 -0.1499,-0.0247 -0.3073,0.0042 -0.4725,0.0878 -0.1568,0.0794 -0.2758,0.1863 -0.356,0.3218 -0.082,0.1346 -0.1098,0.2837 -0.0831,0.445 0.0266,0.1613 0.1256,0.4113 0.2962,0.7486 l 0.476,0.9411 z m 2.1754,-1.1004 -0.5931,-1.1721 c -0.102,-0.2015 -0.1811,-0.339 -0.2378,-0.4133 -0.0972,-0.1295 -0.201,-0.2287 -0.3098,-0.2945 -0.1091,-0.066 -0.2367,-0.1006 -0.3835,-0.1049 -0.1463,-0.004 -0.2946,0.032 -0.4448,0.1083 -0.1763,0.089 -0.3056,0.2112 -0.39,0.3677 -0.0851,0.1559 -0.1126,0.3268 -0.0845,0.5133 0.0278,0.1854 0.1179,0.4289 0.2693,0.7279 l 0.5508,1.0888 z m -6.2059,-2.1962 -0.2305,-0.5899 3.8903,-1.5194 -4.9116,-1.0959 -0.2514,-0.6437 4.9124,-1.9185 0.2304,0.5899 -3.8797,1.5154 4.8985,1.093 0.254,0.6506 z m -2.1921,-6.1473 -0.7222,-3.1291 4.536,-1.0469 -0.1061,-0.4592 1.8015,-0.4155 0.1391,0.6029 -1.1984,0.2764 0.7849,3.4018 1.1985,-0.2766 0.1391,0.6029 -1.8014,0.4158 -0.091,-0.3948 c -0.7203,-0.2721 -2.0304,-0.1891 -3.9288,0.2489 z m 0.0383,-2.5863 0.4139,1.7943 0.2633,-0.0609 c 0.4377,-0.1009 1.0463,-0.1998 1.8238,-0.2962 0.7776,-0.0975 1.4377,-0.0859 1.98,0.0306 l -0.5482,-2.3754 z m -1.1205,-1.8933 -0.0865,-0.6967 3.005,-2.1132 -3.4024,-1.0908 -0.0845,-0.6823 4.3146,1.455 c 0.5397,0.182 0.8983,0.3413 1.0749,0.4791 0.1769,0.1375 0.2826,0.352 0.3189,0.6446 0.0219,0.1777 0.0077,0.4011 -0.0431,0.6709 l -0.5921,0.0734 c 0.0845,-0.1987 0.1137,-0.4013 0.0879,-0.6083 -0.021,-0.1683 -0.0939,-0.3064 -0.2175,-0.4161 -0.1236,-0.1083 -0.3875,-0.2129 -0.792,-0.3124 z m 4.6128,-4.7551 -5.3292,-1.8725 -0.0218,-0.7671 5.211,-2.2958 0.0223,0.794 -1.5803,0.6551 0.063,2.2198 1.614,0.5267 z m -2.2076,-1.4553 -0.0511,-1.7963 -1.4459,0.591 c -0.4394,0.1786 -0.8028,0.3141 -1.0899,0.4094 0.3458,0.0626 0.6859,0.1499 1.0233,0.2622 z m -3.1998,-4.989 0.25,-3.2828 5.2586,0.4003 -0.053,0.6979 -4.6418,-0.3535 -0.1437,1.8876 2.7091,0.2064 c 0.5508,0.0419 0.9513,0.0983 1.2036,0.1689 0.2528,0.0709 0.443,0.195 0.5734,0.3711 0.1296,0.1763 0.1846,0.3923 0.1653,0.6454 -0.0119,0.1542 -0.0578,0.3368 -0.1378,0.5474 l -0.6074,-0.1721 c 0.0674,-0.1091 0.1043,-0.2049 0.1102,-0.2857 0.0119,-0.1568 -0.0377,-0.2798 -0.1505,-0.3671 -0.1128,-0.0873 -0.3886,-0.148 -0.8294,-0.1814 z m 0.385,-5.0091 0.1252,-0.6885 2.2105,0.402 0.2245,-1.2357 c 0.1052,-0.5774 0.2486,-0.983 0.4297,-1.2183 0.1823,-0.2338 0.3997,-0.3866 0.6512,-0.4581 0.2522,-0.0703 0.5017,-0.0833 0.7469,-0.0388 0.4019,0.0731 0.7299,0.2735 0.9822,0.6026 0.2537,0.328 0.3121,0.864 0.1766,1.6093 l -0.358,1.9686 z m 4.727,0.148 0.2279,-1.2535 c 0.0924,-0.5088 0.0618,-0.856 -0.0898,-1.0434 -0.152,-0.1862 -0.3566,-0.3033 -0.6115,-0.3495 -0.2063,-0.0374 -0.3929,-0.0142 -0.5584,0.072 -0.1653,0.085 -0.2866,0.2174 -0.3625,0.396 -0.0763,0.1783 -0.1554,0.4895 -0.2362,0.934 l -0.1667,0.9179 z m 1.3326,-3.9625 -5.076,-1.4313 0.1899,-0.6732 2.0917,0.5896 0.7395,-2.6229 -2.0916,-0.5899 0.1899,-0.6735 5.076,1.4312 -0.1899,0.6736 -2.3891,-0.6736 -0.7395,2.6229 2.389,0.6738 z m -3.3956,-7.3123 0.2868,-0.6381 2.0492,0.9216 0.515,-1.1455 c 0.3377,-0.7512 0.6988,-1.1826 1.084,-1.2946 0.3841,-0.1114 0.7529,-0.0881 1.1055,0.0706 0.3731,0.1675 0.6421,0.4405 0.8076,0.8206 0.165,0.3784 0.0936,0.9116 -0.2163,1.6002 l -0.822,1.828 z m 4.5524,1.2801 0.5219,-1.1599 c 0.1791,-0.3983 0.2423,-0.7186 0.1887,-0.9581 -0.0535,-0.2407 -0.2279,-0.4269 -0.5238,-0.5601 -0.2004,-0.0902 -0.394,-0.1112 -0.5783,-0.0632 -0.1845,0.0476 -0.3339,0.1496 -0.4484,0.3055 -0.114,0.1548 -0.2625,0.434 -0.4439,0.8371 l -0.3821,0.8495 z m -2.6646,-5.4785 0.2872,-0.6381 4.8098,2.1629 -0.2869,0.6381 z m 1.0605,-2.1812 0.3163,-0.5485 3.6182,2.0854 -2.2162,-4.5181 0.345,-0.5987 4.5695,2.6337 -0.3167,0.5487 -3.6085,-2.0797 2.2105,4.5059 -0.349,0.6049 z m 0.2154,-2.9107 0.2208,-0.3829 c 0.2449,0.1825 0.3921,0.3946 0.4402,0.6349 0.0497,0.241 -0.0022,0.4933 -0.155,0.7583 -0.1531,0.2656 -0.3458,0.438 -0.5766,0.5162 -0.2319,0.0774 -0.489,0.057 -0.7716,-0.0652 l 0.2209,-0.383 c 0.1601,0.0542 0.301,0.0576 0.4209,0.0119 0.1208,-0.0447 0.2237,-0.1417 0.3076,-0.2874 0.0975,-0.1692 0.1369,-0.3163 0.1173,-0.4425 -0.0181,-0.1253 -0.093,-0.2463 -0.2245,-0.3603 z m 4.1349,-3.8792 2.5466,-3.2632 4.1579,3.2442 -0.4306,0.5519 -3.67,-2.8638 -1.6855,2.16 3.6698,2.8638 -0.4303,0.5517 z m 7.5229,-0.8356 -3.6579,-3.7993 1.4344,-1.3808 c 0.252,-0.2426 0.4566,-0.4158 0.6134,-0.5204 0.2163,-0.1488 0.43,-0.2404 0.6398,-0.2755 0.2109,-0.034 0.43,-0.0099 0.6576,0.0725 0.2276,0.0825 0.4317,0.2183 0.6129,0.4065 0.3101,0.322 0.4705,0.694 0.479,1.1152 0.0102,0.4215 -0.2545,0.8912 -0.7923,1.4088 l -0.9748,0.9386 1.4916,1.5491 z m -1.4171,-2.4803 0.9817,-0.9451 c 0.3257,-0.3132 0.4977,-0.5947 0.5179,-0.8479 0.0198,-0.2522 -0.0757,-0.4878 -0.2878,-0.708 -0.1522,-0.1582 -0.3231,-0.256 -0.5125,-0.2917 -0.1896,-0.036 -0.3682,-0.0088 -0.5337,0.081 -0.1066,0.0596 -0.2739,0.1987 -0.5012,0.4176 l -0.972,0.9357 z m 4.9947,-0.9094 -3.2607,-4.1451 2.9928,-2.3542 0.3824,0.4862 -2.4429,1.9219 1.002,1.2736 2.2868,-1.7989 0.3823,0.4861 -2.2867,1.7989 1.1112,1.4125 2.5413,-1.9993 0.3827,0.4865 z m 1.449,-7.6876 2.7069,-1.7282 2.5052,3.9234 0.3971,-0.2537 0.995,1.5582 -0.5216,0.3331 -0.6619,-1.0367 -2.9423,1.8788 0.6619,1.0367 -0.5216,0.333 -0.995,-1.5582 0.3416,-0.2179 c 0.015,-0.7699 -0.5017,-1.9764 -1.5503,-3.6185 z m 2.4497,-0.8299 -1.5519,0.991 0.1454,0.2276 c 0.2418,0.3787 0.5389,0.919 0.8901,1.6194 0.352,0.6999 0.5627,1.3258 0.6341,1.8757 l 2.0548,-1.3119 z m 1.8678,-1.774 3.6935,-1.8683 2.3806,4.7058 -0.6245,0.3161 -2.101,-4.1539 -2.4452,1.2368 2.1013,4.1538 -0.6242,0.3158 z m 7.1532,2.4268 -1.7198,-4.9859 1.8822,-0.6491 c 0.3309,-0.114 0.5894,-0.1848 0.7756,-0.214 0.2588,-0.0437 0.4913,-0.0369 0.6962,0.0195 0.2055,0.0576 0.3943,0.1718 0.5661,0.3425 0.172,0.1706 0.2999,0.3795 0.3849,0.6267 0.146,0.4224 0.135,0.8274 -0.0346,1.2129 -0.1681,0.3867 -0.606,0.7016 -1.3116,0.9448 l -1.2789,0.4411 0.7012,2.0333 z m -0.2418,-2.8463 1.2881,-0.4445 c 0.4272,-0.1471 0.7019,-0.3299 0.8269,-0.5513 0.1238,-0.2205 0.1363,-0.4742 0.0368,-0.7631 -0.0717,-0.2078 -0.1857,-0.3685 -0.3424,-0.4805 -0.1568,-0.1122 -0.3303,-0.1629 -0.5185,-0.151 -0.1213,0.0093 -0.3319,0.0649 -0.6301,0.1678 l -1.2756,0.4399 z m 3.7219,-3.8823 0.6171,-0.1426 0.9391,4.0694 1.7966,-4.7007 0.6735,-0.1553 1.1858,5.1389 -0.6174,0.1423 -0.9366,-4.0586 -1.7918,4.6882 -0.6805,0.157 z m 6.3743,4.0119 -0.6491,-5.2339 0.6942,-0.0859 0.2675,2.1563 2.7046,-0.3353 -0.2676,-2.1566 0.6945,-0.0862 0.6491,5.2339 -0.6945,0.0861 -0.3055,-2.4635 -2.7046,0.3356 0.3056,2.4633 z m 5.127,-5.7941 0.633,-0.0178 0.1185,4.1746 2.6881,-4.2543 0.6908,-0.0198 0.1496,5.2719 -0.6332,0.0178 -0.1182,-4.1635 -2.6807,4.2432 -0.6982,0.0198 z m 5.4187,5.2518 0.6492,-5.2339 1.038,0.129 0.7781,3.8582 c 0.072,0.3592 0.1225,0.6276 0.1536,0.8056 0.0831,-0.1822 0.2118,-0.451 0.3844,-0.8045 l 1.711,-3.484 0.9272,0.1151 -0.6491,5.2339 -0.6653,-0.0828 0.5431,-4.3781 -2.0707,4.1887 -0.6239,-0.0774 -0.9575,-4.6462 -0.5531,4.4589 z m 5.5242,0.7373 3.1623,-4.6803 0.7475,0.1732 0.9,5.6225 -0.7739,-0.1794 -0.233,-1.6949 -2.1634,-0.5017 -0.9184,1.4278 z m 1.9672,-1.7666 1.7507,0.406 -0.2052,-1.5486 c -0.0613,-0.4703 -0.1004,-0.8564 -0.1197,-1.1583 -0.1482,0.3187 -0.3191,0.6257 -0.513,0.9236 z m 4.0762,3.3679 1.484,-4.4122 -1.6478,-0.5541 0.1973,-0.5865 3.9586,1.3311 -0.1973,0.5865 -1.6478,-0.5539 -1.4839,4.4122 z m 2.9821,1.0842 2.1631,-4.8098 3.4727,1.5616 -0.2537,0.5644 -2.8346,-1.2748 -0.6647,1.478 2.6535,1.1934 -0.2537,0.5641 -2.6535,-1.1934 -0.737,1.639 2.9488,1.3263 -0.2537,0.5644 z m 7.3959,-2.2748 2.8525,1.6441 -2.6337,4.5692 -0.6063,-0.3495 2.3244,-4.0332 -1.6399,-0.945 -1.3566,2.3536 c -0.2761,0.4787 -0.5001,0.8155 -0.6727,1.0122 -0.1732,0.1976 -0.3674,0.3155 -0.5825,0.3569 -0.2149,0.0408 -0.4334,-0.0031 -0.6534,-0.1298 -0.1341,-0.0774 -0.2786,-0.1976 -0.434,-0.3609 l 0.4176,-0.4734 c 0.0691,0.108 0.1397,0.1826 0.21,0.2231 0.1361,0.0785 0.2685,0.0868 0.396,0.023 0.1276,-0.0641 0.3013,-0.2869 0.5222,-0.6696 z m 4.2273,2.6283 0.5697,0.4059 -1.3036,1.8298 1.023,0.7285 c 0.4779,0.3407 0.7841,0.6429 0.9198,0.9071 0.1344,0.2645 0.18,0.5261 0.1381,0.784 -0.0437,0.2583 -0.1378,0.4896 -0.2823,0.6925 -0.2373,0.3328 -0.5582,0.5446 -0.9633,0.633 -0.4047,0.0899 -0.9147,-0.085 -1.5315,-0.5244 l -1.6296,-1.1611 z m -2.1439,4.2154 1.0378,0.7393 c 0.4212,0.2999 0.7483,0.4198 0.9828,0.3623 0.233,-0.0584 0.4257,-0.1939 0.576,-0.4051 0.1219,-0.1707 0.1797,-0.3495 0.1723,-0.5358 -0.007,-0.1856 -0.0751,-0.352 -0.2041,-0.4966 -0.129,-0.1448 -0.3773,-0.3487 -0.7452,-0.6109 l -0.7597,-0.5411 z m 7.7967,3.8682 c 0.6645,-0.5684 1.338,-0.8343 2.0197,-0.7988 0.6815,0.0357 1.2631,0.3362 1.7467,0.9014 0.3169,0.3705 0.5134,0.7792 0.5916,1.2277 0.0774,0.4473 0.0252,0.8847 -0.1579,1.3107 -0.182,0.4255 -0.4731,0.8104 -0.8733,1.1529 -0.406,0.3472 -0.8399,0.5762 -1.3003,0.6857 -0.4612,0.1105 -0.9025,0.0856 -1.3235,-0.0743 -0.4232,-0.1599 -0.7829,-0.4144 -1.0806,-0.7622 -0.3231,-0.3779 -0.5198,-0.7929 -0.5924,-1.2459 -0.0717,-0.4524 -0.0167,-0.8903 0.1675,-1.313 0.1834,-0.4221 0.451,-0.7835 0.8025,-1.0842 z m 0.4601,0.5564 c -0.4822,0.4127 -0.7509,0.8671 -0.8062,1.3635 -0.0553,0.496 0.0845,0.9408 0.4195,1.3325 0.3416,0.3992 0.7614,0.6069 1.2626,0.6259 0.5,0.0179 1.0077,-0.1933 1.5225,-0.6335 0.3257,-0.2787 0.5629,-0.5774 0.7115,-0.8949 0.1479,-0.3172 0.1984,-0.6398 0.1508,-0.9658 -0.0485,-0.3268 -0.1848,-0.6222 -0.4108,-0.8861 -0.3206,-0.375 -0.7256,-0.5876 -1.2143,-0.6378 -0.489,-0.0504 -1.0338,0.1817 -1.6356,0.6962 z m 5.726,2.5951 1.9834,2.7737 -0.5032,0.36 -1.5766,-2.2048 -3.7865,2.7077 -0.4071,-0.5692 z m -1.9849,6.3068 4.5647,-2.6419 0.9972,1.7232 c 0.1752,0.3028 0.2945,0.5431 0.3586,0.72 0.0924,0.2458 0.1301,0.4754 0.1142,0.6874 -0.0175,0.2126 -0.0935,0.4198 -0.2279,0.6211 -0.1346,0.2013 -0.3152,0.3668 -0.5414,0.4978 -0.3869,0.2239 -0.7863,0.2908 -1.1974,0.1981 -0.4115,-0.091 -0.8044,-0.4606 -1.1783,-1.1066 l -0.6778,-1.171 -1.8612,1.0774 z m 2.7474,-0.7818 0.6826,1.1792 c 0.2265,0.3912 0.4583,0.6257 0.6996,0.7059 0.2401,0.0793 0.4915,0.0433 0.756,-0.1097 0.1902,-0.1103 0.3262,-0.2529 0.4062,-0.4281 0.0802,-0.1754 0.0966,-0.3551 0.049,-0.5377 -0.0323,-0.1176 -0.1273,-0.3135 -0.2854,-0.5865 l -0.6758,-1.1679 z m -0.3223,5.0882 4.8056,-2.173 0.2882,0.6375 -1.98,0.8955 1.1228,2.4831 1.98,-0.8955 0.2883,0.6378 -4.8053,2.1731 -0.2885,-0.6378 2.2617,-1.0228 -1.1228,-2.4831 -2.2617,1.0227 z m 7.0537,3.1629 0.2064,0.5987 -3.9481,1.3618 4.8637,1.2926 0.2253,0.6533 -4.9858,1.7195 -0.2064,-0.5989 3.9376,-1.3581 -4.8506,-1.2889 -0.2279,-0.6602 z m 1.7861,5.8244 0.7402,4.0728 -5.1889,0.9431 -0.125,-0.6886 4.58,-0.8325 -0.4901,-2.6957 -4.58,0.8325 -0.125,-0.6885 z m -1.4799,7.8593 c 0.6222,-0.0176 1.127,0.032 1.5111,0.1488 0.3855,0.1179 0.684,0.2999 0.896,0.5468 0.2121,0.2458 0.3229,0.5604 0.3337,0.9437 0.008,0.282 -0.0411,0.5315 -0.1491,0.7495 -0.108,0.2168 -0.2676,0.3979 -0.4782,0.5417 -0.2098,0.1437 -0.468,0.259 -0.7739,0.3461 -0.3056,0.0884 -0.7206,0.1397 -1.2421,0.1545 -0.6185,0.0175 -1.1211,-0.0321 -1.5049,-0.1474 -0.3853,-0.1157 -0.684,-0.2977 -0.8972,-0.5446 -0.2135,-0.2457 -0.3254,-0.5621 -0.3365,-0.947 -0.0144,-0.5069 0.1548,-0.9108 0.5083,-1.2107 0.432,-0.3597 1.1426,-0.5533 2.1328,-0.5814 z m 0.0164,0.6627 c -0.8674,0.0247 -1.4414,0.1418 -1.7203,0.3524 -0.2804,0.2103 -0.4156,0.4649 -0.4071,0.7619 0.009,0.2968 0.1593,0.5432 0.451,0.7376 0.2928,0.1942 0.8711,0.2784 1.7362,0.2537 0.8674,-0.0246 1.4417,-0.1414 1.7204,-0.352 0.28,-0.2095 0.4155,-0.4663 0.4067,-0.7691 -0.008,-0.2971 -0.1414,-0.5318 -0.3982,-0.7027 -0.3263,-0.2126 -0.9238,-0.3061 -1.7887,-0.2818 z m 0.0845,3.5796 c 0.6222,0.0179 1.1233,0.0961 1.5004,0.2345 0.3781,0.1397 0.6658,0.3381 0.8634,0.5967 0.1978,0.2573 0.2905,0.5779 0.2798,0.9612 -0.008,0.282 -0.0715,0.5281 -0.1917,0.7395 -0.1201,0.2107 -0.2897,0.3824 -0.5082,0.514 -0.2174,0.1315 -0.4819,0.2318 -0.792,0.3016 -0.3104,0.0708 -0.7274,0.0986 -1.249,0.0836 -0.6188,-0.0176 -1.1174,-0.0955 -1.4941,-0.2327 -0.3781,-0.1372 -0.6661,-0.3359 -0.8648,-0.5945 -0.199,-0.2573 -0.2931,-0.5794 -0.2824,-0.9646 0.0145,-0.5068 0.2064,-0.9003 0.5763,-1.1798 0.4516,-0.3347 1.1721,-0.4875 2.1623,-0.4595 z m -0.0213,0.6628 c -0.8674,-0.0247 -1.4471,0.0595 -1.7376,0.254 -0.2917,0.1941 -0.4411,0.4407 -0.4496,0.7375 -0.008,0.2971 0.1281,0.5514 0.4085,0.762 0.2812,0.2106 0.8538,0.3274 1.7189,0.352 0.8677,0.0247 1.4474,-0.0595 1.7376,-0.2537 0.2917,-0.1933 0.4414,-0.4422 0.4499,-0.7449 0.008,-0.2971 -0.1111,-0.5389 -0.3577,-0.724 -0.3138,-0.231 -0.9049,-0.3583 -1.77,-0.3829 z m -0.1902,3.6754 c 0.6177,0.0765 1.1092,0.2021 1.4712,0.3756 0.3631,0.1749 0.631,0.3997 0.803,0.676 0.1724,0.275 0.2345,0.603 0.1871,0.9831 -0.0345,0.2803 -0.121,0.5193 -0.2608,0.7183 -0.1394,0.1981 -0.3248,0.3532 -0.5547,0.4634 -0.229,0.11 -0.5017,0.1852 -0.8169,0.2251 -0.3158,0.0411 -0.7336,0.0289 -1.2515,-0.0351 -0.614,-0.0763 -1.1033,-0.2013 -1.4653,-0.3736 -0.3634,-0.1724 -0.631,-0.3975 -0.8044,-0.6738 -0.1738,-0.2753 -0.237,-0.6047 -0.1894,-0.9871 0.0624,-0.5031 0.2906,-0.8767 0.6854,-1.1196 0.4813,-0.2906 1.213,-0.3742 2.1963,-0.2523 z m -0.0842,0.6576 c -0.8611,-0.1069 -1.4462,-0.0779 -1.7538,0.0882 -0.3087,0.1655 -0.4807,0.3968 -0.5176,0.6916 -0.0365,0.2948 0.0754,0.5607 0.3342,0.7971 0.2602,0.2362 0.8192,0.4071 1.6779,0.5134 0.8614,0.1068 1.4465,0.0782 1.7537,-0.0876 0.3087,-0.165 0.4814,-0.3983 0.5188,-0.699 0.0366,-0.2948 -0.0595,-0.5468 -0.2874,-0.7546 -0.2906,-0.2597 -0.8669,-0.4425 -1.7258,-0.5491 z m -0.4997,3.6726 c 0.6063,0.1406 1.082,0.3166 1.4241,0.5269 0.3427,0.2118 0.5856,0.4635 0.7282,0.756 0.1429,0.2917 0.1701,0.6242 0.0836,0.9976 -0.0637,0.2749 -0.1749,0.5034 -0.3344,0.6871 -0.1594,0.1825 -0.3598,0.3172 -0.5999,0.4031 -0.2392,0.0856 -0.5184,0.1318 -0.8362,0.1386 -0.3183,0.0079 -0.7325,-0.0477 -1.2407,-0.1656 -0.6029,-0.1397 -1.0763,-0.3152 -1.4185,-0.5241 -0.3432,-0.2095 -0.5862,-0.4615 -0.7299,-0.7543 -0.144,-0.2917 -0.1723,-0.6259 -0.0853,-1.0012 0.1145,-0.4941 0.3804,-0.8419 0.7985,-1.0423 0.5091,-0.2387 1.2456,-0.2458 2.2105,-0.0218 z m -0.1522,0.6451 c -0.8453,-0.1958 -1.4301,-0.2281 -1.7536,-0.0952 -0.3242,0.1327 -0.5195,0.3447 -0.5867,0.6338 -0.0669,0.2894 0.0164,0.5658 0.2491,0.828 0.2342,0.2619 0.7722,0.4901 1.6152,0.6854 0.8456,0.1962 1.4307,0.2285 1.7535,0.0956 0.3243,-0.1316 0.5202,-0.3459 0.5888,-0.6409 0.0669,-0.2895 -0.002,-0.5502 -0.2072,-0.7804 -0.262,-0.2886 -0.8161,-0.5307 -1.6591,-0.7263 z m -0.8119,3.5983 c 0.5902,0.1985 1.0466,0.4196 1.3669,0.6617 0.3206,0.244 0.538,0.5178 0.6517,0.8228 0.1142,0.3039 0.1094,0.6376 -0.0128,1.0007 -0.0901,0.2676 -0.2225,0.4844 -0.3991,0.6519 -0.1763,0.1662 -0.3886,0.281 -0.6361,0.343 -0.2463,0.0624 -0.5284,0.0814 -0.8456,0.0576 -0.3175,-0.0227 -0.7245,-0.1179 -1.2189,-0.2843 -0.5868,-0.1973 -1.0411,-0.4173 -1.3615,-0.6585 -0.3214,-0.2415 -0.5388,-0.5156 -0.6536,-0.8209 -0.1154,-0.3045 -0.1114,-0.6398 0.0113,-1.0049 0.1619,-0.4808 0.4601,-0.8011 0.8955,-0.9604 0.5298,-0.1885 1.2634,-0.1244 2.2022,0.1913 z m -0.2137,0.6276 c -0.8224,-0.2766 -1.4015,-0.3654 -1.7362,-0.2639 -0.3354,0.1007 -0.5502,0.2928 -0.6449,0.5743 -0.0947,0.2818 -0.0383,0.5647 0.1681,0.8479 0.2077,0.2834 0.7214,0.5624 1.5417,0.8382 0.8226,0.2766 1.4018,0.3654 1.736,0.2642 0.3353,-0.0998 0.551,-0.2943 0.6477,-0.5814 0.0947,-0.2815 0.0507,-0.5477 -0.131,-0.7968 -0.233,-0.3124 -0.7611,-0.6067 -1.5814,-0.8825 z m -1.1594,3.3806 c 0.5786,0.2302 1.0222,0.4757 1.3289,0.7351 0.307,0.2607 0.5094,0.5462 0.6063,0.8569 0.0972,0.3095 0.0743,0.6423 -0.0674,0.9986 -0.1044,0.2622 -0.2484,0.4714 -0.4337,0.629 -0.1851,0.1565 -0.4034,0.2597 -0.6537,0.3082 -0.2495,0.0487 -0.5321,0.0524 -0.8476,0.0116 -0.3158,-0.04 -0.7169,-0.1571 -1.2019,-0.3501 -0.5748,-0.2288 -1.0168,-0.4731 -1.3235,-0.7313 -0.3078,-0.2586 -0.5099,-0.544 -0.608,-0.8553 -0.0986,-0.3101 -0.0765,-0.6448 0.0658,-1.0029 0.1876,-0.4711 0.5028,-0.7749 0.9462,-0.9102 0.5391,-0.1596 1.2682,-0.0558 2.1886,0.3104 z m -0.2475,0.6152 c -0.8061,-0.3209 -1.3796,-0.4408 -1.7192,-0.3578 -0.3407,0.0825 -0.5655,0.2625 -0.6752,0.5386 -0.11,0.2761 -0.0689,0.5618 0.1219,0.8558 0.1919,0.2942 0.6897,0.6006 1.4939,0.9204 0.8064,0.3209 1.3799,0.4408 1.7192,0.358 0.3401,-0.0816 0.5661,-0.2636 0.678,-0.5454 0.11,-0.2758 0.0805,-0.5442 -0.0876,-0.8025 -0.2154,-0.3248 -0.7268,-0.6471 -1.531,-0.9671 z m -1.4521,3.372 c 0.555,0.2824 0.9742,0.5675 1.2557,0.8538 0.2818,0.2883 0.4572,0.5908 0.5253,0.9091 0.0683,0.3172 0.015,0.6466 -0.1588,0.9882 -0.1281,0.2517 -0.2905,0.4467 -0.4895,0.5867 -0.1987,0.1387 -0.4258,0.2214 -0.6795,0.2469 -0.2528,0.0256 -0.5346,0.003 -0.845,-0.0663 -0.3107,-0.0689 -0.6993,-0.2222 -1.1645,-0.4589 -0.5516,-0.2807 -0.9691,-0.5647 -1.2509,-0.8498 -0.2829,-0.2858 -0.4581,-0.5885 -0.527,-0.9074 -0.07,-0.3178 -0.017,-0.6492 0.1577,-0.9924 0.2298,-0.4522 0.5717,-0.7257 1.0255,-0.8198 0.5516,-0.1094 1.268,0.0609 2.151,0.5099 z m -0.3028,0.5899 c -0.7736,-0.3934 -1.3334,-0.5655 -1.6792,-0.5139 -0.3467,0.0508 -0.5871,0.2095 -0.722,0.4743 -0.1347,0.2647 -0.1199,0.553 0.0431,0.8634 0.1641,0.3107 0.6315,0.6613 1.4028,1.0536 0.7739,0.3938 1.3337,0.5655 1.6793,0.5142 0.3464,-0.0499 0.5879,-0.2106 0.7254,-0.4807 0.1346,-0.2648 0.1301,-0.5346 -0.0136,-0.8073 -0.1849,-0.343 -0.6645,-0.7112 -1.4358,-1.1036 z m -1.7507,3.2576 c 0.5233,0.3373 0.9114,0.6636 1.1622,0.9771 0.2512,0.3152 0.3946,0.6341 0.4301,0.9576 0.036,0.3225 -0.0508,0.6448 -0.2583,0.9669 -0.153,0.2375 -0.3348,0.4149 -0.5468,0.534 -0.212,0.1176 -0.4459,0.1769 -0.701,0.1766 -0.254,-3e-4 -0.5323,-0.0513 -0.8339,-0.1522 -0.3019,-0.0998 -0.6733,-0.2923 -1.1118,-0.5749 -0.5201,-0.3353 -0.9065,-0.6602 -1.1579,-0.9726 -0.2523,-0.3132 -0.3958,-0.6321 -0.432,-0.9564 -0.0372,-0.3234 0.049,-0.6474 0.2576,-0.9714 0.275,-0.426 0.6426,-0.6636 1.1038,-0.7109 0.5599,-0.0527 1.2552,0.1893 2.088,0.7262 z m -0.3614,0.5559 c -0.7293,-0.47 -1.2688,-0.6982 -1.618,-0.682 -0.3501,0.015 -0.6055,0.1485 -0.7665,0.3982 -0.161,0.2498 -0.1757,0.5381 -0.0451,0.8632 0.1316,0.3257 0.561,0.7223 1.2884,1.1911 0.7296,0.4703 1.2693,0.6982 1.6183,0.6823 0.3495,-0.0145 0.6063,-0.1497 0.7704,-0.4045 0.1611,-0.2494 0.184,-0.5185 0.0686,-0.8045 -0.1488,-0.36 -0.5887,-0.775 -1.3161,-1.2438 z m -2.0194,3.0628 c 0.4907,0.383 0.8479,0.743 1.0695,1.0778 0.2217,0.3367 0.3362,0.6669 0.3422,0.9924 0.007,0.3245 -0.1086,0.6378 -0.3444,0.9399 -0.1738,0.2225 -0.3705,0.3833 -0.5925,0.4825 -0.2216,0.0981 -0.46,0.136 -0.714,0.1128 -0.2532,-0.0232 -0.5256,-0.0989 -0.817,-0.2265 -0.2917,-0.1267 -0.644,-0.3518 -1.0556,-0.6726 -0.4878,-0.3807 -0.8433,-0.7393 -1.0655,-1.073 -0.2231,-0.3344 -0.3374,-0.6652 -0.3442,-0.9912 -0.008,-0.3255 0.1072,-0.6407 0.3442,-0.9443 0.3118,-0.3999 0.6996,-0.6032 1.1633,-0.6088 0.5621,-0.002 1.2328,0.3016 2.014,0.911 z m -0.4099,0.5213 c -0.684,-0.5338 -1.201,-0.8096 -1.5502,-0.8252 -0.3501,-0.0164 -0.6163,0.0939 -0.7991,0.328 -0.1829,0.2342 -0.2234,0.5199 -0.1228,0.8555 0.1021,0.3365 0.4938,0.7699 1.1761,1.3022 0.6843,0.5341 1.2014,0.8099 1.5503,0.8252 0.3492,0.017 0.6174,-0.0944 0.8036,-0.3333 0.1829,-0.2342 0.2299,-0.5001 0.1409,-0.7952 -0.1159,-0.3721 -0.5165,-0.8248 -1.1988,-1.3572 z m -2.2807,2.9084 c 0.4501,0.43 0.7696,0.8237 0.9567,1.1792 0.1868,0.3569 0.2676,0.697 0.2412,1.0216 -0.0258,0.3234 -0.1718,0.6236 -0.4365,0.9005 -0.1951,0.2041 -0.4071,0.3445 -0.6378,0.421 -0.2305,0.0757 -0.4714,0.0896 -0.7217,0.0408 -0.2495,-0.0482 -0.5131,-0.1508 -0.7901,-0.3067 -0.2777,-0.1553 -0.606,-0.4144 -0.9833,-0.775 -0.4473,-0.4275 -0.7653,-0.8195 -0.953,-1.1738 -0.1888,-0.3552 -0.2693,-0.6956 -0.2435,-1.0208 0.0247,-0.3245 0.1706,-0.6267 0.4365,-0.9051 0.3504,-0.3668 0.7566,-0.5303 1.2184,-0.4895 0.5595,0.0538 1.1968,0.4232 1.9131,1.1078 z m -0.4598,0.4773 c -0.6276,-0.5992 -1.1143,-0.9252 -1.4601,-0.9757 -0.3467,-0.051 -0.6228,0.0318 -0.828,0.2464 -0.2053,0.2148 -0.2741,0.4952 -0.2075,0.8393 0.0677,0.3447 0.4144,0.8152 1.0403,1.4131 0.6273,0.5995 1.1143,0.9255 1.4598,0.9759 0.3461,0.0519 0.6237,-0.0326 0.8331,-0.2514 0.2053,-0.2149 0.2787,-0.4745 0.2194,-0.7773 -0.0782,-0.3818 -0.4314,-0.8722 -1.057,-1.4703 z m -2.5203,2.7102 c 0.4048,0.4728 0.6832,0.8969 0.8337,1.2691 0.1502,0.3739 0.1964,0.7206 0.1375,1.0406 -0.0579,0.3195 -0.2333,0.6032 -0.5245,0.8524 -0.2145,0.1836 -0.4396,0.3019 -0.6769,0.3549 -0.2367,0.0521 -0.4779,0.0416 -0.7219,-0.0318 -0.2435,-0.0728 -0.4955,-0.2012 -0.7555,-0.3844 -0.2608,-0.1825 -0.5612,-0.4731 -0.9005,-0.8696 -0.4023,-0.47 -0.6795,-0.8921 -0.8306,-1.2634 -0.1522,-0.3725 -0.1981,-0.7192 -0.14,-1.0401 0.0572,-0.3206 0.2327,-0.6063 0.5252,-0.8569 0.3855,-0.3296 0.8059,-0.4515 1.2614,-0.3648 0.5514,0.1097 1.1481,0.5411 1.7921,1.294 z m -0.5054,0.4289 c -0.5641,-0.6593 -1.0157,-1.0324 -1.355,-1.1171 -0.3396,-0.0856 -0.6225,-0.0309 -0.8484,0.1621 -0.2256,0.193 -0.3223,0.4652 -0.2905,0.8141 0.0329,0.3498 0.3308,0.8527 0.8935,1.5103 0.564,0.6596 1.0156,1.0327 1.3546,1.1174 0.3391,0.0862 0.6239,0.0304 0.8541,-0.1666 0.2256,-0.1934 0.3246,-0.4442 0.2962,-0.7512 -0.0394,-0.3878 -0.3418,-0.9114 -0.9045,-1.569 z m -2.6986,2.291 c 0.385,0.4892 0.6455,0.9243 0.7807,1.3025 0.1346,0.3798 0.1666,0.7279 0.0946,1.0454 -0.0711,0.3166 -0.2579,0.5933 -0.5592,0.8303 -0.222,0.1743 -0.4516,0.2831 -0.6908,0.3265 -0.2387,0.0423 -0.4794,0.0221 -0.7203,-0.0615 -0.2401,-0.0828 -0.4867,-0.2214 -0.7387,-0.415 -0.2532,-0.193 -0.5414,-0.4958 -0.864,-0.9059 -0.3827,-0.4865 -0.6424,-0.9196 -0.7781,-1.2966 -0.1367,-0.3784 -0.1684,-0.7265 -0.097,-1.0449 0.0703,-0.318 0.2571,-0.5964 0.5601,-0.8345 0.3986,-0.3135 0.8235,-0.4181 1.2751,-0.3129 0.5465,0.1326 1.125,0.5882 1.7376,1.3666 z m -0.5227,0.4081 c -0.5366,-0.682 -0.9723,-1.0734 -1.3079,-1.1721 -0.3359,-0.0995 -0.6208,-0.0564 -0.8544,0.127 -0.2333,0.1837 -0.3413,0.4516 -0.3237,0.8017 0.0184,0.3509 0.2954,0.8654 0.8303,1.5457 0.5369,0.6823 0.9726,1.0735 1.3076,1.1721 0.3353,0.1001 0.6222,0.0559 0.8603,-0.1315 0.2336,-0.1837 0.3427,-0.4303 0.3271,-0.7382 -0.0238,-0.3892 -0.3044,-0.9246 -0.8393,-1.6047 z" />
  <path
     id="path10"
     style="fill:#1b1918;fill-rule:evenodd"
     d="m 63.1732,126.4153 1.156,-4.1375 0.8206,0.2291 0.1604,3.2023 c 0.0145,0.2979 0.023,0.5204 0.0261,0.6675 0.0893,-0.1369 0.2254,-0.3376 0.4071,-0.6015 l 1.7997,-2.5996 0.733,0.2046 -1.1559,4.1375 -0.5259,-0.1469 0.9669,-3.4611 -2.1744,3.1238 -0.4933,-0.1378 -0.2094,-3.8585 -0.9848,3.5249 z m 6.0307,-0.6021 c 0.085,-0.707 0.3421,-1.2382 0.7702,-1.5925 0.4283,-0.3546 0.9428,-0.4952 1.5446,-0.4229 0.394,0.0473 0.7373,0.1839 1.0315,0.4099 0.2931,0.2256 0.5029,0.5164 0.6282,0.873 0.1255,0.3555 0.1632,0.747 0.1122,1.1727 -0.0519,0.432 -0.1859,0.8087 -0.4017,1.1282 -0.2154,0.3206 -0.4938,0.5488 -0.8345,0.6851 -0.3415,0.1375 -0.6979,0.1834 -1.0681,0.1389 -0.4019,-0.0484 -0.7489,-0.1887 -1.0423,-0.4203 -0.2925,-0.2316 -0.5011,-0.5244 -0.6233,-0.8796 -0.123,-0.3541 -0.1616,-0.7183 -0.1168,-1.0925 z m 0.5825,0.0799 c -0.0615,0.5134 0.0281,0.9338 0.2685,1.2617 0.2406,0.3283 0.5694,0.5179 0.9864,0.5681 0.4249,0.051 0.7915,-0.0564 1.1021,-0.3212 0.3099,-0.2647 0.4975,-0.6715 0.5633,-1.2194 0.0416,-0.3464 0.0195,-0.6563 -0.0666,-0.9287 -0.0862,-0.2721 -0.2339,-0.4932 -0.4422,-0.6624 -0.2095,-0.169 -0.4539,-0.2707 -0.7351,-0.3047 -0.3991,-0.0479 -0.7588,0.0479 -1.0797,0.2874 -0.3209,0.2395 -0.5199,0.6789 -0.5967,1.3192 z m 8.2072,1.2291 0.5652,0.1622 c -0.1341,0.4629 -0.3594,0.811 -0.6763,1.0457 -0.3167,0.2347 -0.6982,0.3455 -1.145,0.3311 -0.462,-0.0151 -0.8345,-0.1211 -1.1182,-0.3192 -0.2838,-0.1976 -0.495,-0.4774 -0.6344,-0.8391 -0.1392,-0.3628 -0.203,-0.748 -0.1897,-1.1576 0.0145,-0.4468 0.1123,-0.834 0.2937,-1.1611 0.182,-0.3271 0.4329,-0.5723 0.7532,-0.735 0.3206,-0.1627 0.6701,-0.2376 1.0479,-0.2254 0.4298,0.0139 0.7869,0.1347 1.0718,0.3628 0.2858,0.2285 0.4799,0.542 0.5817,0.9414 l -0.5618,0.114 c -0.0888,-0.3149 -0.2265,-0.5477 -0.4108,-0.6956 -0.1839,-0.1491 -0.4198,-0.2277 -0.7064,-0.237 -0.3291,-0.0105 -0.6074,0.0592 -0.8334,0.2103 -0.2259,0.1505 -0.3886,0.3583 -0.4864,0.6214 -0.0986,0.2642 -0.1522,0.5374 -0.1616,0.82 -0.0116,0.3651 0.0309,0.6855 0.1279,0.961 0.0972,0.2761 0.2554,0.4844 0.4751,0.6264 0.2197,0.1421 0.4595,0.2172 0.72,0.2257 0.3177,0.0102 0.5885,-0.0732 0.8147,-0.2492 0.2259,-0.1766 0.3832,-0.4436 0.4728,-0.8028 z m 2.0353,-2.8465 0.5686,-0.0434 0.1428,1.8785 c 0.2586,-0.0195 0.4369,-0.0844 0.5341,-0.193 0.0978,-0.1086 0.2132,-0.3603 0.3475,-0.7557 0.097,-0.2911 0.1797,-0.4969 0.2486,-0.6185 0.0681,-0.1225 0.1701,-0.2288 0.3067,-0.3181 0.1355,-0.0896 0.2903,-0.1414 0.4618,-0.1545 0.2183,-0.0167 0.3331,-0.0235 0.3453,-0.0204 l 0.0374,0.4907 c -0.0199,0.001 -0.0579,0.003 -0.114,0.005 -0.0629,0.003 -0.1006,0.005 -0.1148,0.006 -0.1803,0.0139 -0.3115,0.0678 -0.3929,0.1622 -0.0827,0.0946 -0.1703,0.29 -0.2642,0.5848 -0.1159,0.3738 -0.2202,0.6125 -0.3129,0.7149 -0.0913,0.1009 -0.2052,0.1862 -0.3385,0.2534 0.2818,0.0547 0.5746,0.29 0.8768,0.7041 l 0.9913,1.3589 -0.7039,0.0536 -0.8076,-1.1058 c -0.2208,-0.3073 -0.4022,-0.5162 -0.5428,-0.6256 -0.142,-0.1105 -0.3169,-0.1576 -0.5272,-0.1414 l 0.1525,2.004 -0.5684,0.0434 z m 4.8974,3.905 -0.7858,-4.2233 1.5851,-0.2948 c 0.3223,-0.0601 0.5888,-0.0658 0.8003,-0.0165 0.2106,0.0493 0.3875,0.1525 0.5306,0.3101 0.1443,0.1562 0.2336,0.332 0.2699,0.5264 0.0334,0.18 0.0158,0.3592 -0.0519,0.5363 -0.0678,0.1778 -0.1911,0.334 -0.3705,0.4689 0.2696,0.0272 0.4901,0.1182 0.6602,0.2741 0.1712,0.1539 0.2798,0.3546 0.3254,0.6004 0.0369,0.1984 0.0289,0.3903 -0.0232,0.576 -0.0516,0.1854 -0.1307,0.3356 -0.2364,0.4507 -0.1061,0.1142 -0.2472,0.2129 -0.4233,0.2945 -0.1771,0.0816 -0.3996,0.1474 -0.6692,0.1976 z m 0.1051,-2.552 0.9131,-0.1698 c 0.2477,-0.0462 0.4229,-0.0961 0.5238,-0.1483 0.1349,-0.0689 0.2288,-0.1596 0.2823,-0.2713 0.0533,-0.1114 0.0669,-0.2412 0.0394,-0.3897 -0.0263,-0.1406 -0.0827,-0.2583 -0.1703,-0.3518 -0.087,-0.095 -0.1967,-0.1505 -0.3291,-0.1667 -0.1321,-0.0159 -0.3501,0.004 -0.6528,0.0604 l -0.8445,0.157 z m 0.3632,1.9525 1.0516,-0.1959 c 0.1811,-0.0335 0.3067,-0.0641 0.3779,-0.0916 0.1236,-0.0462 0.2245,-0.1048 0.301,-0.1749 0.0765,-0.0703 0.1327,-0.1621 0.1695,-0.2755 0.0369,-0.1139 0.0423,-0.2378 0.0173,-0.3725 -0.0295,-0.1584 -0.0952,-0.2874 -0.1987,-0.3892 -0.1023,-0.102 -0.2296,-0.163 -0.3818,-0.1834 -0.1517,-0.0204 -0.3626,-0.006 -0.6307,0.0443 l -0.9771,0.1817 z m 3.9427,-0.2101 0.4317,-4.5811 0.6021,-0.168 2.84,3.6671 -0.6234,0.1741 -0.8288,-1.1203 -1.7422,0.4865 -0.0986,1.3793 z m 0.7157,-2.0316 1.4102,-0.3937 -0.7517,-1.0264 c -0.2276,-0.3124 -0.4062,-0.5729 -0.538,-0.7813 0.0184,0.2855 0.0164,0.5718 -0.0057,0.8604 z" />
  <path
     id="path12"
     style="fill:#1b1918;fill-rule:evenodd"
     d="m 55.6685,121.9348 0.1958,-0.6054 c 0.4533,0.1593 0.781,0.2967 0.9874,0.4138 -0.0542,-0.5148 -0.0837,-0.8702 -0.0865,-1.0633 h 0.6231 c -0.0088,0.2824 -0.0409,0.6347 -0.0995,1.0588 0.2939,-0.1477 0.6304,-0.2852 1.0091,-0.4093 l 0.1959,0.6054 c -0.3612,0.1199 -0.7149,0.2004 -1.063,0.2398 0.174,0.1506 0.4181,0.4213 0.7341,0.8088 l -0.5119,0.3642 c -0.1653,-0.2253 -0.3614,-0.5323 -0.5865,-0.9201 -0.212,0.4022 -0.3977,0.7095 -0.5573,0.9201 l -0.5031,-0.3642 c 0.3291,-0.4079 0.5661,-0.6772 0.7081,-0.8088 -0.3671,-0.0717 -0.7152,-0.1522 -1.0457,-0.2398 z" />
  <path
     id="path14"
     style="fill:#1b1918;fill-rule:evenodd"
     d="m 52.1237,55.4187 h 1.1214 v 7.3919 l 4.9692,-7.3919 h 1.2231 v 9.3345 h -1.1211 v -7.3723 l -4.9561,7.3723 h -1.2365 z m 9.2932,9.3345 v -9.3345 h 3.5027 c 0.7127,0 1.2841,0.0936 1.7164,0.2827 0.4303,0.189 0.7671,0.4801 1.0103,0.8733 0.2457,0.3912 0.3673,0.8019 0.3673,1.2319 0,0.3977 -0.1085,0.7736 -0.3237,1.1257 -0.2151,0.352 -0.5411,0.6366 -0.9779,0.8538 0.5649,0.1652 0.9995,0.4476 1.3016,0.8475 0.3042,0.3977 0.4561,0.8691 0.4561,1.4123 0,0.439 -0.0932,0.8452 -0.278,1.2211 -0.1846,0.3759 -0.4128,0.665 -0.6843,0.8691 -0.2716,0.2021 -0.6129,0.3563 -1.0214,0.4607 -0.4107,0.1043 -0.9124,0.1564 -1.5077,0.1564 z m 1.2384,-5.4102 h 2.0186 c 0.5476,0 0.9408,-0.0371 1.1778,-0.1088 0.3149,-0.0933 0.5519,-0.2498 0.7103,-0.4672 0.1588,-0.2171 0.2393,-0.4887 0.2393,-0.8169 0,-0.3107 -0.074,-0.5845 -0.224,-0.819 -0.1477,-0.2369 -0.3605,-0.3999 -0.6366,-0.4867 -0.2758,-0.087 -0.7495,-0.1304 -1.4188,-0.1304 h -1.8666 z m 0,4.3152 h 2.325 c 0.4,0 0.68,-0.0153 0.843,-0.0456 0.2826,-0.0502 0.5216,-0.1347 0.7126,-0.2543 0.1914,-0.1196 0.3478,-0.2934 0.4717,-0.5216 0.1239,-0.2282 0.1846,-0.4909 0.1846,-0.7886 0,-0.3498 -0.0891,-0.6519 -0.2693,-0.9105 -0.1783,-0.2585 -0.4258,-0.4388 -0.7433,-0.5431 -0.3149,-0.1043 -0.7713,-0.1565 -1.3643,-0.1565 h -2.16 z m 6.0537,1.095 3.5807,-9.3345 h 1.3581 l 3.8001,9.3345 h -1.4057 l -1.08,-2.8289 h -3.9305 l -1.0126,2.8289 z m 2.6855,-3.8327 h 3.1811 l -0.9735,-2.588 c -0.2933,-0.7864 -0.515,-1.4361 -0.6692,-1.9488 -0.1281,0.6083 -0.2999,1.2058 -0.5151,1.7968 z m 7.0855,3.8327 v -9.3345 h 1.2385 v 3.8461 h 4.8237 v -3.8461 h 1.2384 v 9.3345 h -1.2384 v -4.3934 h -4.8237 v 4.3934 z m 8.9847,-4.5433 c 0,-1.5469 0.417,-2.7596 1.2492,-3.6352 0.8323,-0.8756 1.9055,-1.3121 3.2222,-1.3121 0.8628,0 1.6384,0.2063 2.3315,0.6168 0.691,0.4107 1.2189,0.9844 1.5817,1.7209 0.3631,0.7344 0.5454,1.569 0.5454,2.501 0,0.9451 -0.1911,1.7926 -0.5735,2.5378 -0.3824,0.7475 -0.9235,1.3125 -1.6231,1.6949 -0.7018,0.3844 -1.4578,0.5757 -2.2686,0.5757 -0.8798,0 -1.6642,-0.2129 -2.3572,-0.6367 -0.6911,-0.4237 -1.217,-1.0017 -1.5733,-1.7359 -0.3563,-0.7325 -0.5343,-1.508 -0.5343,-2.3272 z m 1.2776,0.0218 c 0,1.1234 0.3019,2.0075 0.9059,2.6529 0.6041,0.6455 1.3624,0.9692 2.2748,0.9692 0.9301,0 1.6929,-0.326 2.2947,-0.978 0.5995,-0.6516 0.8994,-1.5774 0.8994,-2.7768 0,-0.7582 -0.1281,-1.421 -0.3844,-1.9859 -0.2565,-0.565 -0.6324,-1.0038 -1.1256,-1.3145 -0.4955,-0.3106 -1.0494,-0.4671 -1.6645,-0.4671 -0.8734,0 -1.6251,0.2999 -2.2553,0.8994 -0.6301,0.5998 -0.945,1.5993 -0.945,3.0008 z m 9.1885,4.5215 v -9.3345 h 3.5027 c 0.7127,0 1.2841,0.0936 1.7164,0.2827 0.4303,0.189 0.7671,0.4801 1.0103,0.8733 0.2458,0.3912 0.3674,0.8019 0.3674,1.2319 0,0.3977 -0.1086,0.7736 -0.3238,1.1257 -0.2151,0.352 -0.5411,0.6366 -0.9779,0.8538 0.5649,0.1652 0.9995,0.4476 1.3017,0.8475 0.3041,0.3977 0.4561,0.8691 0.4561,1.4123 0,0.439 -0.0933,0.8452 -0.2781,1.2211 -0.1846,0.3759 -0.4127,0.665 -0.6843,0.8691 -0.2716,0.2021 -0.6129,0.3563 -1.0213,0.4607 -0.4108,0.1043 -0.9125,0.1564 -1.5078,0.1564 z m 1.2384,-5.4102 h 2.0186 c 0.5476,0 0.9408,-0.0371 1.1778,-0.1088 0.3149,-0.0933 0.5519,-0.2498 0.7103,-0.4672 0.1588,-0.2171 0.2393,-0.4887 0.2393,-0.8169 0,-0.3107 -0.074,-0.5845 -0.224,-0.819 -0.1476,-0.2369 -0.3605,-0.3999 -0.6366,-0.4867 -0.2758,-0.087 -0.7495,-0.1304 -1.4188,-0.1304 h -1.8666 z m 0,4.3152 h 2.325 c 0.4,0 0.68,-0.0153 0.843,-0.0456 0.2826,-0.0502 0.5216,-0.1347 0.7127,-0.2543 0.1913,-0.1196 0.3478,-0.2934 0.4716,-0.5216 0.1239,-0.2282 0.1846,-0.4909 0.1846,-0.7886 0,-0.3498 -0.089,-0.6519 -0.2693,-0.9105 -0.1783,-0.2585 -0.4258,-0.4388 -0.7433,-0.5431 -0.3149,-0.1043 -0.7713,-0.1565 -1.3643,-0.1565 h -2.16 z m -35.056,6.3247 h 1.1214 v 7.3919 l 4.9691,-7.3919 h 1.2231 v 9.3345 H 70.3057 V 71.945 l -4.9561,7.3724 h -1.2364 z m 9.2018,2.5684 h 2.6402 c 0.6474,0 1.1296,0.0542 1.4471,0.163 0.3149,0.1086 0.5865,0.3062 0.8124,0.5953 0.2282,0.2911 0.3413,0.6367 0.3413,1.0406 0,0.324 -0.0675,0.6063 -0.1999,0.8453 -0.1349,0.2412 -0.3347,0.4433 -0.604,0.6041 0.3172,0.1065 0.5799,0.3041 0.7908,0.5952 0.2087,0.2892 0.313,0.6347 0.313,1.0321 -0.0414,0.6412 -0.2719,1.1169 -0.6869,1.4256 -0.415,0.3106 -1.019,0.4649 -1.8099,0.4649 H 73.315 Z m 1.1475,2.8551 h 1.2166 c 0.4844,0 0.8192,-0.0261 0.9995,-0.0763 0.1825,-0.0521 0.3455,-0.1542 0.489,-0.3106 0.1434,-0.1542 0.2151,-0.341 0.2151,-0.5585 0,-0.3583 -0.1261,-0.606 -0.3759,-0.7472 -0.2522,-0.1414 -0.6823,-0.2109 -1.2909,-0.2109 h -1.2534 z m 0,2.9724 h 1.5057 c 0.6475,0 1.0928,-0.0762 1.334,-0.2262 0.2412,-0.1519 0.3671,-0.4105 0.3801,-0.7821 0,-0.2151 -0.0694,-0.4172 -0.2083,-0.6018 -0.1415,-0.1848 -0.324,-0.3021 -0.5477,-0.3498 -0.2239,-0.0501 -0.5845,-0.074 -1.08,-0.074 h -1.3838 z m 10.0533,0.0913 c -0.4258,0.3628 -0.8365,0.6168 -1.2297,0.7668 -0.3934,0.1499 -0.8149,0.2239 -1.2668,0.2239 -0.7429,0 -1.3144,-0.1803 -1.7144,-0.5431 -0.3996,-0.3609 -0.5995,-0.8235 -0.5995,-1.3865 0,-0.3302 0.076,-0.6321 0.2259,-0.9059 0.152,-0.2738 0.3498,-0.491 0.593,-0.6562 0.2458,-0.1653 0.5194,-0.2911 0.8258,-0.3759 0.2259,-0.0587 0.5672,-0.1151 1.0213,-0.1718 0.9255,-0.1085 1.6101,-0.2409 2.0466,-0.3931 0.0046,-0.1565 0.0065,-0.2566 0.0065,-0.2977 0,-0.4652 -0.1085,-0.7931 -0.3257,-0.9842 -0.2934,-0.2588 -0.7302,-0.3869 -1.3082,-0.3869 -0.5408,0 -0.9408,0.0955 -1.197,0.2846 -0.2585,0.1891 -0.4476,0.5238 -0.5715,1.006 L 79.901,74.4936 c 0.1021,-0.4802 0.2693,-0.8691 0.504,-1.1644 0.2347,-0.2957 0.5735,-0.5216 1.0168,-0.6823 0.4411,-0.1588 0.9561,-0.239 1.5384,-0.239 0.5779,0 1.0493,0.0672 1.4122,0.2041 0.3608,0.1369 0.6281,0.3064 0.7976,0.5128 0.1693,0.2063 0.2889,0.4671 0.3583,0.7823 0.0372,0.1956 0.0567,0.5474 0.0567,1.0537 v 1.5211 c 0,1.0624 0.0239,1.7339 0.0718,2.0185 0.0456,0.2846 0.1411,0.5562 0.28,0.817 h -1.1993 c -0.1151,-0.2413 -0.1891,-0.5236 -0.2217,-0.8473 z m -0.0913,-2.5424 c -0.4169,0.1695 -1.0428,0.3129 -1.8771,0.4303 -0.4736,0.0674 -0.8084,0.1434 -1.004,0.2282 -0.1953,0.0847 -0.3453,0.2086 -0.4518,0.3693 -0.1066,0.163 -0.1608,0.3433 -0.1608,0.5431 0,0.3022 0.1151,0.5565 0.3476,0.7583 0.2324,0.2021 0.5714,0.3045 1.017,0.3045 0.4411,0 0.8343,-0.0959 1.1798,-0.2892 0.3433,-0.191 0.5976,-0.4541 0.7583,-0.7866 0.1239,-0.2585 0.1845,-0.6386 0.1845,-1.1407 z m 2.9226,-3.3764 h 1.1474 v 2.816 h 3.1808 v -2.816 h 1.1474 v 6.7661 h -1.1474 v -2.9985 h -3.1808 v 2.9985 H 87.3471 Z M 49.9867,84.547 h 1.1214 v 7.3919 l 4.9691,-7.3919 h 1.2232 v 9.3345 h -1.1211 v -7.3724 l -4.9561,7.3724 h -1.2365 z m 9.2018,2.5685 h 2.6402 c 0.6475,0 1.1296,0.0541 1.4471,0.163 0.3149,0.1085 0.5865,0.3061 0.8124,0.5952 0.2282,0.2912 0.3413,0.6367 0.3413,1.0406 0,0.324 -0.0675,0.6064 -0.1998,0.8453 -0.135,0.2413 -0.3348,0.4434 -0.6041,0.6041 0.3172,0.1066 0.58,0.3041 0.7909,0.5953 0.2086,0.2891 0.3129,0.6346 0.3129,1.0321 -0.0414,0.6412 -0.2718,1.1168 -0.6868,1.4255 -0.415,0.3107 -1.0191,0.4649 -1.8099,0.4649 h -3.0442 z m 1.1475,2.855 h 1.2166 c 0.4845,0 0.8192,-0.0261 0.9995,-0.0762 0.1826,-0.0522 0.3456,-0.1542 0.489,-0.3107 0.1434,-0.1542 0.2152,-0.341 0.2152,-0.5584 0,-0.3583 -0.1262,-0.6061 -0.3759,-0.7472 -0.2523,-0.1415 -0.6823,-0.2109 -1.2909,-0.2109 H 60.336 Z m 0,2.9724 h 1.5058 c 0.6474,0 1.0927,-0.0762 1.3339,-0.2262 0.2413,-0.1519 0.3671,-0.4104 0.3802,-0.7821 0,-0.2151 -0.0695,-0.4172 -0.2084,-0.6017 -0.1414,-0.1849 -0.324,-0.3022 -0.5476,-0.3498 -0.224,-0.0502 -0.5845,-0.074 -1.08,-0.074 H 60.336 Z m 10.0534,0.0913 c -0.4258,0.3628 -0.8365,0.6168 -1.2297,0.7668 -0.3935,0.1499 -0.815,0.2239 -1.2668,0.2239 -0.743,0 -1.3144,-0.1803 -1.7144,-0.5431 -0.3997,-0.3609 -0.5995,-0.8235 -0.5995,-1.3864 0,-0.3303 0.0759,-0.6322 0.2259,-0.906 0.1519,-0.2738 0.3498,-0.4909 0.593,-0.6562 0.2458,-0.1653 0.5193,-0.2911 0.8257,-0.3759 0.2259,-0.0587 0.5672,-0.1151 1.0213,-0.1718 0.9256,-0.1085 1.6101,-0.2409 2.0467,-0.3931 0.0045,-0.1565 0.0065,-0.2566 0.0065,-0.2977 0,-0.4651 -0.1086,-0.7931 -0.3257,-0.9841 -0.2934,-0.2589 -0.7302,-0.387 -1.3082,-0.387 -0.5409,0 -0.9408,0.0955 -1.1971,0.2846 -0.2585,0.1891 -0.4476,0.5239 -0.5714,1.006 l -1.1211,-0.1564 c 0.102,-0.4802 0.2692,-0.8691 0.504,-1.1645 0.2347,-0.2957 0.5734,-0.5216 1.0167,-0.6823 0.4411,-0.1587 0.9562,-0.239 1.5384,-0.239 0.578,0 1.0494,0.0672 1.4122,0.2041 0.3609,0.1369 0.6282,0.3065 0.7977,0.5128 0.1692,0.2064 0.2888,0.4672 0.3583,0.7824 0.0371,0.1956 0.0567,0.5473 0.0567,1.0536 v 1.5211 c 0,1.0624 0.0238,1.7339 0.0717,2.0185 0.0456,0.2846 0.1412,0.5562 0.2801,0.817 H 70.611 c -0.1151,-0.2412 -0.189,-0.5236 -0.2216,-0.8473 z m -0.0913,-2.5424 c -0.417,0.1695 -1.0429,0.313 -1.8771,0.4303 -0.4737,0.0675 -0.8085,0.1434 -1.0041,0.2282 -0.1953,0.0848 -0.3452,0.2086 -0.4518,0.3694 -0.1066,0.1629 -0.1607,0.3432 -0.1607,0.5431 0,0.3021 0.1151,0.5564 0.3475,0.7582 0.2324,0.2021 0.5715,0.3045 1.0171,0.3045 0.441,0 0.8342,-0.0958 1.1798,-0.2892 0.3432,-0.191 0.5975,-0.4541 0.7582,-0.7866 0.1239,-0.2585 0.1846,-0.6386 0.1846,-1.1406 z m 2.9225,-3.3763 h 1.1475 v 2.8159 h 3.1807 v -2.8159 h 1.1475 v 6.766 H 77.5488 V 90.883 h -3.1807 v 2.9985 h -1.1475 z m 6.7686,3.3828 c 0,-1.2492 0.3475,-2.1747 1.0451,-2.7768 0.58,-0.4997 1.2906,-0.7495 2.1271,-0.7495 0.9278,0 1.6883,0.3042 2.2794,0.9125 0.5887,0.6063 0.8841,1.4471 0.8841,2.5183 0,0.8691 -0.1304,1.5514 -0.3909,2.0489 -0.2608,0.4977 -0.6412,0.8844 -1.141,1.1605 -0.4974,0.2758 -1.0428,0.4127 -1.6316,0.4127 -0.9473,0 -1.7121,-0.3022 -2.2966,-0.9082 -0.5845,-0.6063 -0.8756,-1.4797 -0.8756,-2.6184 z m 1.1732,0.0023 c 0,0.8648 0.1891,1.5123 0.5672,1.9403 0.3802,0.4303 0.8561,0.6455 1.4318,0.6455 0.5692,0 1.0429,-0.2152 1.4233,-0.6478 0.3779,-0.4322 0.5669,-1.0907 0.5669,-1.9749 0,-0.8345 -0.191,-1.4666 -0.5714,-1.8946 -0.3802,-0.4303 -0.8538,-0.6455 -1.4188,-0.6455 -0.5757,0 -1.0516,0.2129 -1.4318,0.6409 -0.3781,0.4281 -0.5672,1.0735 -0.5672,1.9361 z m 6.5075,-3.3851 h 2.6402 c 0.6474,0 1.1296,0.0541 1.4471,0.163 0.3149,0.1085 0.5865,0.3061 0.8124,0.5952 0.2282,0.2912 0.3413,0.6367 0.3413,1.0406 0,0.324 -0.0675,0.6064 -0.1998,0.8453 -0.135,0.2413 -0.3348,0.4434 -0.6041,0.6041 0.3172,0.1066 0.58,0.3041 0.7909,0.5953 0.2086,0.2891 0.3129,0.6346 0.3129,1.0321 -0.0414,0.6412 -0.2718,1.1168 -0.6868,1.4255 -0.415,0.3107 -1.0191,0.4649 -1.81,0.4649 h -3.0441 z m 1.1475,2.855 h 1.2166 c 0.4845,0 0.8192,-0.0261 0.9995,-0.0762 0.1826,-0.0522 0.3456,-0.1542 0.489,-0.3107 0.1434,-0.1542 0.2151,-0.341 0.2151,-0.5584 0,-0.3583 -0.1261,-0.6061 -0.3758,-0.7472 -0.2523,-0.1415 -0.6823,-0.2109 -1.2909,-0.2109 h -1.2535 z m 0,2.9724 h 1.5057 c 0.6475,0 1.0928,-0.0762 1.334,-0.2262 0.2413,-0.1519 0.3671,-0.4104 0.3802,-0.7821 0,-0.2151 -0.0695,-0.4172 -0.2084,-0.6017 -0.1414,-0.1849 -0.324,-0.3022 -0.5476,-0.3498 -0.224,-0.0502 -0.5845,-0.074 -1.08,-0.074 h -1.3839 z m 5.7795,-5.8274 h 1.1475 v 5.1602 l 3.1873,-5.1602 h 1.2322 v 6.766 h -1.1475 v -5.1279 l -3.183,5.1279 h -1.2365 z m 6.8534,0 h 1.1471 v 1.2775 c 0,0.5519 0.0326,0.9516 0.1001,1.1994 0.0649,0.2477 0.2237,0.4649 0.4757,0.6497 0.25,0.1845 0.5649,0.2758 0.9453,0.2758 0.4346,0 0.995,-0.1151 1.6861,-0.3433 v -3.0591 h 1.1471 v 6.766 h -1.1471 v -2.7312 c -0.7061,0.2217 -1.3669,0.3325 -1.9795,0.3325 -0.515,0 -0.9691,-0.1304 -1.3623,-0.3912 -0.3934,-0.2608 -0.6608,-0.5802 -0.8019,-0.9581 -0.1412,-0.3781 -0.2106,-0.7931 -0.2106,-1.2472 z" />
  <path
     id="path16"
     style="fill:#1b1918;fill-rule:evenodd"
     d="m 98.231,121.9348 0.1958,-0.6054 c 0.4533,0.1593 0.781,0.2967 0.9873,0.4138 -0.0541,-0.5148 -0.0836,-0.8702 -0.0864,-1.0633 h 0.623 c -0.0087,0.2824 -0.0408,0.6347 -0.0995,1.0588 0.294,-0.1477 0.6305,-0.2852 1.0092,-0.4093 l 0.1959,0.6054 c -0.3612,0.1199 -0.7149,0.2004 -1.063,0.2398 0.174,0.1506 0.4181,0.4213 0.7341,0.8088 l -0.5119,0.3642 c -0.1653,-0.2253 -0.3614,-0.5323 -0.5865,-0.9201 -0.212,0.4022 -0.3977,0.7095 -0.5573,0.9201 l -0.5031,-0.3642 c 0.3291,-0.4079 0.566,-0.6772 0.7081,-0.8088 -0.3671,-0.0717 -0.7152,-0.1522 -1.0457,-0.2398 z" />
</svg>
