<?xml version="1.0" encoding="utf-8"?>
<!-- Generator: Adobe Illustrator 26.4.1, SVG Export Plug-In . SVG Version: 6.00 Build 0)  -->
<svg version="1.1"
	 id="svg29" xmlns:svg="http://www.w3.org/2000/svg" xmlns:rdf="http://www.w3.org/1999/02/22-rdf-syntax-ns#" xmlns:cc="http://creativecommons.org/ns#" xmlns:dc="http://purl.org/dc/elements/1.1/"
	 xmlns="http://www.w3.org/2000/svg" xmlns:xlink="http://www.w3.org/1999/xlink" x="0px" y="0px" viewBox="0 0 155.9 155.9"
	 style="enable-background:new 0 0 155.9 155.9;" xml:space="preserve">
<style type="text/css">
	.st0{fill:none;stroke:#1B1918;stroke-width:0.7087;}
	.st1{fill-rule:evenodd;clip-rule:evenodd;fill:#1B1918;}
	.st2{fill:#1B1918;}
</style>
<path id="path4" class="st0" d="M78,23.6c30,0,54.4,24.3,54.4,54.4c0,30-24.3,54.4-54.4,54.4c-30,0-54.4-24.3-54.4-54.4
	C23.6,47.9,47.9,23.6,78,23.6z"/>
<path id="path6" class="st0" d="M78,35.5c23.5,0,42.5,19,42.5,42.5c0,23.5-19,42.5-42.5,42.5c-23.5,0-42.5-19-42.5-42.5
	C35.4,54.5,54.5,35.5,78,35.5z"/>
<path id="path8" class="st1" d="M44.2,115.8l-0.5-0.5l3.4-3.6l-5.8,1.3l-0.6-0.6l4.3-4.5l0.5,0.5l-3.4,3.5l5.8-1.3l0.6,0.6
	L44.2,115.8z M43.1,105.8l-5,3.6l-0.5-0.7l2.1-1.5l-1.9-2.6l-2.1,1.5l-0.5-0.7l5-3.6l0.5,0.7l-2.4,1.7l1.9,2.6l2.4-1.7L43.1,105.8z
	 M33.1,101.7l-1.7-3.4l4.9-2.5L36,95.4l1.9-1l0.3,0.6L37,95.7l1.9,3.7l1.3-0.7l0.3,0.6l-1.9,1l-0.2-0.4c-0.9-0.1-2.4,0.4-4.4,1.4
	L33.1,101.7z M32.4,98.8l1,1.9l0.3-0.1c0.5-0.2,1.1-0.5,2-0.9c0.9-0.3,1.6-0.5,2.3-0.5l-1.3-2.6L32.4,98.8z M29.9,94.4l-0.2-0.7
	l4.7-1.3l-5.6-1.8l-0.2-0.8l6-1.7l0.2,0.7L30,90.1l5.6,1.8l0.2,0.8L29.9,94.4z M34,85.4l-6.2,0.8l-0.3-2.3c-0.1-0.5,0-0.9,0-1.2
	c0.1-0.3,0.3-0.5,0.5-0.7c0.2-0.2,0.5-0.3,0.8-0.3c0.3,0,0.5,0,0.8,0.1c0.2,0.1,0.5,0.3,0.6,0.6c0.1-0.4,0.2-0.7,0.5-0.9
	c0.2-0.2,0.5-0.4,0.9-0.4c0.3,0,0.6,0,0.8,0.1c0.3,0.1,0.5,0.2,0.6,0.4c0.2,0.2,0.3,0.4,0.4,0.6c0.1,0.3,0.2,0.6,0.2,1L34,85.4z
	 M30.4,85l-0.2-1.3c0-0.4-0.1-0.6-0.2-0.8c-0.1-0.2-0.2-0.3-0.4-0.4c-0.2-0.1-0.3-0.1-0.6-0.1c-0.2,0-0.4,0.1-0.5,0.2
	c-0.1,0.1-0.2,0.3-0.3,0.5c0,0.2,0,0.5,0,0.9l0.2,1.2L30.4,85z M33.2,84.7L33,83.1c0-0.3-0.1-0.4-0.1-0.6c-0.1-0.2-0.1-0.3-0.2-0.4
	c-0.1-0.1-0.2-0.2-0.4-0.3c-0.2-0.1-0.3-0.1-0.5-0.1c-0.2,0-0.4,0.1-0.6,0.3c-0.2,0.1-0.3,0.3-0.3,0.5c0,0.2,0,0.5,0,0.9l0.2,1.4
	L33.2,84.7z M27.2,78l0-0.7l4.9,0.1l-4.8-3.4l0-0.8l6.2,0.2l0,0.7l-4.9-0.1l4.8,3.4l0,0.8L27.2,78z M28.1,68.6l0.9-3.7l5.3,1.2
	l0.1-0.5l2.1,0.5l-0.2,0.7l-1.4-0.3l-0.9,4l1.4,0.3l-0.2,0.7L33.1,71l0.1-0.5c-0.6-0.7-2-1.2-4.3-1.8L28.1,68.6z M29.5,65.9L29,68
	l0.3,0.1c0.5,0.1,1.2,0.3,2.1,0.6c0.9,0.3,1.6,0.7,2.1,1.1l0.6-2.8L29.5,65.9z M29.9,61.7l0.3-0.8l4.3-0.5l-2.9-3l0.3-0.8l3.6,3.9
	c0.5,0.5,0.7,0.9,0.8,1.1c0.1,0.2,0.1,0.5,0,0.8c-0.1,0.2-0.2,0.4-0.4,0.7l-0.7-0.3c0.2-0.2,0.3-0.3,0.4-0.6c0.1-0.2,0.1-0.4,0-0.6
	c-0.1-0.2-0.3-0.4-0.6-0.8L29.9,61.7z M38,58.1L33.8,53l0.5-0.8l6.6,0.9l-0.5,0.8l-2-0.3l-1.3,2.3l1.3,1.5L38,58.1z M36.7,55.3
	l1.1-1.8L36,53.2c-0.6-0.1-1-0.2-1.3-0.3c0.3,0.3,0.6,0.6,0.9,0.9L36.7,55.3z M37.9,46.8l2.5-2.9l4.7,4.1l-0.5,0.6L40.4,45L39,46.7
	l2.4,2.1c0.5,0.4,0.8,0.8,1,1c0.2,0.2,0.3,0.5,0.3,0.8c0,0.3-0.1,0.5-0.3,0.7c-0.1,0.1-0.3,0.3-0.5,0.4l-0.5-0.6
	c0.1-0.1,0.2-0.1,0.3-0.2c0.1-0.1,0.2-0.3,0.1-0.5c0-0.2-0.3-0.4-0.7-0.8L37.9,46.8z M43,41.2l0.6-0.5l1.7,2l1.1-1
	c0.5-0.4,1-0.7,1.3-0.8c0.3-0.1,0.7-0.1,0.9,0.1c0.3,0.1,0.5,0.3,0.7,0.5c0.3,0.4,0.5,0.8,0.5,1.3c0,0.5-0.4,1-1,1.6L47,45.9
	L43,41.2z M47.2,44.8l1.1-1c0.5-0.4,0.7-0.7,0.7-1c0-0.3-0.1-0.5-0.3-0.8c-0.2-0.2-0.3-0.3-0.6-0.3c-0.2,0-0.4,0-0.6,0.1
	c-0.2,0.1-0.5,0.3-0.9,0.7l-0.8,0.7L47.2,44.8z M52.6,41.4l-3.3-5.2l0.7-0.4l1.4,2.2l2.7-1.7L52.6,34l0.7-0.4l3.3,5.2l-0.7,0.4
	l-1.6-2.5l-2.7,1.7l1.6,2.5L52.6,41.4z M56.9,31.8l0.8-0.3l1,2.5l1.4-0.5c0.9-0.4,1.6-0.4,2-0.2c0.4,0.2,0.7,0.5,0.9,1
	c0.2,0.4,0.2,0.9,0,1.4c-0.2,0.5-0.7,0.8-1.5,1.2l-2.2,0.9L56.9,31.8z M59.7,36.6l1.4-0.5c0.5-0.2,0.8-0.4,0.9-0.7
	c0.2-0.2,0.2-0.5,0-0.9c-0.1-0.2-0.2-0.4-0.4-0.5c-0.2-0.1-0.4-0.1-0.6-0.1c-0.2,0-0.6,0.2-1.1,0.3l-1,0.4L59.7,36.6z M62,29.8
	l0.8-0.3l2.3,5.8l-0.8,0.3L62,29.8z M66.7,28.5l0.7-0.1l0.9,4.8l2.4-5.4l0.8-0.1l1.1,6.1l-0.7,0.1L71,29l-2.4,5.4l-0.8,0.1
	L66.7,28.5z M69.5,26.5l0.5-0.1c0,0.4-0.1,0.7-0.2,0.9c-0.2,0.2-0.4,0.4-0.8,0.4c-0.4,0.1-0.7,0-0.9-0.1c-0.2-0.1-0.4-0.4-0.5-0.7
	l0.5-0.1c0.1,0.2,0.2,0.3,0.3,0.4c0.1,0.1,0.3,0.1,0.5,0.1c0.2,0,0.4-0.1,0.5-0.2C69.4,26.8,69.5,26.7,69.5,26.5z M77.9,27.3
	l4.9,0.1l-0.2,6.2l-0.8,0l0.1-5.5L78.7,28l-0.2,5.5l-0.8,0L77.9,27.3z M85.4,34l1.4-6l2.3,0.5c0.4,0.1,0.7,0.2,0.9,0.3
	c0.3,0.1,0.5,0.3,0.7,0.5c0.2,0.2,0.3,0.4,0.4,0.7c0.1,0.3,0.1,0.6,0,0.9c-0.1,0.5-0.4,0.9-0.8,1.2c-0.4,0.3-1,0.3-1.9,0.1l-1.6-0.4
	l-0.6,2.5L85.4,34z M86.9,31l1.6,0.4c0.5,0.1,0.9,0.1,1.2,0c0.3-0.1,0.4-0.4,0.5-0.7c0.1-0.3,0-0.5,0-0.7c-0.1-0.2-0.2-0.4-0.4-0.5
	c-0.1-0.1-0.4-0.1-0.7-0.2l-1.5-0.4L86.9,31z M92.4,35.8l2.3-5.8l4.2,1.7l-0.3,0.7L95.2,31l-0.7,1.8l3.2,1.3l-0.3,0.7l-3.2-1.3
	l-0.8,2l3.5,1.4l-0.3,0.7L92.4,35.8z M102.6,33.6l3.3,1.9l-2.7,4.7l0.5,0.3l-1.1,1.9l-0.6-0.4l0.7-1.3l-3.6-2L98.3,40l-0.6-0.4
	l1.1-1.9l0.4,0.2c0.8-0.4,1.8-1.6,2.9-3.6L102.6,33.6z M104.8,35.7l-1.9-1.1l-0.2,0.3c-0.3,0.5-0.7,1.1-1.2,1.8
	c-0.5,0.7-1.1,1.3-1.6,1.7l2.5,1.4L104.8,35.7z M109.2,38l3.7,3.2l-4.1,4.7l-0.6-0.5l3.6-4.1l-2.4-2.1l-3.6,4.1l-0.6-0.5L109.2,38z
	 M110.8,47.9l4.7-4l1.5,1.8c0.3,0.3,0.5,0.6,0.6,0.8c0.2,0.3,0.3,0.5,0.3,0.8c0,0.2,0,0.5-0.1,0.8c-0.1,0.3-0.3,0.5-0.5,0.7
	c-0.4,0.3-0.8,0.5-1.3,0.5c-0.5,0-1-0.4-1.6-1l-1-1.2l-1.9,1.6L110.8,47.9z M113.8,46.4l1,1.2c0.3,0.4,0.7,0.6,1,0.7
	c0.3,0,0.6-0.1,0.9-0.3c0.2-0.2,0.3-0.4,0.4-0.6c0.1-0.2,0-0.4-0.1-0.6c-0.1-0.1-0.2-0.3-0.5-0.6l-1-1.2L113.8,46.4z M120.6,50.4
	l0.4,0.6l-4.3,2.5l5.9,0.4l0.4,0.7l-5.4,3.1l-0.4-0.6l4.2-2.5l-5.9-0.4l-0.4-0.7L120.6,50.4z M118.8,60.3l5.8-2.3l0.3,0.8l-2.4,0.9
	l1.2,3l2.4-0.9l0.3,0.8l-5.8,2.3l-0.3-0.8L123,63l-1.2-3l-2.7,1.1L118.8,60.3z M127.4,66.5l0.1,0.7l-4.8,0.9l5.4,2.4l0.1,0.8
	l-6.1,1.1l-0.1-0.7l4.8-0.9l-5.4-2.4l-0.1-0.8L127.4,66.5z M122.5,75.1l6.2,0.2l0,1.2l-4.4,1.3c-0.4,0.1-0.7,0.2-0.9,0.3
	c0.2,0.1,0.6,0.2,1,0.4l4.3,1.6l0,1.1l-6.2-0.2l0-0.8l5.2,0.1l-5.1-2l0-0.7l5.3-1.6l-5.3-0.1L122.5,75.1z M122.3,83.1l5.7,3.4
	l-0.2,0.9l-6.6,1.4l0.2-0.9l2-0.4l0.5-2.6l-1.7-1L122.3,83.1z M124.4,85.3l-0.4,2.1l1.8-0.3c0.5-0.1,1-0.2,1.4-0.2
	c-0.4-0.2-0.8-0.3-1.1-0.5L124.4,85.3z M120.3,91.7l5.2,1.8l0.7-1.9l0.7,0.2l-1.6,4.6l-0.7-0.2l0.7-1.9l-5.2-1.8L120.3,91.7z
	 M118.5,96.5l5.5,2.8l-2,4l-0.6-0.3l1.7-3.3l-1.7-0.9l-1.6,3l-0.6-0.3l1.6-3l-1.9-1L117,101l-0.6-0.3L118.5,96.5z M119.7,106.7
	l-2.2,3.2l-5.1-3.6l0.5-0.7l4.5,3.2l1.3-1.8l-2.6-1.9c-0.5-0.4-0.9-0.7-1.1-0.9c-0.2-0.2-0.3-0.5-0.4-0.7c0-0.3,0.1-0.5,0.2-0.8
	c0.1-0.1,0.3-0.3,0.5-0.5l0.5,0.5c-0.1,0.1-0.2,0.1-0.3,0.2c-0.1,0.2-0.1,0.3-0.1,0.5c0.1,0.2,0.3,0.4,0.7,0.7L119.7,106.7z
	 M114.8,112.9l-0.6,0.6l-1.8-1.9l-1.1,1c-0.5,0.5-0.9,0.8-1.2,0.9c-0.3,0.1-0.6,0.1-0.9,0c-0.3-0.1-0.5-0.3-0.7-0.5
	c-0.3-0.3-0.5-0.8-0.5-1.3c0-0.5,0.3-1,0.9-1.7l1.7-1.6L114.8,112.9z M110.4,109.5l-1.1,1c-0.4,0.4-0.6,0.8-0.6,1.1
	c0,0.3,0.1,0.5,0.3,0.8c0.2,0.2,0.4,0.3,0.6,0.3c0.2,0,0.4,0,0.6-0.1c0.2-0.1,0.5-0.4,0.9-0.7l0.8-0.8L110.4,109.5z"/>
<path id="path10" class="st1" d="M56.2,124.4l2.4-6l1.2,0.5l-0.3,4.8c0,0.4-0.1,0.8-0.1,1c0.2-0.2,0.4-0.5,0.7-0.8l3.1-3.6l1.1,0.4
	l-2.4,6l-0.8-0.3l2-5l-3.8,4.3l-0.7-0.3l0.3-5.8l-2.1,5.1L56.2,124.4z M65.3,124.3c0.2-1,0.7-1.8,1.4-2.2c0.7-0.5,1.5-0.6,2.4-0.4
	c0.6,0.1,1.1,0.4,1.5,0.8c0.4,0.4,0.7,0.9,0.8,1.4c0.1,0.6,0.1,1.1,0,1.8c-0.1,0.6-0.4,1.2-0.8,1.6c-0.4,0.4-0.8,0.7-1.4,0.9
	c-0.5,0.1-1.1,0.2-1.6,0c-0.6-0.1-1.1-0.4-1.5-0.8c-0.4-0.4-0.7-0.9-0.8-1.4C65.2,125.4,65.2,124.9,65.3,124.3L65.3,124.3z
	 M66.2,124.5c-0.2,0.8-0.1,1.4,0.2,1.9c0.3,0.5,0.8,0.9,1.4,1c0.6,0.1,1.2,0,1.7-0.3c0.5-0.3,0.9-0.9,1-1.7c0.1-0.5,0.1-1,0.1-1.4
	c-0.1-0.4-0.3-0.8-0.6-1.1c-0.3-0.3-0.6-0.5-1-0.6c-0.6-0.1-1.1-0.1-1.7,0.3C66.8,123,66.4,123.6,66.2,124.5L66.2,124.5z
	 M78.1,126.9l0.8,0.2c-0.2,0.7-0.5,1.2-1,1.6c-0.5,0.4-1,0.5-1.7,0.5c-0.7,0-1.3-0.2-1.7-0.5c-0.4-0.3-0.7-0.7-1-1.3
	c-0.2-0.5-0.3-1.1-0.3-1.7c0-0.7,0.2-1.3,0.4-1.7c0.3-0.5,0.7-0.9,1.1-1.1c0.5-0.2,1-0.4,1.6-0.3c0.6,0,1.2,0.2,1.6,0.5
	c0.4,0.3,0.7,0.8,0.9,1.4l-0.8,0.2c-0.1-0.5-0.3-0.8-0.6-1c-0.3-0.2-0.6-0.3-1.1-0.4c-0.5,0-0.9,0.1-1.3,0.3s-0.6,0.5-0.7,0.9
	c-0.1,0.4-0.2,0.8-0.2,1.2c0,0.5,0,1,0.2,1.4c0.1,0.4,0.4,0.7,0.7,0.9c0.3,0.2,0.7,0.3,1.1,0.3c0.5,0,0.9-0.1,1.2-0.4
	C77.7,127.8,77.9,127.4,78.1,126.9z M80.9,122.6l0.8-0.1l0.3,2.8c0.4,0,0.7-0.2,0.8-0.3c0.1-0.2,0.3-0.6,0.5-1.2
	c0.1-0.4,0.2-0.8,0.3-0.9c0.1-0.2,0.2-0.4,0.4-0.5c0.2-0.1,0.4-0.2,0.7-0.3c0.3,0,0.5-0.1,0.5-0.1l0.1,0.7c0,0-0.1,0-0.2,0
	c-0.1,0-0.2,0-0.2,0c-0.3,0-0.5,0.1-0.6,0.3c-0.1,0.1-0.2,0.4-0.4,0.9c-0.1,0.6-0.3,0.9-0.4,1.1c-0.1,0.2-0.3,0.3-0.5,0.4
	c0.4,0.1,0.9,0.4,1.4,1l1.6,2l-1.1,0.1l-1.3-1.6c-0.4-0.4-0.6-0.7-0.9-0.9c-0.2-0.2-0.5-0.2-0.8-0.2l0.4,3l-0.8,0.1L80.9,122.6z
	 M88.4,128l-1.5-6.3l2.4-0.5c0.5-0.1,0.9-0.1,1.2-0.1c0.3,0.1,0.6,0.2,0.8,0.4c0.2,0.2,0.4,0.5,0.4,0.8c0.1,0.3,0,0.5,0,0.8
	c-0.1,0.3-0.3,0.5-0.5,0.7c0.4,0,0.7,0.1,1,0.4c0.3,0.2,0.4,0.5,0.5,0.9c0.1,0.3,0.1,0.6,0,0.9c-0.1,0.3-0.2,0.5-0.3,0.7
	c-0.2,0.2-0.4,0.3-0.6,0.5c-0.3,0.1-0.6,0.2-1,0.3L88.4,128z M88.4,124.2l1.4-0.3c0.4-0.1,0.6-0.2,0.8-0.3c0.2-0.1,0.3-0.3,0.4-0.4
	c0.1-0.2,0.1-0.4,0-0.6c0-0.2-0.1-0.4-0.3-0.5c-0.1-0.1-0.3-0.2-0.5-0.2c-0.2,0-0.5,0-1,0.1l-1.3,0.3L88.4,124.2z M89.1,127.1
	l1.6-0.4c0.3-0.1,0.5-0.1,0.6-0.2c0.2-0.1,0.3-0.2,0.4-0.3c0.1-0.1,0.2-0.3,0.2-0.4c0-0.2,0-0.4,0-0.6c-0.1-0.2-0.2-0.4-0.3-0.6
	c-0.2-0.1-0.4-0.2-0.6-0.3c-0.2,0-0.5,0-0.9,0.1l-1.5,0.3L89.1,127.1z M94.9,126.3l-0.1-6.9l0.9-0.3l4.8,5l-0.9,0.4l-1.4-1.5l-2.5,1
	l0.1,2.1L94.9,126.3z M95.7,123.1l2-0.8l-1.3-1.4c-0.4-0.4-0.7-0.8-0.9-1.1c0.1,0.4,0.1,0.9,0.1,1.3L95.7,123.1z"/>
<path id="path12" class="st1" d="M49.8,117.7l0.2-0.6c0.5,0.2,0.8,0.3,1,0.4c-0.1-0.5-0.1-0.9-0.1-1.1h0.6c0,0.3,0,0.6-0.1,1.1
	c0.3-0.1,0.6-0.3,1-0.4l0.2,0.6c-0.4,0.1-0.7,0.2-1.1,0.2c0.2,0.2,0.4,0.4,0.7,0.8l-0.5,0.4c-0.2-0.2-0.4-0.5-0.6-0.9
	c-0.2,0.4-0.4,0.7-0.6,0.9l-0.5-0.4c0.3-0.4,0.6-0.7,0.7-0.8C50.5,117.9,50.1,117.8,49.8,117.7z"/>
<g>
	<path class="st2" d="M22.6,67.9c0.3,0.1,0.5,0.1,0.7,0c0.1,0,0.2-0.1,0.2-0.2c0-0.1,0-0.1,0-0.2c0-0.1-0.1-0.1-0.2-0.2
		c-0.1,0-0.3-0.1-0.5-0.1c-0.3-0.1-0.6-0.1-0.7,0c-0.1,0-0.2,0.1-0.2,0.2c0,0.1,0,0.2,0.1,0.3C22.1,67.8,22.3,67.9,22.6,67.9z"/>
	<path class="st2" d="M21.5,71c0.1,0.1,0.3,0.1,0.6,0.2c0.3,0,0.5,0,0.7,0c0.1,0,0.2-0.1,0.2-0.2c0-0.1,0-0.1-0.1-0.2
		c0-0.1-0.1-0.1-0.2-0.1c-0.1,0-0.3-0.1-0.5-0.1c-0.3,0-0.6,0-0.7,0c-0.1,0-0.2,0.1-0.2,0.2C21.3,70.8,21.3,70.9,21.5,71z"/>
	<path class="st2" d="M27.8,52.5c0.3,0.1,0.5,0.2,0.6,0.2c0.1,0,0.2,0,0.3-0.1c0-0.1,0-0.1,0-0.2c0-0.1-0.1-0.1-0.2-0.2
		c-0.1-0.1-0.2-0.2-0.4-0.3c-0.3-0.2-0.5-0.2-0.6-0.2c-0.1,0-0.2,0-0.3,0.1c-0.1,0.1,0,0.2,0,0.3C27.3,52.3,27.5,52.4,27.8,52.5z"/>
	<path class="st2" d="M21,77.6c0.1,0.1,0.3,0.1,0.7,0.1c0.3,0,0.5,0,0.7-0.1c0.1-0.1,0.2-0.1,0.2-0.2c0-0.1,0-0.1-0.1-0.2
		c0-0.1-0.1-0.1-0.2-0.1c-0.1,0-0.3,0-0.5,0c-0.3,0-0.6,0-0.7,0.1c-0.1,0.1-0.2,0.1-0.2,0.3C20.9,77.4,20.9,77.5,21,77.6z"/>
	<path class="st2" d="M21.2,74.3c0.1,0.1,0.3,0.1,0.7,0.1c0.3,0,0.5,0,0.7,0c0.1,0,0.2-0.1,0.2-0.2c0-0.1,0-0.1-0.1-0.2
		c0-0.1-0.1-0.1-0.2-0.1c-0.1,0-0.3-0.1-0.5-0.1c-0.3,0-0.6,0-0.7,0c-0.1,0-0.2,0.1-0.2,0.2C21,74.1,21,74.2,21.2,74.3z"/>
	<path class="st2" d="M23.2,64.8c0.3,0.1,0.5,0.1,0.7,0.1c0.1,0,0.2-0.1,0.2-0.2c0-0.1,0-0.1,0-0.2c0-0.1-0.1-0.1-0.2-0.2
		c-0.1,0-0.3-0.1-0.5-0.2C23.1,64,22.9,64,22.7,64c-0.1,0-0.2,0.1-0.2,0.2c0,0.1,0,0.2,0.1,0.3C22.7,64.6,22.9,64.7,23.2,64.8z"/>
	<path class="st2" d="M26.4,55.5c0.3,0.1,0.5,0.2,0.6,0.2c0.1,0,0.2-0.1,0.3-0.2c0-0.1,0-0.1,0-0.2c0-0.1-0.1-0.1-0.2-0.2
		C27,55,26.9,55,26.7,54.9c-0.3-0.1-0.5-0.2-0.7-0.2c-0.1,0-0.2,0.1-0.3,0.2c0,0.1,0,0.2,0.1,0.3C25.9,55.2,26.1,55.3,26.4,55.5z"/>
	<path class="st2" d="M22.6,80.5c0-0.1,0-0.1-0.1-0.2c-0.1-0.1-0.1-0.1-0.2-0.1c-0.1,0-0.3,0-0.5,0c-0.3,0-0.6,0-0.7,0.1
		c-0.1,0.1-0.2,0.1-0.2,0.3c0,0.1,0.1,0.2,0.2,0.2c0.1,0,0.3,0.1,0.7,0.1c0.3,0,0.5,0,0.7-0.1C22.5,80.7,22.6,80.6,22.6,80.5z"/>
	<path class="st2" d="M25.1,58.5c0.3,0.1,0.5,0.2,0.6,0.2c0.1,0,0.2-0.1,0.3-0.2c0-0.1,0-0.1,0-0.2c0-0.1-0.1-0.1-0.2-0.2
		c-0.1-0.1-0.2-0.1-0.5-0.2c-0.3-0.1-0.5-0.2-0.7-0.2c-0.1,0-0.2,0.1-0.3,0.2c0,0.1,0,0.2,0.1,0.3C24.7,58.3,24.8,58.4,25.1,58.5z"
		/>
	<path class="st2" d="M31.3,46.5c0.2,0.1,0.4,0.2,0.5,0.2c0.1,0,0.3-0.1,0.4-0.2c0.1-0.1,0.1-0.3,0.1-0.4c0-0.1-0.2-0.3-0.4-0.5
		c-0.2-0.1-0.4-0.2-0.5-0.2c-0.1,0-0.3,0.1-0.4,0.2c-0.1,0.1-0.1,0.3-0.1,0.4C31,46.2,31.1,46.3,31.3,46.5z"/>
	<path class="st2" d="M24.1,61.6c0.3,0.1,0.5,0.1,0.7,0.1c0.1,0,0.2-0.1,0.2-0.2c0-0.1,0-0.1,0-0.2c0-0.1-0.1-0.1-0.2-0.2
		c-0.1-0.1-0.3-0.1-0.5-0.2c-0.3-0.1-0.6-0.1-0.7-0.1c-0.1,0-0.2,0.1-0.2,0.2c0,0.1,0,0.2,0.1,0.3C23.6,61.4,23.8,61.5,24.1,61.6z"
		/>
	<path class="st2" d="M33.7,111.4c-0.1,0-0.2,0-0.3,0.1c-0.1,0-0.2,0.1-0.4,0.3c-0.3,0.2-0.4,0.4-0.5,0.5c-0.1,0.1,0,0.2,0,0.3
		c0.1,0.1,0.2,0.1,0.3,0.1c0.1,0,0.3-0.1,0.6-0.3c0.3-0.2,0.4-0.4,0.5-0.5c0.1-0.1,0.1-0.2,0-0.3C33.8,111.5,33.8,111.4,33.7,111.4z
		"/>
	<path class="st2" d="M42.6,120.7c-0.1,0-0.2,0-0.2,0.1c-0.1,0.1-0.2,0.2-0.3,0.4c-0.2,0.3-0.3,0.5-0.4,0.6c0,0.1,0,0.2,0.1,0.3
		c0.1,0.1,0.2,0.1,0.3,0c0.1-0.1,0.3-0.2,0.5-0.5c0.2-0.3,0.3-0.4,0.3-0.6c0-0.1,0-0.2-0.1-0.3C42.7,120.7,42.6,120.7,42.6,120.7z"
		/>
	<path class="st2" d="M45.1,122.7c-0.1,0-0.1,0.1-0.2,0.1c-0.1,0.1-0.2,0.2-0.3,0.4c-0.2,0.3-0.3,0.5-0.3,0.6c0,0.1,0,0.2,0.1,0.3
		c0.1,0.1,0.2,0.1,0.3,0c0.1-0.1,0.3-0.2,0.4-0.5c0.2-0.3,0.3-0.5,0.3-0.6c0-0.1,0-0.2-0.1-0.3C45.2,122.7,45.2,122.7,45.1,122.7z"
		/>
	<path class="st2" d="M37.9,116.3c-0.1,0-0.2,0-0.3,0.1c-0.1,0.1-0.2,0.2-0.4,0.3c-0.2,0.2-0.4,0.4-0.4,0.5c0,0.1,0,0.2,0.1,0.3
		c0.1,0.1,0.2,0.1,0.3,0.1c0.1,0,0.3-0.2,0.5-0.4c0.2-0.2,0.4-0.4,0.4-0.5c0-0.1,0-0.2,0-0.3C38,116.3,37.9,116.3,37.9,116.3z"/>
	<path class="st2" d="M40.1,118.6c-0.1,0-0.2,0-0.2,0.1c-0.1,0.1-0.2,0.2-0.4,0.3c-0.2,0.2-0.4,0.4-0.4,0.6c0,0.1,0,0.2,0.1,0.3
		c0.1,0.1,0.2,0.1,0.3,0c0.1,0,0.3-0.2,0.5-0.4c0.2-0.2,0.4-0.4,0.4-0.5c0-0.1,0-0.2-0.1-0.3C40.3,118.6,40.2,118.6,40.1,118.6z"/>
	<path class="st2" d="M50.5,126.2c-0.1,0-0.1,0.1-0.2,0.1c-0.1,0.1-0.2,0.2-0.3,0.4c-0.2,0.3-0.3,0.5-0.3,0.6c0,0.1,0,0.2,0.1,0.3
		c0.1,0.1,0.2,0,0.3,0c0.1-0.1,0.2-0.3,0.4-0.5c0.2-0.3,0.2-0.5,0.3-0.6c0-0.1,0-0.2-0.1-0.3C50.6,126.2,50.6,126.2,50.5,126.2z"/>
	<path class="st2" d="M65,133c-0.1,0-0.1,0.1-0.1,0.2c0,0.1,0,0.1,0,0.2c0,0.1,0.1,0.1,0.3,0.1l0.2,0.1l0.1-0.6l-0.2,0
		C65.1,132.9,65,132.9,65,133z"/>
	<path class="st2" d="M28.7,103.7c0.1-0.1,0.1-0.2,0-0.3c0-0.1-0.1-0.1-0.2-0.1c-0.1,0-0.2,0-0.3,0c-0.1,0-0.3,0.1-0.5,0.2
		c-0.3,0.2-0.5,0.3-0.6,0.4c-0.1,0.1-0.1,0.2,0,0.3c0.1,0.1,0.1,0.2,0.3,0.1c0.1,0,0.3-0.1,0.6-0.2v0
		C28.4,103.9,28.6,103.8,28.7,103.7z"/>
	<path class="st2" d="M30.3,106.2c0-0.1-0.1-0.1-0.2-0.1c-0.1,0-0.2,0-0.3,0c-0.1,0-0.3,0.1-0.5,0.2c-0.3,0.2-0.5,0.3-0.5,0.4
		c-0.1,0.1-0.1,0.2,0,0.3c0.1,0.1,0.2,0.1,0.3,0.1c0.1,0,0.3-0.1,0.6-0.3c0.3-0.2,0.5-0.3,0.5-0.4C30.3,106.4,30.3,106.3,30.3,106.2
		z"/>
	<path class="st2" d="M27.3,100.5c0-0.1-0.1-0.1-0.1-0.1c-0.1,0-0.2,0-0.3,0c-0.1,0-0.3,0.1-0.5,0.2c-0.3,0.1-0.5,0.3-0.6,0.4
		c-0.1,0.1-0.1,0.2-0.1,0.3c0,0.1,0.1,0.2,0.3,0.2c0.1,0,0.3-0.1,0.6-0.2v0c0.3-0.1,0.5-0.3,0.6-0.4
		C27.3,100.7,27.4,100.6,27.3,100.5z"/>
	<path class="st2" d="M35.6,40c-0.1,0-0.2,0.1-0.3,0.2l-0.1,0.2l0.4,0.4l0.1-0.1c0.1-0.1,0.2-0.2,0.2-0.3c0-0.1,0-0.1-0.1-0.2
		C35.7,40,35.6,40,35.6,40z"/>
	<path class="st2" d="M31.8,108.8c-0.1,0-0.2,0-0.3,0c-0.1,0-0.3,0.1-0.4,0.2c-0.3,0.2-0.5,0.3-0.5,0.4c-0.1,0.1-0.1,0.2,0,0.3
		c0.1,0.1,0.2,0.1,0.3,0.1c0.1,0,0.3-0.1,0.6-0.3c0.3-0.2,0.4-0.3,0.5-0.4c0.1-0.1,0.1-0.2,0-0.3C31.9,108.8,31.9,108.8,31.8,108.8z
		"/>
	<path class="st2" d="M35.7,113.9c-0.1,0-0.2,0-0.3,0.1c-0.1,0.1-0.2,0.2-0.4,0.3c-0.3,0.2-0.4,0.4-0.5,0.5c-0.1,0.1,0,0.2,0,0.3
		c0.1,0.1,0.2,0.1,0.3,0.1c0.1,0,0.3-0.2,0.5-0.4c0.2-0.2,0.4-0.4,0.4-0.5c0.1-0.1,0-0.2,0-0.3C35.8,114,35.8,113.9,35.7,113.9z"/>
	<path class="st2" d="M47.7,124.5c-0.1,0-0.1,0.1-0.2,0.1c-0.1,0.1-0.2,0.2-0.3,0.4c-0.2,0.3-0.3,0.5-0.3,0.6c0,0.1,0,0.2,0.1,0.3
		c0.1,0.1,0.2,0.1,0.3,0c0.1-0.1,0.2-0.2,0.4-0.5c0.2-0.3,0.3-0.5,0.3-0.6c0-0.1,0-0.2-0.1-0.3C47.9,124.5,47.8,124.5,47.7,124.5z"
		/>
	<path class="st2" d="M113.1,35c0.1,0,0.2,0,0.2-0.1c0.1-0.1,0.2-0.2,0.3-0.4c0.2-0.3,0.3-0.5,0.4-0.6c0-0.1,0-0.2-0.1-0.3
		c-0.1-0.1-0.2-0.1-0.3,0c-0.1,0.1-0.3,0.2-0.5,0.5c-0.2,0.3-0.3,0.4-0.3,0.6c0,0.1,0,0.2,0.1,0.3C113,35,113.1,35,113.1,35z"/>
	<path class="st2" d="M120,41.8c0.1,0,0.2,0,0.3-0.1c0.1-0.1,0.2-0.2,0.4-0.3c0.3-0.2,0.4-0.4,0.5-0.5c0.1-0.1,0-0.2,0-0.3
		c-0.1-0.1-0.2-0.1-0.3-0.1c-0.1,0-0.3,0.2-0.5,0.4c-0.2,0.2-0.4,0.4-0.4,0.5c-0.1,0.1,0,0.2,0,0.3C119.9,41.7,120,41.8,120,41.8z"
		/>
	<path class="st2" d="M117.9,39.4c0.1,0,0.2,0,0.3-0.1c0.1-0.1,0.2-0.2,0.4-0.3c0.2-0.2,0.4-0.4,0.4-0.5c0-0.1,0-0.2-0.1-0.3
		c-0.1-0.1-0.2-0.1-0.3-0.1c-0.1,0-0.3,0.2-0.5,0.4c-0.2,0.2-0.4,0.4-0.4,0.5c0,0.1,0,0.2,0,0.3C117.7,39.4,117.8,39.4,117.9,39.4z"
		/>
	<path class="st2" d="M115.6,37.2c0.1,0,0.2,0,0.2-0.1c0.1-0.1,0.2-0.2,0.4-0.3c0.2-0.2,0.4-0.4,0.4-0.6c0-0.1,0-0.2-0.1-0.3
		c-0.1-0.1-0.2-0.1-0.3,0c-0.1,0-0.3,0.2-0.5,0.4c-0.2,0.2-0.4,0.4-0.4,0.5c0,0.1,0,0.2,0.1,0.3C115.4,37.1,115.5,37.2,115.6,37.2z"
		/>
	<path class="st2" d="M110.6,33.1c0.1,0,0.2-0.1,0.2-0.1c0.1-0.1,0.2-0.2,0.3-0.4c0.2-0.3,0.3-0.5,0.3-0.6c0-0.1,0-0.2-0.1-0.3
		c-0.1-0.1-0.2-0.1-0.3,0c-0.1,0.1-0.3,0.2-0.4,0.5c-0.2,0.3-0.3,0.5-0.3,0.6c0,0.1,0,0.2,0.1,0.3C110.5,33.1,110.5,33.1,110.6,33.1
		z"/>
	<path class="st2" d="M48.3,30.9c0.1,0.1,0.2,0.1,0.3,0c0.1,0,0.1-0.1,0.1-0.2c0-0.1,0-0.2,0-0.3c0-0.1-0.1-0.3-0.2-0.4
		c-0.2-0.3-0.3-0.5-0.4-0.5c-0.1-0.1-0.2-0.1-0.3,0c-0.1,0.1-0.1,0.2-0.1,0.3c0,0.1,0.1,0.3,0.3,0.6C48.1,30.7,48.2,30.8,48.3,30.9z
		"/>
	<path class="st2" d="M105.2,29.6c0.1,0,0.1-0.1,0.2-0.1c0.1-0.1,0.2-0.2,0.3-0.4c0.2-0.3,0.3-0.5,0.3-0.6c0-0.1,0-0.2-0.1-0.3
		c-0.1-0.1-0.2,0-0.3,0c-0.1,0.1-0.2,0.3-0.4,0.5c-0.2,0.3-0.2,0.5-0.3,0.6c0,0.1,0,0.2,0.1,0.3C105.1,29.6,105.1,29.6,105.2,29.6z"
		/>
	<path class="st2" d="M133.3,74.7c0,0.1,0,0.1,0.1,0.2c0.1,0,0.1,0.1,0.2,0.1c0.1,0,0.3,0,0.5,0c0.3,0,0.6-0.1,0.7-0.1
		c0.1-0.1,0.2-0.2,0.2-0.3c0-0.1-0.1-0.2-0.2-0.2c-0.1,0-0.3-0.1-0.7,0c-0.3,0-0.5,0.1-0.7,0.1C133.3,74.5,133.3,74.6,133.3,74.7z"
		/>
	<path class="st2" d="M131.2,59.1c0.1,0,0.1,0,0.2,0c0.1,0,0.1-0.1,0.2-0.1c0-0.1,0-0.2,0-0.3l-0.1-0.2l-0.5,0.2l0.1,0.2
		C131.1,58.9,131.2,59,131.2,59.1z"/>
	<path class="st2" d="M123.9,46.9c0.1,0,0.2,0,0.3,0c0.1,0,0.2-0.1,0.4-0.3c0.3-0.2,0.4-0.4,0.5-0.5c0.1-0.1,0.1-0.2,0-0.3
		c-0.1-0.1-0.2-0.1-0.3-0.1c-0.1,0-0.3,0.1-0.6,0.3c-0.3,0.2-0.4,0.3-0.5,0.5c-0.1,0.1-0.1,0.2,0,0.3
		C123.8,46.8,123.9,46.9,123.9,46.9z"/>
	<path class="st2" d="M122.1,44.3c0.1,0,0.2,0,0.3-0.1c0.1,0,0.2-0.1,0.4-0.3c0.3-0.2,0.4-0.4,0.5-0.5c0.1-0.1,0-0.2,0-0.3
		c-0.1-0.1-0.2-0.1-0.3-0.1c-0.1,0-0.3,0.1-0.6,0.3c-0.3,0.2-0.4,0.4-0.5,0.5c-0.1,0.1-0.1,0.2,0,0.3
		C121.9,44.2,122,44.3,122.1,44.3z"/>
	<path class="st2" d="M127.8,53.1c0.1,0,0.3,0,0.6-0.1c0.2-0.1,0.3-0.2,0.4-0.4c0.1-0.1,0-0.3,0-0.4c-0.1-0.1-0.2-0.2-0.3-0.3
		c-0.1,0-0.3,0-0.6,0.1c-0.2,0.1-0.4,0.2-0.4,0.4c-0.1,0.1,0,0.3,0,0.4C127.6,53,127.7,53.1,127.8,53.1z"/>
	<path class="st2" d="M108,31.3c0.1,0,0.1-0.1,0.2-0.1c0.1-0.1,0.2-0.2,0.3-0.4c0.2-0.3,0.3-0.5,0.3-0.6c0-0.1,0-0.2-0.1-0.3
		c-0.1-0.1-0.2-0.1-0.3,0c-0.1,0.1-0.2,0.2-0.4,0.5c-0.2,0.3-0.3,0.5-0.3,0.6c0,0.1,0,0.2,0.1,0.3C107.8,31.3,107.9,31.3,108,31.3z"
		/>
	<path class="st2" d="M66.1,23.6c0.1,0.1,0.2,0.1,0.3,0.1c0.1,0,0.1-0.1,0.2-0.1c0-0.1,0.1-0.1,0.1-0.3c0-0.1,0-0.3-0.1-0.5
		c-0.1-0.3-0.2-0.5-0.2-0.6c-0.1-0.1-0.2-0.1-0.3-0.1c-0.1,0-0.2,0.1-0.2,0.2c0,0.1,0,0.3,0.1,0.7C66,23.3,66,23.5,66.1,23.6z"/>
	<path class="st2" d="M63,24.4c0.1,0.1,0.2,0.1,0.3,0.1c0.1,0,0.1-0.1,0.2-0.1c0-0.1,0.1-0.2,0-0.3c0-0.1,0-0.3-0.1-0.5
		c-0.1-0.3-0.2-0.5-0.3-0.6c-0.1-0.1-0.2-0.1-0.3-0.1c-0.1,0-0.2,0.1-0.2,0.2c0,0.1,0,0.3,0.1,0.7C62.8,24.1,62.9,24.3,63,24.4z"/>
	<path class="st2" d="M56.9,26.5c0.1,0.1,0.2,0.1,0.3,0.1c0.1,0,0.1-0.1,0.1-0.1c0-0.1,0-0.2,0-0.3c0-0.1-0.1-0.3-0.2-0.5
		c-0.1-0.3-0.2-0.5-0.3-0.6c-0.1-0.1-0.2-0.1-0.3-0.1c-0.1,0-0.2,0.1-0.2,0.3c0,0.1,0.1,0.3,0.2,0.6C56.7,26.2,56.8,26.4,56.9,26.5z
		"/>
	<path class="st2" d="M59.9,25.4c0.1,0.1,0.2,0.1,0.3,0.1c0.1,0,0.1-0.1,0.2-0.1c0-0.1,0-0.2,0-0.3c0-0.1-0.1-0.3-0.1-0.5
		c-0.1-0.3-0.2-0.5-0.3-0.6c-0.1-0.1-0.2-0.1-0.3-0.1c-0.1,0-0.2,0.1-0.2,0.2c0,0.1,0,0.3,0.1,0.6C59.7,25.1,59.8,25.3,59.9,25.4z"
		/>
	<path class="st2" d="M54,27.8c0.1,0.1,0.2,0.1,0.3,0.1c0.1,0,0.1-0.1,0.1-0.1c0-0.1,0-0.2,0-0.3c0-0.1-0.1-0.3-0.2-0.5
		c-0.1-0.3-0.3-0.5-0.4-0.6c-0.1-0.1-0.2-0.1-0.3-0.1c-0.1,0-0.2,0.1-0.2,0.3c0,0.1,0.1,0.3,0.2,0.6C53.7,27.5,53.9,27.7,54,27.8z"
		/>
	<path class="st2" d="M102.2,28.1c0.1,0,0.1,0,0.2,0c0.1,0,0.1-0.1,0.2-0.2c0.1-0.1,0.2-0.2,0.3-0.4c0.2-0.3,0.2-0.5,0.2-0.6
		c0-0.1,0-0.2-0.1-0.3c-0.1-0.1-0.2,0-0.3,0c-0.1,0.1-0.2,0.3-0.4,0.6c-0.1,0.3-0.2,0.5-0.2,0.6C102,27.9,102.1,28,102.2,28.1z"/>
	<path class="st2" d="M51.1,29.3c0.1,0.1,0.2,0.1,0.3,0c0.1,0,0.1-0.1,0.1-0.2c0-0.1,0-0.2,0-0.3c0-0.1-0.1-0.3-0.2-0.5
		c-0.2-0.3-0.3-0.5-0.4-0.5c-0.1-0.1-0.2-0.1-0.3,0c-0.1,0.1-0.1,0.2-0.1,0.3c0,0.1,0.1,0.3,0.3,0.6C50.8,29,51,29.2,51.1,29.3z"/>
	<path class="st2" d="M79.2,22.6c0.1,0,0.1,0,0.2-0.1c0.1,0,0.1-0.1,0.1-0.2c0-0.1,0-0.3,0-0.5c0-0.3,0-0.6-0.1-0.7
		c-0.1-0.1-0.1-0.2-0.3-0.2c-0.1,0-0.2,0.1-0.3,0.2c-0.1,0.1-0.1,0.3-0.1,0.7c0,0.3,0,0.5,0.1,0.7C79,22.5,79.1,22.6,79.2,22.6z"/>
	<path class="st2" d="M82.4,22.7c0.1,0,0.1,0,0.2-0.1c0.1,0,0.1-0.1,0.1-0.2c0-0.1,0.1-0.3,0.1-0.5c0-0.3,0-0.6,0-0.7
		c0-0.1-0.1-0.2-0.2-0.2c-0.1,0-0.2,0-0.3,0.2c-0.1,0.1-0.1,0.3-0.1,0.7c0,0.3,0,0.5,0,0.7C82.2,22.6,82.3,22.7,82.4,22.7z"/>
	<path class="st2" d="M72.5,22.6c0.1,0.1,0.2,0.2,0.3,0.2c0.1,0,0.1,0,0.2-0.1c0-0.1,0.1-0.1,0.1-0.2c0-0.1,0-0.3,0-0.5
		c0-0.3-0.1-0.6-0.1-0.7c-0.1-0.1-0.2-0.2-0.3-0.2c-0.1,0-0.2,0.1-0.2,0.2c0,0.1-0.1,0.3,0,0.7C72.4,22.3,72.4,22.5,72.5,22.6z"/>
	<path class="st2" d="M69.3,23c0.1,0.1,0.2,0.2,0.3,0.1c0.1,0,0.1,0,0.2-0.1c0-0.1,0.1-0.1,0.1-0.3c0-0.1,0-0.3,0-0.5
		c0-0.3-0.1-0.6-0.2-0.7c-0.1-0.1-0.2-0.2-0.3-0.1c-0.1,0-0.2,0.1-0.2,0.2c0,0.1,0,0.3,0,0.7C69.2,22.7,69.2,22.9,69.3,23z"/>
	<path class="st2" d="M76,22.6c0.1,0,0.1,0,0.2-0.1c0.1-0.1,0.1-0.1,0.1-0.2c0-0.1,0-0.3,0-0.5c0-0.3,0-0.6-0.1-0.7
		c-0.1-0.1-0.1-0.2-0.3-0.2c-0.1,0-0.2,0.1-0.2,0.2c0,0.1-0.1,0.3-0.1,0.7c0,0.3,0,0.5,0.1,0.7C75.8,22.5,75.9,22.6,76,22.6z"/>
	<path class="st2" d="M105,126.5c-0.1-0.1-0.2-0.1-0.3,0c-0.1,0-0.1,0.1-0.1,0.2c0,0.1,0,0.2,0,0.3c0,0.1,0.1,0.3,0.2,0.5
		c0.2,0.3,0.3,0.5,0.4,0.5c0.1,0.1,0.2,0.1,0.3,0c0.1-0.1,0.1-0.2,0.1-0.3c0-0.1-0.1-0.3-0.3-0.6C105.3,126.8,105.2,126.6,105,126.5
		z"/>
	<path class="st2" d="M125.2,108.4c-0.3-0.2-0.5-0.3-0.6-0.3c-0.1,0-0.2,0-0.3,0.1c0,0.1-0.1,0.1,0,0.2c0,0.1,0.1,0.1,0.1,0.2
		c0.1,0.1,0.2,0.2,0.4,0.3c0.3,0.2,0.5,0.3,0.6,0.3c0.1,0,0.2,0,0.3-0.1c0.1-0.1,0.1-0.2,0-0.3C125.7,108.7,125.5,108.6,125.2,108.4
		z"/>
	<path class="st2" d="M86.9,132.8c-0.1-0.1-0.2-0.2-0.3-0.1c-0.1,0-0.1,0-0.2,0.1c0,0.1-0.1,0.1-0.1,0.3c0,0.1,0,0.3,0.1,0.5
		c0.1,0.3,0.1,0.6,0.2,0.7c0.1,0.1,0.2,0.1,0.3,0.1c0.1,0,0.2-0.1,0.2-0.2c0-0.1,0-0.3,0-0.7C87,133.2,87,132.9,86.9,132.8z"/>
	<path class="st2" d="M110.5,123.1c-0.1-0.1-0.2-0.1-0.3,0c-0.1,0-0.1,0.1-0.1,0.2c0,0.1,0,0.2,0,0.3c0,0.1,0.1,0.2,0.3,0.4
		c0.2,0.3,0.4,0.4,0.5,0.5c0.1,0.1,0.2,0.1,0.3,0c0.1-0.1,0.1-0.2,0.1-0.3c0-0.1-0.1-0.3-0.3-0.6
		C110.7,123.3,110.6,123.1,110.5,123.1z"/>
	<path class="st2" d="M83.8,133.9c0-0.3-0.1-0.5-0.1-0.7c-0.1-0.1-0.2-0.2-0.3-0.2c-0.1,0-0.1,0-0.2,0.1c0,0.1-0.1,0.1-0.1,0.2
		c0,0.1,0,0.3,0,0.5c0,0.3,0.1,0.6,0.1,0.7c0.1,0.1,0.2,0.2,0.3,0.2c0.1,0,0.2-0.1,0.2-0.2C83.8,134.5,83.8,134.2,83.8,133.9
		L83.8,133.9z"/>
	<path class="st2" d="M126.9,105.7c-0.3-0.2-0.5-0.2-0.6-0.3c-0.1,0-0.2,0-0.3,0.1c0,0.1,0,0.1,0,0.2c0,0.1,0.1,0.1,0.1,0.2
		c0.1,0.1,0.2,0.2,0.4,0.3c0.3,0.2,0.5,0.3,0.6,0.3c0.1,0,0.2,0,0.3-0.1c0.1-0.1,0-0.2,0-0.3C127.4,105.9,127.2,105.8,126.9,105.7z"
		/>
	<path class="st2" d="M102.5,128.6c-0.1-0.3-0.3-0.5-0.4-0.6c-0.1-0.1-0.2-0.1-0.3-0.1c-0.1,0-0.1,0.1-0.1,0.1c0,0.1,0,0.2,0,0.3
		c0,0.1,0.1,0.3,0.2,0.5c0.1,0.3,0.3,0.5,0.4,0.6c0.1,0.1,0.2,0.1,0.3,0.1c0.1,0,0.2-0.1,0.2-0.3
		C102.7,129.1,102.7,128.9,102.5,128.6L102.5,128.6z"/>
	<path class="st2" d="M96.2,130.5c-0.1-0.1-0.2-0.1-0.3-0.1c-0.1,0-0.1,0.1-0.2,0.1c0,0.1,0,0.2,0,0.3c0,0.1,0.1,0.3,0.1,0.5
		c0.1,0.3,0.2,0.5,0.3,0.6c0.1,0.1,0.2,0.1,0.3,0.1c0.1,0,0.2-0.1,0.2-0.2c0-0.1,0-0.3-0.1-0.6C96.4,130.8,96.3,130.6,96.2,130.5z"
		/>
	<path class="st2" d="M108.2,125.4c-0.2-0.3-0.3-0.4-0.4-0.5c-0.1-0.1-0.2-0.1-0.3,0c-0.1,0-0.1,0.1-0.1,0.2c0,0.1,0,0.2,0,0.3
		c0,0.1,0.1,0.3,0.2,0.4c0.2,0.3,0.3,0.5,0.4,0.5c0.1,0.1,0.2,0.1,0.3,0c0.1-0.1,0.1-0.2,0.1-0.3
		C108.5,125.8,108.4,125.6,108.2,125.4L108.2,125.4z"/>
	<path class="st2" d="M93.2,131.4c-0.1-0.1-0.2-0.1-0.3-0.1c-0.1,0-0.1,0.1-0.2,0.1c0,0.1-0.1,0.2,0,0.3c0,0.1,0,0.3,0.1,0.5
		c0.1,0.3,0.2,0.5,0.3,0.6c0.1,0.1,0.2,0.1,0.3,0.1c0.1,0,0.2-0.1,0.2-0.2c0-0.1,0-0.3-0.1-0.7C93.3,131.7,93.2,131.5,93.2,131.4z"
		/>
	<path class="st2" d="M128.4,102.8L128.4,102.8c-0.3-0.1-0.5-0.2-0.6-0.2c-0.1,0-0.2,0-0.3,0.1c0,0.1,0,0.1,0,0.2
		c0,0.1,0.1,0.1,0.2,0.2c0.1,0.1,0.2,0.2,0.4,0.3c0.3,0.2,0.5,0.2,0.6,0.2c0.1,0,0.2,0,0.3-0.1c0.1-0.1,0-0.2,0-0.3
		C128.9,103.1,128.7,102.9,128.4,102.8z"/>
	<path class="st2" d="M90,132.2c-0.1-0.1-0.2-0.1-0.3-0.1c-0.1,0-0.1,0.1-0.2,0.1c0,0.1-0.1,0.1-0.1,0.3c0,0.1,0,0.3,0.1,0.5
		c0.1,0.3,0.2,0.5,0.2,0.6c0.1,0.1,0.2,0.1,0.3,0.1c0.1,0,0.2-0.1,0.2-0.2c0-0.1,0-0.3-0.1-0.7C90.2,132.5,90.1,132.3,90,132.2z"/>
	<path class="st2" d="M99.2,129.3c-0.1-0.1-0.2-0.1-0.3-0.1c-0.1,0-0.1,0.1-0.1,0.1c0,0.1,0,0.2,0,0.3c0,0.1,0.1,0.3,0.2,0.5
		c0.1,0.3,0.2,0.5,0.3,0.6c0.1,0.1,0.2,0.1,0.3,0.1c0.1,0,0.2-0.1,0.2-0.3c0-0.1-0.1-0.3-0.2-0.6C99.4,129.6,99.3,129.4,99.2,129.3z
		"/>
	<path class="st2" d="M133.4,87.3c-0.3-0.1-0.5-0.1-0.7,0c-0.1,0-0.2,0.1-0.2,0.2c0,0.1,0,0.1,0,0.2c0,0.1,0.1,0.1,0.2,0.2
		c0.1,0,0.3,0.1,0.5,0.1c0.3,0.1,0.6,0.1,0.7,0c0.1,0,0.2-0.1,0.2-0.2c0-0.1,0-0.2-0.1-0.3C134,87.4,133.8,87.4,133.4,87.3z"/>
	<path class="st2" d="M134.5,84.3c-0.1-0.1-0.3-0.1-0.6-0.2c-0.3,0-0.5,0-0.7,0c-0.1,0-0.2,0.1-0.2,0.2c0,0.1,0,0.1,0.1,0.2
		c0,0.1,0.1,0.1,0.2,0.1c0.1,0,0.3,0.1,0.5,0.1c0.3,0,0.6,0,0.7,0c0.1,0,0.2-0.1,0.2-0.2C134.7,84.4,134.6,84.3,134.5,84.3z"/>
	<path class="st2" d="M134.8,81c-0.1-0.1-0.3-0.1-0.7-0.1c-0.3,0-0.5,0-0.7,0c-0.1,0-0.2,0.1-0.2,0.2c0,0.1,0,0.1,0.1,0.2
		c0,0.1,0.1,0.1,0.2,0.1c0.1,0,0.3,0.1,0.5,0.1c0.3,0,0.6,0,0.7,0c0.1,0,0.2-0.1,0.2-0.2C135,81.1,134.9,81,134.8,81z"/>
	<path class="st2" d="M134.9,77.6c-0.1,0-0.3-0.1-0.7-0.1c-0.3,0-0.5,0-0.7,0.1c-0.1,0.1-0.2,0.1-0.2,0.3c0,0.1,0,0.1,0.1,0.2
		c0.1,0.1,0.1,0.1,0.2,0.1c0.1,0,0.3,0,0.5,0c0.3,0,0.6,0,0.7-0.1c0.1-0.1,0.2-0.1,0.2-0.3C135.1,77.7,135,77.7,134.9,77.6z"/>
	<path class="st2" d="M78,19.1c-32.4,0-58.8,26.4-58.8,58.8c0,32.4,26.4,58.8,58.8,58.8c32.4,0,58.8-26.4,58.8-58.8
		C136.8,45.5,110.4,19.1,78,19.1z M135.4,74.5c0,0.2,0,0.3,0,0.4c0,0.1-0.1,0.2-0.1,0.3c-0.1,0.1-0.1,0.1-0.2,0.2
		c-0.1,0-0.2,0.1-0.3,0.1c-0.2,0.1-0.4,0.1-0.6,0.1c-0.5,0-0.8,0-1-0.2c-0.2-0.1-0.4-0.4-0.4-0.8c0-0.2,0-0.4,0.1-0.5
		c0.1-0.1,0.1-0.3,0.3-0.3c0.1-0.1,0.2-0.1,0.4-0.2c0.2,0,0.3-0.1,0.5-0.1c0.5,0,0.8,0,1,0.2C135.3,73.9,135.4,74.2,135.4,74.5z
		 M135.1,71l-2.5,0.3l-0.1-0.8l1.9-0.2l-0.1-0.9l-1.9,0.2l-0.1-0.8l2.5-0.3L135.1,71z M134.1,65.3l-1.4,0.3l1.6,0.6l0.2,0.7
		l-2.5,0.6l-0.2-0.7l1.4-0.3l-1.6-0.6l-0.2-0.7l2.5-0.6L134.1,65.3z M133.1,61.6l-0.9,0.2l0.2,0.8l0.9-0.2l0.2,0.8l-2.5,0.7
		l-0.2-0.8l1-0.3l-0.2-0.8l-1,0.3l-0.2-0.8l2.4-0.7L133.1,61.6z M132.2,58.7c0.1,0.3,0.1,0.5,0,0.7c-0.1,0.2-0.2,0.3-0.5,0.4
		c-0.2,0.1-0.5,0.1-0.6,0c-0.2-0.1-0.3-0.3-0.4-0.6l-0.1-0.4l-0.9,0.3l-0.3-0.7l2.4-0.8L132.2,58.7z M131.3,56.2l-0.6,0.3l-0.5-1.1
		l-1.8,0.8l-0.3-0.7l2.3-1L131.3,56.2z M126.9,51.8c0.1-0.2,0.3-0.4,0.6-0.5c0.4-0.2,0.7-0.2,1-0.1c0.3,0.1,0.6,0.3,0.8,0.7
		c0.2,0.4,0.2,0.7,0.1,1c-0.1,0.3-0.3,0.6-0.7,0.7c-0.3,0.1-0.5,0.2-0.7,0.2c-0.2,0-0.4-0.1-0.6-0.2c-0.2-0.1-0.3-0.3-0.5-0.6
		c-0.1-0.3-0.2-0.5-0.2-0.7C126.8,52.2,126.8,52,126.9,51.8z M124.8,45.1c0.3,0,0.5,0.2,0.7,0.5c0.1,0.1,0.2,0.3,0.2,0.4
		c0,0.1,0,0.2,0,0.3c0,0.1,0,0.2-0.1,0.3c0,0.1-0.1,0.2-0.2,0.2c-0.1,0.1-0.3,0.3-0.4,0.4c-0.4,0.3-0.7,0.4-1,0.4
		c-0.3,0-0.5-0.2-0.7-0.5c-0.1-0.2-0.2-0.3-0.2-0.5c0-0.1,0-0.3,0.1-0.4c0-0.1,0.1-0.2,0.2-0.3c0.1-0.1,0.3-0.2,0.4-0.4
		C124.3,45.2,124.6,45,124.8,45.1z M122.9,42.4c0.3,0,0.5,0.2,0.7,0.4c0.1,0.1,0.2,0.3,0.2,0.4c0,0.1,0,0.2,0,0.3
		c0,0.1,0,0.2-0.1,0.3c0,0.1-0.1,0.2-0.1,0.2c-0.1,0.2-0.3,0.3-0.4,0.4c-0.4,0.3-0.7,0.4-0.9,0.4c-0.3,0-0.5-0.1-0.8-0.4
		c-0.1-0.2-0.2-0.3-0.2-0.5c0-0.1,0-0.3,0-0.4c0-0.1,0.1-0.2,0.2-0.4c0.1-0.1,0.2-0.3,0.4-0.4C122.3,42.5,122.6,42.4,122.9,42.4z
		 M120.8,39.9c0.3,0,0.5,0.1,0.7,0.4c0.1,0.1,0.2,0.3,0.2,0.4c0,0.1,0.1,0.2,0.1,0.3c0,0.1,0,0.2-0.1,0.3c0,0.1-0.1,0.2-0.1,0.2
		c-0.1,0.2-0.2,0.3-0.4,0.4c-0.3,0.3-0.7,0.5-0.9,0.5c-0.3,0-0.5-0.1-0.8-0.4c-0.1-0.2-0.2-0.3-0.3-0.5c0-0.1,0-0.3,0-0.4
		c0-0.1,0.1-0.2,0.2-0.4c0.1-0.1,0.2-0.3,0.4-0.4C120.2,40,120.5,39.9,120.8,39.9z M118.5,37.5c0.3,0,0.5,0.1,0.8,0.4
		c0.1,0.1,0.2,0.2,0.2,0.3c0,0.1,0.1,0.2,0.1,0.3c0,0.1,0,0.2,0,0.3c0,0.1-0.1,0.2-0.1,0.3c-0.1,0.2-0.2,0.3-0.4,0.5
		c-0.3,0.3-0.6,0.5-0.9,0.5c-0.3,0-0.5-0.1-0.8-0.4c-0.1-0.2-0.2-0.3-0.3-0.4c0-0.1,0-0.3,0-0.4c0-0.1,0.1-0.2,0.2-0.4
		c0.1-0.1,0.2-0.3,0.4-0.4C117.9,37.7,118.2,37.5,118.5,37.5z M114.7,36.6c0-0.1,0.1-0.2,0.2-0.4c0.1-0.1,0.2-0.3,0.3-0.4
		c0.3-0.4,0.6-0.5,0.9-0.6c0.3,0,0.5,0.1,0.8,0.3c0.1,0.1,0.2,0.2,0.3,0.3c0.1,0.1,0.1,0.2,0.1,0.3c0,0.1,0,0.2,0,0.3
		c0,0.1-0.1,0.2-0.1,0.3c-0.1,0.2-0.2,0.3-0.4,0.5c-0.3,0.3-0.6,0.5-0.9,0.6c-0.3,0-0.5-0.1-0.8-0.3c-0.2-0.1-0.3-0.3-0.3-0.4
		C114.7,36.9,114.7,36.7,114.7,36.6z M112.4,34.1c0.1-0.1,0.2-0.3,0.3-0.5h0c0.3-0.4,0.6-0.6,0.8-0.6c0.3,0,0.5,0,0.8,0.3
		c0.1,0.1,0.2,0.2,0.3,0.3c0.1,0.1,0.1,0.2,0.1,0.3c0,0.1,0,0.2,0,0.3c0,0.1,0,0.2-0.1,0.3c-0.1,0.2-0.2,0.3-0.3,0.5
		c-0.3,0.4-0.6,0.6-0.8,0.7c-0.3,0.1-0.5,0-0.8-0.2c-0.2-0.1-0.3-0.3-0.3-0.4c-0.1-0.1-0.1-0.3-0.1-0.4
		C112.3,34.4,112.3,34.3,112.4,34.1z M109.8,32.2c0.1-0.2,0.2-0.3,0.3-0.5c0.3-0.4,0.5-0.6,0.8-0.7c0.3-0.1,0.5,0,0.8,0.2
		c0.1,0.1,0.2,0.2,0.3,0.3c0.1,0.1,0.1,0.2,0.1,0.3c0,0.1,0,0.2,0,0.3c0,0.1,0,0.2-0.1,0.3c-0.1,0.2-0.2,0.4-0.3,0.5
		c-0.3,0.4-0.5,0.6-0.8,0.7c-0.3,0.1-0.5,0-0.8-0.2c-0.2-0.1-0.3-0.3-0.4-0.4c-0.1-0.1-0.1-0.3-0.1-0.4
		C109.7,32.5,109.7,32.4,109.8,32.2z M107.1,30.4c0.1-0.2,0.1-0.3,0.2-0.5c0.3-0.4,0.5-0.6,0.8-0.7c0.3-0.1,0.5,0,0.8,0.2
		c0.1,0.1,0.3,0.2,0.3,0.3c0.1,0.1,0.1,0.2,0.1,0.3c0,0.1,0,0.2,0,0.3c0,0.1,0,0.2-0.1,0.3c-0.1,0.2-0.1,0.4-0.3,0.5
		c-0.2,0.4-0.5,0.6-0.7,0.7c-0.2,0.1-0.5,0-0.9-0.2c-0.2-0.1-0.3-0.2-0.4-0.4c-0.1-0.1-0.1-0.3-0.1-0.4
		C107,30.7,107,30.6,107.1,30.4z M104.3,28.8c0.1-0.2,0.1-0.3,0.2-0.5c0.2-0.4,0.5-0.7,0.7-0.8c0.2-0.1,0.5,0,0.8,0.1
		c0.1,0.1,0.3,0.2,0.3,0.3c0.1,0.1,0.1,0.2,0.2,0.3c0,0.1,0,0.2,0,0.3c0,0.1,0,0.2,0,0.3c-0.1,0.2-0.1,0.4-0.2,0.6
		c-0.2,0.4-0.5,0.7-0.7,0.8c-0.2,0.1-0.5,0.1-0.9-0.1c-0.2-0.1-0.3-0.2-0.4-0.3c-0.1-0.1-0.1-0.3-0.1-0.4
		C104.2,29.1,104.2,29,104.3,28.8z M101.4,27.4c0-0.2,0.1-0.3,0.2-0.5c0.2-0.4,0.5-0.7,0.7-0.8c0.2-0.1,0.5-0.1,0.8,0.1
		c0.2,0.1,0.3,0.2,0.3,0.2c0.1,0.1,0.1,0.2,0.2,0.3c0,0.1,0,0.2,0,0.3c0,0.1,0,0.2,0,0.3c0,0.2-0.1,0.4-0.2,0.6
		c-0.2,0.4-0.4,0.7-0.7,0.8c-0.2,0.1-0.5,0.1-0.9-0.1c-0.2-0.1-0.3-0.2-0.4-0.3c-0.1-0.1-0.1-0.3-0.2-0.4
		C101.4,27.7,101.4,27.5,101.4,27.4z M96.2,23.4l0.7,0.3l-0.3,0.8l0.8,0.3l0.3-0.8l0.7,0.3l-0.8,2.4L97,26.3l0.3-1l-0.8-0.3l-0.3,1
		l-0.7-0.3L96.2,23.4z M92.5,22.3l0.8,0.2L93,23.3l0.8,0.2l0.2-0.9l0.8,0.2l-0.7,2.4l-0.8-0.2l0.3-1l-0.8-0.2l-0.3,1l-0.8-0.2
		L92.5,22.3z M88.7,21.4l0.7,0.2l-0.3,1.4l1.2-1.2l0.7,0.2l-0.6,2.5l-0.7-0.2l0.3-1.4L88.9,24l-0.7-0.2L88.7,21.4z M81.7,20.8
		c0.2-0.2,0.5-0.3,0.8-0.2c0.2,0,0.3,0,0.4,0.1c0.1,0.1,0.2,0.1,0.3,0.2c0.1,0.1,0.1,0.1,0.1,0.2c0,0.1,0.1,0.2,0.1,0.3
		c0,0.2,0,0.4,0,0.6c0,0.5-0.1,0.8-0.3,1c-0.2,0.2-0.4,0.3-0.8,0.3c-0.2,0-0.4-0.1-0.5-0.1c-0.1-0.1-0.2-0.2-0.3-0.3
		c-0.1-0.1-0.1-0.2-0.1-0.4c0-0.2,0-0.3,0-0.5C81.4,21.3,81.6,21,81.7,20.8z M78.4,20.7c0.2-0.2,0.4-0.3,0.8-0.3
		c0.2,0,0.3,0,0.4,0.1c0.1,0,0.2,0.1,0.3,0.2c0.1,0.1,0.1,0.1,0.2,0.2c0,0.1,0.1,0.2,0.1,0.3c0,0.2,0.1,0.4,0.1,0.6
		c0,0.5-0.1,0.8-0.3,1c-0.2,0.2-0.4,0.3-0.8,0.3c-0.2,0-0.4,0-0.5-0.1c-0.1-0.1-0.2-0.2-0.3-0.3c-0.1-0.1-0.1-0.2-0.1-0.4
		c0-0.2,0-0.3,0-0.5C78.2,21.2,78.3,20.9,78.4,20.7z M75.1,20.7c0.2-0.2,0.4-0.3,0.8-0.3c0.2,0,0.3,0,0.4,0.1c0.1,0,0.2,0.1,0.3,0.2
		c0.1,0.1,0.1,0.1,0.2,0.2c0,0.1,0.1,0.2,0.1,0.3c0.1,0.2,0.1,0.4,0.1,0.6c0,0.5-0.1,0.8-0.2,1c-0.2,0.2-0.4,0.3-0.8,0.3
		c-0.2,0-0.4,0-0.5-0.1c-0.1-0.1-0.2-0.2-0.3-0.3c-0.1-0.1-0.1-0.2-0.2-0.4c0-0.2-0.1-0.3-0.1-0.5C74.9,21.3,75,20.9,75.1,20.7z
		 M71.8,21c0.2-0.2,0.4-0.3,0.8-0.3c0.2,0,0.3,0,0.4,0c0.1,0,0.2,0.1,0.3,0.1c0.1,0.1,0.1,0.1,0.2,0.2c0,0.1,0.1,0.2,0.1,0.3
		c0.1,0.2,0.1,0.4,0.1,0.6c0,0.5,0,0.8-0.2,1c-0.1,0.2-0.4,0.4-0.8,0.4c-0.2,0-0.4,0-0.5-0.1c-0.1-0.1-0.3-0.1-0.3-0.3
		c-0.1-0.1-0.1-0.2-0.2-0.4c0-0.2-0.1-0.3-0.1-0.5C71.6,21.5,71.7,21.2,71.8,21z M68.6,21.4c0.1-0.2,0.4-0.3,0.8-0.4
		c0.2,0,0.3,0,0.4,0c0.1,0,0.2,0.1,0.3,0.1c0.1,0.1,0.1,0.1,0.2,0.2c0,0.1,0.1,0.2,0.1,0.2c0.1,0.2,0.1,0.4,0.1,0.6
		c0.1,0.5,0,0.8-0.1,1c-0.1,0.2-0.4,0.4-0.8,0.4c-0.2,0-0.4,0-0.5,0c-0.1-0.1-0.3-0.1-0.4-0.3c-0.1-0.1-0.1-0.2-0.2-0.4
		c-0.1-0.2-0.1-0.3-0.1-0.5C68.4,22,68.4,21.6,68.6,21.4z M65.2,22.1c0.1-0.2,0.4-0.4,0.7-0.5c0.2,0,0.3,0,0.4,0
		c0.1,0,0.2,0,0.3,0.1c0.1,0.1,0.2,0.1,0.2,0.2c0.1,0.1,0.1,0.1,0.2,0.2c0.1,0.2,0.2,0.4,0.2,0.6c0.1,0.4,0.1,0.8,0,1
		c-0.1,0.2-0.3,0.4-0.7,0.5c-0.2,0-0.4,0.1-0.5,0c-0.1,0-0.3-0.1-0.4-0.2c-0.1-0.1-0.2-0.2-0.2-0.3c-0.1-0.2-0.1-0.3-0.2-0.5
		C65.1,22.7,65.1,22.3,65.2,22.1z M62,22.9c0.1-0.2,0.3-0.4,0.7-0.5c0.2,0,0.3-0.1,0.4-0.1c0.1,0,0.2,0,0.3,0.1
		c0.1,0,0.2,0.1,0.2,0.2c0.1,0.1,0.1,0.1,0.2,0.2c0.1,0.2,0.2,0.4,0.2,0.6c0.1,0.4,0.1,0.8,0.1,1c-0.1,0.2-0.3,0.4-0.7,0.5
		C63.2,25,63,25,62.9,25c-0.1,0-0.3-0.1-0.4-0.2c-0.1-0.1-0.2-0.2-0.2-0.3c-0.1-0.1-0.1-0.3-0.2-0.5C61.9,23.5,61.9,23.2,62,22.9z
		 M58.9,23.9c0.1-0.2,0.3-0.4,0.7-0.5c0.2-0.1,0.3-0.1,0.4-0.1c0.1,0,0.2,0,0.3,0.1c0.1,0,0.2,0.1,0.2,0.1c0.1,0.1,0.1,0.1,0.2,0.2
		c0.1,0.2,0.2,0.3,0.3,0.5c0.1,0.4,0.2,0.8,0.1,1c-0.1,0.3-0.3,0.4-0.7,0.6C60.2,26,60,26,59.8,26c-0.1,0-0.3-0.1-0.4-0.2
		c-0.1-0.1-0.2-0.2-0.3-0.3C59.1,25.3,59,25.2,59,25C58.8,24.5,58.8,24.2,58.9,23.9z M55.8,25.1c0.1-0.2,0.3-0.4,0.6-0.6
		c0.2-0.1,0.3-0.1,0.4-0.1c0.1,0,0.2,0,0.3,0.1c0.1,0,0.2,0.1,0.2,0.1c0.1,0.1,0.1,0.1,0.2,0.2c0.1,0.2,0.2,0.3,0.3,0.5
		c0.2,0.4,0.2,0.8,0.2,1c-0.1,0.3-0.3,0.5-0.6,0.6c-0.2,0.1-0.4,0.1-0.5,0.1c-0.1,0-0.3-0.1-0.4-0.2c-0.1-0.1-0.2-0.2-0.3-0.3
		c-0.1-0.1-0.2-0.3-0.2-0.5C55.8,25.7,55.7,25.3,55.8,25.1z M52.8,26.5c0.1-0.2,0.3-0.4,0.6-0.6c0.2-0.1,0.3-0.1,0.4-0.1
		c0.1,0,0.2,0,0.3,0c0.1,0,0.2,0.1,0.2,0.1c0.1,0.1,0.1,0.1,0.2,0.2c0.1,0.2,0.2,0.3,0.3,0.5c0.2,0.4,0.3,0.8,0.2,1
		c-0.1,0.3-0.3,0.5-0.6,0.6c-0.2,0.1-0.4,0.1-0.5,0.1c-0.1,0-0.3-0.1-0.4-0.1c-0.1-0.1-0.2-0.2-0.3-0.3c-0.1-0.1-0.2-0.3-0.3-0.5
		C52.8,27,52.7,26.7,52.8,26.5z M50.3,27.4c0.1-0.1,0.3-0.1,0.4-0.2c0.1,0,0.2,0,0.3,0c0.1,0,0.2,0.1,0.2,0.1c0.1,0,0.1,0.1,0.2,0.2
		c0.1,0.1,0.3,0.3,0.4,0.5c0.2,0.4,0.3,0.7,0.3,1c0,0.3-0.2,0.5-0.5,0.7c-0.2,0.1-0.4,0.2-0.5,0.2c-0.1,0-0.3,0-0.4-0.1
		c-0.1-0.1-0.2-0.1-0.3-0.3c-0.1-0.1-0.2-0.3-0.3-0.4c-0.2-0.4-0.3-0.8-0.3-1C49.8,27.8,50,27.6,50.3,27.4z M47,29.8
		c0-0.3,0.2-0.5,0.5-0.7c0.1-0.1,0.3-0.2,0.4-0.2c0.1,0,0.2,0,0.3,0c0.1,0,0.2,0,0.3,0.1c0.1,0,0.1,0.1,0.2,0.2
		c0.1,0.1,0.3,0.3,0.4,0.5c0.2,0.4,0.4,0.7,0.4,1c0,0.3-0.2,0.5-0.5,0.7c-0.2,0.1-0.3,0.2-0.5,0.2c-0.1,0-0.3,0-0.4-0.1
		c-0.1,0-0.2-0.1-0.3-0.2c-0.1-0.1-0.2-0.3-0.3-0.4C47,30.4,46.9,30,47,29.8z M44.4,31.2l1.6,2l-0.6,0.5l-1.2-1.5l-0.7,0.5l1.2,1.5
		l-0.6,0.5l-1.6-2L44.4,31.2z M40,34.7l0.9,1.1l-0.2-1.7l0.6-0.5l1.7,1.9L42.4,36l-0.9-1.1l0.2,1.7l-0.6,0.5l-1.7-1.9L40,34.7z
		 M37.2,37.3l0.6,0.6l0.6-0.6l-0.6-0.6l0.6-0.5l1.8,1.8l-0.6,0.5l-0.7-0.7l-0.6,0.6l0.7,0.7l-0.6,0.5l-1.8-1.8L37.2,37.3z
		 M35.1,39.6c0.2-0.2,0.4-0.3,0.6-0.4c0.2,0,0.4,0.1,0.6,0.2c0.2,0.2,0.3,0.4,0.3,0.6c0,0.2-0.1,0.4-0.3,0.7L36,41l0.7,0.6l-0.5,0.6
		l-1.9-1.7L35.1,39.6z M33.4,41.5l0.5,0.4l-0.8,1l1.5,1.2l-0.5,0.6l-2-1.6L33.4,41.5z M30.5,45.3c0.2-0.3,0.5-0.5,0.8-0.6
		c0.3-0.1,0.6,0,1,0.3c0.2,0.2,0.4,0.4,0.5,0.5c0.1,0.2,0.1,0.4,0.1,0.6c0,0.2-0.1,0.4-0.3,0.7c-0.2,0.2-0.3,0.4-0.5,0.5
		c-0.2,0.1-0.4,0.1-0.6,0.1c-0.2,0-0.5-0.1-0.7-0.3c-0.3-0.2-0.5-0.5-0.6-0.8C30.2,45.9,30.3,45.6,30.5,45.3z M26.8,51.6
		c0.1-0.2,0.2-0.3,0.2-0.3c0.1-0.1,0.2-0.1,0.3-0.2c0.1,0,0.2,0,0.3,0c0.1,0,0.2,0,0.3,0c0.2,0,0.4,0.1,0.6,0.2
		c0.4,0.2,0.7,0.4,0.8,0.7c0.1,0.2,0.1,0.5-0.1,0.9c-0.1,0.2-0.2,0.3-0.3,0.4c-0.1,0.1-0.3,0.1-0.4,0.2c-0.1,0-0.2,0-0.4,0
		c-0.2,0-0.3-0.1-0.5-0.2c-0.4-0.2-0.7-0.5-0.8-0.7C26.6,52.2,26.6,51.9,26.8,51.6z M25.3,54.6c0.1-0.2,0.1-0.3,0.2-0.4
		c0.1-0.1,0.2-0.1,0.3-0.2c0.1,0,0.2-0.1,0.3-0.1c0.1,0,0.2,0,0.3,0c0.2,0,0.4,0.1,0.6,0.2c0.4,0.2,0.7,0.4,0.8,0.6
		c0.1,0.2,0.1,0.5,0,0.9c-0.1,0.2-0.2,0.3-0.3,0.4c-0.1,0.1-0.3,0.1-0.4,0.2c-0.1,0-0.2,0-0.4,0c-0.2,0-0.3-0.1-0.5-0.2
		c-0.4-0.2-0.7-0.4-0.8-0.7C25.2,55.2,25.2,54.9,25.3,54.6z M24.1,57.7c0.1-0.2,0.1-0.3,0.2-0.4c0.1-0.1,0.2-0.2,0.3-0.2
		c0.1,0,0.2-0.1,0.3-0.1c0.1,0,0.2,0,0.3,0c0.2,0,0.4,0.1,0.6,0.2c0.4,0.2,0.7,0.4,0.9,0.6c0.1,0.2,0.1,0.5,0,0.9
		c-0.1,0.2-0.2,0.3-0.3,0.4c-0.1,0.1-0.2,0.2-0.4,0.2c-0.1,0-0.2,0-0.4,0c-0.2,0-0.3-0.1-0.5-0.2c-0.5-0.2-0.7-0.4-0.9-0.6
		C23.9,58.3,23.9,58,24.1,57.7z M22.9,60.9c0-0.2,0.1-0.3,0.2-0.4c0.1-0.1,0.1-0.2,0.2-0.2c0.1,0,0.2-0.1,0.3-0.1c0.1,0,0.2,0,0.3,0
		c0.2,0,0.4,0,0.6,0.1c0.4,0.1,0.7,0.3,0.9,0.5c0.2,0.2,0.2,0.5,0.1,0.9c-0.1,0.2-0.1,0.4-0.2,0.5c-0.1,0.1-0.2,0.2-0.4,0.2
		c-0.1,0-0.2,0-0.4,0c-0.2,0-0.3,0-0.5-0.1c-0.5-0.1-0.8-0.3-0.9-0.5C22.9,61.5,22.8,61.3,22.9,60.9z M22.1,64.1
		c0-0.2,0.1-0.3,0.2-0.4c0.1-0.1,0.1-0.2,0.2-0.2c0.1-0.1,0.2-0.1,0.2-0.1c0.1,0,0.2,0,0.3,0c0.2,0,0.4,0,0.6,0.1
		c0.5,0.1,0.8,0.3,0.9,0.5c0.2,0.2,0.2,0.5,0.1,0.9c0,0.2-0.1,0.4-0.2,0.5c-0.1,0.1-0.2,0.2-0.4,0.2c-0.1,0-0.2,0.1-0.4,0.1
		c-0.2,0-0.3,0-0.5-0.1c-0.5-0.1-0.8-0.3-0.9-0.5C22,64.8,22,64.5,22.1,64.1z M21.4,67.4c0-0.2,0.1-0.3,0.1-0.4
		c0.1-0.1,0.1-0.2,0.2-0.2c0.1-0.1,0.2-0.1,0.2-0.1c0.1,0,0.2,0,0.3,0c0.2,0,0.4,0,0.6,0c0.5,0.1,0.8,0.2,1,0.4
		c0.2,0.2,0.2,0.5,0.2,0.9c0,0.2-0.1,0.4-0.2,0.5c-0.1,0.1-0.2,0.2-0.4,0.3c-0.1,0-0.2,0.1-0.4,0.1c-0.2,0-0.3,0-0.5,0
		c-0.5-0.1-0.8-0.2-1-0.4C21.3,68,21.3,67.7,21.4,67.4z M21,70.2c0.1-0.1,0.1-0.2,0.2-0.2c0.1-0.1,0.2-0.1,0.2-0.1
		c0.1,0,0.2-0.1,0.3-0.1c0.2,0,0.4,0,0.6,0c0.5,0.1,0.8,0.2,1,0.4c0.2,0.2,0.3,0.5,0.2,0.8c0,0.2-0.1,0.4-0.2,0.5
		c-0.1,0.1-0.2,0.2-0.3,0.3c-0.1,0-0.2,0.1-0.4,0.1c-0.2,0-0.3,0-0.5,0c-0.5-0.1-0.8-0.2-1-0.4c-0.2-0.2-0.2-0.5-0.2-0.8
		C20.9,70.5,20.9,70.3,21,70.2z M20.6,73.5c0.1-0.1,0.1-0.2,0.2-0.3c0.1-0.1,0.1-0.1,0.2-0.1c0.1,0,0.2-0.1,0.3-0.1
		c0.2,0,0.4,0,0.6,0c0.5,0,0.8,0.1,1,0.3c0.2,0.2,0.3,0.4,0.3,0.8c0,0.2-0.1,0.4-0.1,0.5c-0.1,0.1-0.2,0.2-0.3,0.3
		c-0.1,0.1-0.2,0.1-0.4,0.1c-0.2,0-0.3,0-0.5,0c-0.5,0-0.8-0.1-1-0.3c-0.2-0.2-0.3-0.5-0.2-0.8C20.5,73.8,20.6,73.6,20.6,73.5z
		 M20.5,76.8c0-0.1,0.1-0.2,0.2-0.3c0.1-0.1,0.1-0.1,0.2-0.2c0.1,0,0.2-0.1,0.3-0.1c0.2,0,0.4-0.1,0.6-0.1c0.5,0,0.8,0.1,1,0.3
		c0.2,0.2,0.3,0.4,0.3,0.8c0,0.2,0,0.4-0.1,0.5c-0.1,0.1-0.2,0.2-0.3,0.3c-0.1,0.1-0.2,0.1-0.4,0.1c-0.2,0-0.3,0-0.5,0
		c-0.5,0-0.8-0.1-1-0.3c-0.2-0.2-0.3-0.4-0.3-0.8C20.4,77.1,20.4,76.9,20.5,76.8z M20.4,80.6c0-0.2,0-0.3,0.1-0.4
		c0-0.1,0.1-0.2,0.2-0.3c0.1-0.1,0.1-0.1,0.2-0.2c0.1,0,0.2-0.1,0.3-0.1c0.2-0.1,0.4-0.1,0.6-0.1c0.5,0,0.8,0.1,1,0.2
		c0.2,0.2,0.3,0.4,0.3,0.8c0,0.2,0,0.4-0.1,0.5c-0.1,0.1-0.2,0.2-0.3,0.3c-0.1,0.1-0.2,0.1-0.4,0.2c-0.2,0-0.3,0.1-0.5,0.1
		c-0.5,0-0.8-0.1-1-0.2C20.5,81.2,20.4,80.9,20.4,80.6z M21.2,87.2l0.9-0.2l-0.1-0.8L21,86.4l-0.1-0.8l2.5-0.4l0.1,0.8l-1,0.2
		l0.1,0.8l1-0.2l0.1,0.8L21.3,88L21.2,87.2z M21.9,91.1l0.9-0.2L22.6,90l-0.9,0.2l-0.2-0.8l2.5-0.6l0.2,0.8l-1,0.2l0.2,0.8l1-0.2
		l0.2,0.8l-2.5,0.6L21.9,91.1z M22.9,94.9l1.4-0.4L22.7,94l-0.2-0.7l2.5-0.7l0.2,0.7l-1.3,0.4l1.6,0.5l0.2,0.7l-2.4,0.7L22.9,94.9z
		 M25.9,102c-0.2-0.1-0.4-0.3-0.6-0.6c-0.1-0.2-0.1-0.3-0.1-0.4c0-0.1,0-0.2,0-0.3c0-0.1,0.1-0.2,0.1-0.2c0.1-0.1,0.1-0.1,0.2-0.2
		c0.2-0.1,0.3-0.2,0.5-0.3c0.4-0.2,0.8-0.3,1-0.2c0.3,0.1,0.5,0.3,0.6,0.6c0.1,0.2,0.1,0.4,0.1,0.5c0,0.1-0.1,0.3-0.1,0.4
		c-0.1,0.1-0.2,0.2-0.3,0.3c-0.1,0.1-0.3,0.2-0.5,0.3C26.5,102,26.2,102,25.9,102z M26.8,104.4c-0.1-0.2-0.1-0.3-0.1-0.4
		c0-0.1,0-0.2,0-0.3c0-0.1,0.1-0.2,0.1-0.2c0-0.1,0.1-0.1,0.2-0.2c0.1-0.1,0.3-0.2,0.5-0.3c0.4-0.2,0.7-0.3,1-0.3
		c0.3,0,0.5,0.2,0.7,0.6c0.1,0.2,0.1,0.4,0.1,0.5c0,0.1,0,0.3-0.1,0.4c-0.1,0.1-0.1,0.2-0.3,0.3c-0.1,0.1-0.3,0.2-0.5,0.3
		c-0.4,0.2-0.8,0.3-1,0.2C27.2,104.9,27,104.7,26.8,104.4z M28.4,107.2c-0.1-0.1-0.1-0.3-0.2-0.4c0-0.1,0-0.2,0-0.3
		c0-0.1,0.1-0.2,0.1-0.2c0-0.1,0.1-0.1,0.2-0.2c0.1-0.1,0.3-0.3,0.5-0.4c0.4-0.2,0.7-0.3,1-0.3c0.3,0,0.5,0.2,0.7,0.5
		c0.1,0.2,0.2,0.4,0.2,0.5c0,0.1,0,0.3-0.1,0.4c-0.1,0.1-0.1,0.2-0.3,0.3c-0.1,0.1-0.3,0.2-0.4,0.3c-0.4,0.2-0.8,0.3-1,0.3
		C28.8,107.7,28.6,107.6,28.4,107.2z M30.8,110.6c-0.3,0-0.5-0.2-0.7-0.5c-0.1-0.1-0.2-0.3-0.2-0.4c0-0.1,0-0.2,0-0.3
		c0-0.1,0-0.2,0.1-0.3c0-0.1,0.1-0.1,0.2-0.2c0.1-0.1,0.3-0.3,0.5-0.4c0.4-0.2,0.7-0.4,1-0.4c0.3,0,0.5,0.2,0.7,0.5
		c0.1,0.2,0.2,0.3,0.2,0.5c0,0.1,0,0.3-0.1,0.4c0,0.1-0.1,0.2-0.2,0.3c-0.1,0.1-0.3,0.2-0.4,0.3C31.4,110.5,31.1,110.6,30.8,110.6z
		 M32.9,113.3c-0.3,0-0.5-0.2-0.7-0.4c-0.1-0.1-0.2-0.3-0.2-0.4c0-0.1,0-0.2,0-0.3c0-0.1,0-0.2,0.1-0.3c0-0.1,0.1-0.2,0.1-0.2
		c0.1-0.2,0.3-0.3,0.4-0.4c0.4-0.3,0.7-0.4,0.9-0.4c0.3,0,0.5,0.1,0.8,0.4c0.1,0.2,0.2,0.3,0.2,0.5c0,0.1,0,0.3,0,0.4
		c0,0.1-0.1,0.2-0.2,0.4c-0.1,0.1-0.2,0.3-0.4,0.4C33.5,113.2,33.1,113.3,32.9,113.3z M35,115.8c-0.3,0-0.5-0.1-0.7-0.4
		c-0.1-0.1-0.2-0.3-0.2-0.4c0-0.1-0.1-0.2-0.1-0.3c0-0.1,0-0.2,0.1-0.3c0-0.1,0.1-0.2,0.1-0.2c0.1-0.2,0.2-0.3,0.4-0.4
		c0.3-0.3,0.7-0.5,0.9-0.5c0.3,0,0.5,0.1,0.8,0.4c0.1,0.2,0.2,0.3,0.3,0.5c0,0.1,0,0.3,0,0.4c0,0.1-0.1,0.2-0.2,0.4
		c-0.1,0.1-0.2,0.3-0.4,0.4C35.6,115.7,35.2,115.8,35,115.8z M37.2,118.2c-0.3,0-0.5-0.1-0.8-0.4c-0.1-0.1-0.2-0.2-0.2-0.3
		c0-0.1-0.1-0.2-0.1-0.3c0-0.1,0-0.2,0-0.3c0-0.1,0.1-0.2,0.1-0.3c0.1-0.2,0.2-0.3,0.4-0.5c0.3-0.3,0.6-0.5,0.9-0.5
		c0.3,0,0.5,0.1,0.8,0.4c0.1,0.2,0.2,0.3,0.3,0.4c0,0.1,0,0.3,0,0.4c0,0.1-0.1,0.2-0.2,0.4c-0.1,0.1-0.2,0.3-0.4,0.4
		C37.8,118.1,37.5,118.2,37.2,118.2z M40.8,119.5c-0.1,0.1-0.2,0.3-0.3,0.4c-0.3,0.4-0.6,0.5-0.9,0.6c-0.3,0-0.5-0.1-0.8-0.3
		c-0.1-0.1-0.2-0.2-0.3-0.3c-0.1-0.1-0.1-0.2-0.1-0.3c0-0.1,0-0.2,0-0.3c0-0.1,0.1-0.2,0.1-0.3c0.1-0.2,0.2-0.3,0.4-0.5
		c0.3-0.3,0.6-0.5,0.9-0.6c0.3,0,0.5,0.1,0.8,0.3c0.2,0.1,0.3,0.3,0.3,0.4c0,0.1,0.1,0.3,0,0.4C41,119.3,40.9,119.4,40.8,119.5z
		 M43.3,121.6c-0.1,0.1-0.2,0.3-0.3,0.5c-0.3,0.4-0.6,0.6-0.8,0.6c-0.3,0-0.5,0-0.8-0.3c-0.1-0.1-0.2-0.2-0.3-0.3
		c-0.1-0.1-0.1-0.2-0.1-0.3c0-0.1,0-0.2,0-0.3c0-0.1,0-0.2,0.1-0.3c0.1-0.2,0.2-0.3,0.3-0.5c0.3-0.4,0.6-0.6,0.8-0.7
		c0.3-0.1,0.5,0,0.8,0.2c0.2,0.1,0.3,0.3,0.3,0.4c0.1,0.1,0.1,0.3,0.1,0.4C43.5,121.3,43.4,121.5,43.3,121.6z M45.9,123.5
		c-0.1,0.2-0.2,0.3-0.3,0.5c-0.3,0.4-0.5,0.6-0.8,0.7c-0.3,0.1-0.5,0-0.8-0.2c-0.1-0.1-0.2-0.2-0.3-0.3c-0.1-0.1-0.1-0.2-0.1-0.3
		c0-0.1,0-0.2,0-0.3c0-0.1,0-0.2,0.1-0.3c0.1-0.2,0.2-0.4,0.3-0.5c0.3-0.4,0.5-0.6,0.8-0.7c0.3-0.1,0.5,0,0.8,0.2
		c0.2,0.1,0.3,0.3,0.4,0.4c0.1,0.1,0.1,0.3,0.1,0.4C46,123.3,46,123.4,45.9,123.5z M48.6,125.3c-0.1,0.2-0.1,0.3-0.2,0.5
		c-0.3,0.4-0.5,0.6-0.8,0.7c-0.3,0.1-0.5,0-0.8-0.2c-0.1-0.1-0.3-0.2-0.3-0.3c-0.1-0.1-0.1-0.2-0.1-0.3c0-0.1,0-0.2,0-0.3
		c0-0.1,0-0.2,0.1-0.3c0.1-0.2,0.1-0.4,0.3-0.5c0.2-0.4,0.5-0.6,0.7-0.7c0.2-0.1,0.5,0,0.9,0.2c0.2,0.1,0.3,0.2,0.4,0.4
		c0.1,0.1,0.1,0.3,0.1,0.4C48.7,125,48.7,125.2,48.6,125.3z M51.4,127c-0.1,0.2-0.1,0.3-0.2,0.5c-0.2,0.4-0.5,0.7-0.7,0.8
		c-0.2,0.1-0.5,0-0.8-0.1c-0.1-0.1-0.3-0.2-0.3-0.3c-0.1-0.1-0.1-0.2-0.2-0.3c0-0.1,0-0.2,0-0.3c0-0.1,0-0.2,0-0.3
		c0.1-0.2,0.1-0.4,0.2-0.6c0.2-0.4,0.5-0.7,0.7-0.8c0.2-0.1,0.5-0.1,0.9,0.1c0.2,0.1,0.3,0.2,0.4,0.3c0.1,0.1,0.1,0.3,0.1,0.4
		C51.5,126.7,51.4,126.8,51.4,127z M55.1,130.8l-2.2-1l1.1-2.3l0.7,0.3l-0.8,1.8l0.8,0.4l0.8-1.7l0.7,0.3L55.1,130.8z M58.7,132.2
		l-0.7-0.3l0.5-1.3l-1.4,1l-0.7-0.3l0.9-2.4l0.7,0.3l-0.5,1.3l1.4-1l0.7,0.3L58.7,132.2z M62.6,133.4l-0.8-0.2l0.2-0.9l-0.8-0.2
		l-0.2,0.9l-0.8-0.2l0.7-2.4l0.8,0.2l-0.3,1l0.8,0.2l0.3-1l0.8,0.2L62.6,133.4z M66,134.2l-1.3-0.3c-0.3-0.1-0.5-0.2-0.6-0.3
		c-0.1-0.2-0.1-0.4-0.1-0.6c0.1-0.3,0.2-0.4,0.4-0.5c0.2-0.1,0.4-0.1,0.7-0.1l0.4,0.1l0.2-0.9l0.8,0.2L66,134.2z M69.3,134.8l-2-0.4
		l0.1-0.6l1.2,0.2l0.3-1.9l0.8,0.1L69.3,134.8z M73.4,134.1c-0.1,0.4-0.2,0.7-0.5,0.9c-0.3,0.2-0.6,0.3-1,0.2
		c-0.4-0.1-0.7-0.2-0.9-0.5c-0.2-0.3-0.3-0.6-0.2-1c0-0.3,0.1-0.5,0.2-0.7c0.1-0.2,0.3-0.3,0.5-0.4c0.2-0.1,0.4-0.1,0.7-0.1
		c0.3,0,0.5,0.1,0.7,0.2c0.2,0.1,0.3,0.3,0.4,0.5C73.4,133.5,73.4,133.8,73.4,134.1z M23.4,78c0-30.1,24.5-54.6,54.6-54.6
		s54.6,24.5,54.6,54.6S108,132.5,78,132.5S23.4,108,23.4,78z M84.3,134.9c-0.2,0.2-0.4,0.3-0.8,0.3c-0.2,0-0.3,0-0.4,0
		c-0.1,0-0.2-0.1-0.3-0.1c-0.1-0.1-0.1-0.1-0.2-0.2c0-0.1-0.1-0.2-0.1-0.3c-0.1-0.2-0.1-0.4-0.1-0.6c0-0.5,0-0.8,0.2-1
		c0.1-0.2,0.4-0.4,0.8-0.4c0.2,0,0.4,0,0.5,0.1c0.1,0.1,0.3,0.1,0.3,0.3c0.1,0.1,0.1,0.2,0.2,0.4c0,0.2,0.1,0.3,0.1,0.5
		C84.5,134.4,84.5,134.7,84.3,134.9z M87.7,134.4c-0.1,0.2-0.4,0.4-0.7,0.4c-0.2,0-0.3,0-0.4,0c-0.1,0-0.2-0.1-0.3-0.1
		c-0.1-0.1-0.1-0.1-0.2-0.2c-0.1-0.1-0.1-0.1-0.1-0.2c-0.1-0.2-0.1-0.4-0.2-0.6c-0.1-0.5-0.1-0.8,0.1-1c0.1-0.2,0.4-0.4,0.7-0.5
		c0.2,0,0.4,0,0.5,0c0.1,0,0.3,0.1,0.4,0.2c0.1,0.1,0.1,0.2,0.2,0.4c0.1,0.2,0.1,0.3,0.1,0.5C87.9,133.8,87.8,134.2,87.7,134.4z
		 M90.9,133.7c-0.1,0.2-0.4,0.4-0.7,0.5c-0.2,0-0.3,0-0.4,0c-0.1,0-0.2,0-0.3-0.1c-0.1-0.1-0.2-0.1-0.2-0.2
		c-0.1-0.1-0.1-0.1-0.2-0.2c-0.1-0.2-0.2-0.4-0.2-0.6c-0.1-0.4-0.1-0.8,0-1c0.1-0.2,0.3-0.4,0.7-0.5c0.2,0,0.4-0.1,0.5,0
		c0.1,0,0.3,0.1,0.4,0.2c0.1,0.1,0.2,0.2,0.2,0.3c0.1,0.2,0.1,0.3,0.2,0.5C91.1,133.2,91.1,133.5,90.9,133.7z M94.1,132.9
		c-0.1,0.2-0.3,0.4-0.7,0.5c-0.2,0-0.3,0.1-0.4,0.1c-0.1,0-0.2,0-0.3-0.1c-0.1,0-0.2-0.1-0.2-0.2c-0.1-0.1-0.1-0.1-0.2-0.2
		c-0.1-0.2-0.2-0.4-0.2-0.6c-0.1-0.4-0.1-0.8-0.1-1c0.1-0.2,0.3-0.4,0.7-0.5c0.2-0.1,0.4-0.1,0.5,0c0.1,0,0.3,0.1,0.4,0.2
		c0.1,0.1,0.2,0.2,0.2,0.3c0.1,0.1,0.1,0.3,0.2,0.5v0C94.2,132.3,94.2,132.7,94.1,132.9z M97.3,131.9c-0.1,0.2-0.3,0.4-0.7,0.5
		c-0.2,0.1-0.3,0.1-0.4,0.1c-0.1,0-0.2,0-0.3-0.1c-0.1,0-0.2-0.1-0.2-0.1c-0.1-0.1-0.1-0.1-0.2-0.2c-0.1-0.2-0.2-0.3-0.3-0.5
		c-0.1-0.4-0.2-0.8-0.1-1c0.1-0.3,0.3-0.4,0.7-0.6c0.2-0.1,0.4-0.1,0.5-0.1c0.1,0,0.3,0.1,0.4,0.2c0.1,0.1,0.2,0.2,0.3,0.3
		c0.1,0.1,0.2,0.3,0.2,0.5v0C97.3,131.3,97.4,131.7,97.3,131.9z M100.3,130.7c-0.1,0.2-0.3,0.4-0.6,0.6c-0.2,0.1-0.3,0.1-0.4,0.1
		c-0.1,0-0.2,0-0.3-0.1c-0.1,0-0.2-0.1-0.2-0.1c-0.1-0.1-0.1-0.1-0.2-0.2c-0.1-0.2-0.2-0.3-0.3-0.5c-0.2-0.4-0.2-0.8-0.2-1
		c0.1-0.3,0.3-0.5,0.6-0.6c0.2-0.1,0.4-0.1,0.5-0.1c0.1,0,0.3,0.1,0.4,0.2c0.1,0.1,0.2,0.2,0.3,0.3c0.1,0.1,0.2,0.3,0.2,0.5
		C100.4,130.1,100.4,130.5,100.3,130.7z M103.3,129.3c-0.1,0.2-0.3,0.4-0.6,0.6c-0.2,0.1-0.3,0.1-0.4,0.1c-0.1,0-0.2,0-0.3,0
		c-0.1,0-0.2-0.1-0.2-0.1c-0.1-0.1-0.1-0.1-0.2-0.2c-0.1-0.2-0.2-0.3-0.3-0.5c-0.2-0.4-0.3-0.8-0.2-1c0.1-0.3,0.3-0.5,0.6-0.6
		c0.2-0.1,0.4-0.1,0.5-0.1c0.1,0,0.3,0.1,0.4,0.1c0.1,0.1,0.2,0.2,0.3,0.3c0.1,0.1,0.2,0.3,0.3,0.5
		C103.4,128.8,103.4,129.1,103.3,129.3z M105.8,128.4c-0.1,0.1-0.3,0.1-0.4,0.2c-0.1,0-0.2,0-0.3,0c-0.1,0-0.2-0.1-0.2-0.1
		c-0.1,0-0.1-0.1-0.2-0.2c-0.1-0.1-0.3-0.3-0.4-0.5c-0.2-0.4-0.3-0.7-0.3-1c0-0.3,0.2-0.5,0.5-0.7c0.2-0.1,0.4-0.2,0.5-0.2
		c0.1,0,0.3,0,0.4,0.1c0.1,0.1,0.2,0.1,0.3,0.3c0.1,0.1,0.2,0.3,0.3,0.4v0c0.2,0.4,0.3,0.8,0.3,1C106.3,128,106.1,128.2,105.8,128.4
		z M109.2,126c0,0.3-0.2,0.5-0.5,0.7c-0.1,0.1-0.3,0.2-0.4,0.2c-0.1,0-0.2,0-0.3,0c-0.1,0-0.2,0-0.3-0.1c-0.1,0-0.1-0.1-0.2-0.2
		c-0.1-0.1-0.3-0.3-0.4-0.5c-0.2-0.4-0.4-0.7-0.4-1c0-0.3,0.2-0.5,0.5-0.7c0.2-0.1,0.3-0.2,0.5-0.2c0.1,0,0.3,0,0.4,0.1
		c0.1,0,0.2,0.1,0.3,0.2c0.1,0.1,0.2,0.3,0.3,0.4v0C109.1,125.4,109.2,125.7,109.2,126z M111.4,124.8c-0.1,0.1-0.3,0.2-0.4,0.2
		c-0.1,0-0.2,0-0.3,0c-0.1,0-0.2,0-0.3-0.1c-0.1,0-0.2-0.1-0.2-0.2c-0.1-0.1-0.3-0.3-0.4-0.4c-0.3-0.4-0.4-0.7-0.4-1
		c0-0.3,0.2-0.5,0.5-0.7c0.2-0.1,0.3-0.2,0.5-0.2c0.1,0,0.3,0,0.4,0.1c0.1,0,0.2,0.1,0.3,0.2c0.1,0.1,0.2,0.3,0.4,0.4
		c0.3,0.4,0.4,0.7,0.4,1C111.8,124.4,111.7,124.6,111.4,124.8z M116.5,120.7l-0.6-0.7l-0.7,0.6l0.6,0.7l-0.6,0.5l-1.7-1.9l0.6-0.5
		l0.7,0.8l0.7-0.6l-0.7-0.8l0.6-0.5l1.7,1.9L116.5,120.7z M119.4,117.9l-0.6-0.6l-0.6,0.6l0.6,0.6l-0.5,0.6l-1.8-1.8l0.5-0.6
		l0.7,0.7l0.6-0.6l-0.7-0.7l0.5-0.6l1.8,1.8L119.4,117.9z M122,115l-1.1-0.9l0.4,1.6l-0.5,0.6l-1.9-1.7l0.5-0.6l1.1,0.9l-0.4-1.6
		l0.5-0.6l1.9,1.7L122,115z M126.2,109.4c-0.1,0.1-0.2,0.3-0.3,0.3c-0.1,0.1-0.2,0.1-0.3,0.1c-0.1,0-0.2,0-0.3,0
		c-0.1,0-0.2,0-0.3-0.1c-0.2-0.1-0.4-0.1-0.5-0.3c-0.4-0.2-0.6-0.5-0.7-0.7c-0.1-0.2,0-0.5,0.2-0.9c0.1-0.2,0.2-0.3,0.4-0.4
		c0.1-0.1,0.3-0.1,0.4-0.1c0.1,0,0.2,0,0.4,0.1c0.2,0.1,0.3,0.1,0.5,0.2c0.4,0.3,0.6,0.5,0.7,0.8
		C126.4,108.9,126.3,109.1,126.2,109.4z M127.9,106.6c-0.1,0.1-0.2,0.3-0.3,0.3c-0.1,0.1-0.2,0.1-0.3,0.2c-0.1,0-0.2,0-0.3,0
		c-0.1,0-0.2,0-0.3,0c-0.2-0.1-0.4-0.1-0.6-0.2c-0.4-0.2-0.7-0.5-0.8-0.7c-0.1-0.2-0.1-0.5,0.1-0.9c0.1-0.2,0.2-0.3,0.3-0.4
		c0.1-0.1,0.3-0.1,0.4-0.1c0.1,0,0.2,0,0.4,0.1c0.2,0.1,0.3,0.1,0.5,0.2c0.4,0.2,0.7,0.5,0.8,0.7S128.1,106.3,127.9,106.6z
		 M129.4,103.7c-0.1,0.2-0.2,0.3-0.2,0.3c-0.1,0.1-0.2,0.1-0.3,0.2c-0.1,0-0.2,0-0.3,0c-0.1,0-0.2,0-0.3,0c-0.2,0-0.4-0.1-0.6-0.2
		c-0.4-0.2-0.7-0.4-0.8-0.7c-0.1-0.2-0.1-0.5,0.1-0.9c0.1-0.2,0.2-0.3,0.3-0.4c0.1-0.1,0.3-0.1,0.4-0.2c0.1,0,0.2,0,0.4,0
		c0.2,0,0.3,0.1,0.5,0.2c0.4,0.2,0.7,0.5,0.8,0.7C129.6,103.1,129.6,103.4,129.4,103.7z M130.9,100.7c-0.1,0.2-0.1,0.3-0.2,0.4
		c-0.1,0.1-0.2,0.1-0.3,0.2c-0.1,0-0.2,0.1-0.3,0.1c-0.1,0-0.2,0-0.3,0c-0.2,0-0.4-0.1-0.6-0.2c-0.4-0.2-0.7-0.4-0.8-0.6
		c-0.1-0.2-0.1-0.5,0-0.9c0.1-0.2,0.2-0.3,0.3-0.4c0.1-0.1,0.3-0.1,0.4-0.2c0.1,0,0.2,0,0.4,0c0.2,0,0.3,0.1,0.5,0.2
		c0.4,0.2,0.7,0.4,0.8,0.7C131,100.1,131,100.4,130.9,100.7z M132.1,97.5c-0.1,0.2-0.1,0.3-0.2,0.4c-0.1,0.1-0.2,0.2-0.2,0.2
		c-0.1,0-0.2,0.1-0.3,0.1c-0.1,0-0.2,0-0.3,0c-0.2,0-0.4-0.1-0.6-0.1c-0.4-0.1-0.7-0.3-0.9-0.5c-0.2-0.2-0.2-0.5,0-0.9
		c0.1-0.2,0.2-0.4,0.3-0.5c0.1-0.1,0.2-0.2,0.4-0.2c0.1,0,0.2,0,0.4,0c0.2,0,0.3,0.1,0.5,0.1h0c0.5,0.2,0.8,0.3,0.9,0.6
		C132.2,96.9,132.2,97.2,132.1,97.5z M133.1,94.4c0,0.2-0.1,0.3-0.2,0.4c-0.1,0.1-0.1,0.2-0.2,0.2c-0.1,0-0.2,0.1-0.3,0.1
		c-0.1,0-0.2,0-0.3,0c-0.2,0-0.4,0-0.6-0.1c-0.4-0.1-0.7-0.3-0.9-0.5c-0.2-0.2-0.2-0.5-0.1-0.9c0.1-0.2,0.1-0.4,0.2-0.5
		c0.1-0.1,0.2-0.2,0.4-0.2c0.1,0,0.2,0,0.4,0c0.2,0,0.3,0,0.5,0.1c0.5,0.1,0.8,0.3,0.9,0.5C133.2,93.7,133.2,94,133.1,94.4z
		 M134,91.1c0,0.2-0.1,0.3-0.2,0.4c-0.1,0.1-0.1,0.2-0.2,0.2c-0.1,0.1-0.2,0.1-0.2,0.1c-0.1,0-0.2,0-0.3,0c-0.2,0-0.4,0-0.6-0.1
		c-0.5-0.1-0.8-0.3-0.9-0.5c-0.2-0.2-0.2-0.5-0.1-0.9c0-0.2,0.1-0.4,0.2-0.5c0.1-0.1,0.2-0.2,0.4-0.2c0.1,0,0.2-0.1,0.4-0.1
		c0.2,0,0.3,0,0.5,0.1c0.5,0.1,0.8,0.3,0.9,0.5C134,90.5,134.1,90.8,134,91.1z M134.7,87.9c0,0.2-0.1,0.3-0.1,0.4
		c-0.1,0.1-0.1,0.2-0.2,0.2c-0.1,0.1-0.2,0.1-0.2,0.1c-0.1,0-0.2,0-0.3,0c-0.2,0-0.4,0-0.6,0c-0.5-0.1-0.8-0.2-1-0.4
		c-0.2-0.2-0.2-0.5-0.2-0.9c0-0.2,0.1-0.4,0.2-0.5c0.1-0.1,0.2-0.2,0.4-0.3c0.1,0,0.2-0.1,0.4-0.1c0.2,0,0.3,0,0.5,0
		c0.5,0.1,0.8,0.2,1,0.4C134.7,87.3,134.7,87.5,134.7,87.9z M135,85c-0.1,0.1-0.1,0.2-0.2,0.2c-0.1,0.1-0.2,0.1-0.2,0.1
		c-0.1,0-0.2,0.1-0.3,0.1c-0.2,0-0.4,0-0.6,0c-0.5-0.1-0.8-0.2-1-0.4c-0.2-0.2-0.3-0.5-0.2-0.8c0-0.2,0.1-0.4,0.2-0.5
		c0.1-0.1,0.2-0.2,0.3-0.3c0.1,0,0.2-0.1,0.4-0.1c0.2,0,0.3,0,0.5,0h0c0.5,0.1,0.8,0.2,1,0.4c0.2,0.2,0.2,0.5,0.2,0.8
		C135.1,84.8,135.1,84.9,135,85z M135.3,81.7c-0.1,0.1-0.1,0.2-0.2,0.3c-0.1,0.1-0.1,0.1-0.2,0.1c-0.1,0-0.2,0.1-0.3,0.1
		c-0.2,0-0.4,0-0.6,0c-0.5,0-0.8-0.1-1-0.3c-0.2-0.2-0.3-0.4-0.3-0.8c0-0.2,0.1-0.4,0.1-0.5c0.1-0.1,0.2-0.2,0.3-0.3
		c0.1-0.1,0.2-0.1,0.4-0.1c0.2,0,0.3,0,0.5,0c0.5,0,0.8,0.1,1,0.3c0.2,0.2,0.3,0.5,0.2,0.8C135.4,81.5,135.4,81.6,135.3,81.7z
		 M135.3,78.6c-0.1,0.1-0.1,0.1-0.2,0.2c-0.1,0-0.2,0.1-0.3,0.1c-0.2,0.1-0.4,0.1-0.6,0.1c-0.5,0-0.8-0.1-1-0.2
		c-0.2-0.2-0.3-0.4-0.3-0.8c0-0.2,0-0.4,0.1-0.5c0.1-0.1,0.2-0.2,0.3-0.3c0.1-0.1,0.2-0.1,0.4-0.2c0.2,0,0.3-0.1,0.5-0.1
		c0.5,0,0.8,0.1,1,0.2c0.2,0.2,0.3,0.4,0.3,0.8c0,0.2,0,0.3-0.1,0.4C135.4,78.4,135.4,78.5,135.3,78.6z"/>
	<path class="st2" d="M131,96.7c-0.3-0.1-0.5-0.1-0.7-0.1c-0.1,0-0.2,0.1-0.2,0.2c0,0.1,0,0.1,0,0.2c0,0.1,0.1,0.1,0.2,0.2
		c0.1,0.1,0.3,0.1,0.5,0.2c0.3,0.1,0.5,0.2,0.7,0.1c0.1,0,0.2-0.1,0.2-0.2c0-0.1,0-0.2-0.1-0.3C131.5,96.9,131.3,96.8,131,96.7z"/>
	<path class="st2" d="M129.8,99.8L129.8,99.8c-0.3-0.1-0.5-0.2-0.6-0.2c-0.1,0-0.2,0.1-0.3,0.2c0,0.1,0,0.1,0,0.2
		c0,0.1,0.1,0.1,0.2,0.2c0.1,0.1,0.2,0.1,0.4,0.2c0.3,0.1,0.5,0.2,0.7,0.2c0.1,0,0.2-0.1,0.3-0.2c0-0.1,0-0.2-0.1-0.3
		C130.3,100.1,130.1,100,129.8,99.8z"/>
	<path class="st2" d="M132,93.7c-0.3-0.1-0.5-0.1-0.7-0.1c-0.1,0-0.2,0.1-0.2,0.2c0,0.1,0,0.1,0,0.2c0,0.1,0.1,0.1,0.2,0.2
		c0.1,0.1,0.3,0.1,0.5,0.2c0.3,0.1,0.6,0.1,0.7,0.1c0.1,0,0.2-0.1,0.2-0.2c0-0.1,0-0.2-0.1-0.3C132.5,93.8,132.3,93.7,132,93.7z"/>
	<path class="st2" d="M72.2,133.2c-0.2,0-0.3,0-0.4,0.1c-0.1,0.1-0.2,0.3-0.2,0.6c0,0.2,0,0.4,0.1,0.5c0.1,0.1,0.2,0.2,0.4,0.2
		c0.2,0,0.3,0,0.4-0.1c0.1-0.1,0.2-0.3,0.2-0.5c0-0.3,0-0.4-0.1-0.6C72.5,133.3,72.3,133.2,72.2,133.2z"/>
	<path class="st2" d="M132.8,90.5c-0.3-0.1-0.5-0.1-0.7-0.1c-0.1,0-0.2,0.1-0.2,0.2c0,0.1,0,0.1,0,0.2c0,0.1,0.1,0.1,0.2,0.2
		c0.1,0,0.3,0.1,0.5,0.2c0.3,0.1,0.6,0.1,0.7,0.1c0.1,0,0.2-0.1,0.2-0.2c0-0.1,0-0.2-0.1-0.3C133.3,90.6,133.1,90.6,132.8,90.5z"/>
</g>
<path id="path23" class="st1" d="M50.9,57.2h1.2v7.7l5.2-7.7h1.3V67h-1.2v-7.7L52.2,67h-1.3V57.2z M60.6,67v-9.8h3.7
	c0.7,0,1.3,0.1,1.8,0.3c0.4,0.2,0.8,0.5,1.1,0.9c0.3,0.4,0.4,0.8,0.4,1.3c0,0.4-0.1,0.8-0.3,1.2c-0.2,0.4-0.6,0.7-1,0.9
	c0.6,0.2,1,0.5,1.4,0.9c0.3,0.4,0.5,0.9,0.5,1.5c0,0.5-0.1,0.9-0.3,1.3c-0.2,0.4-0.4,0.7-0.7,0.9c-0.3,0.2-0.6,0.4-1.1,0.5
	c-0.4,0.1-1,0.2-1.6,0.2H60.6z M61.9,61.3h2.1c0.6,0,1,0,1.2-0.1c0.3-0.1,0.6-0.3,0.7-0.5c0.2-0.2,0.2-0.5,0.2-0.9
	c0-0.3-0.1-0.6-0.2-0.9c-0.2-0.2-0.4-0.4-0.7-0.5c-0.3-0.1-0.8-0.1-1.5-0.1h-2L61.9,61.3z M61.9,65.8h2.4c0.4,0,0.7,0,0.9,0
	c0.3-0.1,0.5-0.1,0.7-0.3c0.2-0.1,0.4-0.3,0.5-0.5c0.1-0.2,0.2-0.5,0.2-0.8c0-0.4-0.1-0.7-0.3-1c-0.2-0.3-0.4-0.5-0.8-0.6
	c-0.3-0.1-0.8-0.2-1.4-0.2h-2.3L61.9,65.8z M68.3,67l3.7-9.8h1.4l4,9.8h-1.5l-1.1-3h-4.1l-1.1,3H68.3z M71.1,63h3.3l-1-2.7
	c-0.3-0.8-0.5-1.5-0.7-2c-0.1,0.6-0.3,1.3-0.5,1.9L71.1,63z M78.5,67v-9.8h1.3v4h5v-4h1.3V67h-1.3v-4.6h-5V67H78.5z M87.9,62.2
	c0-1.6,0.4-2.9,1.3-3.8c0.9-0.9,2-1.4,3.4-1.4c0.9,0,1.7,0.2,2.4,0.6c0.7,0.4,1.3,1,1.7,1.8c0.4,0.8,0.6,1.6,0.6,2.6
	c0,1-0.2,1.9-0.6,2.7c-0.4,0.8-1,1.4-1.7,1.8c-0.7,0.4-1.5,0.6-2.4,0.6c-0.9,0-1.7-0.2-2.5-0.7c-0.7-0.4-1.3-1-1.6-1.8
	C88.1,63.9,87.9,63.1,87.9,62.2z M89.2,62.3c0,1.2,0.3,2.1,0.9,2.8c0.6,0.7,1.4,1,2.4,1c1,0,1.8-0.3,2.4-1c0.6-0.7,0.9-1.6,0.9-2.9
	c0-0.8-0.1-1.5-0.4-2.1c-0.3-0.6-0.7-1-1.2-1.4c-0.5-0.3-1.1-0.5-1.7-0.5c-0.9,0-1.7,0.3-2.4,0.9C89.5,59.7,89.2,60.8,89.2,62.3z
	 M98.8,67v-9.8h3.7c0.7,0,1.3,0.1,1.8,0.3c0.4,0.2,0.8,0.5,1.1,0.9c0.3,0.4,0.4,0.8,0.4,1.3c0,0.4-0.1,0.8-0.3,1.2
	c-0.2,0.4-0.6,0.7-1,0.9c0.6,0.2,1,0.5,1.4,0.9c0.3,0.4,0.5,0.9,0.5,1.5c0,0.5-0.1,0.9-0.3,1.3c-0.2,0.4-0.4,0.7-0.7,0.9
	c-0.3,0.2-0.6,0.4-1.1,0.5c-0.4,0.1-1,0.2-1.6,0.2H98.8z M100.1,61.3h2.1c0.6,0,1,0,1.2-0.1c0.3-0.1,0.6-0.3,0.7-0.5
	c0.2-0.2,0.2-0.5,0.2-0.9c0-0.3-0.1-0.6-0.2-0.9c-0.2-0.2-0.4-0.4-0.7-0.5c-0.3-0.1-0.8-0.1-1.5-0.1h-2L100.1,61.3z M100.1,65.8h2.4
	c0.4,0,0.7,0,0.9,0c0.3-0.1,0.5-0.1,0.7-0.3c0.2-0.1,0.4-0.3,0.5-0.5c0.1-0.2,0.2-0.5,0.2-0.8c0-0.4-0.1-0.7-0.3-1
	c-0.2-0.3-0.4-0.5-0.8-0.6c-0.3-0.1-0.8-0.2-1.4-0.2h-2.3L100.1,65.8z M63.5,72.4h1.2v7.7l5.2-7.7h1.3v9.8h-1.2v-7.7l-5.2,7.7h-1.3
	L63.5,72.4z M73.1,75.1h2.8c0.7,0,1.2,0.1,1.5,0.2c0.3,0.1,0.6,0.3,0.8,0.6c0.2,0.3,0.4,0.7,0.4,1.1c0,0.3-0.1,0.6-0.2,0.9
	c-0.1,0.3-0.3,0.5-0.6,0.6c0.3,0.1,0.6,0.3,0.8,0.6c0.2,0.3,0.3,0.7,0.3,1.1c0,0.7-0.3,1.2-0.7,1.5c-0.4,0.3-1.1,0.5-1.9,0.5h-3.2
	L73.1,75.1z M74.3,78.1h1.3c0.5,0,0.9,0,1-0.1c0.2-0.1,0.4-0.2,0.5-0.3c0.2-0.2,0.2-0.4,0.2-0.6c0-0.4-0.1-0.6-0.4-0.8
	c-0.3-0.1-0.7-0.2-1.3-0.2h-1.3V78.1z M74.3,81.2h1.6c0.7,0,1.1-0.1,1.4-0.2c0.3-0.2,0.4-0.4,0.4-0.8c0-0.2-0.1-0.4-0.2-0.6
	c-0.1-0.2-0.3-0.3-0.6-0.4c-0.2-0.1-0.6-0.1-1.1-0.1h-1.4V81.2z M84.8,81.3c-0.4,0.4-0.9,0.6-1.3,0.8c-0.4,0.2-0.9,0.2-1.3,0.2
	c-0.8,0-1.4-0.2-1.8-0.6c-0.4-0.4-0.6-0.9-0.6-1.4c0-0.3,0.1-0.7,0.2-0.9c0.2-0.3,0.4-0.5,0.6-0.7c0.3-0.2,0.5-0.3,0.9-0.4
	c0.2-0.1,0.6-0.1,1.1-0.2c1-0.1,1.7-0.3,2.1-0.4c0-0.2,0-0.3,0-0.3c0-0.5-0.1-0.8-0.3-1C84,76.1,83.6,76,83,76c-0.6,0-1,0.1-1.3,0.3
	c-0.3,0.2-0.5,0.5-0.6,1.1L80,77.2c0.1-0.5,0.3-0.9,0.5-1.2c0.2-0.3,0.6-0.5,1.1-0.7c0.5-0.2,1-0.2,1.6-0.2c0.6,0,1.1,0.1,1.5,0.2
	c0.4,0.1,0.7,0.3,0.8,0.5c0.2,0.2,0.3,0.5,0.4,0.8c0,0.2,0.1,0.6,0.1,1.1v1.6c0,1.1,0,1.8,0.1,2.1c0,0.3,0.1,0.6,0.3,0.9H85
	C84.9,81.9,84.8,81.7,84.8,81.3z M84.7,78.7c-0.4,0.2-1.1,0.3-2,0.4c-0.5,0.1-0.8,0.1-1,0.2c-0.2,0.1-0.4,0.2-0.5,0.4
	c-0.1,0.2-0.2,0.4-0.2,0.6c0,0.3,0.1,0.6,0.4,0.8c0.2,0.2,0.6,0.3,1.1,0.3c0.5,0,0.9-0.1,1.2-0.3c0.4-0.2,0.6-0.5,0.8-0.8
	c0.1-0.3,0.2-0.7,0.2-1.2L84.7,78.7z M87.7,75.1h1.2v2.9h3.3v-2.9h1.2v7.1h-1.2v-3.1h-3.3v3.1h-1.2L87.7,75.1z M48.7,87.7h1.2v7.7
	l5.2-7.7h1.3v9.8h-1.2v-7.7L50,97.4h-1.3V87.7z M58.3,90.3h2.8c0.7,0,1.2,0.1,1.5,0.2c0.3,0.1,0.6,0.3,0.8,0.6
	c0.2,0.3,0.4,0.7,0.4,1.1c0,0.3-0.1,0.6-0.2,0.9c-0.1,0.3-0.3,0.5-0.6,0.6c0.3,0.1,0.6,0.3,0.8,0.6c0.2,0.3,0.3,0.7,0.3,1.1
	c0,0.7-0.3,1.2-0.7,1.5c-0.4,0.3-1.1,0.5-1.9,0.5h-3.2L58.3,90.3z M59.5,93.3h1.3c0.5,0,0.9,0,1-0.1c0.2-0.1,0.4-0.2,0.5-0.3
	c0.1-0.2,0.2-0.4,0.2-0.6c0-0.4-0.1-0.6-0.4-0.8c-0.3-0.1-0.7-0.2-1.3-0.2h-1.3L59.5,93.3z M59.5,96.4h1.6c0.7,0,1.1-0.1,1.4-0.2
	c0.3-0.2,0.4-0.4,0.4-0.8c0-0.2-0.1-0.4-0.2-0.6c-0.1-0.2-0.3-0.3-0.6-0.4c-0.2-0.1-0.6-0.1-1.1-0.1h-1.4L59.5,96.4z M70,96.5
	c-0.4,0.4-0.9,0.6-1.3,0.8c-0.4,0.2-0.9,0.2-1.3,0.2c-0.8,0-1.4-0.2-1.8-0.6c-0.4-0.4-0.6-0.9-0.6-1.4c0-0.3,0.1-0.7,0.2-0.9
	c0.2-0.3,0.4-0.5,0.6-0.7c0.3-0.2,0.5-0.3,0.9-0.4c0.2-0.1,0.6-0.1,1.1-0.2c1-0.1,1.7-0.3,2.1-0.4c0-0.2,0-0.3,0-0.3
	c0-0.5-0.1-0.8-0.3-1c-0.3-0.3-0.8-0.4-1.4-0.4c-0.6,0-1,0.1-1.3,0.3c-0.3,0.2-0.5,0.5-0.6,1.1l-1.2-0.2c0.1-0.5,0.3-0.9,0.5-1.2
	c0.2-0.3,0.6-0.5,1.1-0.7c0.5-0.2,1-0.2,1.6-0.2c0.6,0,1.1,0.1,1.5,0.2c0.4,0.1,0.7,0.3,0.8,0.5c0.2,0.2,0.3,0.5,0.4,0.8
	c0,0.2,0.1,0.6,0.1,1.1v1.6c0,1.1,0,1.8,0.1,2.1c0,0.3,0.1,0.6,0.3,0.9h-1.3C70.1,97.2,70.1,96.9,70,96.5z M69.9,93.9
	c-0.4,0.2-1.1,0.3-2,0.4c-0.5,0.1-0.8,0.1-1,0.2c-0.2,0.1-0.4,0.2-0.5,0.4c-0.1,0.2-0.2,0.4-0.2,0.6c0,0.3,0.1,0.6,0.4,0.8
	c0.2,0.2,0.6,0.3,1.1,0.3c0.5,0,0.9-0.1,1.2-0.3c0.4-0.2,0.6-0.5,0.8-0.8c0.1-0.3,0.2-0.7,0.2-1.2L69.9,93.9z M73,90.3h1.2v2.9h3.3
	v-2.9h1.2v7.1h-1.2v-3.1h-3.3v3.1H73L73,90.3z M80.1,93.9c0-1.3,0.4-2.3,1.1-2.9c0.6-0.5,1.3-0.8,2.2-0.8c1,0,1.8,0.3,2.4,1
	c0.6,0.6,0.9,1.5,0.9,2.6c0,0.9-0.1,1.6-0.4,2.1c-0.3,0.5-0.7,0.9-1.2,1.2c-0.5,0.3-1.1,0.4-1.7,0.4c-1,0-1.8-0.3-2.4-0.9
	C80.4,96,80.1,95.1,80.1,93.9z M81.3,93.9c0,0.9,0.2,1.6,0.6,2c0.4,0.4,0.9,0.7,1.5,0.7c0.6,0,1.1-0.2,1.5-0.7
	c0.4-0.5,0.6-1.1,0.6-2.1c0-0.9-0.2-1.5-0.6-2c-0.4-0.4-0.9-0.7-1.5-0.7c-0.6,0-1.1,0.2-1.5,0.7C81.5,92.3,81.3,93,81.3,93.9z
	 M88.1,90.3h2.8c0.7,0,1.2,0.1,1.5,0.2c0.3,0.1,0.6,0.3,0.8,0.6c0.2,0.3,0.4,0.7,0.4,1.1c0,0.3-0.1,0.6-0.2,0.9
	c-0.1,0.3-0.3,0.5-0.6,0.6c0.3,0.1,0.6,0.3,0.8,0.6c0.2,0.3,0.3,0.7,0.3,1.1c0,0.7-0.3,1.2-0.7,1.5c-0.4,0.3-1.1,0.5-1.9,0.5h-3.2
	L88.1,90.3z M89.3,93.3h1.3c0.5,0,0.9,0,1-0.1c0.2-0.1,0.4-0.2,0.5-0.3c0.2-0.2,0.2-0.4,0.2-0.6c0-0.4-0.1-0.6-0.4-0.8
	c-0.3-0.1-0.7-0.2-1.3-0.2h-1.3V93.3z M89.3,96.4h1.6c0.7,0,1.1-0.1,1.4-0.2c0.3-0.2,0.4-0.4,0.4-0.8c0-0.2-0.1-0.4-0.2-0.6
	c-0.1-0.2-0.3-0.3-0.6-0.4c-0.2-0.1-0.6-0.1-1.1-0.1h-1.4V96.4z M95.3,90.3h1.2v5.4l3.3-5.4h1.3v7.1h-1.2v-5.4l-3.3,5.4h-1.3
	L95.3,90.3z M102.5,90.3h1.2v1.3c0,0.6,0,1,0.1,1.3c0.1,0.3,0.2,0.5,0.5,0.7c0.3,0.2,0.6,0.3,1,0.3c0.5,0,1-0.1,1.8-0.4v-3.2h1.2
	v7.1H107v-2.9c-0.7,0.2-1.4,0.3-2.1,0.3c-0.5,0-1-0.1-1.4-0.4c-0.4-0.3-0.7-0.6-0.8-1c-0.1-0.4-0.2-0.8-0.2-1.3V90.3z"/>
<path id="path25" class="st1" d="M102.5,117.7l0.2-0.6c0.5,0.2,0.8,0.3,1,0.4c-0.1-0.5-0.1-0.9-0.1-1.1h0.6c0,0.3,0,0.6-0.1,1.1
	c0.3-0.1,0.6-0.3,1-0.4l0.2,0.6c-0.4,0.1-0.7,0.2-1.1,0.2c0.2,0.2,0.4,0.4,0.7,0.8l-0.5,0.4c-0.2-0.2-0.4-0.5-0.6-0.9
	c-0.2,0.4-0.4,0.7-0.6,0.9l-0.5-0.4c0.3-0.4,0.6-0.7,0.7-0.8C103.2,117.9,102.8,117.8,102.5,117.7z"/>
<path id="path27" class="st0" d="M78,24.7c29.4,0,53.3,23.9,53.3,53.3c0,29.4-23.9,53.3-53.3,53.3c-29.4,0-53.3-23.9-53.3-53.3
	C24.6,48.5,48.5,24.7,78,24.7z"/>
</svg>
