<?xml version="1.0" encoding="utf-8"?>
<!-- Generator: Adobe Illustrator 26.4.1, SVG Export Plug-In . SVG Version: 6.00 Build 0)  -->
<svg version="1.1"
	 id="svg36" xmlns:svg="http://www.w3.org/2000/svg" xmlns:rdf="http://www.w3.org/1999/02/22-rdf-syntax-ns#" xmlns:cc="http://creativecommons.org/ns#" xmlns:dc="http://purl.org/dc/elements/1.1/"
	 xmlns="http://www.w3.org/2000/svg" xmlns:xlink="http://www.w3.org/1999/xlink" x="0px" y="0px" viewBox="0 0 155.9 155.9"
	 style="enable-background:new 0 0 155.9 155.9;" xml:space="preserve">
<style type="text/css">
	.st0{fill:none;stroke:#1B1918;stroke-width:1.4173;}
	.st1{fill:none;stroke:#1B1918;stroke-width:0.7087;}
	.st2{fill:none;stroke:#1B1918;stroke-width:0.5669;}
	.st3{fill-rule:evenodd;clip-rule:evenodd;fill:#1B1918;}
</style>
<path id="path6" class="st0" d="M78,25.1c29.2,0,52.9,23.7,52.9,52.9c0,29.2-23.7,52.9-52.9,52.9c-29.2,0-52.9-23.7-52.9-52.9
	C25.1,48.8,48.8,25.1,78,25.1z"/>
<path id="path8" class="st1" d="M78.2,44.9c18.4,0,33.3,14.9,33.3,33.3s-14.9,33.3-33.3,33.3c-18.4,0-33.3-14.9-33.3-33.3
	S59.8,44.9,78.2,44.9z"/>
<path id="path10" class="st2" d="M78,26.6c28.3,0,51.3,23,51.3,51.3c0,28.3-23,51.3-51.3,51.3c-28.3,0-51.3-23-51.3-51.3
	C26.6,49.6,49.6,26.6,78,26.6z"/>
<path id="path12" class="st3" d="M29,79.5l0-0.6l3.9,0.1l-3.8-2.7l0-0.6l4.9,0.2l0,0.6l-3.9-0.1L34,79l0,0.6L29,79.5z M34.2,74.7
	l-4.9-0.6l0.1-0.6l2,0.2l0.3-2.5l-2-0.2l0.1-0.6l4.9,0.6l-0.1,0.6l-2.3-0.3l-0.3,2.5l2.3,0.3L34.2,74.7z M30.1,68.2l0.7-2.8l4.2,1
	l0.1-0.4l1.7,0.4l-0.1,0.5l-1.1-0.3l-0.7,3.1l1.1,0.3l-0.1,0.5l-1.7-0.4l0.1-0.4c-0.5-0.5-1.6-1-3.4-1.4L30.1,68.2z M31.2,66.1
	l-0.4,1.6l0.2,0.1c0.4,0.1,1,0.3,1.6,0.5c0.7,0.2,1.2,0.5,1.7,0.8l0.5-2.1L31.2,66.1z M31.3,63.5l0.2-0.5l3.7,1.3l-2.9-3.7l0.2-0.6
	l4.7,1.6L37,62.1l-3.7-1.3l2.9,3.7L36,65.1L31.3,63.5z M37.7,60.5l-4.4-2.2l0.8-1.6c0.2-0.3,0.3-0.6,0.5-0.7
	c0.2-0.1,0.4-0.2,0.6-0.3c0.2,0,0.5,0,0.7,0.1c0.2,0.1,0.4,0.2,0.5,0.4c0.1,0.2,0.2,0.4,0.2,0.6c0.2-0.2,0.4-0.3,0.7-0.4
	c0.3,0,0.5,0,0.8,0.1c0.3,0.1,0.5,0.3,0.6,0.5c0.1,0.2,0.2,0.5,0.2,0.7c0,0.3-0.1,0.6-0.3,1L37.7,60.5z M35.4,58.6l0.5-0.9
	c0.1-0.2,0.2-0.4,0.2-0.5c0-0.2,0-0.3,0-0.4c-0.1-0.1-0.2-0.2-0.3-0.3c-0.2-0.1-0.3-0.1-0.5-0.1c-0.1,0-0.3,0.1-0.4,0.2
	c-0.1,0.1-0.2,0.3-0.4,0.6L34.1,58L35.4,58.6z M37.5,59.6l0.5-1.1c0.1-0.2,0.2-0.4,0.2-0.5c0-0.2,0-0.4-0.1-0.5
	c-0.1-0.1-0.2-0.3-0.4-0.4c-0.2-0.1-0.3-0.1-0.5-0.1c-0.2,0-0.3,0.1-0.4,0.2c-0.1,0.1-0.3,0.3-0.4,0.6l-0.5,1L37.5,59.6z M35.6,53.6
	l0.3-0.5l3.3,2.2L37.3,51l0.3-0.5l4.1,2.7l-0.3,0.5l-3.3-2.2l1.9,4.3l-0.3,0.5L35.6,53.6z M38.9,48.8l1.8-2.3l3.5,2.7l0.3-0.3
	l1.4,1.1l-0.3,0.4l-0.9-0.7l-1.9,2.5l0.9,0.7l-0.3,0.4l-1.4-1.1l0.2-0.3c-0.2-0.7-1.1-1.6-2.5-2.7L38.9,48.8z M40.7,47.3l-1,1.3
	l0.2,0.2c0.3,0.3,0.8,0.6,1.3,1.1c0.5,0.5,0.9,1,1.2,1.5l1.3-1.7L40.7,47.3z M41.6,45.4l0.4-0.5l3.3,1l-1.2-3.1l0.4-0.5l1.5,4
	c0.2,0.5,0.3,0.9,0.3,1.1c0,0.2-0.1,0.4-0.3,0.6c-0.1,0.1-0.3,0.2-0.5,0.4L45.2,48c0.2-0.1,0.3-0.1,0.5-0.3c0.1-0.1,0.2-0.2,0.2-0.4
	c0-0.2-0.1-0.4-0.2-0.8L41.6,45.4z M48.3,45.7l-1.8-5l0.5-0.4l4.7,2.5l-0.5,0.5l-1.4-0.8l-1.5,1.3l0.6,1.5L48.3,45.7z M48,43.3
	l1.2-1.1L48,41.5c-0.4-0.2-0.7-0.4-0.9-0.6c0.2,0.3,0.3,0.6,0.4,0.9L48,43.3z M49.9,38l2.5-1.6l2.6,4.2l-0.5,0.3l-2.3-3.7l-1.5,0.9
	l1.4,2.2c0.3,0.4,0.5,0.8,0.5,1c0.1,0.2,0.1,0.4,0.1,0.6c-0.1,0.2-0.2,0.4-0.4,0.5c-0.1,0.1-0.3,0.1-0.5,0.2l-0.2-0.5
	c0.1,0,0.2,0,0.3-0.1c0.1-0.1,0.2-0.2,0.2-0.3c0-0.1-0.1-0.4-0.3-0.7L49.9,38z M53.9,35.4l0.6-0.3l0.9,1.9l1-0.5
	c0.4-0.2,0.7-0.3,0.9-0.3c0.3,0,0.5,0,0.7,0.2c0.2,0.1,0.4,0.3,0.6,0.6c0.2,0.3,0.2,0.7,0.1,1.1c-0.1,0.4-0.5,0.7-1.1,1l-1.6,0.8
	L53.9,35.4z M56.4,39.1l1-0.5c0.4-0.2,0.6-0.4,0.7-0.6c0.1-0.2,0.1-0.4-0.1-0.7c-0.1-0.2-0.2-0.3-0.4-0.4c-0.2-0.1-0.3-0.1-0.5-0.1
	c-0.2,0-0.4,0.1-0.8,0.3l-0.8,0.4L56.4,39.1z M60.2,37.9l-1.8-4.6L59,33l0.8,1.9L62,34l-0.8-1.9l0.6-0.2l1.8,4.6l-0.6,0.2l-0.9-2.2
	l-2.3,0.9l0.9,2.2L60.2,37.9z M63.8,31.2l0.6-0.1l0.5,2.1l1.1-0.3c0.4-0.1,0.7-0.1,1-0.1c0.3,0,0.5,0.1,0.7,0.3
	c0.2,0.2,0.3,0.4,0.4,0.7c0.1,0.4,0,0.7-0.1,1.1c-0.2,0.3-0.6,0.6-1.3,0.7L64.9,36L63.8,31.2z M65.4,35.3l1.1-0.3
	c0.4-0.1,0.6-0.2,0.8-0.4c0.1-0.2,0.2-0.4,0.1-0.7c0-0.2-0.1-0.4-0.3-0.5c-0.1-0.1-0.3-0.2-0.5-0.2c-0.2,0-0.5,0-0.9,0.1L65,33.6
	L65.4,35.3z M69.3,35l-1.1-4.8l0.6-0.1l1.1,4.8L69.3,35z M70.6,29.7l0.6-0.1l0.4,3.9l2.1-4.2l0.6-0.1l0.6,4.9l-0.6,0.1l-0.4-3.9
	l-2.1,4.2l-0.6,0.1L70.6,29.7z M73,28.2l0.4,0c0,0.3-0.1,0.5-0.2,0.7c-0.2,0.2-0.4,0.3-0.6,0.3c-0.3,0-0.5,0-0.7-0.1
	c-0.2-0.1-0.3-0.3-0.4-0.6l0.4,0c0.1,0.3,0.3,0.4,0.6,0.4c0.2,0,0.3-0.1,0.4-0.2C72.9,28.5,72.9,28.3,73,28.2z M78.6,34.1L78,34
	l0.2-4.9l3.7,0.1l-0.2,4.9l-0.6,0l0.2-4.4l-2.5-0.1L78.6,34.1z M83,34.3l0.6-4.9l1.8,0.2c0.4,0,0.7,0.1,0.9,0.2
	c0.3,0.1,0.5,0.3,0.6,0.5c0.1,0.2,0.2,0.5,0.1,0.9c-0.1,0.4-0.2,0.8-0.5,1c-0.3,0.2-0.8,0.3-1.4,0.3l-1.2-0.1l-0.2,2L83,34.3z
	 M83.9,31.8l1.2,0.1c0.4,0,0.7,0,0.9-0.1c0.2-0.1,0.3-0.3,0.3-0.6c0-0.2,0-0.4-0.1-0.5c-0.1-0.1-0.2-0.3-0.3-0.3
	c-0.1-0.1-0.3-0.1-0.7-0.2l-1.2-0.1L83.9,31.8z M87.6,35.1l1.2-4.8l3.3,0.9L92,31.7L89.3,31l-0.4,1.5l2.6,0.7l-0.1,0.6L88.8,33
	l-0.4,1.6l2.8,0.7L91,35.9L87.6,35.1z M94.4,31.8l2.7,1.1l-1.7,4l0.4,0.2l-0.7,1.6l-0.5-0.2l0.4-1.1l-2.9-1.2l-0.4,1.1l-0.5-0.2
	l0.7-1.6l0.3,0.1c0.6-0.4,1.2-1.5,1.9-3.2L94.4,31.8z M96.2,33.2l-1.5-0.6l-0.1,0.2c-0.2,0.4-0.4,0.9-0.7,1.5
	c-0.3,0.6-0.7,1.2-1.1,1.5l2,0.8L96.2,33.2z M97,38.3L96.5,38l2.2-4.4l3.3,1.7l-2.2,4.4l-0.6-0.3l1.9-3.9L99,34.4L97,38.3z
	 M100.9,40.4l2.6-4.2l1.5,1c0.4,0.2,0.6,0.4,0.7,0.6c0.2,0.2,0.3,0.5,0.3,0.8c0,0.3-0.1,0.6-0.2,0.9c-0.2,0.4-0.5,0.6-0.9,0.7
	c-0.4,0.1-0.8,0-1.4-0.4l-1-0.7l-1.1,1.7L100.9,40.4z M102.8,38.5l1,0.7c0.3,0.2,0.6,0.3,0.8,0.3c0.2,0,0.4-0.2,0.6-0.4
	c0.1-0.2,0.2-0.3,0.2-0.5c0-0.2,0-0.3-0.1-0.4c-0.1-0.1-0.3-0.3-0.5-0.4l-1-0.7L102.8,38.5z M107.7,39l0.5,0.3l-2.4,3.1l4.4-1.6
	l0.5,0.4l-3,3.9l-0.5-0.3l2.4-3.1l-4.4,1.6l-0.5-0.4L107.7,39z M108.6,46.1l3.6-3.4l0.4,0.5l-1.5,1.4l1.7,1.8l1.5-1.4l0.4,0.5
	l-3.6,3.4l-0.4-0.5l1.7-1.6l-1.7-1.8l-1.7,1.6L108.6,46.1z M115.9,46.8l0.4,0.4l-3.1,2.4l4.7-0.4l0.4,0.5l-3.9,3.1l-0.4-0.4l3.1-2.4
	l-4.7,0.4l-0.4-0.5L115.9,46.8z M115,53.8l4.3-2.5l0.5,0.8l-2.4,2.7l-0.5,0.6c0.2,0,0.5-0.1,0.8-0.2l3.5-0.8l0.4,0.7l-4.3,2.5
	l-0.3-0.5l3.6-2.1l-4.3,0.9l-0.3-0.5l2.9-3.3l-3.6,2.1L115,53.8z M117.6,58.3l5.3-0.4l0.3,0.6l-3.7,3.8l-0.3-0.7l1.1-1.1l-0.8-1.8
	l-1.6,0.1L117.6,58.3z M120,58.7l0.7,1.5l1-1c0.3-0.3,0.6-0.6,0.8-0.7c-0.3,0.1-0.6,0.1-1,0.2L120,58.7z M120,64.2l4.1-1.4l-0.5-1.5
	l0.5-0.2l1.2,3.6l-0.5,0.2l-0.5-1.5l-4.1,1.4L120,64.2z M120.9,67.2l4.8-1.1l0.8,3.3l-0.6,0.1l-0.6-2.7l-1.5,0.3l0.6,2.6l-0.6,0.1
	l-0.6-2.6l-1.6,0.4l0.7,2.8l-0.6,0.1L120.9,67.2z M126.8,71.5l0.3,3l-4.9,0.6l-0.1-0.6l4.3-0.5l-0.2-1.7l-2.5,0.3
	c-0.5,0.1-0.9,0.1-1.1,0.1c-0.2,0-0.4-0.1-0.6-0.2c-0.2-0.1-0.2-0.3-0.3-0.5c0-0.1,0-0.3,0-0.5l0.6,0c0,0.1,0,0.2,0,0.3
	c0,0.1,0.1,0.2,0.2,0.3c0.1,0.1,0.4,0.1,0.8,0L126.8,71.5z M127.2,76.1l0,0.6l-2.1,0.1l0,1.1c0,0.4,0,0.7-0.1,1
	c-0.1,0.3-0.2,0.5-0.4,0.6c-0.2,0.2-0.5,0.2-0.8,0.3c-0.4,0-0.7-0.1-1-0.3c-0.3-0.2-0.5-0.7-0.5-1.4l-0.1-1.8L127.2,76.1z
	 M122.8,76.9l0,1.2c0,0.4,0.1,0.7,0.2,0.8c0.1,0.2,0.4,0.3,0.7,0.2c0.2,0,0.4-0.1,0.5-0.2c0.1-0.1,0.2-0.3,0.2-0.4
	c0-0.2,0-0.5,0-0.9l0-0.8L122.8,76.9z"/>
<path id="path14" class="st3" d="M31.7,82.4c0-0.2-0.1-0.4-0.1-0.7c-0.1-0.3-0.2-0.5-0.2-0.7c0-0.2,0-0.3,0.1-0.4
	c0.1-0.1,0.2-0.1,0.3-0.1c0.1,0,0.2,0,0.3,0.1c0.1,0.1,0.1,0.2,0.1,0.4c0,0.1,0,0.3-0.1,0.6C32,82,32,82.2,31.9,82.4
	c0.2-0.1,0.3-0.3,0.5-0.4c0.2-0.3,0.4-0.4,0.5-0.5c0.1-0.1,0.2-0.1,0.3-0.1c0.1,0,0.2,0,0.3,0.1c0.1,0.1,0.1,0.2,0.1,0.3
	c0,0.1-0.1,0.2-0.2,0.3c-0.1,0.1-0.4,0.2-0.8,0.3c-0.2,0.1-0.5,0.1-0.6,0.2c0.2,0.1,0.4,0.2,0.6,0.2c0.4,0.1,0.7,0.2,0.8,0.3
	c0.1,0.1,0.2,0.2,0.2,0.4c0,0.1,0,0.2-0.1,0.3c-0.1,0.1-0.2,0.1-0.3,0.1c-0.1,0-0.2,0-0.3-0.1c-0.1-0.1-0.3-0.2-0.5-0.5
	c-0.1-0.2-0.3-0.3-0.5-0.5c0,0.2,0,0.4,0.1,0.6c0.1,0.4,0.2,0.6,0.2,0.8c0,0.1,0,0.2-0.1,0.3c-0.1,0.1-0.2,0.1-0.2,0.1
	c-0.1,0-0.2,0-0.3-0.1c-0.1-0.1-0.1-0.2-0.1-0.3c0-0.2,0-0.3,0.1-0.6c0.1-0.2,0.1-0.4,0.1-0.5c0-0.1,0-0.2,0.1-0.4
	c-0.2,0.1-0.4,0.3-0.5,0.4c-0.2,0.3-0.4,0.4-0.5,0.5c-0.1,0.1-0.2,0.1-0.3,0.1c-0.1,0-0.2,0-0.3-0.1c-0.1-0.1-0.1-0.2-0.1-0.2
	c0-0.1,0-0.2,0.1-0.3c0.1-0.1,0.2-0.2,0.3-0.2c0.1,0,0.3-0.1,0.6-0.2c0.2,0,0.4-0.1,0.6-0.2c-0.2-0.1-0.4-0.2-0.6-0.2
	c-0.4-0.1-0.6-0.2-0.7-0.2C30.1,82.1,30,82,30,81.8c0-0.1,0-0.2,0.1-0.2c0.1-0.1,0.2-0.1,0.3-0.1c0.1,0,0.2,0,0.3,0.1
	c0.1,0.1,0.3,0.2,0.4,0.4C31.4,82.2,31.6,82.3,31.7,82.4z"/>
<path id="path16" class="st3" d="M124.4,83.1c0-0.2-0.1-0.4-0.1-0.7c-0.1-0.3-0.2-0.5-0.2-0.7c0-0.2,0-0.3,0.1-0.4
	c0.1-0.1,0.2-0.1,0.3-0.1c0.1,0,0.2,0,0.3,0.1c0.1,0.1,0.1,0.2,0.1,0.4c0,0.1,0,0.3-0.1,0.6c-0.1,0.3-0.1,0.5-0.2,0.7
	c0.2-0.1,0.3-0.3,0.5-0.4c0.2-0.3,0.4-0.4,0.5-0.5c0.1-0.1,0.2-0.1,0.3-0.1c0.1,0,0.2,0,0.3,0.1c0.1,0.1,0.1,0.2,0.1,0.3
	c0,0.1-0.1,0.2-0.2,0.3c-0.1,0.1-0.4,0.2-0.8,0.3c-0.3,0.1-0.5,0.1-0.6,0.2c0.2,0.1,0.4,0.2,0.6,0.2c0.4,0.1,0.7,0.2,0.8,0.3
	c0.1,0.1,0.2,0.2,0.2,0.4c0,0.1,0,0.2-0.1,0.3c-0.1,0.1-0.2,0.1-0.3,0.1c-0.1,0-0.2,0-0.3-0.1c-0.1-0.1-0.3-0.2-0.5-0.5
	c-0.1-0.2-0.3-0.3-0.5-0.5c0,0.2,0,0.4,0.1,0.6c0.1,0.4,0.2,0.6,0.2,0.8c0,0.1,0,0.2-0.1,0.3c-0.1,0.1-0.2,0.1-0.2,0.1
	c-0.1,0-0.2,0-0.3-0.1c-0.1-0.1-0.1-0.2-0.1-0.3c0-0.2,0-0.3,0.1-0.6c0.1-0.2,0.1-0.4,0.1-0.5c0-0.1,0-0.2,0.1-0.4
	c-0.2,0.1-0.4,0.3-0.5,0.4c-0.2,0.3-0.4,0.4-0.5,0.5c-0.1,0.1-0.2,0.1-0.3,0.1c-0.1,0-0.2,0-0.3-0.1c-0.1-0.1-0.1-0.2-0.1-0.2
	c0-0.1,0-0.2,0.1-0.3c0.1-0.1,0.2-0.2,0.3-0.2c0.1,0,0.3-0.1,0.6-0.2c0.2,0,0.4-0.1,0.6-0.2c-0.2-0.1-0.4-0.2-0.6-0.2
	c-0.4-0.1-0.6-0.2-0.7-0.2c-0.1-0.1-0.2-0.2-0.2-0.4c0-0.1,0-0.2,0.1-0.2c0.1-0.1,0.2-0.1,0.3-0.1c0.1,0,0.2,0,0.3,0.1
	c0.1,0.1,0.3,0.2,0.4,0.4C124.1,82.8,124.3,83,124.4,83.1L124.4,83.1z"/>
<g id="Layer1000">
	<path id="path18" class="st3" d="M58.8,66c0.2,0,0.4,0.1,0.4,0.4v1.2c0,0.9-0.4,1.4-1.2,1.4c-0.5,0-0.8-0.2-0.9-0.5
		c-0.1-0.2-0.2-0.6-0.2-1c0-0.1,0-0.2,0-0.4c0-0.2,0-0.3,0-0.4c0-0.5-0.1-0.9-0.4-1.1c-0.2-0.1-0.6-0.2-1.1-0.2
		c-0.5,0-0.8,0.1-0.8,0.4v1.8c0,0.2,0,0.4,0.1,0.5c0.1,0.1,0.2,0.2,0.4,0.2c0.1,0,0.1,0,0.3,0c0.1,0,0.2,0,0.3,0
		c0.1,0,0.2,0,0.3,0.1c0.1,0.1,0.1,0.2,0.1,0.3c0,0.3-0.2,0.4-0.6,0.4c-0.1,0-0.4,0-0.6-0.1c-0.3,0-0.5-0.1-0.6-0.1
		c-0.1,0-0.4,0-0.7,0.1c-0.3,0-0.5,0.1-0.7,0.1c-0.3,0-0.4-0.1-0.4-0.4c0-0.3,0.1-0.4,0.4-0.4c0.1,0,0.1,0,0.3,0c0.1,0,0.2,0,0.3,0
		c0.3,0,0.5-0.2,0.5-0.7v-4.8c0-0.2,0-0.4-0.1-0.5c-0.1-0.1-0.2-0.2-0.4-0.2c-0.1,0-0.1,0-0.2,0c-0.1,0-0.2,0-0.2,0
		c-0.3,0-0.4-0.1-0.4-0.4c0-0.3,0.2-0.4,0.5-0.4c0.1,0,0.3,0,0.6,0c0.3,0,0.5,0,0.6,0c0.1,0,0.4,0,0.6,0c0.3,0,0.5,0,0.6,0
		c0.3,0,0.5,0.2,0.5,0.5c0,0.1,0,0.2-0.1,0.3c-0.1,0.1-0.2,0.1-0.3,0.1c0,0-0.1,0-0.2,0c-0.1,0-0.2,0-0.2,0c-0.2,0-0.3,0.1-0.4,0.2
		c0,0.1,0,0.2,0,0.5v1.4c0,0.2,0.1,0.3,0.2,0.4c0.1,0,0.2,0,0.5,0c0.7,0,1.1-0.3,1.2-0.9c0.1-0.5,0.2-1.1,0.2-1.6
		c0.2-0.6,0.5-0.9,1.2-0.9c0.7,0,1,0.4,1,1.1c0,0.5-0.2,0.8-0.5,0.8c-0.3,0-0.4-0.2-0.4-0.5c0,0,0-0.1,0.1-0.1
		c0-0.1,0.1-0.1,0.1-0.2c0-0.2-0.1-0.2-0.2-0.2c-0.3,0-0.4,0.2-0.4,0.6c0,0.4-0.1,0.8-0.1,1.2c-0.1,0.5-0.3,0.8-0.7,1v0.1
		c0.4,0.1,0.6,0.4,0.8,0.8c0.1,0.3,0.1,0.7,0.1,1.2c0,0.1,0,0.1,0,0.3c0,0.1,0,0.2,0,0.2c0,0.6,0.1,0.9,0.4,0.9
		c0.3,0,0.4-0.3,0.4-0.8c0-0.1,0-0.2,0-0.4c0-0.2,0-0.3,0-0.4C58.4,66.2,58.6,66,58.8,66L58.8,66z M64.2,64.8c0-0.3,0-0.4,0-0.5
		c-0.1-0.2-0.2-0.2-0.4-0.2c-0.1,0-0.1,0-0.3,0c-0.1,0-0.2,0-0.3,0c-0.1,0-0.2,0-0.4,0c-0.2,0-0.3,0-0.3,0c-0.2,0-0.3,0.1-0.4,0.3
		c0,0.1,0,0.3,0,0.5v1.6c0,0.8-0.1,1.3-0.2,1.6c-0.2,0.6-0.6,0.9-1.2,0.9c-0.3,0-0.6-0.1-0.8-0.3c-0.3-0.2-0.4-0.5-0.4-0.8
		c0-0.2,0-0.3,0.1-0.5s0.2-0.2,0.4-0.2c0.3,0,0.5,0.2,0.5,0.5c0,0,0,0.1-0.1,0.2c0,0.1-0.1,0.2-0.1,0.2c0.1,0.1,0.2,0.2,0.4,0.2
		c0.3,0,0.4-0.2,0.5-0.6c0-0.2,0.1-0.5,0.1-0.9v-2.1c0-0.3,0-0.4-0.1-0.5c-0.1-0.2-0.2-0.2-0.4-0.2c0,0-0.1,0-0.1,0
		c-0.1,0-0.1,0-0.1,0c-0.3,0-0.4-0.1-0.4-0.4c0-0.2,0.2-0.3,0.6-0.3c0.3,0,0.7,0,1.2,0c0.5,0,1,0,1.2,0c0.3,0,0.6,0,1.2,0
		c0.5,0,0.9,0,1.2,0c0.4,0,0.5,0.1,0.5,0.3c0,0.3-0.1,0.4-0.4,0.4c0,0-0.1,0-0.1,0c-0.1,0-0.1,0-0.1,0c-0.2,0-0.3,0.1-0.4,0.2
		c0,0.1,0,0.2,0,0.5v2.7c0,0.3,0,0.5,0,0.5c0.1,0.2,0.2,0.2,0.4,0.2c0,0,0.1,0,0.1,0c0.1,0,0.1,0,0.1,0c0.3,0,0.4,0.1,0.4,0.4
		c0,0.2-0.1,0.4-0.4,0.4c-0.1,0-0.3,0-0.6,0c-0.3,0-0.4,0-0.6,0c-0.1,0-0.3,0-0.5,0c-0.2,0-0.4,0-0.5,0c-0.3,0-0.4-0.1-0.4-0.4
		c0-0.3,0.1-0.4,0.4-0.4c0,0,0.1,0,0.1,0c0.1,0,0.1,0,0.1,0c0.2,0,0.3-0.1,0.4-0.2c0-0.1,0-0.2,0-0.5V64.8z M71.8,67.6
		c0,0.3,0,0.5,0,0.5c0.1,0.2,0.2,0.2,0.4,0.2c0,0,0.1,0,0.1,0c0.1,0,0.1,0,0.1,0c0.3,0,0.4,0.1,0.4,0.4c0,0.2-0.1,0.4-0.4,0.4
		c-0.1,0-0.3,0-0.6-0.1c-0.3,0-0.4-0.1-0.6-0.1c-0.1,0-0.3,0-0.5,0.1c-0.2,0-0.4,0.1-0.5,0.1c-0.3,0-0.4-0.1-0.4-0.4
		c0-0.3,0.1-0.4,0.4-0.4c0,0,0.1,0,0.1,0c0.1,0,0.1,0,0.1,0c0.2,0,0.3-0.1,0.4-0.2c0-0.1,0-0.3,0-0.5v-2l-2.4,1.9
		c-0.2,0.1-0.3,0.3-0.3,0.5c0,0.1,0,0.2,0.1,0.3c0.1,0,0.2,0.1,0.3,0.1c0,0,0.1,0,0.1,0c0.1,0,0.1,0,0.1,0c0.3,0,0.4,0.1,0.4,0.4
		c0,0.2-0.1,0.4-0.4,0.4c-0.1,0-0.3,0-0.5-0.1c-0.2,0-0.4-0.1-0.5-0.1c-0.1,0-0.3,0-0.6,0.1C67.2,69,67,69,66.9,69
		c-0.3,0-0.4-0.1-0.4-0.4c0-0.3,0.1-0.4,0.4-0.4c0,0,0.1,0,0.1,0c0.1,0,0.1,0,0.1,0c0.2,0,0.3-0.1,0.4-0.2c0-0.1,0-0.2,0-0.5v-2.7
		c0-0.3,0-0.4,0-0.5c-0.1-0.2-0.2-0.2-0.4-0.2c0,0-0.1,0-0.1,0c-0.1,0-0.1,0-0.1,0c-0.3,0-0.4-0.1-0.4-0.4c0-0.2,0.1-0.4,0.4-0.4
		c0.1,0,0.3,0,0.6,0c0.2,0,0.4,0,0.6,0c0.1,0,0.3,0,0.5,0c0.2,0,0.4,0,0.5,0c0.3,0,0.4,0.1,0.4,0.4c0,0.3-0.1,0.4-0.4,0.4
		c0,0-0.1,0-0.1,0c-0.1,0-0.1,0-0.1,0c-0.2,0-0.3,0.1-0.4,0.2c0,0.1,0,0.3,0,0.5v2l2.7-2.2c0-0.2,0-0.3-0.1-0.4
		c-0.1-0.1-0.2-0.2-0.3-0.2c0,0-0.1,0-0.1,0c-0.1,0-0.1,0-0.1,0c-0.3,0-0.4-0.1-0.4-0.4c0-0.2,0.1-0.4,0.4-0.4c0.1,0,0.3,0,0.5,0
		c0.2,0,0.4,0,0.5,0c0.1,0,0.3,0,0.6,0c0.2,0,0.4,0,0.6,0c0.3,0,0.4,0.1,0.4,0.4c0,0.3-0.1,0.4-0.4,0.4c0,0-0.1,0-0.1,0
		c-0.1,0-0.1,0-0.1,0c-0.2,0-0.3,0.1-0.4,0.2c0,0.1,0,0.2,0,0.5V67.6z M77.1,67.7l1.1-3.6c0.1-0.4,0.3-0.6,0.6-0.6
		c0.1,0,0.2,0,0.3,0c0.1,0,0.2,0,0.3,0c0.1,0,0.3,0,0.5,0c0.2,0,0.4,0,0.5,0c0.3,0,0.5,0.1,0.5,0.3c0,0.2-0.1,0.4-0.3,0.4
		c-0.1,0-0.1,0-0.2,0c-0.1,0-0.2,0-0.2,0c-0.3,0-0.4,0.2-0.4,0.5v3.3c0,0.3,0.1,0.5,0.4,0.5c0.1,0,0.1,0,0.2,0c0.1,0,0.2,0,0.2,0
		c0.2,0,0.4,0.1,0.4,0.3c0,0.2-0.1,0.4-0.4,0.4c-0.1,0-0.3,0-0.5-0.1c-0.2,0-0.4-0.1-0.5-0.1c-0.1,0-0.3,0-0.5,0.1
		c-0.2,0-0.4,0.1-0.5,0.1c-0.3,0-0.4-0.1-0.4-0.4c0-0.1,0-0.2,0.1-0.2c0.1-0.1,0.1-0.1,0.2-0.1c0,0,0.1,0,0.2,0c0.1,0,0.1,0,0.2,0
		c0.1,0,0.2-0.1,0.3-0.2c0-0.1,0-0.2,0-0.4c0-0.2,0-0.6,0-1.3c0-0.5,0-0.9,0-1.3c0-0.5,0-0.9,0.1-1.3h0l-1.4,4.1
		c-0.1,0.2-0.1,0.4-0.1,0.4c-0.1,0.1-0.2,0.2-0.3,0.2c-0.2,0-0.3-0.1-0.3-0.2c0,0-0.1-0.2-0.1-0.4l-1.4-4.1l0,0c0,0.5,0,1.7,0,3.8
		c0,0.2,0,0.3,0,0.4c0,0.1,0.1,0.2,0.3,0.2c0,0,0.1,0,0.2,0c0.1,0,0.1,0,0.2,0c0.2,0,0.3,0.1,0.3,0.3c0,0.2-0.1,0.4-0.4,0.4
		c-0.1,0-0.3,0-0.5-0.1c-0.2,0-0.4-0.1-0.5-0.1c-0.1,0-0.3,0-0.5,0.1C74,69,73.8,69,73.7,69c-0.3,0-0.4-0.1-0.4-0.4
		c0-0.2,0.1-0.3,0.4-0.3c0.1,0,0.1,0,0.2,0c0.1,0,0.2,0,0.2,0c0.3,0,0.4-0.2,0.4-0.5v-3.3c0-0.2,0-0.3-0.1-0.4
		c-0.1-0.1-0.2-0.1-0.4-0.1c-0.1,0-0.1,0-0.2,0c-0.1,0-0.2,0-0.2,0c-0.2,0-0.3-0.1-0.3-0.4c0-0.2,0.2-0.3,0.5-0.3c0.1,0,0.3,0,0.5,0
		c0.2,0,0.4,0,0.5,0c0.1,0,0.2,0,0.3,0c0.1,0,0.2,0,0.3,0c0.3,0,0.4,0.2,0.6,0.6L77.1,67.7z M84.5,67v-0.8c-0.2,0.1-0.5,0.2-0.9,0.3
		c-0.5,0.1-0.8,0.1-1,0.2c-0.3,0.2-0.4,0.5-0.4,0.9c0,0.3,0.1,0.5,0.2,0.6c0.2,0.2,0.4,0.2,0.6,0.2c0.5,0,0.8-0.1,1.1-0.4
		C84.3,67.8,84.5,67.4,84.5,67z M85.4,69c-0.5,0-0.8-0.2-0.8-0.7c-0.3,0.4-0.9,0.7-1.6,0.7c-1.1,0-1.6-0.5-1.6-1.6
		c0-0.7,0.3-1.2,0.8-1.4c0.5-0.1,1-0.2,1.5-0.4c0.5-0.1,0.8-0.4,0.8-0.8c0-0.3-0.1-0.5-0.3-0.7c-0.2-0.2-0.4-0.3-0.7-0.3
		c-0.2,0-0.4,0-0.6,0.1c-0.2,0.1-0.4,0.2-0.4,0.4c0,0,0.1,0.1,0.1,0.2c0.1,0.1,0.1,0.2,0.1,0.3c0,0.1-0.1,0.3-0.2,0.4
		c-0.1,0.1-0.2,0.2-0.4,0.2c-0.4,0-0.6-0.3-0.6-0.8c0-0.5,0.2-0.9,0.6-1.1c0.4-0.2,0.8-0.3,1.3-0.3c0.6,0,1.1,0.2,1.3,0.5
		c0.2,0.3,0.3,0.8,0.3,1.4v2.6c0,0.4,0.1,0.6,0.3,0.6c0.2,0,0.3-0.2,0.3-0.7c0-0.5,0.1-0.7,0.3-0.7c0.2,0,0.3,0.2,0.3,0.6
		c0,0.1,0,0.2,0,0.3c0,0.1,0,0.2,0,0.2C86.4,68.7,86.1,69,85.4,69L85.4,69z M92,67.6c0,0.3,0,0.5,0,0.5c0.1,0.2,0.2,0.2,0.4,0.2
		c0,0,0.1,0,0.1,0c0.1,0,0.1,0,0.1,0c0.3,0,0.4,0.1,0.4,0.4c0,0.2-0.1,0.4-0.4,0.4c-0.1,0-0.3,0-0.6-0.1c-0.3,0-0.4-0.1-0.6-0.1
		c-0.1,0-0.3,0-0.5,0.1c-0.2,0-0.4,0.1-0.5,0.1c-0.3,0-0.4-0.1-0.4-0.4c0-0.3,0.1-0.4,0.4-0.4c0,0,0.1,0,0.1,0c0.1,0,0.1,0,0.1,0
		c0.2,0,0.3-0.1,0.4-0.2c0-0.1,0-0.3,0-0.5v-1.1h-2.7v1.1c0,0.3,0,0.4,0,0.5c0.1,0.2,0.2,0.2,0.4,0.2c0,0,0.1,0,0.1,0
		c0.1,0,0.1,0,0.1,0c0.3,0,0.4,0.1,0.4,0.4c0,0.2-0.1,0.4-0.4,0.4c-0.1,0-0.3,0-0.5-0.1c-0.2,0-0.4-0.1-0.5-0.1
		c-0.1,0-0.3,0-0.6,0.1C87.4,69,87.2,69,87,69c-0.3,0-0.4-0.1-0.4-0.4c0-0.3,0.1-0.4,0.4-0.4c0,0,0.1,0,0.1,0c0.1,0,0.1,0,0.1,0
		c0.2,0,0.3-0.1,0.4-0.2c0-0.1,0-0.2,0-0.5v-2.7c0-0.3,0-0.4,0-0.5c-0.1-0.2-0.2-0.2-0.4-0.2c0,0-0.1,0-0.1,0c-0.1,0-0.1,0-0.1,0
		c-0.3,0-0.4-0.1-0.4-0.4c0-0.2,0.1-0.4,0.4-0.4c0.1,0,0.3,0,0.6,0c0.2,0,0.4,0,0.6,0c0.1,0,0.3,0,0.5,0c0.2,0,0.4,0,0.5,0
		c0.3,0,0.4,0.1,0.4,0.4c0,0.3-0.1,0.4-0.4,0.4c0,0-0.1,0-0.1,0c-0.1,0-0.1,0-0.1,0c-0.2,0-0.3,0.1-0.4,0.2c0,0.1,0,0.3,0,0.5v0.9
		h2.7v-0.9c0-0.3,0-0.4,0-0.5c-0.1-0.2-0.2-0.2-0.4-0.2c0,0-0.1,0-0.1,0c-0.1,0-0.1,0-0.1,0c-0.3,0-0.4-0.1-0.4-0.4
		c0-0.2,0.1-0.4,0.4-0.4c0.1,0,0.3,0,0.5,0c0.2,0,0.4,0,0.5,0c0.1,0,0.3,0,0.6,0c0.2,0,0.4,0,0.6,0c0.3,0,0.4,0.1,0.4,0.4
		c0,0.3-0.1,0.4-0.4,0.4c0,0-0.1,0-0.1,0c-0.1,0-0.1,0-0.1,0c-0.2,0-0.3,0.1-0.4,0.2c0,0.1,0,0.2,0,0.5L92,67.6z M94.5,66.2
		c0,1.5,0.5,2.2,1.6,2.2c0.6,0,1-0.2,1.2-0.7c0.2-0.4,0.3-0.9,0.3-1.5c0-0.6-0.1-1.1-0.3-1.5c-0.3-0.5-0.7-0.7-1.3-0.7
		c-0.6,0-1,0.2-1.3,0.7C94.6,65.1,94.5,65.6,94.5,66.2z M93.6,66.2c0-0.8,0.2-1.5,0.6-2c0.4-0.6,1-0.9,1.8-0.9
		c0.8,0,1.4,0.3,1.9,0.9c0.4,0.5,0.6,1.2,0.6,2c0,0.8-0.2,1.5-0.6,2c-0.4,0.6-1,0.8-1.9,0.8c-0.8,0-1.4-0.3-1.8-0.9
		C93.8,67.7,93.6,67,93.6,66.2z M100.3,68v-3.4c0-0.3-0.1-0.5-0.4-0.5c-0.1,0-0.1,0-0.2,0c-0.1,0-0.2,0-0.2,0
		c-0.2,0-0.3-0.1-0.3-0.3c0-0.2,0.1-0.3,0.4-0.3c0.1,0,0.3,0,0.5,0c0.2,0,0.4,0,0.5,0c0.2,0,0.5,0,0.8,0c0.4,0,0.7,0,0.8,0
		c1.3,0,1.9,0.5,1.9,1.5c0,0.6-0.3,1-0.8,1.2v0c0.4,0.1,0.7,0.3,0.8,0.5c0.2,0.2,0.2,0.5,0.2,0.9c0,0.6-0.2,1-0.7,1.2
		c-0.3,0.2-0.8,0.2-1.5,0.2c-0.2,0-0.4,0-0.8-0.1c-0.3,0-0.6-0.1-0.8-0.1c-0.1,0-0.3,0-0.6,0.1c-0.3,0-0.5,0.1-0.6,0.1
		c-0.3,0-0.4-0.1-0.4-0.3c0-0.2,0.1-0.3,0.3-0.3c0.1,0,0.1,0,0.2,0c0.1,0,0.2,0,0.2,0C100.1,68.4,100.3,68.3,100.3,68z M101,67v0.7
		c0,0.3,0.1,0.6,0.3,0.7c0.1,0.1,0.4,0.1,0.8,0.1c0.5,0,0.8,0,1-0.1c0.3-0.1,0.4-0.4,0.4-0.8c0-0.7-0.6-1.1-1.7-1.1
		c-0.3,0-0.5,0-0.6,0.1C101.1,66.6,101,66.8,101,67z M101,64.5v0.9c0,0.2,0.1,0.3,0.3,0.3c0.1,0,0.2,0,0.5,0c0.5,0,0.8,0,1-0.1
		c0.3-0.1,0.4-0.4,0.4-0.8c0-0.6-0.5-0.8-1.4-0.8c-0.3,0-0.5,0-0.6,0C101.1,64.1,101,64.2,101,64.5z M60.9,75.3L60.1,78
		c0,0.1-0.1,0.2-0.1,0.2c0,0,0,0.1,0,0.1c0.1,0,0.1,0,0.1,0h1.3c0,0,0.1,0,0.1,0c0,0,0-0.1,0-0.1c0-0.1,0-0.1,0-0.2L60.9,75.3z
		 M61.7,79h-1.9c-0.1,0-0.3,0.2-0.4,0.7c-0.1,0.4-0.2,0.8-0.2,1c0,0.2,0.1,0.3,0.3,0.3c0.1,0,0.1,0,0.2,0c0.1,0,0.2,0,0.2,0
		c0.3,0,0.4,0.1,0.4,0.4c0,0.3-0.1,0.4-0.4,0.4c-0.2,0-0.4,0-0.7-0.1c-0.3,0-0.6-0.1-0.7-0.1c-0.1,0-0.3,0-0.6,0.1
		c-0.3,0-0.5,0.1-0.6,0.1c-0.1,0-0.2,0-0.3-0.1c-0.1-0.1-0.1-0.2-0.1-0.3c0-0.1,0-0.2,0.1-0.3c0.1-0.1,0.2-0.1,0.3-0.1
		c0,0,0.1,0,0.1,0c0.1,0,0.1,0,0.1,0c0.2,0,0.4-0.1,0.5-0.2c0.1-0.1,0.1-0.3,0.2-0.5l1.8-5.6c0.1-0.5,0.4-0.7,0.7-0.7
		c0.3,0,0.6,0.3,0.7,0.8l1.7,5.5c0.1,0.2,0.1,0.4,0.2,0.5c0.1,0.1,0.3,0.2,0.5,0.2c0,0,0.1,0,0.1,0c0,0,0.1,0,0.1,0
		c0.3,0,0.5,0.1,0.5,0.4c0,0.1,0,0.2-0.1,0.3c-0.1,0.1-0.2,0.1-0.3,0.1c-0.1,0-0.3,0-0.6-0.1c-0.3,0-0.5-0.1-0.6-0.1
		c-0.1,0-0.4,0-0.7,0.1c-0.3,0-0.5,0.1-0.7,0.1c-0.3,0-0.4-0.1-0.4-0.4c0-0.3,0.1-0.4,0.4-0.4c0.1,0,0.1,0,0.2,0c0.1,0,0.2,0,0.2,0
		c0.2,0,0.2-0.1,0.2-0.4c0-0.2-0.1-0.5-0.2-0.9C62,79.3,61.9,79,61.7,79z M69.3,77.6c0-0.3,0-0.4,0-0.5c-0.1-0.2-0.2-0.2-0.4-0.2
		c-0.1,0-0.1,0-0.3,0c-0.1,0-0.2,0-0.3,0c-0.1,0-0.2,0-0.4,0c-0.2,0-0.3,0-0.3,0c-0.2,0-0.3,0.1-0.4,0.3c0,0.1,0,0.3,0,0.5v1.6
		c0,0.8-0.1,1.3-0.2,1.6c-0.2,0.6-0.6,0.9-1.2,0.9c-0.3,0-0.6-0.1-0.8-0.3c-0.3-0.2-0.4-0.5-0.4-0.8c0-0.2,0-0.3,0.1-0.5
		c0.1-0.1,0.2-0.2,0.4-0.2c0.3,0,0.5,0.2,0.5,0.5c0,0,0,0.1-0.1,0.2c0,0.1-0.1,0.2-0.1,0.2c0.1,0.1,0.2,0.2,0.4,0.2
		c0.3,0,0.4-0.2,0.5-0.6c0-0.2,0.1-0.5,0.1-0.9v-2.1c0-0.3,0-0.4-0.1-0.5c-0.1-0.2-0.2-0.2-0.4-0.2c0,0-0.1,0-0.1,0
		c-0.1,0-0.1,0-0.1,0c-0.3,0-0.4-0.1-0.4-0.4c0-0.2,0.2-0.3,0.6-0.3c0.3,0,0.7,0,1.2,0c0.5,0,1,0,1.2,0c0.3,0,0.6,0,1.2,0
		c0.5,0,0.9,0,1.2,0c0.4,0,0.5,0.1,0.5,0.3c0,0.3-0.1,0.4-0.4,0.4c0,0-0.1,0-0.1,0c-0.1,0-0.1,0-0.1,0c-0.2,0-0.3,0.1-0.4,0.2
		c0,0.1,0,0.2,0,0.5v2.7c0,0.3,0,0.5,0,0.5c0.1,0.2,0.2,0.2,0.4,0.2c0,0,0.1,0,0.1,0c0.1,0,0.1,0,0.1,0c0.3,0,0.4,0.1,0.4,0.4
		c0,0.2-0.1,0.4-0.4,0.4c-0.1,0-0.3,0-0.6,0s-0.4,0-0.6,0c-0.1,0-0.3,0-0.5,0c-0.2,0-0.4,0-0.5,0c-0.3,0-0.4-0.1-0.4-0.4
		c0-0.3,0.1-0.4,0.4-0.4c0,0,0.1,0,0.1,0c0.1,0,0.1,0,0.1,0c0.2,0,0.3-0.1,0.4-0.2c0-0.1,0-0.2,0-0.5L69.3,77.6z"/>
	<path id="path20" class="st3" d="M72.5,79.1L72.5,79.1c0,0.6,0.1,1,0.3,1.4c0.2,0.5,0.6,0.7,1.1,0.7c0.4,0,0.7-0.1,0.9-0.4
		c0.1-0.1,0.2-0.4,0.4-0.8c0.1-0.3,0.2-0.4,0.4-0.4c0.1,0,0.2,0,0.3,0.1C76,79.8,76,79.9,76,80c0,0.3-0.1,0.7-0.4,1.1
		c-0.4,0.6-0.9,0.9-1.7,0.9c-0.8,0-1.3-0.3-1.7-1c-0.3-0.5-0.5-1.2-0.5-2s0.2-1.5,0.5-2c0.4-0.6,1-1,1.7-1c0.7,0,1.2,0.3,1.6,0.8
		c0.3,0.5,0.5,1,0.5,1.8c0,0.2,0,0.3-0.1,0.4c-0.1,0.1-0.2,0.1-0.4,0.1L72.5,79.1z M72.6,78.3h2.6v-0.1c0-0.4-0.1-0.8-0.3-1
		c-0.2-0.3-0.6-0.5-1-0.5c-0.4,0-0.7,0.2-1,0.5C72.7,77.5,72.6,77.9,72.6,78.3z M77.7,80.4v-2.9c0-0.2,0-0.4,0-0.5
		c-0.1-0.1-0.2-0.2-0.4-0.2c0,0-0.1,0-0.1,0c-0.1,0-0.1,0-0.1,0c-0.3,0-0.4-0.1-0.4-0.4c0-0.2,0.1-0.4,0.4-0.4c0.1,0,0.3,0,0.5,0.1
		c0.2,0,0.4,0.1,0.5,0.1c0.1,0,0.3,0,0.4-0.1c0.2,0,0.3-0.1,0.4-0.1c0.3,0,0.4,0.1,0.4,0.4c0,0.3-0.1,0.4-0.3,0.4c0,0-0.1,0-0.2,0
		c-0.1,0-0.1,0-0.2,0c-0.1,0-0.2,0.2-0.2,0.6v0.7c0,0.3,0.3,0.4,0.8,0.4c0.5,0,0.7-0.1,0.9-0.4c0-0.1,0.1-0.4,0.1-0.8
		c0-0.4,0.1-0.7,0.3-0.9c0.2-0.2,0.4-0.3,0.8-0.3c0.8,0,1.1,0.4,1.1,1.1c0,0.4-0.2,0.7-0.5,0.7c-0.3,0-0.4-0.2-0.4-0.5
		c0,0,0-0.1,0.1-0.2c0-0.1,0.1-0.2,0.1-0.2c0-0.2-0.1-0.2-0.3-0.2c-0.2,0-0.3,0.1-0.3,0.4c0,0.3-0.1,0.5-0.1,0.8
		c-0.1,0.3-0.2,0.6-0.4,0.8v0.1c0.3,0.2,0.6,0.5,0.7,0.9c0,0.1,0,0.4,0.1,0.9c0,0.3,0.1,0.4,0.3,0.4c0.1,0,0.2-0.1,0.2-0.3
		c0,0,0-0.1,0-0.2c0-0.1,0-0.2,0-0.2c0-0.3,0.1-0.5,0.4-0.5c0.2,0,0.3,0.1,0.3,0.3c0,0,0,0.2,0,0.5c0,0.7-0.3,1.1-1,1.1
		c-0.5,0-0.8-0.2-0.9-0.7c0-0.4-0.1-0.8-0.1-1.2c-0.1-0.4-0.4-0.7-1-0.7c-0.3,0-0.6,0-0.6,0c-0.2,0.1-0.3,0.2-0.3,0.4v0.7
		c0,0.3,0,0.4,0,0.5c0.1,0.1,0.2,0.2,0.4,0.2c0,0,0.1,0,0.2,0c0.1,0,0.1,0,0.2,0c0.3,0,0.4,0.1,0.4,0.4c0,0.3-0.2,0.4-0.5,0.4
		c-0.1,0-0.3,0-0.5-0.1c-0.2,0-0.4-0.1-0.5-0.1c-0.1,0-0.3,0-0.5,0.1c-0.2,0-0.4,0.1-0.5,0.1c-0.3,0-0.5-0.1-0.5-0.4
		c0-0.2,0.1-0.4,0.3-0.4c0,0,0.1,0,0.2,0c0.1,0,0.1,0,0.2,0c0.2,0,0.3-0.1,0.4-0.2C77.7,80.8,77.7,80.7,77.7,80.4L77.7,80.4z
		 M83.3,79c0-0.8,0.2-1.5,0.5-2c0.4-0.6,1-0.9,1.8-0.9c0.5,0,0.9,0.1,1.3,0.4c0.4,0.3,0.6,0.7,0.6,1.2c0,0.3-0.1,0.5-0.2,0.7
		c-0.2,0.2-0.4,0.3-0.6,0.3c-0.3,0-0.5-0.2-0.5-0.5c0-0.1,0.1-0.3,0.2-0.4c0.1-0.1,0.2-0.3,0.2-0.3c0-0.2-0.1-0.4-0.3-0.5
		c-0.2-0.1-0.4-0.1-0.6-0.1c-0.6,0-1,0.3-1.2,0.8c-0.2,0.4-0.3,0.9-0.3,1.5c0,0.5,0.1,1,0.3,1.4c0.3,0.5,0.6,0.7,1.1,0.7
		c0.4,0,0.7-0.2,0.9-0.5c0.1-0.1,0.2-0.4,0.4-0.8c0.1-0.3,0.2-0.5,0.4-0.5c0.1,0,0.2,0,0.3,0.1c0.1,0.1,0.1,0.2,0.1,0.3
		c0,0.6-0.2,1.1-0.6,1.5c-0.4,0.4-0.9,0.6-1.5,0.6c-0.8,0-1.3-0.3-1.7-1C83.4,80.4,83.3,79.8,83.3,79z M89.1,79.1L89.1,79.1
		c0,0.6,0.1,1,0.3,1.4c0.2,0.5,0.6,0.7,1.1,0.7c0.4,0,0.7-0.1,0.9-0.4c0.1-0.1,0.2-0.4,0.4-0.8c0.1-0.3,0.2-0.4,0.4-0.4
		c0.1,0,0.2,0,0.3,0.1c0.1,0.1,0.1,0.2,0.1,0.3c0,0.3-0.1,0.7-0.4,1.1c-0.4,0.6-0.9,0.9-1.7,0.9c-0.8,0-1.3-0.3-1.7-1
		c-0.3-0.5-0.5-1.2-0.5-2s0.2-1.5,0.5-2c0.4-0.6,1-1,1.7-1c0.7,0,1.2,0.3,1.6,0.8c0.3,0.5,0.5,1,0.5,1.8c0,0.2,0,0.3-0.1,0.4
		c-0.1,0.1-0.2,0.1-0.4,0.1L89.1,79.1z M89.1,78.3h2.6v-0.1c0-0.4-0.1-0.8-0.3-1c-0.2-0.3-0.6-0.5-1-0.5c-0.4,0-0.7,0.2-1,0.5
		C89.3,77.5,89.2,77.9,89.1,78.3z M98.5,80.4c0,0.3,0,0.5,0,0.5c0.1,0.2,0.2,0.2,0.4,0.2c0,0,0.1,0,0.1,0c0.1,0,0.1,0,0.1,0
		c0.3,0,0.4,0.1,0.4,0.4c0,0.2-0.1,0.4-0.4,0.4c-0.1,0-0.3,0-0.6-0.1c-0.3,0-0.4-0.1-0.6-0.1c-0.1,0-0.3,0-0.5,0.1
		c-0.2,0-0.4,0.1-0.5,0.1c-0.3,0-0.4-0.1-0.4-0.4c0-0.3,0.1-0.4,0.4-0.4c0,0,0.1,0,0.1,0c0.1,0,0.1,0,0.1,0c0.2,0,0.3-0.1,0.4-0.2
		c0-0.1,0-0.3,0-0.5v-2l-2.4,1.9c-0.2,0.1-0.3,0.3-0.3,0.5c0,0.1,0,0.2,0.1,0.3c0.1,0,0.2,0.1,0.3,0.1c0,0,0.1,0,0.1,0
		c0.1,0,0.1,0,0.1,0c0.3,0,0.4,0.1,0.4,0.4c0,0.2-0.1,0.4-0.4,0.4c-0.1,0-0.3,0-0.5-0.1c-0.2,0-0.4-0.1-0.5-0.1
		c-0.1,0-0.3,0-0.6,0.1c-0.3,0-0.4,0.1-0.6,0.1c-0.3,0-0.4-0.1-0.4-0.4c0-0.3,0.1-0.4,0.4-0.4c0,0,0.1,0,0.1,0c0.1,0,0.1,0,0.1,0
		c0.2,0,0.3-0.1,0.4-0.2c0-0.1,0-0.2,0-0.5v-2.7c0-0.3,0-0.4,0-0.5c-0.1-0.2-0.2-0.2-0.4-0.2c0,0-0.1,0-0.1,0c-0.1,0-0.1,0-0.1,0
		c-0.3,0-0.4-0.1-0.4-0.4c0-0.2,0.1-0.4,0.4-0.4c0.1,0,0.3,0,0.6,0c0.2,0,0.4,0,0.6,0c0.1,0,0.3,0,0.5,0c0.2,0,0.4,0,0.5,0
		c0.3,0,0.4,0.1,0.4,0.4c0,0.3-0.1,0.4-0.4,0.4c0,0-0.1,0-0.1,0c-0.1,0-0.1,0-0.1,0c-0.2,0-0.3,0.1-0.4,0.2c0,0.1,0,0.3,0,0.5v2
		l2.7-2.2c0-0.2,0-0.3-0.1-0.4c-0.1-0.1-0.2-0.2-0.3-0.2c0,0-0.1,0-0.1,0c-0.1,0-0.1,0-0.1,0c-0.3,0-0.4-0.1-0.4-0.4
		c0-0.2,0.1-0.4,0.4-0.4c0.1,0,0.3,0,0.5,0s0.4,0,0.5,0c0.1,0,0.3,0,0.6,0c0.2,0,0.4,0,0.6,0c0.3,0,0.4,0.1,0.4,0.4
		c0,0.3-0.1,0.4-0.4,0.4c0,0-0.1,0-0.1,0c-0.1,0-0.1,0-0.1,0c-0.2,0-0.3,0.1-0.4,0.2c0,0.1,0,0.2,0,0.5V80.4z M96.3,75.6
		c-0.9,0-1.3-0.3-1.3-1c0-0.4,0.2-0.5,0.5-0.5c0.3,0,0.5,0.1,0.5,0.4c0,0,0,0.1,0,0.2c0,0.1,0,0.1,0,0.2c0,0.1,0.1,0.2,0.4,0.2
		c0.3,0,0.5-0.1,0.5-0.2c0,0,0-0.1,0-0.2c0-0.1,0-0.1,0-0.2c0-0.3,0.2-0.4,0.5-0.4c0.3,0,0.5,0.2,0.5,0.5
		C97.7,75.3,97.2,75.6,96.3,75.6z M61.1,90.7c0,1.1-0.2,2-0.7,2.7c-0.5,0.8-1.3,1.3-2.3,1.3c-1,0-1.8-0.4-2.3-1.3
		c-0.4-0.7-0.6-1.6-0.6-2.7c0-1.1,0.2-2,0.6-2.7c0.5-0.9,1.3-1.3,2.3-1.3c1,0,1.8,0.4,2.3,1.3C60.8,88.8,61.1,89.7,61.1,90.7z
		 M58.1,93.9c0.7,0,1.2-0.4,1.6-1.1c0.3-0.6,0.4-1.2,0.4-2c0-0.8-0.1-1.5-0.4-2.1c-0.3-0.8-0.9-1.1-1.6-1.1c-0.7,0-1.2,0.4-1.6,1.1
		c-0.3,0.6-0.4,1.2-0.4,2.1c0,0.8,0.1,1.5,0.4,2C56.8,93.5,57.4,93.9,58.1,93.9z M65.7,90.4c0-0.3,0-0.4,0-0.5
		c-0.1-0.2-0.2-0.2-0.4-0.2c-0.1,0-0.1,0-0.3,0c-0.1,0-0.2,0-0.3,0c-0.1,0-0.2,0-0.4,0c-0.2,0-0.3,0-0.3,0c-0.2,0-0.3,0.1-0.4,0.3
		c0,0.1,0,0.3,0,0.5v1.6c0,0.8-0.1,1.3-0.2,1.6c-0.2,0.6-0.6,0.9-1.2,0.9c-0.3,0-0.6-0.1-0.8-0.3c-0.3-0.2-0.4-0.5-0.4-0.8
		c0-0.2,0-0.3,0.1-0.5c0.1-0.1,0.2-0.2,0.4-0.2c0.3,0,0.5,0.2,0.5,0.5c0,0,0,0.1-0.1,0.2c0,0.1-0.1,0.2-0.1,0.2
		c0.1,0.1,0.2,0.2,0.4,0.2c0.3,0,0.4-0.2,0.5-0.6c0-0.2,0.1-0.5,0.1-0.9v-2.1c0-0.3,0-0.4-0.1-0.5c-0.1-0.2-0.2-0.2-0.4-0.2
		c0,0-0.1,0-0.1,0c-0.1,0-0.1,0-0.1,0c-0.3,0-0.4-0.1-0.4-0.4c0-0.2,0.2-0.3,0.6-0.3c0.3,0,0.7,0,1.2,0s1,0,1.2,0c0.3,0,0.6,0,1.2,0
		c0.5,0,0.9,0,1.2,0c0.4,0,0.5,0.1,0.5,0.3c0,0.3-0.1,0.4-0.4,0.4c0,0-0.1,0-0.1,0c-0.1,0-0.1,0-0.1,0c-0.2,0-0.3,0.1-0.4,0.2
		c0,0.1,0,0.2,0,0.5v2.7c0,0.3,0,0.5,0,0.5c0.1,0.2,0.2,0.2,0.4,0.2c0,0,0.1,0,0.1,0c0.1,0,0.1,0,0.1,0c0.3,0,0.4,0.1,0.4,0.4
		c0,0.2-0.1,0.4-0.4,0.4c-0.1,0-0.3,0-0.6,0c-0.3,0-0.4,0-0.6,0c-0.1,0-0.3,0-0.5,0c-0.2,0-0.4,0-0.5,0c-0.3,0-0.4-0.1-0.4-0.4
		c0-0.3,0.1-0.4,0.4-0.4c0,0,0.1,0,0.1,0c0.1,0,0.1,0,0.1,0c0.2,0,0.3-0.1,0.4-0.2c0-0.1,0-0.2,0-0.5L65.7,90.4z M69,91.9L69,91.9
		c0,0.6,0.1,1,0.3,1.4c0.2,0.5,0.6,0.7,1.1,0.7c0.4,0,0.7-0.1,0.9-0.4c0.1-0.1,0.2-0.4,0.4-0.8c0.1-0.3,0.2-0.4,0.4-0.4
		c0.1,0,0.2,0,0.3,0.1c0.1,0.1,0.1,0.2,0.1,0.3c0,0.3-0.1,0.7-0.4,1.1c-0.4,0.6-0.9,0.9-1.7,0.9c-0.8,0-1.3-0.3-1.7-1
		c-0.3-0.5-0.5-1.2-0.5-2s0.2-1.5,0.5-2c0.4-0.6,1-1,1.7-1c0.7,0,1.2,0.3,1.6,0.8c0.3,0.5,0.5,1,0.5,1.8c0,0.2,0,0.3-0.1,0.4
		c-0.1,0.1-0.2,0.1-0.4,0.1L69,91.9z M69,91.1h2.6v-0.1c0-0.4-0.1-0.8-0.3-1c-0.2-0.3-0.6-0.5-1-0.5c-0.4,0-0.7,0.2-1,0.5
		C69.2,90.3,69.1,90.7,69,91.1z M74.1,90.3c0-0.2,0-0.4,0-0.4c0-0.1-0.1-0.2-0.3-0.2c-0.1,0-0.1,0-0.3,0c-0.1,0-0.2,0-0.3,0
		c-0.2,0-0.3-0.1-0.3-0.4c0-0.3,0.2-0.4,0.5-0.4c0.1,0,0.3,0,0.6,0c0.2,0,0.4,0,0.6,0c0.2,0,0.6,0,1.1,0s0.8,0,1.1,0
		c0.3,0,0.5,0.2,0.5,0.5c0,0.1,0,0.2,0,0.3c0,0.1,0,0.2,0,0.3c0,0.1,0,0.3,0,0.5c0,0.2,0,0.3,0,0.5c0,0.3-0.1,0.4-0.3,0.4
		c-0.1,0-0.2,0-0.3-0.1c-0.1-0.1-0.1-0.2-0.1-0.3c0-0.1,0-0.2,0-0.3c0-0.1,0-0.2,0-0.3c0-0.3-0.1-0.5-0.3-0.6
		c-0.1-0.1-0.4-0.1-0.8-0.1c-0.3,0-0.4,0-0.5,0.1C75,89.9,75,90.1,75,90.4v2.8c0,0.3,0,0.5,0.1,0.5c0.1,0.1,0.2,0.1,0.5,0.1
		c0,0,0.1,0,0.2,0c0.1,0,0.1,0,0.2,0c0.3,0,0.4,0.1,0.4,0.4c0,0.3-0.2,0.4-0.5,0.4c-0.1,0-0.3,0-0.6-0.1c-0.3,0-0.5-0.1-0.6-0.1
		c-0.1,0-0.3,0-0.5,0.1c-0.2,0-0.4,0.1-0.5,0.1c-0.3,0-0.5-0.1-0.5-0.4c0-0.2,0.1-0.4,0.3-0.4c0,0,0.1,0,0.2,0c0.1,0,0.1,0,0.2,0
		c0.2,0,0.3-0.1,0.4-0.2c0-0.1,0-0.2,0-0.5L74.1,90.3z M78.7,91.8c0,1.5,0.5,2.2,1.6,2.2c0.6,0,1-0.2,1.2-0.7
		c0.2-0.4,0.3-0.9,0.3-1.5c0-0.6-0.1-1.1-0.3-1.5c-0.3-0.5-0.7-0.7-1.3-0.7c-0.6,0-1,0.2-1.3,0.7C78.8,90.6,78.7,91.1,78.7,91.8z
		 M77.8,91.8c0-0.8,0.2-1.5,0.6-2c0.4-0.6,1-0.9,1.8-0.9c0.8,0,1.4,0.3,1.9,0.9c0.4,0.5,0.6,1.2,0.6,2c0,0.8-0.2,1.5-0.6,2
		c-0.4,0.6-1,0.8-1.9,0.8c-0.8,0-1.4-0.3-1.8-0.9C78,93.3,77.8,92.6,77.8,91.8z M84.5,93.5v-3.4c0-0.3-0.1-0.5-0.4-0.5
		c-0.1,0-0.1,0-0.2,0c-0.1,0-0.2,0-0.2,0c-0.2,0-0.3-0.1-0.3-0.3c0-0.2,0.1-0.3,0.4-0.3c0.1,0,0.3,0,0.5,0c0.2,0,0.4,0,0.5,0
		c0.2,0,0.5,0,0.8,0c0.4,0,0.7,0,0.8,0c1.3,0,1.9,0.5,1.9,1.5c0,0.6-0.3,1-0.8,1.2v0c0.4,0.1,0.7,0.3,0.8,0.5
		c0.2,0.2,0.2,0.5,0.2,0.9c0,0.6-0.2,1-0.7,1.2c-0.3,0.2-0.8,0.2-1.5,0.2c-0.2,0-0.4,0-0.8-0.1c-0.3,0-0.6-0.1-0.8-0.1
		c-0.1,0-0.3,0-0.6,0.1c-0.3,0-0.5,0.1-0.6,0.1c-0.3,0-0.4-0.1-0.4-0.3c0-0.2,0.1-0.3,0.3-0.3c0.1,0,0.1,0,0.2,0c0.1,0,0.2,0,0.2,0
		C84.3,94,84.5,93.8,84.5,93.5z M85.2,92.6v0.7c0,0.3,0.1,0.6,0.3,0.7c0.1,0.1,0.4,0.1,0.8,0.1c0.5,0,0.8,0,1-0.1
		c0.3-0.1,0.4-0.4,0.4-0.8c0-0.7-0.6-1.1-1.7-1.1c-0.3,0-0.5,0-0.6,0.1C85.3,92.1,85.2,92.3,85.2,92.6z M85.2,90V91
		c0,0.2,0.1,0.3,0.3,0.3c0.1,0,0.2,0,0.5,0c0.5,0,0.8,0,1-0.1c0.3-0.1,0.4-0.4,0.4-0.8c0-0.6-0.5-0.8-1.4-0.8c-0.3,0-0.5,0-0.6,0
		C85.3,89.7,85.2,89.8,85.2,90z M94.4,93.2c0,0.3,0,0.5,0,0.5c0.1,0.2,0.2,0.2,0.4,0.2c0,0,0.1,0,0.1,0c0.1,0,0.1,0,0.1,0
		c0.3,0,0.4,0.1,0.4,0.4c0,0.2-0.1,0.4-0.4,0.4c-0.1,0-0.3,0-0.6-0.1c-0.3,0-0.4-0.1-0.6-0.1c-0.1,0-0.3,0-0.5,0.1
		c-0.2,0-0.4,0.1-0.5,0.1c-0.3,0-0.4-0.1-0.4-0.4c0-0.3,0.1-0.4,0.4-0.4c0,0,0.1,0,0.1,0c0.1,0,0.1,0,0.1,0c0.2,0,0.3-0.1,0.4-0.2
		c0-0.1,0-0.3,0-0.5v-2L91.2,93C91,93.2,91,93.3,91,93.6c0,0.1,0,0.2,0.1,0.3c0.1,0,0.2,0.1,0.3,0.1c0,0,0.1,0,0.1,0
		c0.1,0,0.1,0,0.1,0c0.3,0,0.4,0.1,0.4,0.4c0,0.2-0.1,0.4-0.4,0.4c-0.1,0-0.3,0-0.5-0.1c-0.2,0-0.4-0.1-0.5-0.1
		c-0.1,0-0.3,0-0.6,0.1c-0.3,0-0.4,0.1-0.6,0.1c-0.3,0-0.4-0.1-0.4-0.4c0-0.3,0.1-0.4,0.4-0.4c0,0,0.1,0,0.1,0c0.1,0,0.1,0,0.1,0
		c0.2,0,0.3-0.1,0.4-0.2c0-0.1,0-0.2,0-0.5v-2.7c0-0.3,0-0.4,0-0.5c-0.1-0.2-0.2-0.2-0.4-0.2c0,0-0.1,0-0.1,0c-0.1,0-0.1,0-0.1,0
		c-0.3,0-0.4-0.1-0.4-0.4c0-0.2,0.1-0.4,0.4-0.4c0.1,0,0.3,0,0.6,0c0.2,0,0.4,0,0.6,0c0.1,0,0.3,0,0.5,0c0.2,0,0.4,0,0.5,0
		c0.3,0,0.4,0.1,0.4,0.4c0,0.3-0.1,0.4-0.4,0.4c0,0-0.1,0-0.1,0c-0.1,0-0.1,0-0.1,0c-0.2,0-0.3,0.1-0.4,0.2c0,0.1,0,0.3,0,0.5v2
		l2.7-2.2c0-0.2,0-0.3-0.1-0.4c-0.1-0.1-0.2-0.2-0.3-0.2c0,0-0.1,0-0.1,0c-0.1,0-0.1,0-0.1,0c-0.3,0-0.4-0.1-0.4-0.4
		c0-0.2,0.1-0.4,0.4-0.4c0.1,0,0.3,0,0.5,0s0.4,0,0.5,0c0.1,0,0.3,0,0.6,0c0.2,0,0.4,0,0.6,0c0.3,0,0.4,0.1,0.4,0.4
		c0,0.3-0.1,0.4-0.4,0.4c0,0-0.1,0-0.1,0c-0.1,0-0.1,0-0.1,0c-0.2,0-0.3,0.1-0.4,0.2c0,0.1,0,0.2,0,0.5V93.2z"/>
	<path id="path22" class="st3" d="M100.8,93.2c0,0.3,0,0.4,0,0.5c0.1,0.1,0.2,0.2,0.4,0.2c0,0,0.1,0,0.2,0c0.1,0,0.1,0,0.2,0
		c0.1,0,0.2,0,0.2,0.1c0.1,0.1,0.1,0.2,0.1,0.3c0,0.3-0.2,0.4-0.5,0.4c-0.1,0-0.3,0-0.5-0.1c-0.2,0-0.4-0.1-0.5-0.1
		c-0.1,0-0.3,0-0.6,0.1c-0.3,0-0.5,0.1-0.6,0.1c-0.3,0-0.5-0.1-0.5-0.4c0-0.2,0.1-0.4,0.4-0.4c0,0,0.1,0,0.2,0c0.1,0,0.1,0,0.2,0
		c0.3,0,0.4,0,0.5-0.1c0.1-0.1,0.1-0.3,0.1-0.5V92c-0.3,0.5-0.8,0.7-1.4,0.7c-0.7,0-1.2-0.2-1.5-0.7c-0.2-0.3-0.3-0.7-0.3-1.3
		c0-0.6-0.1-0.9-0.1-0.9c0-0.1-0.1-0.1-0.3-0.1c0,0-0.1,0-0.1,0c-0.1,0-0.1,0-0.1,0c-0.2,0-0.3-0.1-0.3-0.4c0-0.2,0.1-0.4,0.3-0.4
		c0.1,0,0.3,0,0.5,0c0.2,0,0.4,0,0.5,0c0.1,0,0.3,0,0.5,0c0.2,0,0.4,0,0.5,0c0.3,0,0.4,0.1,0.4,0.4c0,0.3-0.1,0.4-0.4,0.4
		c0,0-0.1,0-0.1,0c-0.1,0-0.1,0-0.1,0c-0.3,0-0.4,0.2-0.4,0.5c0,0,0,0.1,0,0.2c0,0.1,0,0.2,0,0.2c0,1,0.4,1.5,1.1,1.5
		c0.5,0,0.8-0.2,1.1-0.6c0.2-0.3,0.3-0.7,0.3-1.2c0-0.2,0-0.4-0.1-0.4c-0.1-0.1-0.2-0.1-0.4-0.1c0,0-0.1,0-0.1,0c-0.1,0-0.1,0-0.1,0
		c-0.3,0-0.4-0.1-0.4-0.4c0-0.2,0.1-0.4,0.4-0.4c0.1,0,0.3,0,0.6,0c0.2,0,0.4,0,0.6,0c0.1,0,0.3,0,0.5,0c0.2,0,0.4,0,0.5,0
		c0.3,0,0.4,0.1,0.4,0.4c0,0.3-0.1,0.4-0.4,0.4c0,0-0.1,0-0.1,0c-0.1,0-0.1,0-0.1,0c-0.2,0-0.3,0-0.3,0.1c0,0.1-0.1,0.2-0.1,0.4
		L100.8,93.2z"/>
</g>
<path id="path25" class="st3" d="M42.7,64c-0.8-0.4-1.2-0.8-1.5-1.4c-0.2-0.6-0.2-1.2,0.1-1.9c0.2-0.4,0.5-0.7,0.8-1
	c0.4-0.2,0.8-0.4,1.2-0.4c0.4,0,0.9,0.1,1.3,0.3c0.5,0.2,0.8,0.5,1.1,0.9c0.3,0.4,0.4,0.7,0.5,1.2c0,0.4-0.1,0.8-0.2,1.2
	c-0.2,0.4-0.5,0.8-0.8,1c-0.4,0.2-0.8,0.4-1.2,0.4C43.5,64.2,43.1,64.1,42.7,64z M43,63.3c0.5,0.3,1,0.3,1.5,0.2
	c0.5-0.1,0.8-0.4,1-0.9c0.2-0.5,0.2-0.9,0-1.3c-0.2-0.4-0.6-0.8-1.1-1.1c-0.4-0.2-0.7-0.3-1.1-0.3c-0.3,0-0.6,0.1-0.9,0.2
	c-0.3,0.2-0.5,0.4-0.6,0.7c-0.2,0.4-0.2,0.9-0.1,1.3C41.9,62.6,42.3,63,43,63.3z M43.2,57.3l1.7-2.8l0.5,0.3L44,57.1l3.8,2.3
	l-0.3,0.6L43.2,57.3z M49.5,56.8l-3.8-3.3l1.2-1.4c0.2-0.3,0.4-0.4,0.5-0.5c0.2-0.2,0.4-0.3,0.6-0.3c0.2-0.1,0.4,0,0.6,0
	c0.2,0.1,0.4,0.2,0.6,0.3c0.3,0.3,0.5,0.6,0.6,1c0,0.4-0.2,0.9-0.6,1.4l-0.8,1l1.6,1.3L49.5,56.8z M47.9,54.6l0.8-1
	c0.3-0.3,0.4-0.6,0.4-0.8c0-0.2-0.1-0.5-0.3-0.6c-0.2-0.1-0.3-0.2-0.5-0.2c-0.2,0-0.3,0-0.5,0.1c-0.1,0.1-0.2,0.2-0.4,0.4l-0.8,1
	L47.9,54.6z M52.6,53.2l-3.4-3.7l0.5-0.5l1.4,1.5l1.9-1.8l-1.4-1.5l0.5-0.5l3.4,3.7L55,51l-1.6-1.7L51.5,51l1.6,1.7L52.6,53.2z
	 M53.5,45.7l0.5-0.3l2.2,3.3l0-4.8l0.5-0.4l2.8,4.1L59.1,48l-2.2-3.3l0,4.8l-0.5,0.4L53.5,45.7z M58.1,42.8l3.4-1.9l2.5,4.4
	l-0.6,0.3l-2.2-3.9L59,43l2.2,3.9l-0.6,0.3L58.1,42.8z M66,42c-0.2-0.6-0.2-1-0.2-1.4c0-0.4,0.1-0.7,0.3-1c0.2-0.3,0.4-0.4,0.8-0.5
	c0.3-0.1,0.5-0.1,0.7,0c0.2,0,0.4,0.1,0.6,0.3c0.2,0.2,0.4,0.4,0.5,0.6c0.2,0.3,0.3,0.6,0.4,1.1c0.2,0.6,0.2,1,0.2,1.4
	c0,0.4-0.1,0.7-0.3,1c-0.2,0.3-0.4,0.4-0.8,0.5c-0.5,0.1-0.9,0.1-1.2-0.2C66.6,43.5,66.2,42.9,66,42L66,42z M66.6,41.8
	c0.2,0.8,0.5,1.3,0.7,1.5c0.3,0.2,0.5,0.3,0.8,0.2c0.3-0.1,0.5-0.3,0.6-0.6c0.1-0.3,0-0.9-0.2-1.7c-0.2-0.8-0.5-1.3-0.7-1.5
	c-0.3-0.2-0.5-0.3-0.8-0.2c-0.3,0.1-0.5,0.3-0.5,0.5C66.3,40.4,66.3,41,66.6,41.8z M70,40.8c-0.1-0.6-0.1-1.1,0-1.4
	c0.1-0.4,0.2-0.7,0.4-0.9c0.2-0.2,0.5-0.4,0.9-0.4c0.3,0,0.5,0,0.7,0.1c0.2,0.1,0.4,0.2,0.6,0.4c0.2,0.2,0.3,0.4,0.4,0.7
	c0.1,0.3,0.2,0.7,0.3,1.2c0.1,0.6,0.1,1.1,0,1.4c-0.1,0.4-0.2,0.7-0.4,0.9c-0.2,0.2-0.5,0.4-0.9,0.4c-0.5,0.1-0.9,0-1.2-0.3
	C70.4,42.4,70.2,41.8,70,40.8z M70.7,40.8c0.1,0.8,0.3,1.3,0.5,1.6c0.2,0.2,0.5,0.3,0.8,0.3c0.3,0,0.5-0.2,0.6-0.5
	c0.1-0.3,0.2-0.9,0-1.7c-0.1-0.8-0.3-1.3-0.5-1.6c-0.2-0.2-0.5-0.3-0.8-0.3c-0.3,0-0.5,0.2-0.6,0.5C70.6,39.4,70.5,39.9,70.7,40.8z
	 M74.1,40.2c0-0.6,0-1.1,0.1-1.4c0.1-0.4,0.3-0.7,0.5-0.9c0.2-0.2,0.5-0.3,0.9-0.4c0.3,0,0.5,0,0.7,0.1c0.2,0.1,0.4,0.2,0.5,0.4
	c0.1,0.2,0.3,0.4,0.4,0.7c0.1,0.3,0.2,0.7,0.2,1.2c0,0.6,0,1.1-0.1,1.4c-0.1,0.4-0.3,0.7-0.5,0.9c-0.2,0.2-0.5,0.3-0.9,0.4
	c-0.5,0-0.9-0.1-1.2-0.4C74.4,41.8,74.1,41.2,74.1,40.2z M74.7,40.2c0.1,0.8,0.2,1.4,0.4,1.6c0.2,0.3,0.5,0.4,0.7,0.4
	s0.5-0.2,0.7-0.5c0.2-0.3,0.2-0.8,0.2-1.7c-0.1-0.8-0.2-1.4-0.4-1.6c-0.2-0.3-0.5-0.4-0.7-0.4c-0.3,0-0.5,0.2-0.6,0.4
	C74.7,38.8,74.6,39.4,74.7,40.2z M78.3,40c0-0.6,0.1-1.1,0.3-1.4c0.1-0.4,0.4-0.6,0.6-0.8c0.3-0.2,0.6-0.2,0.9-0.2
	c0.3,0,0.5,0.1,0.7,0.2c0.2,0.1,0.3,0.3,0.5,0.5c0.1,0.2,0.2,0.5,0.3,0.8c0.1,0.3,0.1,0.7,0,1.2c0,0.6-0.1,1.1-0.3,1.4
	c-0.1,0.4-0.3,0.6-0.6,0.8c-0.3,0.2-0.6,0.3-0.9,0.2c-0.5,0-0.8-0.2-1.1-0.6C78.4,41.6,78.3,40.9,78.3,40z M79,40
	c-0.1,0.8,0,1.4,0.2,1.7c0.2,0.3,0.4,0.4,0.7,0.5c0.3,0,0.5-0.1,0.7-0.4c0.2-0.3,0.3-0.8,0.4-1.6c0.1-0.8,0-1.4-0.2-1.7
	c-0.2-0.3-0.4-0.4-0.7-0.5c-0.3,0-0.5,0.1-0.7,0.3C79.2,38.6,79,39.2,79,40z M82.4,40.3c0.1-0.6,0.2-1,0.4-1.4
	c0.2-0.3,0.4-0.6,0.7-0.7c0.3-0.2,0.6-0.2,0.9-0.2c0.3,0,0.5,0.1,0.7,0.3c0.2,0.1,0.3,0.3,0.4,0.5c0.1,0.2,0.2,0.5,0.2,0.8
	c0,0.3,0,0.7-0.1,1.2c-0.1,0.6-0.2,1-0.4,1.4c-0.2,0.3-0.4,0.6-0.7,0.7c-0.3,0.2-0.6,0.2-0.9,0.2c-0.5-0.1-0.8-0.3-1-0.7
	C82.3,41.9,82.3,41.2,82.4,40.3L82.4,40.3z M83,40.4c-0.1,0.8-0.1,1.4,0,1.7c0.1,0.3,0.4,0.5,0.6,0.5c0.3,0,0.5-0.1,0.8-0.3
	c0.2-0.2,0.4-0.8,0.5-1.6c0.1-0.8,0.1-1.4,0-1.7c-0.1-0.3-0.4-0.5-0.6-0.5c-0.3,0-0.5,0-0.7,0.3C83.3,39.1,83.2,39.6,83,40.4z
	 M86.7,41c0.2-0.6,0.4-1,0.6-1.3c0.2-0.3,0.5-0.5,0.8-0.6c0.3-0.1,0.6-0.1,1,0c0.3,0.1,0.5,0.2,0.6,0.4c0.2,0.2,0.3,0.4,0.3,0.6
	c0.1,0.2,0.1,0.5,0,0.8c0,0.3-0.1,0.7-0.3,1.2c-0.2,0.6-0.4,1-0.6,1.3c-0.2,0.3-0.5,0.5-0.8,0.6c-0.3,0.1-0.6,0.1-1,0
	c-0.5-0.2-0.8-0.4-0.9-0.9C86.3,42.5,86.4,41.8,86.7,41z M87.3,41.2c-0.3,0.8-0.4,1.3-0.3,1.6c0.1,0.3,0.3,0.5,0.5,0.6
	c0.3,0.1,0.5,0,0.8-0.2c0.3-0.2,0.5-0.7,0.8-1.5c0.3-0.8,0.4-1.3,0.3-1.6c-0.1-0.3-0.3-0.5-0.5-0.6c-0.3-0.1-0.5-0.1-0.8,0.1
	C87.9,39.9,87.6,40.4,87.3,41.2z M90.5,42.2c0.2-0.6,0.4-1,0.7-1.3c0.2-0.3,0.5-0.5,0.8-0.6c0.3-0.1,0.6-0.1,1,0
	c0.3,0.1,0.5,0.2,0.6,0.4c0.2,0.2,0.3,0.4,0.3,0.6c0.1,0.2,0.1,0.5,0,0.8c0,0.3-0.1,0.7-0.3,1.2c-0.2,0.6-0.4,1-0.7,1.3
	c-0.2,0.3-0.5,0.5-0.8,0.6c-0.3,0.1-0.6,0.1-1,0c-0.5-0.2-0.7-0.5-0.9-0.9C90.1,43.8,90.1,43.1,90.5,42.2z M91,42.4
	c-0.3,0.8-0.4,1.3-0.3,1.6c0.1,0.3,0.3,0.5,0.5,0.6c0.3,0.1,0.5,0.1,0.8-0.1c0.3-0.2,0.6-0.7,0.8-1.4c0.3-0.8,0.4-1.3,0.3-1.6
	c-0.1-0.3-0.3-0.5-0.5-0.6c-0.3-0.1-0.5-0.1-0.8,0.1C91.6,41.1,91.3,41.6,91,42.4z M94.4,43.8c0.3-0.5,0.6-0.9,0.8-1.2
	c0.3-0.3,0.6-0.4,0.9-0.5c0.3-0.1,0.6,0,0.9,0.2c0.2,0.1,0.4,0.3,0.5,0.5c0.1,0.2,0.2,0.4,0.2,0.7c0,0.2,0,0.5-0.1,0.8
	c-0.1,0.3-0.2,0.7-0.5,1.1c-0.3,0.5-0.6,0.9-0.8,1.2c-0.3,0.3-0.6,0.4-0.9,0.5c-0.3,0.1-0.6,0-0.9-0.2c-0.4-0.2-0.7-0.6-0.8-1
	C93.8,45.3,93.9,44.6,94.4,43.8z M94.9,44.1c-0.4,0.7-0.6,1.3-0.5,1.6c0,0.3,0.2,0.6,0.4,0.7s0.5,0.1,0.8,0c0.3-0.1,0.6-0.6,1-1.3
	c0.4-0.7,0.6-1.3,0.5-1.6c0-0.3-0.2-0.6-0.4-0.7c-0.2-0.1-0.5-0.1-0.8,0C95.7,42.9,95.3,43.4,94.9,44.1z M98.1,45.8
	c0.3-0.5,0.7-0.8,1-1.1c0.3-0.2,0.6-0.4,0.9-0.4c0.3,0,0.6,0.1,0.9,0.3c0.2,0.2,0.4,0.3,0.5,0.5c0.1,0.2,0.2,0.4,0.1,0.7
	c0,0.2-0.1,0.5-0.2,0.8c-0.1,0.3-0.3,0.6-0.6,1c-0.3,0.5-0.7,0.8-1,1.1c-0.3,0.2-0.6,0.4-0.9,0.4c-0.3,0-0.6-0.1-0.9-0.3
	c-0.4-0.3-0.6-0.6-0.6-1.1C97.3,47.2,97.5,46.5,98.1,45.8z M98.6,46.1c-0.5,0.7-0.7,1.2-0.7,1.5c0,0.3,0.1,0.6,0.3,0.7
	c0.2,0.2,0.5,0.2,0.8,0.1c0.3-0.1,0.7-0.5,1.2-1.2c0.5-0.7,0.7-1.2,0.7-1.5c0-0.3-0.1-0.6-0.4-0.7c-0.2-0.2-0.5-0.2-0.8-0.1
	C99.5,45.1,99.1,45.5,98.6,46.1z M101.4,48.2c0.4-0.4,0.7-0.8,1.1-1c0.3-0.2,0.6-0.3,1-0.3c0.3,0,0.6,0.1,0.9,0.4
	c0.2,0.2,0.3,0.4,0.4,0.6c0.1,0.2,0.1,0.4,0.1,0.7c0,0.2-0.1,0.5-0.2,0.8c-0.1,0.3-0.4,0.6-0.7,1c-0.4,0.4-0.7,0.8-1.1,1
	c-0.3,0.2-0.6,0.3-1,0.3c-0.3,0-0.6-0.1-0.9-0.4c-0.4-0.3-0.5-0.7-0.5-1.1C100.5,49.5,100.8,48.9,101.4,48.2z M101.9,48.6
	c-0.5,0.6-0.8,1.1-0.9,1.4c0,0.3,0.1,0.6,0.3,0.8c0.2,0.2,0.5,0.2,0.8,0.2c0.3-0.1,0.8-0.4,1.3-1.1c0.5-0.6,0.8-1.1,0.9-1.4
	c0-0.3-0.1-0.6-0.3-0.8c-0.2-0.2-0.5-0.2-0.7-0.2C102.9,47.6,102.4,48,101.9,48.6z M104.5,50.9c0.4-0.4,0.8-0.7,1.1-0.9
	c0.3-0.2,0.7-0.2,1-0.2c0.3,0,0.6,0.2,0.8,0.4c0.2,0.2,0.3,0.4,0.4,0.6c0.1,0.2,0.1,0.5,0,0.7c-0.1,0.2-0.2,0.5-0.3,0.7
	c-0.2,0.3-0.4,0.6-0.8,0.9c-0.4,0.4-0.8,0.7-1.1,0.9c-0.3,0.2-0.7,0.2-1,0.2c-0.3,0-0.6-0.2-0.8-0.4c-0.3-0.3-0.5-0.7-0.4-1.2
	C103.5,52.2,103.8,51.6,104.5,50.9z M104.9,51.4c-0.6,0.6-0.9,1-1,1.4c-0.1,0.3,0,0.6,0.2,0.8c0.2,0.2,0.5,0.3,0.8,0.2
	c0.3-0.1,0.8-0.4,1.4-0.9c0.6-0.6,0.9-1,1-1.4c0.1-0.3,0-0.6-0.2-0.8c-0.2-0.2-0.4-0.3-0.7-0.2C106,50.5,105.5,50.8,104.9,51.4z
	 M107.5,54.1c0.5-0.3,0.9-0.6,1.3-0.7c0.4-0.1,0.7-0.1,1,0c0.3,0.1,0.5,0.3,0.8,0.6c0.2,0.2,0.2,0.4,0.3,0.7c0,0.2,0,0.5-0.1,0.7
	c-0.1,0.2-0.2,0.4-0.4,0.7c-0.2,0.2-0.5,0.5-0.9,0.8c-0.5,0.3-0.9,0.6-1.3,0.7c-0.4,0.1-0.7,0.1-1,0c-0.3-0.1-0.5-0.3-0.8-0.6
	c-0.3-0.4-0.3-0.8-0.2-1.2C106.2,55.1,106.7,54.6,107.5,54.1z M107.8,54.6c-0.7,0.5-1.1,0.9-1.2,1.2c-0.1,0.3-0.1,0.6,0.1,0.8
	c0.2,0.2,0.4,0.4,0.7,0.4c0.3,0,0.8-0.2,1.5-0.7c0.7-0.5,1.1-0.9,1.2-1.2c0.1-0.3,0.1-0.6-0.1-0.8c-0.2-0.2-0.4-0.4-0.7-0.4
	C109,53.9,108.5,54.1,107.8,54.6z M109.9,57.4c0.5-0.3,1-0.5,1.3-0.5c0.4-0.1,0.7,0,1,0.1c0.3,0.1,0.5,0.3,0.7,0.7
	c0.1,0.2,0.2,0.5,0.2,0.7c0,0.2-0.1,0.5-0.2,0.7c-0.1,0.2-0.3,0.4-0.5,0.6c-0.2,0.2-0.6,0.4-1,0.7c-0.5,0.3-1,0.5-1.3,0.5
	c-0.4,0.1-0.7,0-1-0.1c-0.3-0.1-0.5-0.3-0.7-0.7c-0.2-0.4-0.3-0.8-0.1-1.2C108.5,58.4,109.1,57.9,109.9,57.4z M110.2,58
	c-0.7,0.4-1.2,0.7-1.3,1c-0.1,0.3-0.2,0.6,0,0.8c0.1,0.2,0.4,0.4,0.7,0.4c0.3,0,0.9-0.1,1.6-0.5c0.7-0.4,1.2-0.7,1.3-1
	c0.1-0.3,0.1-0.6,0-0.8c-0.1-0.2-0.3-0.4-0.6-0.4C111.5,57.4,110.9,57.6,110.2,58z M111.9,61c0.5-0.2,1-0.4,1.4-0.4
	c0.4,0,0.7,0,1,0.2c0.3,0.1,0.5,0.4,0.6,0.7c0.1,0.2,0.2,0.5,0.1,0.7c0,0.2-0.1,0.4-0.2,0.7c-0.1,0.2-0.3,0.4-0.6,0.6
	c-0.2,0.2-0.6,0.4-1,0.6c-0.5,0.2-1,0.4-1.4,0.4c-0.4,0-0.7,0-1-0.1c-0.3-0.1-0.5-0.4-0.6-0.7c-0.2-0.4-0.2-0.9,0-1.2
	C110.5,61.8,111,61.4,111.9,61L111.9,61z M112.2,61.6c-0.8,0.3-1.2,0.7-1.4,0.9c-0.2,0.3-0.2,0.6-0.1,0.8c0.1,0.3,0.3,0.4,0.7,0.5
	c0.3,0.1,0.9-0.1,1.6-0.4c0.8-0.3,1.2-0.7,1.4-0.9c0.2-0.3,0.2-0.6,0.1-0.8c-0.1-0.3-0.3-0.4-0.6-0.5
	C113.5,61.1,112.9,61.2,112.2,61.6L112.2,61.6z"/>
<path id="path27" class="st3" d="M53.7,104.5l0.5,0.4l-2.6,3l4.6-1.2l0.5,0.4l-3.3,3.8l-0.5-0.4l2.6-3l-4.6,1.2l-0.5-0.4L53.7,104.5
	z M54.6,111.6l2.7-4.2l0.6,0.4l-1.1,1.7l2.2,1.4l1.1-1.7l0.6,0.4l-2.7,4.2l-0.6-0.4l1.3-2l-2.2-1.4l-1.3,2L54.6,111.6z M59.1,114.4
	l2-4.6l0.6,0.3l-0.8,1.9l2.4,1.1l0.8-1.9l0.6,0.3l-2,4.6l-0.6-0.3l1-2.2l-2.4-1.1l-1,2.2L59.1,114.4z M66.5,114.8
	c0.2-0.6,0.3-1,0.5-1.3c0.2-0.3,0.5-0.5,0.7-0.7c0.3-0.1,0.6-0.1,0.9-0.1c0.3,0.1,0.5,0.2,0.6,0.3c0.2,0.2,0.3,0.4,0.4,0.6
	c0.1,0.2,0.1,0.5,0.1,0.8c0,0.3-0.1,0.7-0.2,1.2c-0.1,0.6-0.3,1-0.5,1.3c-0.2,0.3-0.5,0.5-0.7,0.7c-0.3,0.1-0.6,0.1-1,0.1
	c-0.5-0.1-0.8-0.4-1-0.8C66.3,116.4,66.3,115.7,66.5,114.8z M67.1,115c-0.2,0.8-0.3,1.4-0.1,1.7c0.1,0.3,0.3,0.5,0.6,0.6
	c0.3,0.1,0.5,0,0.8-0.2c0.3-0.2,0.5-0.7,0.7-1.5c0.2-0.8,0.3-1.4,0.1-1.7c-0.1-0.3-0.3-0.5-0.6-0.6c-0.3-0.1-0.5,0-0.7,0.2
	C67.6,113.7,67.3,114.2,67.1,115z M70.4,115.8c0.1-0.6,0.3-1,0.4-1.4c0.2-0.3,0.4-0.6,0.7-0.7c0.3-0.1,0.6-0.2,0.9-0.1
	c0.3,0,0.5,0.1,0.7,0.3c0.2,0.1,0.3,0.3,0.4,0.6c0.1,0.2,0.1,0.5,0.2,0.8c0,0.3,0,0.7-0.1,1.2c-0.1,0.6-0.3,1-0.4,1.4
	c-0.2,0.3-0.4,0.6-0.7,0.7c-0.3,0.1-0.6,0.2-0.9,0.1c-0.5-0.1-0.8-0.3-1-0.7C70.3,117.4,70.2,116.7,70.4,115.8z M71,115.9
	c-0.2,0.8-0.2,1.4,0,1.7c0.1,0.3,0.3,0.5,0.6,0.5c0.3,0.1,0.5,0,0.8-0.3c0.2-0.2,0.4-0.8,0.6-1.6c0.2-0.8,0.2-1.4,0-1.7
	c-0.1-0.3-0.3-0.5-0.6-0.5c-0.3-0.1-0.5,0-0.7,0.2C71.4,114.6,71.2,115.1,71,115.9z M74.3,116.4c0-0.6,0.1-1.1,0.3-1.4
	c0.1-0.4,0.4-0.6,0.6-0.8c0.3-0.2,0.6-0.2,0.9-0.2c0.3,0,0.5,0.1,0.7,0.2c0.2,0.1,0.4,0.3,0.5,0.5c0.1,0.2,0.2,0.5,0.3,0.8
	c0.1,0.3,0.1,0.7,0,1.2c0,0.6-0.1,1.1-0.3,1.4c-0.1,0.4-0.3,0.6-0.6,0.8c-0.3,0.2-0.6,0.3-0.9,0.2c-0.5,0-0.8-0.2-1.1-0.6
	C74.3,118,74.2,117.3,74.3,116.4L74.3,116.4z M74.9,116.4c-0.1,0.8,0,1.4,0.2,1.7c0.2,0.3,0.4,0.4,0.7,0.5c0.3,0,0.5-0.1,0.7-0.4
	c0.2-0.3,0.3-0.8,0.4-1.6c0.1-0.8,0-1.4-0.2-1.7c-0.2-0.3-0.4-0.4-0.7-0.5c-0.3,0-0.5,0.1-0.7,0.3C75.1,115.1,75,115.6,74.9,116.4z
	 M78.2,116.6c0-0.6,0-1.1,0.1-1.4c0.1-0.4,0.3-0.7,0.5-0.9c0.2-0.2,0.5-0.3,0.9-0.3c0.3,0,0.5,0,0.7,0.1c0.2,0.1,0.4,0.3,0.5,0.5
	c0.1,0.2,0.2,0.4,0.3,0.7c0.1,0.3,0.1,0.7,0.2,1.2c0,0.6,0,1.1-0.1,1.4c-0.1,0.4-0.3,0.7-0.5,0.9c-0.2,0.2-0.5,0.3-0.9,0.3
	c-0.5,0-0.9-0.1-1.2-0.5C78.4,118.2,78.2,117.5,78.2,116.6z M78.8,116.6c0,0.8,0.1,1.4,0.3,1.6c0.2,0.3,0.4,0.4,0.7,0.4
	c0.3,0,0.5-0.2,0.7-0.4c0.2-0.3,0.3-0.8,0.2-1.7c0-0.8-0.1-1.4-0.3-1.6c-0.2-0.3-0.4-0.4-0.7-0.4c-0.3,0-0.5,0.1-0.7,0.4
	C78.8,115.2,78.8,115.8,78.8,116.6z M82.1,116.4c-0.1-0.6-0.1-1.1,0-1.4c0.1-0.4,0.2-0.7,0.4-0.9c0.2-0.2,0.5-0.4,0.9-0.4
	c0.3,0,0.5,0,0.7,0.1c0.2,0.1,0.4,0.2,0.6,0.4c0.2,0.2,0.3,0.4,0.4,0.7c0.1,0.3,0.2,0.7,0.3,1.2c0.1,0.6,0.1,1.1,0,1.4
	c-0.1,0.4-0.2,0.7-0.4,0.9c-0.2,0.2-0.5,0.4-0.9,0.4c-0.5,0.1-0.9-0.1-1.2-0.4C82.5,118,82.2,117.3,82.1,116.4z M82.8,116.3
	c0.1,0.8,0.3,1.4,0.5,1.6c0.2,0.2,0.5,0.4,0.8,0.3c0.3,0,0.5-0.2,0.7-0.5c0.2-0.3,0.2-0.8,0.1-1.7c-0.1-0.8-0.3-1.4-0.5-1.6
	c-0.2-0.2-0.5-0.4-0.8-0.3c-0.3,0-0.5,0.2-0.6,0.4C82.7,114.9,82.7,115.5,82.8,116.3z M86,115.8c-0.1-0.6-0.2-1.1-0.1-1.4
	c0-0.4,0.2-0.7,0.3-0.9c0.2-0.2,0.5-0.4,0.8-0.5c0.3-0.1,0.5-0.1,0.7,0c0.2,0.1,0.4,0.2,0.6,0.3c0.2,0.2,0.3,0.4,0.5,0.7
	c0.1,0.3,0.3,0.6,0.4,1.1c0.1,0.6,0.2,1.1,0.1,1.4c0,0.4-0.1,0.7-0.3,0.9c-0.2,0.2-0.5,0.4-0.8,0.5c-0.5,0.1-0.9,0-1.2-0.2
	C86.5,117.3,86.2,116.7,86,115.8L86,115.8z M86.6,115.6c0.2,0.8,0.4,1.3,0.7,1.5c0.2,0.2,0.5,0.3,0.8,0.2s0.5-0.2,0.6-0.6
	c0.1-0.3,0.1-0.9-0.1-1.7c-0.2-0.8-0.4-1.3-0.7-1.5c-0.2-0.2-0.5-0.3-0.8-0.2c-0.3,0.1-0.5,0.2-0.6,0.5
	C86.4,114.3,86.4,114.8,86.6,115.6z M89.8,114.8c-0.2-0.6-0.3-1-0.3-1.4c0-0.4,0.1-0.7,0.2-1c0.2-0.3,0.4-0.5,0.8-0.6
	c0.3-0.1,0.5-0.1,0.7-0.1c0.2,0,0.4,0.1,0.6,0.3c0.2,0.1,0.4,0.4,0.5,0.6c0.2,0.3,0.3,0.6,0.5,1.1c0.2,0.6,0.3,1,0.3,1.4
	c0,0.4-0.1,0.7-0.2,1c-0.2,0.3-0.4,0.5-0.8,0.6c-0.5,0.2-0.9,0.1-1.2-0.1C90.5,116.3,90.1,115.7,89.8,114.8z M90.4,114.6
	c0.3,0.8,0.5,1.3,0.8,1.5c0.3,0.2,0.5,0.2,0.8,0.2c0.3-0.1,0.4-0.3,0.5-0.6c0.1-0.3,0-0.9-0.3-1.6c-0.3-0.8-0.5-1.3-0.8-1.5
	c-0.3-0.2-0.5-0.2-0.8-0.2c-0.3,0.1-0.4,0.3-0.5,0.6C90,113.3,90.1,113.8,90.4,114.6z M93.4,113.5c-0.3-0.5-0.4-1-0.5-1.4
	c-0.1-0.4,0-0.7,0.1-1c0.1-0.3,0.4-0.5,0.7-0.7c0.2-0.1,0.5-0.2,0.7-0.2c0.2,0,0.4,0.1,0.7,0.2c0.2,0.1,0.4,0.3,0.6,0.5
	c0.2,0.2,0.4,0.6,0.6,1c0.3,0.5,0.4,1,0.5,1.4c0.1,0.4,0,0.7-0.1,1c-0.1,0.3-0.4,0.5-0.7,0.7c-0.4,0.2-0.8,0.2-1.2,0
	C94.3,114.9,93.9,114.3,93.4,113.5z M94,113.2c0.4,0.7,0.7,1.2,1,1.3c0.3,0.2,0.6,0.2,0.8,0c0.3-0.1,0.4-0.4,0.5-0.7
	c0.1-0.3-0.1-0.9-0.5-1.6c-0.4-0.7-0.7-1.2-1-1.3c-0.3-0.2-0.6-0.2-0.8,0c-0.3,0.1-0.4,0.3-0.4,0.6C93.5,111.9,93.6,112.5,94,113.2z
	 M97,111.7c-0.3-0.5-0.5-0.9-0.6-1.3c-0.1-0.4-0.1-0.7,0-1c0.1-0.3,0.3-0.5,0.6-0.7c0.2-0.1,0.5-0.2,0.7-0.2c0.2,0,0.5,0,0.7,0.1
	c0.2,0.1,0.4,0.3,0.7,0.5c0.2,0.2,0.5,0.5,0.7,0.9c0.3,0.5,0.5,0.9,0.6,1.3c0.1,0.4,0.1,0.7,0,1c-0.1,0.3-0.3,0.5-0.6,0.7
	c-0.4,0.3-0.8,0.3-1.2,0.2C98,113,97.5,112.5,97,111.7L97,111.7z M97.5,111.4c0.4,0.7,0.8,1.1,1.1,1.2c0.3,0.1,0.6,0.1,0.8,0
	c0.2-0.2,0.4-0.4,0.4-0.7c0-0.3-0.2-0.8-0.6-1.5c-0.4-0.7-0.8-1.1-1.1-1.2c-0.3-0.1-0.6-0.1-0.8,0c-0.2,0.2-0.4,0.4-0.4,0.7
	C96.8,110.2,97.1,110.7,97.5,111.4z M100.3,109.6c-0.4-0.5-0.6-0.9-0.7-1.2c-0.1-0.4-0.2-0.7-0.1-1c0.1-0.3,0.2-0.6,0.5-0.8
	c0.2-0.2,0.4-0.3,0.7-0.3c0.2,0,0.5,0,0.7,0.1c0.2,0.1,0.5,0.2,0.7,0.4c0.2,0.2,0.5,0.5,0.8,0.9c0.4,0.5,0.6,0.9,0.7,1.2
	c0.1,0.4,0.2,0.7,0.1,1c-0.1,0.3-0.2,0.6-0.5,0.8c-0.4,0.3-0.8,0.4-1.2,0.3C101.4,110.8,100.9,110.4,100.3,109.6z M100.8,109.3
	c0.5,0.6,0.9,1,1.2,1.1c0.3,0.1,0.6,0.1,0.8-0.1c0.2-0.2,0.3-0.4,0.3-0.8c0-0.3-0.3-0.8-0.8-1.5c-0.5-0.6-0.9-1-1.2-1.1
	c-0.3-0.1-0.6-0.1-0.8,0.1c-0.2,0.2-0.3,0.4-0.3,0.7C100,108.1,100.3,108.6,100.8,109.3z M103.4,107.2c-0.4-0.4-0.7-0.8-0.9-1.2
	c-0.2-0.3-0.2-0.7-0.2-1c0-0.3,0.2-0.6,0.5-0.8c0.2-0.2,0.4-0.3,0.6-0.4c0.2-0.1,0.5-0.1,0.7,0c0.2,0.1,0.5,0.2,0.7,0.3
	c0.3,0.2,0.6,0.4,0.9,0.8c0.4,0.4,0.7,0.8,0.9,1.2c0.2,0.3,0.2,0.7,0.2,1c0,0.3-0.2,0.6-0.5,0.8c-0.3,0.3-0.7,0.5-1.2,0.4
	C104.6,108.3,104,107.9,103.4,107.2L103.4,107.2z M103.8,106.8c0.6,0.6,1,0.9,1.3,1c0.3,0.1,0.6,0,0.8-0.2c0.2-0.2,0.3-0.5,0.2-0.8
	c-0.1-0.3-0.4-0.8-0.9-1.4c-0.6-0.6-1-0.9-1.3-1c-0.3-0.1-0.6,0-0.8,0.2c-0.2,0.2-0.3,0.4-0.2,0.7
	C103,105.7,103.3,106.2,103.8,106.8z"/>
<g id="Layer1001">
	<path id="path29" class="st3" d="M30.6,86.8l3-0.7c0.3-0.1,0.4-0.2,0.4-0.4c0,0,0-0.1-0.1-0.2c0-0.1-0.1-0.1-0.1-0.2
		c0-0.2,0-0.3,0.2-0.3c0.2,0,0.3,0,0.3,0.2c0,0.1,0,0.2,0.1,0.4c0,0.2,0,0.3,0.1,0.4c0,0.1,0.1,0.3,0.2,0.5c0.1,0.2,0.1,0.4,0.2,0.5
		c0.2,0.9-0.1,1.5-1,1.7c-0.5,0.1-0.9,0-1.2-0.2c-0.2-0.2-0.3-0.5-0.4-0.9c-0.1-0.4-0.2-0.6-0.2-0.6c0,0-0.1,0-0.1,0l-1,0.2
		c-0.3,0.1-0.4,0.2-0.3,0.4c0,0,0,0.1,0.1,0.1c0,0.1,0,0.1,0.1,0.1c0,0.1,0,0.1,0,0.2c0,0.1-0.1,0.1-0.2,0.1c-0.2,0-0.3-0.1-0.3-0.3
		c0-0.1,0-0.2-0.1-0.4c0-0.2,0-0.3-0.1-0.4c0-0.1-0.1-0.2-0.1-0.4c-0.1-0.2-0.1-0.3-0.1-0.4c0-0.2,0-0.3,0.2-0.3
		c0.2,0,0.3,0,0.3,0.2c0,0,0,0.1,0,0.1c0,0.1,0,0.1,0,0.1C30.2,86.8,30.3,86.9,30.6,86.8z M33.7,86.7l-1.2,0.3
		c-0.1,0-0.2,0.1-0.2,0.2c0,0,0,0.1,0,0.2c0.1,0.4,0.2,0.7,0.3,0.8c0.2,0.2,0.5,0.3,0.8,0.2c0.3-0.1,0.6-0.2,0.7-0.4
		c0.1-0.2,0.1-0.5,0-0.8C34.2,86.8,34,86.6,33.7,86.7z M33.7,92.7c-0.7,0.2-1.2,0.2-1.7,0.1c-0.6-0.2-1-0.6-1.2-1.2
		c-0.2-0.6-0.1-1.2,0.4-1.6c0.3-0.4,0.9-0.7,1.5-0.9c0.7-0.2,1.2-0.2,1.7-0.1c0.6,0.2,1,0.6,1.2,1.2c0.2,0.6,0,1.1-0.4,1.6
		C34.8,92.3,34.3,92.5,33.7,92.7z M31.3,91.5c0.1,0.4,0.4,0.7,0.9,0.8c0.4,0.1,0.8,0,1.3-0.1c0.5-0.1,0.9-0.3,1.2-0.6
		c0.4-0.3,0.5-0.7,0.4-1.2c-0.1-0.4-0.4-0.7-1-0.8c-0.4-0.1-0.8,0-1.3,0.1c-0.5,0.1-0.9,0.3-1.2,0.6C31.3,90.7,31.1,91,31.3,91.5z
		 M36.6,93.5c0.2,0.4,0.1,0.8-0.1,1.2c0.2-0.1,0.2-0.1,0.3-0.1c0.1,0,0.2,0,0.2,0.1c0.1,0.1,0,0.2-0.1,0.3c-0.1,0-0.2,0.1-0.4,0.1
		s-0.3,0.1-0.4,0.1c-0.1,0-0.2,0.1-0.3,0.2c-0.2,0.1-0.3,0.1-0.3,0.2c-0.2,0.1-0.3,0-0.4-0.1c0-0.1,0-0.2,0.2-0.3
		c0,0,0.1-0.1,0.4-0.2c0.2-0.1,0.4-0.3,0.6-0.5c0.1-0.3,0.2-0.5,0.1-0.7c-0.2-0.4-0.5-0.6-1-0.7c-0.4,0-0.8,0.1-1.3,0.2
		c-0.5,0.2-0.9,0.4-1.1,0.7c-0.4,0.4-0.5,0.8-0.3,1.2c0.1,0.4,0.4,0.6,0.7,0.6c0.2,0,0.4,0,0.8-0.1c0.3,0,0.4,0,0.5,0.1
		c0.1,0.2,0,0.3-0.2,0.4c-0.5,0.2-0.9,0.2-1.3,0.1c-0.4-0.1-0.7-0.5-0.9-0.9c-0.2-0.6-0.2-1.1,0.2-1.6c0.3-0.4,0.8-0.7,1.4-1
		c0.6-0.2,1.2-0.3,1.7-0.2C36,92.6,36.4,92.9,36.6,93.5L36.6,93.5z M38,96.7c0.2,0.4,0.2,0.8,0,1.2c0.1-0.1,0.2-0.1,0.3-0.1
		c0.1,0,0.2,0,0.2,0.1c0.1,0.1,0,0.2-0.1,0.3c-0.1,0-0.2,0.1-0.4,0.2c-0.2,0.1-0.3,0.1-0.4,0.2c-0.1,0-0.2,0.1-0.3,0.2
		c-0.1,0.1-0.3,0.1-0.3,0.2c-0.2,0.1-0.3,0.1-0.4-0.1c-0.1-0.1,0-0.2,0.1-0.3c0,0,0.1-0.1,0.4-0.2c0.2-0.1,0.4-0.3,0.5-0.6
		c0.1-0.3,0.1-0.5,0-0.7c-0.2-0.4-0.5-0.6-1.1-0.6c-0.4,0-0.8,0.1-1.3,0.3c-0.5,0.2-0.8,0.5-1.1,0.8c-0.3,0.4-0.4,0.8-0.2,1.2
		c0.2,0.4,0.4,0.6,0.7,0.6c0.2,0,0.4,0,0.8-0.1c0.3-0.1,0.4,0,0.5,0.1c0.1,0.2,0,0.3-0.2,0.4c-0.5,0.2-0.9,0.3-1.3,0.1
		c-0.4-0.1-0.7-0.4-0.9-0.9c-0.3-0.6-0.2-1.1,0.1-1.7c0.3-0.4,0.7-0.8,1.4-1.1c0.6-0.3,1.2-0.4,1.7-0.3C37.3,95.8,37.7,96.1,38,96.7
		z M35.7,100.9l2.7-1.5c0.2-0.1,0.3-0.3,0.2-0.4c0,0-0.1-0.1-0.1-0.2c0-0.1-0.1-0.1-0.1-0.1c-0.1-0.1,0-0.3,0.1-0.3
		c0.2-0.1,0.3-0.1,0.4,0.1c0,0.1,0.1,0.2,0.2,0.4c0.1,0.2,0.1,0.3,0.2,0.4c0,0.1,0.1,0.2,0.2,0.3c0.1,0.1,0.2,0.3,0.2,0.3
		c0.1,0.2,0.1,0.3-0.1,0.4c-0.2,0.1-0.3,0.1-0.3-0.1c0,0,0-0.1-0.1-0.1c0-0.1,0-0.1-0.1-0.1c-0.1-0.2-0.3-0.2-0.5-0.1l-1.5,0.8
		c-0.2,0.1-0.3,0.2-0.3,0.2c0,0,0.1,0.1,0.2,0.1l1.9,0.6c0.2,0.1,0.4,0.1,0.6,0c0.1-0.1,0.2-0.1,0.2-0.2c0-0.1,0-0.2,0-0.3
		c0,0,0-0.1-0.1-0.1c0-0.1-0.1-0.1-0.1-0.1c-0.1-0.1,0-0.2,0.1-0.3c0.1-0.1,0.3,0,0.4,0.2c0,0.1,0.1,0.2,0.2,0.4
		c0.1,0.2,0.1,0.3,0.2,0.4c0,0.1,0.1,0.2,0.2,0.3c0.1,0.1,0.2,0.3,0.2,0.3c0.1,0.2,0.1,0.3-0.1,0.4c-0.1,0.1-0.3,0-0.3-0.1
		c0,0,0-0.1-0.1-0.1c0-0.1-0.1-0.1-0.1-0.1c-0.1-0.2-0.3-0.2-0.5-0.1l-2.7,1.5c-0.2,0.1-0.3,0.3-0.2,0.4c0,0,0.1,0.1,0.1,0.1
		c0,0.1,0.1,0.1,0.1,0.1c0.1,0.1,0.1,0.3-0.1,0.3c-0.2,0.1-0.3,0.1-0.4-0.1c0-0.1-0.1-0.2-0.2-0.4c-0.1-0.2-0.1-0.3-0.2-0.4
		c0-0.1-0.1-0.2-0.2-0.3c-0.1-0.2-0.2-0.3-0.2-0.3c-0.1-0.2-0.1-0.3,0.1-0.4c0.1-0.1,0.3-0.1,0.3,0.1c0,0,0,0.1,0.1,0.1
		c0,0.1,0,0.1,0.1,0.1c0.1,0.1,0.1,0.2,0.2,0.2c0.1,0,0.2,0,0.3-0.1l1.6-0.9c0.1-0.1,0.1-0.1,0.2-0.1c-0.1-0.1-0.4-0.2-1-0.3
		c-0.4-0.1-0.7-0.2-1.1-0.3c-0.2,0-0.3-0.1-0.4-0.1c-0.1,0-0.2,0-0.3,0.1c-0.1,0.1-0.2,0.1-0.2,0.2c0,0.1,0,0.2,0,0.3
		c0,0,0,0.1,0.1,0.1c0,0,0.1,0.1,0.1,0.1c0.1,0.1,0,0.2-0.1,0.3c-0.1,0.1-0.3,0-0.4-0.2c0-0.1-0.1-0.2-0.2-0.4
		c-0.1-0.2-0.1-0.3-0.2-0.4c0-0.1-0.1-0.2-0.2-0.3c-0.1-0.1-0.2-0.3-0.2-0.3c-0.1-0.2-0.1-0.3,0.1-0.4c0.1-0.1,0.3-0.1,0.3,0.1
		c0,0,0,0.1,0.1,0.2c0,0.1,0.1,0.1,0.1,0.2C35.3,101.1,35.4,101.1,35.7,100.9z M38.3,105.3l2.5-1.8c0.2-0.2,0.3-0.3,0.2-0.5
		c0,0-0.1-0.1-0.1-0.1c-0.1-0.1-0.1-0.1-0.1-0.1c-0.1-0.1-0.1-0.2,0.1-0.3c0.1-0.1,0.3-0.1,0.4,0.1c0.1,0.1,0.1,0.2,0.2,0.3
		c0.1,0.2,0.2,0.3,0.2,0.3c0.1,0.1,0.1,0.2,0.3,0.3c0.1,0.1,0.2,0.2,0.3,0.3c0.1,0.2,0.1,0.3,0,0.4c-0.1,0.1-0.3,0.1-0.4,0
		c0,0,0-0.1-0.1-0.1c0-0.1-0.1-0.1-0.1-0.1c-0.1-0.2-0.3-0.2-0.5,0l-1.4,1c-0.2,0.1-0.2,0.2-0.2,0.2c0,0,0.1,0.1,0.2,0.1l1.9,0.4
		c0.2,0,0.4,0,0.6-0.1c0.1-0.1,0.2-0.1,0.2-0.2c0-0.1,0-0.2,0-0.3c0,0,0-0.1-0.1-0.1c0,0-0.1-0.1-0.1-0.1c-0.1-0.1-0.1-0.2,0.1-0.3
		c0.1-0.1,0.3-0.1,0.4,0.1c0.1,0.1,0.1,0.2,0.2,0.4c0.1,0.2,0.2,0.3,0.2,0.4c0.1,0.1,0.1,0.2,0.3,0.3c0.1,0.1,0.2,0.2,0.3,0.3
		c0.1,0.2,0.1,0.3-0.1,0.4c-0.1,0.1-0.3,0.1-0.3-0.1c0,0-0.1-0.1-0.1-0.1c0-0.1-0.1-0.1-0.1-0.1c-0.1-0.2-0.3-0.2-0.5,0l-2.5,1.8
		c-0.2,0.2-0.3,0.3-0.2,0.5c0,0,0.1,0.1,0.1,0.1c0.1,0.1,0.1,0.1,0.1,0.1c0.1,0.1,0.1,0.3-0.1,0.3c-0.2,0.1-0.3,0.1-0.4-0.1
		c-0.1-0.1-0.1-0.2-0.2-0.3c-0.1-0.2-0.2-0.3-0.2-0.3c-0.1-0.1-0.1-0.2-0.3-0.3c-0.1-0.1-0.2-0.2-0.3-0.3c-0.1-0.2-0.1-0.3,0-0.4
		c0.1-0.1,0.3-0.1,0.3,0c0,0,0,0.1,0.1,0.1c0,0.1,0.1,0.1,0.1,0.1c0.1,0.1,0.2,0.1,0.2,0.1c0.1,0,0.1-0.1,0.3-0.1l1.5-1.1
		c0.1-0.1,0.1-0.1,0.2-0.1c-0.1-0.1-0.4-0.1-1-0.3c-0.4-0.1-0.7-0.1-1.1-0.2c-0.2,0-0.3,0-0.4,0c-0.1,0-0.2,0.1-0.3,0.1
		c-0.1,0.1-0.2,0.1-0.2,0.2c0,0.1,0,0.2,0,0.3c0,0,0,0.1,0.1,0.1c0,0,0.1,0.1,0.1,0.1c0.1,0.1,0.1,0.2-0.1,0.3
		c-0.1,0.1-0.3,0.1-0.4-0.1c-0.1-0.1-0.1-0.2-0.2-0.4c-0.1-0.2-0.2-0.3-0.2-0.4c-0.1-0.1-0.1-0.2-0.3-0.3c-0.1-0.1-0.2-0.2-0.3-0.3
		c-0.1-0.2-0.1-0.3,0.1-0.4c0.1-0.1,0.2-0.1,0.3,0.1c0,0,0.1,0.1,0.1,0.1c0,0.1,0.1,0.1,0.1,0.2C37.9,105.4,38.1,105.4,38.3,105.3
		L38.3,105.3z M42.8,104c-0.2-0.2-0.2-0.4-0.3-0.6c0-0.2,0.1-0.4,0.3-0.6c0.2-0.1,0.4-0.1,0.5,0c0.1,0.2,0.1,0.3,0,0.4
		c0,0-0.1,0-0.1,0.1c-0.1,0-0.1,0-0.1,0.1c-0.1,0.1,0,0.2,0.1,0.4c0.1,0.2,0.3,0.3,0.3,0.2c0,0,0.1,0,0.1-0.1c0,0,0.1-0.1,0.1-0.1
		c0.1,0,0.1-0.1,0.2,0c0.1,0,0.1,0.1,0.2,0.2c0.1,0.1,0.1,0.2,0,0.3c0,0.1-0.1,0.2-0.2,0.2c-0.2,0.1-0.4,0.2-0.6,0.1
		C43.1,104.3,42.9,104.2,42.8,104z M44.9,107.2c0.3,0.4,0.4,0.7,0.3,1.1c0.1-0.1,0.2-0.2,0.2-0.2c0.1,0,0.2,0,0.3,0
		c0.1,0.1,0.1,0.2,0,0.3c-0.1,0.1-0.2,0.1-0.3,0.3c-0.1,0.1-0.3,0.2-0.3,0.3c-0.1,0.1-0.2,0.1-0.3,0.3c-0.1,0.1-0.2,0.2-0.3,0.3
		c-0.2,0.1-0.3,0.1-0.4,0c-0.1-0.1-0.1-0.2,0-0.3c0,0,0.1-0.1,0.3-0.3c0.2-0.2,0.3-0.4,0.3-0.7c0-0.3,0-0.5-0.2-0.7
		c-0.3-0.3-0.7-0.4-1.2-0.3c-0.4,0.1-0.8,0.3-1.1,0.7c-0.4,0.3-0.7,0.7-0.8,1c-0.2,0.5-0.2,0.9,0.1,1.2c0.3,0.3,0.5,0.4,0.9,0.4
		c0.2,0,0.4-0.1,0.7-0.3c0.2-0.1,0.4-0.2,0.5-0.1c0.1,0.1,0.1,0.3-0.1,0.4c-0.4,0.3-0.8,0.5-1.2,0.5c-0.4,0-0.8-0.2-1.1-0.6
		c-0.4-0.5-0.5-1-0.4-1.6c0.2-0.5,0.5-1,1-1.4c0.5-0.4,1-0.7,1.5-0.8C44,106.5,44.5,106.7,44.9,107.2L44.9,107.2z M46.9,113.4
		c0.1,0.1,0.1,0.2,0,0.4l-0.5,0.6c-0.4,0.4-0.8,0.5-1.1,0.1c-0.2-0.2-0.3-0.4-0.2-0.6c0-0.2,0.2-0.3,0.4-0.6c0,0,0.1-0.1,0.2-0.2
		c0.1-0.1,0.1-0.2,0.2-0.2c0.2-0.2,0.3-0.4,0.3-0.6c0-0.2-0.2-0.4-0.4-0.6c-0.2-0.2-0.4-0.3-0.5-0.1l-0.8,0.8
		c-0.1,0.1-0.2,0.2-0.2,0.3c0,0.1,0,0.2,0.1,0.3c0,0,0.1,0.1,0.1,0.1c0.1,0,0.1,0.1,0.1,0.1c0.1,0,0.1,0.1,0.1,0.2
		c0,0.1,0,0.1-0.1,0.2c-0.1,0.1-0.3,0.1-0.4-0.1c-0.1-0.1-0.2-0.2-0.3-0.3c-0.1-0.1-0.2-0.2-0.3-0.3c-0.1-0.1-0.2-0.2-0.3-0.3
		c-0.2-0.1-0.3-0.2-0.3-0.3c-0.1-0.1-0.1-0.3,0-0.4c0.1-0.1,0.2-0.1,0.3,0c0,0,0.1,0.1,0.1,0.1c0,0.1,0.1,0.1,0.1,0.1
		c0.1,0.1,0.3,0.1,0.5-0.1l2.1-2.2c0.1-0.1,0.2-0.2,0.2-0.3c0-0.1,0-0.2-0.1-0.3c0,0-0.1-0.1-0.1-0.1c-0.1,0-0.1-0.1-0.1-0.1
		c-0.1-0.1-0.1-0.2,0-0.4c0.1-0.1,0.3-0.1,0.4,0c0.1,0.1,0.1,0.2,0.3,0.3c0.1,0.1,0.2,0.2,0.3,0.3c0.1,0.1,0.2,0.1,0.3,0.3
		c0.1,0.1,0.2,0.2,0.3,0.3c0.1,0.1,0.2,0.3,0,0.4c0,0-0.1,0.1-0.2,0.1c-0.1,0-0.1,0-0.2-0.1c0,0,0-0.1-0.1-0.1c0,0-0.1-0.1-0.1-0.1
		c-0.1-0.1-0.2-0.1-0.3,0c-0.1,0-0.1,0.1-0.2,0.2l-0.6,0.6c-0.1,0.1-0.1,0.2-0.1,0.3c0,0,0.1,0.1,0.2,0.2c0.3,0.3,0.6,0.3,0.9,0.1
		c0.3-0.2,0.5-0.4,0.8-0.6c0.3-0.2,0.6-0.2,0.9,0.1c0.3,0.3,0.3,0.6,0,0.9c-0.2,0.2-0.4,0.3-0.6,0.1c-0.1-0.1-0.1-0.3,0-0.4
		c0,0,0,0,0.1,0c0,0,0.1,0,0.1-0.1c0.1-0.1,0.1-0.1,0-0.2c-0.1-0.1-0.3-0.1-0.5,0.1c-0.2,0.2-0.4,0.3-0.6,0.5
		c-0.3,0.2-0.5,0.3-0.8,0.2l0,0c0.1,0.2,0.1,0.4,0,0.7c-0.1,0.2-0.2,0.4-0.4,0.6c0,0-0.1,0.1-0.1,0.1c0,0.1-0.1,0.1-0.1,0.1
		c-0.3,0.3-0.3,0.5-0.2,0.6c0.1,0.1,0.3,0,0.5-0.2c0,0,0.1-0.1,0.2-0.2c0.1-0.1,0.1-0.1,0.2-0.2C46.6,113.4,46.8,113.3,46.9,113.4z
		 M50,113.2l-1.4,1c-0.1,0-0.1,0.1-0.1,0.1c0,0,0,0,0,0.1c0,0,0,0.1,0.1,0.1l0.6,0.5c0,0,0,0,0.1,0c0,0,0,0,0.1,0c0,0,0-0.1,0.1-0.1
		L50,113.2z M49,115.3l-0.9-0.7c-0.1,0-0.2,0-0.5,0.2c-0.2,0.2-0.4,0.3-0.5,0.4c-0.1,0.1-0.1,0.2,0,0.2c0,0,0.1,0,0.1,0.1
		c0.1,0,0.1,0.1,0.1,0.1c0.1,0.1,0.2,0.2,0.1,0.4c-0.1,0.1-0.2,0.2-0.4,0c-0.1-0.1-0.2-0.2-0.3-0.3c-0.1-0.1-0.2-0.2-0.3-0.3
		c-0.1-0.1-0.2-0.1-0.3-0.2c-0.1-0.1-0.2-0.2-0.3-0.2c-0.1,0-0.1-0.1-0.1-0.2c0-0.1,0-0.1,0-0.2c0-0.1,0.1-0.1,0.2-0.1
		c0.1,0,0.1,0,0.2,0c0,0,0,0,0.1,0.1c0,0,0,0.1,0.1,0.1c0.1,0.1,0.2,0.1,0.3,0.1c0.1,0,0.2-0.1,0.3-0.2l3-2.1
		c0.3-0.2,0.5-0.2,0.6-0.1c0.2,0.1,0.2,0.4,0.1,0.7l-1.3,3.4c-0.1,0.1-0.1,0.3-0.1,0.3c0,0.1,0,0.2,0.1,0.3c0,0,0,0,0.1,0
		c0,0,0,0,0.1,0c0.2,0.1,0.2,0.3,0.1,0.4c0,0.1-0.1,0.1-0.2,0.1c-0.1,0-0.1,0-0.2-0.1c-0.1-0.1-0.2-0.1-0.3-0.3
		c-0.1-0.1-0.2-0.2-0.3-0.3c-0.1-0.1-0.2-0.1-0.4-0.2c-0.2-0.1-0.3-0.2-0.4-0.2c-0.1-0.1-0.1-0.2,0-0.4c0.1-0.1,0.2-0.1,0.4,0
		c0,0,0.1,0.1,0.1,0.1c0,0.1,0.1,0.1,0.1,0.1c0.1,0.1,0.2,0,0.3-0.1c0.1-0.1,0.2-0.3,0.3-0.5C49.1,115.6,49.1,115.4,49,115.3
		L49,115.3z M54.5,116.4l-1.7,2.6c-0.2,0.2-0.1,0.4,0.1,0.5c0,0,0.1,0,0.1,0.1c0.1,0,0.1,0,0.1,0.1c0.1,0.1,0.2,0.2,0.1,0.3
		c-0.1,0.2-0.2,0.2-0.4,0.1c-0.1-0.1-0.2-0.1-0.3-0.3c-0.2-0.1-0.3-0.2-0.3-0.3c-0.1,0-0.2-0.1-0.4-0.2c-0.2-0.1-0.3-0.1-0.4-0.2
		c-0.2-0.1-0.3-0.3-0.2-0.4c0-0.1,0.1-0.1,0.2-0.1c0.1,0,0.1,0,0.2,0c0,0,0.1,0.1,0.1,0.1c0.1,0,0.1,0.1,0.1,0.1
		c0.2,0.1,0.3,0.1,0.5-0.2l0.5-0.8c0.1-0.1,0.1-0.2,0-0.3c-0.6-0.4-1-0.5-1.1-0.5c-0.1,0-0.3,0.2-0.4,0.4c0,0-0.1,0.1-0.1,0.2
		c0,0.1-0.1,0.1-0.1,0.2c-0.2,0.2-0.3,0.4-0.4,0.5c-0.2,0.1-0.4,0.1-0.6-0.1c-0.2-0.1-0.3-0.3-0.3-0.5c0-0.2,0.1-0.4,0.2-0.6
		l0.4-0.7c0.1-0.2,0.2-0.2,0.4-0.1c0.1,0.1,0.2,0.2,0.1,0.4l-0.3,0.5c-0.1,0.2-0.2,0.3-0.2,0.3c-0.1,0.1-0.1,0.2,0,0.3
		c0.1,0.1,0.3,0,0.4-0.2c0,0,0.1-0.1,0.1-0.2c0.1-0.1,0.1-0.1,0.1-0.2c0.2-0.4,0.5-0.6,0.8-0.6c-0.3-0.4-0.2-0.8,0.1-1.4
		c0.5-0.8,1.1-0.9,1.9-0.4c0.1,0.1,0.3,0.2,0.5,0.4c0.2,0.2,0.4,0.3,0.5,0.4c0.1,0,0.2,0.1,0.3,0.2c0.1,0.1,0.2,0.1,0.3,0.2
		c0.2,0.1,0.2,0.2,0.1,0.4c-0.1,0.1-0.2,0.2-0.3,0.1c0,0-0.1-0.1-0.1-0.1c0-0.1-0.1-0.1-0.1-0.1C54.8,116.1,54.6,116.2,54.5,116.4
		L54.5,116.4z M52.3,115.6c-0.2,0.3-0.3,0.6-0.2,0.8c0.1,0.2,0.2,0.4,0.6,0.6c0.4,0.3,0.6,0.3,0.7,0.2l0.7-1c0.1-0.2,0-0.5-0.4-0.7
		c-0.3-0.2-0.6-0.3-0.8-0.2C52.7,115.2,52.5,115.3,52.3,115.6z"/>
	<path id="path31" class="st3" d="M58.8,119.8l-0.5,1.1c0,0.1,0,0.2,0,0.2c0,0,0.1,0.1,0.2,0.1c0.4,0.2,0.7,0.3,0.8,0.2
		c0.3,0,0.5-0.2,0.7-0.5c0.1-0.3,0.2-0.5,0.1-0.7c-0.1-0.2-0.3-0.4-0.6-0.5c-0.2-0.1-0.4-0.1-0.4-0.2
		C59,119.5,58.9,119.6,58.8,119.8z M57.3,122.4c-0.1,0-0.2-0.1-0.4-0.1c-0.2-0.1-0.3-0.1-0.4-0.1c-0.2-0.1-0.3-0.2-0.2-0.4
		c0-0.1,0.1-0.1,0.1-0.1c0.1,0,0.1,0,0.2,0c0,0,0.1,0,0.1,0.1c0.1,0,0.1,0.1,0.1,0.1c0.1,0.1,0.2,0.1,0.3,0c0,0,0.1-0.1,0.2-0.3
		c0.1-0.1,0-0.2-0.2-0.3c0,0-0.1,0-0.2-0.1c-0.1,0-0.1,0-0.2-0.1c-0.9-0.4-1.2-1-0.8-1.9c0.4-0.8,1-1,1.8-0.7c0.1,0,0.2,0.1,0.3,0.2
		c0.1,0.1,0.2,0.1,0.3,0.2c0.1,0,0.1,0,0.2,0c0,0,0-0.1,0.1-0.2c0.1-0.2,0-0.3-0.2-0.4c0,0-0.1,0-0.2-0.1c-0.1,0-0.1,0-0.2-0.1
		c-0.1-0.1-0.2-0.2-0.1-0.3c0.1-0.2,0.2-0.2,0.4-0.1c0.1,0,0.2,0.1,0.4,0.2c0.2,0.1,0.3,0.2,0.4,0.2c0.1,0,0.2,0.1,0.4,0.2
		c0.2,0.1,0.3,0.1,0.4,0.2c0.2,0.1,0.2,0.2,0.1,0.4c-0.1,0.2-0.2,0.2-0.3,0.1c0,0-0.1,0-0.1-0.1c-0.1,0-0.1-0.1-0.1-0.1
		c-0.1-0.1-0.2-0.1-0.3,0c-0.1,0-0.1,0.1-0.2,0.2c0,0.1,0,0.1,0.1,0.2c0.1,0,0.2,0.1,0.3,0.1c0.1,0,0.2,0.1,0.3,0.1
		c0.8,0.4,1.1,1,0.7,1.8c-0.4,0.8-1,1-2,0.6c0,0-0.1-0.1-0.2-0.1c-0.1,0-0.1-0.1-0.2-0.1c-0.1,0-0.2,0-0.2,0c0,0-0.1,0.1-0.1,0.2
		c-0.1,0.1-0.1,0.2-0.1,0.3c0,0.1,0.1,0.2,0.2,0.2c0,0,0.1,0,0.2,0c0.1,0,0.1,0,0.2,0c0.1,0,0.1,0.1,0.1,0.1c0,0.1,0,0.1,0,0.2
		c-0.1,0.2-0.2,0.2-0.5,0.1c-0.1,0-0.2-0.1-0.4-0.2C57.5,122.5,57.4,122.4,57.3,122.4L57.3,122.4z M58.3,119.6
		c0.1-0.2,0.1-0.3,0-0.4c0,0-0.2-0.1-0.4-0.2c-0.3-0.1-0.6-0.2-0.8-0.1c-0.2,0.1-0.4,0.2-0.5,0.5c-0.1,0.3-0.1,0.6,0,0.8
		c0.1,0.1,0.4,0.3,0.7,0.5c0.1,0.1,0.2,0.1,0.2,0.1c0.1,0,0.1,0,0.2-0.1L58.3,119.6z M61.7,120c0.1-0.3,0-0.4-0.2-0.5
		c0,0-0.1,0-0.2,0c-0.1,0-0.1,0-0.2,0c-0.2-0.1-0.2-0.2-0.1-0.3c0.1-0.2,0.2-0.2,0.3-0.1c0.1,0,0.2,0.1,0.4,0.2
		c0.2,0.1,0.3,0.1,0.4,0.2l1.6,0.5c0.1,0,0.2,0,0.3,0.1c0.1,0,0.2,0.1,0.3,0.1c0.2,0.1,0.3,0.2,0.2,0.4c0,0.1-0.1,0.2-0.1,0.3
		c-0.1,0.1-0.1,0.2-0.1,0.3c0,0.1-0.1,0.2-0.1,0.4c0,0.2-0.1,0.3-0.1,0.4c-0.1,0.2-0.2,0.3-0.3,0.2c-0.1,0-0.1-0.1-0.1-0.1
		c0-0.1,0-0.2,0-0.2c0-0.1,0.1-0.2,0.1-0.3c0.1-0.1,0.1-0.2,0.1-0.3c0.1-0.2,0.1-0.4,0.1-0.5c0-0.1-0.2-0.2-0.4-0.3l-0.8-0.3
		c-0.1,0-0.2,0-0.3,0c0,0-0.1,0.1-0.1,0.3l-0.3,0.8c0,0.1,0,0.2,0,0.2c0,0.1,0.1,0.1,0.2,0.1c0.2,0.1,0.4,0.1,0.5,0.1
		c0.1,0,0.1-0.1,0.2-0.3c0,0,0-0.1,0.1-0.2c0-0.1,0.1-0.2,0.1-0.2c0.1-0.2,0.2-0.2,0.3-0.2c0.1,0,0.1,0.2,0.1,0.5
		c0,0.1-0.1,0.2-0.2,0.4c-0.1,0.2-0.1,0.3-0.2,0.4c0,0.1-0.1,0.2-0.1,0.4c0,0.2-0.1,0.3-0.1,0.4c-0.1,0.3-0.2,0.4-0.3,0.3
		c-0.1,0-0.2-0.1-0.1-0.3c0,0,0-0.1,0.1-0.3c0.1-0.2,0.1-0.4,0.1-0.4c0-0.1-0.1-0.2-0.4-0.2c-0.1,0-0.2-0.1-0.3-0.1
		c-0.1,0-0.1,0.1-0.2,0.2l-0.4,1.1c-0.1,0.2-0.1,0.3-0.1,0.3c0,0.1,0.1,0.2,0.2,0.2l0.9,0.3c0.2,0.1,0.4,0.1,0.5,0
		c0.1-0.1,0.2-0.2,0.3-0.4c0-0.1,0-0.2,0.1-0.3c0-0.1,0.1-0.2,0.1-0.3c0-0.1,0.1-0.1,0.1-0.2c0.1,0,0.1-0.1,0.2,0
		c0.1,0,0.2,0.2,0.1,0.4c0,0.1-0.1,0.2-0.1,0.4c-0.1,0.2-0.1,0.3-0.1,0.4c0,0.1,0,0.2-0.1,0.3c0,0.1-0.1,0.2-0.1,0.3
		c-0.1,0.2-0.2,0.3-0.4,0.2c-0.1,0-0.1-0.1-0.3-0.1c-0.1-0.1-0.2-0.1-0.3-0.1l-1.7-0.6c-0.1,0-0.2-0.1-0.4-0.1
		c-0.2,0-0.3-0.1-0.4-0.1c-0.2-0.1-0.2-0.2-0.2-0.3c0.1-0.2,0.2-0.2,0.3-0.2c0,0,0.1,0,0.1,0.1c0.1,0,0.1,0,0.1,0.1
		c0.1,0,0.2,0,0.3,0c0.1,0,0.1-0.1,0.2-0.3L61.7,120z M65,123.1l0.4-1.8c0.1-0.3,0-0.4-0.3-0.5c0,0-0.1,0-0.2,0c-0.1,0-0.1,0-0.2,0
		c-0.2,0-0.2-0.1-0.2-0.3c0-0.1,0.1-0.2,0.4-0.2c0.1,0,0.2,0,0.5,0.1c0.2,0,0.4,0.1,0.8,0.2c0.3,0.1,0.6,0.2,0.8,0.2
		c0.1,0,0.4,0.1,0.6,0.1c0.3,0,0.5,0.1,0.6,0.1c0.3,0.1,0.4,0.1,0.5,0.1c0.2,0.1,0.3,0.2,0.3,0.3c0,0.2-0.1,0.2-0.3,0.2
		c0,0-0.1,0-0.2-0.1c-0.1,0-0.1,0-0.2-0.1c-0.2,0-0.3,0.1-0.4,0.3l-0.7,3c-0.1,0.3,0,0.4,0.2,0.5c0,0,0.1,0,0.2,0c0.1,0,0.1,0,0.2,0
		c0.2,0.1,0.3,0.2,0.3,0.4c0,0.1,0,0.1-0.1,0.2c0,0.1-0.1,0.2-0.1,0.2c0,0.1,0,0.2-0.1,0.3c0,0.1,0,0.3-0.1,0.3
		c0,0.2-0.1,0.3-0.3,0.2c-0.1,0-0.1-0.1-0.2-0.1c0-0.1,0-0.1,0-0.2c0-0.1,0-0.1,0.1-0.2c0-0.1,0.1-0.2,0.1-0.2
		c0.1-0.2,0-0.4-0.1-0.5c-0.1-0.1-0.2-0.1-0.5-0.2c-0.1,0-0.3-0.1-0.6-0.1c-0.3-0.1-0.5-0.1-0.6-0.1c-0.1,0-0.4-0.1-0.6-0.2
		c-0.3-0.1-0.5-0.1-0.6-0.2c-0.3-0.1-0.4-0.1-0.6-0.1c-0.2,0-0.3,0.2-0.4,0.4c0,0.1,0,0.1,0,0.2c0,0.1,0,0.2,0,0.2
		c0,0.1-0.1,0.1-0.1,0.2c-0.1,0.1-0.1,0.1-0.2,0c-0.1,0-0.2-0.1-0.1-0.3c0-0.1,0-0.2,0.1-0.3c0-0.1,0.1-0.2,0.1-0.3c0,0,0-0.1,0-0.2
		c0-0.1,0-0.2,0-0.2c0.1-0.2,0.2-0.3,0.4-0.3c0,0,0.1,0,0.2,0.1c0.1,0,0.1,0,0.2,0.1C64.4,124.7,64.7,124.2,65,123.1L65,123.1z
		 M65,124.6c0,0.1,0.1,0.2,0.5,0.3l0.6,0.1c0.2,0.1,0.4,0.1,0.5,0.1c0.1,0,0.2-0.1,0.3-0.3l0.7-2.9c0-0.1,0-0.2,0-0.3
		c0-0.1-0.1-0.1-0.2-0.2c-0.1,0-0.2,0-0.3-0.1c-0.1,0-0.2,0-0.3-0.1c0,0-0.1,0-0.2-0.1c-0.1,0-0.2-0.1-0.2-0.1c-0.1,0-0.2,0-0.3,0.1
		c0,0-0.1,0.1-0.1,0.3c0,0.1-0.1,0.4-0.2,0.8c-0.1,0.3-0.1,0.6-0.2,0.8c-0.1,0.3-0.1,0.5-0.2,0.7c0,0.1-0.1,0.2-0.2,0.4
		C65.1,124.3,65,124.5,65,124.6z M69.7,122.3c0-0.3,0-0.4-0.2-0.5c0,0-0.1,0-0.2,0c-0.1,0-0.1,0-0.2,0c-0.2,0-0.2-0.1-0.2-0.3
		c0-0.2,0.1-0.2,0.3-0.2c0.1,0,0.2,0,0.4,0.1c0.2,0,0.3,0.1,0.4,0.1l1.6,0.3c0.1,0,0.2,0,0.3,0c0.1,0,0.2,0,0.3,0
		c0.2,0,0.3,0.2,0.2,0.4c0,0.1,0,0.2-0.1,0.3c0,0.1-0.1,0.2-0.1,0.3c0,0.1,0,0.2-0.1,0.4c0,0.2,0,0.3-0.1,0.4c0,0.2-0.1,0.3-0.3,0.3
		c-0.1,0-0.1-0.1-0.2-0.1c0-0.1,0-0.1,0-0.2c0-0.1,0-0.2,0.1-0.3c0-0.1,0.1-0.2,0.1-0.3c0-0.2,0-0.4,0-0.5c-0.1-0.1-0.2-0.2-0.4-0.2
		l-0.9-0.2c-0.1,0-0.2,0-0.3,0.1c0,0-0.1,0.2-0.1,0.3l-0.1,0.8c0,0.1,0,0.2,0,0.2c0,0,0.1,0.1,0.2,0.1c0.3,0,0.4,0,0.5,0
		c0.1,0,0.1-0.1,0.2-0.3c0,0,0-0.1,0-0.2c0-0.1,0-0.2,0-0.2c0-0.2,0.1-0.3,0.3-0.2c0.1,0,0.2,0.2,0.1,0.5c0,0.1,0,0.2-0.1,0.4
		c0,0.2-0.1,0.3-0.1,0.4c0,0.1,0,0.2-0.1,0.4c0,0.2,0,0.3-0.1,0.4c0,0.3-0.1,0.4-0.3,0.4c-0.1,0-0.2-0.1-0.2-0.2c0,0,0-0.1,0.1-0.3
		c0-0.2,0-0.4,0-0.4c0-0.1-0.2-0.1-0.4-0.2c-0.2,0-0.2,0-0.3,0c-0.1,0-0.1,0.1-0.1,0.2l-0.2,1.2c0,0.2,0,0.3,0,0.3
		c0,0.1,0.1,0.2,0.3,0.2l0.9,0.2c0.2,0,0.4,0,0.5-0.1c0.1-0.1,0.1-0.2,0.2-0.5c0-0.1,0-0.2,0-0.3c0-0.1,0-0.2,0-0.3
		c0-0.1,0-0.1,0.1-0.2c0.1-0.1,0.1-0.1,0.2-0.1c0.1,0,0.2,0.1,0.2,0.3c0,0.1,0,0.2-0.1,0.4c0,0.2-0.1,0.3-0.1,0.4c0,0.1,0,0.2,0,0.3
		c0,0.1,0,0.2,0,0.3c0,0.2-0.2,0.3-0.4,0.3c-0.1,0-0.2,0-0.3-0.1c-0.1,0-0.2-0.1-0.3-0.1l-1.8-0.3c-0.1,0-0.2,0-0.4,0
		c-0.2,0-0.3,0-0.4,0c-0.2,0-0.3-0.1-0.2-0.3c0-0.2,0.1-0.2,0.3-0.2c0,0,0.1,0,0.1,0c0.1,0,0.1,0,0.1,0c0.1,0,0.2,0,0.3-0.1
		c0-0.1,0.1-0.2,0.1-0.3L69.7,122.3z M73,125.8l0.2-3.1c0-0.3-0.1-0.4-0.2-0.5c0,0-0.1,0-0.2,0c-0.1,0-0.1,0-0.2,0
		c-0.2,0-0.2-0.1-0.2-0.3c0-0.2,0.1-0.3,0.3-0.2c0.1,0,0.2,0,0.4,0.1c0.2,0,0.3,0.1,0.4,0.1c0.1,0,0.3,0,0.6,0c0.3,0,0.4,0,0.6,0
		c0.9,0.1,1.4,0.6,1.3,1.5c0,0.5-0.2,0.9-0.6,1.1c-0.2,0.1-0.6,0.2-1,0.2c-0.4,0-0.6,0-0.7,0c0,0,0,0.1,0,0.1l-0.1,1
		c0,0.3,0.1,0.4,0.3,0.4c0,0,0.1,0,0.2,0c0.1,0,0.1,0,0.2,0c0.1,0,0.1,0,0.2,0.1c0,0.1,0.1,0.1,0.1,0.2c0,0.2-0.1,0.3-0.4,0.2
		c-0.1,0-0.2,0-0.4-0.1c-0.2,0-0.3-0.1-0.4-0.1c-0.1,0-0.2,0-0.4,0c-0.2,0-0.3,0-0.4,0c-0.2,0-0.3-0.1-0.3-0.3
		c0-0.2,0.1-0.2,0.3-0.2c0,0,0.1,0,0.1,0c0.1,0,0.1,0,0.1,0C72.9,126.3,73,126.1,73,125.8L73,125.8z M73.8,122.8l-0.1,1.2
		c0,0.1,0,0.2,0.1,0.2c0,0,0.1,0,0.2,0c0.4,0,0.7,0,0.9-0.1c0.3-0.1,0.4-0.4,0.4-0.7c0-0.4,0-0.6-0.2-0.8c-0.1-0.1-0.4-0.2-0.8-0.3
		C74,122.4,73.8,122.5,73.8,122.8L73.8,122.8z M77.6,122.9l-0.5,1.7c0,0.1,0,0.1,0,0.1c0,0,0,0,0,0.1c0,0,0.1,0,0.1,0l0.8,0
		c0,0,0.1,0,0.1,0c0,0,0,0,0-0.1c0,0,0-0.1,0-0.1L77.6,122.9z M78,125.3l-1.2,0c-0.1,0-0.2,0.1-0.3,0.4c-0.1,0.3-0.1,0.5-0.1,0.6
		c0,0.1,0.1,0.2,0.2,0.2c0,0,0.1,0,0.2,0c0.1,0,0.1,0,0.2,0c0.2,0,0.3,0.1,0.3,0.3c0,0.2-0.1,0.3-0.3,0.3c-0.1,0-0.2,0-0.4,0
		c-0.2,0-0.3,0-0.4,0c-0.1,0-0.2,0-0.4,0c-0.2,0-0.3,0-0.4,0c-0.1,0-0.1,0-0.2-0.1c-0.1-0.1-0.1-0.1-0.1-0.2c0-0.1,0-0.1,0.1-0.2
		c0-0.1,0.1-0.1,0.2-0.1c0,0,0,0,0.1,0c0,0,0.1,0,0.1,0c0.1,0,0.3,0,0.3-0.1c0-0.1,0.1-0.2,0.1-0.3l1.2-3.5c0.1-0.3,0.2-0.4,0.4-0.4
		c0.2,0,0.4,0.2,0.5,0.5l1,3.5c0,0.2,0.1,0.3,0.1,0.3c0.1,0.1,0.2,0.1,0.3,0.1c0,0,0,0,0.1,0c0,0,0,0,0.1,0c0.2,0,0.3,0.1,0.3,0.3
		c0,0.1,0,0.1-0.1,0.2c-0.1,0-0.1,0.1-0.2,0.1c-0.1,0-0.2,0-0.4,0c-0.2,0-0.3,0-0.4,0c-0.1,0-0.2,0-0.4,0c-0.2,0-0.3,0-0.4,0
		c-0.2,0-0.3-0.1-0.3-0.3c0-0.2,0.1-0.2,0.3-0.2c0,0,0.1,0,0.2,0c0.1,0,0.1,0,0.2,0c0.1,0,0.2-0.1,0.2-0.2c0-0.1,0-0.3-0.1-0.6
		C78.2,125.4,78.1,125.3,78,125.3L78,125.3z M81.4,126c0,0.1,0,0.2,0.1,0.3c0,0.1,0.1,0.1,0.3,0.1c0.1,0,0.2,0,0.3,0
		c0.1,0,0.3,0,0.3,0c0.1,0,0.2,0,0.3,0c0.2,0,0.3,0,0.3,0c0.1,0,0.2-0.1,0.2-0.1c0-0.1,0-0.2,0-0.3l-0.2-3c0-0.1,0-0.2-0.1-0.3
		c0-0.1-0.1-0.1-0.3-0.1c0,0-0.1,0-0.1,0c-0.1,0-0.1,0-0.1,0c-0.2,0-0.2-0.1-0.2-0.2c0-0.2,0.1-0.3,0.3-0.3c0.1,0,0.2,0,0.4,0
		c0.2,0,0.3,0,0.4,0c0.1,0,0.2,0,0.4-0.1c0.2,0,0.3-0.1,0.4-0.1c0.2,0,0.3,0.1,0.3,0.3c0,0.2-0.1,0.2-0.2,0.3c0,0-0.1,0-0.2,0
		c-0.1,0-0.1,0-0.2,0c-0.2,0-0.3,0.2-0.2,0.4l0.2,3.1c0,0.3,0.1,0.4,0.3,0.4c0,0,0.1,0,0.2,0c0.1,0,0.1,0,0.2,0
		c0.2,0,0.4,0.1,0.4,0.3c0,0.1,0,0.1,0,0.2s0,0.2,0,0.2c0,0.1,0,0.2,0,0.3c0,0.1,0,0.3,0,0.3c0,0.2-0.1,0.3-0.2,0.3
		c-0.1,0-0.1,0-0.2-0.1c-0.1-0.1-0.1-0.1-0.1-0.2c0-0.1,0-0.1,0-0.2c0-0.1,0-0.2,0-0.2c0-0.2-0.1-0.3-0.2-0.4c-0.1,0-0.4,0-0.9,0
		c-0.5,0-0.8,0-1,0c-0.2,0-0.4,0-0.7,0.1c-0.3,0-0.6,0.1-0.7,0.1c-0.3,0-0.5,0-0.5,0c-0.2,0-0.4-0.1-0.4-0.2c0-0.2,0.1-0.3,0.2-0.3
		c0,0,0.1,0,0.2,0c0.1,0,0.1,0,0.2,0c0.2,0,0.3-0.2,0.2-0.4l-0.2-3.1c0-0.3-0.1-0.4-0.3-0.4c0,0-0.1,0-0.2,0c-0.1,0-0.1,0-0.2,0
		c-0.2,0-0.3-0.1-0.3-0.2c0-0.2,0.1-0.3,0.3-0.3c0.1,0,0.2,0,0.4,0c0.2,0,0.3,0,0.4,0c0.1,0,0.2,0,0.4-0.1c0.2,0,0.3-0.1,0.4-0.1
		c0.2,0,0.3,0.1,0.4,0.2c0,0.2-0.1,0.3-0.2,0.3c0,0-0.1,0-0.1,0c-0.1,0-0.1,0-0.1,0c-0.1,0-0.2,0.1-0.2,0.1c0,0.1,0,0.2,0,0.3
		L81.4,126z M85.9,125.4l-0.5-3c0-0.3-0.2-0.4-0.3-0.4c0,0-0.1,0-0.2,0c-0.1,0-0.1,0-0.2,0c-0.2,0-0.3,0-0.3-0.2
		c0-0.2,0-0.3,0.2-0.3c0.1,0,0.2,0,0.4,0c0.2,0,0.3,0,0.4,0c0.1,0,0.2-0.1,0.4-0.1c0.2-0.1,0.3-0.1,0.4-0.1c0.2,0,0.4,0,0.4,0.2
		c0,0.2,0,0.3-0.2,0.3c0,0-0.1,0-0.1,0c-0.1,0-0.1,0-0.1,0c-0.2,0-0.3,0.2-0.2,0.4l0.3,1.7c0,0.2,0.1,0.3,0.1,0.3
		c0.1,0,0.1-0.1,0.2-0.2l1.2-1.6c0.1-0.2,0.2-0.4,0.2-0.6c0-0.1-0.1-0.2-0.1-0.3c-0.1-0.1-0.1-0.1-0.3-0.1c0,0-0.1,0-0.1,0
		c-0.1,0-0.1,0-0.1,0c-0.2,0-0.2,0-0.3-0.2c0-0.2,0.1-0.3,0.3-0.3c0.1,0,0.2,0,0.4,0c0.2,0,0.3,0,0.4,0c0.1,0,0.2,0,0.4-0.1
		c0.2-0.1,0.3-0.1,0.4-0.1c0.2,0,0.3,0,0.3,0.2c0,0.2,0,0.3-0.2,0.3c0,0-0.1,0-0.2,0c-0.1,0-0.1,0-0.2,0c-0.2,0-0.3,0.2-0.2,0.4
		l0.5,3c0,0.3,0.2,0.4,0.3,0.4c0,0,0.1,0,0.2,0c0.1,0,0.1,0,0.2,0c0.2,0,0.3,0,0.3,0.2c0,0.2,0,0.3-0.2,0.3c-0.1,0-0.2,0-0.4,0
		c-0.2,0-0.3,0-0.4,0c-0.1,0-0.2,0.1-0.4,0.1c-0.2,0.1-0.3,0.1-0.4,0.1c-0.2,0-0.4,0-0.4-0.2c0-0.2,0-0.3,0.2-0.3c0,0,0.1,0,0.1,0
		c0.1,0,0.1,0,0.1,0c0.1,0,0.2-0.1,0.2-0.2c0-0.1,0-0.2,0-0.3l-0.3-1.8c0-0.1,0-0.2,0-0.2c-0.1,0-0.3,0.3-0.7,0.8
		c-0.2,0.3-0.4,0.6-0.7,0.9c-0.1,0.1-0.2,0.2-0.2,0.3c0,0.1,0,0.2,0,0.4c0,0.1,0.1,0.2,0.1,0.3c0.1,0.1,0.1,0.1,0.3,0.1
		c0,0,0.1,0,0.1,0s0.1,0,0.1,0c0.2,0,0.2,0,0.3,0.2c0,0.2-0.1,0.3-0.3,0.3c-0.1,0-0.2,0-0.4,0c-0.2,0-0.3,0-0.4,0
		c-0.1,0-0.2,0-0.4,0.1c-0.2,0.1-0.3,0.1-0.4,0.1c-0.2,0-0.3,0-0.3-0.2c0-0.2,0-0.3,0.2-0.3c0,0,0.1,0,0.2,0c0.1,0,0.1,0,0.2,0
		C85.9,125.8,86,125.7,85.9,125.4L85.9,125.4z"/>
	<path id="path33" class="st3" d="M92.1,120.8l0.8,3c0.1,0.3,0.2,0.4,0.4,0.3c0,0,0.1,0,0.1-0.1c0.1,0,0.1,0,0.1-0.1
		c0.2,0,0.3,0,0.3,0.2c0,0.2,0,0.3-0.2,0.3c-0.1,0-0.2,0.1-0.4,0.1c-0.2,0-0.3,0.1-0.4,0.1c-0.1,0-0.2,0.1-0.4,0.1
		c-0.2,0.1-0.3,0.1-0.4,0.1c-0.2,0.1-0.4,0-0.4-0.2c0-0.1,0-0.1,0-0.2c0-0.1,0.1-0.1,0.1-0.1c0,0,0.1,0,0.2,0c0.1,0,0.1,0,0.2,0
		c0.2-0.1,0.3-0.2,0.2-0.5l-0.3-0.9c0-0.2-0.1-0.2-0.2-0.2c-0.7,0.2-1,0.4-1.1,0.5c0,0.1,0,0.3,0,0.6c0,0,0,0.1,0.1,0.2
		c0,0.1,0,0.2,0.1,0.2c0.1,0.3,0.1,0.5,0.1,0.7c0,0.2-0.2,0.4-0.5,0.4c-0.3,0.1-0.5,0-0.6-0.1c-0.1-0.1-0.2-0.3-0.3-0.6l-0.2-0.7
		c-0.1-0.2,0-0.3,0.2-0.3c0.2,0,0.3,0,0.3,0.2l0.2,0.6c0.1,0.2,0.1,0.3,0.1,0.3c0.1,0.1,0.1,0.2,0.2,0.2c0.1,0,0.2-0.2,0.1-0.5
		c0,0,0-0.1-0.1-0.2c0-0.1,0-0.2-0.1-0.2c-0.1-0.4-0.1-0.8,0.1-1c-0.5-0.1-0.8-0.4-0.9-1c-0.3-0.9,0.1-1.5,0.9-1.7
		c0.1,0,0.3-0.1,0.6-0.1c0.3-0.1,0.5-0.1,0.6-0.1c0.1,0,0.2-0.1,0.3-0.1c0.1-0.1,0.3-0.1,0.3-0.1c0.2-0.1,0.3,0,0.3,0.2
		c0,0.2,0,0.3-0.2,0.3c0,0-0.1,0-0.2,0c-0.1,0-0.1,0-0.2,0C92,120.4,92,120.5,92.1,120.8z M90,121.9c0.1,0.3,0.2,0.6,0.4,0.6
		c0.2,0.1,0.4,0.1,0.8,0c0.5-0.1,0.7-0.3,0.6-0.4l-0.3-1.2c-0.1-0.3-0.3-0.3-0.8-0.2c-0.3,0.1-0.6,0.2-0.7,0.4
		C89.9,121.3,89.9,121.6,90,121.9z M96.5,118.1c0.1,0,0.2-0.1,0.3-0.2c0.1-0.1,0.2-0.1,0.3-0.2c0.2-0.1,0.4,0,0.5,0.2
		c0,0.1,0.1,0.2,0.1,0.3c0,0.1,0.1,0.2,0.1,0.3c0,0.1,0.1,0.2,0.2,0.4c0.1,0.2,0.1,0.3,0.2,0.4c0.1,0.2,0.1,0.3-0.1,0.4
		c-0.1,0-0.1,0-0.2,0c-0.1,0-0.1-0.1-0.2-0.2c0-0.1-0.1-0.2-0.1-0.3c0-0.1-0.1-0.2-0.1-0.3c-0.1-0.2-0.2-0.3-0.3-0.4
		c-0.1-0.1-0.3,0-0.5,0.1l-0.7,0.3c-0.1,0.1-0.2,0.1-0.2,0.2c0,0.1,0,0.2,0.1,0.3l1.2,2.7c0.1,0.3,0.3,0.3,0.6,0.2
		c0,0,0.1,0,0.2-0.1c0.1,0,0.1-0.1,0.2-0.1c0.2-0.1,0.3,0,0.3,0.1c0.1,0.2,0,0.3-0.2,0.4c-0.1,0-0.3,0.1-0.5,0.2
		c-0.2,0.1-0.4,0.1-0.5,0.2c-0.1,0-0.2,0.1-0.4,0.2c-0.2,0.1-0.3,0.2-0.4,0.2c-0.2,0.1-0.3,0-0.4-0.1c0-0.1,0-0.1,0-0.2
		c0-0.1,0.1-0.1,0.1-0.1c0,0,0.1,0,0.2-0.1c0.1,0,0.1,0,0.2-0.1c0.1-0.1,0.2-0.1,0.2-0.2c0-0.1,0-0.2-0.1-0.3l-1.2-2.7
		c-0.1-0.3-0.3-0.4-0.5-0.3c0,0-0.1,0-0.1,0.1c-0.1,0-0.1,0.1-0.1,0.1c-0.2,0.1-0.3,0-0.3-0.1c-0.1-0.2,0-0.3,0.3-0.4
		c0.1,0,0.3-0.1,0.5-0.2c0.2-0.1,0.4-0.1,0.5-0.2L96.5,118.1z M101.6,118.2c0.3,0.6,0.4,1.2,0.4,1.7c-0.1,0.6-0.4,1.1-0.9,1.4
		c-0.6,0.3-1.1,0.3-1.7,0c-0.4-0.3-0.8-0.7-1.1-1.3c-0.3-0.6-0.5-1.2-0.4-1.7c0-0.6,0.4-1.1,0.9-1.4c0.6-0.3,1.1-0.3,1.7,0.1
		C100.9,117.2,101.3,117.6,101.6,118.2z M100.9,120.8c0.4-0.2,0.6-0.6,0.6-1.1c0-0.4-0.1-0.8-0.4-1.3c-0.2-0.4-0.5-0.8-0.8-1
		c-0.4-0.3-0.8-0.4-1.2-0.2c-0.4,0.2-0.6,0.6-0.6,1.1c0,0.4,0.1,0.8,0.4,1.3c0.2,0.4,0.5,0.8,0.8,1C100.1,121,100.5,121,100.9,120.8
		L100.9,120.8z M103.1,119l-1.7-2.6c-0.2-0.2-0.3-0.3-0.5-0.2c0,0-0.1,0.1-0.1,0.1c-0.1,0.1-0.1,0.1-0.1,0.1
		c-0.1,0.1-0.3,0.1-0.3-0.1c-0.1-0.2-0.1-0.3,0.1-0.4c0.1,0,0.2-0.1,0.4-0.2c0.2-0.1,0.3-0.1,0.4-0.2c0.1-0.1,0.3-0.2,0.5-0.3
		s0.4-0.3,0.5-0.3c0.8-0.5,1.4-0.4,1.9,0.4c0.3,0.5,0.4,0.9,0.2,1.2c-0.1,0.2-0.3,0.5-0.7,0.7c-0.3,0.2-0.5,0.4-0.5,0.4
		c0,0,0,0.1,0,0.1l0.6,0.9c0.2,0.2,0.3,0.3,0.5,0.2c0,0,0.1-0.1,0.1-0.1c0,0,0.1-0.1,0.1-0.1c0.1,0,0.1,0,0.2,0
		c0.1,0,0.1,0.1,0.2,0.1c0.1,0.1,0,0.3-0.2,0.4c-0.1,0-0.2,0.1-0.4,0.2c-0.2,0.1-0.3,0.1-0.4,0.2c-0.1,0.1-0.2,0.1-0.3,0.3
		c-0.2,0.1-0.3,0.2-0.3,0.3c-0.2,0.1-0.3,0.1-0.4-0.1c-0.1-0.1-0.1-0.3,0.1-0.3c0,0,0.1,0,0.1-0.1c0.1,0,0.1,0,0.1-0.1
		C103.2,119.4,103.2,119.3,103.1,119L103.1,119z M101.9,116.1l0.7,1c0.1,0.1,0.1,0.1,0.2,0.1c0,0,0.1,0,0.2-0.1
		c0.4-0.2,0.6-0.4,0.7-0.6c0.1-0.2,0.1-0.5-0.1-0.8c-0.2-0.3-0.4-0.5-0.6-0.5c-0.2,0-0.5,0.1-0.8,0.3
		C101.8,115.7,101.7,115.9,101.9,116.1z M107.4,114.1c0.4,0.5,0.7,1.1,0.7,1.6c0.1,0.6-0.1,1.1-0.7,1.5c-0.5,0.4-1.1,0.5-1.6,0.3
		c-0.5-0.2-0.9-0.5-1.4-1.1c-0.4-0.5-0.7-1.1-0.7-1.6c-0.1-0.6,0.1-1.1,0.6-1.5c0.5-0.4,1-0.5,1.6-0.3
		C106.6,113.2,107,113.5,107.4,114.1z M107.2,116.8c0.4-0.3,0.5-0.7,0.4-1.2c-0.1-0.4-0.3-0.8-0.6-1.2c-0.3-0.4-0.6-0.7-1-0.9
		c-0.5-0.2-0.9-0.2-1.2,0.1c-0.4,0.3-0.5,0.7-0.4,1.2c0.1,0.4,0.3,0.8,0.6,1.2c0.3,0.4,0.6,0.7,1,0.9
		C106.4,117.1,106.8,117.1,107.2,116.8z M108.3,113.7l-1.2-1.4c-0.2-0.2-0.4-0.2-0.5-0.1c0,0-0.1,0.1-0.1,0.1
		c-0.1,0.1-0.1,0.1-0.1,0.1c-0.1,0.1-0.2,0.1-0.4,0c-0.1-0.1-0.1-0.2,0.1-0.4c0,0,0.2-0.2,0.3-0.3c0.1-0.1,0.3-0.3,0.6-0.5
		c0.3-0.2,0.5-0.4,0.6-0.5c0.1-0.1,0.3-0.2,0.5-0.5c0.2-0.2,0.4-0.4,0.5-0.5c0.2-0.2,0.3-0.3,0.4-0.3c0.2-0.1,0.4-0.2,0.5-0.1
		c0.1,0.1,0.1,0.2,0,0.4c0,0-0.1,0.1-0.1,0.1c-0.1,0-0.1,0.1-0.1,0.1c-0.2,0.1-0.1,0.3,0,0.5l2,2.3c0.2,0.2,0.3,0.3,0.5,0.1
		c0,0,0.1-0.1,0.1-0.1c0.1-0.1,0.1-0.1,0.1-0.1c0.2-0.2,0.4-0.1,0.5,0c0,0,0.1,0.1,0.1,0.2c0.1,0.1,0.1,0.1,0.1,0.2
		c0,0.1,0.1,0.1,0.2,0.2c0.1,0.1,0.2,0.2,0.2,0.2c0.1,0.1,0.1,0.3,0,0.4c-0.1,0.1-0.1,0.1-0.2,0.1c-0.1,0-0.1,0-0.2-0.1
		c0,0-0.1-0.1-0.1-0.2c-0.1-0.1-0.1-0.2-0.1-0.2c-0.2-0.2-0.3-0.3-0.4-0.2c-0.1,0-0.2,0.1-0.4,0.3c-0.1,0.1-0.3,0.2-0.5,0.4
		c-0.2,0.2-0.4,0.3-0.5,0.4c-0.1,0.1-0.3,0.2-0.5,0.4c-0.2,0.2-0.4,0.3-0.5,0.4c-0.2,0.2-0.3,0.3-0.4,0.4c-0.1,0.2-0.1,0.3,0.1,0.5
		c0,0,0.1,0.1,0.2,0.2c0.1,0.1,0.1,0.1,0.2,0.2c0.1,0.1,0.1,0.1,0.1,0.2c0,0.1,0,0.1-0.1,0.2c-0.1,0.1-0.2,0.1-0.4-0.1
		c0-0.1-0.1-0.1-0.2-0.3c-0.1-0.1-0.2-0.2-0.2-0.3c0,0-0.1-0.1-0.2-0.2c-0.1-0.1-0.1-0.1-0.2-0.2c-0.2-0.2-0.2-0.3,0-0.5
		c0,0,0.1-0.1,0.1-0.1c0.1,0,0.1-0.1,0.1-0.1C109.2,115.1,109,114.6,108.3,113.7z M109.5,114.6c0.1,0.1,0.3,0,0.5-0.2l0.4-0.4
		c0.2-0.2,0.3-0.3,0.3-0.3c0.1-0.1,0-0.3-0.1-0.4l-2-2.3c-0.1-0.1-0.2-0.2-0.2-0.2c-0.1,0-0.2,0-0.3,0.1c0,0-0.1,0.1-0.2,0.2
		c-0.1,0.1-0.2,0.2-0.2,0.2c0,0-0.1,0.1-0.2,0.1c-0.1,0.1-0.1,0.1-0.2,0.1c-0.1,0.1-0.1,0.2-0.1,0.3c0,0.1,0.1,0.1,0.2,0.2
		c0.1,0.1,0.3,0.3,0.5,0.6c0.2,0.2,0.4,0.4,0.5,0.6c0.2,0.2,0.3,0.4,0.5,0.6c0,0.1,0.1,0.2,0.2,0.4
		C109.3,114.4,109.4,114.5,109.5,114.6L109.5,114.6z M111.6,106.5c0.3-0.4,0.7-0.5,1.1-0.5c-0.1-0.1-0.2-0.2-0.2-0.2
		c-0.1-0.1-0.1-0.2,0-0.3c0.1-0.1,0.2-0.1,0.3,0c0.1,0.1,0.2,0.2,0.3,0.3c0.1,0.1,0.2,0.2,0.3,0.3c0.1,0.1,0.2,0.1,0.3,0.2
		c0.1,0.1,0.2,0.2,0.3,0.2c0.2,0.1,0.2,0.3,0.1,0.4c-0.1,0.1-0.2,0.1-0.3,0c0,0-0.1-0.1-0.3-0.3c-0.2-0.2-0.4-0.2-0.7-0.2
		c-0.3,0-0.5,0.1-0.7,0.3c-0.3,0.3-0.3,0.7-0.1,1.2c0.2,0.4,0.4,0.7,0.8,1c0.4,0.3,0.8,0.6,1.1,0.7c0.5,0.1,0.9,0,1.2-0.3
		c0.3-0.3,0.3-0.6,0.2-0.9c0-0.1-0.2-0.4-0.4-0.7c-0.2-0.2-0.2-0.4-0.1-0.5c0.1-0.1,0.3-0.1,0.4,0c0.4,0.3,0.6,0.7,0.7,1.1
		c0.1,0.4-0.1,0.8-0.4,1.2c-0.4,0.5-0.9,0.7-1.6,0.6c-0.5-0.1-1-0.3-1.5-0.8c-0.5-0.4-0.8-0.9-1-1.4
		C111.1,107.5,111.2,107,111.6,106.5L111.6,106.5z M114.4,104.2l1.1,1.4c0,0.1,0.1,0.1,0.1,0.1c0,0,0,0,0.1,0c0,0,0.1-0.1,0.1-0.1
		l0.5-0.6c0,0,0,0,0-0.1c0,0,0,0,0-0.1c0,0-0.1,0-0.1-0.1L114.4,104.2z M116.6,105.2l-0.7,1c0,0.1,0,0.2,0.2,0.5
		c0.2,0.2,0.3,0.4,0.5,0.5c0.1,0.1,0.2,0,0.2,0c0,0,0-0.1,0.1-0.1c0-0.1,0.1-0.1,0.1-0.1c0.1-0.2,0.2-0.2,0.4-0.1
		c0.1,0.1,0.2,0.2,0.1,0.4c-0.1,0.1-0.2,0.2-0.3,0.3c-0.1,0.1-0.2,0.3-0.3,0.3c0,0.1-0.1,0.2-0.2,0.3c-0.1,0.1-0.1,0.3-0.2,0.3
		c0,0.1-0.1,0.1-0.2,0.1c-0.1,0-0.1,0-0.2,0c-0.1,0-0.1-0.1-0.1-0.2c0-0.1,0-0.1,0-0.2c0,0,0,0,0.1-0.1c0,0,0.1-0.1,0.1-0.1
		c0.1-0.1,0.1-0.2,0.1-0.3c0-0.1-0.1-0.2-0.2-0.3l-2.2-2.9c-0.2-0.2-0.2-0.4-0.1-0.6c0.1-0.2,0.3-0.2,0.7-0.1l3.4,1.2
		c0.1,0,0.3,0.1,0.3,0.1c0.1,0,0.2-0.1,0.3-0.2c0,0,0,0,0-0.1c0,0,0,0,0-0.1c0.1-0.2,0.3-0.2,0.4-0.1c0.1,0,0.1,0.1,0.1,0.2
		c0,0.1,0,0.1-0.1,0.2c-0.1,0.1-0.1,0.2-0.3,0.3c-0.1,0.1-0.2,0.2-0.3,0.3c-0.1,0.1-0.1,0.2-0.2,0.4c-0.1,0.2-0.2,0.3-0.2,0.4
		c-0.1,0.1-0.2,0.2-0.4,0.1c-0.1-0.1-0.2-0.2-0.1-0.4c0,0,0.1-0.1,0.1-0.1c0-0.1,0.1-0.1,0.1-0.1c0.1-0.1,0-0.2-0.1-0.3
		c-0.1-0.1-0.3-0.2-0.5-0.3C116.9,105.1,116.7,105.1,116.6,105.2L116.6,105.2z M118.9,103.3l-2.7-1.5c-0.3-0.1-0.4-0.1-0.5,0
		c0,0,0,0.1-0.1,0.2c0,0.1,0,0.1-0.1,0.2c-0.1,0.1-0.2,0.2-0.3,0.1c-0.2-0.1-0.2-0.2-0.1-0.4c0-0.1,0.1-0.2,0.2-0.3
		c0.1-0.1,0.2-0.3,0.2-0.3c0.1-0.1,0.1-0.3,0.3-0.5c0.1-0.2,0.2-0.4,0.3-0.5c0.5-0.8,1.1-1,1.9-0.5c0.5,0.3,0.7,0.6,0.7,1
		c0,0.3-0.1,0.6-0.3,1c-0.2,0.4-0.3,0.6-0.2,0.6c0,0,0.1,0,0.1,0.1l0.9,0.5c0.2,0.1,0.4,0.1,0.5-0.1c0,0,0-0.1,0.1-0.1
		c0-0.1,0-0.1,0.1-0.1c0-0.1,0.1-0.1,0.2-0.1c0.1,0,0.1,0,0.2,0c0.2,0.1,0.2,0.2,0,0.5c0,0.1-0.1,0.2-0.2,0.3
		c-0.1,0.1-0.2,0.3-0.2,0.3c0,0.1-0.1,0.2-0.2,0.4c-0.1,0.2-0.1,0.3-0.2,0.4c-0.1,0.2-0.2,0.2-0.4,0.1c-0.1-0.1-0.2-0.2-0.1-0.3
		c0,0,0-0.1,0.1-0.1c0-0.1,0.1-0.1,0.1-0.1C119.2,103.6,119.1,103.4,118.9,103.3z M116.5,101.3l1.1,0.6c0.1,0.1,0.2,0.1,0.2,0
		c0,0,0.1-0.1,0.1-0.2c0.2-0.4,0.3-0.6,0.3-0.8c0-0.3-0.2-0.5-0.5-0.7c-0.3-0.2-0.6-0.2-0.8-0.1c-0.2,0.1-0.4,0.3-0.6,0.6
		C116.2,100.9,116.2,101.1,116.5,101.3L116.5,101.3z M118.2,97.9l1.3,1.2c0.1,0.1,0.1,0.1,0.1,0.1s0,0,0.1,0c0,0,0-0.1,0.1-0.1
		l0.4-0.7c0,0,0-0.1,0-0.1c0,0,0,0,0,0c0,0-0.1,0-0.1,0L118.2,97.9z M120.6,98.5l-0.5,1c0,0.1,0.1,0.2,0.3,0.4
		c0.2,0.2,0.4,0.3,0.5,0.4c0.1,0.1,0.2,0,0.2-0.1c0,0,0-0.1,0.1-0.1c0-0.1,0-0.1,0.1-0.1c0.1-0.2,0.2-0.2,0.4-0.1
		c0.2,0.1,0.2,0.2,0.1,0.4c0,0.1-0.1,0.2-0.2,0.4c-0.1,0.2-0.2,0.3-0.2,0.4c0,0.1-0.1,0.2-0.1,0.3c-0.1,0.2-0.1,0.3-0.1,0.3
		c0,0.1-0.1,0.1-0.2,0.1c-0.1,0-0.1,0-0.2,0c-0.1,0-0.1-0.1-0.1-0.1c0-0.1,0-0.1,0-0.2c0,0,0,0,0.1-0.1c0,0,0-0.1,0.1-0.1
		c0.1-0.1,0.1-0.2,0-0.3c0-0.1-0.1-0.2-0.2-0.3l-2.6-2.6c-0.2-0.2-0.3-0.4-0.2-0.6c0.1-0.2,0.3-0.3,0.6-0.2l3.6,0.7
		c0.2,0,0.3,0,0.3,0c0.1,0,0.2-0.1,0.3-0.2c0,0,0,0,0-0.1c0,0,0,0,0-0.1c0.1-0.2,0.2-0.3,0.4-0.2c0.1,0,0.1,0.1,0.1,0.2
		c0,0.1,0,0.1,0,0.2c0,0.1-0.1,0.2-0.2,0.3c-0.1,0.1-0.2,0.2-0.2,0.3c0,0.1-0.1,0.2-0.2,0.4c-0.1,0.2-0.1,0.3-0.2,0.4
		c-0.1,0.2-0.2,0.2-0.4,0.1c-0.1-0.1-0.2-0.2-0.1-0.4c0,0,0-0.1,0.1-0.1c0-0.1,0.1-0.1,0.1-0.1c0-0.1,0-0.2-0.1-0.2
		c-0.1-0.1-0.3-0.1-0.6-0.2C120.8,98.4,120.6,98.4,120.6,98.5L120.6,98.5z M122.4,96.3l-2.7-1.1c-0.2-0.1-0.3-0.1-0.4-0.1
		c-0.1,0-0.2,0.1-0.2,0.3c-0.1,0.2-0.1,0.4-0.1,0.5c0.1,0.1,0.2,0.2,0.4,0.3c0.1,0,0.2,0.1,0.3,0.1c0.1,0,0.2,0.1,0.3,0.1
		c0.1,0,0.1,0.1,0.2,0.1c0,0.1,0,0.1,0,0.2c-0.1,0.1-0.2,0.2-0.4,0.1c-0.1,0-0.2-0.1-0.4-0.2c-0.2-0.1-0.3-0.1-0.4-0.2
		c-0.1,0-0.2-0.1-0.3-0.1c-0.1,0-0.2-0.1-0.3-0.1c-0.2-0.1-0.3-0.2-0.2-0.5c0-0.1,0.1-0.3,0.2-0.5c0.1-0.2,0.2-0.4,0.2-0.5l0.2-0.5
		c0-0.1,0.1-0.3,0.2-0.5c0.1-0.2,0.1-0.4,0.2-0.5c0.1-0.2,0.2-0.3,0.5-0.2c0.1,0,0.1,0.1,0.3,0.1c0.1,0.1,0.2,0.1,0.3,0.1
		c0.1,0,0.2,0.1,0.4,0.1c0.2,0.1,0.3,0.1,0.4,0.1c0.2,0.1,0.2,0.2,0.2,0.3c0,0.1-0.1,0.1-0.2,0.1c-0.1,0-0.2,0-0.2,0
		c-0.1,0-0.1-0.1-0.3-0.1c-0.1-0.1-0.2-0.1-0.3-0.1c-0.2-0.1-0.4-0.1-0.5-0.1c-0.1,0-0.2,0.2-0.3,0.4c-0.1,0.2-0.1,0.3,0,0.3
		c0,0.1,0.1,0.1,0.3,0.2l2.7,1.1c0.2,0.1,0.3,0.1,0.3,0.1c0.1,0,0.2-0.1,0.2-0.2c0,0,0-0.1,0-0.1c0-0.1,0-0.1,0-0.1
		c0.1-0.2,0.2-0.2,0.3-0.2c0.2,0.1,0.2,0.2,0.1,0.5c0,0.1-0.1,0.2-0.2,0.4c-0.1,0.2-0.2,0.3-0.2,0.4c0,0.1-0.1,0.2-0.1,0.4
		c0,0.2-0.1,0.3-0.1,0.4c0,0.1-0.1,0.2-0.2,0.2c-0.1,0.1-0.2,0.1-0.3,0c-0.1,0-0.1-0.1-0.1-0.1c0-0.1,0-0.1,0-0.2c0,0,0-0.1,0.1-0.1
		c0-0.1,0.1-0.1,0.1-0.1c0.1-0.1,0.1-0.3,0-0.3C122.6,96.4,122.5,96.3,122.4,96.3L122.4,96.3z M123.1,90.1c0.6,0.2,1.1,0.5,1.5,0.9
		c0.4,0.5,0.5,1,0.3,1.6c-0.2,0.6-0.6,1-1.2,1.1c-0.5,0.1-1.1,0.1-1.7-0.2c-0.6-0.2-1.1-0.5-1.5-0.9c-0.4-0.5-0.5-1-0.3-1.6
		c0.2-0.6,0.6-1,1.2-1.1C121.9,89.8,122.4,89.9,123.1,90.1L123.1,90.1z M124.3,92.5c0.1-0.4,0-0.8-0.3-1.2c-0.3-0.3-0.7-0.5-1.1-0.6
		c-0.5-0.2-0.9-0.2-1.3-0.2c-0.5,0.1-0.8,0.3-1,0.7c-0.1,0.4,0,0.8,0.3,1.2c0.3,0.3,0.7,0.5,1.1,0.6c0.5,0.2,0.9,0.2,1.3,0.2
		C123.9,93.1,124.2,92.9,124.3,92.5z M124.6,89.7l-2.9-0.7c-0.3-0.1-0.4,0-0.5,0.2c0,0,0,0.1,0,0.2c0,0.1,0,0.1,0,0.2
		c0,0.2-0.1,0.2-0.3,0.2c-0.2,0-0.2-0.1-0.2-0.3c0-0.1,0.1-0.2,0.1-0.4c0.1-0.2,0.1-0.3,0.1-0.4c0-0.1,0.1-0.3,0.1-0.6
		c0-0.3,0.1-0.5,0.1-0.6c0.2-0.9,0.7-1.3,1.4-1.1c0.5,0.1,0.8,0.4,0.9,0.9c0.3-0.5,0.8-0.7,1.4-0.6c0.4,0.1,0.8,0.3,0.9,0.6
		s0.2,0.7,0.1,1.2c0,0.1-0.1,0.3-0.2,0.5c-0.1,0.2-0.1,0.4-0.2,0.5c0,0.1,0,0.2-0.1,0.4c0,0.2,0,0.3-0.1,0.4c0,0.2-0.1,0.2-0.3,0.2
		c-0.2,0-0.2-0.1-0.2-0.3c0,0,0-0.1,0.1-0.2c0-0.1,0.1-0.1,0.1-0.2c0-0.1,0-0.2-0.1-0.3C124.9,89.7,124.7,89.7,124.6,89.7
		L124.6,89.7z M123.7,88.9l1,0.2c0.2,0.1,0.4,0,0.5-0.1c0-0.1,0.1-0.2,0.2-0.5c0.2-0.7-0.1-1.1-0.7-1.2c-0.4-0.1-0.6,0-0.8,0.2
		c-0.2,0.1-0.3,0.4-0.4,0.8c-0.1,0.2-0.1,0.4-0.1,0.4C123.4,88.8,123.5,88.8,123.7,88.9L123.7,88.9z M121.7,88.4l0.9,0.2
		c0.1,0,0.2-0.1,0.3-0.3c0.1-0.4,0.1-0.7,0.1-0.9c-0.1-0.3-0.3-0.4-0.6-0.5c-0.3-0.1-0.5,0-0.6,0.2c-0.1,0.1-0.2,0.3-0.3,0.7
		c0,0.2-0.1,0.4-0.1,0.4C121.5,88.3,121.6,88.4,121.7,88.4z"/>
</g>
</svg>
