<?xml version="1.0" encoding="utf-8"?>
<!-- Generator: Adobe Illustrator 26.4.1, SVG Export Plug-In . SVG Version: 6.00 Build 0)  -->
<svg version="1.1"
	 id="svg29" xmlns:svg="http://www.w3.org/2000/svg" xmlns:rdf="http://www.w3.org/1999/02/22-rdf-syntax-ns#" xmlns:cc="http://creativecommons.org/ns#" xmlns:dc="http://purl.org/dc/elements/1.1/"
	 xmlns="http://www.w3.org/2000/svg" xmlns:xlink="http://www.w3.org/1999/xlink" x="0px" y="0px" viewBox="0 0 155.9 155.9"
	 style="enable-background:new 0 0 155.9 155.9;" xml:space="preserve">
<style type="text/css">
	.st0{fill:none;stroke:#1B1918;stroke-width:1.4173;}
	.st1{fill:none;stroke:#1B1918;stroke-width:0.5669;}
	.st2{fill-rule:evenodd;clip-rule:evenodd;fill:#1B1918;}
	.st3{fill:#1B1918;}
</style>
<path id="path6" class="st0" d="M78,25.1c29.2,0,52.9,23.7,52.9,52.9c0,29.2-23.7,52.9-52.9,52.9c-29.2,0-52.9-23.7-52.9-52.9
	C25.1,48.8,48.8,25.1,78,25.1z"/>
<path id="path8" class="st1" d="M78,26.6c28.3,0,51.3,23,51.3,51.3c0,28.3-23,51.3-51.3,51.3c-28.3,0-51.3-23-51.3-51.3
	C26.6,49.6,49.6,26.6,78,26.6z"/>
<path id="path10" class="st2" d="M31.1,82.4c0-0.2-0.1-0.4-0.1-0.7c-0.1-0.3-0.2-0.5-0.2-0.7c0-0.2,0-0.3,0.1-0.4
	c0.1-0.1,0.2-0.1,0.3-0.1c0.1,0,0.2,0,0.3,0.1c0.1,0.1,0.1,0.2,0.1,0.4c0,0.1,0,0.3-0.1,0.6c-0.1,0.3-0.1,0.5-0.2,0.7
	c0.2-0.1,0.3-0.3,0.5-0.4c0.2-0.3,0.4-0.4,0.5-0.5c0.1-0.1,0.2-0.1,0.3-0.1c0.1,0,0.2,0,0.3,0.1c0.1,0.1,0.1,0.2,0.1,0.3
	c0,0.1-0.1,0.2-0.2,0.3c-0.1,0.1-0.4,0.2-0.8,0.3c-0.3,0.1-0.5,0.1-0.6,0.2c0.2,0.1,0.4,0.2,0.6,0.2c0.4,0.1,0.7,0.2,0.8,0.3
	c0.1,0.1,0.2,0.2,0.2,0.4c0,0.1,0,0.2-0.1,0.3c-0.1,0.1-0.2,0.1-0.3,0.1c-0.1,0-0.2,0-0.3-0.1c-0.1-0.1-0.3-0.2-0.5-0.5
	c-0.1-0.2-0.3-0.3-0.5-0.5c0,0.2,0,0.4,0.1,0.6c0.1,0.4,0.2,0.6,0.2,0.8c0,0.1,0,0.2-0.1,0.3c-0.1,0.1-0.2,0.1-0.2,0.1
	c-0.1,0-0.2,0-0.3-0.1c-0.1-0.1-0.1-0.2-0.1-0.3c0-0.2,0-0.3,0.1-0.6c0.1-0.2,0.1-0.4,0.1-0.5c0-0.1,0-0.2,0.1-0.4
	c-0.2,0.1-0.4,0.3-0.5,0.4c-0.2,0.3-0.4,0.4-0.5,0.5c-0.1,0.1-0.2,0.1-0.3,0.1c-0.1,0-0.2,0-0.3-0.1c-0.1-0.1-0.1-0.2-0.1-0.2
	c0-0.1,0-0.2,0.1-0.3c0.1-0.1,0.2-0.2,0.3-0.2c0.1,0,0.3-0.1,0.6-0.2c0.2,0,0.4-0.1,0.6-0.2c-0.2-0.1-0.4-0.2-0.6-0.2
	c-0.4-0.1-0.6-0.2-0.7-0.2c-0.1-0.1-0.2-0.2-0.2-0.4c0-0.1,0-0.2,0.1-0.2c0.1-0.1,0.2-0.1,0.3-0.1c0.1,0,0.2,0,0.3,0.1
	c0.1,0.1,0.3,0.2,0.4,0.4C30.7,82.2,30.9,82.3,31.1,82.4z"/>
<path id="path12" class="st2" d="M124.2,83.1c0-0.2-0.1-0.4-0.1-0.7c-0.1-0.3-0.2-0.5-0.2-0.7c0-0.2,0-0.3,0.1-0.4
	c0.1-0.1,0.2-0.1,0.3-0.1c0.1,0,0.2,0,0.3,0.1c0.1,0.1,0.1,0.2,0.1,0.4c0,0.1,0,0.3-0.1,0.6c-0.1,0.3-0.1,0.5-0.2,0.7
	c0.2-0.1,0.3-0.3,0.5-0.4c0.2-0.3,0.4-0.4,0.5-0.5c0.1-0.1,0.2-0.1,0.3-0.1c0.1,0,0.2,0,0.3,0.1c0.1,0.1,0.1,0.2,0.1,0.3
	c0,0.1-0.1,0.2-0.2,0.3c-0.1,0.1-0.4,0.2-0.8,0.3c-0.2,0.1-0.5,0.1-0.6,0.2c0.2,0.1,0.4,0.2,0.6,0.2c0.4,0.1,0.7,0.2,0.8,0.3
	c0.1,0.1,0.2,0.2,0.2,0.4c0,0.1,0,0.2-0.1,0.3c-0.1,0.1-0.2,0.1-0.3,0.1c-0.1,0-0.2,0-0.3-0.1c-0.1-0.1-0.3-0.2-0.5-0.5
	c-0.1-0.2-0.3-0.3-0.5-0.5c0,0.2,0,0.4,0.1,0.6c0.1,0.4,0.2,0.6,0.2,0.8c0,0.1,0,0.2-0.1,0.3c-0.1,0.1-0.2,0.1-0.2,0.1
	c-0.1,0-0.2,0-0.3-0.1c-0.1-0.1-0.1-0.2-0.1-0.3c0-0.2,0-0.3,0.1-0.6c0.1-0.2,0.1-0.4,0.1-0.5c0-0.1,0-0.2,0.1-0.4
	c-0.2,0.1-0.4,0.3-0.5,0.4c-0.2,0.3-0.4,0.4-0.5,0.5c-0.1,0.1-0.2,0.1-0.3,0.1c-0.1,0-0.2,0-0.3-0.1c-0.1-0.1-0.1-0.2-0.1-0.2
	c0-0.1,0-0.2,0.1-0.3c0.1-0.1,0.2-0.2,0.3-0.2c0.1,0,0.3-0.1,0.6-0.2c0.2,0,0.4-0.1,0.6-0.2c-0.2-0.1-0.4-0.2-0.6-0.2
	c-0.4-0.1-0.6-0.2-0.7-0.2c-0.1-0.1-0.2-0.2-0.2-0.4c0-0.1,0-0.2,0.1-0.2c0.1-0.1,0.2-0.1,0.3-0.1c0.1,0,0.2,0,0.3,0.1
	c0.1,0.1,0.3,0.2,0.4,0.4C123.8,82.8,124,83,124.2,83.1z"/>
<g>
	<path class="st3" d="M51.8,106.3c-0.1,0-0.2,0-0.3,0.1c-0.1,0.1-0.3,0.3-0.6,0.5c-0.3,0.3-0.4,0.5-0.5,0.6
		c-0.1,0.1-0.1,0.2-0.1,0.3c0,0.1,0,0.1,0.1,0.2c0.1,0,0.1,0.1,0.2,0.1c0.1,0,0.2,0,0.3-0.1c0.1-0.1,0.3-0.3,0.6-0.5
		c0.3-0.3,0.4-0.5,0.5-0.6c0.1-0.1,0.1-0.2,0.1-0.3c0-0.1,0-0.1-0.1-0.2C51.9,106.4,51.8,106.4,51.8,106.3z"/>
	<path class="st3" d="M39.5,65.8c-0.1,0-0.2,0-0.3,0c-0.1,0-0.2,0.1-0.2,0.2c0,0.1-0.1,0.2-0.1,0.4l-0.1,0.3l0.9,0.2l0.1-0.3
		c0.1-0.2,0.1-0.4,0.1-0.5c0-0.1,0-0.2-0.1-0.2C39.7,65.9,39.6,65.9,39.5,65.8z"/>
	<path class="st3" d="M54.9,45.7c0.2,0.3,0.4,0.5,0.5,0.6c0.1,0.1,0.2,0.1,0.3,0.1c0.1,0,0.1,0,0.2-0.1c0.1,0,0.1-0.1,0.1-0.2
		c0-0.1,0-0.2,0-0.3c-0.1-0.1-0.2-0.4-0.4-0.7c-0.2-0.3-0.4-0.5-0.5-0.6c-0.1-0.1-0.2-0.1-0.3-0.1c-0.1,0-0.1,0-0.2,0.1
		c-0.1,0-0.1,0.1-0.1,0.2c0,0.1,0,0.2,0,0.3C54.6,45.1,54.7,45.4,54.9,45.7z"/>
	<path class="st3" d="M57.1,44.2c0.2,0.3,0.3,0.5,0.4,0.6c0.1,0.1,0.2,0.2,0.3,0.2c0.1,0,0.1,0,0.2,0c0.1,0,0.1-0.1,0.1-0.2
		c0-0.1,0-0.2,0-0.3c0-0.2-0.2-0.4-0.3-0.7c-0.2-0.3-0.3-0.5-0.4-0.6c-0.1-0.1-0.2-0.2-0.3-0.2c-0.1,0-0.1,0-0.2,0
		c-0.1,0-0.1,0.1-0.1,0.2c0,0.1,0,0.2,0,0.3C56.8,43.6,56.9,43.9,57.1,44.2z"/>
	<path class="st3" d="M48.6,103.1c0-0.1,0-0.1-0.1-0.2c0-0.1-0.1-0.1-0.2-0.1c-0.1,0-0.2,0-0.3,0.1c-0.1,0.1-0.4,0.2-0.6,0.5
		c-0.3,0.2-0.5,0.4-0.5,0.5c-0.1,0.1-0.1,0.2-0.1,0.3c0,0.1,0,0.1,0.1,0.2v0c0,0.1,0.1,0.1,0.2,0.1c0.1,0,0.2,0,0.3-0.1
		c0.1-0.1,0.4-0.2,0.6-0.5c0.3-0.2,0.5-0.4,0.5-0.5C48.6,103.2,48.6,103.1,48.6,103.1z"/>
	<path class="st3" d="M52.9,47.2c0.2,0.3,0.4,0.5,0.5,0.6c0.1,0.1,0.2,0.1,0.3,0.1c0.1,0,0.1,0,0.2-0.1c0.1,0,0.1-0.1,0.1-0.2
		c0-0.1,0-0.2-0.1-0.3c-0.1-0.1-0.2-0.4-0.4-0.7c-0.2-0.3-0.4-0.5-0.5-0.6C52.9,46,52.8,46,52.7,46c-0.1,0-0.1,0-0.2,0.1
		c-0.1,0-0.1,0.1-0.1,0.2c0,0.1,0,0.2,0.1,0.3C52.6,46.7,52.7,46.9,52.9,47.2z"/>
	<path class="st3" d="M69,40.1c0.1,0.1,0.1,0.2,0.2,0.2c0.1,0,0.1,0,0.2,0c0.1,0,0.1-0.1,0.2-0.1c0-0.1,0.1-0.1,0.1-0.3
		c0-0.2,0-0.4-0.1-0.8c-0.1-0.4-0.2-0.6-0.2-0.7c-0.1-0.1-0.1-0.2-0.2-0.2c-0.1,0-0.1,0-0.2,0c-0.1,0-0.1,0.1-0.2,0.1
		c0,0.1-0.1,0.1-0.1,0.3c0,0.2,0,0.4,0.1,0.8C68.8,39.7,68.9,40,69,40.1z"/>
	<path class="st3" d="M64.2,41.6c0.1,0.1,0.2,0.2,0.2,0.2c0.1,0,0.1,0,0.2,0c0.1,0,0.1-0.1,0.2-0.1c0-0.1,0-0.2,0-0.3
		c0-0.2-0.1-0.4-0.2-0.8c-0.1-0.3-0.2-0.6-0.3-0.7c-0.1-0.1-0.2-0.2-0.2-0.2c-0.1,0-0.1,0-0.2,0c-0.1,0-0.1,0.1-0.2,0.1
		c0,0.1,0,0.2,0,0.3c0,0.2,0.1,0.4,0.2,0.8C64,41.2,64.1,41.4,64.2,41.6z"/>
	<path class="st3" d="M68.7,115.4c-0.2-0.1-0.5,0-0.7,0.1c-0.2,0.1-0.3,0.4-0.4,0.7c-0.1,0.4-0.1,0.6,0.1,0.8
		c0.1,0.2,0.3,0.3,0.6,0.4c0.3,0.1,0.5,0,0.7-0.1c0.2-0.1,0.3-0.4,0.4-0.7c0.1-0.3,0.1-0.6-0.1-0.8C69.2,115.6,69,115.5,68.7,115.4z
		"/>
	<path class="st3" d="M59.7,43.6c0.1,0.1,0.2,0.2,0.2,0.2c0.1,0,0.1,0,0.2,0c0.1,0,0.1-0.1,0.1-0.2c0-0.1,0-0.2,0-0.3
		c0-0.2-0.1-0.4-0.3-0.7c-0.2-0.3-0.3-0.5-0.4-0.7c-0.1-0.1-0.2-0.2-0.2-0.2c-0.1,0-0.1,0-0.2,0c-0.1,0-0.1,0.1-0.1,0.2
		c0,0.1,0,0.2,0,0.3c0,0.2,0.1,0.4,0.3,0.7C59.4,43.3,59.6,43.5,59.7,43.6z"/>
	<path class="st3" d="M91.9,114.3c-0.1-0.1-0.2-0.2-0.2-0.2c-0.1,0-0.1,0-0.2,0c-0.1,0-0.1,0.1-0.2,0.1c0,0.1,0,0.2,0,0.3
		c0,0.2,0.1,0.4,0.2,0.8c0.1,0.3,0.2,0.6,0.3,0.7c0.1,0.1,0.2,0.2,0.2,0.2c0.1,0,0.1,0,0.2,0v0c0.1,0,0.1-0.1,0.2-0.1
		c0-0.1,0-0.2,0-0.3c0-0.2-0.1-0.4-0.2-0.8C92.1,114.6,92,114.4,91.9,114.3z"/>
	<path class="st3" d="M66.6,40.7c0.1,0.1,0.1,0.2,0.2,0.2c0.1,0,0.1,0,0.2,0c0.1,0,0.1-0.1,0.2-0.1c0-0.1,0.1-0.2,0.1-0.3
		c0-0.2-0.1-0.4-0.2-0.8c-0.1-0.4-0.2-0.6-0.3-0.7c-0.1-0.1-0.1-0.2-0.2-0.2c-0.1,0-0.1,0-0.2,0c-0.1,0-0.1,0.1-0.2,0.1
		c0,0.1-0.1,0.2-0.1,0.3c0,0.2,0.1,0.4,0.2,0.8C66.4,40.4,66.5,40.6,66.6,40.7z"/>
	<path class="st3" d="M61.9,42.5c0.1,0.1,0.2,0.2,0.2,0.2c0.1,0,0.1,0,0.2,0c0.1,0,0.1-0.1,0.1-0.1c0-0.1,0-0.2,0-0.3
		c0-0.2-0.1-0.4-0.3-0.7c-0.2-0.3-0.3-0.6-0.4-0.7c-0.1-0.1-0.2-0.2-0.2-0.2c-0.1,0-0.1,0-0.2,0c-0.1,0-0.1,0.1-0.1,0.1
		c0,0.1,0,0.2,0,0.3c0,0.2,0.1,0.4,0.3,0.7C61.7,42.2,61.8,42.4,61.9,42.5z"/>
	<path class="st3" d="M62.5,114.7c-0.1,0-0.2,0-0.2,0.1c-0.1,0-0.1,0.1-0.2,0.2c0,0.1,0,0.2,0,0.3c0,0.1,0.1,0.2,0.2,0.2
		c0.1,0,0.2,0.1,0.4,0.2l0.3,0.1l0.3-0.8l-0.3-0.1C62.8,114.8,62.6,114.7,62.5,114.7z"/>
	<path class="st3" d="M50.3,104.9c0-0.1,0-0.1-0.1-0.2c0-0.1-0.1-0.1-0.2-0.1c-0.1,0-0.2,0-0.3,0.1c-0.1,0.1-0.3,0.2-0.6,0.5
		c-0.3,0.3-0.4,0.4-0.5,0.6c-0.1,0.1-0.1,0.2-0.1,0.3c0,0.1,0,0.1,0.1,0.2c0,0.1,0.1,0.1,0.2,0.1c0.1,0,0.2,0,0.3-0.1
		c0.1-0.1,0.3-0.2,0.6-0.5c0.3-0.3,0.4-0.4,0.5-0.6C50.2,105.1,50.3,105,50.3,104.9z"/>
	<path class="st3" d="M37.6,80.8c0.2,0,0.4,0,0.8,0c0.4,0,0.6-0.1,0.8-0.1c0.1,0,0.2-0.1,0.3-0.2c0-0.1,0.1-0.1,0.1-0.2
		c0-0.1,0-0.1-0.1-0.2c0-0.1-0.1-0.1-0.3-0.1c-0.2,0-0.4,0-0.8,0c-0.4,0-0.6,0.1-0.8,0.1c-0.1,0-0.2,0.1-0.3,0.2
		c0,0.1-0.1,0.1-0.1,0.2c0,0.1,0,0.1,0.1,0.2C37.4,80.8,37.5,80.8,37.6,80.8z"/>
	<path class="st3" d="M49.8,51.1c0.1,0.1,0.2,0.1,0.3,0.1c0.1,0,0.1,0,0.2-0.1c0-0.1,0.1-0.1,0.1-0.2c0-0.1,0-0.2-0.1-0.3
		c-0.1-0.1-0.3-0.3-0.5-0.6c-0.3-0.3-0.5-0.4-0.6-0.5s-0.2-0.1-0.3-0.1c-0.1,0-0.1,0-0.2,0.1c0,0.1-0.1,0.1-0.1,0.2
		c0,0.1,0,0.2,0.1,0.3c0.1,0.1,0.3,0.3,0.5,0.6C49.5,50.9,49.7,51.1,49.8,51.1z"/>
	<path class="st3" d="M40.4,88.1c0.1-0.1,0.2-0.1,0.2-0.2c0-0.1,0-0.1,0-0.2c0-0.1-0.1-0.1-0.1-0.2c-0.1,0-0.2-0.1-0.3-0.1
		c-0.2,0-0.4,0.1-0.8,0.2c-0.4,0.1-0.6,0.2-0.7,0.3c-0.1,0.1-0.2,0.1-0.2,0.2c0,0.1,0,0.1,0,0.2c0,0.1,0.1,0.1,0.1,0.2
		c0.1,0,0.2,0.1,0.3,0.1c0.2,0,0.4-0.1,0.8-0.2C40,88.3,40.3,88.2,40.4,88.1z"/>
	<path class="st3" d="M41.1,90.5c0.1-0.1,0.2-0.2,0.2-0.2c0-0.1,0-0.1,0-0.2c0-0.1-0.1-0.1-0.1-0.2c-0.1,0-0.2-0.1-0.3,0
		c-0.2,0-0.4,0.1-0.8,0.2c-0.4,0.1-0.6,0.2-0.7,0.3c-0.1,0.1-0.2,0.2-0.2,0.2c0,0.1,0,0.1,0,0.2c0,0.1,0.1,0.1,0.1,0.2
		c0.1,0,0.2,0.1,0.3,0c0.2,0,0.4-0.1,0.8-0.2C40.8,90.6,41,90.5,41.1,90.5z"/>
	<path class="st3" d="M46,54.5c0.3,0.2,0.5,0.4,0.6,0.4c0.1,0.1,0.2,0.1,0.3,0.1c0.1,0,0.1-0.1,0.2-0.1c0-0.1,0.1-0.1,0.1-0.2
		c0-0.1,0-0.2-0.1-0.3c-0.1-0.1-0.3-0.3-0.6-0.5c-0.3-0.2-0.5-0.4-0.6-0.4c-0.1-0.1-0.2-0.1-0.3-0.1c-0.1,0-0.1,0-0.2,0.1
		s-0.1,0.1-0.1,0.2c0,0.1,0,0.2,0.1,0.3C45.5,54.1,45.7,54.3,46,54.5z"/>
	<path class="st3" d="M39.8,85.6c0.1-0.1,0.2-0.1,0.2-0.2c0-0.1,0-0.1,0-0.2c0-0.1,0-0.1-0.1-0.2c-0.1,0-0.1-0.1-0.3-0.1
		c-0.2,0-0.4,0-0.8,0.1c-0.4,0.1-0.6,0.1-0.7,0.2c-0.1,0.1-0.2,0.1-0.2,0.2c0,0.1,0,0.1,0,0.2c0,0.1,0,0.1,0.1,0.2
		c0.1,0,0.1,0.1,0.3,0.1c0.2,0,0.4,0,0.8-0.1C39.4,85.8,39.7,85.7,39.8,85.6z"/>
	<path class="st3" d="M47.5,52.5c0.3,0.2,0.5,0.4,0.6,0.5c0.1,0.1,0.2,0.1,0.3,0.1c0.1,0,0.1,0,0.2-0.1c0-0.1,0.1-0.1,0.1-0.2
		c0-0.1,0-0.2-0.1-0.3c-0.1-0.1-0.3-0.3-0.6-0.6c-0.3-0.2-0.5-0.4-0.6-0.5c-0.1-0.1-0.2-0.1-0.3-0.1c-0.1,0-0.1,0-0.2,0.1
		c0,0.1-0.1,0.1-0.1,0.2c0,0.1,0,0.2,0.1,0.3C47.1,52.1,47.2,52.3,47.5,52.5z"/>
	<path class="st3" d="M42.2,92.6c0-0.1,0-0.1,0-0.2c0-0.1-0.1-0.1-0.1-0.2c-0.1,0-0.2,0-0.3,0c-0.2,0-0.4,0.1-0.8,0.2
		c-0.3,0.1-0.6,0.2-0.7,0.3c-0.1,0.1-0.2,0.2-0.2,0.2c0,0.1,0,0.1,0,0.2c0,0.1,0.1,0.1,0.1,0.2c0.1,0,0.2,0,0.3,0
		c0.2,0,0.4-0.1,0.8-0.2c0.3-0.1,0.6-0.2,0.7-0.3C42.1,92.7,42.2,92.6,42.2,92.6z"/>
	<path class="st3" d="M38.6,73.2c0.4,0,0.6,0,0.8-0.1c0.2-0.1,0.3-0.3,0.4-0.6c0-0.3,0-0.5-0.2-0.7c-0.2-0.2-0.4-0.3-0.8-0.3
		c-0.4,0-0.6,0-0.8,0.1c-0.2,0.1-0.3,0.3-0.3,0.6c0,0.3,0,0.5,0.2,0.7C37.9,73,38.2,73.1,38.6,73.2z"/>
	<path class="st3" d="M44.4,97c0-0.1,0-0.1,0-0.2c0-0.1-0.1-0.1-0.2-0.1c-0.1,0-0.2,0-0.3,0c-0.2,0-0.4,0.2-0.7,0.3
		c-0.3,0.2-0.5,0.3-0.6,0.4c-0.1,0.1-0.2,0.2-0.2,0.3c0,0.1,0,0.1,0,0.2c0,0.1,0.1,0.1,0.2,0.1c0.1,0,0.2,0,0.3,0
		c0.2,0,0.4-0.2,0.7-0.3c0.3-0.2,0.5-0.3,0.6-0.4S44.3,97.1,44.4,97z"/>
	<path class="st3" d="M47,101.1c0-0.1,0-0.1-0.1-0.2c0-0.1-0.1-0.1-0.2-0.1c-0.1,0-0.2,0-0.3,0c-0.1,0.1-0.4,0.2-0.7,0.4
		c-0.3,0.2-0.5,0.4-0.6,0.5s-0.1,0.2-0.1,0.3c0,0.1,0,0.1,0.1,0.2c0,0.1,0.1,0.1,0.2,0.1c0.1,0,0.2,0,0.3,0c0.2-0.1,0.4-0.2,0.7-0.4
		c0.3-0.2,0.5-0.4,0.6-0.5C47,101.3,47,101.2,47,101.1z"/>
	<path class="st3" d="M45.6,99.1c0-0.1,0-0.1,0-0.2c0-0.1-0.1-0.1-0.2-0.1c-0.1,0-0.2,0-0.3,0c-0.2,0-0.4,0.2-0.7,0.4
		c-0.3,0.2-0.5,0.4-0.6,0.5c-0.1,0.1-0.1,0.2-0.2,0.3c0,0.1,0,0.1,0,0.2c0,0.1,0.1,0.1,0.2,0.1c0.1,0,0.2,0,0.3,0
		c0.2,0,0.4-0.2,0.7-0.4c0.3-0.2,0.5-0.4,0.6-0.5C45.6,99.3,45.6,99.2,45.6,99.1z"/>
	<path class="st3" d="M37.9,83.4c0.2,0,0.4,0,0.8,0c0.4,0,0.6-0.1,0.7-0.2c0.1-0.1,0.2-0.1,0.3-0.2c0-0.1,0.1-0.1,0-0.2
		c0-0.1,0-0.1-0.1-0.2c-0.1,0-0.1-0.1-0.3-0.1c-0.2,0-0.4,0-0.8,0c-0.4,0-0.6,0.1-0.7,0.2c-0.1,0.1-0.2,0.1-0.3,0.2
		c0,0.1-0.1,0.1,0,0.2c0,0.1,0,0.1,0.1,0.2C37.7,83.3,37.7,83.4,37.9,83.4z"/>
	<path class="st3" d="M43.2,94.8c0-0.1,0-0.1,0-0.2c0-0.1-0.1-0.1-0.1-0.1c-0.1,0-0.2,0-0.3,0c-0.2,0-0.4,0.1-0.7,0.3
		c-0.3,0.2-0.6,0.3-0.7,0.4c-0.1,0.1-0.2,0.2-0.2,0.2c0,0.1,0,0.1,0,0.2c0,0.1,0.1,0.1,0.1,0.1c0.1,0,0.2,0,0.3,0
		c0.2,0,0.4-0.1,0.7-0.3c0.3-0.2,0.6-0.3,0.7-0.4C43.1,95,43.2,94.9,43.2,94.8z"/>
	<path class="st3" d="M51,48.8c0.2,0.3,0.4,0.5,0.5,0.5c0.1,0.1,0.2,0.1,0.3,0.1c0.1,0,0.1,0,0.2-0.1c0.1,0,0.1-0.1,0.1-0.2
		c0-0.1,0-0.2-0.1-0.3c-0.1-0.1-0.2-0.4-0.5-0.6c-0.2-0.3-0.4-0.5-0.5-0.5c-0.1-0.1-0.2-0.1-0.3-0.1c-0.1,0-0.1,0-0.2,0.1
		c-0.1,0-0.1,0.1-0.1,0.2c0,0.1,0,0.2,0.1,0.3C50.6,48.3,50.8,48.5,51,48.8z"/>
	<path class="st3" d="M110.2,56.7c0,0.1,0,0.1,0,0.2c0,0.1,0.1,0.1,0.2,0.1c0.1,0,0.2,0,0.3,0c0.2,0,0.4-0.2,0.7-0.4
		c0.3-0.2,0.5-0.4,0.6-0.5c0.1-0.1,0.1-0.2,0.2-0.3c0-0.1,0-0.1,0-0.2c0-0.1-0.1-0.1-0.2-0.1c-0.1,0-0.2,0-0.3,0
		c-0.2,0-0.4,0.2-0.7,0.4c-0.3,0.2-0.5,0.4-0.6,0.5C110.2,56.5,110.2,56.6,110.2,56.7z"/>
	<path class="st3" d="M112.8,97c-0.3-0.2-0.6-0.3-0.7-0.3c-0.1,0-0.2,0-0.3,0c-0.1,0-0.1,0.1-0.2,0.1c0,0.1,0,0.1,0,0.2
		c0,0.1,0.1,0.2,0.2,0.2c0.1,0.1,0.3,0.3,0.7,0.4c0.3,0.2,0.5,0.3,0.7,0.3c0.1,0,0.2,0,0.3,0c0.1,0,0.1-0.1,0.2-0.1
		c0-0.1,0-0.1,0-0.2c0-0.1-0.1-0.2-0.2-0.2C113.3,97.3,113.1,97.2,112.8,97z"/>
	<path class="st3" d="M111.5,99.1c-0.3-0.2-0.5-0.3-0.7-0.4c-0.1,0-0.2-0.1-0.3,0c-0.1,0-0.1,0.1-0.2,0.1c0,0.1-0.1,0.1,0,0.2
		c0,0.1,0.1,0.2,0.1,0.2c0.1,0.1,0.3,0.3,0.6,0.5c0.3,0.2,0.5,0.3,0.7,0.4c0.1,0,0.2,0.1,0.3,0c0.1,0,0.1-0.1,0.2-0.1
		c0-0.1,0.1-0.1,0-0.2c0-0.1-0.1-0.2-0.1-0.2C112,99.5,111.8,99.3,111.5,99.1z"/>
	<path class="st3" d="M108.7,54.6c0,0.1,0,0.1,0.1,0.2c0,0.1,0.1,0.1,0.2,0.1c0.1,0,0.2,0,0.3-0.1c0.1-0.1,0.4-0.2,0.7-0.4
		c0.3-0.2,0.5-0.4,0.6-0.5c0.1-0.1,0.1-0.2,0.1-0.3c0-0.1,0-0.1-0.1-0.2c0-0.1-0.1-0.1-0.2-0.1c-0.1,0-0.2,0-0.3,0.1
		c-0.1,0.1-0.4,0.2-0.7,0.4c-0.3,0.2-0.5,0.4-0.6,0.5C108.8,54.5,108.7,54.6,108.7,54.6z"/>
	<path class="st3" d="M107.2,52.7c0,0.1,0,0.1,0.1,0.2c0,0.1,0.1,0.1,0.2,0.1c0.1,0,0.2,0,0.3-0.1c0.1-0.1,0.4-0.2,0.6-0.5
		c0.3-0.2,0.5-0.4,0.5-0.5c0.1-0.1,0.1-0.2,0.1-0.3c0-0.1,0-0.1-0.1-0.2c0-0.1-0.1-0.1-0.2-0.1c-0.1,0-0.2,0-0.3,0.1
		c-0.1,0.1-0.4,0.2-0.6,0.5c-0.3,0.2-0.5,0.4-0.5,0.5C107.2,52.5,107.2,52.6,107.2,52.7z"/>
	<path class="st3" d="M105.5,50.9c0,0.1,0,0.1,0.1,0.2c0,0.1,0.1,0.1,0.2,0.1c0.1,0,0.2,0,0.3-0.1c0.1-0.1,0.3-0.2,0.6-0.5
		c0.3-0.3,0.4-0.4,0.5-0.6c0.1-0.1,0.1-0.2,0.1-0.3c0-0.1,0-0.1-0.1-0.2c0-0.1-0.1-0.1-0.2-0.1c-0.1,0-0.2,0-0.3,0.1
		c-0.1,0.1-0.3,0.2-0.6,0.5c-0.3,0.3-0.4,0.4-0.5,0.6C105.5,50.7,105.5,50.8,105.5,50.9z"/>
	<path class="st3" d="M108.5,103.3c-0.3-0.2-0.5-0.4-0.6-0.5c-0.1-0.1-0.2-0.1-0.3-0.1c-0.1,0-0.1,0-0.2,0.1c0,0.1-0.1,0.1-0.1,0.2
		c0,0.1,0,0.2,0.1,0.3c0.1,0.1,0.3,0.3,0.6,0.6c0.3,0.2,0.5,0.4,0.6,0.5c0.1,0.1,0.2,0.1,0.3,0.1c0.1,0,0.1,0,0.2-0.1
		c0-0.1,0.1-0.1,0.1-0.2c0-0.1,0-0.2-0.1-0.3C109,103.7,108.8,103.5,108.5,103.3z"/>
	<path class="st3" d="M110.1,101.2c-0.3-0.2-0.5-0.3-0.7-0.4c-0.1-0.1-0.2-0.1-0.3,0c-0.1,0-0.1,0.1-0.2,0.1c0,0.1-0.1,0.1-0.1,0.2
		c0,0.1,0,0.2,0.1,0.3c0.1,0.1,0.3,0.3,0.6,0.5c0.3,0.2,0.5,0.3,0.7,0.4c0.1,0.1,0.2,0.1,0.3,0c0.1,0,0.1-0.1,0.2-0.1
		c0-0.1,0.1-0.1,0.1-0.2c0-0.1,0-0.2-0.1-0.3C110.6,101.6,110.4,101.4,110.1,101.2z"/>
	<path class="st3" d="M114.7,65.3c-0.1,0.1-0.2,0.2-0.2,0.2c0,0.1,0,0.1,0,0.2c0,0.1,0.1,0.1,0.1,0.2c0.1,0,0.2,0.1,0.3,0
		c0.2,0,0.4-0.1,0.8-0.2c0.4-0.1,0.6-0.2,0.7-0.3c0.1-0.1,0.2-0.2,0.2-0.2c0-0.1,0-0.1,0-0.2h0c0-0.1-0.1-0.1-0.1-0.2
		c-0.1,0-0.2-0.1-0.3,0c-0.2,0-0.4,0.1-0.8,0.2C115.1,65.1,114.9,65.2,114.7,65.3z"/>
	<path class="st3" d="M113.7,63.2c0,0.1,0,0.1,0,0.2c0,0.1,0.1,0.1,0.1,0.2c0.1,0,0.2,0,0.3,0c0.2,0,0.4-0.1,0.8-0.2
		c0.3-0.1,0.6-0.2,0.7-0.3c0.1-0.1,0.2-0.2,0.2-0.2c0-0.1,0-0.1,0-0.2h0c0-0.1-0.1-0.1-0.1-0.2c-0.1,0-0.2,0-0.3,0
		c-0.2,0-0.4,0.1-0.8,0.2c-0.3,0.1-0.6,0.2-0.7,0.3C113.8,63,113.7,63.1,113.7,63.2z"/>
	<path class="st3" d="M115.5,67.7c-0.1,0.1-0.2,0.1-0.2,0.2c0,0.1,0,0.1,0,0.2c0,0.1,0.1,0.1,0.1,0.2c0.1,0,0.2,0.1,0.3,0.1
		c0.2,0,0.4-0.1,0.8-0.2c0.4-0.1,0.6-0.2,0.7-0.3c0.1-0.1,0.2-0.1,0.2-0.2c0-0.1,0-0.1,0-0.2c0-0.1-0.1-0.1-0.1-0.2
		c-0.1,0-0.2-0.1-0.3-0.1c-0.2,0-0.4,0.1-0.8,0.2C115.8,67.5,115.6,67.6,115.5,67.7z"/>
	<path class="st3" d="M116.5,75.9c0,0.3,0.1,0.5,0.3,0.6c0.2,0.1,0.5,0.2,0.8,0.2c0.4,0,0.6-0.1,0.8-0.3c0.2-0.2,0.2-0.4,0.2-0.6
		c0-0.3-0.1-0.5-0.3-0.6c-0.2-0.1-0.5-0.2-0.8-0.2c-0.4,0-0.6,0.1-0.8,0.3C116.6,75.4,116.5,75.6,116.5,75.9z"/>
	<path class="st3" d="M114.6,95c-0.1-0.1-0.4-0.2-0.7-0.4c-0.3-0.2-0.6-0.2-0.7-0.3c-0.1,0-0.2,0-0.3,0c-0.1,0-0.1,0.1-0.1,0.1
		c0,0.1,0,0.1,0,0.2c0,0.1,0.1,0.1,0.2,0.2c0.1,0.1,0.4,0.2,0.7,0.4c0.3,0.2,0.6,0.2,0.7,0.3c0.1,0,0.2,0,0.3,0
		c0.1,0,0.1-0.1,0.1-0.1c0-0.1,0-0.1,0-0.2C114.8,95.2,114.7,95.1,114.6,95z"/>
	<path class="st3" d="M112.6,60.9c0,0.1,0,0.1,0,0.2c0,0.1,0.1,0.1,0.2,0.1c0.1,0,0.2,0,0.3,0c0.2,0,0.4-0.1,0.7-0.3
		c0.3-0.2,0.5-0.3,0.7-0.4c0.1-0.1,0.2-0.2,0.2-0.2c0-0.1,0-0.1,0-0.2c0-0.1-0.1-0.1-0.2-0.1c-0.1,0-0.2,0-0.3,0
		c-0.2,0-0.4,0.1-0.7,0.3c-0.3,0.2-0.5,0.3-0.7,0.4C112.7,60.8,112.6,60.9,112.6,60.9z"/>
	<path class="st3" d="M111.5,58.8c0,0.1,0,0.1,0,0.2c0,0.1,0.1,0.1,0.2,0.1c0.1,0,0.2,0,0.3,0c0.2,0,0.4-0.2,0.7-0.3
		c0.3-0.2,0.5-0.3,0.6-0.4c0.1-0.1,0.2-0.2,0.2-0.3c0-0.1,0-0.1,0-0.2c0-0.1-0.1-0.1-0.2-0.1c-0.1,0-0.2,0-0.3,0
		c-0.2,0-0.4,0.2-0.7,0.3c-0.3,0.2-0.5,0.3-0.6,0.4C111.5,58.6,111.5,58.7,111.5,58.8z"/>
	<path class="st3" d="M117.8,82.2c0.1,0.1,0.1,0.1,0.2,0.1c0.1,0,0.2,0,0.3-0.1c0.1-0.1,0.1-0.1,0.2-0.2c0-0.1,0-0.2,0.1-0.5l0-0.3
		l-0.9-0.1l0,0.3c0,0.2,0,0.4,0,0.5C117.7,82.1,117.7,82.2,117.8,82.2z"/>
	<path class="st3" d="M99,111.6c-0.2-0.3-0.4-0.5-0.5-0.6c-0.1-0.1-0.2-0.1-0.3-0.2c-0.1,0-0.1,0-0.2,0c-0.1,0-0.1,0.1-0.1,0.2
		c0,0.1,0,0.2,0,0.3c0,0.2,0.2,0.4,0.4,0.7c0.2,0.3,0.4,0.5,0.5,0.6c0.1,0.1,0.2,0.1,0.3,0.2c0.1,0,0.1,0,0.2,0
		c0.1,0,0.1-0.1,0.1-0.2c0-0.1,0-0.2,0-0.3C99.3,112.1,99.2,111.9,99,111.6z"/>
	<path class="st3" d="M85.9,38.9c0.1,0,0.2-0.1,0.2-0.1c0.1-0.1,0.1-0.1,0.1-0.2c0-0.1,0-0.2,0-0.3c-0.1-0.1-0.1-0.1-0.2-0.2
		c-0.1,0-0.2-0.1-0.4-0.1l-0.3-0.1l-0.2,0.9l0.3,0.1C85.6,38.9,85.8,38.9,85.9,38.9z"/>
	<path class="st3" d="M101.1,110.2c-0.2-0.3-0.4-0.5-0.5-0.6c-0.1-0.1-0.2-0.1-0.3-0.1c-0.1,0-0.1,0-0.2,0.1c-0.1,0-0.1,0.1-0.1,0.2
		c0,0.1,0,0.2,0,0.3c0.1,0.1,0.2,0.4,0.4,0.7c0.2,0.3,0.4,0.5,0.5,0.6c0.1,0.1,0.2,0.1,0.3,0.1c0.1,0,0.1,0,0.2-0.1
		c0.1,0,0.1-0.1,0.1-0.2c0-0.1,0-0.2,0-0.3C101.4,110.7,101.3,110.5,101.1,110.2z"/>
	<path class="st3" d="M98.1,45c0.1,0,0.2-0.1,0.2-0.2c0.1-0.1,0.3-0.3,0.4-0.7c0.2-0.3,0.3-0.5,0.3-0.7c0-0.1,0-0.2,0-0.3
		c0-0.1-0.1-0.1-0.1-0.2c-0.1,0-0.1,0-0.2,0c-0.1,0-0.2,0.1-0.2,0.2c-0.1,0.1-0.3,0.3-0.4,0.7c-0.2,0.3-0.3,0.6-0.3,0.7
		c0,0.1,0,0.2,0,0.3c0,0.1,0.1,0.1,0.1,0.2C97.9,45,98,45,98.1,45z"/>
	<path class="st3" d="M71.4,39.6c0.1,0.1,0.1,0.2,0.2,0.2c0.1,0,0.1,0,0.2,0c0.1,0,0.1,0,0.2-0.1c0-0.1,0.1-0.1,0.1-0.3
		c0-0.2,0-0.4-0.1-0.8c-0.1-0.4-0.1-0.6-0.2-0.7c-0.1-0.1-0.1-0.2-0.2-0.2c-0.1,0-0.1,0-0.2,0c-0.1,0-0.1,0-0.2,0.1
		c0,0.1-0.1,0.1-0.1,0.3c0,0.2,0,0.4,0.1,0.8C71.3,39.2,71.3,39.5,71.4,39.6z"/>
	<path class="st3" d="M96.4,112.2c-0.1-0.1-0.2-0.2-0.2-0.2c-0.1,0-0.1,0-0.2,0c-0.1,0-0.1,0.1-0.1,0.2c0,0.1,0,0.2,0,0.3
		c0,0.2,0.1,0.4,0.3,0.7c0.2,0.3,0.3,0.5,0.4,0.7c0.1,0.1,0.2,0.2,0.2,0.2c0.1,0,0.1,0,0.2,0c0.1,0,0.1-0.1,0.1-0.2
		c0-0.1,0-0.2,0-0.3c0-0.2-0.1-0.4-0.3-0.7C96.6,112.5,96.5,112.3,96.4,112.2z"/>
	<path class="st3" d="M79.7,39.4c0.3,0,0.5-0.1,0.6-0.3c0.2-0.2,0.3-0.5,0.3-0.8c0-0.4-0.1-0.6-0.2-0.8c-0.2-0.2-0.4-0.3-0.6-0.3
		c-0.3,0-0.5,0.1-0.6,0.3c-0.2,0.2-0.3,0.4-0.3,0.8c0,0.4,0.1,0.6,0.2,0.8C79.2,39.3,79.4,39.4,79.7,39.4z"/>
	<path class="st3" d="M103.8,49.4c0.1,0,0.1,0.1,0.2,0.1c0.1,0,0.2,0,0.3-0.1c0.1-0.1,0.3-0.3,0.6-0.6c0.2-0.3,0.4-0.5,0.5-0.6
		c0.1-0.1,0.1-0.2,0.1-0.3c0-0.1,0-0.1-0.1-0.2c-0.1,0-0.1-0.1-0.2-0.1c-0.1,0-0.2,0-0.3,0.1c-0.1,0.1-0.3,0.3-0.6,0.6
		c-0.2,0.3-0.4,0.5-0.5,0.6c-0.1,0.1-0.1,0.2-0.1,0.3C103.7,49.2,103.8,49.3,103.8,49.4z"/>
	<path class="st3" d="M106.2,104.7c-0.1-0.1-0.2-0.1-0.3-0.1c-0.1,0-0.1,0-0.2,0.1c0,0.1-0.1,0.1-0.1,0.2c0,0.1,0,0.2,0.1,0.3
		c0.1,0.1,0.3,0.3,0.5,0.6c0.3,0.3,0.5,0.4,0.6,0.5s0.2,0.1,0.3,0.1c0.1,0,0.1,0,0.2-0.1c0-0.1,0.1-0.1,0.1-0.2c0-0.1,0-0.2-0.1-0.3
		c-0.1-0.1-0.3-0.3-0.5-0.6C106.6,104.9,106.4,104.7,106.2,104.7z"/>
	<path class="st3" d="M102.1,47.8c0.1,0,0.2,0,0.3-0.1c0.1-0.1,0.3-0.3,0.5-0.6c0.2-0.3,0.4-0.5,0.4-0.6c0.1-0.1,0.1-0.2,0.1-0.3
		c0-0.1,0-0.1-0.1-0.2c-0.1,0-0.1-0.1-0.2-0.1c-0.1,0-0.2,0-0.3,0.1c-0.1,0.1-0.3,0.3-0.5,0.6c-0.2,0.3-0.4,0.5-0.4,0.6
		c-0.1,0.1-0.1,0.2-0.1,0.3c0,0.1,0.1,0.1,0.1,0.2C102,47.8,102.1,47.8,102.1,47.8z"/>
	<path class="st3" d="M78,35.6c-23.4,0-42.4,19-42.4,42.4c0,23.4,19,42.4,42.4,42.4c23.4,0,42.4-19,42.4-42.4
		C120.3,54.6,101.3,35.6,78,35.6z M118.7,74.6c0.1,0.1,0.2,0.2,0.3,0.4c0.1,0.2,0.2,0.4,0.2,0.7c0,0.5-0.1,0.8-0.3,1.1
		c-0.3,0.3-0.7,0.5-1.2,0.5c-0.5,0-0.9-0.1-1.2-0.3c-0.3-0.3-0.5-0.6-0.5-1.1c0-0.5,0.1-0.8,0.3-1.1c0.3-0.3,0.6-0.5,1.1-0.5
		c0.3,0,0.6,0,0.8,0.1C118.4,74.4,118.6,74.5,118.7,74.6z M117.8,67.3c0.1,0.3,0,0.6-0.1,0.8c-0.2,0.3-0.6,0.5-1.1,0.6
		c-0.6,0.2-1,0.2-1.3,0.1c-0.3-0.1-0.4-0.3-0.5-0.6c-0.1-0.3,0-0.6,0.1-0.8c0.2-0.2,0.6-0.5,1.1-0.6c0.6-0.2,1-0.2,1.3-0.1
		C117.6,66.8,117.8,67,117.8,67.3z M117.1,64.8c0.1,0.3,0.1,0.5-0.1,0.8c-0.2,0.3-0.6,0.5-1.1,0.7c-0.6,0.2-1,0.2-1.3,0.1
		c-0.3-0.1-0.4-0.3-0.5-0.6c-0.1-0.3-0.1-0.6,0.1-0.8c0.2-0.3,0.5-0.5,1.1-0.7c0.6-0.2,1-0.2,1.3-0.1
		C116.8,64.4,117,64.6,117.1,64.8z M115.6,61.9c0.3,0.1,0.5,0.3,0.6,0.5c0.1,0.3,0.1,0.5,0,0.8c-0.2,0.3-0.5,0.5-1.1,0.8
		c-0.6,0.2-1,0.3-1.3,0.2c-0.3-0.1-0.4-0.3-0.6-0.5c-0.1-0.3-0.1-0.6,0.1-0.8c0.1-0.3,0.5-0.5,1.1-0.7
		C114.9,61.8,115.3,61.8,115.6,61.9z M114.5,59.4c0.3,0.1,0.5,0.2,0.6,0.5c0.1,0.3,0.2,0.5,0,0.8c-0.1,0.3-0.5,0.6-1,0.9
		c-0.5,0.3-1,0.4-1.3,0.3c-0.3-0.1-0.5-0.2-0.6-0.5c-0.1-0.3-0.1-0.5,0-0.8c0.1-0.3,0.5-0.6,1-0.8C113.7,59.4,114.1,59.3,114.5,59.4
		z M113.2,57.1c0.3,0,0.5,0.2,0.6,0.5c0.2,0.3,0.2,0.5,0.1,0.8c-0.1,0.3-0.4,0.6-1,0.9c-0.5,0.3-0.9,0.4-1.3,0.4
		c-0.3,0-0.5-0.2-0.6-0.5c-0.2-0.3-0.2-0.5-0.1-0.8c0.1-0.3,0.4-0.6,1-0.9C112.5,57.2,112.9,57.1,113.2,57.1z M112.5,55.4
		c0.2,0.3,0.2,0.5,0.1,0.8c-0.1,0.3-0.4,0.6-0.9,1c-0.5,0.3-0.9,0.5-1.2,0.4c-0.3,0-0.5-0.2-0.7-0.4c-0.2-0.3-0.2-0.5-0.1-0.8
		c0.1-0.3,0.4-0.6,0.9-0.9c0.5-0.3,0.9-0.5,1.2-0.4C112.1,55,112.3,55.1,112.5,55.4z M110.9,53.1c0.2,0.2,0.2,0.5,0.2,0.8
		c-0.1,0.3-0.4,0.7-0.8,1c-0.5,0.4-0.9,0.6-1.2,0.5c-0.3,0-0.5-0.1-0.7-0.4c-0.2-0.2-0.2-0.5-0.2-0.8c0.1-0.3,0.3-0.6,0.8-1
		c0.5-0.4,0.9-0.5,1.2-0.5C110.5,52.8,110.8,52.9,110.9,53.1z M108.6,50.8c0.3,0,0.5,0.1,0.7,0.3c0.2,0.2,0.3,0.5,0.2,0.8
		c-0.1,0.3-0.3,0.7-0.8,1.1c-0.5,0.4-0.8,0.6-1.2,0.6c-0.3,0-0.5-0.1-0.7-0.3c-0.2-0.2-0.3-0.5-0.2-0.8c0.1-0.3,0.3-0.6,0.8-1
		C107.9,51,108.3,50.8,108.6,50.8z M107.6,49.2c0.2,0.2,0.3,0.5,0.3,0.7c0,0.3-0.3,0.7-0.7,1.1c-0.4,0.4-0.8,0.6-1.1,0.7
		c-0.3,0-0.5-0.1-0.7-0.3c-0.2-0.2-0.3-0.5-0.3-0.8c0-0.3,0.3-0.7,0.7-1.1c0.4-0.4,0.8-0.6,1.1-0.7C107.1,48.9,107.4,49,107.6,49.2z
		 M104.8,47.1c0.3-0.1,0.5,0,0.7,0.2c0.2,0.2,0.3,0.4,0.3,0.7c0,0.3-0.2,0.7-0.6,1.2c-0.4,0.5-0.7,0.7-1.1,0.8
		c-0.3,0.1-0.5,0-0.7-0.2c-0.2-0.2-0.3-0.4-0.3-0.8c0-0.3,0.2-0.7,0.6-1.1C104.2,47.4,104.5,47.1,104.8,47.1z M102.9,45.5
		c0.3-0.1,0.5,0,0.8,0.2c0.2,0.2,0.4,0.4,0.4,0.7c0,0.3-0.2,0.7-0.6,1.2c-0.4,0.5-0.7,0.7-1,0.8c-0.3,0.1-0.5,0-0.8-0.2
		c-0.2-0.2-0.4-0.4-0.4-0.7c0-0.3,0.2-0.7,0.6-1.2C102.2,45.8,102.5,45.5,102.9,45.5z M100.8,43.9c0.3-0.1,0.5,0,0.8,0.1
		c0.2,0.2,0.4,0.4,0.4,0.7c0,0.3-0.1,0.7-0.5,1.2c-0.3,0.5-0.7,0.8-1,0.9c-0.3,0.1-0.5,0-0.8-0.1c-0.2-0.2-0.4-0.4-0.4-0.7
		c0-0.3,0.2-0.7,0.5-1.2C100.1,44.3,100.4,44,100.8,43.9z M97.6,43.5c0.3-0.5,0.6-0.8,0.9-1c0.3-0.1,0.5-0.1,0.8,0.1
		c0.3,0.2,0.4,0.4,0.5,0.6c0,0.3-0.1,0.7-0.4,1.3c-0.3,0.5-0.6,0.8-0.9,1c-0.3,0.1-0.5,0.1-0.8-0.1c-0.3-0.2-0.4-0.4-0.5-0.7
		C97.1,44.4,97.3,44,97.6,43.5z M96.6,41.1L95.3,44l-0.6-0.3l1.1-2.4l-1.1-0.5l-1.1,2.4L93,42.9l1.3-2.9L96.6,41.1z M91.8,39L91,41
		l1.9-1.5l0.6,0.2l-1.1,2.9l-0.6-0.2l0.8-1.9L90.7,42l-0.6-0.2l1.1-2.9L91.8,39z M87.9,37.9l0.6,0.2l-0.3,1.2l1.2,0.3l0.3-1.2
		l0.6,0.2l-0.9,3l-0.6-0.2l0.4-1.3L88,39.7l-0.4,1.3L87,40.9L87.9,37.9z M85.7,37.4c0.4,0.1,0.6,0.1,0.7,0.2
		c0.2,0.1,0.3,0.2,0.4,0.4c0.1,0.2,0.1,0.4,0.1,0.6c0,0.2-0.1,0.3-0.2,0.5c-0.1,0.1-0.2,0.2-0.3,0.3c-0.1,0.1-0.2,0.1-0.3,0.1
		c-0.2,0-0.4,0-0.7-0.1L85,39.3l-0.2,1.2l-0.6-0.1l0.5-3.1L85.7,37.4z M82.1,36.9l2.1,0.3l-0.1,0.5l-1.5-0.2l-0.3,2.6L81.7,40
		L82.1,36.9z M78.3,37.5c0.1-0.2,0.2-0.3,0.3-0.4c0.1-0.1,0.3-0.2,0.4-0.3c0.2-0.1,0.4-0.1,0.7-0.1c0.5,0,0.8,0.2,1.1,0.5
		c0.3,0.3,0.4,0.7,0.4,1.2c0,0.5-0.2,0.9-0.4,1.2c-0.3,0.3-0.7,0.4-1.1,0.4c-0.5,0-0.8-0.2-1.1-0.5c-0.3-0.3-0.4-0.7-0.4-1.2
		C78.2,38,78.2,37.7,78.3,37.5z M70.7,37.7c0.1-0.2,0.3-0.4,0.6-0.4c0.3-0.1,0.6,0,0.8,0.2c0.2,0.2,0.4,0.6,0.5,1.2
		c0.1,0.6,0.1,1-0.1,1.3c-0.1,0.2-0.3,0.4-0.6,0.4c-0.3,0.1-0.6,0-0.8-0.2c-0.2-0.2-0.4-0.6-0.5-1.2C70.5,38.4,70.5,37.9,70.7,37.7z
		 M68.1,38.2c0.1-0.2,0.3-0.4,0.6-0.5c0.3-0.1,0.6,0,0.8,0.2c0.3,0.2,0.5,0.6,0.6,1.2c0.1,0.6,0.1,1,0,1.3c-0.1,0.2-0.3,0.4-0.6,0.5
		c-0.3,0.1-0.6,0-0.8-0.2c-0.2-0.2-0.4-0.6-0.6-1.2C68,38.9,68,38.5,68.1,38.2z M65.6,38.9c0.1-0.3,0.3-0.4,0.6-0.5
		c0.3-0.1,0.6,0,0.8,0.1c0.3,0.2,0.5,0.6,0.6,1.1c0.2,0.6,0.2,1,0.1,1.3c-0.1,0.3-0.3,0.4-0.6,0.5c-0.3,0.1-0.6,0-0.8-0.1
		c-0.2-0.2-0.5-0.6-0.6-1.1C65.5,39.6,65.5,39.2,65.6,38.9z M63.1,39.8c0.1-0.3,0.3-0.5,0.5-0.6c0.3-0.1,0.5-0.1,0.8,0
		c0.3,0.2,0.5,0.5,0.8,1.1c0.2,0.6,0.3,1,0.2,1.3c-0.1,0.3-0.3,0.5-0.5,0.6c-0.3,0.1-0.6,0.1-0.8-0.1c-0.3-0.2-0.5-0.5-0.7-1.1
		C63,40.5,63,40.1,63.1,39.8z M60.7,40.8c0.1-0.3,0.2-0.5,0.5-0.6c0.3-0.1,0.5-0.1,0.8,0c0.3,0.2,0.6,0.5,0.8,1
		c0.2,0.5,0.3,1,0.2,1.3c-0.1,0.3-0.2,0.5-0.5,0.6c-0.3,0.1-0.6,0.1-0.8,0c-0.3-0.1-0.5-0.5-0.8-1C60.7,41.6,60.6,41.1,60.7,40.8z
		 M58.4,42c0.1-0.3,0.2-0.5,0.5-0.6c0.3-0.1,0.5-0.2,0.8,0c0.3,0.1,0.6,0.5,0.9,1c0.3,0.5,0.4,1,0.3,1.3c-0.1,0.3-0.2,0.5-0.5,0.6
		c-0.3,0.1-0.5,0.1-0.8,0c-0.3-0.1-0.6-0.5-0.8-1C58.4,42.7,58.3,42.3,58.4,42z M56.2,43.2c0-0.3,0.2-0.5,0.5-0.6
		c0.3-0.2,0.5-0.2,0.8-0.1c0.3,0.1,0.6,0.4,0.9,1c0.3,0.5,0.4,0.9,0.4,1.3c0,0.3-0.2,0.5-0.5,0.6c-0.3,0.2-0.5,0.2-0.8,0.1
		c-0.3-0.1-0.6-0.4-0.9-1C56.2,44,56.1,43.6,56.2,43.2z M54.3,44.1c0.2-0.2,0.5-0.2,0.8-0.1c0.3,0.1,0.6,0.4,1,0.9
		c0.3,0.5,0.5,0.9,0.5,1.2c0,0.3-0.1,0.5-0.4,0.7c-0.2,0.2-0.5,0.2-0.8,0.1c-0.3-0.1-0.6-0.4-1-0.9c-0.3-0.5-0.5-0.9-0.5-1.2
		C53.9,44.5,54.1,44.3,54.3,44.1z M52.2,45.7c0.2-0.2,0.5-0.2,0.8-0.2c0.3,0.1,0.7,0.3,1,0.8c0.4,0.5,0.6,0.9,0.6,1.2
		c0,0.3-0.1,0.5-0.4,0.7c-0.2,0.2-0.5,0.2-0.8,0.2c-0.3-0.1-0.6-0.3-1-0.8c-0.4-0.5-0.5-0.9-0.5-1.2C51.9,46.1,52,45.9,52.2,45.7z
		 M50.3,47.4c0.2-0.2,0.5-0.3,0.8-0.2c0.3,0.1,0.7,0.3,1.1,0.8c0.4,0.4,0.6,0.8,0.6,1.2c0,0.3-0.1,0.5-0.3,0.7
		c-0.2,0.2-0.5,0.3-0.8,0.2c-0.3-0.1-0.6-0.3-1-0.8c-0.4-0.4-0.6-0.8-0.6-1.2C49.9,47.8,50,47.6,50.3,47.4z M48.3,49.3
		c0.2-0.2,0.5-0.3,0.7-0.3c0.3,0,0.7,0.3,1.1,0.7c0.4,0.4,0.7,0.8,0.7,1.1c0,0.3,0,0.5-0.3,0.7c-0.2,0.2-0.5,0.3-0.8,0.3
		c-0.3,0-0.7-0.2-1.1-0.7c-0.4-0.4-0.7-0.8-0.7-1.1C48,49.7,48.1,49.5,48.3,49.3z M46.6,51.2c0.2-0.2,0.4-0.3,0.7-0.3
		c0.3,0,0.7,0.2,1.2,0.6c0.5,0.4,0.7,0.7,0.8,1.1c0.1,0.3,0,0.5-0.2,0.7c-0.2,0.2-0.5,0.3-0.8,0.3c-0.3,0-0.7-0.2-1.1-0.6
		c-0.4-0.4-0.7-0.7-0.8-1.1C46.3,51.7,46.4,51.4,46.6,51.2z M44.9,53.2c0.2-0.2,0.4-0.4,0.7-0.4c0.3,0,0.7,0.2,1.2,0.6
		c0.5,0.4,0.7,0.7,0.8,1c0.1,0.3,0,0.5-0.2,0.8c-0.2,0.2-0.4,0.4-0.7,0.4c-0.3,0-0.7-0.2-1.2-0.6c-0.5-0.4-0.7-0.7-0.8-1
		C44.7,53.7,44.7,53.4,44.9,53.2z M43.1,55.8l2.7,1.6l-0.3,0.6l-2.3-1.3l-0.6,1.1l2.3,1.3l-0.3,0.6L41.8,58L43.1,55.8z M40.6,60.4
		l1.9,1l-1.3-2.1l0.3-0.6l2.8,1.4L44,60.7l-1.8-0.9l1.2,2.1l-0.3,0.6l-2.8-1.4L40.6,60.4z M39.3,63.6l1.2,0.5l0.5-1.2l-1.2-0.5
		l0.2-0.6l2.9,1.1l-0.2,0.6l-1.3-0.5l-0.5,1.2l1.3,0.5L42,65.3L39,64.2L39.3,63.6z M38.4,66.3c0.1-0.4,0.2-0.6,0.3-0.7
		c0.1-0.2,0.2-0.3,0.4-0.3c0.2-0.1,0.4-0.1,0.6,0c0.2,0.1,0.3,0.1,0.4,0.2c0.1,0.1,0.2,0.2,0.2,0.3c0,0.1,0.1,0.2,0.1,0.4
		c0,0.2-0.1,0.4-0.1,0.6l-0.1,0.4l1.1,0.3l-0.2,0.6l-3-0.9L38.4,66.3z M38,67.7l0.5,0.1l-0.3,1.5l2.5,0.6l-0.1,0.6l-3.1-0.7L38,67.7
		z M37,72.1c0.1-0.5,0.2-0.8,0.6-1c0.3-0.2,0.7-0.3,1.2-0.3c0.5,0.1,0.9,0.3,1.1,0.6c0.3,0.3,0.3,0.7,0.3,1.2
		c-0.1,0.5-0.2,0.8-0.6,1.1c-0.3,0.2-0.7,0.3-1.2,0.3c-0.3,0-0.6-0.1-0.8-0.2c-0.1-0.1-0.3-0.2-0.4-0.3c-0.1-0.1-0.2-0.3-0.2-0.4
		C37,72.6,37,72.4,37,72.1z M37,79.8c0.2-0.2,0.7-0.4,1.3-0.4c0.6,0,1,0,1.3,0.2c0.2,0.2,0.4,0.4,0.4,0.7c0,0.3-0.1,0.6-0.3,0.8
		c-0.2,0.2-0.6,0.3-1.2,0.4c-0.6,0-1,0-1.3-0.2c-0.2-0.2-0.4-0.4-0.4-0.7C36.7,80.3,36.8,80,37,79.8z M37,83.2c0-0.3,0-0.6,0.2-0.8
		c0.2-0.2,0.6-0.4,1.2-0.5c0.6-0.1,1,0,1.3,0.1c0.2,0.1,0.4,0.4,0.4,0.7c0,0.3,0,0.6-0.3,0.8c-0.2,0.2-0.6,0.4-1.2,0.4
		c-0.6,0.1-1,0-1.3-0.1C37.2,83.7,37.1,83.5,37,83.2z M37.4,85.7c-0.1-0.3,0-0.6,0.2-0.8c0.2-0.2,0.6-0.4,1.2-0.5
		c0.6-0.1,1-0.1,1.3,0.1c0.2,0.1,0.4,0.3,0.4,0.6c0.1,0.3,0,0.6-0.2,0.8c-0.2,0.2-0.6,0.4-1.2,0.5c-0.6,0.1-1,0.1-1.3-0.1
		C37.6,86.2,37.5,86,37.4,85.7z M38,88.4c-0.1-0.3,0-0.6,0.1-0.8c0.2-0.3,0.6-0.5,1.1-0.6c0.6-0.2,1-0.2,1.3-0.1
		c0.3,0.1,0.4,0.3,0.5,0.6c0.1,0.3,0,0.6-0.1,0.8c-0.2,0.2-0.6,0.5-1.1,0.6c-0.6,0.2-1,0.2-1.3,0.1C38.3,88.9,38.1,88.7,38,88.4z
		 M38.8,90.9c-0.1-0.3-0.1-0.5,0.1-0.8c0.2-0.3,0.6-0.5,1.1-0.7c0.6-0.2,1-0.2,1.3-0.1c0.3,0.1,0.4,0.3,0.5,0.6
		c0.1,0.3,0.1,0.6-0.1,0.8c-0.2,0.3-0.5,0.5-1.1,0.7c-0.6,0.2-1,0.2-1.3,0.1C39,91.4,38.9,91.2,38.8,90.9z M40.2,93.9
		c-0.3-0.1-0.5-0.3-0.6-0.5c-0.1-0.3-0.1-0.5,0-0.8c0.2-0.3,0.5-0.5,1.1-0.8c0.6-0.2,1-0.3,1.3-0.2c0.3,0.1,0.4,0.3,0.6,0.5
		c0.1,0.3,0.1,0.6-0.1,0.8c-0.2,0.3-0.5,0.5-1.1,0.7C41,93.9,40.5,94,40.2,93.9z M41.3,96.2c-0.3-0.1-0.5-0.2-0.6-0.5
		c-0.1-0.3-0.1-0.5,0-0.8c0.2-0.3,0.5-0.6,1-0.8c0.5-0.2,1-0.3,1.3-0.2c0.3,0.1,0.5,0.2,0.6,0.5c0.1,0.3,0.1,0.6,0,0.8
		c-0.1,0.3-0.5,0.5-1,0.8C42,96.2,41.6,96.3,41.3,96.2z M42.6,98.6c-0.3,0-0.5-0.2-0.6-0.5c-0.2-0.3-0.2-0.5-0.1-0.8
		c0.1-0.3,0.4-0.6,1-0.9c0.5-0.3,0.9-0.4,1.3-0.4c0.3,0,0.5,0.2,0.6,0.5c0.2,0.3,0.2,0.5,0.1,0.8c-0.1,0.3-0.4,0.6-1,0.9
		C43.3,98.5,42.9,98.7,42.6,98.6z M43.3,100.4c-0.2-0.3-0.2-0.5-0.1-0.8c0.1-0.3,0.4-0.6,0.9-1c0.5-0.3,0.9-0.5,1.2-0.4
		c0.3,0,0.5,0.2,0.7,0.4c0.2,0.3,0.2,0.5,0.1,0.8c-0.1,0.3-0.4,0.6-0.9,0.9c-0.5,0.3-0.9,0.5-1.2,0.4
		C43.7,100.8,43.5,100.6,43.3,100.4z M44.8,102.5c-0.2-0.2-0.2-0.5-0.1-0.8c0.1-0.3,0.4-0.6,0.9-1c0.5-0.3,0.9-0.5,1.2-0.5
		c0.3,0,0.5,0.1,0.7,0.4c0.2,0.2,0.2,0.5,0.1,0.8c-0.1,0.3-0.4,0.6-0.9,1c-0.5,0.3-0.9,0.5-1.2,0.5C45.2,102.9,45,102.8,44.8,102.5z
		 M46.5,104.7c-0.2-0.2-0.3-0.5-0.2-0.8c0.1-0.3,0.3-0.7,0.8-1.1c0.5-0.4,0.8-0.6,1.2-0.6c0.3,0,0.5,0.1,0.7,0.3
		c0.2,0.2,0.3,0.5,0.2,0.8c-0.1,0.3-0.3,0.6-0.8,1c-0.4,0.4-0.8,0.6-1.2,0.6C46.9,105,46.7,104.9,46.5,104.7z M48.2,106.6
		c-0.2-0.2-0.3-0.5-0.3-0.7c0-0.3,0.3-0.7,0.7-1.1c0.4-0.4,0.8-0.6,1.1-0.7c0.3,0,0.5,0.1,0.7,0.3c0.2,0.2,0.3,0.5,0.3,0.8
		c0,0.3-0.3,0.7-0.7,1.1c-0.4,0.4-0.8,0.6-1.1,0.7C48.7,106.9,48.4,106.8,48.2,106.6z M50.8,108.7c-0.3,0-0.5,0-0.7-0.3
		c-0.2-0.2-0.3-0.5-0.3-0.7c0-0.3,0.3-0.7,0.7-1.1c0.4-0.4,0.8-0.7,1.1-0.7c0.3,0,0.5,0,0.7,0.3c0.2,0.2,0.3,0.5,0.3,0.8
		c0,0.3-0.2,0.7-0.7,1.1C51.5,108.4,51.1,108.6,50.8,108.7z M52.5,110.5l1.8-2.6l0.5,0.4l-1.5,2.1l1,0.7l1.5-2.1l0.5,0.4l-1.8,2.6
		L52.5,110.5z M56.8,113.4l1.1-1.8l-2.2,1.1l-0.5-0.3l1.7-2.6l0.5,0.3l-1.1,1.7l2.2-1l0.5,0.3l-1.7,2.6L56.8,113.4z M59.8,115
		l0.6-1.1l-1.1-0.6l-0.6,1.1l-0.6-0.3l1.4-2.8l0.6,0.3l-0.6,1.2l1.1,0.6l0.6-1.2l0.6,0.3l-1.4,2.8L59.8,115z M62.5,116.2
		c-0.4-0.1-0.6-0.2-0.7-0.3c-0.2-0.1-0.3-0.3-0.3-0.5c-0.1-0.2,0-0.4,0.1-0.6c0.1-0.2,0.2-0.3,0.3-0.4c0.1-0.1,0.2-0.2,0.4-0.2
		c0.1,0,0.2,0,0.4,0c0.2,0,0.4,0.1,0.6,0.2l0.4,0.2l0.4-1.1l0.6,0.2l-1.1,2.9L62.5,116.2z M65.9,117.4l-2-0.7l0.2-0.5l1.4,0.5
		l0.8-2.5l0.6,0.2L65.9,117.4z M70,116.8c-0.1,0.3-0.2,0.6-0.3,0.8c-0.1,0.1-0.2,0.3-0.4,0.4c-0.1,0.1-0.3,0.2-0.5,0.2
		c-0.2,0-0.4,0-0.7,0c-0.5-0.1-0.8-0.3-1-0.7c-0.2-0.3-0.3-0.8-0.1-1.3c0.1-0.5,0.3-0.9,0.7-1.1c0.3-0.2,0.7-0.3,1.2-0.2
		c0.5,0.1,0.8,0.3,1,0.7C70.1,115.9,70.1,116.3,70,116.8z M41.2,78c0-20.2,16.5-36.7,36.7-36.7s36.7,16.5,36.7,36.7
		S98.2,114.7,78,114.7S41.2,98.2,41.2,78z M93,116.1c-0.1,0.3-0.3,0.5-0.5,0.6v0c-0.3,0.1-0.5,0.1-0.8,0c-0.3-0.2-0.5-0.5-0.8-1.1
		c-0.2-0.6-0.3-1-0.2-1.3c0.1-0.3,0.3-0.5,0.5-0.6c0.3-0.1,0.6-0.1,0.8,0.1c0.3,0.2,0.5,0.5,0.7,1.1C93,115.3,93.1,115.7,93,116.1z
		 M95.4,115c-0.1,0.3-0.2,0.5-0.5,0.6v0c-0.3,0.1-0.5,0.1-0.8,0c-0.3-0.2-0.6-0.5-0.8-1c-0.2-0.5-0.3-1-0.2-1.3
		c0.1-0.3,0.2-0.5,0.5-0.6c0.3-0.1,0.6-0.1,0.8,0c0.3,0.1,0.5,0.5,0.8,1C95.4,114.3,95.4,114.7,95.4,115z M97.7,113.9
		c-0.1,0.3-0.2,0.5-0.5,0.6c-0.3,0.1-0.5,0.2-0.8,0c-0.3-0.1-0.6-0.5-0.9-1c-0.3-0.5-0.4-1-0.3-1.3c0.1-0.3,0.2-0.5,0.5-0.6
		c0.3-0.1,0.5-0.1,0.8,0c0.3,0.1,0.6,0.5,0.8,1C97.6,113.1,97.7,113.5,97.7,113.9z M99.6,113.1c-0.3,0.2-0.5,0.2-0.8,0.1
		c-0.3-0.1-0.6-0.4-1-0.9c-0.3-0.5-0.5-0.9-0.4-1.2c0-0.3,0.2-0.5,0.4-0.7c0.3-0.2,0.5-0.2,0.8-0.1c0.3,0.1,0.6,0.4,0.9,0.9
		c0.3,0.5,0.5,0.9,0.4,1.2C100,112.7,99.8,113,99.6,113.1z M101.7,111.7c-0.2,0.2-0.5,0.2-0.8,0.1c-0.3-0.1-0.6-0.4-1-0.9
		c-0.3-0.5-0.5-0.9-0.5-1.2c0-0.3,0.1-0.5,0.4-0.7c0.2-0.2,0.5-0.2,0.8-0.1c0.3,0.1,0.6,0.4,1,0.9c0.3,0.5,0.5,0.9,0.5,1.2
		C102.1,111.3,102,111.5,101.7,111.7z M103.8,110.1c-0.2,0.2-0.5,0.2-0.8,0.2c-0.3-0.1-0.7-0.3-1-0.8c-0.4-0.5-0.6-0.9-0.6-1.2
		c0-0.3,0.1-0.5,0.4-0.7c0.2-0.2,0.5-0.2,0.8-0.2c0.3,0.1,0.6,0.3,1,0.8c0.4,0.5,0.5,0.9,0.5,1.2C104.2,109.7,104,109.9,103.8,110.1
		z M105.9,108.4c-0.2,0.2-0.5,0.3-0.7,0.3c-0.3,0-0.7-0.3-1.1-0.7c-0.4-0.4-0.6-0.8-0.7-1.1c0-0.3,0.1-0.5,0.3-0.7
		c0.2-0.2,0.5-0.3,0.8-0.3c0.3,0,0.7,0.3,1.1,0.7c0.4,0.4,0.6,0.8,0.7,1.1C106.2,107.9,106.1,108.1,105.9,108.4z M107.7,106.5
		c-0.2,0.2-0.5,0.3-0.7,0.3c-0.3,0-0.7-0.3-1.1-0.7c-0.4-0.4-0.7-0.8-0.7-1.1c0-0.3,0-0.5,0.3-0.7c0.2-0.2,0.5-0.3,0.8-0.3
		c0.3,0,0.7,0.2,1.1,0.7c0.4,0.4,0.7,0.8,0.7,1.1C108,106.1,107.9,106.3,107.7,106.5z M109.5,104.6c-0.2,0.2-0.4,0.3-0.7,0.3
		c-0.3,0-0.7-0.2-1.2-0.6c-0.5-0.4-0.7-0.7-0.8-1.1c-0.1-0.3,0-0.5,0.2-0.7c0.2-0.2,0.5-0.3,0.8-0.3c0.3,0,0.7,0.2,1.1,0.6
		c0.4,0.4,0.7,0.7,0.8,1.1C109.7,104.1,109.7,104.4,109.5,104.6z M111.2,102.5c-0.2,0.2-0.4,0.4-0.7,0.4c-0.3,0-0.7-0.1-1.2-0.5
		c-0.5-0.3-0.8-0.7-0.9-1c-0.1-0.3,0-0.5,0.1-0.8c0.2-0.2,0.4-0.4,0.7-0.4c0.3,0,0.7,0.2,1.2,0.5c0.5,0.3,0.8,0.7,0.9,1
		C111.4,102,111.3,102.2,111.2,102.5z M112.6,100.3c-0.2,0.3-0.4,0.4-0.7,0.4c-0.3,0-0.7-0.1-1.2-0.4c-0.5-0.3-0.8-0.6-0.9-1
		c-0.1-0.3-0.1-0.5,0.1-0.8c0.2-0.3,0.4-0.4,0.7-0.4c0.3,0,0.7,0.1,1.2,0.4c0.5,0.3,0.8,0.6,0.9,0.9
		C112.8,99.8,112.8,100.1,112.6,100.3z M114,98.1c-0.2,0.3-0.4,0.4-0.6,0.5c-0.3,0-0.7-0.1-1.3-0.4c-0.5-0.3-0.8-0.6-1-0.9
		c-0.1-0.3-0.1-0.5,0.1-0.8c0.2-0.3,0.4-0.4,0.7-0.5c0.3,0,0.7,0.1,1.2,0.4c0.5,0.3,0.8,0.6,1,0.9C114.1,97.6,114.1,97.8,114,98.1z
		 M115.2,95.7c-0.1,0.3-0.3,0.4-0.6,0.5c-0.3,0.1-0.8,0-1.3-0.3c-0.5-0.2-0.9-0.5-1-0.8c-0.1-0.2-0.1-0.5,0-0.8
		c0.1-0.3,0.3-0.5,0.6-0.5c0.3-0.1,0.7,0,1.3,0.3c0.5,0.2,0.9,0.5,1,0.8C115.4,95.1,115.4,95.4,115.2,95.7z M116.5,92.9l-3-1
		l0.2-0.6l2.5,0.8l0.4-1.2l-2.5-0.8l0.2-0.6l3,1L116.5,92.9z M118,87.9l-2-0.6l1.7,1.8l-0.2,0.6l-3-0.9l0.2-0.6l2,0.6l-1.6-1.8
		l0.2-0.6l3,0.9L118,87.9z M118.7,84.5l-1.2-0.2l-0.2,1.2l1.2,0.2l-0.1,0.6l-3.1-0.5l0.1-0.6l1.4,0.2l0.2-1.2l-1.4-0.2l0.1-0.6
		l3.1,0.5L118.7,84.5z M119,81.7c0,0.4-0.1,0.6-0.1,0.7c-0.1,0.2-0.2,0.3-0.3,0.4c-0.2,0.1-0.4,0.2-0.6,0.1c-0.2,0-0.4-0.1-0.5-0.1
		c-0.1-0.1-0.2-0.2-0.3-0.3c-0.1-0.1-0.1-0.2-0.1-0.3c0-0.2,0-0.4,0-0.7l0-0.4l-1.2-0.1l0-0.6l3.1,0.2L119,81.7z M118.6,80.1l0-1.5
		l-2.6-0.1l0-0.6l3.1,0.1l-0.1,2.1L118.6,80.1z"/>
	<path class="st3" d="M94.2,113.3c-0.1-0.1-0.2-0.2-0.2-0.2c-0.1,0-0.1,0-0.2,0c-0.1,0-0.1,0.1-0.1,0.1c0,0.1,0,0.2,0,0.3
		c0,0.2,0.1,0.4,0.3,0.7c0.2,0.3,0.3,0.6,0.4,0.7c0.1,0.1,0.2,0.2,0.2,0.2c0.1,0,0.1,0,0.2,0c0.1,0,0.1-0.1,0.1-0.1
		c0-0.1,0-0.2,0-0.3c0-0.2-0.1-0.4-0.3-0.7C94.4,113.7,94.3,113.4,94.2,113.3z"/>
	<path class="st3" d="M100.2,46.3c0.1,0,0.2,0,0.3-0.1c0.1-0.1,0.3-0.3,0.5-0.6c0.2-0.3,0.3-0.5,0.4-0.7c0.1-0.1,0.1-0.2,0-0.3
		c0-0.1-0.1-0.1-0.1-0.2c-0.1,0-0.1-0.1-0.2-0.1c-0.1,0-0.2,0-0.3,0.1c-0.1,0.1-0.3,0.3-0.5,0.6c-0.2,0.3-0.3,0.5-0.4,0.7
		c-0.1,0.1-0.1,0.2,0,0.3c0,0.1,0.1,0.1,0.1,0.2C100,46.3,100.1,46.4,100.2,46.3z"/>
	<path class="st3" d="M104.5,106.4c-0.1-0.1-0.2-0.1-0.3-0.1c-0.1,0-0.1,0-0.2,0.1c-0.1,0-0.1,0.1-0.1,0.2c0,0.1,0,0.2,0.1,0.3
		c0.1,0.1,0.2,0.3,0.5,0.6c0.3,0.3,0.4,0.4,0.6,0.5c0.1,0.1,0.2,0.1,0.3,0.1c0.1,0,0.1,0,0.2-0.1c0.1,0,0.1-0.1,0.1-0.2
		c0-0.1,0-0.2-0.1-0.3c-0.1-0.1-0.2-0.3-0.5-0.6C104.8,106.7,104.6,106.5,104.5,106.4z"/>
	<path class="st3" d="M103.1,108.6c-0.2-0.3-0.4-0.5-0.5-0.6c-0.1-0.1-0.2-0.1-0.3-0.1c-0.1,0-0.1,0-0.2,0.1c-0.1,0-0.1,0.1-0.1,0.2
		c0,0.1,0,0.2,0.1,0.3c0.1,0.1,0.2,0.4,0.4,0.7c0.2,0.3,0.4,0.5,0.5,0.6c0.1,0.1,0.2,0.1,0.3,0.1c0.1,0,0.1,0,0.2-0.1
		c0.1,0,0.1-0.1,0.1-0.2c0-0.1,0-0.2-0.1-0.3C103.5,109.1,103.3,108.9,103.1,108.6z"/>
</g>
<path id="path23" class="st2" d="M56.9,69v-5.4h-2v-0.7h4.8v0.7h-2V69H56.9z M60,62.9h0.7v4.8l3.2-4.8h0.8V69H64v-4.8L60.8,69H60
	V62.9z M65.5,69v-6.1h1.2l1.4,4.3c0.1,0.4,0.2,0.7,0.3,0.9c0.1-0.2,0.2-0.5,0.3-1l1.5-4.2h1.1V69h-0.8v-5.1L68.7,69H68l-1.8-5.2V69
	L65.5,69z M72,62.9h0.7v4.8l3.2-4.8h0.8V69H76v-4.8L72.8,69H72V62.9z M77.5,69v-6.1h2.3c0.4,0,0.7,0,0.9,0.1c0.3,0,0.5,0.1,0.8,0.3
	c0.2,0.1,0.4,0.3,0.5,0.6c0.1,0.3,0.2,0.5,0.2,0.8c0,0.5-0.2,1-0.5,1.3c-0.3,0.4-0.9,0.5-1.8,0.5h-1.6V69L77.5,69z M78.3,65.8h1.6
	c0.5,0,0.9-0.1,1.1-0.3c0.2-0.2,0.3-0.5,0.3-0.8c0-0.3-0.1-0.5-0.2-0.7c-0.1-0.2-0.3-0.3-0.5-0.4c-0.1,0-0.4-0.1-0.8-0.1h-1.6V65.8z
	 M82.6,62.9h0.8v2.7c0.4,0,0.6-0.1,0.8-0.2c0.2-0.1,0.3-0.5,0.6-1c0.2-0.4,0.3-0.7,0.4-0.8c0.1-0.2,0.3-0.3,0.5-0.4
	c0.2-0.1,0.4-0.2,0.7-0.2c0.3,0,0.5,0,0.5,0v0.7c0,0-0.1,0-0.2,0c-0.1,0-0.1,0-0.2,0c-0.3,0-0.4,0.1-0.6,0.2
	c-0.1,0.1-0.3,0.4-0.4,0.8c-0.2,0.5-0.4,0.8-0.5,1c-0.1,0.1-0.3,0.2-0.5,0.3c0.4,0.1,0.8,0.5,1.2,1.1l1.3,2h-1l-1-1.6
	c-0.3-0.5-0.5-0.8-0.7-0.9c-0.2-0.2-0.4-0.3-0.7-0.3V69h-0.8V62.9z M86.9,69v-6.1h4.4v0.7h-3.6v1.9h3.4v0.7h-3.4v2.1h3.7V69H86.9z
	 M92,69v-6.1h4.4v0.7h-3.6v1.9h3.4v0.7h-3.4v2.1h3.7V69H92z M97,69v-6.1h2.3c0.5,0,0.8,0.1,1.1,0.2c0.3,0.1,0.5,0.3,0.7,0.6
	c0.2,0.3,0.2,0.5,0.2,0.8c0,0.3-0.1,0.5-0.2,0.7c-0.1,0.2-0.4,0.4-0.6,0.6c0.4,0.1,0.7,0.3,0.8,0.6c0.2,0.3,0.3,0.6,0.3,0.9
	c0,0.3-0.1,0.6-0.2,0.8c-0.1,0.2-0.3,0.4-0.4,0.6c-0.2,0.1-0.4,0.2-0.7,0.3c-0.3,0.1-0.6,0.1-1,0.1H97z M97.9,65.4h1.3
	c0.4,0,0.6,0,0.8-0.1c0.2-0.1,0.4-0.2,0.5-0.3c0.1-0.1,0.2-0.3,0.2-0.5c0-0.2,0-0.4-0.1-0.5c-0.1-0.2-0.2-0.3-0.4-0.3
	c-0.2-0.1-0.5-0.1-0.9-0.1h-1.2L97.9,65.4z M97.9,68.3h1.5c0.3,0,0.4,0,0.5,0c0.2,0,0.3-0.1,0.5-0.2c0.1-0.1,0.2-0.2,0.3-0.3
	c0.1-0.1,0.1-0.3,0.1-0.5c0-0.2-0.1-0.4-0.2-0.6c-0.1-0.2-0.3-0.3-0.5-0.4c-0.2-0.1-0.5-0.1-0.9-0.1h-1.4L97.9,68.3z M60.2,78.5
	l2.3-6.1h0.9l2.5,6.1H65l-0.7-1.8h-2.6l-0.7,1.8H60.2z M62,76H64l-0.6-1.7c-0.2-0.5-0.3-0.9-0.4-1.3c-0.1,0.4-0.2,0.8-0.3,1.2L62,76
	z M66.6,72.4h3.8v6.1h-0.8v-5.4h-2.2v3.1c0,0.6,0,1.1-0.1,1.4c-0.1,0.3-0.2,0.5-0.4,0.7c-0.2,0.2-0.4,0.2-0.7,0.2
	c-0.2,0-0.4,0-0.6-0.1l0.1-0.7c0.1,0.1,0.2,0.1,0.3,0.1c0.2,0,0.3-0.1,0.4-0.2c0.1-0.1,0.1-0.5,0.1-1L66.6,72.4z M71.2,78.5v-6.1
	h4.4v0.7H72V75h3.4v0.7H72v2.1h3.7v0.7L71.2,78.5z M76.2,72.4H77V75c0.4,0,0.6-0.1,0.8-0.2c0.2-0.1,0.3-0.5,0.6-1
	c0.2-0.4,0.3-0.7,0.4-0.8c0.1-0.2,0.3-0.3,0.5-0.4c0.2-0.1,0.4-0.2,0.7-0.2c0.3,0,0.5,0,0.5,0v0.7c0,0-0.1,0-0.2,0
	c-0.1,0-0.1,0-0.2,0c-0.3,0-0.4,0.1-0.6,0.2c-0.1,0.1-0.3,0.4-0.4,0.8c-0.2,0.5-0.4,0.8-0.5,1c-0.1,0.1-0.3,0.2-0.5,0.3
	c0.4,0.1,0.8,0.5,1.2,1.1l1.3,2h-1l-1-1.6c-0.3-0.5-0.5-0.8-0.7-0.9c-0.2-0.2-0.4-0.3-0.7-0.3v2.8h-0.8L76.2,72.4z M84.8,76.3
	l0.8,0.2c-0.2,0.7-0.5,1.2-0.9,1.5c-0.4,0.3-1,0.5-1.6,0.5c-0.7,0-1.2-0.1-1.6-0.4c-0.4-0.3-0.7-0.7-0.9-1.2c-0.2-0.5-0.3-1-0.3-1.6
	c0-0.6,0.1-1.2,0.4-1.7c0.2-0.5,0.6-0.8,1-1.1c0.4-0.2,0.9-0.4,1.5-0.4c0.6,0,1.1,0.2,1.5,0.5c0.4,0.3,0.7,0.7,0.9,1.3l-0.8,0.2
	c-0.1-0.4-0.3-0.8-0.6-1c-0.3-0.2-0.6-0.3-1-0.3c-0.5,0-0.9,0.1-1.2,0.3c-0.3,0.2-0.5,0.5-0.7,0.9c-0.1,0.4-0.2,0.8-0.2,1.2
	c0,0.5,0.1,1,0.2,1.4c0.2,0.4,0.4,0.7,0.7,0.9c0.3,0.2,0.7,0.3,1,0.3c0.5,0,0.8-0.1,1.1-0.4C84.5,77.2,84.7,76.8,84.8,76.3z
	 M86,78.5v-6.1h4.4v0.7h-3.6V75h3.4v0.7h-3.4v2.1h3.7v0.7L86,78.5z M91.1,72.4h0.7v4.8l3.2-4.8h0.8v6.1h-0.7v-4.8l-3.2,4.8h-0.8
	V72.4z M94.2,70.9h0.5c0,0.4-0.2,0.6-0.4,0.8c-0.2,0.2-0.5,0.3-0.8,0.3c-0.4,0-0.6-0.1-0.8-0.3c-0.2-0.2-0.3-0.5-0.4-0.8h0.5
	c0,0.2,0.1,0.3,0.2,0.4c0.1,0.1,0.3,0.1,0.5,0.1c0.2,0,0.4,0,0.5-0.1C94,71.3,94.1,71.1,94.2,70.9L94.2,70.9z M44.4,88l2.3-6.1h0.9
	l2.5,6.1h-0.9l-0.7-1.8h-2.6L45.3,88L44.4,88z M46.2,85.5h2.1l-0.6-1.7c-0.2-0.5-0.3-0.9-0.4-1.3c-0.1,0.4-0.2,0.8-0.3,1.2
	L46.2,85.5z M50.8,81.9h3.8V88h-0.8v-5.4h-2.2v3.1c0,0.6,0,1.1-0.1,1.4c-0.1,0.3-0.2,0.5-0.4,0.7c-0.2,0.2-0.4,0.2-0.7,0.2
	c-0.2,0-0.4,0-0.6-0.1l0.1-0.7c0.1,0.1,0.2,0.1,0.3,0.1c0.2,0,0.3-0.1,0.4-0.2c0.1-0.1,0.1-0.5,0.1-1L50.8,81.9z M55.4,88v-6.1h4.4
	v0.7h-3.6v1.9h3.4v0.7h-3.4v2.1h3.7V88H55.4z M60.4,81.9h0.8v2.7c0.4,0,0.6-0.1,0.8-0.2c0.2-0.1,0.3-0.5,0.6-1
	c0.2-0.4,0.3-0.7,0.4-0.8c0.1-0.2,0.3-0.3,0.5-0.4c0.2-0.1,0.4-0.2,0.7-0.2c0.3,0,0.5,0,0.5,0v0.7c0,0-0.1,0-0.2,0
	c-0.1,0-0.1,0-0.2,0c-0.3,0-0.4,0.1-0.6,0.2c-0.1,0.1-0.3,0.4-0.4,0.8c-0.2,0.5-0.4,0.8-0.5,1c-0.1,0.1-0.3,0.2-0.5,0.3
	c0.4,0.1,0.8,0.5,1.2,1.1l1.3,2h-1l-1-1.6c-0.3-0.5-0.5-0.8-0.7-0.9c-0.2-0.2-0.4-0.3-0.7-0.3V88h-0.8L60.4,81.9z M69,85.8l0.8,0.2
	c-0.2,0.7-0.5,1.2-0.9,1.5c-0.4,0.3-1,0.5-1.6,0.5c-0.7,0-1.2-0.1-1.6-0.4c-0.4-0.3-0.7-0.7-0.9-1.2c-0.2-0.5-0.3-1-0.3-1.6
	c0-0.6,0.1-1.2,0.4-1.7c0.2-0.5,0.6-0.8,1-1.1c0.4-0.2,0.9-0.4,1.5-0.4c0.6,0,1.1,0.2,1.5,0.5c0.4,0.3,0.7,0.7,0.9,1.3l-0.8,0.2
	c-0.1-0.4-0.3-0.8-0.6-1c-0.3-0.2-0.6-0.3-1-0.3c-0.5,0-0.9,0.1-1.2,0.3c-0.3,0.2-0.5,0.5-0.7,0.9c-0.1,0.4-0.2,0.8-0.2,1.2
	c0,0.5,0.1,1,0.2,1.4c0.2,0.4,0.4,0.7,0.7,0.9c0.3,0.2,0.7,0.3,1,0.3c0.5,0,0.8-0.1,1.1-0.4C68.7,86.7,68.9,86.3,69,85.8z M69.4,88
	l2.3-6.1h0.9l2.5,6.1h-0.9l-0.7-1.8h-2.6L70.2,88H69.4z M71.1,85.5h2.1l-0.6-1.7c-0.2-0.5-0.3-0.9-0.4-1.3c-0.1,0.4-0.2,0.8-0.3,1.2
	L71.1,85.5z M75.2,88v-6.1H76v2.5h3.1v-2.5h0.8V88h-0.8v-2.9H76V88H75.2z M81.2,81.9h3.7v5.4h0.5v2.1h-0.7V88h-4v1.4H80v-2.1h0.5
	c0.5-0.7,0.7-2.2,0.7-4.5V81.9z M84.1,82.6H82v0.3c0,0.5,0,1.2-0.1,2.1c-0.1,0.9-0.3,1.6-0.5,2.2h2.8V82.6z M85.8,88v-6.1h2.3
	c0.4,0,0.7,0,0.9,0.1c0.3,0,0.5,0.1,0.8,0.3c0.2,0.1,0.4,0.3,0.5,0.6c0.1,0.3,0.2,0.5,0.2,0.8c0,0.5-0.2,1-0.5,1.3
	c-0.3,0.4-0.9,0.5-1.8,0.5h-1.6V88L85.8,88z M86.6,84.8h1.6c0.5,0,0.9-0.1,1.1-0.3c0.2-0.2,0.3-0.5,0.3-0.8c0-0.3-0.1-0.5-0.2-0.7
	c-0.1-0.2-0.3-0.3-0.5-0.4c-0.1,0-0.4-0.1-0.8-0.1h-1.6V84.8z M90.5,85c0-1,0.3-1.8,0.8-2.4c0.5-0.6,1.2-0.9,2.1-0.9
	c0.6,0,1.1,0.1,1.5,0.4c0.5,0.3,0.8,0.6,1,1.1c0.2,0.5,0.4,1,0.4,1.6c0,0.6-0.1,1.2-0.4,1.7c-0.2,0.5-0.6,0.9-1.1,1.1
	c-0.5,0.3-1,0.4-1.5,0.4c-0.6,0-1.1-0.1-1.5-0.4c-0.5-0.3-0.8-0.7-1-1.1C90.6,86,90.5,85.5,90.5,85L90.5,85z M91.3,85
	c0,0.7,0.2,1.3,0.6,1.7c0.4,0.4,0.9,0.6,1.5,0.6c0.6,0,1.1-0.2,1.5-0.6c0.4-0.4,0.6-1,0.6-1.8c0-0.5-0.1-0.9-0.3-1.3
	c-0.2-0.4-0.4-0.7-0.7-0.9c-0.3-0.2-0.7-0.3-1.1-0.3c-0.6,0-1.1,0.2-1.5,0.6S91.3,84.1,91.3,85z M96.7,88v-6.1H99
	c0.5,0,0.8,0.1,1.1,0.2c0.3,0.1,0.5,0.3,0.7,0.6c0.2,0.3,0.2,0.5,0.2,0.8c0,0.3-0.1,0.5-0.2,0.7c-0.1,0.2-0.4,0.4-0.6,0.6
	c0.4,0.1,0.7,0.3,0.8,0.6c0.2,0.3,0.3,0.6,0.3,0.9c0,0.3-0.1,0.6-0.2,0.8c-0.1,0.2-0.3,0.4-0.4,0.6c-0.2,0.1-0.4,0.2-0.7,0.3
	c-0.3,0.1-0.6,0.1-1,0.1L96.7,88z M97.5,84.4h1.3c0.4,0,0.6,0,0.8-0.1c0.2-0.1,0.4-0.2,0.5-0.3c0.1-0.1,0.2-0.3,0.2-0.5
	c0-0.2,0-0.4-0.1-0.5c-0.1-0.2-0.2-0.3-0.4-0.3s-0.5-0.1-0.9-0.1h-1.2L97.5,84.4z M97.5,87.2H99c0.3,0,0.4,0,0.5,0
	c0.2,0,0.3-0.1,0.5-0.2c0.1-0.1,0.2-0.2,0.3-0.3c0.1-0.1,0.1-0.3,0.1-0.5c0-0.2-0.1-0.4-0.2-0.6c-0.1-0.2-0.3-0.3-0.5-0.4
	c-0.2-0.1-0.5-0.1-0.9-0.1h-1.4L97.5,87.2z M101.8,81.9h0.7v4.8l3.2-4.8h0.8V88h-0.7v-4.8l-3.2,4.8h-0.8V81.9z M111.7,88h-0.8v-2.5
	c-0.7,0.3-1.4,0.4-1.9,0.4c-0.4,0-0.8-0.1-1.1-0.3c-0.3-0.2-0.5-0.4-0.7-0.8c-0.1-0.3-0.2-0.7-0.2-1.2v-1.8h0.8v1.7
	c0,0.7,0.1,1.1,0.4,1.3c0.2,0.2,0.5,0.3,0.9,0.3c0.6,0,1.2-0.1,1.8-0.4v-3h0.8L111.7,88z"/>
<path id="path25" class="st2" d="M28.7,79.2l0-0.6l4,0.1L28.8,76l0-0.7l5,0.1l0,0.6l-4-0.1l3.9,2.7l0,0.7L28.7,79.2z M33.9,74.3
	l-5-0.7l0.1-0.7l2,0.3l0.3-2.6l-2-0.3l0.1-0.7l5,0.7L34.3,71L32,70.7l-0.3,2.6l2.3,0.3L33.9,74.3z M29.8,67.7l0.7-3l4.3,1l0.1-0.4
	l1.7,0.4l-0.1,0.6L35.3,66l-0.7,3.2l1.1,0.3l-0.1,0.6l-1.7-0.4l0.1-0.4c-0.5-0.5-1.7-1-3.5-1.4L29.8,67.7z M30.9,65.5l-0.4,1.7
	l0.3,0.1c0.4,0.1,1,0.3,1.7,0.5c0.7,0.2,1.3,0.5,1.7,0.8l0.5-2.3L30.9,65.5z M31,63.1l0.2-0.6l3.8,1.3L32.1,60l0.2-0.6l4.7,1.6
	l-0.2,0.6l-3.7-1.3l2.9,3.8l-0.2,0.6L31,63.1z M37.5,60L33,57.7l0.9-1.7c0.2-0.3,0.4-0.6,0.6-0.7c0.2-0.2,0.4-0.2,0.7-0.3
	c0.2,0,0.5,0,0.7,0.1c0.2,0.1,0.3,0.2,0.5,0.4c0.1,0.2,0.2,0.4,0.2,0.7c0.2-0.2,0.5-0.4,0.7-0.4c0.3,0,0.5,0,0.8,0.1
	c0.2,0.1,0.4,0.3,0.5,0.4c0.1,0.2,0.2,0.4,0.2,0.5c0,0.2,0,0.4,0,0.6c-0.1,0.2-0.2,0.5-0.3,0.8L37.5,60z M35.2,58.1l0.5-1
	c0.1-0.3,0.2-0.5,0.2-0.6c0-0.2,0-0.3,0-0.5c-0.1-0.1-0.2-0.2-0.3-0.3c-0.1-0.1-0.3-0.1-0.4-0.1c-0.1,0-0.3,0.1-0.4,0.2
	s-0.2,0.3-0.4,0.6l-0.5,0.9L35.2,58.1z M37.3,59.1l0.6-1.1c0.1-0.2,0.2-0.3,0.2-0.4c0-0.1,0.1-0.3,0.1-0.4c0-0.1-0.1-0.2-0.1-0.4
	c-0.1-0.1-0.2-0.2-0.3-0.3c-0.2-0.1-0.3-0.1-0.5-0.1c-0.2,0-0.3,0.1-0.4,0.2c-0.1,0.1-0.3,0.3-0.4,0.6l-0.5,1L37.3,59.1z M35.4,53.1
	l0.3-0.5l3.4,2.1l-1.9-4.4l0.4-0.6l4.2,2.7L41.5,53l-3.3-2.1l1.9,4.4l-0.4,0.6L35.4,53.1z M38.8,48.1l1.9-2.4l3.5,2.8l0.3-0.4
	l1.4,1.1l-0.4,0.5L44.5,49l-2.1,2.6l0.9,0.7L43,52.8l-1.4-1.1l0.2-0.3c-0.2-0.7-1.1-1.6-2.5-2.8L38.8,48.1z M40.8,46.6L39.7,48
	l0.2,0.2c0.3,0.3,0.8,0.7,1.3,1.2c0.5,0.5,0.9,1,1.1,1.5l1.4-1.8L40.8,46.6z M41.5,44.8l0.5-0.5l3.4,0.9l-1.3-3.2l0.4-0.5l1.5,4
	c0.2,0.5,0.3,0.9,0.3,1.1c0,0.2-0.1,0.4-0.3,0.6c-0.1,0.1-0.3,0.2-0.5,0.4l-0.4-0.4c0.2-0.1,0.4-0.2,0.5-0.3
	c0.1-0.1,0.2-0.3,0.2-0.4c0-0.2-0.1-0.4-0.2-0.8L41.5,44.8z M48,45.5l-1.9-5l0.5-0.5l4.8,2.4l-0.6,0.5l-1.4-0.8l-1.6,1.4l0.6,1.5
	L48,45.5z M47.7,43l1.3-1.1l-1.3-0.7c-0.4-0.2-0.7-0.4-1-0.5c0.2,0.3,0.3,0.6,0.4,0.9L47.7,43z M49.7,37.6l2.6-1.7l2.7,4.2l-0.6,0.4
	l-2.4-3.7l-1.5,1l1.4,2.2c0.3,0.4,0.5,0.8,0.6,1c0.1,0.2,0.1,0.4,0,0.6c-0.1,0.2-0.2,0.4-0.4,0.5c-0.1,0.1-0.3,0.1-0.5,0.2l-0.2-0.6
	c0.1,0,0.2,0,0.3-0.1c0.1-0.1,0.2-0.2,0.2-0.3c0-0.1-0.1-0.4-0.3-0.7L49.7,37.6z M53.6,35.1l0.6-0.3l1,1.9l1.1-0.6
	c0.5-0.3,0.9-0.4,1.2-0.4c0.3,0,0.5,0.1,0.7,0.2c0.2,0.1,0.4,0.3,0.5,0.5c0.2,0.3,0.2,0.7,0.1,1.1c-0.1,0.4-0.5,0.7-1.1,1.1L56,39.6
	L53.6,35.1z M56.3,38.8l1.1-0.6c0.4-0.2,0.7-0.5,0.7-0.7c0-0.2,0-0.4-0.1-0.7c-0.1-0.2-0.2-0.3-0.4-0.4c-0.2-0.1-0.3-0.1-0.5,0
	c-0.2,0-0.5,0.2-0.8,0.4l-0.8,0.4L56.3,38.8z M60.1,37.5l-1.8-4.7l0.6-0.2l0.8,1.9l2.4-0.9l-0.8-1.9l0.6-0.2l1.8,4.7l-0.6,0.2
	l-0.9-2.2L59.8,35l0.9,2.2L60.1,37.5z M63.7,30.7l0.6-0.1l0.5,2.1l1.2-0.3c0.8-0.2,1.3-0.2,1.6,0.1c0.3,0.2,0.5,0.5,0.6,0.9
	c0.1,0.4,0,0.7-0.2,1.1c-0.2,0.3-0.6,0.6-1.3,0.8l-1.9,0.4L63.7,30.7z M65.3,34.9l1.2-0.3c0.4-0.1,0.7-0.2,0.8-0.4
	c0.2-0.2,0.2-0.4,0.1-0.7c0-0.2-0.1-0.4-0.3-0.5c-0.1-0.1-0.3-0.2-0.5-0.2c-0.2,0-0.5,0.1-0.9,0.1l-0.9,0.2L65.3,34.9z M67.9,29.7
	l0.6-0.1l1.1,4.9l-0.6,0.1L67.9,29.7z M70.2,29.3l0.6-0.1l0.5,3.9l2.1-4.3l0.7-0.1l0.7,5l-0.6,0.1l-0.5-3.9l-2.1,4.3l-0.7,0.1
	L70.2,29.3z M72.5,27.8l0.4-0.1c0,0.3-0.1,0.5-0.2,0.7c-0.2,0.2-0.4,0.3-0.7,0.3c-0.3,0-0.5,0-0.7-0.1c-0.2-0.1-0.3-0.3-0.4-0.6
	l0.4-0.1c0.1,0.2,0.1,0.3,0.2,0.3c0.1,0.1,0.2,0.1,0.4,0.1c0.2,0,0.3-0.1,0.4-0.2C72.4,28.1,72.5,28,72.5,27.8z M77.9,28.7l3.9,0.1
	l-0.1,5l-0.7,0l0.1-4.4l-2.6,0l-0.1,4.4l-0.7,0L77.9,28.7z M82.8,34l0.7-5l1.9,0.3c0.3,0,0.6,0.1,0.8,0.1c0.2,0.1,0.4,0.2,0.6,0.3
	c0.2,0.1,0.3,0.3,0.3,0.5c0.1,0.2,0.1,0.5,0.1,0.7c-0.1,0.4-0.2,0.8-0.5,1c-0.3,0.3-0.8,0.3-1.5,0.2l-1.3-0.2l-0.3,2L82.8,34z
	 M83.8,31.5l1.3,0.2c0.4,0.1,0.7,0,0.9-0.1c0.2-0.1,0.3-0.3,0.4-0.6c0-0.2,0-0.4-0.1-0.6c-0.1-0.2-0.2-0.3-0.4-0.4
	c-0.1,0-0.3-0.1-0.6-0.1l-1.3-0.2L83.8,31.5z M87.5,34.7l1.5-4.8l3.5,1.1l-0.2,0.6l-2.8-0.9L89,32.1l2.6,0.8l-0.2,0.6l-2.6-0.8
	l-0.5,1.6l2.9,0.9L91,35.8L87.5,34.7z M94.2,31.5l2.9,1.1l-1.6,4.1l0.4,0.2l-0.6,1.6l-0.5-0.2l0.4-1.1L92,36l-0.4,1.1L91,36.9
	l0.6-1.6l0.4,0.1c0.6-0.4,1.2-1.5,1.9-3.2L94.2,31.5z M96.2,32.9l-1.6-0.6l-0.1,0.2c-0.2,0.4-0.4,0.9-0.7,1.6
	c-0.3,0.7-0.7,1.2-1.1,1.5l2.2,0.8L96.2,32.9z M98.7,33.3l3.5,1.8l-2.3,4.4l-0.6-0.3l2-3.9L99,34.1L97,38l-0.6-0.3L98.7,33.3z
	 M100.8,40.1l2.7-4.2l1.6,1c0.3,0.2,0.5,0.3,0.6,0.4c0.2,0.2,0.3,0.3,0.4,0.5c0.1,0.2,0.1,0.4,0.1,0.6c0,0.2-0.1,0.4-0.2,0.7
	c-0.2,0.4-0.5,0.6-0.9,0.7c-0.4,0.1-0.9,0-1.5-0.4l-1.1-0.7l-1.1,1.7L100.8,40.1z M102.8,38.2l1.1,0.7c0.4,0.2,0.7,0.3,0.9,0.3
	c0.2,0,0.4-0.2,0.6-0.4c0.1-0.2,0.2-0.4,0.2-0.5c0-0.2-0.1-0.3-0.2-0.5c-0.1-0.1-0.2-0.2-0.5-0.4l-1.1-0.7L102.8,38.2z M108,38.9
	l0.5,0.4l-2.6,3l4.6-1.3l0.5,0.4l-3.3,3.8l-0.5-0.4l2.6-3l-4.6,1.3l-0.5-0.4L108,38.9z M108.5,46l3.6-3.5l0.5,0.5l-1.5,1.4l1.8,1.9
	l1.5-1.4l0.5,0.5l-3.6,3.5l-0.5-0.5l1.7-1.6l-1.8-1.9l-1.7,1.6L108.5,46z M115.9,46.6l0.4,0.5l-3.1,2.4l4.8-0.3l0.4,0.5l-3.9,3.1
	l-0.4-0.5l3.1-2.4l-4.8,0.3l-0.4-0.5L115.9,46.6z M115,53.7l4.4-2.5l0.5,0.9l-2.5,2.8c-0.2,0.3-0.4,0.4-0.5,0.6
	c0.2,0,0.5-0.1,0.8-0.2l3.6-0.7l0.4,0.8l-4.4,2.5l-0.3-0.6l3.7-2.1l-4.4,0.8l-0.3-0.5l3-3.4l-3.7,2.1L115,53.7z M117.6,58.3L123,58
	l0.3,0.7l-3.7,3.9l-0.3-0.7l1.1-1.2l-0.9-1.9l-1.6,0.1L117.6,58.3z M120.1,58.8l0.7,1.6l1.1-1c0.3-0.3,0.6-0.6,0.8-0.8
	c-0.3,0.1-0.7,0.1-1,0.1L120.1,58.8z M119.8,63.8l4.2-1.4l-0.5-1.6l0.6-0.2l1.2,3.8l-0.6,0.2l-0.5-1.6l-4.2,1.4L119.8,63.8z
	 M120.7,66.7l4.9-1.1l0.8,3.5l-0.6,0.1l-0.7-2.9l-1.5,0.3l0.6,2.7l-0.6,0.1l-0.6-2.7l-1.7,0.4l0.7,3l-0.6,0.1L120.7,66.7z M126.7,71
	l0.4,3.1l-5,0.7l-0.1-0.7l4.4-0.6l-0.2-1.8l-2.6,0.3c-0.5,0.1-0.9,0.1-1.2,0.1c-0.2,0-0.5-0.1-0.6-0.2c-0.2-0.1-0.2-0.3-0.3-0.6
	c0-0.1,0-0.3,0-0.5l0.6,0c0,0.1-0.1,0.2,0,0.3c0,0.1,0.1,0.3,0.2,0.3c0.1,0.1,0.4,0.1,0.8,0L126.7,71z M127.1,75.8l0,0.7l-2.1,0
	l0,1.2c0,0.6,0,1-0.2,1.2c-0.1,0.3-0.3,0.4-0.5,0.5c-0.2,0.1-0.5,0.2-0.7,0.2c-0.4,0-0.7-0.1-1-0.4c-0.3-0.3-0.5-0.7-0.5-1.5l0-1.9
	L127.1,75.8z M122.7,76.5l0,1.2c0,0.5,0.1,0.8,0.3,1c0.2,0.1,0.4,0.2,0.6,0.2c0.2,0,0.4-0.1,0.5-0.2c0.1-0.1,0.2-0.3,0.3-0.4
	c0-0.2,0.1-0.5,0-0.9l0-0.9L122.7,76.5z"/>
<path id="path27" class="st2" d="M29.4,85.6l4.2-0.7l0.3,1.6c0,0.3,0.1,0.5,0.1,0.7c0,0.2,0,0.4-0.1,0.6c-0.1,0.2-0.2,0.3-0.3,0.4
	c-0.2,0.1-0.3,0.2-0.6,0.2c-0.4,0.1-0.7,0-1-0.2c-0.3-0.2-0.5-0.6-0.6-1.2l-0.2-1.1l-1.7,0.3L29.4,85.6z M31.8,85.8l0.2,1.1
	c0.1,0.4,0.2,0.6,0.3,0.7c0.2,0.1,0.4,0.2,0.6,0.1c0.2,0,0.3-0.1,0.4-0.2c0.1-0.1,0.2-0.2,0.2-0.4c0-0.1,0-0.3-0.1-0.5l-0.2-1.1
	L31.8,85.8z M32.1,88.5c0.7-0.2,1.3-0.2,1.8,0.1c0.5,0.3,0.8,0.7,1,1.3c0.1,0.4,0.1,0.8,0,1.1c-0.1,0.4-0.3,0.7-0.6,0.9
	c-0.3,0.3-0.6,0.4-1,0.6c-0.4,0.1-0.8,0.1-1.2,0.1c-0.4-0.1-0.7-0.2-1-0.5c-0.3-0.3-0.4-0.6-0.5-0.9c-0.1-0.4-0.1-0.8,0-1.1
	c0.1-0.4,0.3-0.7,0.6-0.9C31.4,88.8,31.7,88.6,32.1,88.5z M32.2,89.1c-0.5,0.1-0.8,0.4-1.1,0.7c-0.2,0.3-0.3,0.7-0.1,1.1
	c0.1,0.4,0.4,0.7,0.7,0.9c0.4,0.2,0.8,0.2,1.3,0c0.3-0.1,0.6-0.2,0.8-0.4c0.2-0.2,0.4-0.4,0.4-0.7c0.1-0.3,0.1-0.5,0-0.8
	c-0.1-0.4-0.3-0.7-0.7-0.9C33.3,88.9,32.8,88.9,32.2,89.1z M33.8,95.9l0.1,0.6c-0.5,0.1-0.9,0-1.2-0.2c-0.3-0.2-0.6-0.5-0.8-0.9
	c-0.2-0.4-0.2-0.8-0.2-1.2c0.1-0.3,0.2-0.6,0.5-0.9c0.3-0.3,0.6-0.5,1-0.6c0.4-0.2,0.8-0.2,1.2-0.2c0.4,0,0.7,0.2,1,0.4
	c0.3,0.2,0.5,0.5,0.6,0.9c0.2,0.4,0.2,0.8,0.1,1.1c-0.1,0.4-0.3,0.7-0.6,0.9l-0.3-0.5c0.3-0.2,0.4-0.4,0.5-0.7
	c0.1-0.2,0-0.5-0.1-0.7c-0.1-0.3-0.3-0.5-0.5-0.7c-0.2-0.1-0.5-0.2-0.8-0.2c-0.3,0-0.6,0.1-0.8,0.2c-0.3,0.1-0.6,0.3-0.8,0.5
	c-0.2,0.2-0.3,0.4-0.4,0.7c0,0.3,0,0.5,0.1,0.8c0.1,0.3,0.3,0.5,0.6,0.6C33.2,95.9,33.5,96,33.8,95.9z M35.5,99.6l0.1,0.6
	c-0.5,0.1-0.9,0-1.2-0.1c-0.4-0.2-0.6-0.5-0.8-0.9c-0.2-0.4-0.3-0.8-0.2-1.1c0.1-0.3,0.2-0.7,0.5-0.9c0.3-0.3,0.6-0.5,1-0.7
	c0.4-0.2,0.8-0.3,1.2-0.2c0.4,0,0.7,0.1,1,0.4c0.3,0.2,0.5,0.5,0.7,0.8c0.2,0.4,0.2,0.8,0.1,1.1c-0.1,0.4-0.3,0.7-0.6,0.9L36.8,99
	c0.2-0.2,0.4-0.4,0.4-0.7c0.1-0.2,0-0.5-0.1-0.7c-0.1-0.3-0.3-0.5-0.6-0.7c-0.2-0.1-0.5-0.2-0.8-0.2c-0.3,0-0.5,0.1-0.8,0.2
	c-0.3,0.2-0.6,0.3-0.8,0.5c-0.2,0.2-0.3,0.4-0.4,0.7c0,0.3,0,0.5,0.1,0.7c0.1,0.3,0.3,0.5,0.6,0.6C34.8,99.7,35.1,99.7,35.5,99.6z
	 M38.4,99.1l0.3,0.4l-3,1.7l4.1,0.3l0.3,0.5l-3.7,2.1l-0.3-0.4l2.9-1.7l-4.1-0.3l-0.3-0.5L38.4,99.1z M40.3,102.3l0.3,0.4l-2.8,2
	l4.1-0.1l0.3,0.5l-3.5,2.5l-0.3-0.4l2.8-2l-4.1,0.1l-0.3-0.5L40.3,102.3z M42.4,103.5l0.2,0.3c-0.2,0.1-0.4,0.2-0.6,0.1
	c-0.2,0-0.4-0.2-0.5-0.4c-0.1-0.2-0.2-0.4-0.2-0.6c0-0.2,0.1-0.4,0.3-0.5l0.2,0.3c-0.1,0.1-0.1,0.2-0.2,0.3c0,0.1,0,0.2,0.1,0.3
	c0.1,0.1,0.2,0.2,0.3,0.2C42.1,103.6,42.3,103.5,42.4,103.5z M42.3,109.5l0.3,0.5c-0.4,0.2-0.8,0.3-1.2,0.2c-0.4-0.1-0.7-0.3-1-0.6
	c-0.3-0.3-0.5-0.7-0.5-1c0-0.3,0-0.7,0.2-1c0.2-0.3,0.4-0.7,0.7-0.9c0.3-0.3,0.7-0.5,1.1-0.6c0.4-0.1,0.7-0.1,1.1,0.1
	c0.3,0.1,0.6,0.3,0.9,0.6c0.3,0.3,0.4,0.7,0.5,1c0,0.4-0.1,0.7-0.3,1.1l-0.5-0.3c0.2-0.3,0.2-0.5,0.2-0.8c0-0.2-0.1-0.5-0.3-0.7
	c-0.2-0.2-0.5-0.4-0.7-0.5c-0.3-0.1-0.5,0-0.8,0.1c-0.3,0.1-0.5,0.3-0.7,0.4c-0.3,0.2-0.5,0.5-0.6,0.7c-0.1,0.3-0.2,0.5-0.1,0.8
	c0,0.3,0.2,0.5,0.3,0.7c0.2,0.2,0.5,0.4,0.7,0.4C41.7,109.8,42,109.7,42.3,109.5L42.3,109.5z M45,108.4l0.4,0.4l-1.4,1.3
	c0.2,0.2,0.3,0.3,0.5,0.3c0.1,0,0.4-0.1,0.8-0.2c0.3-0.1,0.5-0.2,0.6-0.2c0.1,0,0.3,0,0.4,0c0.2,0,0.3,0.1,0.4,0.3
	c0.2,0.2,0.2,0.2,0.2,0.3l-0.4,0.3c0,0,0,0-0.1-0.1c0,0-0.1-0.1-0.1-0.1c-0.1-0.1-0.2-0.2-0.4-0.2c-0.1,0-0.3,0.1-0.6,0.2
	c-0.4,0.1-0.6,0.2-0.8,0.2c-0.1,0-0.3,0-0.4-0.1c0.1,0.3,0.1,0.6,0,1.1l-0.4,1.6l-0.5-0.5l0.3-1.3c0.1-0.4,0.1-0.6,0.1-0.8
	c0-0.2-0.1-0.3-0.2-0.5l-1.5,1.4l-0.4-0.4L45,108.4z M43.9,113.4l4.1-2.2l0.5,0.4l-1.5,4.4l-0.5-0.4l0.5-1.3l-1.4-1.2l-1.2,0.7
	L43.9,113.4z M46,112.9l1.1,1l0.4-1.2c0.1-0.4,0.3-0.7,0.4-0.9c-0.2,0.2-0.5,0.3-0.7,0.5L46,112.9z M50.1,118.4l2.5-3.5l-1.6-1.1
	c-0.3-0.2-0.6-0.4-0.8-0.4c-0.2-0.1-0.4,0-0.6,0.1c-0.2,0.1-0.4,0.2-0.5,0.4c-0.2,0.2-0.2,0.5-0.2,0.8c0,0.3,0.2,0.6,0.5,0.9
	c-0.2,0-0.3,0-0.4,0c-0.2,0-0.5,0.1-0.7,0.2l-1.3,0.5l0.6,0.4l1-0.4c0.3-0.1,0.5-0.2,0.7-0.2c0.2,0,0.3-0.1,0.4-0.1
	c0.1,0,0.2,0,0.3,0.1c0.1,0,0.1,0.1,0.3,0.2l0.5,0.4l-1.1,1.6L50.1,118.4z M51,116.1l-1-0.7c-0.2-0.2-0.4-0.3-0.4-0.4
	c-0.1-0.1-0.1-0.3-0.1-0.4c0-0.1,0-0.3,0.1-0.4c0.1-0.2,0.3-0.3,0.5-0.3c0.2,0,0.4,0.1,0.7,0.2l1.1,0.8L51,116.1z M56.4,117.8
	l0.3-0.5l0.5,0.2l-0.3,0.5c0.5,0.3,0.8,0.6,0.9,1c0.1,0.4,0.1,0.8-0.1,1.2c-0.2,0.4-0.5,0.6-0.9,0.8c-0.4,0.1-0.9,0.1-1.4-0.2
	l-0.3,0.5l-0.5-0.2l0.3-0.5c-0.4-0.3-0.7-0.6-0.9-1c-0.2-0.4-0.1-0.8,0.1-1.3c0.2-0.4,0.5-0.7,1-0.8
	C55.5,117.6,55.9,117.6,56.4,117.8z M56.6,118.5l-1,2c0.3,0.2,0.6,0.2,0.9,0.1c0.3-0.1,0.5-0.3,0.7-0.6c0.2-0.3,0.2-0.6,0.1-0.9
	C57.2,118.9,57,118.7,56.6,118.5z M56.2,118.3c-0.3-0.1-0.6-0.2-0.9-0.1c-0.3,0.1-0.5,0.3-0.7,0.6c-0.2,0.3-0.2,0.6-0.1,0.9
	c0.1,0.3,0.3,0.5,0.6,0.7L56.2,118.3z M57.2,122.5l1.8-3.9l2.8,1.3l-0.2,0.5l-2.3-1l-0.5,1.2l2.2,1l-0.2,0.5l-2.2-1l-0.6,1.3
	l2.4,1.1l-0.2,0.5L57.2,122.5z M62.5,120l2.5,0.8l-1.2,3.6l0.4,0.1l-0.5,1.4l-0.5-0.2l0.3-0.9l-2.7-0.9l-0.3,0.9l-0.5-0.2l0.5-1.4
	l0.3,0.1c0.5-0.4,1-1.3,1.5-2.8L62.5,120z M64.3,121.2l-1.4-0.5l-0.1,0.2c-0.1,0.3-0.3,0.8-0.6,1.4c-0.3,0.6-0.6,1-0.9,1.4l1.9,0.6
	L64.3,121.2z M64.4,125.2l1-4.2l3,0.7l-0.1,0.5l-2.5-0.6l-0.3,1.3l2.3,0.5l-0.1,0.5l-2.3-0.5l-0.3,1.4l2.6,0.6l-0.1,0.5L64.4,125.2z
	 M68.2,126.1l0.7-4.2l1.6,0.3c0.3,0,0.5,0.1,0.6,0.2c0.2,0.1,0.4,0.2,0.5,0.3c0.1,0.1,0.2,0.3,0.3,0.5c0.1,0.2,0.1,0.4,0,0.6
	c-0.1,0.4-0.2,0.6-0.5,0.9c-0.3,0.2-0.7,0.3-1.3,0.2l-1.1-0.2l-0.3,1.7L68.2,126.1z M69.1,124l1.1,0.2c0.4,0.1,0.6,0,0.8-0.1
	c0.2-0.1,0.3-0.3,0.3-0.5c0-0.2,0-0.3-0.1-0.5c-0.1-0.1-0.2-0.2-0.3-0.3c-0.1,0-0.3-0.1-0.5-0.1l-1.1-0.2L69.1,124z M71.1,126.7
	l2-4.2l0.6,0l1.4,4.4l-0.6,0l-0.4-1.3l-1.8-0.1l-0.6,1.3L71.1,126.7z M72.4,125l1.5,0.1l-0.4-1.2c-0.1-0.4-0.2-0.7-0.2-0.9
	c-0.1,0.3-0.2,0.5-0.3,0.8L72.4,125z M75.5,122.7l0.6,0l-0.1,3.8l2.2,0.1l0.1-3.8l0.6,0l-0.1,3.8l0.4,0l0,1.7l-0.5,0l0-1.2l-3.3-0.1
	L75.5,122.7z M79.3,122.8l0.5,0l0.3,3.4l2-3.6l0.6,0l0.3,4.3l-0.5,0l-0.3-3.4l-2,3.6l-0.6,0L79.3,122.8z M87.1,126.2l-0.7-4.2
	l-1.9,0.3c-0.4,0.1-0.7,0.2-0.8,0.3c-0.2,0.1-0.3,0.3-0.4,0.5c-0.1,0.2-0.1,0.4-0.1,0.7c0.1,0.3,0.2,0.5,0.4,0.7
	c0.2,0.2,0.6,0.2,1,0.2c-0.1,0.1-0.2,0.2-0.3,0.3c-0.1,0.2-0.3,0.4-0.4,0.6l-0.5,1.3l0.7-0.1l0.4-1c0.1-0.3,0.2-0.5,0.3-0.7
	c0.1-0.2,0.2-0.3,0.2-0.3c0.1-0.1,0.2-0.1,0.2-0.2c0.1,0,0.2,0,0.3-0.1l0.6-0.1l0.3,1.9L87.1,126.2z M86.1,123.9l-1.2,0.2
	c-0.3,0-0.5,0.1-0.6,0c-0.2,0-0.3-0.1-0.4-0.2c-0.1-0.1-0.2-0.2-0.2-0.4c0-0.2,0-0.4,0.1-0.5s0.3-0.3,0.7-0.3l1.3-0.2L86.1,123.9z
	 M88.2,121.6l2.7-0.8l0.1,0.5l-2.1,0.6l1,3.6l-0.5,0.2L88.2,121.6z M91.2,123.1c-0.2-0.7-0.2-1.3,0-1.8c0.2-0.5,0.6-0.9,1.2-1
	c0.4-0.1,0.7-0.1,1.1-0.1c0.4,0.1,0.7,0.3,0.9,0.5c0.3,0.3,0.5,0.6,0.6,1c0.1,0.4,0.2,0.8,0.1,1.2c-0.1,0.4-0.2,0.7-0.5,1
	c-0.3,0.3-0.6,0.5-0.9,0.6c-0.4,0.1-0.8,0.1-1.1,0.1c-0.4-0.1-0.7-0.3-0.9-0.5C91.5,123.8,91.3,123.5,91.2,123.1z M91.7,122.9
	c0.2,0.5,0.4,0.8,0.8,1c0.4,0.2,0.7,0.2,1.1,0.1c0.4-0.1,0.7-0.4,0.9-0.8c0.2-0.4,0.2-0.8,0-1.3c-0.1-0.3-0.3-0.6-0.5-0.8
	c-0.2-0.2-0.4-0.3-0.7-0.4c-0.3-0.1-0.5-0.1-0.8,0c-0.4,0.1-0.7,0.4-0.9,0.7C91.5,121.9,91.5,122.3,91.7,122.9z M96.3,123.6
	l-1.8-3.9L96,119c0.3-0.1,0.5-0.2,0.6-0.2c0.2-0.1,0.4-0.1,0.6,0c0.2,0,0.3,0.1,0.5,0.2c0.2,0.1,0.3,0.3,0.4,0.5
	c0.1,0.3,0.2,0.7,0.1,1c-0.1,0.3-0.4,0.6-1,0.9l-1,0.5l0.7,1.6L96.3,123.6z M95.8,121.3l1-0.5c0.3-0.2,0.5-0.3,0.6-0.5
	c0.1-0.2,0.1-0.4,0-0.6c-0.1-0.2-0.2-0.3-0.3-0.4c-0.1-0.1-0.3-0.1-0.4-0.1c-0.1,0-0.3,0.1-0.5,0.2l-1,0.5L95.8,121.3z M98.5,120.3
	c-0.3-0.6-0.4-1.2-0.3-1.8c0.2-0.5,0.5-0.9,1-1.2c0.4-0.2,0.7-0.3,1.1-0.2c0.4,0,0.7,0.1,1,0.4c0.3,0.2,0.6,0.5,0.8,0.9
	c0.2,0.4,0.3,0.8,0.3,1.2c0,0.4-0.1,0.7-0.3,1c-0.2,0.3-0.5,0.5-0.8,0.7c-0.4,0.2-0.7,0.3-1.1,0.2c-0.4,0-0.7-0.2-1-0.4
	C98.9,120.9,98.7,120.6,98.5,120.3z M99,120c0.2,0.5,0.5,0.8,0.9,0.9c0.4,0.1,0.8,0.1,1.1-0.1c0.4-0.2,0.6-0.5,0.7-0.9
	c0.1-0.4,0-0.8-0.2-1.3c-0.2-0.3-0.4-0.6-0.6-0.7c-0.2-0.2-0.5-0.3-0.7-0.3c-0.3,0-0.5,0-0.8,0.2c-0.4,0.2-0.6,0.5-0.7,0.8
	C98.7,119,98.7,119.4,99,120z M101.5,116.1l2.2-1.4l2.1,3.2l0.3-0.2l0.8,1.3l-0.4,0.3l-0.5-0.8l-2.4,1.5l0.5,0.8l-0.4,0.3l-0.8-1.3
	l0.3-0.2c0-0.6-0.4-1.6-1.3-2.9L101.5,116.1z M103.4,115.4l-1.3,0.8l0.1,0.2c0.2,0.3,0.4,0.7,0.7,1.3c0.3,0.6,0.5,1.1,0.5,1.5
	l1.7-1.1L103.4,115.4z M110.3,115l-0.4,0.4l-1.1-1.4c-0.3,0.5-0.6,0.8-0.9,1.1c-0.2,0.2-0.5,0.3-0.8,0.3c-0.3,0-0.5,0-0.7-0.1
	c-0.2-0.1-0.4-0.3-0.6-0.6l-0.8-1l0.4-0.4l0.7,1c0.3,0.4,0.5,0.6,0.8,0.6c0.2,0,0.4-0.1,0.6-0.2c0.3-0.2,0.6-0.6,0.8-1l-1.3-1.6
	l0.4-0.4L110.3,115z M110.9,114.4l-3-3.1l2.2-2.1l0.3,0.4l-1.8,1.7l0.9,1l1.7-1.6l0.3,0.4l-1.7,1.6l1,1.1l1.9-1.8l0.3,0.4
	L110.9,114.4z M110.6,108.7l1.8-2l3.2,2.8l-0.4,0.4l-2.9-2.5l-1,1.2l1.7,1.4c0.3,0.3,0.6,0.5,0.7,0.7c0.1,0.2,0.2,0.3,0.2,0.5
	c0,0.2-0.1,0.3-0.2,0.5c-0.1,0.1-0.2,0.2-0.4,0.3l-0.3-0.4c0.1,0,0.2-0.1,0.2-0.1c0.1-0.1,0.1-0.2,0.1-0.3c0-0.1-0.2-0.3-0.5-0.5
	L110.6,108.7z M118.2,106.3l-3.4-2.7l-1.2,1.5c-0.2,0.3-0.4,0.6-0.4,0.8c-0.1,0.2-0.1,0.4,0,0.6c0.1,0.2,0.2,0.4,0.4,0.5
	c0.2,0.2,0.5,0.3,0.8,0.2c0.3,0,0.6-0.2,0.9-0.5c0,0.2-0.1,0.3,0,0.4c0,0.2,0.1,0.5,0.2,0.7l0.5,1.3l0.4-0.6l-0.3-1
	c-0.1-0.3-0.2-0.5-0.2-0.7c0-0.2-0.1-0.3,0-0.4c0-0.1,0-0.2,0.1-0.3c0-0.1,0.1-0.1,0.2-0.3l0.4-0.5l1.5,1.2L118.2,106.3z
	 M115.9,105.2l-0.8,1c-0.2,0.2-0.3,0.3-0.4,0.4c-0.1,0.1-0.3,0.1-0.4,0.1c-0.1,0-0.3-0.1-0.4-0.1c-0.2-0.1-0.2-0.3-0.3-0.5
	c0-0.2,0.1-0.4,0.3-0.7l0.8-1.1L115.9,105.2z M115,103.3l1.5-2.4l0.4,0.3l-1.2,1.9l1.1,0.7l0.6-0.9c0.2-0.3,0.4-0.6,0.6-0.7
	c0.2-0.2,0.4-0.2,0.6-0.2c0.2,0,0.5,0.1,0.7,0.2c0.2,0.1,0.3,0.3,0.4,0.4c0.1,0.2,0.2,0.4,0.2,0.6c0,0.2-0.1,0.5-0.4,0.9l-0.9,1.4
	L115,103.3z M118.5,104.8l0.6-1c0.2-0.3,0.2-0.5,0.2-0.7c0-0.2-0.1-0.4-0.3-0.5c-0.2-0.1-0.3-0.1-0.4-0.1c-0.1,0-0.3,0.1-0.4,0.2
	c-0.1,0.1-0.3,0.3-0.5,0.6l-0.4,0.6L118.5,104.8z M116.8,100.4l0.2-0.5l3,1.6l-2-3.6l0.3-0.5l3.8,2l-0.2,0.5l-3-1.6l2,3.6l-0.3,0.5
	L116.8,100.4z M122.5,98.7l-3.9-1.8l0.2-0.5l1.6,0.7l0.9-2l-1.6-0.7l0.2-0.5l3.9,1.8l-0.2,0.5l-1.8-0.8l-0.9,2l1.8,0.8L122.5,98.7z
	 M123.6,91.5L124,91c0.4,0.3,0.7,0.6,0.8,1c0.1,0.4,0.1,0.8,0,1.2c-0.1,0.4-0.4,0.8-0.6,1c-0.3,0.2-0.6,0.3-1,0.4
	c-0.4,0-0.8,0-1.2-0.2c-0.4-0.1-0.8-0.3-1-0.6c-0.3-0.3-0.4-0.6-0.5-0.9c-0.1-0.4,0-0.7,0.1-1.1c0.1-0.4,0.4-0.7,0.7-0.9
	c0.3-0.2,0.7-0.3,1.1-0.3l-0.1,0.6c-0.3,0-0.6,0.1-0.8,0.2c-0.2,0.1-0.3,0.3-0.4,0.6c-0.1,0.3-0.1,0.6,0,0.9
	c0.1,0.3,0.2,0.5,0.5,0.6c0.2,0.2,0.5,0.3,0.7,0.4c0.3,0.1,0.7,0.2,1,0.2c0.3,0,0.5-0.1,0.7-0.3c0.2-0.2,0.3-0.4,0.4-0.6
	c0.1-0.3,0.1-0.6,0-0.9C124.2,91.9,124,91.7,123.6,91.5L123.6,91.5z M121.2,89.9l0.1-0.6l1.8,0.4c0.1-0.3,0-0.4,0-0.6
	c-0.1-0.1-0.3-0.3-0.6-0.6c-0.2-0.2-0.4-0.3-0.5-0.4c-0.1-0.1-0.2-0.2-0.2-0.4c0-0.2,0-0.3,0-0.5c0-0.2,0.1-0.3,0.1-0.3l0.5,0.1
	c0,0,0,0.1,0,0.1c0,0.1,0,0.1,0,0.1c0,0.2,0,0.3,0,0.4c0.1,0.1,0.2,0.2,0.5,0.4c0.3,0.2,0.5,0.4,0.6,0.5c0.1,0.1,0.1,0.3,0.1,0.4
	c0.1-0.3,0.4-0.5,0.9-0.6l1.6-0.5l-0.2,0.7l-1.3,0.4c-0.4,0.1-0.6,0.2-0.8,0.3c-0.1,0.1-0.2,0.3-0.3,0.5l2,0.5l-0.1,0.6L121.2,89.9z
	"/>
</svg>
