<?xml version="1.0" encoding="utf-8"?>
<!-- Generator: Adobe Illustrator 26.4.1, SVG Export Plug-In . SVG Version: 6.00 Build 0)  -->
<svg version="1.1"
	 id="svg32" xmlns:svg="http://www.w3.org/2000/svg" xmlns:rdf="http://www.w3.org/1999/02/22-rdf-syntax-ns#" xmlns:cc="http://creativecommons.org/ns#" xmlns:dc="http://purl.org/dc/elements/1.1/"
	 xmlns="http://www.w3.org/2000/svg" xmlns:xlink="http://www.w3.org/1999/xlink" x="0px" y="0px" viewBox="0 0 155.9 155.9"
	 style="enable-background:new 0 0 155.9 155.9;" xml:space="preserve">
<style type="text/css">
	.st0{fill:none;stroke:#1B1918;stroke-width:1.4173;}
	.st1{fill:none;stroke:#1B1918;stroke-width:0.5669;}
	.st2{fill-rule:evenodd;clip-rule:evenodd;fill:#1B1918;}
	.st3{fill:#1B1918;}
</style>
<path id="path6" class="st0" d="M78,22.7c30.5,0,55.3,24.8,55.3,55.3c0,30.5-24.8,55.3-55.3,55.3S22.7,108.5,22.7,78
	C22.7,47.4,47.4,22.7,78,22.7z"/>
<path id="path8" class="st1" d="M78,24.3c29.6,0,53.7,24,53.7,53.7c0,29.6-24,53.7-53.7,53.7s-53.7-24-53.7-53.7
	C24.3,48.3,48.3,24.3,78,24.3z"/>
<path id="path10" class="st2" d="M29,83.7c0-0.2-0.1-0.5-0.1-0.7c-0.1-0.3-0.2-0.6-0.2-0.7c0-0.2,0-0.3,0.1-0.4
	c0.1-0.1,0.2-0.1,0.3-0.1c0.1,0,0.2,0,0.3,0.1c0.1,0.1,0.1,0.2,0.1,0.4c0,0.2,0,0.4-0.1,0.6c-0.1,0.3-0.1,0.5-0.2,0.8
	c0.2-0.1,0.4-0.3,0.5-0.4c0.2-0.3,0.4-0.4,0.5-0.5c0.1-0.1,0.2-0.1,0.3-0.1c0.1,0,0.2,0,0.3,0.1C31,82.9,31,83,31,83.1
	c0,0.1-0.1,0.2-0.2,0.3c-0.1,0.1-0.4,0.2-0.8,0.3c-0.3,0.1-0.5,0.1-0.7,0.2c0.2,0.1,0.4,0.2,0.6,0.2c0.4,0.1,0.7,0.2,0.8,0.3
	c0.1,0.1,0.2,0.2,0.2,0.4c0,0.1,0,0.2-0.1,0.3c-0.1,0.1-0.2,0.1-0.3,0.1c-0.1,0-0.2,0-0.3-0.1c-0.1-0.1-0.3-0.2-0.5-0.5
	c-0.1-0.2-0.3-0.3-0.5-0.5c0,0.2,0,0.4,0.1,0.6c0.1,0.4,0.2,0.7,0.2,0.8c0,0.1,0,0.3-0.1,0.4C29.3,86,29.2,86,29.2,86
	c-0.1,0-0.2,0-0.3-0.1c-0.1-0.1-0.1-0.2-0.1-0.3c0-0.2,0-0.4,0.1-0.6c0.1-0.2,0.1-0.4,0.1-0.5c0-0.1,0-0.2,0.1-0.4
	c-0.2,0.1-0.4,0.3-0.5,0.4c-0.2,0.3-0.4,0.5-0.6,0.5c-0.1,0.1-0.2,0.1-0.3,0.1c-0.1,0-0.2,0-0.3-0.1c-0.1-0.1-0.1-0.2-0.1-0.3
	c0-0.1,0-0.2,0.1-0.3c0.1-0.1,0.2-0.2,0.3-0.2c0.1,0,0.3-0.1,0.6-0.2c0.2,0,0.4-0.1,0.6-0.2c-0.2-0.1-0.4-0.2-0.7-0.2
	c-0.4-0.1-0.7-0.2-0.8-0.2c-0.2-0.1-0.2-0.2-0.2-0.4c0-0.1,0-0.2,0.1-0.3c0.1-0.1,0.2-0.1,0.3-0.1c0.1,0,0.2,0,0.4,0.1
	c0.1,0.1,0.3,0.2,0.5,0.4C28.6,83.4,28.8,83.6,29,83.7L29,83.7z"/>
<path id="path12" class="st2" d="M126.8,82.4c0-0.2-0.1-0.5-0.1-0.7c-0.1-0.3-0.2-0.6-0.2-0.7c0-0.2,0-0.3,0.1-0.4
	c0.1-0.1,0.2-0.1,0.3-0.1c0.1,0,0.2,0,0.3,0.1c0.1,0.1,0.1,0.2,0.1,0.4c0,0.2,0,0.4-0.1,0.6c-0.1,0.3-0.1,0.5-0.2,0.8
	c0.2-0.1,0.4-0.3,0.5-0.4c0.2-0.3,0.4-0.4,0.5-0.5c0.1-0.1,0.2-0.1,0.3-0.1c0.1,0,0.2,0,0.3,0.1c0.1,0.1,0.1,0.2,0.1,0.3
	c0,0.1-0.1,0.2-0.2,0.3c-0.1,0.1-0.4,0.2-0.8,0.3c-0.3,0.1-0.5,0.1-0.7,0.2c0.2,0.1,0.4,0.2,0.6,0.2c0.4,0.1,0.7,0.2,0.8,0.3
	c0.1,0.1,0.2,0.2,0.2,0.4c0,0.1,0,0.2-0.1,0.3c-0.1,0.1-0.2,0.1-0.3,0.1c-0.1,0-0.2,0-0.3-0.1c-0.1-0.1-0.3-0.2-0.5-0.5
	c-0.1-0.2-0.3-0.3-0.5-0.5c0,0.2,0,0.4,0.1,0.6c0.1,0.4,0.2,0.7,0.2,0.8c0,0.1,0,0.3-0.1,0.4c-0.1,0.1-0.2,0.1-0.3,0.1
	c-0.1,0-0.2,0-0.3-0.1c-0.1-0.1-0.1-0.2-0.1-0.3c0-0.2,0-0.4,0.1-0.6c0.1-0.2,0.1-0.4,0.1-0.5c0-0.1,0-0.2,0.1-0.4
	c-0.2,0.1-0.4,0.3-0.5,0.4c-0.2,0.3-0.4,0.5-0.6,0.5c-0.1,0.1-0.2,0.1-0.3,0.1c-0.1,0-0.2,0-0.3-0.1c-0.1-0.1-0.1-0.2-0.1-0.3
	c0-0.1,0-0.2,0.1-0.3c0.1-0.1,0.2-0.2,0.3-0.2c0.1,0,0.3-0.1,0.6-0.2c0.2,0,0.4-0.1,0.6-0.2c-0.2-0.1-0.4-0.2-0.7-0.2
	c-0.4-0.1-0.7-0.2-0.8-0.2c-0.2-0.1-0.2-0.2-0.2-0.4c0-0.1,0-0.2,0.1-0.3c0.1-0.1,0.2-0.1,0.3-0.1c0.1,0,0.2,0,0.4,0.1
	c0.1,0.1,0.3,0.2,0.5,0.4C126.4,82.1,126.6,82.3,126.8,82.4L126.8,82.4z"/>
<g>
	<path class="st3" d="M39.4,61.1c0.1,0.1,0.4,0.3,0.8,0.5c0.4,0.2,0.7,0.3,0.9,0.3c0.2,0,0.3,0,0.4,0c0.1,0,0.1-0.1,0.2-0.2
		c0-0.1,0-0.2,0-0.2c0-0.1-0.1-0.2-0.2-0.3c-0.1-0.1-0.4-0.3-0.8-0.5c-0.4-0.2-0.7-0.3-0.9-0.3c-0.2,0-0.3,0-0.4,0
		c-0.1,0-0.1,0.1-0.2,0.2c0,0.1,0,0.2,0,0.2C39.3,60.9,39.3,61,39.4,61.1z"/>
	<path class="st3" d="M41.6,58.7c0.4,0.2,0.7,0.4,0.8,0.4c0.2,0,0.3,0.1,0.4,0c0.1,0,0.1-0.1,0.2-0.2c0-0.1,0.1-0.2,0-0.2
		c0-0.1-0.1-0.2-0.2-0.3c-0.1-0.1-0.4-0.3-0.8-0.5c-0.4-0.2-0.7-0.4-0.8-0.4c-0.2,0-0.3-0.1-0.4,0c-0.1,0-0.1,0.1-0.2,0.2
		c0,0.1-0.1,0.2,0,0.2c0,0.1,0.1,0.2,0.2,0.3C41,58.3,41.2,58.5,41.6,58.7z"/>
	<path class="st3" d="M39.9,90.9c0.1-0.1,0.2-0.2,0.3-0.3c0-0.1,0-0.2,0-0.2c0-0.1-0.1-0.1-0.2-0.2c-0.1,0-0.2-0.1-0.3-0.1
		c-0.2,0-0.5,0.1-0.9,0.2c-0.4,0.1-0.7,0.3-0.8,0.3c-0.1,0.1-0.2,0.2-0.3,0.3c0,0.1,0,0.2,0,0.2c0,0.1,0.1,0.1,0.2,0.2
		c0.1,0,0.2,0.1,0.3,0.1c0.2,0,0.5-0.1,0.9-0.2C39.5,91.1,39.7,91,39.9,90.9z"/>
	<path class="st3" d="M36.4,76.6c-0.1-0.1-0.2-0.1-0.3-0.1c-0.1,0-0.3,0-0.3,0.1c-0.1,0.1-0.1,0.2-0.2,0.3c0,0.1,0,0.3,0,0.5l0,0.4
		l1.1,0l0-0.4c0-0.3,0-0.5,0-0.6C36.6,76.7,36.5,76.7,36.4,76.6z"/>
	<path class="st3" d="M51,46.9c0.3,0.3,0.5,0.5,0.6,0.6c0.1,0.1,0.3,0.1,0.3,0.1c0.1,0,0.2,0,0.2-0.1c0.1-0.1,0.1-0.1,0.1-0.2
		c0-0.1,0-0.2-0.1-0.3c-0.1-0.2-0.3-0.4-0.6-0.8c-0.3-0.3-0.5-0.5-0.6-0.6c-0.1-0.1-0.3-0.1-0.3-0.1c-0.1,0-0.2,0-0.2,0.1
		c-0.1,0.1-0.1,0.1-0.1,0.2c0,0.1,0,0.2,0.1,0.3C50.5,46.4,50.7,46.6,51,46.9z"/>
	<path class="st3" d="M49.5,49.6c0.1,0.1,0.3,0.1,0.3,0.1c0.1,0,0.2,0,0.2-0.1c0.1-0.1,0.1-0.1,0.1-0.2c0-0.1,0-0.2-0.1-0.3
		c-0.1-0.2-0.3-0.4-0.6-0.7c-0.3-0.3-0.5-0.5-0.7-0.6c-0.1-0.1-0.3-0.1-0.3-0.1c-0.1,0-0.2,0-0.2,0.1c-0.1,0.1-0.1,0.1-0.1,0.2
		c0,0.1,0,0.2,0.1,0.3c0.1,0.2,0.3,0.4,0.6,0.7C49.1,49.3,49.3,49.5,49.5,49.6z"/>
	<path class="st3" d="M46.7,51.3c0.3,0.3,0.6,0.5,0.7,0.5c0.2,0.1,0.3,0.1,0.4,0.1c0.1,0,0.2-0.1,0.2-0.1c0.1-0.1,0.1-0.1,0.1-0.2
		c0-0.1,0-0.2-0.1-0.3c-0.1-0.2-0.3-0.4-0.7-0.7c-0.3-0.3-0.6-0.5-0.7-0.5c-0.2-0.1-0.3-0.1-0.4-0.1c-0.1,0-0.2,0.1-0.2,0.1
		c-0.1,0.1-0.1,0.1-0.1,0.2c0,0.1,0,0.2,0.1,0.3C46.2,50.7,46.4,51,46.7,51.3z"/>
	<path class="st3" d="M43.1,56.1c0.4,0.2,0.6,0.4,0.8,0.4c0.2,0.1,0.3,0.1,0.4,0c0.1,0,0.1-0.1,0.2-0.1c0-0.1,0.1-0.2,0.1-0.2
		c0-0.1-0.1-0.2-0.2-0.3c-0.1-0.1-0.4-0.3-0.8-0.6c-0.4-0.2-0.6-0.4-0.8-0.4c-0.2-0.1-0.3-0.1-0.4,0c-0.1,0-0.1,0.1-0.2,0.1
		c0,0.1-0.1,0.2-0.1,0.2c0,0.1,0.1,0.2,0.2,0.3C42.5,55.7,42.7,55.9,43.1,56.1z"/>
	<path class="st3" d="M44.8,53.6c0.3,0.3,0.6,0.4,0.8,0.5c0.2,0.1,0.3,0.1,0.4,0.1c0.1,0,0.2-0.1,0.2-0.1c0.1-0.1,0.1-0.1,0.1-0.2
		c0-0.1,0-0.2-0.1-0.3c-0.1-0.2-0.3-0.4-0.7-0.6c-0.3-0.3-0.6-0.4-0.8-0.5c-0.2-0.1-0.3-0.1-0.4-0.1c-0.1,0-0.2,0.1-0.2,0.1
		C44,52.5,44,52.5,44,52.6c0,0.1,0,0.2,0.1,0.3C44.3,53.1,44.5,53.3,44.8,53.6z"/>
	<path class="st3" d="M38.4,84.9c0.2-0.2,0.2-0.5,0.2-0.8c-0.1-0.3-0.2-0.5-0.4-0.7c-0.2-0.2-0.6-0.2-1-0.1
		c-0.4,0.1-0.7,0.2-0.9,0.4C36,84,36,84.2,36,84.6c0.1,0.3,0.2,0.5,0.4,0.7c0.2,0.2,0.6,0.2,1,0.1C37.9,85.3,38.2,85.1,38.4,84.9z"
		/>
	<path class="st3" d="M53.3,109.3c-0.1,0-0.2,0-0.3,0.1c-0.2,0.1-0.4,0.3-0.6,0.7c-0.3,0.3-0.4,0.6-0.5,0.8
		c-0.1,0.2-0.1,0.3-0.1,0.4c0,0.1,0.1,0.2,0.1,0.2c0.1,0.1,0.1,0.1,0.2,0.1c0.1,0,0.2,0,0.3-0.1c0.2-0.1,0.4-0.3,0.6-0.7
		c0.3-0.3,0.4-0.6,0.5-0.8c0.1-0.2,0.1-0.3,0.1-0.4c0-0.1-0.1-0.2-0.1-0.2C53.5,109.3,53.4,109.3,53.3,109.3z"/>
	<path class="st3" d="M51.3,107.5c-0.1-0.1-0.1-0.1-0.2-0.1c-0.1,0-0.2,0-0.3,0.1c-0.2,0.1-0.4,0.3-0.7,0.7
		c-0.3,0.3-0.5,0.6-0.5,0.7c-0.1,0.2-0.1,0.3-0.1,0.4c0,0.1,0.1,0.2,0.1,0.2c0.1,0.1,0.1,0.1,0.2,0.1c0.1,0,0.2,0,0.3-0.1
		c0.2-0.1,0.4-0.3,0.7-0.7c0.3-0.3,0.5-0.6,0.5-0.7c0.1-0.2,0.1-0.3,0.1-0.4C51.4,107.6,51.4,107.6,51.3,107.5z"/>
	<path class="st3" d="M49.3,105.7c0-0.1,0-0.2-0.1-0.2c-0.1-0.1-0.1-0.1-0.2-0.1c-0.1,0-0.2,0-0.3,0.1c-0.2,0.1-0.4,0.3-0.7,0.6
		c-0.3,0.3-0.5,0.5-0.6,0.7c-0.1,0.1-0.1,0.3-0.1,0.3c0,0.1,0,0.2,0.1,0.2c0.1,0.1,0.1,0.1,0.2,0.1c0.1,0,0.2,0,0.3-0.1
		c0.2-0.1,0.4-0.3,0.7-0.6c0.3-0.3,0.5-0.5,0.6-0.7C49.3,105.9,49.3,105.7,49.3,105.7z"/>
	<path class="st3" d="M56,111.1c-0.1,0-0.2-0.1-0.2-0.1c-0.1,0-0.2,0.1-0.3,0.2c-0.1,0.1-0.3,0.4-0.6,0.8c-0.2,0.4-0.4,0.6-0.4,0.8
		c-0.1,0.2-0.1,0.3,0,0.4c0,0.1,0.1,0.1,0.1,0.2c0.1,0,0.2,0.1,0.2,0.1c0.1,0,0.2-0.1,0.3-0.2c0.1-0.1,0.3-0.4,0.6-0.8
		c0.2-0.4,0.4-0.6,0.4-0.8c0.1-0.2,0.1-0.3,0-0.4S56,111.2,56,111.1z"/>
	<path class="st3" d="M41.2,93.4c0-0.1,0-0.2,0-0.2c0-0.1-0.1-0.1-0.2-0.2c-0.1,0-0.2-0.1-0.3,0c-0.2,0-0.5,0.1-0.9,0.3
		c-0.4,0.2-0.7,0.3-0.8,0.4c-0.1,0.1-0.2,0.2-0.2,0.3c0,0.1,0,0.2,0,0.2c0,0.1,0.1,0.1,0.2,0.2c0.1,0,0.2,0.1,0.3,0
		c0.2,0,0.5-0.1,0.9-0.3c0.4-0.2,0.7-0.3,0.8-0.4C41.1,93.6,41.2,93.5,41.2,93.4z"/>
	<path class="st3" d="M47.3,103.5c0-0.1,0-0.2-0.1-0.2c-0.1-0.1-0.1-0.1-0.2-0.1c-0.1,0-0.2,0-0.3,0.1c-0.2,0.1-0.4,0.2-0.8,0.5
		c-0.3,0.3-0.6,0.5-0.7,0.6c-0.1,0.1-0.2,0.2-0.2,0.3c0,0.1,0,0.2,0.1,0.2c0.1,0.1,0.1,0.1,0.2,0.1c0.1,0,0.2,0,0.3-0.1
		c0.2-0.1,0.4-0.3,0.8-0.5c0.3-0.3,0.6-0.5,0.7-0.6C47.2,103.7,47.3,103.5,47.3,103.5z"/>
	<path class="st3" d="M43.9,98.7c0-0.1,0-0.2,0-0.2c0-0.1-0.1-0.1-0.2-0.2c-0.1,0-0.2,0-0.3,0c-0.2,0-0.5,0.2-0.9,0.4
		c-0.4,0.2-0.6,0.4-0.8,0.5c-0.1,0.1-0.2,0.2-0.2,0.3c0,0.1,0,0.2,0,0.2c0,0.1,0.1,0.1,0.2,0.2c0.1,0,0.2,0,0.3,0
		c0.2,0,0.5-0.2,0.9-0.4c0.4-0.2,0.6-0.4,0.8-0.5C43.8,98.8,43.9,98.7,43.9,98.7z"/>
	<path class="st3" d="M42.4,96.1c0-0.1,0-0.2,0-0.2c0-0.1-0.1-0.1-0.2-0.2c-0.1,0-0.2,0-0.3,0c-0.2,0-0.5,0.2-0.9,0.4
		c-0.4,0.2-0.6,0.4-0.8,0.5c-0.1,0.1-0.2,0.2-0.2,0.3c0,0.1,0,0.2,0,0.2c0,0.1,0.1,0.1,0.2,0.2c0.1,0,0.2,0,0.3,0
		c0.2,0,0.5-0.2,0.9-0.4c0.4-0.2,0.7-0.4,0.8-0.5C42.4,96.3,42.4,96.2,42.4,96.1z"/>
	<path class="st3" d="M45.5,101.1c0-0.1,0-0.2-0.1-0.2c0-0.1-0.1-0.1-0.2-0.1c-0.1,0-0.2,0-0.3,0c-0.2,0.1-0.4,0.2-0.8,0.5
		c-0.4,0.3-0.6,0.4-0.7,0.6c-0.1,0.1-0.2,0.2-0.2,0.3c0,0.1,0,0.2,0.1,0.2c0,0.1,0.1,0.1,0.2,0.1c0.1,0,0.2,0,0.3,0
		c0.2-0.1,0.4-0.2,0.8-0.5c0.4-0.3,0.6-0.4,0.7-0.6C45.5,101.3,45.5,101.2,45.5,101.1z"/>
	<path class="st3" d="M67.2,39.2c0.1,0.1,0.2,0.2,0.2,0.3c0.1,0,0.2,0,0.2,0c0.1,0,0.1-0.1,0.2-0.1c0-0.1,0.1-0.2,0.1-0.3
		c0-0.2-0.1-0.5-0.2-0.9c-0.1-0.4-0.2-0.7-0.3-0.9c-0.1-0.1-0.2-0.2-0.2-0.3c-0.1,0-0.2,0-0.2,0c-0.1,0-0.1,0.1-0.2,0.1
		c0,0.1-0.1,0.2-0.1,0.3c0,0.2,0.1,0.5,0.2,0.9C67,38.8,67.1,39.1,67.2,39.2z"/>
	<path class="st3" d="M110.3,54.7c0,0.1,0,0.2,0.1,0.2c0,0.1,0.1,0.1,0.2,0.1c0.1,0,0.2,0,0.3,0c0.2-0.1,0.4-0.2,0.8-0.5
		c0.4-0.3,0.6-0.4,0.7-0.6c0.1-0.1,0.2-0.2,0.2-0.3c0-0.1,0-0.2-0.1-0.2c0-0.1-0.1-0.1-0.2-0.1c-0.1,0-0.2,0-0.3,0
		c-0.2,0.1-0.4,0.2-0.8,0.5c-0.4,0.3-0.6,0.4-0.7,0.6C110.4,54.5,110.3,54.6,110.3,54.7z"/>
	<path class="st3" d="M108.5,52.4c0,0.1,0,0.2,0.1,0.2c0.1,0.1,0.1,0.1,0.2,0.1c0.1,0,0.2,0,0.3-0.1c0.2-0.1,0.4-0.3,0.8-0.6
		c0.3-0.3,0.5-0.5,0.6-0.6c0.1-0.1,0.1-0.3,0.1-0.3c0-0.1,0-0.2-0.1-0.2c-0.1-0.1-0.1-0.1-0.2-0.1c-0.1,0-0.2,0-0.3,0.1
		c-0.2,0.1-0.4,0.3-0.8,0.6c-0.3,0.3-0.5,0.5-0.6,0.6C108.6,52.2,108.5,52.3,108.5,52.4z"/>
	<path class="st3" d="M106.6,50.2c0,0.1,0,0.2,0.1,0.2c0.1,0.1,0.1,0.1,0.2,0.1c0.1,0,0.2,0,0.3-0.1c0.2-0.1,0.4-0.3,0.7-0.6
		c0.3-0.3,0.5-0.5,0.6-0.7c0.1-0.1,0.1-0.3,0.1-0.3c0-0.1,0-0.2-0.1-0.2c-0.1-0.1-0.1-0.1-0.2-0.1c-0.1,0-0.2,0-0.3,0.1
		c-0.2,0.1-0.4,0.3-0.7,0.6c-0.3,0.3-0.5,0.5-0.6,0.7C106.6,50,106.5,50.1,106.6,50.2z"/>
	<path class="st3" d="M112,57.2c0,0.1,0,0.2,0,0.2c0,0.1,0.1,0.1,0.2,0.2c0.1,0,0.2,0,0.3,0c0.2,0,0.5-0.2,0.9-0.4
		c0.4-0.2,0.6-0.4,0.8-0.5c0.1-0.1,0.2-0.2,0.2-0.3c0-0.1,0-0.2,0-0.2c0-0.1-0.1-0.1-0.2-0.2c-0.1,0-0.2,0-0.3,0
		c-0.2,0-0.5,0.2-0.9,0.4c-0.4,0.2-0.6,0.4-0.8,0.5C112.1,57,112,57.1,112,57.2z"/>
	<path class="st3" d="M116,64.9c-0.1,0.1-0.2,0.2-0.3,0.3c0,0.1,0,0.2,0,0.2c0,0.1,0.1,0.1,0.2,0.2c0.1,0,0.2,0.1,0.3,0.1
		c0.2,0,0.5-0.1,0.9-0.2c0.4-0.1,0.7-0.3,0.8-0.3c0.1-0.1,0.2-0.2,0.3-0.3c0-0.1,0-0.2,0-0.2h0c0-0.1-0.1-0.1-0.2-0.2
		c-0.1,0-0.2-0.1-0.3-0.1c-0.2,0-0.5,0.1-0.9,0.2C116.4,64.7,116.1,64.8,116,64.9z"/>
	<path class="st3" d="M117.5,70.9c-0.2,0.2-0.2,0.5-0.2,0.8c0.1,0.3,0.2,0.5,0.4,0.7c0.2,0.2,0.6,0.2,1,0.1c0.4-0.1,0.7-0.2,0.9-0.4
		c0.2-0.2,0.2-0.5,0.2-0.8c-0.1-0.3-0.2-0.5-0.4-0.7c-0.2-0.2-0.6-0.2-1-0.1C118,70.5,117.7,70.7,117.5,70.9z"/>
	<path class="st3" d="M113.4,59.7c0,0.1,0,0.2,0,0.2c0,0.1,0.1,0.1,0.2,0.2c0.1,0,0.2,0,0.3,0c0.2,0,0.5-0.2,0.9-0.4
		c0.4-0.2,0.6-0.4,0.8-0.5c0.1-0.1,0.2-0.2,0.2-0.3c0-0.1,0-0.2,0-0.2c0-0.1-0.1-0.1-0.2-0.2c-0.1,0-0.2,0-0.3,0
		c-0.2,0-0.5,0.2-0.9,0.4c-0.4,0.2-0.7,0.4-0.8,0.5C113.5,59.6,113.4,59.7,113.4,59.7z"/>
	<path class="st3" d="M104.5,48.3c0.1,0.1,0.1,0.1,0.2,0.1c0.1,0,0.2,0,0.3-0.1c0.2-0.1,0.4-0.3,0.7-0.7c0.3-0.3,0.5-0.6,0.5-0.7
		c0.1-0.2,0.1-0.3,0.1-0.4c0-0.1-0.1-0.2-0.1-0.2c-0.1-0.1-0.1-0.1-0.2-0.1c-0.1,0-0.2,0-0.3,0.1c-0.2,0.1-0.4,0.3-0.7,0.7
		c-0.3,0.3-0.5,0.6-0.5,0.7c-0.1,0.2-0.1,0.3-0.1,0.4C104.4,48.2,104.5,48.3,104.5,48.3z"/>
	<path class="st3" d="M114.7,62.4c0,0.1,0,0.2,0,0.2c0,0.1,0.1,0.1,0.2,0.2c0.1,0,0.2,0.1,0.3,0c0.2,0,0.5-0.1,0.9-0.3
		c0.4-0.2,0.7-0.3,0.8-0.4c0.1-0.1,0.2-0.2,0.2-0.3c0-0.1,0-0.2,0-0.2c0-0.1-0.1-0.1-0.2-0.2c-0.1,0-0.2-0.1-0.3,0
		c-0.2,0-0.5,0.1-0.9,0.3c-0.4,0.2-0.7,0.3-0.8,0.4C114.8,62.2,114.7,62.3,114.7,62.4z"/>
	<path class="st3" d="M64.4,40.1c0.1,0.1,0.2,0.2,0.3,0.3c0.1,0,0.2,0,0.2,0c0.1,0,0.1-0.1,0.2-0.2c0-0.1,0.1-0.2,0.1-0.3
		c0-0.2-0.1-0.5-0.2-0.9c-0.1-0.4-0.3-0.7-0.4-0.8c-0.1-0.1-0.2-0.2-0.3-0.3c-0.1,0-0.2,0-0.2,0c-0.1,0-0.1,0.1-0.2,0.2
		c0,0.1-0.1,0.2-0.1,0.3c0,0.2,0.1,0.5,0.2,0.9C64.2,39.7,64.3,39.9,64.4,40.1z"/>
	<path class="st3" d="M61.6,41.2c0.1,0.1,0.2,0.2,0.3,0.2c0.1,0,0.2,0,0.2,0c0.1,0,0.1-0.1,0.2-0.2c0-0.1,0-0.2,0-0.3
		c0-0.2-0.1-0.5-0.3-0.9c-0.2-0.4-0.3-0.7-0.4-0.8c-0.1-0.1-0.2-0.2-0.3-0.2c-0.1,0-0.2,0-0.2,0c-0.1,0-0.1,0.1-0.2,0.2
		c0,0.1,0,0.2,0,0.3c0,0.2,0.1,0.5,0.3,0.9C61.4,40.8,61.5,41.1,61.6,41.2z"/>
	<path class="st3" d="M55.8,43.3c0.2,0.4,0.4,0.6,0.5,0.7c0.1,0.1,0.2,0.2,0.3,0.2c0.1,0,0.2,0,0.2-0.1c0.1,0,0.1-0.1,0.1-0.2
		c0-0.1,0-0.2,0-0.3c-0.1-0.2-0.2-0.5-0.4-0.8c-0.2-0.4-0.4-0.6-0.5-0.7c-0.1-0.1-0.2-0.2-0.3-0.2c-0.1,0-0.2,0-0.2,0.1
		c-0.1,0-0.1,0.1-0.1,0.2c0,0.1,0,0.2,0,0.3C55.5,42.7,55.6,42.9,55.8,43.3z"/>
	<path class="st3" d="M59,42.5c0.1,0.1,0.2,0.2,0.3,0.2c0.1,0,0.2,0,0.2,0c0.1,0,0.1-0.1,0.2-0.2c0-0.1,0-0.2,0-0.3
		c0-0.2-0.2-0.5-0.4-0.9c-0.2-0.4-0.4-0.6-0.5-0.8c-0.1-0.1-0.2-0.2-0.3-0.2c-0.1,0-0.2,0-0.2,0c-0.1,0-0.1,0.1-0.2,0.2
		c0,0.1,0,0.2,0,0.3c0,0.2,0.2,0.5,0.4,0.9C58.7,42.1,58.9,42.4,59,42.5z"/>
	<path class="st3" d="M58.5,112.6c-0.1,0-0.2-0.1-0.2,0c-0.1,0-0.2,0.1-0.3,0.2c-0.1,0.1-0.3,0.4-0.5,0.8c-0.2,0.4-0.4,0.7-0.4,0.8
		c0,0.2-0.1,0.3,0,0.4c0,0.1,0.1,0.1,0.2,0.2c0.1,0,0.2,0.1,0.2,0c0.1,0,0.2-0.1,0.3-0.2c0.1-0.1,0.3-0.4,0.5-0.8
		c0.2-0.4,0.4-0.7,0.4-0.8c0-0.2,0.1-0.3,0-0.4C58.6,112.7,58.5,112.7,58.5,112.6z"/>
	<path class="st3" d="M97.4,43.2c0.1,0,0.2,0.1,0.2,0c0.1,0,0.2-0.1,0.3-0.2c0.1-0.1,0.3-0.4,0.5-0.8c0.2-0.4,0.4-0.7,0.4-0.8
		c0-0.2,0.1-0.3,0-0.4c0-0.1-0.1-0.1-0.2-0.2c-0.1,0-0.2-0.1-0.2,0c-0.1,0-0.2,0.1-0.3,0.2c-0.1,0.1-0.3,0.4-0.5,0.8
		c-0.2,0.4-0.4,0.7-0.4,0.8c0,0.2-0.1,0.3,0,0.4C97.2,43.1,97.3,43.2,97.4,43.2z"/>
	<path class="st3" d="M99.9,44.7c0.1,0,0.2,0.1,0.2,0.1c0.1,0,0.2-0.1,0.3-0.2c0.1-0.1,0.3-0.4,0.6-0.8c0.2-0.4,0.4-0.6,0.4-0.8
		c0.1-0.2,0.1-0.3,0-0.4c0-0.1-0.1-0.1-0.1-0.2c-0.1,0-0.2-0.1-0.2-0.1c-0.1,0-0.2,0.1-0.3,0.2c-0.1,0.1-0.3,0.4-0.6,0.8
		c-0.2,0.4-0.4,0.6-0.4,0.8c-0.1,0.2-0.1,0.3,0,0.4C99.7,44.6,99.8,44.7,99.9,44.7z"/>
	<path class="st3" d="M102.5,46.5c0.1,0,0.2,0,0.3-0.1c0.2-0.1,0.4-0.3,0.6-0.7c0.3-0.3,0.4-0.6,0.5-0.8c0.1-0.2,0.1-0.3,0.1-0.4
		c0-0.1-0.1-0.2-0.1-0.2c-0.1-0.1-0.1-0.1-0.2-0.1c-0.1,0-0.2,0-0.3,0.1c-0.2,0.1-0.4,0.3-0.6,0.7c-0.3,0.3-0.4,0.6-0.5,0.8
		c-0.1,0.2-0.1,0.3-0.1,0.4c0,0.1,0.1,0.2,0.1,0.2C102.3,46.5,102.4,46.5,102.5,46.5z"/>
	<path class="st3" d="M94.7,41.9c0.1,0,0.2,0,0.2,0c0.1,0,0.2-0.1,0.3-0.2c0.1-0.1,0.3-0.4,0.5-0.8c0.2-0.4,0.3-0.7,0.3-0.9
		c0-0.2,0-0.3,0-0.4c0-0.1-0.1-0.1-0.2-0.2c-0.1,0-0.2,0-0.2,0c-0.1,0-0.2,0.1-0.3,0.2c-0.1,0.1-0.3,0.4-0.5,0.8
		c-0.2,0.4-0.3,0.7-0.3,0.9c0,0.2,0,0.3,0,0.4C94.6,41.8,94.7,41.8,94.7,41.9z"/>
	<path class="st3" d="M92,40.7c0.1,0,0.2,0,0.2,0c0.1,0,0.2-0.1,0.3-0.2c0.1-0.2,0.2-0.4,0.4-0.8c0.2-0.4,0.3-0.7,0.3-0.9
		c0-0.2,0-0.3,0-0.4c0-0.1-0.1-0.1-0.2-0.2c-0.1,0-0.2,0-0.2,0c-0.1,0-0.2,0.1-0.3,0.2c-0.1,0.2-0.2,0.4-0.4,0.8
		c-0.2,0.4-0.3,0.7-0.3,0.9c0,0.2,0,0.3,0,0.4C91.9,40.6,92,40.7,92,40.7z"/>
	<path class="st3" d="M53.4,45c0.3,0.4,0.4,0.6,0.6,0.7c0.1,0.1,0.2,0.2,0.3,0.2c0.1,0,0.2,0,0.2-0.1c0.1,0,0.1-0.1,0.1-0.2
		c0-0.1,0-0.2,0-0.3c-0.1-0.2-0.2-0.4-0.5-0.8c-0.3-0.4-0.4-0.6-0.6-0.7c-0.1-0.1-0.2-0.2-0.3-0.2c-0.1,0-0.2,0-0.2,0.1
		c-0.1,0-0.1,0.1-0.1,0.2c0,0.1,0,0.2,0,0.3C53,44.4,53.1,44.6,53.4,45z"/>
	<path class="st3" d="M91.6,115.8c-0.1-0.1-0.2-0.2-0.3-0.3c-0.1,0-0.2,0-0.2,0c-0.1,0-0.1,0.1-0.2,0.2c0,0.1-0.1,0.2-0.1,0.3
		c0,0.2,0.1,0.5,0.2,0.9c0.1,0.4,0.3,0.7,0.4,0.8c0.1,0.1,0.2,0.2,0.3,0.3c0.1,0,0.2,0,0.2,0c0.1,0,0.1-0.1,0.2-0.2
		c0-0.1,0.1-0.2,0.1-0.3c0-0.2-0.1-0.5-0.2-0.9C91.8,116.2,91.7,115.9,91.6,115.8z"/>
	<path class="st3" d="M119.3,78.4c0,0.3,0,0.5,0,0.6c0,0.1,0.1,0.2,0.2,0.2c0.1,0.1,0.2,0.1,0.3,0.1c0.1,0,0.2,0,0.3-0.1
		c0.1-0.1,0.1-0.2,0.2-0.3c0-0.1,0-0.3,0-0.5l0-0.4l-1.1,0L119.3,78.4z"/>
	<path class="st3" d="M105,108.9c-0.3-0.3-0.5-0.5-0.6-0.6c-0.1-0.1-0.3-0.1-0.3-0.1c-0.1,0-0.2,0-0.2,0.1c-0.1,0.1-0.1,0.1-0.1,0.2
		c0,0.1,0,0.2,0.1,0.3c0.1,0.2,0.3,0.4,0.6,0.8c0.3,0.3,0.5,0.5,0.6,0.6c0.1,0.1,0.3,0.1,0.3,0.1c0.1,0,0.2,0,0.2-0.1
		c0.1-0.1,0.1-0.1,0.1-0.2c0-0.1,0-0.2-0.1-0.3C105.5,109.5,105.3,109.2,105,108.9z"/>
	<path class="st3" d="M97,113.4c-0.1-0.1-0.2-0.2-0.3-0.2c-0.1,0-0.2,0-0.2,0c-0.1,0-0.1,0.1-0.2,0.2c0,0.1,0,0.2,0,0.3
		c0,0.2,0.2,0.5,0.4,0.9c0.2,0.4,0.4,0.6,0.5,0.8c0.1,0.1,0.2,0.2,0.3,0.2c0.1,0,0.2,0,0.2,0c0.1,0,0.1-0.1,0.2-0.2
		c0-0.1,0-0.2,0-0.3c0-0.2-0.2-0.5-0.4-0.9C97.3,113.7,97.1,113.5,97,113.4z"/>
	<path class="st3" d="M94.4,114.7c-0.1-0.1-0.2-0.2-0.3-0.2c-0.1,0-0.2,0-0.2,0c-0.1,0-0.1,0.1-0.2,0.2c0,0.1,0,0.2,0,0.3
		c0,0.2,0.1,0.5,0.3,0.9c0.2,0.4,0.3,0.7,0.4,0.8c0.1,0.1,0.2,0.2,0.3,0.2c0.1,0,0.2,0,0.2,0c0.1,0,0.1-0.1,0.2-0.2
		c0-0.1,0-0.2,0-0.3c0-0.2-0.1-0.5-0.3-0.9C94.6,115.1,94.5,114.8,94.4,114.7z"/>
	<path class="st3" d="M88.8,116.7c-0.1-0.1-0.2-0.2-0.2-0.3c-0.1,0-0.2,0-0.2,0c-0.1,0-0.1,0.1-0.2,0.1c0,0.1-0.1,0.2-0.1,0.3
		c0,0.2,0.1,0.5,0.2,0.9c0.1,0.4,0.2,0.7,0.3,0.9c0.1,0.1,0.2,0.2,0.2,0.3c0.1,0,0.2,0,0.2,0c0.1,0,0.1-0.1,0.2-0.1
		c0-0.1,0.1-0.2,0.1-0.3c0-0.2-0.1-0.5-0.2-0.9C88.9,117.1,88.8,116.8,88.8,116.7z"/>
	<path class="st3" d="M100.1,112.6c-0.2-0.4-0.4-0.6-0.5-0.7c-0.1-0.1-0.2-0.2-0.3-0.2c-0.1,0-0.2,0-0.2,0.1c-0.1,0-0.1,0.1-0.1,0.2
		c0,0.1,0,0.2,0,0.3c0.1,0.2,0.2,0.5,0.4,0.8c0.2,0.4,0.4,0.6,0.5,0.7c0.1,0.1,0.2,0.2,0.3,0.2c0.1,0,0.2,0,0.2-0.1
		c0.1,0,0.1-0.1,0.1-0.2c0-0.1,0-0.2,0-0.3C100.5,113.2,100.4,112.9,100.1,112.6z"/>
	<path class="st3" d="M78,33.8c-24.4,0-44.2,19.8-44.2,44.2s19.8,44.2,44.2,44.2s44.2-19.8,44.2-44.2S102.3,33.8,78,33.8z M121,76.5
		l-0.6,0l-0.1-1.8l-3.1,0.2l-0.1-0.8l3.7-0.3L121,76.5z M119.8,70c0.2,0.1,0.3,0.3,0.4,0.4c0.1,0.2,0.2,0.5,0.3,0.8
		c0.1,0.5,0,1-0.3,1.4c-0.3,0.4-0.7,0.6-1.3,0.7c-0.6,0.1-1.1,0-1.5-0.2c-0.4-0.3-0.6-0.7-0.7-1.2c-0.1-0.5,0-1,0.3-1.4
		c0.3-0.4,0.7-0.6,1.3-0.7c0.4-0.1,0.7-0.1,1,0C119.4,69.8,119.6,69.8,119.8,70z M118.8,64.4c0.1,0.3,0.1,0.7-0.1,0.9
		c-0.2,0.3-0.7,0.6-1.3,0.8c-0.7,0.2-1.2,0.3-1.6,0.1c-0.3-0.1-0.5-0.3-0.6-0.7c-0.1-0.3-0.1-0.7,0.1-1c0.2-0.3,0.6-0.6,1.3-0.8
		c0.7-0.2,1.2-0.3,1.6-0.1C118.5,63.8,118.7,64,118.8,64.4z M117,60.8c0.3,0.1,0.5,0.3,0.7,0.6c0.1,0.3,0.1,0.6,0,0.9
		c-0.2,0.3-0.6,0.6-1.3,0.9c-0.7,0.3-1.2,0.3-1.6,0.2c-0.3-0.1-0.5-0.3-0.7-0.6c-0.1-0.3-0.1-0.7,0.1-1c0.2-0.3,0.6-0.6,1.3-0.9
		C116.1,60.8,116.7,60.7,117,60.8z M115.6,57.9c0.3,0.1,0.6,0.3,0.7,0.6c0.2,0.3,0.2,0.6,0,0.9c-0.2,0.4-0.6,0.7-1.2,1
		c-0.6,0.3-1.1,0.5-1.5,0.4c-0.3-0.1-0.6-0.3-0.7-0.6c-0.2-0.3-0.2-0.6,0-1c0.1-0.3,0.5-0.7,1.2-1C114.7,58,115.2,57.8,115.6,57.9z
		 M114.1,55.3c0.3,0,0.6,0.2,0.8,0.5c0.2,0.3,0.2,0.6,0.1,0.9c-0.1,0.4-0.5,0.7-1.1,1.1c-0.6,0.4-1.1,0.5-1.5,0.4
		c-0.3,0-0.6-0.2-0.8-0.5c-0.2-0.3-0.2-0.6-0.1-1c0.1-0.3,0.5-0.7,1.1-1C113.2,55.3,113.7,55.2,114.1,55.3z M113,53.1
		c0.2,0.3,0.3,0.6,0.2,0.9c-0.1,0.4-0.5,0.8-1,1.2c-0.6,0.4-1.1,0.6-1.5,0.6c-0.3,0-0.6-0.2-0.8-0.5c-0.2-0.3-0.3-0.6-0.2-1
		c0.1-0.3,0.4-0.7,1-1.1c0.6-0.4,1.1-0.6,1.5-0.6C112.6,52.6,112.8,52.8,113,53.1z M111.1,50.5c0.2,0.3,0.3,0.6,0.3,0.9
		c-0.1,0.4-0.4,0.8-0.9,1.3c-0.5,0.5-1,0.7-1.4,0.7c-0.3,0-0.6-0.1-0.8-0.4c-0.2-0.3-0.3-0.6-0.3-0.9c0.1-0.4,0.4-0.8,0.9-1.2
		c0.5-0.5,1-0.7,1.4-0.7C110.5,50.1,110.8,50.2,111.1,50.5z M109,48.2c0.2,0.3,0.4,0.6,0.3,0.9c-0.1,0.4-0.3,0.8-0.9,1.3
		c-0.5,0.5-1,0.8-1.4,0.8c-0.3,0-0.6-0.1-0.9-0.3c-0.3-0.3-0.4-0.6-0.3-0.9c0-0.4,0.3-0.8,0.9-1.3c0.5-0.5,1-0.7,1.4-0.8
		C108.5,47.8,108.7,47.9,109,48.2z M105.8,45.6c0.3-0.1,0.6,0,0.9,0.3c0.3,0.2,0.4,0.5,0.4,0.9c0,0.4-0.3,0.9-0.7,1.4
		c-0.5,0.5-0.9,0.8-1.3,0.9c-0.3,0.1-0.6,0-0.9-0.3c-0.3-0.2-0.4-0.5-0.4-0.9c0-0.4,0.3-0.8,0.7-1.4C104.9,46,105.4,45.7,105.8,45.6
		z M103.4,43.7c0.3-0.1,0.6,0,0.9,0.2c0.3,0.2,0.4,0.5,0.4,0.8c0,0.4-0.2,0.9-0.7,1.4c-0.4,0.6-0.9,0.9-1.2,1
		c-0.3,0.1-0.6,0-0.9-0.2c-0.3-0.2-0.4-0.5-0.4-0.9c0-0.4,0.2-0.8,0.7-1.4C102.6,44.1,103,43.8,103.4,43.7z M100.7,41.9
		c0.3-0.1,0.6-0.1,0.9,0.1c0.3,0.2,0.5,0.5,0.5,0.8c0,0.4-0.1,0.9-0.5,1.5c-0.4,0.6-0.8,1-1.1,1.1c-0.3,0.1-0.6,0.1-0.9-0.1
		c-0.3-0.2-0.5-0.5-0.5-0.8c0-0.4,0.1-0.8,0.5-1.4C99.9,42.4,100.3,42,100.7,41.9z M98,40.3c0.3-0.1,0.6-0.1,0.9,0.1
		c0.3,0.2,0.5,0.4,0.5,0.8c0.1,0.4-0.1,0.9-0.4,1.5c-0.4,0.6-0.7,1-1.1,1.1c-0.3,0.1-0.6,0.1-0.9-0.1c-0.3-0.2-0.5-0.4-0.6-0.8
		c-0.1-0.4,0.1-0.8,0.5-1.5C97.3,40.9,97.7,40.5,98,40.3z M95.1,38.9c0.3-0.1,0.6-0.1,0.9,0c0.3,0.2,0.5,0.4,0.6,0.7
		c0.1,0.4,0,0.9-0.3,1.5c-0.3,0.6-0.6,1.1-1,1.2c-0.3,0.1-0.6,0.1-0.9,0c-0.3-0.2-0.5-0.4-0.6-0.7c-0.1-0.3,0-0.9,0.3-1.5
		C94.5,39.5,94.8,39.1,95.1,38.9z M91.4,39.1c0.3-0.7,0.6-1.1,0.9-1.3c0.3-0.2,0.6-0.2,0.9,0c0.3,0.1,0.6,0.4,0.6,0.7
		c0.1,0.4,0,0.9-0.2,1.6c-0.3,0.7-0.6,1.1-0.9,1.3c-0.3,0.2-0.6,0.2-0.9,0c-0.3-0.1-0.6-0.4-0.7-0.7C91,40.2,91.1,39.7,91.4,39.1z
		 M86.6,35.8l0.7,0.2l-0.3,1.4l1.4,0.3l0.3-1.4l0.7,0.2l-0.8,3.6L88,40l0.4-1.6L86.9,38l-0.4,1.6l-0.7-0.2L86.6,35.8z M82.6,35.2
		l0.8,0.1l-0.2,1.5l1.5,0.2l0.2-1.5l0.8,0.1L85,39.3l-0.8-0.1l0.2-1.6L83,37.4L82.8,39l-0.8-0.1L82.6,35.2z M78.4,35l0.7,0l-0.1,2.5
		l1.6-2.5l0.8,0l-0.1,3.7l-0.7,0l0.1-2.5l-1.6,2.4l-0.8,0L78.4,35z M66.1,37c0.1-0.3,0.4-0.5,0.7-0.6c0.3-0.1,0.7-0.1,0.9,0.1
		c0.3,0.2,0.6,0.7,0.8,1.4c0.2,0.7,0.2,1.2,0.1,1.6c-0.1,0.3-0.4,0.5-0.7,0.6c-0.4,0.1-0.7,0-1-0.2c-0.3-0.2-0.5-0.7-0.7-1.4
		C66,37.9,66,37.3,66.1,37z M63.2,37.9c0.1-0.3,0.3-0.5,0.7-0.6c0.3-0.1,0.7-0.1,0.9,0.1c0.3,0.2,0.6,0.7,0.8,1.3
		c0.2,0.7,0.3,1.2,0.1,1.6c-0.1,0.3-0.3,0.5-0.7,0.6c-0.3,0.1-0.7,0.1-1-0.1c-0.3-0.2-0.6-0.6-0.8-1.3
		C63.1,38.8,63.1,38.3,63.2,37.9z M60.2,39.2c0.1-0.3,0.3-0.6,0.6-0.7c0.3-0.1,0.6-0.1,0.9,0c0.3,0.2,0.7,0.6,1,1.2
		c0.3,0.6,0.4,1.2,0.3,1.5c-0.1,0.3-0.3,0.6-0.6,0.7c-0.3,0.2-0.7,0.1-1,0c-0.3-0.2-0.6-0.6-0.9-1.2C60.2,40.1,60.1,39.6,60.2,39.2z
		 M57.5,40.6c0.1-0.3,0.3-0.6,0.6-0.7c0.3-0.2,0.6-0.2,0.9,0c0.4,0.2,0.7,0.6,1,1.2c0.3,0.6,0.5,1.1,0.4,1.5
		c-0.1,0.3-0.3,0.6-0.6,0.7c-0.3,0.2-0.6,0.2-1,0c-0.3-0.1-0.7-0.5-1-1.2C57.5,41.4,57.4,40.9,57.5,40.6z M55.2,41.4
		c0.3-0.2,0.6-0.2,0.9-0.1c0.4,0.1,0.7,0.5,1.1,1.1c0.4,0.6,0.6,1.1,0.5,1.5c0,0.3-0.2,0.6-0.5,0.8c-0.3,0.2-0.6,0.2-1,0.1
		c-0.3-0.1-0.7-0.5-1.1-1.1c-0.4-0.6-0.6-1.1-0.5-1.5C54.7,41.9,54.9,41.6,55.2,41.4z M52.6,43.2c0.3-0.2,0.6-0.3,0.9-0.2
		c0.4,0.1,0.8,0.5,1.2,1c0.4,0.6,0.6,1.1,0.6,1.5c0,0.3-0.2,0.6-0.5,0.8c-0.3,0.2-0.6,0.3-1,0.2c-0.3-0.1-0.7-0.4-1.1-1
		c-0.4-0.6-0.6-1.1-0.6-1.5C52.2,43.6,52.3,43.4,52.6,43.2z M50.1,45.2c0.3-0.2,0.6-0.3,0.9-0.3c0.4,0.1,0.8,0.4,1.3,0.9
		c0.5,0.5,0.7,1,0.7,1.4c0,0.3-0.1,0.6-0.4,0.8c-0.3,0.2-0.6,0.3-0.9,0.3c-0.4-0.1-0.8-0.4-1.2-0.9c-0.5-0.5-0.7-1-0.7-1.4
		C49.7,45.7,49.8,45.4,50.1,45.2z M47.8,47.3c0.3-0.2,0.6-0.4,0.9-0.3c0.4,0.1,0.8,0.3,1.3,0.9c0.5,0.5,0.8,1,0.8,1.4
		c0,0.3-0.1,0.6-0.3,0.9c-0.3,0.3-0.6,0.4-0.9,0.3c-0.4,0-0.8-0.3-1.3-0.9c-0.5-0.5-0.7-1-0.8-1.4C47.4,47.8,47.5,47.5,47.8,47.3z
		 M45.6,49.7c0.2-0.3,0.5-0.4,0.9-0.4c0.4,0,0.9,0.3,1.4,0.7c0.5,0.5,0.8,0.9,0.9,1.3c0.1,0.3,0,0.6-0.3,0.9
		c-0.2,0.3-0.5,0.4-0.9,0.4c-0.4,0-0.8-0.3-1.4-0.7c-0.5-0.5-0.8-0.9-0.9-1.3C45.2,50.2,45.3,49.9,45.6,49.7z M43.6,52
		c0.2-0.3,0.5-0.4,0.8-0.4c0.4,0,0.9,0.2,1.4,0.7c0.6,0.4,0.9,0.9,1,1.2c0.1,0.3,0,0.6-0.2,0.9c-0.2,0.3-0.5,0.4-0.9,0.4
		c-0.4,0-0.8-0.2-1.4-0.7c-0.6-0.4-0.9-0.9-1-1.2C43.3,52.6,43.4,52.3,43.6,52z M41.7,54.7c0.2-0.3,0.5-0.5,0.8-0.5
		c0.4,0,0.9,0.1,1.5,0.5c0.6,0.4,1,0.8,1.1,1.1c0.1,0.3,0.1,0.6-0.1,0.9c-0.2,0.3-0.5,0.5-0.8,0.5c-0.4,0-0.8-0.1-1.4-0.5
		c-0.6-0.4-1-0.8-1.1-1.1C41.5,55.3,41.5,55,41.7,54.7z M40.2,57.4c0.2-0.3,0.4-0.5,0.8-0.5c0.4-0.1,0.9,0.1,1.5,0.4
		c0.6,0.4,1,0.7,1.1,1.1c0.1,0.3,0.1,0.6-0.1,0.9c-0.2,0.3-0.4,0.5-0.8,0.6c-0.4,0.1-0.8-0.1-1.5-0.5c-0.6-0.4-1-0.7-1.1-1.1
		C39.9,58,40,57.7,40.2,57.4z M38.7,60.3c0.1-0.3,0.4-0.5,0.7-0.6c0.4-0.1,0.9,0,1.5,0.3c0.6,0.3,1.1,0.6,1.2,1
		c0.1,0.3,0.1,0.6,0,0.9c-0.2,0.3-0.4,0.5-0.7,0.6c-0.3,0.1-0.9,0-1.5-0.3c-0.6-0.3-1.1-0.6-1.2-1C38.6,60.9,38.6,60.6,38.7,60.3z
		 M37.2,63.9l3.6,1l-0.2,0.7l-3-0.9l-0.4,1.4l3,0.9L40,67.7l-3.6-1L37.2,63.9z M35.7,69.9l2.4,0.6l-2.1-2l0.2-0.7l3.6,0.8l-0.2,0.7
		l-2.4-0.5l2,2l-0.2,0.7l-3.6-0.8L35.7,69.9z M35.1,73.9l1.5,0.2l0.2-1.5l-1.5-0.2l0.1-0.8l3.7,0.5L39,73l-1.6-0.2l-0.2,1.5l1.6,0.2
		l-0.1,0.8L35,74.7L35.1,73.9z M35,77.4c0-0.5,0-0.8,0.1-0.9c0.1-0.2,0.2-0.4,0.4-0.5c0.2-0.1,0.4-0.2,0.7-0.2
		c0.2,0,0.4,0.1,0.6,0.1c0.2,0.1,0.3,0.2,0.4,0.3c0.1,0.1,0.1,0.3,0.2,0.4c0,0.2,0,0.4,0,0.8l0,0.5l1.4,0l0,0.8l-3.7-0.1L35,77.4z
		 M34.9,79.3l0.6,0l0.1,1.8l3.1-0.2l0.1,0.8l-3.7,0.3L34.9,79.3z M36.1,85.9c-0.2-0.1-0.3-0.3-0.4-0.4c-0.1-0.2-0.2-0.5-0.3-0.8
		c-0.1-0.5,0-1,0.3-1.4c0.3-0.4,0.7-0.6,1.3-0.7c0.6-0.1,1.1,0,1.5,0.2c0.4,0.3,0.6,0.7,0.7,1.2c0.1,0.5,0,1-0.3,1.4
		c-0.3,0.4-0.7,0.6-1.3,0.7c-0.4,0.1-0.7,0.1-1,0C36.5,86.1,36.3,86,36.1,85.9z M37.1,91.4c-0.1-0.3-0.1-0.7,0.1-0.9
		c0.2-0.3,0.7-0.6,1.3-0.8c0.7-0.2,1.2-0.3,1.6-0.1c0.3,0.1,0.5,0.3,0.6,0.7c0.1,0.3,0.1,0.7-0.1,1c-0.2,0.3-0.6,0.6-1.3,0.8
		c-0.7,0.2-1.2,0.3-1.6,0.1C37.4,92,37.2,91.8,37.1,91.4z M38.8,95c-0.3-0.1-0.5-0.3-0.7-0.6c-0.1-0.3-0.1-0.6,0-0.9
		c0.2-0.3,0.6-0.6,1.3-0.9c0.7-0.3,1.2-0.3,1.6-0.2c0.3,0.1,0.5,0.3,0.7,0.6c0.1,0.3,0.1,0.7-0.1,1c-0.2,0.3-0.6,0.6-1.3,0.9
		C39.7,95,39.2,95.1,38.8,95z M40.3,97.9c-0.3-0.1-0.6-0.3-0.7-0.6c-0.2-0.3-0.2-0.6,0-0.9c0.2-0.4,0.6-0.7,1.2-1
		c0.6-0.3,1.1-0.5,1.5-0.4c0.3,0.1,0.6,0.3,0.7,0.6c0.2,0.3,0.2,0.6,0,1c-0.1,0.3-0.5,0.7-1.2,1C41.2,97.9,40.7,98,40.3,97.9z
		 M41.8,100.6c-0.3,0-0.6-0.2-0.8-0.5c-0.2-0.3-0.2-0.6-0.1-0.9c0.1-0.4,0.5-0.7,1.1-1.1c0.6-0.4,1.1-0.5,1.5-0.4
		c0.3,0,0.6,0.2,0.8,0.5c0.2,0.3,0.2,0.6,0.1,1c-0.1,0.3-0.5,0.7-1.1,1C42.7,100.5,42.2,100.6,41.8,100.6z M42.8,102.8
		c-0.2-0.3-0.3-0.6-0.2-0.9c0.1-0.4,0.5-0.8,1-1.2c0.6-0.4,1.1-0.6,1.5-0.6c0.3,0,0.6,0.2,0.8,0.5c0.2,0.3,0.3,0.6,0.2,1
		c-0.1,0.3-0.4,0.7-1,1.1c-0.6,0.4-1.1,0.6-1.5,0.6C43.3,103.2,43,103.1,42.8,102.8z M44.7,105.2c-0.2-0.3-0.3-0.6-0.2-0.9
		c0.1-0.4,0.4-0.8,1-1.2c0.6-0.4,1-0.7,1.4-0.7c0.3,0,0.6,0.1,0.8,0.4c0.2,0.3,0.3,0.6,0.2,1c-0.1,0.3-0.4,0.7-1,1.2
		c-0.6,0.4-1,0.7-1.4,0.7C45.2,105.7,44.9,105.5,44.7,105.2z M46.8,107.7c-0.2-0.3-0.4-0.6-0.3-0.9c0.1-0.4,0.3-0.8,0.9-1.3
		c0.5-0.5,1-0.8,1.4-0.8c0.3,0,0.6,0.1,0.9,0.3c0.3,0.3,0.4,0.6,0.3,0.9c0,0.4-0.3,0.8-0.9,1.3c-0.5,0.5-1,0.7-1.4,0.8
		C47.4,108,47.1,107.9,46.8,107.7z M50.1,110.2c-0.3,0.1-0.6,0-0.9-0.3c-0.3-0.2-0.4-0.5-0.4-0.9c0-0.4,0.3-0.9,0.7-1.4
		c0.5-0.5,0.9-0.8,1.3-0.9c0.3-0.1,0.6,0,0.9,0.3c0.3,0.2,0.4,0.5,0.4,0.9c0,0.4-0.3,0.8-0.7,1.4C50.9,109.8,50.5,110.1,50.1,110.2z
		 M52.5,112.1c-0.3,0.1-0.6,0-0.9-0.2c-0.3-0.2-0.4-0.5-0.4-0.8c0-0.4,0.2-0.9,0.7-1.4c0.4-0.6,0.9-0.9,1.2-1c0.3-0.1,0.6,0,0.9,0.2
		c0.3,0.2,0.4,0.5,0.4,0.9c0,0.4-0.2,0.8-0.7,1.4C53.3,111.7,52.8,112.1,52.5,112.1z M55.1,114c-0.3,0.1-0.6,0.1-0.9-0.1
		c-0.3-0.2-0.5-0.5-0.5-0.8c0-0.4,0.1-0.9,0.5-1.5c0.4-0.6,0.8-1,1.1-1.1c0.3-0.1,0.6-0.1,0.9,0.1c0.3,0.2,0.5,0.5,0.5,0.8
		c0,0.4-0.1,0.8-0.5,1.4C55.9,113.5,55.5,113.8,55.1,114z M57.8,115.5c-0.3,0.1-0.6,0.1-0.9-0.1c-0.3-0.2-0.5-0.4-0.5-0.8
		c-0.1-0.4,0.1-0.9,0.4-1.5c0.4-0.6,0.7-1,1.1-1.1c0.3-0.1,0.6-0.1,0.9,0.1c0.3,0.2,0.5,0.4,0.6,0.8c0.1,0.4-0.1,0.8-0.5,1.5
		C58.5,115,58.1,115.4,57.8,115.5z M60.7,116.9c-0.3,0.1-0.6,0.1-0.9,0c-0.3-0.1-0.5-0.4-0.6-0.7c-0.1-0.4,0-0.9,0.3-1.5
		c0.3-0.6,0.6-1.1,1-1.2c0.3-0.1,0.6-0.1,0.9,0c0.3,0.2,0.5,0.4,0.6,0.7c0.1,0.3,0,0.9-0.3,1.5C61.4,116.4,61,116.8,60.7,116.9z
		 M64.4,116.8c-0.3,0.7-0.6,1.1-0.9,1.3c-0.3,0.2-0.6,0.2-0.9,0s-0.6-0.4-0.6-0.7c-0.1-0.4,0-0.9,0.2-1.6c0.3-0.7,0.6-1.1,0.9-1.3
		c0.3-0.2,0.6-0.2,0.9,0c0.3,0.1,0.6,0.4,0.7,0.7C64.8,115.6,64.7,116.1,64.4,116.8z M69.2,120.1l-0.7-0.2l0.3-1.4l-1.4-0.3
		l-0.3,1.4l-0.7-0.2l0.8-3.6l0.7,0.2l-0.4,1.6l1.4,0.3l0.4-1.6l0.7,0.2L69.2,120.1z M73.3,120.7l-0.8-0.1l0.2-1.5l-1.5-0.2l-0.2,1.5
		l-0.8-0.1l0.5-3.7l0.8,0.1l-0.2,1.6l1.5,0.2l0.2-1.6l0.8,0.1L73.3,120.7z M77.4,120.9l-0.7,0l0.1-2.5l-1.6,2.5l-0.8,0l0.1-3.7
		l0.7,0l-0.1,2.5l1.6-2.4l0.8,0L77.4,120.9z M39.4,78c0-21.2,17.3-38.5,38.5-38.5s38.5,17.3,38.5,38.5S99.2,116.5,78,116.5
		S39.4,99.2,39.4,78z M89.9,118.9c-0.1,0.3-0.4,0.5-0.7,0.6c-0.3,0.1-0.7,0.1-0.9-0.1c-0.3-0.2-0.6-0.7-0.8-1.4
		c-0.2-0.7-0.2-1.2-0.1-1.6c0.1-0.3,0.4-0.5,0.7-0.6c0.4-0.1,0.7,0,1,0.2c0.3,0.2,0.5,0.7,0.7,1.4C90,118,90,118.5,89.9,118.9z
		 M92.8,118c-0.1,0.3-0.3,0.5-0.7,0.6c-0.3,0.1-0.7,0.1-0.9-0.1c-0.3-0.2-0.6-0.7-0.8-1.3c-0.2-0.7-0.3-1.2-0.1-1.6
		c0.1-0.3,0.3-0.5,0.7-0.6c0.3-0.1,0.7-0.1,1,0.1s0.6,0.6,0.8,1.3C92.9,117.1,92.9,117.6,92.8,118z M95.8,116.7
		c-0.1,0.3-0.3,0.6-0.6,0.7v0c-0.3,0.1-0.6,0.1-0.9,0c-0.3-0.2-0.7-0.6-1-1.2c-0.3-0.6-0.4-1.2-0.3-1.5c0.1-0.3,0.3-0.6,0.6-0.7
		c0.3-0.2,0.7-0.1,1,0s0.6,0.6,0.9,1.2C95.8,115.8,95.9,116.3,95.8,116.7z M98.5,115.3c-0.1,0.3-0.3,0.6-0.6,0.7
		c-0.3,0.2-0.6,0.2-0.9,0c-0.4-0.2-0.7-0.6-1-1.2c-0.3-0.6-0.5-1.1-0.4-1.5c0.1-0.3,0.3-0.6,0.6-0.7c0.3-0.2,0.6-0.2,1,0
		c0.3,0.1,0.7,0.5,1,1.2C98.5,114.4,98.6,114.9,98.5,115.3z M100.8,114.4c-0.3,0.2-0.6,0.2-0.9,0.1c-0.4-0.1-0.7-0.5-1.1-1.1
		c-0.4-0.6-0.6-1.1-0.5-1.5c0-0.3,0.2-0.6,0.5-0.8c0.3-0.2,0.6-0.2,1-0.1c0.3,0.1,0.7,0.5,1.1,1.1c0.4,0.6,0.6,1.1,0.5,1.5
		C101.3,114,101.1,114.2,100.8,114.4z M103.3,112.7c-0.3,0.2-0.6,0.3-0.9,0.2c-0.4-0.1-0.8-0.5-1.2-1c-0.4-0.6-0.6-1.1-0.6-1.5
		c0-0.3,0.2-0.6,0.5-0.8c0.3-0.2,0.6-0.3,1-0.2c0.3,0.1,0.7,0.4,1.1,1c0.4,0.6,0.6,1.1,0.6,1.5C103.8,112.2,103.6,112.5,103.3,112.7
		z M105.9,110.7c-0.3,0.2-0.6,0.3-0.9,0.3c-0.4-0.1-0.8-0.4-1.3-0.9c-0.5-0.5-0.7-1-0.7-1.4c0-0.3,0.1-0.6,0.4-0.8
		c0.3-0.2,0.6-0.3,0.9-0.3c0.4,0.1,0.8,0.4,1.2,0.9c0.5,0.5,0.7,1,0.7,1.4C106.3,110.1,106.2,110.4,105.9,110.7z M108.2,108.6
		c-0.3,0.2-0.6,0.4-0.9,0.3c-0.4-0.1-0.8-0.3-1.3-0.9c-0.5-0.5-0.8-1-0.8-1.4c0-0.3,0.1-0.6,0.3-0.9c0.3-0.3,0.6-0.4,0.9-0.3
		c0.4,0,0.8,0.3,1.3,0.9c0.5,0.5,0.7,1,0.8,1.4C108.5,108,108.4,108.3,108.2,108.6z M110.4,106.2c-0.2,0.3-0.5,0.4-0.9,0.4
		c-0.4,0-0.9-0.3-1.4-0.7c-0.5-0.5-0.8-0.9-0.9-1.3c-0.1-0.3,0-0.6,0.3-0.9c0.2-0.3,0.5-0.4,0.9-0.4c0.4,0,0.8,0.3,1.4,0.7
		c0.5,0.5,0.8,0.9,0.9,1.3C110.7,105.6,110.6,105.9,110.4,106.2z M112.4,103.8c-0.2,0.3-0.5,0.4-0.8,0.4c-0.4,0-0.9-0.2-1.4-0.7
		c-0.6-0.4-0.9-0.9-1-1.2c-0.1-0.3,0-0.6,0.2-0.9c0.2-0.3,0.5-0.4,0.9-0.4c0.4,0,0.8,0.2,1.4,0.7c0.6,0.4,0.9,0.9,1,1.2
		C112.7,103.2,112.6,103.5,112.4,103.8z M114.2,101.1c-0.2,0.3-0.5,0.5-0.8,0.5c-0.4,0-0.9-0.1-1.5-0.5c-0.6-0.4-1-0.8-1.1-1.1
		c-0.1-0.3-0.1-0.6,0.1-0.9c0.2-0.3,0.5-0.5,0.8-0.5c0.4,0,0.8,0.1,1.4,0.5c0.6,0.4,1,0.8,1.1,1.1
		C114.5,100.5,114.4,100.8,114.2,101.1z M115.9,98.3c-0.2,0.3-0.4,0.5-0.7,0.6c-0.4,0.1-0.9,0-1.5-0.4c-0.6-0.3-1-0.7-1.2-1
		c-0.1-0.3-0.1-0.6,0-0.9c0.2-0.3,0.4-0.5,0.8-0.6c0.4-0.1,0.8,0.1,1.5,0.4c0.6,0.3,1,0.7,1.2,1C116.1,97.7,116,98,115.9,98.3z
		 M117.2,95.5c-0.1,0.3-0.4,0.5-0.7,0.6c-0.4,0.1-0.9,0-1.5-0.3c-0.6-0.3-1.1-0.6-1.2-1c-0.1-0.3-0.1-0.6,0-0.9
		c0.2-0.3,0.4-0.5,0.7-0.6c0.3-0.1,0.9,0,1.5,0.3c0.6,0.3,1.1,0.6,1.2,1C117.4,94.9,117.4,95.2,117.2,95.5z M118.7,92l-3.6-1
		l0.2-0.7l3,0.9l0.4-1.4l-3-0.9l0.2-0.7l3.6,1L118.7,92z M120.2,85.9l-2.4-0.6l2.1,2l-0.2,0.7l-3.6-0.8l0.2-0.7l2.4,0.5l-2.1-2
		l0.2-0.7l3.6,0.8L120.2,85.9z M120.8,81.9l-1.5-0.2l-0.2,1.5l1.5,0.2l-0.1,0.8l-3.7-0.5l0.1-0.8l1.6,0.2l0.2-1.5l-1.6-0.2l0.1-0.8
		l3.7,0.5L120.8,81.9z M120.9,79.4c-0.1,0.2-0.2,0.4-0.4,0.5c-0.2,0.1-0.4,0.2-0.7,0.2c-0.2,0-0.4-0.1-0.6-0.1
		c-0.2-0.1-0.3-0.2-0.4-0.3c-0.1-0.1-0.1-0.3-0.2-0.4c0-0.2,0-0.4,0-0.8l0-0.5l-1.4,0l0-0.8l3.7,0.1l0,1.2
		C120.9,78.9,120.9,79.2,120.9,79.4z"/>
	<path class="st3" d="M102.6,110.9c-0.3-0.4-0.4-0.6-0.6-0.7c-0.1-0.1-0.2-0.2-0.3-0.2c-0.1,0-0.2,0-0.2,0.1c-0.1,0-0.1,0.1-0.1,0.2
		c0,0.1,0,0.2,0,0.3c0.1,0.2,0.2,0.4,0.5,0.8c0.3,0.4,0.4,0.6,0.6,0.7c0.1,0.1,0.2,0.2,0.3,0.2c0.1,0,0.2,0,0.2-0.1
		c0.1,0,0.1-0.1,0.1-0.2c0-0.1,0-0.2,0-0.3C103,111.5,102.8,111.2,102.6,110.9z"/>
	<path class="st3" d="M106.5,106.3c-0.1-0.1-0.3-0.1-0.3-0.1c-0.1,0-0.2,0-0.2,0.1c-0.1,0.1-0.1,0.1-0.1,0.2c0,0.1,0,0.2,0.1,0.3
		c0.1,0.2,0.3,0.4,0.6,0.7c0.3,0.3,0.5,0.5,0.7,0.6c0.1,0.1,0.3,0.1,0.3,0.1c0.1,0,0.2,0,0.2-0.1h0c0.1-0.1,0.1-0.1,0.1-0.2
		c0-0.1,0-0.2-0.1-0.3c-0.1-0.2-0.3-0.4-0.6-0.7C106.9,106.6,106.7,106.4,106.5,106.3z"/>
	<path class="st3" d="M111.1,102.3c-0.3-0.3-0.6-0.4-0.8-0.5c-0.2-0.1-0.3-0.1-0.4-0.1c-0.1,0-0.2,0.1-0.2,0.1
		c-0.1,0.1-0.1,0.1-0.1,0.2c0,0.1,0,0.2,0.1,0.3c0.1,0.2,0.3,0.4,0.7,0.6c0.3,0.3,0.6,0.4,0.8,0.5c0.2,0.1,0.3,0.1,0.4,0.1
		c0.1,0,0.2-0.1,0.2-0.1c0.1-0.1,0.1-0.1,0.1-0.2c0-0.1,0-0.2-0.1-0.3C111.7,102.7,111.5,102.5,111.1,102.3z"/>
	<path class="st3" d="M112.8,99.7c-0.4-0.2-0.6-0.4-0.8-0.4c-0.2-0.1-0.3-0.1-0.4,0c-0.1,0-0.1,0.1-0.2,0.1c0,0.1-0.1,0.2-0.1,0.2
		c0,0.1,0.1,0.2,0.2,0.3c0.1,0.1,0.4,0.3,0.8,0.6c0.4,0.2,0.6,0.4,0.8,0.4c0.2,0.1,0.3,0.1,0.4,0c0.1,0,0.1-0.1,0.2-0.1
		c0-0.1,0.1-0.2,0.1-0.2c0-0.1-0.1-0.2-0.2-0.3C113.5,100.1,113.2,99.9,112.8,99.7z"/>
	<path class="st3" d="M109.3,104.6c-0.3-0.3-0.6-0.5-0.7-0.5c-0.2-0.1-0.3-0.1-0.4-0.1c-0.1,0-0.2,0.1-0.2,0.1
		c-0.1,0.1-0.1,0.1-0.1,0.2c0,0.1,0,0.2,0.1,0.3c0.1,0.2,0.3,0.4,0.7,0.7c0.3,0.3,0.6,0.5,0.7,0.5c0.2,0.1,0.3,0.1,0.4,0.1
		c0.1,0,0.2-0.1,0.2-0.1c0.1-0.1,0.1-0.1,0.1-0.2c0-0.1,0-0.2-0.1-0.3C109.8,105.1,109.6,104.9,109.3,104.6z"/>
	<path class="st3" d="M114.4,97c-0.4-0.2-0.7-0.3-0.8-0.4c-0.2,0-0.3,0-0.4,0c-0.1,0-0.1,0.1-0.2,0.2c0,0.1,0,0.2,0,0.2
		c0,0.1,0.1,0.2,0.2,0.3c0.1,0.1,0.4,0.3,0.8,0.5c0.4,0.2,0.7,0.3,0.8,0.4c0.2,0,0.3,0,0.4,0c0.1,0,0.1-0.1,0.2-0.2
		c0-0.1,0-0.2,0-0.2c0-0.1-0.1-0.2-0.2-0.3C115,97.4,114.8,97.2,114.4,97z"/>
	<path class="st3" d="M61.1,114c-0.1,0-0.2,0-0.2,0c-0.1,0-0.2,0.1-0.3,0.2c-0.1,0.1-0.3,0.4-0.5,0.8c-0.2,0.4-0.3,0.7-0.3,0.9
		c0,0.2,0,0.3,0,0.4c0,0.1,0.1,0.1,0.2,0.2c0.1,0,0.2,0,0.2,0c0.1,0,0.2-0.1,0.3-0.2c0.1-0.1,0.3-0.4,0.5-0.8
		c0.2-0.4,0.3-0.7,0.3-0.9s0-0.3,0-0.4C61.2,114.1,61.2,114,61.1,114z"/>
	<path class="st3" d="M63.8,115.1c-0.1,0-0.2,0-0.2,0c-0.1,0-0.2,0.1-0.3,0.2c-0.1,0.2-0.2,0.4-0.4,0.8c-0.2,0.4-0.3,0.7-0.3,0.9
		c0,0.2,0,0.3,0,0.4c0,0.1,0.1,0.1,0.2,0.2v0c0.1,0,0.2,0,0.2,0c0.1,0,0.2-0.1,0.3-0.2c0.1-0.2,0.2-0.4,0.4-0.8
		c0.2-0.4,0.3-0.7,0.3-0.9c0-0.2,0-0.3,0-0.4C63.9,115.2,63.9,115.2,63.8,115.1z"/>
	<path class="st3" d="M116.5,94.8c-0.1-0.1-0.4-0.3-0.8-0.5c-0.4-0.2-0.7-0.3-0.9-0.3c-0.2,0-0.3,0-0.4,0c-0.1,0-0.1,0.1-0.2,0.2
		c0,0.1,0,0.2,0,0.2c0,0.1,0.1,0.2,0.2,0.3c0.1,0.1,0.4,0.3,0.8,0.5c0.4,0.2,0.7,0.3,0.9,0.3c0.2,0,0.3,0,0.4,0
		c0.1,0,0.1-0.1,0.2-0.2c0-0.1,0-0.2,0-0.2C116.7,94.9,116.6,94.9,116.5,94.8z"/>
</g>
<g id="Layer1001">
	<path id="path23" class="st2" d="M53.7,67.8c-0.6,0-1-0.1-1.4-0.4c-0.4-0.3-0.6-0.6-0.7-1c-0.1-0.4,0-0.7,0.2-1.1
		c0.2-0.4,0.5-0.6,0.9-0.7c0.2,0,0.4,0.1,0.6,0.3c0.3,0.2,0.4,0.4,0.3,0.5c-0.2,0.2-0.3,0.4-0.3,0.6c0,0.2,0,0.4,0,0.5
		c0.1,0.1,0.2,0.2,0.4,0.2c0.4,0,0.9-0.5,1.5-1.6c0.6-1,1.2-2.4,1.9-4.1c-0.2,0.2-0.5,0.3-0.8,0.4c-0.4,0.1-0.7,0.3-1,0.4
		c-0.3,0.1-0.5,0.3-0.5,0.5c-0.1,0.3,0,0.6,0.3,0.7c0,0,0.1,0.1,0.1,0.2c0,0.1-0.1,0.2-0.2,0.4C55,63.9,54.9,64,54.8,64
		c-0.5,0.1-1,0-1.4-0.4s-0.5-0.8-0.3-1.3c0.1-0.3,0.3-0.6,0.6-0.8c0.3-0.2,0.6-0.3,0.9-0.4c0.4-0.1,0.7-0.2,1.1-0.3
		c0.4-0.1,0.7-0.2,1.1-0.4c0.4-0.2,0.6-0.4,0.9-0.7c0.1-0.2,0.5-0.2,1-0.2c0.5,0,0.8,0.1,0.8,0.3c0,0,0,0,0,0
		c-0.6,2.6-0.8,4.3-0.8,5.3c0,0.6,0.2,0.7,0.5,0.2c0.1-0.1,0.1-0.2,0.2-0.3c0.3-0.6,0.7-1.4,1.2-2.4c0.5-1.1,0.9-2.1,1.3-3
		c0.1-0.1,0.4-0.1,0.9-0.1c0.5,0,0.8,0.1,0.9,0.3c0,0.2-0.1,0.6-0.2,1c-0.1,0.4-0.1,0.8-0.2,1.1c-0.1,0.3-0.1,0.7-0.2,1.2
		c-0.1,0.5-0.1,0.9-0.2,1.2c0,0.3-0.1,0.7-0.1,1.2c0,0.5-0.1,0.8-0.1,1.1c0,0.3,0,0.6,0,1c0,0.1,0,0.2-0.2,0.3
		c-0.1,0.1-0.3,0.1-0.5,0.2c-0.2,0-0.4,0-0.6,0c-0.2,0-0.3,0-0.5-0.1c-0.1,0-0.2-0.1-0.2-0.2c-0.1-1,0-2.2,0.3-3.6
		c0.1-0.3,0.1-0.6,0.2-0.8h0c-0.4,1.3-0.9,2.3-1.4,2.9c-0.3,0.3-0.6,0.6-0.9,0.7c-0.4,0.1-0.7,0.1-1,0c-0.3-0.1-0.5-0.3-0.6-0.6
		c-0.3-0.7-0.2-1.6,0.1-3h0c-0.2,0.8-0.4,1.2-0.4,1.4c-0.4,1-0.9,1.7-1.4,2.2C55.1,67.6,54.5,67.8,53.7,67.8z M67,62.8
		c0.5-0.1,1-0.1,1.6,0.1c0.6,0.1,1,0.3,1.4,0.7c0.1,0.1,0,0.3-0.2,0.5c-0.2,0.2-0.3,0.3-0.5,0.3c-0.5-0.4-1.1-0.6-1.7-0.5
		c-0.4,0-0.7,0.2-1,0.4c-0.3,0.3-0.5,0.6-0.7,1c-0.3,0.7-0.3,1.2-0.1,1.4c0.1,0.1,0.3,0.1,0.4,0c0.2-0.1,0.3-0.3,0.5-0.6
		c0.2-0.3,0.3-0.6,0.4-0.8c0.1-0.3,0.2-0.5,0.3-0.8c0.2-0.1,0.5-0.1,0.9-0.1c0.4,0.1,0.6,0.2,0.7,0.4c-0.2,0.5-0.3,0.9-0.3,1.1
		c-0.2,0.6-0.1,0.9,0.2,0.9c0.2,0,0.4-0.1,0.7-0.4s0.5-0.6,0.7-1c0,0,0.1-0.1,0.2,0c0.1,0,0.2,0.1,0.2,0.1c0.1,0.1,0.1,0.1,0.1,0.2
		c-0.4,0.7-0.8,1.2-1.3,1.6c-0.5,0.4-1,0.6-1.6,0.6c-0.3,0-0.5-0.1-0.7-0.4c-0.1-0.2-0.2-0.6-0.1-1c-0.2,0.4-0.5,0.7-0.8,1
		c-0.3,0.3-0.7,0.4-1.2,0.4c-0.2,0-0.4,0-0.6-0.1c-0.2-0.1-0.4-0.1-0.5-0.3c-0.2-0.1-0.3-0.3-0.3-0.6c-0.1-0.3-0.1-0.6,0-0.9
		c0.1-0.9,0.5-1.6,1.1-2.2C65.7,63.2,66.3,62.9,67,62.8L67,62.8z M71.4,67.8c-1.1,0-1.4-0.6-1.2-1.7c0.3-1.2,0.6-2.2,0.8-3.1
		c0-0.1,0.4-0.2,0.9-0.2c0.6,0,0.9,0.1,1,0.2c0,0,0,0,0,0.1c-0.1,0.3-0.2,0.8-0.4,1.5c-0.2,0.8-0.3,1.2-0.4,1.4
		c-0.1,0.2-0.1,0.4-0.1,0.6c0,0.1,0.1,0.2,0.2,0.2c0.2,0,0.4-0.2,0.6-0.5c0.2-0.3,0.4-0.7,0.5-1.1c0.2-1,0.4-1.7,0.6-2.2
		c0-0.1,0.4-0.2,0.9-0.2c0.6,0,0.9,0.1,1,0.2c0,0,0,0,0,0.1c-0.1,0.3-0.2,0.8-0.5,1.6c-0.2,0.8-0.3,1.2-0.4,1.4
		c0,0.1-0.1,0.2-0.1,0.3c0,0.1,0,0.2,0,0.2c0,0.1,0,0.1,0.1,0.2c0,0,0.1,0.1,0.2,0.1c0.2,0,0.4-0.2,0.6-0.4c0.2-0.3,0.4-0.6,0.5-1
		c0.1-0.2,0.2-0.5,0.2-0.7c0.1-0.3,0.1-0.5,0.2-0.9c0.1-0.3,0.1-0.6,0.2-0.7c0-0.1,0.3-0.2,0.9-0.2c0.6,0,0.9,0.1,1,0.2
		c0,0,0,0,0,0.1c0,0.1-0.1,0.3-0.2,0.6c-0.1,0.2-0.1,0.5-0.2,0.7c-0.1,0.2-0.1,0.5-0.2,0.7c-0.1,0.3-0.1,0.5-0.2,0.7
		c0,0.2-0.1,0.4-0.1,0.6c0,0.2,0,0.3,0,0.4c0,0.1,0.1,0.1,0.1,0.1c0.2,0,0.4-0.2,0.7-0.4c0.3-0.3,0.5-0.6,0.7-1c0,0,0.1-0.1,0.2,0
		c0.1,0,0.2,0.1,0.2,0.1s0.1,0.1,0.1,0.2c-0.3,0.6-0.7,1.1-1.2,1.6c-0.5,0.4-0.9,0.7-1.5,0.7c-0.3,0-0.5-0.1-0.7-0.3
		c-0.2-0.2-0.3-0.4-0.3-0.7c-0.5,0.7-1.2,1-2,1c-0.7,0-1.1-0.3-1.2-0.8C72.7,67.5,72.1,67.8,71.4,67.8L71.4,67.8z M82.4,62.8
		c0.5-0.1,1-0.1,1.6,0.1c0.6,0.1,1,0.3,1.4,0.7c0.1,0.1,0,0.3-0.2,0.5c-0.2,0.2-0.3,0.3-0.5,0.3c-0.5-0.4-1.1-0.6-1.7-0.5
		c-0.4,0-0.7,0.2-1,0.4c-0.3,0.3-0.5,0.6-0.7,1C81,66,81,66.4,81.2,66.6c0.1,0.1,0.3,0.1,0.4,0c0.2-0.1,0.3-0.3,0.5-0.6
		c0.2-0.3,0.3-0.6,0.4-0.8c0.1-0.3,0.2-0.5,0.3-0.8c0.2-0.1,0.5-0.1,0.9-0.1c0.4,0.1,0.6,0.2,0.7,0.4c-0.2,0.5-0.3,0.9-0.3,1.1
		c-0.2,0.6-0.1,0.9,0.2,0.9c0.2,0,0.4-0.1,0.7-0.4c0.3-0.3,0.5-0.6,0.7-1c0,0,0.1-0.1,0.2,0c0.1,0,0.2,0.1,0.2,0.1
		c0.1,0.1,0.1,0.1,0.1,0.2c-0.4,0.7-0.8,1.2-1.3,1.6c-0.5,0.4-1,0.6-1.6,0.6c-0.3,0-0.5-0.1-0.7-0.4c-0.1-0.2-0.2-0.6-0.1-1
		c-0.2,0.4-0.5,0.7-0.8,1c-0.3,0.3-0.7,0.4-1.2,0.4c-0.2,0-0.4,0-0.6-0.1c-0.2-0.1-0.4-0.1-0.5-0.3s-0.3-0.3-0.3-0.6
		c-0.1-0.3-0.1-0.6,0-0.9c0.1-0.9,0.5-1.6,1.1-2.2C81.1,63.2,81.7,62.9,82.4,62.8L82.4,62.8z M91.6,65.3c0-0.1,0.1,0,0.3,0.1
		c0.2,0.1,0.2,0.2,0.2,0.2c-0.8,1.5-1.7,2.2-2.7,2.2c-0.2,0-0.4,0-0.6-0.1c-0.2-0.1-0.3-0.2-0.4-0.3c-0.1-0.1-0.2-0.3-0.3-0.5
		c-0.1-0.2-0.1-0.4-0.2-0.6c0-0.2-0.1-0.4-0.1-0.7c-0.3,0.3-0.5,0.5-0.5,0.8L87,67.6c0,0.1-0.3,0.2-0.7,0.2c-0.6,0-0.9,0-1-0.2
		c0,0,0-0.1,0-0.2c0.3-1.2,0.6-2.6,1.1-4.2c0.4-1.5,0.8-2.7,1.1-3.5c0.1-0.1,0.4-0.2,0.9-0.2c0.5,0,0.9,0.1,0.9,0.3c0,0,0,0.1,0,0.1
		c-0.5,1.5-1,2.9-1.3,4.2c0.7-0.9,1.3-1.5,1.9-1.8c0.1-0.1,0.3,0,0.5,0.1c0.2,0.1,0.3,0.3,0.4,0.5c0.1,0.2,0.1,0.3,0,0.4
		c-0.7,0.6-1.2,1-1.4,1.3c0,0.5,0.1,1,0.2,1.4c0.1,0.4,0.3,0.6,0.6,0.6C90.5,66.8,91,66.3,91.6,65.3L91.6,65.3z M95.3,62.8
		c0.1-0.1,0.4-0.2,0.9-0.2c0.5,0,0.8,0.2,0.9,0.4c0,0.2-0.1,0.5-0.2,0.9c-0.1,0.4-0.2,0.7-0.3,1c-0.1,0.3-0.2,0.6-0.2,0.9
		c-0.1,0.3-0.1,0.5-0.1,0.7c0,0.2,0.1,0.3,0.1,0.3c0.2,0,0.4-0.2,0.7-0.4c0.3-0.3,0.5-0.6,0.7-1c0,0,0.1-0.1,0.2,0
		c0.1,0,0.2,0.1,0.2,0.1c0.1,0.1,0.1,0.1,0.1,0.2c-0.1,0.3-0.3,0.5-0.5,0.7c-0.2,0.2-0.4,0.5-0.6,0.7c-0.2,0.2-0.5,0.4-0.8,0.6
		c-0.3,0.1-0.6,0.2-0.9,0.2c-0.3,0-0.5-0.2-0.7-0.4c-0.2-0.3-0.2-0.6-0.1-1c-0.6,1-1.3,1.4-2.3,1.4c-1,0-1.4-0.6-1.2-1.8
		c0.1-0.4,0.3-1,0.5-1.8c0.2-0.8,0.4-1.3,0.4-1.4c0.1-0.2,0.4-0.2,0.9-0.2c0.5,0,0.8,0.2,0.8,0.4c0,0-0.1,0.3-0.3,0.9
		c-0.2,0.6-0.3,1-0.4,1.3c-0.2,0.7-0.3,1.1-0.3,1.2c0,0.1,0.1,0.2,0.2,0.2c0.2,0,0.4-0.2,0.7-0.5c0.3-0.3,0.4-0.7,0.6-1.1
		C94.8,64.4,95,63.7,95.3,62.8L95.3,62.8z M101.7,67.8c-0.6,0-1-0.1-1.2-0.5c-0.2-0.4-0.2-0.9,0-1.5h-1.1c0,0.2-0.1,0.4-0.2,0.8
		c-0.1,0.4-0.2,0.7-0.2,0.9c0,0.1-0.3,0.2-0.8,0.2c-0.6,0-0.9,0-1-0.2c0,0,0-0.1,0-0.1c0.1-0.5,0.3-1.3,0.6-2.3
		c0.3-1,0.5-1.8,0.6-2.3c0-0.1,0.2-0.2,0.5-0.2c0.3,0,0.6,0,0.9,0c0.3,0.1,0.4,0.1,0.4,0.3c-0.1,0.2-0.1,0.5-0.2,0.9
		c-0.1,0.4-0.2,0.7-0.2,0.9h1.1c0.1-0.2,0.1-0.6,0.3-1c0.1-0.4,0.2-0.7,0.2-0.8c0-0.1,0.2-0.2,0.5-0.2c0.3,0,0.6,0,1,0
		c0.3,0.1,0.4,0.1,0.4,0.3c-0.1,0.4-0.3,0.9-0.4,1.6c-0.2,0.7-0.3,1-0.3,1.2c-0.2,0.6-0.1,0.9,0.1,0.9c0.2,0,0.4-0.1,0.7-0.4
		c0.3-0.3,0.5-0.6,0.7-1c0,0,0.1-0.1,0.2,0c0.1,0,0.2,0.1,0.2,0.2c0.1,0.1,0.1,0.1,0.1,0.2C103.6,67,102.7,67.7,101.7,67.8
		L101.7,67.8z M59.8,81.8c-0.8,0-1.4-0.1-1.7-0.5c-0.4-0.3-0.5-0.8-0.4-1.4c0.1-0.7,0.5-1.2,1.2-1.6c0.7-0.4,1.6-0.5,2.6-0.5
		c0-0.1,0.1-0.2,0.2-0.4c0.1-0.2,0.2-0.4,0.2-0.4c0-0.1,0.1-0.2,0.2-0.4c0.1-0.2,0.1-0.3,0.2-0.4c0-0.1,0.1-0.2,0.2-0.3
		c0.1-0.2,0.1-0.3,0.2-0.3c0-0.1,0.1-0.2,0.2-0.3c0.1-0.1,0.1-0.2,0.2-0.3c0.1-0.1,0.1-0.2,0.2-0.3c0.1-0.1,0.2-0.2,0.3-0.3
		c0.3-0.3,0.6-0.5,0.9-0.6c0.4-0.1,0.7-0.2,1-0.2c0.3,0,0.6,0.1,0.9,0.3c0.2,0.2,0.4,0.4,0.5,0.7c0.1,0.7,0,2-0.5,3.7
		c0.8,0,1.3-0.1,1.6-0.4c0.1-0.1,0.2-0.1,0.4,0.1c0.1,0.2,0.1,0.3,0.1,0.4c-0.4,0.4-1.1,0.7-2.1,0.8c-0.2,0.6-0.3,1.4-0.5,2.3
		c-0.2,0.2-0.5,0.3-1,0.3c-0.5,0-0.8-0.1-1-0.3c0.1-0.6,0.3-1.4,0.5-2.3l-1.2-0.1c-0.4,0.9-0.8,1.6-1.2,2
		C61.2,81.5,60.6,81.8,59.8,81.8L59.8,81.8z M64.3,78.2c0.5-1.6,0.7-2.6,0.7-3c0-0.1,0-0.2,0-0.2c0-0.1-0.1-0.1-0.2,0
		c-0.1,0-0.2,0.1-0.3,0.2c-0.4,0.6-0.8,1.6-1.3,3c0.1,0,0.3,0,0.5,0C64.1,78.2,64.2,78.2,64.3,78.2z M59.8,80.7
		c0.2,0,0.4-0.2,0.6-0.4c0.2-0.3,0.4-0.7,0.6-1.3c-0.3,0-0.6,0.1-0.9,0.2c-0.3,0.2-0.5,0.4-0.6,0.7c-0.1,0.2-0.1,0.4,0,0.5
		C59.5,80.7,59.7,80.7,59.8,80.7z M71.6,81.8c-0.6,0-1-0.1-1.2-0.5c-0.2-0.4-0.2-0.9,0-1.5h-1.1c0,0.2-0.1,0.4-0.2,0.8
		c-0.1,0.4-0.2,0.7-0.2,0.9c0,0.1-0.3,0.2-0.8,0.2c-0.6,0-0.9,0-1-0.2c0,0,0-0.1,0-0.1c0.1-0.5,0.3-1.3,0.6-2.3
		c0.3-1,0.5-1.8,0.6-2.3c0-0.1,0.2-0.2,0.5-0.2c0.3,0,0.6,0,0.9,0c0.3,0.1,0.4,0.1,0.4,0.3c-0.1,0.2-0.1,0.5-0.2,0.9
		c-0.1,0.4-0.2,0.7-0.2,0.9h1.1c0.1-0.2,0.1-0.6,0.3-1c0.1-0.4,0.2-0.7,0.2-0.8c0-0.1,0.2-0.2,0.5-0.2c0.3,0,0.6,0,1,0
		c0.3,0.1,0.4,0.1,0.4,0.3c-0.1,0.4-0.3,0.9-0.4,1.6c-0.2,0.7-0.3,1-0.3,1.2c-0.2,0.6-0.1,0.9,0.1,0.9c0.2,0,0.4-0.1,0.7-0.4
		c0.3-0.3,0.5-0.6,0.7-1c0,0,0.1-0.1,0.2,0c0.1,0,0.2,0.1,0.2,0.2c0.1,0.1,0.1,0.1,0.1,0.2C73.5,81,72.6,81.7,71.6,81.8L71.6,81.8z
		 M76.8,76.8c0.5-0.1,1-0.1,1.6,0c0.6,0.1,1,0.3,1.4,0.7c0,0.1,0,0.3-0.2,0.5c-0.2,0.2-0.3,0.4-0.4,0.3c-0.2-0.2-0.5-0.3-0.8-0.4
		c-0.3-0.1-0.7-0.1-1-0.1c-0.3,0-0.7,0.2-1,0.4c-0.3,0.3-0.5,0.6-0.7,1c-0.1,0.4-0.2,0.7-0.2,0.9c0,0.3,0,0.4,0.2,0.5
		c0.1,0.1,0.3,0,0.5-0.1c0.2-0.2,0.4-0.5,0.6-0.9c0.2-0.3,0.4-0.7,0.5-1.2c0.1-0.1,0.4-0.2,0.9-0.1c0.4,0.1,0.7,0.2,0.7,0.4
		c-0.1,0.4-0.3,1-0.4,1.6c-0.2,0.6-0.3,1-0.3,1.2c0.4-0.2,0.7-0.4,1-0.7c0.3-0.3,0.6-0.8,1-1.5c0,0,0.1,0,0.2,0
		c0.1,0,0.2,0.1,0.2,0.1c0.1,0.1,0.1,0.1,0.1,0.2c-0.5,0.8-0.9,1.4-1.3,1.8c-0.4,0.4-0.9,0.7-1.4,0.9c-0.3,0.9-0.5,1.5-0.7,1.8
		c-0.4,0.7-1.1,1-2,1c-0.5,0-0.9-0.1-1.2-0.4s-0.4-0.6-0.4-1c0-0.2,0.1-0.4,0.2-0.6c0.1-0.2,0.2-0.3,0.4-0.4
		c0.2-0.1,0.3-0.2,0.4-0.3c0.1-0.1,0.3-0.2,0.6-0.2c0.2-0.1,0.4-0.1,0.6-0.2c0.2,0,0.4-0.1,0.6-0.1c0.2-0.6,0.4-1.1,0.5-1.3
		c-0.5,0.8-1.1,1.1-1.8,1.2c-0.6,0-1-0.2-1.2-0.6c-0.2-0.4-0.3-0.9-0.2-1.4c0.1-0.6,0.3-1.1,0.7-1.6c0.3-0.4,0.7-0.7,1.1-1
		C75.9,77,76.3,76.8,76.8,76.8L76.8,76.8z M76.2,82.9c-0.3,0.1-0.5,0.2-0.7,0.3c-0.2,0.1-0.3,0.3-0.4,0.4c-0.1,0.2-0.1,0.4,0.1,0.5
		c0.2,0.1,0.4,0,0.5-0.2c0.1-0.1,0.1-0.2,0.2-0.3C76.1,83.4,76.1,83.2,76.2,82.9z M84.4,76.7c0.5,0,0.8,0.3,1,0.7
		c0.2,0.5,0.2,1,0.1,1.5c-0.1,0.6-0.3,1.1-0.7,1.5c0.4,0,0.7-0.1,1-0.3c0.3-0.2,0.5-0.5,0.7-0.9c0,0,0.1-0.1,0.2,0s0.2,0.1,0.2,0.1
		c0.1,0.1,0.1,0.1,0.1,0.2c-0.6,1.2-1.4,1.7-2.6,1.5c-0.4,0.4-0.9,0.6-1.4,0.7c-0.6,0.1-1.1,0-1.5-0.3c-0.1,0.4-0.2,0.9-0.4,1.7
		c-0.2,0.8-0.3,1.4-0.4,1.7c-0.1,0.2-0.4,0.2-1,0.2s-0.8-0.1-0.9-0.3c0.7-2.9,1.4-5.5,2.2-8c0-0.1,0.2-0.1,0.4-0.1
		c0.3,0,0.5,0,0.8,0.1c0.3,0.1,0.5,0.2,0.5,0.3c0,0.1-0.1,0.3-0.2,0.5C83.1,77,83.8,76.7,84.4,76.7z M83.2,78c-0.1,0-0.3,0-0.5,0.1
		c-0.2,0.1-0.4,0.2-0.6,0.4c-0.1,0.2-0.2,0.6-0.3,1c-0.1,0.4-0.2,0.7-0.3,0.9c0.2,0.1,0.3,0.2,0.6,0.3c0.2,0,0.4,0,0.6-0.1
		c-0.1-0.2-0.1-0.4,0-0.6c0.1-0.2,0.3-0.3,0.4-0.3c0.2-0.5,0.3-0.9,0.3-1.2C83.5,78.2,83.4,78,83.2,78z M89.5,76.7
		c0.4,0,0.7,0.1,1,0.2c0.3,0.1,0.5,0.3,0.6,0.5c0.1,0.2,0.2,0.4,0.2,0.7c0,0.2,0,0.5-0.2,0.7c-0.2,0.4-0.6,0.7-1.1,0.9
		c-0.5,0.2-1.1,0.2-1.7,0.1c0.1,0.6,0.5,0.9,1.4,0.9c0.3,0,0.5,0,0.8-0.1c0.3-0.1,0.5-0.2,0.8-0.4c0.3-0.2,0.5-0.5,0.7-0.9
		c0,0,0.1-0.1,0.2,0c0.1,0,0.2,0.1,0.2,0.1c0.1,0.1,0.1,0.1,0.1,0.2C92,80.4,91.5,81,91,81.3c-0.6,0.3-1.2,0.5-1.9,0.5
		c-0.9,0-1.6-0.2-2.1-0.7c-0.4-0.5-0.6-1-0.6-1.7c0.1-0.8,0.4-1.5,1-2C88,77,88.7,76.7,89.5,76.7z M89.4,77.9
		c-0.2,0-0.4,0.1-0.6,0.3c-0.2,0.2-0.3,0.6-0.4,0.9c0.3,0,0.6-0.1,0.8-0.2c0.2-0.2,0.3-0.4,0.4-0.6C89.6,78,89.6,77.9,89.4,77.9z
		 M96.4,74.6c0.1-0.1,0.2-0.1,0.3,0.1c0.1,0.2,0.2,0.4,0.1,0.5c-0.2,0.3-0.6,0.6-1,0.7c-0.4,0.2-0.9,0.2-1.2,0.1
		c-0.4-0.1-0.6-0.3-0.7-0.6c0-0.1,0-0.3,0.1-0.4c0.1-0.1,0.2-0.2,0.4-0.3c0.1,0,0.2,0,0.3,0c0.1,0.2,0.3,0.3,0.5,0.3
		c0.2,0,0.5,0,0.7-0.1C96.1,74.8,96.3,74.7,96.4,74.6z M95.7,76.8c0.1-0.1,0.4-0.2,0.9-0.2c0.5,0,0.8,0.2,0.9,0.4
		c0,0.2-0.1,0.5-0.2,0.9c-0.1,0.4-0.2,0.7-0.3,1s-0.2,0.6-0.2,0.9c-0.1,0.3-0.1,0.5-0.1,0.7c0,0.2,0.1,0.3,0.1,0.3
		c0.2,0,0.4-0.2,0.7-0.4c0.3-0.3,0.5-0.6,0.7-1c0,0,0.1-0.1,0.2,0c0.1,0,0.2,0.1,0.2,0.1c0.1,0.1,0.1,0.1,0.1,0.2
		c-0.1,0.3-0.3,0.5-0.5,0.7c-0.2,0.2-0.4,0.5-0.6,0.7c-0.2,0.2-0.5,0.4-0.8,0.6c-0.3,0.1-0.6,0.2-0.9,0.2c-0.3,0-0.5-0.1-0.7-0.4
		c-0.2-0.3-0.2-0.6-0.1-1c-0.6,1-1.3,1.4-2.3,1.4c-1.1,0-1.4-0.6-1.2-1.8c0.1-0.4,0.3-1,0.5-1.8c0.2-0.8,0.4-1.3,0.4-1.4
		c0.1-0.2,0.4-0.2,0.9-0.2c0.5,0,0.8,0.2,0.8,0.4c0,0-0.1,0.3-0.3,0.9c-0.2,0.6-0.3,1-0.4,1.3c-0.2,0.7-0.3,1.1-0.3,1.2
		c0,0.1,0.1,0.2,0.2,0.2c0.2,0,0.4-0.2,0.7-0.5c0.3-0.3,0.4-0.7,0.6-1.1C95.2,78.4,95.5,77.7,95.7,76.8L95.7,76.8z"/>
	<path id="path25" class="st2" d="M46.5,95.8c-0.6,0-1-0.1-1.4-0.4c-0.4-0.3-0.6-0.6-0.7-1c-0.1-0.4,0-0.7,0.2-1.1
		c0.2-0.4,0.5-0.6,0.9-0.7c0.2,0,0.4,0.1,0.6,0.3c0.3,0.2,0.4,0.4,0.3,0.5c-0.2,0.2-0.3,0.4-0.3,0.6c0,0.2,0,0.4,0,0.5
		c0.1,0.1,0.2,0.2,0.4,0.2c0.4,0,0.9-0.5,1.5-1.6c0.6-1,1.2-2.4,1.9-4.1c-0.2,0.2-0.5,0.3-0.8,0.4c-0.4,0.1-0.7,0.3-1,0.4
		c-0.3,0.1-0.5,0.3-0.5,0.5c-0.1,0.3,0,0.6,0.3,0.7c0,0,0.1,0.1,0.1,0.2c0,0.1-0.1,0.2-0.2,0.4c-0.1,0.1-0.2,0.2-0.3,0.2
		c-0.5,0.1-1,0-1.4-0.4c-0.4-0.3-0.5-0.8-0.3-1.3c0.1-0.3,0.3-0.6,0.6-0.8c0.3-0.2,0.6-0.3,0.9-0.4c0.4-0.1,0.7-0.2,1.1-0.3
		c0.4-0.1,0.7-0.2,1.1-0.4c0.4-0.2,0.6-0.4,0.9-0.7c0.1-0.2,0.5-0.2,1-0.2c0.5,0,0.8,0.1,0.8,0.3c0,0,0,0,0,0
		c-0.6,2.6-0.8,4.3-0.8,5.3c0,0.6,0.2,0.7,0.5,0.2c0.1-0.1,0.1-0.2,0.2-0.3c0.3-0.6,0.7-1.4,1.2-2.4c0.5-1.1,0.9-2.1,1.3-3
		c0.1-0.1,0.4-0.1,0.9-0.1c0.5,0,0.8,0.1,0.9,0.3c0,0.2-0.1,0.6-0.2,1c-0.1,0.4-0.1,0.8-0.2,1.1c-0.1,0.3-0.1,0.7-0.2,1.2
		c-0.1,0.5-0.1,0.9-0.2,1.2c0,0.3-0.1,0.7-0.1,1.2c0,0.5-0.1,0.8-0.1,1.1c0,0.3,0,0.6,0,1c0,0.1,0,0.2-0.2,0.3
		c-0.1,0.1-0.3,0.1-0.5,0.2c-0.2,0-0.4,0-0.6,0c-0.2,0-0.3,0-0.5-0.1c-0.1,0-0.2-0.1-0.2-0.2c-0.1-1,0-2.2,0.3-3.6
		c0.1-0.3,0.1-0.6,0.2-0.8h0c-0.4,1.3-0.9,2.3-1.4,2.9c-0.3,0.3-0.6,0.6-0.9,0.7c-0.4,0.1-0.7,0.1-1,0c-0.3-0.1-0.5-0.3-0.6-0.6
		c-0.3-0.7-0.2-1.6,0.1-3h0c-0.2,0.8-0.4,1.2-0.4,1.4c-0.4,1-0.9,1.7-1.4,2.2C48,95.6,47.3,95.8,46.5,95.8z M60.6,90.8
		c0.1-0.1,0.4-0.2,0.9-0.2c0.5,0,0.8,0.2,0.9,0.4c0,0.2-0.1,0.5-0.2,0.9c-0.1,0.4-0.2,0.7-0.3,1c-0.1,0.3-0.2,0.6-0.2,0.9
		c-0.1,0.3-0.1,0.5-0.1,0.7c0,0.2,0.1,0.3,0.1,0.3c0.2,0,0.4-0.2,0.7-0.4c0.3-0.3,0.5-0.6,0.7-1c0,0,0.1-0.1,0.2,0
		c0.1,0,0.2,0.1,0.2,0.1c0.1,0.1,0.1,0.1,0.1,0.2c-0.1,0.3-0.3,0.5-0.5,0.7c-0.2,0.2-0.4,0.5-0.6,0.7c-0.2,0.2-0.5,0.4-0.8,0.6
		c-0.3,0.1-0.6,0.2-0.9,0.2c-0.3,0-0.5-0.1-0.7-0.4c-0.2-0.3-0.2-0.6-0.1-1c-0.6,1-1.3,1.4-2.3,1.4c-1,0-1.4-0.6-1.2-1.8
		c0.1-0.4,0.3-1,0.5-1.8c0.2-0.8,0.4-1.3,0.4-1.4c0.1-0.2,0.4-0.2,0.9-0.2s0.8,0.2,0.8,0.4c0,0-0.1,0.3-0.3,0.9
		c-0.2,0.6-0.3,1-0.4,1.3c-0.2,0.7-0.3,1.1-0.3,1.2c0,0.1,0.1,0.2,0.2,0.2c0.2,0,0.4-0.2,0.7-0.5c0.3-0.3,0.4-0.7,0.6-1.1
		C60.1,92.4,60.4,91.7,60.6,90.8z M69.5,93.3c0-0.1,0.1,0,0.3,0.1s0.2,0.2,0.2,0.2c-0.3,0.6-0.7,1.1-1.1,1.4
		c-0.4,0.4-0.8,0.6-1.2,0.7c-0.6,0.1-1.1,0-1.4-0.3c-0.1-0.1-0.3-0.4-0.5-0.8l-0.8,0.9c-0.2,0.2-0.5,0.3-1.1,0.2
		c-0.4,0-0.7-0.1-0.7-0.2c0,0,0-0.1,0-0.1l1.8-2.2c0,0-0.1-0.3-0.3-0.7c-0.1-0.2-0.2-0.3-0.3-0.4s-0.1,0-0.2,0.1
		c0,0.1-0.1,0.2-0.2,0.3c-0.1,0.1-0.2,0.3-0.3,0.6c-0.1,0.2-0.3,0.5-0.4,0.7c0,0-0.1,0.1-0.2,0c-0.1,0-0.2-0.1-0.2-0.1
		c-0.1-0.1-0.1-0.1-0.1-0.2c0.1-0.2,0.3-0.5,0.5-0.9c0.2-0.4,0.4-0.7,0.5-1c0.1-0.2,0.3-0.4,0.5-0.6c0.2-0.2,0.4-0.3,0.6-0.4
		c0.3,0,0.5,0,0.7,0.1c0.2,0.1,0.3,0.2,0.4,0.4c0.1,0.1,0.2,0.3,0.3,0.6c0,0.1,0.1,0.1,0.1,0.2l0.7-0.9c0.2-0.2,0.5-0.3,1.1-0.2
		c0.4,0,0.6,0.1,0.6,0.2c0,0,0,0.1,0,0.1l-1.8,2.2c0.1,0.3,0.2,0.5,0.3,0.6c0.1,0.2,0.2,0.4,0.3,0.5c0.1,0.1,0.2,0.2,0.3,0.2
		C68.5,94.7,69,94.3,69.5,93.3L69.5,93.3z M72.4,90.7c0.5-0.1,1-0.1,1.6,0.1c0.6,0.1,1,0.3,1.4,0.7c0.1,0.1,0,0.3-0.2,0.5
		c-0.2,0.2-0.3,0.3-0.5,0.3c-0.5-0.4-1.1-0.6-1.7-0.5c-0.4,0-0.7,0.2-1,0.4c-0.3,0.3-0.5,0.6-0.7,1c-0.3,0.7-0.3,1.2-0.1,1.4
		c0.1,0.1,0.3,0.1,0.4,0c0.2-0.1,0.3-0.3,0.5-0.6c0.2-0.3,0.3-0.6,0.4-0.8c0.1-0.3,0.2-0.5,0.3-0.8c0.2-0.1,0.5-0.1,0.9-0.1
		c0.4,0.1,0.6,0.2,0.7,0.4c-0.2,0.5-0.3,0.9-0.3,1.1c-0.2,0.6-0.1,0.9,0.2,0.9c0.2,0,0.4-0.1,0.7-0.4s0.5-0.6,0.7-1
		c0,0,0.1-0.1,0.2,0c0.1,0,0.2,0.1,0.2,0.1c0.1,0.1,0.1,0.1,0.1,0.2c-0.4,0.7-0.8,1.2-1.3,1.6c-0.5,0.4-1,0.6-1.6,0.6
		c-0.3,0-0.5-0.1-0.7-0.4c-0.1-0.2-0.2-0.6-0.1-1c-0.2,0.4-0.5,0.7-0.8,1c-0.3,0.3-0.7,0.4-1.2,0.4c-0.2,0-0.4,0-0.6-0.1
		c-0.2-0.1-0.4-0.1-0.5-0.3c-0.2-0.1-0.3-0.3-0.3-0.6c-0.1-0.3-0.1-0.6,0-0.9c0.1-0.9,0.5-1.6,1.1-2.2
		C71.1,91.2,71.7,90.8,72.4,90.7L72.4,90.7z M80.3,88.6c0.1-0.1,0.2-0.1,0.3,0.1c0.1,0.2,0.2,0.4,0.1,0.5c-0.2,0.3-0.6,0.6-1,0.7
		c-0.4,0.2-0.9,0.2-1.2,0.1c-0.4-0.1-0.6-0.3-0.7-0.6c0-0.1,0-0.3,0.1-0.4c0.1-0.1,0.2-0.2,0.4-0.3c0.1,0,0.2,0,0.3,0
		c0.1,0.2,0.3,0.3,0.5,0.3c0.2,0,0.5,0,0.7-0.1C80,88.8,80.2,88.7,80.3,88.6z M79.6,90.8c0.1-0.1,0.4-0.2,0.9-0.2
		c0.5,0,0.8,0.2,0.9,0.4c0,0.2-0.1,0.5-0.2,0.9c-0.1,0.4-0.2,0.7-0.3,1s-0.2,0.6-0.2,0.9c-0.1,0.3-0.1,0.5-0.1,0.7
		c0,0.2,0.1,0.3,0.1,0.3c0.2,0,0.4-0.2,0.7-0.4c0.3-0.3,0.5-0.6,0.7-1c0,0,0.1-0.1,0.2,0c0.1,0,0.2,0.1,0.2,0.1
		c0.1,0.1,0.1,0.1,0.1,0.2c-0.1,0.3-0.3,0.5-0.5,0.7c-0.2,0.2-0.4,0.5-0.6,0.7c-0.2,0.2-0.5,0.4-0.8,0.6c-0.3,0.1-0.6,0.2-0.9,0.2
		c-0.3,0-0.5-0.1-0.7-0.4c-0.2-0.3-0.2-0.6-0.1-1c-0.6,1-1.3,1.4-2.3,1.4c-1.1,0-1.4-0.6-1.2-1.8c0.1-0.4,0.3-1,0.5-1.8
		c0.2-0.8,0.4-1.3,0.4-1.4c0.1-0.2,0.4-0.2,0.9-0.2c0.5,0,0.8,0.2,0.8,0.4c0,0-0.1,0.3-0.3,0.9c-0.2,0.6-0.3,1-0.4,1.3
		c-0.2,0.7-0.3,1.1-0.3,1.2c0,0.1,0.1,0.2,0.2,0.2c0.2,0,0.4-0.2,0.7-0.5c0.3-0.3,0.4-0.7,0.6-1.1C79.1,92.4,79.3,91.7,79.6,90.8
		L79.6,90.8z M85.1,95.8c-0.7,0-1.1-0.2-1.3-0.8c-0.2-0.6-0.2-1.4,0-2.4h0c-0.4,0.8-0.8,1.7-1.2,2.9c0,0.1-0.3,0.2-0.7,0.3
		c-0.5,0-0.8,0-0.9-0.2c0,0,0-0.1,0-0.2c0.5-1.6,1.2-3.1,2.4-4.5c0.1-0.1,0.2-0.1,0.3-0.2c0.2,0,0.4-0.1,0.6-0.1c0.2,0,0.4,0,0.6,0
		c0.2,0,0.3,0.1,0.5,0.1c0.1,0.1,0.2,0.1,0.2,0.2c-0.1,0.4-0.1,0.7-0.2,1c0,0.3-0.1,0.6-0.1,0.9c0,0.3-0.1,0.5-0.1,0.7
		c0,0.2,0,0.4,0,0.5c0,0.2,0.1,0.3,0.1,0.4c0.1,0.1,0.2,0.1,0.3,0.1c0.5,0,1-0.5,1.5-1.4c0,0,0.1,0,0.2,0c0.1,0,0.2,0.1,0.2,0.1
		c0.1,0.1,0.1,0.1,0.1,0.2C86.9,95,86.1,95.8,85.1,95.8z M90.4,90.7c0.7,0,1.2,0.2,1.6,0.6c0.4,0.4,0.5,0.9,0.5,1.4
		c0,0.6-0.2,1.2-0.6,1.7c0.3,0,0.6,0,0.9-0.2c0.3-0.2,0.5-0.5,0.7-0.9c0,0,0.1-0.1,0.2,0c0.1,0,0.2,0.1,0.2,0.1s0.1,0.1,0.1,0.2
		c-0.2,0.4-0.4,0.7-0.6,0.9s-0.5,0.4-0.7,0.5c-0.2,0.1-0.5,0.1-0.7,0.2c-0.2,0-0.5,0-0.7,0c-0.6,0.5-1.3,0.7-2.1,0.7
		c-0.8,0-1.3-0.2-1.7-0.6c-0.4-0.4-0.5-1.1-0.2-2c0.2-0.8,0.6-1.4,1.2-1.9S89.6,90.7,90.4,90.7z M90.1,91.8c-0.4,0-0.7,0.5-1,1.4
		c-0.1,0.2-0.1,0.4-0.1,0.5c0,0.1,0,0.3-0.1,0.5c0,0.2,0,0.3,0.1,0.4c0.1,0.1,0.2,0.1,0.4,0.1c0.2,0,0.3-0.1,0.4-0.2
		c-0.1-0.2-0.1-0.4,0-0.6c0.1-0.2,0.3-0.3,0.4-0.3c0.2-0.5,0.3-0.9,0.2-1.3C90.6,92,90.4,91.8,90.1,91.8z M95.4,95.8
		c-1.5-0.1-2.1-1-1.8-2.9c0.3-1.9,0.7-3.3,1.4-4.2c0.5-0.7,1.2-1.1,1.9-1.1c0.6,0,1.1,0.1,1.4,0.4c0.3,0.3,0.5,0.6,0.5,1
		c0,0.4-0.1,0.8-0.3,1.2c-0.2,0.4-0.5,0.7-0.9,1c0.4,0.1,0.7,0.3,0.9,0.7c0.2,0.4,0.2,0.8,0.1,1.3c-0.1,0.5-0.3,0.9-0.6,1.3
		c0.7,0,1.2-0.4,1.6-1.2c0,0,0.1,0,0.2,0c0.1,0,0.2,0.1,0.2,0.1c0.1,0.1,0.1,0.1,0.1,0.2c-0.2,0.4-0.5,0.7-0.7,1
		c-0.2,0.2-0.5,0.4-0.7,0.4c-0.2,0.1-0.5,0.1-0.7,0.1c-0.2,0-0.5,0-0.7,0C96.8,95.6,96.1,95.8,95.4,95.8z M95.6,91.3
		c0.1,0,0.2-0.1,0.3-0.2c0.2-0.1,0.3-0.1,0.4-0.2c0.1,0,0.2-0.1,0.3-0.2c0.1-0.1,0.2-0.2,0.3-0.3c0.2-0.2,0.3-0.4,0.4-0.7
		c0.1-0.3,0.1-0.5,0-0.7c-0.1-0.2-0.2-0.3-0.5-0.3C96.3,88.9,95.9,89.7,95.6,91.3z M95.7,94.7c0.1,0,0.3-0.1,0.4-0.2
		c-0.1-0.2-0.1-0.4,0-0.5c0.1-0.2,0.3-0.3,0.5-0.3c0.2-0.4,0.3-0.8,0.3-1.1c0-0.3-0.2-0.5-0.5-0.5c-0.2,0-0.4,0-0.6,0.2
		c-0.2,0.1-0.4,0.2-0.5,0.3C95,94,95.1,94.7,95.7,94.7z M103.4,90.8c0.1-0.1,0.4-0.2,0.9-0.2c0.5,0,0.8,0.2,0.9,0.4
		c0,0.2-0.1,0.5-0.2,0.9c-0.1,0.4-0.2,0.7-0.3,1s-0.2,0.6-0.2,0.9c-0.1,0.3-0.1,0.5-0.1,0.7c0,0.2,0.1,0.3,0.1,0.3
		c0.2,0,0.4-0.2,0.7-0.4s0.5-0.6,0.7-1c0,0,0.1-0.1,0.2,0c0.1,0,0.2,0.1,0.2,0.1c0.1,0.1,0.1,0.1,0.1,0.2c-0.1,0.3-0.3,0.5-0.5,0.7
		s-0.4,0.5-0.6,0.7c-0.2,0.2-0.5,0.4-0.8,0.6c-0.3,0.1-0.6,0.2-0.9,0.2c-0.3,0-0.5-0.1-0.7-0.4c-0.2-0.3-0.2-0.6-0.1-1
		c-0.6,1-1.3,1.4-2.3,1.4c-1.1,0-1.4-0.6-1.2-1.8c0.1-0.4,0.3-1,0.5-1.8c0.2-0.8,0.4-1.3,0.4-1.4c0.1-0.2,0.4-0.2,0.9-0.2
		c0.5,0,0.8,0.2,0.8,0.4c0,0-0.1,0.3-0.3,0.9c-0.2,0.6-0.3,1-0.4,1.3c-0.2,0.7-0.3,1.1-0.3,1.2c0,0.1,0.1,0.2,0.2,0.2
		c0.2,0,0.4-0.2,0.7-0.5c0.3-0.3,0.4-0.7,0.6-1.1C102.9,92.4,103.2,91.7,103.4,90.8L103.4,90.8z M108.3,95.8c-0.4,0-0.7-0.1-1-0.3
		c-0.3-0.2-0.4-0.6-0.4-1c0-0.7,0.3-1.7,0.9-2.8c-0.3-0.2-0.6-0.4-0.7-0.7c0,0.4-0.1,0.8-0.3,1.4c-0.1,0.5-0.4,1.1-0.6,1.5
		c-0.1,0.1-0.2,0.1-0.3,0c-0.2-0.1-0.2-0.2-0.2-0.3c0.5-0.9,0.8-1.9,0.9-3.1c-0.2-0.4-0.2-0.8,0-1.1c0.2-0.2,0.4-0.3,0.7-0.2
		c0.3,0.1,0.5,0.3,0.5,0.8c0,0.1,0,0.2,0,0.4c0.1,0.1,0.2,0.3,0.5,0.4c0.2,0.1,0.4,0.2,0.6,0.3c0.4-0.1,0.6,0.1,0.8,0.3
		c0.1,0.3,0.1,0.6-0.2,1c-0.4,0.6-0.6,1.2-0.7,1.8c0,0.4,0.1,0.6,0.4,0.6c0.3,0,0.6-0.1,1-0.4c0.4-0.2,0.7-0.6,0.9-1.1
		c0,0,0.1,0,0.2,0c0.1,0,0.2,0.1,0.2,0.1c0.1,0.1,0.1,0.1,0.1,0.1c-0.4,0.7-0.8,1.3-1.4,1.7C109.5,95.6,108.9,95.8,108.3,95.8
		L108.3,95.8z"/>
</g>
<path id="path28" class="st2" d="M26.5,79.3l0-0.6l4.2,0.1l-4.1-2.9l0-0.7l5.2,0.1l0,0.6l-4.1-0.1l4.1,2.9l0,0.7L26.5,79.3z
	 M31.9,74.1l-5.2-0.7l0.1-0.7l2.1,0.3l0.4-2.7l-2.1-0.3l0.1-0.7l5.2,0.7l-0.1,0.7l-2.4-0.3l-0.4,2.7l2.4,0.3L31.9,74.1z M27.6,67.3
	l0.7-3.1l4.5,1l0.1-0.5l1.8,0.4l-0.1,0.6l-1.2-0.3l-0.8,3.4l1.2,0.3l-0.1,0.6l-1.8-0.4L32,69c-0.5-0.6-1.7-1-3.6-1.5L27.6,67.3z
	 M28.8,65l-0.4,1.8l0.3,0.1c0.4,0.1,1,0.3,1.8,0.5c0.7,0.2,1.3,0.5,1.8,0.9l0.5-2.4L28.8,65z M28.9,62.4l0.2-0.6l3.9,1.3l-3-4
	l0.2-0.7l5,1.7L35,60.8l-3.9-1.3l3,4l-0.2,0.7L28.9,62.4z M35.6,59.2L31,56.8l0.9-1.7c0.2-0.4,0.4-0.6,0.6-0.8
	c0.2-0.2,0.4-0.3,0.7-0.3c0.3,0,0.5,0,0.7,0.1c0.2,0.1,0.4,0.3,0.5,0.5c0.1,0.2,0.2,0.4,0.2,0.7c0.2-0.2,0.5-0.4,0.8-0.4
	c0.3,0,0.6,0,0.8,0.1c0.2,0.1,0.4,0.3,0.5,0.5c0.1,0.2,0.2,0.4,0.3,0.6c0,0.2,0,0.4,0,0.6c-0.1,0.2-0.2,0.5-0.3,0.8L35.6,59.2z
	 M33.3,57.2l0.5-1c0.1-0.3,0.2-0.5,0.3-0.6c0-0.2,0-0.3,0-0.5c-0.1-0.1-0.2-0.2-0.3-0.3c-0.2-0.1-0.3-0.1-0.5-0.1
	c-0.2,0-0.3,0.1-0.4,0.2s-0.3,0.3-0.4,0.7l-0.5,0.9L33.3,57.2z M35.4,58.3l0.6-1.2c0.1-0.2,0.2-0.3,0.2-0.4c0-0.2,0.1-0.3,0.1-0.4
	c0-0.1-0.1-0.2-0.1-0.4c-0.1-0.1-0.2-0.2-0.3-0.3c-0.2-0.1-0.3-0.1-0.5-0.1c-0.2,0-0.3,0.1-0.5,0.2c-0.1,0.1-0.3,0.3-0.4,0.6
	l-0.6,1.1L35.4,58.3z M33.5,52l0.3-0.5l3.5,2.2l-2-4.6l0.4-0.6l4.4,2.8l-0.3,0.5l-3.5-2.2l2,4.6l-0.4,0.6L33.5,52z M37,46.8l2-2.5
	l3.6,2.9l0.3-0.4l1.4,1.1L44,48.5l-1-0.8l-2.2,2.7l1,0.8l-0.4,0.5L40,50.5l0.3-0.3c-0.2-0.7-1.1-1.7-2.6-2.9L37,46.8z M39.1,45.2
	l-1.1,1.4l0.2,0.2c0.3,0.3,0.8,0.7,1.4,1.2c0.6,0.5,1,1.1,1.2,1.6l1.5-1.9L39.1,45.2z M39.9,43.4l0.5-0.5l3.5,1l-1.3-3.3L43,40
	l1.6,4.2c0.2,0.5,0.3,0.9,0.3,1.1c0,0.2-0.1,0.4-0.3,0.7c-0.1,0.1-0.3,0.3-0.5,0.4L43.7,46c0.2-0.1,0.4-0.2,0.5-0.3
	c0.1-0.1,0.2-0.3,0.2-0.4c0-0.2-0.1-0.4-0.3-0.8L39.9,43.4z M46.6,44l-1.9-5.3l0.6-0.5l5.1,2.5l-0.6,0.5l-1.5-0.8L46.5,42l0.6,1.6
	L46.6,44z M46.3,41.4l1.3-1.2l-1.4-0.7c-0.4-0.2-0.7-0.4-1-0.6c0.2,0.3,0.3,0.6,0.4,0.9L46.3,41.4z M48.4,35.8l2.7-1.8l2.9,4.4
	l-0.6,0.4l-2.5-3.9l-1.6,1l1.5,2.3c0.3,0.5,0.5,0.8,0.6,1.1c0.1,0.2,0.1,0.5,0.1,0.7c-0.1,0.2-0.2,0.4-0.4,0.5
	c-0.1,0.1-0.3,0.2-0.5,0.2l-0.2-0.6c0.1,0,0.2,0,0.3-0.1c0.1-0.1,0.2-0.2,0.2-0.3c0-0.1-0.1-0.4-0.4-0.8L48.4,35.8z M52.5,33.2
	l0.6-0.3l1,2l1.1-0.6c0.5-0.3,0.9-0.4,1.2-0.4c0.3,0,0.5,0.1,0.8,0.2c0.2,0.2,0.4,0.3,0.5,0.6c0.2,0.4,0.2,0.7,0.1,1.1
	c-0.1,0.4-0.5,0.8-1.1,1.1L55,37.8L52.5,33.2z M55.3,37l1.1-0.6c0.5-0.2,0.7-0.5,0.8-0.7c0.1-0.2,0-0.5-0.1-0.7
	c-0.1-0.2-0.2-0.3-0.4-0.4c-0.2-0.1-0.3-0.1-0.5,0c-0.2,0.1-0.5,0.2-0.9,0.4l-0.8,0.4L55.3,37z M59.3,35.7l-2-4.9l0.6-0.3l0.8,2
	l2.5-1l-0.8-2l0.6-0.3l2,4.9l-0.6,0.3l-0.9-2.3l-2.5,1l0.9,2.3L59.3,35.7z M63,28.6l0.7-0.2l0.5,2.2l1.2-0.3
	c0.8-0.2,1.4-0.2,1.7,0.1c0.3,0.2,0.5,0.5,0.6,0.9c0.1,0.4,0,0.8-0.2,1.1c-0.2,0.4-0.7,0.6-1.4,0.8l-1.9,0.4L63,28.6z M64.8,33
	l1.2-0.3c0.4-0.1,0.7-0.2,0.9-0.4c0.2-0.2,0.2-0.4,0.1-0.8c0-0.2-0.1-0.4-0.3-0.5c-0.1-0.1-0.3-0.2-0.5-0.2c-0.2,0-0.5,0.1-0.9,0.2
	l-0.9,0.2L64.8,33z M67.5,27.6l0.7-0.2l1.2,5.1l-0.7,0.2L67.5,27.6z M69.8,27.1l0.6-0.1l0.6,4.1l2.2-4.5l0.7-0.1l0.7,5.2L74,31.9
	l-0.6-4.1l-2.2,4.5l-0.7,0.1L69.8,27.1z M72.2,25.5l0.4-0.1c0,0.3-0.1,0.5-0.2,0.7c-0.2,0.2-0.4,0.3-0.7,0.3c-0.3,0-0.6,0-0.8-0.1
	c-0.2-0.1-0.3-0.4-0.4-0.6l0.4-0.1c0.1,0.2,0.1,0.3,0.2,0.3c0.1,0.1,0.2,0.1,0.4,0.1c0.2,0,0.3-0.1,0.4-0.2
	C72.2,25.9,72.2,25.7,72.2,25.5z M77.9,26.5l4.1,0.1l-0.1,5.2l-0.7,0l0.1-4.6l-2.7,0l-0.1,4.6l-0.7,0L77.9,26.5z M83,32l0.7-5.2
	l2,0.3c0.3,0,0.6,0.1,0.8,0.2c0.2,0.1,0.5,0.2,0.6,0.3c0.2,0.1,0.3,0.3,0.3,0.6c0.1,0.2,0.1,0.5,0.1,0.7c-0.1,0.4-0.3,0.8-0.6,1.1
	c-0.3,0.3-0.9,0.4-1.6,0.3L84,30l-0.3,2.1L83,32z M84.1,29.4l1.3,0.2c0.4,0.1,0.8,0,1-0.1c0.2-0.1,0.3-0.4,0.4-0.7
	c0-0.2,0-0.4-0.1-0.6c-0.1-0.2-0.2-0.3-0.4-0.4c-0.1,0-0.3-0.1-0.6-0.1l-1.3-0.2L84.1,29.4z M87.9,32.7l1.5-5l3.6,1.1l-0.2,0.6
	l-3-0.9L89.4,30l2.8,0.8L92,31.4l-2.8-0.8l-0.5,1.7l3.1,0.9l-0.2,0.6L87.9,32.7z M94.9,29.4l3,1.1l-1.7,4.3l0.4,0.2L96,36.7
	l-0.6-0.2l0.4-1.1l-3.2-1.2l-0.4,1.1L91.6,35l0.7-1.7l0.4,0.1c0.6-0.4,1.3-1.6,2-3.4L94.9,29.4z M97,30.8l-1.7-0.7l-0.1,0.3
	c-0.2,0.4-0.4,1-0.8,1.7c-0.4,0.7-0.7,1.2-1.1,1.6l2.3,0.9L97,30.8z M99.6,31.3l3.7,1.9l-2.4,4.7l-0.6-0.3l2.1-4.1l-2.4-1.3
	l-2.1,4.1l-0.6-0.3L99.6,31.3z M101.8,38.4l2.8-4.4l1.7,1.1c0.3,0.2,0.5,0.3,0.6,0.5c0.2,0.2,0.3,0.4,0.4,0.6
	c0.1,0.2,0.1,0.4,0.1,0.7c0,0.2-0.1,0.5-0.2,0.7c-0.2,0.4-0.6,0.6-1,0.7c-0.4,0.1-0.9,0-1.5-0.4l-1.1-0.7l-1.1,1.8L101.8,38.4z
	 M103.9,36.4l1.1,0.7c0.4,0.2,0.7,0.3,0.9,0.3c0.2,0,0.5-0.2,0.6-0.4c0.1-0.2,0.2-0.4,0.2-0.6c0-0.2-0.1-0.4-0.2-0.5
	c-0.1-0.1-0.3-0.2-0.5-0.4l-1.1-0.7L103.9,36.4z M109.4,37.1l0.5,0.4l-2.7,3.1l4.8-1.3l0.5,0.4l-3.4,4l-0.5-0.4l2.7-3.1l-4.8,1.3
	l-0.5-0.5L109.4,37.1z M109.9,44.6l3.8-3.6l0.5,0.5l-1.6,1.5l1.9,2l1.6-1.5l0.5,0.5l-3.8,3.6l-0.5-0.5l1.8-1.7l-1.9-2l-1.8,1.7
	L109.9,44.6z M117.6,45.2l0.4,0.5l-3.3,2.6l5-0.4l0.4,0.5l-4.1,3.2l-0.4-0.5l3.3-2.6l-5,0.4l-0.4-0.5L117.6,45.2z M116.7,52.6
	l4.6-2.6l0.5,0.9l-2.6,2.9c-0.2,0.3-0.4,0.5-0.6,0.6c0.2,0,0.5-0.1,0.9-0.2l3.8-0.7l0.5,0.8l-4.6,2.6l-0.3-0.6l3.8-2.2l-4.6,0.8
	l-0.3-0.5l3.1-3.5l-3.9,2.2L116.7,52.6z M119.4,57.4l5.6-0.3l0.3,0.7l-3.9,4.1l-0.3-0.7l1.2-1.2l-0.9-2l-1.7,0.1L119.4,57.4z
	 M122,57.9l0.7,1.6l1.1-1.1c0.3-0.3,0.6-0.6,0.8-0.8c-0.3,0.1-0.7,0.1-1,0.2L122,57.9z M121.7,63.2l4.4-1.4l-0.5-1.6l0.6-0.2l1.3,4
	l-0.6,0.2l-0.5-1.6l-4.4,1.4L121.7,63.2z M122.7,66.2l5.1-1.2l0.9,3.7l-0.6,0.1l-0.7-3l-1.6,0.4l0.7,2.8l-0.6,0.1l-0.7-2.8l-1.7,0.4
	l0.7,3.1l-0.6,0.1L122.7,66.2z M128.9,70.7l0.4,3.2l-5.2,0.7l-0.1-0.7l4.6-0.6l-0.3-1.9l-2.7,0.4c-0.5,0.1-0.9,0.1-1.2,0.1
	c-0.3,0-0.5-0.1-0.6-0.2c-0.2-0.1-0.3-0.3-0.3-0.6c0-0.2,0-0.3,0-0.6l0.6,0c0,0.1-0.1,0.2,0,0.3c0,0.2,0.1,0.3,0.2,0.3
	c0.1,0.1,0.4,0.1,0.8,0L128.9,70.7z M129.4,75.7l0,0.7l-2.2,0l0,1.2c0,0.6-0.1,1-0.2,1.3c-0.1,0.3-0.3,0.5-0.5,0.6
	c-0.2,0.1-0.5,0.2-0.7,0.2c-0.4,0-0.8-0.1-1.1-0.4c-0.3-0.3-0.5-0.8-0.5-1.5l0-2L129.4,75.7z M124.7,76.5l0,1.3c0,0.5,0.1,0.8,0.3,1
	c0.2,0.2,0.4,0.2,0.7,0.2c0.2,0,0.4-0.1,0.5-0.2c0.1-0.1,0.2-0.3,0.3-0.5c0-0.2,0.1-0.5,0-1l0-0.9L124.7,76.5z"/>
<path id="path30" class="st2" d="M27.5,87.9l4.4-1l0.4,1.7c0.1,0.3,0.1,0.5,0.1,0.7c0,0.2,0,0.4-0.1,0.6c-0.1,0.2-0.2,0.3-0.3,0.4
	c-0.2,0.1-0.3,0.2-0.6,0.3c-0.4,0.1-0.7,0-1-0.1c-0.3-0.2-0.5-0.6-0.7-1.2l-0.3-1.1l-1.8,0.4L27.5,87.9z M29.9,87.9l0.3,1.1
	c0.1,0.4,0.2,0.6,0.4,0.7c0.2,0.1,0.4,0.2,0.6,0.1c0.2,0,0.3-0.1,0.4-0.2c0.1-0.1,0.2-0.3,0.2-0.4c0-0.1,0-0.3-0.1-0.5l-0.3-1.1
	L29.9,87.9z M30.4,91c0.7-0.2,1.3-0.2,1.9,0c0.5,0.2,0.9,0.7,1.1,1.3c0.1,0.4,0.2,0.8,0.1,1.2c-0.1,0.4-0.3,0.7-0.5,1
	c-0.3,0.3-0.6,0.5-1.1,0.6c-0.4,0.1-0.8,0.2-1.2,0.1c-0.4-0.1-0.7-0.2-1-0.5c-0.3-0.3-0.5-0.6-0.6-0.9c-0.1-0.4-0.2-0.8-0.1-1.2
	c0.1-0.4,0.3-0.7,0.6-1C29.7,91.3,30,91.1,30.4,91z M30.6,91.6c-0.5,0.2-0.9,0.4-1.1,0.8c-0.2,0.4-0.2,0.8-0.1,1.2
	c0.1,0.4,0.4,0.7,0.8,0.9c0.4,0.2,0.9,0.2,1.4,0c0.3-0.1,0.6-0.3,0.8-0.5c0.2-0.2,0.4-0.4,0.4-0.7c0.1-0.3,0.1-0.6,0-0.8
	c-0.1-0.4-0.4-0.7-0.8-0.9C31.7,91.4,31.2,91.4,30.6,91.6z M32.7,98.8l0.1,0.6c-0.5,0.1-0.9,0-1.3-0.2c-0.4-0.2-0.6-0.5-0.8-0.9
	c-0.2-0.4-0.3-0.8-0.2-1.2c0.1-0.4,0.2-0.7,0.5-1c0.3-0.3,0.6-0.5,1-0.7c0.4-0.2,0.8-0.3,1.2-0.3c0.4,0,0.7,0.1,1,0.4
	c0.3,0.2,0.5,0.5,0.7,0.9c0.2,0.4,0.2,0.8,0.2,1.2c-0.1,0.4-0.3,0.7-0.6,1L34,98.1c0.3-0.2,0.4-0.5,0.5-0.7c0.1-0.2,0-0.5-0.1-0.8
	c-0.1-0.3-0.3-0.5-0.6-0.7c-0.2-0.1-0.5-0.2-0.8-0.2c-0.3,0-0.6,0.1-0.8,0.2c-0.3,0.2-0.6,0.3-0.8,0.6C31.1,96.7,31,97,31,97.3
	c0,0.3,0,0.5,0.1,0.8c0.1,0.3,0.3,0.5,0.6,0.6C32,98.8,32.3,98.8,32.7,98.8z M34.7,102.7l0.1,0.6c-0.5,0.1-0.9,0.1-1.3-0.1
	c-0.4-0.2-0.7-0.5-0.9-0.9c-0.2-0.4-0.3-0.8-0.3-1.2c0-0.4,0.2-0.7,0.4-1c0.3-0.3,0.6-0.6,1-0.8c0.4-0.2,0.8-0.3,1.2-0.3
	c0.4,0,0.7,0.1,1.1,0.3c0.3,0.2,0.6,0.5,0.7,0.8c0.2,0.4,0.3,0.8,0.2,1.2c-0.1,0.4-0.2,0.7-0.6,1l-0.4-0.5c0.2-0.2,0.4-0.5,0.4-0.7
	c0-0.2,0-0.5-0.1-0.8c-0.2-0.3-0.4-0.5-0.6-0.7c-0.3-0.1-0.5-0.2-0.8-0.1c-0.3,0-0.6,0.1-0.8,0.3c-0.3,0.2-0.6,0.4-0.8,0.6
	c-0.2,0.2-0.3,0.5-0.3,0.8c0,0.3,0,0.5,0.2,0.8c0.2,0.3,0.4,0.5,0.6,0.6C34,102.8,34.3,102.8,34.7,102.7z M37.8,102.2l0.3,0.5
	l-3,1.9l4.3,0.1l0.3,0.5l-3.8,2.4l-0.3-0.5l3-1.9l-4.3-0.1l-0.3-0.5L37.8,102.2z M40,105.6l0.3,0.4l-2.8,2.2l4.3-0.3l0.4,0.5
	l-3.5,2.8l-0.3-0.4l2.8-2.2l-4.3,0.3l-0.4-0.5L40,105.6z M42.2,106.7l0.2,0.3c-0.2,0.1-0.4,0.2-0.6,0.1c-0.2,0-0.4-0.2-0.5-0.4
	c-0.2-0.2-0.2-0.4-0.2-0.6c0-0.2,0.1-0.4,0.3-0.6l0.2,0.3c-0.1,0.1-0.1,0.2-0.1,0.3c0,0.1,0,0.2,0.1,0.3c0.1,0.1,0.2,0.2,0.3,0.2
	C42,106.8,42.1,106.8,42.2,106.7z M42.6,113.1l0.3,0.5c-0.4,0.2-0.9,0.3-1.3,0.3c-0.4-0.1-0.8-0.3-1.1-0.6c-0.3-0.3-0.5-0.7-0.6-1.1
	c-0.1-0.4,0-0.7,0.1-1.1c0.2-0.4,0.4-0.7,0.7-1c0.3-0.3,0.7-0.5,1.1-0.7c0.4-0.1,0.7-0.1,1.1,0c0.4,0.1,0.7,0.3,0.9,0.6
	c0.3,0.3,0.5,0.7,0.5,1.1c0,0.4,0,0.8-0.3,1.1l-0.5-0.3c0.2-0.3,0.2-0.6,0.2-0.8c0-0.2-0.1-0.5-0.4-0.7c-0.2-0.2-0.5-0.4-0.8-0.5
	c-0.3-0.1-0.6,0-0.8,0.1c-0.3,0.1-0.5,0.3-0.7,0.5c-0.3,0.3-0.5,0.5-0.6,0.8c-0.1,0.3-0.2,0.5-0.1,0.8c0.1,0.3,0.2,0.5,0.4,0.7
	c0.2,0.2,0.5,0.4,0.8,0.4C42,113.4,42.3,113.3,42.6,113.1L42.6,113.1z M45.3,111.8l0.5,0.4l-1.3,1.5c0.2,0.2,0.4,0.3,0.5,0.3
	c0.2,0,0.4-0.1,0.8-0.3c0.3-0.1,0.5-0.2,0.6-0.3c0.1,0,0.3,0,0.5,0c0.2,0,0.3,0.1,0.5,0.2c0.2,0.2,0.3,0.2,0.3,0.2l-0.3,0.4
	c0,0,0,0-0.1-0.1c0,0-0.1-0.1-0.1-0.1c-0.1-0.1-0.3-0.2-0.4-0.2c-0.1,0-0.3,0.1-0.6,0.2c-0.4,0.2-0.6,0.3-0.8,0.3
	c-0.1,0-0.3,0-0.4-0.1c0.2,0.2,0.2,0.6,0.1,1.2l-0.3,1.7l-0.6-0.5l0.2-1.4c0.1-0.4,0.1-0.7,0.1-0.9c0-0.2-0.1-0.4-0.3-0.5l-1.4,1.6
	l-0.5-0.4L45.3,111.8z M44.8,117.2l4.1-2.5l0.5,0.4l-1.4,4.7l-0.5-0.4L48,118l-1.5-1.2l-1.2,0.8L44.8,117.2z M46.9,116.6l1.2,1
	l0.4-1.3c0.1-0.4,0.2-0.7,0.3-0.9c-0.2,0.2-0.5,0.4-0.7,0.5L46.9,116.6z M51.7,122.2l2.4-3.8l-1.7-1.1c-0.3-0.2-0.6-0.3-0.8-0.4
	c-0.2,0-0.4,0-0.7,0.1c-0.2,0.1-0.4,0.3-0.5,0.5c-0.2,0.3-0.2,0.5-0.2,0.8c0.1,0.3,0.2,0.6,0.6,0.9c-0.2,0-0.3,0-0.4,0
	c-0.2,0-0.5,0.1-0.7,0.2l-1.3,0.6l0.6,0.4l1-0.5c0.3-0.1,0.5-0.2,0.7-0.3c0.2-0.1,0.3-0.1,0.4-0.1c0.1,0,0.2,0,0.3,0
	c0.1,0,0.2,0.1,0.3,0.2l0.6,0.4l-1.1,1.7L51.7,122.2z M52.6,119.8l-1.1-0.7c-0.2-0.1-0.4-0.3-0.5-0.4c-0.1-0.1-0.1-0.3-0.1-0.4
	c0-0.1,0-0.3,0.1-0.4c0.1-0.2,0.3-0.3,0.5-0.3c0.2,0,0.4,0,0.7,0.2l1.2,0.8L52.6,119.8z M57.2,120.6l0.2-0.5l0.5,0.2l-0.2,0.5
	c0.5,0.3,0.8,0.6,1,1c0.2,0.4,0.2,0.8,0,1.3c-0.2,0.4-0.5,0.7-0.9,0.9c-0.4,0.2-0.9,0.1-1.5-0.1l-0.2,0.5l-0.5-0.2l0.2-0.5
	c-0.5-0.2-0.8-0.6-1-1c-0.2-0.4-0.2-0.9,0-1.3c0.2-0.5,0.5-0.7,1-0.9C56.2,120.4,56.7,120.4,57.2,120.6L57.2,120.6z M57.5,121.3
	l-1,2.2c0.4,0.1,0.7,0.2,1,0.1c0.3-0.1,0.5-0.3,0.7-0.6c0.1-0.3,0.2-0.6,0.1-0.9C58.1,121.8,57.8,121.5,57.5,121.3z M57,121.1
	c-0.3-0.1-0.7-0.2-1-0.1c-0.3,0.1-0.5,0.3-0.7,0.6c-0.1,0.3-0.2,0.6,0,0.9c0.1,0.3,0.3,0.5,0.7,0.7L57,121.1z M58.4,125.5l1.6-4.2
	l3,1.2l-0.2,0.5l-2.5-1l-0.5,1.3l2.3,0.9l-0.2,0.5l-2.3-0.9l-0.6,1.4l2.6,1l-0.2,0.5L58.4,125.5z M64,122.8l2.6,0.8l-1.1,3.8
	l0.4,0.1l-0.4,1.5l-0.5-0.1l0.3-1l-2.9-0.8l-0.3,1l-0.5-0.1l0.4-1.5l0.3,0.1c0.5-0.4,1-1.4,1.4-3L64,122.8z M65.9,123.9l-1.5-0.4
	l-0.1,0.2c-0.1,0.4-0.3,0.9-0.5,1.5c-0.2,0.6-0.5,1.1-0.8,1.5l2,0.6L65.9,123.9z M66.5,128.1l0.8-4.4l3.2,0.6l-0.1,0.5l-2.6-0.5
	l-0.2,1.4l2.4,0.4l-0.1,0.5l-2.4-0.4l-0.3,1.5l2.7,0.5l-0.1,0.5L66.5,128.1z M70.6,128.8l0.6-4.5l1.7,0.2c0.3,0,0.5,0.1,0.7,0.1
	c0.2,0.1,0.4,0.2,0.5,0.3c0.1,0.1,0.2,0.3,0.3,0.5c0.1,0.2,0.1,0.4,0.1,0.6c0,0.4-0.2,0.7-0.5,0.9c-0.3,0.2-0.7,0.3-1.4,0.2
	l-1.1-0.1l-0.2,1.8L70.6,128.8z M71.5,126.6l1.2,0.2c0.4,0,0.7,0,0.8-0.1c0.2-0.1,0.3-0.3,0.3-0.6c0-0.2,0-0.4-0.1-0.5
	c-0.1-0.1-0.2-0.2-0.3-0.3c-0.1,0-0.3-0.1-0.5-0.1l-1.1-0.1L71.5,126.6z M73.8,129.3l1.8-4.5l0.7,0l1.7,4.5l-0.7,0l-0.5-1.4l-1.9,0
	l-0.5,1.4L73.8,129.3z M75.2,127.5l1.5,0l-0.4-1.3c-0.1-0.4-0.2-0.7-0.3-0.9c-0.1,0.3-0.2,0.6-0.3,0.9L75.2,127.5z M78.4,124.9
	l0.6,0l0.1,4l2.3-0.1l-0.1-4l0.6,0l0.1,4l0.4,0l0,1.8l-0.5,0l0-1.2l-3.4,0.1L78.4,124.9z M82.6,124.7l0.5-0.1l0.5,3.5l1.9-3.8
	l0.6-0.1l0.6,4.5l-0.5,0.1l-0.5-3.5l-1.9,3.8l-0.6,0.1L82.6,124.7z M91.1,127.7l-1-4.4l-1.9,0.4c-0.4,0.1-0.7,0.2-0.9,0.3
	c-0.2,0.1-0.3,0.3-0.4,0.5c-0.1,0.2-0.1,0.5,0,0.7c0.1,0.3,0.2,0.5,0.5,0.7c0.2,0.2,0.6,0.2,1,0.2c-0.1,0.1-0.2,0.2-0.3,0.3
	c-0.1,0.2-0.2,0.4-0.3,0.7l-0.5,1.4l0.7-0.2l0.4-1c0.1-0.3,0.2-0.5,0.3-0.7c0.1-0.2,0.2-0.3,0.2-0.4c0.1-0.1,0.2-0.1,0.2-0.2
	c0.1,0,0.2-0.1,0.3-0.1l0.7-0.2l0.4,1.9L91.1,127.7z M89.9,125.4l-1.2,0.3c-0.3,0.1-0.5,0.1-0.6,0.1c-0.2,0-0.3-0.1-0.4-0.2
	c-0.1-0.1-0.2-0.2-0.2-0.4c0-0.2,0-0.4,0.1-0.6c0.1-0.2,0.3-0.3,0.7-0.4l1.4-0.3L89.9,125.4z M92.3,122.6l2.8-0.9l0.2,0.5L93,123
	l1.2,3.8l-0.6,0.2L92.3,122.6z M95.5,124c-0.3-0.7-0.4-1.3-0.2-1.8c0.2-0.5,0.6-1,1.2-1.2c0.4-0.2,0.8-0.2,1.1-0.2
	c0.4,0,0.7,0.2,1,0.4c0.3,0.2,0.6,0.6,0.7,1c0.2,0.4,0.3,0.8,0.3,1.2c0,0.4-0.1,0.8-0.4,1.1c-0.2,0.3-0.5,0.5-0.9,0.7
	c-0.4,0.2-0.8,0.2-1.2,0.2c-0.4,0-0.7-0.2-1-0.4C95.9,124.7,95.7,124.4,95.5,124z M96.1,123.8c0.2,0.5,0.5,0.8,0.9,1
	c0.4,0.2,0.8,0.2,1.2,0c0.4-0.2,0.7-0.5,0.8-0.9c0.1-0.4,0.1-0.9-0.2-1.4c-0.2-0.3-0.3-0.6-0.6-0.8c-0.2-0.2-0.5-0.3-0.8-0.4
	c-0.3,0-0.6,0-0.8,0.1c-0.4,0.2-0.7,0.5-0.8,0.8C95.7,122.7,95.8,123.2,96.1,123.8L96.1,123.8z M101,123.9l-2.1-4l1.5-0.8
	c0.3-0.1,0.5-0.2,0.6-0.3c0.2-0.1,0.4-0.1,0.6-0.1c0.2,0,0.4,0.1,0.5,0.2c0.2,0.1,0.3,0.3,0.4,0.5c0.2,0.3,0.2,0.7,0.1,1
	c-0.1,0.3-0.4,0.7-1,1l-1,0.5l0.8,1.6L101,123.9z M100.4,121.5l1-0.5c0.3-0.2,0.5-0.4,0.6-0.6c0.1-0.2,0.1-0.4-0.1-0.6
	c-0.1-0.2-0.2-0.3-0.3-0.4c-0.1-0.1-0.3-0.1-0.5-0.1c-0.1,0-0.3,0.1-0.5,0.2l-1,0.5L100.4,121.5z M103.2,120.2
	c-0.4-0.6-0.5-1.2-0.4-1.8c0.1-0.6,0.4-1,1-1.4c0.4-0.2,0.7-0.3,1.1-0.4c0.4,0,0.7,0.1,1.1,0.3c0.3,0.2,0.6,0.5,0.9,0.9
	c0.2,0.4,0.4,0.8,0.4,1.2c0,0.4,0,0.8-0.2,1.1c-0.2,0.3-0.4,0.6-0.8,0.8c-0.4,0.2-0.7,0.3-1.1,0.4c-0.4,0-0.8-0.1-1.1-0.3
	C103.7,120.8,103.4,120.5,103.2,120.2L103.2,120.2z M103.7,119.9c0.3,0.5,0.6,0.7,1.1,0.8c0.4,0.1,0.8,0,1.2-0.2
	c0.4-0.2,0.6-0.6,0.7-1c0.1-0.4,0-0.9-0.4-1.4c-0.2-0.3-0.4-0.5-0.7-0.7c-0.2-0.2-0.5-0.2-0.8-0.2c-0.3,0-0.5,0.1-0.8,0.2
	c-0.4,0.2-0.6,0.5-0.7,0.9C103.2,118.8,103.4,119.3,103.7,119.9z M106,115.5l2.2-1.7l2.4,3.1l0.3-0.2l1,1.2l-0.4,0.3l-0.6-0.8
	l-2.3,1.8l0.6,0.8l-0.4,0.3l-1-1.2l0.3-0.2c-0.1-0.7-0.6-1.6-1.6-2.9L106,115.5z M108,114.6l-1.2,1l0.1,0.2c0.2,0.3,0.5,0.7,0.9,1.3
	c0.4,0.6,0.6,1.1,0.7,1.5l1.6-1.3L108,114.6z M113.1,115.5l-3.1-3.2l1.2-1.2c0.2-0.2,0.5-0.4,0.7-0.5c0.2-0.1,0.4-0.1,0.6,0
	c0.2,0.1,0.4,0.2,0.5,0.3c0.1,0.1,0.2,0.3,0.3,0.5c0,0.2,0,0.4-0.1,0.6c0.3-0.1,0.5-0.2,0.7-0.1c0.2,0,0.4,0.2,0.6,0.3
	c0.1,0.2,0.2,0.3,0.3,0.5c0.1,0.2,0.1,0.4,0.1,0.5c0,0.2-0.1,0.3-0.2,0.5c-0.1,0.2-0.3,0.4-0.5,0.6L113.1,115.5z M111.7,113.2
	l0.7-0.7c0.2-0.2,0.3-0.3,0.4-0.4c0.1-0.1,0.1-0.3,0.1-0.4s-0.1-0.2-0.2-0.4c-0.1-0.1-0.2-0.2-0.4-0.2c-0.1,0-0.3,0-0.4,0
	c-0.1,0.1-0.3,0.2-0.5,0.4l-0.6,0.6L111.7,113.2z M113.1,114.7l0.8-0.8c0.1-0.1,0.2-0.2,0.3-0.3c0.1-0.1,0.1-0.2,0.2-0.3
	c0-0.1,0-0.2,0-0.3c0-0.1-0.1-0.2-0.2-0.3c-0.1-0.1-0.2-0.2-0.4-0.2c-0.1,0-0.3,0-0.4,0.1c-0.1,0.1-0.3,0.2-0.5,0.4l-0.8,0.7
	L113.1,114.7z M112.8,109.4l1.8-2.1l3.4,3l-0.4,0.4l-3-2.6l-1.1,1.2l1.7,1.5c0.4,0.3,0.6,0.6,0.7,0.7c0.1,0.2,0.2,0.4,0.2,0.5
	c0,0.2-0.1,0.4-0.2,0.5c-0.1,0.1-0.2,0.2-0.4,0.3l-0.3-0.4c0.1,0,0.2-0.1,0.2-0.1c0.1-0.1,0.1-0.2,0.1-0.3c0-0.1-0.2-0.3-0.5-0.5
	L112.8,109.4z M118.4,109.8l-2.7-4l0.4-0.5l4.7,1.1l-0.4,0.6l-1.4-0.4l-1.1,1.5l0.8,1.2L118.4,109.8z M117.6,107.7l0.9-1.2l-1.3-0.3
	c-0.4-0.1-0.7-0.2-1-0.3c0.2,0.2,0.4,0.5,0.6,0.7L117.6,107.7z M117.5,103.3l1.3-2.4l3.5,2l0.2-0.3l1.4,0.8l-0.3,0.5l-0.9-0.5
	l-1.5,2.6l0.9,0.5l-0.3,0.5l-1.4-0.8l0.2-0.3c-0.3-0.6-1.2-1.3-2.6-2.1L117.5,103.3z M119,101.7l-0.8,1.4l0.2,0.1
	c0.3,0.2,0.8,0.5,1.3,0.9c0.5,0.4,1,0.8,1.2,1.2l1-1.8L119,101.7z M119.3,100.1l0.2-0.5l3.2,1.6l-2.1-3.8l0.3-0.5l4,2.1l-0.2,0.5
	l-3.2-1.6l2.1,3.7l-0.3,0.5L119.3,100.1z M125.3,98.1l-4.2-1.6l0.3-0.8l3.3,0.2c0.3,0,0.5,0,0.7,0c-0.1-0.1-0.3-0.3-0.6-0.5
	l-2.5-2.1l0.3-0.7l4.2,1.6l-0.2,0.5l-3.5-1.4l3,2.6l-0.2,0.5l-4-0.2l3.6,1.4L125.3,98.1z M122.8,91.9l0.1-0.5l3.4,1l-2.8-3.3
	l0.2-0.6l4.3,1.2l-0.1,0.5l-3.4-1l2.8,3.3l-0.2,0.6L122.8,91.9z M128.2,88.8l-4.4-0.8l0.3-1.7c0.1-0.3,0.1-0.5,0.2-0.7
	c0.1-0.2,0.2-0.4,0.3-0.5c0.1-0.1,0.3-0.2,0.5-0.3c0.2-0.1,0.4-0.1,0.6,0c0.4,0.1,0.7,0.2,0.9,0.5c0.2,0.3,0.3,0.7,0.2,1.4l-0.2,1.1
	l1.8,0.3L128.2,88.8z M126,87.8l0.2-1.1c0.1-0.4,0-0.7-0.1-0.8c-0.1-0.2-0.3-0.3-0.6-0.3c-0.2,0-0.4,0-0.5,0.1
	c-0.1,0.1-0.3,0.2-0.3,0.3c0,0.1-0.1,0.3-0.1,0.5l-0.2,1.1L126,87.8z"/>
</svg>
