<?xml version="1.0" encoding="utf-8"?>
<!-- Generator: Adobe Illustrator 26.4.1, SVG Export Plug-In . SVG Version: 6.00 Build 0)  -->
<svg version="1.1"
	 id="svg29" xmlns:svg="http://www.w3.org/2000/svg" xmlns:rdf="http://www.w3.org/1999/02/22-rdf-syntax-ns#" xmlns:cc="http://creativecommons.org/ns#" xmlns:dc="http://purl.org/dc/elements/1.1/"
	 xmlns="http://www.w3.org/2000/svg" xmlns:xlink="http://www.w3.org/1999/xlink" x="0px" y="0px" viewBox="0 0 155.9 155.9"
	 style="enable-background:new 0 0 155.9 155.9;" xml:space="preserve">
<style type="text/css">
	.st0{fill:none;stroke:#1B1918;stroke-width:1.4173;}
	.st1{fill:none;stroke:#1B1918;stroke-width:0.5669;}
	.st2{fill-rule:evenodd;clip-rule:evenodd;fill:#1B1918;}
</style>
<path id="path6" class="st0" d="M78,25.1c29.2,0,52.9,23.7,52.9,52.9c0,29.2-23.7,52.9-52.9,52.9c-29.2,0-52.9-23.7-52.9-52.9
	C25.1,48.8,48.8,25.1,78,25.1z"/>
<path id="path8" class="st1" d="M78.2,44.9c18.4,0,33.3,14.9,33.3,33.3s-14.9,33.3-33.3,33.3c-18.4,0-33.3-14.9-33.3-33.3
	S59.8,44.9,78.2,44.9z"/>
<path id="path10" class="st1" d="M78,26.6c28.3,0,51.3,23,51.3,51.3c0,28.3-23,51.3-51.3,51.3c-28.3,0-51.3-23-51.3-51.3
	C26.6,49.6,49.6,26.6,78,26.6z"/>
<path id="path12" class="st2" d="M29,79.5l0-0.6l3.9,0.1l-3.8-2.7l0-0.6l4.9,0.2l0,0.6l-3.9-0.1L34,79l0,0.6L29,79.5z M34.2,74.7
	l-4.9-0.6l0.1-0.6l2,0.2l0.3-2.5l-2-0.2l0.1-0.6l4.9,0.6l-0.1,0.6l-2.3-0.3l-0.3,2.5l2.3,0.3L34.2,74.7z M30.1,68.2l0.7-2.8l4.2,1
	l0.1-0.4l1.7,0.4l-0.1,0.5l-1.1-0.3l-0.7,3.1l1.1,0.3l-0.1,0.5l-1.7-0.4l0.1-0.4c-0.5-0.5-1.6-1-3.4-1.4L30.1,68.2z M31.2,66.1
	l-0.4,1.6l0.2,0.1c0.4,0.1,1,0.3,1.6,0.5c0.7,0.2,1.2,0.5,1.7,0.8l0.5-2.1L31.2,66.1z M31.3,63.5l0.2-0.5l3.7,1.3l-2.9-3.7l0.2-0.6
	l4.7,1.6L37,62.1l-3.7-1.3l2.9,3.7L36,65.1L31.3,63.5z M37.7,60.5l-4.4-2.2l0.8-1.6c0.2-0.3,0.3-0.6,0.5-0.7
	c0.2-0.1,0.4-0.2,0.6-0.3c0.2,0,0.5,0,0.7,0.1c0.2,0.1,0.4,0.2,0.5,0.4c0.1,0.2,0.2,0.4,0.2,0.6c0.2-0.2,0.4-0.3,0.7-0.4
	c0.3,0,0.5,0,0.8,0.1c0.3,0.1,0.5,0.3,0.6,0.5c0.1,0.2,0.2,0.5,0.2,0.7c0,0.3-0.1,0.6-0.3,1L37.7,60.5z M35.4,58.6l0.5-0.9
	c0.1-0.2,0.2-0.4,0.2-0.5c0-0.2,0-0.3,0-0.4c-0.1-0.1-0.2-0.2-0.3-0.3c-0.2-0.1-0.3-0.1-0.5-0.1c-0.1,0-0.3,0.1-0.4,0.2
	c-0.1,0.1-0.2,0.3-0.4,0.6L34.1,58L35.4,58.6z M37.5,59.6l0.5-1.1c0.1-0.2,0.2-0.4,0.2-0.5c0-0.2,0-0.4-0.1-0.5
	c-0.1-0.1-0.2-0.3-0.4-0.4c-0.2-0.1-0.3-0.1-0.5-0.1c-0.2,0-0.3,0.1-0.4,0.2c-0.1,0.1-0.3,0.3-0.4,0.6l-0.5,1L37.5,59.6z M35.6,53.6
	l0.3-0.5l3.3,2.2L37.3,51l0.3-0.5l4.1,2.7l-0.3,0.5l-3.3-2.2l1.9,4.3l-0.3,0.5L35.6,53.6z M38.9,48.8l1.8-2.3l3.5,2.7l0.3-0.3
	l1.4,1.1l-0.3,0.4l-0.9-0.7l-1.9,2.5l0.9,0.7l-0.3,0.4l-1.4-1.1l0.2-0.3c-0.2-0.7-1.1-1.6-2.5-2.7L38.9,48.8z M40.7,47.3l-1,1.3
	l0.2,0.2c0.3,0.3,0.8,0.6,1.3,1.1c0.5,0.5,0.9,1,1.2,1.5l1.3-1.7L40.7,47.3z M41.6,45.4l0.4-0.5l3.3,1l-1.2-3.1l0.4-0.5l1.5,4
	c0.2,0.5,0.3,0.9,0.3,1.1c0,0.2-0.1,0.4-0.3,0.6c-0.1,0.1-0.3,0.2-0.5,0.4L45.2,48c0.2-0.1,0.3-0.1,0.5-0.3c0.1-0.1,0.2-0.2,0.2-0.4
	c0-0.2-0.1-0.4-0.2-0.8L41.6,45.4z M48.3,45.7l-1.8-5l0.5-0.4l4.7,2.5l-0.5,0.5l-1.4-0.8l-1.5,1.3l0.6,1.5L48.3,45.7z M48,43.3
	l1.2-1.1L48,41.5c-0.4-0.2-0.7-0.4-0.9-0.6c0.2,0.3,0.3,0.6,0.4,0.9L48,43.3z M49.9,38l2.5-1.6l2.6,4.2l-0.5,0.3l-2.3-3.7l-1.5,0.9
	l1.4,2.2c0.3,0.4,0.5,0.8,0.5,1c0.1,0.2,0.1,0.4,0.1,0.6c-0.1,0.2-0.2,0.4-0.4,0.5c-0.1,0.1-0.3,0.1-0.5,0.2l-0.2-0.5
	c0.1,0,0.2,0,0.3-0.1c0.1-0.1,0.2-0.2,0.2-0.3c0-0.1-0.1-0.4-0.3-0.7L49.9,38z M53.9,35.4l0.6-0.3l0.9,1.9l1-0.5
	c0.4-0.2,0.7-0.3,0.9-0.3c0.3,0,0.5,0,0.7,0.2c0.2,0.1,0.4,0.3,0.6,0.6c0.2,0.3,0.2,0.7,0.1,1.1c-0.1,0.4-0.5,0.7-1.1,1l-1.6,0.8
	L53.9,35.4z M56.4,39.1l1-0.5c0.4-0.2,0.6-0.4,0.7-0.6c0.1-0.2,0.1-0.4-0.1-0.7c-0.1-0.2-0.2-0.3-0.4-0.4c-0.2-0.1-0.3-0.1-0.5-0.1
	c-0.2,0-0.4,0.1-0.8,0.3l-0.8,0.4L56.4,39.1z M60.2,37.9l-1.8-4.6L59,33l0.8,1.9L62,34l-0.8-1.9l0.6-0.2l1.8,4.6l-0.6,0.2l-0.9-2.2
	l-2.3,0.9l0.9,2.2L60.2,37.9z M63.8,31.2l0.6-0.1l0.5,2.1l1.1-0.3c0.4-0.1,0.7-0.1,1-0.1c0.3,0,0.5,0.1,0.7,0.3
	c0.2,0.2,0.3,0.4,0.4,0.7c0.1,0.4,0,0.7-0.1,1.1c-0.2,0.3-0.6,0.6-1.3,0.7L64.9,36L63.8,31.2z M65.4,35.3l1.1-0.3
	c0.4-0.1,0.6-0.2,0.8-0.4c0.1-0.2,0.2-0.4,0.1-0.7c0-0.2-0.1-0.4-0.3-0.5c-0.1-0.1-0.3-0.2-0.5-0.2c-0.2,0-0.5,0-0.9,0.1L65,33.6
	L65.4,35.3z M69.3,35l-1.1-4.8l0.6-0.1l1.1,4.8L69.3,35z M70.6,29.7l0.6-0.1l0.4,3.9l2.1-4.2l0.6-0.1l0.6,4.9l-0.6,0.1l-0.4-3.9
	l-2.1,4.2l-0.6,0.1L70.6,29.7z M73,28.2l0.4,0c0,0.3-0.1,0.5-0.2,0.7c-0.2,0.2-0.4,0.3-0.6,0.3c-0.3,0-0.5,0-0.7-0.1
	c-0.2-0.1-0.3-0.3-0.4-0.6l0.4,0c0.1,0.3,0.3,0.4,0.6,0.4c0.2,0,0.3-0.1,0.4-0.2C72.9,28.5,72.9,28.3,73,28.2z M78.6,34.1L78,34
	l0.2-4.9l3.7,0.1l-0.2,4.9l-0.6,0l0.2-4.4l-2.5-0.1L78.6,34.1z M83,34.3l0.6-4.9l1.8,0.2c0.4,0,0.7,0.1,0.9,0.2
	c0.3,0.1,0.5,0.3,0.6,0.5c0.1,0.2,0.2,0.5,0.1,0.9c-0.1,0.4-0.2,0.8-0.5,1c-0.3,0.2-0.8,0.3-1.4,0.3l-1.2-0.1l-0.2,2L83,34.3z
	 M83.9,31.8l1.2,0.1c0.4,0,0.7,0,0.9-0.1c0.2-0.1,0.3-0.3,0.3-0.6c0-0.2,0-0.4-0.1-0.5c-0.1-0.1-0.2-0.3-0.3-0.3
	c-0.1-0.1-0.3-0.1-0.7-0.2l-1.2-0.1L83.9,31.8z M87.6,35.1l1.2-4.8l3.3,0.9L92,31.7L89.3,31l-0.4,1.5l2.6,0.7l-0.1,0.6L88.8,33
	l-0.4,1.6l2.8,0.7L91,35.9L87.6,35.1z M94.4,31.8l2.7,1.1l-1.7,4l0.4,0.2l-0.7,1.6l-0.5-0.2l0.4-1.1l-2.9-1.2l-0.4,1.1l-0.5-0.2
	l0.7-1.6l0.3,0.1c0.6-0.4,1.2-1.5,1.9-3.2L94.4,31.8z M96.2,33.2l-1.5-0.6l-0.1,0.2c-0.2,0.4-0.4,0.9-0.7,1.5
	c-0.3,0.6-0.7,1.2-1.1,1.5l2,0.8L96.2,33.2z M97,38.3L96.5,38l2.2-4.4l3.3,1.7l-2.2,4.4l-0.6-0.3l1.9-3.9L99,34.4L97,38.3z
	 M100.9,40.4l2.6-4.2l1.5,1c0.4,0.2,0.6,0.4,0.7,0.6c0.2,0.2,0.3,0.5,0.3,0.8c0,0.3-0.1,0.6-0.2,0.9c-0.2,0.4-0.5,0.6-0.9,0.7
	c-0.4,0.1-0.8,0-1.4-0.4l-1-0.7l-1.1,1.7L100.9,40.4z M102.8,38.5l1,0.7c0.3,0.2,0.6,0.3,0.8,0.3c0.2,0,0.4-0.2,0.6-0.4
	c0.1-0.2,0.2-0.3,0.2-0.5c0-0.2,0-0.3-0.1-0.4c-0.1-0.1-0.3-0.3-0.5-0.4l-1-0.7L102.8,38.5z M107.7,39l0.5,0.3l-2.4,3.1l4.4-1.6
	l0.5,0.4l-3,3.9l-0.5-0.3l2.4-3.1l-4.4,1.6l-0.5-0.4L107.7,39z M108.6,46.1l3.6-3.4l0.4,0.5l-1.5,1.4l1.7,1.8l1.5-1.4l0.4,0.5
	l-3.6,3.4l-0.4-0.5l1.7-1.6l-1.7-1.8l-1.7,1.6L108.6,46.1z M115.9,46.8l0.4,0.4l-3.1,2.4l4.7-0.4l0.4,0.5l-3.9,3.1l-0.4-0.4l3.1-2.4
	l-4.7,0.4l-0.4-0.5L115.9,46.8z M115,53.8l4.3-2.5l0.5,0.8l-2.4,2.7l-0.5,0.6c0.2,0,0.5-0.1,0.8-0.2l3.5-0.8l0.4,0.7l-4.3,2.5
	l-0.3-0.5l3.6-2.1l-4.3,0.9l-0.3-0.5l2.9-3.3l-3.6,2.1L115,53.8z M117.6,58.3l5.3-0.4l0.3,0.6l-3.7,3.8l-0.3-0.7l1.1-1.1l-0.8-1.8
	l-1.6,0.1L117.6,58.3z M120,58.7l0.7,1.5l1-1c0.3-0.3,0.6-0.6,0.8-0.7c-0.3,0.1-0.6,0.1-1,0.2L120,58.7z M120,64.2l4.1-1.4l-0.5-1.5
	l0.5-0.2l1.2,3.6l-0.5,0.2l-0.5-1.5l-4.1,1.4L120,64.2z M120.9,67.2l4.8-1.1l0.8,3.3l-0.6,0.1l-0.6-2.7l-1.5,0.3l0.6,2.6l-0.6,0.1
	l-0.6-2.6l-1.6,0.4l0.7,2.8l-0.6,0.1L120.9,67.2z M126.8,71.5l0.3,3l-4.9,0.6l-0.1-0.6l4.3-0.5l-0.2-1.7l-2.5,0.3
	c-0.5,0.1-0.9,0.1-1.1,0.1c-0.2,0-0.4-0.1-0.6-0.2c-0.2-0.1-0.2-0.3-0.3-0.5c0-0.1,0-0.3,0-0.5l0.6,0c0,0.1,0,0.2,0,0.3
	c0,0.1,0.1,0.2,0.2,0.3c0.1,0.1,0.4,0.1,0.8,0L126.8,71.5z M127.2,76.1l0,0.6l-2.1,0.1l0,1.1c0,0.4,0,0.7-0.1,1
	c-0.1,0.3-0.2,0.5-0.4,0.6c-0.2,0.2-0.5,0.2-0.8,0.3c-0.4,0-0.7-0.1-1-0.3c-0.3-0.2-0.5-0.7-0.5-1.4l-0.1-1.8L127.2,76.1z
	 M122.8,76.9l0,1.2c0,0.4,0.1,0.7,0.2,0.8c0.1,0.2,0.4,0.3,0.7,0.2c0.2,0,0.4-0.1,0.5-0.2c0.1-0.1,0.2-0.3,0.2-0.4
	c0-0.2,0-0.5,0-0.9l0-0.8L122.8,76.9z"/>
<path id="path14" class="st2" d="M30.7,90l4.1-1.2l0.4,1.6c0.1,0.3,0.1,0.5,0.1,0.6c0,0.2,0,0.4,0,0.6c-0.1,0.2-0.2,0.3-0.3,0.4
	c-0.1,0.1-0.3,0.2-0.5,0.3c-0.4,0.1-0.7,0.1-1-0.1c-0.3-0.2-0.5-0.5-0.7-1.1l-0.3-1.1l-1.7,0.5L30.7,90z M33,90l0.3,1.1
	c0.1,0.4,0.2,0.6,0.4,0.7c0.2,0.1,0.4,0.1,0.6,0.1c0.2,0,0.3-0.1,0.4-0.3c0.1-0.1,0.1-0.3,0.1-0.4c0-0.1,0-0.3-0.1-0.5l-0.3-1.1
	L33,90z M33.7,92.8c0.7-0.3,1.3-0.3,1.8-0.1c0.5,0.2,0.9,0.6,1.1,1.2c0.1,0.4,0.2,0.7,0.1,1.1c-0.1,0.4-0.2,0.7-0.5,1
	c-0.3,0.3-0.6,0.5-1,0.7c-0.4,0.2-0.8,0.2-1.2,0.2c-0.4,0-0.7-0.2-1-0.4c-0.3-0.2-0.5-0.5-0.6-0.9c-0.1-0.4-0.2-0.7-0.1-1.1
	c0.1-0.4,0.2-0.7,0.5-1C33,93.2,33.3,93,33.7,92.8z M33.9,93.4c-0.5,0.2-0.8,0.5-1,0.8c-0.2,0.4-0.2,0.7,0,1.1
	c0.2,0.4,0.4,0.7,0.8,0.8c0.4,0.1,0.8,0.1,1.3-0.1c0.3-0.1,0.6-0.3,0.8-0.5c0.2-0.2,0.3-0.4,0.4-0.7c0-0.3,0-0.5-0.1-0.8
	c-0.1-0.4-0.4-0.6-0.8-0.8C34.9,93.1,34.5,93.1,33.9,93.4z M36.2,100.1l0.1,0.6c-0.5,0.1-0.9,0.1-1.2-0.1c-0.4-0.2-0.6-0.4-0.8-0.8
	C34.1,99.4,34,99,34,98.7c0-0.3,0.2-0.7,0.4-1c0.2-0.3,0.6-0.5,0.9-0.7c0.4-0.2,0.8-0.3,1.2-0.3c0.4,0,0.7,0.1,1,0.3
	c0.3,0.2,0.5,0.5,0.7,0.8c0.2,0.4,0.3,0.8,0.2,1.1c-0.1,0.4-0.2,0.7-0.5,1l-0.4-0.4c0.2-0.2,0.4-0.5,0.4-0.7c0-0.2,0-0.5-0.1-0.7
	c-0.2-0.3-0.3-0.5-0.6-0.6c-0.2-0.1-0.5-0.2-0.8-0.1c-0.3,0-0.5,0.1-0.8,0.3c-0.3,0.2-0.6,0.4-0.8,0.6c-0.2,0.2-0.3,0.5-0.3,0.7
	c0,0.3,0,0.5,0.2,0.7c0.1,0.3,0.4,0.5,0.6,0.6C35.6,100.2,35.9,100.2,36.2,100.1z M38.4,103.7l0.2,0.6c-0.5,0.2-0.9,0.2-1.2,0
	c-0.4-0.1-0.7-0.4-0.9-0.8c-0.2-0.4-0.4-0.8-0.4-1.1c0-0.3,0.1-0.7,0.3-1c0.2-0.3,0.5-0.6,0.8-0.8c0.4-0.2,0.8-0.4,1.1-0.4
	c0.4,0,0.7,0,1,0.2c0.3,0.2,0.6,0.4,0.8,0.7c0.2,0.4,0.3,0.7,0.3,1.1c0,0.4-0.2,0.7-0.4,1l-0.4-0.4c0.2-0.3,0.3-0.5,0.3-0.7
	c0-0.2-0.1-0.5-0.2-0.7c-0.2-0.3-0.4-0.5-0.6-0.6c-0.3-0.1-0.5-0.1-0.8,0c-0.3,0.1-0.5,0.2-0.8,0.3c-0.3,0.2-0.5,0.4-0.7,0.7
	c-0.2,0.2-0.3,0.5-0.2,0.7c0,0.3,0.1,0.5,0.2,0.7c0.2,0.3,0.4,0.4,0.7,0.5C37.7,103.9,38,103.9,38.4,103.7z M41.3,103.1l0.3,0.4
	l-2.8,2l4.1-0.1l0.3,0.5l-3.5,2.5l-0.3-0.4l2.8-2l-4.1,0.1l-0.3-0.5L41.3,103.1z M43.7,106.2l0.3,0.4l-2.6,2.2l4.1-0.5l0.4,0.4
	l-3.2,2.8l-0.3-0.4l2.6-2.2l-4.1,0.5l-0.4-0.4L43.7,106.2z M45.8,107.2l0.2,0.3c-0.2,0.1-0.4,0.2-0.6,0.2c-0.2,0-0.4-0.1-0.5-0.3
	c-0.2-0.2-0.2-0.4-0.2-0.6c0-0.2,0.1-0.4,0.3-0.6l0.2,0.3c-0.1,0.1-0.1,0.2-0.1,0.3c0,0.1,0,0.2,0.1,0.3c0.1,0.1,0.2,0.2,0.3,0.2
	C45.6,107.3,45.7,107.3,45.8,107.2z M46.6,113.3l0.3,0.5c-0.4,0.3-0.8,0.4-1.2,0.3c-0.4,0-0.8-0.2-1.1-0.5c-0.3-0.3-0.5-0.6-0.6-1
	c-0.1-0.3-0.1-0.7,0.1-1c0.1-0.4,0.3-0.7,0.6-1c0.3-0.3,0.6-0.5,1-0.7c0.4-0.1,0.7-0.1,1.1,0c0.3,0.1,0.7,0.3,0.9,0.5
	c0.3,0.3,0.5,0.6,0.6,1c0.1,0.4,0,0.7-0.2,1.1l-0.5-0.3c0.1-0.3,0.2-0.6,0.2-0.8c0-0.2-0.2-0.4-0.4-0.6c-0.2-0.2-0.5-0.4-0.8-0.4
	c-0.3,0-0.5,0-0.8,0.1c-0.2,0.1-0.5,0.3-0.7,0.5c-0.3,0.3-0.4,0.5-0.5,0.8c-0.1,0.3-0.1,0.5-0.1,0.8c0.1,0.3,0.2,0.5,0.4,0.6
	c0.2,0.2,0.5,0.3,0.8,0.4C46,113.6,46.3,113.5,46.6,113.3z M49.2,111.8l0.4,0.4l-1.2,1.5c0.2,0.2,0.4,0.2,0.5,0.2
	c0.1,0,0.4-0.1,0.8-0.3c0.3-0.1,0.5-0.2,0.6-0.3c0.1,0,0.3-0.1,0.4,0c0.2,0,0.3,0.1,0.4,0.2c0.2,0.1,0.3,0.2,0.3,0.2l-0.3,0.4
	c0,0,0,0-0.1-0.1c0,0-0.1-0.1-0.1-0.1c-0.1-0.1-0.3-0.2-0.4-0.1c-0.1,0-0.3,0.1-0.6,0.3c-0.3,0.2-0.6,0.3-0.7,0.3
	c-0.1,0-0.3,0-0.4,0c0.2,0.2,0.2,0.6,0.2,1.1l-0.2,1.7l-0.6-0.4l0.2-1.4c0-0.4,0.1-0.7,0-0.8c0-0.2-0.1-0.3-0.3-0.5l-1.2,1.6
	l-0.4-0.4L49.2,111.8z M48.9,117.1l3.8-2.5l0.5,0.4l-1.1,4.5l-0.5-0.4l0.3-1.3l-1.5-1l-1.1,0.8L48.9,117.1z M50.9,116.3l1.2,0.8
	l0.3-1.2c0.1-0.4,0.2-0.7,0.3-0.9c-0.2,0.2-0.4,0.4-0.7,0.5L50.9,116.3z M55.5,121.3l2.1-3.7l-1.7-0.9c-0.3-0.2-0.6-0.3-0.8-0.3
	c-0.2,0-0.4,0-0.6,0.1c-0.2,0.1-0.4,0.3-0.5,0.5c-0.2,0.3-0.2,0.5-0.1,0.8c0.1,0.3,0.3,0.5,0.6,0.8c-0.2,0-0.3,0-0.4,0
	c-0.2,0-0.5,0.1-0.7,0.3l-1.2,0.6l0.6,0.4l0.9-0.5c0.3-0.1,0.5-0.2,0.6-0.3c0.2-0.1,0.3-0.1,0.4-0.1c0.1,0,0.2,0,0.3,0
	c0.1,0,0.2,0.1,0.3,0.1l0.6,0.3L55,121L55.5,121.3z M56.2,118.9l-1.1-0.6c-0.2-0.1-0.4-0.3-0.5-0.4c-0.1-0.1-0.2-0.2-0.2-0.4
	c0-0.1,0-0.3,0.1-0.4c0.1-0.2,0.2-0.3,0.4-0.3c0.2,0,0.4,0,0.7,0.2l1.2,0.7L56.2,118.9z M60.7,119.5l0.2-0.5l0.5,0.2l-0.2,0.5
	c0.5,0.2,0.8,0.5,1,0.9c0.2,0.4,0.2,0.8,0,1.2c-0.2,0.4-0.4,0.7-0.8,0.9c-0.4,0.2-0.9,0.2-1.4,0l-0.2,0.5l-0.5-0.2l0.2-0.5
	c-0.5-0.2-0.8-0.5-1-0.9c-0.2-0.4-0.2-0.8-0.1-1.3c0.2-0.4,0.5-0.7,0.9-0.9C59.7,119.3,60.2,119.3,60.7,119.5L60.7,119.5z M61,120.1
	l-0.8,2.1c0.3,0.1,0.7,0.1,0.9,0c0.3-0.1,0.5-0.3,0.6-0.6c0.1-0.3,0.1-0.6,0-0.9C61.6,120.5,61.3,120.3,61,120.1z M60.5,119.9
	c-0.3-0.1-0.6-0.1-0.9,0c-0.3,0.1-0.5,0.3-0.6,0.6c-0.1,0.3-0.1,0.6,0,0.9c0.1,0.3,0.4,0.5,0.7,0.6L60.5,119.9z M62.1,124.1l1.2-4.1
	l3,0.9l-0.1,0.5l-2.4-0.7l-0.4,1.3l2.3,0.7l-0.1,0.5l-2.3-0.7l-0.4,1.4l2.5,0.7l-0.1,0.5L62.1,124.1z M67.3,121.1l2.5,0.6l-0.8,3.7
	l0.4,0.1l-0.3,1.5l-0.5-0.1l0.2-1l-2.8-0.6l-0.2,1l-0.5-0.1l0.3-1.5l0.3,0.1c0.5-0.4,0.9-1.4,1.2-3L67.3,121.1z M69.2,122.1
	l-1.5-0.3l0,0.2c-0.1,0.4-0.2,0.8-0.4,1.4c-0.2,0.6-0.4,1.1-0.7,1.4l1.9,0.4L69.2,122.1z M69.9,126.1l0.6-4.3l3.1,0.4l-0.1,0.5
	l-2.5-0.3l-0.2,1.3l2.3,0.3l-0.1,0.5l-2.3-0.3l-0.2,1.5l2.6,0.3l-0.1,0.5L69.9,126.1z M73.9,126.5l0.3-4.3l1.6,0.1
	c0.3,0,0.5,0.1,0.6,0.1c0.2,0.1,0.4,0.1,0.5,0.2c0.1,0.1,0.2,0.3,0.3,0.4c0.1,0.2,0.1,0.4,0.1,0.6c0,0.4-0.2,0.7-0.4,0.9
	c-0.3,0.2-0.7,0.3-1.3,0.3l-1.1-0.1l-0.1,1.7L73.9,126.5z M74.6,124.3l1.1,0.1c0.4,0,0.6,0,0.8-0.1c0.2-0.1,0.3-0.3,0.3-0.6
	c0-0.2,0-0.3-0.1-0.5c-0.1-0.1-0.2-0.2-0.3-0.3c-0.1,0-0.3-0.1-0.5-0.1l-1.1-0.1L74.6,124.3z M77,126.7l1.6-4.3l0.6,0l1.8,4.3
	l-0.6,0l-0.5-1.3l-1.8,0l-0.4,1.3L77,126.7z M78.2,124.9l1.5,0l-0.5-1.2c-0.1-0.4-0.3-0.7-0.3-0.9c-0.1,0.3-0.1,0.6-0.2,0.8
	L78.2,124.9z M80.9,122.4l0.6-0.1l0.5,3.8l2.2-0.3l-0.5-3.8l0.6-0.1l0.5,3.8l0.4-0.1l0.2,1.7l-0.5,0.1l-0.2-1.2l-3.2,0.4L80.9,122.4
	z M85.2,121.8l0.5-0.1l0.6,3.4l1.7-3.7l0.6-0.1l0.7,4.2l-0.5,0.1l-0.6-3.3l-1.7,3.7l-0.6,0.1L85.2,121.8z M93.4,124.2l-1.2-4.1
	l-1.8,0.5c-0.4,0.1-0.6,0.2-0.8,0.4c-0.2,0.1-0.3,0.3-0.3,0.5c-0.1,0.2-0.1,0.4,0,0.7c0.1,0.3,0.2,0.5,0.5,0.7
	c0.2,0.1,0.6,0.2,1,0.1c-0.1,0.1-0.2,0.2-0.3,0.3c-0.1,0.2-0.2,0.4-0.3,0.7l-0.4,1.3l0.7-0.2l0.3-1c0.1-0.3,0.2-0.5,0.2-0.7
	c0.1-0.2,0.1-0.3,0.2-0.4c0.1-0.1,0.1-0.1,0.2-0.2c0.1,0,0.2-0.1,0.3-0.1l0.6-0.2l0.5,1.8L93.4,124.2z M92.2,122.1l-1.2,0.3
	c-0.2,0.1-0.5,0.1-0.6,0.1c-0.2,0-0.3-0.1-0.4-0.2c-0.1-0.1-0.2-0.2-0.2-0.3c-0.1-0.2,0-0.4,0.1-0.5c0.1-0.2,0.3-0.3,0.6-0.4
	l1.3-0.4L92.2,122.1z M94.2,119.3l2.6-1l0.2,0.5l-2.1,0.8l1.4,3.5l-0.5,0.2L94.2,119.3z M97.4,120.4c-0.3-0.6-0.4-1.2-0.3-1.7
	c0.2-0.5,0.5-0.9,1-1.2c0.4-0.2,0.7-0.3,1.1-0.2c0.4,0,0.7,0.1,1,0.4c0.3,0.2,0.6,0.5,0.8,0.9c0.2,0.4,0.3,0.8,0.3,1.2
	c0,0.4-0.1,0.7-0.3,1c-0.2,0.3-0.5,0.5-0.8,0.7c-0.4,0.2-0.7,0.3-1.1,0.2c-0.4,0-0.7-0.2-1-0.4C97.8,121,97.6,120.8,97.4,120.4z
	 M97.9,120.2c0.2,0.5,0.5,0.8,0.9,0.9c0.4,0.1,0.8,0.1,1.1-0.1c0.4-0.2,0.6-0.5,0.7-0.9c0.1-0.4,0-0.8-0.2-1.3
	c-0.2-0.3-0.4-0.6-0.6-0.7c-0.2-0.2-0.5-0.3-0.7-0.3c-0.3,0-0.5,0-0.8,0.2c-0.4,0.2-0.6,0.5-0.7,0.8
	C97.5,119.1,97.6,119.6,97.9,120.2z M102.6,120l-2.3-3.6l1.4-0.9c0.2-0.2,0.4-0.3,0.6-0.3c0.2-0.1,0.4-0.1,0.6-0.1
	c0.2,0,0.3,0.1,0.5,0.2c0.2,0.1,0.3,0.2,0.4,0.4c0.2,0.3,0.3,0.6,0.2,1c-0.1,0.3-0.3,0.7-0.9,1l-0.9,0.6l0.9,1.5L102.6,120z
	 M101.9,117.8l0.9-0.6c0.3-0.2,0.5-0.4,0.5-0.6c0.1-0.2,0-0.4-0.1-0.6c-0.1-0.2-0.2-0.3-0.4-0.3c-0.1-0.1-0.3-0.1-0.4,0
	c-0.1,0-0.2,0.1-0.5,0.3l-0.9,0.6L101.9,117.8z M104.5,116.4c-0.4-0.6-0.6-1.1-0.6-1.7c0.1-0.6,0.3-1,0.8-1.4c0.3-0.2,0.7-0.4,1-0.4
	c0.4,0,0.7,0,1.1,0.2c0.3,0.2,0.6,0.4,0.9,0.8c0.3,0.3,0.4,0.7,0.5,1.1c0.1,0.4,0,0.7-0.1,1.1c-0.1,0.3-0.4,0.6-0.7,0.9
	c-0.3,0.2-0.7,0.4-1,0.4c-0.4,0-0.7,0-1.1-0.2C105,117,104.7,116.7,104.5,116.4z M104.9,116.1c0.3,0.4,0.7,0.6,1.1,0.7
	c0.4,0.1,0.8,0,1.1-0.3c0.3-0.3,0.5-0.6,0.6-1c0-0.4-0.1-0.8-0.5-1.3c-0.2-0.3-0.5-0.5-0.7-0.6c-0.3-0.1-0.5-0.2-0.8-0.2
	c-0.3,0-0.5,0.1-0.7,0.3c-0.3,0.2-0.5,0.6-0.6,1C104.4,115.1,104.6,115.6,104.9,116.1z M106.9,111.6l2-1.7l2.5,2.9l0.3-0.3l1,1.1
	l-0.4,0.3l-0.7-0.8l-2.1,1.9l0.7,0.8l-0.4,0.3l-1-1.1l0.2-0.2c-0.1-0.6-0.6-1.5-1.7-2.7L106.9,111.6z M108.8,110.7l-1.1,1l0.1,0.2
	c0.2,0.3,0.5,0.7,0.9,1.2c0.4,0.5,0.6,1,0.7,1.4l1.5-1.3L108.8,110.7z M113.6,111.2l-3.2-2.8l0.6-0.6l3,1.2c0.3,0.1,0.5,0.2,0.6,0.3
	c-0.1-0.1-0.2-0.3-0.4-0.6l-1.6-2.7l0.5-0.6l3.2,2.8l-0.4,0.4l-2.7-2.4l1.9,3.3l-0.3,0.4l-3.6-1.5l2.8,2.4L113.6,111.2z M115,106.3
	c-0.6-0.4-0.9-0.9-1-1.4c-0.1-0.5,0-1.1,0.4-1.6c0.2-0.3,0.5-0.6,0.9-0.7c0.3-0.2,0.7-0.2,1.1-0.1c0.4,0.1,0.7,0.2,1.1,0.5
	c0.4,0.3,0.6,0.5,0.8,0.9c0.2,0.3,0.2,0.7,0.2,1.1c0,0.4-0.2,0.7-0.4,1c-0.2,0.3-0.5,0.6-0.9,0.7c-0.3,0.1-0.7,0.2-1.1,0.1
	C115.7,106.7,115.3,106.5,115,106.3z M115.4,105.8c0.4,0.3,0.8,0.4,1.2,0.4c0.4-0.1,0.7-0.3,1-0.6c0.2-0.3,0.3-0.7,0.2-1.1
	c-0.1-0.4-0.4-0.8-0.8-1.1c-0.3-0.2-0.6-0.3-0.8-0.4c-0.3-0.1-0.5,0-0.8,0.1c-0.2,0.1-0.5,0.3-0.6,0.5c-0.2,0.3-0.3,0.7-0.3,1.1
	C114.6,105.1,114.9,105.5,115.4,105.8z M119.7,100.1l0.4-0.4c0.3,0.3,0.5,0.7,0.6,1.1c0.1,0.4,0,0.8-0.2,1.2
	c-0.2,0.4-0.5,0.7-0.8,0.8c-0.3,0.2-0.7,0.2-1,0.2c-0.4,0-0.8-0.2-1.1-0.4c-0.4-0.2-0.7-0.5-0.9-0.8c-0.2-0.3-0.3-0.7-0.3-1
	c0-0.4,0.1-0.7,0.3-1c0.2-0.4,0.5-0.6,0.8-0.8c0.3-0.1,0.7-0.2,1.1-0.1l-0.2,0.5c-0.3-0.1-0.6-0.1-0.8,0c-0.2,0.1-0.4,0.3-0.5,0.5
	c-0.2,0.3-0.2,0.6-0.2,0.8c0,0.3,0.1,0.5,0.3,0.7c0.2,0.2,0.4,0.4,0.6,0.5c0.3,0.2,0.6,0.3,0.9,0.3c0.3,0,0.5,0,0.8-0.1
	c0.2-0.1,0.4-0.3,0.5-0.5c0.2-0.3,0.2-0.6,0.2-0.8C120.1,100.6,120,100.4,119.7,100.1L119.7,100.1z M117.7,98l0.2-0.5l1.7,0.8
	c0.1-0.2,0.1-0.4,0.1-0.6c0-0.1-0.2-0.4-0.5-0.7c-0.2-0.2-0.3-0.4-0.4-0.5c-0.1-0.1-0.1-0.3-0.1-0.4c0-0.2,0-0.3,0.1-0.5
	c0.1-0.2,0.1-0.3,0.1-0.3l0.4,0.2c0,0,0,0.1,0,0.1c0,0.1,0,0.1-0.1,0.1c-0.1,0.2-0.1,0.3,0,0.4c0,0.1,0.2,0.3,0.4,0.5
	c0.3,0.3,0.4,0.5,0.5,0.6c0,0.1,0.1,0.3,0.1,0.4c0.2-0.2,0.5-0.4,1-0.4l1.7-0.2l-0.3,0.6l-1.4,0.2c-0.4,0-0.6,0.1-0.8,0.2
	c-0.2,0.1-0.3,0.2-0.4,0.4l1.8,0.8l-0.2,0.5L117.7,98z M123,96.6l-4-1.6l0.6-1.5c0.1-0.3,0.3-0.5,0.4-0.7c0.2-0.2,0.3-0.2,0.5-0.3
	c0.2,0,0.4,0,0.6,0c0.2,0.1,0.3,0.2,0.4,0.3c0.1,0.2,0.2,0.3,0.2,0.6c0.2-0.2,0.4-0.4,0.6-0.4c0.2-0.1,0.4,0,0.7,0
	c0.2,0.1,0.3,0.2,0.5,0.3c0.1,0.1,0.2,0.3,0.3,0.4c0,0.2,0.1,0.3,0,0.5c0,0.2-0.1,0.4-0.2,0.7L123,96.6z M120.9,95.1l0.3-0.9
	c0.1-0.2,0.1-0.4,0.2-0.5c0-0.2,0-0.3-0.1-0.4c-0.1-0.1-0.2-0.2-0.3-0.2c-0.1-0.1-0.3-0.1-0.4,0c-0.1,0-0.2,0.1-0.3,0.2
	c-0.1,0.1-0.2,0.3-0.3,0.6l-0.3,0.8L120.9,95.1z M122.7,95.9l0.4-1c0.1-0.2,0.1-0.3,0.1-0.4c0-0.1,0-0.2,0-0.3
	c0-0.1-0.1-0.2-0.1-0.3c-0.1-0.1-0.2-0.2-0.3-0.2c-0.1-0.1-0.3-0.1-0.4,0c-0.1,0-0.3,0.1-0.4,0.2c-0.1,0.1-0.2,0.3-0.3,0.6l-0.4,0.9
	L122.7,95.9z M124.2,93.5l-3.7-2.8l0.2-0.6l4.6-0.5l-0.2,0.6l-1.4,0.1l-0.5,1.7l1.1,0.8L124.2,93.5z M122.9,91.8l0.4-1.4l-1.3,0.1
	c-0.4,0-0.7,0-0.9,0c0.3,0.1,0.5,0.3,0.7,0.5L122.9,91.8z"/>
<g id="Layer1000">
	<path id="path16" class="st2" d="M71.1,115c-0.1,0.6-0.4,1.1-0.9,1.3c-0.4,0.3-0.9,0.3-1.4,0.2c-0.3-0.1-0.6-0.2-0.9-0.4
		c-0.2-0.2-0.4-0.5-0.5-0.8c-0.1-0.3-0.1-0.7,0-1.1c0.1-0.6,0.4-1,0.8-1.2c0.4-0.3,0.9-0.4,1.5-0.3c0.6,0.1,1,0.4,1.2,0.9
		C71.1,114,71.2,114.5,71.1,115z M70.5,114.9c0.1-0.5,0.1-0.8-0.1-1.2c-0.2-0.3-0.5-0.5-0.9-0.6c-0.4-0.1-0.7,0-1,0.2
		c-0.3,0.2-0.5,0.5-0.6,1c-0.1,0.3-0.1,0.6,0,0.9c0.1,0.2,0.2,0.4,0.4,0.6c0.2,0.2,0.4,0.3,0.6,0.3c0.4,0.1,0.7,0,1-0.2
		C70.2,115.8,70.4,115.4,70.5,114.9L70.5,114.9z M65.7,115.6l-2.3-0.8l0.1-0.4l1.8,0.6l1.1-3.2L67,112L65.7,115.6z M64,110.9
		l-1.7,3.4l-1.3-0.7c-0.3-0.2-0.5-0.3-0.7-0.4c-0.2-0.2-0.3-0.4-0.3-0.6c0-0.2,0-0.4,0.1-0.7c0.2-0.3,0.4-0.5,0.7-0.6
		c0.3-0.1,0.7,0,1.2,0.2l0.9,0.5l0.7-1.4L64,110.9z M62.6,112.5l-0.9-0.5c-0.3-0.1-0.5-0.2-0.7-0.2c-0.2,0-0.3,0.2-0.4,0.4
		c-0.1,0.1-0.1,0.3-0.1,0.4c0,0.1,0.1,0.2,0.1,0.3c0.1,0.1,0.2,0.2,0.5,0.3l0.9,0.5L62.6,112.5z M60.5,109.2l-2.1,3.2l-0.4-0.3
		l0.9-1.3l-1.7-1.1l-0.9,1.3l-0.4-0.3l2.1-3.2l0.4,0.3l-1,1.5l1.7,1.1l1-1.5L60.5,109.2z M54.7,109.8l-0.4-0.3l1.9-2.4l-3.6,1.1
		l-0.4-0.3l2.4-3l0.4,0.3l-1.9,2.4l3.6-1.1l0.4,0.3L54.7,109.8z M53.4,103.8l0.4,0.4l-2.8,2.7l-2.2-2.3l2.8-2.7l0.4,0.4l-2.4,2.3
		l1.4,1.5L53.4,103.8z M48.5,101.2c-0.5,0.4-1,0.6-1.4,0.6c-0.4,0-0.7-0.2-1-0.5c-0.2-0.3-0.3-0.6-0.2-1c0.1-0.4,0.5-0.8,1-1.2
		c0.5-0.4,1-0.6,1.4-0.6c0.4,0,0.7,0.2,1,0.5c0.2,0.3,0.3,0.6,0.2,1C49.4,100.3,49.1,100.7,48.5,101.2z M48.2,100.7
		c0.5-0.4,0.8-0.7,0.9-0.9c0.1-0.2,0.1-0.5-0.1-0.7c-0.1-0.2-0.3-0.3-0.6-0.3c-0.3,0-0.6,0.2-1.1,0.5c-0.5,0.4-0.8,0.7-0.9,0.9
		c-0.1,0.2-0.1,0.5,0.1,0.7c0.1,0.2,0.3,0.3,0.6,0.3C47.3,101.3,47.7,101.1,48.2,100.7z M46.5,98.3c-0.6,0.3-1,0.5-1.4,0.4
		c-0.4,0-0.7-0.2-0.9-0.6c-0.2-0.3-0.2-0.7-0.1-1c0.1-0.4,0.5-0.8,1.1-1.1c0.6-0.3,1-0.5,1.4-0.4c0.4,0,0.7,0.2,0.9,0.6
		c0.2,0.3,0.2,0.7,0.1,1C47.5,97.6,47.1,98,46.5,98.3z M46.3,97.9c0.5-0.3,0.9-0.6,1-0.8c0.1-0.2,0.1-0.5,0-0.7
		c-0.1-0.2-0.3-0.3-0.6-0.3c-0.3,0-0.7,0.1-1.2,0.4c-0.5,0.3-0.9,0.6-1,0.8c-0.1,0.2-0.1,0.5,0,0.7c0.1,0.2,0.3,0.3,0.6,0.3
		C45.3,98.3,45.7,98.2,46.3,97.9z M44.8,95.3c-0.6,0.3-1.1,0.4-1.5,0.3c-0.4-0.1-0.7-0.3-0.9-0.7c-0.2-0.3-0.2-0.7,0-1
		c0.2-0.4,0.6-0.7,1.3-1c0.6-0.3,1.1-0.4,1.5-0.3c0.4,0.1,0.7,0.3,0.9,0.7c0.2,0.3,0.2,0.7,0,1C45.8,94.7,45.4,95,44.8,95.3z
		 M44.6,94.9c0.6-0.3,0.9-0.5,1-0.7c0.1-0.2,0.1-0.4,0.1-0.7c-0.1-0.2-0.3-0.3-0.5-0.4c-0.3,0-0.7,0.1-1.2,0.3
		c-0.6,0.3-0.9,0.5-1,0.7c-0.1,0.2-0.1,0.4,0,0.7c0.1,0.2,0.3,0.3,0.5,0.4C43.6,95.2,44,95.1,44.6,94.9z M43.3,92.2
		c-0.6,0.2-1.1,0.3-1.5,0.2c-0.4-0.1-0.6-0.4-0.8-0.8c-0.1-0.4-0.1-0.7,0.1-1c0.2-0.4,0.7-0.6,1.3-0.9c0.6-0.2,1.1-0.3,1.5-0.2
		c0.4,0.1,0.6,0.4,0.8,0.8c0.1,0.4,0.1,0.7-0.1,1C44.4,91.6,44,91.9,43.3,92.2z M43.2,91.7c0.6-0.2,1-0.4,1.1-0.6
		c0.2-0.2,0.2-0.4,0.1-0.7c-0.1-0.2-0.2-0.4-0.5-0.4c-0.3-0.1-0.7,0-1.3,0.2c-0.6,0.2-1,0.4-1.1,0.6c-0.2,0.2-0.2,0.4-0.1,0.7
		c0.1,0.2,0.2,0.3,0.5,0.4C42.2,91.9,42.6,91.9,43.2,91.7z M42.3,88.9c-0.6,0.2-1.1,0.2-1.5,0.1c-0.4-0.1-0.6-0.4-0.7-0.8
		c-0.1-0.4-0.1-0.7,0.1-1c0.2-0.3,0.7-0.6,1.4-0.8c0.6-0.2,1.1-0.2,1.5-0.1c0.4,0.1,0.6,0.4,0.7,0.8c0.1,0.4,0,0.7-0.2,1
		C43.4,88.5,42.9,88.8,42.3,88.9z M42.1,88.5c0.6-0.2,1-0.4,1.1-0.6c0.2-0.2,0.2-0.4,0.1-0.6c-0.1-0.2-0.2-0.4-0.5-0.5
		c-0.2-0.1-0.7,0-1.3,0.1c-0.6,0.2-1,0.4-1.1,0.6c-0.2,0.2-0.2,0.4-0.1,0.7c0.1,0.2,0.2,0.4,0.5,0.4C41.1,88.7,41.5,88.6,42.1,88.5z
		 M41.4,85.6c-0.6,0.1-1.1,0.1-1.5-0.1c-0.4-0.2-0.6-0.4-0.7-0.9c-0.1-0.4,0-0.7,0.2-1c0.3-0.3,0.8-0.5,1.5-0.7
		c0.6-0.1,1.1-0.1,1.5,0.1c0.4,0.2,0.6,0.4,0.7,0.9c0.1,0.4,0,0.7-0.3,1C42.6,85.2,42.1,85.5,41.4,85.6z M41.3,85.1
		c0.6-0.1,1-0.3,1.2-0.4c0.2-0.2,0.3-0.4,0.2-0.6c0-0.2-0.2-0.4-0.4-0.5c-0.2-0.1-0.7-0.1-1.3,0c-0.6,0.1-1,0.3-1.2,0.4
		c-0.2,0.2-0.2,0.4-0.2,0.6c0,0.2,0.2,0.4,0.4,0.5C40.3,85.2,40.7,85.2,41.3,85.1z M40.9,82.1c-0.6,0-1.1,0-1.5-0.2
		c-0.3-0.2-0.5-0.5-0.6-0.9c0-0.4,0.1-0.7,0.3-0.9c0.3-0.3,0.8-0.5,1.5-0.5c0.6,0,1.1,0,1.5,0.2c0.3,0.2,0.5,0.5,0.6,0.9
		c0,0.4-0.1,0.7-0.4,1C42.1,81.9,41.6,82.1,40.9,82.1z M40.8,81.6c0.6,0,1-0.2,1.2-0.3c0.2-0.2,0.3-0.4,0.3-0.6
		c0-0.2-0.1-0.4-0.4-0.5c-0.2-0.1-0.6-0.2-1.3-0.1c-0.6,0-1,0.2-1.2,0.3c-0.2,0.2-0.3,0.4-0.3,0.6c0,0.2,0.1,0.4,0.4,0.5
		C39.8,81.6,40.2,81.7,40.8,81.6z M40.7,78.7c-0.6,0-1.1-0.1-1.4-0.4c-0.3-0.2-0.5-0.6-0.5-1c0-0.4,0.2-0.7,0.4-0.9
		c0.3-0.3,0.9-0.4,1.6-0.4c0.6,0,1.1,0.1,1.4,0.4c0.3,0.2,0.5,0.6,0.5,1c0,0.4-0.2,0.7-0.5,0.9C41.9,78.6,41.4,78.7,40.7,78.7z
		 M40.7,78.2c0.6,0,1,0,1.3-0.2c0.2-0.1,0.3-0.3,0.3-0.6c0-0.2-0.1-0.4-0.3-0.6c-0.2-0.2-0.6-0.2-1.2-0.3c-0.6,0-1,0-1.3,0.2
		c-0.2,0.1-0.3,0.3-0.3,0.6c0,0.2,0.1,0.4,0.3,0.6C39.6,78.1,40.1,78.2,40.7,78.2z M40.8,75.2c-0.6-0.1-1.1-0.2-1.4-0.5
		s-0.4-0.6-0.4-1c0-0.4,0.2-0.7,0.5-0.8c0.4-0.2,0.9-0.3,1.6-0.2c0.6,0.1,1.1,0.2,1.4,0.5c0.3,0.3,0.4,0.6,0.4,1
		c0,0.4-0.2,0.7-0.5,0.9C42,75.2,41.5,75.3,40.8,75.2z M40.8,74.7c0.6,0.1,1,0.1,1.3-0.1c0.2-0.1,0.4-0.3,0.4-0.5
		c0-0.2-0.1-0.4-0.3-0.6c-0.2-0.2-0.6-0.3-1.2-0.4c-0.6-0.1-1-0.1-1.3,0.1c-0.2,0.1-0.4,0.3-0.4,0.5c0,0.2,0.1,0.4,0.3,0.6
		C39.8,74.5,40.2,74.6,40.8,74.7z M41.2,71.7c-0.6-0.1-1.1-0.4-1.3-0.7c-0.3-0.3-0.4-0.6-0.3-1.1c0.1-0.4,0.3-0.6,0.6-0.8
		c0.4-0.2,0.9-0.2,1.6,0c0.6,0.1,1.1,0.4,1.3,0.6c0.3,0.3,0.4,0.6,0.3,1.1c-0.1,0.4-0.3,0.6-0.6,0.8C42.4,71.9,41.9,71.9,41.2,71.7z
		 M41.3,71.3c0.6,0.1,1,0.2,1.3,0.1c0.2-0.1,0.4-0.3,0.4-0.5c0.1-0.2,0-0.4-0.2-0.6c-0.2-0.2-0.6-0.4-1.2-0.5
		c-0.6-0.1-1-0.2-1.3-0.1c-0.2,0.1-0.4,0.3-0.4,0.5c-0.1,0.2,0,0.4,0.2,0.6C40.3,70.9,40.7,71.1,41.3,71.3z M42,68.5
		c-0.6-0.2-1.1-0.4-1.3-0.7c-0.3-0.3-0.3-0.7-0.2-1.1c0.1-0.4,0.3-0.6,0.6-0.8c0.4-0.2,0.9-0.2,1.6,0c0.6,0.2,1.1,0.4,1.3,0.7
		c0.3,0.3,0.3,0.7,0.2,1.1c-0.1,0.4-0.3,0.6-0.7,0.8C43.2,68.7,42.7,68.7,42,68.5z M42.1,68c0.6,0.2,1,0.2,1.3,0.1
		c0.2-0.1,0.4-0.2,0.5-0.5c0.1-0.2,0-0.4-0.2-0.6c-0.2-0.2-0.5-0.4-1.1-0.5c-0.6-0.2-1-0.2-1.3-0.1c-0.2,0.1-0.4,0.2-0.5,0.5
		c-0.1,0.2,0,0.4,0.2,0.6C41.1,67.6,41.5,67.8,42.1,68z M43,65.1c-0.6-0.2-1-0.5-1.2-0.8c-0.2-0.3-0.3-0.7-0.1-1.1
		c0.1-0.4,0.4-0.6,0.7-0.7c0.4-0.1,0.9-0.1,1.6,0.2c0.6,0.2,1,0.5,1.2,0.8c0.2,0.3,0.3,0.7,0.1,1.1c-0.1,0.4-0.4,0.6-0.8,0.7
		C44.2,65.5,43.7,65.4,43,65.1z M43.2,64.7c0.6,0.2,1,0.3,1.2,0.3c0.3-0.1,0.4-0.2,0.5-0.4c0.1-0.2,0.1-0.4-0.1-0.6
		c-0.1-0.2-0.5-0.4-1.1-0.7c-0.6-0.2-1-0.3-1.2-0.3c-0.3,0.1-0.4,0.2-0.5,0.4c-0.1,0.2-0.1,0.4,0.1,0.6
		C42.3,64.2,42.6,64.5,43.2,64.7z M48.7,55c-0.5-0.4-0.8-0.9-0.8-1.4c0-0.5,0.1-1,0.5-1.4c0.2-0.3,0.5-0.5,0.8-0.6
		c0.3-0.1,0.6-0.1,1-0.1c0.3,0.1,0.7,0.2,1,0.5c0.4,0.4,0.7,0.8,0.7,1.3c0.1,0.5-0.1,1-0.5,1.5c-0.4,0.4-0.8,0.7-1.4,0.7
		C49.6,55.5,49.1,55.3,48.7,55z M49.1,54.6c0.4,0.3,0.7,0.4,1.1,0.4c0.4,0,0.7-0.2,0.9-0.5c0.3-0.3,0.4-0.6,0.3-1
		c0-0.4-0.2-0.7-0.6-1.1c-0.2-0.2-0.5-0.4-0.8-0.4c-0.2-0.1-0.4,0-0.7,0c-0.2,0.1-0.4,0.2-0.6,0.4c-0.3,0.3-0.4,0.6-0.4,1
		C48.5,53.8,48.7,54.2,49.1,54.6z M50.6,50l1.7-1.7l0.3,0.3l-1.4,1.3l2.3,2.4l-0.4,0.4L50.6,50z M55.6,50.6l-2.4-3l1.2-0.9
		c0.3-0.2,0.5-0.4,0.7-0.4c0.2-0.1,0.4-0.1,0.7-0.1c0.2,0.1,0.4,0.2,0.6,0.4c0.2,0.3,0.3,0.6,0.3,0.9c0,0.3-0.3,0.6-0.7,1l-0.8,0.6
		l1,1.2L55.6,50.6z M54.8,48.7l0.8-0.6c0.3-0.2,0.4-0.4,0.5-0.6c0-0.2,0-0.4-0.1-0.6c-0.1-0.1-0.2-0.2-0.3-0.2c-0.1,0-0.2,0-0.3,0
		c-0.1,0-0.3,0.1-0.5,0.3L54,47.6L54.8,48.7z M58.8,48.3L56.8,45l0.5-0.3l0.8,1.4l1.8-1l-0.8-1.4l0.5-0.3l1.9,3.3L61,47l-0.9-1.6
		l-1.8,1l0.9,1.6L58.8,48.3z M60.9,42.7l0.4-0.2l1.3,2.8l0.7-3.7l0.5-0.2l1.6,3.5l-0.4,0.2l-1.3-2.8L62.9,46l-0.5,0.2L60.9,42.7z
		 M66.8,44.4l-0.5,0.1l-1-3.7l3-0.9l1,3.7l-0.5,0.1l-0.9-3.3l-2,0.6L66.8,44.4z M71.4,41.3c-0.1-0.6,0-1.1,0.1-1.5
		c0.2-0.4,0.5-0.6,0.9-0.6c0.4,0,0.7,0,0.9,0.3c0.3,0.3,0.5,0.8,0.6,1.5c0.1,0.6,0,1.1-0.1,1.5c-0.2,0.4-0.5,0.6-0.9,0.6
		c-0.4,0-0.7-0.1-1-0.3C71.7,42.5,71.5,42,71.4,41.3z M71.9,41.2c0.1,0.6,0.2,1,0.4,1.2c0.2,0.2,0.4,0.3,0.6,0.2
		c0.2,0,0.4-0.2,0.5-0.4c0.1-0.2,0.1-0.7,0.1-1.3c-0.1-0.6-0.2-1-0.4-1.2c-0.2-0.2-0.4-0.3-0.6-0.2c-0.2,0-0.4,0.2-0.5,0.4
		C71.9,40.2,71.8,40.6,71.9,41.2z M74.8,40.9c0-0.6,0-1.1,0.2-1.5c0.2-0.3,0.5-0.5,0.9-0.6c0.4,0,0.7,0.1,0.9,0.3
		c0.3,0.3,0.5,0.8,0.5,1.5c0,0.6,0,1.1-0.2,1.5c-0.2,0.3-0.5,0.5-0.9,0.6c-0.4,0-0.7-0.1-1-0.4C75,42.1,74.8,41.6,74.8,40.9z
		 M75.3,40.8c0,0.6,0.2,1,0.3,1.2c0.2,0.2,0.4,0.3,0.6,0.3c0.2,0,0.4-0.1,0.5-0.4c0.1-0.2,0.2-0.6,0.1-1.3c0-0.6-0.2-1-0.3-1.2
		c-0.2-0.2-0.4-0.3-0.6-0.3c-0.2,0-0.4,0.1-0.5,0.4C75.3,39.8,75.2,40.2,75.3,40.8z M78.3,40.7c0-0.6,0.1-1.1,0.4-1.4
		c0.2-0.3,0.6-0.5,1-0.5c0.4,0,0.7,0.2,0.9,0.4c0.3,0.3,0.4,0.9,0.4,1.6c0,0.6-0.1,1.1-0.4,1.4c-0.2,0.3-0.6,0.5-1,0.5
		c-0.4,0-0.7-0.2-0.9-0.5C78.3,41.9,78.2,41.4,78.3,40.7z M78.8,40.7c0,0.6,0,1,0.2,1.3c0.1,0.2,0.3,0.3,0.6,0.3
		c0.2,0,0.4-0.1,0.6-0.3c0.2-0.2,0.2-0.6,0.3-1.2c0-0.6,0-1-0.2-1.3c-0.1-0.2-0.3-0.3-0.6-0.3c-0.2,0-0.4,0.1-0.6,0.3
		C78.9,39.7,78.8,40.1,78.8,40.7z M81.7,40.9c0.1-0.6,0.2-1.1,0.5-1.4c0.3-0.3,0.6-0.4,1-0.4c0.4,0,0.7,0.2,0.8,0.5
		c0.2,0.4,0.3,0.9,0.2,1.6c-0.1,0.6-0.2,1.1-0.5,1.4c-0.3,0.3-0.6,0.4-1,0.4c-0.4,0-0.7-0.2-0.9-0.5C81.7,42.1,81.6,41.6,81.7,40.9z
		 M82.2,40.9c-0.1,0.6-0.1,1,0.1,1.3c0.1,0.2,0.3,0.4,0.5,0.4c0.2,0,0.4-0.1,0.6-0.3c0.2-0.2,0.3-0.6,0.4-1.2c0.1-0.6,0.1-1-0.1-1.3
		c-0.1-0.2-0.3-0.4-0.5-0.4c-0.2,0-0.4,0.1-0.6,0.3C82.4,39.9,82.3,40.3,82.2,40.9z M85.2,41.3c0.1-0.6,0.4-1.1,0.7-1.3
		c0.3-0.3,0.6-0.4,1.1-0.3c0.4,0.1,0.6,0.3,0.8,0.6c0.2,0.4,0.2,0.9,0,1.6c-0.1,0.6-0.4,1.1-0.6,1.3c-0.3,0.3-0.6,0.4-1.1,0.3
		c-0.4-0.1-0.6-0.3-0.8-0.6C85,42.5,85,42,85.2,41.3L85.2,41.3z M85.7,41.4c-0.1,0.6-0.2,1-0.1,1.3c0.1,0.2,0.3,0.4,0.5,0.4
		c0.2,0.1,0.4,0,0.6-0.2c0.2-0.2,0.4-0.6,0.5-1.2c0.1-0.6,0.2-1,0.1-1.3c-0.1-0.2-0.3-0.4-0.5-0.4c-0.2,0-0.4,0-0.6,0.2
		C86,40.5,85.8,40.8,85.7,41.4z M88.5,42.1c0.2-0.6,0.5-1,0.8-1.3c0.3-0.2,0.7-0.3,1.1-0.2c0.4,0.1,0.6,0.3,0.7,0.7
		c0.1,0.4,0.1,0.9-0.1,1.6c-0.2,0.6-0.5,1-0.8,1.3c-0.3,0.2-0.7,0.3-1.1,0.2c-0.4-0.1-0.6-0.4-0.7-0.7
		C88.3,43.3,88.3,42.8,88.5,42.1z M89,42.3c-0.2,0.6-0.3,1-0.2,1.3c0.1,0.2,0.2,0.4,0.4,0.5c0.2,0.1,0.4,0,0.6-0.1
		c0.2-0.2,0.4-0.5,0.6-1.1c0.2-0.6,0.3-1,0.2-1.3c-0.1-0.2-0.2-0.4-0.5-0.5c-0.2-0.1-0.4,0-0.6,0.1C89.4,41.3,89.2,41.7,89,42.3z
		 M91.8,43.2c0.3-0.6,0.6-1,0.9-1.2c0.3-0.2,0.7-0.2,1.1-0.1c0.3,0.2,0.6,0.4,0.7,0.7c0.1,0.4,0,0.9-0.3,1.6c-0.3,0.6-0.6,1-0.9,1.2
		s-0.7,0.2-1.1,0.1c-0.3-0.2-0.6-0.4-0.7-0.8C91.4,44.4,91.5,43.9,91.8,43.2z M92.3,43.4c-0.3,0.6-0.4,1-0.3,1.2
		c0.1,0.3,0.2,0.4,0.4,0.5c0.2,0.1,0.4,0.1,0.6-0.1c0.2-0.1,0.5-0.5,0.7-1c0.3-0.6,0.4-1,0.3-1.2c-0.1-0.3-0.2-0.4-0.4-0.5
		c-0.2-0.1-0.4-0.1-0.6,0.1C92.8,42.5,92.5,42.9,92.3,43.4z M95,44.6c0.3-0.6,0.7-0.9,1-1.1c0.4-0.2,0.7-0.2,1.1,0.1
		c0.3,0.2,0.5,0.5,0.6,0.8c0.1,0.4-0.1,0.9-0.4,1.5c-0.3,0.6-0.7,0.9-1,1.1c-0.4,0.2-0.7,0.2-1.1-0.1c-0.3-0.2-0.5-0.5-0.6-0.8
		C94.5,45.7,94.7,45.2,95,44.6z M95.5,44.9c-0.3,0.5-0.5,0.9-0.4,1.2c0,0.3,0.1,0.4,0.3,0.6c0.2,0.1,0.4,0.1,0.6,0
		c0.2-0.1,0.5-0.4,0.8-1c0.3-0.5,0.5-0.9,0.4-1.2c0-0.3-0.1-0.4-0.3-0.6c-0.2-0.1-0.4-0.1-0.6,0C96,44,95.8,44.3,95.5,44.9z
		 M97.9,46.3c0.3-0.5,0.7-0.9,1.1-1.1c0.4-0.2,0.7-0.1,1.1,0.1c0.3,0.2,0.5,0.5,0.5,0.8c0,0.4-0.1,0.9-0.5,1.5
		c-0.3,0.5-0.7,0.9-1.1,1.1c-0.4,0.2-0.7,0.1-1.1-0.1c-0.3-0.2-0.5-0.5-0.5-0.9C97.4,47.4,97.5,46.9,97.9,46.3z M98.3,46.6
		c-0.3,0.5-0.5,0.9-0.5,1.2c0,0.3,0.1,0.5,0.3,0.6c0.2,0.1,0.4,0.1,0.6,0c0.2-0.1,0.5-0.4,0.9-0.9c0.3-0.5,0.5-0.9,0.5-1.2
		c0-0.3-0.1-0.5-0.3-0.6c-0.2-0.1-0.4-0.1-0.6,0C99,45.8,98.7,46.1,98.3,46.6z M100.8,48.3c0.4-0.5,0.8-0.8,1.2-0.9
		c0.4-0.1,0.7-0.1,1.1,0.2c0.3,0.2,0.5,0.5,0.5,0.9c0,0.4-0.2,0.9-0.6,1.5c-0.4,0.5-0.8,0.8-1.2,0.9c-0.4,0.1-0.7,0.1-1.1-0.2
		c-0.3-0.2-0.5-0.5-0.5-0.9C100.1,49.3,100.3,48.8,100.8,48.3z M101.2,48.6c-0.4,0.5-0.6,0.9-0.6,1.1c0,0.3,0.1,0.5,0.3,0.6
		c0.2,0.1,0.4,0.2,0.6,0.1c0.2-0.1,0.6-0.4,0.9-0.8c0.4-0.5,0.6-0.9,0.6-1.1c0-0.3-0.1-0.5-0.3-0.6c-0.2-0.1-0.4-0.2-0.6-0.1
		C101.9,47.8,101.6,48.1,101.2,48.6z M103.5,50.5c0.4-0.5,0.9-0.7,1.2-0.8c0.4-0.1,0.7,0,1,0.3c0.3,0.3,0.4,0.6,0.4,0.9
		c0,0.4-0.3,0.9-0.8,1.4c-0.4,0.5-0.9,0.7-1.2,0.8c-0.4,0.1-0.7,0-1-0.3c-0.3-0.3-0.4-0.6-0.4-1C102.7,51.5,103,51,103.5,50.5z
		 M103.8,50.8c-0.4,0.5-0.7,0.8-0.7,1.1c0,0.3,0,0.5,0.2,0.6c0.2,0.2,0.4,0.2,0.6,0.2c0.3-0.1,0.6-0.3,1-0.7
		c0.4-0.5,0.7-0.8,0.7-1.1c0-0.3,0-0.5-0.2-0.6c-0.2-0.2-0.4-0.2-0.6-0.2C104.6,50.2,104.2,50.4,103.8,50.8z M105.9,52.9
		c0.5-0.4,0.9-0.7,1.3-0.7c0.4,0,0.7,0.1,1,0.4c0.2,0.3,0.3,0.6,0.3,0.9c-0.1,0.4-0.4,0.9-0.9,1.3c-0.5,0.4-0.9,0.7-1.3,0.7
		c-0.4,0.1-0.7-0.1-1-0.4c-0.2-0.3-0.3-0.6-0.3-1C105.1,53.8,105.4,53.4,105.9,52.9z M106.2,53.3c-0.5,0.4-0.7,0.7-0.8,1
		c-0.1,0.3,0,0.5,0.1,0.6c0.1,0.2,0.3,0.2,0.6,0.2c0.3,0,0.6-0.2,1.1-0.6c0.5-0.4,0.7-0.7,0.8-1c0.1-0.3,0-0.5-0.1-0.7
		c-0.1-0.2-0.3-0.2-0.6-0.2C107.1,52.7,106.7,52.9,106.2,53.3z M112.3,62.7c0.6-0.2,1.1-0.3,1.6,0c0.5,0.2,0.8,0.6,1,1.1
		c0.1,0.3,0.2,0.7,0.1,1c0,0.3-0.2,0.6-0.4,0.9c-0.2,0.3-0.5,0.5-0.9,0.6c-0.5,0.2-1,0.2-1.5,0.1c-0.5-0.2-0.9-0.6-1.1-1.1
		c-0.2-0.5-0.2-1.1,0-1.5C111.5,63.2,111.9,62.9,112.3,62.7L112.3,62.7z M112.5,63.2c-0.4,0.2-0.7,0.4-0.9,0.8c-0.1,0.3-0.1,0.7,0,1
		c0.1,0.4,0.4,0.6,0.7,0.8s0.7,0.1,1.2-0.1c0.3-0.1,0.6-0.3,0.7-0.5c0.1-0.2,0.2-0.4,0.3-0.6c0-0.2,0-0.5-0.1-0.7
		c-0.1-0.4-0.4-0.6-0.7-0.8C113.5,63,113,63,112.5,63.2L112.5,63.2z M115.9,66.7l0.7,2.3l-0.4,0.1l-0.5-1.8l-3.3,0.9l-0.1-0.5
		L115.9,66.7z M113,70.8l3.8-0.7l0.3,1.5c0.1,0.3,0.1,0.6,0.1,0.8c0,0.2-0.1,0.4-0.3,0.6c-0.2,0.2-0.4,0.3-0.6,0.3
		c-0.3,0.1-0.6,0-0.9-0.2c-0.3-0.2-0.4-0.5-0.5-1.1l-0.2-1l-1.5,0.3L113,70.8z M115.1,71l0.2,1c0.1,0.3,0.2,0.5,0.3,0.7
		c0.1,0.1,0.3,0.2,0.6,0.1c0.1,0,0.3-0.1,0.4-0.2c0.1-0.1,0.2-0.2,0.2-0.3c0-0.1,0-0.3,0-0.6l-0.2-1L115.1,71z M113.6,74.7l3.8-0.3
		l0,0.5l-1.6,0.1l0.2,2.1l1.6-0.1l0,0.5l-3.8,0.3l0-0.5l1.8-0.1l-0.2-2.1l-1.8,0.1L113.6,74.7z M117.6,79.2l0,0.5l-3-0.2l2.9,2.4
		l0,0.5l-3.8-0.3l0-0.5l3,0.2l-2.9-2.4l0-0.5L117.6,79.2z M113.4,83.6l0.1-0.5l3.8,0.7l-0.6,3.1l-3.8-0.7l0.1-0.5l3.3,0.6l0.4-2
		L113.4,83.6z M114.1,89.1c0.6,0.2,1,0.5,1.3,0.8c0.2,0.3,0.3,0.7,0.2,1.1c-0.1,0.4-0.3,0.6-0.7,0.7c-0.4,0.1-0.9,0.1-1.6-0.1
		c-0.6-0.2-1-0.5-1.3-0.8s-0.3-0.7-0.2-1.1c0.1-0.4,0.4-0.6,0.7-0.7C112.9,88.8,113.4,88.9,114.1,89.1z M113.9,89.6
		c-0.6-0.2-1-0.3-1.3-0.2c-0.2,0.1-0.4,0.2-0.5,0.4c-0.1,0.2,0,0.4,0.1,0.6c0.2,0.2,0.5,0.4,1.1,0.6c0.6,0.2,1,0.3,1.3,0.2
		c0.2-0.1,0.4-0.2,0.5-0.5c0.1-0.2,0-0.4-0.1-0.6C114.9,90,114.5,89.8,113.9,89.6z"/>
	<path id="path18" class="st2" d="M112.9,92.4c0.6,0.3,1,0.6,1.2,0.9c0.2,0.3,0.2,0.7,0.1,1.1c-0.2,0.3-0.4,0.6-0.7,0.7
		c-0.4,0.1-0.9,0-1.6-0.3c-0.6-0.3-1-0.6-1.2-0.9c-0.2-0.3-0.2-0.7-0.1-1.1c0.2-0.3,0.4-0.6,0.8-0.7C111.7,92,112.2,92.1,112.9,92.4
		z M112.7,92.8c-0.6-0.3-1-0.4-1.2-0.3c-0.3,0.1-0.4,0.2-0.5,0.4c-0.1,0.2-0.1,0.4,0.1,0.6c0.1,0.2,0.5,0.5,1,0.7
		c0.6,0.3,1,0.4,1.2,0.3c0.3-0.1,0.4-0.2,0.5-0.4c0.1-0.2,0.1-0.4-0.1-0.6C113.6,93.3,113.3,93.1,112.7,92.8z M111.5,95.5
		c0.6,0.3,0.9,0.7,1.1,1c0.2,0.4,0.2,0.7-0.1,1.1c-0.2,0.3-0.5,0.5-0.8,0.6c-0.4,0.1-0.9-0.1-1.5-0.4c-0.6-0.3-0.9-0.7-1.1-1
		c-0.2-0.4-0.2-0.7,0.1-1.1c0.2-0.3,0.5-0.5,0.8-0.6C110.3,95,110.8,95.2,111.5,95.5z M111.2,96c-0.5-0.3-0.9-0.5-1.2-0.4
		c-0.3,0-0.4,0.1-0.6,0.3c-0.1,0.2-0.1,0.4,0,0.6c0.1,0.2,0.4,0.5,1,0.8c0.5,0.3,0.9,0.5,1.2,0.4c0.3,0,0.4-0.1,0.6-0.4
		c0.1-0.2,0.1-0.4,0-0.6C112.1,96.5,111.7,96.3,111.2,96L111.2,96z M109.7,98.5c0.5,0.4,0.9,0.7,1,1.1c0.1,0.4,0.1,0.7-0.2,1.1
		c-0.2,0.3-0.5,0.5-0.8,0.5c-0.4,0-0.9-0.2-1.5-0.6c-0.5-0.4-0.9-0.7-1-1.1c-0.1-0.4-0.1-0.7,0.2-1.1c0.2-0.3,0.5-0.5,0.9-0.5
		C108.6,97.9,109.1,98.1,109.7,98.5z M109.4,98.9c-0.5-0.4-0.9-0.5-1.2-0.5c-0.3,0-0.5,0.1-0.6,0.3c-0.1,0.2-0.2,0.4-0.1,0.6
		c0.1,0.2,0.4,0.5,0.9,0.9c0.5,0.4,0.9,0.5,1.2,0.5c0.3,0,0.5-0.1,0.6-0.3c0.1-0.2,0.1-0.4,0.1-0.6
		C110.2,99.6,109.9,99.3,109.4,98.9z M107.7,101.4c0.5,0.4,0.8,0.8,0.9,1.2c0.1,0.4,0,0.7-0.3,1.1c-0.2,0.3-0.5,0.4-0.9,0.4
		c-0.4,0-0.9-0.3-1.4-0.7c-0.5-0.4-0.8-0.8-0.9-1.2c-0.1-0.4,0-0.7,0.3-1.1c0.2-0.3,0.6-0.4,0.9-0.4
		C106.7,100.6,107.2,100.9,107.7,101.4z M107.4,101.7c-0.5-0.4-0.8-0.6-1.1-0.7c-0.3,0-0.5,0-0.6,0.2c-0.1,0.2-0.2,0.4-0.1,0.6
		c0.1,0.3,0.3,0.6,0.8,1c0.5,0.4,0.8,0.6,1.1,0.7c0.3,0,0.5-0.1,0.6-0.2c0.1-0.2,0.2-0.4,0.1-0.6
		C108.1,102.5,107.8,102.1,107.4,101.7z M105.4,104c0.4,0.5,0.7,0.9,0.8,1.3c0.1,0.4-0.1,0.7-0.4,1c-0.3,0.3-0.6,0.4-0.9,0.3
		c-0.4-0.1-0.9-0.3-1.4-0.8c-0.4-0.5-0.7-0.9-0.8-1.3c-0.1-0.4,0-0.7,0.4-1c0.3-0.3,0.6-0.4,1-0.3C104.5,103.2,105,103.5,105.4,104z
		 M105.1,104.3c-0.4-0.4-0.8-0.7-1-0.7c-0.3,0-0.5,0-0.6,0.2c-0.2,0.2-0.2,0.4-0.2,0.6c0,0.3,0.3,0.6,0.7,1.1c0.4,0.5,0.8,0.7,1,0.7
		c0.3,0,0.5,0,0.6-0.2c0.2-0.2,0.2-0.4,0.2-0.6C105.7,105.1,105.5,104.8,105.1,104.3z M103,106.4c0.4,0.5,0.6,1,0.6,1.4
		c0,0.4-0.1,0.7-0.5,1c-0.3,0.2-0.6,0.3-1,0.2c-0.4-0.1-0.8-0.4-1.3-1c-0.4-0.5-0.6-1-0.6-1.3c0-0.4,0.1-0.7,0.5-1
		c0.3-0.2,0.6-0.3,1-0.2C102.1,105.5,102.5,105.8,103,106.4z M102.6,106.7c-0.4-0.5-0.7-0.8-1-0.8c-0.2-0.1-0.5,0-0.7,0.1
		c-0.2,0.1-0.3,0.3-0.2,0.6c0,0.3,0.2,0.6,0.6,1.1c0.4,0.5,0.7,0.8,1,0.8c0.2,0.1,0.5,0,0.7-0.1c0.2-0.1,0.3-0.3,0.2-0.6
		C103.1,107.6,102.9,107.2,102.6,106.7z M100.3,108.5c0.4,0.5,0.6,1,0.6,1.4c0,0.4-0.2,0.7-0.5,1c-0.3,0.2-0.6,0.3-1,0.2
		c-0.4-0.1-0.8-0.5-1.2-1c-0.4-0.5-0.6-1-0.6-1.4c0-0.4,0.2-0.7,0.5-1c0.3-0.2,0.6-0.3,1-0.2C99.5,107.5,99.9,107.9,100.3,108.5z
		 M99.9,108.7c-0.4-0.5-0.7-0.8-0.9-0.9c-0.2-0.1-0.5-0.1-0.7,0.1c-0.2,0.1-0.3,0.3-0.3,0.6c0,0.3,0.2,0.6,0.5,1.1
		c0.4,0.5,0.7,0.8,0.9,0.9c0.2,0.1,0.5,0.1,0.7-0.1c0.2-0.1,0.3-0.3,0.3-0.6C100.4,109.6,100.2,109.2,99.9,108.7z M97.4,110.4
		c0.3,0.6,0.5,1,0.4,1.4c0,0.4-0.2,0.7-0.6,0.9c-0.3,0.2-0.7,0.2-1,0.1c-0.4-0.1-0.8-0.5-1.1-1.1c-0.3-0.6-0.5-1-0.4-1.4
		c0-0.4,0.2-0.7,0.6-0.9c0.3-0.2,0.7-0.2,1-0.1C96.7,109.4,97.1,109.7,97.4,110.4z M97,110.6c-0.3-0.5-0.6-0.9-0.8-1
		c-0.2-0.1-0.5-0.1-0.7,0c-0.2,0.1-0.3,0.3-0.3,0.6c0,0.3,0.1,0.7,0.4,1.2c0.3,0.5,0.6,0.9,0.8,1c0.2,0.1,0.5,0.1,0.7,0
		c0.2-0.1,0.3-0.3,0.3-0.6C97.4,111.6,97.3,111.2,97,110.6z M94.4,112c0.3,0.6,0.4,1.1,0.3,1.5c-0.1,0.4-0.3,0.7-0.7,0.9
		c-0.3,0.2-0.7,0.2-1,0c-0.4-0.2-0.7-0.6-1-1.3c-0.3-0.6-0.4-1.1-0.3-1.5c0.1-0.4,0.3-0.7,0.7-0.9c0.3-0.2,0.7-0.2,1,0
		C93.7,110.9,94.1,111.4,94.4,112L94.4,112z M93.9,112.2c-0.3-0.6-0.5-0.9-0.7-1c-0.2-0.1-0.4-0.1-0.7-0.1c-0.2,0.1-0.3,0.3-0.4,0.5
		c0,0.3,0.1,0.7,0.3,1.2c0.3,0.6,0.5,0.9,0.7,1c0.2,0.1,0.4,0.1,0.7,0c0.2-0.1,0.3-0.3,0.4-0.5C94.3,113.2,94.1,112.8,93.9,112.2z
		 M91.2,113.4c0.2,0.6,0.3,1.1,0.2,1.5c-0.1,0.4-0.4,0.6-0.8,0.8c-0.4,0.1-0.7,0.1-1-0.1c-0.4-0.2-0.6-0.7-0.9-1.3
		c-0.2-0.6-0.3-1.1-0.2-1.5c0.1-0.4,0.4-0.6,0.8-0.8c0.4-0.1,0.7-0.1,1,0.1C90.7,112.3,90.9,112.7,91.2,113.4L91.2,113.4z
		 M90.7,113.5c-0.2-0.6-0.4-1-0.6-1.1c-0.2-0.2-0.4-0.2-0.7-0.1c-0.2,0.1-0.4,0.2-0.4,0.5c-0.1,0.3,0,0.7,0.2,1.3
		c0.2,0.6,0.4,1,0.6,1.1c0.2,0.2,0.4,0.2,0.7,0.1c0.2-0.1,0.3-0.2,0.4-0.5C90.9,114.5,90.9,114.1,90.7,113.5z M87.9,114.4
		c0.1,0.6,0.1,1.1,0,1.5c-0.1,0.4-0.4,0.6-0.8,0.7c-0.4,0.1-0.7,0-1-0.2c-0.3-0.3-0.6-0.7-0.7-1.4c-0.1-0.6-0.1-1.1,0-1.5
		c0.1-0.4,0.4-0.6,0.8-0.7c0.4-0.1,0.7,0,1,0.2C87.5,113.3,87.7,113.7,87.9,114.4z M87.4,114.5c-0.1-0.6-0.3-1-0.5-1.2
		c-0.2-0.2-0.4-0.2-0.6-0.2c-0.2,0.1-0.4,0.2-0.5,0.4c-0.1,0.2-0.1,0.7,0.1,1.3c0.1,0.6,0.3,1,0.5,1.2c0.2,0.2,0.4,0.2,0.6,0.2
		c0.2,0,0.4-0.2,0.5-0.4C87.5,115.6,87.5,115.1,87.4,114.5L87.4,114.5z"/>
</g>
<path id="path21" class="st2" d="M31.9,84.9c0-0.2-0.1-0.4-0.1-0.7c-0.1-0.3-0.2-0.5-0.2-0.7c0-0.2,0-0.3,0.1-0.4
	c0.1-0.1,0.2-0.1,0.3-0.1c0.1,0,0.2,0,0.3,0.1c0.1,0.1,0.1,0.2,0.1,0.4c0,0.1,0,0.3-0.1,0.6c-0.1,0.3-0.1,0.5-0.2,0.7
	c0.2-0.1,0.3-0.3,0.5-0.4c0.2-0.3,0.4-0.4,0.5-0.5c0.1-0.1,0.2-0.1,0.3-0.1c0.1,0,0.2,0,0.3,0.1c0.1,0.1,0.1,0.2,0.1,0.3
	c0,0.1-0.1,0.2-0.2,0.3c-0.1,0.1-0.4,0.2-0.8,0.3c-0.2,0.1-0.5,0.1-0.6,0.2c0.2,0.1,0.4,0.2,0.6,0.2c0.4,0.1,0.7,0.2,0.8,0.3
	c0.1,0.1,0.2,0.2,0.2,0.4c0,0.1,0,0.2-0.1,0.3c-0.1,0.1-0.2,0.1-0.3,0.1c-0.1,0-0.2,0-0.3-0.1c-0.1-0.1-0.3-0.2-0.5-0.5
	c-0.1-0.2-0.3-0.3-0.5-0.5c0,0.2,0,0.4,0.1,0.6c0.1,0.4,0.2,0.6,0.2,0.8c0,0.1,0,0.2-0.1,0.3c-0.1,0.1-0.2,0.1-0.2,0.1
	c-0.1,0-0.2,0-0.3-0.1c-0.1-0.1-0.1-0.2-0.1-0.3c0-0.2,0-0.3,0.1-0.6c0.1-0.2,0.1-0.4,0.1-0.5c0-0.1,0-0.2,0.1-0.4
	c-0.2,0.1-0.4,0.3-0.5,0.4c-0.2,0.3-0.4,0.4-0.5,0.5c-0.1,0.1-0.2,0.1-0.3,0.1c-0.1,0-0.2,0-0.3-0.1c-0.1-0.1-0.1-0.2-0.1-0.2
	c0-0.1,0-0.2,0.1-0.3c0.1-0.1,0.2-0.2,0.3-0.2c0.1,0,0.3-0.1,0.6-0.2c0.2,0,0.4-0.1,0.6-0.2c-0.2-0.1-0.4-0.2-0.6-0.2
	c-0.4-0.1-0.6-0.2-0.7-0.2c-0.1-0.1-0.2-0.2-0.2-0.4c0-0.1,0-0.2,0.1-0.2c0.1-0.1,0.2-0.1,0.3-0.1c0.1,0,0.2,0,0.3,0.1
	c0.1,0.1,0.3,0.2,0.4,0.4C31.5,84.6,31.7,84.8,31.9,84.9z"/>
<path id="path23" class="st2" d="M123.5,84.9c0-0.2-0.1-0.4-0.1-0.7c-0.1-0.3-0.2-0.5-0.2-0.7c0-0.2,0-0.3,0.1-0.4
	c0.1-0.1,0.2-0.1,0.3-0.1c0.1,0,0.2,0,0.3,0.1c0.1,0.1,0.1,0.2,0.1,0.4c0,0.1,0,0.3-0.1,0.6c-0.1,0.3-0.1,0.5-0.2,0.7
	c0.2-0.1,0.3-0.3,0.5-0.4c0.2-0.3,0.4-0.4,0.5-0.5c0.1-0.1,0.2-0.1,0.3-0.1c0.1,0,0.2,0,0.3,0.1c0.1,0.1,0.1,0.2,0.1,0.3
	c0,0.1-0.1,0.2-0.2,0.3c-0.1,0.1-0.4,0.2-0.8,0.3c-0.2,0.1-0.5,0.1-0.6,0.2c0.2,0.1,0.4,0.2,0.6,0.2c0.4,0.1,0.7,0.2,0.8,0.3
	c0.1,0.1,0.2,0.2,0.2,0.4c0,0.1,0,0.2-0.1,0.3c-0.1,0.1-0.2,0.1-0.3,0.1c-0.1,0-0.2,0-0.3-0.1c-0.1-0.1-0.3-0.2-0.5-0.5
	c-0.1-0.2-0.3-0.3-0.5-0.5c0,0.2,0,0.4,0.1,0.6c0.1,0.4,0.2,0.6,0.2,0.8c0,0.1,0,0.2-0.1,0.3c-0.1,0.1-0.2,0.1-0.2,0.1
	c-0.1,0-0.2,0-0.3-0.1c-0.1-0.1-0.1-0.2-0.1-0.3c0-0.2,0-0.3,0.1-0.6c0.1-0.2,0.1-0.4,0.1-0.5c0-0.1,0-0.2,0.1-0.4
	c-0.2,0.1-0.4,0.3-0.5,0.4c-0.2,0.3-0.4,0.4-0.5,0.5c-0.1,0.1-0.2,0.1-0.3,0.1c-0.1,0-0.2,0-0.3-0.1c-0.1-0.1-0.1-0.2-0.1-0.2
	c0-0.1,0-0.2,0.1-0.3c0.1-0.1,0.2-0.2,0.3-0.2c0.1,0,0.3-0.1,0.6-0.2c0.2,0,0.4-0.1,0.6-0.2c-0.2-0.1-0.4-0.2-0.6-0.2
	c-0.4-0.1-0.6-0.2-0.7-0.2c-0.1-0.1-0.2-0.2-0.2-0.4c0-0.1,0-0.2,0.1-0.2c0.1-0.1,0.2-0.1,0.3-0.1c0.1,0,0.2,0,0.3,0.1
	c0.1,0.1,0.3,0.2,0.4,0.4C123.1,84.6,123.3,84.8,123.5,84.9z"/>
<path id="path25" class="st2" d="M55.9,61h1v6.3l4.2-6.3h1.1v8h-1v-6.3L57,69h-1.1L55.9,61z M63.9,69v-8h3c0.6,0,1.1,0.1,1.5,0.2
	c0.4,0.2,0.7,0.4,0.9,0.7c0.2,0.3,0.3,0.7,0.3,1.1c0,0.3-0.1,0.7-0.3,1c-0.2,0.3-0.5,0.5-0.8,0.7c0.5,0.1,0.9,0.4,1.1,0.7
	c0.3,0.3,0.4,0.7,0.4,1.2c0,0.4-0.1,0.7-0.2,1c-0.2,0.3-0.4,0.6-0.6,0.7c-0.2,0.2-0.5,0.3-0.9,0.4c-0.3,0.1-0.8,0.1-1.3,0.1L63.9,69
	z M64.9,64.3h1.7c0.5,0,0.8,0,1-0.1c0.3-0.1,0.5-0.2,0.6-0.4c0.1-0.2,0.2-0.4,0.2-0.7c0-0.3-0.1-0.5-0.2-0.7
	c-0.1-0.2-0.3-0.3-0.5-0.4c-0.2-0.1-0.6-0.1-1.2-0.1h-1.6V64.3z M64.9,68h2c0.3,0,0.6,0,0.7,0c0.2,0,0.4-0.1,0.6-0.2
	c0.2-0.1,0.3-0.2,0.4-0.4c0.1-0.2,0.2-0.4,0.2-0.7c0-0.3-0.1-0.6-0.2-0.8c-0.2-0.2-0.4-0.4-0.6-0.5c-0.3-0.1-0.7-0.1-1.2-0.1h-1.8
	L64.9,68z M70.1,69l3.1-8h1.1l3.3,8h-1.2l-0.9-2.4h-3.3L71.2,69H70.1z M72.4,65.7h2.7l-0.8-2.2c-0.3-0.7-0.4-1.2-0.6-1.7
	c-0.1,0.5-0.2,1-0.4,1.5L72.4,65.7z M78.5,69v-8h1.1v3.3h4.1V61h1.1v8h-1.1v-3.8h-4.1V69H78.5z M86.2,65.1c0-1.3,0.4-2.4,1.1-3.1
	c0.7-0.7,1.6-1.1,2.8-1.1c0.7,0,1.4,0.2,2,0.5c0.6,0.4,1,0.8,1.4,1.5c0.3,0.6,0.5,1.3,0.5,2.1c0,0.8-0.2,1.5-0.5,2.2
	c-0.3,0.6-0.8,1.1-1.4,1.5c-0.6,0.3-1.2,0.5-1.9,0.5c-0.8,0-1.4-0.2-2-0.5c-0.6-0.4-1-0.9-1.3-1.5C86.3,66.4,86.2,65.8,86.2,65.1z
	 M87.3,65.1c0,1,0.3,1.7,0.8,2.3c0.5,0.6,1.2,0.8,1.9,0.8c0.8,0,1.5-0.3,2-0.8c0.5-0.6,0.8-1.4,0.8-2.4c0-0.6-0.1-1.2-0.3-1.7
	c-0.2-0.5-0.5-0.9-1-1.1c-0.4-0.3-0.9-0.4-1.4-0.4c-0.7,0-1.4,0.3-1.9,0.8C87.5,63,87.3,63.9,87.3,65.1z M95.1,69v-8h3
	c0.6,0,1.1,0.1,1.5,0.2c0.4,0.2,0.7,0.4,0.9,0.7c0.2,0.3,0.3,0.7,0.3,1.1c0,0.3-0.1,0.7-0.3,1c-0.2,0.3-0.5,0.5-0.8,0.7
	c0.5,0.1,0.9,0.4,1.1,0.7c0.3,0.3,0.4,0.7,0.4,1.2c0,0.4-0.1,0.7-0.2,1c-0.2,0.3-0.4,0.6-0.6,0.7c-0.2,0.2-0.5,0.3-0.9,0.4
	c-0.3,0.1-0.8,0.1-1.3,0.1L95.1,69z M96.2,64.3h1.7c0.5,0,0.8,0,1-0.1c0.3-0.1,0.5-0.2,0.6-0.4c0.1-0.2,0.2-0.4,0.2-0.7
	c0-0.3-0.1-0.5-0.2-0.7c-0.1-0.2-0.3-0.3-0.5-0.4c-0.2-0.1-0.6-0.1-1.2-0.1h-1.6V64.3z M96.2,68h2c0.3,0,0.6,0,0.7,0
	c0.2,0,0.4-0.1,0.6-0.2c0.2-0.1,0.3-0.2,0.4-0.4c0.1-0.2,0.2-0.4,0.2-0.7c0-0.3-0.1-0.6-0.2-0.8c-0.2-0.2-0.4-0.4-0.6-0.5
	c-0.3-0.1-0.7-0.1-1.2-0.1h-1.8V68z M66.2,73.4h1v6.3l4.2-6.3h1.1v8h-1v-6.3l-4.3,6.3h-1.1L66.2,73.4z M74.1,75.6h2.3
	c0.6,0,1,0,1.2,0.1c0.3,0.1,0.5,0.3,0.7,0.5c0.2,0.2,0.3,0.5,0.3,0.9c0,0.3-0.1,0.5-0.2,0.7c-0.1,0.2-0.3,0.4-0.5,0.5
	c0.3,0.1,0.5,0.3,0.7,0.5c0.2,0.2,0.3,0.5,0.3,0.9c0,0.5-0.2,1-0.6,1.2c-0.4,0.3-0.9,0.4-1.6,0.4h-2.6L74.1,75.6z M75,78.1h1
	c0.4,0,0.7,0,0.9-0.1c0.2,0,0.3-0.1,0.4-0.3c0.1-0.1,0.2-0.3,0.2-0.5c0-0.3-0.1-0.5-0.3-0.6c-0.2-0.1-0.6-0.2-1.1-0.2H75V78.1z
	 M75,80.6h1.3c0.6,0,0.9-0.1,1.1-0.2c0.2-0.1,0.3-0.4,0.3-0.7c0-0.2-0.1-0.4-0.2-0.5c-0.1-0.2-0.3-0.3-0.5-0.3
	c-0.2,0-0.5-0.1-0.9-0.1H75V80.6z M83.6,80.7c-0.4,0.3-0.7,0.5-1,0.7c-0.3,0.1-0.7,0.2-1.1,0.2c-0.6,0-1.1-0.2-1.5-0.5
	c-0.3-0.3-0.5-0.7-0.5-1.2c0-0.3,0.1-0.5,0.2-0.8c0.1-0.2,0.3-0.4,0.5-0.6c0.2-0.1,0.4-0.2,0.7-0.3c0.2-0.1,0.5-0.1,0.9-0.1
	c0.8-0.1,1.4-0.2,1.7-0.3c0-0.1,0-0.2,0-0.3c0-0.4-0.1-0.7-0.3-0.8c-0.2-0.2-0.6-0.3-1.1-0.3c-0.5,0-0.8,0.1-1,0.2
	c-0.2,0.2-0.4,0.4-0.5,0.9l-1-0.1c0.1-0.4,0.2-0.7,0.4-1c0.2-0.3,0.5-0.4,0.9-0.6c0.4-0.1,0.8-0.2,1.3-0.2c0.5,0,0.9,0.1,1.2,0.2
	c0.3,0.1,0.5,0.3,0.7,0.4c0.1,0.2,0.2,0.4,0.3,0.7c0,0.2,0,0.5,0,0.9V79c0,0.9,0,1.5,0.1,1.7c0,0.2,0.1,0.5,0.2,0.7h-1
	C83.7,81.2,83.7,81,83.6,80.7L83.6,80.7z M83.6,78.5c-0.4,0.1-0.9,0.3-1.6,0.4c-0.4,0.1-0.7,0.1-0.9,0.2c-0.2,0.1-0.3,0.2-0.4,0.3
	c-0.1,0.1-0.1,0.3-0.1,0.5c0,0.3,0.1,0.5,0.3,0.7c0.2,0.2,0.5,0.3,0.9,0.3c0.4,0,0.7-0.1,1-0.2c0.3-0.2,0.5-0.4,0.6-0.7
	c0.1-0.2,0.2-0.5,0.2-1L83.6,78.5z M86.1,75.6h1v2.4h2.7v-2.4h1v5.8h-1v-2.6H87v2.6h-1L86.1,75.6z M54.1,85.9h1v6.3l4.2-6.3h1.1v8
	h-1v-6.3l-4.3,6.3h-1.1V85.9z M62,88.1h2.3c0.6,0,1,0,1.2,0.1c0.3,0.1,0.5,0.3,0.7,0.5c0.2,0.2,0.3,0.5,0.3,0.9
	c0,0.3-0.1,0.5-0.2,0.7c-0.1,0.2-0.3,0.4-0.5,0.5c0.3,0.1,0.5,0.3,0.7,0.5c0.2,0.2,0.3,0.5,0.3,0.9c0,0.5-0.2,1-0.6,1.2
	c-0.4,0.3-0.9,0.4-1.6,0.4H62L62,88.1z M63,90.5h1c0.4,0,0.7,0,0.9-0.1c0.2,0,0.3-0.1,0.4-0.3c0.1-0.1,0.2-0.3,0.2-0.5
	c0-0.3-0.1-0.5-0.3-0.6c-0.2-0.1-0.6-0.2-1.1-0.2H63L63,90.5z M63,93.1h1.3c0.6,0,0.9-0.1,1.1-0.2c0.2-0.1,0.3-0.4,0.3-0.7
	c0-0.2-0.1-0.4-0.2-0.5c-0.1-0.2-0.3-0.3-0.5-0.3c-0.2,0-0.5-0.1-0.9-0.1H63L63,93.1z M71.5,93.2c-0.4,0.3-0.7,0.5-1,0.7
	C70.2,94,69.8,94,69.4,94c-0.6,0-1.1-0.2-1.5-0.5c-0.3-0.3-0.5-0.7-0.5-1.2c0-0.3,0.1-0.5,0.2-0.8c0.1-0.2,0.3-0.4,0.5-0.6
	c0.2-0.1,0.4-0.2,0.7-0.3c0.2-0.1,0.5-0.1,0.9-0.1c0.8-0.1,1.4-0.2,1.7-0.3c0-0.1,0-0.2,0-0.3c0-0.4-0.1-0.7-0.3-0.8
	c-0.2-0.2-0.6-0.3-1.1-0.3c-0.5,0-0.8,0.1-1,0.2c-0.2,0.2-0.4,0.4-0.5,0.9l-1-0.1c0.1-0.4,0.2-0.7,0.4-1c0.2-0.3,0.5-0.4,0.9-0.6
	c0.4-0.1,0.8-0.2,1.3-0.2c0.5,0,0.9,0.1,1.2,0.2c0.3,0.1,0.5,0.3,0.7,0.4c0.1,0.2,0.2,0.4,0.3,0.7c0,0.2,0,0.5,0,0.9v1.3
	c0,0.9,0,1.5,0.1,1.7c0,0.2,0.1,0.5,0.2,0.7h-1C71.6,93.7,71.6,93.4,71.5,93.2z M71.5,91c-0.4,0.1-0.9,0.3-1.6,0.4
	c-0.4,0.1-0.7,0.1-0.9,0.2c-0.2,0.1-0.3,0.2-0.4,0.3c-0.1,0.1-0.1,0.3-0.1,0.5c0,0.3,0.1,0.5,0.3,0.7c0.2,0.2,0.5,0.3,0.9,0.3
	c0.4,0,0.7-0.1,1-0.2c0.3-0.2,0.5-0.4,0.6-0.7c0.1-0.2,0.2-0.5,0.2-1L71.5,91z M74,88.1h1v2.4h2.7v-2.4h1v5.8h-1v-2.6H75v2.6h-1
	L74,88.1z M79.8,91c0-1.1,0.3-1.9,0.9-2.4c0.5-0.4,1.1-0.6,1.8-0.6c0.8,0,1.4,0.3,2,0.8c0.5,0.5,0.8,1.2,0.8,2.2
	c0,0.7-0.1,1.3-0.3,1.8c-0.2,0.4-0.5,0.8-1,1C83.5,93.9,83,94,82.5,94c-0.8,0-1.5-0.3-2-0.8C80,92.7,79.8,92,79.8,91z M80.8,91
	c0,0.7,0.2,1.3,0.5,1.7c0.3,0.4,0.7,0.6,1.2,0.6c0.5,0,0.9-0.2,1.2-0.6c0.3-0.4,0.5-0.9,0.5-1.7c0-0.7-0.2-1.3-0.5-1.6
	c-0.3-0.4-0.7-0.6-1.2-0.6c-0.5,0-0.9,0.2-1.2,0.6C80.9,89.7,80.8,90.3,80.8,91z M86.3,88.1h2.3c0.6,0,1,0,1.2,0.1
	c0.3,0.1,0.5,0.3,0.7,0.5c0.2,0.2,0.3,0.5,0.3,0.9c0,0.3-0.1,0.5-0.2,0.7c-0.1,0.2-0.3,0.4-0.5,0.5c0.3,0.1,0.5,0.3,0.7,0.5
	c0.2,0.2,0.3,0.5,0.3,0.9c0,0.5-0.2,1-0.6,1.2c-0.4,0.3-0.9,0.4-1.6,0.4h-2.6L86.3,88.1z M87.3,90.5h1c0.4,0,0.7,0,0.9-0.1
	c0.2,0,0.3-0.1,0.4-0.3c0.1-0.1,0.2-0.3,0.2-0.5c0-0.3-0.1-0.5-0.3-0.6c-0.2-0.1-0.6-0.2-1.1-0.2h-1.1L87.3,90.5z M87.3,93.1h1.3
	c0.6,0,0.9-0.1,1.1-0.2c0.2-0.1,0.3-0.4,0.3-0.7c0-0.2-0.1-0.4-0.2-0.5c-0.1-0.2-0.3-0.3-0.5-0.3c-0.2,0-0.5-0.1-0.9-0.1h-1.2V93.1z
	 M92.3,88.1h1v4.4l2.7-4.4H97v5.8h-1v-4.4l-2.7,4.4h-1.1V88.1z M98.1,88.1h1v1.1c0,0.5,0,0.8,0.1,1c0.1,0.2,0.2,0.4,0.4,0.6
	c0.2,0.2,0.5,0.2,0.8,0.2c0.4,0,0.8-0.1,1.4-0.3v-2.6h1v5.8h-1v-2.3c-0.6,0.2-1.2,0.3-1.7,0.3c-0.4,0-0.8-0.1-1.2-0.3
	c-0.3-0.2-0.6-0.5-0.7-0.8c-0.1-0.3-0.2-0.7-0.2-1.1L98.1,88.1z"/>
<path id="path27" class="st1" d="M78.2,36.7c22.9,0,41.5,18.6,41.5,41.5c0,22.9-18.6,41.5-41.5,41.5c-22.9,0-41.5-18.6-41.5-41.5
	C36.6,55.3,55.2,36.7,78.2,36.7z"/>
</svg>
