<?xml version="1.0" encoding="utf-8"?>
<!-- Generator: Adobe Illustrator 26.4.1, SVG Export Plug-In . SVG Version: 6.00 Build 0)  -->
<svg version="1.1"
	 id="svg34" xmlns:svg="http://www.w3.org/2000/svg" xmlns:rdf="http://www.w3.org/1999/02/22-rdf-syntax-ns#" xmlns:cc="http://creativecommons.org/ns#" xmlns:dc="http://purl.org/dc/elements/1.1/"
	 xmlns="http://www.w3.org/2000/svg" xmlns:xlink="http://www.w3.org/1999/xlink" x="0px" y="0px" viewBox="0 0 155.9 155.9"
	 style="enable-background:new 0 0 155.9 155.9;" xml:space="preserve">
<style type="text/css">
	.st0{fill:none;stroke:#1B1918;stroke-width:1.4173;}
	.st1{fill:none;stroke:#1B1918;stroke-width:0.7087;}
	.st2{fill-rule:evenodd;clip-rule:evenodd;fill:#1B1918;}
	.st3{fill:none;stroke:#1B1918;stroke-width:0.5669;}
	.st4{fill:none;}
</style>
<path id="path2" class="st0" d="M78.7,25c29.3,0,53,23.7,53,53c0,29.3-23.7,53-53,53c-29.3,0-53-23.7-53-53
	C25.7,48.7,49.5,25,78.7,25z"/>
<path id="path4" class="st1" d="M79,44.9c18.4,0,33.3,14.9,33.3,33.3S97.4,111.5,79,111.5S45.6,96.6,45.6,78.2S60.6,44.9,79,44.9z"
	/>
<path id="path6" class="st2" d="M103.8,105.1c0-0.2-0.1-0.4-0.1-0.6c-0.1-0.3-0.2-0.5-0.2-0.6c0-0.2,0-0.3,0.1-0.3
	c0.1-0.1,0.2-0.1,0.3-0.1c0.1,0,0.2,0,0.2,0.1c0.1,0.1,0.1,0.2,0.1,0.3c0,0.1,0,0.3-0.1,0.5c-0.1,0.2-0.1,0.5-0.1,0.7
	c0.2-0.1,0.3-0.2,0.4-0.4c0.2-0.2,0.3-0.4,0.4-0.4c0.1-0.1,0.2-0.1,0.3-0.1c0.1,0,0.2,0,0.2,0.1c0.1,0.1,0.1,0.1,0.1,0.2
	c0,0.1,0,0.2-0.1,0.3c-0.1,0.1-0.3,0.2-0.7,0.3c-0.2,0.1-0.4,0.1-0.6,0.2c0.2,0.1,0.3,0.1,0.6,0.2c0.4,0.1,0.6,0.1,0.7,0.2
	c0.1,0.1,0.2,0.2,0.2,0.3c0,0.1,0,0.2-0.1,0.2c-0.1,0.1-0.1,0.1-0.2,0.1c-0.1,0-0.2,0-0.3-0.1c-0.1-0.1-0.3-0.2-0.4-0.4
	c-0.1-0.1-0.3-0.3-0.4-0.4c0,0.2,0,0.3,0.1,0.5c0.1,0.3,0.2,0.6,0.2,0.7c0,0.1,0,0.2-0.1,0.3c-0.1,0.1-0.1,0.1-0.2,0.1
	c-0.1,0-0.2,0-0.3-0.1c-0.1-0.1-0.1-0.2-0.1-0.3c0-0.1,0-0.3,0.1-0.5c0.1-0.2,0.1-0.3,0.1-0.4c0-0.1,0-0.2,0-0.3
	c-0.2,0.1-0.3,0.2-0.5,0.4c-0.2,0.2-0.4,0.4-0.5,0.5c-0.1,0-0.2,0.1-0.2,0.1c-0.1,0-0.2,0-0.3-0.1c-0.1-0.1-0.1-0.1-0.1-0.2
	c0-0.1,0-0.1,0.1-0.2c0.1-0.1,0.1-0.1,0.3-0.2c0.1,0,0.3-0.1,0.5-0.1c0.2,0,0.4-0.1,0.5-0.2c-0.2-0.1-0.3-0.1-0.6-0.2
	c-0.4-0.1-0.6-0.1-0.7-0.2c-0.1-0.1-0.2-0.2-0.2-0.3c0-0.1,0-0.2,0.1-0.2c0.1-0.1,0.1-0.1,0.2-0.1c0.1,0,0.2,0,0.3,0.1
	c0.1,0.1,0.2,0.2,0.4,0.4C103.5,104.9,103.7,105,103.8,105.1L103.8,105.1z"/>
<path id="path8" class="st2" d="M53.9,106.2c0-0.2-0.1-0.4-0.1-0.6c-0.1-0.3-0.2-0.5-0.2-0.6c0-0.2,0-0.3,0.1-0.3
	c0.1-0.1,0.2-0.1,0.3-0.1c0.1,0,0.2,0,0.2,0.1c0.1,0.1,0.1,0.2,0.1,0.3c0,0.1,0,0.3-0.1,0.5c-0.1,0.2-0.1,0.5-0.1,0.7
	c0.2-0.1,0.3-0.2,0.4-0.4c0.2-0.2,0.3-0.4,0.4-0.4c0.1-0.1,0.2-0.1,0.3-0.1c0.1,0,0.2,0,0.2,0.1c0.1,0.1,0.1,0.1,0.1,0.2
	c0,0.1,0,0.2-0.1,0.3c-0.1,0.1-0.3,0.2-0.7,0.3c-0.2,0.1-0.4,0.1-0.6,0.2c0.2,0.1,0.3,0.1,0.6,0.2c0.4,0.1,0.6,0.1,0.7,0.2
	c0.1,0.1,0.2,0.2,0.2,0.3c0,0.1,0,0.2-0.1,0.2c-0.1,0.1-0.1,0.1-0.2,0.1c-0.1,0-0.2,0-0.3-0.1c-0.1-0.1-0.3-0.2-0.4-0.4
	c-0.1-0.1-0.3-0.3-0.4-0.4c0,0.2,0,0.3,0.1,0.5c0.1,0.3,0.2,0.6,0.2,0.7c0,0.1,0,0.2-0.1,0.3c-0.1,0.1-0.1,0.1-0.2,0.1
	c-0.1,0-0.2,0-0.3-0.1c-0.1-0.1-0.1-0.2-0.1-0.3c0-0.1,0-0.3,0.1-0.5c0.1-0.2,0.1-0.3,0.1-0.4c0-0.1,0-0.2,0-0.3
	c-0.2,0.1-0.3,0.2-0.5,0.4c-0.2,0.2-0.4,0.4-0.5,0.5c-0.1,0-0.2,0.1-0.2,0.1c-0.1,0-0.2,0-0.3-0.1c-0.1-0.1-0.1-0.1-0.1-0.2
	c0-0.1,0-0.1,0.1-0.2c0.1-0.1,0.1-0.1,0.3-0.2c0.1,0,0.3-0.1,0.5-0.1c0.2,0,0.4-0.1,0.5-0.2c-0.2-0.1-0.3-0.1-0.6-0.2
	c-0.4-0.1-0.6-0.1-0.7-0.2c-0.1-0.1-0.2-0.2-0.2-0.3c0-0.1,0-0.2,0.1-0.2c0.1-0.1,0.1-0.1,0.2-0.1c0.1,0,0.2,0,0.3,0.1
	c0.1,0.1,0.2,0.2,0.4,0.4C53.5,106,53.7,106.1,53.9,106.2z"/>
<path id="path10" class="st2" d="M85.4,32.1c0-0.2-0.1-0.4-0.1-0.7c-0.1-0.3-0.2-0.5-0.2-0.7c0-0.2,0-0.3,0.1-0.4
	c0.1-0.1,0.2-0.1,0.3-0.1c0.1,0,0.2,0,0.3,0.1c0.1,0.1,0.1,0.2,0.1,0.4c0,0.1,0,0.3-0.1,0.6c-0.1,0.3-0.1,0.5-0.2,0.7
	c0.2-0.1,0.3-0.3,0.5-0.4c0.2-0.3,0.4-0.4,0.5-0.5c0.1-0.1,0.2-0.1,0.3-0.1c0.1,0,0.2,0,0.3,0.1c0.1,0.1,0.1,0.2,0.1,0.3
	c0,0.1-0.1,0.2-0.2,0.3c-0.1,0.1-0.4,0.2-0.8,0.3c-0.2,0.1-0.5,0.1-0.6,0.2c0.2,0.1,0.4,0.2,0.6,0.2c0.4,0.1,0.7,0.2,0.8,0.3
	c0.1,0.1,0.2,0.2,0.2,0.4c0,0.1,0,0.2-0.1,0.3c-0.1,0.1-0.2,0.1-0.3,0.1c-0.1,0-0.2,0-0.3-0.1c-0.1-0.1-0.3-0.2-0.5-0.5
	c-0.1-0.2-0.3-0.3-0.5-0.5c0,0.2,0,0.4,0.1,0.6c0.1,0.4,0.2,0.6,0.2,0.8c0,0.1,0,0.2-0.1,0.3c-0.1,0.1-0.2,0.1-0.2,0.1
	c-0.1,0-0.2,0-0.3-0.1c-0.1-0.1-0.1-0.2-0.1-0.3c0-0.2,0-0.3,0.1-0.6c0.1-0.2,0.1-0.4,0.1-0.5c0-0.1,0-0.2,0.1-0.4
	c-0.2,0.1-0.4,0.3-0.5,0.4c-0.2,0.3-0.4,0.4-0.5,0.5c-0.1,0.1-0.2,0.1-0.3,0.1c-0.1,0-0.2,0-0.3-0.1c-0.1-0.1-0.1-0.2-0.1-0.2
	c0-0.1,0-0.2,0.1-0.3c0.1-0.1,0.2-0.2,0.3-0.2c0.1,0,0.3-0.1,0.6-0.2c0.2,0,0.4-0.1,0.6-0.2c-0.2-0.1-0.4-0.2-0.6-0.2
	c-0.4-0.1-0.6-0.2-0.7-0.2c-0.1-0.1-0.2-0.2-0.2-0.4c0-0.1,0-0.2,0.1-0.2c0.1-0.1,0.2-0.1,0.3-0.1c0.1,0,0.2,0,0.3,0.1
	c0.1,0.1,0.3,0.2,0.4,0.4C85,31.8,85.2,31.9,85.4,32.1z"/>
<path id="path12" class="st2" d="M112.6,109.7c0-0.2-0.1-0.4-0.1-0.7c-0.1-0.3-0.2-0.5-0.2-0.7c0-0.2,0-0.3,0.1-0.4
	c0.1-0.1,0.2-0.1,0.3-0.1c0.1,0,0.2,0,0.3,0.1c0.1,0.1,0.1,0.2,0.1,0.4c0,0.1,0,0.3-0.1,0.6c-0.1,0.3-0.1,0.5-0.2,0.7
	c0.2-0.1,0.3-0.3,0.5-0.4c0.2-0.3,0.4-0.4,0.5-0.5c0.1-0.1,0.2-0.1,0.3-0.1c0.1,0,0.2,0,0.3,0.1c0.1,0.1,0.1,0.2,0.1,0.3
	c0,0.1-0.1,0.2-0.2,0.3c-0.1,0.1-0.4,0.2-0.8,0.3c-0.2,0.1-0.5,0.1-0.6,0.2c0.2,0.1,0.4,0.2,0.6,0.2c0.4,0.1,0.7,0.2,0.8,0.3
	c0.1,0.1,0.2,0.2,0.2,0.4c0,0.1,0,0.2-0.1,0.3c-0.1,0.1-0.2,0.1-0.3,0.1c-0.1,0-0.2,0-0.3-0.1c-0.1-0.1-0.3-0.2-0.5-0.5
	c-0.1-0.2-0.3-0.3-0.5-0.5c0,0.2,0,0.4,0.1,0.6c0.1,0.4,0.2,0.6,0.2,0.8c0,0.1,0,0.2-0.1,0.3c-0.1,0.1-0.2,0.1-0.2,0.1
	c-0.1,0-0.2,0-0.3-0.1c-0.1-0.1-0.1-0.2-0.1-0.3c0-0.2,0-0.3,0.1-0.6c0.1-0.2,0.1-0.4,0.1-0.5c0-0.1,0-0.2,0.1-0.4
	c-0.2,0.1-0.4,0.3-0.5,0.4c-0.2,0.3-0.4,0.4-0.5,0.5c-0.1,0.1-0.2,0.1-0.3,0.1c-0.1,0-0.2,0-0.3-0.1c-0.1-0.1-0.1-0.2-0.1-0.2
	c0-0.1,0-0.2,0.1-0.3c0.1-0.1,0.2-0.2,0.3-0.2c0.1,0,0.3-0.1,0.6-0.2c0.2,0,0.4-0.1,0.6-0.2c-0.2-0.1-0.4-0.2-0.6-0.2
	c-0.4-0.1-0.6-0.2-0.7-0.2c-0.1-0.1-0.2-0.2-0.2-0.4c0-0.1,0-0.2,0.1-0.2c0.1-0.1,0.2-0.1,0.3-0.1c0.1,0,0.2,0,0.3,0.1
	c0.1,0.1,0.3,0.2,0.4,0.4C112.2,109.4,112.4,109.6,112.6,109.7L112.6,109.7z"/>
<path id="path14" class="st2" d="M44.5,109.5c0-0.2-0.1-0.4-0.1-0.7c-0.1-0.3-0.2-0.5-0.2-0.7c0-0.2,0-0.3,0.1-0.4
	c0.1-0.1,0.2-0.1,0.3-0.1c0.1,0,0.2,0,0.3,0.1c0.1,0.1,0.1,0.2,0.1,0.4c0,0.1,0,0.3-0.1,0.6c-0.1,0.3-0.1,0.5-0.2,0.7
	c0.2-0.1,0.3-0.3,0.5-0.4c0.2-0.3,0.4-0.4,0.5-0.5c0.1-0.1,0.2-0.1,0.3-0.1c0.1,0,0.2,0,0.3,0.1c0.1,0.1,0.1,0.2,0.1,0.3
	c0,0.1-0.1,0.2-0.2,0.3c-0.1,0.1-0.4,0.2-0.8,0.3c-0.2,0.1-0.5,0.1-0.6,0.2c0.2,0.1,0.4,0.2,0.6,0.2c0.4,0.1,0.7,0.2,0.8,0.3
	c0.1,0.1,0.2,0.2,0.2,0.4c0,0.1,0,0.2-0.1,0.3c-0.1,0.1-0.2,0.1-0.3,0.1c-0.1,0-0.2,0-0.3-0.1c-0.1-0.1-0.3-0.2-0.5-0.5
	c-0.1-0.2-0.3-0.3-0.5-0.5c0,0.2,0,0.4,0.1,0.6c0.1,0.4,0.2,0.6,0.2,0.8c0,0.1,0,0.2-0.1,0.3c-0.1,0.1-0.2,0.1-0.2,0.1
	c-0.1,0-0.2,0-0.3-0.1c-0.1-0.1-0.1-0.2-0.1-0.3c0-0.2,0-0.3,0.1-0.6c0.1-0.2,0.1-0.4,0.1-0.5c0-0.1,0-0.2,0.1-0.4
	c-0.2,0.1-0.4,0.3-0.5,0.4c-0.2,0.3-0.4,0.4-0.5,0.5c-0.1,0.1-0.2,0.1-0.3,0.1c-0.1,0-0.2,0-0.3-0.1c-0.1-0.1-0.1-0.2-0.1-0.2
	c0-0.1,0-0.2,0.1-0.3c0.1-0.1,0.2-0.2,0.3-0.2c0.1,0,0.3-0.1,0.6-0.2c0.2,0,0.4-0.1,0.6-0.2c-0.2-0.1-0.4-0.2-0.6-0.2
	c-0.4-0.1-0.6-0.2-0.7-0.2c-0.1-0.1-0.2-0.2-0.2-0.4c0-0.1,0-0.2,0.1-0.2c0.1-0.1,0.2-0.1,0.3-0.1c0.1,0,0.2,0,0.3,0.1
	c0.1,0.1,0.3,0.2,0.4,0.4C44.1,109.2,44.3,109.4,44.5,109.5z"/>
<path id="path16" class="st3" d="M78.7,26.6c28.3,0,51.3,23,51.3,51.3c0,28.3-23,51.3-51.3,51.3c-28.3,0-51.3-23-51.3-51.3
	C27.3,49.5,50.3,26.6,78.7,26.6z"/>
<path id="path18" class="st2" d="M45.2,99.4l-0.3-0.5l3.6-2.1l-4.9-0.2L43.3,96l4.5-2.6l0.3,0.5L44.5,96l4.9,0.2l0.3,0.6L45.2,99.4z
	 M47.3,92.2l-4.9,1.9l-0.2-0.6l2-0.8l-1-2.4l-2,0.8L41,90.5l4.9-1.9l0.2,0.6l-2.3,0.9l1,2.4l2.3-0.9L47.3,92.2z M40.3,88l-0.7-2.9
	l4.5-1L44,83.6l1.8-0.4l0.1,0.6L44.8,84l0.7,3.2l1.2-0.3l0.1,0.6l-1.8,0.4L45,87.6c-0.7-0.3-2-0.2-3.9,0.3L40.3,88z M40.4,85.6
	l0.4,1.7l0.3-0.1c0.4-0.1,1-0.2,1.8-0.3c0.8-0.1,1.4-0.1,2,0l-0.5-2.2L40.4,85.6z M39.4,82.8l0-0.6l4.1-0.3l-4.3-2.3l-0.1-0.7
	l5.2-0.4l0,0.6l-4.1,0.3l4.3,2.3l0,0.7L39.4,82.8z M44.3,77.2l-5.2-0.4l0.1-1.9c0-0.4,0.1-0.7,0.2-0.9c0.1-0.2,0.3-0.4,0.5-0.5
	c0.2-0.1,0.5-0.2,0.7-0.2c0.2,0,0.4,0.1,0.6,0.2c0.2,0.1,0.3,0.3,0.4,0.5c0.1-0.3,0.3-0.5,0.5-0.6c0.2-0.1,0.5-0.2,0.8-0.2
	c0.3,0,0.6,0.1,0.8,0.3c0.2,0.2,0.4,0.4,0.5,0.6c0.1,0.3,0.1,0.6,0.1,1L44.3,77.2z M41.3,76.4l0.1-1.1c0-0.3,0-0.5,0-0.6
	c0-0.2-0.1-0.3-0.2-0.4c-0.1-0.1-0.3-0.2-0.5-0.2c-0.2,0-0.3,0-0.5,0.1c-0.1,0.1-0.2,0.2-0.3,0.3c-0.1,0.1-0.1,0.4-0.1,0.7l-0.1,1
	L41.3,76.4z M43.8,76.5l0.1-1.2c0-0.3,0-0.5,0-0.6c0-0.2-0.1-0.3-0.3-0.4c-0.1-0.1-0.3-0.2-0.5-0.2c-0.2,0-0.4,0-0.5,0.1
	c-0.1,0.1-0.3,0.2-0.3,0.4c-0.1,0.2-0.1,0.4-0.2,0.7L42,76.4L43.8,76.5z M39.7,71.2l0.1-0.6l4,0.9L40.4,68l0.1-0.6l5.1,1.2l-0.1,0.6
	l-4-0.9l3.4,3.5l-0.1,0.6L39.7,71.2z M41.3,65l1.1-2.8l4.3,1.7l0.2-0.4l1.7,0.7l-0.2,0.5l-1.1-0.4L46,67.3l1.1,0.4L47,68.2l-1.7-0.7
	l0.1-0.4c-0.4-0.6-1.6-1.3-3.3-2L41.3,65z M42.8,63l-0.6,1.6l0.2,0.1c0.4,0.2,1,0.4,1.6,0.8c0.7,0.4,1.2,0.7,1.6,1.1l0.8-2.1
	L42.8,63z M43.1,60.6l0.3-0.6l3.6,0.2L45,57.4l0.3-0.6l2.6,3.6c0.3,0.5,0.5,0.8,0.6,1c0.1,0.2,0,0.4-0.1,0.7
	c-0.1,0.2-0.2,0.3-0.4,0.5l-0.5-0.3c0.2-0.1,0.3-0.2,0.4-0.4c0.1-0.1,0.1-0.3,0.1-0.4c0-0.2-0.2-0.4-0.4-0.7L43.1,60.6z M49.9,59.1
	L47,54.4l0.4-0.6l5.4,1.6l-0.5,0.6l-1.6-0.5l-1.3,1.7l0.9,1.4L49.9,59.1z M49.1,56.7l1-1.3l-1.5-0.5c-0.4-0.1-0.8-0.3-1.1-0.4
	c0.2,0.3,0.4,0.5,0.6,0.8L49.1,56.7z M49.9,50.9l2.3-2.2l3.6,3.8l-0.5,0.5l-3.2-3.3l-1.3,1.2l1.9,1.9c0.4,0.4,0.6,0.7,0.8,0.9
	c0.1,0.2,0.2,0.4,0.2,0.7c0,0.2-0.1,0.4-0.3,0.6c-0.1,0.1-0.3,0.2-0.4,0.3l-0.3-0.5c0.1,0,0.2-0.1,0.3-0.1c0.1-0.1,0.1-0.2,0.1-0.4
	c0-0.1-0.2-0.4-0.5-0.7L49.9,50.9z M53.5,47.5l0.5-0.4l1.4,1.8l0.9-0.7c0.3-0.3,0.6-0.4,0.9-0.5c0.3-0.1,0.5-0.1,0.8,0
	c0.3,0.1,0.5,0.3,0.7,0.5c0.2,0.3,0.4,0.7,0.3,1.1c0,0.4-0.3,0.8-0.9,1.3l-1.5,1.2L53.5,47.5z M56.9,50.7l0.9-0.7
	c0.3-0.3,0.5-0.5,0.6-0.7c0.1-0.2,0-0.5-0.2-0.7c-0.1-0.2-0.3-0.3-0.5-0.3c-0.2,0-0.3,0-0.5,0c-0.2,0.1-0.4,0.2-0.8,0.5l-0.7,0.5
	L56.9,50.7z M60.6,48.8L58,44.3l0.6-0.3l1.1,1.9l2.2-1.3l-1.1-1.9l0.6-0.3l2.6,4.5l-0.6,0.3L62.2,45L60,46.3l1.2,2.1L60.6,48.8z
	 M63.6,41.3l0.6-0.2l0.7,2.1l1.1-0.4c0.4-0.1,0.8-0.2,1-0.2c0.3,0,0.5,0.1,0.7,0.3c0.2,0.2,0.4,0.4,0.5,0.7c0.1,0.4,0.1,0.8,0,1.1
	c-0.1,0.4-0.6,0.7-1.2,0.9l-1.8,0.6L63.6,41.3z M65.7,45.5l1.1-0.4c0.4-0.1,0.6-0.3,0.8-0.5c0.1-0.2,0.1-0.5,0-0.8
	c-0.1-0.2-0.2-0.4-0.3-0.5c-0.2-0.1-0.3-0.1-0.5-0.1c-0.2,0-0.5,0.1-0.9,0.2l-0.8,0.3L65.7,45.5z M69.7,44.8L68,39.8l0.6-0.2
	l1.7,4.9L69.7,44.8z M70.7,39.2l0.6-0.1l0.7,4.1l1.9-4.6l0.6-0.1l0.9,5.1l-0.6,0.1l-0.7-4.1l-1.9,4.6l-0.6,0.1L70.7,39.2z
	 M73.1,37.5l0.4-0.1c0,0.3,0,0.6-0.2,0.7c-0.1,0.2-0.4,0.3-0.6,0.3c-0.3,0-0.5,0-0.7-0.1c-0.2-0.1-0.3-0.3-0.4-0.6l0.4-0.1
	c0.1,0.3,0.3,0.4,0.6,0.4c0.2,0,0.3-0.1,0.4-0.2C73.1,37.8,73.1,37.6,73.1,37.5z M79.4,43.6l-0.7,0l0.1-5.2l3.9,0.1l-0.1,5.2l-0.7,0
	l0.1-4.6L79.6,39L79.4,43.6z M84,43.9l0.9-5.1l1.8,0.3c0.4,0.1,0.7,0.2,0.9,0.3c0.3,0.1,0.5,0.3,0.6,0.6c0.1,0.3,0.2,0.6,0.1,0.9
	c-0.1,0.5-0.3,0.8-0.6,1.1c-0.3,0.2-0.8,0.3-1.5,0.2L85,41.9L84.6,44L84,43.9z M85.1,41.3l1.3,0.2c0.4,0.1,0.7,0,0.9-0.1
	c0.2-0.1,0.3-0.3,0.4-0.7c0-0.2,0-0.4,0-0.5c-0.1-0.2-0.2-0.3-0.3-0.4c-0.1-0.1-0.3-0.1-0.7-0.2l-1.3-0.2L85.1,41.3z M88.8,44.9
	l1.7-4.9l3.4,1.2l-0.2,0.6l-2.8-0.9l-0.5,1.5l2.6,0.9l-0.2,0.6l-2.6-0.9l-0.6,1.7l2.9,1l-0.2,0.6L88.8,44.9z M96.1,42.2l2.7,1.4
	l-2.1,4.1l0.4,0.2l-0.8,1.6l-0.5-0.3l0.6-1.1l-2.9-1.5l-0.6,1.1l-0.5-0.3l0.8-1.6l0.3,0.2c0.6-0.4,1.4-1.4,2.3-3.1L96.1,42.2z
	 M97.9,43.8L96.4,43l-0.1,0.2c-0.2,0.4-0.5,0.9-0.9,1.6c-0.4,0.6-0.8,1.1-1.3,1.5l2,1L97.9,43.8z M98.2,49.4L97.7,49l3-4.3l3.2,2.3
	l-3,4.3l-0.5-0.4l2.7-3.8l-2.1-1.5L98.2,49.4z M101.8,52.2l3.6-3.8l1.4,1.3c0.3,0.3,0.5,0.6,0.6,0.7c0.1,0.3,0.2,0.5,0.2,0.8
	c0,0.3-0.2,0.6-0.4,0.8c-0.3,0.3-0.7,0.5-1.1,0.5c-0.4,0-0.9-0.2-1.4-0.7l-0.9-0.9l-1.5,1.5L101.8,52.2z M104.2,50.6l0.9,0.9
	c0.3,0.3,0.6,0.4,0.8,0.4c0.2,0,0.5-0.1,0.7-0.3c0.1-0.1,0.2-0.3,0.3-0.5c0-0.2,0-0.3,0-0.5c-0.1-0.1-0.2-0.3-0.5-0.5l-0.9-0.9
	L104.2,50.6z M109.4,52.4l0.4,0.5l-3.3,2.6l4.9-0.5l0.4,0.5l-4.1,3.2l-0.4-0.5l3.3-2.6l-4.9,0.5l-0.4-0.5L109.4,52.4z M108.3,59.8
	l4.5-2.6l0.3,0.6l-1.9,1.1l1.3,2.2l1.9-1.1l0.3,0.6l-4.5,2.6l-0.3-0.6l2.1-1.2l-1.3-2.2l-2.1,1.2L108.3,59.8z M115.8,62.8l0.2,0.6
	l-3.9,1.3l4.8,1.2l0.2,0.6l-4.9,1.7l-0.2-0.6l3.9-1.3l-4.8-1.2l-0.2-0.6L115.8,62.8z M112.6,69.4l5.1-0.9l0.2,1l-3.4,1.8l-0.7,0.4
	c0.2,0,0.5,0.1,0.9,0.1l3.8,0.5l0.2,0.9l-5.1,0.9l-0.1-0.6l4.3-0.8L113,72l-0.1-0.6l4.1-2.2l-4.4,0.8L112.6,69.4z M113.5,74.8
	l5.3,1.8l0,0.7l-5.2,2.2l0-0.8l1.6-0.6l-0.1-2.1l-1.6-0.5L113.5,74.8z M115.7,76.1l0,1.7l1.4-0.6c0.4-0.2,0.8-0.3,1.1-0.4
	c-0.3-0.1-0.7-0.1-1-0.2L115.7,76.1z M113.4,81.5L118,82l0.2-1.6l0.6,0.1l-0.5,3.9l-0.6-0.1l0.2-1.6l-4.6-0.6L113.4,81.5z M113,84.6
	l5.1,1.2l-0.8,3.5l-0.6-0.1l0.7-2.9l-1.6-0.4l-0.6,2.7l-0.6-0.1l0.6-2.7l-1.7-0.4l-0.7,3l-0.6-0.1L113,84.6z M116.5,91.6l-1.2,2.9
	l-4.9-1.9l0.2-0.6l4.3,1.7l0.7-1.7l-2.5-1c-0.5-0.2-0.9-0.4-1.1-0.5c-0.2-0.1-0.4-0.3-0.4-0.5c-0.1-0.2-0.1-0.4,0-0.6
	c0.1-0.1,0.1-0.3,0.3-0.5l0.5,0.3c-0.1,0.1-0.1,0.2-0.2,0.2c-0.1,0.1,0,0.3,0,0.4c0.1,0.1,0.3,0.3,0.7,0.4L116.5,91.6z M114.5,96.4
	l-0.3,0.6l-1.9-1.1l-0.6,1c-0.2,0.4-0.4,0.7-0.6,0.8c-0.2,0.2-0.5,0.3-0.7,0.3c-0.3,0-0.6-0.1-0.9-0.2c-0.3-0.2-0.6-0.5-0.7-0.9
	c-0.1-0.4,0-0.9,0.3-1.5l0.9-1.6L114.5,96.4z M110.1,94.7l-0.6,1c-0.2,0.4-0.3,0.6-0.3,0.9c0,0.2,0.2,0.4,0.5,0.6
	c0.2,0.1,0.4,0.1,0.5,0.1c0.2,0,0.3-0.1,0.5-0.2c0.1-0.1,0.3-0.4,0.5-0.8l0.4-0.8L110.1,94.7z"/>
<path id="path20" class="st2" d="M44.4,105l-4.3,3l-1.1-1.6c-0.2-0.3-0.3-0.5-0.4-0.7c-0.1-0.2-0.2-0.5-0.2-0.7
	c0-0.2,0.1-0.4,0.2-0.6s0.3-0.4,0.5-0.5c0.4-0.3,0.8-0.4,1.2-0.3c0.4,0.1,0.8,0.4,1.3,1l0.8,1.1l1.8-1.2L44.4,105z M41.8,106.1
	l-0.8-1.1c-0.3-0.4-0.5-0.6-0.8-0.6c-0.2-0.1-0.5,0-0.7,0.2c-0.2,0.1-0.3,0.3-0.4,0.5c-0.1,0.2-0.1,0.4,0,0.5c0,0.1,0.2,0.3,0.3,0.6
	l0.8,1.1L41.8,106.1z M39.6,102.6c-0.8,0.4-1.5,0.6-2.1,0.4c-0.7-0.2-1.2-0.6-1.5-1.2c-0.2-0.4-0.4-0.9-0.3-1.3
	c0-0.5,0.1-0.9,0.4-1.3c0.3-0.4,0.6-0.7,1.1-1c0.5-0.3,0.9-0.4,1.4-0.4c0.5,0,0.9,0.1,1.3,0.3c0.4,0.2,0.7,0.6,0.9,1
	c0.2,0.4,0.4,0.9,0.3,1.3c0,0.5-0.2,0.9-0.4,1.3C40.3,102.1,40,102.4,39.6,102.6z M39.2,101.9c0.6-0.3,0.9-0.7,1.1-1.2
	c0.2-0.5,0.1-0.9-0.2-1.4c-0.3-0.5-0.6-0.7-1.1-0.9c-0.5-0.1-1,0-1.6,0.3c-0.4,0.2-0.7,0.5-0.9,0.7c-0.2,0.3-0.3,0.6-0.3,0.9
	c0,0.3,0.1,0.6,0.2,1c0.2,0.4,0.6,0.7,1.1,0.9S38.5,102.3,39.2,101.9z M35.8,93.3l-0.1-0.7c0.6-0.1,1.1,0,1.5,0.2
	c0.4,0.2,0.7,0.6,0.9,1.1c0.2,0.5,0.3,1,0.2,1.4c-0.1,0.4-0.3,0.8-0.6,1.1c-0.3,0.3-0.7,0.6-1.2,0.8c-0.5,0.2-1,0.3-1.5,0.2
	c-0.5,0-0.9-0.2-1.2-0.5c-0.3-0.3-0.6-0.6-0.8-1.1c-0.2-0.5-0.2-1-0.1-1.4c0.1-0.4,0.4-0.8,0.8-1.1l0.4,0.6
	c-0.3,0.3-0.5,0.5-0.6,0.8c-0.1,0.3,0,0.6,0.1,0.9c0.2,0.4,0.4,0.7,0.7,0.8c0.3,0.2,0.6,0.3,0.9,0.2c0.3,0,0.7-0.1,1-0.2
	c0.4-0.2,0.8-0.4,1-0.6c0.3-0.2,0.4-0.5,0.5-0.8c0.1-0.3,0-0.6-0.1-0.9c-0.1-0.4-0.4-0.6-0.7-0.8C36.6,93.3,36.2,93.2,35.8,93.3z
	 M34.2,88l0-0.7c0.6,0,1.1,0.1,1.5,0.4c0.4,0.3,0.7,0.7,0.8,1.2c0.2,0.5,0.2,1,0.1,1.4c-0.1,0.4-0.4,0.8-0.7,1.1
	c-0.4,0.3-0.8,0.5-1.3,0.7c-0.5,0.2-1,0.2-1.5,0.1c-0.5-0.1-0.8-0.3-1.1-0.6c-0.3-0.3-0.5-0.7-0.7-1.1c-0.1-0.5-0.1-1,0-1.4
	c0.2-0.4,0.5-0.8,0.9-1l0.3,0.6c-0.3,0.2-0.6,0.5-0.7,0.7c-0.1,0.3-0.1,0.6,0,0.9c0.1,0.4,0.3,0.7,0.6,0.9c0.3,0.2,0.6,0.3,0.9,0.3
	c0.3,0,0.7,0,1-0.1c0.4-0.1,0.8-0.3,1.1-0.5c0.3-0.2,0.5-0.5,0.6-0.8c0.1-0.3,0.1-0.6,0-0.9c-0.1-0.4-0.3-0.7-0.6-0.9
	C35.1,88,34.7,88,34.2,88z M30.5,86.6L30.4,86l4.2-0.6L30,83.2l-0.1-0.7l5.2-0.7l0.1,0.6L31.1,83l4.5,2.2l0.1,0.7L30.5,86.6z
	 M29.8,80.7l0-0.6L34,80l-4.2-2.7l0-0.7l5.3-0.1l0,0.6l-4.2,0.1l4.2,2.7l0,0.7L29.8,80.7z M28.5,78.1l0-0.4c0.3,0,0.5,0.1,0.7,0.3
	c0.2,0.2,0.3,0.4,0.3,0.7c0,0.3-0.1,0.6-0.2,0.7c-0.2,0.2-0.4,0.3-0.7,0.3l0-0.4c0.2,0,0.3-0.1,0.4-0.2c0.1-0.1,0.1-0.2,0.1-0.4
	c0-0.2,0-0.3-0.1-0.4C28.8,78.2,28.6,78.1,28.5,78.1z M33.6,71.3l0.3-0.7c0.6,0.2,0.9,0.5,1.2,1c0.2,0.4,0.3,0.9,0.3,1.4
	c-0.1,0.6-0.3,1-0.5,1.3c-0.3,0.3-0.6,0.5-1.1,0.7c-0.5,0.1-0.9,0.2-1.4,0.1c-0.5-0.1-1-0.2-1.4-0.5c-0.4-0.3-0.6-0.6-0.8-1
	c-0.2-0.4-0.2-0.9-0.1-1.3c0.1-0.5,0.3-0.9,0.6-1.3c0.3-0.3,0.7-0.5,1.2-0.6l0.1,0.7c-0.4,0.1-0.7,0.2-0.9,0.4
	c-0.2,0.2-0.3,0.5-0.4,0.8c-0.1,0.4,0,0.8,0.2,1c0.2,0.3,0.4,0.5,0.7,0.7c0.3,0.2,0.6,0.3,1,0.3c0.4,0.1,0.8,0,1.2,0
	c0.4-0.1,0.6-0.3,0.8-0.5c0.2-0.3,0.3-0.5,0.4-0.9c0.1-0.4,0-0.7-0.2-1C34.4,71.7,34.1,71.5,33.6,71.3z M30.5,68.8l0.2-0.7l2.3,0.5
	c0.1-0.3,0.1-0.5,0-0.7c-0.1-0.2-0.3-0.4-0.8-0.7c-0.3-0.2-0.5-0.4-0.6-0.5c-0.1-0.1-0.2-0.3-0.3-0.5c-0.1-0.2-0.1-0.4,0-0.6
	c0.1-0.3,0.1-0.4,0.1-0.4l0.6,0.1c0,0,0,0.1,0,0.1c0,0.1,0,0.1,0,0.1c0,0.2,0,0.4,0,0.5c0.1,0.1,0.3,0.3,0.6,0.5
	c0.4,0.3,0.6,0.5,0.7,0.6c0.1,0.1,0.1,0.3,0.2,0.5c0.2-0.3,0.6-0.6,1.1-0.8l2-0.7l-0.2,0.8l-1.6,0.5c-0.4,0.1-0.8,0.3-0.9,0.4
	c-0.2,0.1-0.3,0.3-0.4,0.6l2.4,0.5L35.7,70L30.5,68.8z M36.5,66.4l-4.3-3.6l0.3-0.7l5.7-0.3l-0.3,0.8l-1.7,0.1l-0.7,2.1l1.3,1.1
	L36.5,66.4z M34.9,64.2l0.6-1.7l-1.6,0c-0.5,0-0.9,0-1.2,0c0.3,0.2,0.6,0.4,0.9,0.6L34.9,64.2z M40,57.4l-4.8-2.2l-1,2.1
	c-0.2,0.4-0.3,0.8-0.3,1c0,0.3,0.1,0.5,0.2,0.7c0.2,0.2,0.4,0.4,0.6,0.5c0.3,0.2,0.7,0.2,1,0.1c0.3-0.1,0.6-0.4,0.9-0.8
	c0,0.2,0,0.4,0.1,0.5c0.1,0.3,0.2,0.5,0.4,0.8l0.9,1.4l0.4-0.8l-0.7-1.1c-0.2-0.3-0.4-0.6-0.5-0.8c-0.1-0.2-0.2-0.3-0.2-0.5
	c0-0.1,0-0.2,0-0.3c0-0.1,0.1-0.2,0.1-0.4l0.3-0.7l2.1,1L40,57.4z M37.1,56.8l-0.6,1.4c-0.1,0.3-0.3,0.5-0.4,0.6
	c-0.1,0.1-0.3,0.2-0.5,0.2c-0.2,0-0.3,0-0.5-0.1c-0.2-0.1-0.4-0.3-0.4-0.5c-0.1-0.2,0-0.5,0.1-0.9l0.7-1.5L37.1,56.8z M39,50.3
	l-0.5-0.4l0.4-0.5l0.5,0.4c0.4-0.5,0.9-0.8,1.4-0.9c0.5-0.1,1,0,1.5,0.3c0.4,0.3,0.7,0.7,0.8,1.3c0.1,0.5-0.1,1.1-0.4,1.7l0.6,0.4
	L42.8,53l-0.6-0.4c-0.4,0.5-0.8,0.8-1.4,0.9c-0.5,0.1-1,0-1.5-0.3c-0.5-0.3-0.7-0.8-0.8-1.3C38.5,51.4,38.6,50.9,39,50.3z
	 M39.8,50.1l2.3,1.6c0.2-0.4,0.3-0.7,0.3-1.1c0-0.4-0.2-0.7-0.6-0.9c-0.3-0.2-0.7-0.3-1-0.3C40.5,49.6,40.1,49.8,39.8,50.1z
	 M39.5,50.7c-0.2,0.4-0.3,0.7-0.3,1.1c0,0.4,0.2,0.7,0.6,0.9c0.3,0.2,0.7,0.3,1,0.2c0.4-0.1,0.7-0.3,0.9-0.6L39.5,50.7z M45,50.1
	l-4-3.5l2.5-2.9l0.5,0.4l-2,2.4l1.2,1.1l1.9-2.2l0.5,0.4L43.7,48l1.4,1.2l2.1-2.5l0.5,0.4L45,50.1z M45.2,42.1l2.4-2.1l3.1,3.5
	l0.4-0.3l1.2,1.4L51.8,45L51,44.1l-2.6,2.3l0.8,0.9l-0.5,0.4l-1.2-1.4l0.3-0.3c-0.1-0.8-0.8-1.9-2.1-3.4L45.2,42.1z M47.5,40.9
	l-1.4,1.2l0.2,0.2c0.3,0.3,0.7,0.8,1.1,1.5c0.5,0.6,0.8,1.2,0.9,1.8l1.8-1.6L47.5,40.9z M52.2,43.2l-3-4.3l3.1-2.2l0.4,0.5l-2.6,1.8
	l0.9,1.3l2.4-1.7l0.4,0.5l-2.4,1.7l1,1.5l2.7-1.9l0.4,0.5L52.2,43.2z M56.2,40.4l-2.6-4.6l1.7-1c0.3-0.2,0.5-0.3,0.7-0.4
	c0.2-0.1,0.5-0.1,0.7-0.1c0.2,0,0.4,0.1,0.6,0.2c0.2,0.1,0.4,0.3,0.5,0.5c0.2,0.4,0.3,0.8,0.2,1.2c-0.1,0.4-0.5,0.8-1.1,1.2
	l-1.2,0.7l1.1,1.9L56.2,40.4z M55.5,37.7l1.2-0.7c0.4-0.2,0.6-0.5,0.7-0.7c0.1-0.2,0-0.5-0.1-0.8c-0.1-0.2-0.2-0.3-0.4-0.4
	c-0.2-0.1-0.4-0.1-0.5-0.1c-0.1,0-0.3,0.1-0.6,0.3L54.6,36L55.5,37.7z M59.6,38.5l0-5.7l0.7-0.3l3.9,4.1L63.5,37l-1.2-1.3l-2.1,0.8
	l0,1.7L59.6,38.5z M60.2,35.9l1.7-0.7l-1-1.2c-0.3-0.4-0.6-0.7-0.8-0.9c0.1,0.3,0.1,0.7,0.1,1.1L60.2,35.9z M63.3,31.4l0.7-0.2
	l1.3,4.5l2.6-0.8l-1.3-4.5l0.7-0.2l1.3,4.5l0.5-0.1l0.6,2L69,36.8l-0.4-1.4l-3.9,1.1L63.3,31.4z M69.3,29.8l0.6-0.1l0.6,4.2l2.2-4.5
	l0.7-0.1l0.7,5.2l-0.6,0.1l-0.6-4.1l-2.2,4.5L70,35L69.3,29.8z M79.5,34.2l-0.1-5.3L77,29c-0.5,0-0.8,0.1-1.1,0.2
	c-0.2,0.1-0.4,0.3-0.6,0.5c-0.1,0.2-0.2,0.5-0.2,0.8c0,0.4,0.1,0.7,0.4,0.9c0.2,0.3,0.6,0.4,1.1,0.5c-0.2,0.1-0.3,0.2-0.4,0.3
	c-0.2,0.2-0.4,0.4-0.6,0.7l-0.9,1.5l0.9,0l0.7-1.1c0.2-0.3,0.4-0.6,0.5-0.7c0.1-0.2,0.2-0.3,0.4-0.4c0.1-0.1,0.2-0.1,0.3-0.1
	c0.1,0,0.2,0,0.4,0l0.8,0l0,2.4L79.5,34.2z M78.7,31.3l-1.5,0c-0.3,0-0.6,0-0.8-0.1c-0.2-0.1-0.3-0.2-0.4-0.3
	c-0.1-0.1-0.1-0.3-0.1-0.5c0-0.2,0.1-0.5,0.3-0.6c0.2-0.2,0.5-0.2,0.9-0.3l1.7,0L78.7,31.3z M89.8,35.6l1.6-5l1,0.3l0,4
	c0,0.4,0,0.6,0,0.8c0.1-0.2,0.3-0.4,0.5-0.7l2.3-3.1l0.9,0.3l-1.6,5L93.9,37l1.4-4.2l-2.8,3.7l-0.6-0.2l-0.1-4.8l-1.4,4.3L89.8,35.6
	z M96.6,35.1c0.4-0.8,0.9-1.3,1.6-1.5c0.6-0.2,1.3-0.2,2,0.2c0.4,0.2,0.8,0.5,1,0.9c0.2,0.4,0.4,0.8,0.3,1.3c0,0.5-0.1,0.9-0.4,1.4
	c-0.2,0.5-0.6,0.9-1,1.1c-0.4,0.3-0.8,0.4-1.3,0.4c-0.5,0-0.9-0.1-1.3-0.3c-0.4-0.2-0.8-0.5-1-0.9c-0.2-0.4-0.3-0.8-0.3-1.3
	C96.3,36,96.4,35.6,96.6,35.1z M97.3,35.5c-0.3,0.6-0.4,1.1-0.2,1.6c0.1,0.5,0.4,0.8,0.9,1.1c0.5,0.2,0.9,0.3,1.4,0.1
	c0.5-0.2,0.9-0.6,1.2-1.2c0.2-0.4,0.3-0.7,0.3-1.1c0-0.4-0.1-0.7-0.2-1c-0.2-0.3-0.4-0.5-0.7-0.7c-0.4-0.2-0.9-0.3-1.4-0.1
	C98.1,34.4,97.6,34.8,97.3,35.5z M104.9,40.7l0.5,0.5c-0.4,0.4-0.9,0.6-1.4,0.7c-0.5,0.1-1-0.1-1.4-0.4c-0.5-0.3-0.8-0.6-1-1
	c-0.2-0.4-0.2-0.8-0.2-1.3c0.1-0.5,0.3-0.9,0.5-1.3c0.3-0.5,0.6-0.8,1-1.1c0.4-0.2,0.8-0.3,1.3-0.3s0.9,0.2,1.3,0.4
	c0.4,0.3,0.8,0.6,0.9,1.1c0.2,0.4,0.2,0.9,0,1.4l-0.7-0.2c0.1-0.4,0.1-0.7,0-1c-0.1-0.3-0.3-0.5-0.6-0.7c-0.3-0.2-0.7-0.3-1-0.3
	c-0.3,0-0.6,0.1-0.9,0.4c-0.3,0.2-0.5,0.5-0.7,0.8c-0.2,0.4-0.4,0.7-0.5,1.1c-0.1,0.4,0,0.7,0.1,1c0.1,0.3,0.4,0.5,0.6,0.7
	c0.3,0.2,0.7,0.3,1,0.2C104.3,41.2,104.6,41,104.9,40.7L104.9,40.7z M108.5,39.1l0.5,0.4l-1.5,1.8c0.2,0.2,0.5,0.3,0.6,0.3
	c0.2,0,0.5-0.1,0.9-0.4c0.3-0.2,0.6-0.3,0.7-0.3c0.2-0.1,0.3-0.1,0.5,0c0.2,0,0.4,0.1,0.5,0.2c0.2,0.2,0.3,0.3,0.3,0.3l-0.4,0.5
	c0,0-0.1,0-0.1-0.1c-0.1-0.1-0.1-0.1-0.1-0.1c-0.2-0.1-0.3-0.2-0.5-0.2c-0.2,0-0.4,0.1-0.7,0.3c-0.4,0.2-0.7,0.4-0.9,0.4
	c-0.2,0-0.3,0-0.5-0.1c0.2,0.3,0.3,0.7,0.2,1.4l-0.3,2.1l-0.7-0.5l0.2-1.7c0.1-0.5,0.1-0.8,0-1c0-0.2-0.2-0.4-0.4-0.6l-1.5,1.9
	l-0.5-0.4L108.5,39.1z M110.1,43.9c0.6-0.6,1.3-0.9,2-0.9c0.7,0,1.3,0.3,1.8,0.8c0.3,0.4,0.6,0.8,0.7,1.2c0.1,0.4,0.1,0.9-0.1,1.3
	c-0.2,0.4-0.4,0.8-0.8,1.2c-0.4,0.4-0.8,0.6-1.3,0.8c-0.5,0.1-0.9,0.1-1.3,0c-0.4-0.1-0.8-0.4-1.1-0.7c-0.3-0.4-0.6-0.8-0.7-1.2
	c-0.1-0.4-0.1-0.9,0.1-1.3C109.5,44.6,109.8,44.3,110.1,43.9z M110.6,44.5c-0.5,0.4-0.7,0.9-0.7,1.4c0,0.5,0.1,0.9,0.5,1.3
	c0.4,0.4,0.8,0.6,1.3,0.6c0.5,0,1-0.3,1.5-0.7c0.3-0.3,0.5-0.6,0.7-0.9c0.1-0.3,0.2-0.7,0.1-1c-0.1-0.3-0.2-0.6-0.5-0.9
	c-0.3-0.4-0.8-0.5-1.3-0.6C111.7,43.7,111.2,43.9,110.6,44.5z M112.3,50.1l4.2-3.3l1.2,1.6c0.2,0.3,0.4,0.6,0.5,0.9
	c0.1,0.3,0.1,0.5,0,0.8c-0.1,0.2-0.2,0.4-0.4,0.6c-0.2,0.1-0.4,0.2-0.6,0.2c-0.2,0-0.5,0-0.7-0.1c0.1,0.3,0.1,0.6,0.1,0.9
	c-0.1,0.3-0.2,0.5-0.5,0.7c-0.2,0.2-0.4,0.3-0.6,0.3c-0.2,0-0.4,0-0.6,0c-0.2-0.1-0.4-0.1-0.6-0.3c-0.2-0.1-0.4-0.4-0.6-0.6
	L112.3,50.1z M115.2,48.7l0.7,0.9c0.2,0.2,0.3,0.4,0.5,0.5c0.2,0.1,0.3,0.2,0.5,0.2c0.2,0,0.3-0.1,0.4-0.2c0.1-0.1,0.2-0.2,0.3-0.4
	c0.1-0.1,0.1-0.3,0-0.5c-0.1-0.2-0.2-0.4-0.4-0.7l-0.7-0.8L115.2,48.7z M113.2,50.3l0.8,1c0.1,0.2,0.2,0.3,0.3,0.4
	c0.1,0.1,0.2,0.2,0.4,0.2c0.1,0,0.3,0.1,0.4,0c0.1,0,0.3-0.1,0.4-0.2c0.2-0.1,0.3-0.3,0.3-0.4c0.1-0.2,0-0.3,0-0.5
	c-0.1-0.2-0.2-0.4-0.4-0.7l-0.8-1L113.2,50.3z M118.6,56.2l0.2,0.7c-0.6,0.2-1.1,0.1-1.5,0c-0.4-0.2-0.8-0.5-1.1-1
	c-0.3-0.5-0.4-1-0.4-1.4c0-0.4,0.2-0.8,0.5-1.2c0.3-0.4,0.7-0.7,1.1-0.9c0.5-0.3,1-0.4,1.4-0.4c0.5,0,0.9,0.1,1.3,0.3
	c0.4,0.2,0.7,0.6,0.9,1c0.3,0.5,0.4,0.9,0.3,1.4c-0.1,0.4-0.3,0.9-0.6,1.2l-0.5-0.5c0.3-0.3,0.4-0.6,0.5-0.9c0-0.3,0-0.6-0.2-0.9
	c-0.2-0.4-0.5-0.6-0.8-0.7c-0.3-0.1-0.6-0.2-1-0.1c-0.3,0.1-0.7,0.2-1,0.4c-0.4,0.2-0.7,0.5-0.9,0.7c-0.2,0.3-0.3,0.6-0.4,0.9
	c0,0.3,0.1,0.6,0.2,0.9c0.2,0.3,0.5,0.6,0.8,0.7C117.8,56.4,118.2,56.3,118.6,56.2L118.6,56.2z M122.6,56.3l0.3,0.6l-2.1,1
	c0.1,0.3,0.3,0.5,0.4,0.5c0.2,0.1,0.5,0.1,1,0.1c0.4,0,0.7,0,0.8,0c0.2,0,0.3,0.1,0.5,0.2c0.2,0.1,0.3,0.3,0.4,0.5
	c0.1,0.2,0.2,0.4,0.2,0.4l-0.6,0.2c0,0,0-0.1-0.1-0.1c0-0.1,0-0.1-0.1-0.1c-0.1-0.2-0.2-0.3-0.4-0.4c-0.1-0.1-0.4-0.1-0.8-0.1
	c-0.5,0-0.8,0-1-0.1c-0.2-0.1-0.3-0.2-0.4-0.3c0.1,0.3-0.1,0.8-0.4,1.3l-1.2,1.7l-0.4-0.8l0.9-1.4c0.3-0.4,0.4-0.7,0.5-0.9
	c0.1-0.2,0-0.4-0.1-0.7l-2.3,1l-0.3-0.6L122.6,56.3z M119.4,61.9l5.7,0.3l0.2,0.7l-4.4,3.7l-0.2-0.8l1.3-1.1l-0.7-2.1l-1.7-0.1
	L119.4,61.9z M121.9,62.7l0.5,1.7l1.2-1c0.4-0.3,0.7-0.5,0.9-0.7c-0.4,0-0.7,0-1.1,0L121.9,62.7z M121.8,71.3l5.2-0.9l-0.4-2.3
	c-0.1-0.5-0.2-0.8-0.3-1c-0.1-0.2-0.3-0.4-0.6-0.5c-0.3-0.1-0.5-0.1-0.8-0.1c-0.4,0.1-0.7,0.2-0.9,0.5c-0.2,0.3-0.3,0.7-0.3,1.2
	c-0.1-0.2-0.2-0.3-0.3-0.4c-0.2-0.2-0.5-0.3-0.8-0.5l-1.6-0.7l0.1,0.9l1.2,0.5c0.3,0.1,0.6,0.3,0.8,0.4c0.2,0.1,0.3,0.2,0.4,0.3
	c0.1,0.1,0.1,0.2,0.2,0.3c0,0.1,0.1,0.2,0.1,0.4l0.1,0.8l-2.3,0.4L121.8,71.3z M124.6,70.1l-0.3-1.5c-0.1-0.3-0.1-0.6,0-0.8
	c0-0.2,0.1-0.3,0.2-0.5c0.1-0.1,0.3-0.2,0.4-0.2c0.2,0,0.5,0,0.7,0.2c0.2,0.2,0.3,0.4,0.4,0.8l0.3,1.7L124.6,70.1z M124.8,74.2
	c0.9,0,1.6,0.2,2.1,0.7c0.5,0.5,0.8,1.1,0.8,1.8c0,0.5-0.1,0.9-0.3,1.3c-0.2,0.4-0.5,0.7-1,0.9c-0.4,0.2-0.9,0.3-1.4,0.3
	c-0.5,0-1-0.1-1.4-0.3c-0.4-0.2-0.8-0.5-1-0.9c-0.2-0.4-0.3-0.8-0.3-1.3c0-0.5,0.1-0.9,0.3-1.3c0.2-0.4,0.6-0.7,1-0.9
	C123.9,74.3,124.3,74.2,124.8,74.2z M124.8,74.9c-0.6,0-1.1,0.2-1.5,0.5c-0.4,0.3-0.5,0.8-0.5,1.3c0,0.5,0.2,1,0.6,1.3
	c0.4,0.3,0.9,0.5,1.6,0.5c0.4,0,0.8-0.1,1.1-0.2c0.3-0.2,0.6-0.4,0.7-0.7c0.2-0.3,0.3-0.6,0.2-0.9c0-0.5-0.2-0.9-0.5-1.3
	C126.2,75.1,125.6,74.9,124.8,74.9z M127.5,80.6l-0.3,3.4l-0.6,0l0.2-2.7l-1.6-0.1l-0.1,1.3c0,0.5-0.1,0.8-0.2,1.1
	c-0.1,0.3-0.3,0.5-0.6,0.6c-0.3,0.1-0.6,0.2-0.9,0.2c-0.3,0-0.5-0.1-0.7-0.2c-0.2-0.1-0.4-0.3-0.5-0.6c-0.1-0.2-0.2-0.7-0.1-1.2
	l0.2-2.1L127.5,80.6z M122.8,81l-0.1,1.4c0,0.4,0,0.7,0.2,0.9c0.1,0.2,0.4,0.3,0.7,0.3c0.2,0,0.4,0,0.6-0.1c0.2-0.1,0.3-0.2,0.3-0.4
	c0.1-0.2,0.1-0.5,0.1-1l0.1-0.9L122.8,81z M126.9,86.6l-0.7,3.2l-5.2-1.2l0.2-0.7l4.6,1l0.4-1.9l-2.7-0.6c-0.5-0.1-0.9-0.2-1.2-0.3
	c-0.2-0.1-0.4-0.3-0.5-0.5c-0.1-0.2-0.1-0.4-0.1-0.7c0-0.2,0.1-0.3,0.2-0.5l0.6,0.3c-0.1,0.1-0.1,0.2-0.2,0.3c0,0.2,0,0.3,0.1,0.4
	c0.1,0.1,0.4,0.2,0.8,0.3L126.9,86.6z M120.9,89.2l4.3,3.6l-0.3,0.7l-5.7,0.3l0.3-0.8l1.7-0.1L122,91l-1.3-1.1L120.9,89.2z
	 M122.5,91.4l-0.6,1.7l1.6,0c0.5,0,0.9,0,1.2,0c-0.3-0.2-0.6-0.4-0.9-0.6L122.5,91.4z M119.3,98.5l-0.5,0.6
	c-0.5-0.4-0.7-0.8-0.9-1.3c-0.1-0.5-0.1-1,0.2-1.5c0.2-0.5,0.5-0.9,0.9-1.1c0.4-0.2,0.8-0.3,1.3-0.3c0.5,0,0.9,0.1,1.4,0.3
	c0.5,0.2,0.9,0.5,1.2,0.9c0.3,0.4,0.4,0.8,0.5,1.2c0,0.4-0.1,0.9-0.2,1.3c-0.2,0.5-0.5,0.8-0.9,1c-0.4,0.2-0.8,0.3-1.3,0.2l0.1-0.7
	c0.4,0,0.7,0,1-0.1c0.3-0.1,0.5-0.4,0.6-0.7c0.2-0.4,0.2-0.7,0.2-1c-0.1-0.3-0.2-0.6-0.5-0.8c-0.3-0.2-0.5-0.4-0.9-0.6
	c-0.4-0.2-0.8-0.3-1.2-0.3c-0.4,0-0.7,0.1-0.9,0.2c-0.3,0.2-0.5,0.4-0.6,0.7c-0.2,0.4-0.2,0.7-0.1,1
	C118.7,97.9,118.9,98.2,119.3,98.5L119.3,98.5z M116.2,100l4.1,2.3l0.9-1.5l0.5,0.3l-2.1,3.6l-0.5-0.3l0.9-1.5l-4.1-2.3L116.2,100z
	 M118.7,106.1l-0.4,0.5l-1.8-1.4l-0.8,1c-0.4,0.5-0.7,0.7-1,0.9c-0.3,0.1-0.5,0.2-0.8,0.1c-0.3-0.1-0.5-0.2-0.7-0.3
	c-0.3-0.3-0.5-0.6-0.6-1c-0.1-0.4,0.1-0.9,0.6-1.5l1.3-1.6L118.7,106.1z M114.6,103.7l-0.8,1c-0.3,0.4-0.5,0.7-0.4,1
	c0,0.2,0.2,0.4,0.4,0.6c0.2,0.1,0.3,0.2,0.5,0.2c0.2,0,0.4-0.1,0.5-0.2c0.2-0.1,0.4-0.4,0.7-0.7l0.6-0.7L114.6,103.7z"/>
<path id="path22" class="st4" d="M463.6-403.6h774.6v362.1H463.6V-403.6z"/>
<image style="overflow:visible;enable-background:new    ;" width="1600" height="748" id="image24" xlink:href="90F6EEA81722F0F.bmp"  transform="matrix(0.4841 0 0 0.4841 927.2698 -807.236)">
</image>
<path id="path26" class="st2" d="M59.1,97l0.4,0.3l-2.2,2.6l3.9-1.1l0.4,0.4l-2.8,3.3l-0.4-0.3l2.2-2.6l-3.9,1.1l-0.4-0.4L59.1,97z
	 M59.7,103.3l2.2-3.7l0.5,0.3l-0.9,1.5l1.9,1.2l0.9-1.5l0.5,0.3l-2.2,3.7l-0.5-0.3l1-1.7l-1.9-1.2l-1,1.7L59.7,103.3z M63.5,105.6
	l1.8-3.9l0.5,0.2l-0.8,1.6l2,1l0.8-1.6l0.5,0.2l-1.8,3.9l-0.5-0.2l0.9-1.8l-2-1l-0.9,1.8L63.5,105.6z M69.9,106
	c0.1-0.5,0.3-0.9,0.5-1.1c0.2-0.3,0.4-0.5,0.7-0.5c0.2-0.1,0.5-0.1,0.8,0c0.2,0.1,0.4,0.2,0.5,0.3c0.1,0.1,0.2,0.3,0.3,0.5
	c0.1,0.2,0.1,0.4,0.1,0.7c0,0.3-0.1,0.6-0.2,1c-0.1,0.5-0.3,0.9-0.5,1.1c-0.2,0.3-0.4,0.5-0.7,0.6c-0.2,0.1-0.5,0.1-0.8,0
	c-0.4-0.1-0.7-0.4-0.8-0.7C69.6,107.4,69.7,106.8,69.9,106z M70.4,106.2c-0.2,0.7-0.3,1.1-0.2,1.4c0.1,0.3,0.3,0.4,0.5,0.5
	c0.2,0.1,0.5,0,0.7-0.2c0.2-0.2,0.4-0.6,0.6-1.3c0.2-0.7,0.3-1.1,0.2-1.4c-0.1-0.3-0.3-0.4-0.5-0.5c-0.2-0.1-0.4,0-0.6,0.1
	C70.8,105.1,70.6,105.5,70.4,106.2z M73,106.8c0.1-0.5,0.2-0.9,0.3-1.2c0.2-0.3,0.3-0.5,0.6-0.6c0.2-0.1,0.5-0.2,0.8-0.1
	c0.2,0,0.4,0.1,0.6,0.2c0.2,0.1,0.3,0.3,0.4,0.5c0.1,0.2,0.1,0.4,0.2,0.7c0,0.3,0,0.6-0.1,1c-0.1,0.5-0.2,0.9-0.3,1.2
	c-0.2,0.3-0.3,0.5-0.6,0.6c-0.2,0.1-0.5,0.2-0.8,0.1c-0.4-0.1-0.7-0.3-0.9-0.6C72.9,108.2,72.9,107.6,73,106.8z M73.6,106.9
	c-0.1,0.7-0.1,1.2,0,1.4c0.1,0.3,0.3,0.4,0.5,0.4c0.2,0,0.5,0,0.7-0.2c0.2-0.2,0.4-0.7,0.5-1.4c0.1-0.7,0.1-1.2,0-1.4
	c-0.1-0.3-0.3-0.4-0.6-0.4c-0.2,0-0.4,0-0.6,0.2C73.8,105.7,73.7,106.2,73.6,106.9z M76.2,107.3c0-0.5,0-0.9,0.1-1.2
	c0.1-0.3,0.3-0.6,0.5-0.7c0.2-0.2,0.5-0.3,0.8-0.3c0.2,0,0.4,0,0.6,0.1c0.2,0.1,0.3,0.2,0.4,0.4c0.1,0.2,0.2,0.4,0.3,0.6
	c0.1,0.3,0.1,0.6,0.1,1c0,0.5,0,0.9-0.1,1.2c-0.1,0.3-0.3,0.6-0.5,0.7c-0.2,0.2-0.5,0.3-0.8,0.3c-0.4,0-0.7-0.1-1-0.4
	C76.3,108.7,76.2,108.1,76.2,107.3z M76.7,107.3c0,0.7,0.1,1.2,0.3,1.4c0.2,0.2,0.4,0.3,0.6,0.3c0.2,0,0.4-0.1,0.6-0.4
	c0.2-0.2,0.2-0.7,0.2-1.4c0-0.7-0.1-1.2-0.3-1.4c-0.2-0.2-0.4-0.3-0.6-0.3c-0.2,0-0.4,0.1-0.6,0.3C76.8,106.1,76.7,106.6,76.7,107.3
	z M79.5,107.4c0-0.5,0-0.9,0.1-1.2c0.1-0.3,0.2-0.6,0.4-0.7c0.2-0.2,0.4-0.3,0.8-0.3c0.2,0,0.4,0,0.6,0.1c0.2,0.1,0.3,0.2,0.5,0.4
	c0.1,0.2,0.2,0.4,0.3,0.6c0.1,0.2,0.1,0.6,0.2,1c0,0.5,0,0.9-0.1,1.2c-0.1,0.3-0.2,0.6-0.4,0.8c-0.2,0.2-0.4,0.3-0.8,0.3
	c-0.4,0-0.7-0.1-1-0.4C79.8,108.7,79.6,108.2,79.5,107.4z M80.1,107.3c0.1,0.7,0.2,1.2,0.4,1.4c0.2,0.2,0.4,0.3,0.6,0.3
	c0.2,0,0.4-0.2,0.6-0.4c0.1-0.2,0.2-0.7,0.1-1.4c-0.1-0.7-0.2-1.2-0.4-1.4c-0.2-0.2-0.4-0.3-0.6-0.3c-0.2,0-0.4,0.1-0.6,0.4
	C80.1,106.1,80,106.6,80.1,107.3L80.1,107.3z M82.9,107c-0.1-0.5-0.1-0.9,0-1.2c0.1-0.3,0.2-0.6,0.4-0.8c0.2-0.2,0.4-0.3,0.7-0.4
	c0.2,0,0.4,0,0.6,0.1c0.2,0.1,0.3,0.2,0.5,0.3c0.1,0.2,0.3,0.4,0.4,0.6c0.1,0.2,0.2,0.6,0.2,1c0.1,0.5,0.1,0.9,0,1.2
	c-0.1,0.3-0.2,0.6-0.4,0.8c-0.2,0.2-0.4,0.3-0.7,0.4c-0.4,0.1-0.8,0-1-0.3C83.2,108.4,83,107.8,82.9,107z M83.4,106.9
	c0.1,0.7,0.2,1.2,0.4,1.4c0.2,0.2,0.4,0.3,0.7,0.3c0.2,0,0.4-0.2,0.6-0.4c0.1-0.3,0.1-0.7,0-1.4c-0.1-0.7-0.2-1.2-0.4-1.4
	c-0.2-0.2-0.4-0.3-0.7-0.3c-0.2,0-0.4,0.2-0.5,0.4C83.3,105.7,83.3,106.2,83.4,106.9z M86.1,106.4c-0.1-0.5-0.2-0.9-0.2-1.2
	c0-0.3,0.1-0.6,0.3-0.8c0.2-0.2,0.4-0.4,0.7-0.4c0.2-0.1,0.4-0.1,0.6,0c0.2,0,0.4,0.1,0.5,0.3c0.2,0.1,0.3,0.3,0.4,0.5
	c0.1,0.2,0.2,0.5,0.4,1c0.1,0.5,0.2,0.9,0.2,1.2c0,0.3-0.1,0.6-0.3,0.8c-0.2,0.2-0.4,0.4-0.7,0.4c-0.4,0.1-0.8,0.1-1.1-0.2
	C86.6,107.7,86.3,107.1,86.1,106.4z M86.6,106.2c0.2,0.7,0.4,1.1,0.6,1.3c0.2,0.2,0.4,0.2,0.7,0.2c0.2-0.1,0.4-0.2,0.5-0.5
	c0.1-0.3,0.1-0.7-0.1-1.4c-0.2-0.7-0.4-1.1-0.6-1.3c-0.2-0.2-0.4-0.2-0.7-0.2c-0.2,0.1-0.4,0.2-0.5,0.5
	C86.4,105.1,86.4,105.5,86.6,106.2L86.6,106.2z M89.1,105.5c-0.2-0.5-0.3-0.9-0.4-1.2c0-0.3,0-0.6,0.1-0.8c0.1-0.2,0.3-0.4,0.6-0.5
	c0.2-0.1,0.4-0.1,0.6-0.1c0.2,0,0.4,0.1,0.6,0.2c0.2,0.1,0.3,0.3,0.5,0.5c0.2,0.2,0.3,0.5,0.5,0.9c0.2,0.5,0.3,0.9,0.4,1.2
	c0,0.3,0,0.6-0.1,0.8c-0.1,0.2-0.3,0.4-0.6,0.5c-0.4,0.2-0.7,0.2-1.1,0C89.8,106.7,89.5,106.2,89.1,105.5L89.1,105.5z M89.6,105.3
	c0.3,0.6,0.6,1,0.8,1.2c0.2,0.1,0.5,0.2,0.7,0.1c0.2-0.1,0.4-0.3,0.4-0.6c0.1-0.3-0.1-0.7-0.4-1.4c-0.3-0.6-0.6-1-0.8-1.2
	c-0.2-0.1-0.5-0.2-0.7-0.1c-0.2,0.1-0.4,0.3-0.4,0.5C89.2,104.1,89.3,104.6,89.6,105.3z M92.2,104c-0.2-0.4-0.4-0.8-0.4-1.2
	c-0.1-0.3,0-0.6,0.1-0.9c0.1-0.2,0.3-0.4,0.6-0.6c0.2-0.1,0.4-0.2,0.6-0.2c0.2,0,0.4,0,0.6,0.2c0.2,0.1,0.4,0.2,0.5,0.4
	c0.2,0.2,0.4,0.5,0.6,0.8c0.2,0.4,0.4,0.8,0.4,1.2c0.1,0.3,0,0.6-0.1,0.9c-0.1,0.2-0.3,0.4-0.6,0.6c-0.4,0.2-0.7,0.2-1.1,0.1
	C93,105.2,92.6,104.7,92.2,104z M92.6,103.7c0.3,0.6,0.6,1,0.9,1.1c0.3,0.1,0.5,0.1,0.7,0c0.2-0.1,0.3-0.3,0.4-0.6
	c0-0.3-0.1-0.7-0.4-1.4c-0.3-0.6-0.6-1-0.9-1.1c-0.3-0.1-0.5-0.1-0.7,0c-0.2,0.1-0.3,0.3-0.4,0.5C92.2,102.7,92.3,103.1,92.6,103.7z
	 M95,102.3c-0.3-0.4-0.5-0.8-0.6-1.1c-0.1-0.3-0.1-0.6,0-0.9c0.1-0.3,0.2-0.5,0.5-0.6c0.2-0.1,0.4-0.2,0.6-0.2c0.2,0,0.4,0,0.6,0.1
	c0.2,0.1,0.4,0.2,0.6,0.4c0.2,0.2,0.4,0.4,0.6,0.8c0.3,0.4,0.5,0.8,0.6,1.1c0.1,0.3,0.1,0.6,0,0.9c-0.1,0.3-0.2,0.5-0.5,0.6
	c-0.3,0.2-0.7,0.3-1.1,0.2C95.9,103.4,95.5,103,95,102.3L95,102.3z M95.5,102c0.4,0.6,0.7,0.9,1,1c0.3,0.1,0.5,0.1,0.7-0.1
	c0.2-0.1,0.3-0.3,0.3-0.6c0-0.3-0.2-0.7-0.6-1.3c-0.4-0.6-0.7-0.9-1-1c-0.3-0.1-0.5-0.1-0.7,0.1c-0.2,0.1-0.3,0.3-0.3,0.6
	C94.9,101,95.1,101.4,95.5,102z M97.6,100.4c-0.3-0.4-0.6-0.7-0.7-1c-0.1-0.3-0.2-0.6-0.1-0.8c0-0.3,0.2-0.5,0.4-0.7
	c0.2-0.2,0.3-0.3,0.5-0.3c0.2,0,0.4,0,0.6,0c0.2,0.1,0.4,0.1,0.6,0.3c0.2,0.1,0.5,0.4,0.8,0.7c0.3,0.4,0.6,0.7,0.7,1
	c0.1,0.3,0.2,0.6,0.1,0.8c0,0.3-0.2,0.5-0.4,0.7c-0.3,0.3-0.6,0.4-1,0.3C98.6,101.4,98.1,101,97.6,100.4z M98,100.1
	c0.5,0.5,0.9,0.8,1.1,0.9c0.3,0.1,0.5,0,0.7-0.2c0.2-0.2,0.2-0.4,0.2-0.7c0-0.3-0.3-0.7-0.8-1.2c-0.5-0.5-0.9-0.8-1.1-0.9
	c-0.3-0.1-0.5,0-0.7,0.2c-0.2,0.2-0.3,0.4-0.2,0.6C97.3,99.1,97.5,99.6,98,100.1L98,100.1z"/>
<path id="path28" class="st2" d="M60.1,58.5H66v7.6h-1v-6.7h-3.9v6.7h-1V58.5z M71.3,64.3l1,0.1c-0.2,0.6-0.4,1-0.8,1.3
	c-0.4,0.3-0.9,0.5-1.6,0.5c-0.8,0-1.4-0.2-1.9-0.7c-0.5-0.5-0.7-1.2-0.7-2.1c0-0.9,0.2-1.6,0.7-2.1c0.5-0.5,1.1-0.8,1.8-0.8
	c0.7,0,1.3,0.2,1.8,0.7c0.5,0.5,0.7,1.2,0.7,2.1c0,0.1,0,0.1,0,0.2h-4.1c0,0.6,0.2,1.1,0.5,1.4c0.3,0.3,0.7,0.5,1.1,0.5
	c0.3,0,0.6-0.1,0.9-0.3C71,65,71.2,64.7,71.3,64.3z M68.3,62.8h3.1c0-0.5-0.2-0.8-0.4-1c-0.3-0.4-0.7-0.5-1.1-0.5
	c-0.4,0-0.8,0.1-1.1,0.4C68.5,62,68.3,62.4,68.3,62.8z M72.6,60.6h4.4v0.8h-1.8v4.7h-0.9v-4.7h-1.8L72.6,60.6z M78,68.2l-0.1-0.9
	c0.2,0.1,0.4,0.1,0.5,0.1c0.2,0,0.4,0,0.5-0.1c0.1-0.1,0.2-0.2,0.3-0.3c0.1-0.1,0.2-0.3,0.3-0.7c0-0.1,0-0.1,0.1-0.2l-2.1-5.5h1
	l1.1,3.2c0.2,0.4,0.3,0.8,0.4,1.3c0.1-0.4,0.2-0.8,0.4-1.2l1.2-3.2h0.9l-2.1,5.6c-0.2,0.6-0.4,1-0.5,1.2c-0.2,0.3-0.4,0.5-0.6,0.7
	c-0.2,0.1-0.5,0.2-0.8,0.2C78.5,68.3,78.3,68.3,78,68.2L78,68.2z M82.7,66.1l2-2.8l-1.9-2.6H84l0.9,1.3c0.2,0.2,0.3,0.4,0.4,0.6
	c0.2-0.2,0.3-0.4,0.4-0.6l0.9-1.3h1.1l-1.9,2.6l2,2.8h-1.1l-1.1-1.7L85.3,64l-1.5,2.1H82.7z M88.2,63.4c0-1,0.3-1.8,0.8-2.3
	c0.5-0.4,1-0.6,1.7-0.6c0.8,0,1.4,0.2,1.9,0.7c0.5,0.5,0.7,1.2,0.7,2c0,0.7-0.1,1.3-0.3,1.7c-0.2,0.4-0.5,0.7-0.9,0.9
	c-0.4,0.2-0.8,0.3-1.3,0.3c-0.8,0-1.4-0.2-1.9-0.7C88.4,65,88.2,64.3,88.2,63.4z M89.1,63.4c0,0.7,0.2,1.2,0.5,1.6
	c0.3,0.3,0.7,0.5,1.2,0.5c0.5,0,0.8-0.2,1.2-0.5c0.3-0.4,0.5-0.9,0.5-1.6c0-0.7-0.2-1.2-0.5-1.5c-0.3-0.3-0.7-0.5-1.2-0.5
	c-0.5,0-0.9,0.2-1.2,0.5C89.3,62.1,89.1,62.7,89.1,63.4z M94.4,60.6h2.1c0.5,0,0.9,0,1.2,0.1c0.3,0.1,0.5,0.2,0.7,0.5
	c0.2,0.2,0.3,0.5,0.3,0.8c0,0.3-0.1,0.5-0.2,0.7c-0.1,0.2-0.3,0.4-0.5,0.5c0.3,0.1,0.5,0.2,0.6,0.5c0.2,0.2,0.3,0.5,0.3,0.8
	c0,0.5-0.2,0.9-0.6,1.2c-0.3,0.3-0.8,0.4-1.5,0.4h-2.5L94.4,60.6z M95.4,62.9h1c0.4,0,0.7,0,0.8-0.1c0.1,0,0.3-0.1,0.4-0.3
	c0.1-0.1,0.2-0.3,0.2-0.5c0-0.3-0.1-0.5-0.3-0.6c-0.2-0.1-0.6-0.2-1-0.2h-1V62.9z M95.4,65.3h1.2c0.5,0,0.9-0.1,1.1-0.2
	c0.2-0.1,0.3-0.3,0.3-0.6c0-0.2-0.1-0.3-0.2-0.5c-0.1-0.2-0.3-0.2-0.4-0.3c-0.2,0-0.5-0.1-0.9-0.1h-1.1V65.3z M58.8,77.9l2.9-7.6
	h1.1l3.1,7.6h-1.1l-0.9-2.3h-3.2l-0.8,2.3L58.8,77.9z M61,74.8h2.6l-0.8-2.1c-0.2-0.6-0.4-1.2-0.5-1.6c-0.1,0.5-0.2,1-0.4,1.5
	L61,74.8z M67,72.4h4.3v5.5h-0.9v-4.7H68v2.7c0,0.6,0,1.1-0.1,1.3c0,0.2-0.2,0.4-0.3,0.5c-0.2,0.2-0.5,0.2-0.8,0.2
	c-0.2,0-0.5,0-0.7,0v-0.8h0.4c0.2,0,0.3,0,0.4-0.1c0.1,0,0.1-0.1,0.2-0.2c0-0.1,0-0.4,0-0.8L67,72.4z M76.5,76.1l1,0.1
	c-0.2,0.6-0.4,1-0.8,1.3c-0.4,0.3-0.9,0.5-1.6,0.5c-0.8,0-1.4-0.2-1.9-0.7c-0.5-0.5-0.7-1.2-0.7-2.1c0-0.9,0.2-1.6,0.7-2.1
	c0.5-0.5,1.1-0.8,1.8-0.8c0.7,0,1.3,0.2,1.8,0.7c0.5,0.5,0.7,1.2,0.7,2.1c0,0.1,0,0.1,0,0.2h-4.1c0,0.6,0.2,1.1,0.5,1.4
	c0.3,0.3,0.7,0.5,1.1,0.5c0.3,0,0.6-0.1,0.9-0.3C76.2,76.8,76.4,76.5,76.5,76.1z M73.5,74.7h3.1c0-0.5-0.2-0.8-0.4-1
	c-0.3-0.4-0.7-0.5-1.1-0.5c-0.4,0-0.8,0.1-1.1,0.4C73.7,73.8,73.5,74.2,73.5,74.7L73.5,74.7z M78.6,72.4h0.9v2.4
	c0.3,0,0.5-0.1,0.6-0.2c0.1-0.1,0.3-0.4,0.5-1c0.2-0.4,0.3-0.7,0.4-0.9c0.1-0.1,0.2-0.2,0.4-0.3c0.2,0,0.4-0.1,0.7-0.1h0.2v0.8
	l-0.3,0c-0.2,0-0.4,0-0.5,0.1c-0.1,0.1-0.2,0.3-0.3,0.7c-0.1,0.4-0.3,0.6-0.4,0.7c-0.1,0.1-0.3,0.3-0.5,0.4c0.4,0.1,0.8,0.5,1.2,1.1
	l1,1.7h-1l-1-1.7c-0.2-0.3-0.4-0.6-0.5-0.7c-0.2-0.1-0.3-0.2-0.5-0.2v2.5h-0.9L78.6,72.4z M87,75.9l0.9,0.1
	c-0.1,0.6-0.4,1.1-0.8,1.5c-0.4,0.4-0.9,0.5-1.5,0.5c-0.7,0-1.4-0.2-1.8-0.7c-0.5-0.5-0.7-1.2-0.7-2.1c0-0.6,0.1-1.1,0.3-1.6
	c0.2-0.4,0.5-0.8,0.9-1c0.4-0.2,0.8-0.3,1.3-0.3c0.6,0,1.1,0.1,1.5,0.5c0.4,0.3,0.6,0.7,0.7,1.3l-0.9,0.1c-0.1-0.4-0.2-0.6-0.5-0.8
	c-0.2-0.2-0.5-0.3-0.8-0.3c-0.5,0-0.9,0.2-1.1,0.5c-0.3,0.3-0.4,0.9-0.4,1.6c0,0.7,0.1,1.3,0.4,1.6c0.3,0.3,0.7,0.5,1.1,0.5
	c0.4,0,0.7-0.1,0.9-0.3C86.8,76.7,86.9,76.4,87,75.9L87,75.9z M92.4,76.1l1,0.1c-0.1,0.6-0.4,1-0.8,1.3C92.2,77.9,91.6,78,91,78
	c-0.8,0-1.4-0.2-1.9-0.7c-0.5-0.5-0.7-1.2-0.7-2.1c0-0.9,0.2-1.6,0.7-2.1c0.5-0.5,1.1-0.8,1.8-0.8c0.7,0,1.3,0.2,1.8,0.7
	c0.5,0.5,0.7,1.2,0.7,2.1c0,0.1,0,0.1,0,0.2h-4.1c0,0.6,0.2,1.1,0.5,1.4c0.3,0.3,0.7,0.5,1.1,0.5c0.3,0,0.6-0.1,0.9-0.3
	C92.1,76.8,92.3,76.5,92.4,76.1z M89.4,74.7h3.1c0-0.5-0.2-0.8-0.4-1c-0.3-0.4-0.7-0.5-1.1-0.5c-0.4,0-0.8,0.1-1.1,0.4
	C89.6,73.8,89.4,74.2,89.4,74.7z M94.6,72.4h0.9v4.2l2.6-4.2h1v5.5h-0.9v-4.2l-2.6,4.2h-1L94.6,72.4z M97.8,70.4h0.6
	c-0.1,0.4-0.2,0.8-0.5,1c-0.3,0.2-0.6,0.4-1.1,0.4c-0.4,0-0.8-0.1-1.1-0.3c-0.3-0.2-0.4-0.6-0.5-1H96c0,0.2,0.1,0.4,0.3,0.5
	c0.1,0.1,0.3,0.2,0.6,0.2c0.3,0,0.5-0.1,0.6-0.2C97.6,70.8,97.7,70.6,97.8,70.4z M51.5,89.7v-7.6h2.8c0.6,0,1,0.1,1.4,0.2
	c0.3,0.2,0.6,0.4,0.8,0.7c0.2,0.3,0.3,0.7,0.3,1c0,0.3-0.1,0.6-0.3,0.9c-0.2,0.3-0.4,0.5-0.8,0.7c0.5,0.1,0.8,0.4,1.1,0.7
	c0.2,0.3,0.4,0.7,0.4,1.1c0,0.4-0.1,0.7-0.2,1c-0.2,0.3-0.3,0.5-0.6,0.7c-0.2,0.2-0.5,0.3-0.8,0.4c-0.3,0.1-0.7,0.1-1.2,0.1
	L51.5,89.7z M52.5,85.4h1.6c0.4,0,0.8,0,1-0.1c0.3-0.1,0.4-0.2,0.6-0.4c0.1-0.2,0.2-0.4,0.2-0.7c0-0.3-0.1-0.5-0.2-0.7
	c-0.1-0.2-0.3-0.3-0.5-0.4c-0.2-0.1-0.6-0.1-1.2-0.1h-1.5V85.4z M52.5,88.9h1.9c0.3,0,0.6,0,0.7,0c0.2,0,0.4-0.1,0.6-0.2
	c0.2-0.1,0.3-0.2,0.4-0.4c0.1-0.2,0.2-0.4,0.2-0.6c0-0.3-0.1-0.5-0.2-0.7c-0.1-0.2-0.3-0.4-0.6-0.4c-0.3-0.1-0.6-0.1-1.1-0.1h-1.8
	L52.5,88.9z M58.5,84.3h0.9v4.2l2.6-4.2h1v5.5h-0.9v-4.2l-2.6,4.2h-1V84.3z M64.4,84.3h0.9v2.4c0.3,0,0.5-0.1,0.6-0.2
	c0.1-0.1,0.3-0.4,0.5-1c0.2-0.4,0.3-0.7,0.4-0.9c0.1-0.1,0.2-0.2,0.4-0.3c0.2,0,0.4-0.1,0.7-0.1h0.2V85L68,85c-0.2,0-0.4,0-0.5,0.1
	c-0.1,0.1-0.2,0.3-0.3,0.7c-0.1,0.4-0.3,0.6-0.4,0.7c-0.1,0.1-0.3,0.3-0.5,0.4c0.4,0.1,0.8,0.5,1.2,1.1l1,1.7h-1l-1-1.7
	c-0.2-0.3-0.4-0.6-0.5-0.7c-0.2-0.1-0.3-0.2-0.5-0.2v2.5h-0.9L64.4,84.3z M68.7,84.3h4.4V85h-1.8v4.7h-0.9V85h-1.8V84.3z M73.5,87
	c0-1,0.3-1.8,0.8-2.3c0.5-0.4,1-0.6,1.7-0.6c0.8,0,1.4,0.2,1.9,0.7c0.5,0.5,0.7,1.2,0.7,2c0,0.7-0.1,1.3-0.3,1.7
	c-0.2,0.4-0.5,0.7-0.9,0.9c-0.4,0.2-0.8,0.3-1.3,0.3c-0.8,0-1.4-0.2-1.9-0.7C73.8,88.6,73.5,87.9,73.5,87z M74.5,87
	c0,0.7,0.2,1.2,0.5,1.6c0.3,0.3,0.7,0.5,1.2,0.5c0.5,0,0.8-0.2,1.2-0.5c0.3-0.4,0.5-0.9,0.5-1.6c0-0.7-0.2-1.2-0.5-1.5
	c-0.3-0.3-0.7-0.5-1.2-0.5c-0.5,0-0.9,0.2-1.2,0.5C74.6,85.8,74.5,86.3,74.5,87z M79.8,91.9v-7.6h0.8V85c0.2-0.3,0.4-0.5,0.7-0.6
	c0.3-0.1,0.6-0.2,0.9-0.2c0.5,0,0.9,0.1,1.2,0.4c0.4,0.2,0.6,0.6,0.8,1c0.2,0.4,0.3,0.9,0.3,1.4c0,0.6-0.1,1.1-0.3,1.5
	c-0.2,0.4-0.5,0.8-0.9,1c-0.4,0.2-0.8,0.4-1.2,0.4c-0.3,0-0.6-0.1-0.8-0.2c-0.2-0.1-0.4-0.3-0.6-0.5v2.7H79.8z M80.6,87
	c0,0.7,0.1,1.2,0.4,1.6c0.3,0.3,0.6,0.5,1,0.5c0.4,0,0.8-0.2,1.1-0.5c0.3-0.3,0.4-0.9,0.4-1.6c0-0.7-0.1-1.2-0.4-1.6
	c-0.3-0.3-0.6-0.5-1-0.5c-0.4,0-0.7,0.2-1,0.6C80.8,85.8,80.6,86.3,80.6,87z M85.3,87c0-1,0.3-1.8,0.8-2.3c0.5-0.4,1-0.6,1.7-0.6
	c0.8,0,1.4,0.2,1.9,0.7c0.5,0.5,0.7,1.2,0.7,2c0,0.7-0.1,1.3-0.3,1.7c-0.2,0.4-0.5,0.7-0.9,0.9c-0.4,0.2-0.8,0.3-1.3,0.3
	c-0.8,0-1.4-0.2-1.9-0.7C85.5,88.6,85.3,87.9,85.3,87z M86.3,87c0,0.7,0.2,1.2,0.5,1.6c0.3,0.3,0.7,0.5,1.2,0.5
	c0.5,0,0.8-0.2,1.2-0.5c0.3-0.4,0.5-0.9,0.5-1.6c0-0.7-0.2-1.2-0.5-1.5c-0.3-0.3-0.7-0.5-1.2-0.5c-0.5,0-0.9,0.2-1.2,0.5
	C86.4,85.8,86.3,86.3,86.3,87z M91.5,84.3h2.1c0.5,0,0.9,0,1.2,0.1c0.3,0.1,0.5,0.2,0.7,0.5c0.2,0.2,0.3,0.5,0.3,0.8
	c0,0.3-0.1,0.5-0.2,0.7c-0.1,0.2-0.3,0.4-0.5,0.5c0.3,0.1,0.5,0.2,0.6,0.5c0.2,0.2,0.3,0.5,0.3,0.8c0,0.5-0.2,0.9-0.6,1.2
	c-0.3,0.3-0.8,0.4-1.5,0.4h-2.5L91.5,84.3z M92.5,86.6h1c0.4,0,0.7,0,0.8-0.1c0.1,0,0.3-0.1,0.4-0.3c0.1-0.1,0.2-0.3,0.2-0.5
	c0-0.3-0.1-0.5-0.3-0.6c-0.2-0.1-0.6-0.2-1-0.2h-1V86.6z M92.5,89h1.2c0.5,0,0.9-0.1,1.1-0.2c0.2-0.1,0.3-0.3,0.3-0.6
	c0-0.2-0.1-0.3-0.2-0.5c-0.1-0.2-0.3-0.2-0.4-0.3c-0.2,0-0.5-0.1-0.9-0.1h-1.1V89z M97.2,84.3h0.9v4.2l2.6-4.2h1v5.5h-0.9v-4.2
	l-2.6,4.2h-1V84.3z M102.7,84.3h0.9v1c0,0.4,0,0.8,0.1,1c0.1,0.2,0.2,0.4,0.4,0.5c0.2,0.2,0.5,0.2,0.8,0.2c0.4,0,0.8-0.1,1.4-0.3
	v-2.5h0.9v5.5h-0.9v-2.2c-0.6,0.2-1.1,0.3-1.6,0.3c-0.4,0-0.8-0.1-1.1-0.3c-0.3-0.2-0.5-0.5-0.7-0.8c-0.1-0.3-0.2-0.6-0.2-1V84.3z"
	/>
<path id="path30" class="st2" d="M62.7,109.7l1.9,1l-0.2,0.5l-1.3-0.7l-1.5,2.8l-0.6-0.3L62.7,109.7z M62.6,113.8l0.3-0.6l0.6,0.3
	l-0.3,0.6L62.6,113.8z M68.1,110.5l3,0.9l-1.3,4.3l0.4,0.1l-0.5,1.7l-0.6-0.2l0.3-1.1l-3.2-0.9l-0.3,1.1l-0.6-0.2l0.5-1.7l0.4,0.1
	c0.6-0.5,1.1-1.6,1.6-3.4L68.1,110.5z M70.2,111.8l-1.7-0.5l-0.1,0.2c-0.1,0.4-0.3,1-0.6,1.7c-0.3,0.7-0.6,1.2-1,1.6l2.3,0.7
	L70.2,111.8z M71.3,112.8l0.9,0.1l0.5,3.1l1.5-2.8l0.9,0.1l-0.5,3.6l-0.6-0.1l0.4-2.9l-1.5,2.8l-0.6-0.1l-0.6-3.2l-0.4,3.1l-0.6-0.1
	L71.3,112.8z M75.6,113.5l0.6,0l0,2.8l1.8-2.8l0.7,0l0,3.7l-0.6,0l0-2.8l-1.8,2.8l-0.7,0L75.6,113.5z M78.9,113.6l3-0.2l0,0.5
	l-1.2,0.1l0.2,3.2l-0.6,0l-0.2-3.2l-1.2,0.1L78.9,113.6z M83,118.4l-0.7-5l0.6-0.1l0.1,0.5c0.1-0.2,0.2-0.4,0.4-0.5
	c0.2-0.1,0.3-0.2,0.6-0.2c0.3,0,0.6,0,0.9,0.1c0.3,0.1,0.5,0.3,0.6,0.6c0.2,0.3,0.3,0.6,0.3,0.9c0.1,0.4,0,0.7-0.1,1
	c-0.1,0.3-0.3,0.6-0.5,0.8c-0.2,0.2-0.5,0.3-0.8,0.4c-0.2,0-0.4,0-0.6-0.1c-0.2-0.1-0.3-0.2-0.4-0.3l0.3,1.8L83,118.4z M83.1,115.1
	c0.1,0.5,0.2,0.8,0.4,1c0.2,0.2,0.5,0.3,0.7,0.2c0.3,0,0.5-0.2,0.7-0.4c0.2-0.3,0.2-0.6,0.1-1.1c-0.1-0.5-0.2-0.8-0.4-1
	c-0.2-0.2-0.5-0.3-0.7-0.2c-0.3,0-0.5,0.2-0.6,0.5C83.1,114.3,83,114.7,83.1,115.1z M86,114.7c-0.2-0.7-0.1-1.2,0.2-1.6
	c0.2-0.3,0.6-0.6,1-0.7c0.5-0.1,0.9,0,1.3,0.2c0.4,0.2,0.6,0.7,0.8,1.2c0.1,0.5,0.1,0.8,0,1.1c-0.1,0.3-0.2,0.5-0.5,0.8
	c-0.2,0.2-0.5,0.3-0.8,0.4c-0.5,0.1-0.9,0-1.3-0.2C86.4,115.7,86.2,115.3,86,114.7z M86.7,114.5c0.1,0.5,0.3,0.8,0.5,1
	c0.3,0.2,0.5,0.2,0.8,0.2c0.3-0.1,0.5-0.2,0.7-0.5c0.1-0.3,0.2-0.6,0.1-1.1c-0.1-0.4-0.3-0.8-0.5-0.9c-0.3-0.2-0.5-0.2-0.8-0.2
	c-0.3,0.1-0.5,0.2-0.7,0.5C86.6,113.7,86.6,114.1,86.7,114.5z M89.4,111.9l1.4-0.4c0.3-0.1,0.6-0.2,0.8-0.1c0.2,0,0.4,0.1,0.5,0.2
	c0.2,0.1,0.3,0.3,0.3,0.5c0.1,0.2,0.1,0.3,0,0.5c0,0.1-0.1,0.3-0.2,0.4c0.2,0,0.3,0.1,0.5,0.2c0.2,0.1,0.3,0.3,0.3,0.5
	c0.1,0.3,0,0.6-0.1,0.8c-0.2,0.2-0.5,0.4-0.9,0.5l-1.6,0.5L89.4,111.9z M90.5,113.2l0.6-0.2c0.3-0.1,0.4-0.1,0.5-0.2
	c0.1-0.1,0.2-0.1,0.2-0.2c0-0.1,0.1-0.2,0-0.3c-0.1-0.2-0.2-0.3-0.3-0.3c-0.2,0-0.4,0-0.7,0.1l-0.7,0.2L90.5,113.2z M90.9,114.7
	l0.8-0.2c0.3-0.1,0.6-0.2,0.7-0.3c0.1-0.1,0.1-0.3,0.1-0.5c0-0.1-0.1-0.2-0.2-0.3c-0.1-0.1-0.2-0.1-0.3-0.1c-0.1,0-0.3,0.1-0.6,0.1
	l-0.7,0.2L90.9,114.7z"/>
<path id="path32" class="st2" d="M49,114.3c0.4-0.5,0.9-0.8,1.4-0.9c0.5-0.1,1,0.1,1.5,0.4c0.3,0.2,0.5,0.5,0.6,0.9
	c0.1,0.3,0.2,0.7,0.1,1c-0.1,0.4-0.2,0.7-0.5,1c-0.3,0.3-0.6,0.6-0.9,0.7c-0.3,0.2-0.7,0.2-1,0.1c-0.4-0.1-0.7-0.2-1-0.4
	c-0.3-0.2-0.5-0.5-0.6-0.9c-0.1-0.3-0.1-0.7-0.1-1C48.6,114.9,48.7,114.5,49,114.3z M49.4,114.6c-0.3,0.4-0.4,0.8-0.4,1.2
	c0,0.4,0.2,0.7,0.5,1c0.3,0.3,0.7,0.4,1.1,0.3c0.4-0.1,0.7-0.3,1.1-0.7c0.2-0.3,0.3-0.5,0.4-0.8c0.1-0.3,0.1-0.5,0-0.8
	c-0.1-0.2-0.2-0.5-0.5-0.6c-0.3-0.2-0.7-0.3-1-0.3C50.2,113.9,49.8,114.1,49.4,114.6z M53.7,115.1l2.3,1.4l-0.3,0.4l-1.8-1.1l-2,3.1
	l-0.5-0.3L53.7,115.1z M54.1,120.3l1.9-3.7l1.4,0.7c0.2,0.1,0.4,0.2,0.5,0.3c0.2,0.1,0.3,0.3,0.4,0.4c0.1,0.1,0.1,0.3,0.1,0.5
	c0,0.2-0.1,0.4-0.1,0.6c-0.2,0.3-0.4,0.5-0.7,0.6c-0.3,0.1-0.7,0-1.3-0.2l-0.9-0.5l-0.8,1.5L54.1,120.3z M55.6,118.6l1,0.5
	c0.3,0.2,0.6,0.2,0.8,0.2c0.2,0,0.3-0.2,0.5-0.4c0.1-0.2,0.1-0.3,0.1-0.5c0-0.2-0.1-0.3-0.2-0.4c-0.1-0.1-0.2-0.2-0.4-0.3l-0.9-0.5
	L55.6,118.6z M57.6,122.1l1.7-3.8l0.5,0.2l-0.7,1.6l2,0.9l0.7-1.6l0.5,0.2l-1.7,3.8l-0.5-0.2l0.8-1.8l-2-0.9l-0.8,1.8L57.6,122.1z
	 M62.7,119.8l0.5,0.2l-1.1,3.1l3.2-2.4l0.5,0.2l-1.3,3.9l-0.5-0.2l1.1-3.1l-3.1,2.4l-0.5-0.2L62.7,119.8z M66.3,121l3.2,0.7l-0.9,4
	l-0.5-0.1l0.8-3.6l-2.1-0.5l-0.8,3.6l-0.5-0.1L66.3,121z M71.1,124.2c0.1-0.5,0.2-0.9,0.3-1.2c0.1-0.3,0.3-0.5,0.5-0.6
	c0.2-0.1,0.5-0.2,0.8-0.1c0.2,0,0.4,0.1,0.6,0.2c0.2,0.1,0.3,0.3,0.4,0.4c0.1,0.2,0.1,0.4,0.2,0.6c0,0.2,0,0.6,0,1
	c-0.1,0.5-0.2,0.9-0.3,1.2c-0.1,0.3-0.3,0.5-0.5,0.6c-0.2,0.1-0.5,0.2-0.8,0.1c-0.4-0.1-0.7-0.2-0.9-0.5C71,125.6,71,125,71.1,124.2
	z M71.6,124.3c-0.1,0.7-0.1,1.1,0.1,1.4c0.1,0.2,0.3,0.4,0.5,0.4c0.2,0,0.4-0.1,0.6-0.3c0.2-0.2,0.3-0.6,0.4-1.3
	c0.1-0.7,0.1-1.1-0.1-1.4c-0.1-0.2-0.3-0.4-0.5-0.4c-0.2,0-0.4,0-0.6,0.2C71.8,123.2,71.7,123.6,71.6,124.3z M74.2,124.6
	c0-0.5,0.1-0.9,0.2-1.2c0.1-0.3,0.3-0.5,0.5-0.7c0.2-0.1,0.5-0.2,0.8-0.2c0.2,0,0.4,0.1,0.6,0.2c0.2,0.1,0.3,0.2,0.4,0.4
	c0.1,0.2,0.2,0.4,0.2,0.6c0,0.2,0.1,0.6,0,1c0,0.5-0.1,0.9-0.2,1.2c-0.1,0.3-0.3,0.5-0.5,0.7c-0.2,0.1-0.5,0.2-0.8,0.2
	c-0.4,0-0.7-0.2-0.9-0.5C74.2,125.9,74.1,125.4,74.2,124.6z M74.7,124.6c-0.1,0.7,0,1.1,0.1,1.4c0.1,0.2,0.3,0.4,0.6,0.4
	c0.2,0,0.4-0.1,0.6-0.3c0.2-0.2,0.3-0.7,0.3-1.3c0.1-0.7,0-1.1-0.1-1.4c-0.1-0.2-0.3-0.4-0.6-0.4c-0.2,0-0.4,0.1-0.6,0.3
	C74.9,123.5,74.7,124,74.7,124.6z M77.3,124.8c0-0.5,0.1-0.9,0.2-1.2c0.1-0.3,0.3-0.5,0.5-0.7c0.2-0.2,0.5-0.2,0.8-0.2
	c0.2,0,0.4,0.1,0.6,0.1c0.2,0.1,0.3,0.2,0.4,0.4c0.1,0.2,0.2,0.4,0.2,0.6c0.1,0.2,0.1,0.6,0.1,1c0,0.5-0.1,0.9-0.2,1.2
	c-0.1,0.3-0.3,0.5-0.5,0.7c-0.2,0.2-0.5,0.2-0.8,0.2c-0.4,0-0.7-0.2-0.9-0.4C77.4,126.1,77.3,125.6,77.3,124.8z M77.8,124.8
	c0,0.7,0.1,1.1,0.2,1.4c0.2,0.2,0.3,0.3,0.6,0.4c0.2,0,0.4-0.1,0.6-0.3c0.2-0.2,0.3-0.7,0.3-1.4c0-0.7-0.1-1.1-0.2-1.4
	c-0.2-0.2-0.3-0.3-0.6-0.4c-0.2,0-0.4,0.1-0.6,0.3C77.9,123.6,77.8,124.1,77.8,124.8z M80.3,124.8c0-0.5,0-0.9,0.1-1.2
	c0.1-0.3,0.2-0.5,0.4-0.7c0.2-0.2,0.4-0.3,0.7-0.3c0.2,0,0.4,0,0.6,0.1c0.2,0.1,0.3,0.2,0.4,0.4c0.1,0.2,0.2,0.4,0.3,0.6
	c0.1,0.2,0.1,0.6,0.2,1c0,0.5,0,0.9-0.1,1.2c-0.1,0.3-0.2,0.5-0.4,0.7c-0.2,0.2-0.4,0.3-0.7,0.3c-0.4,0-0.7-0.1-1-0.4
	C80.5,126.1,80.4,125.6,80.3,124.8z M80.8,124.8c0.1,0.7,0.2,1.1,0.3,1.3c0.2,0.2,0.4,0.3,0.6,0.3c0.2,0,0.4-0.1,0.6-0.4
	c0.1-0.2,0.2-0.7,0.1-1.4c-0.1-0.7-0.2-1.1-0.3-1.3c-0.2-0.2-0.4-0.3-0.6-0.3c-0.2,0-0.4,0.1-0.5,0.3
	C80.8,123.6,80.8,124.1,80.8,124.8z M83.4,124.6c-0.1-0.5-0.1-0.9,0-1.2c0.1-0.3,0.2-0.6,0.4-0.7c0.2-0.2,0.4-0.3,0.7-0.3
	c0.2,0,0.4,0,0.6,0.1c0.2,0.1,0.3,0.2,0.5,0.3c0.1,0.2,0.2,0.3,0.3,0.6c0.1,0.2,0.2,0.6,0.2,1c0.1,0.5,0.1,0.9,0,1.2
	c-0.1,0.3-0.2,0.6-0.4,0.7c-0.2,0.2-0.4,0.3-0.7,0.3c-0.4,0.1-0.7,0-1-0.3C83.7,125.9,83.5,125.4,83.4,124.6z M83.9,124.5
	c0.1,0.7,0.2,1.1,0.4,1.3c0.2,0.2,0.4,0.3,0.6,0.3c0.2,0,0.4-0.2,0.5-0.4c0.1-0.2,0.1-0.7,0.1-1.4c-0.1-0.7-0.2-1.1-0.4-1.3
	c-0.2-0.2-0.4-0.3-0.6-0.3c-0.2,0-0.4,0.2-0.5,0.4C83.9,123.4,83.8,123.8,83.9,124.5z M86.5,124.1c-0.1-0.5-0.1-0.9-0.1-1.2
	c0-0.3,0.2-0.6,0.3-0.8c0.2-0.2,0.4-0.3,0.7-0.4c0.2,0,0.4,0,0.6,0c0.2,0.1,0.3,0.2,0.5,0.3c0.1,0.1,0.3,0.3,0.4,0.6
	c0.1,0.2,0.2,0.5,0.3,1c0.1,0.5,0.1,0.9,0.1,1.2c0,0.3-0.2,0.6-0.3,0.8c-0.2,0.2-0.4,0.3-0.7,0.4c-0.4,0.1-0.7,0-1-0.3
	C86.9,125.4,86.6,124.9,86.5,124.1z M87,124.1c0.1,0.7,0.3,1.1,0.5,1.3c0.2,0.2,0.4,0.3,0.6,0.2c0.2,0,0.4-0.2,0.5-0.4
	c0.1-0.3,0.1-0.7,0-1.4c-0.1-0.7-0.3-1.1-0.5-1.3c-0.2-0.2-0.4-0.3-0.6-0.2c-0.2,0-0.4,0.2-0.5,0.4C86.9,122.9,86.9,123.4,87,124.1z
	 M89.5,123.6c-0.1-0.5-0.2-0.9-0.2-1.2c0-0.3,0.1-0.6,0.2-0.8c0.1-0.2,0.4-0.4,0.7-0.4c0.2-0.1,0.4-0.1,0.6,0c0.2,0,0.4,0.1,0.5,0.3
	c0.2,0.1,0.3,0.3,0.4,0.5c0.1,0.2,0.2,0.5,0.4,0.9c0.1,0.5,0.2,0.9,0.2,1.2c0,0.3-0.1,0.6-0.2,0.8c-0.1,0.2-0.4,0.4-0.7,0.4
	c-0.4,0.1-0.7,0.1-1-0.2C90,124.9,89.7,124.3,89.5,123.6z M90,123.5c0.2,0.7,0.4,1.1,0.6,1.2c0.2,0.2,0.4,0.2,0.7,0.2
	c0.2-0.1,0.4-0.2,0.5-0.5c0.1-0.3,0-0.7-0.1-1.4c-0.2-0.7-0.4-1.1-0.6-1.2c-0.2-0.2-0.4-0.2-0.7-0.2c-0.2,0.1-0.4,0.2-0.5,0.4
	C89.7,122.3,89.8,122.8,90,123.5L90,123.5z M92.5,122.7c-0.2-0.5-0.2-0.9-0.2-1.2c0-0.3,0.1-0.6,0.2-0.8c0.1-0.2,0.3-0.4,0.6-0.5
	c0.2-0.1,0.4-0.1,0.6-0.1c0.2,0,0.4,0.1,0.5,0.2c0.2,0.1,0.3,0.3,0.4,0.5c0.1,0.2,0.3,0.5,0.4,0.9c0.2,0.5,0.2,0.9,0.2,1.2
	c0,0.3-0.1,0.6-0.2,0.8c-0.1,0.2-0.3,0.4-0.6,0.5c-0.4,0.1-0.7,0.1-1-0.1C93,124,92.7,123.5,92.5,122.7z M93,122.6
	c0.2,0.6,0.4,1.1,0.7,1.2c0.2,0.2,0.4,0.2,0.7,0.1c0.2-0.1,0.4-0.2,0.5-0.5c0.1-0.3,0-0.7-0.2-1.4c-0.2-0.6-0.4-1.1-0.7-1.2
	c-0.2-0.2-0.4-0.2-0.7-0.1c-0.2,0.1-0.4,0.2-0.4,0.5C92.7,121.5,92.8,121.9,93,122.6z M95.4,121.7c-0.2-0.5-0.3-0.8-0.3-1.2
	c0-0.3,0-0.6,0.2-0.8c0.1-0.2,0.3-0.4,0.6-0.5c0.2-0.1,0.4-0.1,0.6-0.1c0.2,0,0.4,0.1,0.5,0.2c0.2,0.1,0.3,0.3,0.5,0.5
	c0.1,0.2,0.3,0.5,0.4,0.9c0.2,0.5,0.3,0.8,0.3,1.2c0,0.3,0,0.6-0.2,0.8c-0.1,0.2-0.3,0.4-0.6,0.5c-0.4,0.1-0.7,0.1-1,0
	C96.1,122.9,95.7,122.4,95.4,121.7z M95.9,121.5c0.3,0.6,0.5,1,0.7,1.2c0.2,0.2,0.5,0.2,0.7,0.1c0.2-0.1,0.4-0.3,0.4-0.5
	c0.1-0.3,0-0.7-0.3-1.4c-0.3-0.6-0.5-1-0.7-1.2c-0.2-0.2-0.5-0.2-0.7-0.1c-0.2,0.1-0.4,0.2-0.4,0.5
	C95.6,120.4,95.7,120.9,95.9,121.5z M98.2,120.6c-0.2-0.4-0.4-0.8-0.4-1.1c0-0.3,0-0.6,0.1-0.8c0.1-0.2,0.3-0.4,0.6-0.6
	c0.2-0.1,0.4-0.2,0.6-0.2c0.2,0,0.4,0.1,0.5,0.2c0.2,0.1,0.3,0.2,0.5,0.4c0.2,0.2,0.3,0.5,0.5,0.8c0.2,0.4,0.4,0.8,0.4,1.1
	c0,0.3,0,0.6-0.1,0.8c-0.1,0.2-0.3,0.4-0.6,0.6c-0.4,0.2-0.7,0.2-1,0.1C99,121.7,98.6,121.3,98.2,120.6z M98.7,120.3
	c0.3,0.6,0.6,1,0.8,1.1c0.2,0.1,0.5,0.1,0.7,0c0.2-0.1,0.3-0.3,0.4-0.6c0-0.3-0.1-0.7-0.4-1.3c-0.3-0.6-0.6-1-0.8-1.1
	c-0.2-0.1-0.5-0.1-0.7,0c-0.2,0.1-0.3,0.3-0.4,0.5C98.2,119.3,98.4,119.7,98.7,120.3L98.7,120.3z M101,119.1
	c-0.2-0.4-0.4-0.8-0.5-1.1c-0.1-0.3,0-0.6,0-0.8c0.1-0.2,0.3-0.4,0.5-0.6c0.2-0.1,0.4-0.2,0.6-0.2c0.2,0,0.4,0,0.6,0.1
	c0.2,0.1,0.4,0.2,0.5,0.4c0.2,0.2,0.4,0.4,0.6,0.8c0.2,0.4,0.4,0.8,0.5,1.1c0.1,0.3,0,0.6,0,0.8c-0.1,0.2-0.3,0.4-0.5,0.6
	c-0.3,0.2-0.7,0.2-1,0.1C101.8,120.2,101.4,119.8,101,119.1z M101.5,118.9c0.3,0.6,0.6,0.9,0.9,1.1c0.3,0.1,0.5,0.1,0.7,0
	c0.2-0.1,0.3-0.3,0.3-0.6c0-0.3-0.1-0.7-0.5-1.3c-0.3-0.6-0.6-0.9-0.9-1.1c-0.2-0.1-0.5-0.1-0.7,0c-0.2,0.1-0.3,0.3-0.3,0.5
	C101,117.8,101.1,118.3,101.5,118.9L101.5,118.9z M103.7,117.6c-0.3-0.4-0.4-0.8-0.5-1.1c-0.1-0.3-0.1-0.6,0-0.8
	c0.1-0.2,0.2-0.4,0.5-0.6c0.2-0.1,0.4-0.2,0.6-0.2c0.2,0,0.4,0,0.6,0.1c0.2,0.1,0.4,0.2,0.5,0.4c0.2,0.2,0.4,0.4,0.6,0.8
	c0.3,0.4,0.4,0.8,0.5,1.1c0.1,0.3,0.1,0.6,0,0.8c-0.1,0.2-0.2,0.4-0.5,0.6c-0.3,0.2-0.7,0.3-1,0.1
	C104.5,118.6,104.1,118.2,103.7,117.6L103.7,117.6z M104.1,117.3c0.4,0.6,0.7,0.9,0.9,1c0.3,0.1,0.5,0.1,0.7,0s0.3-0.3,0.3-0.6
	c0-0.3-0.2-0.7-0.5-1.3c-0.4-0.6-0.7-0.9-0.9-1c-0.3-0.1-0.5-0.1-0.7,0c-0.2,0.1-0.3,0.3-0.3,0.6
	C103.6,116.3,103.8,116.7,104.1,117.3z M106.2,115.9c-0.3-0.4-0.5-0.7-0.6-1c-0.1-0.3-0.1-0.6-0.1-0.8c0.1-0.2,0.2-0.5,0.4-0.7
	c0.2-0.1,0.4-0.2,0.5-0.3c0.2,0,0.4,0,0.6,0c0.2,0.1,0.4,0.2,0.6,0.3c0.2,0.2,0.4,0.4,0.7,0.7c0.3,0.4,0.5,0.7,0.6,1
	c0.1,0.3,0.1,0.6,0.1,0.8c-0.1,0.3-0.2,0.5-0.4,0.7c-0.3,0.2-0.6,0.3-1,0.2C107.2,116.9,106.7,116.5,106.2,115.9z M106.6,115.6
	c0.4,0.5,0.8,0.8,1,0.9c0.3,0.1,0.5,0,0.7-0.1c0.2-0.1,0.3-0.4,0.3-0.6c0-0.3-0.2-0.7-0.7-1.2c-0.4-0.5-0.8-0.8-1-0.9
	c-0.3-0.1-0.5,0-0.7,0.1c-0.2,0.1-0.3,0.3-0.3,0.6C106,114.6,106.2,115,106.6,115.6z"/>
</svg>
