<?xml version="1.0" encoding="utf-8"?>
<!-- Generator: Adobe Illustrator 26.4.1, SVG Export Plug-In . SVG Version: 6.00 Build 0)  -->
<svg version="1.1"
	 id="svg29" xmlns:svg="http://www.w3.org/2000/svg" xmlns:rdf="http://www.w3.org/1999/02/22-rdf-syntax-ns#" xmlns:cc="http://creativecommons.org/ns#" xmlns:dc="http://purl.org/dc/elements/1.1/"
	 xmlns="http://www.w3.org/2000/svg" xmlns:xlink="http://www.w3.org/1999/xlink" x="0px" y="0px" viewBox="0 0 155.9 155.9"
	 style="enable-background:new 0 0 155.9 155.9;" xml:space="preserve">
<style type="text/css">
	.st0{fill:none;stroke:#1B1918;stroke-width:1.4173;}
	.st1{fill:none;stroke:#1B1918;stroke-width:0.7087;}
	.st2{fill-rule:evenodd;clip-rule:evenodd;fill:#1B1918;}
</style>
<path id="path2" class="st0" d="M78,21.5c31.2,0,56.4,25.3,56.4,56.4c0,31.2-25.3,56.4-56.4,56.4c-31.2,0-56.4-25.3-56.4-56.4
	C21.5,46.8,46.8,21.5,78,21.5L78,21.5z"/>
<path id="path4" class="st1" d="M78,23.9c29.9,0,54.1,24.2,54.1,54.1c0,29.9-24.2,54.1-54.1,54.1c-29.9,0-54.1-24.2-54.1-54.1
	C23.9,48.1,48.1,23.9,78,23.9z"/>
<path id="path6" class="st1" d="M78,43c19.3,0,35,15.7,35,35c0,19.3-15.7,35-35,35c-19.3,0-35-15.7-35-35C43,58.6,58.6,43,78,43z"/>
<path id="path8" class="st2" d="M43.1,103.3l-0.3-0.5l3.5-2.2l-5-0.1l-0.4-0.6l4.4-2.8l0.3,0.5l-3.5,2.2l5,0.1l0.4,0.6L43.1,103.3z
	 M44.4,95.4l-4.8,2.2l-0.3-0.6l2-0.9l-1.1-2.5l-2,0.9l-0.3-0.6l4.8-2.2l0.3,0.6l-2.3,1l1.1,2.5l2.3-1L44.4,95.4z M36.9,90.9L36,87.8
	l4.5-1.3l-0.1-0.5l1.8-0.5l0.2,0.6l-1.2,0.3l0.9,3.3l1.2-0.3l0.2,0.6l-1.8,0.5l-0.1-0.4c-0.7-0.2-2-0.1-3.9,0.4L36.9,90.9z
	 M36.8,88.3l0.5,1.8l0.3-0.1c0.4-0.1,1-0.2,1.8-0.4c0.8-0.1,1.4-0.2,2-0.1l-0.7-2.3L36.8,88.3z M35.5,85.1l-0.1-0.6l4.1-0.5L35,81.7
	L35,81l5.2-0.6l0.1,0.6l-4.1,0.5l4.5,2.3l0.1,0.7L35.5,85.1z M40.1,78.6l-5.2-0.2l0.1-2c0-0.4,0.1-0.7,0.2-1
	c0.1-0.2,0.3-0.4,0.5-0.6c0.2-0.1,0.5-0.2,0.7-0.2c0.2,0,0.4,0.1,0.6,0.2c0.2,0.1,0.3,0.3,0.5,0.6c0.1-0.3,0.3-0.6,0.5-0.7
	c0.2-0.2,0.5-0.2,0.8-0.2c0.2,0,0.5,0.1,0.7,0.2c0.2,0.1,0.4,0.2,0.5,0.4c0.1,0.2,0.2,0.3,0.2,0.6c0.1,0.2,0.1,0.5,0.1,0.8
	L40.1,78.6z M37.1,77.8l0-1.1c0-0.3,0-0.5,0-0.7c0-0.2-0.1-0.3-0.3-0.4c-0.1-0.1-0.3-0.1-0.5-0.1c-0.2,0-0.3,0-0.5,0.1
	c-0.1,0.1-0.2,0.2-0.3,0.3c-0.1,0.2-0.1,0.4-0.1,0.8l0,1L37.1,77.8z M39.5,77.9l0-1.3c0-0.2,0-0.4,0-0.5c0-0.2-0.1-0.3-0.1-0.4
	c-0.1-0.1-0.2-0.2-0.3-0.3c-0.1-0.1-0.3-0.1-0.4-0.1c-0.2,0-0.4,0-0.5,0.1c-0.1,0.1-0.3,0.2-0.3,0.4c-0.1,0.2-0.1,0.4-0.1,0.8l0,1.2
	L39.5,77.9z M35.3,72.1l0.1-0.6l4.1,0.7l-3.6-3.5L36,68l5.2,0.9l-0.1,0.6L37,68.8l3.6,3.5L40.4,73L35.3,72.1z M36.9,65.1l1-3
	l4.4,1.5l0.2-0.4l1.7,0.6L44,64.3l-1.2-0.4l-1.1,3.3l1.2,0.4l-0.2,0.6l-1.7-0.6l0.1-0.4c-0.5-0.6-1.6-1.2-3.4-1.9L36.9,65.1z
	 M38.2,62.9l-0.6,1.7l0.3,0.1c0.4,0.1,1,0.4,1.7,0.7c0.7,0.3,1.3,0.7,1.7,1.1l0.8-2.3L38.2,62.9z M38.8,60l0.3-0.6l3.7-0.1l-2.2-2.8
	l0.3-0.6l2.7,3.6c0.3,0.4,0.6,0.8,0.6,1c0.1,0.2,0,0.4-0.1,0.7c-0.1,0.2-0.2,0.3-0.4,0.5l-0.5-0.3c0.2-0.1,0.3-0.3,0.4-0.5
	c0.1-0.2,0.1-0.3,0.1-0.5c0-0.2-0.2-0.4-0.5-0.7L38.8,60z M45.7,58.1l-3.1-4.7l0.4-0.6l5.5,1.3l-0.5,0.6l-1.6-0.4l-1.3,1.8l1,1.4
	L45.7,58.1z M44.8,55.6l1-1.5l-1.5-0.4c-0.5-0.1-0.8-0.2-1.1-0.3c0.2,0.3,0.5,0.5,0.7,0.8L44.8,55.6z M45.9,49.1l2.3-2.4l3.8,3.6
	l-0.5,0.5l-3.3-3.2l-1.3,1.4l2,1.9c0.4,0.4,0.7,0.7,0.8,0.9c0.2,0.2,0.2,0.4,0.2,0.6c0,0.2-0.1,0.4-0.3,0.6
	c-0.1,0.1-0.3,0.2-0.5,0.3l-0.4-0.5c0.1,0,0.2-0.1,0.3-0.1c0.1-0.1,0.1-0.2,0.1-0.4c0-0.1-0.2-0.4-0.5-0.7L45.9,49.1z M50.1,45.1
	l0.5-0.4l1.4,1.8l1-0.8c0.5-0.4,0.8-0.6,1.1-0.6c0.3-0.1,0.6,0,0.8,0.1c0.2,0.1,0.4,0.3,0.6,0.5c0.3,0.3,0.4,0.7,0.3,1.1
	c0,0.4-0.3,0.8-0.9,1.3l-1.6,1.2L50.1,45.1z M53.6,48.3l1-0.8c0.4-0.3,0.6-0.6,0.6-0.8c0-0.2-0.1-0.5-0.2-0.7
	c-0.1-0.2-0.3-0.3-0.5-0.3c-0.2,0-0.4,0-0.5,0.1c-0.2,0.1-0.4,0.3-0.8,0.5l-0.7,0.6L53.6,48.3z M57.8,45.9l-2.6-4.5l0.6-0.3l1.1,1.9
	l2.3-1.4l-1.1-1.9l0.6-0.3l2.6,4.5l-0.6,0.3l-1.2-2.1l-2.3,1.4l1.2,2.1L57.8,45.9z M61.4,38.1l0.7-0.2l0.7,2.1l1.2-0.4
	c0.8-0.3,1.3-0.3,1.7-0.1c0.3,0.2,0.6,0.5,0.7,0.9c0.1,0.4,0.1,0.8,0,1.1c-0.2,0.4-0.6,0.7-1.3,0.9l-1.9,0.6L61.4,38.1z M63.5,42.3
	l1.2-0.4c0.4-0.1,0.7-0.3,0.8-0.5c0.1-0.2,0.2-0.5,0.1-0.8c-0.1-0.2-0.2-0.4-0.3-0.5c-0.2-0.1-0.3-0.1-0.5-0.1
	c-0.2,0-0.5,0.1-0.9,0.2l-0.9,0.3L63.5,42.3z M65.7,36.6l0.7-0.2l1.7,5l-0.7,0.2L65.7,36.6z M68.9,35.8l0.6-0.1l0.7,4.1l2-4.6
	l0.7-0.1l0.9,5.2l-0.6,0.1l-0.7-4.1l-2,4.6L69.9,41L68.9,35.8z M71.3,34.1l0.4-0.1c0,0.3,0,0.6-0.2,0.7c-0.2,0.2-0.4,0.3-0.7,0.4
	c-0.3,0.1-0.6,0-0.8-0.1c-0.2-0.1-0.4-0.3-0.4-0.6l0.4-0.1c0.1,0.2,0.2,0.3,0.3,0.3c0.1,0.1,0.3,0.1,0.4,0c0.2,0,0.3-0.1,0.4-0.2
	C71.2,34.4,71.3,34.3,71.3,34.1z M77.9,34.9l4.1,0.1l-0.2,5.2l-0.7,0l0.1-4.6l-2.7-0.1l-0.1,4.6l-0.7,0L77.9,34.9z M83.7,40.6
	l0.9-5.2l1.9,0.4c0.3,0.1,0.6,0.1,0.8,0.2c0.2,0.1,0.4,0.2,0.6,0.4c0.2,0.2,0.3,0.3,0.3,0.6c0.1,0.2,0.1,0.5,0,0.7
	c-0.1,0.4-0.3,0.8-0.6,1c-0.3,0.3-0.9,0.3-1.6,0.2l-1.3-0.2l-0.4,2.1L83.7,40.6z M84.9,38l1.3,0.2c0.4,0.1,0.8,0.1,1-0.1
	c0.2-0.1,0.3-0.3,0.4-0.6c0-0.2,0-0.4-0.1-0.6c-0.1-0.2-0.2-0.3-0.4-0.4c-0.1-0.1-0.3-0.1-0.6-0.2l-1.3-0.2L84.9,38z M89.1,41.8
	l1.7-5l3.6,1.2l-0.2,0.6l-2.9-1l-0.5,1.5l2.7,0.9l-0.2,0.6l-2.7-0.9L90,41.5l3,1l-0.2,0.6L89.1,41.8z M97.4,39.4l2.8,1.6l-2.3,4
	l0.4,0.2l-0.9,1.6l-0.5-0.3l0.6-1.1l-3-1.7l-0.6,1.1l-0.5-0.3l0.9-1.6l0.3,0.2c0.7-0.3,1.5-1.4,2.5-3L97.4,39.4z M99.2,41.2
	l-1.6-0.9l-0.1,0.2c-0.2,0.4-0.6,0.9-1,1.5c-0.5,0.6-0.9,1.1-1.4,1.4l2.1,1.2L99.2,41.2z M102.4,42.5l3.2,2.5l-3.2,4.1l-0.5-0.4
	l2.8-3.7l-2.2-1.7L99.8,47l-0.5-0.4L102.4,42.5z M103.8,50.3l3.8-3.6l1.4,1.4c0.2,0.3,0.4,0.5,0.5,0.6c0.1,0.2,0.2,0.4,0.3,0.6
	c0,0.2,0,0.4-0.1,0.7c-0.1,0.2-0.2,0.4-0.4,0.6c-0.3,0.3-0.7,0.5-1.1,0.5c-0.4,0-0.9-0.3-1.4-0.8l-0.9-1l-1.5,1.5L103.8,50.3z
	 M106.3,48.9l0.9,1c0.3,0.3,0.6,0.5,0.8,0.5c0.3,0,0.5-0.1,0.7-0.3c0.2-0.2,0.3-0.3,0.3-0.5c0-0.2,0-0.4-0.1-0.5
	c-0.1-0.1-0.2-0.3-0.4-0.5l-0.9-1L106.3,48.9z M111.9,51.4l0.4,0.5l-3.4,2.4l5-0.1l0.4,0.6l-4.3,3.1l-0.4-0.5l3.4-2.4l-5,0.1
	l-0.4-0.6L111.9,51.4z M110.9,59.4l4.7-2.4l0.3,0.6l-1.9,1l1.2,2.4l1.9-1l0.3,0.6l-4.7,2.4l-0.3-0.6l2.2-1.1l-1.2-2.4l-2.2,1.1
	L110.9,59.4z M118.6,63.3l0.2,0.6l-4,1.1l4.8,1.6l0.2,0.7l-5.1,1.4l-0.2-0.6l4-1.1l-4.7-1.6l-0.2-0.7L118.6,63.3z M115.1,70.4
	l5.2-0.6l0.1,1l-3.5,1.7c-0.3,0.2-0.6,0.3-0.7,0.3c0.2,0,0.5,0.1,0.9,0.2l3.8,0.8l0.1,0.9l-5.2,0.6l-0.1-0.7l4.4-0.5l-4.5-1
	l-0.1-0.6l4.3-2.1l-4.4,0.5L115.1,70.4z M115.8,76.6l5.2,2.2l0,0.8l-5.3,2l0-0.8l1.6-0.6l0.1-2.2l-1.6-0.6L115.8,76.6z M117.9,78.2
	l-0.1,1.8l1.5-0.5c0.4-0.2,0.8-0.3,1.1-0.3c-0.3-0.1-0.7-0.2-1-0.3L117.9,78.2z M115.4,83.5l4.6,0.8l0.3-1.7l0.6,0.1l-0.7,4.1
	l-0.6-0.1l0.3-1.7l-4.6-0.8L115.4,83.5z M114.6,87.3l5.1,1.4l-1,3.7l-0.6-0.2l0.8-3l-1.6-0.4l-0.8,2.8l-0.6-0.2l0.8-2.8l-1.7-0.5
	l-0.8,3.1l-0.6-0.2L114.6,87.3z M117.5,95l-1.3,3l-4.8-2.2l0.3-0.6l4.2,1.9l0.8-1.7l-2.5-1.1c-0.5-0.2-0.9-0.4-1.1-0.6
	c-0.2-0.2-0.3-0.3-0.4-0.5c-0.1-0.2,0-0.4,0.1-0.7c0.1-0.1,0.2-0.3,0.3-0.5l0.5,0.4c-0.1,0.1-0.2,0.2-0.2,0.2
	c-0.1,0.1-0.1,0.3,0,0.4c0.1,0.1,0.3,0.3,0.7,0.4L117.5,95z M114.8,100.3l-0.4,0.6l-1.9-1.2l-0.7,1c-0.3,0.5-0.6,0.8-0.9,1
	c-0.3,0.1-0.5,0.2-0.8,0.2c-0.3,0-0.5-0.1-0.7-0.2c-0.3-0.2-0.6-0.5-0.7-0.9c-0.1-0.4,0-0.9,0.5-1.5l1.1-1.7L114.8,100.3z
	 M110.5,98.3l-0.7,1.1c-0.3,0.4-0.4,0.8-0.3,1c0.1,0.2,0.2,0.4,0.4,0.6c0.2,0.1,0.4,0.2,0.5,0.1c0.2,0,0.3-0.1,0.5-0.2
	c0.1-0.1,0.3-0.4,0.6-0.8l0.5-0.8L110.5,98.3z"/>
<path id="path10" class="st2" d="M32.2,69.7l-4.8-1.1l0.4-1.8c0.1-0.3,0.1-0.6,0.2-0.7c0.1-0.2,0.2-0.4,0.4-0.5
	c0.1-0.1,0.3-0.2,0.6-0.3c0.2-0.1,0.5-0.1,0.7,0c0.4,0.1,0.7,0.3,1,0.6c0.2,0.3,0.3,0.8,0.1,1.5l-0.3,1.2l2,0.5L32.2,69.7z
	 M29.8,68.4l0.3-1.3c0.1-0.4,0.1-0.7,0-0.9c-0.1-0.2-0.3-0.3-0.6-0.4c-0.2,0-0.4,0-0.6,0c-0.2,0.1-0.3,0.2-0.4,0.3
	c-0.1,0.1-0.1,0.3-0.2,0.6L28.1,68L29.8,68.4z M31.5,62.8c-0.8-0.3-1.3-0.7-1.6-1.3c-0.3-0.6-0.3-1.2,0-1.9c0.2-0.4,0.4-0.8,0.8-1
	c0.3-0.3,0.7-0.4,1.2-0.5c0.4,0,0.9,0,1.3,0.2c0.5,0.2,0.9,0.4,1.2,0.8c0.3,0.3,0.5,0.7,0.5,1.1c0.1,0.4,0,0.8-0.1,1.2
	c-0.2,0.4-0.4,0.8-0.8,1.1c-0.3,0.3-0.7,0.4-1.2,0.4C32.3,63,31.9,62.9,31.5,62.8z M31.7,62.1c0.6,0.2,1.1,0.2,1.5,0.1
	c0.4-0.2,0.7-0.5,0.9-0.9c0.2-0.5,0.2-0.9,0-1.3c-0.2-0.4-0.6-0.7-1.2-1c-0.4-0.1-0.7-0.2-1.1-0.2c-0.3,0-0.6,0.1-0.9,0.3
	c-0.2,0.2-0.4,0.4-0.6,0.7c-0.2,0.4-0.2,0.9,0,1.3C30.6,61.5,31,61.9,31.7,62.1z M36.9,52.8l0.5-0.5c0.4,0.4,0.6,0.8,0.7,1.3
	c0.1,0.5,0,0.9-0.3,1.4c-0.3,0.5-0.6,0.8-0.9,1c-0.4,0.2-0.8,0.2-1.2,0.2c-0.4-0.1-0.9-0.2-1.3-0.4c-0.4-0.3-0.8-0.6-1-0.9
	c-0.2-0.4-0.4-0.8-0.3-1.2c0-0.4,0.1-0.8,0.3-1.2c0.2-0.4,0.6-0.7,1-0.9c0.4-0.2,0.8-0.2,1.3-0.1L35.4,52c-0.4-0.1-0.7-0.1-0.9,0
	c-0.3,0.1-0.5,0.3-0.6,0.6c-0.2,0.3-0.3,0.7-0.2,1c0,0.3,0.2,0.6,0.4,0.8c0.2,0.2,0.5,0.4,0.8,0.6c0.4,0.2,0.7,0.3,1.1,0.4
	c0.3,0.1,0.6,0,0.9-0.1c0.3-0.1,0.5-0.4,0.6-0.6c0.2-0.3,0.2-0.6,0.2-1C37.4,53.4,37.2,53.1,36.9,52.8z M41.1,46.9l0.5-0.4
	c0.3,0.4,0.5,0.9,0.5,1.4c0,0.5-0.2,0.9-0.5,1.3c-0.3,0.4-0.7,0.7-1.1,0.8c-0.4,0.1-0.8,0.1-1.2,0c-0.4-0.1-0.8-0.3-1.2-0.6
	c-0.4-0.3-0.7-0.7-0.9-1.1c-0.2-0.4-0.2-0.8-0.1-1.2c0.1-0.4,0.3-0.8,0.5-1.1c0.3-0.4,0.7-0.6,1.1-0.7c0.4-0.1,0.8-0.1,1.3,0.1
	l-0.3,0.6c-0.4-0.1-0.7-0.2-0.9-0.1c-0.3,0.1-0.5,0.2-0.7,0.5c-0.2,0.3-0.4,0.6-0.4,0.9c0,0.3,0.1,0.6,0.2,0.9
	c0.2,0.3,0.4,0.5,0.6,0.7c0.3,0.3,0.7,0.5,1,0.6c0.3,0.1,0.6,0.1,0.9,0c0.3-0.1,0.5-0.3,0.7-0.5c0.2-0.3,0.3-0.6,0.3-0.9
	C41.5,47.6,41.4,47.3,41.1,46.9z M41.3,41.9l0.4-0.4l2.7,2.9l-0.8-4.7l0.5-0.4l3.4,3.6l-0.4,0.4l-2.7-2.9l0.8,4.7l-0.5,0.5
	L41.3,41.9z M47.1,36.8l0.5-0.3l2.3,3.2L49.7,35l0.5-0.4l2.9,4.1L52.6,39l-2.3-3.2l0.1,4.7l-0.5,0.4L47.1,36.8z M48.4,34.4l0.3-0.2
	c0.1,0.3,0.2,0.5,0.1,0.7c-0.1,0.2-0.2,0.4-0.4,0.6c-0.2,0.2-0.5,0.2-0.7,0.2c-0.2,0-0.4-0.1-0.6-0.4l0.3-0.2
	c0.1,0.1,0.2,0.2,0.4,0.2c0.1,0,0.2,0,0.4-0.1c0.2-0.1,0.2-0.2,0.3-0.3C48.5,34.7,48.5,34.6,48.4,34.4z M58.1,34l0.7-0.2
	c0.1,0.5,0.1,1-0.1,1.4c-0.2,0.4-0.5,0.7-1,1c-0.5,0.3-0.9,0.4-1.3,0.3c-0.4,0-0.8-0.2-1.1-0.5c-0.3-0.3-0.6-0.6-0.9-1.1
	c-0.2-0.5-0.4-0.9-0.4-1.3c0-0.4,0.1-0.8,0.3-1.2c0.2-0.3,0.5-0.6,0.9-0.8c0.4-0.2,0.9-0.3,1.3-0.3c0.4,0.1,0.8,0.3,1.1,0.6
	l-0.5,0.4c-0.3-0.3-0.5-0.4-0.8-0.5c-0.3,0-0.6,0-0.8,0.2c-0.3,0.2-0.6,0.4-0.7,0.7c-0.1,0.3-0.2,0.6-0.1,0.9
	c0.1,0.3,0.2,0.6,0.3,0.9c0.2,0.4,0.4,0.7,0.7,0.9c0.3,0.2,0.5,0.3,0.8,0.4c0.3,0,0.6,0,0.9-0.2c0.3-0.2,0.5-0.4,0.7-0.7
	C58.2,34.8,58.2,34.4,58.1,34z M60.5,29.6l0.6-0.2l0.7,2.1c0.3-0.1,0.5-0.2,0.5-0.4c0.1-0.1,0.1-0.5,0.2-0.9c0-0.4,0.1-0.6,0.1-0.8
	c0-0.2,0.1-0.3,0.3-0.4c0.1-0.1,0.3-0.2,0.5-0.3c0.2-0.1,0.4-0.1,0.4-0.1l0.2,0.5c0,0-0.1,0-0.1,0c-0.1,0-0.1,0-0.1,0
	c-0.2,0.1-0.3,0.2-0.4,0.3c-0.1,0.1-0.1,0.4-0.1,0.7c0,0.5-0.1,0.7-0.2,0.9c-0.1,0.1-0.2,0.3-0.3,0.4c0.3,0,0.7,0.2,1.2,0.6l1.5,1.3
	l-0.8,0.2l-1.2-1c-0.3-0.3-0.6-0.5-0.8-0.6c-0.2-0.1-0.4-0.1-0.6,0l0.7,2.2l-0.6,0.2L60.5,29.6z M67.2,32.7l1-5.2l0.7-0.1l2.8,4.6
	L71.1,32l-0.8-1.4L68.2,31l-0.3,1.6L67.2,32.7z M68.3,30.4l1.7-0.3l-0.7-1.3c-0.2-0.4-0.4-0.7-0.5-1c0,0.3-0.1,0.7-0.1,1L68.3,30.4z
	 M78.2,31.5l-0.1-5l-2.2,0c-0.4,0-0.8,0.1-1,0.2c-0.2,0.1-0.4,0.3-0.5,0.5c-0.1,0.2-0.2,0.5-0.2,0.8c0,0.4,0.1,0.6,0.4,0.9
	c0.2,0.2,0.6,0.4,1.1,0.4c-0.2,0.1-0.3,0.2-0.4,0.3c-0.2,0.2-0.4,0.4-0.5,0.7l-0.8,1.4l0.8,0l0.6-1c0.2-0.3,0.3-0.5,0.5-0.7
	c0.1-0.2,0.2-0.3,0.3-0.3c0.1-0.1,0.2-0.1,0.3-0.1c0.1,0,0.2,0,0.4,0l0.8,0l0,2.2L78.2,31.5z M77.5,28.8l-1.4,0
	c-0.3,0-0.5,0-0.7-0.1c-0.2-0.1-0.3-0.2-0.4-0.3c-0.1-0.1-0.1-0.3-0.1-0.4c0-0.2,0.1-0.4,0.2-0.6c0.2-0.2,0.4-0.2,0.8-0.2l1.6,0
	L77.5,28.8z M87.5,28.1l0.1-0.6l0.6,0.1l-0.1,0.6c0.6,0.1,1.1,0.4,1.4,0.8c0.3,0.4,0.4,0.9,0.3,1.4c-0.1,0.5-0.3,0.9-0.7,1.2
	c-0.4,0.3-0.9,0.4-1.6,0.3l-0.1,0.6l-0.6-0.1l0.1-0.6c-0.6-0.1-1-0.4-1.4-0.8c-0.3-0.4-0.4-0.9-0.4-1.4c0.1-0.5,0.4-1,0.8-1.2
	C86.4,28.1,86.9,28,87.5,28.1z M88,28.7l-0.4,2.6c0.4,0.1,0.8,0,1.1-0.2c0.3-0.2,0.5-0.5,0.5-0.9c0.1-0.4,0-0.7-0.2-1
	C88.8,29,88.5,28.8,88,28.7z M87.4,28.6c-0.4-0.1-0.8,0-1,0.2s-0.5,0.5-0.5,0.9c-0.1,0.4,0,0.7,0.2,1c0.2,0.3,0.5,0.4,0.9,0.5
	L87.4,28.6z M92,33.7l1.6-4.7l3.4,1.2l-0.2,0.6l-2.8-1l-0.5,1.4l2.6,0.9L96,32.7l-2.6-0.9l-0.6,1.6l2.9,1l-0.2,0.6L92,33.7z
	 M100.8,31.9l2.7,1.4l-2,3.9l0.4,0.2l-0.8,1.5l-0.5-0.3l0.5-1l-2.9-1.5l-0.5,1l-0.5-0.3l0.8-1.5l0.3,0.2c0.6-0.3,1.4-1.3,2.2-3
	L100.8,31.9z M102.6,33.5l-1.5-0.8L101,33c-0.2,0.4-0.5,0.9-0.9,1.5c-0.4,0.6-0.8,1.1-1.2,1.4l2,1.1L102.6,33.5z M103.9,39.4
	l2.9-4.1l2.9,2.1l-0.3,0.5l-2.4-1.7l-0.9,1.2l2.2,1.6l-0.3,0.5l-2.2-1.6l-1,1.4l2.5,1.8l-0.3,0.5L103.9,39.4z M109,43.5l3.4-3.6
	l1.4,1.3c0.2,0.2,0.4,0.4,0.5,0.6c0.1,0.2,0.2,0.4,0.3,0.6c0,0.2,0,0.4,0,0.6c-0.1,0.2-0.2,0.4-0.4,0.6c-0.3,0.3-0.6,0.5-1,0.5
	c-0.4,0-0.9-0.2-1.4-0.7l-0.9-0.9l-1.4,1.5L109,43.5z M111.3,42l0.9,0.9c0.3,0.3,0.6,0.4,0.8,0.5c0.2,0,0.5-0.1,0.7-0.3
	c0.1-0.2,0.2-0.3,0.3-0.5c0-0.2,0-0.3-0.1-0.5c-0.1-0.1-0.2-0.2-0.4-0.5l-0.9-0.9L111.3,42z M113,47.4l5.1-1.6l0.4,0.6l-2.7,4.7
	l-0.5-0.6l0.8-1.4l-1.3-1.6l-1.5,0.5L113,47.4z M115.4,47.2l1,1.3l0.8-1.3c0.2-0.4,0.4-0.7,0.6-0.9c-0.3,0.1-0.6,0.3-0.9,0.4
	L115.4,47.2z M121.5,50.6l0.3,0.6l-3.8,2.2l1.3,2.2l3.8-2.2l0.3,0.6l-3.8,2.2l0.2,0.4l-1.7,1l-0.3-0.5l1.2-0.7l-1.9-3.3L121.5,50.6z
	 M125.1,57.5l0.2,0.6l-3.6,1.5l4.6,1l0.2,0.6l-4.6,1.9l-0.2-0.6l3.6-1.5l-4.6-1l-0.2-0.6L125.1,57.5z M123.7,69.7l4.8-1.1l-0.5-2.1
	c-0.1-0.4-0.2-0.7-0.4-1c-0.1-0.2-0.3-0.3-0.6-0.4c-0.3-0.1-0.5-0.1-0.8,0c-0.3,0.1-0.6,0.3-0.8,0.5c-0.2,0.3-0.3,0.7-0.2,1.1
	c-0.1-0.2-0.2-0.3-0.3-0.3c-0.2-0.1-0.5-0.3-0.8-0.4l-1.5-0.5l0.2,0.8l1.2,0.4c0.3,0.1,0.6,0.2,0.8,0.3c0.2,0.1,0.3,0.2,0.4,0.3
	c0.1,0.1,0.1,0.2,0.2,0.3c0,0.1,0.1,0.2,0.1,0.4l0.2,0.7l-2.2,0.5L123.7,69.7z M126.2,68.4l-0.3-1.4c-0.1-0.3-0.1-0.5-0.1-0.7
	c0-0.2,0.1-0.3,0.2-0.4c0.1-0.1,0.2-0.2,0.4-0.2c0.2-0.1,0.4,0,0.6,0.1c0.2,0.1,0.3,0.4,0.4,0.7l0.4,1.5L126.2,68.4z"/>
<path id="path12" class="st2" d="M126.7,78.1l0.2-0.6c0.5,0.2,0.8,0.3,1,0.4c-0.1-0.5-0.1-0.9-0.1-1.1h0.6c0,0.3,0,0.6-0.1,1.1
	c0.3-0.1,0.6-0.3,1-0.4l0.2,0.6c-0.4,0.1-0.7,0.2-1.1,0.2c0.2,0.2,0.4,0.4,0.7,0.8l-0.5,0.4c-0.2-0.2-0.4-0.5-0.6-0.9
	c-0.2,0.4-0.4,0.7-0.6,0.9l-0.5-0.4c0.3-0.4,0.6-0.7,0.7-0.8C127.4,78.2,127.1,78.2,126.7,78.1z"/>
<path id="path14" class="st2" d="M26.4,78.1l0.2-0.6c0.5,0.2,0.8,0.3,1,0.4c-0.1-0.5-0.1-0.9-0.1-1.1h0.6c0,0.3,0,0.6-0.1,1.1
	c0.3-0.1,0.6-0.3,1-0.4l0.2,0.6c-0.4,0.1-0.7,0.2-1.1,0.2c0.2,0.2,0.4,0.4,0.7,0.8l-0.5,0.4c-0.2-0.2-0.4-0.5-0.6-0.9
	c-0.2,0.4-0.4,0.7-0.6,0.9l-0.5-0.4c0.3-0.4,0.6-0.7,0.7-0.8C27,78.2,26.7,78.2,26.4,78.1z"/>
<path id="path16" class="st2" d="M50.3,107.6l0.2-0.6c0.5,0.2,0.8,0.3,1,0.4c-0.1-0.5-0.1-0.9-0.1-1.1H52c0,0.3,0,0.6-0.1,1.1
	c0.3-0.1,0.6-0.3,1-0.4l0.2,0.6c-0.4,0.1-0.7,0.2-1.1,0.2c0.2,0.2,0.4,0.4,0.7,0.8l-0.5,0.4c-0.2-0.2-0.4-0.5-0.6-0.9
	c-0.2,0.4-0.4,0.7-0.6,0.9l-0.5-0.4c0.3-0.4,0.6-0.7,0.7-0.8C51,107.8,50.7,107.7,50.3,107.6z"/>
<path id="path18" class="st2" d="M53.2,67.2v-6.2h1.2l1.5,4.4c0.1,0.4,0.2,0.7,0.3,0.9c0.1-0.2,0.2-0.6,0.3-1l1.5-4.3h1.1v6.2h-0.8
	v-5.2l-1.8,5.2h-0.7L54,61.8v5.3L53.2,67.2z M60.3,67.2l2.4-6.2h0.9l2.5,6.2h-0.9l-0.7-1.9h-2.6l-0.7,1.9H60.3z M62.1,64.6h2.1
	l-0.7-1.7c-0.2-0.5-0.3-1-0.4-1.3c-0.1,0.4-0.2,0.8-0.3,1.2L62.1,64.6z M66.9,65.4l0.8-0.2c0.1,0.3,0.2,0.6,0.5,0.9
	c0.3,0.3,0.6,0.5,1,0.5c0.4,0,0.8-0.1,1-0.3c0.3-0.2,0.4-0.5,0.4-0.8c0-0.3-0.1-0.6-0.4-0.8c-0.3-0.2-0.6-0.3-1.1-0.3h-0.4v-0.7
	c0.4,0,0.7,0,0.9-0.1c0.2,0,0.4-0.2,0.5-0.3c0.2-0.2,0.2-0.4,0.2-0.6c0-0.3-0.1-0.5-0.3-0.7c-0.2-0.2-0.5-0.3-0.9-0.3
	c-0.3,0-0.6,0.1-0.8,0.2c-0.2,0.2-0.4,0.4-0.5,0.6c-0.1,0.3-0.1,0.5-0.1,0.6L67,62.8c0.2-1.3,0.9-2,2.2-2c0.6,0,1.1,0.2,1.4,0.5
	c0.4,0.3,0.5,0.7,0.5,1.2c0,0.6-0.3,1-0.8,1.4c0.3,0.1,0.6,0.3,0.8,0.5c0.2,0.3,0.3,0.6,0.3,1c0,0.5-0.2,1-0.6,1.3
	c-0.4,0.4-1,0.5-1.7,0.5C68,67.3,67.2,66.6,66.9,65.4z M72.3,60.9h0.8l2,3.8l1.8-3.8h0.8l-2.3,4.9c-0.3,0.6-0.5,1-0.7,1.2
	c-0.2,0.2-0.5,0.3-0.8,0.3c-0.2,0-0.5,0-0.8-0.1v-0.7c0.2,0.1,0.5,0.2,0.7,0.2c0.2,0,0.4-0.1,0.5-0.2c0.1-0.1,0.3-0.4,0.5-0.9
	L72.3,60.9z M79,67.2v-6.2h2.4c0.4,0,0.7,0,1,0.1c0.3,0.1,0.6,0.1,0.8,0.3c0.2,0.1,0.4,0.3,0.5,0.6c0.1,0.3,0.2,0.5,0.2,0.8
	c0,0.5-0.2,1-0.5,1.3c-0.3,0.4-0.9,0.6-1.8,0.6h-1.6v2.5H79z M79.8,63.9h1.6c0.5,0,0.9-0.1,1.1-0.3c0.2-0.2,0.3-0.5,0.3-0.8
	c0-0.3-0.1-0.5-0.2-0.7c-0.1-0.2-0.3-0.3-0.5-0.4c-0.1,0-0.4-0.1-0.8-0.1h-1.6L79.8,63.9z M85.4,60.9h0.8v2.7c0.4,0,0.6-0.1,0.8-0.2
	c0.2-0.1,0.3-0.5,0.6-1.1c0.2-0.4,0.3-0.7,0.4-0.9c0.1-0.2,0.3-0.3,0.5-0.4c0.2-0.1,0.4-0.2,0.7-0.2c0.3,0,0.5,0,0.5,0v0.7
	c0,0-0.1,0-0.2,0c-0.1,0-0.1,0-0.2,0c-0.3,0-0.5,0.1-0.6,0.2c-0.1,0.1-0.3,0.4-0.4,0.8c-0.2,0.5-0.4,0.9-0.5,1
	c-0.1,0.1-0.3,0.2-0.5,0.3c0.4,0.1,0.8,0.5,1.2,1.1l1.3,2.1h-1l-1-1.7c-0.3-0.5-0.5-0.8-0.7-1c-0.2-0.2-0.4-0.3-0.7-0.3v2.9h-0.8
	V60.9z M91,60.9h0.7v4.9l3.3-4.9h0.8v6.2h-0.7v-4.9l-3.3,4.9H91V60.9z M97.8,67.2v-6.2h0.8v2.6h3.2v-2.6h0.8v6.2h-0.8v-2.9h-3.2v2.9
	H97.8z M57.7,71.7h3.8v5.5h0.6v2.2h-0.7V78h-4.1v1.5h-0.7v-2.2H57c0.5-0.8,0.8-2.3,0.8-4.6V71.7z M60.7,72.5h-2.2v0.3
	c0,0.5,0,1.3-0.1,2.2c-0.1,0.9-0.3,1.7-0.6,2.3h2.9L60.7,72.5z M63.6,78v-6.2h1.2l1.5,4.4c0.1,0.4,0.2,0.7,0.3,0.9
	c0.1-0.2,0.2-0.6,0.3-1l1.5-4.3h1.1V78h-0.8v-5.2L66.9,78h-0.7l-1.8-5.3V78H63.6z M71.4,71.7h0.7v4.9l3.3-4.9h0.8V78h-0.7V73
	L72.3,78h-0.8L71.4,71.7z M79.8,78v-5.5h-2.1v-0.7h4.9v0.7h-2.1V78H79.8z M84.1,78v-6.2h2.4c0.4,0,0.7,0,1,0.1
	c0.3,0.1,0.6,0.1,0.8,0.3c0.2,0.1,0.4,0.3,0.5,0.6c0.1,0.3,0.2,0.5,0.2,0.9c0,0.5-0.2,1-0.5,1.3c-0.3,0.4-0.9,0.6-1.8,0.6h-1.6V78
	H84.1z M84.9,74.7h1.6c0.5,0,0.9-0.1,1.1-0.3c0.2-0.2,0.3-0.5,0.3-0.8c0-0.3-0.1-0.5-0.2-0.7c-0.1-0.2-0.3-0.3-0.5-0.4
	c-0.1,0-0.4-0.1-0.8-0.1h-1.6L84.9,74.7z M90.4,71.7h0.7v4.9l3.3-4.9h0.8V78h-0.7V73L91.3,78h-0.8L90.4,71.7z M97.2,71.7H98v4.9
	l3.3-4.9h0.8V78h-0.7V73L98.1,78h-0.8L97.2,71.7z M100.4,70.2h0.5c0,0.4-0.2,0.6-0.4,0.8c-0.2,0.2-0.5,0.3-0.9,0.3
	c-0.4,0-0.7-0.1-0.9-0.3c-0.2-0.2-0.3-0.5-0.4-0.8h0.5c0,0.2,0.1,0.3,0.2,0.4c0.1,0.1,0.3,0.1,0.5,0.1c0.2,0,0.4,0,0.5-0.1
	C100.2,70.6,100.3,70.4,100.4,70.2z M46.5,88.8v-6.2h0.8v2.6h3.2v-2.6h0.8v6.2h-0.8v-2.9h-3.2v2.9H46.5z M53.3,82.5h0.7v4.9l3.3-4.9
	h0.8v6.2h-0.7v-4.9l-3.3,4.9h-0.8V82.5z M60.1,82.5H61v2.7c0.4,0,0.6-0.1,0.8-0.2c0.2-0.1,0.3-0.5,0.6-1.1c0.2-0.4,0.3-0.7,0.4-0.9
	c0.1-0.2,0.3-0.3,0.5-0.4c0.2-0.1,0.4-0.2,0.7-0.2c0.3,0,0.5,0,0.5,0v0.7c0,0-0.1,0-0.2,0c-0.1,0-0.1,0-0.2,0
	c-0.3,0-0.5,0.1-0.6,0.2c-0.1,0.1-0.3,0.4-0.4,0.8c-0.2,0.5-0.4,0.9-0.5,1c-0.1,0.1-0.3,0.2-0.5,0.3c0.4,0.1,0.8,0.5,1.2,1.1
	l1.3,2.1h-1l-1-1.7c-0.3-0.5-0.5-0.8-0.7-1c-0.2-0.2-0.4-0.3-0.7-0.3v2.9h-0.8L60.1,82.5z M65.4,85.7c0-1,0.3-1.8,0.8-2.4
	c0.6-0.6,1.3-0.9,2.2-0.9c0.6,0,1.1,0.1,1.6,0.4c0.5,0.3,0.8,0.7,1.1,1.2c0.2,0.5,0.4,1,0.4,1.7c0,0.6-0.1,1.2-0.4,1.7
	c-0.3,0.5-0.6,0.9-1.1,1.1c-0.5,0.3-1,0.4-1.5,0.4c-0.6,0-1.1-0.1-1.6-0.4c-0.5-0.3-0.8-0.7-1.1-1.2C65.5,86.8,65.4,86.3,65.4,85.7z
	 M66.2,85.8c0,0.8,0.2,1.3,0.6,1.8c0.4,0.4,0.9,0.6,1.5,0.6c0.6,0,1.1-0.2,1.5-0.7c0.4-0.4,0.6-1.1,0.6-1.9c0-0.5-0.1-1-0.3-1.3
	c-0.2-0.4-0.4-0.7-0.8-0.9c-0.3-0.2-0.7-0.3-1.1-0.3c-0.6,0-1.1,0.2-1.5,0.6C66.4,84.2,66.2,84.8,66.2,85.8z M73.3,82.5h3.9v6.2
	h-0.8v-5.5h-2.2v3.2c0,0.7,0,1.1-0.1,1.4c-0.1,0.3-0.2,0.5-0.4,0.7c-0.2,0.2-0.4,0.3-0.7,0.3c-0.2,0-0.4,0-0.7-0.1l0.1-0.7
	c0.1,0.1,0.3,0.1,0.3,0.1c0.2,0,0.3-0.1,0.4-0.2c0.1-0.1,0.1-0.5,0.1-1V82.5z M78.4,88.8l2.4-6.2h0.9l2.5,6.2h-0.9l-0.7-1.9H80
	l-0.7,1.9H78.4z M80.2,86.2h2.1l-0.7-1.7c-0.2-0.5-0.3-1-0.4-1.3c-0.1,0.4-0.2,0.8-0.3,1.2L80.2,86.2z M85.5,88.8v-6.2H90v0.7h-3.7
	v1.9h3.4v0.7h-3.4V88h3.8v0.7L85.5,88.8z M91.8,88.8v-6.2h2.3c0.5,0,0.9,0.1,1.1,0.2c0.3,0.1,0.5,0.3,0.7,0.6
	c0.2,0.3,0.2,0.5,0.2,0.8c0,0.3-0.1,0.5-0.2,0.8c-0.1,0.2-0.4,0.4-0.7,0.6c0.4,0.1,0.7,0.3,0.9,0.6c0.2,0.3,0.3,0.6,0.3,0.9
	c0,0.3-0.1,0.6-0.2,0.8c-0.1,0.3-0.3,0.4-0.5,0.6c-0.2,0.1-0.4,0.2-0.7,0.3c-0.3,0.1-0.6,0.1-1,0.1H91.8z M92.6,85.2h1.4
	c0.4,0,0.6,0,0.8-0.1c0.2-0.1,0.4-0.2,0.5-0.3c0.1-0.1,0.2-0.3,0.2-0.5c0-0.2,0-0.4-0.1-0.5c-0.1-0.2-0.2-0.3-0.4-0.3
	c-0.2-0.1-0.5-0.1-0.9-0.1h-1.2V85.2z M92.6,88h1.6c0.3,0,0.5,0,0.6,0c0.2,0,0.3-0.1,0.5-0.2c0.1-0.1,0.2-0.2,0.3-0.3
	c0.1-0.2,0.1-0.3,0.1-0.5c0-0.2-0.1-0.4-0.2-0.6c-0.1-0.2-0.3-0.3-0.5-0.4c-0.2-0.1-0.5-0.1-0.9-0.1h-1.4L92.6,88z M98.2,82.5h0.7
	v4.9l3.3-4.9h0.8v6.2h-0.7v-4.9L99,88.8h-0.8L98.2,82.5z M109.4,88.8h-0.8v-2.5c-0.7,0.3-1.4,0.4-1.9,0.4c-0.4,0-0.8-0.1-1.1-0.3
	c-0.3-0.2-0.6-0.5-0.7-0.8c-0.1-0.3-0.2-0.7-0.2-1.2v-1.8h0.8v1.8c0,0.7,0.1,1.1,0.4,1.3c0.2,0.2,0.5,0.3,0.9,0.3
	c0.6,0,1.2-0.1,1.8-0.4v-3h0.8V88.8z"/>
<path id="path20" class="st2" d="M104.8,105.9l0.2-0.6c0.5,0.2,0.8,0.3,1,0.4c-0.1-0.5-0.1-0.9-0.1-1.1h0.6c0,0.3,0,0.6-0.1,1.1
	c0.3-0.1,0.6-0.3,1-0.4l0.2,0.6c-0.4,0.1-0.7,0.2-1.1,0.2c0.2,0.1,0.4,0.4,0.7,0.8l-0.5,0.4c-0.2-0.2-0.4-0.5-0.6-0.9
	c-0.2,0.4-0.4,0.7-0.6,0.9l-0.5-0.4c0.3-0.4,0.6-0.7,0.7-0.8C105.5,106.1,105.1,106,104.8,105.9z"/>
<g id="Layer1000">
	<path id="path22" class="st2" d="M29.2,84.7c0.7-0.1,1.3,0,1.7,0.3c0.5,0.3,0.7,0.8,0.8,1.3c0.1,0.4,0,0.8-0.1,1.1
		c-0.1,0.3-0.3,0.6-0.7,0.9c-0.3,0.2-0.7,0.4-1.1,0.4c-0.4,0.1-0.8,0.1-1.2-0.1c-0.4-0.1-0.7-0.3-0.9-0.6c-0.2-0.3-0.4-0.6-0.4-1
		c-0.1-0.4,0-0.8,0.1-1.1c0.1-0.3,0.4-0.6,0.7-0.8C28.5,84.9,28.8,84.7,29.2,84.7z M29.3,85.3c-0.5,0.1-0.9,0.3-1.1,0.6
		c-0.2,0.3-0.3,0.7-0.3,1.1c0.1,0.4,0.3,0.7,0.6,1c0.3,0.2,0.8,0.3,1.3,0.2c0.3-0.1,0.6-0.2,0.9-0.3c0.2-0.2,0.4-0.4,0.5-0.6
		c0.1-0.2,0.1-0.5,0.1-0.8c-0.1-0.4-0.3-0.7-0.6-0.9C30.4,85.2,29.9,85.1,29.3,85.3z M32.2,89l0.8,2.7l-0.5,0.1l-0.6-2.1l-3.6,1
		l-0.2-0.5L32.2,89z M29.1,93.6l4.1-1.3l0.5,1.5c0.1,0.3,0.1,0.5,0.2,0.6c0,0.2,0,0.4,0,0.6c0,0.2-0.1,0.3-0.3,0.5
		c-0.1,0.1-0.3,0.2-0.5,0.3c-0.3,0.1-0.7,0.1-1,0c-0.3-0.1-0.6-0.5-0.8-1.1l-0.3-1l-1.7,0.5L29.1,93.6z M31.4,93.4l0.3,1
		c0.1,0.3,0.3,0.6,0.4,0.7c0.2,0.1,0.4,0.1,0.6,0c0.2-0.1,0.3-0.1,0.4-0.3c0.1-0.1,0.1-0.3,0.1-0.4c0-0.1,0-0.3-0.1-0.5l-0.3-1
		L31.4,93.4z M30.6,97.7l3.9-1.8l0.2,0.5l-1.6,0.7l0.9,2l1.6-0.7l0.2,0.5l-3.9,1.8l-0.2-0.5l1.8-0.8l-0.9-2l-1.8,0.8L30.6,97.7z
		 M36.3,99.8l0.3,0.4l-2.9,1.7l4.1,0.3l0.3,0.5l-3.7,2.1l-0.3-0.4l2.9-1.7l-4.1-0.3l-0.3-0.5L36.3,99.8z M38.4,103.5l1.9,2.7
		l-3.5,2.5l-0.3-0.5l3.1-2.2l-1.3-1.8l-3.1,2.2L35,106L38.4,103.5z M40,109.2c0.4-0.3,0.7-0.6,1-0.7c0.3-0.1,0.6-0.2,0.8-0.1
		c0.3,0,0.5,0.2,0.7,0.4c0.2,0.2,0.2,0.4,0.3,0.5c0,0.2,0,0.4,0,0.6c-0.1,0.2-0.2,0.4-0.3,0.6c-0.1,0.2-0.4,0.5-0.7,0.7
		c-0.4,0.3-0.7,0.6-1,0.7c-0.3,0.1-0.6,0.2-0.8,0.1c-0.3,0-0.5-0.2-0.7-0.4c-0.3-0.3-0.4-0.7-0.3-1C39,110.2,39.4,109.7,40,109.2z
		 M40.3,109.6c-0.5,0.5-0.8,0.8-0.9,1.1c-0.1,0.3,0,0.5,0.1,0.7c0.2,0.2,0.4,0.3,0.7,0.2c0.3,0,0.7-0.3,1.2-0.7
		c0.5-0.5,0.8-0.8,0.9-1.1c0.1-0.3,0-0.5-0.1-0.7c-0.2-0.2-0.4-0.3-0.6-0.2C41.3,108.9,40.8,109.2,40.3,109.6z M42.3,111.9
		c0.3-0.4,0.7-0.6,1-0.8c0.3-0.2,0.6-0.2,0.8-0.2c0.3,0,0.5,0.1,0.7,0.4c0.2,0.2,0.3,0.3,0.3,0.5c0.1,0.2,0.1,0.4,0,0.6
		c0,0.2-0.1,0.4-0.2,0.6c-0.1,0.2-0.3,0.5-0.6,0.8c-0.3,0.4-0.7,0.6-0.9,0.8c-0.3,0.2-0.6,0.2-0.8,0.2c-0.3,0-0.5-0.1-0.7-0.4
		c-0.3-0.3-0.4-0.6-0.4-1C41.4,113,41.7,112.5,42.3,111.9z M42.6,112.2c-0.5,0.5-0.7,0.9-0.8,1.2c0,0.3,0,0.5,0.2,0.7
		c0.2,0.2,0.4,0.2,0.7,0.2c0.3-0.1,0.7-0.3,1.1-0.8c0.5-0.5,0.7-0.9,0.8-1.2c0-0.3,0-0.5-0.2-0.7c-0.2-0.2-0.4-0.2-0.6-0.2
		C43.5,111.4,43.1,111.7,42.6,112.2z M44.9,114.4c0.3-0.4,0.6-0.7,0.9-0.8c0.3-0.2,0.6-0.2,0.8-0.2c0.3,0,0.5,0.1,0.7,0.3
		c0.2,0.1,0.3,0.3,0.4,0.5c0.1,0.2,0.1,0.4,0.1,0.6c0,0.2-0.1,0.4-0.2,0.7c-0.1,0.2-0.3,0.5-0.6,0.8c-0.3,0.4-0.6,0.7-0.9,0.8
		c-0.3,0.2-0.6,0.2-0.8,0.2c-0.3,0-0.5-0.1-0.8-0.3c-0.3-0.3-0.5-0.6-0.4-1C44.1,115.5,44.3,115,44.9,114.4z M45.3,114.7
		c-0.5,0.5-0.7,0.9-0.7,1.2c0,0.3,0.1,0.5,0.2,0.7c0.2,0.2,0.4,0.2,0.7,0.1c0.3-0.1,0.6-0.4,1.1-0.9c0.5-0.5,0.7-0.9,0.7-1.2
		c0-0.3-0.1-0.5-0.2-0.7c-0.2-0.2-0.4-0.2-0.6-0.1C46.1,113.9,45.7,114.2,45.3,114.7z M47.5,116.7c0.3-0.4,0.6-0.7,0.8-0.9
		c0.3-0.2,0.5-0.3,0.8-0.3c0.3,0,0.5,0.1,0.8,0.2c0.2,0.1,0.3,0.3,0.4,0.5c0.1,0.2,0.1,0.4,0.1,0.6c0,0.2-0.1,0.4-0.2,0.7
		c-0.1,0.2-0.3,0.5-0.5,0.9c-0.3,0.4-0.6,0.7-0.8,0.9c-0.3,0.2-0.5,0.3-0.8,0.3c-0.3,0-0.5-0.1-0.8-0.2c-0.3-0.2-0.5-0.5-0.5-0.9
		C46.8,117.9,47,117.3,47.5,116.7z M47.9,117c-0.4,0.6-0.6,1-0.6,1.3c0,0.3,0.1,0.5,0.3,0.6c0.2,0.1,0.4,0.2,0.7,0.1
		c0.3-0.1,0.6-0.4,1-1c0.4-0.6,0.6-1,0.6-1.3c0-0.3-0.1-0.5-0.3-0.6c-0.2-0.1-0.4-0.2-0.6-0.1C48.7,116.1,48.3,116.4,47.9,117z
		 M50.4,118.7c0.3-0.4,0.5-0.7,0.8-0.9c0.3-0.2,0.5-0.3,0.8-0.4c0.3,0,0.5,0,0.8,0.2c0.2,0.1,0.3,0.3,0.4,0.4
		c0.1,0.2,0.1,0.4,0.1,0.6c0,0.2,0,0.4-0.1,0.7c-0.1,0.2-0.2,0.5-0.5,0.9c-0.3,0.4-0.5,0.7-0.8,0.9c-0.3,0.2-0.5,0.3-0.8,0.4
		c-0.3,0-0.5,0-0.8-0.2c-0.3-0.2-0.5-0.5-0.6-0.9C49.8,120,50,119.4,50.4,118.7z M50.9,119c-0.4,0.6-0.6,1-0.5,1.3
		c0,0.3,0.1,0.5,0.3,0.6c0.2,0.1,0.4,0.1,0.7,0c0.3-0.1,0.6-0.5,1-1c0.4-0.6,0.6-1,0.5-1.3c0-0.3-0.1-0.5-0.3-0.6
		c-0.2-0.1-0.4-0.1-0.7-0.1C51.6,118.1,51.3,118.4,50.9,119z M53.4,120.6c0.2-0.4,0.5-0.8,0.7-1c0.2-0.2,0.5-0.4,0.7-0.4
		c0.3-0.1,0.5,0,0.8,0.1c0.2,0.1,0.4,0.2,0.5,0.4c0.1,0.2,0.2,0.3,0.2,0.6c0,0.2,0,0.4-0.1,0.7c-0.1,0.3-0.2,0.6-0.4,0.9
		c-0.2,0.4-0.5,0.8-0.7,1c-0.2,0.2-0.5,0.4-0.7,0.4c-0.3,0.1-0.5,0-0.8-0.1c-0.4-0.2-0.6-0.5-0.7-0.8
		C52.9,121.9,53,121.3,53.4,120.6z M53.9,120.9c-0.3,0.6-0.5,1.1-0.4,1.4c0,0.3,0.2,0.5,0.4,0.6c0.2,0.1,0.4,0.1,0.7,0
		c0.3-0.1,0.5-0.5,0.9-1.1c0.3-0.6,0.5-1.1,0.4-1.4c0-0.3-0.2-0.5-0.4-0.6c-0.2-0.1-0.4-0.1-0.7,0C54.5,119.9,54.2,120.3,53.9,120.9
		L53.9,120.9z M56.6,122.3c0.2-0.5,0.4-0.8,0.6-1c0.2-0.2,0.5-0.4,0.7-0.5c0.3-0.1,0.5,0,0.8,0.1c0.2,0.1,0.4,0.2,0.5,0.4
		c0.1,0.2,0.2,0.3,0.2,0.5c0,0.2,0,0.4,0,0.7c0,0.3-0.2,0.6-0.3,1c-0.2,0.5-0.4,0.8-0.6,1c-0.2,0.2-0.5,0.4-0.7,0.5
		c-0.3,0.1-0.5,0-0.8-0.1c-0.4-0.2-0.6-0.4-0.7-0.8C56.1,123.6,56.3,123,56.6,122.3z M57.1,122.5c-0.3,0.6-0.4,1.1-0.4,1.4
		c0.1,0.3,0.2,0.5,0.4,0.6c0.2,0.1,0.5,0.1,0.7-0.1c0.2-0.1,0.5-0.5,0.8-1.2c0.3-0.6,0.4-1.1,0.4-1.4c-0.1-0.3-0.2-0.5-0.4-0.6
		c-0.2-0.1-0.4-0.1-0.7,0C57.6,121.5,57.4,121.9,57.1,122.5z M59.8,123.7c0.2-0.5,0.3-0.8,0.5-1.1c0.2-0.3,0.4-0.4,0.7-0.5
		c0.2-0.1,0.5-0.1,0.8,0c0.2,0.1,0.4,0.2,0.5,0.3c0.1,0.1,0.2,0.3,0.3,0.5c0,0.2,0.1,0.4,0,0.7c0,0.3-0.1,0.6-0.2,1
		c-0.2,0.5-0.3,0.8-0.5,1.1c-0.2,0.3-0.4,0.4-0.7,0.5c-0.2,0.1-0.5,0.1-0.8,0c-0.4-0.1-0.6-0.4-0.8-0.7
		C59.5,125.1,59.5,124.5,59.8,123.7z M60.3,123.9c-0.2,0.7-0.3,1.1-0.2,1.4c0.1,0.3,0.2,0.4,0.5,0.5c0.2,0.1,0.5,0,0.7-0.1
		c0.2-0.2,0.5-0.6,0.7-1.2c0.2-0.7,0.3-1.1,0.2-1.4c-0.1-0.3-0.2-0.4-0.5-0.5c-0.2-0.1-0.4,0-0.6,0.1
		C60.7,122.8,60.5,123.2,60.3,123.9z M63.2,124.9c0.1-0.5,0.3-0.9,0.5-1.1c0.2-0.3,0.4-0.5,0.6-0.6c0.2-0.1,0.5-0.1,0.8,0
		c0.2,0.1,0.4,0.2,0.5,0.3c0.1,0.1,0.2,0.3,0.3,0.5c0.1,0.2,0.1,0.4,0.1,0.7c0,0.3-0.1,0.6-0.2,1c-0.1,0.5-0.3,0.9-0.5,1.1
		c-0.2,0.3-0.4,0.5-0.6,0.6c-0.2,0.1-0.5,0.1-0.8,0c-0.4-0.1-0.7-0.3-0.8-0.7C62.9,126.3,63,125.7,63.2,124.9L63.2,124.9z M63.7,125
		c-0.2,0.7-0.2,1.1-0.1,1.4c0.1,0.3,0.3,0.4,0.5,0.5c0.2,0.1,0.5,0,0.7-0.2c0.2-0.2,0.4-0.6,0.6-1.3c0.2-0.7,0.2-1.1,0.1-1.4
		c-0.1-0.3-0.3-0.4-0.5-0.5c-0.2-0.1-0.4,0-0.6,0.1C64.1,123.9,63.9,124.4,63.7,125z M66.6,125.8c0.1-0.5,0.3-0.9,0.4-1.2
		c0.2-0.3,0.4-0.5,0.6-0.6c0.2-0.1,0.5-0.1,0.8-0.1c0.2,0.1,0.4,0.1,0.6,0.3c0.1,0.1,0.3,0.3,0.3,0.5c0.1,0.2,0.1,0.4,0.1,0.7
		c0,0.3,0,0.6-0.1,1c-0.1,0.5-0.3,0.9-0.4,1.2c-0.2,0.3-0.4,0.5-0.6,0.6c-0.2,0.1-0.5,0.1-0.8,0.1c-0.4-0.1-0.7-0.3-0.8-0.6
		C66.5,127.2,66.5,126.6,66.6,125.8L66.6,125.8z M67.2,126c-0.2,0.7-0.2,1.2-0.1,1.4c0.1,0.3,0.3,0.4,0.5,0.5c0.2,0.1,0.5,0,0.7-0.2
		c0.2-0.2,0.4-0.6,0.6-1.3c0.2-0.7,0.2-1.2,0.1-1.4c-0.1-0.3-0.3-0.4-0.5-0.5c-0.2-0.1-0.4,0-0.6,0.2
		C67.5,124.8,67.3,125.3,67.2,126z M70.1,126.5c0.1-0.5,0.2-0.9,0.3-1.2c0.1-0.3,0.3-0.5,0.6-0.6c0.2-0.1,0.5-0.2,0.8-0.1
		c0.2,0,0.4,0.1,0.6,0.2c0.2,0.1,0.3,0.3,0.4,0.5c0.1,0.2,0.1,0.4,0.2,0.7c0,0.3,0,0.6,0,1c-0.1,0.5-0.2,0.9-0.3,1.2
		c-0.1,0.3-0.3,0.5-0.5,0.6c-0.2,0.1-0.5,0.2-0.8,0.1c-0.4-0.1-0.7-0.2-0.9-0.6C70,127.9,70,127.3,70.1,126.5z M70.6,126.6
		c-0.1,0.7-0.1,1.2,0.1,1.4c0.1,0.3,0.3,0.4,0.6,0.4c0.2,0,0.5-0.1,0.6-0.3c0.2-0.2,0.3-0.7,0.4-1.4c0.1-0.7,0.1-1.2-0.1-1.4
		c-0.1-0.3-0.3-0.4-0.6-0.4c-0.2,0-0.4,0-0.6,0.2C70.8,125.4,70.7,125.9,70.6,126.6z M73.6,127c0-0.5,0.1-0.9,0.2-1.2
		c0.1-0.3,0.3-0.5,0.5-0.7c0.2-0.2,0.5-0.2,0.8-0.2c0.2,0,0.4,0.1,0.6,0.2c0.2,0.1,0.3,0.2,0.4,0.4c0.1,0.2,0.2,0.4,0.2,0.7
		c0,0.3,0.1,0.6,0,1c0,0.5-0.1,0.9-0.2,1.2c-0.1,0.3-0.3,0.5-0.5,0.7c-0.2,0.2-0.5,0.2-0.8,0.2c-0.4,0-0.7-0.2-0.9-0.5
		C73.7,128.3,73.6,127.8,73.6,127z M74.2,127c-0.1,0.7,0,1.2,0.1,1.4c0.1,0.2,0.3,0.4,0.6,0.4c0.2,0,0.5-0.1,0.6-0.3
		c0.2-0.2,0.3-0.7,0.4-1.4c0.1-0.7,0-1.2-0.1-1.4c-0.1-0.2-0.3-0.4-0.6-0.4c-0.2,0-0.4,0.1-0.6,0.3C74.3,125.8,74.2,126.3,74.2,127
		L74.2,127z M77.1,127.2c0-0.5,0-0.9,0.1-1.2c0.1-0.3,0.2-0.6,0.4-0.7c0.2-0.2,0.5-0.3,0.8-0.3c0.2,0,0.4,0,0.6,0.1
		c0.2,0.1,0.3,0.2,0.4,0.4c0.1,0.2,0.2,0.4,0.3,0.6c0.1,0.2,0.1,0.6,0.1,1c0,0.5,0,0.9-0.1,1.2c-0.1,0.3-0.2,0.6-0.4,0.7
		c-0.2,0.2-0.5,0.3-0.8,0.3c-0.4,0-0.7-0.1-1-0.4C77.3,128.5,77.1,128,77.1,127.2z M77.7,127.2c0,0.7,0.1,1.2,0.3,1.4
		c0.2,0.2,0.4,0.3,0.6,0.3c0.2,0,0.4-0.1,0.6-0.4c0.2-0.2,0.2-0.7,0.2-1.4c0-0.7-0.1-1.2-0.3-1.4c-0.2-0.2-0.4-0.3-0.6-0.3
		c-0.2,0-0.4,0.1-0.6,0.3C77.7,126,77.6,126.5,77.7,127.2L77.7,127.2z M80.7,127.1c0-0.5,0-0.9,0.1-1.2c0.1-0.3,0.2-0.6,0.4-0.7
		c0.2-0.2,0.4-0.3,0.8-0.3c0.2,0,0.4,0,0.6,0.1c0.2,0.1,0.3,0.2,0.5,0.4c0.1,0.2,0.2,0.4,0.3,0.6c0.1,0.2,0.1,0.6,0.2,1
		c0,0.5,0,0.9-0.1,1.2c-0.1,0.3-0.2,0.6-0.4,0.7c-0.2,0.2-0.4,0.3-0.8,0.3c-0.4,0-0.7-0.1-1-0.4C81,128.4,80.8,127.9,80.7,127.1z
		 M81.2,127c0.1,0.7,0.2,1.2,0.4,1.4c0.2,0.2,0.4,0.3,0.6,0.3c0.2,0,0.4-0.1,0.6-0.4c0.1-0.2,0.2-0.7,0.1-1.4
		c-0.1-0.7-0.2-1.2-0.4-1.4c-0.2-0.2-0.4-0.3-0.6-0.3c-0.2,0-0.4,0.1-0.6,0.3C81.2,125.8,81.2,126.3,81.2,127z M88.1,124l0.5-0.1
		l0.9,3.3l1.3-3.9l0.5-0.2l1.2,4.1l-0.5,0.1l-0.9-3.2l-1.3,3.9l-0.5,0.2L88.1,124z M93.8,126.8l-1.3-4.1l0.5-0.2l0.6,1.7l2.1-0.7
		l-0.6-1.7l0.5-0.2l1.3,4.1l-0.5,0.2l-0.6-1.9l-2.1,0.7l0.6,1.9L93.8,126.8z M98.2,125.1l-1.8-3.9L97,121l0.7,1.6l2-0.9l-0.7-1.6
		l0.5-0.2l1.8,3.9l-0.5,0.2l-0.8-1.8l-2,0.9l0.8,1.8L98.2,125.1z M102.2,120.8c-0.3-0.4-0.5-0.8-0.5-1.1c-0.1-0.3-0.1-0.6,0-0.9
		c0.1-0.3,0.3-0.5,0.5-0.6c0.2-0.1,0.4-0.2,0.6-0.2c0.2,0,0.4,0,0.6,0.1c0.2,0.1,0.4,0.2,0.6,0.4c0.2,0.2,0.4,0.4,0.6,0.8
		c0.3,0.4,0.4,0.8,0.5,1.1c0.1,0.3,0.1,0.6,0,0.9c-0.1,0.3-0.3,0.5-0.5,0.6c-0.3,0.2-0.7,0.3-1.1,0.2
		C103.1,121.9,102.7,121.5,102.2,120.8L102.2,120.8z M102.7,120.5c0.4,0.6,0.7,0.9,1,1c0.3,0.1,0.5,0.1,0.7,0
		c0.2-0.1,0.3-0.3,0.3-0.6c0-0.3-0.2-0.7-0.6-1.3c-0.4-0.6-0.7-0.9-1-1c-0.3-0.1-0.5-0.1-0.7,0c-0.2,0.1-0.3,0.3-0.3,0.6
		C102.1,119.5,102.3,119.9,102.7,120.5z M105.3,118.9c-0.3-0.4-0.5-0.8-0.6-1.1c-0.1-0.3-0.1-0.6,0-0.9c0.1-0.3,0.2-0.5,0.5-0.6
		c0.2-0.1,0.4-0.2,0.6-0.2c0.2,0,0.4,0,0.6,0.1c0.2,0.1,0.4,0.2,0.6,0.4c0.2,0.2,0.4,0.4,0.7,0.8c0.3,0.4,0.5,0.8,0.6,1.1
		c0.1,0.3,0.1,0.6,0,0.8c-0.1,0.3-0.2,0.5-0.5,0.7c-0.3,0.2-0.7,0.3-1,0.2C106.2,119.9,105.7,119.5,105.3,118.9z M105.7,118.6
		c0.4,0.6,0.7,0.9,1,1c0.3,0.1,0.5,0.1,0.7-0.1c0.2-0.1,0.3-0.4,0.3-0.6c0-0.3-0.2-0.7-0.6-1.3c-0.4-0.6-0.7-0.9-1-1
		c-0.3-0.1-0.5-0.1-0.7,0.1c-0.2,0.1-0.3,0.3-0.3,0.6C105.1,117.6,105.3,118,105.7,118.6z M108.2,116.8c-0.3-0.4-0.5-0.7-0.6-1.1
		c-0.1-0.3-0.1-0.6-0.1-0.8c0.1-0.3,0.2-0.5,0.5-0.7c0.2-0.1,0.4-0.2,0.6-0.3c0.2,0,0.4,0,0.6,0.1c0.2,0.1,0.4,0.2,0.6,0.3
		c0.2,0.2,0.4,0.4,0.7,0.7c0.3,0.4,0.5,0.7,0.6,1.1c0.1,0.3,0.1,0.6,0.1,0.8c-0.1,0.3-0.2,0.5-0.5,0.7c-0.3,0.3-0.7,0.3-1,0.3
		C109.1,117.8,108.7,117.4,108.2,116.8z M108.6,116.4c0.4,0.6,0.8,0.9,1.1,1c0.3,0.1,0.5,0,0.7-0.1c0.2-0.1,0.3-0.4,0.3-0.6
		c0-0.3-0.2-0.7-0.7-1.3c-0.4-0.6-0.8-0.9-1.1-1c-0.3-0.1-0.5,0-0.7,0.1c-0.2,0.1-0.3,0.3-0.3,0.6
		C107.9,115.4,108.2,115.9,108.6,116.4z M110.9,114.5c-0.3-0.4-0.6-0.7-0.7-1c-0.1-0.3-0.2-0.6-0.2-0.8c0-0.3,0.2-0.5,0.4-0.7
		c0.2-0.2,0.3-0.3,0.5-0.3c0.2-0.1,0.4-0.1,0.6,0c0.2,0,0.4,0.1,0.6,0.3c0.2,0.1,0.5,0.4,0.8,0.7c0.3,0.4,0.6,0.7,0.7,1
		c0.1,0.3,0.2,0.6,0.2,0.8c0,0.3-0.2,0.5-0.4,0.7c-0.3,0.3-0.6,0.4-1,0.3C111.9,115.4,111.4,115.1,110.9,114.5L110.9,114.5z
		 M111.3,114.2c0.5,0.5,0.9,0.8,1.1,0.8c0.3,0.1,0.5,0,0.7-0.2c0.2-0.2,0.2-0.4,0.2-0.7c0-0.3-0.3-0.7-0.8-1.2
		c-0.5-0.5-0.9-0.8-1.1-0.8c-0.3-0.1-0.5,0-0.7,0.2c-0.2,0.2-0.2,0.4-0.2,0.6C110.5,113.2,110.8,113.6,111.3,114.2L111.3,114.2z
		 M113.4,112.1c-0.4-0.3-0.7-0.6-0.8-0.9c-0.2-0.3-0.2-0.6-0.2-0.8c0-0.3,0.1-0.5,0.3-0.7c0.1-0.2,0.3-0.3,0.5-0.4
		c0.2-0.1,0.4-0.1,0.6-0.1c0.2,0,0.4,0.1,0.7,0.2c0.2,0.1,0.5,0.3,0.8,0.6c0.4,0.3,0.7,0.6,0.8,0.9c0.2,0.3,0.2,0.6,0.2,0.8
		c0,0.3-0.1,0.5-0.3,0.8c-0.3,0.3-0.6,0.5-1,0.4C114.6,112.9,114,112.7,113.4,112.1z M113.8,111.7c0.5,0.5,0.9,0.7,1.2,0.7
		c0.3,0,0.5-0.1,0.7-0.2c0.2-0.2,0.2-0.4,0.1-0.7c-0.1-0.3-0.4-0.6-0.9-1.1c-0.5-0.5-0.9-0.7-1.2-0.7c-0.3,0-0.5,0.1-0.7,0.2
		c-0.2,0.2-0.2,0.4-0.1,0.6C112.9,110.9,113.2,111.3,113.8,111.7z M115.8,109.4c-0.4-0.3-0.7-0.6-0.9-0.9c-0.2-0.3-0.3-0.5-0.3-0.8
		c0-0.3,0.1-0.5,0.3-0.8c0.1-0.2,0.3-0.3,0.5-0.4c0.2-0.1,0.4-0.1,0.6-0.1c0.2,0,0.4,0.1,0.7,0.2c0.2,0.1,0.5,0.3,0.8,0.6
		c0.4,0.3,0.7,0.6,0.9,0.9c0.2,0.3,0.3,0.5,0.3,0.8c0,0.3-0.1,0.5-0.3,0.8c-0.3,0.3-0.6,0.5-0.9,0.5
		C116.9,110.1,116.4,109.9,115.8,109.4z M116.1,109c0.6,0.4,1,0.7,1.3,0.7c0.3,0,0.5-0.1,0.7-0.3c0.1-0.2,0.2-0.4,0.1-0.7
		c-0.1-0.3-0.4-0.6-0.9-1.1c-0.6-0.4-1-0.7-1.2-0.7c-0.3,0-0.5,0.1-0.7,0.3c-0.2,0.2-0.2,0.4-0.1,0.6
		C115.2,108.2,115.6,108.5,116.1,109z M118,106.7c-0.4-0.3-0.7-0.5-0.9-0.8c-0.2-0.3-0.3-0.5-0.4-0.8c0-0.3,0-0.5,0.2-0.8
		c0.1-0.2,0.3-0.3,0.4-0.4c0.2-0.1,0.4-0.1,0.6-0.1c0.2,0,0.4,0,0.7,0.1c0.2,0.1,0.5,0.2,0.9,0.5c0.4,0.3,0.7,0.5,0.9,0.8
		c0.2,0.3,0.3,0.5,0.4,0.8c0,0.3,0,0.5-0.2,0.8c-0.2,0.3-0.5,0.5-0.9,0.6C119.2,107.3,118.6,107.1,118,106.7z M118.3,106.2
		c0.6,0.4,1,0.6,1.3,0.5c0.3,0,0.5-0.1,0.6-0.3c0.1-0.2,0.1-0.4,0-0.7c-0.1-0.3-0.5-0.6-1-1c-0.6-0.4-1-0.6-1.3-0.5
		c-0.3,0-0.5,0.1-0.6,0.3c-0.1,0.2-0.1,0.4-0.1,0.7C117.3,105.5,117.7,105.9,118.3,106.2z M119.9,103.6c-0.4-0.3-0.8-0.5-1-0.7
		c-0.2-0.2-0.3-0.5-0.4-0.8c0-0.3,0-0.5,0.2-0.8c0.1-0.2,0.3-0.3,0.4-0.5c0.2-0.1,0.4-0.2,0.6-0.2c0.2,0,0.4,0,0.7,0.1
		c0.2,0.1,0.6,0.2,0.9,0.4c0.4,0.2,0.8,0.5,1,0.7c0.2,0.2,0.3,0.5,0.4,0.8c0,0.3,0,0.5-0.2,0.8c-0.2,0.4-0.5,0.6-0.9,0.6
		C121.2,104.2,120.6,104,119.9,103.6L119.9,103.6z M120.2,103.2c0.6,0.4,1.1,0.5,1.3,0.5c0.3,0,0.5-0.1,0.6-0.4
		c0.1-0.2,0.1-0.4,0-0.7c-0.1-0.3-0.5-0.6-1.1-0.9c-0.6-0.3-1.1-0.5-1.3-0.5c-0.3,0-0.5,0.1-0.6,0.4c-0.1,0.2-0.1,0.4,0,0.7
		C119.2,102.5,119.6,102.8,120.2,103.2z M121.7,100.5c-0.4-0.2-0.8-0.5-1-0.7c-0.2-0.2-0.4-0.5-0.4-0.7c-0.1-0.3,0-0.5,0.1-0.8
		c0.1-0.2,0.2-0.4,0.4-0.5c0.2-0.1,0.3-0.2,0.6-0.2c0.2,0,0.4,0,0.7,0.1c0.3,0.1,0.6,0.2,0.9,0.4c0.4,0.2,0.8,0.5,1,0.7
		c0.2,0.2,0.4,0.5,0.4,0.7c0.1,0.3,0,0.5-0.1,0.8c-0.2,0.4-0.5,0.6-0.8,0.7C123,101,122.4,100.9,121.7,100.5z M121.9,100
		c0.6,0.3,1.1,0.5,1.4,0.4c0.3,0,0.5-0.2,0.6-0.4c0.1-0.2,0.1-0.4,0-0.7c-0.1-0.3-0.5-0.5-1.1-0.9c-0.6-0.3-1.1-0.5-1.4-0.4
		c-0.3,0-0.5,0.2-0.6,0.4c-0.1,0.2-0.1,0.4,0,0.7C120.9,99.4,121.3,99.7,121.9,100L121.9,100z"/>
	<path id="path24" class="st2" d="M123.2,97.4c-0.5-0.2-0.8-0.4-1.1-0.6c-0.2-0.2-0.4-0.4-0.5-0.7c-0.1-0.3-0.1-0.5,0-0.8
		c0.1-0.2,0.2-0.4,0.3-0.5c0.1-0.1,0.3-0.2,0.5-0.3c0.2,0,0.4,0,0.7,0c0.3,0,0.6,0.1,1,0.3c0.5,0.2,0.8,0.4,1.1,0.6
		c0.3,0.2,0.4,0.4,0.5,0.7c0.1,0.3,0.1,0.5,0,0.8c-0.2,0.4-0.4,0.6-0.8,0.7C124.5,97.7,123.9,97.7,123.2,97.4z M123.4,96.9
		c0.7,0.3,1.1,0.4,1.4,0.3c0.3-0.1,0.5-0.2,0.5-0.4c0.1-0.2,0.1-0.5-0.1-0.7c-0.2-0.2-0.6-0.5-1.2-0.7c-0.7-0.3-1.1-0.4-1.4-0.3
		c-0.3,0.1-0.5,0.2-0.5,0.4c-0.1,0.2-0.1,0.4,0.1,0.7C122.3,96.3,122.7,96.6,123.4,96.9z M124.5,94c-0.5-0.2-0.8-0.3-1.1-0.5
		c-0.3-0.2-0.4-0.4-0.5-0.7c-0.1-0.2-0.1-0.5,0-0.8c0.1-0.2,0.2-0.4,0.3-0.5c0.1-0.1,0.3-0.2,0.5-0.3c0.2,0,0.4-0.1,0.7,0
		c0.3,0,0.6,0.1,1,0.2c0.5,0.2,0.8,0.3,1.1,0.5c0.3,0.2,0.4,0.4,0.5,0.7c0.1,0.2,0.1,0.5,0,0.8c-0.1,0.4-0.4,0.6-0.7,0.8
		C125.8,94.3,125.2,94.2,124.5,94z M124.6,93.5c0.7,0.2,1.1,0.3,1.4,0.2c0.3-0.1,0.4-0.2,0.5-0.5c0.1-0.2,0-0.5-0.1-0.7
		c-0.2-0.2-0.6-0.5-1.2-0.7c-0.7-0.2-1.1-0.3-1.4-0.2c-0.3,0.1-0.4,0.2-0.5,0.5c-0.1,0.2,0,0.4,0.1,0.6
		C123.5,93,124,93.3,124.6,93.5L124.6,93.5z M125.5,90.7c-0.5-0.1-0.9-0.3-1.2-0.4c-0.3-0.2-0.5-0.4-0.6-0.6
		c-0.1-0.2-0.1-0.5-0.1-0.8c0.1-0.2,0.1-0.4,0.3-0.6c0.1-0.1,0.3-0.3,0.5-0.3c0.2-0.1,0.4-0.1,0.7-0.1c0.3,0,0.6,0,1,0.1
		c0.5,0.1,0.9,0.3,1.2,0.4c0.3,0.2,0.5,0.4,0.6,0.6c0.1,0.2,0.1,0.5,0.1,0.8c-0.1,0.4-0.3,0.7-0.6,0.8
		C126.9,90.8,126.3,90.8,125.5,90.7z M125.6,90.1c0.7,0.2,1.2,0.2,1.4,0.1c0.3-0.1,0.4-0.3,0.5-0.5c0.1-0.2,0-0.5-0.2-0.7
		c-0.2-0.2-0.6-0.4-1.3-0.6c-0.7-0.2-1.2-0.2-1.4-0.1c-0.3,0.1-0.4,0.3-0.5,0.5c-0.1,0.2,0,0.4,0.2,0.6
		C124.5,89.8,124.9,90,125.6,90.1z"/>
</g>
<path id="path27" class="st2" d="M61,112.3l2.2,1l-0.2,0.5l-1.5-0.7l-1.5,3.2l-0.6-0.3L61,112.3z M62.4,117.4l0.3-0.7l0.7,0.3
	l-0.3,0.7L62.4,117.4z M67.8,113.3l0.7,0.2l-0.6,2.4c0.3,0.1,0.6,0.1,0.8,0c0.2-0.1,0.4-0.4,0.7-0.8c0.2-0.3,0.4-0.6,0.6-0.7
	c0.1-0.1,0.3-0.2,0.5-0.3c0.2-0.1,0.4-0.1,0.6,0c0.3,0.1,0.4,0.1,0.4,0.1l-0.1,0.6c0,0-0.1,0-0.1,0c-0.1,0-0.1,0-0.1,0
	c-0.2-0.1-0.4,0-0.6,0.1c-0.1,0.1-0.3,0.3-0.6,0.6c-0.3,0.4-0.5,0.7-0.7,0.8c-0.2,0.1-0.3,0.2-0.5,0.2c0.3,0.2,0.6,0.6,0.8,1.2
	l0.7,2.1l-0.9-0.2l-0.6-1.7c-0.2-0.5-0.3-0.8-0.4-1c-0.1-0.2-0.3-0.3-0.6-0.4l-0.6,2.6l-0.7-0.2L67.8,113.3z M74.9,119.7
	c-0.3,0.2-0.5,0.3-0.8,0.4c-0.2,0.1-0.5,0.1-0.8,0.1c-0.5,0-0.8-0.2-1-0.4c-0.2-0.2-0.3-0.5-0.3-0.9c0-0.2,0.1-0.4,0.2-0.5
	c0.1-0.2,0.2-0.3,0.4-0.4c0.2-0.1,0.3-0.2,0.5-0.2c0.1,0,0.4,0,0.6-0.1c0.6,0,1-0.1,1.3-0.1c0-0.1,0-0.2,0-0.2c0-0.3,0-0.5-0.2-0.6
	c-0.2-0.2-0.4-0.3-0.8-0.3c-0.3,0-0.6,0-0.7,0.1c-0.2,0.1-0.3,0.3-0.4,0.6l-0.7-0.1c0.1-0.3,0.2-0.5,0.4-0.7
	c0.2-0.2,0.4-0.3,0.7-0.4c0.3-0.1,0.6-0.1,0.9-0.1c0.4,0,0.6,0.1,0.9,0.2c0.2,0.1,0.4,0.2,0.5,0.3c0.1,0.1,0.2,0.3,0.2,0.5
	c0,0.1,0,0.3,0,0.6l-0.1,0.9c0,0.6-0.1,1.1,0,1.2c0,0.2,0.1,0.3,0.1,0.5l-0.7-0.1C75,120.1,75,119.9,74.9,119.7z M75,118.2
	c-0.3,0.1-0.6,0.1-1.2,0.2c-0.3,0-0.5,0.1-0.6,0.1c-0.1,0-0.2,0.1-0.3,0.2c-0.1,0.1-0.1,0.2-0.1,0.3c0,0.2,0,0.3,0.2,0.5
	s0.3,0.2,0.6,0.2c0.3,0,0.5,0,0.7-0.1c0.2-0.1,0.4-0.2,0.5-0.4c0.1-0.2,0.1-0.4,0.2-0.7L75,118.2z M78.7,118.5l0-0.5
	c0.3,0,0.5,0,0.6,0c0.1,0,0.2-0.1,0.3-0.2c0.1-0.1,0.1-0.2,0.1-0.4c0-0.2-0.1-0.3-0.2-0.4c-0.1-0.1-0.3-0.2-0.5-0.2
	c-0.4,0-0.7,0.2-0.8,0.7l-0.7-0.1c0.2-0.8,0.7-1.2,1.5-1.2c0.4,0,0.8,0.1,1,0.3c0.3,0.2,0.4,0.5,0.4,0.9c0,0.3-0.2,0.6-0.5,0.8
	c0.2,0.1,0.4,0.2,0.5,0.4c0.1,0.2,0.2,0.4,0.2,0.6c0,0.4-0.1,0.7-0.4,0.9c-0.3,0.2-0.6,0.4-1.1,0.4c-0.9,0-1.5-0.4-1.7-1.2l0.7-0.2
	c0.1,0.3,0.2,0.5,0.4,0.6c0.2,0.1,0.4,0.2,0.6,0.2c0.2,0,0.4-0.1,0.6-0.2c0.2-0.1,0.2-0.3,0.2-0.5c0-0.2-0.1-0.3-0.2-0.4
	c-0.1-0.1-0.2-0.2-0.3-0.2c-0.1,0-0.3,0-0.6,0C78.9,118.4,78.8,118.4,78.7,118.5L78.7,118.5z M85.3,119.2c-0.2,0.3-0.4,0.5-0.7,0.6
	c-0.2,0.1-0.5,0.2-0.7,0.3c-0.4,0.1-0.8,0-1.1-0.2c-0.3-0.2-0.4-0.4-0.5-0.8c0-0.2,0-0.4,0-0.6c0.1-0.2,0.2-0.3,0.3-0.5
	c0.1-0.1,0.3-0.2,0.5-0.3c0.1-0.1,0.3-0.1,0.6-0.2c0.5-0.2,0.9-0.3,1.2-0.4c0-0.1,0-0.2,0-0.2c0-0.3-0.1-0.5-0.3-0.6
	c-0.2-0.1-0.5-0.2-0.8-0.1c-0.3,0.1-0.6,0.2-0.7,0.3c-0.1,0.1-0.2,0.4-0.2,0.7l-0.7,0c0-0.3,0.1-0.6,0.2-0.8
	c0.1-0.2,0.3-0.4,0.5-0.5c0.2-0.1,0.6-0.2,0.9-0.3c0.3-0.1,0.6-0.1,0.9,0c0.2,0,0.4,0.1,0.5,0.2c0.1,0.1,0.2,0.3,0.3,0.4
	c0,0.1,0.1,0.3,0.1,0.6l0.1,0.9c0.1,0.6,0.2,1,0.2,1.2c0.1,0.2,0.1,0.3,0.2,0.5l-0.7,0.1C85.5,119.5,85.4,119.4,85.3,119.2z
	 M85,117.6c-0.2,0.1-0.6,0.3-1.1,0.4c-0.3,0.1-0.5,0.2-0.6,0.2c-0.1,0.1-0.2,0.2-0.2,0.3c0,0.1-0.1,0.2,0,0.3c0,0.2,0.1,0.3,0.3,0.4
	c0.2,0.1,0.4,0.1,0.6,0.1c0.3,0,0.5-0.1,0.7-0.3c0.2-0.1,0.3-0.3,0.4-0.5c0-0.2,0-0.4,0-0.7L85,117.6z M87.2,115.1l0.7-0.2l0.5,1.7
	l1.9-0.5l-0.5-1.7l0.7-0.2l1.2,4l-0.7,0.2l-0.5-1.8l-1.9,0.5l0.5,1.8l-0.7,0.2L87.2,115.1z M92.1,113.6l0.6-0.3l0.7,1.5l0.8-0.4
	c0.5-0.2,1-0.3,1.4-0.2c0.4,0.1,0.6,0.3,0.8,0.7c0.1,0.3,0.1,0.6,0,1c-0.1,0.3-0.5,0.6-1,0.8l-1.6,0.7L92.1,113.6z M94.2,116.5
	l0.7-0.3c0.4-0.2,0.7-0.4,0.8-0.5c0.1-0.2,0.1-0.4,0.1-0.6c-0.1-0.2-0.2-0.3-0.4-0.3c-0.2-0.1-0.5,0-0.9,0.2l-0.8,0.3L94.2,116.5z"
	/>
</svg>
