<svg width="1440" height="500" viewBox="0 0 1440 500" fill="none" xmlns="http://www.w3.org/2000/svg">
<rect width="1440" height="500" rx="30" fill="#EDF6FF"/>
<path d="M746.109 60C741.024 58.2566 733.774 56.5443 730.023 60C722.648 66.7713 738.498 84.4545 741.589 111.197C737.619 109.267 733.539 107.103 729.38 104.613C717.045 97.2499 707.441 89.2956 700.332 82.5087C700.128 82.3997 695.122 79.6445 690.116 82.5087C687.134 84.221 685 87.3809 685 91.288V151.763C685 159.561 693.521 164.449 700.332 160.542C708.289 153.553 718.615 145.614 731.483 138.142C734.747 136.243 737.948 134.515 741.103 132.928C737.179 159.297 723.354 180.373 730.023 184.841C731.122 185.573 735.077 187.425 739.816 186.911C741.934 186.678 744.069 186.008 746.109 184.841L830.961 136.243C841.68 130.095 841.68 114.746 830.961 108.598L746.109 60Z" fill="#D5E9FC"/>
</svg>
