<?xml version="1.0" encoding="UTF-8" standalone="no"?>
<svg
   xmlns:dc="http://purl.org/dc/elements/1.1/"
   xmlns:cc="http://creativecommons.org/ns#"
   xmlns:rdf="http://www.w3.org/1999/02/22-rdf-syntax-ns#"
   xmlns:svg="http://www.w3.org/2000/svg"
   xmlns="http://www.w3.org/2000/svg"
   viewBox="0 0 127.5591 127.5591"
   id="svg19"
   height="127.5591"
   width="127.5591"
   version="1.1">
  <metadata
     id="metadata25">
    <rdf:RDF>
      <cc:Work
         rdf:about="">
        <dc:format>image/svg+xml</dc:format>
        <dc:type
           rdf:resource="http://purl.org/dc/dcmitype/StillImage" />
      </cc:Work>
    </rdf:RDF>
  </metadata>
  <defs
     id="defs23" />
  <g
     id="Layer1000">
    <path
       id="path2"
       style="fill:#1b1918;fill-rule:evenodd"
       d="m 31.8478,94.9609 c -0.4669,-0.4768 -0.7058,-1.0536 -0.7146,-1.7288 -0.0096,-0.6761 0.2341,-1.2581 0.733,-1.7467 0.5131,-0.5032 1.1109,-0.7444 1.7955,-0.7237 0.6837,0.0195 1.2708,0.2803 1.7614,0.7809 0.4953,0.5054 0.7458,1.0925 0.7526,1.7606 0.0071,0.6681 -0.2517,1.2592 -0.7766,1.7737 -0.5361,0.5252 -1.1685,0.7551 -1.897,0.6899 -0.6321,-0.057 -1.1832,-0.3257 -1.6543,-0.8059 z m 0.2293,-0.123 c 0.3212,0.3274 0.6917,0.4813 1.1101,0.4595 0.5216,-0.0264 1.0516,-0.303 1.5905,-0.8308 0.5513,-0.5403 0.851,-1.0843 0.8972,-1.632 0.0326,-0.4183 -0.1083,-0.7883 -0.4249,-1.1114 -0.3382,-0.3453 -0.7407,-0.508 -1.2082,-0.4907 -0.4683,0.0187 -0.9683,0.2886 -1.5015,0.8116 -0.5788,0.5666 -0.8886,1.1137 -0.9306,1.639 -0.0317,0.4195 0.1236,0.8041 0.4674,1.1548 z m -4.782,-5.5015 0.8016,-0.6675 0.0836,0.1122 c -0.223,0.267 -0.3214,0.4975 -0.2939,0.6868 0.0278,0.19 0.1695,0.4575 0.4275,0.802 l 0.5181,0.6933 1.4973,-1.1197 -0.1227,-0.1641 c -0.3776,-0.5051 -0.6248,-0.8977 -0.7436,-1.1795 -0.1187,-0.2803 -0.1505,-0.5573 -0.0958,-0.8314 0.0547,-0.2724 0.199,-0.4966 0.4326,-0.671 0.2817,-0.2109 0.6131,-0.282 0.9964,-0.2143 0.3815,0.0672 0.7809,0.3785 1.1959,0.9338 l 1.3036,1.7436 -0.1026,0.0768 c -0.197,-0.2475 -0.3554,-0.3818 -0.4756,-0.4017 -0.1196,-0.0207 -0.305,0.0629 -0.5556,0.2503 l -2.4063,1.7992 c -0.1928,0.144 -0.311,0.2554 -0.3564,0.3359 -0.0456,0.0796 -0.0578,0.163 -0.0351,0.2514 0.0218,0.0884 0.0964,0.2256 0.2217,0.4133 l -0.1029,0.0768 z m 4.8932,-0.8827 c -0.1078,-0.1973 -0.1988,-0.3467 -0.2722,-0.445 -0.1862,-0.2492 -0.4311,-0.4173 -0.7344,-0.5057 -0.3031,-0.0873 -0.5899,-0.0298 -0.8603,0.1723 -0.279,0.2086 -0.4074,0.4683 -0.3853,0.7795 0.0233,0.3113 0.1556,0.6299 0.3983,0.9545 0.0677,0.0904 0.1446,0.1768 0.2285,0.2596 z m -1.7366,-2.5594 -0.1125,0.0618 c -0.0085,-0.0102 -0.0349,-0.0488 -0.0799,-0.1157 -0.1046,-0.163 -0.2095,-0.2605 -0.311,-0.2922 -0.1026,-0.0306 -0.2931,0.0295 -0.5714,0.1825 l -2.634,1.4463 c -0.2676,0.1471 -0.419,0.2772 -0.4544,0.3903 -0.036,0.1125 0.0074,0.2928 0.1284,0.5426 l -0.1128,0.0618 -0.9505,-1.7309 0.1129,-0.0618 c 0.1406,0.2067 0.2653,0.3201 0.3758,0.3388 0.1103,0.0195 0.2937,-0.0414 0.5491,-0.1815 l 2.6337,-1.4465 c 0.2095,-0.1148 0.3387,-0.1958 0.3846,-0.2435 0.0465,-0.0479 0.0683,-0.0952 0.0638,-0.1428 -0.0059,-0.0485 -0.0462,-0.1415 -0.1236,-0.2826 l -0.4836,-0.8802 c -0.1213,-0.2214 -0.2106,-0.3438 -0.265,-0.366 -0.0542,-0.0221 -0.2268,0.0462 -0.5153,0.205 l -2.6337,1.4462 c -0.2495,0.1369 -0.3974,0.258 -0.4445,0.3623 -0.0462,0.1037 -0.0176,0.2741 0.0845,0.5094 l -0.1128,0.0618 -0.9165,-1.6696 0.1123,-0.0618 c 0.1417,0.2089 0.2681,0.3228 0.3804,0.3396 0.1117,0.017 0.2934,-0.0445 0.5445,-0.1823 l 2.6337,-1.4462 c 0.269,-0.1477 0.4138,-0.2523 0.4357,-0.3133 0.0227,-0.0609 -0.0343,-0.2163 -0.1701,-0.4637 l -0.4904,-0.8929 c -0.0675,-0.1225 -0.1205,-0.197 -0.1604,-0.2234 -0.0397,-0.0275 -0.082,-0.0352 -0.1262,-0.0238 -0.0453,0.0113 -0.1865,0.083 -0.424,0.2134 l -2.6337,1.4463 c -0.2534,0.1392 -0.4022,0.2608 -0.447,0.3651 -0.0426,0.1049 -0.0136,0.2735 0.087,0.5065 l -0.1123,0.0618 -0.9504,-1.7308 0.1122,-0.0618 c 0.095,0.1624 0.1851,0.2724 0.2719,0.3342 0.0861,0.0607 0.1735,0.0833 0.2622,0.0675 0.0896,-0.0153 0.2307,-0.0769 0.4246,-0.1832 l 2.6306,-1.4445 c 0.2134,-0.1174 0.3447,-0.2024 0.3923,-0.254 0.0484,-0.053 0.0779,-0.1253 0.0895,-0.2174 0.012,-0.0921 -0.0405,-0.2469 -0.1556,-0.4618 l 1.3042,-0.7163 0.0638,0.116 c -0.2877,0.2792 -0.4768,0.5357 -0.5638,0.7679 -0.0879,0.233 -0.1094,0.4623 -0.0655,0.6862 0.0428,0.2234 0.1661,0.5196 0.368,0.8876 z m -8.3749,-6.6798 1.7526,-0.6512 -0.3948,-1.0641 C 23.332,77.2237 23.2262,77.0542 23.116,76.9901 22.97,76.9034 22.7682,76.9008 22.5108,76.9802 l -0.0488,-0.1313 1.5455,-0.574 0.0487,0.1313 c -0.2041,0.1128 -0.3308,0.1987 -0.3798,0.2542 -0.0598,0.0706 -0.0941,0.1636 -0.1015,0.277 -0.0077,0.1131 0.0258,0.271 0.1006,0.4725 l 0.3952,1.0641 1.4627,-0.5434 c 0.1964,-0.0731 0.3123,-0.1272 0.3478,-0.161 0.0351,-0.0351 0.0578,-0.0807 0.0646,-0.1374 0.0076,-0.0565 -0.0136,-0.1523 -0.0629,-0.2846 L 25.5796,76.53 C 25.4784,76.2579 25.3868,76.0666 25.3063,75.9557 25.2258,75.8458 25.113,75.7525 24.9681,75.6774 24.7788,75.5807 24.5186,75.5056 24.1892,75.4523 l -0.0539,-0.1457 1.2654,0.0043 1.3827,3.7227 -0.1204,0.0448 -0.0635,-0.1709 c -0.0428,-0.1146 -0.1086,-0.2129 -0.1968,-0.2965 -0.0626,-0.0635 -0.1346,-0.0961 -0.2145,-0.097 -0.0811,-0.0017 -0.2285,0.038 -0.4448,0.1182 L 22.86,79.7034 c -0.2806,0.1043 -0.4425,0.1987 -0.4842,0.2849 -0.0552,0.1182 -0.0459,0.2764 0.0287,0.4771 l 0.0635,0.1709 -0.1202,0.0448 -1.3833,-3.7239 0.9575,-0.4138 0.0516,0.1386 c -0.2166,0.1369 -0.3577,0.2517 -0.4235,0.3452 -0.0655,0.0936 -0.0992,0.2081 -0.102,0.3433 0.0025,0.1066 0.0482,0.2809 0.1372,0.5199 z m -2.7244,-7.9467 1.5384,-0.4745 0.0263,0.1134 c -0.4331,0.2608 -0.7214,0.5561 -0.8614,0.8864 -0.1406,0.3305 -0.1661,0.6925 -0.0746,1.089 0.0763,0.3308 0.2231,0.6135 0.4405,0.8453 0.2172,0.2316 0.5128,0.3855 0.8887,0.4609 0.3753,0.0746 0.8161,0.0539 1.3215,-0.0629 0.417,-0.0961 0.762,-0.252 1.0347,-0.4674 0.2721,-0.216 0.4558,-0.4884 0.5524,-0.8167 0.0961,-0.3291 0.1004,-0.68 0.0145,-1.0525 -0.0751,-0.3243 -0.2047,-0.5961 -0.3892,-0.8144 -0.1851,-0.2194 -0.502,-0.4334 -0.9502,-0.6423 l 0.0428,-0.131 c 0.4672,0.1568 0.8334,0.381 1.1013,0.6716 0.2662,0.2911 0.453,0.6664 0.5587,1.1262 0.1916,0.8297 0.0572,1.5375 -0.4048,2.1225 -0.3436,0.4372 -0.7999,0.722 -1.3703,0.8536 -0.46,0.1063 -0.909,0.0915 -1.3459,-0.0431 -0.4371,-0.1341 -0.8061,-0.3733 -1.1083,-0.7161 -0.303,-0.3435 -0.5071,-0.7475 -0.6146,-1.2118 -0.0833,-0.3611 -0.0844,-0.7358 -0.0022,-1.1259 0.0263,-0.1137 0.0346,-0.1939 0.0244,-0.2381 -0.0154,-0.066 -0.0511,-0.1191 -0.1049,-0.1582 -0.0763,-0.0501 -0.1715,-0.0759 -0.2863,-0.0774 z m -0.6647,-5.3549 1.0922,-0.2169 0.021,0.1423 c -0.1888,0.0567 -0.3223,0.1146 -0.3975,0.1741 -0.1213,0.0978 -0.2055,0.2151 -0.2483,0.3537 -0.0445,0.1389 -0.0513,0.3127 -0.0201,0.523 l 0.1063,0.718 3.5722,-0.5292 c 0.2886,-0.0425 0.4635,-0.1029 0.5253,-0.1811 0.0825,-0.1091 0.1091,-0.2625 0.0796,-0.4598 l -0.0258,-0.1757 0.127,-0.0187 0.3212,2.1687 -0.127,0.0187 -0.0272,-0.1834 c -0.0323,-0.2177 -0.1151,-0.3628 -0.2489,-0.4371 -0.0825,-0.0445 -0.2548,-0.0476 -0.517,-0.0087 l -3.5723,0.5289 0.0905,0.6117 c 0.0351,0.2381 0.0768,0.4048 0.1236,0.5 0.0626,0.1245 0.1627,0.2223 0.3013,0.2977 0.1372,0.074 0.3138,0.104 0.5281,0.0907 l 0.021,0.1423 -1.1081,0.1088 z m 2.3196,-4.5513 c 0.072,-0.3561 0.1837,-0.6225 0.3393,-0.7994 0.2151,-0.2438 0.4773,-0.3657 0.7863,-0.3642 0.2359,0.0011 0.4612,0.0824 0.6761,0.2454 0.2143,0.163 0.3702,0.3853 0.4674,0.6682 0.0981,0.2817 0.1457,0.712 0.1432,1.2914 l -0.0114,2.4268 -0.1284,-6e-4 0.0011,-0.1919 c 9e-4,-0.2137 -0.0615,-0.3671 -0.1859,-0.4609 -0.0808,-0.0587 -0.2543,-0.0879 -0.5182,-0.089 l -3.0617,-0.0142 c -0.2928,-0.0014 -0.4771,0.0343 -0.5536,0.1063 -0.1029,0.0981 -0.1545,0.2429 -0.1553,0.4374 l -9e-4,0.1916 -0.1287,-6e-4 0.0102,-2.2209 c 0.002,-0.4147 0.0309,-0.7461 0.0879,-0.9961 0.0862,-0.3793 0.2353,-0.6673 0.449,-0.866 0.214,-0.1987 0.4581,-0.2973 0.735,-0.2959 0.237,0.0011 0.4482,0.0799 0.6356,0.2375 0.1859,0.1573 0.324,0.3886 0.413,0.6951 z m -0.2033,1.9868 c 0.0173,-0.0933 0.0298,-0.2007 0.0386,-0.3201 0.0091,-0.1201 0.013,-0.2525 0.0136,-0.3962 0.002,-0.3694 -0.034,-0.648 -0.1057,-0.8337 -0.0715,-0.1857 -0.1826,-0.3288 -0.3334,-0.428 -0.1494,-0.0975 -0.3132,-0.1477 -0.4915,-0.1486 -0.2761,-0.0014 -0.5108,0.1208 -0.707,0.3648 -0.195,0.2441 -0.2945,0.601 -0.2968,1.0701 -0.0011,0.2526 0.0233,0.4811 0.0734,0.6835 z m 2.2672,0.0105 c 0.0646,-0.294 0.0969,-0.5854 0.0981,-0.8717 0.0022,-0.4601 -0.0913,-0.8115 -0.2795,-1.0536 -0.188,-0.2415 -0.4218,-0.3631 -0.6999,-0.3646 -0.1831,-8e-4 -0.3606,0.0542 -0.5301,0.1659 -0.1706,0.1108 -0.3047,0.2891 -0.4034,0.5334 -0.0986,0.2444 -0.1488,0.5486 -0.1505,0.9103 -5e-4,0.1567 0.0012,0.2902 0.0054,0.4016 0.0043,0.1117 0.0119,0.201 0.0224,0.2699 z m -4.0981,-7.113 c 0.0981,-0.6602 0.4133,-1.1991 0.9462,-1.6141 0.533,-0.4161 1.1441,-0.5731 1.8349,-0.4708 0.7109,0.1052 1.2643,0.436 1.6614,0.9938 0.3974,0.5568 0.544,1.1824 0.4413,1.8757 -0.1037,0.6999 -0.4203,1.2541 -0.9484,1.6631 -0.5284,0.409 -1.1557,0.5601 -1.8828,0.4524 -0.7427,-0.11 -1.3076,-0.4754 -1.6957,-1.0947 -0.3362,-0.5386 -0.4552,-1.1401 -0.3569,-1.8054 z m 0.2367,0.1083 c -0.0674,0.4535 0.0338,0.8419 0.3042,1.1622 0.3362,0.3997 0.8767,0.6553 1.6225,0.7656 0.7637,0.1131 1.3785,0.0235 1.8426,-0.2704 0.3537,-0.2268 0.5632,-0.5627 0.6292,-1.01 0.0709,-0.4782 -0.0425,-0.8969 -0.3387,-1.2591 -0.2976,-0.3623 -0.8147,-0.5976 -1.5534,-0.707 -0.8013,-0.1185 -1.4244,-0.0354 -1.8686,0.2489 -0.3532,0.2279 -0.5661,0.5842 -0.6378,1.0698 z m 2.1796,-9.9638 1.5658,0.3742 -0.0351,0.1111 c -0.5054,0.0042 -0.904,0.1117 -1.1923,0.3248 -0.2897,0.2129 -0.4955,0.5117 -0.6185,0.8998 -0.1023,0.3234 -0.1196,0.6414 -0.0504,0.9518 0.0688,0.3099 0.2452,0.5928 0.5303,0.849 0.2852,0.2548 0.6747,0.4612 1.1693,0.618 0.4085,0.1295 0.7844,0.1709 1.1288,0.1238 0.3444,-0.0473 0.6412,-0.1885 0.8912,-0.4218 0.25,-0.2347 0.4326,-0.5343 0.5479,-0.8988 0.1007,-0.3172 0.127,-0.6174 0.0791,-0.8989 -0.0473,-0.2832 -0.2115,-0.6284 -0.4912,-1.0366 l 0.1037,-0.091 c 0.3223,0.3727 0.5239,0.752 0.6063,1.1384 0.0811,0.3861 0.0508,0.8042 -0.0918,1.254 -0.2571,0.8116 -0.733,1.3527 -1.4284,1.6214 -0.5184,0.2016 -1.0562,0.2143 -1.614,0.0375 -0.4504,-0.1426 -0.8292,-0.3836 -1.1367,-0.7217 -0.3081,-0.3379 -0.504,-0.7317 -0.5902,-1.1804 -0.0859,-0.4501 -0.0561,-0.9017 0.0879,-1.3561 0.112,-0.3532 0.3019,-0.6763 0.5709,-0.9703 0.0805,-0.0847 0.1284,-0.1494 0.142,-0.1927 0.0204,-0.0644 0.017,-0.1282 -0.0099,-0.1894 -0.04,-0.0819 -0.1086,-0.1528 -0.2072,-0.2123 z m 2.5415,-5.6279 c 0.315,-0.5885 0.7937,-0.989 1.4355,-1.1994 0.6423,-0.2117 1.2708,-0.1527 1.8862,0.1769 0.6335,0.3393 1.0423,0.8377 1.2277,1.4967 0.1859,0.6585 0.1128,1.2966 -0.2183,1.9145 -0.3342,0.6237 -0.8195,1.0384 -1.455,1.2447 -0.6353,0.2067 -1.2768,0.1367 -1.9248,-0.2103 -0.6613,-0.3546 -1.07,-0.8892 -1.2259,-1.6036 -0.1347,-0.6205 -0.0431,-1.2268 0.2746,-1.8195 z m 0.1857,0.1817 c -0.2163,0.4042 -0.2526,0.8039 -0.1063,1.1968 0.1811,0.4898 0.6038,0.913 1.2685,1.269 0.6806,0.3643 1.2892,0.4879 1.8255,0.368 0.4091,-0.0941 0.72,-0.3393 0.9335,-0.7379 0.2282,-0.426 0.263,-0.8586 0.1068,-1.2997 -0.1579,-0.4413 -0.5652,-0.8376 -1.2234,-1.1902 -0.7141,-0.3824 -1.3289,-0.5148 -1.8422,-0.3972 -0.4102,0.095 -0.7308,0.3583 -0.9624,0.7912 z m 3.9413,-6.5906 0.9147,0.6217 -0.0805,0.1145 c -0.189,-0.1202 -0.3654,-0.1811 -0.5292,-0.1823 -0.1653,-5e-4 -0.3008,0.0437 -0.4082,0.1341 -0.1088,0.0901 -0.2356,0.2398 -0.3832,0.4496 l -0.8323,1.1826 2.9537,2.0781 c 0.2557,0.18 0.4434,0.2585 0.5616,0.2352 0.1199,-0.0232 0.2741,-0.1621 0.4646,-0.4161 l 0.1048,0.0737 -1.2707,1.806 -0.1049,-0.074 c 0.174,-0.2639 0.2526,-0.4561 0.2341,-0.5766 -0.0173,-0.1202 -0.1545,-0.2704 -0.4101,-0.4504 l -2.4577,-1.7288 c -0.2557,-0.1803 -0.4433,-0.2586 -0.5624,-0.2342 -0.1196,0.0233 -0.2741,0.1619 -0.4637,0.4153 l -0.1049,-0.074 z m 3.3812,-0.1598 1.0275,0.9258 c 0.2208,0.199 0.3816,0.2965 0.4822,0.2916 0.14,-0.0031 0.2755,-0.0765 0.4053,-0.2208 l 0.1319,-0.1465 0.0955,0.0861 -1.478,1.6402 -0.0952,-0.0859 0.1298,-0.1443 c 0.146,-0.1619 0.2021,-0.3223 0.1684,-0.4782 -0.0193,-0.0853 -0.129,-0.2194 -0.3289,-0.3994 L 29.7031,33.6129 C 29.482,33.414 29.3227,33.3156 29.2235,33.319 c -0.1426,0.0054 -0.2786,0.0799 -0.4099,0.2253 l -0.1298,0.1446 -0.0955,-0.0862 1.2648,-1.4034 c 0.3089,-0.3427 0.5842,-0.5828 0.8274,-0.7228 0.2424,-0.1392 0.502,-0.207 0.7781,-0.2044 0.2755,0.0031 0.5188,0.0998 0.7291,0.2891 0.2871,0.2588 0.4274,0.5721 0.4215,0.9397 -0.0065,0.3674 -0.1783,0.7393 -0.5176,1.1157 -0.0831,0.0924 -0.1786,0.186 -0.2872,0.2815 -0.1085,0.0978 -0.2304,0.1956 -0.3653,0.2957 z M 31.2905,34.06 c 0.1069,-0.0834 0.2001,-0.1602 0.2775,-0.2296 0.0774,-0.0684 0.1415,-0.1307 0.19,-0.1846 0.1763,-0.1953 0.2573,-0.4257 0.2463,-0.6925 -0.0114,-0.2664 -0.1267,-0.4992 -0.3467,-0.6973 -0.1522,-0.1372 -0.3234,-0.231 -0.5145,-0.2806 -0.1905,-0.0496 -0.3744,-0.0408 -0.5502,0.0241 -0.176,0.066 -0.3353,0.1774 -0.4768,0.3342 -0.0867,0.0961 -0.1803,0.2335 -0.2829,0.4133 z m 4.3376,-3.3486 -1.4258,1.3975 0.2724,0.7704 c 0.0672,0.1908 0.1324,0.3201 0.1956,0.3847 0.0499,0.051 0.1216,0.0706 0.2134,0.057 0.0904,-0.0133 0.2313,-0.1012 0.4193,-0.2625 l 0.0901,0.0915 -1.1605,1.1376 -0.0901,-0.0919 c 0.1298,-0.1751 0.197,-0.3044 0.2032,-0.3891 0.0142,-0.1704 -0.0425,-0.4323 -0.1698,-0.7861 l -1.4312,-4.0499 0.0913,-0.0898 4.0351,1.5565 c 0.3237,0.1256 0.5607,0.18 0.7118,0.1655 0.1496,-0.0156 0.303,-0.0927 0.4626,-0.2318 l 0.0898,0.0915 -1.4513,1.4224 -0.0899,-0.0918 c 0.1395,-0.1502 0.2169,-0.2693 0.2313,-0.3583 0.0142,-0.089 -0.0065,-0.1602 -0.0606,-0.2154 C 36.6931,31.1465 36.544,31.066 36.3166,30.979 Z m -0.2631,-0.102 -1.9561,-0.7558 0.6993,1.9877 z m 2.7032,-3.2409 1.9666,-1.3527 -0.7721,-1.1231 c -0.1364,-0.1978 -0.2398,-0.3186 -0.3098,-0.3628 -0.0536,-0.0323 -0.1256,-0.0437 -0.2166,-0.0315 -0.1213,0.0153 -0.2319,0.0584 -0.3322,0.1273 l -0.1503,0.1037 -0.0728,-0.106 1.819,-1.2512 0.0728,0.106 -0.1502,0.1035 c -0.1006,0.0689 -0.1809,0.1556 -0.2404,0.2616 -0.0462,0.0766 -0.0604,0.1542 -0.0414,0.2322 0.0179,0.0785 0.093,0.2132 0.2237,0.4034 l 1.7351,2.5225 c 0.1355,0.197 0.2392,0.3178 0.3087,0.362 0.0547,0.0335 0.1258,0.0451 0.2143,0.0346 0.1233,-0.0167 0.2349,-0.0604 0.3356,-0.1296 l 0.1505,-0.1034 0.0726,0.106 -1.819,1.2509 -0.0732,-0.1057 0.1508,-0.1035 c 0.1741,-0.1199 0.2676,-0.2537 0.2835,-0.4014 0.0099,-0.098 -0.0655,-0.2624 -0.2259,-0.496 l -0.817,-1.1875 -1.9666,1.3527 0.8169,1.1875 c 0.1355,0.1973 0.2392,0.318 0.309,0.3622 0.0533,0.0341 0.1253,0.0451 0.2163,0.0332 0.1216,-0.0159 0.2307,-0.0578 0.331,-0.1267 l 0.1528,-0.1049 0.0729,0.1057 -1.8193,1.2513 -0.0728,-0.1058 0.1508,-0.1037 c 0.176,-0.1211 0.2704,-0.2557 0.2865,-0.4037 0.0077,-0.0964 -0.0686,-0.2602 -0.2293,-0.4935 l -1.7351,-2.5225 c -0.1357,-0.1979 -0.2395,-0.3187 -0.3092,-0.3632 -0.0539,-0.0323 -0.1247,-0.0442 -0.2135,-0.0337 -0.1236,0.017 -0.2352,0.0607 -0.3353,0.1296 l -0.1505,0.1037 -0.0732,-0.1057 1.8196,-1.2512 0.0726,0.1057 -0.1525,0.1049 c -0.1004,0.0691 -0.1795,0.155 -0.2387,0.261 -0.0445,0.0752 -0.0576,0.152 -0.0397,0.2308 0.0179,0.0785 0.0918,0.2137 0.2228,0.4039 z m 6.3031,-5.6021 c -0.1378,-0.2475 -0.267,-0.3793 -0.3912,-0.3963 -0.1236,-0.017 -0.3183,0.0479 -0.5834,0.1953 l -0.0623,-0.1122 1.9428,-1.0806 0.0624,0.112 c -0.2719,0.1618 -0.4258,0.3007 -0.4618,0.4175 -0.0365,0.1157 0.0219,0.3104 0.1738,0.5839 l 1.4604,2.6258 c 0.1522,0.2732 0.2871,0.4255 0.4048,0.4555 0.1182,0.0309 0.3172,-0.0269 0.5978,-0.1721 l 0.0624,0.1123 -1.9429,1.0806 -0.0624,-0.112 c 0.2804,-0.1672 0.4374,-0.309 0.4749,-0.4263 0.0351,-0.1177 -0.0222,-0.3116 -0.1732,-0.5828 l -1.3218,-2.3763 -0.7087,3.6201 c 0.1006,0.1752 0.1791,0.2872 0.2361,0.3339 0.0556,0.0468 0.1369,0.0641 0.241,0.0513 0.1037,-0.013 0.2653,-0.0768 0.4841,-0.193 l 0.0624,0.1122 -1.9364,1.0772 -0.0623,-0.1122 c 0.2713,-0.1622 0.4257,-0.3008 0.4615,-0.4176 0.0368,-0.1156 -0.0216,-0.3107 -0.1735,-0.5839 l -1.4604,-2.6258 c -0.1523,-0.2735 -0.2869,-0.4254 -0.4045,-0.4555 -0.1185,-0.0309 -0.3175,0.0267 -0.5987,0.1724 l -0.0624,-0.1123 1.9367,-1.0772 0.0623,0.1123 c -0.2764,0.1644 -0.4314,0.3039 -0.4685,0.4209 -0.0369,0.116 0.0215,0.3107 0.1734,0.5843 l 1.3255,2.3825 z m 5.6826,-0.8184 -0.5151,-1.3388 c -0.0961,-0.25 -0.1743,-0.4031 -0.2341,-0.4603 -0.0598,-0.0587 -0.1468,-0.0865 -0.2614,-0.0845 -0.1156,0.0026 -0.2695,0.0386 -0.4629,0.1106 l -0.0462,-0.1199 2.0611,-0.7926 0.0462,0.1199 c -0.1964,0.0779 -0.3362,0.1548 -0.4204,0.229 -0.0847,0.0749 -0.1289,0.1557 -0.1323,0.2435 -0.004,0.0868 0.0396,0.2512 0.1321,0.4918 l 1.0686,2.7777 c 0.0978,0.2543 0.1792,0.409 0.2458,0.4663 0.066,0.0561 0.1508,0.0819 0.2565,0.0785 0.1038,-0.0045 0.2563,-0.0411 0.4561,-0.1105 l 0.0459,0.1199 -2.0608,0.7928 -0.0464,-0.1199 c 0.2055,-0.0842 0.3463,-0.1613 0.4234,-0.2318 0.0786,-0.0709 0.1208,-0.148 0.1293,-0.2308 0.0082,-0.083 -0.0351,-0.25 -0.1321,-0.502 l -0.4561,-1.1857 c -0.502,0.4736 -0.9414,0.7826 -1.3164,0.9266 -0.2818,0.1086 -0.5301,0.1454 -0.7461,0.1111 -0.2154,-0.0343 -0.3682,-0.1026 -0.4583,-0.2072 -0.0896,-0.1032 -0.2041,-0.3353 -0.3427,-0.6962 L 46.999,20.586 c -0.0941,-0.2454 -0.1721,-0.3977 -0.2347,-0.4589 -0.0618,-0.0604 -0.152,-0.0881 -0.2673,-0.0856 -0.1157,0.0037 -0.2679,0.0403 -0.4561,0.1103 l -0.0462,-0.1199 2.0752,-0.7983 0.0462,0.1199 c -0.2021,0.0777 -0.3475,0.1579 -0.4379,0.2399 -0.0907,0.0819 -0.135,0.1692 -0.1299,0.2613 0.0032,0.0921 0.0485,0.2492 0.1336,0.4703 l 0.2355,0.6125 c 0.1106,0.2878 0.2069,0.4839 0.2886,0.5914 0.0811,0.1062 0.1896,0.1717 0.3229,0.193 0.1332,0.0227 0.2837,0.0017 0.4515,-0.0629 0.3546,-0.1361 0.7118,-0.3731 1.0735,-0.711 z m 2.946,-3.1042 0.4207,1.8218 1.1061,-0.2551 c 0.2863,-0.0663 0.4683,-0.1494 0.5456,-0.2506 0.1049,-0.1338 0.1336,-0.3333 0.0876,-0.5989 l 0.1367,-0.0315 0.3707,1.6064 -0.1363,0.0315 c -0.0859,-0.2169 -0.1548,-0.3535 -0.2035,-0.4094 -0.0624,-0.0686 -0.1503,-0.1145 -0.2617,-0.1363 -0.1111,-0.0218 -0.2721,-0.0091 -0.4813,0.0391 l -1.1061,0.2554 0.351,1.5205 c 0.047,0.2041 0.0858,0.3257 0.115,0.3654 0.0307,0.0394 0.0729,0.0675 0.1279,0.0816 0.0553,0.0151 0.1531,0.0063 0.2905,-0.0255 l 0.8499,-0.1961 c 0.2823,-0.0652 0.4841,-0.1315 0.6046,-0.1973 0.119,-0.0652 0.2262,-0.1656 0.3192,-0.2994 0.1204,-0.1754 0.2282,-0.4237 0.3234,-0.7435 l 0.1511,-0.0348 -0.1664,1.2543 -3.8699,0.8932 -0.0286,-0.1253 0.1777,-0.0411 c 0.1188,-0.0272 0.2251,-0.0799 0.3192,-0.1568 0.0709,-0.0541 0.1128,-0.121 0.1239,-0.2004 0.0119,-0.0799 -0.0085,-0.2316 -0.0604,-0.4564 l -0.6919,-2.997 C 52.3474,18.2656 52.274,18.0933 52.1943,18.0408 52.0838,17.9711 51.9259,17.96 51.7173,18.0082 l -0.1778,0.0411 -0.0286,-0.1253 3.8707,-0.8934 0.2872,1.0028 -0.1438,0.0332 c -0.1082,-0.2324 -0.2038,-0.3872 -0.288,-0.4643 -0.0844,-0.0768 -0.1939,-0.125 -0.3274,-0.1454 -0.1063,-0.0111 -0.2846,0.0119 -0.5332,0.0694 z m 5.2677,0.9349 2.3612,-0.3498 -0.1998,-1.3485 c -0.0352,-0.2375 -0.0751,-0.3914 -0.1182,-0.462 -0.034,-0.0527 -0.0939,-0.0944 -0.1809,-0.1233 -0.1156,-0.0397 -0.2338,-0.0496 -0.354,-0.032 l -0.1809,0.0269 -0.019,-0.127 2.1841,-0.3234 0.019,0.127 -0.1808,0.0266 c -0.1208,0.0179 -0.2305,0.0607 -0.3306,0.1295 -0.0754,0.0485 -0.1224,0.112 -0.1397,0.1902 -0.0181,0.0786 -0.0102,0.2325 0.0238,0.4607 l 0.4485,3.0285 c 0.0351,0.2367 0.0751,0.3906 0.1182,0.4612 0.0343,0.0539 0.0929,0.0955 0.1771,0.1253 0.1179,0.0388 0.2376,0.049 0.3583,0.0312 l 0.1803,-0.0267 0.019,0.127 -2.1841,0.3235 -0.0187,-0.127 0.1808,-0.027 c 0.209,-0.0309 0.3515,-0.1099 0.4309,-0.2358 0.0522,-0.0836 0.057,-0.2645 0.0156,-0.5445 l -0.2112,-1.4259 -2.3615,0.3495 0.2114,1.4259 c 0.0349,0.2367 0.0749,0.3906 0.1182,0.4612 0.0329,0.0541 0.0927,0.0955 0.1795,0.125 0.1159,0.0391 0.2327,0.0496 0.3532,0.0317 l 0.1831,-0.0269 0.0187,0.127 -2.1841,0.3234 -0.0187,-0.127 0.1808,-0.0269 c 0.2115,-0.0312 0.3555,-0.1106 0.4352,-0.2364 0.049,-0.0831 0.0527,-0.2639 0.011,-0.544 L 57.3452,17.5371 C 57.3097,17.2996 57.27,17.1456 57.2267,17.0751 57.1929,17.0223 57.1346,16.9804 57.0501,16.9509 56.9316,16.9118 56.812,16.9021 56.6918,16.9197 l -0.1809,0.0269 -0.0187,-0.1269 2.1841,-0.3235 0.0187,0.127 -0.1834,0.0272 c -0.1205,0.0179 -0.229,0.0601 -0.3291,0.1293 -0.0728,0.0479 -0.1182,0.1111 -0.1372,0.1899 -0.0181,0.0782 -0.0113,0.2324 0.0227,0.4606 z m 5.968,-0.51 2.3871,0.0111 0.0062,-1.3632 C 66.63,16.6765 66.6136,16.5183 66.5816,16.4418 66.5561,16.3848 66.5031,16.3344 66.4217,16.2927 66.3134,16.236 66.198,16.2082 66.0764,16.2077 l -0.1828,-9e-4 3e-4,-0.1284 2.2079,0.0102 -6e-4,0.1284 -0.1825,-8e-4 c -0.1219,-6e-4 -0.2373,0.0249 -0.3464,0.0779 -0.0817,0.0366 -0.1378,0.0921 -0.1664,0.1673 -0.0301,0.0745 -0.0456,0.2279 -0.0465,0.4586 l -0.0142,3.0617 c -8e-4,0.2392 0.0151,0.3974 0.0474,0.4734 0.0255,0.0587 0.0774,0.1088 0.1562,0.1508 0.1108,0.0564 0.2276,0.0845 0.3495,0.085 l 0.1825,9e-4 -5e-4,0.1284 -2.208,-0.0102 6e-4,-0.1284 0.1828,8e-4 c 0.2112,9e-4 0.3643,-0.0555 0.4618,-0.1681 0.0638,-0.0748 0.0958,-0.2528 0.0972,-0.536 l 0.0068,-1.4414 -2.387,-0.0111 -0.0068,1.4414 c -9e-4,0.2393 0.015,0.3975 0.0473,0.4737 0.0244,0.0584 0.0774,0.1086 0.1588,0.1505 0.1085,0.0564 0.2225,0.0845 0.3441,0.0851 l 0.1854,8e-4 -6e-4,0.1284 -2.2079,-0.0102 6e-4,-0.1284 0.1828,9e-4 c 0.2137,0.0011 0.3679,-0.0556 0.4657,-0.1678 0.0613,-0.0749 0.0919,-0.2532 0.0933,-0.5364 l 0.0142,-3.0617 C 63.5125,16.662 63.4961,16.5039 63.464,16.4276 63.4385,16.3704 63.3872,16.3199 63.3081,16.2782 63.197,16.2215 63.0805,16.1938 62.9589,16.1932 l -0.1828,-9e-4 5e-4,-0.1284 2.2077,0.0102 -3e-4,0.1285 -0.1854,-9e-4 c -0.1216,-6e-4 -0.2359,0.0249 -0.3453,0.0782 -0.0788,0.0363 -0.1335,0.0919 -0.1638,0.167 -0.0301,0.0745 -0.0468,0.2279 -0.0476,0.4586 z m 7.5257,-1.8238 c 0.6602,0.0978 1.1991,0.413 1.6141,0.9459 0.4158,0.5329 0.5731,1.1444 0.4708,1.8349 -0.1052,0.7109 -0.436,1.2643 -0.9941,1.6614 -0.5567,0.3974 -1.1821,0.544 -1.8754,0.4413 -0.6999,-0.1034 -1.2541,-0.4203 -1.6631,-0.9484 -0.4093,-0.5284 -0.5598,-1.1557 -0.4524,-1.8828 0.1097,-0.7424 0.4751,-1.3076 1.095,-1.6954 0.538,-0.3365 1.1398,-0.4555 1.8051,-0.3569 z m -0.1085,0.2364 c -0.4536,-0.0672 -0.8417,0.034 -1.1622,0.3042 -0.3995,0.3362 -0.6551,0.877 -0.7654,1.6228 -0.1131,0.7637 -0.0235,1.3782 0.2704,1.8425 0.2268,0.3532 0.5627,0.563 1.01,0.6293 0.4779,0.0706 0.8969,-0.0425 1.2594,-0.339 0.362,-0.2976 0.597,-0.8147 0.7064,-1.5534 0.1188,-0.8013 0.0355,-1.4244 -0.2486,-1.8683 -0.2279,-0.3535 -0.5842,-0.5661 -1.07,-0.6381 z M 79.42,16.672 c 0.0745,0.0221 0.1301,0.0711 0.1675,0.1454 0.0374,0.0757 0.0439,0.1533 0.0201,0.233 -0.0587,0.1973 -0.2211,0.3339 -0.4856,0.4105 -0.2647,0.0762 -0.6386,0.0419 -1.1228,-0.1024 -0.4858,-0.1443 -0.8186,-0.3203 -0.9986,-0.5289 -0.1786,-0.2084 -0.2384,-0.411 -0.1797,-0.6083 0.0227,-0.0774 0.0697,-0.1392 0.1403,-0.1826 0.0717,-0.0445 0.1474,-0.0544 0.2271,-0.0306 0.0793,0.0235 0.1391,0.0726 0.1794,0.1465 0.0402,0.074 0.0836,0.2234 0.129,0.4479 0.0632,0.3192 0.2443,0.5233 0.5451,0.6126 0.2979,0.0887 0.5612,0.017 0.7911,-0.2149 0.159,-0.1664 0.2764,-0.2693 0.349,-0.3087 0.0708,-0.0394 0.1513,-0.0453 0.2381,-0.0195 z m -0.6429,2.2436 c 0.0805,-0.2716 0.0844,-0.4564 0.0099,-0.557 -0.0743,-0.1001 -0.2571,-0.1939 -0.5477,-0.2806 l 0.0366,-0.1231 2.1311,0.6341 -0.0366,0.1231 c -0.3055,-0.0811 -0.5128,-0.0941 -0.621,-0.0383 -0.1083,0.0547 -0.2073,0.2322 -0.2965,0.5323 l -0.8567,2.88 c -0.089,0.2997 -0.1037,0.5026 -0.0428,0.6075 0.0601,0.1063 0.241,0.2081 0.5412,0.3076 l -0.0369,0.123 -2.1311,-0.6341 0.0369,-0.123 c 0.3155,0.0839 0.5264,0.0969 0.6363,0.0413 0.1089,-0.0567 0.2073,-0.2333 0.296,-0.5309 l 0.7753,-2.6062 -3.0839,2.0237 c -0.0552,0.1942 -0.0802,0.3285 -0.0742,0.4022 0.0056,0.0723 0.0499,0.1426 0.1321,0.2081 0.0816,0.0652 0.2403,0.1361 0.4762,0.2112 l -0.0366,0.1233 -2.124,-0.6321 0.0369,-0.1231 c 0.3055,0.0811 0.5128,0.0944 0.6213,0.0386 0.1083,-0.0547 0.2067,-0.2327 0.296,-0.5324 l 0.8569,-2.88 c 0.0893,-0.2999 0.1037,-0.5025 0.0431,-0.6077 -0.0604,-0.106 -0.241,-0.2084 -0.5415,-0.3073 l 0.0369,-0.1233 2.1237,0.6321 -0.0366,0.1231 c -0.3106,-0.0828 -0.5193,-0.0964 -0.6287,-0.0409 -0.1085,0.0547 -0.2069,0.2325 -0.2962,0.5324 l -0.7775,2.6132 z m 7.0693,1.959 c 0.5882,0.3149 0.9887,0.794 1.1993,1.4355 0.2115,0.6423 0.1528,1.2708 -0.1768,1.8862 -0.3394,0.6335 -0.8374,1.0425 -1.497,1.2276 -0.6585,0.186 -1.2963,0.1126 -1.9143,-0.2182 -0.6236,-0.334 -1.0383,-0.8195 -1.2447,-1.4551 -0.2066,-0.6352 -0.1366,-1.2767 0.2104,-1.9244 0.3543,-0.6619 0.8892,-1.0704 1.6035,-1.226 0.6203,-0.1346 1.2269,-0.0433 1.8196,0.2744 z m -0.1817,0.1857 C 85.2605,20.844 84.8605,20.808 84.4679,20.954 c -0.4898,0.1811 -0.913,0.6038 -1.2691,1.2685 -0.3642,0.6803 -0.4878,1.2892 -0.3679,1.8255 0.0941,0.4093 0.339,0.72 0.7379,0.9337 0.4257,0.2282 0.8586,0.2631 1.2994,0.1066 0.4416,-0.1579 0.8379,-0.5649 1.1905,-1.2234 0.3821,-0.7141 0.5148,-1.3286 0.3969,-1.8423 -0.0947,-0.4098 -0.3581,-0.7304 -0.7909,-0.9623 z m 6.6589,3.7335 -0.5381,0.9745 -0.1224,-0.0756 c 0.0782,-0.1806 0.1202,-0.3198 0.1233,-0.4159 0.0034,-0.1559 -0.0326,-0.2956 -0.1106,-0.4178 -0.0776,-0.1236 -0.206,-0.2407 -0.3869,-0.3526 l -0.6174,-0.3816 -1.8986,3.0719 c -0.1531,0.2481 -0.2203,0.4207 -0.1999,0.5185 0.0301,0.1332 0.1304,0.2525 0.2999,0.3574 l 0.1511,0.0933 -0.0674,0.1091 -1.8652,-1.1525 0.0677,-0.1095 0.1576,0.0976 c 0.1874,0.1156 0.3515,0.1459 0.4947,0.0918 0.087,-0.0346 0.2007,-0.1641 0.3398,-0.3898 l 1.8987,-3.0719 -0.5258,-0.3248 c -0.2047,-0.1267 -0.3592,-0.2024 -0.4618,-0.2282 -0.1358,-0.0323 -0.275,-0.019 -0.4218,0.0385 -0.1448,0.0573 -0.2818,0.1727 -0.4099,0.3453 l -0.1222,-0.0757 0.631,-0.9173 z m 2.0256,4.7619 c 0.2174,0.2909 0.3419,0.5516 0.3705,0.7855 0.0385,0.3229 -0.0454,0.5995 -0.2523,0.8294 -0.1576,0.1749 -0.3685,0.2889 -0.633,0.3407 -0.2644,0.0513 -0.534,0.0199 -0.8101,-0.0961 -0.2753,-0.1148 -0.6282,-0.3656 -1.0585,-0.7534 l -1.8028,-1.6245 0.0859,-0.0953 0.1426,0.1281 c 0.1587,0.1432 0.3146,0.1988 0.4677,0.1684 0.0975,-0.021 0.235,-0.1309 0.4116,-0.3271 l 2.0494,-2.2745 c 0.1959,-0.2174 0.292,-0.3787 0.2892,-0.4839 -0.0046,-0.142 -0.0783,-0.2769 -0.2226,-0.407 l -0.1423,-0.1285 0.0859,-0.0952 1.6498,1.4865 c 0.3081,0.2775 0.5363,0.5199 0.6846,0.7288 0.2256,0.3169 0.3415,0.6199 0.3475,0.9119 0.0054,0.2917 -0.0836,0.5394 -0.269,0.7455 -0.1585,0.1757 -0.3583,0.2809 -0.6007,0.3155 -0.2412,0.034 -0.5054,-0.0173 -0.7934,-0.1548 z m -1.3467,-1.4746 c 0.0584,0.0752 0.1298,0.1559 0.2128,0.2418 0.0842,0.0868 0.1798,0.1778 0.2866,0.2741 0.2747,0.2472 0.5063,0.4062 0.6925,0.4765 0.186,0.0701 0.3668,0.0825 0.5412,0.0363 0.1723,-0.0465 0.3189,-0.1355 0.4382,-0.2678 0.1848,-0.2053 0.25,-0.4615 0.1987,-0.7702 -0.0522,-0.3081 -0.2523,-0.6202 -0.6007,-0.934 -0.1879,-0.1693 -0.3741,-0.3033 -0.5584,-0.4006 z m -1.5177,1.6844 c 0.1763,0.2438 0.3719,0.4617 0.5848,0.6534 0.3418,0.3081 0.6664,0.4722 0.972,0.4932 0.3055,0.021 0.5519,-0.0726 0.7384,-0.2795 0.1225,-0.1361 0.1996,-0.3047 0.229,-0.5057 0.0312,-0.201 -0.0127,-0.4198 -0.1289,-0.6559 C 93.7633,29.2346 93.5697,28.9945 93.3009,28.7524 93.1844,28.6475 93.0838,28.5599 92.9976,28.4888 92.912,28.4176 92.84,28.364 92.7816,28.326 Z m 6.8346,0.7662 -1.3663,1.2761 0.7747,0.8297 c 0.2007,0.2149 0.3637,0.3303 0.4904,0.347 0.1681,0.0238 0.3552,-0.0516 0.5624,-0.2239 l 0.0952,0.1023 -1.205,1.1254 -0.0952,-0.1024 c 0.1448,-0.1831 0.2285,-0.3109 0.2526,-0.3812 0.028,-0.0882 0.0238,-0.1871 -0.0131,-0.2946 C 97.778,33.103 97.6867,32.97 97.5402,32.813 l -0.775,-0.8297 -1.1407,1.0653 c -0.1528,0.1428 -0.2387,0.2375 -0.2582,0.2826 -0.0193,0.0459 -0.0224,0.0966 -0.0068,0.1514 0.0144,0.0552 0.0711,0.1354 0.1675,0.2386 l 0.595,0.6373 c 0.1984,0.2123 0.3569,0.3534 0.4737,0.4249 0.1162,0.0706 0.2568,0.1128 0.4192,0.1264 0.212,0.0162 0.481,-0.0147 0.8053,-0.0924 l 0.1058,0.1134 -1.1688,0.4838 -2.7107,-2.9023 0.0938,-0.0876 0.1244,0.1335 c 0.0834,0.089 0.1823,0.1545 0.2954,0.1975 0.0828,0.0343 0.1616,0.0369 0.2358,0.0069 0.0752,-0.0298 0.1959,-0.1234 0.3646,-0.2807 l 2.2481,-2.0996 c 0.2189,-0.2044 0.3317,-0.354 0.3368,-0.4493 0.0057,-0.1307 -0.0644,-0.273 -0.2103,-0.4294 l -0.1248,-0.1333 0.0939,-0.0876 2.7119,2.9033 -0.7246,0.7506 -0.1006,-0.1077 c 0.1471,-0.2101 0.2333,-0.3705 0.258,-0.4822 0.024,-0.1114 0.011,-0.2302 -0.0383,-0.356 -0.0437,-0.0973 -0.1531,-0.2404 -0.3271,-0.4269 z" />
    <path
       id="path4"
       style="fill:#1b1918;fill-rule:evenodd"
       d="m 103.6967,36.8541 -0.8852,0.6752 -0.0817,-0.1188 c 0.1446,-0.1338 0.239,-0.2443 0.2804,-0.3311 0.066,-0.1411 0.0895,-0.2834 0.0674,-0.4269 -0.0209,-0.1442 -0.0915,-0.3033 -0.2123,-0.4785 l -0.4107,-0.5978 -2.9758,2.0461 c -0.2404,0.1649 -0.3711,0.2962 -0.3921,0.3937 -0.0258,0.1341 0.0176,0.2837 0.1307,0.4482 l 0.1006,0.1462 -0.106,0.0726 -1.2421,-1.8065 0.106,-0.0726 0.1049,0.1525 c 0.1247,0.1814 0.2628,0.2753 0.4155,0.2835 0.0936,0.0034 0.2501,-0.0695 0.4686,-0.2197 l 2.9755,-2.0461 -0.3503,-0.5093 c -0.1364,-0.1985 -0.2469,-0.33 -0.3305,-0.3952 -0.1112,-0.0839 -0.2441,-0.1278 -0.4014,-0.1346 -0.1562,-0.006 -0.3277,0.0445 -0.5142,0.1508 l -0.082,-0.1185 0.9474,-0.5851 z m 2.8145,4.6128 -1.3515,0.8748 -0.0559,-0.1021 c 0.3456,-0.3685 0.5429,-0.7313 0.5877,-1.0871 0.0459,-0.3563 -0.0281,-0.7115 -0.2243,-1.0683 -0.1629,-0.2974 -0.3812,-0.5296 -0.6536,-0.6937 -0.2716,-0.1638 -0.5979,-0.2316 -0.9805,-0.2021 -0.381,0.0303 -0.7994,0.1698 -1.2541,0.4195 -0.3756,0.2061 -0.6653,0.4496 -0.8688,0.7314 -0.2035,0.2815 -0.3061,0.5938 -0.3098,0.9357 -0.003,0.343 0.0881,0.682 0.2718,1.0171 0.1605,0.2916 0.3592,0.5179 0.5961,0.6777 0.2376,0.161 0.6004,0.2809 1.0891,0.36 l -0.006,0.1378 c -0.4918,-0.0241 -0.9057,-0.14 -1.2419,-0.347 -0.3353,-0.2077 -0.6171,-0.5184 -0.8444,-0.932 -0.4094,-0.7464 -0.4723,-1.4641 -0.1871,-2.1529 0.2123,-0.5139 0.574,-0.9119 1.0871,-1.1937 0.4141,-0.2273 0.8498,-0.335 1.3067,-0.3243 0.4573,0.0105 0.8774,0.1406 1.2615,0.3878 0.3846,0.2486 0.691,0.5817 0.9206,0.9995 0.1783,0.3249 0.2812,0.6851 0.3082,1.0828 0.006,0.1168 0.0192,0.1962 0.0411,0.2359 0.0329,0.0592 0.0813,0.1006 0.144,0.1236 0.087,0.0278 0.1856,0.0266 0.2968,-0.0031 z m 2.1632,5.218 -1.0182,0.4502 -0.0516,-0.1344 c 0.1715,-0.0964 0.2888,-0.182 0.3498,-0.2565 0.0969,-0.1222 0.153,-0.2549 0.1649,-0.3997 0.0128,-0.1452 -0.0187,-0.3161 -0.0949,-0.5148 l -0.2605,-0.6772 -3.3704,1.2963 c -0.2721,0.1046 -0.43,0.2018 -0.4728,0.2917 -0.057,0.1244 -0.0491,0.28 0.0224,0.4663 l 0.0637,0.1655 -0.1199,0.0462 -0.7872,-2.0463 0.12,-0.0462 0.0666,0.1732 c 0.0791,0.2052 0.1916,0.3288 0.3381,0.3722 0.0902,0.0252 0.2591,-0.0094 0.5066,-0.1043 l 3.3707,-1.2966 -0.222,-0.5769 c -0.0864,-0.2247 -0.1635,-0.3784 -0.2296,-0.4612 -0.0884,-0.1077 -0.2075,-0.1814 -0.3591,-0.2245 -0.1503,-0.0422 -0.3289,-0.0331 -0.5349,0.027 l -0.0522,-0.1344 1.0579,-0.3484 z m -0.9729,4.6769 c 0.0343,0.3617 0.004,0.6491 -0.0932,0.8634 -0.1353,0.296 -0.3513,0.4882 -0.6478,0.5766 -0.2256,0.0672 -0.4648,0.0547 -0.7174,-0.0391 -0.2526,-0.0938 -0.4663,-0.2614 -0.6415,-0.504 -0.1752,-0.2415 -0.3455,-0.6395 -0.5108,-1.1948 l -0.6922,-2.3259 0.1233,-0.0365 0.0547,0.1837 c 0.0607,0.2049 0.165,0.3336 0.3112,0.3875 0.0944,0.0326 0.2685,0.0104 0.5219,-0.065 l 2.9347,-0.8733 c 0.2804,-0.0833 0.4465,-0.1709 0.4989,-0.2622 0.0697,-0.1236 0.0771,-0.2772 0.0218,-0.4635 l -0.0544,-0.1837 0.1227,-0.0365 0.6339,2.1285 c 0.1182,0.3974 0.1868,0.7231 0.2046,0.9788 0.0272,0.3881 -0.0317,0.707 -0.1791,0.959 -0.1471,0.252 -0.3524,0.4172 -0.618,0.4963 -0.227,0.0675 -0.4521,0.0533 -0.6769,-0.0436 -0.2236,-0.0967 -0.4226,-0.2781 -0.5964,-0.5457 z m -0.3812,-1.9604 c 0.0104,0.0946 0.0297,0.2009 0.0561,0.3174 0.0261,0.118 0.0604,0.2455 0.1015,0.3836 0.1051,0.3537 0.2202,0.6103 0.3424,0.7673 0.1227,0.1568 0.2701,0.2616 0.443,0.3129 0.1715,0.0502 0.3427,0.0508 0.514,-2e-4 0.2647,-0.0786 0.4538,-0.2637 0.5709,-0.5539 0.1159,-0.29 0.1077,-0.6605 -0.0261,-1.1101 -0.072,-0.2421 -0.1613,-0.4538 -0.2679,-0.633 z m -2.1728,0.6468 c 0.023,0.2999 0.0765,0.5882 0.1585,0.8626 0.1312,0.4411 0.3225,0.7503 0.5723,0.9275 0.2503,0.1769 0.5094,0.2254 0.7761,0.146 0.1752,-0.0522 0.3294,-0.1559 0.4592,-0.3121 0.1313,-0.1553 0.2078,-0.3648 0.2316,-0.6273 0.0232,-0.2625 -0.0167,-0.5684 -0.1199,-0.9148 -0.0448,-0.1505 -0.085,-0.2775 -0.1213,-0.3829 -0.0366,-0.1055 -0.0698,-0.1888 -0.0998,-0.2517 z m 5.2968,4.4674 -1.8473,0.2889 0.1754,1.1214 c 0.0454,0.2905 0.1154,0.4776 0.2104,0.5624 0.1261,0.1142 0.3231,0.1567 0.591,0.1306 l 0.0218,0.1381 -1.629,0.2545 -0.0216,-0.1383 c 0.2228,-0.07 0.3637,-0.129 0.4232,-0.1735 0.0729,-0.0572 0.1247,-0.1414 0.1545,-0.2511 0.0298,-0.1092 0.0289,-0.2707 -0.005,-0.4831 l -0.1752,-1.1213 -1.5418,0.2409 c -0.2069,0.0323 -0.3311,0.0624 -0.3727,0.0884 -0.0417,0.0275 -0.0726,0.0675 -0.0905,0.1216 -0.0189,0.0539 -0.0172,0.1523 0.005,0.2917 l 0.1346,0.8615 c 0.0445,0.2868 0.0961,0.4924 0.1531,0.6174 0.0564,0.1236 0.1491,0.2375 0.2758,0.3401 0.1664,0.1324 0.4062,0.2577 0.718,0.3756 l 0.0241,0.1534 -1.239,-0.256 -0.6129,-3.924 0.1267,-0.0196 0.0281,0.1803 c 0.019,0.1205 0.0638,0.2299 0.1335,0.3294 0.0491,0.0748 0.1131,0.1211 0.1911,0.1381 0.0788,0.0175 0.2316,0.0082 0.4595,-0.0275 l 3.0393,-0.4748 c 0.2956,-0.0462 0.4728,-0.1069 0.5309,-0.1829 0.0777,-0.1049 0.0998,-0.2619 0.0669,-0.4734 l -0.0283,-0.1802 0.1269,-0.0199 0.6135,3.9251 -1.0211,0.2146 -0.0227,-0.146 c 0.2399,-0.0912 0.4011,-0.1754 0.4842,-0.2539 0.0825,-0.0786 0.1383,-0.1843 0.1681,-0.3161 0.0187,-0.1052 0.009,-0.2849 -0.0309,-0.5369 z m -1.2926,5.3669 0.0105,2.3867 1.3632,-0.0059 c 0.2401,-9e-4 0.3983,-0.0187 0.4742,-0.0513 0.0573,-0.0264 0.1069,-0.0797 0.148,-0.1613 0.0555,-0.1089 0.0825,-0.2245 0.0816,-0.3461 l -5e-4,-0.1829 0.1281,-5e-4 0.01,2.2076 -0.1284,6e-4 -9e-4,-0.1823 c -5e-4,-0.1222 -0.0272,-0.2373 -0.0813,-0.3458 -0.0369,-0.0814 -0.0933,-0.1372 -0.1681,-0.1653 -0.0751,-0.0292 -0.2288,-0.0431 -0.4592,-0.042 l -3.0617,0.0131 c -0.2393,0.0011 -0.3974,0.0187 -0.4734,0.0516 -0.0581,0.0261 -0.1077,0.0782 -0.1491,0.1576 -0.0553,0.1114 -0.0825,0.2282 -0.0819,0.3501 l 8e-4,0.1825 -0.1284,6e-4 -0.01,-2.2079 0.1287,-6e-4 5e-4,0.1828 c 9e-4,0.2112 0.059,0.364 0.1721,0.4604 0.0754,0.0632 0.2537,0.0935 0.5369,0.0924 l 1.4414,-0.0062 -0.0102,-2.3871 -1.4414,0.0065 c -0.2393,9e-4 -0.3974,0.0187 -0.4731,0.0513 -0.0584,0.025 -0.108,0.0783 -0.1494,0.1599 -0.0553,0.1094 -0.0825,0.2234 -0.0819,0.345 l 8e-4,0.1854 -0.1284,5e-4 -0.01,-2.2079 0.1287,-5e-4 5e-4,0.1828 c 9e-4,0.2137 0.059,0.3677 0.1724,0.4643 0.0751,0.0607 0.2537,0.0896 0.5369,0.0885 l 3.0617,-0.0134 c 0.2398,-8e-4 0.3979,-0.0187 0.4742,-0.0513 0.057,-0.0263 0.1069,-0.0779 0.1477,-0.1573 0.0558,-0.1117 0.0825,-0.2285 0.0819,-0.3501 l -8e-4,-0.1828 0.1286,-6e-4 0.009,2.2079 -0.1284,6e-4 -9e-4,-0.1854 c -2e-4,-0.1216 -0.0272,-0.2356 -0.0813,-0.3444 -0.0369,-0.0788 -0.0933,-0.1329 -0.1681,-0.1624 -0.0751,-0.0295 -0.2285,-0.0445 -0.4592,-0.0434 z m -0.074,5.8141 -0.1803,2.3803 1.3593,0.1028 c 0.2392,0.0182 0.3982,0.0131 0.4767,-0.0133 0.059,-0.0215 0.1132,-0.0708 0.1602,-0.1491 0.0644,-0.104 0.1001,-0.2171 0.1094,-0.3384 l 0.0139,-0.1823 0.1279,0.0096 -0.1667,2.2017 -0.1279,-0.0096 0.0136,-0.182 c 0.009,-0.1216 -0.008,-0.2387 -0.0532,-0.3512 -0.0307,-0.0842 -0.082,-0.144 -0.1551,-0.178 -0.072,-0.0352 -0.2239,-0.0613 -0.4541,-0.0788 l -3.0529,-0.2314 c -0.2384,-0.0178 -0.3974,-0.013 -0.4757,0.0137 -0.0601,0.0215 -0.1139,0.0694 -0.1616,0.1451 -0.0637,0.1066 -0.1003,0.2208 -0.1094,0.3424 l -0.0136,0.182 -0.1281,-0.0096 0.1667,-2.2014 0.1281,0.0096 -0.0139,0.1823 c -0.0161,0.2106 0.0295,0.3673 0.1349,0.4725 0.0701,0.0692 0.2455,0.1137 0.5278,0.1349 l 1.4375,0.1089 0.1803,-2.38 -1.4375,-0.1088 c -0.2386,-0.0182 -0.3977,-0.0131 -0.4759,0.0133 -0.0598,0.0204 -0.1137,0.0694 -0.1616,0.1477 -0.0638,0.1043 -0.1,0.216 -0.1088,0.3373 l -0.0142,0.1848 -0.1278,-0.0099 0.1666,-2.2014 0.1279,0.0097 -0.0136,0.1822 c -0.0165,0.2132 0.0294,0.3711 0.1343,0.4765 0.0703,0.0664 0.2458,0.1097 0.5284,0.1313 l 3.0526,0.2313 c 0.2396,0.0178 0.3986,0.013 0.4771,-0.0136 0.0587,-0.0216 0.1128,-0.0692 0.1599,-0.1449 0.0643,-0.1068 0.1003,-0.2214 0.1094,-0.3424 l 0.0139,-0.1826 0.1281,0.01 -0.1667,2.2013 -0.1281,-0.0096 0.0139,-0.1848 c 0.009,-0.1213 -0.008,-0.2367 -0.0533,-0.3495 -0.0306,-0.0817 -0.0822,-0.1401 -0.1548,-0.1758 -0.0725,-0.0351 -0.2242,-0.0623 -0.4544,-0.0796 z m 1.1549,7.6297 c -0.1455,0.6511 -0.4989,1.1659 -1.0608,1.5409 -0.5615,0.3765 -1.1826,0.4887 -1.864,0.3365 -0.7013,-0.1565 -1.2294,-0.5267 -1.5849,-1.112 -0.356,-0.584 -0.4569,-1.2183 -0.3041,-1.9026 0.1542,-0.6905 0.5105,-1.2203 1.0669,-1.59 0.5565,-0.3696 1.1931,-0.4745 1.9106,-0.3143 0.7325,0.1635 1.2696,0.5689 1.6115,1.2152 0.2965,0.5612 0.3713,1.1698 0.2248,1.8263 z m -0.2279,-0.1253 c 0.0997,-0.4476 0.0272,-0.8421 -0.2189,-1.1812 -0.3064,-0.4232 -0.8274,-0.7171 -1.5633,-0.8815 -0.7529,-0.1681 -1.3728,-0.1233 -1.8572,0.136 -0.3688,0.2007 -0.6021,0.5202 -0.701,0.9618 -0.1052,0.4717 -0.0224,0.8975 0.2468,1.2804 0.2705,0.3827 0.7691,0.6548 1.4982,0.8175 0.7903,0.1766 1.4178,0.1389 1.881,-0.1122 0.3694,-0.2018 0.6072,-0.5417 0.7144,-1.0208 z m -2.3491,7.9107 -1.5457,-0.4502 0.0405,-0.1091 c 0.5051,0.0201 0.9085,-0.0677 1.2067,-0.2667 0.2996,-0.1982 0.5196,-0.4867 0.6613,-0.8683 0.1185,-0.318 0.1511,-0.6349 0.097,-0.9482 -0.0536,-0.3126 -0.2157,-0.604 -0.4884,-0.8739 -0.2724,-0.2684 -0.6514,-0.4935 -1.1379,-0.6741 -0.4014,-0.1494 -0.775,-0.2089 -1.1214,-0.1788 -0.3461,0.0306 -0.6494,0.157 -0.9104,0.3778 -0.2614,0.2223 -0.4578,0.5128 -0.5913,0.8711 -0.116,0.3121 -0.1568,0.6106 -0.1228,0.8943 0.0337,0.2849 0.1809,0.6378 0.4402,1.0591 l -0.1077,0.0859 c -0.3039,-0.3881 -0.4867,-0.7767 -0.5505,-1.1668 -0.0621,-0.3892 -0.0113,-0.8056 0.1531,-1.2478 0.2962,-0.7982 0.7977,-1.3153 1.5055,-1.55 0.5275,-0.176 1.0652,-0.1627 1.614,0.0411 0.4425,0.1644 0.8093,0.4235 1.1002,0.7761 0.2914,0.3527 0.4677,0.7555 0.5317,1.2079 0.0638,0.4535 0.0125,0.9034 -0.1536,1.3501 -0.129,0.3476 -0.3345,0.6608 -0.6174,0.9414 -0.0845,0.0808 -0.1355,0.1432 -0.1511,0.1857 -0.0238,0.0635 -0.0232,0.1273 6e-4,0.1896 0.0357,0.0839 0.1012,0.1579 0.1964,0.2223 z m -2.7377,4.9629 -1.0063,-0.4768 0.068,-0.127 c 0.1857,0.0672 0.3269,0.1001 0.423,0.0972 0.1556,-0.0062 0.2931,-0.0504 0.4101,-0.136 0.1185,-0.0851 0.2276,-0.2206 0.328,-0.4079 l 0.3427,-0.6398 -3.1833,-1.7051 c -0.2568,-0.1377 -0.4337,-0.1936 -0.5298,-0.1675 -0.1312,0.0383 -0.2441,0.1457 -0.3382,0.3217 l -0.0839,0.1565 -0.1131,-0.0606 1.0349,-1.9327 0.1134,0.0607 -0.0873,0.1632 c -0.104,0.1942 -0.1241,0.36 -0.0612,0.4995 0.04,0.0848 0.1763,0.1899 0.4102,0.3152 l 3.1833,1.7051 0.2917,-0.5449 c 0.1139,-0.2123 0.1797,-0.371 0.1992,-0.4751 0.0238,-0.1374 0.002,-0.2755 -0.0646,-0.4186 -0.066,-0.1412 -0.1899,-0.2705 -0.3699,-0.3875 l 0.068,-0.127 0.9544,0.5731 z m -3.0362,0.7761 -0.1145,0.1695 c -0.3529,0.523 -0.6423,0.8858 -0.8697,1.0902 -0.2253,0.2044 -0.4765,0.3254 -0.7534,0.364 -0.2756,0.0377 -0.5347,-0.0247 -0.7759,-0.1877 -0.2922,-0.1973 -0.4683,-0.4867 -0.5303,-0.8708 -0.0621,-0.3824 0.1009,-0.862 0.4889,-1.4366 l 1.2181,-1.8042 0.1063,0.0717 c -0.169,0.2676 -0.2438,0.4612 -0.2231,0.5814 0.0198,0.1193 0.1602,0.2673 0.419,0.4422 l 2.4905,1.6812 c 0.2593,0.1749 0.4484,0.2495 0.5669,0.2231 0.1193,-0.0258 0.2707,-0.1672 0.4555,-0.4241 l 0.1066,0.0718 -1.2356,1.83 -0.1063,-0.072 c 0.1689,-0.267 0.2438,-0.4606 0.2228,-0.5808 -0.0196,-0.1199 -0.1596,-0.2673 -0.419,-0.4422 z m -1.9236,-1.2985 c -0.1508,0.1666 -0.2622,0.3013 -0.3311,0.403 -0.1737,0.258 -0.2523,0.5443 -0.2361,0.8601 0.0173,0.3146 0.1658,0.5666 0.4459,0.7557 0.2888,0.195 0.576,0.231 0.8629,0.1074 0.2863,-0.1241 0.5434,-0.354 0.7704,-0.6899 0.0629,-0.0936 0.1193,-0.1945 0.1701,-0.3011 z m -1.8995,5.7991 0.7228,-0.7716 -1.0519,-0.9853 c -0.2049,-0.1922 -0.3688,-0.2923 -0.4918,-0.2997 -0.1227,-0.0085 -0.273,0.0822 -0.4484,0.2693 l -0.0803,0.0859 -0.0938,-0.0876 1.5095,-1.6115 0.0938,0.0879 -0.1066,0.1137 c -0.0972,0.1037 -0.1604,0.2061 -0.191,0.307 -0.0304,0.0997 -0.0295,0.1856 0.0062,0.2579 0.0332,0.072 0.1346,0.1865 0.3022,0.3436 l 2.2345,2.0931 c 0.1639,0.1536 0.2863,0.2472 0.3677,0.2786 0.081,0.0335 0.1681,0.0298 0.2622,-0.0099 0.0932,-0.0385 0.1973,-0.1188 0.3098,-0.2387 l 0.0808,-0.0861 0.0935,0.0878 -1.5094,1.6112 -0.0936,-0.0878 0.0803,-0.0859 c 0.1261,-0.1341 0.1989,-0.2452 0.2199,-0.3339 0.0204,-0.0876 0.0196,-0.1664 -0.002,-0.2379 -0.0209,-0.0697 -0.1244,-0.191 -0.3089,-0.3639 l -0.995,-0.9321 -0.7228,0.7716 c 0.4742,0.4921 0.6947,1.0681 0.6627,1.7266 -0.0312,0.6582 -0.2769,1.2336 -0.7379,1.7255 -0.4427,0.4728 -1.002,0.7338 -1.6769,0.7849 -0.6755,0.051 -1.2733,-0.1684 -1.7961,-0.658 -0.5008,-0.4691 -0.767,-1.0448 -0.7985,-1.728 -0.0309,-0.682 0.205,-1.2923 0.7064,-1.8274 0.3251,-0.347 0.6886,-0.5854 1.0885,-0.713 0.4,-0.1278 0.8104,-0.1499 1.2311,-0.0649 0.4187,0.0851 0.7971,0.2778 1.133,0.5786 z m -0.0207,3.405 c 0.3345,-0.3575 0.4677,-0.7728 0.3986,-1.2456 -0.0686,-0.4725 -0.3629,-0.9521 -0.8827,-1.4391 -0.4853,-0.4547 -0.9769,-0.7234 -1.4738,-0.8071 -0.4977,-0.083 -0.9275,0.0684 -1.29,0.4553 -0.3524,0.3761 -0.4949,0.7982 -0.4289,1.2668 0.0663,0.4685 0.3552,0.9434 0.868,1.4241 0.5198,0.487 1.0236,0.7668 1.5103,0.8408 0.4872,0.0731 0.9201,-0.0913 1.2985,-0.4952 z" />
  </g>
  <path
     id="path7"
     style="fill:#1b1918;fill-rule:evenodd"
     d="m 50.222,106.2323 -0.7764,-4.3132 -0.9465,2.9169 c -0.087,0.269 -0.1074,0.4481 -0.061,0.5371 0.0647,0.1202 0.1982,0.2135 0.402,0.2795 l 0.1823,0.0593 -0.0386,0.1187 -1.7921,-0.5816 0.0383,-0.1188 0.1837,0.0595 c 0.2177,0.0709 0.3895,0.0649 0.5187,-0.0173 0.0774,-0.051 0.1562,-0.199 0.2356,-0.4439 l 0.9258,-2.8522 c 0.0624,-0.193 0.0828,-0.3418 0.0604,-0.4439 -0.0153,-0.074 -0.0644,-0.1468 -0.1452,-0.2205 -0.0824,-0.0729 -0.2284,-0.1432 -0.4385,-0.2115 l 0.0383,-0.1185 1.4612,0.4743 0.7305,4.0107 2.9294,-2.8233 1.447,0.4697 -0.0385,0.1185 -0.178,-0.0578 c -0.222,-0.072 -0.3952,-0.0664 -0.5239,0.0155 -0.0774,0.0514 -0.1564,0.199 -0.2361,0.4439 l -0.9255,2.8526 c -0.087,0.2687 -0.106,0.4484 -0.057,0.538 0.0641,0.1204 0.1982,0.2137 0.402,0.2797 l 0.1786,0.0579 -0.0389,0.1187 -2.1841,-0.7086 0.0386,-0.1188 0.1834,0.0595 c 0.2202,0.0715 0.3923,0.0655 0.5184,-0.0175 0.0774,-0.0511 0.1562,-0.199 0.2359,-0.4437 l 0.9468,-2.9171 -3.1536,3.0382 z m 7.7814,-2.8491 c 0.6845,0.1125 1.2424,0.4334 1.6707,0.9621 0.4292,0.5289 0.5893,1.127 0.4796,1.7957 -0.1128,0.6877 -0.4592,1.217 -1.0403,1.5883 -0.5797,0.3716 -1.2302,0.4975 -1.9494,0.3796 -0.7262,-0.1191 -1.3002,-0.4414 -1.722,-0.9652 -0.4224,-0.5245 -0.5757,-1.1379 -0.4601,-1.842 0.1179,-0.7186 0.4998,-1.2583 1.1449,-1.6189 0.561,-0.3129 1.1863,-0.4127 1.8766,-0.2996 z m -0.114,0.2274 c -0.4705,-0.0774 -0.8745,0.0107 -1.2084,0.2647 -0.4164,0.3164 -0.6843,0.8351 -0.8028,1.5571 -0.1216,0.7393 -0.0311,1.3391 0.2716,1.798 0.2339,0.3495 0.5814,0.5618 1.0451,0.6378 0.4964,0.0813 0.9318,-0.0176 1.3091,-0.2962 0.3781,-0.2795 0.6244,-0.7759 0.7421,-1.4913 0.127,-0.7756 0.0436,-1.3833 -0.2489,-1.8219 -0.235,-0.3498 -0.6038,-0.5658 -1.1078,-0.6482 z m 7.6411,0.3619 0.1029,1.5594 -0.1213,-0.001 c -0.1574,-0.468 -0.3855,-0.8079 -0.6846,-1.0154 -0.2996,-0.2089 -0.6593,-0.3158 -1.0826,-0.3206 -0.3532,-0.004 -0.6749,0.0692 -0.9623,0.2205 -0.2875,0.1514 -0.5151,0.3946 -0.6837,0.7319 -0.167,0.3362 -0.254,0.7566 -0.2597,1.2597 -0.0051,0.4156 0.0675,0.7765 0.2191,1.0829 0.1514,0.3064 0.3819,0.5425 0.69,0.7089 0.3092,0.1661 0.6624,0.2512 1.0601,0.2557 0.3462,0.004 0.6529,-0.0558 0.9187,-0.1797 0.2668,-0.1239 0.5607,-0.373 0.8816,-0.7481 l 0.1222,0.0706 c -0.2733,0.4045 -0.589,0.6985 -0.9485,0.8836 -0.3591,0.1839 -0.7846,0.2735 -1.2753,0.2678 -0.8852,-0.0102 -1.5678,-0.2996 -2.0463,-0.8696 -0.3575,-0.4244 -0.5338,-0.9204 -0.5273,-1.4882 0.0054,-0.4584 0.1302,-0.8782 0.3731,-1.2586 0.2432,-0.3813 0.5751,-0.6744 0.9952,-0.8807 0.4221,-0.2061 0.8796,-0.3062 1.3754,-0.3002 0.3858,0.004 0.7645,0.0896 1.1387,0.2568 0.1088,0.051 0.1879,0.0771 0.2352,0.0777 0.0698,8e-4 0.1324,-0.0201 0.1852,-0.0624 0.0694,-0.0606 0.119,-0.144 0.1485,-0.2523 z m 6.2325,4.2075 0.0097,0.1244 -1.376,0.1044 c -0.1647,-0.1937 -0.5085,-0.5565 -1.0312,-1.0885 -0.5227,-0.5324 -0.8385,-0.8252 -0.9479,-0.8796 -0.1097,-0.0542 -0.2707,-0.0743 -0.483,-0.0604 l 0.1034,1.3671 c 0.023,0.3028 0.0822,0.4916 0.1786,0.5653 0.0958,0.0748 0.3104,0.1037 0.6412,0.0878 l 0.0096,0.1242 -2.2895,0.1738 -0.0096,-0.1245 c 0.3245,-0.0337 0.5309,-0.0944 0.6176,-0.1808 0.0868,-0.0876 0.1174,-0.2835 0.0947,-0.5882 l -0.2208,-2.9072 c -0.023,-0.3028 -0.0831,-0.4916 -0.1803,-0.5653 -0.0978,-0.0745 -0.311,-0.1037 -0.6395,-0.0878 l -0.0096,-0.1245 2.2895,-0.1735 0.0096,0.1242 c -0.3296,0.0343 -0.5374,0.0952 -0.6207,0.1837 -0.0842,0.0873 -0.1143,0.2829 -0.091,0.5856 l 0.0966,1.2773 c 0.286,-0.0238 0.4825,-0.055 0.5902,-0.0944 0.108,-0.038 0.2265,-0.1168 0.3552,-0.235 0.1287,-0.1187 0.2287,-0.2446 0.2999,-0.3758 0.0703,-0.1304 0.1579,-0.3445 0.2611,-0.6404 0.0978,-0.2769 0.1805,-0.4708 0.2463,-0.5814 0.0675,-0.1102 0.1803,-0.2103 0.3396,-0.2988 0.1596,-0.0873 0.3532,-0.1403 0.5814,-0.1576 0.4028,-0.0306 0.6139,0.0763 0.6321,0.3201 0.0068,0.0853 -0.0281,0.163 -0.1021,0.2324 -0.0762,0.0695 -0.1635,0.1074 -0.2658,0.1151 -0.0743,0.006 -0.2002,-0.0207 -0.3779,-0.0802 -0.157,-0.0542 -0.2653,-0.0794 -0.326,-0.0749 -0.0845,0.007 -0.1531,0.0502 -0.2075,0.1293 -0.0547,0.0805 -0.1355,0.2801 -0.2438,0.5984 -0.2077,0.5956 -0.5008,0.9862 -0.879,1.1707 0.2407,0.0179 0.5908,0.2738 1.0542,0.7654 0.4896,0.5218 0.8464,0.8688 1.0707,1.0391 0.2236,0.1707 0.4972,0.2481 0.82,0.2305 z m 3.5788,-3.0557 c 0.3758,-0.0168 0.6709,0.0252 0.8844,0.1298 0.2948,0.1451 0.4765,0.3637 0.5439,0.6562 0.0516,0.2228 0.0196,0.4552 -0.0975,0.6968 -0.1173,0.2412 -0.3075,0.4413 -0.5723,0.6009 -0.2633,0.159 -0.6882,0.307 -1.2753,0.4422 l -2.4596,0.5678 -0.0278,-0.1216 0.1942,-0.0448 c 0.2168,-0.0499 0.358,-0.1454 0.4252,-0.2852 0.0416,-0.0901 0.0326,-0.2608 -0.0253,-0.5105 l -0.6678,-2.895 c -0.0641,-0.2764 -0.1412,-0.4425 -0.231,-0.4972 -0.1222,-0.0737 -0.2804,-0.0882 -0.4774,-0.0428 l -0.1941,0.0451 -0.0284,-0.1217 2.2507,-0.5195 c 0.4204,-0.097 0.7623,-0.1486 1.0279,-0.1542 0.403,-0.009 0.7282,0.0629 0.9768,0.2177 0.2489,0.1547 0.4031,0.3617 0.4637,0.6236 0.0516,0.2239 0.019,0.4422 -0.0989,0.6565 -0.1182,0.2134 -0.3217,0.3988 -0.6114,0.5559 z m -2.0566,0.2814 c 0.0978,-0.006 0.2095,-0.0201 0.332,-0.0399 0.1241,-0.0204 0.2588,-0.0477 0.4045,-0.0814 0.3744,-0.0864 0.6485,-0.1865 0.8203,-0.2985 0.1721,-0.1117 0.292,-0.2508 0.3592,-0.4167 0.0654,-0.1644 0.0796,-0.3311 0.0405,-0.5 -0.0601,-0.2605 -0.2358,-0.4535 -0.5264,-0.5805 -0.2905,-0.1262 -0.6746,-0.1347 -1.1497,-0.025 -0.2563,0.059 -0.4816,0.1361 -0.6752,0.2316 z m 0.4944,2.1436 c 0.3118,-0.009 0.614,-0.0482 0.9042,-0.1151 0.4661,-0.1074 0.8014,-0.2798 1.0041,-0.5148 0.2029,-0.2352 0.2741,-0.485 0.2131,-0.748 -0.0396,-0.1732 -0.1349,-0.3277 -0.286,-0.4612 -0.1496,-0.135 -0.3603,-0.2189 -0.6296,-0.254 -0.2695,-0.0346 -0.5884,-0.01 -0.9549,0.0751 -0.1591,0.0366 -0.2934,0.07 -0.4057,0.1006 -0.1119,0.0304 -0.201,0.0593 -0.2679,0.0856 z m 6.6127,-3.1459 -1.9571,0.6934 -0.0978,0.7976 c -0.0246,0.1973 -0.0232,0.3388 0.006,0.4213 0.0229,0.0654 0.081,0.1111 0.1723,0.1349 0.0896,0.0232 0.2602,-3e-4 0.508,-0.0712 l 0.0417,0.1177 -1.5928,0.5643 -0.0417,-0.1176 c 0.1996,-0.1063 0.3209,-0.1959 0.3654,-0.269 0.0907,-0.1471 0.1567,-0.4042 0.1998,-0.771 l 0.5154,-4.1916 0.1255,-0.0445 3.0323,2.9778 c 0.2435,0.2395 0.4376,0.381 0.5839,0.4272 0.1463,0.0447 0.3234,0.0362 0.5343,-0.0264 l 0.0417,0.1174 -1.9919,0.7058 -0.0417,-0.1177 c 0.1982,-0.0796 0.3235,-0.1561 0.3773,-0.2301 0.0539,-0.0746 0.0669,-0.1466 0.0417,-0.2169 -0.0329,-0.0935 -0.1349,-0.2242 -0.3053,-0.3912 z m -0.1973,-0.1947 -1.4698,-1.4446 -0.2554,2.0557 z" />
  <path
     id="path9"
     style="fill:none;stroke:#1b1918;stroke-width:0.42519999;stroke-linecap:butt;stroke-linejoin:miter;stroke-dasharray:none"
     d="m 33.4945,18.2089 5.1684,0.6151 c 1.4493,0.1789 -1.1444,3.0461 -3.032,2.753 L 30.562,21.1952 c -1.7033,-0.0315 1.304,-3.3871 2.9325,-2.9863 z m 4.1578,-2.6881 5.0908,1.0834 c 1.4269,0.3104 -1.4174,2.9293 -3.2704,2.4653 l -5.013,-0.8422 c -1.6932,-0.1865 1.6072,-3.2541 3.1926,-2.7065 z m 4.3855,-2.298 4.9708,1.5429 c 1.3927,0.4391 -1.6784,2.7878 -3.4815,2.1569 l -4.9155,-1.2955 c -1.6691,-0.3401 1.8972,-3.0943 3.4262,-2.4043 z m 4.5765,-1.8888 4.8096,1.9894 c 1.347,0.5644 -1.9253,2.6235 -3.6635,1.8306 l -4.777,-1.7379 c -1.6313,-0.491 2.1714,-2.9086 3.6309,-2.0821 z m 4.7296,-1.4638 4.6083,2.4194 c 1.2901,0.6849 -2.1563,2.4372 -3.8151,1.489 L 47.5384,11.6127 C 45.9587,10.9752 49.966,8.9141 51.3439,9.8702 Z m 4.8436,-1.0267 4.3685,2.8293 c 1.2223,0.7996 -2.3695,2.2306 -3.9351,1.1353 L 52.2388,10.2319 C 50.7237,9.453 54.9023,7.7658 56.1875,8.8435 Z m 4.917,-0.5808 4.0924,3.2156 c 1.1443,0.9077 -2.5631,2.0053 -4.0221,0.7719 L 57.0455,9.2854 c -1.4377,-0.9138 2.8772,-2.2132 4.059,-1.0227 z m 4.9493,-0.1304 3.7822,3.5754 c 1.0571,1.008 -2.7351,1.7631 -4.0756,0.4019 L 61.9186,8.7809 C 60.5701,7.7397 64.9854,6.8391 66.0538,8.1323 Z m 4.9405,0.3212 3.4407,3.9053 c 0.9609,1.1001 -2.8843,1.5066 -4.0953,0.0289 L 66.8174,8.7225 c -1.2481,-1.1597 3.2309,-1.654 4.1769,-0.269 z m 4.8909,0.7702 3.0702,4.2026 c 0.8569,1.1832 -3.0096,1.2376 -4.0808,-0.3444 L 71.7009,9.1108 C 70.564,7.8423 75.0694,7.7581 75.8852,9.2237 Z m 4.8002,1.2126 2.6744,4.4651 c 0.7456,1.2564 -3.1098,0.9582 -4.0325,-0.7148 L 76.5289,9.9428 c -1.0168,-1.3669 3.4776,-1.04 4.1565,0.4935 z m 4.6697,1.6452 2.2564,4.6902 c 0.6279,1.3193 -3.1844,0.6707 -3.9506,-1.0794 l -2.3998,-4.481 c -0.8881,-1.4539 3.5577,-0.7189 4.094,0.8702 z m 4.5003,2.0639 1.8196,4.8765 c 0.5051,1.3711 -3.2324,0.3776 -3.8359,-1.4349 l -1.9814,-4.6811 c -0.7517,-1.5288 3.6085,-0.3918 3.9977,1.2395 z m 4.2937,2.4656 1.3674,5.0222 c 0.3781,1.4113 -3.2533,0.0813 -3.689,-1.7788 l -1.5466,-4.8421 c -0.6094,-1.5908 3.6292,-0.0612 3.8682,1.5987 z m 4.051,2.8466 0.9039,5.1259 c 0.2481,1.44 -3.2471,-0.2155 -3.5115,-2.1076 L 94.4938,17.513 c -0.4621,-1.6396 3.6195,0.2699 3.7063,1.9446 z m 3.7746,3.204 0.4331,5.1871 c 0.1157,1.4564 -3.2139,-0.5105 -3.3049,-2.4191 l -0.6418,-5.0423 c -0.3106,-1.675 3.5799,0.5987 3.5136,2.2743 z m 3.4667,3.5348 -0.0413,5.205 c -0.0176,1.4609 -3.1539,-0.8014 -3.0705,-2.7103 l -0.1797,-5.0799 c -0.1568,-1.6963 3.5104,0.9227 3.2915,2.5852 z m 3.1303,3.8358 -0.5156,5.1798 c -0.1505,1.4533 -3.0676,-1.0857 -2.8105,-2.979 l 0.284,-5.0751 c -0.002,-1.7033 3.4115,1.2387 3.0421,2.8743 z m 2.7678,4.1054 -0.9856,5.1112 c -0.2823,1.4335 -2.956,-1.3609 -2.5274,-3.2227 l 0.7455,-5.0281 c 0.1534,-1.6966 3.2843,1.5443 2.7675,3.1396 z m 2.3819,4.3404 -1.4473,5.0001 c -0.4119,1.402 -2.8196,-1.6246 -2.2232,-3.4396 l 1.2007,-4.9391 c 0.3073,-1.6755 3.1298,1.8372 2.4698,3.3786 z m 1.9764,4.5394 -1.897,4.8476 c -0.538,1.3586 -2.6597,-1.8749 -1.9003,-3.6281 l 1.6458,-4.809 c 0.4586,-1.6407 2.9491,2.1147 2.1515,3.5895 z m 1.5545,4.7007 -2.3309,4.6545 c -0.6597,1.304 -2.4778,-2.1095 -1.5617,-3.7862 l 2.0773,-4.6389 c 0.606,-1.5919 2.7439,2.3746 1.8153,3.7706 z m 1.1197,4.8229 -2.7457,4.4226 c -0.7755,1.2385 -2.2751,-2.3264 -1.2098,-3.9126 l 2.4914,-4.4303 c 0.7486,-1.5301 2.516,2.6147 1.4641,3.9203 z m 0.6755,4.9048 -3.1374,4.1539 c -0.8853,1.1628 -2.0537,-2.524 -0.8481,-4.0065 l 2.8848,-4.1848 c 0.8849,-1.4556 2.2671,2.8332 1.1007,4.0374 z m 0.2256,4.9459 -3.5031,3.8509 c -0.9875,1.0771 -1.815,-2.7009 -0.4793,-4.0672 l 3.2542,-3.9044 c 1.0139,-1.3689 1.9995,3.0279 0.7282,4.1207 z m -0.2262,4.9459 -3.8395,3.5155 c -1.0817,0.9828 -1.5614,-2.8548 -0.1066,-4.0938 l 3.5966,-3.5915 c 1.1344,-1.2708 1.7152,3.1975 0.3495,4.1698 z m -0.6761,4.9048 -4.1439,3.151 c -1.1668,0.8801 -1.2946,-2.9852 0.267,-4.0865 l 3.909,-3.2488 c 1.2455,-1.1622 1.4167,3.3404 -0.0321,4.1843 z m -1.1202,4.8228 -4.4138,2.7601 c -1.2422,0.7702 -1.0171,-3.0909 0.6383,-4.045 l 4.1888,-2.8792 c 1.3461,-1.0437 1.1063,3.4558 -0.4133,4.1641 z m -1.5551,4.7007 -4.6471,2.3463 c -1.3071,0.6536 -0.7311,-3.1709 1.0043,-3.97 l 4.4339,-2.4854 c 1.4355,-0.9167 0.7867,3.5422 -0.7911,4.1091 z m -1.9772,4.5394 -4.8415,1.9128 c -1.3612,0.5318 -0.4391,-3.2244 1.362,-3.8619 l 4.642,-2.071 c 1.5129,-0.7821 0.4604,3.5992 -1.1625,4.0201 z m -2.3825,4.3401 -4.9958,1.4636 c -1.404,0.4056 -0.1434,-3.2508 1.7082,-3.7216 l 4.8115,-1.6393 c 1.5778,-0.6409 0.1304,3.6261 -1.5239,3.8973 z m -2.7683,4.1049 -5.1083,1.0023 c -1.4352,0.2758 0.1533,-3.2505 2.0401,-3.5506 l 4.941,-1.1937 c 1.6297,-0.4947 -0.2006,3.6227 -1.8728,3.742 z m -3.1309,3.8356 -5.1783,0.5326 c -1.4545,0.1437 0.449,-3.223 2.355,-3.35 l 5.0295,-0.7384 c 1.6679,-0.3441 -0.53,3.5892 -2.2062,3.5558 z m -3.4673,3.5342 -5.2056,0.0584 c -1.4612,0.0105 0.741,-3.1686 2.6507,-3.1212 l 5.076,-0.277 c 1.6923,-0.1908 -0.8552,3.5257 -2.5211,3.3398 z m -3.7752,3.2034 -5.1891,-0.4161 c -1.4561,-0.1227 1.0267,-3.0881 2.9242,-2.8667 l 5.08,0.1868 c 1.7028,-0.0357 -1.173,3.4331 -2.8151,3.096 z m -4.0513,2.846 -5.1295,-0.8872 c -1.4392,-0.2549 1.3036,-2.9815 3.1731,-2.5883 l 5.0419,0.6491 c 1.6988,0.1196 -1.4811,3.3117 -3.0855,2.8264 z m -4.2939,2.465 -5.0272,-1.351 c -1.41,-0.3849 1.5698,-2.8502 3.3956,-2.2884 l 4.962,1.1061 c 1.6807,0.2738 -1.777,3.1629 -3.3304,2.5333 z m -4.5006,2.0634 -4.8832,-1.8034 c -1.3691,-0.512 1.823,-2.6955 3.5901,-1.9696 l 4.8404,1.5537 c 1.6487,0.4261 -2.0579,2.9877 -3.5473,2.2193 z m -4.67,1.6446 -4.6985,-2.2411 c -1.3169,-0.6343 2.0611,-2.518 3.7545,-1.6341 l 4.6789,1.9885 c 1.6027,0.5746 -2.3219,2.7876 -3.7349,1.8867 z m -4.8005,1.2121 -4.4745,-2.66 c -1.2538,-0.7518 2.2819,-2.3196 3.8877,-1.285 l 4.4782,2.4067 c 1.5435,0.7183 -2.5662,2.5642 -3.8914,1.5383 z m -4.8909,0.7696 -4.2134,-3.0569 c -1.1801,-0.8628 2.4837,-2.1019 3.9886,-0.9252 l 4.2401,2.8049 c 1.4717,0.8558 -2.7893,2.3196 -4.0153,1.1772 z m -4.9408,0.3206 -3.9172,-3.4282 c -1.0964,-0.9669 2.6649,-1.8666 4.0564,-0.5579 l 3.9668,3.1797 c 1.3876,0.9864 -2.9891,2.0556 -4.106,0.8064 z m -4.9493,-0.1309 -3.5886,-3.7713 c -1.0038,-1.0627 2.8238,-1.6157 4.0904,-0.1856 l 3.6606,3.528 c 1.2918,1.1086 -3.1643,1.7745 -4.1624,0.4289 z m -4.917,-0.5817 -3.2298,-4.0825 c -0.9028,-1.1497 2.9594,-1.3518 4.0902,0.188 l 3.3239,3.8469 c 1.1854,1.2217 -3.3129,1.4785 -4.1843,0.0476 z m -4.8432,-1.0273 -2.8443,-4.36 c -0.7943,-1.2271 3.0702,-1.0763 4.0558,0.5602 l 2.9594,4.1337 c 1.0692,1.3247 -3.4336,1.1705 -4.1709,-0.3339 z m -4.7296,-1.4644 -2.435,-4.6012 c -0.6792,-1.2943 3.1555,-0.792 3.9878,0.9275 l 2.5702,4.3864 c 0.9442,1.4164 -3.5261,0.8526 -4.123,-0.7127 z m -4.5766,-1.8895 -2.0055,-4.8039 c -0.5581,-1.3507 3.2148,-0.5012 3.8869,1.2872 l 2.1597,4.6023 c 0.811,1.4964 -3.5892,0.5276 -4.0411,-1.0856 z m -4.3852,-2.2987 -1.5593,-4.9668 c -0.4326,-1.3958 3.2471,-0.2061 3.7533,1.6361 l 1.7314,4.7801 c 0.6713,1.5642 -3.6223,0.1981 -3.9254,-1.4494 z m -4.1575,-2.6889 -1.1002,-5.0882 c -0.3036,-1.4295 3.2525,0.0907 3.5887,1.9715 l 1.2886,4.9178 c 0.5258,1.6189 -3.6255,-0.1326 -3.7771,-1.8011 z m -3.8951,-3.0566 -0.6319,-5.1673 c -0.172,-1.451 3.2307,0.387 3.3942,2.2904 l 0.8351,5.0148 c 0.3759,1.66 -3.5986,-0.4626 -3.5974,-2.1379 z m -3.6003,-3.3987 -0.1582,-5.2036 c -0.0391,-1.4607 3.1819,0.6798 3.1714,2.5903 l 0.3745,5.0701 c 0.2231,1.6871 -3.5416,-0.7886 -3.3877,-2.4568 z m -3.2754,-3.7129 0.3166,-5.1961 c 0.0941,-1.4585 3.1068,0.9669 2.9222,2.8683 l -0.0893,5.0831 c 0.0683,1.7005 -3.4548,-1.108 -3.1495,-2.7553 z m -2.9234,-3.996 0.7889,-5.1457 c 0.2265,-1.4437 3.0055,1.2461 2.6487,3.1229 l -0.5525,5.0539 C 22.5918,97.13 19.3391,94.0119 19.7935,92.3992 Z m -2.5472,-4.2457 1.2546,-5.0525 c 0.3571,-1.417 2.8794,1.5149 2.353,3.3514 l -1.0108,4.9825 C 19.6019,93.1195 16.647,89.718 17.2463,88.1535 Z m -2.1495,-4.4603 1.7098,-4.917 c 0.4847,-1.3785 2.7295,1.7711 2.0378,3.5518 l -1.4607,4.8697 c -0.3937,1.6557 -3.0262,-2.001 -2.2869,-3.5045 z m -1.734,-4.6375 2.1506,-4.7406 c 0.6086,-1.3286 2.5569,2.0123 1.7057,3.7227 l -1.8984,4.7163 c -0.5428,1.6129 -2.8313,-2.2686 -1.9579,-3.6984 z m -1.3042,-4.7764 2.5738,-4.5249 c 0.7271,-1.2674 2.3627,2.2371 1.3593,3.8628 l -2.3205,4.5238 c -0.6874,1.5565 -2.6127,-2.5172 -1.6126,-3.8617 z m -0.8635,-4.8753 2.9756,-4.2715 c 0.8396,-1.1956 2.1489,2.4432 1.0015,3.9705 l -2.723,4.2936 C 11.6226,74.884 10.0766,70.6518 11.1951,69.404 Z m -0.4155,-4.9337 3.3525,-3.9824 c 0.9451,-1.1143 1.9174,2.6289 0.6356,4.0451 l -3.1031,4.0277 c -0.9587,1.4057 -2.1127,-2.9497 -0.885,-4.0904 z m 0.036,-4.951 3.7015,-3.6603 c 1.0426,-1.0233 1.6699,2.7927 0.2642,4.0861 l -3.4572,3.7281 c -1.0828,1.3128 -1.8351,-3.13 -0.5085,-4.1539 z m 0.487,-4.9271 4.0198,-3.3078 c 1.1313,-0.9241 1.4082,2.9333 -0.1094,4.0932 l -3.7826,3.3976 c -1.1979,1.2085 -1.5423,-3.2842 -0.1278,-4.183 z m 0.934,-4.8623 4.3047,-2.9276 c 1.2107,-0.8173 1.135,3.0495 -0.4822,4.0663 l -4.0765,3.0387 c -1.3031,1.0942 -1.2365,-3.4112 0.254,-4.1774 z M 13.61,44.9731 18.1636,42.45 c 1.2801,-0.7036 0.8523,3.1402 -0.8507,4.0053 L 12.9762,49.11 C 11.579,50.0808 12.0557,45.6001 13.61,44.9731 Z m 1.8011,-4.612 4.7645,-2.0976 c 1.3391,-0.584 0.5627,3.2048 -1.2121,3.9112 l -4.5607,2.2484 c -1.4797,0.8394 -0.5967,-3.5793 1.0083,-4.062 z m 2.2142,-4.4286 4.9356,-1.6545 c 1.3868,-0.4595 0.2682,3.2428 -1.5635,3.7845 l -4.7467,1.8232 c -1.5499,0.701 -0.2678,-3.6187 1.3746,-3.9532 z m 2.5168,-4.0742 5.0622,-1.2129 c 1.4221,-0.3354 -0.0185,3.2538 -1.8908,3.632 l -4.8892,1.3975 c -1.6058,0.5615 0.0522,-3.6281 1.7178,-3.8166 z m 2.7845,-3.7361 5.1477,-0.7744 c 1.4451,-0.212 -0.2979,3.2406 -2.196,3.4566 l -4.9904,0.9731 c -1.6483,0.4218 0.3629,-3.6105 2.0387,-3.6553 z m 3.28,-3.6739 5.1965,-0.3045 c 1.4587,-0.0802 -0.5902,3.2 -2.4999,3.2431 l -5.0584,0.5168 c -1.6787,0.2704 0.6888,-3.5626 2.3618,-3.4554 z m 3.5433,-3.3135 5.2027,0.161 c 1.4598,0.0502 -0.8736,3.1346 -2.7794,3.0068 l -5.0845,0.0632 c -1.6971,0.1193 1.0043,-3.4869 2.6612,-3.231 z" />
  <path
     id="path11"
     style="fill:#1b1918;fill-rule:evenodd"
     d="m 42.8505,98.6518 c 0.103,0.1115 0.1973,0.2488 0.2831,0.4118 l -1.0869,0.5892 1.1907,-0.0062 c 0.0318,0.1486 0.0429,0.3147 0.0337,0.4987 l -1.2469,-0.0477 1.0579,0.7293 -0.4118,0.3089 -0.9274,-0.7677 0.5849,1.2678 -0.5118,0.0558 -0.4456,-1.2424 v 1.4457 h -0.5277 l 0.1689,-1.3957 -0.701,1.1829 -0.4539,-0.2691 0.8689,-1.1303 c -0.3878,0.198 -0.7605,0.4437 -1.1184,0.7371 l -0.2831,-0.3411 1.2346,-0.7135 c -0.4284,-0.0256 -0.8679,-0.0038 -1.3187,0.065 l -0.0697,-0.4377 1.4042,0.0154 -1.0832,-0.7374 c 0.1031,-0.163 0.2403,-0.2681 0.4141,-0.311 l 0.8749,0.7246 -0.5443,-1.1619 c 0.1717,-0.0877 0.3435,-0.1081 0.5149,-0.0565 l 0.3492,0.9749 v -1.2255 h 0.5406 l -0.1063,1.272 0.6238,-1.0526 0.4649,0.2756 -0.593,0.8335 z" />
  <path
     id="path13"
     style="fill:#1b1918;fill-rule:evenodd"
     d="m 90.4269,98.6518 c 0.103,0.1115 0.1973,0.2488 0.2831,0.4118 l -1.0869,0.5892 1.1907,-0.0062 c 0.0318,0.1486 0.0429,0.3147 0.0337,0.4987 l -1.2469,-0.0477 1.0579,0.7293 -0.4118,0.3089 -0.9274,-0.7677 0.5849,1.2678 -0.5118,0.0558 -0.4456,-1.2424 v 1.4457 h -0.5277 l 0.1689,-1.3957 -0.701,1.1829 -0.4539,-0.2691 0.8689,-1.1303 c -0.3878,0.198 -0.7605,0.4437 -1.1184,0.7371 l -0.2831,-0.3411 1.2346,-0.7135 c -0.4284,-0.0256 -0.8679,-0.0038 -1.3187,0.065 l -0.0697,-0.4377 1.4042,0.0154 -1.0831,-0.7374 c 0.103,-0.163 0.2402,-0.2681 0.414,-0.311 l 0.8749,0.7246 -0.5442,-1.1619 c 0.1717,-0.0877 0.3434,-0.1081 0.5148,-0.0565 l 0.3492,0.9749 v -1.2255 h 0.5406 l -0.1063,1.272 0.6238,-1.0526 0.4649,0.2756 -0.593,0.8335 z" />
  <path
     id="path15"
     style="fill:none;stroke:#1b1918;stroke-width:0.56690001;stroke-linecap:butt;stroke-linejoin:miter;stroke-dasharray:none"
     d="m 26.3367,53.4209 h 13.9011 c 3.7891,-10.1288 13.5541,-17.3407 25.005,-17.3407 11.4508,0 21.2159,7.2119 25.0049,17.3407 h 13.9391 c 1.4658,5.9559 1.5344,12.1756 0,18.699 H 90.2477 c -3.789,10.1288 -13.5541,17.3407 -25.0049,17.3407 -11.4509,0 -21.2159,-7.2119 -25.005,-17.3407 H 26.3367 c -1.4624,-5.7623 -1.6367,-11.9619 0,-18.699 z m 57.3775,5.438 V 57.8837 H 87.95 v 5.9658 h 0.195 v -5.9658 h 4.2358 v 5.9658 h 0.7608 v 5.9843 h -4.0223 v -1.9619 h -5.4051 v -0.8274 c -0.034,0.0272 -0.0683,0.0541 -0.1035,0.0805 -0.8444,0.6369 -1.853,0.8937 -2.8993,0.8937 -1.2997,0 -2.4962,-0.4002 -3.4194,-1.3158 -0.1131,0.1293 -0.2373,0.252 -0.3728,0.3679 -0.8135,0.6959 -1.8436,0.9479 -2.8944,0.9479 -0.4612,0 -0.8977,-0.049 -1.3034,-0.1468 h -4.3707 l -0.0706,-0.1474 c -0.5618,0.2007 -1.1497,0.2942 -1.747,0.2942 -1.0182,0 -2.012,-0.2548 -2.7822,-0.9518 -0.1536,-0.1392 -0.292,-0.288 -0.4141,-0.4451 -0.2535,0.2716 -0.5426,0.5114 -0.868,0.7141 -0.7098,0.4419 -1.4987,0.6828 -2.3352,0.6828 -0.0961,0 -0.1916,-0.0031 -0.2866,-0.0096 v 2.5189 h -4.2361 v -3.6292 c -0.1652,0.1542 -0.3418,0.2973 -0.5306,0.4272 -0.7489,0.5159 -1.6495,0.6927 -2.5452,0.6927 -1.0421,0 -2.0722,-0.2367 -2.8917,-0.9124 -0.5249,-0.4332 -0.9436,-0.9564 -1.2591,-1.5483 -0.4862,0.7021 -1.1137,1.2764 -1.8811,1.6965 -0.9479,0.5188 -1.9766,0.7776 -3.0572,0.7776 -1.1454,0 -2.2345,-0.2781 -3.2125,-0.8768 -0.9592,-0.5873 -1.6968,-1.4023 -2.1883,-2.414 -0.4663,-0.9595 -0.701,-1.9839 -0.701,-3.0512 0,-1.7677 0.4592,-3.4702 1.7002,-4.7761 1.1804,-1.2421 2.7023,-1.8195 4.4082,-1.8195 1.1265,0 2.1982,0.2707 3.1677,0.8458 0.7132,0.4232 1.3031,0.9751 1.764,1.6399 0.1723,-0.3348 0.3849,-0.6435 0.6463,-0.9122 1.0406,-1.0704 2.4973,-1.4134 3.9447,-1.4134 0.1176,0 0.2446,0.0017 0.3744,0.0026 l 0.0777,-0.2441 3.8441,0.0493 -0.1661,1.6614 c -0.0394,0.3949 -0.118,0.794 -0.271,1.1599 h 2.249 c 0.3662,-0.1014 0.7472,-0.1468 1.1324,-0.1468 0.8708,0 1.6943,0.2299 2.418,0.7166 0.3767,0.2531 0.6998,0.5587 0.9705,0.9065 0.0253,-0.034 0.0511,-0.068 0.0777,-0.1014 0.4468,-0.5627 1.0486,-0.9437 1.7192,-1.1861 0.6696,-0.2418 1.3853,-0.3356 2.0951,-0.3356 0.6664,0 1.3606,0.0709 1.988,0.3084 0.553,0.2095 1.0678,0.5154 1.449,0.9751 0.7314,-0.8325 1.7853,-1.2835 3.0759,-1.2835 1.0429,0 2.0319,0.2962 2.7961,1.0281 0.1417,0.1358 0.2704,0.279 0.3861,0.4295 0.0022,-0.0026 0.0045,-0.0048 0.0068,-0.0074 0.9153,-0.9819 2.1115,-1.4502 3.4486,-1.4502 1.1645,0 2.2181,0.3662 3.0674,1.122 z m -42.0007,2.8533 c 0,0.5848 0.0995,1.2266 0.5142,1.6699 0.3388,0.3617 0.7172,0.5074 1.2115,0.5074 0.4992,0 0.8839,-0.1392 1.2238,-0.5077 0.4263,-0.4626 0.5156,-1.205 0.5156,-1.8054 0,-0.4694 -0.061,-0.9688 -0.2568,-1.4003 C 44.7922,59.891 44.6142,59.6608 44.3483,59.4935 44.0739,59.3209 43.7834,59.25 43.4594,59.25 c -0.4992,0 -0.8918,0.1548 -1.2535,0.4989 -0.43,0.4097 -0.4924,1.4199 -0.4924,1.9633 z m 11.2572,1.1344 c 0,-0.282 -0.0385,-0.6239 -0.212,-0.8586 -0.055,-0.0742 -0.1168,-0.0686 -0.2103,-0.0686 -0.1213,0 -0.1871,-3e-4 -0.2563,0.0956 -0.1981,0.2738 -0.2372,0.7228 -0.2372,1.0474 0,0.2145 0.0246,0.6349 0.1822,0.8073 0.0944,0.1032 0.165,0.14 0.3045,0.14 0.0986,0 0.1238,-0.0332 0.1851,-0.1162 0.2029,-0.2753 0.244,-0.7183 0.244,-1.0469 z m 7.2536,-1.0261 c -0.021,-0.0255 -0.068,-0.0893 -0.1111,-0.1032 -0.0451,0.0199 -0.1159,0.1066 -0.1457,0.1426 -0.1956,0.2375 -0.2273,0.7727 -0.2273,1.0602 0,0.212 0.028,0.8047 0.1766,0.9805 0.0411,0.0484 0.0742,0.0958 0.1389,0.0958 0.0722,0 0.1199,-0.0638 0.1632,-0.1154 0.1676,-0.199 0.1968,-0.8186 0.1968,-1.0587 0,-0.2373 -0.0278,-0.8042 -0.1914,-1.0018 z" />
  <path
     id="path17"
     style="fill:#1b1918;fill-rule:evenodd"
     d="m 38.6923,61.869 c 0,-1.584 0.4272,-2.825 1.279,-3.7216 0.8521,-0.8963 1.9508,-1.3434 3.2987,-1.3434 0.8833,0 1.6773,0.2112 2.3868,0.6316 0.7075,0.4204 1.2481,1.0077 1.6194,1.7617 0.3716,0.7518 0.5584,1.6061 0.5584,2.5603 0,0.9677 -0.1958,1.8351 -0.5873,2.5982 -0.3915,0.7651 -0.9453,1.3433 -1.6617,1.7348 -0.7183,0.3937 -1.4924,0.5896 -2.3221,0.5896 -0.9009,0 -1.7039,-0.218 -2.4134,-0.6517 -0.7075,-0.4337 -1.2458,-1.0255 -1.6107,-1.7773 -0.3648,-0.7498 -0.5471,-1.5437 -0.5471,-2.3822 z m 1.308,0.0221 c 0,1.15 0.3092,2.0554 0.9274,2.7159 0.6186,0.6607 1.395,0.9921 2.329,0.9921 0.9522,0 1.7328,-0.3337 2.3491,-1.0009 0.6139,-0.6673 0.9209,-1.6149 0.9209,-2.8429 0,-0.7761 -0.1312,-1.4547 -0.3937,-2.033 -0.2625,-0.5783 -0.6474,-1.0276 -1.1523,-1.3456 -0.5071,-0.3183 -1.0743,-0.4785 -1.7039,-0.4785 -0.8943,0 -1.6639,0.307 -2.3088,0.921 -0.6452,0.614 -0.9677,1.6373 -0.9677,3.0719 z m 14.3586,-5.154 1.0408,0.0134 c -0.0464,0.4648 -0.151,0.7897 -0.3089,0.972 -0.1582,0.1825 -0.3606,0.2982 -0.6098,0.3515 -0.2488,0.0513 -0.7384,0.0779 -1.4658,0.0779 -0.9654,0 -1.6236,0.0935 -1.9751,0.2804 -0.3493,0.1868 -0.603,0.4847 -0.7563,0.894 -0.1537,0.4116 -0.2381,0.9388 -0.256,1.586 0.2959,-0.4402 0.6406,-0.7696 1.0366,-0.9899 0.3938,-0.2202 0.8408,-0.3291 1.3346,-0.3291 0.9076,0 1.6594,0.3116 2.2558,0.9343 0.5939,0.6228 0.8918,1.4658 0.8918,2.5314 0,0.8073 -0.1491,1.4703 -0.4493,1.9862 -0.3002,0.5162 -0.6562,0.9164 -1.0678,1.1991 -0.4091,0.2826 -0.9698,0.4226 -1.677,0.4226 -0.8232,0 -1.4615,-0.1868 -1.9176,-0.5627 -0.4558,-0.3761 -0.8051,-0.8566 -1.0497,-1.4414 -0.2426,-0.5851 -0.3648,-1.6061 -0.3648,-3.0586 0,-1.8263 0.309,-3.0563 0.9252,-3.6904 0.6163,-0.6338 1.5659,-0.9496 2.8471,-0.9496 0.7988,0 1.2504,-0.0136 1.3592,-0.0403 0.1069,-0.0266 0.1758,-0.089 0.207,-0.1868 z m -0.04,6.2884 c 0,-0.7186 -0.1715,-1.3079 -0.5117,-1.7682 -0.3404,-0.4607 -0.8209,-0.6897 -1.4414,-0.6897 -0.6474,0 -1.1457,0.2424 -1.4969,0.7296 -0.3515,0.485 -0.5273,1.1322 -0.5273,1.944 0,0.8008 0.1936,1.4148 0.5828,1.8397 0.3869,0.4249 0.8674,0.6384 1.4346,0.6384 0.5828,0 1.0545,-0.2469 1.4171,-0.7384 0.3625,-0.4916 0.5428,-1.1435 0.5428,-1.9554 z m 2.6402,6.1506 v -9.5828 h 1.0678 v 0.9097 c 0.2514,-0.3513 0.536,-0.616 0.8541,-0.7918 0.316,-0.1757 0.7007,-0.2647 1.1523,-0.2647 0.5918,0 1.1123,0.1514 1.5638,0.4561 0.4516,0.3024 0.7918,0.7316 1.0233,1.2832 0.2291,0.5539 0.3447,1.1591 0.3447,1.8196 0,0.7052 -0.1267,1.3413 -0.3804,1.9086 -0.2537,0.5652 -0.6227,0.9989 -1.1078,1.3013 -0.4827,0.3002 -0.9921,0.4516 -1.5258,0.4516 -0.3915,0 -0.743,-0.0822 -1.0523,-0.2469 -0.3112,-0.1647 -0.5649,-0.3716 -0.765,-0.6228 v 3.3789 z m 1.0678,-6.0772 c 0,0.8876 0.1803,1.5438 0.5383,1.9687 0.3603,0.4249 0.7962,0.6384 1.3079,0.6384 0.5207,0 0.9655,-0.2203 1.3348,-0.6608 0.3714,-0.4402 0.5559,-1.1211 0.5559,-2.0441 0,-0.881 -0.18,-1.5392 -0.5425,-1.9774 -0.3626,-0.4383 -0.7943,-0.6562 -1.2969,-0.6562 -0.4983,0 -0.9388,0.2335 -1.3212,0.6984 -0.385,0.4672 -0.5763,1.1432 -0.5763,2.033 z m 10.8797,2.5538 c -0.436,0.3713 -0.8567,0.6315 -1.2592,0.7852 -0.4025,0.1533 -0.8342,0.229 -1.2968,0.229 -0.7609,0 -1.3457,-0.1845 -1.755,-0.5562 -0.4093,-0.3693 -0.614,-0.843 -0.614,-1.419 0,-0.3382 0.078,-0.6474 0.2313,-0.9278 0.1557,-0.28 0.3581,-0.5025 0.6072,-0.6715 0.2515,-0.1692 0.5318,-0.2982 0.8453,-0.3849 0.2313,-0.0601 0.5806,-0.118 1.0454,-0.1758 0.9477,-0.1111 1.6484,-0.2469 2.0954,-0.4025 0.0045,-0.1602 0.0068,-0.2625 0.0068,-0.3047 0,-0.4762 -0.1111,-0.8122 -0.3336,-1.0077 -0.3002,-0.2648 -0.7475,-0.396 -1.3391,-0.396 -0.5539,0 -0.9632,0.0978 -1.2257,0.2914 -0.2648,0.1936 -0.4581,0.536 -0.5851,1.0298 l -1.1477,-0.1602 c 0.1046,-0.4915 0.2758,-0.8898 0.5162,-1.1922 0.24,-0.3025 0.587,-0.5338 1.0408,-0.6985 0.4516,-0.1624 0.9788,-0.2446 1.575,-0.2446 0.5916,0 1.0743,0.0689 1.4459,0.2092 0.3691,0.14 0.6429,0.3135 0.8164,0.525 0.1735,0.2111 0.2956,0.4782 0.3668,0.8007 0.038,0.2002 0.0578,0.5605 0.0578,1.0786 v 1.5571 c 0,1.0879 0.0247,1.7751 0.0734,2.0665 0.0468,0.2914 0.1446,0.5694 0.2872,0.8365 h -1.228 C 69.0154,66.2732 68.9397,65.984 68.9066,65.6527 Z M 68.813,63.0499 c -0.4272,0.1735 -1.0678,0.3203 -1.9219,0.4405 -0.485,0.0689 -0.8274,0.1468 -1.0275,0.2336 -0.2005,0.0867 -0.3538,0.2134 -0.4629,0.3781 -0.1089,0.167 -0.1644,0.3515 -0.1644,0.5562 0,0.3092 0.1179,0.5694 0.3557,0.7764 0.2381,0.2066 0.5851,0.3112 1.0412,0.3112 0.4515,0 0.854,-0.0978 1.2078,-0.2956 0.3515,-0.1959 0.6117,-0.4652 0.7761,-0.8054 0.127,-0.2647 0.1891,-0.6539 0.1891,-1.1678 z m 4.3776,0.3336 v -0.9207 c 0.4937,-0.0045 0.8319,-0.0246 1.0099,-0.0578 0.18,-0.0357 0.3512,-0.138 0.5114,-0.3115 0.1602,-0.1735 0.2404,-0.3892 0.2404,-0.6494 0,-0.3138 -0.1046,-0.5672 -0.3158,-0.7541 -0.2115,-0.189 -0.4827,-0.2826 -0.8186,-0.2826 -0.6608,0 -1.1234,0.387 -1.3882,1.1611 l -1.1211,-0.1868 c 0.347,-1.29 1.188,-1.9352 2.518,-1.9352 0.7388,0 1.317,0.2001 1.7374,0.6029 0.4204,0.4025 0.6296,0.883 0.6296,1.4414 0,0.5627 -0.2739,1.012 -0.8187,1.3434 0.3493,0.1868 0.6095,0.4249 0.7852,0.714 0.1735,0.2892 0.2602,0.6319 0.2602,1.0279 0,0.6205 -0.2267,1.123 -0.6783,1.5103 -0.4538,0.3869 -1.0857,0.5805 -1.8998,0.5805 -1.5791,0 -2.4956,-0.6985 -2.747,-2.0954 l 1.1078,-0.2404 c 0.1,0.4406 0.3024,0.7833 0.6094,1.0256 0.307,0.2424 0.6562,0.3626 1.0522,0.3626 0.396,0 0.7251,-0.1111 0.9876,-0.3359 0.2625,-0.2225 0.3938,-0.5071 0.3938,-0.8541 0,-0.2693 -0.0825,-0.5029 -0.2469,-0.703 -0.1647,-0.2001 -0.3405,-0.3249 -0.5273,-0.3736 -0.1868,-0.0513 -0.525,-0.0757 -1.0142,-0.0757 -0.0403,0 -0.129,0.0023 -0.267,0.0065 z m 9.1601,0.8944 1.2144,0.1601 c -0.1891,0.7053 -0.5426,1.2546 -1.0588,1.6438 -0.5159,0.3892 -1.1744,0.5851 -1.9774,0.5851 -1.01,0 -1.8108,-0.3115 -2.4024,-0.9343 -0.5916,-0.6205 -0.8875,-1.4947 -0.8875,-2.6181 0,-1.1611 0.2982,-2.0642 0.8963,-2.7048 0.5984,-0.6429 1.3748,-0.9632 2.329,-0.9632 0.9232,0 1.6772,0.3135 2.2623,0.9431 0.5851,0.6295 0.8787,1.5148 0.8787,2.656 0,0.0689 -0.0022,0.1735 -0.0068,0.3113 h -5.1582 c 0.0442,0.7585 0.258,1.3413 0.6449,1.7441 0.3849,0.4026 0.8677,0.605 1.4437,0.605 0.4294,0 0.7962,-0.1134 1.099,-0.3405 0.3047,-0.2268 0.5448,-0.5893 0.7228,-1.0876 z m -3.8438,-1.882 h 3.8571 c -0.0513,-0.5828 -0.2001,-1.0187 -0.4427,-1.3101 -0.3714,-0.4516 -0.8564,-0.6784 -1.4502,-0.6784 -0.5383,0 -0.9899,0.1803 -1.357,0.5406 -0.3648,0.3603 -0.5672,0.843 -0.6072,1.4479 z m 6.5554,-2.8026 h 1.1744 v 5.9658 h 3.2565 v -5.9658 h 1.1744 v 5.9658 h 0.7608 v 2.9228 h -0.961 v -1.9618 h -5.4051 z" />
</svg>
