<?xml version="1.0" encoding="utf-8"?>
<!-- Generator: Adobe Illustrator 26.4.1, SVG Export Plug-In . SVG Version: 6.00 Build 0)  -->
<svg version="1.1"
	 id="svg36" xmlns:svg="http://www.w3.org/2000/svg" xmlns:rdf="http://www.w3.org/1999/02/22-rdf-syntax-ns#" xmlns:cc="http://creativecommons.org/ns#" xmlns:dc="http://purl.org/dc/elements/1.1/"
	 xmlns="http://www.w3.org/2000/svg" xmlns:xlink="http://www.w3.org/1999/xlink" x="0px" y="0px" viewBox="0 0 113.4 113.4"
	 style="enable-background:new 0 0 113.4 113.4;" xml:space="preserve">
<style type="text/css">
	.st0{fill:none;stroke:#1B1918;stroke-width:0.4252;}
	.st1{fill:none;stroke:#1B1918;stroke-width:0.5669;}
	.st2{fill:none;stroke:#1B1918;stroke-width:0.8504;}
	.st3{fill-rule:evenodd;clip-rule:evenodd;fill:#1B1918;}
</style>
<path id="path2" class="st0" d="M112.2,58.7c0,0.7-0.9,1.3-2,1.2c-1.1,0-2-0.7-1.9-1.4c0-0.7,0.9-1.3,2-1.2
	C111.4,57.4,112.3,58,112.2,58.7z M112.1,60.6c-0.1,0.7-1,1.3-2.1,1.2c-1.1-0.1-1.9-0.7-1.9-1.5c0.1-0.7,1-1.3,2.1-1.2
	S112.2,59.9,112.1,60.6z M112,62.5c-0.1,0.7-1,1.2-2.1,1.1c-1.1-0.1-1.9-0.8-1.8-1.5c0.1-0.7,1-1.2,2.1-1.1
	C111.2,61.1,112,61.8,112,62.5z M111.7,64.4c-0.1,0.7-1.1,1.2-2.1,1c-1.1-0.2-1.9-0.9-1.8-1.6c0.1-0.7,1.1-1.2,2.1-1
	C111,63,111.8,63.7,111.7,64.4z M111.4,66.3c-0.1,0.7-1.1,1.1-2.2,1c-1.1-0.2-1.8-0.9-1.7-1.6c0.1-0.7,1.1-1.1,2.2-1
	S111.6,65.6,111.4,66.3z M111.1,68.1c-0.2,0.7-1.1,1.1-2.2,0.9s-1.8-1-1.7-1.7c0.2-0.7,1.1-1.1,2.2-0.9
	C110.5,66.7,111.2,67.4,111.1,68.1z M110.6,70c-0.2,0.7-1.2,1.1-2.2,0.8c-1.1-0.3-1.8-1.1-1.6-1.8c0.2-0.7,1.2-1.1,2.2-0.8
	C110.1,68.5,110.8,69.3,110.6,70z M110.1,71.8c-0.2,0.7-1.2,1-2.3,0.7c-1-0.3-1.7-1.1-1.5-1.8c0.2-0.7,1.2-1,2.3-0.7
	C109.7,70.3,110.3,71.1,110.1,71.8z M109.6,73.6c-0.2,0.7-1.2,1-2.3,0.6c-1-0.3-1.7-1.2-1.5-1.9c0.2-0.7,1.2-1,2.3-0.6
	C109.2,72.1,109.8,72.9,109.6,73.6z M109,75.4c-0.2,0.7-1.3,0.9-2.3,0.6c-1-0.4-1.7-1.2-1.4-1.9c0.2-0.7,1.3-0.9,2.3-0.6
	C108.6,73.9,109.2,74.8,109,75.4z M108.3,77.2c-0.3,0.7-1.3,0.9-2.3,0.5c-1-0.4-1.6-1.3-1.3-2c0.3-0.7,1.3-0.9,2.3-0.5
	C108,75.7,108.6,76.5,108.3,77.2z M107.6,79c-0.3,0.7-1.3,0.8-2.3,0.4c-1-0.4-1.6-1.3-1.3-2c0.3-0.7,1.3-0.8,2.3-0.4
	C107.3,77.4,107.8,78.3,107.6,79z M106.7,80.7c-0.3,0.7-1.4,0.8-2.4,0.3c-1-0.5-1.5-1.4-1.2-2.1c0.3-0.7,1.4-0.8,2.4-0.3
	C106.5,79.1,107.1,80,106.7,80.7z M105.9,82.4c-0.3,0.6-1.4,0.7-2.4,0.2c-1-0.5-1.5-1.4-1.1-2.1c0.3-0.6,1.4-0.7,2.4-0.2
	C105.7,80.8,106.2,81.7,105.9,82.4z M105,84c-0.4,0.6-1.4,0.7-2.4,0.2c-0.9-0.5-1.4-1.5-1.1-2.1c0.4-0.6,1.4-0.7,2.4-0.2
	C104.9,82.5,105.3,83.4,105,84z M104,85.7c-0.4,0.6-1.4,0.6-2.4,0.1c-0.9-0.6-1.4-1.5-1-2.2c0.4-0.6,1.4-0.6,2.4-0.1
	C103.9,84.1,104.4,85,104,85.7z M102.9,87.3c-0.4,0.6-1.5,0.6-2.4,0c-0.9-0.6-1.3-1.6-0.9-2.2c0.4-0.6,1.5-0.6,2.4,0
	C103,85.7,103.4,86.7,102.9,87.3z M101.9,88.8c-0.4,0.6-1.5,0.5-2.4-0.1c-0.9-0.6-1.3-1.6-0.8-2.2c0.4-0.6,1.5-0.5,2.4,0.1
	C101.9,87.2,102.3,88.2,101.9,88.8z M100.7,90.3c-0.4,0.6-1.5,0.5-2.4-0.2c-0.9-0.7-1.2-1.7-0.7-2.3c0.4-0.6,1.5-0.5,2.4,0.2
	C100.8,88.8,101.2,89.8,100.7,90.3z M99.5,91.8c-0.5,0.6-1.5,0.4-2.4-0.3c-0.8-0.7-1.1-1.7-0.7-2.3c0.5-0.6,1.5-0.4,2.4,0.3
	C99.7,90.2,100,91.3,99.5,91.8z M98.3,93.2c-0.5,0.5-1.5,0.4-2.4-0.3c-0.8-0.7-1.1-1.8-0.6-2.3c0.5-0.5,1.5-0.4,2.4,0.3
	C98.5,91.7,98.8,92.7,98.3,93.2z M97,94.6c-0.5,0.5-1.6,0.3-2.3-0.4c-0.8-0.8-1-1.8-0.5-2.3c0.5-0.5,1.6-0.3,2.3,0.4
	S97.5,94.1,97,94.6z M95.6,96c-0.5,0.5-1.6,0.3-2.3-0.5c-0.8-0.8-0.9-1.8-0.4-2.3c0.5-0.5,1.6-0.3,2.3,0.5
	C96,94.4,96.2,95.5,95.6,96z M94.2,97.3c-0.5,0.5-1.6,0.2-2.3-0.6c-0.7-0.8-0.9-1.9-0.3-2.4c0.5-0.5,1.6-0.2,2.3,0.6
	C94.6,95.7,94.8,96.8,94.2,97.3z M92.8,98.5c-0.6,0.5-1.6,0.2-2.3-0.7c-0.7-0.8-0.8-1.9-0.3-2.4c0.6-0.5,1.6-0.2,2.3,0.7
	C93.2,97,93.4,98.1,92.8,98.5z M91.3,99.7c-0.6,0.4-1.6,0.1-2.3-0.7c-0.7-0.9-0.8-1.9-0.2-2.4c0.6-0.4,1.6-0.1,2.3,0.7
	S91.9,99.3,91.3,99.7z M89.8,100.9c-0.6,0.4-1.6,0.1-2.2-0.8c-0.6-0.9-0.7-1.9-0.1-2.4c0.6-0.4,1.6-0.1,2.2,0.8
	C90.4,99.4,90.4,100.4,89.8,100.9z M88.3,102c-0.6,0.4-1.6,0-2.2-0.9c-0.6-0.9-0.6-2,0-2.4c0.6-0.4,1.6,0,2.2,0.9
	C88.9,100.5,88.9,101.5,88.3,102z M86.7,103c-0.6,0.4-1.6-0.1-2.2-1c-0.6-0.9-0.5-2,0.1-2.4c0.6-0.4,1.6,0.1,2.2,1
	C87.3,101.5,87.3,102.6,86.7,103z M85,104c-0.6,0.4-1.6-0.1-2.1-1.1c-0.5-0.9-0.5-2,0.2-2.4c0.6-0.4,1.6,0.1,2.1,1.1
	C85.7,102.5,85.7,103.6,85,104z M83.4,104.9c-0.6,0.3-1.6-0.2-2.1-1.1c-0.5-1-0.4-2,0.2-2.4c0.6-0.3,1.6,0.2,2.1,1.1
	C84.1,103.5,84,104.5,83.4,104.9z M81.7,105.8c-0.7,0.3-1.6-0.2-2.1-1.2c-0.5-1-0.3-2,0.3-2.4c0.7-0.3,1.6,0.2,2.1,1.2
	C82.5,104.4,82.3,105.4,81.7,105.8z M80,106.6c-0.7,0.3-1.6-0.3-2-1.3c-0.4-1-0.3-2,0.4-2.3c0.7-0.3,1.6,0.3,2,1.3
	C80.8,105.2,80.6,106.3,80,106.6z M78.2,107.3c-0.7,0.3-1.6-0.3-2-1.3c-0.4-1-0.2-2.1,0.5-2.3c0.7-0.3,1.6,0.3,2,1.3
	C79.1,106,78.9,107,78.2,107.3z M76.4,108c-0.7,0.2-1.5-0.4-1.9-1.4c-0.4-1-0.1-2.1,0.6-2.3c0.7-0.2,1.5,0.4,1.9,1.4
	C77.4,106.7,77.1,107.7,76.4,108z M74.6,108.6c-0.7,0.2-1.5-0.4-1.9-1.5c-0.3-1,0-2.1,0.6-2.3c0.7-0.2,1.5,0.4,1.9,1.5
	C75.6,107.3,75.3,108.4,74.6,108.6z M72.8,109.2c-0.7,0.2-1.5-0.5-1.8-1.5c-0.3-1,0-2.1,0.7-2.3c0.7-0.2,1.5,0.5,1.8,1.5
	C73.8,107.9,73.5,109,72.8,109.2z M71,109.6c-0.7,0.2-1.5-0.5-1.8-1.6c-0.3-1.1,0.1-2.1,0.8-2.2c0.7-0.2,1.5,0.5,1.8,1.6
	C72,108.5,71.7,109.5,71,109.6z M69.1,110.1c-0.7,0.2-1.5-0.6-1.7-1.7c-0.2-1.1,0.2-2.1,0.9-2.2c0.7-0.2,1.5,0.6,1.7,1.7
	C70.2,108.9,69.8,109.9,69.1,110.1z M67.3,110.4c-0.7,0.1-1.5-0.6-1.6-1.7c-0.2-1.1,0.2-2.1,1-2.2c0.7-0.1,1.5,0.6,1.6,1.7
	C68.4,109.3,68,110.3,67.3,110.4z M65.4,110.7c-0.7,0.1-1.4-0.7-1.6-1.8c-0.2-1.1,0.3-2,1-2.1c0.7-0.1,1.4,0.7,1.6,1.8
	C66.6,109.7,66.1,110.6,65.4,110.7z M63.5,111c-0.7,0.1-1.4-0.7-1.5-1.8c-0.1-1.1,0.4-2,1.1-2.1c0.7-0.1,1.4,0.7,1.5,1.8
	C64.7,109.9,64.2,110.9,63.5,111z M61.6,111.1c-0.7,0.1-1.4-0.8-1.5-1.9c-0.1-1.1,0.5-2,1.2-2.1c0.7-0.1,1.4,0.8,1.5,1.9
	C62.9,110.2,62.3,111.1,61.6,111.1z M59.7,111.2c-0.7,0-1.3-0.8-1.4-1.9c0-1.1,0.5-2,1.2-2c0.7,0,1.3,0.8,1.4,1.9
	C61,110.3,60.4,111.2,59.7,111.2z M57.8,111.3c-0.7,0-1.3-0.9-1.3-2s0.6-2,1.3-2c0.7,0,1.3,0.9,1.3,2S58.5,111.3,57.8,111.3z
	 M112.3,56.8c0-0.7-0.9-1.3-2-1.3c-1.1,0-2,0.6-2,1.3c0,0.7,0.9,1.3,2,1.3C111.4,58.1,112.3,57.5,112.3,56.8z M112.2,54.9
	c0-0.7-0.9-1.3-2-1.2c-1.1,0-2,0.7-1.9,1.4c0,0.7,0.9,1.3,2,1.2C111.4,56.3,112.3,55.6,112.2,54.9z M112.1,53
	c-0.1-0.7-1-1.3-2.1-1.2c-1.1,0.1-1.9,0.7-1.9,1.5c0.1,0.7,1,1.3,2.1,1.2S112.2,53.7,112.1,53z M112,51.1c-0.1-0.7-1-1.2-2.1-1.1
	c-1.1,0.1-1.9,0.8-1.8,1.5c0.1,0.7,1,1.2,2.1,1.1C111.2,52.5,112,51.8,112,51.1z M111.7,49.2c-0.1-0.7-1.1-1.2-2.1-1
	c-1.1,0.2-1.9,0.9-1.8,1.6c0.1,0.7,1.1,1.2,2.1,1C111,50.7,111.8,50,111.7,49.2z M111.4,47.4c-0.1-0.7-1.1-1.1-2.2-1
	c-1.1,0.2-1.8,0.9-1.7,1.6c0.1,0.7,1.1,1.1,2.2,1C110.8,48.8,111.6,48.1,111.4,47.4z M111.1,45.5c-0.2-0.7-1.1-1.1-2.2-0.9
	c-1.1,0.2-1.8,1-1.7,1.7c0.2,0.7,1.1,1.1,2.2,0.9C110.5,47,111.2,46.2,111.1,45.5z M110.6,43.6c-0.2-0.7-1.2-1.1-2.2-0.8
	c-1.1,0.3-1.8,1.1-1.6,1.8c0.2,0.7,1.2,1.1,2.2,0.8C110.1,45.1,110.8,44.3,110.6,43.6z M110.1,41.8c-0.2-0.7-1.2-1-2.3-0.7
	c-1,0.3-1.7,1.1-1.5,1.8c0.2,0.7,1.2,1,2.3,0.7C109.7,43.3,110.3,42.5,110.1,41.8z M109.6,40c-0.2-0.7-1.2-1-2.3-0.6
	c-1,0.3-1.7,1.2-1.5,1.9c0.2,0.7,1.2,1,2.3,0.6C109.2,41.5,109.8,40.7,109.6,40z M109,38.2c-0.2-0.7-1.3-0.9-2.3-0.6
	c-1,0.4-1.7,1.2-1.4,1.9c0.2,0.7,1.3,0.9,2.3,0.6C108.6,39.7,109.2,38.9,109,38.2z M108.3,36.4c-0.3-0.7-1.3-0.9-2.3-0.5
	c-1,0.4-1.6,1.3-1.3,2c0.3,0.7,1.3,0.9,2.3,0.5C108,38,108.6,37.1,108.3,36.4z M107.6,34.7c-0.3-0.7-1.3-0.8-2.3-0.4
	c-1,0.4-1.6,1.3-1.3,2c0.3,0.7,1.3,0.8,2.3,0.4C107.3,36.2,107.8,35.3,107.6,34.7z M106.7,32.9c-0.3-0.7-1.4-0.8-2.4-0.3
	c-1,0.5-1.5,1.4-1.2,2.1c0.3,0.7,1.4,0.8,2.4,0.3C106.5,34.5,107.1,33.6,106.7,32.9z M105.9,31.2c-0.3-0.6-1.4-0.7-2.4-0.2
	c-1,0.5-1.5,1.4-1.1,2.1c0.3,0.6,1.4,0.7,2.4,0.2C105.7,32.8,106.2,31.9,105.9,31.2z M105,29.6c-0.4-0.6-1.4-0.7-2.4-0.2
	c-0.9,0.5-1.4,1.5-1.1,2.1c0.4,0.6,1.4,0.7,2.4,0.2C104.9,31.2,105.3,30.2,105,29.6z M104,28c-0.4-0.6-1.4-0.6-2.4-0.1
	c-0.9,0.6-1.4,1.5-1,2.2c0.4,0.6,1.4,0.6,2.4,0.1C103.9,29.5,104.4,28.6,104,28z M102.9,26.4c-0.4-0.6-1.5-0.6-2.4,0
	c-0.9,0.6-1.3,1.6-0.9,2.2c0.4,0.6,1.5,0.6,2.4,0C103,28,103.4,27,102.9,26.4z M101.9,24.8c-0.4-0.6-1.5-0.5-2.4,0.1
	c-0.9,0.6-1.3,1.6-0.8,2.2c0.4,0.6,1.5,0.5,2.4-0.1C101.9,26.4,102.3,25.4,101.9,24.8z M100.7,23.3c-0.4-0.6-1.5-0.5-2.4,0.2
	s-1.2,1.7-0.7,2.3c0.4,0.6,1.5,0.5,2.4-0.2C100.8,24.9,101.2,23.9,100.7,23.3z M99.5,21.8c-0.5-0.6-1.5-0.4-2.4,0.3
	c-0.8,0.7-1.1,1.7-0.7,2.3c0.5,0.6,1.5,0.4,2.4-0.3C99.7,23.4,100,22.4,99.5,21.8z M98.3,20.4c-0.5-0.5-1.5-0.4-2.4,0.3
	c-0.8,0.7-1.1,1.8-0.6,2.3c0.5,0.5,1.5,0.4,2.4-0.3C98.5,21.9,98.8,20.9,98.3,20.4z M97,19c-0.5-0.5-1.6-0.3-2.3,0.4
	c-0.8,0.8-1,1.8-0.5,2.3c0.5,0.5,1.6,0.3,2.3-0.4S97.5,19.5,97,19z M95.6,17.6c-0.5-0.5-1.6-0.3-2.3,0.5c-0.8,0.8-0.9,1.8-0.4,2.3
	c0.5,0.5,1.6,0.3,2.3-0.5C96,19.2,96.2,18.1,95.6,17.6z M94.2,16.3c-0.5-0.5-1.6-0.2-2.3,0.6c-0.7,0.8-0.9,1.9-0.3,2.4
	c0.5,0.5,1.6,0.2,2.3-0.6C94.6,17.9,94.8,16.8,94.2,16.3z M92.8,15.1c-0.6-0.5-1.6-0.2-2.3,0.7c-0.7,0.8-0.8,1.9-0.3,2.4
	c0.6,0.5,1.6,0.2,2.3-0.7C93.2,16.6,93.4,15.6,92.8,15.1z M91.3,13.9c-0.6-0.4-1.6-0.1-2.3,0.7c-0.7,0.9-0.8,1.9-0.2,2.4
	s1.6,0.1,2.3-0.7C91.8,15.4,91.9,14.4,91.3,13.9z M89.8,12.8c-0.6-0.4-1.6-0.1-2.2,0.8c-0.6,0.9-0.7,1.9-0.1,2.4
	c0.6,0.4,1.6,0.1,2.2-0.8C90.4,14.3,90.4,13.2,89.8,12.8z M88.3,11.7c-0.6-0.4-1.6,0-2.2,0.9c-0.6,0.9-0.6,2,0,2.4
	c0.6,0.4,1.6,0,2.2-0.9C88.9,13.1,88.9,12.1,88.3,11.7z M86.7,10.6c-0.6-0.4-1.6,0.1-2.2,1c-0.6,0.9-0.5,2,0.1,2.4
	c0.6,0.4,1.6-0.1,2.2-1C87.3,12.1,87.3,11,86.7,10.6z M85,9.7c-0.6-0.4-1.6,0.1-2.1,1.1c-0.5,0.9-0.5,2,0.2,2.4
	c0.6,0.4,1.6-0.1,2.1-1.1C85.7,11.1,85.7,10,85,9.7z M83.4,8.7c-0.6-0.3-1.6,0.2-2.1,1.1c-0.5,1-0.4,2,0.2,2.4
	c0.6,0.3,1.6-0.2,2.1-1.1C84.1,10.1,84,9.1,83.4,8.7z M81.7,7.9c-0.7-0.3-1.6,0.2-2.1,1.2c-0.5,1-0.3,2,0.3,2.4
	c0.7,0.3,1.6-0.2,2.1-1.2C82.5,9.2,82.3,8.2,81.7,7.9z M80,7.1c-0.7-0.3-1.6,0.3-2,1.3c-0.4,1-0.3,2,0.4,2.3c0.7,0.3,1.6-0.3,2-1.3
	C80.8,8.4,80.6,7.4,80,7.1z M78.2,6.3c-0.7-0.3-1.6,0.3-2,1.3c-0.4,1-0.2,2.1,0.5,2.3c0.7,0.3,1.6-0.3,2-1.3
	C79.1,7.6,78.9,6.6,78.2,6.3z M76.4,5.6c-0.7-0.2-1.5,0.4-1.9,1.4c-0.4,1-0.1,2.1,0.6,2.3C75.8,9.6,76.6,9,77,8
	C77.4,6.9,77.1,5.9,76.4,5.6z M74.6,5c-0.7-0.2-1.5,0.4-1.9,1.5c-0.3,1,0,2.1,0.6,2.3c0.7,0.2,1.5-0.4,1.9-1.5
	C75.6,6.3,75.3,5.3,74.6,5z M72.8,4.5C72.1,4.3,71.3,5,71,6c-0.3,1,0,2.1,0.7,2.3c0.7,0.2,1.5-0.5,1.8-1.5
	C73.8,5.7,73.5,4.7,72.8,4.5z M71,4c-0.7-0.2-1.5,0.5-1.8,1.6C69,6.6,69.3,7.6,70,7.8c0.7,0.2,1.5-0.5,1.8-1.6C72,5.2,71.7,4.2,71,4
	z M69.1,3.6c-0.7-0.2-1.5,0.6-1.7,1.7c-0.2,1.1,0.2,2.1,0.9,2.2C69,7.6,69.8,6.8,70,5.8C70.2,4.7,69.8,3.7,69.1,3.6z M67.3,3.2
	c-0.7-0.1-1.5,0.6-1.6,1.7c-0.2,1.1,0.2,2.1,1,2.2c0.7,0.1,1.5-0.6,1.6-1.7C68.4,4.3,68,3.3,67.3,3.2z M65.4,2.9
	c-0.7-0.1-1.4,0.7-1.6,1.8c-0.2,1.1,0.3,2,1,2.1c0.7,0.1,1.4-0.7,1.6-1.8C66.6,4,66.1,3,65.4,2.9z M63.5,2.7
	c-0.7-0.1-1.4,0.7-1.5,1.8c-0.1,1.1,0.4,2,1.1,2.1s1.4-0.7,1.5-1.8C64.7,3.7,64.2,2.7,63.5,2.7z M61.6,2.5c-0.7-0.1-1.4,0.8-1.5,1.9
	c-0.1,1.1,0.5,2,1.2,2.1c0.7,0.1,1.4-0.8,1.5-1.9C62.9,3.5,62.3,2.5,61.6,2.5z M59.7,2.4c-0.7,0-1.3,0.8-1.4,1.9c0,1.1,0.5,2,1.2,2
	c0.7,0,1.3-0.8,1.4-1.9C61,3.3,60.4,2.4,59.7,2.4z M3.4,58.7c0,0.7,0.9,1.3,2,1.2c1.1,0,2-0.7,1.9-1.4c0-0.7-0.9-1.3-2-1.2
	C4.2,57.4,3.4,58,3.4,58.7z M3.5,60.6c0.1,0.7,1,1.3,2.1,1.2c1.1-0.1,1.9-0.7,1.9-1.5c-0.1-0.7-1-1.3-2.1-1.2S3.4,59.9,3.5,60.6z
	 M3.7,62.5c0.1,0.7,1,1.2,2.1,1.1c1.1-0.1,1.9-0.8,1.8-1.5c-0.1-0.7-1-1.2-2.1-1.1C4.4,61.1,3.6,61.8,3.7,62.5z M3.9,64.4
	c0.1,0.7,1.1,1.2,2.1,1c1.1-0.2,1.9-0.9,1.8-1.6c-0.1-0.7-1.1-1.2-2.1-1C4.6,63,3.8,63.7,3.9,64.4z M4.2,66.3c0.1,0.7,1.1,1.1,2.2,1
	c1.1-0.2,1.8-0.9,1.7-1.6c-0.1-0.7-1.1-1.1-2.2-1C4.8,64.8,4.1,65.6,4.2,66.3z M4.5,68.1c0.2,0.7,1.1,1.1,2.2,0.9s1.8-1,1.7-1.7
	c-0.2-0.7-1.1-1.1-2.2-0.9C5.1,66.7,4.4,67.4,4.5,68.1z M5,70c0.2,0.7,1.2,1.1,2.2,0.8C8.3,70.5,9,69.7,8.8,69
	c-0.2-0.7-1.2-1.1-2.2-0.8C5.5,68.5,4.8,69.3,5,70z M5.5,71.8c0.2,0.7,1.2,1,2.3,0.7c1-0.3,1.7-1.1,1.5-1.8C9.1,70,8.1,69.7,7,70
	C6,70.3,5.3,71.1,5.5,71.8z M6,73.6c0.2,0.7,1.2,1,2.3,0.6c1-0.3,1.7-1.2,1.5-1.9c-0.2-0.7-1.2-1-2.3-0.6C6.5,72.1,5.8,72.9,6,73.6z
	 M6.6,75.4c0.2,0.7,1.3,0.9,2.3,0.6c1-0.4,1.7-1.2,1.4-1.9c-0.2-0.7-1.3-0.9-2.3-0.6C7,73.9,6.4,74.8,6.6,75.4z M7.3,77.2
	c0.3,0.7,1.3,0.9,2.3,0.5c1-0.4,1.6-1.3,1.3-2c-0.3-0.7-1.3-0.9-2.3-0.5C7.6,75.7,7,76.5,7.3,77.2z M8.1,79c0.3,0.7,1.3,0.8,2.3,0.4
	c1-0.4,1.6-1.3,1.3-2c-0.3-0.7-1.3-0.8-2.3-0.4C8.3,77.4,7.8,78.3,8.1,79z M8.9,80.7c0.3,0.7,1.4,0.8,2.4,0.3c1-0.5,1.5-1.4,1.2-2.1
	c-0.3-0.7-1.4-0.8-2.4-0.3C9.1,79.1,8.5,80,8.9,80.7z M9.7,82.4c0.3,0.6,1.4,0.7,2.4,0.2c1-0.5,1.5-1.4,1.1-2.1
	c-0.3-0.6-1.4-0.7-2.4-0.2C9.9,80.8,9.4,81.7,9.7,82.4z M10.7,84c0.4,0.6,1.4,0.7,2.4,0.2c0.9-0.5,1.4-1.5,1.1-2.1
	c-0.4-0.6-1.4-0.7-2.4-0.2C10.8,82.5,10.3,83.4,10.7,84z M11.6,85.7c0.4,0.6,1.4,0.6,2.4,0.1c0.9-0.6,1.4-1.5,1-2.2
	c-0.4-0.6-1.4-0.6-2.4-0.1C11.7,84.1,11.2,85,11.6,85.7z M12.7,87.3c0.4,0.6,1.5,0.6,2.4,0c0.9-0.6,1.3-1.6,0.9-2.2
	c-0.4-0.6-1.5-0.6-2.4,0C12.7,85.7,12.3,86.7,12.7,87.3z M13.8,88.8c0.4,0.6,1.5,0.5,2.4-0.1c0.9-0.6,1.3-1.6,0.8-2.2
	c-0.4-0.6-1.5-0.5-2.4,0.1C13.7,87.2,13.3,88.2,13.8,88.8z M14.9,90.3c0.4,0.6,1.5,0.5,2.4-0.2c0.9-0.7,1.2-1.7,0.7-2.3
	c-0.4-0.6-1.5-0.5-2.4,0.2C14.8,88.8,14.4,89.8,14.9,90.3z M16.1,91.8c0.5,0.6,1.5,0.4,2.4-0.3c0.8-0.7,1.1-1.7,0.7-2.3
	c-0.5-0.6-1.5-0.4-2.4,0.3C15.9,90.2,15.6,91.3,16.1,91.8z M17.3,93.2c0.5,0.5,1.5,0.4,2.4-0.3c0.8-0.7,1.1-1.8,0.6-2.3
	c-0.5-0.5-1.5-0.4-2.4,0.3C17.1,91.7,16.9,92.7,17.3,93.2z M18.6,94.6c0.5,0.5,1.6,0.3,2.3-0.4c0.8-0.8,1-1.8,0.5-2.3
	c-0.5-0.5-1.6-0.3-2.3,0.4S18.1,94.1,18.6,94.6z M20,96c0.5,0.5,1.6,0.3,2.3-0.5c0.8-0.8,0.9-1.8,0.4-2.3c-0.5-0.5-1.6-0.3-2.3,0.5
	C19.6,94.4,19.5,95.5,20,96z M21.4,97.3c0.5,0.5,1.6,0.2,2.3-0.6c0.7-0.8,0.9-1.9,0.3-2.4c-0.5-0.5-1.6-0.2-2.3,0.6
	C21,95.7,20.8,96.8,21.4,97.3z M22.8,98.5c0.6,0.5,1.6,0.2,2.3-0.7c0.7-0.8,0.8-1.9,0.3-2.4c-0.6-0.5-1.6-0.2-2.3,0.7
	C22.4,97,22.2,98.1,22.8,98.5z M24.3,99.7c0.6,0.4,1.6,0.1,2.3-0.7c0.7-0.9,0.8-1.9,0.2-2.4c-0.6-0.4-1.6-0.1-2.3,0.7
	S23.7,99.3,24.3,99.7z M25.8,100.9c0.6,0.4,1.6,0.1,2.2-0.8c0.6-0.9,0.7-1.9,0.1-2.4c-0.6-0.4-1.6-0.1-2.2,0.8
	C25.3,99.4,25.2,100.4,25.8,100.9z M27.4,102c0.6,0.4,1.6,0,2.2-0.9s0.6-2,0-2.4c-0.6-0.4-1.6,0-2.2,0.9
	C26.8,100.5,26.8,101.5,27.4,102z M29,103c0.6,0.4,1.6-0.1,2.2-1c0.6-0.9,0.5-2-0.1-2.4c-0.6-0.4-1.6,0.1-2.2,1S28.3,102.6,29,103z
	 M30.6,104c0.6,0.4,1.6-0.1,2.1-1.1c0.5-0.9,0.5-2-0.2-2.4c-0.6-0.4-1.6,0.1-2.1,1.1C29.9,102.5,30,103.6,30.6,104z M32.2,104.9
	c0.6,0.3,1.6-0.2,2.1-1.1c0.5-1,0.4-2-0.2-2.4c-0.6-0.3-1.6,0.2-2.1,1.1C31.5,103.5,31.6,104.5,32.2,104.9z M33.9,105.8
	c0.7,0.3,1.6-0.2,2.1-1.2c0.5-1,0.3-2-0.3-2.4c-0.7-0.3-1.6,0.2-2.1,1.2C33.1,104.4,33.3,105.4,33.9,105.8z M35.7,106.6
	c0.7,0.3,1.6-0.3,2-1.3c0.4-1,0.3-2-0.4-2.3c-0.7-0.3-1.6,0.3-2,1.3C34.8,105.2,35,106.3,35.7,106.6z M37.4,107.3
	c0.7,0.3,1.6-0.3,2-1.3c0.4-1,0.2-2.1-0.5-2.3c-0.7-0.3-1.6,0.3-2,1.3C36.5,106,36.7,107,37.4,107.3z M39.2,108
	c0.7,0.2,1.5-0.4,1.9-1.4c0.4-1,0.1-2.1-0.6-2.3c-0.7-0.2-1.5,0.4-1.9,1.4C38.2,106.7,38.5,107.7,39.2,108z M41,108.6
	c0.7,0.2,1.5-0.4,1.9-1.5c0.3-1,0-2.1-0.6-2.3c-0.7-0.2-1.5,0.4-1.9,1.5C40,107.3,40.3,108.4,41,108.6z M42.8,109.2
	c0.7,0.2,1.5-0.5,1.8-1.5c0.3-1,0-2.1-0.7-2.3c-0.7-0.2-1.5,0.5-1.8,1.5C41.8,107.9,42.1,109,42.8,109.2z M44.6,109.6
	c0.7,0.2,1.5-0.5,1.8-1.6c0.3-1.1-0.1-2.1-0.8-2.2c-0.7-0.2-1.5,0.5-1.8,1.6C43.6,108.5,43.9,109.5,44.6,109.6z M46.5,110.1
	c0.7,0.2,1.5-0.6,1.7-1.7c0.2-1.1-0.2-2.1-0.9-2.2c-0.7-0.2-1.5,0.6-1.7,1.7C45.4,108.9,45.8,109.9,46.5,110.1z M48.4,110.4
	c0.7,0.1,1.5-0.6,1.6-1.7c0.2-1.1-0.2-2.1-1-2.2c-0.7-0.1-1.5,0.6-1.6,1.7C47.2,109.3,47.6,110.3,48.4,110.4z M50.2,110.7
	c0.7,0.1,1.4-0.7,1.6-1.8c0.2-1.1-0.3-2-1-2.1c-0.7-0.1-1.4,0.7-1.6,1.8C49,109.7,49.5,110.6,50.2,110.7z M52.1,111
	c0.7,0.1,1.4-0.7,1.5-1.8c0.1-1.1-0.4-2-1.1-2.1c-0.7-0.1-1.4,0.7-1.5,1.8C50.9,109.9,51.4,110.9,52.1,111z M54,111.1
	c0.7,0.1,1.4-0.8,1.5-1.9c0.1-1.1-0.5-2-1.2-2.1c-0.7-0.1-1.4,0.8-1.5,1.9C52.8,110.2,53.3,111.1,54,111.1z M55.9,111.2
	c0.7,0,1.3-0.8,1.4-1.9c0-1.1-0.5-2-1.2-2c-0.7,0-1.3,0.8-1.4,1.9C54.6,110.3,55.2,111.2,55.9,111.2z M57.8,111.3
	c0.7,0,1.3-0.9,1.3-2s-0.6-2-1.3-2c-0.7,0-1.3,0.9-1.3,2S57.1,111.3,57.8,111.3z M3.4,56.8c0-0.7,0.9-1.3,2-1.3s2,0.6,2,1.3
	c0,0.7-0.9,1.3-2,1.3S3.4,57.5,3.4,56.8z M3.4,54.9c0-0.7,0.9-1.3,2-1.2c1.1,0,2,0.7,1.9,1.4c0,0.7-0.9,1.3-2,1.2
	C4.2,56.3,3.4,55.6,3.4,54.9z M3.5,53c0.1-0.7,1-1.3,2.1-1.2c1.1,0.1,1.9,0.7,1.9,1.5c-0.1,0.7-1,1.3-2.1,1.2
	C4.3,54.4,3.4,53.7,3.5,53z M3.7,51.1c0.1-0.7,1-1.2,2.1-1.1c1.1,0.1,1.9,0.8,1.8,1.5c-0.1,0.7-1,1.2-2.1,1.1
	C4.4,52.5,3.6,51.8,3.7,51.1z M3.9,49.2c0.1-0.7,1.1-1.2,2.1-1c1.1,0.2,1.9,0.9,1.8,1.6c-0.1,0.7-1.1,1.2-2.1,1
	C4.6,50.7,3.8,50,3.9,49.2z M4.2,47.4c0.1-0.7,1.1-1.1,2.2-1c1.1,0.2,1.8,0.9,1.7,1.6C8,48.8,7,49.2,5.9,49
	C4.8,48.8,4.1,48.1,4.2,47.4z M4.5,45.5c0.2-0.7,1.1-1.1,2.2-0.9c1.1,0.2,1.8,1,1.7,1.7c-0.2,0.7-1.1,1.1-2.2,0.9
	C5.1,47,4.4,46.2,4.5,45.5z M5,43.6c0.2-0.7,1.2-1.1,2.2-0.8c1.1,0.3,1.8,1.1,1.6,1.8c-0.2,0.7-1.2,1.1-2.2,0.8
	C5.5,45.1,4.8,44.3,5,43.6z M5.5,41.8c0.2-0.7,1.2-1,2.3-0.7c1.1,0.3,1.7,1.1,1.5,1.8c-0.2,0.7-1.2,1-2.3,0.7
	C6,43.3,5.3,42.5,5.5,41.8z M6,40c0.2-0.7,1.2-1,2.3-0.6c1,0.3,1.7,1.2,1.5,1.9c-0.2,0.7-1.2,1-2.3,0.6C6.5,41.5,5.8,40.7,6,40z
	 M6.6,38.2c0.2-0.7,1.3-0.9,2.3-0.6c1,0.4,1.7,1.2,1.4,1.9c-0.2,0.7-1.3,0.9-2.3,0.6C7,39.7,6.4,38.9,6.6,38.2z M7.3,36.4
	c0.3-0.7,1.3-0.9,2.3-0.5c1,0.4,1.6,1.3,1.3,2c-0.3,0.7-1.3,0.9-2.3,0.5C7.6,38,7,37.1,7.3,36.4z M8.1,34.7c0.3-0.7,1.3-0.8,2.3-0.4
	c1,0.4,1.6,1.3,1.3,2c-0.3,0.7-1.3,0.8-2.3,0.4C8.3,36.2,7.8,35.3,8.1,34.7z M8.9,32.9c0.3-0.7,1.4-0.8,2.4-0.3
	c1,0.5,1.5,1.4,1.2,2.1c-0.3,0.7-1.4,0.8-2.4,0.3C9.1,34.5,8.5,33.6,8.9,32.9z M9.7,31.2c0.3-0.6,1.4-0.7,2.4-0.2
	c1,0.5,1.5,1.4,1.1,2.1c-0.3,0.6-1.4,0.7-2.4,0.2C9.9,32.8,9.4,31.9,9.7,31.2z M10.7,29.6c0.4-0.6,1.4-0.7,2.4-0.2
	c0.9,0.5,1.4,1.5,1.1,2.1c-0.4,0.6-1.4,0.7-2.4,0.2C10.8,31.2,10.3,30.2,10.7,29.6z M11.6,28c0.4-0.6,1.4-0.6,2.4-0.1
	c0.9,0.6,1.4,1.5,1,2.2c-0.4,0.6-1.4,0.6-2.4,0.1C11.7,29.5,11.2,28.6,11.6,28z M12.7,26.4c0.4-0.6,1.5-0.6,2.4,0
	c0.9,0.6,1.3,1.6,0.9,2.2c-0.4,0.6-1.5,0.6-2.4,0C12.7,28,12.3,27,12.7,26.4z M13.8,24.8c0.4-0.6,1.5-0.5,2.4,0.1
	c0.9,0.6,1.3,1.6,0.8,2.2c-0.4,0.6-1.5,0.5-2.4-0.1C13.7,26.4,13.3,25.4,13.8,24.8z M14.9,23.3c0.4-0.6,1.5-0.5,2.4,0.2
	c0.9,0.7,1.2,1.7,0.7,2.3c-0.4,0.6-1.5,0.5-2.4-0.2C14.8,24.9,14.4,23.9,14.9,23.3z M16.1,21.8c0.5-0.6,1.5-0.4,2.4,0.3
	c0.8,0.7,1.1,1.7,0.7,2.3c-0.5,0.6-1.5,0.4-2.4-0.3C15.9,23.4,15.6,22.4,16.1,21.8z M17.3,20.4c0.5-0.5,1.5-0.4,2.4,0.3
	c0.8,0.7,1.1,1.8,0.6,2.3c-0.5,0.5-1.5,0.4-2.4-0.3C17.1,21.9,16.9,20.9,17.3,20.4z M18.6,19c0.5-0.5,1.6-0.3,2.3,0.4
	c0.8,0.8,1,1.8,0.5,2.3c-0.5,0.5-1.6,0.3-2.3-0.4C18.4,20.6,18.1,19.5,18.6,19z M20,17.6c0.5-0.5,1.6-0.3,2.3,0.5
	c0.8,0.8,0.9,1.8,0.4,2.3c-0.5,0.5-1.6,0.3-2.3-0.5C19.6,19.2,19.5,18.1,20,17.6z M21.4,16.3c0.5-0.5,1.6-0.2,2.3,0.6
	c0.7,0.8,0.9,1.9,0.3,2.4c-0.5,0.5-1.6,0.2-2.3-0.6C21,17.9,20.8,16.8,21.4,16.3z M22.8,15.1c0.6-0.5,1.6-0.2,2.3,0.7
	c0.7,0.8,0.8,1.9,0.3,2.4c-0.6,0.5-1.6,0.2-2.3-0.7C22.4,16.6,22.2,15.6,22.8,15.1z M24.3,13.9c0.6-0.4,1.6-0.1,2.3,0.7
	c0.7,0.9,0.8,1.9,0.2,2.4c-0.6,0.4-1.6,0.1-2.3-0.7C23.8,15.4,23.7,14.4,24.3,13.9z M25.8,12.8c0.6-0.4,1.6-0.1,2.2,0.8
	c0.6,0.9,0.7,1.9,0.1,2.4c-0.6,0.4-1.6,0.1-2.2-0.8C25.3,14.3,25.2,13.2,25.8,12.8z M27.4,11.7c0.6-0.4,1.6,0,2.2,0.9
	c0.6,0.9,0.6,2,0,2.4C29,15.4,28,15,27.4,14C26.8,13.1,26.8,12.1,27.4,11.7z M29,10.6c0.6-0.4,1.6,0.1,2.2,1c0.6,0.9,0.5,2-0.1,2.4
	c-0.6,0.4-1.6-0.1-2.2-1C28.3,12.1,28.3,11,29,10.6z M30.6,9.7c0.6-0.4,1.6,0.1,2.1,1.1c0.5,0.9,0.5,2-0.2,2.4
	C31.9,13.4,31,13,30.4,12C29.9,11.1,30,10,30.6,9.7z M32.2,8.7c0.6-0.3,1.6,0.2,2.1,1.1c0.5,1,0.4,2-0.2,2.4
	c-0.6,0.3-1.6-0.2-2.1-1.1C31.5,10.1,31.6,9.1,32.2,8.7z M33.9,7.9c0.7-0.3,1.6,0.2,2.1,1.2c0.5,1,0.3,2-0.3,2.4
	c-0.7,0.3-1.6-0.2-2.1-1.2C33.1,9.2,33.3,8.2,33.9,7.9z M35.7,7.1c0.7-0.3,1.6,0.3,2,1.3s0.3,2-0.4,2.3c-0.7,0.3-1.6-0.3-2-1.3
	C34.8,8.4,35,7.4,35.7,7.1z M37.4,6.3c0.7-0.3,1.6,0.3,2,1.3c0.4,1,0.2,2.1-0.5,2.3c-0.7,0.3-1.6-0.3-2-1.3
	C36.5,7.6,36.7,6.6,37.4,6.3z M39.2,5.6c0.7-0.2,1.5,0.4,1.9,1.4c0.4,1,0.1,2.1-0.6,2.3C39.9,9.6,39,9,38.6,8
	C38.2,6.9,38.5,5.9,39.2,5.6z M41,5c0.7-0.2,1.5,0.4,1.9,1.5c0.3,1,0,2.1-0.6,2.3c-0.7,0.2-1.5-0.4-1.9-1.5C40,6.3,40.3,5.3,41,5z
	 M42.8,4.5C43.5,4.3,44.3,5,44.6,6c0.3,1,0,2.1-0.7,2.3c-0.7,0.2-1.5-0.5-1.8-1.5C41.8,5.7,42.1,4.7,42.8,4.5z M44.6,4
	c0.7-0.2,1.5,0.5,1.8,1.6c0.3,1.1-0.1,2.1-0.8,2.2c-0.7,0.2-1.5-0.5-1.8-1.6C43.6,5.2,43.9,4.2,44.6,4z M46.5,3.6
	c0.7-0.2,1.5,0.6,1.7,1.7c0.2,1.1-0.2,2.1-0.9,2.2c-0.7,0.2-1.5-0.6-1.7-1.7C45.4,4.7,45.8,3.7,46.5,3.6z M48.4,3.2
	c0.7-0.1,1.5,0.6,1.6,1.7C50.2,6,49.8,7,49,7.1c-0.7,0.1-1.5-0.6-1.6-1.7C47.2,4.3,47.6,3.3,48.4,3.2z M50.2,2.9
	c0.7-0.1,1.4,0.7,1.6,1.8c0.2,1.1-0.3,2-1,2.1c-0.7,0.1-1.4-0.7-1.6-1.8C49,4,49.5,3,50.2,2.9z M52.1,2.7c0.7-0.1,1.4,0.7,1.5,1.8
	c0.1,1.1-0.4,2-1.1,2.1c-0.7,0.1-1.4-0.7-1.5-1.8S51.4,2.7,52.1,2.7z M54,2.5c0.7-0.1,1.4,0.8,1.5,1.9c0.1,1.1-0.5,2-1.2,2.1
	c-0.7,0.1-1.4-0.8-1.5-1.9C52.8,3.5,53.3,2.5,54,2.5z M55.9,2.4c0.7,0,1.3,0.8,1.4,1.9c0,1.1-0.5,2-1.2,2c-0.7,0-1.3-0.8-1.4-1.9
	C54.6,3.3,55.2,2.4,55.9,2.4z M57.8,2.4c0.7,0,1.3,0.9,1.3,2c0,1.1-0.6,2-1.3,2c-0.7,0-1.3-0.9-1.3-2C56.5,3.2,57.1,2.4,57.8,2.4z"
	/>
<path id="path4" class="st1" d="M57.8,7.4c27.3,0,49.4,22.1,49.4,49.4c0,27.3-22.1,49.4-49.4,49.4c-27.3,0-49.4-22.1-49.4-49.4
	C8.4,29.5,30.5,7.4,57.8,7.4z"/>
<path id="path6" class="st2" d="M57.8,17.3c21.8,0,39.6,17.7,39.6,39.6c0,21.8-17.7,39.6-39.6,39.6c-21.8,0-39.6-17.7-39.6-39.6
	C18.3,35,36,17.3,57.8,17.3z"/>
<g id="Layer1000">
	<path id="path8" class="st3" d="M15.5,77c-0.2-0.5-0.2-1,0-1.6c0.2-0.5,0.6-1,1.2-1.2c0.6-0.3,1.2-0.3,1.7-0.1
		c0.6,0.2,1,0.6,1.2,1.1c0.2,0.5,0.3,1.1,0,1.6c-0.2,0.5-0.6,1-1.2,1.2c-0.6,0.3-1.2,0.3-1.8,0.1C16.1,77.8,15.7,77.5,15.5,77z
		 M15.7,76.9c0.2,0.4,0.4,0.6,0.8,0.7c0.4,0.1,1,0,1.6-0.2c0.6-0.3,1.1-0.7,1.3-1.1c0.2-0.3,0.2-0.7,0-1c-0.2-0.4-0.4-0.6-0.8-0.7
		c-0.4-0.1-0.9,0-1.5,0.3c-0.7,0.3-1.1,0.7-1.3,1.1C15.5,76.2,15.5,76.5,15.7,76.9z M13.3,71.2l0.9-0.4l0,0.1
		c-0.3,0.2-0.4,0.3-0.5,0.5c0,0.2,0,0.4,0.1,0.8l0.2,0.7l1.6-0.6l-0.1-0.2c-0.2-0.5-0.3-0.9-0.3-1.1c0-0.3,0-0.5,0.2-0.7
		c0.1-0.2,0.3-0.4,0.6-0.4c0.3-0.1,0.6-0.1,0.9,0.1c0.3,0.1,0.6,0.5,0.7,1l0.6,1.7l-0.1,0c-0.1-0.2-0.2-0.4-0.3-0.4
		c-0.1,0-0.3,0-0.5,0.1l-2.6,0.9c-0.2,0.1-0.3,0.1-0.4,0.2c-0.1,0.1-0.1,0.1-0.1,0.2c0,0.1,0,0.2,0.1,0.4l-0.1,0L13.3,71.2z
		 M17.7,71.6c0-0.2-0.1-0.3-0.1-0.4c-0.1-0.2-0.2-0.4-0.5-0.6c-0.2-0.1-0.5-0.2-0.8-0.1c-0.3,0.1-0.5,0.3-0.6,0.5
		c-0.1,0.3-0.1,0.5,0.1,0.9c0,0.1,0.1,0.2,0.1,0.3L17.7,71.6z M17,68.9l-0.1,0c0,0,0,0,0-0.1c0-0.2-0.1-0.3-0.2-0.3
		c-0.1,0-0.3,0-0.5,0l-2.7,0.6c-0.3,0.1-0.4,0.1-0.5,0.2c-0.1,0.1-0.1,0.2,0,0.5l-0.1,0l-0.4-1.6l0.1,0c0.1,0.2,0.1,0.3,0.2,0.4
		c0.1,0,0.3,0,0.5,0l2.7-0.6c0.2,0,0.3-0.1,0.4-0.1c0.1,0,0.1-0.1,0.1-0.1c0,0,0-0.1,0-0.3l-0.2-0.8c0-0.2-0.1-0.3-0.1-0.4
		c0,0-0.2,0-0.5,0.1L12.9,67c-0.3,0.1-0.4,0.1-0.5,0.2c-0.1,0.1-0.1,0.2-0.1,0.4l-0.1,0l-0.4-1.6l0.1,0c0.1,0.2,0.1,0.3,0.2,0.4
		c0.1,0,0.3,0,0.5,0l2.7-0.6c0.3-0.1,0.4-0.1,0.5-0.2c0,0,0-0.2,0-0.4l-0.2-0.8c0-0.1-0.1-0.2-0.1-0.2c0,0-0.1,0-0.1,0
		c0,0-0.2,0-0.4,0.1l-2.7,0.6C12.2,64.8,12,64.9,12,65c-0.1,0.1-0.1,0.2-0.1,0.4l-0.1,0l-0.4-1.6l0.1,0c0,0.2,0.1,0.3,0.1,0.3
		c0.1,0.1,0.1,0.1,0.2,0.1c0.1,0,0.2,0,0.4-0.1l2.7-0.6c0.2-0.1,0.4-0.1,0.4-0.1c0.1,0,0.1-0.1,0.1-0.2c0-0.1,0-0.2,0-0.4l1.3-0.3
		l0,0.1c-0.3,0.2-0.6,0.3-0.7,0.5c-0.1,0.2-0.2,0.4-0.2,0.5c0,0.2,0,0.5,0.1,0.8L17,68.9z M11.5,61.4l1.7-0.1l-0.1-0.9
		c0-0.2-0.1-0.4-0.1-0.5c-0.1-0.1-0.3-0.2-0.5-0.1l0-0.1l1.5-0.1l0,0.1c-0.2,0-0.3,0.1-0.4,0.1c-0.1,0-0.1,0.1-0.2,0.2
		c0,0.1,0,0.2,0,0.4l0.1,0.9l1.4-0.1c0.2,0,0.3,0,0.3-0.1c0,0,0.1-0.1,0.1-0.1c0,0,0-0.1,0-0.2L15.2,60c0-0.2,0-0.4-0.1-0.5
		c0-0.1-0.1-0.2-0.2-0.3c-0.1-0.1-0.3-0.2-0.6-0.4l0-0.1l1.1,0.3l0.3,3.3l-0.1,0l0-0.2c0-0.1,0-0.2-0.1-0.3c0-0.1-0.1-0.1-0.2-0.1
		c-0.1,0-0.2,0-0.4,0L12,62c-0.3,0-0.4,0.1-0.5,0.1c-0.1,0.1-0.1,0.2-0.1,0.4l0,0.2l-0.1,0l-0.3-3.3l0.9-0.1l0,0.1
		c-0.2,0.1-0.4,0.1-0.5,0.2c-0.1,0.1-0.1,0.1-0.2,0.3c0,0.1,0,0.2,0,0.5L11.5,61.4z M11,54.2l1.5-0.1l0,0.1c-0.4,0.1-0.8,0.3-1,0.5
		c-0.2,0.2-0.3,0.5-0.3,0.9c0,0.3,0.1,0.5,0.2,0.8c0.1,0.2,0.4,0.4,0.7,0.6c0.3,0.1,0.7,0.2,1.2,0.2c0.4,0,0.7,0,1-0.2
		c0.3-0.1,0.5-0.3,0.7-0.5c0.2-0.2,0.2-0.5,0.3-0.8c0-0.3,0-0.5-0.2-0.7c-0.1-0.2-0.3-0.5-0.7-0.7l0.1-0.1c0.4,0.2,0.6,0.5,0.8,0.8
		c0.2,0.3,0.2,0.6,0.2,1c0,0.7-0.3,1.3-0.8,1.6c-0.4,0.3-0.9,0.4-1.4,0.4c-0.4,0-0.8-0.1-1.2-0.3c-0.4-0.2-0.6-0.5-0.8-0.8
		c-0.2-0.3-0.3-0.7-0.3-1.1c0-0.3,0.1-0.6,0.3-0.9c0-0.1,0.1-0.1,0.1-0.2c0-0.1,0-0.1-0.1-0.2c-0.1-0.1-0.1-0.1-0.2-0.1L11,54.2z
		 M11.6,49.4l1,0.1l0,0.1c-0.2,0-0.3,0-0.4,0c-0.1,0.1-0.2,0.1-0.3,0.2c-0.1,0.1-0.1,0.2-0.1,0.4l-0.1,0.6l3.3,0.4
		c0.3,0,0.4,0,0.5,0c0.1-0.1,0.2-0.2,0.2-0.4l0-0.1l0.1,0l-0.2,1.8l-0.1,0l0-0.2c0-0.2,0-0.3-0.1-0.4c-0.1-0.1-0.2-0.1-0.5-0.1
		l-3.3-0.4L11.5,52c0,0.2,0,0.3,0,0.4c0,0.1,0.1,0.2,0.2,0.3c0.1,0.1,0.3,0.2,0.4,0.2l0,0.1l-1-0.2L11.6,49.4z M14.4,46.1
		c0.1-0.3,0.3-0.5,0.4-0.6c0.2-0.2,0.5-0.2,0.8-0.1c0.2,0,0.4,0.2,0.6,0.3c0.2,0.2,0.3,0.4,0.3,0.6c0,0.2,0,0.6-0.1,1.1l-0.5,2
		l-0.1,0l0-0.2c0-0.2,0-0.3-0.1-0.4c-0.1-0.1-0.2-0.1-0.4-0.2L12.6,48c-0.3-0.1-0.4-0.1-0.5,0c-0.1,0.1-0.2,0.2-0.2,0.3l0,0.2
		l-0.1,0l0.4-1.8c0.1-0.3,0.2-0.6,0.3-0.8c0.1-0.3,0.3-0.5,0.6-0.6c0.2-0.1,0.5-0.1,0.7-0.1c0.2,0,0.4,0.2,0.5,0.3
		C14.3,45.6,14.4,45.8,14.4,46.1z M13.9,47.6c0-0.1,0.1-0.2,0.1-0.3c0-0.1,0.1-0.2,0.1-0.3c0.1-0.3,0.1-0.5,0.1-0.7
		c0-0.2-0.1-0.3-0.2-0.4c-0.1-0.1-0.3-0.2-0.4-0.2c-0.2-0.1-0.5,0-0.7,0.2c-0.2,0.2-0.4,0.4-0.5,0.8c0,0.2-0.1,0.4-0.1,0.6
		L13.9,47.6z M15.9,48.1c0.1-0.2,0.2-0.5,0.2-0.7c0.1-0.4,0.1-0.7-0.1-0.9c-0.1-0.2-0.3-0.4-0.6-0.4c-0.2,0-0.3,0-0.5,0
		c-0.2,0.1-0.3,0.2-0.5,0.4c-0.1,0.2-0.2,0.4-0.3,0.7c0,0.1-0.1,0.2-0.1,0.3c0,0.1,0,0.2,0,0.2L15.9,48.1z M13.5,41.4
		c0.2-0.5,0.5-0.9,1.1-1.2c0.5-0.3,1.1-0.3,1.7-0.1c0.6,0.2,1.1,0.6,1.3,1.1c0.3,0.5,0.3,1.1,0.1,1.6c-0.2,0.6-0.5,1-1.1,1.2
		c-0.5,0.2-1.1,0.3-1.7,0.1c-0.6-0.2-1.1-0.6-1.4-1.2C13.4,42.4,13.4,41.9,13.5,41.4z M13.7,41.5c-0.1,0.4-0.1,0.7,0.1,1
		c0.2,0.4,0.7,0.7,1.3,0.9c0.7,0.2,1.2,0.3,1.7,0.1c0.3-0.1,0.6-0.4,0.7-0.7c0.1-0.4,0.1-0.8-0.1-1.1c-0.2-0.4-0.6-0.6-1.3-0.9
		c-0.7-0.2-1.3-0.3-1.7-0.1C14.1,40.8,13.9,41.1,13.7,41.5z M17.1,33.5l1.4,0.6l0,0.1c-0.5-0.1-0.8-0.1-1.1,0.1
		c-0.3,0.1-0.5,0.3-0.7,0.6c-0.1,0.3-0.2,0.5-0.2,0.8c0,0.3,0.1,0.5,0.4,0.8c0.2,0.3,0.5,0.5,1,0.7c0.3,0.2,0.7,0.3,1,0.3
		c0.3,0,0.6,0,0.8-0.2c0.3-0.2,0.4-0.4,0.6-0.7c0.1-0.2,0.2-0.5,0.2-0.7c0-0.2-0.1-0.6-0.3-0.9l0.1-0.1c0.2,0.4,0.4,0.7,0.4,1.1
		c0,0.3,0,0.7-0.2,1c-0.3,0.6-0.8,1-1.5,1.1c-0.5,0.1-1,0-1.4-0.2c-0.4-0.2-0.7-0.5-0.9-0.8c-0.2-0.3-0.4-0.7-0.4-1.1
		c0-0.4,0.1-0.8,0.2-1.1c0.1-0.3,0.3-0.5,0.6-0.7c0.1-0.1,0.1-0.1,0.1-0.1c0-0.1,0-0.1,0-0.2c0-0.1-0.1-0.1-0.2-0.2L17.1,33.5z
		 M19.9,29.2c0.3-0.5,0.8-0.7,1.4-0.8c0.6-0.1,1.1,0.1,1.7,0.4c0.5,0.4,0.9,0.9,1,1.5c0.1,0.6,0,1.1-0.3,1.6
		c-0.3,0.5-0.8,0.8-1.4,0.8c-0.6,0.1-1.1-0.1-1.7-0.5c-0.6-0.4-0.9-0.9-1-1.5C19.5,30.1,19.6,29.6,19.9,29.2z M20.1,29.3
		c-0.2,0.3-0.3,0.6-0.2,1c0.1,0.4,0.5,0.9,1,1.3c0.6,0.4,1.1,0.6,1.6,0.6c0.4,0,0.7-0.2,0.9-0.5c0.2-0.3,0.3-0.7,0.2-1.1
		c-0.1-0.4-0.4-0.8-1-1.2C22,29,21.5,28.8,21,28.8C20.6,28.8,20.3,29,20.1,29.3z M24.2,24.2l0.8,0.7l-0.1,0.1
		c-0.2-0.1-0.3-0.2-0.5-0.2c-0.1,0-0.3,0-0.4,0.1c-0.1,0.1-0.2,0.2-0.4,0.3L22.9,26l2.5,2.2c0.2,0.2,0.4,0.3,0.5,0.3
		c0.1,0,0.2-0.1,0.4-0.3l0.1,0.1l-1.2,1.4l-0.1-0.1c0.2-0.2,0.2-0.4,0.2-0.5c0-0.1-0.1-0.3-0.3-0.4l-2.1-1.8
		c-0.2-0.2-0.4-0.3-0.5-0.3c-0.1,0-0.2,0.1-0.4,0.3l-0.1-0.1L24.2,24.2z M27.4,24.4l0.9,0.9c0.2,0.2,0.3,0.3,0.4,0.3
		c0.1,0,0.2,0,0.4-0.2l0.1-0.1l0.1,0.1l-1.3,1.3l-0.1-0.1l0.1-0.1c0.1-0.1,0.2-0.3,0.2-0.4c0-0.1-0.1-0.2-0.3-0.4l-1.9-2
		c-0.2-0.2-0.3-0.3-0.4-0.3c-0.1,0-0.2,0-0.4,0.2L25,23.7l-0.1-0.1l1.1-1.1c0.3-0.3,0.5-0.4,0.7-0.5c0.2-0.1,0.4-0.1,0.7-0.1
		c0.2,0,0.5,0.1,0.6,0.3c0.2,0.3,0.4,0.5,0.3,0.9c0,0.3-0.2,0.6-0.5,0.9c-0.1,0.1-0.2,0.1-0.3,0.2C27.6,24.2,27.5,24.3,27.4,24.4z
		 M27.2,24.2c0.1-0.1,0.2-0.1,0.2-0.2c0.1-0.1,0.1-0.1,0.2-0.1c0.2-0.2,0.2-0.3,0.2-0.6c0-0.2-0.1-0.4-0.3-0.6
		c-0.1-0.1-0.3-0.2-0.4-0.3c-0.2-0.1-0.3-0.1-0.5,0c-0.2,0-0.3,0.1-0.4,0.2c-0.1,0.1-0.2,0.2-0.3,0.3L27.2,24.2z M31.3,21.8l-1.3,1
		l0.2,0.7c0,0.2,0.1,0.3,0.1,0.4c0,0.1,0.1,0.1,0.2,0.1c0.1,0,0.2-0.1,0.4-0.2l0.1,0.1l-1.1,0.8l-0.1-0.1c0.1-0.1,0.2-0.2,0.2-0.3
		c0-0.1,0-0.4-0.1-0.7l-1-3.7l0.1-0.1l3.4,1.9c0.3,0.2,0.5,0.2,0.6,0.2c0.1,0,0.3,0,0.4-0.1l0.1,0.1L32.1,23L32,22.9
		c0.1-0.1,0.2-0.2,0.2-0.3c0-0.1,0-0.1,0-0.2c-0.1-0.1-0.2-0.2-0.4-0.3L31.3,21.8z M31,21.7l-1.6-0.9l0.5,1.8L31,21.7z M33.6,19.2
		l1.7-1.1l-0.7-1c-0.1-0.2-0.2-0.3-0.3-0.3c0,0-0.1,0-0.2,0c-0.1,0-0.2,0-0.3,0.1l-0.1,0.1l-0.1-0.1l1.6-1l0.1,0.1l-0.1,0.1
		C35.1,16,35,16,34.9,16.1c0,0.1-0.1,0.1,0,0.2c0,0.1,0.1,0.2,0.2,0.4l1.5,2.3c0.1,0.2,0.2,0.3,0.3,0.3c0,0,0.1,0,0.2,0
		c0.1,0,0.2,0,0.3-0.1l0.1-0.1l0.1,0.1l-1.6,1l-0.1-0.1l0.1-0.1c0.1-0.1,0.2-0.2,0.2-0.3c0-0.1-0.1-0.2-0.2-0.5l-0.7-1.1l-1.7,1.1
		l0.7,1.1c0.1,0.2,0.2,0.3,0.3,0.3c0,0,0.1,0,0.2,0c0.1,0,0.2,0,0.3-0.1l0.1-0.1l0.1,0.1l-1.6,1l-0.1-0.1l0.1-0.1
		c0.2-0.1,0.2-0.2,0.2-0.3c0-0.1-0.1-0.2-0.2-0.5l-1.5-2.3c-0.1-0.2-0.2-0.3-0.3-0.3c0,0-0.1,0-0.2,0c-0.1,0-0.2,0-0.3,0.1l-0.1,0.1
		l-0.1-0.1l1.6-1l0.1,0.1L33,17.3c-0.1,0.1-0.2,0.1-0.2,0.2c0,0.1,0,0.1,0,0.2c0,0.1,0.1,0.2,0.2,0.4L33.6,19.2z M39.5,14.5
		c-0.1-0.2-0.2-0.4-0.3-0.4c-0.1,0-0.3,0-0.5,0.1l0-0.1l1.7-0.8l0,0.1c-0.2,0.1-0.4,0.2-0.4,0.3c0,0.1,0,0.3,0.1,0.5l1.1,2.5
		c0.1,0.3,0.2,0.4,0.3,0.4c0.1,0,0.3,0,0.5-0.1l0,0.1l-1.7,0.8l0-0.1c0.2-0.1,0.4-0.2,0.4-0.3c0-0.1,0-0.3-0.1-0.5l-1-2.3L38.9,18
		c0.1,0.2,0.1,0.3,0.2,0.3c0,0,0.1,0.1,0.2,0.1c0.1,0,0.2,0,0.4-0.1l0,0.1L38,19.2l0-0.1c0.2-0.1,0.4-0.2,0.4-0.3
		c0-0.1,0-0.3-0.1-0.5l-1.1-2.5c-0.1-0.3-0.2-0.4-0.3-0.4c-0.1,0-0.3,0-0.5,0.1l0-0.1l1.7-0.8l0,0.1c-0.2,0.1-0.4,0.2-0.4,0.3
		c0,0.1,0,0.3,0.1,0.5l1,2.3L39.5,14.5z M44.4,14.2L44,12.9c-0.1-0.2-0.1-0.4-0.2-0.4c-0.1-0.1-0.1-0.1-0.2-0.1
		c-0.1,0-0.2,0-0.4,0.1l0-0.1l1.7-0.6l0,0.1c-0.2,0.1-0.3,0.1-0.4,0.2c-0.1,0.1-0.1,0.1-0.1,0.2c0,0.1,0,0.2,0.1,0.5l0.9,2.6
		c0.1,0.2,0.1,0.4,0.2,0.4c0.1,0.1,0.1,0.1,0.2,0.1c0.1,0,0.2,0,0.4-0.1l0,0.1l-1.7,0.6l0-0.1c0.2-0.1,0.3-0.1,0.4-0.2
		C44.9,16.1,45,16,45,16c0-0.1,0-0.2-0.1-0.5l-0.4-1.1c-0.4,0.4-0.8,0.7-1.1,0.8c-0.2,0.1-0.4,0.1-0.6,0.1c-0.2,0-0.3-0.1-0.4-0.2
		c-0.1-0.1-0.2-0.3-0.3-0.6l-0.2-0.7c-0.1-0.2-0.1-0.4-0.2-0.4c-0.1-0.1-0.1-0.1-0.2-0.1c-0.1,0-0.2,0-0.4,0.1l0-0.1l1.8-0.6l0,0.1
		c-0.2,0.1-0.3,0.1-0.4,0.2c-0.1,0.1-0.1,0.1-0.1,0.2c0,0.1,0,0.2,0.1,0.4l0.2,0.6c0.1,0.3,0.2,0.4,0.2,0.5c0.1,0.1,0.2,0.2,0.3,0.2
		c0.1,0,0.2,0,0.4,0C43.8,14.7,44.1,14.5,44.4,14.2z M47.1,11.5l0.4,1.7l0.9-0.2c0.2-0.1,0.4-0.1,0.5-0.2c0.1-0.1,0.1-0.3,0.1-0.5
		l0.1,0l0.3,1.5l-0.1,0c-0.1-0.2-0.1-0.3-0.2-0.4c-0.1-0.1-0.1-0.1-0.2-0.1c-0.1,0-0.2,0-0.4,0l-0.9,0.2l0.3,1.4
		c0,0.2,0.1,0.3,0.1,0.3c0,0,0.1,0.1,0.1,0.1c0,0,0.1,0,0.2,0L49,15c0.2-0.1,0.4-0.1,0.5-0.2c0.1-0.1,0.2-0.1,0.3-0.3
		c0.1-0.2,0.2-0.4,0.3-0.7l0.1,0L50,15l-3.2,0.7l0-0.1l0.1,0c0.1,0,0.2-0.1,0.3-0.1c0.1,0,0.1-0.1,0.1-0.2c0-0.1,0-0.2-0.1-0.4
		l-0.6-2.7c-0.1-0.3-0.1-0.4-0.2-0.5c-0.1-0.1-0.2-0.1-0.4,0l-0.1,0l0-0.1l3.2-0.7l0.3,0.9l-0.1,0c-0.1-0.2-0.2-0.4-0.2-0.4
		c-0.1-0.1-0.2-0.1-0.3-0.1c-0.1,0-0.2,0-0.4,0.1L47.1,11.5z M51.8,12.4l2-0.2L53.6,11c0-0.2-0.1-0.4-0.1-0.4c0,0-0.1-0.1-0.2-0.1
		c-0.1,0-0.2-0.1-0.3,0l-0.2,0l0-0.1l1.8-0.2l0,0.1l-0.2,0c-0.1,0-0.2,0-0.3,0.1c-0.1,0-0.1,0.1-0.1,0.2c0,0.1,0,0.2,0,0.4l0.3,2.8
		c0,0.2,0.1,0.4,0.1,0.4c0,0.1,0.1,0.1,0.1,0.1c0.1,0,0.2,0.1,0.3,0l0.2,0l0,0.1l-1.8,0.2l0-0.1l0.2,0c0.2,0,0.3-0.1,0.4-0.2
		c0-0.1,0.1-0.2,0-0.5l-0.2-1.3l-2,0.2L52,14c0,0.2,0.1,0.4,0.1,0.4c0,0.1,0.1,0.1,0.1,0.1c0.1,0,0.2,0.1,0.3,0l0.2,0l0,0.1
		l-1.8,0.2l0-0.1l0.2,0c0.2,0,0.3-0.1,0.4-0.2c0-0.1,0-0.2,0-0.5L51,11.3c0-0.2-0.1-0.4-0.1-0.4c0,0-0.1-0.1-0.1-0.1
		c-0.1,0-0.2-0.1-0.3,0l-0.2,0l0-0.1l1.8-0.2l0,0.1l-0.2,0c-0.1,0-0.2,0-0.3,0.1c-0.1,0-0.1,0.1-0.1,0.2c0,0.1,0,0.2,0,0.4
		L51.8,12.4z M57.1,12l2,0.1l0-1.2c0-0.2,0-0.4,0-0.4c0-0.1-0.1-0.1-0.1-0.1c-0.1-0.1-0.2-0.1-0.3-0.1l-0.2,0l0-0.1l1.8,0.1l0,0.1
		l-0.2,0c-0.1,0-0.2,0-0.3,0.1c-0.1,0-0.1,0.1-0.1,0.1c0,0.1,0,0.2,0,0.4l-0.1,2.8c0,0.2,0,0.4,0,0.4c0,0.1,0.1,0.1,0.1,0.1
		c0.1,0.1,0.2,0.1,0.3,0.1l0.2,0l0,0.1l-1.8-0.1l0-0.1l0.2,0c0.2,0,0.3,0,0.4-0.1C59,14,59,13.9,59,13.6l0-1.3l-2-0.1l0,1.3
		c0,0.2,0,0.4,0,0.4c0,0.1,0.1,0.1,0.1,0.1c0.1,0.1,0.2,0.1,0.3,0.1l0.2,0l0,0.1l-1.8-0.1l0-0.1l0.2,0c0.2,0,0.3,0,0.4-0.1
		c0.1-0.1,0.1-0.2,0.1-0.5l0.1-2.8c0-0.2,0-0.4,0-0.4c0-0.1-0.1-0.1-0.1-0.1c-0.1-0.1-0.2-0.1-0.3-0.1l-0.2,0l0-0.1l1.8,0.1l0,0.1
		l-0.2,0c-0.1,0-0.2,0-0.3,0.1c-0.1,0-0.1,0.1-0.1,0.1c0,0.1,0,0.2-0.1,0.4L57.1,12z M63.5,10.3c0.6,0.1,1,0.3,1.4,0.8
		c0.4,0.5,0.5,1,0.4,1.7c-0.1,0.7-0.4,1.2-0.8,1.5c-0.5,0.4-1,0.5-1.6,0.5c-0.6-0.1-1.1-0.3-1.4-0.8c-0.3-0.5-0.5-1-0.4-1.7
		c0.1-0.7,0.4-1.2,0.9-1.6C62.4,10.3,62.9,10.2,63.5,10.3z M63.4,10.5c-0.4,0-0.7,0.1-1,0.3c-0.3,0.3-0.5,0.8-0.6,1.5
		c-0.1,0.7,0,1.3,0.2,1.7c0.2,0.3,0.5,0.5,0.9,0.5c0.4,0,0.8-0.1,1.1-0.3c0.3-0.3,0.5-0.8,0.6-1.4c0.1-0.7,0-1.3-0.2-1.7
		C64.1,10.7,63.8,10.6,63.4,10.5z M70,10.2c0.1,0,0.1,0.1,0.1,0.1c0,0.1,0,0.1,0,0.2c0,0.2-0.2,0.3-0.4,0.4c-0.2,0.1-0.5,0.1-0.9,0
		c-0.4-0.1-0.7-0.2-0.9-0.4c-0.2-0.2-0.2-0.4-0.2-0.5c0-0.1,0.1-0.1,0.1-0.2c0.1,0,0.1-0.1,0.2,0c0.1,0,0.1,0.1,0.2,0.1
		c0,0.1,0.1,0.2,0.1,0.4c0.1,0.3,0.2,0.5,0.5,0.5c0.3,0.1,0.5,0,0.7-0.3c0.1-0.2,0.2-0.3,0.3-0.3C69.9,10.2,70,10.2,70,10.2z
		 M69.6,12.2c0.1-0.3,0.1-0.4,0-0.5c-0.1-0.1-0.2-0.2-0.5-0.2l0-0.1l1.8,0.4l0,0.1c-0.3-0.1-0.4,0-0.5,0c-0.1,0.1-0.2,0.2-0.2,0.5
		l-0.6,2.7c-0.1,0.3-0.1,0.5,0,0.6c0.1,0.1,0.2,0.2,0.5,0.2l0,0.1l-1.8-0.4l0-0.1c0.3,0.1,0.4,0.1,0.5,0c0.1-0.1,0.2-0.2,0.2-0.5
		l0.6-2.4L67,14.6c0,0.2-0.1,0.3,0,0.4c0,0.1,0,0.1,0.1,0.2c0.1,0.1,0.2,0.1,0.4,0.2l0,0.1L65.6,15l0-0.1c0.3,0.1,0.4,0,0.5,0
		c0.1-0.1,0.2-0.2,0.2-0.5l0.6-2.7c0.1-0.3,0.1-0.5,0-0.6c-0.1-0.1-0.2-0.2-0.5-0.2l0-0.1l1.8,0.4l0,0.1c-0.3-0.1-0.4,0-0.5,0
		c-0.1,0.1-0.2,0.2-0.2,0.5L67,14.3L69.6,12.2z M75.7,13.5c0.5,0.2,0.9,0.6,1.1,1.1c0.2,0.5,0.2,1.1,0,1.7c-0.2,0.6-0.6,1-1.2,1.3
		c-0.5,0.2-1.1,0.3-1.6,0c-0.6-0.2-0.9-0.6-1.2-1.1c-0.2-0.5-0.2-1.1,0-1.7c0.3-0.6,0.7-1.1,1.3-1.3C74.6,13.2,75.1,13.3,75.7,13.5z
		 M75.5,13.7c-0.4-0.1-0.7-0.1-1,0.1c-0.4,0.2-0.7,0.7-1,1.3c-0.3,0.7-0.3,1.2-0.2,1.7c0.1,0.4,0.3,0.6,0.7,0.7
		c0.4,0.1,0.7,0.1,1.1-0.1c0.4-0.2,0.7-0.6,0.9-1.2c0.3-0.7,0.3-1.3,0.2-1.7C76.2,14.1,75.9,13.8,75.5,13.7z M81.9,16.7l-0.5,0.9
		l-0.1-0.1c0.1-0.2,0.1-0.3,0.1-0.4c0-0.1,0-0.3-0.1-0.4c-0.1-0.1-0.2-0.2-0.3-0.3l-0.5-0.3L78.8,19c-0.1,0.2-0.2,0.4-0.2,0.5
		c0,0.1,0.1,0.2,0.3,0.3l0.1,0.1L78.9,20L77.3,19l0.1-0.1l0.1,0.1c0.2,0.1,0.3,0.1,0.4,0.1c0.1,0,0.2-0.2,0.3-0.4l1.7-2.8l-0.4-0.3
		c-0.2-0.1-0.3-0.2-0.4-0.2c-0.1,0-0.2,0-0.4,0.1c-0.1,0.1-0.2,0.2-0.4,0.3l-0.1-0.1l0.6-0.9L81.9,16.7z M83.8,20.5
		c0.2,0.2,0.3,0.4,0.4,0.6c0.1,0.3,0,0.5-0.2,0.8c-0.1,0.2-0.3,0.3-0.5,0.4c-0.2,0.1-0.5,0.1-0.7,0c-0.2-0.1-0.6-0.2-1-0.5l-1.7-1.2
		l0.1-0.1l0.1,0.1c0.1,0.1,0.3,0.1,0.4,0.1c0.1,0,0.2-0.1,0.3-0.3l1.6-2.3c0.2-0.2,0.2-0.4,0.2-0.5c0-0.1-0.1-0.2-0.2-0.3l-0.1-0.1
		l0.1-0.1l1.5,1.1c0.3,0.2,0.5,0.4,0.6,0.5c0.2,0.2,0.3,0.5,0.4,0.8c0,0.3,0,0.5-0.2,0.7c-0.1,0.2-0.3,0.3-0.5,0.4
		C84.3,20.6,84.1,20.6,83.8,20.5z M82.6,19.4c0.1,0.1,0.1,0.1,0.2,0.2c0.1,0.1,0.2,0.1,0.3,0.2c0.3,0.2,0.5,0.3,0.6,0.3
		c0.2,0,0.3,0,0.5,0c0.1-0.1,0.3-0.2,0.4-0.3c0.1-0.2,0.2-0.4,0.1-0.7c-0.1-0.3-0.3-0.5-0.6-0.7c-0.2-0.1-0.3-0.2-0.5-0.3L82.6,19.4
		z M81.4,21.1c0.2,0.2,0.4,0.4,0.5,0.5c0.3,0.2,0.6,0.3,0.9,0.3c0.3,0,0.5-0.1,0.6-0.3c0.1-0.1,0.2-0.3,0.2-0.5c0-0.2,0-0.4-0.2-0.6
		c-0.1-0.2-0.3-0.4-0.5-0.6c-0.1-0.1-0.2-0.1-0.3-0.2c-0.1-0.1-0.1-0.1-0.2-0.1L81.4,21.1z M87.6,21l-1.1,1.3l0.7,0.6
		c0.2,0.2,0.3,0.2,0.4,0.2c0.1,0,0.3-0.1,0.5-0.3l0.1,0.1l-1,1.1L87.1,24c0.1-0.2,0.2-0.3,0.2-0.4c0-0.1,0-0.2,0-0.3
		c0-0.1-0.1-0.2-0.3-0.3l-0.7-0.6l-0.9,1.1c-0.1,0.1-0.2,0.2-0.2,0.3c0,0,0,0.1,0,0.1c0,0,0.1,0.1,0.2,0.2l0.6,0.5
		c0.2,0.2,0.3,0.3,0.4,0.3c0.1,0,0.2,0.1,0.4,0.1c0.2,0,0.4-0.1,0.7-0.2l0.1,0.1l-1,0.6l-2.5-2.2l0.1-0.1l0.1,0.1
		c0.1,0.1,0.2,0.1,0.3,0.1c0.1,0,0.1,0,0.2,0c0.1,0,0.2-0.1,0.3-0.3l1.8-2.1c0.2-0.2,0.3-0.4,0.3-0.4c0-0.1-0.1-0.2-0.2-0.3
		l-0.1-0.1l0.1-0.1l2.5,2.2l-0.6,0.7l-0.1-0.1c0.1-0.2,0.2-0.4,0.2-0.5c0-0.1,0-0.2-0.1-0.3c0-0.1-0.1-0.2-0.3-0.3L87.6,21z"/>
	<path id="path10" class="st3" d="M92.8,25.7l-0.7,0.7L92,26.3c0.1-0.1,0.2-0.3,0.2-0.3c0-0.1,0-0.3,0-0.4c0-0.1-0.1-0.2-0.2-0.4
		l-0.4-0.4l-2.4,2.3c-0.2,0.2-0.3,0.3-0.3,0.4c0,0.1,0,0.2,0.2,0.4l0.1,0.1L89,28l-1.3-1.3l0.1-0.1l0.1,0.1c0.1,0.1,0.3,0.2,0.4,0.2
		c0.1,0,0.2-0.1,0.4-0.3l2.4-2.3L90.8,24c-0.1-0.1-0.2-0.2-0.3-0.3c-0.1-0.1-0.2-0.1-0.4,0c-0.1,0-0.3,0.1-0.4,0.2l-0.1-0.1l0.8-0.7
		L92.8,25.7z M95.8,29.3l-1.1,1l-0.1-0.1c0.3-0.4,0.4-0.7,0.4-1c0-0.3-0.1-0.6-0.3-0.9c-0.2-0.2-0.4-0.4-0.6-0.5
		c-0.3-0.1-0.6-0.1-0.9,0c-0.3,0.1-0.7,0.3-1.1,0.6c-0.3,0.2-0.5,0.5-0.7,0.8c-0.1,0.3-0.2,0.6-0.2,0.8c0,0.3,0.2,0.6,0.3,0.8
		c0.2,0.2,0.4,0.4,0.6,0.5c0.2,0.1,0.6,0.1,1,0.1l0,0.1c-0.4,0.1-0.8,0-1.1-0.1c-0.3-0.1-0.6-0.3-0.8-0.6c-0.4-0.6-0.6-1.2-0.4-1.8
		c0.1-0.5,0.4-0.9,0.8-1.2c0.3-0.3,0.7-0.4,1.1-0.5c0.4-0.1,0.8,0,1.2,0.1c0.4,0.1,0.7,0.4,0.9,0.7c0.2,0.2,0.3,0.5,0.4,0.9
		c0,0.1,0,0.2,0.1,0.2c0,0,0.1,0.1,0.1,0.1C95.6,29.3,95.7,29.3,95.8,29.3L95.8,29.3z M98.4,33.4L97.6,34l-0.1-0.1
		c0.1-0.1,0.2-0.2,0.3-0.3c0.1-0.1,0.1-0.2,0.1-0.4c0-0.1-0.1-0.3-0.2-0.4l-0.3-0.5l-2.8,1.8c-0.2,0.1-0.3,0.3-0.4,0.3
		c0,0.1,0,0.2,0.1,0.4l0.1,0.1L94.3,35l-1-1.5l0.1-0.1l0.1,0.1c0.1,0.2,0.2,0.2,0.4,0.2c0.1,0,0.2-0.1,0.4-0.2l2.8-1.8l-0.3-0.4
		c-0.1-0.2-0.2-0.3-0.3-0.3c-0.1-0.1-0.2-0.1-0.3-0.1c-0.1,0-0.3,0-0.5,0.1L95.6,31l0.9-0.5L98.4,33.4z M98.3,37.9
		c0.1,0.3,0.1,0.5,0,0.7c-0.1,0.3-0.2,0.5-0.5,0.6c-0.2,0.1-0.4,0.1-0.6,0.1c-0.2,0-0.4-0.1-0.6-0.3c-0.2-0.2-0.4-0.5-0.6-0.9
		L95,36.3l0.1-0.1l0.1,0.1c0.1,0.2,0.2,0.2,0.3,0.3c0.1,0,0.2,0,0.5-0.1l2.5-1.3c0.2-0.1,0.4-0.2,0.4-0.3c0-0.1,0-0.2,0-0.4
		l-0.1-0.1l0.1-0.1l0.8,1.7c0.2,0.3,0.3,0.6,0.3,0.8c0.1,0.3,0.1,0.6,0,0.8c-0.1,0.2-0.3,0.4-0.5,0.5c-0.2,0.1-0.4,0.1-0.6,0.1
		C98.7,38.2,98.5,38,98.3,37.9z M97.7,36.3c0,0.1,0.1,0.2,0.1,0.3c0,0.1,0.1,0.2,0.1,0.3c0.1,0.3,0.3,0.5,0.4,0.6
		c0.1,0.1,0.3,0.2,0.4,0.2c0.2,0,0.3,0,0.5-0.1c0.2-0.1,0.4-0.3,0.4-0.6c0.1-0.3,0-0.6-0.2-0.9c-0.1-0.2-0.2-0.3-0.3-0.5L97.7,36.3z
		 M95.8,37.2c0.1,0.2,0.1,0.5,0.3,0.7c0.2,0.3,0.4,0.6,0.6,0.7c0.2,0.1,0.5,0.1,0.7,0c0.1-0.1,0.3-0.2,0.4-0.3
		c0.1-0.2,0.1-0.3,0.1-0.6c0-0.2-0.1-0.5-0.2-0.7c-0.1-0.1-0.1-0.2-0.2-0.3c0-0.1-0.1-0.1-0.1-0.2L95.8,37.2z M101.2,40.1l-1.6,0.6
		l0.3,0.9c0.1,0.2,0.2,0.4,0.3,0.4c0.1,0.1,0.3,0.1,0.5,0l0,0.1l-1.4,0.5l0-0.1c0.2-0.1,0.3-0.2,0.3-0.2c0.1-0.1,0.1-0.1,0.1-0.2
		c0-0.1,0-0.2-0.1-0.4l-0.3-0.9l-1.3,0.5c-0.2,0.1-0.3,0.1-0.3,0.1c0,0-0.1,0.1-0.1,0.1c0,0,0,0.1,0.1,0.2l0.3,0.7
		c0.1,0.2,0.2,0.4,0.2,0.5c0.1,0.1,0.2,0.2,0.3,0.2c0.2,0.1,0.4,0.1,0.7,0.2l0,0.1l-1.1,0L97,40.4l0.1,0l0.1,0.1
		c0,0.1,0.1,0.2,0.2,0.2c0.1,0.1,0.1,0.1,0.2,0.1c0.1,0,0.2,0,0.4-0.1l2.6-1c0.3-0.1,0.4-0.2,0.4-0.3c0.1-0.1,0-0.2,0-0.4l-0.1-0.1
		l0.1,0l1.2,3.1l-0.9,0.4l0-0.1c0.2-0.1,0.3-0.2,0.4-0.3c0.1-0.1,0.1-0.2,0.1-0.3c0-0.1,0-0.2-0.1-0.4L101.2,40.1z M101,45l0.4,1.9
		l1.2-0.3c0.2,0,0.4-0.1,0.4-0.1c0,0,0.1-0.1,0.1-0.2c0-0.1,0-0.2,0-0.3l0-0.1l0.1,0l0.4,1.8l-0.1,0l0-0.1c0-0.1-0.1-0.2-0.1-0.3
		c0-0.1-0.1-0.1-0.2-0.1c-0.1,0-0.2,0-0.4,0.1l-2.7,0.6c-0.2,0-0.3,0.1-0.4,0.1c0,0-0.1,0.1-0.1,0.2c0,0.1,0,0.2,0,0.3l0,0.1l-0.1,0
		l-0.4-1.8l0.1,0l0,0.1c0,0.2,0.1,0.3,0.2,0.3c0.1,0,0.2,0,0.5,0l1.3-0.3l-0.4-1.9l-1.3,0.3c-0.2,0-0.4,0.1-0.4,0.1
		c0,0-0.1,0.1-0.1,0.2c0,0.1,0,0.2,0,0.3l0,0.2l-0.1,0l-0.4-1.8l0.1,0l0,0.1c0,0.2,0.1,0.3,0.2,0.3c0.1,0,0.2,0,0.5,0l2.7-0.6
		c0.2,0,0.4-0.1,0.4-0.1c0,0,0.1-0.1,0.1-0.2c0-0.1,0-0.2,0-0.3l0-0.1l0.1,0l0.4,1.8l-0.1,0l0-0.2c0-0.1-0.1-0.2-0.1-0.3
		c0-0.1-0.1-0.1-0.2-0.1c-0.1,0-0.2,0-0.4,0.1L101,45z M102.1,50.1l0.2,2l1.2-0.2c0.2,0,0.4-0.1,0.4-0.1c0,0,0.1-0.1,0.1-0.2
		c0-0.1,0.1-0.2,0-0.3l0-0.2l0.1,0l0.2,1.8l-0.1,0l0-0.2c0-0.1,0-0.2-0.1-0.3c0-0.1-0.1-0.1-0.2-0.1c-0.1,0-0.2,0-0.4,0l-2.8,0.3
		c-0.2,0-0.4,0.1-0.4,0.1c-0.1,0-0.1,0.1-0.1,0.1c0,0.1-0.1,0.2,0,0.3l0,0.2l-0.1,0l-0.2-1.8l0.1,0l0,0.2c0,0.2,0.1,0.3,0.2,0.4
		c0.1,0,0.2,0.1,0.5,0l1.3-0.2l-0.2-2l-1.3,0.2c-0.2,0-0.4,0.1-0.4,0.1c-0.1,0-0.1,0.1-0.1,0.1c0,0.1-0.1,0.2,0,0.3l0,0.2l-0.1,0
		l-0.2-1.8l0.1,0l0,0.2c0,0.2,0.1,0.3,0.2,0.4c0.1,0,0.2,0,0.5,0l2.8-0.3c0.2,0,0.4-0.1,0.4-0.1c0,0,0.1-0.1,0.1-0.1
		c0-0.1,0.1-0.2,0-0.3l0-0.2l0.1,0l0.2,1.8l-0.1,0l0-0.2c0-0.1,0-0.2-0.1-0.3c0-0.1-0.1-0.1-0.2-0.1c-0.1,0-0.2,0-0.4,0L102.1,50.1z
		 M104.7,56.2c0,0.6-0.2,1-0.6,1.5c-0.4,0.4-0.9,0.6-1.6,0.7c-0.7,0-1.2-0.2-1.6-0.6c-0.4-0.4-0.7-0.9-0.7-1.5
		c0-0.6,0.2-1.1,0.6-1.5c0.4-0.4,1-0.6,1.6-0.7c0.7,0,1.2,0.2,1.7,0.7C104.5,55.1,104.7,55.6,104.7,56.2z M104.5,56.1
		c0-0.4-0.2-0.7-0.5-0.9c-0.4-0.3-0.9-0.4-1.6-0.4c-0.7,0-1.2,0.2-1.6,0.5c-0.3,0.2-0.4,0.5-0.4,0.9c0,0.4,0.2,0.7,0.5,1
		c0.3,0.3,0.8,0.4,1.5,0.4c0.7,0,1.3-0.2,1.6-0.5C104.3,56.8,104.5,56.5,104.5,56.1z M104.3,62.9l-1.5,0l0-0.1
		c0.4-0.1,0.8-0.3,1-0.5c0.2-0.2,0.3-0.5,0.4-0.9c0-0.3,0-0.5-0.2-0.8c-0.1-0.2-0.3-0.4-0.7-0.6c-0.3-0.2-0.7-0.3-1.2-0.3
		c-0.4,0-0.7,0-1,0.1c-0.3,0.1-0.5,0.3-0.7,0.5c-0.2,0.2-0.3,0.5-0.3,0.8c0,0.3,0,0.5,0.1,0.7c0.1,0.2,0.3,0.5,0.7,0.8l-0.1,0.1
		c-0.4-0.2-0.6-0.5-0.8-0.8c-0.2-0.3-0.2-0.6-0.2-1c0.1-0.7,0.4-1.2,0.9-1.6c0.4-0.3,0.9-0.4,1.4-0.3c0.4,0,0.8,0.2,1.2,0.4
		c0.3,0.2,0.6,0.5,0.8,0.9c0.2,0.4,0.2,0.7,0.2,1.1c0,0.3-0.1,0.6-0.3,0.9c-0.1,0.1-0.1,0.1-0.1,0.2c0,0.1,0,0.1,0,0.2
		c0.1,0.1,0.1,0.1,0.2,0.1L104.3,62.9z M103.4,67.7l-1-0.1l0-0.1c0.2,0,0.3,0,0.4,0c0.1,0,0.2-0.1,0.3-0.2c0.1-0.1,0.1-0.2,0.2-0.4
		l0.1-0.6l-3.2-0.6c-0.3,0-0.4,0-0.5,0c-0.1,0.1-0.2,0.2-0.2,0.3l0,0.1l-0.1,0l0.3-1.8l0.1,0l0,0.2c0,0.2,0,0.3,0.1,0.4
		c0.1,0.1,0.2,0.1,0.4,0.2l3.2,0.6l0.1-0.5c0-0.2,0-0.3,0-0.4c0-0.1-0.1-0.2-0.2-0.3c-0.1-0.1-0.2-0.2-0.4-0.2l0-0.1l1,0.2
		L103.4,67.7z M100.9,69.3l0,0.2c-0.1,0.5-0.3,0.9-0.4,1.1c-0.1,0.2-0.3,0.4-0.5,0.5c-0.2,0.1-0.5,0.1-0.7,0
		c-0.3-0.1-0.5-0.3-0.7-0.6c-0.2-0.3-0.2-0.7,0-1.3l0.5-1.8l0.1,0C99,67.8,99,67.9,99,68c0.1,0.1,0.2,0.2,0.5,0.3l2.6,0.7
		c0.3,0.1,0.5,0.1,0.6,0c0.1-0.1,0.2-0.2,0.3-0.5l0.1,0l-0.5,1.8l-0.1,0c0.1-0.3,0.1-0.4,0-0.5c-0.1-0.1-0.2-0.2-0.5-0.3L100.9,69.3
		z M98.8,68.7c-0.1,0.2-0.1,0.3-0.2,0.4c-0.1,0.3-0.1,0.5,0.1,0.8c0.1,0.3,0.3,0.4,0.6,0.5c0.3,0.1,0.6,0,0.8-0.1
		c0.2-0.2,0.4-0.4,0.4-0.7c0-0.1,0-0.2,0.1-0.3L98.8,68.7z M98.9,74.1l0.4-0.8L98,72.7c-0.2-0.1-0.4-0.1-0.5-0.1
		c-0.1,0-0.2,0.1-0.3,0.3l0,0.1l-0.1,0l0.8-1.7l0.1,0l-0.1,0.1c0,0.1-0.1,0.2-0.1,0.3c0,0.1,0,0.2,0.1,0.2c0.1,0.1,0.2,0.1,0.4,0.2
		l2.5,1.1c0.2,0.1,0.3,0.1,0.4,0.1c0.1,0,0.2,0,0.2-0.1c0.1-0.1,0.1-0.1,0.2-0.3l0-0.1l0.1,0l-0.8,1.7l-0.1,0l0-0.1
		c0.1-0.1,0.1-0.2,0.1-0.3c0-0.1,0-0.1-0.1-0.2c0-0.1-0.2-0.1-0.4-0.2l-1.1-0.5l-0.4,0.8c0.6,0.3,0.9,0.7,1.1,1.2
		c0.2,0.5,0.2,1.1-0.1,1.6c-0.2,0.5-0.6,0.8-1.2,1.1c-0.6,0.2-1.1,0.2-1.7-0.1c-0.6-0.3-1-0.7-1.2-1.2c-0.2-0.5-0.2-1.1,0-1.7
		c0.2-0.4,0.4-0.6,0.7-0.9c0.3-0.2,0.6-0.3,1-0.4C98.1,73.9,98.5,73.9,98.9,74.1L98.9,74.1z M99.9,76.9c0.2-0.4,0.1-0.7-0.1-1.1
		c-0.2-0.4-0.6-0.7-1.2-1c-0.6-0.2-1.1-0.3-1.5-0.3c-0.4,0.1-0.8,0.3-0.9,0.7c-0.2,0.4-0.2,0.8,0,1.1c0.2,0.4,0.6,0.7,1.2,0.9
		c0.6,0.3,1.1,0.4,1.5,0.3C99.4,77.5,99.8,77.3,99.9,76.9z"/>
</g>
<path id="path13" class="st3" d="M25.9,86.6l-0.5,0.6l-0.1-0.1c0.1-0.2,0.2-0.4,0.2-0.5c0-0.1-0.1-0.3-0.3-0.5l-0.4-0.5L23.3,87
	c-0.2,0.1-0.3,0.2-0.3,0.3c0,0,0,0.1,0,0.2c0,0.1,0.1,0.1,0.2,0.3l-0.1,0.1l-0.9-1.1l0.1-0.1c0.1,0.2,0.2,0.2,0.3,0.2
	c0.1,0,0.2-0.1,0.4-0.2l1.2-1c0.2-0.1,0.3-0.2,0.3-0.3c0-0.1,0-0.1,0-0.2c0-0.1-0.1-0.2-0.2-0.3l0.1-0.1L25.9,86.6z M24.7,88.7
	c0.1,0.1,0.1,0.2,0.1,0.3c0,0.1,0,0.2-0.1,0.2c-0.1,0.1-0.2,0.1-0.3,0.1c-0.1,0-0.2,0-0.2-0.1c-0.1-0.1-0.1-0.2-0.1-0.3
	c0-0.1,0-0.2,0.1-0.2c0.1-0.1,0.2-0.1,0.3-0.1C24.6,88.6,24.7,88.6,24.7,88.7z M28.9,90.4l1.6,1.2l0.8-1c0.1-0.2,0.2-0.3,0.2-0.4
	c0-0.1,0-0.1,0-0.2c0-0.1-0.1-0.2-0.2-0.2l-0.1-0.1l0.1-0.1l1.5,1.1l-0.1,0.1l-0.1-0.1c-0.1-0.1-0.2-0.1-0.3-0.1c-0.1,0-0.1,0-0.2,0
	c-0.1,0-0.2,0.1-0.3,0.3L30,93.2c-0.1,0.2-0.2,0.3-0.2,0.4c0,0.1,0,0.1,0,0.2c0,0.1,0.1,0.2,0.2,0.2l0.1,0.1L30,94.2l-1.5-1.1
	l0.1-0.1l0.1,0.1c0.1,0.1,0.3,0.1,0.4,0.1c0.1,0,0.2-0.1,0.4-0.3l0.8-1l-1.6-1.2l-0.8,1c-0.1,0.2-0.2,0.3-0.2,0.4c0,0.1,0,0.1,0,0.2
	c0,0.1,0.1,0.2,0.2,0.2l0.1,0.1L28,92.6l-1.5-1.1l0.1-0.1l0.1,0.1c0.1,0.1,0.3,0.1,0.4,0.1c0.1,0,0.2-0.1,0.4-0.3l1.7-2.2
	c0.1-0.2,0.2-0.3,0.2-0.4c0-0.1,0-0.1,0-0.2c0-0.1-0.1-0.2-0.2-0.2l-0.1-0.1l0.1-0.1l1.5,1.1l-0.1,0.1l-0.1-0.1
	c-0.1-0.1-0.2-0.1-0.3-0.1c-0.1,0-0.1,0-0.2,0c-0.1,0-0.2,0.1-0.3,0.3L28.9,90.4z M35.5,93.5c0.1-0.2,0.2-0.4,0.2-0.5
	c0-0.1-0.2-0.2-0.4-0.4l0.1-0.1l1.6,1l-0.1,0.1c-0.2-0.1-0.4-0.2-0.5-0.2c-0.1,0-0.2,0.2-0.4,0.4l-1.5,2.3c-0.2,0.2-0.2,0.4-0.2,0.5
	c0,0.1,0.1,0.2,0.4,0.4l-0.1,0.1l-1.6-1l0.1-0.1c0.2,0.1,0.4,0.2,0.5,0.2c0.1,0,0.2-0.2,0.4-0.4l1.3-2.1l-3.1,1.1
	c-0.1,0.2-0.2,0.3-0.2,0.3c0,0.1,0,0.1,0.1,0.2c0.1,0.1,0.2,0.2,0.3,0.3l-0.1,0.1l-1.6-1l0.1-0.1c0.2,0.1,0.4,0.2,0.5,0.2
	c0.1,0,0.2-0.2,0.4-0.4l1.5-2.3c0.2-0.2,0.2-0.4,0.2-0.5c0-0.1-0.1-0.2-0.4-0.4l0.1-0.1l1.6,1l-0.1,0.1c-0.2-0.1-0.4-0.2-0.5-0.2
	c-0.1,0-0.2,0.2-0.4,0.4l-1.3,2.1L35.5,93.5z M37.2,98.6l0-0.1c0.2,0.1,0.4,0.1,0.5,0.1c0.1,0,0.2-0.2,0.3-0.5l0.5-1.2l-0.1,0
	c-0.1,0-0.1,0-0.2,0c-0.1,0-0.1,0-0.2,0.1c0,0-0.3,0.2-0.7,0.5l-1.1,0.8l-1-0.4l0-0.1c0.3,0.1,0.6,0.1,0.8-0.1
	c0.2-0.1,0.6-0.4,1.2-0.8c0.2-0.2,0.4-0.3,0.5-0.3c-0.1-0.1-0.1-0.3-0.1-0.4c0-0.1,0-0.4,0.1-0.8c0-0.3,0-0.5,0-0.6
	c0-0.1-0.1-0.1-0.1-0.2c-0.1,0-0.2,0-0.3,0c-0.1,0-0.2,0-0.3,0c-0.1,0-0.1-0.1-0.2-0.2c0-0.1,0-0.1,0-0.2c0-0.1,0.1-0.1,0.2-0.2
	c0.1,0,0.2,0,0.4,0.1c0.2,0.1,0.3,0.2,0.4,0.3c0.1,0.1,0.1,0.3,0.1,0.4c0,0.1,0,0.4-0.1,0.7c0,0.3-0.1,0.5-0.1,0.6
	c0,0.1,0,0.2,0.1,0.3c0.1,0.1,0.2,0.2,0.3,0.2c0,0,0.1,0,0.2,0.1l0.5-1.1c0.1-0.3,0.2-0.4,0.1-0.5c0-0.1-0.2-0.2-0.4-0.3l0-0.1
	l1.7,0.8l0,0.1c-0.2-0.1-0.4-0.1-0.5-0.1c-0.1,0-0.2,0.2-0.3,0.5l-0.5,1.1c0,0,0.1,0.1,0.1,0.1c0.1,0.1,0.3,0.1,0.4,0.1
	c0.1,0,0.2-0.1,0.3-0.1c0.1-0.1,0.2-0.2,0.4-0.5c0.2-0.3,0.4-0.4,0.5-0.5c0.1-0.1,0.2-0.1,0.4-0.2c0.2,0,0.3,0,0.5,0.1
	c0.2,0.1,0.3,0.2,0.3,0.3c0.1,0.1,0.1,0.2,0,0.3c0,0.1-0.1,0.1-0.2,0.1c-0.1,0-0.2,0-0.2,0c-0.1,0-0.1-0.1-0.2-0.2
	c-0.1-0.1-0.2-0.2-0.2-0.2c-0.1,0-0.1,0-0.2,0c-0.1,0-0.2,0.2-0.4,0.4c-0.2,0.3-0.4,0.5-0.5,0.6c-0.1,0.1-0.2,0.1-0.4,0.2
	c0.1,0.1,0.1,0.2,0.1,0.4c0,0.1,0.1,0.4,0.1,0.9c0,0.5,0.1,0.8,0.2,0.9c0.1,0.2,0.2,0.3,0.4,0.4l0,0.1l-1-0.4c0-0.1,0-0.4-0.1-1
	l-0.1-1c0-0.1,0-0.1,0-0.2c0-0.1-0.1-0.1-0.2-0.2c0,0,0,0-0.1,0l-0.5,1.2c-0.1,0.3-0.2,0.4-0.1,0.5c0,0.1,0.2,0.2,0.4,0.3l0,0.1
	L37.2,98.6z M43.5,98.7l1.9,0.6l0.4-1.2c0.1-0.2,0.1-0.3,0.1-0.4c0-0.1,0-0.1-0.1-0.2c-0.1-0.1-0.2-0.1-0.3-0.2l-0.1,0l0-0.1
	l1.8,0.6l0,0.1l-0.1,0c-0.1,0-0.2,0-0.3,0c-0.1,0-0.1,0-0.2,0.1c0,0.1-0.1,0.2-0.2,0.4l-0.9,2.6c-0.1,0.2-0.1,0.3-0.1,0.4
	c0,0.1,0,0.1,0.1,0.2c0.1,0.1,0.2,0.1,0.3,0.2l0.1,0l0,0.1l-1.8-0.6l0-0.1l0.1,0c0.2,0.1,0.3,0,0.4,0c0.1,0,0.1-0.2,0.2-0.4l0.4-1.2
	l-1.9-0.6l-0.4,1.2c-0.1,0.2-0.1,0.3-0.1,0.4c0,0.1,0,0.1,0.1,0.2c0.1,0.1,0.2,0.1,0.2,0.2l0.1,0l0,0.1l-1.8-0.6l0-0.1l0.1,0
	c0.2,0.1,0.3,0,0.4,0c0.1,0,0.1-0.2,0.2-0.4l0.9-2.6c0.1-0.2,0.1-0.3,0.1-0.4c0-0.1,0-0.1-0.1-0.2c-0.1-0.1-0.2-0.1-0.3-0.2l-0.1,0
	l0-0.1l1.8,0.6l0,0.1l-0.1,0c-0.1,0-0.2,0-0.3,0c-0.1,0-0.1,0-0.2,0.1c0,0.1-0.1,0.2-0.2,0.4L43.5,98.7z M50.6,99.2
	c0-0.3,0-0.4,0-0.5c-0.1-0.1-0.2-0.1-0.5-0.2l0-0.1l1.8,0.3l0,0.1c-0.3,0-0.4,0-0.5,0c-0.1,0.1-0.2,0.2-0.2,0.5l-0.5,2.7
	c-0.1,0.3,0,0.5,0,0.6c0.1,0.1,0.2,0.2,0.5,0.2l0,0.1l-1.8-0.3l0-0.1c0.3,0,0.4,0,0.5,0c0.1-0.1,0.2-0.2,0.2-0.5l0.5-2.4l-2.4,2.2
	c0,0.2,0,0.3,0,0.4c0,0.1,0.1,0.1,0.1,0.2c0.1,0.1,0.2,0.1,0.4,0.1l0,0.1l-1.8-0.3l0-0.1c0.3,0,0.4,0,0.5,0c0.1-0.1,0.2-0.2,0.2-0.5
	l0.5-2.7c0.1-0.3,0-0.5,0-0.6C48,98.1,47.8,98,47.6,98l0-0.1l1.8,0.3l0,0.1c-0.3,0-0.4,0-0.5,0c-0.1,0.1-0.2,0.2-0.2,0.5l-0.5,2.4
	L50.6,99.2z M55.9,97.6c0.1,0,0.1,0,0.2,0.1c0,0.1,0.1,0.1,0.1,0.2c0,0.2-0.1,0.3-0.3,0.5c-0.2,0.1-0.5,0.2-0.9,0.1
	c-0.4,0-0.7-0.1-0.9-0.3c-0.2-0.1-0.3-0.3-0.3-0.5c0-0.1,0-0.1,0.1-0.2c0.1-0.1,0.1-0.1,0.2-0.1c0.1,0,0.1,0,0.2,0.1
	c0,0.1,0.1,0.2,0.2,0.4c0.1,0.3,0.3,0.4,0.6,0.4c0.3,0,0.5-0.1,0.6-0.3c0.1-0.2,0.2-0.3,0.2-0.3C55.7,97.6,55.8,97.6,55.9,97.6z
	 M55.7,99.7c0-0.3,0-0.4-0.1-0.5c-0.1-0.1-0.2-0.1-0.5-0.1l0-0.1l1.9,0.1l0,0.1c-0.3,0-0.4,0-0.5,0.1c-0.1,0.1-0.1,0.2-0.2,0.5
	l-0.2,2.7c0,0.3,0,0.5,0.1,0.5c0.1,0.1,0.2,0.1,0.5,0.2l0,0.1l-1.9-0.1l0-0.1c0.3,0,0.4,0,0.5-0.1c0.1-0.1,0.1-0.2,0.2-0.5l0.2-2.5
	l-2.2,2.4c0,0.2,0,0.3,0,0.4c0,0.1,0.1,0.1,0.1,0.2c0.1,0,0.2,0.1,0.4,0.1l0,0.1l-1.9-0.1l0-0.1c0.3,0,0.4,0,0.5-0.1
	c0.1-0.1,0.1-0.2,0.2-0.5l0.2-2.7c0-0.3,0-0.5-0.1-0.5c-0.1-0.1-0.2-0.1-0.5-0.2l0-0.1l1.9,0.1l0,0.1c-0.3,0-0.4,0-0.5,0.1
	c-0.1,0.1-0.1,0.2-0.2,0.5l-0.2,2.5L55.7,99.7z M61.9,100.9l2-0.2l-0.1-1.2c0-0.2-0.1-0.4-0.1-0.4c0,0-0.1-0.1-0.2-0.1
	c-0.1,0-0.2-0.1-0.3,0l-0.2,0l0-0.1l1.8-0.2l0,0.1l-0.2,0c-0.1,0-0.2,0-0.3,0.1c-0.1,0-0.1,0.1-0.1,0.2c0,0.1,0,0.2,0,0.4l0.3,2.8
	c0,0.2,0.1,0.4,0.1,0.4c0,0.1,0.1,0.1,0.1,0.1c0.1,0,0.2,0.1,0.3,0l0.2,0l0,0.1l-1.8,0.2l0-0.1l0.2,0c0.2,0,0.3-0.1,0.4-0.2
	c0-0.1,0.1-0.2,0-0.5l-0.2-1.3l-2,0.2l0.2,1.3c0,0.2,0.1,0.4,0.1,0.4c0,0.1,0.1,0.1,0.1,0.1c0.1,0,0.2,0.1,0.3,0l0.2,0l0,0.1
	l-1.8,0.2l0-0.1l0.2,0c0.2,0,0.3-0.1,0.4-0.2c0-0.1,0-0.2,0-0.5l-0.3-2.8c0-0.2-0.1-0.4-0.1-0.4c0,0-0.1-0.1-0.1-0.1
	c-0.1,0-0.2-0.1-0.3,0l-0.2,0l0-0.1l1.8-0.2l0,0.1l-0.2,0c-0.1,0-0.2,0-0.3,0.1c-0.1,0-0.1,0.1-0.1,0.2c0,0.1,0,0.2,0,0.4
	L61.9,100.9z M67.6,97.8c0.5-0.1,1.1,0,1.6,0.3c0.5,0.3,0.8,0.8,1,1.4c0.1,0.6,0.1,1.2-0.2,1.7c-0.3,0.5-0.7,0.8-1.3,1
	c-0.6,0.1-1.1,0-1.6-0.3c-0.5-0.3-0.8-0.8-1-1.5c-0.2-0.7-0.1-1.3,0.3-1.8C66.6,98.2,67.1,97.9,67.6,97.8z M67.6,98
	c-0.4,0.1-0.6,0.3-0.8,0.6c-0.2,0.4-0.2,1-0.1,1.6c0.2,0.7,0.4,1.2,0.8,1.5c0.3,0.2,0.6,0.3,1,0.2c0.4-0.1,0.7-0.3,0.9-0.7
	c0.2-0.4,0.2-0.9,0-1.5c-0.2-0.7-0.4-1.2-0.8-1.5C68.4,98,68,97.9,67.6,98z M73.7,98.2c0.3,0,0.5,0,0.7,0.1c0.3,0.1,0.4,0.3,0.5,0.6
	c0.1,0.2,0.1,0.4,0,0.6c-0.1,0.2-0.2,0.4-0.4,0.6c-0.2,0.2-0.5,0.3-1,0.5l-1.9,0.7l0-0.1l0.2-0.1c0.2-0.1,0.3-0.2,0.3-0.3
	c0-0.1,0-0.2-0.1-0.5l-0.9-2.6c-0.1-0.3-0.2-0.4-0.3-0.4c-0.1-0.1-0.2-0.1-0.4,0l-0.2,0.1l0-0.1l1.8-0.6c0.3-0.1,0.6-0.2,0.8-0.2
	c0.3,0,0.6,0,0.8,0.1c0.2,0.1,0.4,0.3,0.5,0.5c0.1,0.2,0.1,0.4,0,0.6C74.1,97.9,73.9,98,73.7,98.2L73.7,98.2z M72.1,98.6
	c0.1,0,0.2,0,0.3-0.1c0.1,0,0.2-0.1,0.3-0.1c0.3-0.1,0.5-0.2,0.6-0.3c0.1-0.1,0.2-0.3,0.2-0.4c0-0.2,0-0.3,0-0.5
	c-0.1-0.2-0.3-0.4-0.5-0.5c-0.3-0.1-0.6-0.1-0.9,0c-0.2,0.1-0.4,0.2-0.5,0.3L72.1,98.6z M72.8,100.5c0.3,0,0.5-0.1,0.7-0.2
	c0.4-0.1,0.6-0.3,0.7-0.5s0.2-0.5,0.1-0.7c-0.1-0.2-0.2-0.3-0.3-0.4c-0.1-0.1-0.3-0.2-0.5-0.2s-0.5,0-0.8,0.1
	c-0.1,0-0.2,0.1-0.3,0.1c-0.1,0-0.2,0.1-0.2,0.1L72.8,100.5z M77.9,94.1l0.4,0.9l-0.1,0c-0.1-0.2-0.2-0.3-0.3-0.4
	c-0.1-0.1-0.2-0.1-0.4-0.1c-0.1,0-0.3,0.1-0.5,0.2L76,95.2l1.4,3c0.1,0.3,0.2,0.4,0.3,0.4c0.1,0,0.3,0,0.5-0.1l0,0.1l-1.7,0.8l0-0.1
	c0.2-0.1,0.4-0.2,0.4-0.3c0-0.1,0-0.3-0.1-0.5l-1.1-2.5c-0.1-0.3-0.2-0.4-0.3-0.4c-0.1,0-0.3,0-0.5,0.1l0-0.1L77.9,94.1z M79.8,92.7
	c0.5-0.3,1-0.4,1.6-0.3c0.6,0.1,1,0.5,1.4,1c0.4,0.5,0.5,1.1,0.4,1.7c-0.1,0.6-0.4,1-0.9,1.4c-0.5,0.3-1,0.4-1.6,0.3
	c-0.6-0.1-1-0.5-1.4-1c-0.4-0.6-0.5-1.2-0.3-1.8C79,93.5,79.3,93.1,79.8,92.7z M79.9,93c-0.3,0.2-0.5,0.5-0.5,0.9
	c0,0.5,0.1,1,0.5,1.6c0.4,0.6,0.8,1,1.3,1.1c0.4,0.1,0.7,0.1,1-0.1c0.3-0.2,0.5-0.5,0.6-0.9c0-0.4-0.1-0.9-0.5-1.5
	c-0.4-0.6-0.8-1-1.3-1.1C80.6,92.7,80.2,92.7,79.9,93z M84.6,92.3l0.8,1c0.2,0.2,0.3,0.3,0.4,0.3c0.1,0,0.2,0,0.4-0.1l0.1-0.1
	l0.1,0.1l-1.5,1.1l-0.1-0.1l0.1-0.1c0.1-0.1,0.2-0.2,0.2-0.4c0-0.1-0.1-0.2-0.2-0.4l-1.7-2.2c-0.2-0.2-0.3-0.3-0.4-0.3
	c-0.1,0-0.2,0-0.4,0.1l-0.1,0.1l-0.1-0.1l1.2-1c0.3-0.2,0.6-0.4,0.8-0.5c0.2-0.1,0.5-0.1,0.7,0c0.2,0.1,0.4,0.2,0.6,0.4
	c0.2,0.3,0.3,0.6,0.3,0.9c0,0.3-0.2,0.6-0.6,0.9c-0.1,0.1-0.2,0.1-0.3,0.2C84.9,92.2,84.8,92.3,84.6,92.3z M84.5,92.2
	c0.1-0.1,0.2-0.1,0.3-0.1c0.1,0,0.1-0.1,0.2-0.1c0.2-0.1,0.3-0.3,0.3-0.6c0-0.2-0.1-0.5-0.2-0.7c-0.1-0.1-0.3-0.3-0.4-0.3
	c-0.2-0.1-0.3-0.1-0.5-0.1c-0.2,0-0.3,0.1-0.4,0.2c-0.1,0.1-0.2,0.2-0.3,0.3L84.5,92.2z M86.9,87.3c0.4-0.4,0.9-0.6,1.5-0.5
	c0.6,0,1.1,0.3,1.5,0.7c0.5,0.5,0.7,1,0.7,1.6c0,0.6-0.2,1.1-0.6,1.5c-0.4,0.4-0.9,0.6-1.5,0.6c-0.6,0-1.1-0.3-1.6-0.8
	c-0.5-0.5-0.7-1.1-0.7-1.7C86.2,88.2,86.5,87.7,86.9,87.3z M87,87.5c-0.3,0.3-0.4,0.6-0.4,1c0,0.5,0.3,0.9,0.8,1.4
	c0.5,0.5,1,0.8,1.5,0.9c0.4,0,0.7-0.1,1-0.3c0.3-0.3,0.4-0.6,0.4-1c0-0.4-0.3-0.9-0.8-1.4c-0.5-0.5-1-0.8-1.5-0.9
	C87.6,87.1,87.3,87.2,87,87.5z M89,85.3l2.3-2.7l0.1,0.1c-0.2,0.2-0.2,0.4-0.2,0.5c0,0.1,0.1,0.3,0.3,0.4l1.8,1.6
	c0.3,0.3,0.6,0.5,0.7,0.5c0.1,0,0.3-0.1,0.5-0.3l1,0.9l-0.1,0.1c-0.3-0.2-0.5-0.2-0.8-0.3c-0.2,0-0.4,0-0.6,0.1
	c-0.2,0.1-0.3,0.2-0.5,0.4l-0.7,0.8c-0.3,0.4-0.4,0.7-0.4,1.1c0,0.3,0.2,0.6,0.4,0.9l-0.1,0.1l-1-0.9c0.2-0.3,0.2-0.6,0.1-1
	c-0.1-0.4-0.4-0.8-0.8-1.3c-0.4-0.4-0.7-0.8-0.9-1c-0.2-0.1-0.3-0.2-0.4-0.2c-0.1,0-0.2,0-0.3,0C89.4,85.1,89.3,85.2,89,85.3
	L89,85.3z M89.9,84.7c0.9,0.9,1.5,1.5,1.8,2c0.3,0.4,0.5,0.9,0.5,1.2l1-1.2c0.2-0.2,0.3-0.4,0.3-0.4c0-0.1-0.1-0.2-0.3-0.4l-2.5-2.2
	L89.9,84.7z"/>
<path id="path15" class="st3" d="M20.8,80.7c0.5,0,0.9,0.4,0.9,0.9c0,0.5-0.4,0.9-0.9,0.9s-0.9-0.4-0.9-0.9
	C19.8,81.1,20.2,80.7,20.8,80.7z"/>
<path id="path17" class="st3" d="M95.6,80c0.5,0,0.9,0.4,0.9,0.9c0,0.5-0.4,0.9-0.9,0.9c-0.5,0-0.9-0.4-0.9-0.9
	C94.7,80.4,95.1,80,95.6,80z"/>
<path id="path19" class="st3" d="M22,67.4c-0.2-0.5-0.1-1.1,0.2-1.6c0.3-0.5,0.7-0.9,1.4-1c0.6-0.2,1.2-0.1,1.7,0.1
	c0.5,0.3,0.9,0.7,1,1.3c0.2,0.6,0.1,1.1-0.2,1.6c-0.3,0.5-0.8,0.9-1.4,1c-0.7,0.2-1.3,0.1-1.8-0.2C22.5,68.3,22.2,67.9,22,67.4z
	 M22.2,67.4c0.1,0.4,0.3,0.6,0.7,0.8c0.4,0.2,1,0.2,1.6,0c0.7-0.2,1.2-0.5,1.4-0.9c0.2-0.3,0.3-0.6,0.2-1c-0.1-0.4-0.4-0.7-0.7-0.8
	c-0.4-0.2-0.9-0.2-1.5,0c-0.7,0.2-1.2,0.5-1.5,0.9C22.2,66.6,22.1,67,22.2,67.4z M20.6,56.1l1,0l0,0.1c-0.2,0-0.4,0.1-0.5,0.1
	c-0.1,0.1-0.2,0.2-0.2,0.3c0,0.1,0,0.3,0,0.5l0,1.2l3.3,0c0.3,0,0.5,0,0.5-0.1c0.1-0.1,0.1-0.2,0.1-0.5l0.1,0l0,1.8l-0.1,0
	c0-0.3-0.1-0.4-0.1-0.5c-0.1-0.1-0.3-0.1-0.5-0.1l-2.7,0c-0.3,0-0.5,0-0.5,0.1c-0.1,0.1-0.1,0.2-0.1,0.5l-0.1,0L20.6,56.1z
	 M23.6,49.8l1.2,0.3c0.3,0.1,0.4,0.1,0.5,0c0.1-0.1,0.2-0.2,0.2-0.3l0-0.2l0.1,0l-0.4,1.8l-0.1,0l0-0.2c0-0.2,0-0.3-0.1-0.4
	c-0.1-0.1-0.2-0.1-0.4-0.2L21.9,50c-0.3-0.1-0.4-0.1-0.5,0c-0.1,0.1-0.2,0.2-0.2,0.3l0,0.2l-0.1,0l0.4-1.5c0.1-0.4,0.2-0.7,0.3-0.9
	c0.1-0.2,0.3-0.4,0.5-0.5c0.2-0.1,0.5-0.1,0.7-0.1c0.3,0.1,0.6,0.3,0.8,0.5c0.2,0.3,0.2,0.6,0.1,1c0,0.1-0.1,0.2-0.1,0.3
	C23.7,49.5,23.6,49.7,23.6,49.8z M23.4,49.8c0-0.1,0.1-0.2,0.1-0.3c0-0.1,0.1-0.2,0.1-0.2c0-0.2,0-0.4-0.1-0.6
	c-0.1-0.2-0.3-0.3-0.6-0.4c-0.2,0-0.4,0-0.5,0c-0.2,0-0.3,0.1-0.4,0.2c-0.1,0.1-0.2,0.3-0.2,0.4c0,0.1,0,0.2,0,0.4L23.4,49.8z
	 M26,41.6l0.9-1.8l-1.1-0.6c-0.2-0.1-0.3-0.2-0.4-0.2c-0.1,0-0.1,0-0.2,0.1c-0.1,0.1-0.2,0.1-0.2,0.2L25,39.5l-0.1-0.1l0.9-1.6
	l0.1,0.1L25.8,38c0,0.1-0.1,0.2-0.1,0.3c0,0.1,0,0.1,0.1,0.2c0,0.1,0.2,0.1,0.4,0.2l2.5,1.3c0.2,0.1,0.3,0.2,0.4,0.2
	c0.1,0,0.1,0,0.2-0.1c0.1-0.1,0.2-0.1,0.2-0.2l0.1-0.1l0.1,0.1l-0.9,1.6l-0.1-0.1l0.1-0.1c0.1-0.2,0.1-0.3,0-0.4
	c0-0.1-0.2-0.2-0.4-0.3L27.1,40l-0.9,1.8l1.2,0.6c0.2,0.1,0.3,0.2,0.4,0.2c0.1,0,0.1,0,0.2-0.1c0.1-0.1,0.2-0.1,0.2-0.2l0.1-0.1
	l0.1,0.1l-0.9,1.6l-0.1-0.1l0.1-0.1c0.1-0.2,0.1-0.3,0-0.4c0-0.1-0.2-0.2-0.4-0.3l-2.5-1.3c-0.2-0.1-0.3-0.2-0.4-0.2
	c-0.1,0-0.1,0-0.2,0.1c-0.1,0.1-0.2,0.1-0.2,0.2l-0.1,0.1l-0.1-0.1l0.9-1.6l0.1,0.1l-0.1,0.1c0,0.1-0.1,0.2-0.1,0.3
	c0,0.1,0,0.1,0.1,0.2c0,0.1,0.2,0.1,0.4,0.2L26,41.6z M31.7,33.4c-0.4-0.3-0.6-0.7-0.8-1c-0.2-0.4-0.2-0.7-0.2-1
	c0-0.2,0.1-0.4,0.3-0.6c0.2-0.2,0.6-0.3,1-0.3c0.5,0,1.1,0.3,1.6,0.8c0.4,0.3,0.6,0.7,0.8,1c0.2,0.3,0.2,0.7,0.2,0.9
	c0,0.3-0.1,0.5-0.3,0.6c-0.3,0.3-0.7,0.4-1.2,0.2C32.6,34.1,32.1,33.8,31.7,33.4z M32.2,33c0.4,0.4,0.8,0.7,1.2,0.8
	c0.3,0.1,0.6,0.1,0.7-0.1c0.1-0.1,0.1-0.2,0.1-0.4c0-0.2-0.1-0.3-0.2-0.6c-0.2-0.3-0.5-0.7-1-1.2c-0.4-0.3-0.7-0.6-1-0.7
	c-0.2-0.1-0.4-0.2-0.6-0.1c-0.1,0-0.2,0.1-0.3,0.2c-0.1,0.1-0.1,0.2-0.1,0.4c0,0.2,0.2,0.5,0.4,0.8C31.7,32.5,31.9,32.7,32.2,33z
	 M37.6,28.1c-0.3-0.4-0.4-0.8-0.5-1.2c-0.1-0.4,0-0.7,0.1-1c0.1-0.2,0.2-0.4,0.4-0.5c0.3-0.2,0.6-0.2,1,0c0.5,0.2,0.9,0.6,1.3,1.2
	c0.3,0.4,0.4,0.8,0.5,1.2c0.1,0.4,0,0.7-0.1,0.9c-0.1,0.3-0.2,0.4-0.4,0.5c-0.3,0.2-0.8,0.2-1.3-0.1C38.3,29,37.9,28.6,37.6,28.1z
	 M38.2,27.9c0.3,0.5,0.6,0.9,1,1.1c0.3,0.2,0.5,0.2,0.7,0.1c0.1-0.1,0.2-0.2,0.2-0.3c0-0.2,0-0.3,0-0.6c-0.1-0.4-0.3-0.8-0.7-1.4
	c-0.3-0.4-0.5-0.7-0.8-1c-0.2-0.2-0.4-0.3-0.5-0.3c-0.1,0-0.2,0-0.3,0.1c-0.1,0.1-0.2,0.2-0.2,0.4c0,0.2,0,0.5,0.2,0.9
	C37.8,27.2,38,27.5,38.2,27.9z M44.4,24.4c-0.2-0.5-0.3-0.9-0.3-1.3c0-0.4,0.1-0.7,0.2-1c0.1-0.2,0.3-0.3,0.5-0.4
	c0.3-0.1,0.6-0.1,1,0.1c0.5,0.3,0.8,0.7,1.1,1.4c0.2,0.5,0.3,0.9,0.3,1.3c0,0.4-0.1,0.7-0.2,0.9c-0.1,0.2-0.3,0.4-0.5,0.5
	c-0.4,0.2-0.8,0.1-1.2-0.3C44.9,25.4,44.6,25,44.4,24.4z M45,24.3c0.2,0.5,0.5,1,0.7,1.3c0.2,0.2,0.5,0.3,0.7,0.2
	c0.1,0,0.2-0.1,0.3-0.3c0.1-0.1,0.1-0.3,0.1-0.6c0-0.4-0.2-0.9-0.4-1.5c-0.2-0.5-0.4-0.8-0.6-1.1c-0.2-0.2-0.3-0.3-0.5-0.4
	c-0.1,0-0.2,0-0.3,0c-0.1,0.1-0.2,0.2-0.3,0.3c-0.1,0.2-0.1,0.5,0,0.9C44.7,23.6,44.8,23.9,45,24.3z M51.9,22.2
	c-0.1-0.5-0.1-0.9,0-1.3c0.1-0.4,0.3-0.7,0.5-0.9c0.2-0.2,0.4-0.3,0.6-0.3c0.3,0,0.6,0.1,1,0.4c0.4,0.4,0.6,0.9,0.7,1.6
	c0.1,0.5,0.1,0.9,0,1.3c-0.1,0.4-0.2,0.6-0.4,0.8c-0.2,0.2-0.4,0.3-0.6,0.3c-0.4,0.1-0.8-0.1-1.1-0.6C52.2,23.3,52,22.8,51.9,22.2z
	 M52.6,22.2c0.1,0.6,0.2,1.1,0.4,1.4c0.2,0.3,0.4,0.4,0.6,0.4c0.1,0,0.2-0.1,0.3-0.2c0.1-0.1,0.2-0.3,0.2-0.6c0-0.4,0-0.9-0.1-1.5
	c-0.1-0.5-0.2-0.9-0.3-1.2c-0.1-0.2-0.2-0.4-0.4-0.5C53.3,20,53.2,20,53,20c-0.1,0-0.3,0.1-0.4,0.2c-0.1,0.2-0.2,0.5-0.2,0.9
	C52.5,21.5,52.5,21.9,52.6,22.2z M59.7,21.8c0-0.5,0.1-0.9,0.3-1.2c0.2-0.3,0.4-0.6,0.6-0.7c0.2-0.1,0.4-0.2,0.6-0.2
	c0.3,0,0.6,0.2,0.8,0.6c0.3,0.4,0.4,1,0.4,1.7c0,0.5-0.1,0.9-0.3,1.3c-0.2,0.3-0.4,0.6-0.6,0.7c-0.2,0.1-0.5,0.2-0.7,0.2
	c-0.4,0-0.7-0.3-1-0.8C59.8,22.9,59.7,22.4,59.7,21.8z M60.3,21.9c0,0.6,0,1.1,0.1,1.5c0.1,0.3,0.3,0.5,0.5,0.5c0.1,0,0.2,0,0.4-0.1
	c0.1-0.1,0.2-0.3,0.3-0.5c0.1-0.4,0.2-0.9,0.3-1.5c0-0.5,0-0.9-0.1-1.2c-0.1-0.2-0.1-0.4-0.3-0.5c-0.1-0.1-0.2-0.1-0.3-0.1
	c-0.1,0-0.3,0-0.4,0.2c-0.2,0.2-0.3,0.4-0.4,0.8C60.4,21.2,60.4,21.6,60.3,21.9z M67.5,23.1c0.2-0.5,0.4-0.8,0.6-1.1
	c0.3-0.3,0.5-0.5,0.8-0.6c0.2-0.1,0.4-0.1,0.6,0c0.3,0.1,0.5,0.4,0.7,0.8c0.2,0.5,0.1,1.1-0.1,1.8c-0.2,0.5-0.4,0.9-0.6,1.1
	c-0.3,0.3-0.5,0.5-0.8,0.5c-0.3,0.1-0.5,0.1-0.7,0c-0.4-0.1-0.6-0.5-0.7-1C67.3,24.1,67.3,23.6,67.5,23.1z M68.1,23.4
	c-0.2,0.6-0.3,1-0.3,1.4c0,0.3,0.1,0.5,0.4,0.6c0.1,0,0.2,0,0.4,0c0.1-0.1,0.3-0.2,0.4-0.4c0.2-0.3,0.4-0.8,0.6-1.4
	c0.2-0.5,0.2-0.9,0.3-1.2c0-0.3,0-0.5-0.1-0.6c-0.1-0.1-0.1-0.2-0.3-0.2c-0.1,0-0.3,0-0.4,0.1c-0.2,0.1-0.4,0.3-0.6,0.7
	C68.4,22.7,68.2,23,68.1,23.4z M74.6,26.1c0.2-0.4,0.5-0.8,0.8-1c0.3-0.2,0.6-0.4,0.9-0.4c0.2,0,0.4,0,0.6,0.1
	c0.3,0.2,0.5,0.5,0.5,0.9c0.1,0.5,0,1.1-0.4,1.7c-0.2,0.4-0.5,0.8-0.8,1c-0.3,0.2-0.6,0.4-0.9,0.4c-0.3,0-0.5,0-0.7-0.1
	c-0.4-0.2-0.5-0.6-0.5-1.1C74.2,27.1,74.4,26.6,74.6,26.1z M75.1,26.4c-0.3,0.5-0.5,1-0.5,1.4c0,0.3,0,0.6,0.2,0.7
	c0.1,0.1,0.2,0.1,0.4,0c0.2,0,0.3-0.1,0.5-0.3c0.3-0.3,0.6-0.7,0.9-1.3c0.2-0.4,0.4-0.8,0.5-1.1c0.1-0.3,0-0.4,0-0.6
	c0-0.1-0.1-0.2-0.2-0.2c-0.1-0.1-0.3-0.1-0.4,0c-0.2,0.1-0.4,0.3-0.7,0.6C75.5,25.8,75.3,26.1,75.1,26.4z M81.1,30.6
	c0.3-0.4,0.7-0.6,1-0.8c0.4-0.2,0.7-0.2,1-0.2c0.2,0,0.4,0.1,0.6,0.3c0.2,0.2,0.3,0.6,0.3,1c0,0.5-0.3,1.1-0.8,1.6
	c-0.3,0.4-0.7,0.6-1,0.8c-0.3,0.2-0.7,0.2-0.9,0.2c-0.3,0-0.5-0.1-0.6-0.3c-0.3-0.3-0.4-0.7-0.2-1.2C80.4,31.5,80.7,31,81.1,30.6z
	 M81.5,31.1c-0.4,0.4-0.7,0.8-0.8,1.2c-0.1,0.3-0.1,0.6,0.1,0.7c0.1,0.1,0.2,0.1,0.4,0.1c0.2,0,0.3-0.1,0.6-0.2
	c0.3-0.2,0.7-0.5,1.2-1c0.3-0.4,0.6-0.7,0.7-1c0.1-0.2,0.2-0.4,0.1-0.6c0-0.1-0.1-0.2-0.2-0.3c-0.1-0.1-0.2-0.1-0.4-0.1
	c-0.2,0-0.5,0.2-0.8,0.4C82,30.6,81.7,30.8,81.5,31.1z M86.4,36.4c0.4-0.3,0.8-0.4,1.2-0.5c0.4-0.1,0.7,0,1,0.1
	c0.2,0.1,0.4,0.2,0.5,0.4c0.2,0.3,0.2,0.6,0,1c-0.2,0.5-0.6,0.9-1.2,1.3c-0.4,0.3-0.8,0.4-1.2,0.5c-0.4,0.1-0.7,0-0.9-0.1
	c-0.3-0.1-0.4-0.2-0.5-0.4c-0.2-0.3-0.2-0.8,0.1-1.3C85.6,37.1,85.9,36.8,86.4,36.4z M86.7,37c-0.5,0.3-0.9,0.6-1.1,1
	c-0.2,0.3-0.2,0.5-0.1,0.7c0.1,0.1,0.2,0.2,0.3,0.2c0.2,0,0.3,0,0.6,0c0.4-0.1,0.8-0.3,1.4-0.7c0.4-0.3,0.7-0.5,1-0.8
	c0.2-0.2,0.3-0.4,0.3-0.5c0-0.1,0-0.2-0.1-0.3c-0.1-0.1-0.2-0.2-0.4-0.2c-0.2,0-0.5,0-0.9,0.2C87.3,36.6,87,36.8,86.7,37z
	 M90.1,43.2c0.5-0.2,0.9-0.3,1.3-0.3c0.4,0,0.7,0.1,1,0.2c0.2,0.1,0.3,0.3,0.4,0.5c0.1,0.3,0.1,0.6-0.1,1c-0.3,0.5-0.7,0.8-1.4,1.1
	c-0.5,0.2-0.9,0.3-1.3,0.3c-0.4,0-0.7-0.1-0.9-0.2c-0.2-0.1-0.4-0.3-0.5-0.5c-0.2-0.4-0.1-0.8,0.3-1.2
	C89.2,43.7,89.6,43.4,90.1,43.2z M90.3,43.8c-0.5,0.2-1,0.5-1.3,0.7c-0.2,0.2-0.3,0.5-0.2,0.7c0,0.1,0.1,0.2,0.3,0.3
	c0.1,0.1,0.3,0.1,0.6,0.1c0.4,0,0.9-0.2,1.5-0.4c0.5-0.2,0.8-0.4,1.1-0.6c0.2-0.2,0.3-0.3,0.4-0.5c0-0.1,0-0.2,0-0.3
	c-0.1-0.1-0.2-0.2-0.3-0.3c-0.2-0.1-0.5-0.1-0.9,0C91,43.6,90.6,43.7,90.3,43.8z M92.4,50.8c0.5-0.1,0.9-0.1,1.3,0
	c0.4,0.1,0.7,0.3,0.9,0.5c0.2,0.2,0.3,0.4,0.3,0.6c0,0.3-0.1,0.6-0.4,1c-0.4,0.4-0.9,0.6-1.6,0.7c-0.5,0.1-0.9,0.1-1.3,0
	c-0.4-0.1-0.6-0.2-0.8-0.4c-0.2-0.2-0.3-0.4-0.3-0.6c-0.1-0.4,0.1-0.8,0.6-1.1C91.3,51,91.8,50.9,92.4,50.8z M92.4,51.4
	c-0.6,0.1-1.1,0.2-1.4,0.4c-0.3,0.2-0.4,0.4-0.4,0.6c0,0.1,0.1,0.2,0.2,0.3c0.1,0.1,0.3,0.2,0.5,0.2c0.4,0,0.9,0,1.5-0.1
	c0.5-0.1,0.9-0.2,1.2-0.3c0.2-0.1,0.4-0.2,0.5-0.4c0.1-0.1,0.1-0.2,0.1-0.3c0-0.1-0.1-0.3-0.2-0.4c-0.2-0.1-0.5-0.2-0.9-0.2
	C93.1,51.3,92.7,51.4,92.4,51.4z M92.8,58.6c0.5,0,0.9,0.1,1.2,0.3c0.3,0.2,0.6,0.4,0.7,0.6c0.1,0.2,0.2,0.4,0.2,0.6
	c0,0.3-0.2,0.6-0.6,0.8c-0.4,0.3-1,0.4-1.7,0.4c-0.5,0-0.9-0.1-1.3-0.3c-0.3-0.2-0.6-0.4-0.7-0.6c-0.1-0.2-0.2-0.5-0.2-0.7
	c0-0.4,0.3-0.7,0.8-1C91.8,58.6,92.3,58.5,92.8,58.6z M92.7,59.2c-0.6,0-1.1,0-1.5,0.1c-0.3,0.1-0.5,0.3-0.5,0.5
	c0,0.1,0,0.2,0.1,0.4c0.1,0.1,0.3,0.2,0.5,0.3c0.4,0.1,0.9,0.2,1.5,0.3c0.5,0,0.9,0,1.2-0.1c0.2-0.1,0.4-0.1,0.5-0.3
	c0.1-0.1,0.1-0.2,0.1-0.3c0-0.1,0-0.3-0.2-0.4c-0.2-0.2-0.4-0.3-0.8-0.4C93.4,59.3,93.1,59.2,92.7,59.2z M91.6,66.4
	c0.5,0.2,0.8,0.4,1.1,0.6c0.3,0.3,0.5,0.5,0.6,0.8c0.1,0.2,0.1,0.4,0,0.6c-0.1,0.3-0.4,0.5-0.8,0.7c-0.5,0.2-1.1,0.1-1.8-0.1
	c-0.5-0.2-0.9-0.4-1.1-0.6c-0.3-0.3-0.5-0.5-0.5-0.8c-0.1-0.3-0.1-0.5,0-0.7c0.1-0.4,0.5-0.6,1-0.7C90.5,66.1,91,66.2,91.6,66.4z
	 M91.3,66.9c-0.6-0.2-1-0.3-1.4-0.3c-0.3,0-0.5,0.1-0.6,0.4c0,0.1,0,0.2,0,0.4c0.1,0.1,0.2,0.3,0.4,0.4c0.3,0.2,0.8,0.4,1.4,0.6
	c0.5,0.2,0.9,0.2,1.2,0.3c0.3,0,0.5,0,0.6-0.1c0.1-0.1,0.2-0.1,0.2-0.3c0-0.1,0-0.3-0.1-0.4c-0.1-0.2-0.3-0.4-0.7-0.6
	C92,67.2,91.7,67.1,91.3,66.9z"/>
<path id="path21" class="st3" d="M33.8,79.9c0.2-0.2,0.3-0.3,0.3-0.4c0-0.1-0.1-0.3-0.2-0.5l0.1-0.1l1.2,1.4l-0.1,0.1
	c-0.2-0.2-0.3-0.3-0.4-0.3c-0.1,0-0.3,0.1-0.5,0.3l-2.1,1.8c-0.2,0.2-0.3,0.3-0.3,0.4c0,0.1,0.1,0.3,0.2,0.5l-0.1,0.1l-1.2-1.4
	l0.1-0.1c0.2,0.2,0.3,0.3,0.4,0.3c0.1,0,0.3-0.1,0.5-0.3l1.9-1.6l-3.3,0.1c-0.1,0.1-0.2,0.2-0.3,0.3c0,0.1,0,0.1,0,0.2
	c0,0.1,0.1,0.2,0.2,0.4l-0.1,0.1L29,79.8l0.1-0.1c0.2,0.2,0.3,0.3,0.4,0.3c0.1,0,0.3-0.1,0.5-0.3l2.1-1.8c0.2-0.2,0.3-0.3,0.3-0.4
	c0-0.1-0.1-0.3-0.2-0.5l0.1-0.1l1.2,1.4l-0.1,0.1c-0.2-0.2-0.3-0.3-0.4-0.3c-0.1,0-0.3,0.1-0.5,0.3L30.6,80L33.8,79.9z M35.8,83.4
	l1.6,1.2l0.8-1c0.1-0.2,0.2-0.3,0.2-0.4c0-0.1,0-0.1,0-0.2c0-0.1-0.1-0.2-0.2-0.2L38,82.7l0.1-0.1l1.5,1.1l-0.1,0.1l-0.1-0.1
	c-0.1-0.1-0.2-0.1-0.3-0.1c-0.1,0-0.1,0-0.2,0c-0.1,0-0.2,0.1-0.3,0.3l-1.7,2.2c-0.1,0.2-0.2,0.3-0.2,0.4c0,0.1,0,0.1,0,0.2
	c0,0.1,0.1,0.2,0.2,0.2l0.1,0.1l-0.1,0.1l-1.5-1.1l0.1-0.1l0.1,0.1c0.1,0.1,0.3,0.1,0.4,0.1c0.1,0,0.2-0.1,0.4-0.3l0.8-1l-1.6-1.2
	l-0.8,1c-0.1,0.2-0.2,0.3-0.2,0.4c0,0.1,0,0.1,0,0.2c0,0.1,0.1,0.2,0.2,0.2l0.1,0.1l-0.1,0.1l-1.5-1.1l0.1-0.1l0.1,0.1
	c0.1,0.1,0.3,0.1,0.4,0.1c0.1,0,0.2-0.1,0.4-0.3L36,82c0.1-0.2,0.2-0.3,0.2-0.4c0-0.1,0-0.1,0-0.2c0-0.1-0.1-0.2-0.2-0.2L36,81.1
	l0.1-0.1l1.5,1.1l-0.1,0.1l-0.1-0.1c-0.1-0.1-0.2-0.1-0.3-0.1c-0.1,0-0.1,0-0.2,0c-0.1,0-0.2,0.1-0.3,0.3L35.8,83.4z M40.8,86.8
	l1.8,1l0.6-1.1c0.1-0.2,0.2-0.3,0.2-0.4c0-0.1,0-0.1-0.1-0.2c-0.1-0.1-0.1-0.2-0.2-0.2l-0.1-0.1l0.1-0.1l1.6,0.9l-0.1,0.1l-0.1-0.1
	c-0.1,0-0.2-0.1-0.3-0.1c-0.1,0-0.1,0-0.2,0.1c-0.1,0-0.1,0.2-0.2,0.4l-1.3,2.5c-0.1,0.2-0.2,0.3-0.2,0.4c0,0.1,0,0.1,0.1,0.2
	c0.1,0.1,0.1,0.2,0.2,0.2l0.1,0.1l-0.1,0.1l-1.6-0.9l0.1-0.1l0.1,0.1c0.2,0.1,0.3,0.1,0.4,0c0.1,0,0.2-0.2,0.3-0.4l0.6-1.2l-1.8-1
	L40,88.1c-0.1,0.2-0.2,0.3-0.2,0.4c0,0.1,0,0.1,0.1,0.2c0.1,0.1,0.1,0.2,0.2,0.2l0.1,0.1l-0.1,0.1l-1.6-0.9l0.1-0.1l0.1,0.1
	c0.2,0.1,0.3,0.1,0.4,0c0.1,0,0.2-0.2,0.3-0.4l1.3-2.5c0.1-0.2,0.2-0.3,0.2-0.4c0-0.1,0-0.1-0.1-0.2c-0.1-0.1-0.1-0.2-0.2-0.2
	l-0.1-0.1l0.1-0.1l1.6,0.9l-0.1,0.1l-0.1-0.1c-0.1,0-0.2-0.1-0.3-0.1c-0.1,0-0.1,0-0.2,0.1c-0.1,0-0.1,0.2-0.2,0.4L40.8,86.8z
	 M46.6,89.6c0.2-0.5,0.4-0.8,0.6-1.1c0.3-0.3,0.5-0.5,0.8-0.6c0.2-0.1,0.4-0.1,0.6,0c0.3,0.1,0.5,0.4,0.7,0.8
	c0.2,0.5,0.1,1.1-0.1,1.8c-0.2,0.5-0.4,0.9-0.6,1.1c-0.2,0.3-0.5,0.5-0.8,0.5c-0.3,0.1-0.5,0.1-0.7,0c-0.4-0.1-0.6-0.5-0.7-1
	C46.4,90.6,46.4,90.1,46.6,89.6z M47.2,89.9c-0.2,0.6-0.3,1-0.3,1.4c0,0.3,0.1,0.5,0.4,0.6c0.1,0,0.2,0,0.4,0
	c0.1-0.1,0.3-0.2,0.4-0.4c0.2-0.3,0.4-0.8,0.6-1.4c0.2-0.5,0.2-0.9,0.3-1.2c0-0.3,0-0.5-0.1-0.6c-0.1-0.1-0.1-0.2-0.3-0.2
	c-0.1,0-0.3,0-0.4,0.1c-0.2,0.1-0.4,0.3-0.6,0.7C47.5,89.2,47.3,89.5,47.2,89.9z M50.8,90.8c0.1-0.5,0.2-0.9,0.4-1.2
	c0.2-0.3,0.4-0.6,0.7-0.7c0.2-0.1,0.4-0.1,0.6-0.1c0.3,0,0.6,0.3,0.8,0.6c0.3,0.5,0.3,1,0.2,1.8c-0.1,0.5-0.2,0.9-0.4,1.2
	c-0.2,0.3-0.4,0.5-0.7,0.7c-0.2,0.1-0.5,0.2-0.7,0.1c-0.4-0.1-0.7-0.4-0.9-0.9C50.8,91.9,50.7,91.4,50.8,90.8z M51.4,91
	c-0.1,0.6-0.1,1.1,0,1.5c0.1,0.3,0.2,0.5,0.5,0.5c0.1,0,0.2,0,0.4-0.1c0.1-0.1,0.3-0.2,0.4-0.5c0.2-0.3,0.3-0.8,0.4-1.5
	c0.1-0.5,0.1-0.9,0-1.2c0-0.3-0.1-0.4-0.2-0.6c-0.1-0.1-0.2-0.1-0.3-0.2c-0.1,0-0.3,0-0.4,0.1c-0.2,0.2-0.3,0.4-0.4,0.8
	C51.6,90.3,51.5,90.6,51.4,91L51.4,91z M55.2,91.5c0-0.5,0.1-0.9,0.2-1.3c0.1-0.4,0.3-0.6,0.6-0.8c0.2-0.1,0.4-0.2,0.6-0.2
	c0.3,0,0.6,0.2,0.9,0.5c0.3,0.4,0.5,1,0.5,1.7c0,0.5-0.1,0.9-0.2,1.3c-0.1,0.3-0.3,0.6-0.6,0.8c-0.2,0.2-0.4,0.2-0.6,0.2
	c-0.4,0-0.8-0.2-1-0.7C55.4,92.5,55.2,92,55.2,91.5z M55.9,91.5c0,0.6,0.1,1.1,0.2,1.5c0.1,0.3,0.3,0.5,0.5,0.5
	c0.1,0,0.2-0.1,0.4-0.2c0.1-0.1,0.2-0.3,0.3-0.5c0.1-0.4,0.1-0.9,0.1-1.5c0-0.5-0.1-0.9-0.2-1.2c-0.1-0.2-0.2-0.4-0.3-0.5
	c-0.1-0.1-0.2-0.1-0.3-0.1c-0.1,0-0.3,0.1-0.4,0.2c-0.2,0.2-0.3,0.5-0.3,0.8C55.9,90.8,55.9,91.2,55.9,91.5z M59.9,91.4
	c0-0.5,0-0.9,0.1-1.3c0.1-0.4,0.3-0.6,0.5-0.8c0.2-0.2,0.4-0.2,0.6-0.2c0.3,0,0.6,0.1,0.9,0.4c0.4,0.4,0.6,0.9,0.6,1.7
	c0,0.5,0,0.9-0.1,1.3c-0.1,0.4-0.3,0.6-0.5,0.8c-0.2,0.2-0.4,0.3-0.6,0.3c-0.4,0-0.8-0.2-1.1-0.6C60,92.5,59.9,92,59.9,91.4z
	 M60.5,91.5c0,0.6,0.2,1.1,0.3,1.4c0.1,0.3,0.3,0.4,0.6,0.4c0.1,0,0.2-0.1,0.3-0.2c0.1-0.1,0.2-0.3,0.2-0.5c0.1-0.4,0.1-0.9,0-1.5
	c0-0.5-0.1-0.9-0.2-1.2c-0.1-0.2-0.2-0.4-0.3-0.5c-0.1-0.1-0.2-0.1-0.3-0.1c-0.1,0-0.3,0.1-0.4,0.2c-0.1,0.2-0.2,0.5-0.2,0.9
	C60.5,90.7,60.5,91.1,60.5,91.5z M64.3,90.9c-0.1-0.5-0.1-0.9-0.1-1.3c0.1-0.4,0.2-0.7,0.4-0.9c0.2-0.2,0.3-0.3,0.5-0.3
	c0.3-0.1,0.6,0,1,0.3c0.4,0.3,0.7,0.8,0.9,1.5c0.1,0.5,0.1,0.9,0.1,1.3c-0.1,0.4-0.2,0.7-0.4,0.9c-0.2,0.2-0.4,0.3-0.6,0.4
	c-0.4,0.1-0.8-0.1-1.2-0.5C64.6,91.9,64.4,91.5,64.3,90.9L64.3,90.9z M64.9,90.9c0.1,0.6,0.3,1,0.5,1.4c0.2,0.3,0.4,0.4,0.6,0.3
	c0.1,0,0.2-0.1,0.3-0.2c0.1-0.1,0.1-0.3,0.2-0.6c0-0.4-0.1-0.9-0.2-1.5c-0.1-0.5-0.3-0.9-0.4-1.2c-0.1-0.2-0.3-0.4-0.4-0.4
	c-0.1,0-0.2-0.1-0.3,0c-0.1,0-0.3,0.1-0.3,0.3c-0.1,0.2-0.1,0.5-0.1,0.9C64.8,90.1,64.8,90.5,64.9,90.9z M68.6,89.8
	c-0.2-0.5-0.3-0.9-0.2-1.3c0-0.4,0.1-0.7,0.3-1c0.1-0.2,0.3-0.3,0.5-0.4c0.3-0.1,0.6-0.1,1,0.2c0.5,0.3,0.8,0.7,1.1,1.4
	c0.2,0.5,0.3,0.9,0.3,1.3c0,0.4-0.1,0.7-0.2,0.9c-0.2,0.2-0.3,0.4-0.5,0.5c-0.4,0.1-0.8,0-1.2-0.3C69.1,90.8,68.8,90.4,68.6,89.8z
	 M69.2,89.7c0.2,0.6,0.5,1,0.7,1.3c0.2,0.3,0.4,0.3,0.7,0.2c0.1,0,0.2-0.1,0.3-0.3c0.1-0.1,0.1-0.3,0.1-0.6c0-0.4-0.2-0.9-0.4-1.5
	c-0.2-0.5-0.4-0.8-0.6-1.1c-0.2-0.2-0.3-0.3-0.5-0.4c-0.1,0-0.2,0-0.3,0c-0.1,0.1-0.2,0.2-0.3,0.3c-0.1,0.2-0.1,0.5,0,0.9
	C69,89,69.1,89.3,69.2,89.7z M72.7,88.2c-0.2-0.4-0.4-0.8-0.4-1.2c0-0.4,0-0.7,0.1-1c0.1-0.2,0.2-0.4,0.4-0.5c0.3-0.2,0.6-0.2,1,0
	c0.5,0.2,0.9,0.6,1.3,1.2c0.2,0.4,0.4,0.8,0.4,1.2c0,0.4,0,0.7-0.1,0.9c-0.1,0.2-0.3,0.4-0.4,0.5c-0.4,0.2-0.8,0.2-1.3-0.1
	C73.4,89,73,88.7,72.7,88.2z M73.3,87.9c0.3,0.5,0.6,0.9,0.9,1.2c0.3,0.2,0.5,0.3,0.7,0.1c0.1-0.1,0.2-0.2,0.2-0.3
	c0.1-0.2,0.1-0.3,0-0.6c-0.1-0.4-0.3-0.8-0.6-1.4c-0.2-0.4-0.5-0.8-0.7-1c-0.2-0.2-0.4-0.3-0.5-0.3c-0.1,0-0.2,0-0.3,0.1
	c-0.1,0.1-0.2,0.2-0.2,0.4c0,0.2,0,0.5,0.1,0.9C73,87.3,73.1,87.6,73.3,87.9z M76.7,85.9c-0.3-0.4-0.5-0.8-0.5-1.2
	c-0.1-0.4-0.1-0.7,0-1c0.1-0.2,0.2-0.4,0.4-0.5c0.3-0.2,0.6-0.2,1-0.1c0.5,0.2,1,0.5,1.4,1.1c0.3,0.4,0.5,0.8,0.5,1.2
	c0.1,0.4,0.1,0.7,0,0.9c-0.1,0.3-0.2,0.4-0.4,0.6c-0.3,0.2-0.8,0.2-1.3,0C77.4,86.7,77,86.3,76.7,85.9L76.7,85.9z M77.3,85.6
	c0.3,0.5,0.7,0.8,1,1.1c0.3,0.2,0.5,0.2,0.7,0.1c0.1-0.1,0.2-0.2,0.2-0.3c0-0.2,0-0.3-0.1-0.6c-0.1-0.4-0.4-0.8-0.7-1.4
	c-0.3-0.4-0.6-0.7-0.8-0.9c-0.2-0.2-0.4-0.2-0.5-0.3c-0.1,0-0.2,0-0.3,0.1c-0.1,0.1-0.2,0.2-0.2,0.4c0,0.2,0,0.5,0.2,0.9
	C76.9,84.9,77.1,85.3,77.3,85.6z M80.3,83.3c-0.3-0.4-0.6-0.7-0.7-1.1c-0.1-0.4-0.2-0.7-0.1-1c0-0.2,0.1-0.4,0.3-0.6
	c0.2-0.2,0.6-0.3,1-0.3c0.5,0.1,1,0.4,1.5,0.9c0.4,0.4,0.6,0.7,0.7,1.1c0.1,0.4,0.2,0.7,0.1,0.9c0,0.3-0.1,0.5-0.3,0.6
	c-0.3,0.3-0.7,0.4-1.2,0.2C81.1,84,80.7,83.7,80.3,83.3z M80.8,82.9c0.4,0.4,0.8,0.7,1.2,0.9c0.3,0.1,0.5,0.1,0.7,0
	c0.1-0.1,0.1-0.2,0.1-0.4c0-0.2,0-0.3-0.2-0.6c-0.2-0.3-0.5-0.7-1-1.2c-0.3-0.4-0.7-0.6-1-0.8c-0.2-0.1-0.4-0.2-0.6-0.2
	c-0.1,0-0.2,0.1-0.3,0.1c-0.1,0.1-0.1,0.2-0.1,0.4c0,0.2,0.1,0.5,0.4,0.8C80.3,82.4,80.6,82.7,80.8,82.9z M83.6,80
	c-0.4-0.3-0.6-0.7-0.8-1c-0.2-0.3-0.2-0.7-0.2-1c0-0.2,0.1-0.4,0.2-0.6c0.2-0.2,0.5-0.4,1-0.3c0.5,0,1.1,0.3,1.6,0.8
	c0.4,0.3,0.6,0.7,0.8,1c0.2,0.3,0.2,0.6,0.2,0.9c0,0.3-0.1,0.5-0.3,0.6c-0.3,0.3-0.7,0.4-1.2,0.3C84.4,80.6,84,80.4,83.6,80z
	 M84,79.6c0.4,0.4,0.8,0.7,1.2,0.8c0.3,0.1,0.6,0.1,0.7-0.1c0.1-0.1,0.1-0.2,0.1-0.4c0-0.2-0.1-0.3-0.2-0.6c-0.2-0.3-0.6-0.7-1-1.1
	c-0.4-0.3-0.7-0.6-1-0.7c-0.2-0.1-0.4-0.2-0.6-0.1c-0.1,0-0.2,0.1-0.3,0.2c-0.1,0.1-0.1,0.2-0.1,0.4c0,0.2,0.2,0.5,0.4,0.8
	C83.5,79.1,83.8,79.3,84,79.6z"/>
<path id="path23" class="st2" d="M57.8,25.8c17.1,0,31,13.9,31,31c0,17.1-13.9,31-31,31c-17.1,0-31-13.9-31-31
	C26.8,39.7,40.7,25.8,57.8,25.8z"/>
<path id="path25" class="st3" d="M27.2,72.7c0.5,0,0.9,0.4,0.9,0.9c0,0.5-0.4,0.9-0.9,0.9s-0.9-0.4-0.9-0.9
	C26.3,73.1,26.7,72.7,27.2,72.7z"/>
<path id="path27" class="st3" d="M88.6,72.9c0.5,0,0.9,0.4,0.9,0.9c0,0.5-0.4,0.9-0.9,0.9c-0.5,0-0.9-0.4-0.9-0.9
	C87.7,73.3,88.1,72.9,88.6,72.9z"/>
<g id="Layer1001">
	<path id="path29" class="st3" d="M44,53.6c-0.2-0.5-0.4-0.8-0.6-1c-0.3-0.2-0.6-0.3-0.9-0.3c-0.6,0-1.1,0.3-1.4,1
		c-0.3,0.6-0.4,1.4-0.4,2.4c0,1.2,0.2,2.2,0.6,2.8c0.3,0.4,0.7,0.6,1.2,0.6c0.3,0,0.6-0.1,0.9-0.3c0.3-0.2,0.5-0.6,0.7-1.1
		c0.2-0.5,0.2-1.2,0.2-2C44.2,54.8,44.2,54.1,44,53.6z M43.5,57.6c-0.1,0.3-0.3,0.6-0.5,0.8c-0.2,0.1-0.3,0.2-0.5,0.2
		c-0.3,0-0.5-0.1-0.7-0.4c-0.5-0.7-0.5-1.7-0.5-2.5c0-0.7,0-1.6,0.3-2.2c0.2-0.4,0.4-0.7,0.9-0.7c0.2,0,0.4,0.1,0.6,0.2
		c0.2,0.2,0.4,0.5,0.5,0.8c0.2,0.6,0.2,1.4,0.2,2C43.7,56.3,43.7,57,43.5,57.6z M49.6,55c-0.1-0.3-0.3-0.5-0.6-0.5
		c-0.3,0-0.5,0.2-0.6,0.5s-0.2,1-0.2,1.8c0,0.9,0.1,1.5,0.2,1.8c0.1,0.3,0.3,0.4,0.6,0.4c0.2,0,0.3-0.1,0.4-0.2
		c0.1-0.2,0.2-0.4,0.2-0.8c0-0.3,0.1-1,0.1-1.9C49.8,55.8,49.7,55.3,49.6,55z M49.1,58.1c0,0.1,0,0.4-0.1,0.5c0,0,0,0,0,0
		c-0.1-0.4-0.1-1.3-0.1-1.7c0-0.5,0-1.2,0.1-1.7c0,0,0-0.1,0.1-0.1c0,0,0,0,0,0c0,0,0,0.1,0,0.1c0.1,0.3,0.1,0.8,0.1,1.2
		C49.2,56.9,49.2,57.5,49.1,58.1z M49.6,55c-0.1-0.3-0.3-0.5-0.6-0.5c-0.3,0-0.5,0.2-0.6,0.5s-0.2,1-0.2,1.8c0,0.9,0.1,1.5,0.2,1.8
		c0.1,0.3,0.3,0.4,0.6,0.4c0.2,0,0.3-0.1,0.4-0.2c0.1-0.2,0.2-0.4,0.2-0.8c0-0.3,0.1-1,0.1-1.9C49.8,55.8,49.7,55.3,49.6,55z
		 M49.1,58.1c0,0.1,0,0.4-0.1,0.5c0,0,0,0,0,0c-0.1-0.4-0.1-1.3-0.1-1.7c0-0.5,0-1.2,0.1-1.7c0,0,0-0.1,0.1-0.1c0,0,0,0,0,0
		c0,0,0,0.1,0,0.1c0.1,0.3,0.1,0.8,0.1,1.2C49.2,56.9,49.2,57.5,49.1,58.1z M44,53.6c-0.2-0.5-0.4-0.8-0.6-1
		c-0.3-0.2-0.6-0.3-0.9-0.3c-0.6,0-1.1,0.3-1.4,1c-0.3,0.6-0.4,1.4-0.4,2.4c0,1.2,0.2,2.2,0.6,2.8c0.3,0.4,0.7,0.6,1.2,0.6
		c0.3,0,0.6-0.1,0.9-0.3c0.3-0.2,0.5-0.6,0.7-1.1c0.2-0.5,0.2-1.2,0.2-2C44.2,54.8,44.2,54.1,44,53.6z M43.5,57.6
		c-0.1,0.3-0.3,0.6-0.5,0.8c-0.2,0.1-0.3,0.2-0.5,0.2c-0.3,0-0.5-0.1-0.7-0.4c-0.5-0.7-0.5-1.7-0.5-2.5c0-0.7,0-1.6,0.3-2.2
		c0.2-0.4,0.4-0.7,0.9-0.7c0.2,0,0.4,0.1,0.6,0.2c0.2,0.2,0.4,0.5,0.5,0.8c0.2,0.6,0.2,1.4,0.2,2C43.7,56.3,43.7,57,43.5,57.6z
		 M44,53.6c-0.2-0.5-0.4-0.8-0.6-1c-0.3-0.2-0.6-0.3-0.9-0.3c-0.6,0-1.1,0.3-1.4,1c-0.3,0.6-0.4,1.4-0.4,2.4c0,1.2,0.2,2.2,0.6,2.8
		c0.3,0.4,0.7,0.6,1.2,0.6c0.3,0,0.6-0.1,0.9-0.3c0.3-0.2,0.5-0.6,0.7-1.1c0.2-0.5,0.2-1.2,0.2-2C44.2,54.8,44.2,54.1,44,53.6z
		 M43.5,57.6c-0.1,0.3-0.3,0.6-0.5,0.8c-0.2,0.1-0.3,0.2-0.5,0.2c-0.3,0-0.5-0.1-0.7-0.4c-0.5-0.7-0.5-1.7-0.5-2.5
		c0-0.7,0-1.6,0.3-2.2c0.2-0.4,0.4-0.7,0.9-0.7c0.2,0,0.4,0.1,0.6,0.2c0.2,0.2,0.4,0.5,0.5,0.8c0.2,0.6,0.2,1.4,0.2,2
		C43.7,56.3,43.7,57,43.5,57.6z M49.6,55c-0.1-0.3-0.3-0.5-0.6-0.5c-0.3,0-0.5,0.2-0.6,0.5s-0.2,1-0.2,1.8c0,0.9,0.1,1.5,0.2,1.8
		c0.1,0.3,0.3,0.4,0.6,0.4c0.2,0,0.3-0.1,0.4-0.2c0.1-0.2,0.2-0.4,0.2-0.8c0-0.3,0.1-1,0.1-1.9C49.8,55.8,49.7,55.3,49.6,55z
		 M49.1,58.1c0,0.1,0,0.4-0.1,0.5c0,0,0,0,0,0c-0.1-0.4-0.1-1.3-0.1-1.7c0-0.5,0-1.2,0.1-1.7c0,0,0-0.1,0.1-0.1c0,0,0,0,0,0
		c0,0,0,0.1,0,0.1c0.1,0.3,0.1,0.8,0.1,1.2C49.2,56.9,49.2,57.5,49.1,58.1z M49.6,55c-0.1-0.3-0.3-0.5-0.6-0.5
		c-0.3,0-0.5,0.2-0.6,0.5s-0.2,1-0.2,1.8c0,0.9,0.1,1.5,0.2,1.8c0.1,0.3,0.3,0.4,0.6,0.4c0.2,0,0.3-0.1,0.4-0.2
		c0.1-0.2,0.2-0.4,0.2-0.8c0-0.3,0.1-1,0.1-1.9C49.8,55.8,49.7,55.3,49.6,55z M49.1,58.1c0,0.1,0,0.4-0.1,0.5c0,0,0,0,0,0
		c-0.1-0.4-0.1-1.3-0.1-1.7c0-0.5,0-1.2,0.1-1.7c0,0,0-0.1,0.1-0.1c0,0,0,0,0,0c0,0,0,0.1,0,0.1c0.1,0.3,0.1,0.8,0.1,1.2
		C49.2,56.9,49.2,57.5,49.1,58.1z M44,53.6c-0.2-0.5-0.4-0.8-0.6-1c-0.3-0.2-0.6-0.3-0.9-0.3c-0.6,0-1.1,0.3-1.4,1
		c-0.3,0.6-0.4,1.4-0.4,2.4c0,1.2,0.2,2.2,0.6,2.8c0.3,0.4,0.7,0.6,1.2,0.6c0.3,0,0.6-0.1,0.9-0.3c0.3-0.2,0.5-0.6,0.7-1.1
		c0.2-0.5,0.2-1.2,0.2-2C44.2,54.8,44.2,54.1,44,53.6z M43.5,57.6c-0.1,0.3-0.3,0.6-0.5,0.8c-0.2,0.1-0.3,0.2-0.5,0.2
		c-0.3,0-0.5-0.1-0.7-0.4c-0.5-0.7-0.5-1.7-0.5-2.5c0-0.7,0-1.6,0.3-2.2c0.2-0.4,0.4-0.7,0.9-0.7c0.2,0,0.4,0.1,0.6,0.2
		c0.2,0.2,0.4,0.5,0.5,0.8c0.2,0.6,0.2,1.4,0.2,2C43.7,56.3,43.7,57,43.5,57.6z M44,53.6c-0.2-0.5-0.4-0.8-0.6-1
		c-0.3-0.2-0.6-0.3-0.9-0.3c-0.6,0-1.1,0.3-1.4,1c-0.3,0.6-0.4,1.4-0.4,2.4c0,1.2,0.2,2.2,0.6,2.8c0.3,0.4,0.7,0.6,1.2,0.6
		c0.3,0,0.6-0.1,0.9-0.3c0.3-0.2,0.5-0.6,0.7-1.1c0.2-0.5,0.2-1.2,0.2-2C44.2,54.8,44.2,54.1,44,53.6z M43.5,57.6
		c-0.1,0.3-0.3,0.6-0.5,0.8c-0.2,0.1-0.3,0.2-0.5,0.2c-0.3,0-0.5-0.1-0.7-0.4c-0.5-0.7-0.5-1.7-0.5-2.5c0-0.7,0-1.6,0.3-2.2
		c0.2-0.4,0.4-0.7,0.9-0.7c0.2,0,0.4,0.1,0.6,0.2c0.2,0.2,0.4,0.5,0.5,0.8c0.2,0.6,0.2,1.4,0.2,2C43.7,56.3,43.7,57,43.5,57.6z
		 M49.6,55c-0.1-0.3-0.3-0.5-0.6-0.5c-0.3,0-0.5,0.2-0.6,0.5s-0.2,1-0.2,1.8c0,0.9,0.1,1.5,0.2,1.8c0.1,0.3,0.3,0.4,0.6,0.4
		c0.2,0,0.3-0.1,0.4-0.2c0.1-0.2,0.2-0.4,0.2-0.8c0-0.3,0.1-1,0.1-1.9C49.8,55.8,49.7,55.3,49.6,55z M49.1,58.1c0,0.1,0,0.4-0.1,0.5
		c0,0,0,0,0,0c-0.1-0.4-0.1-1.3-0.1-1.7c0-0.5,0-1.2,0.1-1.7c0,0,0-0.1,0.1-0.1c0,0,0,0,0,0c0,0,0,0.1,0,0.1
		c0.1,0.3,0.1,0.8,0.1,1.2C49.2,56.9,49.2,57.5,49.1,58.1z M49.6,55c-0.1-0.3-0.3-0.5-0.6-0.5c-0.3,0-0.5,0.2-0.6,0.5
		s-0.2,1-0.2,1.8c0,0.9,0.1,1.5,0.2,1.8c0.1,0.3,0.3,0.4,0.6,0.4c0.2,0,0.3-0.1,0.4-0.2c0.1-0.2,0.2-0.4,0.2-0.8
		c0-0.3,0.1-1,0.1-1.9C49.8,55.8,49.7,55.3,49.6,55z M49.1,58.1c0,0.1,0,0.4-0.1,0.5c0,0,0,0,0,0c-0.1-0.4-0.1-1.3-0.1-1.7
		c0-0.5,0-1.2,0.1-1.7c0,0,0-0.1,0.1-0.1c0,0,0,0,0,0c0,0,0,0.1,0,0.1c0.1,0.3,0.1,0.8,0.1,1.2C49.2,56.9,49.2,57.5,49.1,58.1z
		 M44,53.6c-0.2-0.5-0.4-0.8-0.6-1c-0.3-0.2-0.6-0.3-0.9-0.3c-0.6,0-1.1,0.3-1.4,1c-0.3,0.6-0.4,1.4-0.4,2.4c0,1.2,0.2,2.2,0.6,2.8
		c0.3,0.4,0.7,0.6,1.2,0.6c0.3,0,0.6-0.1,0.9-0.3c0.3-0.2,0.5-0.6,0.7-1.1c0.2-0.5,0.2-1.2,0.2-2C44.2,54.8,44.2,54.1,44,53.6z
		 M43.5,57.6c-0.1,0.3-0.3,0.6-0.5,0.8c-0.2,0.1-0.3,0.2-0.5,0.2c-0.3,0-0.5-0.1-0.7-0.4c-0.5-0.7-0.5-1.7-0.5-2.5
		c0-0.7,0-1.6,0.3-2.2c0.2-0.4,0.4-0.7,0.9-0.7c0.2,0,0.4,0.1,0.6,0.2c0.2,0.2,0.4,0.5,0.5,0.8c0.2,0.6,0.2,1.4,0.2,2
		C43.7,56.3,43.7,57,43.5,57.6z M44,53.6c-0.2-0.5-0.4-0.8-0.6-1c-0.3-0.2-0.6-0.3-0.9-0.3c-0.6,0-1.1,0.3-1.4,1
		c-0.3,0.6-0.4,1.4-0.4,2.4c0,1.2,0.2,2.2,0.6,2.8c0.3,0.4,0.7,0.6,1.2,0.6c0.3,0,0.6-0.1,0.9-0.3c0.3-0.2,0.5-0.6,0.7-1.1
		c0.2-0.5,0.2-1.2,0.2-2C44.2,54.8,44.2,54.1,44,53.6z M43.5,57.6c-0.1,0.3-0.3,0.6-0.5,0.8c-0.2,0.1-0.3,0.2-0.5,0.2
		c-0.3,0-0.5-0.1-0.7-0.4c-0.5-0.7-0.5-1.7-0.5-2.5c0-0.7,0-1.6,0.3-2.2c0.2-0.4,0.4-0.7,0.9-0.7c0.2,0,0.4,0.1,0.6,0.2
		c0.2,0.2,0.4,0.5,0.5,0.8c0.2,0.6,0.2,1.4,0.2,2C43.7,56.3,43.7,57,43.5,57.6z M49.6,55c-0.1-0.3-0.3-0.5-0.6-0.5
		c-0.3,0-0.5,0.2-0.6,0.5s-0.2,1-0.2,1.8c0,0.9,0.1,1.5,0.2,1.8c0.1,0.3,0.3,0.4,0.6,0.4c0.2,0,0.3-0.1,0.4-0.2
		c0.1-0.2,0.2-0.4,0.2-0.8c0-0.3,0.1-1,0.1-1.9C49.8,55.8,49.7,55.3,49.6,55z M49.1,58.1c0,0.1,0,0.4-0.1,0.5c0,0,0,0,0,0
		c-0.1-0.4-0.1-1.3-0.1-1.7c0-0.5,0-1.2,0.1-1.7c0,0,0-0.1,0.1-0.1c0,0,0,0,0,0c0,0,0,0.1,0,0.1c0.1,0.3,0.1,0.8,0.1,1.2
		C49.2,56.9,49.2,57.5,49.1,58.1z M49.6,55c-0.1-0.3-0.3-0.5-0.6-0.5c-0.3,0-0.5,0.2-0.6,0.5s-0.2,1-0.2,1.8c0,0.9,0.1,1.5,0.2,1.8
		c0.1,0.3,0.3,0.4,0.6,0.4c0.2,0,0.3-0.1,0.4-0.2c0.1-0.2,0.2-0.4,0.2-0.8c0-0.3,0.1-1,0.1-1.9C49.8,55.8,49.7,55.3,49.6,55z
		 M49.1,58.1c0,0.1,0,0.4-0.1,0.5c0,0,0,0,0,0c-0.1-0.4-0.1-1.3-0.1-1.7c0-0.5,0-1.2,0.1-1.7c0,0,0-0.1,0.1-0.1c0,0,0,0,0,0
		c0,0,0,0.1,0,0.1c0.1,0.3,0.1,0.8,0.1,1.2C49.2,56.9,49.2,57.5,49.1,58.1z M44,53.6c-0.2-0.5-0.4-0.8-0.6-1
		c-0.3-0.2-0.6-0.3-0.9-0.3c-0.6,0-1.1,0.3-1.4,1c-0.3,0.6-0.4,1.4-0.4,2.4c0,1.2,0.2,2.2,0.6,2.8c0.3,0.4,0.7,0.6,1.2,0.6
		c0.3,0,0.6-0.1,0.9-0.3c0.3-0.2,0.5-0.6,0.7-1.1c0.2-0.5,0.2-1.2,0.2-2C44.2,54.8,44.2,54.1,44,53.6z M43.5,57.6
		c-0.1,0.3-0.3,0.6-0.5,0.8c-0.2,0.1-0.3,0.2-0.5,0.2c-0.3,0-0.5-0.1-0.7-0.4c-0.5-0.7-0.5-1.7-0.5-2.5c0-0.7,0-1.6,0.3-2.2
		c0.2-0.4,0.4-0.7,0.9-0.7c0.2,0,0.4,0.1,0.6,0.2c0.2,0.2,0.4,0.5,0.5,0.8c0.2,0.6,0.2,1.4,0.2,2C43.7,56.3,43.7,57,43.5,57.6z
		 M51,54.5c-0.3-0.3-0.5-0.5-0.9-0.7c0.4-0.1,0.7-0.3,1-0.7c0.3-0.3,0.5-0.8,0.6-1.2c0-0.2,0-0.3-0.1-0.4c-0.1-0.1-0.2-0.2-0.4-0.2
		H51c-0.1,0-0.2,0-0.2,0.1c-0.1,0.1-0.2,0.1-0.4,0.1c-0.1,0-0.2,0-0.3,0c-0.1,0-0.2,0-0.4,0c-0.7,0-1.5,0.1-2.1,0.6
		c-0.5,0.5-0.9,1.1-1.1,1.8c-0.1,0.2-0.1,0.3-0.1,0.5c-0.2-0.7-0.5-1.2-1-1.8c-0.8-0.9-1.9-1.2-3.1-1.2c-1.2,0-2.2,0.4-3,1.2
		c-0.4,0.4-0.7,0.9-0.9,1.3c-0.1-0.1-0.2-0.1-0.3-0.1h-0.4c-0.2,0-0.3,0.1-0.4,0.2l-1.5,1.8l0.6-1.2c0.1-0.2,0.1-0.4,0-0.6
		c-0.1-0.2-0.3-0.3-0.5-0.3h-0.4c-0.2,0-0.3,0.1-0.4,0.2L33,56.5c-0.2,0.2-0.2,0.5,0,0.7l2.1,2.5c0.1,0.1,0.3,0.2,0.4,0.2H36
		c0.2,0,0.4-0.1,0.5-0.3c0.1-0.2,0.1-0.4,0-0.5L35.9,58l1.5,1.8c0.1,0.1,0.3,0.2,0.4,0.2h0.4c0.2,0,0.4-0.1,0.5-0.3
		c0.1-0.2,0.1-0.4,0-0.5l-1.1-2.3l0.6-1.2v0.1c0,1,0.3,2,0.9,2.9c0.8,1.1,2,1.6,3.3,1.6c1.4,0,2.5-0.5,3.3-1.7
		c0.2-0.3,0.4-0.7,0.5-1c0.1,0.6,0.3,1.2,0.6,1.6c0.5,0.7,1.2,1,2.1,1c0.9,0,1.6-0.3,2.1-1c0.5-0.7,0.7-1.4,0.7-2.2
		C51.8,56,51.6,55.2,51,54.5z M36,59.3h-0.4l-2.1-2.5l2.1-2.5H36l-1.2,2.5L36,59.3z M37,56.8l1.2,2.5h-0.4l-2.1-2.5l2.1-2.5h0.4
		L37,56.8z M45.3,58.2c-0.7,0.9-1.6,1.4-2.8,1.4c-1.2,0-2.2-0.5-2.9-1.3c-0.5-0.7-0.8-1.6-0.8-2.5c0-1.1,0.4-2,1-2.7s1.5-1.1,2.5-1
		c1.1,0,2,0.3,2.7,1c0.7,0.7,1,1.7,1,2.8C46.1,56.6,45.8,57.4,45.3,58.2z M50.7,58.8c-0.4,0.5-0.9,0.8-1.6,0.8
		c-0.7,0-1.2-0.3-1.6-0.8c-0.4-0.5-0.6-1.3-0.6-2.4c0-0.8,0.1-1.6,0.3-2.3c0.2-0.7,0.5-1.2,0.9-1.5c0.4-0.3,0.9-0.5,1.7-0.5
		c0.1,0,0.2,0,0.3,0c0.1,0,0.2,0,0.3,0c0.2,0,0.4,0,0.6-0.2h0.2c0,0.3-0.2,0.6-0.5,0.9c-0.3,0.4-0.7,0.5-1.1,0.5c-0.1,0-0.2,0-0.3,0
		c-0.1,0-0.2,0-0.3,0c-0.4,0-0.8,0.2-1.1,0.5c-0.3,0.3-0.5,0.9-0.6,1.7c0.4-0.9,1-1.3,1.8-1.3c0.6,0,1.1,0.2,1.6,0.7s0.6,1.1,0.6,2
		C51.2,57.6,51,58.2,50.7,58.8z M49,54.5c-0.3,0-0.5,0.2-0.6,0.5s-0.2,1-0.2,1.8c0,0.9,0.1,1.5,0.2,1.8c0.1,0.3,0.3,0.4,0.6,0.4
		c0.2,0,0.3-0.1,0.4-0.2c0.1-0.2,0.2-0.4,0.2-0.8c0-0.3,0.1-1,0.1-1.9c0-0.6,0-1-0.2-1.3C49.5,54.7,49.3,54.5,49,54.5z M49.1,58.1
		c0,0.1,0,0.4-0.1,0.5c0,0,0,0,0,0c-0.1-0.4-0.1-1.3-0.1-1.7c0-0.5,0-1.2,0.1-1.7c0,0,0-0.1,0.1-0.1c0,0,0,0,0,0c0,0,0,0.1,0,0.1
		c0.1,0.3,0.1,0.8,0.1,1.2C49.2,56.9,49.2,57.5,49.1,58.1z M43.4,52.5c-0.3-0.2-0.6-0.3-0.9-0.3c-0.6,0-1.1,0.3-1.4,1
		c-0.3,0.6-0.4,1.4-0.4,2.4c0,1.2,0.2,2.2,0.6,2.8c0.3,0.4,0.7,0.6,1.2,0.6c0.3,0,0.6-0.1,0.9-0.3c0.3-0.2,0.5-0.6,0.7-1.1
		c0.2-0.5,0.2-1.2,0.2-2c0-1-0.1-1.7-0.2-2.2C43.8,53.1,43.6,52.8,43.4,52.5z M43.5,57.6c-0.1,0.3-0.3,0.6-0.5,0.8
		c-0.2,0.1-0.3,0.2-0.5,0.2c-0.3,0-0.5-0.1-0.7-0.4c-0.5-0.7-0.5-1.7-0.5-2.5c0-0.7,0-1.6,0.3-2.2c0.2-0.4,0.4-0.7,0.9-0.7
		c0.2,0,0.4,0.1,0.6,0.2c0.2,0.2,0.4,0.5,0.5,0.8c0.2,0.6,0.2,1.4,0.2,2C43.7,56.3,43.7,57,43.5,57.6z M44,53.6
		c-0.2-0.5-0.4-0.8-0.6-1c-0.3-0.2-0.6-0.3-0.9-0.3c-0.6,0-1.1,0.3-1.4,1c-0.3,0.6-0.4,1.4-0.4,2.4c0,1.2,0.2,2.2,0.6,2.8
		c0.3,0.4,0.7,0.6,1.2,0.6c0.3,0,0.6-0.1,0.9-0.3c0.3-0.2,0.5-0.6,0.7-1.1c0.2-0.5,0.2-1.2,0.2-2C44.2,54.8,44.2,54.1,44,53.6z
		 M43.5,57.6c-0.1,0.3-0.3,0.6-0.5,0.8c-0.2,0.1-0.3,0.2-0.5,0.2c-0.3,0-0.5-0.1-0.7-0.4c-0.5-0.7-0.5-1.7-0.5-2.5
		c0-0.7,0-1.6,0.3-2.2c0.2-0.4,0.4-0.7,0.9-0.7c0.2,0,0.4,0.1,0.6,0.2c0.2,0.2,0.4,0.5,0.5,0.8c0.2,0.6,0.2,1.4,0.2,2
		C43.7,56.3,43.7,57,43.5,57.6z M49.6,55c-0.1-0.3-0.3-0.5-0.6-0.5c-0.3,0-0.5,0.2-0.6,0.5s-0.2,1-0.2,1.8c0,0.9,0.1,1.5,0.2,1.8
		c0.1,0.3,0.3,0.4,0.6,0.4c0.2,0,0.3-0.1,0.4-0.2c0.1-0.2,0.2-0.4,0.2-0.8c0-0.3,0.1-1,0.1-1.9C49.8,55.8,49.7,55.3,49.6,55z
		 M49.1,58.1c0,0.1,0,0.4-0.1,0.5c0,0,0,0,0,0c-0.1-0.4-0.1-1.3-0.1-1.7c0-0.5,0-1.2,0.1-1.7c0,0,0-0.1,0.1-0.1c0,0,0,0,0,0
		c0,0,0,0.1,0,0.1c0.1,0.3,0.1,0.8,0.1,1.2C49.2,56.9,49.2,57.5,49.1,58.1z M49.6,55c-0.1-0.3-0.3-0.5-0.6-0.5
		c-0.3,0-0.5,0.2-0.6,0.5s-0.2,1-0.2,1.8c0,0.9,0.1,1.5,0.2,1.8c0.1,0.3,0.3,0.4,0.6,0.4c0.2,0,0.3-0.1,0.4-0.2
		c0.1-0.2,0.2-0.4,0.2-0.8c0-0.3,0.1-1,0.1-1.9C49.8,55.8,49.7,55.3,49.6,55z M49.1,58.1c0,0.1,0,0.4-0.1,0.5c0,0,0,0,0,0
		c-0.1-0.4-0.1-1.3-0.1-1.7c0-0.5,0-1.2,0.1-1.7c0,0,0-0.1,0.1-0.1c0,0,0,0,0,0c0,0,0,0.1,0,0.1c0.1,0.3,0.1,0.8,0.1,1.2
		C49.2,56.9,49.2,57.5,49.1,58.1z M44,53.6c-0.2-0.5-0.4-0.8-0.6-1c-0.3-0.2-0.6-0.3-0.9-0.3c-0.6,0-1.1,0.3-1.4,1
		c-0.3,0.6-0.4,1.4-0.4,2.4c0,1.2,0.2,2.2,0.6,2.8c0.3,0.4,0.7,0.6,1.2,0.6c0.3,0,0.6-0.1,0.9-0.3c0.3-0.2,0.5-0.6,0.7-1.1
		c0.2-0.5,0.2-1.2,0.2-2C44.2,54.8,44.2,54.1,44,53.6z M43.5,57.6c-0.1,0.3-0.3,0.6-0.5,0.8c-0.2,0.1-0.3,0.2-0.5,0.2
		c-0.3,0-0.5-0.1-0.7-0.4c-0.5-0.7-0.5-1.7-0.5-2.5c0-0.7,0-1.6,0.3-2.2c0.2-0.4,0.4-0.7,0.9-0.7c0.2,0,0.4,0.1,0.6,0.2
		c0.2,0.2,0.4,0.5,0.5,0.8c0.2,0.6,0.2,1.4,0.2,2C43.7,56.3,43.7,57,43.5,57.6z M44,53.6c-0.2-0.5-0.4-0.8-0.6-1
		c-0.3-0.2-0.6-0.3-0.9-0.3c-0.6,0-1.1,0.3-1.4,1c-0.3,0.6-0.4,1.4-0.4,2.4c0,1.2,0.2,2.2,0.6,2.8c0.3,0.4,0.7,0.6,1.2,0.6
		c0.3,0,0.6-0.1,0.9-0.3c0.3-0.2,0.5-0.6,0.7-1.1c0.2-0.5,0.2-1.2,0.2-2C44.2,54.8,44.2,54.1,44,53.6z M43.5,57.6
		c-0.1,0.3-0.3,0.6-0.5,0.8c-0.2,0.1-0.3,0.2-0.5,0.2c-0.3,0-0.5-0.1-0.7-0.4c-0.5-0.7-0.5-1.7-0.5-2.5c0-0.7,0-1.6,0.3-2.2
		c0.2-0.4,0.4-0.7,0.9-0.7c0.2,0,0.4,0.1,0.6,0.2c0.2,0.2,0.4,0.5,0.5,0.8c0.2,0.6,0.2,1.4,0.2,2C43.7,56.3,43.7,57,43.5,57.6z
		 M49.6,55c-0.1-0.3-0.3-0.5-0.6-0.5c-0.3,0-0.5,0.2-0.6,0.5s-0.2,1-0.2,1.8c0,0.9,0.1,1.5,0.2,1.8c0.1,0.3,0.3,0.4,0.6,0.4
		c0.2,0,0.3-0.1,0.4-0.2c0.1-0.2,0.2-0.4,0.2-0.8c0-0.3,0.1-1,0.1-1.9C49.8,55.8,49.7,55.3,49.6,55z M49.1,58.1c0,0.1,0,0.4-0.1,0.5
		c0,0,0,0,0,0c-0.1-0.4-0.1-1.3-0.1-1.7c0-0.5,0-1.2,0.1-1.7c0,0,0-0.1,0.1-0.1c0,0,0,0,0,0c0,0,0,0.1,0,0.1
		c0.1,0.3,0.1,0.8,0.1,1.2C49.2,56.9,49.2,57.5,49.1,58.1z M49.6,55c-0.1-0.3-0.3-0.5-0.6-0.5c-0.3,0-0.5,0.2-0.6,0.5
		s-0.2,1-0.2,1.8c0,0.9,0.1,1.5,0.2,1.8c0.1,0.3,0.3,0.4,0.6,0.4c0.2,0,0.3-0.1,0.4-0.2c0.1-0.2,0.2-0.4,0.2-0.8
		c0-0.3,0.1-1,0.1-1.9C49.8,55.8,49.7,55.3,49.6,55z M49.1,58.1c0,0.1,0,0.4-0.1,0.5c0,0,0,0,0,0c-0.1-0.4-0.1-1.3-0.1-1.7
		c0-0.5,0-1.2,0.1-1.7c0,0,0-0.1,0.1-0.1c0,0,0,0,0,0c0,0,0,0.1,0,0.1c0.1,0.3,0.1,0.8,0.1,1.2C49.2,56.9,49.2,57.5,49.1,58.1z
		 M44,53.6c-0.2-0.5-0.4-0.8-0.6-1c-0.3-0.2-0.6-0.3-0.9-0.3c-0.6,0-1.1,0.3-1.4,1c-0.3,0.6-0.4,1.4-0.4,2.4c0,1.2,0.2,2.2,0.6,2.8
		c0.3,0.4,0.7,0.6,1.2,0.6c0.3,0,0.6-0.1,0.9-0.3c0.3-0.2,0.5-0.6,0.7-1.1c0.2-0.5,0.2-1.2,0.2-2C44.2,54.8,44.2,54.1,44,53.6z
		 M43.5,57.6c-0.1,0.3-0.3,0.6-0.5,0.8c-0.2,0.1-0.3,0.2-0.5,0.2c-0.3,0-0.5-0.1-0.7-0.4c-0.5-0.7-0.5-1.7-0.5-2.5
		c0-0.7,0-1.6,0.3-2.2c0.2-0.4,0.4-0.7,0.9-0.7c0.2,0,0.4,0.1,0.6,0.2c0.2,0.2,0.4,0.5,0.5,0.8c0.2,0.6,0.2,1.4,0.2,2
		C43.7,56.3,43.7,57,43.5,57.6z M44,53.6c-0.2-0.5-0.4-0.8-0.6-1c-0.3-0.2-0.6-0.3-0.9-0.3c-0.6,0-1.1,0.3-1.4,1
		c-0.3,0.6-0.4,1.4-0.4,2.4c0,1.2,0.2,2.2,0.6,2.8c0.3,0.4,0.7,0.6,1.2,0.6c0.3,0,0.6-0.1,0.9-0.3c0.3-0.2,0.5-0.6,0.7-1.1
		c0.2-0.5,0.2-1.2,0.2-2C44.2,54.8,44.2,54.1,44,53.6z M43.5,57.6c-0.1,0.3-0.3,0.6-0.5,0.8c-0.2,0.1-0.3,0.2-0.5,0.2
		c-0.3,0-0.5-0.1-0.7-0.4c-0.5-0.7-0.5-1.7-0.5-2.5c0-0.7,0-1.6,0.3-2.2c0.2-0.4,0.4-0.7,0.9-0.7c0.2,0,0.4,0.1,0.6,0.2
		c0.2,0.2,0.4,0.5,0.5,0.8c0.2,0.6,0.2,1.4,0.2,2C43.7,56.3,43.7,57,43.5,57.6z M49.6,55c-0.1-0.3-0.3-0.5-0.6-0.5
		c-0.3,0-0.5,0.2-0.6,0.5s-0.2,1-0.2,1.8c0,0.9,0.1,1.5,0.2,1.8c0.1,0.3,0.3,0.4,0.6,0.4c0.2,0,0.3-0.1,0.4-0.2
		c0.1-0.2,0.2-0.4,0.2-0.8c0-0.3,0.1-1,0.1-1.9C49.8,55.8,49.7,55.3,49.6,55z M49.1,58.1c0,0.1,0,0.4-0.1,0.5c0,0,0,0,0,0
		c-0.1-0.4-0.1-1.3-0.1-1.7c0-0.5,0-1.2,0.1-1.7c0,0,0-0.1,0.1-0.1c0,0,0,0,0,0c0,0,0,0.1,0,0.1c0.1,0.3,0.1,0.8,0.1,1.2
		C49.2,56.9,49.2,57.5,49.1,58.1z M49.6,55c-0.1-0.3-0.3-0.5-0.6-0.5c-0.3,0-0.5,0.2-0.6,0.5s-0.2,1-0.2,1.8c0,0.9,0.1,1.5,0.2,1.8
		c0.1,0.3,0.3,0.4,0.6,0.4c0.2,0,0.3-0.1,0.4-0.2c0.1-0.2,0.2-0.4,0.2-0.8c0-0.3,0.1-1,0.1-1.9C49.8,55.8,49.7,55.3,49.6,55z
		 M49.1,58.1c0,0.1,0,0.4-0.1,0.5c0,0,0,0,0,0c-0.1-0.4-0.1-1.3-0.1-1.7c0-0.5,0-1.2,0.1-1.7c0,0,0-0.1,0.1-0.1c0,0,0,0,0,0
		c0,0,0,0.1,0,0.1c0.1,0.3,0.1,0.8,0.1,1.2C49.2,56.9,49.2,57.5,49.1,58.1z M44,53.6c-0.2-0.5-0.4-0.8-0.6-1
		c-0.3-0.2-0.6-0.3-0.9-0.3c-0.6,0-1.1,0.3-1.4,1c-0.3,0.6-0.4,1.4-0.4,2.4c0,1.2,0.2,2.2,0.6,2.8c0.3,0.4,0.7,0.6,1.2,0.6
		c0.3,0,0.6-0.1,0.9-0.3c0.3-0.2,0.5-0.6,0.7-1.1c0.2-0.5,0.2-1.2,0.2-2C44.2,54.8,44.2,54.1,44,53.6z M43.5,57.6
		c-0.1,0.3-0.3,0.6-0.5,0.8c-0.2,0.1-0.3,0.2-0.5,0.2c-0.3,0-0.5-0.1-0.7-0.4c-0.5-0.7-0.5-1.7-0.5-2.5c0-0.7,0-1.6,0.3-2.2
		c0.2-0.4,0.4-0.7,0.9-0.7c0.2,0,0.4,0.1,0.6,0.2c0.2,0.2,0.4,0.5,0.5,0.8c0.2,0.6,0.2,1.4,0.2,2C43.7,56.3,43.7,57,43.5,57.6z
		 M44,53.6c-0.2-0.5-0.4-0.8-0.6-1c-0.3-0.2-0.6-0.3-0.9-0.3c-0.6,0-1.1,0.3-1.4,1c-0.3,0.6-0.4,1.4-0.4,2.4c0,1.2,0.2,2.2,0.6,2.8
		c0.3,0.4,0.7,0.6,1.2,0.6c0.3,0,0.6-0.1,0.9-0.3c0.3-0.2,0.5-0.6,0.7-1.1c0.2-0.5,0.2-1.2,0.2-2C44.2,54.8,44.2,54.1,44,53.6z
		 M43.5,57.6c-0.1,0.3-0.3,0.6-0.5,0.8c-0.2,0.1-0.3,0.2-0.5,0.2c-0.3,0-0.5-0.1-0.7-0.4c-0.5-0.7-0.5-1.7-0.5-2.5
		c0-0.7,0-1.6,0.3-2.2c0.2-0.4,0.4-0.7,0.9-0.7c0.2,0,0.4,0.1,0.6,0.2c0.2,0.2,0.4,0.5,0.5,0.8c0.2,0.6,0.2,1.4,0.2,2
		C43.7,56.3,43.7,57,43.5,57.6z M44,53.6c-0.2-0.5-0.4-0.8-0.6-1c-0.3-0.2-0.6-0.3-0.9-0.3c-0.6,0-1.1,0.3-1.4,1
		c-0.3,0.6-0.4,1.4-0.4,2.4c0,1.2,0.2,2.2,0.6,2.8c0.3,0.4,0.7,0.6,1.2,0.6c0.3,0,0.6-0.1,0.9-0.3c0.3-0.2,0.5-0.6,0.7-1.1
		c0.2-0.5,0.2-1.2,0.2-2C44.2,54.8,44.2,54.1,44,53.6z M43.5,57.6c-0.1,0.3-0.3,0.6-0.5,0.8c-0.2,0.1-0.3,0.2-0.5,0.2
		c-0.3,0-0.5-0.1-0.7-0.4c-0.5-0.7-0.5-1.7-0.5-2.5c0-0.7,0-1.6,0.3-2.2c0.2-0.4,0.4-0.7,0.9-0.7c0.2,0,0.4,0.1,0.6,0.2
		c0.2,0.2,0.4,0.5,0.5,0.8c0.2,0.6,0.2,1.4,0.2,2C43.7,56.3,43.7,57,43.5,57.6z M55.1,55.1c-0.1-0.2-0.3-0.3-0.5-0.3
		c-0.3,0-0.6,0.3-0.8,0.8v2.7c0.3,0.4,0.6,0.7,0.9,0.7c0.2,0,0.3-0.1,0.4-0.3c0.2-0.3,0.3-0.9,0.3-1.7
		C55.4,56.1,55.3,55.5,55.1,55.1z M54.7,58.4C54.7,58.4,54.7,58.4,54.7,58.4c-0.1,0-0.2-0.1-0.3-0.2v-2.4c0.1-0.1,0.2-0.3,0.3-0.3
		c0,0,0,0,0,0c0.2,0.3,0.2,1.2,0.2,1.5C54.9,57.3,54.8,58.1,54.7,58.4z M59.4,57.4c-0.1,0.2-0.2,0.4-0.2,0.6c0,0.2,0,0.3,0.2,0.4
		c0.1,0.1,0.2,0.1,0.4,0.1c0.2,0,0.4-0.1,0.6-0.3v-1.7C59.9,56.8,59.6,57.1,59.4,57.4z M59.4,57.4c-0.1,0.2-0.2,0.4-0.2,0.6
		c0,0.2,0,0.3,0.2,0.4c0.1,0.1,0.2,0.1,0.4,0.1c0.2,0,0.4-0.1,0.6-0.3v-1.7C59.9,56.8,59.6,57.1,59.4,57.4z M55.1,55.1
		c-0.1-0.2-0.3-0.3-0.5-0.3c-0.3,0-0.6,0.3-0.8,0.8v2.7c0.3,0.4,0.6,0.7,0.9,0.7c0.2,0,0.3-0.1,0.4-0.3c0.2-0.3,0.3-0.9,0.3-1.7
		C55.4,56.1,55.3,55.5,55.1,55.1z M54.7,58.4C54.7,58.4,54.7,58.4,54.7,58.4c-0.1,0-0.2-0.1-0.3-0.2v-2.4c0.1-0.1,0.2-0.3,0.3-0.3
		c0,0,0,0,0,0c0.2,0.3,0.2,1.2,0.2,1.5C54.9,57.3,54.8,58.1,54.7,58.4z M55.1,55.1c-0.1-0.2-0.3-0.3-0.5-0.3c-0.3,0-0.6,0.3-0.8,0.8
		v2.7c0.3,0.4,0.6,0.7,0.9,0.7c0.2,0,0.3-0.1,0.4-0.3c0.2-0.3,0.3-0.9,0.3-1.7C55.4,56.1,55.3,55.5,55.1,55.1z M54.7,58.4
		C54.7,58.4,54.7,58.4,54.7,58.4c-0.1,0-0.2-0.1-0.3-0.2v-2.4c0.1-0.1,0.2-0.3,0.3-0.3c0,0,0,0,0,0c0.2,0.3,0.2,1.2,0.2,1.5
		C54.9,57.3,54.8,58.1,54.7,58.4z M59.4,57.4c-0.1,0.2-0.2,0.4-0.2,0.6c0,0.2,0,0.3,0.2,0.4c0.1,0.1,0.2,0.1,0.4,0.1
		c0.2,0,0.4-0.1,0.6-0.3v-1.7C59.9,56.8,59.6,57.1,59.4,57.4z M69.7,55.1c-0.1-0.2-0.1-0.4-0.3-0.5c-0.1-0.1-0.2-0.1-0.3-0.1
		c-0.2,0-0.3,0.1-0.4,0.3c-0.2,0.3-0.3,0.8-0.3,1.3v0.2h1.4C69.8,55.7,69.7,55.3,69.7,55.1z M69,55.7c0-0.2,0.1-0.4,0.1-0.5
		c0,0,0,0,0,0.1c0,0.1,0,0.3,0.1,0.5H69z M69.7,55.1c-0.1-0.2-0.1-0.4-0.3-0.5c-0.1-0.1-0.2-0.1-0.3-0.1c-0.2,0-0.3,0.1-0.4,0.3
		c-0.2,0.3-0.3,0.8-0.3,1.3v0.2h1.4C69.8,55.7,69.7,55.3,69.7,55.1z M69,55.7c0-0.2,0.1-0.4,0.1-0.5c0,0,0,0,0,0.1
		c0,0.1,0,0.3,0.1,0.5H69z M59.4,57.4c-0.1,0.2-0.2,0.4-0.2,0.6c0,0.2,0,0.3,0.2,0.4c0.1,0.1,0.2,0.1,0.4,0.1c0.2,0,0.4-0.1,0.6-0.3
		v-1.7C59.9,56.8,59.6,57.1,59.4,57.4z M55.1,55.1c-0.1-0.2-0.3-0.3-0.5-0.3c-0.3,0-0.6,0.3-0.8,0.8v2.7c0.3,0.4,0.6,0.7,0.9,0.7
		c0.2,0,0.3-0.1,0.4-0.3c0.2-0.3,0.3-0.9,0.3-1.7C55.4,56.1,55.3,55.5,55.1,55.1z M54.7,58.4C54.7,58.4,54.7,58.4,54.7,58.4
		c-0.1,0-0.2-0.1-0.3-0.2v-2.4c0.1-0.1,0.2-0.3,0.3-0.3c0,0,0,0,0,0c0.2,0.3,0.2,1.2,0.2,1.5C54.9,57.3,54.8,58.1,54.7,58.4z
		 M55.1,55.1c-0.1-0.2-0.3-0.3-0.5-0.3c-0.3,0-0.6,0.3-0.8,0.8v2.7c0.3,0.4,0.6,0.7,0.9,0.7c0.2,0,0.3-0.1,0.4-0.3
		c0.2-0.3,0.3-0.9,0.3-1.7C55.4,56.1,55.3,55.5,55.1,55.1z M54.7,58.4C54.7,58.4,54.7,58.4,54.7,58.4c-0.1,0-0.2-0.1-0.3-0.2v-2.4
		c0.1-0.1,0.2-0.3,0.3-0.3c0,0,0,0,0,0c0.2,0.3,0.2,1.2,0.2,1.5C54.9,57.3,54.8,58.1,54.7,58.4z M59.4,57.4
		c-0.1,0.2-0.2,0.4-0.2,0.6c0,0.2,0,0.3,0.2,0.4c0.1,0.1,0.2,0.1,0.4,0.1c0.2,0,0.4-0.1,0.6-0.3v-1.7C59.9,56.8,59.6,57.1,59.4,57.4
		z M69.7,55.1c-0.1-0.2-0.1-0.4-0.3-0.5c-0.1-0.1-0.2-0.1-0.3-0.1c-0.2,0-0.3,0.1-0.4,0.3c-0.2,0.3-0.3,0.8-0.3,1.3v0.2h1.4
		C69.8,55.7,69.7,55.3,69.7,55.1z M69,55.7c0-0.2,0.1-0.4,0.1-0.5c0,0,0,0,0,0.1c0,0.1,0,0.3,0.1,0.5H69z M69.7,55.1
		c-0.1-0.2-0.1-0.4-0.3-0.5c-0.1-0.1-0.2-0.1-0.3-0.1c-0.2,0-0.3,0.1-0.4,0.3c-0.2,0.3-0.3,0.8-0.3,1.3v0.2h1.4
		C69.8,55.7,69.7,55.3,69.7,55.1z M69,55.7c0-0.2,0.1-0.4,0.1-0.5c0,0,0,0,0,0.1c0,0.1,0,0.3,0.1,0.5H69z M59.4,57.4
		c-0.1,0.2-0.2,0.4-0.2,0.6c0,0.2,0,0.3,0.2,0.4c0.1,0.1,0.2,0.1,0.4,0.1c0.2,0,0.4-0.1,0.6-0.3v-1.7C59.9,56.8,59.6,57.1,59.4,57.4
		z M55.1,55.1c-0.1-0.2-0.3-0.3-0.5-0.3c-0.3,0-0.6,0.3-0.8,0.8v2.7c0.3,0.4,0.6,0.7,0.9,0.7c0.2,0,0.3-0.1,0.4-0.3
		c0.2-0.3,0.3-0.9,0.3-1.7C55.4,56.1,55.3,55.5,55.1,55.1z M54.7,58.4C54.7,58.4,54.7,58.4,54.7,58.4c-0.1,0-0.2-0.1-0.3-0.2v-2.4
		c0.1-0.1,0.2-0.3,0.3-0.3c0,0,0,0,0,0c0.2,0.3,0.2,1.2,0.2,1.5C54.9,57.3,54.8,58.1,54.7,58.4z M82.6,56.5L80.5,54
		c-0.1-0.1-0.3-0.2-0.4-0.2h-0.4c-0.2,0-0.4,0.1-0.5,0.3c-0.1,0.2-0.1,0.4,0,0.5l0.5,1.1L78.2,54c-0.1-0.1-0.3-0.2-0.4-0.2h-0.4
		c-0.1,0-0.2,0-0.2,0c-0.1-0.1-0.2-0.1-0.3-0.1h-2.4c-0.1,0-0.1,0-0.2,0c-0.1,0-0.1,0-0.2,0h-2.4c-0.3,0-0.6,0.2-0.6,0.6v0.2
		c0,0.1,0,0.1,0,0.2c-0.1-0.1-0.1-0.2-0.2-0.2c-0.4-0.5-1-0.8-1.7-0.8c-0.8,0-1.4,0.4-1.9,1c-0.3,0.3-0.4,0.6-0.6,1v-0.1
		c0-0.5-0.2-1-0.7-1.4c-0.4-0.3-1-0.5-1.5-0.5c-0.4,0-0.7,0.1-1,0.2c-0.1-0.1-0.2-0.2-0.4-0.2H63c-0.3,0-0.6,0.2-0.6,0.5l-0.1,1.6
		c0,0.2,0,0.3,0.1,0.4c0.1,0.1,0.2,0.2,0.4,0.2h0.2c0.3,0,0.5-0.2,0.6-0.5c0-0.2,0.1-0.7,0.4-0.7c0.1,0,0.1,0,0.1,0
		c0.1,0.1,0.1,0.3,0.1,0.4c0,0.3,0,0.4-0.4,0.4c-0.3,0-0.6,0.3-0.6,0.6v0.4c0,0.3,0.2,0.5,0.5,0.6c0.3,0,0.5,0.1,0.5,0.4
		c0,0.1,0,0.3-0.1,0.4c-0.1,0.1-0.2,0.1-0.3,0.1c-0.3,0-0.6-0.2-0.8-0.5c-0.2-0.2-0.5-0.2-0.7-0.1L62.3,58c0,0,0,0,0,0s0,0,0,0v-1.8
		c0-0.3,0-0.9-0.1-1.2c-0.1-0.4-0.4-0.7-0.7-0.9c-0.4-0.3-0.9-0.4-1.4-0.4c-0.4,0-0.9,0.1-1.3,0.2c-0.4,0.2-0.8,0.4-1,0.7
		c-0.3,0.3-0.4,0.7-0.4,1.1v0.1c0-0.1-0.1-0.3-0.1-0.4c-0.2-0.5-0.4-0.9-0.8-1.2c-0.4-0.3-0.8-0.5-1.3-0.5c-0.4,0-0.7,0.1-1,0.3
		c-0.1-0.1-0.2-0.1-0.3-0.1h-2c-0.3,0-0.6,0.2-0.6,0.6v0.2c0,0.3,0.2,0.6,0.5,0.6h0c0,0.1,0,0.2,0,0.3v5.4c0,0.1,0,0.2,0,0.3
		c0,0,0,0,0,0c-0.3,0-0.6,0.3-0.6,0.6v0.2c0,0.3,0.3,0.6,0.6,0.6h2.7c0.3,0,0.6-0.2,0.6-0.6v-0.2c0-0.3-0.2-0.6-0.6-0.6h-0.1
		c0-0.1,0-0.2,0-0.2V60c0.2,0.1,0.5,0.1,0.7,0.1c0.5,0,0.9-0.2,1.3-0.5c0.4-0.3,0.7-0.8,0.9-1.2c0,0,0-0.1,0-0.1c0,0.1,0,0.1,0,0.2
		c0,0.4,0.1,0.8,0.4,1.1c0.3,0.3,0.7,0.5,1.1,0.5c0.5,0,0.9-0.2,1.3-0.5c0,0,0.1,0.1,0.1,0.1c0.3,0.2,0.6,0.4,1,0.4
		c0.3,0,0.6-0.1,0.9-0.3c0.2-0.1,0.3-0.2,0.4-0.4c0.5,0.5,1.1,0.8,1.9,0.8c0.6,0,1.3-0.1,1.8-0.6c0.3-0.2,0.5-0.5,0.6-0.9
		c0.1,0.1,0.1,0.2,0.2,0.3c0.5,0.8,1.2,1.1,2.1,1.1c0.5,0,1-0.1,1.4-0.5c0.2-0.2,0.4-0.3,0.5-0.6c0,0,0,0.1,0,0.1v0.2
		c0,0.3,0.2,0.6,0.6,0.6h3.3c0.2,0,0.7,0,0.9,0.2c0.2,0.2,0.2,0.4,0.2,0.6c0,0.3,0.3,0.5,0.6,0.5h0.2c0.3,0,0.6-0.2,0.6-0.6v-0.8
		h0.3c0.2,0,0.3-0.1,0.4-0.2l1.5-1.8l-0.6,1.2c-0.1,0.2-0.1,0.4,0,0.6c0.1,0.2,0.3,0.3,0.5,0.3H80c0.2,0,0.3-0.1,0.4-0.2l2.1-2.5
		C82.8,57,82.8,56.7,82.6,56.5z M56.7,58.2c-0.1,0.4-0.4,0.8-0.7,1c-0.3,0.2-0.6,0.3-1,0.3c-0.3,0-0.5-0.1-0.7-0.2
		c-0.2-0.1-0.3-0.3-0.5-0.5v1.9c0,0.3,0,0.4,0.1,0.5c0,0.1,0.1,0.2,0.2,0.2c0.1,0,0.2,0.1,0.5,0.1v0.2h-2.7v-0.2
		c0.2,0,0.4-0.1,0.5-0.2c0.1-0.1,0.1-0.3,0.1-0.7v-5.4c0-0.4,0-0.6-0.1-0.7c-0.1-0.1-0.2-0.2-0.5-0.2v-0.2h2V55
		c0.2-0.3,0.3-0.5,0.5-0.6c0.2-0.2,0.5-0.2,0.8-0.2c0.3,0,0.7,0.1,0.9,0.3c0.3,0.2,0.5,0.6,0.6,1c0.2,0.4,0.2,0.9,0.2,1.3
		C56.9,57.3,56.8,57.8,56.7,58.2z M57.4,57.7c0-0.3,0.1-0.6,0.1-0.9c0-0.3,0-0.5-0.1-0.8c0.1,0.2,0.2,0.4,0.3,0.5
		c0.1,0.1,0.2,0.2,0.4,0.3C58,56.9,58,56.9,57.9,57C57.7,57.2,57.5,57.5,57.4,57.7z M61.8,59.3c-0.2,0.1-0.4,0.2-0.6,0.2
		c-0.3,0-0.5-0.1-0.6-0.2c-0.2-0.1-0.2-0.4-0.3-0.6c-0.6,0.5-1.1,0.8-1.5,0.8c-0.3,0-0.5-0.1-0.7-0.3s-0.3-0.4-0.3-0.7
		c0-0.4,0.2-0.7,0.5-1.1c0.3-0.3,1-0.7,2-1.2v-0.5c0-0.4,0-0.6-0.1-0.7c0-0.1-0.1-0.2-0.2-0.3c-0.1-0.1-0.2-0.1-0.4-0.1
		c-0.2,0-0.4,0-0.5,0.2C59,54.8,59,54.9,59,55c0,0.1,0.1,0.2,0.1,0.3c0.1,0.2,0.2,0.3,0.2,0.5c0,0.2-0.1,0.3-0.2,0.5
		c-0.1,0.1-0.3,0.2-0.5,0.2c-0.2,0-0.4-0.1-0.5-0.2s-0.2-0.3-0.2-0.5c0-0.3,0.1-0.5,0.3-0.8c0.2-0.2,0.5-0.4,0.8-0.5
		c0.4-0.1,0.7-0.2,1.1-0.2c0.5,0,0.8,0.1,1.1,0.3c0.3,0.2,0.4,0.4,0.5,0.7c0,0.2,0.1,0.5,0.1,1v2c0,0.2,0,0.4,0,0.4
		c0,0.1,0,0.1,0.1,0.1c0,0,0.1,0,0.1,0c0.1,0,0.2-0.1,0.3-0.2l0.2,0.1C62.2,59,62,59.2,61.8,59.3z M65.9,59.1
		c-0.3,0.3-0.8,0.4-1.4,0.4c-0.8,0-1.4-0.3-1.8-1.1l0.2-0.1c0.4,0.4,0.8,0.6,1.2,0.6c0.3,0,0.5-0.1,0.7-0.3c0.2-0.2,0.3-0.5,0.3-0.8
		c0-0.6-0.3-1-1-1v-0.4c0.6,0,0.9-0.3,0.9-1c0-0.3-0.1-0.5-0.2-0.7s-0.3-0.3-0.6-0.3c-0.5,0-0.8,0.4-1,1.2h-0.2l0.1-1.6h0.2
		c0.1,0.1,0.1,0.2,0.2,0.2c0,0,0.1,0,0.2,0c0.4-0.1,0.7-0.2,1-0.2c0.5,0,0.8,0.1,1.1,0.3c0.3,0.2,0.4,0.5,0.4,0.9
		c0,0.6-0.4,1-1.1,1.2c0.6,0.2,1,0.4,1.1,0.6c0.1,0.2,0.2,0.5,0.2,0.8C66.4,58.5,66.2,58.8,65.9,59.1z M66.5,56.8
		c-0.1-0.1-0.2-0.1-0.2-0.2c0.1-0.1,0.2-0.3,0.3-0.4C66.5,56.4,66.5,56.6,66.5,56.8z M70.2,59.2c-0.3,0.2-0.7,0.3-1.1,0.3
		c-0.7,0-1.2-0.3-1.6-0.9c-0.3-0.5-0.4-1-0.4-1.7c0-0.8,0.2-1.5,0.6-2c0.4-0.5,0.9-0.8,1.5-0.8c0.5,0,0.9,0.2,1.2,0.6
		c0.3,0.4,0.5,1,0.6,1.9h-2.6c0,0.7,0.2,1.2,0.5,1.6c0.2,0.3,0.5,0.5,0.8,0.5c0.2,0,0.4-0.1,0.5-0.2c0.2-0.1,0.4-0.3,0.5-0.7L71,58
		C70.8,58.6,70.5,59,70.2,59.2z M71.5,58.3c0,0.1,0,0.2,0,0.3c-0.1,0-0.2,0-0.3,0.1c0.1-0.2,0.2-0.3,0.3-0.5c0,0,0-0.1,0-0.1V58.3z
		 M71.5,57.8c0-0.1-0.1-0.2-0.2-0.3l-0.2-0.1c-0.1-0.1-0.3-0.1-0.4-0.1c-0.2,0-0.3,0.1-0.4,0.3c-0.1,0.1-0.2,0.4-0.4,0.5
		c-0.1,0-0.1,0.1-0.2,0.1c-0.2,0-0.3-0.1-0.4-0.2c-0.1-0.2-0.2-0.4-0.3-0.7h2c0.2,0,0.3-0.1,0.4-0.2c0.1-0.1,0.1-0.2,0.1-0.2V57.8z
		 M71.5,56.3c0-0.5-0.1-1-0.4-1.5c0.1,0.1,0.2,0.2,0.4,0.2c0,0.1,0,0.2,0,0.3V56.3z M74.1,55.2c0,0,0-0.1,0-0.2c0,0,0.1,0,0.1,0
		c0,0,0.1,0,0.1,0c0,0.1,0,0.2,0,0.3v3c0,0,0,0.1,0,0.2h-0.2c0-0.1,0-0.2,0-0.2V55.2z M76.8,54.5c-0.2,0-0.3,0.1-0.4,0.2
		c-0.1,0.1-0.1,0.3-0.1,0.6v3.1c0,0.3,0,0.6,0.1,0.7c0.1,0.1,0.2,0.2,0.4,0.2v1.5h-0.2c0-0.4-0.2-0.8-0.4-1s-0.7-0.3-1.3-0.3h-3.3
		v-0.2c0.2,0,0.3-0.1,0.4-0.2c0.1-0.1,0.1-0.3,0.1-0.7v-3c0-0.4,0-0.6-0.1-0.7c-0.1-0.1-0.2-0.1-0.4-0.1v-0.2H74v0.2
		c-0.2,0-0.3,0.1-0.4,0.1c-0.1,0.1-0.1,0.3-0.1,0.6v3c0,0.3,0,0.6,0.1,0.7c0.1,0.1,0.2,0.1,0.5,0.1h0.3c0.2,0,0.3,0,0.4-0.1
		c0.1-0.1,0.1-0.3,0.1-0.7v-3c0-0.3,0-0.6-0.1-0.7c-0.1-0.1-0.2-0.2-0.4-0.2v-0.2h2.4V54.5z M77.1,58.7c-0.1,0-0.1,0-0.2,0
		c0-0.1,0-0.2,0-0.3v-3.1c0,0,0-0.1,0-0.2c0.1,0,0.1,0,0.2,0l0.9,1.8L77.1,58.7z M77.8,59.3h-0.4l1.2-2.5l-1.2-2.5h0.4l2.1,2.5
		L77.8,59.3z M80,59.3h-0.4l1.2-2.5l-1.2-2.5H80l2.1,2.5L80,59.3z M69.7,55.1c-0.1-0.2-0.1-0.4-0.3-0.5c-0.1-0.1-0.2-0.1-0.3-0.1
		c-0.2,0-0.3,0.1-0.4,0.3c-0.2,0.3-0.3,0.8-0.3,1.3v0.2h1.4C69.8,55.7,69.7,55.3,69.7,55.1z M69,55.7c0-0.2,0.1-0.4,0.1-0.5
		c0,0,0,0,0,0.1c0,0.1,0,0.3,0.1,0.5H69z M59.4,57.4c-0.1,0.2-0.2,0.4-0.2,0.6c0,0.2,0,0.3,0.2,0.4c0.1,0.1,0.2,0.1,0.4,0.1
		c0.2,0,0.4-0.1,0.6-0.3v-1.7C59.9,56.8,59.6,57.1,59.4,57.4z M54.6,54.8c-0.3,0-0.6,0.3-0.8,0.8v2.7c0.3,0.4,0.6,0.7,0.9,0.7
		c0.2,0,0.3-0.1,0.4-0.3c0.2-0.3,0.3-0.9,0.3-1.7c0-0.9-0.1-1.5-0.3-1.8C55,54.9,54.8,54.8,54.6,54.8z M54.7,58.4
		C54.7,58.4,54.7,58.4,54.7,58.4c-0.1,0-0.2-0.1-0.3-0.2v-2.4c0.1-0.1,0.2-0.3,0.3-0.3c0,0,0,0,0,0c0.2,0.3,0.2,1.2,0.2,1.5
		C54.9,57.3,54.8,58.1,54.7,58.4z M55.1,55.1c-0.1-0.2-0.3-0.3-0.5-0.3c-0.3,0-0.6,0.3-0.8,0.8v2.7c0.3,0.4,0.6,0.7,0.9,0.7
		c0.2,0,0.3-0.1,0.4-0.3c0.2-0.3,0.3-0.9,0.3-1.7C55.4,56.1,55.3,55.5,55.1,55.1z M54.7,58.4C54.7,58.4,54.7,58.4,54.7,58.4
		c-0.1,0-0.2-0.1-0.3-0.2v-2.4c0.1-0.1,0.2-0.3,0.3-0.3c0,0,0,0,0,0c0.2,0.3,0.2,1.2,0.2,1.5C54.9,57.3,54.8,58.1,54.7,58.4z
		 M59.4,57.4c-0.1,0.2-0.2,0.4-0.2,0.6c0,0.2,0,0.3,0.2,0.4c0.1,0.1,0.2,0.1,0.4,0.1c0.2,0,0.4-0.1,0.6-0.3v-1.7
		C59.9,56.8,59.6,57.1,59.4,57.4z M69.7,55.1c-0.1-0.2-0.1-0.4-0.3-0.5c-0.1-0.1-0.2-0.1-0.3-0.1c-0.2,0-0.3,0.1-0.4,0.3
		c-0.2,0.3-0.3,0.8-0.3,1.3v0.2h1.4C69.8,55.7,69.7,55.3,69.7,55.1z M69,55.7c0-0.2,0.1-0.4,0.1-0.5c0,0,0,0,0,0.1
		c0,0.1,0,0.3,0.1,0.5H69z M69.7,55.1c-0.1-0.2-0.1-0.4-0.3-0.5c-0.1-0.1-0.2-0.1-0.3-0.1c-0.2,0-0.3,0.1-0.4,0.3
		c-0.2,0.3-0.3,0.8-0.3,1.3v0.2h1.4C69.8,55.7,69.7,55.3,69.7,55.1z M69,55.7c0-0.2,0.1-0.4,0.1-0.5c0,0,0,0,0,0.1
		c0,0.1,0,0.3,0.1,0.5H69z M59.4,57.4c-0.1,0.2-0.2,0.4-0.2,0.6c0,0.2,0,0.3,0.2,0.4c0.1,0.1,0.2,0.1,0.4,0.1c0.2,0,0.4-0.1,0.6-0.3
		v-1.7C59.9,56.8,59.6,57.1,59.4,57.4z M55.1,55.1c-0.1-0.2-0.3-0.3-0.5-0.3c-0.3,0-0.6,0.3-0.8,0.8v2.7c0.3,0.4,0.6,0.7,0.9,0.7
		c0.2,0,0.3-0.1,0.4-0.3c0.2-0.3,0.3-0.9,0.3-1.7C55.4,56.1,55.3,55.5,55.1,55.1z M54.7,58.4C54.7,58.4,54.7,58.4,54.7,58.4
		c-0.1,0-0.2-0.1-0.3-0.2v-2.4c0.1-0.1,0.2-0.3,0.3-0.3c0,0,0,0,0,0c0.2,0.3,0.2,1.2,0.2,1.5C54.9,57.3,54.8,58.1,54.7,58.4z
		 M55.1,55.1c-0.1-0.2-0.3-0.3-0.5-0.3c-0.3,0-0.6,0.3-0.8,0.8v2.7c0.3,0.4,0.6,0.7,0.9,0.7c0.2,0,0.3-0.1,0.4-0.3
		c0.2-0.3,0.3-0.9,0.3-1.7C55.4,56.1,55.3,55.5,55.1,55.1z M54.7,58.4C54.7,58.4,54.7,58.4,54.7,58.4c-0.1,0-0.2-0.1-0.3-0.2v-2.4
		c0.1-0.1,0.2-0.3,0.3-0.3c0,0,0,0,0,0c0.2,0.3,0.2,1.2,0.2,1.5C54.9,57.3,54.8,58.1,54.7,58.4z M59.4,57.4
		c-0.1,0.2-0.2,0.4-0.2,0.6c0,0.2,0,0.3,0.2,0.4c0.1,0.1,0.2,0.1,0.4,0.1c0.2,0,0.4-0.1,0.6-0.3v-1.7C59.9,56.8,59.6,57.1,59.4,57.4
		z M59.4,57.4c-0.1,0.2-0.2,0.4-0.2,0.6c0,0.2,0,0.3,0.2,0.4c0.1,0.1,0.2,0.1,0.4,0.1c0.2,0,0.4-0.1,0.6-0.3v-1.7
		C59.9,56.8,59.6,57.1,59.4,57.4z M55.1,55.1c-0.1-0.2-0.3-0.3-0.5-0.3c-0.3,0-0.6,0.3-0.8,0.8v2.7c0.3,0.4,0.6,0.7,0.9,0.7
		c0.2,0,0.3-0.1,0.4-0.3c0.2-0.3,0.3-0.9,0.3-1.7C55.4,56.1,55.3,55.5,55.1,55.1z M54.7,58.4C54.7,58.4,54.7,58.4,54.7,58.4
		c-0.1,0-0.2-0.1-0.3-0.2v-2.4c0.1-0.1,0.2-0.3,0.3-0.3c0,0,0,0,0,0c0.2,0.3,0.2,1.2,0.2,1.5C54.9,57.3,54.8,58.1,54.7,58.4z
		 M55.1,55.1c-0.1-0.2-0.3-0.3-0.5-0.3c-0.3,0-0.6,0.3-0.8,0.8v2.7c0.3,0.4,0.6,0.7,0.9,0.7c0.2,0,0.3-0.1,0.4-0.3
		c0.2-0.3,0.3-0.9,0.3-1.7C55.4,56.1,55.3,55.5,55.1,55.1z M54.7,58.4C54.7,58.4,54.7,58.4,54.7,58.4c-0.1,0-0.2-0.1-0.3-0.2v-2.4
		c0.1-0.1,0.2-0.3,0.3-0.3c0,0,0,0,0,0c0.2,0.3,0.2,1.2,0.2,1.5C54.9,57.3,54.8,58.1,54.7,58.4z M55.1,55.1
		c-0.1-0.2-0.3-0.3-0.5-0.3c-0.3,0-0.6,0.3-0.8,0.8v2.7c0.3,0.4,0.6,0.7,0.9,0.7c0.2,0,0.3-0.1,0.4-0.3c0.2-0.3,0.3-0.9,0.3-1.7
		C55.4,56.1,55.3,55.5,55.1,55.1z M54.7,58.4C54.7,58.4,54.7,58.4,54.7,58.4c-0.1,0-0.2-0.1-0.3-0.2v-2.4c0.1-0.1,0.2-0.3,0.3-0.3
		c0,0,0,0,0,0c0.2,0.3,0.2,1.2,0.2,1.5C54.9,57.3,54.8,58.1,54.7,58.4z"/>
</g>
<path id="path34" class="st1" d="M57.8,1.5c30.5,0,55.3,24.7,55.3,55.3s-24.7,55.3-55.3,55.3S2.5,87.3,2.5,56.8S27.3,1.5,57.8,1.5z"
	/>
</svg>
