<?xml version="1.0" encoding="utf-8"?>
<!-- Generator: Adobe Illustrator 26.4.1, SVG Export Plug-In . SVG Version: 6.00 Build 0)  -->
<svg version="1.1"
	 id="svg34" xmlns:svg="http://www.w3.org/2000/svg" xmlns:rdf="http://www.w3.org/1999/02/22-rdf-syntax-ns#" xmlns:cc="http://creativecommons.org/ns#" xmlns:dc="http://purl.org/dc/elements/1.1/"
	 xmlns="http://www.w3.org/2000/svg" xmlns:xlink="http://www.w3.org/1999/xlink" x="0px" y="0px" viewBox="0 0 155.9 155.9"
	 style="enable-background:new 0 0 155.9 155.9;" xml:space="preserve">
<style type="text/css">
	.st0{fill:none;stroke:#1B1918;stroke-width:1.1339;}
	.st1{fill:none;stroke:#1B1918;stroke-width:0.7087;}
	.st2{fill-rule:evenodd;clip-rule:evenodd;fill:#1B1918;}
	.st3{fill:none;stroke:#1B1918;stroke-width:0.8504;}
</style>
<path id="path6" class="st0" d="M78,24.1c29.7,0,53.9,24.1,53.9,53.9c0,29.7-24.1,53.9-53.9,53.9c-29.7,0-53.9-24.1-53.9-53.9
	C24.1,48.2,48.2,24.1,78,24.1z"/>
<path id="path8" class="st1" d="M78.2,44.9c18.4,0,33.3,14.9,33.3,33.3s-14.9,33.3-33.3,33.3c-18.4,0-33.3-14.9-33.3-33.3
	S59.8,44.9,78.2,44.9z"/>
<path id="path10" class="st2" d="M97.4,109.4c0-0.2-0.1-0.4-0.1-0.6c-0.1-0.3-0.2-0.5-0.2-0.6c0-0.2,0-0.3,0.1-0.3
	c0.1-0.1,0.2-0.1,0.3-0.1c0.1,0,0.2,0,0.2,0.1c0.1,0.1,0.1,0.2,0.1,0.3c0,0.1,0,0.3-0.1,0.5c-0.1,0.2-0.1,0.5-0.1,0.7
	c0.2-0.1,0.3-0.2,0.4-0.4c0.2-0.2,0.3-0.4,0.4-0.4c0.1-0.1,0.2-0.1,0.3-0.1c0.1,0,0.2,0,0.2,0.1c0.1,0.1,0.1,0.1,0.1,0.2
	c0,0.1,0,0.2-0.1,0.3c-0.1,0.1-0.3,0.2-0.7,0.3c-0.2,0.1-0.4,0.1-0.6,0.2c0.2,0.1,0.3,0.1,0.6,0.2c0.4,0.1,0.6,0.1,0.7,0.2
	c0.1,0.1,0.2,0.2,0.2,0.3c0,0.1,0,0.2-0.1,0.2c-0.1,0.1-0.1,0.1-0.2,0.1c-0.1,0-0.2,0-0.3-0.1c-0.1-0.1-0.3-0.2-0.4-0.4
	c-0.1-0.1-0.3-0.3-0.4-0.4c0,0.2,0,0.3,0.1,0.5c0.1,0.3,0.2,0.6,0.2,0.7c0,0.1,0,0.2-0.1,0.3c-0.1,0.1-0.1,0.1-0.2,0.1
	c-0.1,0-0.2,0-0.3-0.1c-0.1-0.1-0.1-0.2-0.1-0.3c0-0.1,0-0.3,0.1-0.5c0.1-0.2,0.1-0.3,0.1-0.4c0-0.1,0-0.2,0-0.3
	c-0.2,0.1-0.3,0.2-0.5,0.4c-0.2,0.2-0.4,0.4-0.5,0.5c-0.1,0-0.2,0.1-0.2,0.1c-0.1,0-0.2,0-0.3-0.1c-0.1-0.1-0.1-0.1-0.1-0.2
	c0-0.1,0-0.1,0.1-0.2c0.1-0.1,0.1-0.1,0.3-0.2c0.1,0,0.3-0.1,0.5-0.1c0.2,0,0.4-0.1,0.5-0.2c-0.2-0.1-0.3-0.1-0.6-0.2
	c-0.4-0.1-0.6-0.1-0.7-0.2c-0.1-0.1-0.2-0.2-0.2-0.3c0-0.1,0-0.2,0.1-0.2c0.1-0.1,0.1-0.1,0.2-0.1c0.1,0,0.2,0,0.3,0.1
	c0.1,0.1,0.2,0.2,0.4,0.4C97.1,109.1,97.3,109.3,97.4,109.4L97.4,109.4z"/>
<path id="path12" class="st2" d="M57.5,109.4c0-0.2-0.1-0.4-0.1-0.6c-0.1-0.3-0.2-0.5-0.2-0.6c0-0.2,0-0.3,0.1-0.3
	c0.1-0.1,0.2-0.1,0.3-0.1c0.1,0,0.2,0,0.2,0.1c0.1,0.1,0.1,0.2,0.1,0.3c0,0.1,0,0.3-0.1,0.5c-0.1,0.2-0.1,0.5-0.1,0.7
	c0.2-0.1,0.3-0.2,0.4-0.4c0.2-0.2,0.3-0.4,0.4-0.4c0.1-0.1,0.2-0.1,0.3-0.1c0.1,0,0.2,0,0.2,0.1c0.1,0.1,0.1,0.1,0.1,0.2
	c0,0.1,0,0.2-0.1,0.3c-0.1,0.1-0.3,0.2-0.7,0.3c-0.2,0.1-0.4,0.1-0.6,0.2c0.2,0.1,0.3,0.1,0.6,0.2c0.4,0.1,0.6,0.1,0.7,0.2
	c0.1,0.1,0.2,0.2,0.2,0.3c0,0.1,0,0.2-0.1,0.2c-0.1,0.1-0.1,0.1-0.2,0.1c-0.1,0-0.2,0-0.3-0.1c-0.1-0.1-0.3-0.2-0.4-0.4
	c-0.1-0.1-0.3-0.3-0.4-0.4c0,0.2,0,0.3,0.1,0.5c0.1,0.3,0.2,0.6,0.2,0.7c0,0.1,0,0.2-0.1,0.3c-0.1,0.1-0.1,0.1-0.2,0.1
	c-0.1,0-0.2,0-0.3-0.1c-0.1-0.1-0.1-0.2-0.1-0.3c0-0.1,0-0.3,0.1-0.5c0.1-0.2,0.1-0.3,0.1-0.4c0-0.1,0-0.2,0-0.3
	c-0.2,0.1-0.3,0.2-0.5,0.4c-0.2,0.2-0.4,0.4-0.5,0.5c-0.1,0-0.2,0.1-0.2,0.1c-0.1,0-0.2,0-0.3-0.1c-0.1-0.1-0.1-0.1-0.1-0.2
	c0-0.1,0-0.1,0.1-0.2c0.1-0.1,0.1-0.1,0.3-0.2c0.1,0,0.3-0.1,0.5-0.1c0.2,0,0.4-0.1,0.5-0.2c-0.2-0.1-0.3-0.1-0.6-0.2
	c-0.4-0.1-0.6-0.1-0.7-0.2c-0.1-0.1-0.2-0.2-0.2-0.3c0-0.1,0-0.2,0.1-0.2c0.1-0.1,0.1-0.1,0.2-0.1c0.1,0,0.2,0,0.3,0.1
	c0.1,0.1,0.2,0.2,0.4,0.4C57.2,109.2,57.4,109.3,57.5,109.4L57.5,109.4z"/>
<path id="path14" class="st2" d="M83.8,40.8c0-0.2-0.1-0.4-0.1-0.7c-0.1-0.3-0.2-0.5-0.2-0.7c0-0.2,0-0.3,0.1-0.4
	C83.7,39,83.8,39,84,39c0.1,0,0.2,0,0.3,0.1c0.1,0.1,0.1,0.2,0.1,0.4c0,0.1,0,0.3-0.1,0.6c-0.1,0.3-0.1,0.5-0.2,0.7
	c0.2-0.1,0.3-0.3,0.5-0.4c0.2-0.3,0.4-0.4,0.5-0.5c0.1-0.1,0.2-0.1,0.3-0.1c0.1,0,0.2,0,0.3,0.1c0.1,0.1,0.1,0.2,0.1,0.3
	c0,0.1-0.1,0.2-0.2,0.3c-0.1,0.1-0.4,0.2-0.8,0.3c-0.3,0.1-0.5,0.1-0.6,0.2c0.2,0.1,0.4,0.2,0.6,0.2c0.4,0.1,0.7,0.2,0.8,0.3
	c0.1,0.1,0.2,0.2,0.2,0.4c0,0.1,0,0.2-0.1,0.3c-0.1,0.1-0.2,0.1-0.3,0.1c-0.1,0-0.2,0-0.3-0.1c-0.1-0.1-0.3-0.2-0.5-0.5
	c-0.1-0.2-0.3-0.3-0.5-0.5c0,0.2,0,0.4,0.1,0.6c0.1,0.4,0.2,0.6,0.2,0.8c0,0.1,0,0.2-0.1,0.3C84.1,43,84,43,84,43
	c-0.1,0-0.2,0-0.3-0.1c-0.1-0.1-0.1-0.2-0.1-0.3c0-0.2,0-0.3,0.1-0.6c0.1-0.2,0.1-0.4,0.1-0.5c0-0.1,0-0.2,0.1-0.4
	c-0.2,0.1-0.4,0.3-0.5,0.4c-0.2,0.3-0.4,0.4-0.5,0.5c-0.1,0.1-0.2,0.1-0.3,0.1c-0.1,0-0.2,0-0.3-0.1c-0.1-0.1-0.1-0.2-0.1-0.2
	c0-0.1,0-0.2,0.1-0.3c0.1-0.1,0.2-0.2,0.3-0.2c0.1,0,0.3-0.1,0.6-0.2c0.2,0,0.4-0.1,0.6-0.2c-0.2-0.1-0.4-0.2-0.6-0.2
	c-0.4-0.1-0.6-0.2-0.7-0.2c-0.1-0.1-0.2-0.2-0.2-0.4c0-0.1,0-0.2,0.1-0.2c0.1-0.1,0.2-0.1,0.3-0.1c0.1,0,0.2,0,0.3,0.1
	c0.1,0.1,0.3,0.2,0.4,0.4C83.5,40.5,83.7,40.7,83.8,40.8z"/>
<path id="path16" class="st2" d="M113.7,107.3c0-0.2-0.1-0.4-0.1-0.7c-0.1-0.3-0.2-0.5-0.2-0.7c0-0.2,0-0.3,0.1-0.4
	c0.1-0.1,0.2-0.1,0.3-0.1c0.1,0,0.2,0,0.3,0.1c0.1,0.1,0.1,0.2,0.1,0.4c0,0.1,0,0.3-0.1,0.6c-0.1,0.3-0.1,0.5-0.2,0.7
	c0.2-0.1,0.3-0.3,0.5-0.4c0.2-0.3,0.4-0.4,0.5-0.5c0.1-0.1,0.2-0.1,0.3-0.1c0.1,0,0.2,0,0.3,0.1c0.1,0.1,0.1,0.2,0.1,0.3
	c0,0.1-0.1,0.2-0.2,0.3c-0.1,0.1-0.4,0.2-0.8,0.3c-0.2,0.1-0.5,0.1-0.6,0.2c0.2,0.1,0.4,0.2,0.6,0.2c0.4,0.1,0.7,0.2,0.8,0.3
	c0.1,0.1,0.2,0.2,0.2,0.4c0,0.1,0,0.2-0.1,0.3c-0.1,0.1-0.2,0.1-0.3,0.1c-0.1,0-0.2,0-0.3-0.1c-0.1-0.1-0.3-0.2-0.5-0.5
	c-0.1-0.2-0.3-0.3-0.5-0.5c0,0.2,0,0.4,0.1,0.6c0.1,0.4,0.2,0.6,0.2,0.8c0,0.1,0,0.2-0.1,0.3c-0.1,0.1-0.2,0.1-0.2,0.1
	c-0.1,0-0.2,0-0.3-0.1c-0.1-0.1-0.1-0.2-0.1-0.3c0-0.2,0-0.3,0.1-0.6c0.1-0.2,0.1-0.4,0.1-0.5c0-0.1,0-0.2,0.1-0.4
	c-0.2,0.1-0.4,0.3-0.5,0.4c-0.2,0.3-0.4,0.4-0.5,0.5c-0.1,0.1-0.2,0.1-0.3,0.1c-0.1,0-0.2,0-0.3-0.1c-0.1-0.1-0.1-0.2-0.1-0.2
	c0-0.1,0-0.2,0.1-0.3c0.1-0.1,0.2-0.2,0.3-0.2c0.1,0,0.3-0.1,0.6-0.2c0.2,0,0.4-0.1,0.6-0.2c-0.2-0.1-0.4-0.2-0.6-0.2
	c-0.4-0.1-0.6-0.2-0.7-0.2c-0.1-0.1-0.2-0.2-0.2-0.4c0-0.1,0-0.2,0.1-0.2c0.1-0.1,0.2-0.1,0.3-0.1c0.1,0,0.2,0,0.3,0.1
	c0.1,0.1,0.3,0.2,0.4,0.4C113.3,107,113.5,107.2,113.7,107.3z"/>
<path id="path18" class="st3" d="M78,26.6c28.3,0,51.3,23,51.3,51.3c0,28.3-23,51.3-51.3,51.3c-28.3,0-51.3-23-51.3-51.3
	C26.6,49.6,49.6,26.6,78,26.6z"/>
<path id="path20" class="st2" d="M40.9,103.8c-0.8,0.5-1.6,0.7-2.3,0.7c-0.7-0.1-1.2-0.4-1.5-0.9c-0.2-0.4-0.3-0.7-0.3-1.1
	c0-0.4,0.2-0.8,0.4-1.2c0.3-0.4,0.7-0.8,1.2-1.1c0.7-0.5,1.4-0.7,2.1-0.6c0.7,0,1.3,0.4,1.6,0.9c0.4,0.6,0.4,1.2,0.1,1.9
	C42,102.9,41.5,103.4,40.9,103.8L40.9,103.8z M40.5,103.3c0.6-0.4,1-0.8,1.1-1.3c0.2-0.5,0.1-0.9-0.1-1.3c-0.2-0.4-0.6-0.6-1.1-0.7
	c-0.5-0.1-1.1,0.1-1.7,0.5c-0.4,0.3-0.7,0.6-1,0.9c-0.2,0.3-0.3,0.5-0.3,0.9c0,0.3,0,0.6,0.2,0.8c0.3,0.4,0.6,0.6,1.1,0.7
	C39.2,103.9,39.8,103.7,40.5,103.3z M35.2,99.9l-1.3-2.8l0.6-0.3l1,2.2l1.6-0.7l-0.5-1c-0.2-0.4-0.3-0.7-0.3-1
	c0-0.3,0.1-0.5,0.3-0.8c0.2-0.2,0.4-0.4,0.8-0.6c0.3-0.1,0.6-0.2,0.9-0.2c0.3,0,0.6,0.1,0.8,0.3c0.2,0.2,0.4,0.4,0.6,0.8l0.8,1.7
	L35.2,99.9z M39.5,97.3L39,96.1c-0.1-0.3-0.3-0.5-0.5-0.6c-0.2-0.1-0.5-0.1-0.8,0.1c-0.2,0.1-0.4,0.2-0.5,0.4
	c-0.1,0.2-0.1,0.3-0.1,0.5c0,0.2,0.1,0.4,0.3,0.8l0.3,0.8L39.5,97.3z M33.1,95.3l-0.2-0.6l4.8-1.6l-0.5-1.5l-4.8,1.6l-0.2-0.6L37,91
	l-0.5-1.5l-4.8,1.6l-0.2-0.6l4.8-1.6l-0.1-0.4l2.1-0.7l0.2,0.5L37,88.8l1.6,4.6L33.1,95.3z M36.7,87.3l-5.6,1.1L30.4,85l0.7-0.1
	l0.5,2.7l1.7-0.3l-0.5-2.6l0.7-0.1l0.5,2.6l1.9-0.4L35.4,84l0.7-0.1L36.7,87.3z M33.7,79.6l0.1-0.6c0.7,0.1,1.2,0.3,1.5,0.6
	c0.3,0.3,0.5,0.7,0.6,1.2c0,0.4,0,0.8-0.2,1.1c-0.2,0.3-0.5,0.6-1,0.8c-0.5,0.2-1,0.4-1.6,0.4c-0.6,0-1.2,0-1.6-0.2
	c-0.5-0.2-0.8-0.4-1-0.7C30.2,82,30,81.6,30,81.2c0-0.5,0.1-0.9,0.3-1.2c0.3-0.3,0.7-0.6,1.2-0.8l0.2,0.6c-0.8,0.3-1.1,0.7-1.1,1.3
	c0,0.3,0.1,0.6,0.3,0.8c0.2,0.2,0.4,0.4,0.8,0.5c0.3,0.1,0.8,0.1,1.3,0.1c0.8-0.1,1.4-0.2,1.7-0.5c0.4-0.3,0.5-0.7,0.5-1.1
	c0-0.3-0.2-0.6-0.4-0.9C34.6,79.8,34.2,79.6,33.7,79.6z M35.8,76.6l-5.1-0.2L30.7,78l-0.7,0l0.1-3.7l0.7,0l-0.1,1.6l5.1,0.2
	L35.8,76.6z M36,73.6l-5.7-0.7l0.2-1.8c0-0.4,0.1-0.6,0.3-0.8c0.1-0.2,0.3-0.3,0.6-0.5c0.2-0.1,0.5-0.1,0.8-0.1
	c0.3,0,0.5,0.1,0.7,0.3c0.2,0.1,0.3,0.3,0.4,0.5c0.1-0.3,0.3-0.5,0.6-0.6c0.3-0.1,0.6-0.2,0.9-0.1c0.3,0,0.6,0.1,0.9,0.3
	c0.2,0.2,0.4,0.4,0.5,0.6c0.1,0.3,0.1,0.6,0.1,1L36,73.6z M32.8,72.6l0.1-1c0-0.3,0-0.5,0-0.6c0-0.2-0.1-0.3-0.2-0.4
	c-0.1-0.1-0.3-0.2-0.5-0.2c-0.2,0-0.4,0-0.5,0.1c-0.1,0.1-0.3,0.2-0.3,0.3c-0.1,0.1-0.1,0.4-0.2,0.7L31,72.4L32.8,72.6z M35.4,72.9
	l0.1-1.2c0-0.3,0-0.4,0-0.6c0-0.2-0.1-0.3-0.3-0.4c-0.1-0.1-0.3-0.2-0.6-0.2c-0.2,0-0.4,0-0.6,0.1c-0.2,0.1-0.3,0.2-0.4,0.3
	c-0.1,0.1-0.1,0.4-0.2,0.7l-0.1,1.1L35.4,72.9z M34,68.5c-0.9-0.2-1.6-0.6-2-1.2c-0.4-0.5-0.5-1.1-0.4-1.8c0.1-0.4,0.3-0.7,0.6-1
	c0.3-0.3,0.7-0.4,1.2-0.5c0.5-0.1,1,0,1.6,0.1c0.8,0.2,1.4,0.6,1.9,1.1c0.5,0.6,0.6,1.2,0.4,1.8c-0.2,0.7-0.6,1.1-1.3,1.4
	C35.4,68.7,34.7,68.7,34,68.5z M34.1,67.9c0.7,0.2,1.3,0.2,1.7,0c0.5-0.2,0.7-0.5,0.9-1c0.1-0.4,0-0.9-0.3-1.3
	c-0.3-0.4-0.8-0.7-1.6-0.9c-0.5-0.1-0.9-0.2-1.3-0.1c-0.3,0-0.6,0.2-0.8,0.4c-0.2,0.2-0.4,0.4-0.5,0.7c-0.1,0.5,0,0.9,0.3,1.3
	C32.8,67.4,33.4,67.7,34.1,67.9z M38.4,58.3l0.4-0.5c0.5,0.4,0.9,0.8,1,1.2c0.1,0.4,0.1,0.9-0.1,1.3c-0.2,0.4-0.4,0.7-0.7,0.9
	c-0.3,0.2-0.7,0.3-1.2,0.3c-0.5,0-1.1-0.1-1.6-0.4c-0.6-0.3-1-0.6-1.3-0.9c-0.3-0.4-0.5-0.7-0.6-1.1c-0.1-0.4,0-0.8,0.2-1.2
	c0.2-0.4,0.5-0.7,0.9-0.9c0.4-0.2,0.9-0.2,1.4-0.1l-0.1,0.6c-0.8-0.1-1.3,0.1-1.6,0.7c-0.1,0.3-0.2,0.6-0.1,0.8
	c0.1,0.3,0.2,0.5,0.5,0.8c0.3,0.3,0.6,0.5,1.1,0.7c0.7,0.3,1.3,0.4,1.8,0.3c0.5-0.1,0.8-0.3,1-0.8c0.1-0.3,0.1-0.6,0-1
	C39.1,58.9,38.8,58.6,38.4,58.3z M39.5,54.6c-0.8-0.6-1.3-1.2-1.5-1.8c-0.2-0.7-0.1-1.2,0.3-1.8c0.2-0.3,0.6-0.6,0.9-0.7
	c0.4-0.1,0.8-0.2,1.3-0.1c0.5,0.1,1,0.3,1.5,0.7c0.7,0.5,1.1,1.1,1.4,1.7c0.2,0.7,0.1,1.3-0.3,1.9c-0.4,0.6-1,0.8-1.7,0.8
	C40.8,55.3,40.1,55,39.5,54.6z M39.9,54.1c0.6,0.4,1.1,0.6,1.6,0.6c0.5,0,0.9-0.2,1.1-0.6c0.3-0.4,0.3-0.8,0.2-1.3
	c-0.1-0.5-0.5-0.9-1.1-1.4c-0.4-0.3-0.8-0.5-1.2-0.6c-0.3-0.1-0.6-0.1-0.9,0c-0.3,0.1-0.5,0.3-0.7,0.5c-0.3,0.4-0.3,0.8-0.2,1.3
	C38.8,53.1,39.2,53.6,39.9,54.1z M40.6,48l1.9-2.2l0.5,0.4l-1.5,1.7l3.8,3.3L45,51.7L40.6,48z M47.4,48.9l-4-4.1l1.3-1.2
	c0.3-0.3,0.5-0.5,0.7-0.6c0.3-0.1,0.5-0.1,0.9-0.1c0.3,0.1,0.6,0.3,0.9,0.5c0.4,0.4,0.6,0.8,0.6,1.2c0,0.4-0.2,0.9-0.6,1.3l-0.9,0.8
	l1.6,1.7L47.4,48.9z M45.8,46.3l0.9-0.8c0.3-0.3,0.4-0.5,0.4-0.8c0-0.2-0.1-0.5-0.4-0.8c-0.2-0.2-0.3-0.3-0.5-0.3
	c-0.2-0.1-0.3-0.1-0.5,0c-0.1,0-0.3,0.2-0.5,0.4l-0.9,0.8L45.8,46.3z M50.4,46.1l-2.1-5.6l0.5-0.4l5.1,3.3l-0.6,0.4l-1.5-1L50.2,44
	l0.7,1.7L50.4,46.1z M50,43.4l1.3-1l-1.4-0.9c-0.4-0.3-0.8-0.5-1-0.7c0.2,0.3,0.3,0.7,0.5,1L50,43.4z M54.4,43l-3.1-4.9l0.5-0.3
	l1.3,2l2.1-1.3l-1.3-2l0.5-0.3l3.1,4.9L57,41.4l-1.4-2.3l-2.1,1.3l1.4,2.3L54.4,43z M56.3,35.2l0.5-0.2l1.9,4.2l0.4-5.2l0.6-0.3
	l2.4,5.2l-0.5,0.2L59.7,35l-0.4,5.2l-0.6,0.3L56.3,35.2z M66.4,37.4l-0.6,0.2l-0.7-2.2c-0.4,0.4-0.9,0.7-1.3,0.8
	c-0.3,0.1-0.6,0.1-0.9,0c-0.3-0.1-0.5-0.3-0.7-0.5c-0.2-0.2-0.3-0.6-0.5-1l-0.5-1.6l0.6-0.2l0.5,1.5c0.2,0.5,0.4,0.9,0.6,1
	c0.2,0.2,0.5,0.2,0.8,0.1c0.4-0.1,0.8-0.4,1.2-0.8L64,32.1l0.6-0.2L66.4,37.4z M67.6,37.1l-1.3-5.6l3.3-0.8l0.2,0.7L67.1,32l0.4,1.7
	l2.5-0.6l0.2,0.7l-2.5,0.6l0.4,1.9l2.8-0.7l0.2,0.7L67.6,37.1z M72.1,36.1l-0.4-5.7l0.6,0l0.2,2.4l2.4-0.2l-0.2-2.4l0.6,0l0.4,5.7
	l-0.6,0L75,33.2l-2.4,0.2l0.2,2.7L72.1,36.1z M77.1,35.7l0.2-5.7l0.6,0l-0.1,2.4l2.4,0.1l0.1-2.4l0.6,0l-0.2,5.7l-0.6,0l0.1-2.7
	L77.8,33l-0.1,2.7L77.1,35.7z M82.2,33.1c0.1-1,0.4-1.7,0.9-2.2c0.5-0.5,1.1-0.7,1.7-0.6c0.4,0,0.8,0.2,1.1,0.5
	c0.3,0.3,0.5,0.6,0.7,1.1c0.1,0.5,0.2,1,0.1,1.6c-0.1,0.8-0.4,1.5-0.8,2c-0.5,0.5-1.1,0.8-1.8,0.7c-0.7-0.1-1.2-0.4-1.6-1.1
	C82.2,34.6,82.1,33.9,82.2,33.1z M82.9,33.2c-0.1,0.7,0,1.3,0.3,1.7c0.3,0.4,0.6,0.7,1.1,0.7c0.5,0.1,0.9-0.1,1.2-0.5
	c0.4-0.4,0.6-0.9,0.7-1.7c0.1-0.5,0-0.9-0.1-1.3c-0.1-0.3-0.2-0.6-0.5-0.8c-0.2-0.2-0.5-0.3-0.8-0.4c-0.5-0.1-0.9,0.1-1.2,0.4
	C83.2,31.8,82.9,32.4,82.9,33.2z M88.8,31.2l0.5,0.1l-1.1,4.4l3.6-3.8l0.6,0.2l-1.4,5.6l-0.5-0.1l1.1-4.4l-3.6,3.8l-0.6-0.2
	L88.8,31.2z M91.6,30.4l0.4,0.1c-0.1,0.3-0.3,0.5-0.5,0.7c-0.2,0.1-0.4,0.2-0.7,0.1c-0.3-0.1-0.4-0.2-0.6-0.4
	c-0.1-0.2-0.2-0.5-0.1-0.8l0.4,0.1c0,0.4,0.1,0.6,0.4,0.6c0.2,0,0.3,0,0.4,0C91.4,30.7,91.5,30.6,91.6,30.4z M94.8,36.1
	c0.4-0.9,0.9-1.5,1.5-1.8c0.6-0.3,1.2-0.3,1.8-0.1c0.4,0.2,0.7,0.4,0.9,0.8c0.2,0.4,0.3,0.8,0.3,1.3c0,0.5-0.1,1-0.4,1.6
	c-0.3,0.8-0.8,1.3-1.4,1.7c-0.6,0.4-1.3,0.4-1.9,0.1c-0.6-0.3-1-0.8-1.2-1.5C94.4,37.5,94.5,36.8,94.8,36.1z M95.4,36.4
	c-0.3,0.6-0.4,1.2-0.2,1.7c0.1,0.5,0.4,0.8,0.8,1c0.4,0.2,0.8,0.2,1.3-0.1c0.4-0.2,0.8-0.7,1.1-1.4c0.2-0.5,0.3-0.9,0.3-1.3
	c0-0.3-0.1-0.6-0.2-0.9c-0.2-0.3-0.4-0.5-0.6-0.6c-0.4-0.2-0.9-0.2-1.3,0.1C96.1,35.1,95.7,35.6,95.4,36.4z M99.7,41.6l2.6-4.4
	l-1.3-0.8l0.3-0.6l3.2,1.9l-0.3,0.6l-1.3-0.8l-2.6,4.4L99.7,41.6z M102.2,43.2l3.5-4.6l1.4,1.1c0.3,0.2,0.5,0.4,0.6,0.7
	c0.1,0.2,0.1,0.5,0.1,0.7c0,0.3-0.1,0.5-0.3,0.7c-0.2,0.2-0.4,0.4-0.6,0.5c-0.2,0.1-0.5,0.1-0.7,0.1c0.2,0.2,0.2,0.5,0.2,0.8
	c0,0.3-0.1,0.6-0.4,0.8c-0.2,0.3-0.5,0.5-0.7,0.6c-0.3,0.1-0.5,0.2-0.8,0.1c-0.3-0.1-0.6-0.2-0.9-0.5L102.2,43.2z M104.8,40.9
	l0.8,0.6c0.2,0.2,0.4,0.3,0.5,0.3c0.2,0.1,0.3,0.1,0.5,0c0.1-0.1,0.3-0.2,0.4-0.3c0.1-0.2,0.2-0.3,0.2-0.5c0-0.2,0-0.3-0.1-0.4
	c-0.1-0.1-0.2-0.3-0.5-0.5l-0.8-0.6L104.8,40.9z M103.2,43.1l0.9,0.7c0.2,0.2,0.4,0.3,0.5,0.3c0.2,0.1,0.4,0,0.5,0
	c0.2-0.1,0.3-0.2,0.5-0.4c0.1-0.2,0.2-0.3,0.2-0.5c0-0.2,0-0.3-0.1-0.5c-0.1-0.1-0.2-0.3-0.5-0.5l-0.9-0.7L103.2,43.1z M105.9,46
	l4-4.1l2.5,2.4l-0.5,0.5l-2-1.9l-1.2,1.3l1.9,1.8l-0.5,0.5l-1.9-1.8l-1.4,1.4l2.1,2l-0.5,0.5L105.9,46z M110,50.2l3.9-3.3l-1-1.2
	l0.5-0.4l2.4,2.8l-0.5,0.4l-1-1.2l-3.9,3.3L110,50.2z M115.5,54.1l0.2,0.6c-0.6,0.3-1.1,0.3-1.6,0.2c-0.5-0.1-0.8-0.4-1.1-0.8
	c-0.3-0.4-0.4-0.7-0.4-1.1c0-0.4,0.1-0.8,0.4-1.2c0.3-0.4,0.7-0.8,1.2-1.2c0.5-0.4,1-0.6,1.5-0.7c0.5-0.1,0.9-0.1,1.3,0.1
	c0.4,0.1,0.7,0.4,0.9,0.7c0.3,0.4,0.4,0.8,0.3,1.2c0,0.4-0.3,0.9-0.6,1.3l-0.5-0.4c0.5-0.6,0.6-1.2,0.3-1.7
	c-0.2-0.3-0.4-0.4-0.7-0.5c-0.3-0.1-0.6-0.1-0.9,0c-0.4,0.1-0.7,0.3-1.2,0.6c-0.6,0.5-1,0.9-1.2,1.4c-0.2,0.5-0.1,0.9,0.2,1.2
	c0.2,0.3,0.5,0.4,0.8,0.5C114.7,54.4,115.1,54.3,115.5,54.1z M115.3,57.7l4.4-2.6l-0.8-1.3l0.6-0.3l1.9,3.2l-0.6,0.3l-0.8-1.3
	l-4.4,2.6L115.3,57.7z M116.7,60.3l5.3-2.1l0.7,1.6c0.1,0.3,0.2,0.6,0.2,0.9c0,0.2-0.1,0.5-0.3,0.7c-0.2,0.2-0.4,0.4-0.6,0.5
	c-0.2,0.1-0.5,0.1-0.7,0.1c-0.2,0-0.5-0.1-0.7-0.3c0,0.3-0.1,0.6-0.2,0.8c-0.2,0.2-0.4,0.4-0.7,0.5c-0.3,0.1-0.6,0.2-0.9,0.1
	c-0.3,0-0.5-0.1-0.7-0.3c-0.2-0.2-0.4-0.5-0.5-0.8L116.7,60.3z M120,59.7l0.4,0.9c0.1,0.2,0.2,0.4,0.3,0.5c0.1,0.1,0.2,0.2,0.4,0.2
	c0.2,0,0.3,0,0.5-0.1c0.2-0.1,0.3-0.2,0.4-0.3c0.1-0.1,0.1-0.3,0.1-0.4c0-0.1-0.1-0.4-0.2-0.7l-0.4-0.9L120,59.7z M117.6,60.7
	l0.4,1.1c0.1,0.2,0.2,0.4,0.3,0.5c0.1,0.1,0.3,0.2,0.5,0.3c0.2,0,0.4,0,0.6-0.1c0.2-0.1,0.4-0.2,0.5-0.3c0.1-0.1,0.2-0.3,0.2-0.5
	c0-0.2,0-0.4-0.2-0.7l-0.4-1L117.6,60.7z M118.4,64.6l5.5-1.5l0.9,3.3l-0.6,0.2l-0.7-2.7l-1.7,0.5l0.7,2.5l-0.6,0.2l-0.7-2.5
	l-1.9,0.5l0.8,2.8l-0.7,0.2L118.4,64.6z M119.6,69.1l5.6-1.1l0.1,0.6l-2.3,0.4l0.5,2.4l2.3-0.4l0.1,0.6l-5.6,1.1l-0.1-0.6l2.7-0.5
	l-0.5-2.4l-2.7,0.5L119.6,69.1z M120.4,74l5.7-0.4l0,0.6l-2.4,0.2l0.2,2.4l2.4-0.2l0,0.6l-5.7,0.4l0-0.6l2.7-0.2l-0.2-2.4l-2.7,0.2
	L120.4,74z M123.4,79c1,0.1,1.7,0.3,2.2,0.8c0.5,0.5,0.7,1,0.7,1.7c0,0.4-0.2,0.8-0.4,1.1c-0.3,0.3-0.6,0.6-1.1,0.7
	c-0.5,0.2-1,0.2-1.6,0.2c-0.8-0.1-1.5-0.3-2-0.7c-0.6-0.5-0.8-1-0.8-1.7c0.1-0.7,0.4-1.2,1-1.6C122,79.1,122.7,78.9,123.4,79z
	 M123.4,79.6c-0.7-0.1-1.3,0.1-1.7,0.3c-0.4,0.3-0.6,0.6-0.7,1.1c0,0.5,0.1,0.9,0.5,1.2c0.4,0.3,0.9,0.5,1.7,0.6
	c0.5,0,0.9,0,1.3-0.1c0.3-0.1,0.6-0.3,0.8-0.5c0.2-0.2,0.3-0.5,0.3-0.8c0-0.5-0.1-0.9-0.5-1.2C124.8,79.9,124.2,79.7,123.4,79.6z
	 M121.5,87.9l-0.3,0.6c-0.6-0.3-1-0.6-1.3-1c-0.2-0.4-0.3-0.8-0.2-1.3c0.1-0.4,0.3-0.8,0.5-1c0.3-0.3,0.6-0.4,1.1-0.6
	c0.5-0.1,1.1-0.1,1.7,0c0.6,0.1,1.1,0.3,1.5,0.6c0.4,0.3,0.7,0.6,0.8,1c0.2,0.4,0.2,0.8,0.1,1.2c-0.1,0.4-0.3,0.8-0.6,1.1
	c-0.3,0.3-0.8,0.4-1.4,0.4l-0.1-0.6c0.8-0.1,1.3-0.4,1.4-1c0.1-0.3,0-0.6-0.1-0.8c-0.1-0.3-0.3-0.5-0.6-0.7
	c-0.3-0.2-0.7-0.3-1.2-0.4c-0.8-0.1-1.4-0.1-1.8,0.1c-0.4,0.2-0.7,0.5-0.8,1c-0.1,0.3,0,0.6,0.2,0.9
	C120.7,87.5,121.1,87.8,121.5,87.9z M118.8,90.3l4.9,1.3l0.4-1.5l0.7,0.2l-0.9,3.6l-0.7-0.2l0.4-1.5l-4.9-1.3L118.8,90.3z
	 M123.2,95.3l-0.2,0.6l-2.3-0.9l-0.4,1c-0.2,0.4-0.3,0.7-0.5,0.9c-0.2,0.2-0.4,0.3-0.7,0.3c-0.3,0-0.6,0-0.9-0.1
	c-0.4-0.2-0.7-0.4-0.9-0.8c-0.2-0.4-0.2-0.8,0.1-1.5l0.7-1.7L123.2,95.3z M118.2,94l-0.4,1.1c-0.1,0.4-0.2,0.7-0.1,0.9
	c0.1,0.2,0.3,0.4,0.6,0.5c0.2,0.1,0.4,0.1,0.6,0.1c0.2,0,0.3-0.1,0.4-0.3c0.1-0.1,0.2-0.4,0.4-0.8l0.3-0.8L118.2,94z M121.1,100.3
	l-0.3,0.5l-2.2-1.3l-0.5,0.8c0.7,0.4,1.1,1,1.4,1.5c0.2,0.6,0.2,1.1-0.1,1.6c-0.3,0.5-0.8,0.8-1.4,0.9c-0.6,0.1-1.4-0.1-2.2-0.6
	c-0.8-0.5-1.3-1-1.6-1.6c-0.3-0.6-0.2-1.2,0.1-1.7c0.3-0.5,0.8-0.8,1.4-0.9c0.6-0.1,1.2,0.1,1.9,0.4l0.5-0.8l-2.2-1.3l0.3-0.5
	L121.1,100.3z M117.5,100.7c-0.6-0.4-1.2-0.5-1.7-0.5c-0.5,0-0.8,0.2-1.1,0.6c-0.2,0.4-0.2,0.8,0,1.2c0.2,0.4,0.6,0.8,1.3,1.2
	c0.6,0.4,1.2,0.5,1.7,0.5c0.5,0,0.8-0.2,1.1-0.6c0.2-0.4,0.2-0.8,0-1.2C118.6,101.5,118.1,101,117.5,100.7z"/>
<path id="path22" class="st2" d="M53.7,103.4l-3.3,3.1l-1.2-1.2c-0.2-0.2-0.3-0.4-0.4-0.5c-0.1-0.2-0.2-0.4-0.2-0.6
	c0-0.2,0-0.4,0.1-0.6c0.1-0.2,0.2-0.4,0.4-0.5c0.3-0.3,0.6-0.4,1-0.4c0.4,0,0.8,0.2,1.2,0.7l0.8,0.8l1.3-1.3L53.7,103.4z
	 M51.6,104.6l-0.8-0.9c-0.3-0.3-0.5-0.4-0.7-0.5c-0.2,0-0.4,0.1-0.6,0.2c-0.1,0.1-0.2,0.3-0.3,0.4c0,0.2,0,0.3,0.1,0.5
	c0,0.1,0.2,0.2,0.3,0.4l0.8,0.8L51.6,104.6z M49.1,101.9c-0.6,0.4-1.2,0.6-1.8,0.5c-0.6-0.1-1-0.4-1.4-0.9c-0.2-0.3-0.4-0.7-0.4-1.1
	c0-0.4,0.1-0.8,0.3-1.1c0.2-0.3,0.5-0.6,0.8-0.9c0.4-0.3,0.8-0.4,1.2-0.5c0.4-0.1,0.8,0,1.1,0.2c0.3,0.2,0.6,0.4,0.8,0.7
	c0.2,0.3,0.4,0.7,0.4,1.1c0,0.4-0.1,0.8-0.3,1.1C49.7,101.3,49.5,101.6,49.1,101.9z M48.8,101.3c0.4-0.3,0.7-0.7,0.8-1.1
	c0.1-0.4,0-0.8-0.2-1.2c-0.3-0.4-0.6-0.6-1-0.6c-0.4-0.1-0.9,0.1-1.4,0.4c-0.3,0.2-0.5,0.4-0.7,0.7c-0.2,0.3-0.2,0.5-0.2,0.8
	c0,0.3,0.1,0.5,0.3,0.8c0.2,0.3,0.6,0.6,1,0.7C47.8,101.9,48.2,101.7,48.8,101.3z M45.2,94.4L45,93.8c0.5-0.1,0.9-0.1,1.3,0.1
	c0.4,0.2,0.7,0.4,0.9,0.9c0.2,0.4,0.3,0.8,0.3,1.2c0,0.4-0.2,0.7-0.4,1c-0.3,0.3-0.6,0.6-0.9,0.8c-0.4,0.2-0.8,0.3-1.2,0.4
	c-0.4,0-0.7-0.1-1.1-0.3c-0.3-0.2-0.6-0.5-0.8-0.8c-0.2-0.4-0.3-0.8-0.2-1.2c0.1-0.4,0.2-0.7,0.5-1l0.4,0.4
	c-0.2,0.2-0.4,0.5-0.4,0.7c0,0.2,0,0.5,0.2,0.8c0.2,0.3,0.4,0.5,0.6,0.6c0.3,0.1,0.5,0.2,0.8,0.1c0.3-0.1,0.6-0.1,0.8-0.3
	c0.3-0.2,0.6-0.4,0.8-0.6c0.2-0.2,0.3-0.5,0.3-0.8c0-0.3,0-0.5-0.2-0.8c-0.2-0.3-0.4-0.5-0.7-0.6C45.9,94.3,45.5,94.3,45.2,94.4z
	 M43.2,90.1l-0.1-0.6c0.5-0.1,0.9,0,1.3,0.2c0.4,0.2,0.6,0.5,0.8,0.9c0.2,0.4,0.3,0.8,0.2,1.2c-0.1,0.4-0.2,0.7-0.5,1
	c-0.3,0.3-0.6,0.5-1,0.7c-0.4,0.2-0.8,0.3-1.2,0.2c-0.4,0-0.7-0.2-1-0.4c-0.3-0.2-0.5-0.5-0.7-0.9c-0.2-0.4-0.2-0.8-0.1-1.2
	c0.1-0.4,0.3-0.7,0.6-1l0.4,0.5c-0.3,0.2-0.4,0.5-0.5,0.7c-0.1,0.2,0,0.5,0.1,0.8c0.1,0.3,0.3,0.6,0.6,0.7c0.2,0.1,0.5,0.2,0.8,0.2
	c0.3,0,0.6-0.1,0.9-0.2c0.4-0.1,0.6-0.3,0.9-0.5c0.2-0.2,0.3-0.5,0.4-0.7c0-0.3,0-0.5-0.1-0.8c-0.1-0.3-0.3-0.5-0.6-0.7
	C43.9,90.1,43.6,90,43.2,90.1z M39.9,89.2l-0.1-0.5l3.5-0.8l-4-1.5l-0.1-0.6l4.4-1l0.1,0.5l-3.5,0.8l4,1.5l0.1,0.6L39.9,89.2z
	 M38.9,84.4l-0.1-0.5l3.5-0.5l-3.9-1.8l-0.1-0.6l4.5-0.7l0.1,0.5l-3.5,0.5l3.9,1.8l0.1,0.6L38.9,84.4z M37.5,82.4L37.4,82
	c0.3,0,0.5,0.1,0.6,0.2c0.2,0.1,0.3,0.3,0.3,0.6c0,0.3,0,0.5-0.1,0.7c-0.1,0.2-0.3,0.3-0.6,0.4l-0.1-0.4c0.1,0,0.2-0.1,0.3-0.2
	C38,83.1,38,83,38,82.9c0-0.2-0.1-0.3-0.2-0.4C37.7,82.4,37.6,82.4,37.5,82.4z M41.3,76.1l0.2-0.6c0.5,0.1,0.9,0.4,1.1,0.7
	c0.3,0.3,0.4,0.7,0.4,1.2c0,0.5-0.1,0.9-0.3,1.2c-0.2,0.3-0.5,0.5-0.9,0.7c-0.4,0.2-0.8,0.2-1.2,0.2c-0.5,0-0.9-0.1-1.2-0.3
	c-0.3-0.2-0.6-0.4-0.8-0.8c-0.2-0.3-0.3-0.7-0.3-1.1c0-0.5,0.1-0.8,0.3-1.1c0.2-0.3,0.6-0.5,1-0.6l0.1,0.6c-0.3,0.1-0.6,0.3-0.7,0.5
	c-0.2,0.2-0.2,0.4-0.2,0.7c0,0.3,0.1,0.6,0.2,0.9c0.2,0.2,0.4,0.4,0.7,0.5c0.3,0.1,0.6,0.1,0.9,0.1c0.4,0,0.7-0.1,1-0.2
	c0.3-0.1,0.5-0.3,0.6-0.5c0.1-0.2,0.2-0.5,0.2-0.8c0-0.3-0.1-0.6-0.3-0.8C42,76.3,41.7,76.2,41.3,76.1L41.3,76.1z M38.5,74.1
	l0.1-0.6l2,0.3c0-0.3,0-0.5-0.1-0.6c-0.1-0.1-0.3-0.3-0.7-0.5c-0.3-0.2-0.5-0.3-0.6-0.4c-0.1-0.1-0.2-0.2-0.3-0.4
	c-0.1-0.2-0.1-0.3,0-0.5c0-0.2,0.1-0.3,0.1-0.4l0.5,0.1c0,0,0,0.1,0,0.1c0,0.1,0,0.1,0,0.1c0,0.2,0,0.3,0.1,0.4
	c0.1,0.1,0.3,0.2,0.5,0.4c0.4,0.2,0.6,0.4,0.7,0.5c0.1,0.1,0.1,0.3,0.2,0.4c0.1-0.3,0.4-0.5,0.9-0.7l1.6-0.7l-0.1,0.7L42,72.9
	c-0.4,0.2-0.6,0.3-0.8,0.4c-0.1,0.1-0.2,0.3-0.3,0.5l2.1,0.3l-0.1,0.6L38.5,74.1z M43.4,71.6l-4-2.7l0.1-0.6l4.8-0.8l-0.1,0.7
	l-1.4,0.2l-0.4,1.9l1.2,0.8L43.4,71.6z M41.9,69.9l0.3-1.5l-1.3,0.2c-0.4,0.1-0.7,0.1-1,0.1c0.3,0.1,0.5,0.3,0.8,0.4L41.9,69.9z
	 M45.8,63.7l-4.2-1.6L40.9,64c-0.1,0.4-0.2,0.7-0.2,0.9c0,0.2,0.1,0.4,0.2,0.6c0.1,0.2,0.3,0.3,0.6,0.4c0.3,0.1,0.6,0.1,0.9,0
	c0.3-0.1,0.5-0.4,0.7-0.8c0,0.2,0,0.3,0.1,0.4c0.1,0.2,0.2,0.4,0.4,0.7l0.9,1.2l0.3-0.7L44,65.9c-0.2-0.3-0.3-0.5-0.4-0.6
	c-0.1-0.2-0.2-0.3-0.2-0.4c0-0.1,0-0.2,0-0.3c0-0.1,0-0.2,0.1-0.3l0.2-0.6l1.9,0.7L45.8,63.7z M43.2,63.4l-0.4,1.2
	c-0.1,0.3-0.2,0.4-0.3,0.6c-0.1,0.1-0.2,0.2-0.4,0.2c-0.1,0-0.3,0-0.4,0c-0.2-0.1-0.3-0.2-0.4-0.4c-0.1-0.2-0.1-0.4,0.1-0.8l0.5-1.3
	L43.2,63.4z M44.5,57.8L44,57.5l0.3-0.5l0.5,0.3c0.3-0.5,0.7-0.8,1.2-0.9c0.4-0.1,0.9-0.1,1.3,0.2c0.4,0.2,0.6,0.6,0.7,1
	c0.1,0.4,0,0.9-0.3,1.4l0.5,0.3l-0.3,0.5l-0.5-0.3c-0.3,0.4-0.7,0.7-1.1,0.9c-0.4,0.1-0.9,0.1-1.3-0.2c-0.4-0.3-0.7-0.6-0.7-1.1
	C44.1,58.7,44.2,58.3,44.5,57.8z M45.2,57.6l2,1.2c0.2-0.3,0.2-0.7,0.2-0.9c-0.1-0.3-0.2-0.5-0.5-0.7C46.6,57,46.3,56.9,46,57
	C45.7,57.1,45.4,57.3,45.2,57.6z M44.9,58.1c-0.2,0.3-0.2,0.6-0.2,0.9c0.1,0.3,0.2,0.5,0.5,0.7c0.3,0.2,0.6,0.2,0.9,0.2
	c0.3-0.1,0.5-0.3,0.8-0.6L44.9,58.1z M49.6,57.2l-3.5-2.9l2.1-2.5l0.4,0.3l-1.7,2l1.1,0.9l1.6-1.9l0.4,0.3l-1.6,1.9l1.2,1l1.8-2.1
	l0.4,0.3L49.6,57.2z M49.5,50.4l2-1.9l2.7,2.9l0.3-0.3l1.1,1.2l-0.4,0.4l-0.7-0.8l-2.2,2l0.7,0.8l-0.4,0.4l-1.1-1.2l0.3-0.2
	c-0.1-0.6-0.7-1.6-1.9-2.8L49.5,50.4z M51.4,49.3l-1.2,1.1l0.2,0.2c0.3,0.3,0.6,0.7,1,1.2c0.4,0.5,0.7,1,0.8,1.5l1.5-1.4L51.4,49.3z
	 M55.3,51.1l-2.8-3.6l2.6-2l0.3,0.4l-2.1,1.6l0.9,1.1l2-1.5l0.3,0.4l-2,1.5l0.9,1.2l2.2-1.7L58,49L55.3,51.1z M58.7,48.5l-2.2-4
	l1.5-0.8c0.3-0.1,0.5-0.2,0.6-0.3c0.2-0.1,0.4-0.1,0.6-0.1c0.2,0,0.4,0.1,0.5,0.2c0.2,0.1,0.3,0.3,0.4,0.5c0.2,0.3,0.2,0.7,0.1,1
	c-0.1,0.3-0.4,0.7-1,1l-1,0.6l0.9,1.6L58.7,48.5z M58.1,46.2l1-0.6c0.3-0.2,0.5-0.4,0.6-0.6c0.1-0.2,0-0.4-0.1-0.6
	c-0.1-0.2-0.2-0.3-0.4-0.4c-0.1-0.1-0.3-0.1-0.5-0.1c-0.1,0-0.3,0.1-0.5,0.2l-1,0.6L58.1,46.2z M61.5,46.8L61.2,42l0.6-0.3l3.5,3.4
	l-0.6,0.3l-1-1L62,45.1l0.1,1.4L61.5,46.8z M61.9,44.6l1.4-0.6L62.4,43c-0.3-0.3-0.5-0.5-0.7-0.7c0.1,0.3,0.1,0.6,0.1,0.9L61.9,44.6
	z M64.5,40.6l0.6-0.2l1.1,3.8l2.2-0.7l-1.1-3.8l0.6-0.2l1.1,3.8l0.4-0.1l0.5,1.7l-0.5,0.2L69.1,44l-3.3,1L64.5,40.6z M69.6,39.2
	l0.5-0.1l0.5,3.5l1.8-3.9l0.6-0.1l0.7,4.5l-0.5,0.1l-0.5-3.5l-1.8,3.9l-0.6,0.1L69.6,39.2z M78.3,42.9l0-4.5l-2,0
	c-0.4,0-0.7,0-0.9,0.1c-0.2,0.1-0.4,0.2-0.5,0.4c-0.1,0.2-0.2,0.4-0.2,0.7c0,0.3,0.1,0.6,0.3,0.8c0.2,0.2,0.5,0.4,1,0.4
	c-0.2,0.1-0.3,0.2-0.4,0.2c-0.2,0.2-0.3,0.4-0.5,0.6l-0.8,1.2l0.7,0l0.6-0.9c0.2-0.3,0.3-0.5,0.4-0.6c0.1-0.1,0.2-0.2,0.3-0.3
	c0.1-0.1,0.2-0.1,0.3-0.1c0.1,0,0.2,0,0.3,0l0.7,0l0,2L78.3,42.9z M77.7,40.4l-1.3,0c-0.3,0-0.5,0-0.6-0.1c-0.2-0.1-0.3-0.1-0.3-0.3
	c-0.1-0.1-0.1-0.3-0.1-0.4c0-0.2,0.1-0.4,0.2-0.5c0.2-0.1,0.4-0.2,0.7-0.2l1.4,0L77.7,40.4z M88.1,44.3l1.6-4.2l0.8,0.3l-0.1,3.4
	c0,0.3,0,0.5,0,0.7c0.1-0.1,0.3-0.3,0.5-0.6l2.1-2.6l0.7,0.3l-1.6,4.2l-0.5-0.2l1.3-3.5l-2.5,3.1l-0.5-0.2l0.1-4l-1.3,3.6L88.1,44.3
	z M93.9,44.2c0.4-0.6,0.8-1.1,1.4-1.2c0.6-0.2,1.1-0.1,1.7,0.2c0.4,0.2,0.6,0.5,0.8,0.8c0.2,0.3,0.3,0.7,0.3,1.1
	c0,0.4-0.1,0.8-0.4,1.2c-0.2,0.4-0.5,0.7-0.8,0.9c-0.3,0.2-0.7,0.3-1.1,0.3c-0.4,0-0.7-0.1-1.1-0.3c-0.4-0.2-0.6-0.5-0.8-0.8
	c-0.2-0.3-0.3-0.7-0.2-1.1C93.6,44.9,93.7,44.5,93.9,44.2L93.9,44.2z M94.4,44.5c-0.3,0.5-0.3,0.9-0.2,1.3c0.1,0.4,0.3,0.7,0.7,0.9
	c0.4,0.2,0.8,0.3,1.2,0.1c0.4-0.1,0.8-0.4,1-1c0.2-0.3,0.3-0.6,0.3-0.9c0-0.3,0-0.6-0.2-0.8c-0.1-0.2-0.3-0.4-0.6-0.6
	c-0.4-0.2-0.8-0.3-1.2-0.2C95.1,43.5,94.8,43.9,94.4,44.5z M100.8,49.1l0.4,0.5c-0.4,0.3-0.8,0.5-1.2,0.5c-0.4,0-0.8-0.1-1.2-0.4
	c-0.4-0.3-0.7-0.6-0.8-0.9c-0.1-0.3-0.2-0.7-0.1-1.1c0.1-0.4,0.3-0.8,0.5-1.1c0.3-0.4,0.6-0.7,0.9-0.8c0.3-0.2,0.7-0.3,1.1-0.2
	c0.4,0,0.7,0.2,1,0.4c0.4,0.3,0.6,0.6,0.7,0.9c0.1,0.4,0.1,0.8,0,1.2l-0.6-0.2c0.1-0.3,0.1-0.6,0-0.8c-0.1-0.2-0.2-0.4-0.5-0.6
	c-0.3-0.2-0.6-0.3-0.9-0.3c-0.3,0-0.5,0.1-0.8,0.3c-0.2,0.2-0.4,0.4-0.6,0.6c-0.2,0.3-0.4,0.6-0.4,0.9c-0.1,0.3-0.1,0.6,0.1,0.8
	c0.1,0.3,0.3,0.5,0.5,0.6c0.3,0.2,0.6,0.3,0.9,0.2C100.2,49.6,100.5,49.4,100.8,49.1z M103.9,48.1l0.4,0.4l-1.3,1.4
	c0.2,0.2,0.4,0.3,0.5,0.3c0.2,0,0.4-0.1,0.8-0.3c0.3-0.1,0.5-0.2,0.7-0.2c0.1,0,0.3,0,0.5,0c0.2,0,0.3,0.1,0.4,0.2
	c0.2,0.2,0.3,0.2,0.3,0.3l-0.4,0.4c0,0,0,0-0.1-0.1c0,0-0.1-0.1-0.1-0.1c-0.1-0.1-0.3-0.2-0.4-0.2c-0.1,0-0.3,0.1-0.6,0.2
	c-0.4,0.2-0.6,0.3-0.8,0.3c-0.1,0-0.3,0-0.4-0.1c0.2,0.3,0.2,0.6,0.1,1.2l-0.3,1.7l-0.5-0.5l0.3-1.4c0.1-0.4,0.1-0.7,0.1-0.9
	c0-0.2-0.1-0.4-0.3-0.5l-1.4,1.5l-0.4-0.4L103.9,48.1z M105,52.2c0.6-0.5,1.1-0.7,1.7-0.7c0.6,0,1.1,0.3,1.5,0.8
	c0.3,0.3,0.4,0.7,0.5,1.1c0.1,0.4,0,0.8-0.1,1.1c-0.2,0.4-0.4,0.7-0.7,1c-0.3,0.3-0.7,0.5-1.1,0.6c-0.4,0.1-0.8,0.1-1.1-0.1
	c-0.4-0.1-0.7-0.4-0.9-0.7c-0.3-0.3-0.4-0.7-0.5-1.1c-0.1-0.4,0-0.8,0.1-1.1C104.5,52.8,104.7,52.5,105,52.2z M105.4,52.7
	c-0.4,0.4-0.6,0.7-0.7,1.2c0,0.4,0.1,0.8,0.4,1.1c0.3,0.3,0.6,0.5,1.1,0.5c0.4,0,0.9-0.2,1.3-0.5c0.3-0.2,0.5-0.5,0.6-0.8
	c0.1-0.3,0.2-0.5,0.1-0.8c0-0.3-0.2-0.5-0.3-0.8c-0.3-0.3-0.6-0.5-1-0.5C106.4,52.1,106,52.3,105.4,52.7z M106.5,57.6l3.8-2.5
	l0.9,1.4c0.2,0.3,0.3,0.5,0.3,0.8c0,0.2,0,0.4-0.1,0.6c-0.1,0.2-0.2,0.4-0.4,0.5c-0.2,0.1-0.3,0.2-0.5,0.2c-0.2,0-0.4,0-0.6-0.2
	c0.1,0.3,0.1,0.5,0,0.7c-0.1,0.2-0.2,0.4-0.4,0.6c-0.2,0.1-0.4,0.2-0.6,0.2c-0.2,0-0.4,0-0.5,0c-0.2-0.1-0.3-0.2-0.5-0.3
	c-0.2-0.1-0.3-0.3-0.5-0.6L106.5,57.6z M109,56.6l0.5,0.8c0.1,0.2,0.3,0.4,0.4,0.4c0.1,0.1,0.2,0.2,0.4,0.2c0.1,0,0.3,0,0.4-0.1
	c0.1-0.1,0.2-0.2,0.3-0.3c0.1-0.1,0.1-0.3,0-0.4c0-0.1-0.1-0.3-0.3-0.6l-0.5-0.8L109,56.6z M107.3,57.8l0.6,0.9
	c0.1,0.2,0.2,0.3,0.2,0.3c0.1,0.1,0.2,0.2,0.3,0.2c0.1,0,0.2,0.1,0.3,0.1c0.1,0,0.2-0.1,0.4-0.1c0.1-0.1,0.2-0.2,0.3-0.4
	c0.1-0.1,0.1-0.3,0-0.4c0-0.2-0.1-0.4-0.3-0.6l-0.6-0.9L107.3,57.8z M111.6,63l0.2,0.6c-0.5,0.1-0.9,0.1-1.3,0
	c-0.4-0.2-0.7-0.4-0.9-0.8c-0.2-0.4-0.3-0.8-0.3-1.2c0-0.4,0.2-0.7,0.4-1c0.2-0.3,0.6-0.6,0.9-0.8c0.4-0.2,0.8-0.4,1.2-0.4
	c0.4,0,0.7,0.1,1.1,0.3c0.3,0.2,0.6,0.5,0.8,0.8c0.2,0.4,0.3,0.8,0.3,1.2c0,0.4-0.2,0.7-0.5,1l-0.4-0.4c0.2-0.3,0.4-0.5,0.4-0.7
	c0-0.2,0-0.5-0.2-0.8c-0.2-0.3-0.4-0.5-0.6-0.6c-0.3-0.1-0.5-0.2-0.8-0.1c-0.3,0.1-0.6,0.2-0.8,0.3c-0.3,0.2-0.6,0.4-0.8,0.6
	c-0.2,0.2-0.3,0.5-0.3,0.8c0,0.3,0.1,0.5,0.2,0.8c0.2,0.3,0.4,0.5,0.7,0.6C110.9,63.1,111.2,63.1,111.6,63L111.6,63z M115.1,63.8
	l0.2,0.6l-1.9,0.6c0.1,0.3,0.2,0.4,0.3,0.5c0.1,0.1,0.4,0.1,0.8,0.2c0.3,0,0.5,0.1,0.7,0.1c0.1,0,0.3,0.1,0.4,0.2
	c0.1,0.1,0.2,0.3,0.3,0.4c0.1,0.2,0.1,0.3,0.1,0.4l-0.5,0.1c0,0,0-0.1,0-0.1c0-0.1,0-0.1,0-0.1c-0.1-0.2-0.1-0.3-0.3-0.4
	c-0.1-0.1-0.3-0.1-0.7-0.1c-0.4,0-0.7-0.1-0.8-0.2c-0.1-0.1-0.2-0.2-0.3-0.3c0,0.3-0.2,0.7-0.5,1.1l-1.2,1.3l-0.2-0.7l1-1.1
	c0.3-0.3,0.4-0.5,0.5-0.7c0.1-0.2,0.1-0.4,0-0.6l-2,0.6l-0.2-0.6L115.1,63.8z M111.7,68l4.8,0.7l0.1,0.6l-4,2.8l-0.2-0.7l1.2-0.8
	l-0.4-1.8l-1.4-0.2L111.7,68z M113.8,68.9l0.3,1.5l1.1-0.7c0.3-0.2,0.6-0.4,0.8-0.5c-0.3,0-0.6,0-0.9,0L113.8,68.9z M113,76.2
	l4.5-0.3l-0.2-2c0-0.4-0.1-0.7-0.2-0.9c-0.1-0.2-0.3-0.4-0.5-0.5c-0.2-0.1-0.4-0.2-0.7-0.1c-0.3,0-0.6,0.1-0.8,0.4
	c-0.2,0.2-0.3,0.6-0.3,1c-0.1-0.2-0.2-0.3-0.3-0.3c-0.2-0.2-0.4-0.3-0.6-0.4l-1.3-0.7l0.1,0.7l1,0.5c0.3,0.2,0.5,0.3,0.7,0.4
	c0.2,0.1,0.3,0.2,0.3,0.3c0.1,0.1,0.1,0.2,0.1,0.3c0,0.1,0,0.2,0,0.3l0.1,0.7l-2,0.2L113,76.2z M115.5,75.4l-0.1-1.3
	c0-0.3,0-0.5,0-0.6c0-0.2,0.1-0.3,0.2-0.4c0.1-0.1,0.2-0.1,0.4-0.1c0.2,0,0.4,0,0.5,0.2c0.1,0.1,0.2,0.4,0.3,0.7l0.1,1.4L115.5,75.4
	z M115.3,78.9c0.7,0.1,1.3,0.3,1.7,0.7c0.4,0.4,0.6,1,0.5,1.6c0,0.4-0.2,0.8-0.4,1.1c-0.2,0.3-0.5,0.6-0.9,0.7
	c-0.4,0.1-0.8,0.2-1.2,0.2c-0.5,0-0.9-0.2-1.2-0.4c-0.3-0.2-0.6-0.5-0.8-0.8c-0.2-0.4-0.2-0.7-0.2-1.1c0-0.4,0.2-0.8,0.4-1.1
	c0.2-0.3,0.5-0.5,0.9-0.7C114.5,78.9,114.9,78.9,115.3,78.9z M115.2,79.5c-0.5,0-1,0.1-1.3,0.3c-0.3,0.3-0.5,0.6-0.5,1.1
	c0,0.4,0.1,0.8,0.4,1.1c0.3,0.3,0.7,0.5,1.3,0.5c0.4,0,0.7,0,1-0.1c0.3-0.1,0.5-0.3,0.7-0.5c0.2-0.2,0.3-0.5,0.3-0.8
	c0-0.4-0.1-0.8-0.4-1.1C116.4,79.7,115.9,79.6,115.2,79.5z M117,84.8l-0.6,2.9l-0.5-0.1l0.5-2.3L115,85l-0.2,1
	c-0.1,0.4-0.2,0.7-0.3,0.9c-0.1,0.2-0.3,0.4-0.5,0.5c-0.2,0.1-0.5,0.1-0.8,0c-0.2,0-0.4-0.1-0.6-0.3c-0.2-0.1-0.3-0.3-0.4-0.5
	c-0.1-0.2-0.1-0.6,0-1l0.4-1.7L117,84.8z M113,84.5l-0.3,1.2c-0.1,0.3-0.1,0.6,0,0.7c0.1,0.2,0.3,0.3,0.5,0.4c0.2,0,0.3,0,0.5,0
	c0.1-0.1,0.3-0.2,0.3-0.3c0.1-0.2,0.2-0.4,0.2-0.8l0.2-0.8L113,84.5z M115.8,89.6l-0.9,2.6l-4.2-1.5l0.2-0.6l3.7,1.3l0.5-1.5
	l-2.2-0.8c-0.4-0.2-0.8-0.3-1-0.4c-0.2-0.1-0.3-0.3-0.4-0.4c-0.1-0.2-0.1-0.4,0-0.6c0-0.1,0.1-0.3,0.2-0.4l0.5,0.3
	c-0.1,0.1-0.1,0.1-0.2,0.2c0,0.1,0,0.2,0,0.3c0.1,0.1,0.3,0.2,0.6,0.3L115.8,89.6z M110.5,91.2l3.3,3.5l-0.3,0.6l-4.9-0.3l0.3-0.6
	l1.5,0.1l0.8-1.7l-1-1L110.5,91.2z M111.6,93.2l-0.7,1.4l1.3,0.1c0.4,0,0.7,0.1,1,0.1c-0.2-0.2-0.5-0.4-0.7-0.6L111.6,93.2z
	 M108.1,98.9l-0.4,0.4c-0.4-0.4-0.6-0.7-0.6-1.2c0-0.4,0-0.8,0.3-1.2c0.3-0.4,0.5-0.7,0.9-0.9c0.3-0.2,0.7-0.2,1.1-0.1
	c0.4,0.1,0.8,0.2,1.2,0.4c0.4,0.2,0.7,0.5,0.9,0.9c0.2,0.3,0.3,0.7,0.3,1.1c0,0.4-0.1,0.7-0.3,1.1c-0.2,0.4-0.5,0.6-0.9,0.8
	c-0.4,0.1-0.7,0.2-1.2,0l0.2-0.6c0.3,0.1,0.6,0.1,0.8,0c0.2-0.1,0.4-0.3,0.6-0.5c0.2-0.3,0.3-0.6,0.2-0.9c0-0.3-0.1-0.5-0.3-0.8
	c-0.2-0.2-0.4-0.4-0.7-0.6c-0.3-0.2-0.6-0.3-0.9-0.4c-0.3-0.1-0.6,0-0.8,0.1c-0.2,0.1-0.4,0.3-0.6,0.5c-0.2,0.3-0.2,0.6-0.2,0.9
	C107.7,98.3,107.9,98.6,108.1,98.9L108.1,98.9z M105.4,99.8l3.1,2.5l0.9-1.1l0.4,0.3l-2.3,2.7l-0.4-0.3l0.9-1.1l-3.1-2.5L105.4,99.8
	z M106.7,105.2l-0.4,0.4l-1.3-1.4l-0.8,0.7c-0.4,0.3-0.7,0.5-0.9,0.6c-0.2,0.1-0.5,0.1-0.7,0c-0.2-0.1-0.4-0.2-0.5-0.4
	c-0.2-0.3-0.4-0.6-0.4-0.9c0-0.4,0.2-0.8,0.7-1.2l1.3-1.2L106.7,105.2z M103.6,102.7l-0.8,0.7c-0.3,0.3-0.5,0.6-0.5,0.8
	c0,0.2,0.1,0.4,0.2,0.6c0.1,0.1,0.3,0.2,0.4,0.2c0.2,0,0.3,0,0.5-0.1c0.1-0.1,0.4-0.3,0.6-0.5l0.6-0.5L103.6,102.7z"/>
<path id="path24" class="st2" d="M63.2,114.8l1.4-4.1l0.8,0.3l0,3.3c0,0.3,0,0.5,0,0.7c0.1-0.1,0.3-0.3,0.5-0.6l2-2.5l0.7,0.3
	l-1.4,4.1l-0.5-0.2l1.2-3.5l-2.4,3l-0.5-0.2l0-3.9l-1.2,3.5L63.2,114.8z M69.2,114.5c0.1-0.7,0.4-1.2,0.9-1.6c0.5-0.3,1-0.5,1.6-0.4
	c0.4,0.1,0.7,0.2,1,0.5c0.3,0.2,0.5,0.5,0.6,0.9c0.1,0.4,0.1,0.8,0.1,1.2c-0.1,0.4-0.2,0.8-0.5,1.1c-0.2,0.3-0.5,0.5-0.9,0.7
	c-0.4,0.1-0.7,0.2-1.1,0.1c-0.4-0.1-0.8-0.2-1-0.5c-0.3-0.2-0.5-0.6-0.6-0.9C69.2,115.3,69.2,114.9,69.2,114.5z M69.8,114.6
	c-0.1,0.5,0,1,0.2,1.3c0.2,0.3,0.6,0.6,1,0.6c0.4,0.1,0.8,0,1.1-0.3c0.3-0.3,0.5-0.7,0.6-1.2c0.1-0.4,0-0.7,0-1
	c-0.1-0.3-0.2-0.5-0.4-0.7c-0.2-0.2-0.5-0.3-0.7-0.3c-0.4-0.1-0.8,0-1.1,0.2C70.1,113.6,69.9,114,69.8,114.6z M78,116.1l0.6,0.2
	c-0.1,0.5-0.3,0.8-0.7,1.1c-0.3,0.2-0.7,0.4-1.2,0.4c-0.5,0-0.9-0.1-1.1-0.3c-0.3-0.2-0.5-0.5-0.7-0.8c-0.2-0.4-0.2-0.8-0.2-1.2
	c0-0.5,0.1-0.9,0.3-1.2c0.2-0.3,0.4-0.6,0.8-0.8c0.3-0.2,0.7-0.3,1.1-0.3c0.4,0,0.8,0.1,1.1,0.3c0.3,0.2,0.5,0.5,0.6,0.9l-0.6,0.1
	c-0.1-0.3-0.2-0.6-0.4-0.7c-0.2-0.1-0.4-0.2-0.7-0.2c-0.3,0-0.6,0.1-0.8,0.2c-0.2,0.2-0.4,0.4-0.5,0.6c-0.1,0.3-0.1,0.6-0.1,0.8
	c0,0.4,0,0.7,0.2,1c0.1,0.3,0.3,0.5,0.5,0.6c0.2,0.1,0.5,0.2,0.7,0.2c0.3,0,0.6-0.1,0.8-0.3C77.7,116.7,77.9,116.4,78,116.1z
	 M80,113.2l0.6,0l0.1,1.9c0.3,0,0.4-0.1,0.5-0.2c0.1-0.1,0.2-0.4,0.4-0.8c0.1-0.3,0.2-0.5,0.3-0.6c0.1-0.1,0.2-0.2,0.3-0.3
	c0.1-0.1,0.3-0.1,0.5-0.2c0.2,0,0.3,0,0.4,0l0,0.5c0,0-0.1,0-0.1,0c-0.1,0-0.1,0-0.1,0c-0.2,0-0.3,0.1-0.4,0.2
	c-0.1,0.1-0.2,0.3-0.3,0.6c-0.1,0.4-0.2,0.6-0.3,0.7c-0.1,0.1-0.2,0.2-0.3,0.3c0.3,0.1,0.6,0.3,0.9,0.7l1,1.4l-0.7,0.1l-0.8-1.1
	c-0.2-0.3-0.4-0.5-0.6-0.6c-0.1-0.1-0.3-0.2-0.5-0.1l0.2,2l-0.6,0L80,113.2z M84.9,117.1l-1-4.3l1.6-0.4c0.3-0.1,0.6-0.1,0.8-0.1
	c0.2,0,0.4,0.1,0.6,0.3c0.2,0.2,0.3,0.3,0.3,0.5c0,0.2,0,0.4,0,0.6c-0.1,0.2-0.2,0.3-0.4,0.5c0.3,0,0.5,0.1,0.7,0.3
	c0.2,0.2,0.3,0.4,0.4,0.6c0,0.2,0,0.4,0,0.6c0,0.2-0.1,0.3-0.2,0.5c-0.1,0.1-0.2,0.2-0.4,0.3c-0.2,0.1-0.4,0.2-0.7,0.2L84.9,117.1z
	 M84.9,114.5l0.9-0.2c0.3-0.1,0.4-0.1,0.5-0.2c0.1-0.1,0.2-0.2,0.3-0.3c0-0.1,0.1-0.2,0-0.4c0-0.1-0.1-0.3-0.2-0.4
	c-0.1-0.1-0.2-0.1-0.3-0.2c-0.1,0-0.4,0-0.7,0.1l-0.9,0.2L84.9,114.5z M85.3,116.4l1.1-0.2c0.2,0,0.3-0.1,0.4-0.1
	c0.1-0.1,0.2-0.1,0.3-0.2c0.1-0.1,0.1-0.2,0.2-0.3c0-0.1,0-0.2,0-0.4c0-0.2-0.1-0.3-0.2-0.4c-0.1-0.1-0.2-0.2-0.4-0.2
	c-0.2,0-0.4,0-0.6,0.1l-1,0.2L85.3,116.4z M89.2,116l0.3-4.7l0.6-0.2l3,3.7l-0.6,0.2l-0.9-1.1l-1.8,0.5l-0.1,1.4L89.2,116z
	 M89.9,113.9l1.4-0.4l-0.8-1c-0.2-0.3-0.4-0.6-0.6-0.8c0,0.3,0,0.6,0,0.9L89.9,113.9z"/>
<path id="path26" class="st2" d="M50.5,76.2l-0.6,2l0.6,2H50l-1-2l1-2H50.5z M48.9,76.2l-0.6,2l0.6,2h-0.6l-1-2l1-2H48.9z
	 M55.2,81.9c-1.1,0-2-0.5-2.7-1.4c-0.6-0.9-1-2.1-1-3.5c0-1.4,0.3-2.5,1-3.4c0.7-0.9,1.6-1.4,2.7-1.4c1.1,0,2,0.5,2.7,1.4
	c0.7,0.9,1,2.1,1,3.4c0,1.4-0.3,2.6-1,3.5C57.2,81.4,56.4,81.9,55.2,81.9z M55.2,80.5c0.6,0,1-0.3,1.4-0.8c0.4-0.5,0.6-1.4,0.6-2.7
	c0-1.1-0.2-1.9-0.5-2.5c-0.3-0.6-0.8-0.9-1.5-0.9c-1.3,0-2,1.2-2,3.5c0,1.1,0.2,2,0.5,2.6C54.1,80.2,54.6,80.5,55.2,80.5z
	 M60.4,81.7v-9.4h5.4v1.4h-3.9v2.4h1.5c0.8,0,1.4,0.1,1.8,0.2c0.4,0.1,0.8,0.4,1.1,0.9c0.3,0.5,0.4,1,0.4,1.6c0,0.8-0.2,1.5-0.7,2
	c-0.5,0.5-1.2,0.8-2.1,0.8H60.4z M61.9,80.3h1.7c1,0,1.5-0.5,1.5-1.4c0-0.4-0.1-0.7-0.3-1c-0.2-0.3-0.6-0.4-1.3-0.4h-1.6V80.3z
	 M69.7,81.7h-1.6v-9.4h3.5c1,0,1.8,0.3,2.2,0.8c0.5,0.6,0.7,1.2,0.7,2c0,0.9-0.3,1.6-0.8,2.1c-0.5,0.5-1.2,0.8-2,0.8h-2.2V81.7z
	 M69.7,76.6h1.8c0.5,0,0.8-0.1,1.1-0.4c0.3-0.3,0.4-0.6,0.4-1c0-0.4-0.1-0.7-0.3-1c-0.2-0.3-0.7-0.4-1.3-0.4h-1.7V76.6z M82.1,81.7
	h-1.7l-0.7-2.2h-3.3l-0.7,2.2h-1.3l2.9-9.4h1.9L82.1,81.7z M79.3,78.1L78.1,74l-1.3,4.2H79.3z M82.3,79l1.4-0.3
	c0.2,1.2,0.9,1.8,2,1.8c0.6,0,1-0.1,1.3-0.4c0.3-0.3,0.4-0.7,0.4-1.1c0-1-0.5-1.5-1.5-1.5h-0.8v-1.2h0.7c0.4,0,0.8-0.1,1-0.4
	c0.3-0.2,0.4-0.6,0.4-1c0-0.4-0.1-0.7-0.4-1c-0.3-0.2-0.7-0.4-1.1-0.4c-1,0-1.6,0.5-1.8,1.5l-1.4-0.2c0.3-1.8,1.4-2.7,3.2-2.7
	c0.9,0,1.7,0.2,2.2,0.7c0.6,0.5,0.8,1.1,0.8,1.8c0,1-0.5,1.7-1.6,2.1c1.2,0.3,1.8,1,1.8,2.2c0,0.8-0.3,1.5-0.9,2.1
	c-0.6,0.6-1.4,0.9-2.5,0.9c-1,0-1.8-0.3-2.4-0.8C82.7,80.6,82.4,79.9,82.3,79z M96.1,81.7h-5.6v-9.4H96v1.4h-4v2.5h3.2v1.4H92v2.6
	h4.1L96.1,81.7z M97.5,81.7v-9.4h1.6v7.9h3.1v-7.9h1.5v7.9h1.1v3.4h-1.1l-0.2-2H97.5z M105.4,76.3h0.6l1,2l-1,1.9h-0.6l0.6-1.9
	L105.4,76.3z M107,76.3h0.6l1,2l-1,1.9H107l0.6-1.9L107,76.3z"/>
<path id="path28" class="st2" d="M45.6,111.4c0.6-0.7,1.2-1,1.9-1c0.7,0,1.3,0.2,1.9,0.7c0.4,0.3,0.6,0.7,0.8,1.1
	c0.2,0.4,0.2,0.9,0.1,1.3c-0.1,0.5-0.3,0.9-0.7,1.3c-0.5,0.6-1.1,0.9-1.7,1c-0.7,0.1-1.4-0.1-2-0.7c-0.6-0.5-0.9-1.2-0.9-1.9
	C44.9,112.5,45.1,111.9,45.6,111.4z M46.1,111.9c-0.4,0.5-0.6,1-0.6,1.5c0,0.5,0.3,0.9,0.6,1.3c0.4,0.3,0.8,0.5,1.3,0.5
	c0.5,0,1-0.3,1.4-0.8c0.3-0.3,0.5-0.7,0.6-1.1c0.1-0.3,0.1-0.6-0.1-0.9c-0.1-0.3-0.3-0.6-0.5-0.8c-0.4-0.4-0.9-0.5-1.4-0.5
	C47.1,111,46.6,111.3,46.1,111.9z M51.8,113.1l2.7,1.9l-0.4,0.5L52,114l-2.7,3.7l-0.6-0.4L51.8,113.1z M52.3,119.8l2.6-4.5l1.8,1
	c0.4,0.2,0.7,0.4,0.9,0.6c0.2,0.2,0.4,0.5,0.4,0.8c0,0.3,0,0.6-0.2,0.9c-0.2,0.4-0.6,0.7-1,0.8c-0.4,0.1-0.9,0-1.6-0.4l-1.2-0.7
	l-1.1,1.8L52.3,119.8z M54.2,117.8l1.2,0.7c0.4,0.2,0.7,0.3,1,0.3c0.3,0,0.5-0.2,0.6-0.5c0.1-0.2,0.1-0.4,0.1-0.5
	c0-0.2-0.1-0.3-0.2-0.4c-0.1-0.1-0.3-0.3-0.6-0.5l-1.2-0.7L54.2,117.8z M56.9,122.3l2.1-4.7l0.7,0.3l-0.9,2l2.6,1.1l0.9-2l0.7,0.3
	l-2.1,4.7l-0.7-0.3l1-2.2l-2.6-1.1l-1,2.2L56.9,122.3z M64.5,122.6c0.2-0.8,0.5-1.4,0.9-1.8c0.4-0.4,0.9-0.5,1.4-0.3
	c0.5,0.1,0.8,0.4,1,0.8c0.2,0.5,0.2,1.2,0,2.2c-0.2,0.8-0.5,1.4-0.9,1.8c-0.4,0.4-0.9,0.5-1.4,0.3c-0.5-0.1-0.9-0.4-1.1-0.9
	C64.2,124.2,64.3,123.5,64.5,122.6z M65.1,122.7c-0.2,0.8-0.2,1.4-0.1,1.7c0.1,0.3,0.3,0.5,0.7,0.6c0.3,0.1,0.6,0,0.8-0.2
	c0.3-0.2,0.5-0.8,0.7-1.6c0.2-0.8,0.2-1.4,0.1-1.7c-0.1-0.3-0.4-0.5-0.7-0.6c-0.3-0.1-0.6,0-0.8,0.2
	C65.6,121.4,65.3,121.9,65.1,122.7z M68.7,123.6c0.2-0.9,0.4-1.5,0.8-1.9c0.4-0.4,0.9-0.5,1.4-0.4c0.5,0.1,0.9,0.4,1.1,0.8
	c0.3,0.5,0.3,1.2,0.1,2.2c-0.2,0.8-0.4,1.5-0.8,1.8c-0.4,0.4-0.9,0.5-1.4,0.4c-0.5-0.1-0.9-0.4-1.1-0.8
	C68.5,125.3,68.5,124.6,68.7,123.6z M69.3,123.7c-0.2,0.8-0.2,1.4,0,1.7c0.1,0.3,0.4,0.5,0.7,0.6c0.3,0.1,0.6,0,0.8-0.3
	c0.3-0.2,0.5-0.8,0.6-1.6c0.2-0.8,0.2-1.4,0-1.7c-0.1-0.3-0.4-0.5-0.7-0.6c-0.3-0.1-0.6,0-0.8,0.3C69.7,122.4,69.5,122.9,69.3,123.7
	z M72.8,124.3c0.1-0.9,0.3-1.5,0.6-1.9c0.3-0.4,0.8-0.6,1.4-0.6c0.5,0,0.9,0.3,1.2,0.6c0.3,0.5,0.5,1.2,0.4,2.1
	c-0.1,0.9-0.3,1.5-0.6,1.9c-0.3,0.4-0.8,0.6-1.4,0.6c-0.5,0-0.9-0.3-1.2-0.7C72.8,125.9,72.7,125.2,72.8,124.3z M73.4,124.3
	c-0.1,0.8,0,1.4,0.2,1.7c0.2,0.3,0.4,0.5,0.7,0.5c0.3,0,0.6-0.1,0.8-0.4c0.2-0.3,0.4-0.8,0.4-1.7c0.1-0.8,0-1.4-0.2-1.7
	c-0.2-0.3-0.4-0.5-0.8-0.5c-0.3,0-0.6,0.1-0.8,0.4C73.7,122.9,73.5,123.5,73.4,124.3L73.4,124.3z M76.9,124.7c0-0.9,0.1-1.5,0.4-2
	c0.3-0.5,0.7-0.7,1.3-0.7c0.5,0,0.9,0.1,1.2,0.5c0.4,0.4,0.6,1.1,0.6,2.1c0,0.9-0.1,1.5-0.4,2c-0.3,0.5-0.7,0.7-1.3,0.7
	c-0.5,0-0.9-0.2-1.3-0.5C77.1,126.3,76.9,125.6,76.9,124.7z M77.6,124.6c0,0.8,0.2,1.4,0.4,1.7c0.2,0.3,0.5,0.4,0.8,0.4
	c0.3,0,0.5-0.2,0.7-0.5c0.2-0.3,0.3-0.9,0.2-1.7c0-0.8-0.2-1.4-0.4-1.7c-0.2-0.3-0.5-0.4-0.8-0.4c-0.3,0-0.5,0.2-0.7,0.5
	C77.6,123.2,77.5,123.8,77.6,124.6z M81.2,124.5c-0.1-0.9,0-1.5,0.2-2c0.2-0.5,0.7-0.7,1.2-0.8c0.5-0.1,0.9,0.1,1.3,0.4
	c0.4,0.4,0.7,1.1,0.8,2c0.1,0.9,0,1.5-0.2,2c-0.2,0.5-0.7,0.8-1.2,0.8c-0.5,0.1-1-0.1-1.3-0.5C81.5,126.2,81.3,125.5,81.2,124.5z
	 M81.8,124.4c0.1,0.8,0.3,1.4,0.5,1.6c0.2,0.3,0.5,0.4,0.8,0.3c0.3,0,0.5-0.2,0.7-0.5c0.2-0.3,0.2-0.9,0.1-1.7
	c-0.1-0.8-0.3-1.4-0.5-1.7c-0.2-0.3-0.5-0.4-0.8-0.3c-0.3,0-0.5,0.2-0.7,0.5C81.8,123,81.7,123.6,81.8,124.4z M85.4,124
	c-0.2-0.9-0.1-1.5,0.1-2c0.2-0.5,0.6-0.8,1.2-0.9c0.5-0.1,0.9,0,1.3,0.3c0.4,0.4,0.7,1,0.9,2c0.2,0.8,0.1,1.5-0.1,2
	c-0.2,0.5-0.6,0.8-1.2,0.9c-0.5,0.1-1,0-1.4-0.3C85.8,125.6,85.6,125,85.4,124z M86,123.9c0.2,0.8,0.4,1.4,0.6,1.6
	c0.3,0.2,0.5,0.3,0.9,0.3c0.3-0.1,0.5-0.2,0.7-0.6c0.1-0.3,0.1-0.9,0-1.7c-0.2-0.8-0.4-1.4-0.6-1.6c-0.3-0.2-0.5-0.3-0.9-0.3
	c-0.3,0.1-0.5,0.2-0.7,0.6C85.9,122.5,85.9,123.1,86,123.9z M89.5,123.2c-0.2-0.8-0.3-1.5-0.1-2c0.2-0.5,0.5-0.8,1.1-1
	c0.5-0.1,0.9-0.1,1.3,0.2c0.5,0.3,0.8,1,1.1,1.9c0.2,0.8,0.3,1.5,0.1,2c-0.2,0.5-0.5,0.8-1.1,1c-0.5,0.1-1,0.1-1.4-0.2
	C90.1,124.7,89.8,124.1,89.5,123.2z M90.2,123c0.2,0.8,0.5,1.3,0.7,1.6c0.3,0.2,0.6,0.3,0.9,0.2c0.3-0.1,0.5-0.3,0.6-0.6
	c0.1-0.3,0.1-0.9-0.2-1.7c-0.2-0.8-0.5-1.3-0.7-1.6c-0.3-0.2-0.6-0.3-0.9-0.2c-0.3,0.1-0.5,0.3-0.6,0.6
	C89.9,121.6,90,122.2,90.2,123z M93.5,122c-0.3-0.8-0.4-1.5-0.3-2c0.1-0.5,0.4-0.9,1-1.1c0.5-0.2,0.9-0.2,1.3,0.1
	c0.5,0.3,0.9,0.9,1.3,1.8c0.3,0.8,0.4,1.5,0.3,2c-0.1,0.5-0.4,0.9-1,1.1c-0.5,0.2-0.9,0.2-1.4-0.1C94.3,123.5,93.9,122.9,93.5,122z
	 M94.1,121.8c0.3,0.8,0.6,1.3,0.9,1.5c0.3,0.2,0.6,0.2,0.9,0.1c0.3-0.1,0.5-0.3,0.5-0.7c0.1-0.3,0-0.9-0.3-1.7
	c-0.3-0.8-0.6-1.3-0.9-1.5c-0.3-0.2-0.6-0.2-0.9-0.1c-0.3,0.1-0.5,0.3-0.5,0.7C93.7,120.4,93.8,121,94.1,121.8z M97.5,120.4
	c-0.4-0.8-0.5-1.4-0.5-2c0.1-0.5,0.4-0.9,0.9-1.2c0.5-0.2,0.9-0.2,1.3,0c0.5,0.2,1,0.8,1.4,1.7c0.4,0.8,0.5,1.4,0.5,2
	c-0.1,0.5-0.4,0.9-0.9,1.2c-0.5,0.2-0.9,0.2-1.4,0C98.3,121.8,97.9,121.3,97.5,120.4z M98.1,120.1c0.4,0.8,0.7,1.2,1,1.4
	c0.3,0.2,0.6,0.2,0.9,0c0.3-0.1,0.4-0.4,0.5-0.7c0.1-0.3-0.1-0.9-0.5-1.7c-0.4-0.8-0.7-1.2-1-1.4c-0.3-0.2-0.6-0.2-0.9,0
	c-0.3,0.1-0.4,0.4-0.5,0.7C97.6,118.8,97.7,119.3,98.1,120.1z M101.2,118.5c-0.5-0.7-0.7-1.4-0.7-1.9c0-0.5,0.3-1,0.8-1.3
	c0.4-0.3,0.9-0.3,1.3-0.2c0.5,0.2,1.1,0.7,1.6,1.5c0.5,0.7,0.7,1.4,0.7,1.9c0,0.5-0.3,1-0.8,1.3c-0.4,0.3-0.9,0.3-1.4,0.2
	C102.2,119.8,101.7,119.4,101.2,118.5z M101.8,118.2c0.4,0.7,0.8,1.1,1.2,1.3c0.3,0.1,0.6,0.1,0.9-0.1c0.3-0.2,0.4-0.4,0.4-0.8
	c0-0.4-0.2-0.9-0.6-1.6c-0.5-0.7-0.8-1.1-1.2-1.3c-0.3-0.1-0.6-0.1-0.9,0.1c-0.3,0.2-0.4,0.4-0.4,0.8
	C101.1,116.9,101.3,117.5,101.8,118.2z M104.7,116.3c-0.5-0.7-0.8-1.3-0.9-1.8c0-0.5,0.2-1,0.6-1.3c0.4-0.3,0.8-0.4,1.3-0.3
	c0.6,0.1,1.1,0.6,1.7,1.3c0.5,0.7,0.8,1.3,0.9,1.8c0,0.5-0.2,1-0.6,1.3c-0.4,0.3-0.9,0.4-1.4,0.3
	C105.9,117.5,105.3,117.1,104.7,116.3z M105.3,115.9c0.5,0.7,1,1,1.3,1.1c0.3,0.1,0.6,0,0.9-0.1c0.2-0.2,0.3-0.5,0.3-0.8
	c0-0.4-0.3-0.9-0.8-1.5c-0.5-0.7-1-1-1.3-1.1c-0.3-0.1-0.6,0-0.9,0.2c-0.2,0.2-0.3,0.5-0.3,0.8C104.5,114.7,104.7,115.2,105.3,115.9
	z M108.1,113.8c-0.6-0.6-1-1.2-1.1-1.7c-0.1-0.5,0.1-1,0.5-1.4c0.4-0.4,0.8-0.5,1.3-0.5c0.6,0.1,1.2,0.4,1.8,1.1
	c0.6,0.6,1,1.2,1.1,1.7c0.1,0.5-0.1,1-0.5,1.4c-0.4,0.4-0.8,0.5-1.3,0.5C109.4,114.9,108.8,114.5,108.1,113.8z M108.6,113.3
	c0.6,0.6,1.1,0.9,1.4,1c0.3,0.1,0.6,0,0.9-0.2c0.2-0.2,0.3-0.5,0.2-0.8c-0.1-0.3-0.4-0.8-1-1.4c-0.6-0.6-1.1-0.9-1.4-1
	c-0.3-0.1-0.6,0-0.9,0.2c-0.2,0.2-0.3,0.5-0.2,0.8C107.7,112.3,108,112.7,108.6,113.3z"/>
<path id="path30" class="st2" d="M42.5,107.6c0-0.2-0.1-0.4-0.1-0.7c-0.1-0.3-0.2-0.5-0.2-0.7c0-0.2,0-0.3,0.1-0.4
	c0.1-0.1,0.2-0.1,0.3-0.1c0.1,0,0.2,0,0.3,0.1c0.1,0.1,0.1,0.2,0.1,0.4c0,0.1,0,0.3-0.1,0.6c-0.1,0.3-0.1,0.5-0.2,0.7
	c0.2-0.1,0.3-0.3,0.5-0.4c0.2-0.3,0.4-0.4,0.5-0.5c0.1-0.1,0.2-0.1,0.3-0.1c0.1,0,0.2,0,0.3,0.1c0.1,0.1,0.1,0.2,0.1,0.3
	c0,0.1-0.1,0.2-0.2,0.3c-0.1,0.1-0.4,0.2-0.8,0.3c-0.2,0.1-0.5,0.1-0.6,0.2c0.2,0.1,0.4,0.2,0.6,0.2c0.4,0.1,0.7,0.2,0.8,0.3
	c0.1,0.1,0.2,0.2,0.2,0.4c0,0.1,0,0.2-0.1,0.3c-0.1,0.1-0.2,0.1-0.3,0.1c-0.1,0-0.2,0-0.3-0.1c-0.1-0.1-0.3-0.2-0.5-0.5
	c-0.1-0.2-0.3-0.3-0.5-0.5c0,0.2,0,0.4,0.1,0.6c0.1,0.4,0.2,0.6,0.2,0.8c0,0.1,0,0.2-0.1,0.3c-0.1,0.1-0.2,0.1-0.2,0.1
	c-0.1,0-0.2,0-0.3-0.1c-0.1-0.1-0.1-0.2-0.1-0.3c0-0.2,0-0.3,0.1-0.6c0.1-0.2,0.1-0.4,0.1-0.5c0-0.1,0-0.2,0.1-0.4
	c-0.2,0.1-0.4,0.3-0.5,0.4c-0.2,0.3-0.4,0.4-0.5,0.5c-0.1,0.1-0.2,0.1-0.3,0.1c-0.1,0-0.2,0-0.3-0.1c-0.1-0.1-0.1-0.2-0.1-0.2
	c0-0.1,0-0.2,0.1-0.3c0.1-0.1,0.2-0.2,0.3-0.2c0.1,0,0.3-0.1,0.6-0.2c0.2,0,0.4-0.1,0.6-0.2c-0.2-0.1-0.4-0.2-0.6-0.2
	c-0.4-0.1-0.6-0.2-0.7-0.2c-0.1-0.1-0.2-0.2-0.2-0.4c0-0.1,0-0.2,0.1-0.2c0.1-0.1,0.2-0.1,0.3-0.1c0.1,0,0.2,0,0.3,0.1
	c0.1,0.1,0.3,0.2,0.4,0.4C42.2,107.3,42.4,107.5,42.5,107.6z"/>
<path id="path32" class="st2" d="M59,96.5l0.4,0.4L57,99.7l4.4-1.2l0.5,0.4l-3.1,3.6l-0.4-0.4l2.5-2.9l-4.4,1.2l-0.5-0.4L59,96.5z
	 M59.6,103.2l2.5-4.1l0.5,0.3l-1,1.7l2.1,1.3l1-1.7l0.5,0.3l-2.5,4.1l-0.5-0.3l1.2-1.9l-2.1-1.3l-1.2,1.9L59.6,103.2z M63.7,105.7
	l2-4.3l0.6,0.3l-0.8,1.8l2.2,1l0.8-1.8l0.6,0.3l-2,4.3l-0.6-0.3l0.9-2l-2.2-1l-0.9,2L63.7,105.7z M70.2,105.8c0.1-0.6,0.3-1,0.5-1.3
	c0.2-0.3,0.4-0.5,0.7-0.7c0.3-0.1,0.6-0.2,0.9-0.1c0.3,0.1,0.5,0.2,0.6,0.3c0.2,0.1,0.3,0.3,0.4,0.5c0.1,0.2,0.1,0.5,0.1,0.8
	c0,0.3,0,0.7-0.1,1.1c-0.1,0.5-0.3,1-0.5,1.3c-0.2,0.3-0.4,0.5-0.7,0.7c-0.3,0.1-0.6,0.2-0.9,0.1c-0.4-0.1-0.8-0.3-1-0.7
	C70.1,107.3,70.1,106.6,70.2,105.8z M70.8,105.9c-0.2,0.8-0.2,1.3-0.1,1.6c0.1,0.3,0.3,0.5,0.6,0.5c0.3,0.1,0.5,0,0.8-0.2
	c0.2-0.2,0.4-0.7,0.6-1.5c0.2-0.8,0.2-1.3,0.1-1.6c-0.1-0.3-0.3-0.5-0.6-0.5c-0.3-0.1-0.5,0-0.7,0.2C71.2,104.6,71,105.1,70.8,105.9
	z M73.6,106.5c0-0.6,0.1-1,0.3-1.4c0.1-0.3,0.3-0.6,0.6-0.8c0.2-0.2,0.5-0.2,0.9-0.2c0.3,0,0.5,0.1,0.7,0.2c0.2,0.1,0.3,0.3,0.4,0.5
	c0.1,0.2,0.2,0.4,0.2,0.7c0.1,0.3,0.1,0.7,0,1.1c0,0.6-0.1,1-0.3,1.3c-0.1,0.3-0.3,0.6-0.6,0.8c-0.2,0.2-0.5,0.2-0.9,0.2
	c-0.5,0-0.8-0.2-1-0.6C73.6,108.1,73.5,107.4,73.6,106.5z M74.2,106.6c-0.1,0.8,0,1.3,0.2,1.6c0.2,0.3,0.4,0.4,0.7,0.4
	s0.5-0.1,0.7-0.3c0.2-0.2,0.3-0.8,0.4-1.5c0.1-0.8,0-1.3-0.2-1.6c-0.2-0.3-0.4-0.4-0.7-0.4c-0.3,0-0.5,0.1-0.7,0.3
	C74.4,105.2,74.2,105.8,74.2,106.6z M77.1,106.7c0-0.6,0-1,0.2-1.4c0.1-0.3,0.3-0.6,0.5-0.8c0.2-0.2,0.5-0.3,0.9-0.3
	c0.3,0,0.5,0,0.7,0.1c0.2,0.1,0.4,0.2,0.5,0.4c0.1,0.2,0.2,0.4,0.3,0.7c0.1,0.3,0.1,0.7,0.1,1.1c0,0.6,0,1-0.2,1.4
	c-0.1,0.3-0.3,0.6-0.5,0.8c-0.2,0.2-0.5,0.3-0.9,0.3c-0.5,0-0.8-0.2-1.1-0.5C77.2,108.3,77.1,107.6,77.1,106.7z M77.7,106.7
	c0,0.8,0.1,1.3,0.3,1.6c0.2,0.3,0.4,0.4,0.7,0.4c0.3,0,0.5-0.1,0.7-0.4c0.2-0.3,0.3-0.8,0.3-1.6c0-0.8-0.1-1.3-0.3-1.6
	c-0.2-0.3-0.4-0.4-0.7-0.4c-0.3,0-0.5,0.1-0.6,0.3C77.8,105.4,77.7,106,77.7,106.7z M80.5,106.7c-0.1-0.6-0.1-1,0-1.4
	c0.1-0.4,0.2-0.6,0.4-0.9c0.2-0.2,0.5-0.3,0.8-0.4c0.3,0,0.5,0,0.7,0.1c0.2,0.1,0.4,0.2,0.5,0.4c0.2,0.2,0.3,0.4,0.4,0.7
	c0.1,0.3,0.2,0.6,0.3,1.1c0.1,0.6,0.1,1,0,1.4c-0.1,0.4-0.2,0.6-0.4,0.9c-0.2,0.2-0.5,0.4-0.8,0.4c-0.5,0.1-0.8,0-1.1-0.3
	C80.9,108.2,80.6,107.6,80.5,106.7z M81.1,106.6c0.1,0.8,0.3,1.3,0.5,1.5c0.2,0.2,0.5,0.3,0.7,0.3c0.3,0,0.5-0.2,0.6-0.5
	c0.1-0.3,0.2-0.8,0.1-1.6c-0.1-0.8-0.3-1.3-0.5-1.5c-0.2-0.2-0.5-0.3-0.7-0.3c-0.3,0-0.5,0.2-0.6,0.4C81,105.3,81,105.8,81.1,106.6z
	 M83.8,106.2c-0.2-0.5-0.2-1-0.2-1.4c0-0.4,0.1-0.7,0.3-0.9c0.2-0.2,0.4-0.4,0.8-0.5c0.2-0.1,0.5-0.1,0.7,0c0.2,0,0.4,0.1,0.6,0.3
	c0.2,0.2,0.3,0.4,0.5,0.6c0.1,0.2,0.3,0.6,0.4,1.1c0.2,0.5,0.2,1,0.2,1.4c0,0.4-0.1,0.7-0.3,0.9c-0.2,0.2-0.4,0.4-0.8,0.5
	c-0.4,0.1-0.8,0.1-1.2-0.2C84.4,107.7,84.1,107.1,83.8,106.2z M84.4,106.1c0.2,0.8,0.5,1.2,0.7,1.4c0.2,0.2,0.5,0.3,0.8,0.2
	c0.3-0.1,0.4-0.3,0.5-0.6c0.1-0.3,0-0.8-0.2-1.6c-0.2-0.8-0.5-1.2-0.7-1.4c-0.2-0.2-0.5-0.3-0.8-0.2c-0.3,0.1-0.4,0.2-0.5,0.5
	C84.1,104.8,84.2,105.3,84.4,106.1z M87.2,105.3c-0.2-0.5-0.3-1-0.4-1.3c0-0.4,0-0.7,0.2-0.9c0.1-0.3,0.4-0.5,0.7-0.6
	c0.2-0.1,0.5-0.1,0.7-0.1c0.2,0,0.4,0.1,0.6,0.2c0.2,0.1,0.4,0.3,0.5,0.5c0.2,0.2,0.4,0.6,0.5,1c0.2,0.5,0.3,1,0.4,1.3
	c0,0.4,0,0.7-0.2,0.9c-0.1,0.3-0.4,0.5-0.7,0.6c-0.4,0.2-0.8,0.2-1.2,0C87.9,106.7,87.5,106.2,87.2,105.3z M87.7,105.1
	c0.3,0.7,0.6,1.2,0.9,1.3c0.3,0.2,0.5,0.2,0.8,0.1c0.2-0.1,0.4-0.3,0.5-0.6c0.1-0.3,0-0.8-0.3-1.6c-0.3-0.7-0.6-1.2-0.9-1.3
	c-0.3-0.2-0.5-0.2-0.8-0.1c-0.2,0.1-0.4,0.3-0.5,0.6C87.3,103.8,87.4,104.4,87.7,105.1L87.7,105.1z M90.4,104
	c-0.3-0.5-0.4-0.9-0.5-1.3c-0.1-0.4,0-0.7,0.1-1c0.1-0.3,0.3-0.5,0.6-0.7c0.2-0.1,0.4-0.2,0.7-0.2c0.2,0,0.4,0,0.6,0.2
	c0.2,0.1,0.4,0.3,0.6,0.5c0.2,0.2,0.4,0.5,0.6,0.9c0.3,0.5,0.4,0.9,0.5,1.3c0.1,0.4,0,0.7-0.1,1c-0.1,0.3-0.3,0.5-0.6,0.7
	c-0.4,0.2-0.8,0.3-1.2,0.1C91.3,105.3,90.8,104.8,90.4,104L90.4,104z M90.9,103.7c0.4,0.7,0.7,1.1,1,1.2c0.3,0.1,0.5,0.1,0.8,0
	c0.2-0.1,0.4-0.4,0.4-0.7c0-0.3-0.1-0.8-0.5-1.5c-0.4-0.7-0.7-1.1-1-1.2c-0.3-0.1-0.5-0.1-0.8,0c-0.2,0.1-0.4,0.3-0.4,0.6
	C90.3,102.5,90.5,103,90.9,103.7L90.9,103.7z M93.4,102.3c-0.3-0.5-0.5-0.9-0.6-1.2c-0.1-0.4-0.1-0.7,0-1c0.1-0.3,0.3-0.5,0.6-0.7
	c0.2-0.1,0.4-0.2,0.6-0.3c0.2,0,0.4,0,0.6,0.1c0.2,0.1,0.4,0.2,0.6,0.4c0.2,0.2,0.5,0.5,0.7,0.9c0.3,0.5,0.5,0.9,0.6,1.2
	c0.1,0.4,0.1,0.7,0,1c-0.1,0.3-0.3,0.5-0.6,0.7c-0.4,0.3-0.8,0.3-1.2,0.2C94.4,103.5,93.9,103,93.4,102.3z M93.9,101.9
	c0.4,0.6,0.8,1,1.1,1.1c0.3,0.1,0.6,0.1,0.8-0.1c0.2-0.2,0.3-0.4,0.3-0.7c0-0.3-0.2-0.8-0.7-1.4c-0.4-0.6-0.8-1-1.1-1.1
	c-0.3-0.1-0.6-0.1-0.8,0.1c-0.2,0.2-0.3,0.4-0.3,0.7C93.2,100.8,93.5,101.3,93.9,101.9z M96.2,100.3c-0.4-0.4-0.6-0.8-0.8-1.1
	c-0.1-0.3-0.2-0.7-0.1-0.9c0-0.3,0.2-0.6,0.5-0.8c0.2-0.2,0.4-0.3,0.6-0.3c0.2-0.1,0.4,0,0.7,0c0.2,0.1,0.5,0.2,0.7,0.3
	c0.2,0.2,0.5,0.4,0.8,0.8c0.4,0.4,0.6,0.8,0.8,1.1c0.1,0.3,0.2,0.7,0.1,0.9c0,0.3-0.2,0.6-0.5,0.8c-0.3,0.3-0.7,0.4-1.1,0.4
	C97.4,101.3,96.8,100.9,96.2,100.3z M96.7,99.9c0.5,0.6,0.9,0.9,1.2,1c0.3,0.1,0.6,0,0.8-0.2c0.2-0.2,0.3-0.4,0.3-0.7
	c0-0.3-0.3-0.8-0.8-1.4c-0.5-0.6-0.9-0.9-1.3-1c-0.3-0.1-0.6,0-0.8,0.2c-0.2,0.2-0.3,0.4-0.3,0.7C95.9,98.8,96.1,99.3,96.7,99.9z"/>
</svg>
