<?xml version="1.0" encoding="utf-8"?>
<!-- Generator: Adobe Illustrator 26.4.1, SVG Export Plug-In . SVG Version: 6.00 Build 0)  -->
<svg version="1.1"
	 id="svg32" xmlns:svg="http://www.w3.org/2000/svg" xmlns:rdf="http://www.w3.org/1999/02/22-rdf-syntax-ns#" xmlns:cc="http://creativecommons.org/ns#" xmlns:dc="http://purl.org/dc/elements/1.1/"
	 xmlns="http://www.w3.org/2000/svg" xmlns:xlink="http://www.w3.org/1999/xlink" x="0px" y="0px" viewBox="0 0 155.9 155.9"
	 style="enable-background:new 0 0 155.9 155.9;" xml:space="preserve">
<style type="text/css">
	.st0{fill:none;stroke:#1B1918;stroke-width:1.1339;}
	.st1{fill:none;stroke:#1B1918;stroke-width:0.7087;}
	.st2{fill-rule:evenodd;clip-rule:evenodd;fill:#1B1918;}
	.st3{fill:none;stroke:#1B1918;stroke-width:0.8504;}
</style>
<path id="path6" class="st0" d="M78,24.1c29.7,0,53.9,24.1,53.9,53.9c0,29.7-24.1,53.9-53.9,53.9c-29.7,0-53.9-24.1-53.9-53.9
	C24.1,48.2,48.2,24.1,78,24.1z"/>
<path id="path8" class="st1" d="M78.2,44.9c18.4,0,33.3,14.9,33.3,33.3s-14.9,33.3-33.3,33.3c-18.4,0-33.3-14.9-33.3-33.3
	S59.8,44.9,78.2,44.9z"/>
<path id="path10" class="st2" d="M101.9,106.2c0-0.2-0.1-0.4-0.1-0.6c-0.1-0.3-0.2-0.5-0.2-0.6c0-0.2,0-0.3,0.1-0.3
	c0.1-0.1,0.2-0.1,0.3-0.1c0.1,0,0.2,0,0.2,0.1c0.1,0.1,0.1,0.2,0.1,0.3c0,0.1,0,0.3-0.1,0.5c-0.1,0.2-0.1,0.5-0.1,0.7
	c0.2-0.1,0.3-0.2,0.4-0.4c0.2-0.2,0.3-0.4,0.4-0.4c0.1-0.1,0.2-0.1,0.3-0.1c0.1,0,0.2,0,0.2,0.1c0.1,0.1,0.1,0.1,0.1,0.2
	c0,0.1,0,0.2-0.1,0.3c-0.1,0.1-0.3,0.2-0.7,0.3c-0.2,0.1-0.4,0.1-0.6,0.2c0.2,0.1,0.3,0.1,0.6,0.2c0.4,0.1,0.6,0.1,0.7,0.2
	c0.1,0.1,0.2,0.2,0.2,0.3c0,0.1,0,0.2-0.1,0.2c-0.1,0.1-0.1,0.1-0.2,0.1c-0.1,0-0.2,0-0.3-0.1c-0.1-0.1-0.3-0.2-0.4-0.4
	c-0.1-0.1-0.3-0.3-0.4-0.4c0,0.2,0,0.3,0.1,0.5c0.1,0.3,0.2,0.6,0.2,0.7c0,0.1,0,0.2-0.1,0.3c-0.1,0.1-0.1,0.1-0.2,0.1
	c-0.1,0-0.2,0-0.3-0.1c-0.1-0.1-0.1-0.2-0.1-0.3c0-0.1,0-0.3,0.1-0.5c0.1-0.2,0.1-0.3,0.1-0.4c0-0.1,0-0.2,0-0.3
	c-0.2,0.1-0.3,0.2-0.5,0.4c-0.2,0.2-0.4,0.4-0.5,0.5c-0.1,0-0.2,0.1-0.2,0.1c-0.1,0-0.2,0-0.3-0.1c-0.1-0.1-0.1-0.1-0.1-0.2
	c0-0.1,0-0.1,0.1-0.2c0.1-0.1,0.1-0.1,0.3-0.2c0.1,0,0.3-0.1,0.5-0.1c0.2,0,0.4-0.1,0.5-0.2c-0.2-0.1-0.3-0.1-0.6-0.2
	c-0.4-0.1-0.6-0.1-0.7-0.2c-0.1-0.1-0.2-0.2-0.2-0.3c0-0.1,0-0.2,0.1-0.2c0.1-0.1,0.1-0.1,0.2-0.1c0.1,0,0.2,0,0.3,0.1
	c0.1,0.1,0.2,0.2,0.4,0.4C101.6,105.9,101.7,106.1,101.9,106.2L101.9,106.2z"/>
<path id="path12" class="st2" d="M55.3,106.7c0-0.2-0.1-0.4-0.1-0.6c-0.1-0.3-0.2-0.5-0.2-0.6c0-0.2,0-0.3,0.1-0.3
	c0.1-0.1,0.2-0.1,0.3-0.1c0.1,0,0.2,0,0.2,0.1c0.1,0.1,0.1,0.2,0.1,0.3c0,0.1,0,0.3-0.1,0.5c-0.1,0.2-0.1,0.5-0.1,0.7
	c0.2-0.1,0.3-0.2,0.4-0.4c0.2-0.2,0.3-0.4,0.4-0.4c0.1-0.1,0.2-0.1,0.3-0.1c0.1,0,0.2,0,0.2,0.1c0.1,0.1,0.1,0.1,0.1,0.2
	c0,0.1,0,0.2-0.1,0.3c-0.1,0.1-0.3,0.2-0.7,0.3c-0.2,0.1-0.4,0.1-0.6,0.2c0.2,0.1,0.3,0.1,0.6,0.2c0.4,0.1,0.6,0.1,0.7,0.2
	c0.1,0.1,0.2,0.2,0.2,0.3c0,0.1,0,0.2-0.1,0.2c-0.1,0.1-0.1,0.1-0.2,0.1c-0.1,0-0.2,0-0.3-0.1c-0.1-0.1-0.3-0.2-0.4-0.4
	c-0.1-0.1-0.3-0.3-0.4-0.4c0,0.2,0,0.3,0.1,0.5c0.1,0.3,0.2,0.6,0.2,0.7c0,0.1,0,0.2-0.1,0.3c-0.1,0.1-0.1,0.1-0.2,0.1
	c-0.1,0-0.2,0-0.3-0.1c-0.1-0.1-0.1-0.2-0.1-0.3c0-0.1,0-0.3,0.1-0.5c0.1-0.2,0.1-0.3,0.1-0.4c0-0.1,0-0.2,0-0.3
	c-0.2,0.1-0.3,0.2-0.5,0.4c-0.2,0.2-0.4,0.4-0.5,0.5c-0.1,0-0.2,0.1-0.2,0.1c-0.1,0-0.2,0-0.3-0.1c-0.1-0.1-0.1-0.1-0.1-0.2
	c0-0.1,0-0.1,0.1-0.2c0.1-0.1,0.1-0.1,0.3-0.2c0.1,0,0.3-0.1,0.5-0.1c0.2,0,0.4-0.1,0.5-0.2c-0.2-0.1-0.3-0.1-0.6-0.2
	c-0.4-0.1-0.6-0.1-0.7-0.2c-0.1-0.1-0.2-0.2-0.2-0.3c0-0.1,0-0.2,0.1-0.2c0.1-0.1,0.1-0.1,0.2-0.1c0.1,0,0.2,0,0.3,0.1
	c0.1,0.1,0.2,0.2,0.4,0.4C55,106.4,55.2,106.5,55.3,106.7L55.3,106.7z"/>
<path id="path14" class="st2" d="M84.7,32c0-0.2-0.1-0.4-0.1-0.7c-0.1-0.3-0.2-0.5-0.2-0.7c0-0.2,0-0.3,0.1-0.4
	c0.1-0.1,0.2-0.1,0.3-0.1c0.1,0,0.2,0,0.3,0.1c0.1,0.1,0.1,0.2,0.1,0.4c0,0.1,0,0.3-0.1,0.6c-0.1,0.3-0.1,0.5-0.2,0.7
	c0.2-0.1,0.3-0.3,0.5-0.4c0.2-0.3,0.4-0.4,0.5-0.5C86,31,86.1,31,86.2,31c0.1,0,0.2,0,0.3,0.1c0.1,0.1,0.1,0.2,0.1,0.3
	c0,0.1-0.1,0.2-0.2,0.3c-0.1,0.1-0.4,0.2-0.8,0.3c-0.2,0.1-0.5,0.1-0.6,0.2c0.2,0.1,0.4,0.2,0.6,0.2c0.4,0.1,0.7,0.2,0.8,0.3
	c0.1,0.1,0.2,0.2,0.2,0.4c0,0.1,0,0.2-0.1,0.3c-0.1,0.1-0.2,0.1-0.3,0.1c-0.1,0-0.2,0-0.3-0.1c-0.1-0.1-0.3-0.2-0.5-0.5
	c-0.1-0.2-0.3-0.3-0.5-0.5c0,0.2,0,0.4,0.1,0.6c0.1,0.4,0.2,0.6,0.2,0.8c0,0.1,0,0.2-0.1,0.3c-0.1,0.1-0.2,0.1-0.2,0.1
	c-0.1,0-0.2,0-0.3-0.1c-0.1-0.1-0.1-0.2-0.1-0.3c0-0.2,0-0.3,0.1-0.6c0.1-0.2,0.1-0.4,0.1-0.5c0-0.1,0-0.2,0.1-0.4
	c-0.2,0.1-0.4,0.3-0.5,0.4c-0.2,0.3-0.4,0.4-0.5,0.5c-0.1,0.1-0.2,0.1-0.3,0.1c-0.1,0-0.2,0-0.3-0.1C83,33.2,83,33.1,83,33
	c0-0.1,0-0.2,0.1-0.3c0.1-0.1,0.2-0.2,0.3-0.2c0.1,0,0.3-0.1,0.6-0.2c0.2,0,0.4-0.1,0.6-0.2c-0.2-0.1-0.4-0.2-0.6-0.2
	c-0.4-0.1-0.6-0.2-0.7-0.2C83,31.6,83,31.5,83,31.3c0-0.1,0-0.2,0.1-0.2c0.1-0.1,0.2-0.1,0.3-0.1c0.1,0,0.2,0,0.3,0.1
	c0.1,0.1,0.3,0.2,0.4,0.4C84.3,31.7,84.5,31.9,84.7,32L84.7,32z"/>
<path id="path16" class="st2" d="M110.8,110.5c0-0.2-0.1-0.4-0.1-0.7c-0.1-0.3-0.2-0.5-0.2-0.7c0-0.2,0-0.3,0.1-0.4
	c0.1-0.1,0.2-0.1,0.3-0.1c0.1,0,0.2,0,0.3,0.1c0.1,0.1,0.1,0.2,0.1,0.4c0,0.1,0,0.3-0.1,0.6c-0.1,0.3-0.1,0.5-0.2,0.7
	c0.2-0.1,0.3-0.3,0.5-0.4c0.2-0.3,0.4-0.4,0.5-0.5c0.1-0.1,0.2-0.1,0.3-0.1c0.1,0,0.2,0,0.3,0.1c0.1,0.1,0.1,0.2,0.1,0.3
	c0,0.1-0.1,0.2-0.2,0.3c-0.1,0.1-0.4,0.2-0.8,0.3c-0.3,0.1-0.5,0.1-0.6,0.2c0.2,0.1,0.4,0.2,0.6,0.2c0.4,0.1,0.7,0.2,0.8,0.3
	c0.1,0.1,0.2,0.2,0.2,0.4c0,0.1,0,0.2-0.1,0.3c-0.1,0.1-0.2,0.1-0.3,0.1c-0.1,0-0.2,0-0.3-0.1c-0.1-0.1-0.3-0.2-0.5-0.5
	c-0.1-0.2-0.3-0.3-0.5-0.5c0,0.2,0,0.4,0.1,0.6c0.1,0.4,0.2,0.6,0.2,0.8c0,0.1,0,0.2-0.1,0.3c-0.1,0.1-0.2,0.1-0.2,0.1
	c-0.1,0-0.2,0-0.3-0.1c-0.1-0.1-0.1-0.2-0.1-0.3c0-0.2,0-0.3,0.1-0.6c0.1-0.2,0.1-0.4,0.1-0.5c0-0.1,0-0.2,0.1-0.4
	c-0.2,0.1-0.4,0.3-0.5,0.4c-0.2,0.3-0.4,0.4-0.5,0.5c-0.1,0.1-0.2,0.1-0.3,0.1c-0.1,0-0.2,0-0.3-0.1c-0.1-0.1-0.1-0.2-0.1-0.2
	c0-0.1,0-0.2,0.1-0.3c0.1-0.1,0.2-0.2,0.3-0.2c0.1,0,0.3-0.1,0.6-0.2c0.2,0,0.4-0.1,0.6-0.2c-0.2-0.1-0.4-0.2-0.6-0.2
	c-0.4-0.1-0.6-0.2-0.7-0.2c-0.1-0.1-0.2-0.2-0.2-0.4c0-0.1,0-0.2,0.1-0.2c0.1-0.1,0.2-0.1,0.3-0.1c0.1,0,0.2,0,0.3,0.1
	c0.1,0.1,0.3,0.2,0.4,0.4C110.5,110.2,110.6,110.4,110.8,110.5z"/>
<path id="path18" class="st3" d="M78,26.6c28.3,0,51.3,23,51.3,51.3c0,28.3-23,51.3-51.3,51.3c-28.3,0-51.3-23-51.3-51.3
	C26.6,49.6,49.6,26.6,78,26.6z"/>
<path id="path20" class="st2" d="M47.4,98.7c-0.7,0.4-1.3,0.6-1.9,0.5c-0.5-0.1-0.9-0.4-1.2-0.8c-0.2-0.3-0.2-0.6-0.2-0.9
	c0-0.3,0.2-0.7,0.4-1c0.2-0.3,0.6-0.6,1-0.9c0.6-0.3,1.2-0.5,1.7-0.4c0.6,0.1,1,0.3,1.3,0.8c0.3,0.5,0.3,1,0,1.5
	C48.4,98,48,98.4,47.4,98.7z M47.2,98.3c0.5-0.3,0.8-0.6,1-1c0.1-0.4,0.1-0.7-0.1-1c-0.2-0.3-0.5-0.5-0.9-0.6
	c-0.4-0.1-0.9,0.1-1.4,0.4c-0.3,0.2-0.6,0.4-0.8,0.7c-0.2,0.2-0.3,0.4-0.3,0.7c0,0.2,0,0.5,0.1,0.7c0.2,0.3,0.5,0.5,0.9,0.6
	C46.1,98.8,46.6,98.6,47.2,98.3z M42.9,95.6l-1-2.3l0.5-0.2l0.8,1.8l1.3-0.6l-0.4-0.8c-0.1-0.3-0.2-0.6-0.2-0.8
	c0-0.2,0.1-0.4,0.2-0.6c0.1-0.2,0.4-0.4,0.6-0.5c0.2-0.1,0.5-0.2,0.7-0.2c0.2,0,0.5,0.1,0.6,0.2c0.2,0.1,0.3,0.3,0.4,0.7l0.6,1.4
	L42.9,95.6z M46.5,93.4l-0.4-0.9c-0.1-0.2-0.2-0.4-0.4-0.5C45.5,92,45.3,92,45,92.1c-0.2,0.1-0.3,0.2-0.4,0.3
	c-0.1,0.1-0.1,0.3-0.1,0.4c0,0.1,0.1,0.4,0.2,0.7l0.3,0.6L46.5,93.4z M41.1,91.6L41,91.1l4-1.1l-0.3-1.2l-4,1.1l-0.1-0.5l4-1.1
	l-0.3-1.2l-4,1.1L40,87.7l4-1.1l-0.1-0.3l1.8-0.5l0.1,0.4l-1.2,0.4l1.1,3.8L41.1,91.6z M44.3,85.3l-4.6,0.8l-0.5-2.7l0.5-0.1
	l0.4,2.2l1.4-0.3l-0.4-2.1l0.5-0.1l0.4,2.1l1.6-0.3l-0.4-2.3l0.5-0.1L44.3,85.3z M41.9,79.1l0.1-0.5c0.5,0.1,0.9,0.2,1.2,0.5
	c0.3,0.3,0.4,0.6,0.5,1c0,0.4,0,0.7-0.2,0.9c-0.2,0.3-0.4,0.5-0.8,0.7c-0.4,0.2-0.8,0.3-1.3,0.3c-0.5,0-1,0-1.3-0.1
	c-0.4-0.1-0.7-0.3-0.9-0.6c-0.2-0.3-0.3-0.6-0.3-0.9c0-0.4,0.1-0.7,0.3-1c0.2-0.3,0.5-0.5,1-0.6l0.2,0.5c-0.6,0.2-0.9,0.6-0.9,1.1
	c0,0.3,0.1,0.5,0.2,0.6c0.1,0.2,0.4,0.3,0.6,0.4c0.3,0.1,0.6,0.1,1.1,0.1c0.6,0,1.1-0.2,1.4-0.4c0.3-0.2,0.4-0.6,0.4-0.9
	c0-0.3-0.1-0.5-0.3-0.7C42.6,79.2,42.3,79.1,41.9,79.1z M43.6,76.6l-4.1-0.3l-0.1,1.3l-0.5,0l0.2-3l0.5,0l-0.1,1.3l4.1,0.3
	L43.6,76.6z M43.7,74.2l-4.6-0.8l0.3-1.4c0.1-0.3,0.1-0.5,0.3-0.7c0.1-0.2,0.3-0.3,0.5-0.3c0.2-0.1,0.4-0.1,0.7,0
	c0.2,0,0.4,0.1,0.5,0.2c0.2,0.1,0.3,0.3,0.3,0.5c0.1-0.2,0.3-0.3,0.5-0.4c0.2-0.1,0.5-0.1,0.7-0.1c0.3,0.1,0.5,0.2,0.7,0.3
	c0.2,0.2,0.3,0.3,0.4,0.5c0.1,0.2,0.1,0.5,0,0.8L43.7,74.2z M41.1,73.2l0.1-0.8c0-0.2,0.1-0.4,0-0.5c0-0.1-0.1-0.3-0.2-0.3
	c-0.1-0.1-0.2-0.1-0.4-0.2c-0.2,0-0.3,0-0.4,0c-0.1,0-0.2,0.1-0.3,0.2c-0.1,0.1-0.1,0.3-0.2,0.6L39.7,73L41.1,73.2z M43.3,73.6
	l0.2-0.9c0-0.2,0-0.4,0-0.5c0-0.2-0.1-0.3-0.2-0.4c-0.1-0.1-0.3-0.2-0.5-0.2c-0.2,0-0.3,0-0.5,0c-0.1,0-0.2,0.1-0.3,0.2
	c-0.1,0.1-0.1,0.3-0.2,0.6l-0.2,0.9L43.3,73.6z M42.1,70c-0.8-0.2-1.3-0.5-1.6-1c-0.3-0.5-0.4-0.9-0.3-1.4c0.1-0.3,0.3-0.6,0.5-0.8
	c0.3-0.2,0.6-0.4,1-0.4c0.4-0.1,0.8,0,1.3,0.1c0.7,0.2,1.2,0.5,1.5,0.9c0.4,0.5,0.5,1,0.3,1.5c-0.2,0.5-0.5,0.9-1.1,1.1
	C43.3,70.2,42.7,70.2,42.1,70z M42.3,69.5c0.6,0.2,1,0.2,1.4,0c0.4-0.2,0.6-0.4,0.7-0.8c0.1-0.4,0-0.7-0.2-1
	c-0.2-0.3-0.7-0.6-1.3-0.7c-0.4-0.1-0.7-0.1-1.1-0.1c-0.3,0-0.5,0.1-0.7,0.3c-0.2,0.2-0.3,0.3-0.4,0.6c-0.1,0.4,0,0.7,0.2,1
	C41.2,69.1,41.6,69.3,42.3,69.5z M45.8,61.8l0.4-0.4c0.4,0.3,0.7,0.7,0.8,1c0.1,0.4,0.1,0.7-0.1,1.1c-0.1,0.3-0.3,0.6-0.6,0.7
	c-0.3,0.2-0.6,0.2-1,0.2c-0.4,0-0.9-0.1-1.3-0.3c-0.5-0.2-0.8-0.5-1.1-0.8c-0.3-0.3-0.4-0.6-0.5-0.9c-0.1-0.3,0-0.6,0.1-0.9
	c0.2-0.3,0.4-0.6,0.7-0.7c0.3-0.1,0.7-0.2,1.2-0.1l-0.1,0.5c-0.7-0.1-1.1,0.1-1.3,0.5c-0.1,0.2-0.1,0.5-0.1,0.7
	c0,0.2,0.2,0.4,0.4,0.7c0.2,0.2,0.5,0.4,0.9,0.6c0.6,0.3,1.1,0.4,1.4,0.3c0.4-0.1,0.7-0.3,0.8-0.6c0.1-0.3,0.1-0.5,0-0.8
	C46.3,62.3,46.1,62,45.8,61.8L45.8,61.8z M46.7,58.8c-0.6-0.5-1-1-1.2-1.5c-0.1-0.5-0.1-1,0.2-1.4c0.2-0.3,0.5-0.5,0.8-0.6
	c0.3-0.1,0.7-0.1,1.1-0.1c0.4,0.1,0.8,0.3,1.2,0.6c0.6,0.4,0.9,0.9,1.1,1.4c0.2,0.6,0.1,1.1-0.2,1.5c-0.3,0.5-0.8,0.7-1.4,0.7
	C47.7,59.4,47.2,59.2,46.7,58.8z M47,58.4c0.5,0.3,0.9,0.5,1.3,0.5c0.4,0,0.7-0.2,0.9-0.5c0.2-0.3,0.3-0.6,0.2-1
	c-0.1-0.4-0.4-0.8-0.9-1.1c-0.3-0.2-0.7-0.4-1-0.5c-0.3-0.1-0.5,0-0.7,0c-0.2,0.1-0.4,0.2-0.6,0.4c-0.2,0.3-0.3,0.7-0.2,1
	C46.1,57.6,46.4,58,47,58.4z M47.6,53.4l1.5-1.8l0.4,0.4l-1.2,1.4l3.1,2.7l-0.3,0.4L47.6,53.4z M53.1,54.2l-3.2-3.4l1-1
	c0.2-0.2,0.4-0.4,0.6-0.5c0.2-0.1,0.4-0.1,0.7,0c0.2,0.1,0.5,0.2,0.7,0.4c0.3,0.3,0.4,0.6,0.5,1c0,0.3-0.1,0.7-0.5,1.1l-0.7,0.7
	l1.3,1.4L53.1,54.2z M51.8,52.1l0.7-0.7c0.2-0.2,0.3-0.4,0.3-0.6c0-0.2-0.1-0.4-0.3-0.6c-0.1-0.1-0.3-0.2-0.4-0.3
	c-0.1,0-0.3-0.1-0.4,0c-0.1,0-0.3,0.1-0.4,0.3l-0.7,0.7L51.8,52.1z M55.6,51.9l-1.7-4.6l0.4-0.3l4.1,2.7l-0.5,0.4l-1.2-0.8l-1.3,1
	l0.5,1.4L55.6,51.9z M55.2,49.7l1-0.8l-1.1-0.8c-0.3-0.2-0.6-0.4-0.8-0.6c0.1,0.3,0.3,0.5,0.4,0.8L55.2,49.7z M58.9,49.4l-2.5-3.9
	l0.4-0.3l1,1.6l1.7-1.1l-1-1.6l0.4-0.3l2.5,3.9L61,48.1l-1.2-1.9l-1.7,1.1l1.2,1.9L58.9,49.4z M60.4,43.1l0.4-0.2l1.5,3.4l0.3-4.2
	l0.5-0.2l1.9,4.3l-0.4,0.2l-1.5-3.4l-0.3,4.2l-0.5,0.2L60.4,43.1z M68.6,44.9L68.1,45l-0.6-1.8c-0.4,0.3-0.7,0.6-1,0.7
	c-0.2,0.1-0.5,0.1-0.7,0c-0.2-0.1-0.4-0.2-0.6-0.4c-0.1-0.2-0.3-0.5-0.4-0.8l-0.4-1.3l0.5-0.2l0.4,1.2c0.1,0.4,0.3,0.7,0.5,0.9
	c0.2,0.1,0.4,0.2,0.6,0.1c0.3-0.1,0.7-0.3,1-0.6l-0.7-2.2l0.5-0.2L68.6,44.9z M69.6,44.6l-1.1-4.5l2.7-0.6l0.1,0.5l-2.2,0.5l0.3,1.4
	l2.1-0.5l0.1,0.5l-2.1,0.5L70,44l2.3-0.5l0.1,0.5L69.6,44.6z M73.2,43.8l-0.4-4.7l0.5,0l0.1,1.9l2-0.2L75.4,39l0.5,0l0.4,4.7l-0.5,0
	l-0.2-2.2l-2,0.2l0.2,2.2L73.2,43.8z M77.3,43.5l0.1-4.7l0.5,0l-0.1,1.9l2,0.1l0.1-1.9l0.5,0l-0.1,4.7l-0.5,0l0.1-2.2l-2-0.1
	l-0.1,2.2L77.3,43.5z M81.5,41.4c0.1-0.8,0.3-1.4,0.7-1.8c0.4-0.4,0.9-0.5,1.4-0.5c0.3,0,0.6,0.2,0.9,0.4c0.3,0.2,0.4,0.5,0.6,0.9
	c0.1,0.4,0.1,0.8,0.1,1.3c-0.1,0.7-0.3,1.2-0.7,1.6C84,43.9,83.5,44,83,44c-0.6-0.1-1-0.4-1.3-0.9C81.5,42.6,81.4,42,81.5,41.4z
	 M82,41.5c-0.1,0.6,0,1,0.2,1.4c0.2,0.3,0.5,0.5,0.9,0.6c0.4,0,0.7-0.1,1-0.4c0.3-0.3,0.5-0.7,0.6-1.4c0-0.4,0-0.8-0.1-1.1
	c-0.1-0.3-0.2-0.5-0.4-0.6c-0.2-0.2-0.4-0.3-0.6-0.3c-0.4,0-0.7,0.1-1,0.4C82.2,40.4,82.1,40.8,82,41.5L82,41.5z M86.9,39.8l0.4,0.1
	l-1,3.6l3-3l0.5,0.1l-1.3,4.5L88.1,45l1-3.6l-3,3l-0.5-0.1L86.9,39.8z M89.1,39.3l0.3,0.1c-0.1,0.3-0.2,0.4-0.4,0.5
	c-0.2,0.1-0.4,0.1-0.6,0.1c-0.2-0.1-0.4-0.2-0.4-0.3c-0.1-0.2-0.1-0.4-0.1-0.7l0.3,0.1c0,0.3,0.1,0.5,0.3,0.5c0.1,0,0.2,0,0.3,0
	C89,39.5,89.1,39.4,89.1,39.3z M91.7,43.8c0.3-0.7,0.7-1.2,1.2-1.5c0.5-0.2,1-0.3,1.5,0c0.3,0.1,0.5,0.4,0.7,0.6
	c0.2,0.3,0.3,0.6,0.3,1c0,0.4-0.1,0.8-0.3,1.3c-0.3,0.6-0.7,1.1-1.1,1.3c-0.5,0.3-1,0.3-1.5,0.1c-0.5-0.2-0.8-0.6-0.9-1.2
	C91.3,44.9,91.4,44.4,91.7,43.8z M92.1,44c-0.2,0.5-0.3,1-0.2,1.4c0.1,0.4,0.3,0.7,0.6,0.8c0.3,0.2,0.7,0.1,1.1-0.1
	c0.4-0.2,0.7-0.6,0.9-1.1c0.2-0.4,0.3-0.7,0.3-1.1c0-0.3,0-0.5-0.2-0.7c-0.1-0.2-0.3-0.4-0.5-0.5c-0.3-0.2-0.7-0.1-1.1,0
	C92.7,43,92.4,43.4,92.1,44z M95.6,48.3l2.1-3.6l-1.1-0.6l0.3-0.5l2.6,1.5l-0.3,0.5L98.1,45l-2.1,3.6L95.6,48.3z M97.7,49.6l2.7-3.8
	l1.2,0.8c0.2,0.2,0.4,0.3,0.5,0.5c0.1,0.2,0.1,0.4,0.1,0.6c0,0.2-0.1,0.4-0.2,0.6c-0.1,0.2-0.3,0.3-0.4,0.4
	c-0.2,0.1-0.4,0.1-0.6,0.1c0.1,0.2,0.2,0.4,0.2,0.6c0,0.2-0.1,0.5-0.3,0.7c-0.2,0.2-0.4,0.4-0.6,0.5c-0.2,0.1-0.4,0.1-0.6,0.1
	c-0.2,0-0.5-0.1-0.7-0.3L97.7,49.6z M99.7,47.7l0.7,0.5c0.2,0.1,0.3,0.2,0.4,0.2c0.1,0,0.3,0,0.4,0c0.1,0,0.2-0.1,0.3-0.3
	c0.1-0.1,0.2-0.3,0.2-0.4c0-0.1,0-0.2-0.1-0.3c-0.1-0.1-0.2-0.2-0.4-0.4l-0.6-0.4L99.7,47.7z M98.4,49.4l0.8,0.6
	c0.2,0.1,0.3,0.2,0.4,0.2c0.1,0,0.3,0,0.4,0c0.1-0.1,0.3-0.2,0.4-0.3c0.1-0.1,0.2-0.3,0.2-0.4c0-0.1,0-0.3-0.1-0.4
	c-0.1-0.1-0.2-0.3-0.4-0.4l-0.7-0.5L98.4,49.4z M100.7,51.8l3.2-3.4l2,1.9l-0.4,0.4l-1.6-1.6l-1,1l1.5,1.5l-0.4,0.4l-1.5-1.5
	l-1.1,1.2l1.7,1.6l-0.4,0.4L100.7,51.8z M104,55.2l3.1-2.7l-0.8-1l0.4-0.4l2,2.3l-0.4,0.4l-0.8-1l-3.1,2.7L104,55.2z M108.5,58.3
	l0.2,0.5c-0.5,0.2-0.9,0.3-1.3,0.2c-0.4-0.1-0.7-0.3-0.9-0.6c-0.2-0.3-0.3-0.6-0.3-0.9c0-0.3,0.1-0.6,0.3-1c0.2-0.4,0.5-0.7,1-1
	c0.4-0.3,0.8-0.5,1.2-0.6c0.4-0.1,0.7-0.1,1,0.1c0.3,0.1,0.6,0.3,0.8,0.6c0.2,0.3,0.3,0.6,0.3,1c0,0.3-0.2,0.7-0.5,1l-0.4-0.3
	c0.4-0.5,0.5-1,0.2-1.4c-0.1-0.2-0.3-0.4-0.5-0.4c-0.2-0.1-0.5-0.1-0.8,0c-0.3,0.1-0.6,0.2-1,0.5c-0.5,0.4-0.8,0.7-1,1.1
	c-0.1,0.4-0.1,0.7,0.1,1c0.2,0.2,0.4,0.4,0.7,0.4C107.8,58.6,108.2,58.5,108.5,58.3z M108.4,61.2l3.6-2.1l-0.6-1.1l0.5-0.3l1.5,2.6
	l-0.5,0.3l-0.6-1.1l-3.6,2.1L108.4,61.2z M109.5,63.4l4.3-1.9l0.6,1.3c0.1,0.3,0.2,0.5,0.2,0.7c0,0.2-0.1,0.4-0.2,0.6
	c-0.1,0.2-0.3,0.3-0.5,0.4c-0.2,0.1-0.4,0.1-0.6,0.1c-0.2,0-0.4-0.1-0.5-0.2c0,0.2,0,0.4-0.2,0.6c-0.1,0.2-0.3,0.4-0.6,0.5
	c-0.3,0.1-0.5,0.2-0.7,0.1c-0.2,0-0.4-0.1-0.6-0.2c-0.2-0.1-0.3-0.4-0.5-0.7L109.5,63.4z M112.2,62.8l0.3,0.8
	c0.1,0.2,0.2,0.3,0.2,0.4c0.1,0.1,0.2,0.2,0.3,0.2c0.1,0,0.3,0,0.4-0.1c0.2-0.1,0.3-0.2,0.3-0.3c0.1-0.1,0.1-0.2,0.1-0.3
	c0-0.1-0.1-0.3-0.2-0.6l-0.3-0.7L112.2,62.8z M110.2,63.7l0.4,0.9c0.1,0.2,0.2,0.3,0.2,0.4c0.1,0.1,0.2,0.2,0.4,0.2
	c0.1,0,0.3,0,0.5-0.1c0.2-0.1,0.3-0.2,0.4-0.3c0.1-0.1,0.1-0.2,0.1-0.4c0-0.1-0.1-0.3-0.2-0.6l-0.4-0.8L110.2,63.7z M111,66.9
	l4.5-1.3l0.8,2.7l-0.5,0.1l-0.6-2.2l-1.4,0.4l0.6,2l-0.5,0.1l-0.6-2l-1.5,0.4l0.6,2.3l-0.5,0.1L111,66.9z M112,70.5l4.6-0.8l0.1,0.5
	l-1.9,0.3l0.4,2l1.9-0.3l0.1,0.5l-4.6,0.8l-0.1-0.5l2.2-0.4l-0.4-2l-2.2,0.4L112,70.5z M112.6,74.5l4.7-0.4l0,0.5l-1.9,0.1l0.2,2
	l1.9-0.1l0,0.5l-4.7,0.4l0-0.5l2.2-0.2l-0.2-2l-2.2,0.2L112.6,74.5z M115.1,78.5c0.8,0.1,1.4,0.3,1.8,0.7c0.4,0.4,0.6,0.8,0.5,1.4
	c0,0.3-0.1,0.6-0.4,0.9c-0.2,0.3-0.5,0.5-0.9,0.6c-0.4,0.1-0.8,0.2-1.3,0.1c-0.7-0.1-1.2-0.3-1.6-0.6c-0.5-0.4-0.7-0.9-0.6-1.4
	c0-0.6,0.3-1,0.8-1.3C114,78.6,114.5,78.5,115.1,78.5z M115.1,79.1c-0.6,0-1,0-1.4,0.3c-0.3,0.2-0.5,0.5-0.5,0.9
	c0,0.4,0.1,0.7,0.4,1c0.3,0.3,0.8,0.4,1.4,0.5c0.4,0,0.8,0,1.1-0.1c0.2-0.1,0.5-0.2,0.6-0.4c0.2-0.2,0.2-0.4,0.3-0.6
	c0-0.4-0.1-0.7-0.4-1C116.2,79.3,115.8,79.1,115.1,79.1z M113.6,85.8l-0.2,0.5c-0.5-0.2-0.8-0.5-1-0.8c-0.2-0.3-0.3-0.7-0.2-1.1
	c0.1-0.3,0.2-0.6,0.4-0.8c0.2-0.2,0.5-0.4,0.9-0.5c0.4-0.1,0.9-0.1,1.4,0c0.5,0.1,0.9,0.2,1.2,0.5c0.3,0.2,0.5,0.5,0.7,0.8
	c0.1,0.3,0.2,0.6,0.1,1c-0.1,0.4-0.2,0.7-0.5,0.9c-0.3,0.2-0.6,0.3-1.1,0.4l-0.1-0.5c0.7-0.1,1-0.3,1.1-0.8c0-0.3,0-0.5-0.1-0.7
	c-0.1-0.2-0.3-0.4-0.5-0.5c-0.3-0.2-0.6-0.3-1-0.4c-0.6-0.1-1.1-0.1-1.5,0.1c-0.4,0.2-0.6,0.4-0.6,0.8c0,0.3,0,0.5,0.2,0.8
	C113,85.5,113.3,85.6,113.6,85.8L113.6,85.8z M111.5,87.7l4,1.1l0.3-1.2l0.5,0.1l-0.8,2.9l-0.5-0.1l0.3-1.2l-4-1.1L111.5,87.7z
	 M115,91.8l-0.2,0.5l-1.9-0.7l-0.3,0.8c-0.1,0.3-0.3,0.5-0.4,0.7c-0.1,0.2-0.3,0.2-0.6,0.3c-0.2,0-0.5,0-0.8-0.1
	c-0.3-0.1-0.6-0.3-0.8-0.6c-0.2-0.3-0.2-0.7,0-1.2l0.5-1.4L115,91.8z M111,90.7l-0.3,0.9c-0.1,0.3-0.1,0.5-0.1,0.7
	c0.1,0.2,0.2,0.3,0.5,0.4c0.2,0.1,0.3,0.1,0.5,0.1c0.1,0,0.3-0.1,0.4-0.2c0.1-0.1,0.2-0.3,0.3-0.6l0.2-0.6L111,90.7z M113.4,95.8
	l-0.3,0.4l-1.8-1l-0.4,0.6c0.6,0.4,0.9,0.8,1.1,1.2c0.2,0.5,0.2,0.9-0.1,1.3c-0.2,0.4-0.6,0.7-1.1,0.8c-0.5,0.1-1.1-0.1-1.8-0.4
	c-0.7-0.4-1.1-0.8-1.3-1.3c-0.2-0.5-0.2-1,0.1-1.4c0.2-0.4,0.6-0.7,1.1-0.7c0.5-0.1,1,0.1,1.6,0.3l0.4-0.6l-1.8-1l0.3-0.4
	L113.4,95.8z M110.4,96.2c-0.5-0.3-1-0.4-1.4-0.4c-0.4,0-0.7,0.2-0.9,0.5c-0.2,0.3-0.2,0.7,0,1c0.2,0.4,0.5,0.7,1.1,1
	c0.5,0.3,1,0.4,1.4,0.4c0.4,0,0.7-0.2,0.9-0.5c0.2-0.3,0.2-0.7,0-1C111.3,96.8,111,96.5,110.4,96.2L110.4,96.2z"/>
<path id="path22" class="st2" d="M44.5,105.5l-4.2,3.3l-1.2-1.6c-0.2-0.3-0.4-0.5-0.5-0.7c-0.1-0.2-0.2-0.5-0.2-0.7
	c0-0.2,0-0.4,0.1-0.6c0.1-0.2,0.3-0.4,0.5-0.6c0.4-0.3,0.7-0.4,1.2-0.4c0.4,0,0.9,0.3,1.3,0.9l0.8,1.1l1.7-1.3L44.5,105.5z
	 M41.9,106.7l-0.8-1.1c-0.3-0.4-0.5-0.6-0.8-0.6c-0.2,0-0.5,0-0.7,0.2c-0.2,0.1-0.3,0.3-0.3,0.5c-0.1,0.2,0,0.4,0,0.5
	c0,0.1,0.2,0.3,0.4,0.5l0.8,1.1L41.9,106.7z M39.5,103.1c-0.8,0.4-1.5,0.6-2.1,0.4c-0.7-0.2-1.2-0.6-1.5-1.2
	c-0.2-0.4-0.4-0.9-0.3-1.3c0-0.5,0.1-0.9,0.4-1.3c0.3-0.4,0.6-0.7,1.1-1c0.5-0.3,0.9-0.4,1.4-0.4c0.5,0,0.9,0.1,1.3,0.3
	c0.4,0.2,0.7,0.6,0.9,1c0.2,0.4,0.4,0.9,0.3,1.3c0,0.5-0.2,0.9-0.4,1.3C40.2,102.6,39.9,102.9,39.5,103.1z M39.1,102.5
	c0.6-0.3,0.9-0.7,1.1-1.2c0.2-0.5,0.1-0.9-0.2-1.4c-0.3-0.5-0.6-0.7-1.1-0.9c-0.5-0.1-1,0-1.6,0.3c-0.4,0.2-0.7,0.5-0.9,0.7
	c-0.2,0.3-0.3,0.6-0.3,0.9c0,0.3,0.1,0.6,0.2,1c0.2,0.4,0.6,0.7,1.1,0.9C37.8,103,38.4,102.9,39.1,102.5z M35.6,93.9l-0.1-0.7
	c0.6-0.1,1.1,0,1.5,0.2c0.4,0.2,0.7,0.6,0.9,1.1c0.2,0.5,0.3,1,0.2,1.4c-0.1,0.4-0.3,0.8-0.6,1.1c-0.3,0.3-0.7,0.6-1.2,0.8
	c-0.5,0.2-1,0.3-1.5,0.2c-0.5,0-0.9-0.2-1.2-0.5s-0.6-0.6-0.8-1.1c-0.2-0.5-0.2-1-0.1-1.4c0.1-0.4,0.4-0.8,0.8-1.1l0.4,0.6
	c-0.3,0.3-0.5,0.5-0.6,0.8c-0.1,0.3,0,0.6,0.1,0.9c0.2,0.4,0.4,0.7,0.7,0.8c0.3,0.2,0.6,0.3,0.9,0.2c0.3,0,0.7-0.1,1-0.2
	c0.4-0.2,0.8-0.4,1-0.6c0.3-0.2,0.4-0.5,0.5-0.8c0.1-0.3,0-0.6-0.1-0.9c-0.1-0.4-0.4-0.6-0.7-0.8C36.4,93.9,36.1,93.8,35.6,93.9
	L35.6,93.9z M34,88.6l0-0.7c0.6,0,1.1,0.1,1.5,0.4c0.4,0.3,0.7,0.7,0.8,1.2c0.2,0.5,0.2,1,0.1,1.4c-0.1,0.4-0.4,0.8-0.7,1.1
	c-0.4,0.3-0.8,0.5-1.3,0.7c-0.5,0.2-1,0.2-1.5,0.1c-0.5-0.1-0.8-0.3-1.1-0.6c-0.3-0.3-0.5-0.7-0.7-1.1c-0.1-0.5-0.1-1,0-1.4
	c0.2-0.4,0.5-0.8,0.9-1l0.3,0.6c-0.3,0.2-0.6,0.5-0.7,0.7c-0.1,0.3-0.1,0.6,0,0.9c0.1,0.4,0.3,0.7,0.6,0.9c0.3,0.2,0.6,0.3,0.9,0.3
	c0.3,0,0.7,0,1-0.1c0.4-0.1,0.8-0.3,1.1-0.5c0.3-0.2,0.5-0.5,0.6-0.8c0.1-0.3,0.1-0.6,0-0.9c-0.1-0.4-0.3-0.7-0.6-0.9
	C34.8,88.7,34.4,88.6,34,88.6z M30.1,87.3l-0.1-0.6l4.2-0.6l-4.5-2.2l-0.1-0.7l5.2-0.7l0.1,0.6l-4.1,0.6l4.5,2.2l0.1,0.7L30.1,87.3z
	 M29.4,81.4l0-0.6l4.2-0.1l-4.2-2.8l0-0.7l5.3-0.1l0,0.6l-4.2,0.1l4.2,2.7l0,0.7L29.4,81.4z M28.1,78.7l0-0.4c0.3,0,0.5,0.1,0.7,0.3
	c0.2,0.2,0.3,0.4,0.3,0.7c0,0.3-0.1,0.6-0.2,0.7c-0.2,0.2-0.4,0.3-0.7,0.3l0-0.4c0.2,0,0.3-0.1,0.4-0.2c0.1-0.1,0.1-0.2,0.1-0.4
	c0-0.2,0-0.3-0.1-0.4C28.4,78.8,28.2,78.8,28.1,78.7z M33.1,72.1l0.2-0.7c0.6,0.2,1,0.5,1.3,0.9c0.3,0.4,0.4,0.9,0.3,1.4
	c0,0.6-0.2,1-0.5,1.4c-0.3,0.3-0.6,0.6-1.1,0.7c-0.5,0.2-0.9,0.2-1.4,0.2c-0.5,0-1-0.2-1.4-0.4c-0.4-0.2-0.7-0.6-0.9-1
	c-0.2-0.4-0.3-0.8-0.2-1.3c0-0.5,0.2-1,0.5-1.3c0.3-0.3,0.7-0.6,1.2-0.7l0.1,0.7c-0.4,0.1-0.7,0.2-0.9,0.5c-0.2,0.2-0.3,0.5-0.3,0.9
	c0,0.4,0,0.8,0.2,1c0.2,0.3,0.4,0.5,0.7,0.6c0.3,0.1,0.7,0.2,1,0.2c0.4,0,0.8,0,1.2-0.1c0.3-0.1,0.6-0.3,0.8-0.6
	c0.2-0.3,0.3-0.6,0.3-0.9c0-0.4-0.1-0.7-0.3-1C33.8,72.4,33.5,72.2,33.1,72.1L33.1,72.1z M30,69.5l0.2-0.7l2.3,0.5
	c0.1-0.3,0.1-0.5,0-0.7c-0.1-0.2-0.3-0.4-0.8-0.7c-0.3-0.2-0.5-0.4-0.6-0.5c-0.1-0.1-0.2-0.3-0.3-0.5c-0.1-0.2-0.1-0.4,0-0.6
	c0.1-0.3,0.1-0.4,0.1-0.4l0.6,0.1c0,0,0,0.1,0,0.1c0,0.1,0,0.1,0,0.1c0,0.2,0,0.4,0,0.5c0.1,0.1,0.3,0.3,0.6,0.5
	c0.4,0.3,0.6,0.5,0.7,0.6c0.1,0.1,0.1,0.3,0.2,0.5c0.2-0.3,0.6-0.6,1.1-0.8l2-0.7l-0.2,0.8l-1.6,0.5c-0.4,0.1-0.8,0.3-0.9,0.4
	c-0.2,0.1-0.3,0.3-0.4,0.6l2.4,0.5l-0.2,0.7L30,69.5z M35.9,67l-4.3-3.6l0.3-0.7l5.7-0.3l-0.3,0.8l-1.7,0.1l-0.7,2.1l1.3,1.1
	L35.9,67z M34.3,64.8l0.6-1.7l-1.6,0c-0.5,0-0.9,0-1.2,0c0.3,0.2,0.6,0.4,0.9,0.6L34.3,64.8z M39.4,58l-4.8-2.2l-1,2.1
	c-0.2,0.4-0.3,0.8-0.3,1c0,0.3,0.1,0.5,0.2,0.7c0.2,0.2,0.4,0.4,0.6,0.5c0.3,0.2,0.7,0.2,1,0.1c0.3-0.1,0.6-0.4,0.9-0.8
	c0,0.2,0,0.4,0.1,0.5c0.1,0.3,0.2,0.5,0.4,0.8l0.9,1.4l0.4-0.8l-0.7-1.1c-0.2-0.3-0.4-0.6-0.5-0.8c-0.1-0.2-0.2-0.3-0.2-0.5
	c0-0.1,0-0.2,0-0.3c0-0.1,0.1-0.2,0.1-0.4l0.3-0.7l2.1,1L39.4,58z M36.4,57.4l-0.6,1.4c-0.1,0.3-0.3,0.5-0.4,0.6
	c-0.1,0.1-0.3,0.2-0.5,0.2c-0.2,0-0.3,0-0.5-0.1c-0.2-0.1-0.4-0.3-0.4-0.5c-0.1-0.2,0-0.5,0.1-0.9l0.7-1.5L36.4,57.4z M38.3,50.9
	l-0.5-0.4l0.4-0.5l0.5,0.4c0.4-0.5,0.9-0.8,1.4-1c0.5-0.1,1,0,1.5,0.3c0.4,0.3,0.7,0.7,0.8,1.3c0.1,0.5-0.1,1.1-0.4,1.7l0.6,0.4
	l-0.4,0.5l-0.6-0.4c-0.4,0.5-0.8,0.8-1.4,0.9c-0.5,0.1-1,0-1.5-0.3c-0.5-0.3-0.7-0.8-0.8-1.3C37.8,52,37.9,51.4,38.3,50.9z
	 M39.2,50.7l2.3,1.6c0.2-0.4,0.3-0.7,0.3-1.1c0-0.4-0.2-0.6-0.6-0.9c-0.3-0.2-0.7-0.3-1-0.3C39.8,50.1,39.4,50.3,39.2,50.7z
	 M38.8,51.2c-0.2,0.4-0.3,0.7-0.3,1.1c0,0.4,0.2,0.7,0.6,0.9c0.3,0.2,0.7,0.3,1,0.2c0.4-0.1,0.7-0.3,0.9-0.6L38.8,51.2z M44.3,50.6
	l-4-3.5l2.5-2.9l0.5,0.4l-2,2.4l1.2,1.1l1.9-2.2l0.5,0.4l-1.9,2.2l1.4,1.2l2.1-2.5l0.5,0.4L44.3,50.6z M44.5,42.6l2.4-2.1L50,44
	l0.4-0.3l1.2,1.4l-0.5,0.4l-0.8-0.9l-2.6,2.3l0.8,0.9L48,48.2l-1.2-1.4l0.3-0.3c-0.1-0.8-0.8-1.9-2.1-3.4L44.5,42.6z M46.8,41.4
	l-1.4,1.2l0.2,0.2c0.3,0.3,0.7,0.8,1.1,1.5c0.5,0.6,0.8,1.2,0.9,1.8l1.8-1.6L46.8,41.4z M51.4,43.7l-3-4.3l3.1-2.2l0.4,0.5l-2.6,1.8
	l0.9,1.3l2.4-1.7l0.4,0.5l-2.4,1.7l1,1.5l2.7-1.9l0.4,0.5L51.4,43.7z M55.5,40.9l-2.6-4.6l1.7-1c0.3-0.2,0.5-0.3,0.7-0.4
	c0.2-0.1,0.5-0.1,0.7-0.1c0.2,0,0.4,0.1,0.6,0.2c0.2,0.1,0.4,0.3,0.5,0.5c0.2,0.4,0.3,0.8,0.2,1.2c-0.1,0.4-0.5,0.8-1.1,1.2L55,38.7
	l1.1,1.9L55.5,40.9z M54.7,38.1l1.2-0.7c0.4-0.2,0.6-0.5,0.7-0.7c0.1-0.2,0-0.5-0.1-0.8c-0.1-0.2-0.2-0.3-0.4-0.4
	c-0.2-0.1-0.4-0.1-0.5-0.1c-0.1,0-0.3,0.1-0.6,0.3l-1.2,0.7L54.7,38.1z M58.8,38.9l0-5.7l0.7-0.3l3.9,4.1l-0.7,0.3l-1.2-1.3
	l-2.1,0.8l0,1.7L58.8,38.9z M59.4,36.3l1.7-0.7l-1-1.2c-0.3-0.4-0.6-0.7-0.8-0.9c0.1,0.3,0.1,0.7,0.1,1.1L59.4,36.3z M62.5,31.8
	l0.7-0.2l1.3,4.5l2.6-0.8l-1.3-4.5l0.7-0.2l1.3,4.5l0.5-0.1l0.6,2l-0.6,0.2l-0.4-1.4l-3.9,1.1L62.5,31.8z M68.3,30.3l0.6-0.1
	l0.7,4.1l2.1-4.6l0.7-0.1l0.9,5.2l-0.6,0.1L72,30.8l-2.1,4.6l-0.7,0.1L68.3,30.3z M78.6,34.6l-0.1-5.3l-2.3,0
	c-0.5,0-0.8,0.1-1.1,0.2c-0.2,0.1-0.4,0.3-0.6,0.5c-0.1,0.2-0.2,0.5-0.2,0.8c0,0.4,0.1,0.7,0.4,0.9c0.2,0.3,0.6,0.4,1.1,0.5
	c-0.2,0.1-0.3,0.2-0.4,0.3c-0.2,0.2-0.4,0.4-0.6,0.7L74,34.7l0.9,0l0.7-1.1c0.2-0.3,0.4-0.6,0.5-0.7c0.1-0.2,0.2-0.3,0.4-0.4
	c0.1-0.1,0.2-0.1,0.3-0.1c0.1,0,0.2,0,0.4,0l0.8,0l0,2.4L78.6,34.6z M77.9,31.7l-1.5,0c-0.3,0-0.6,0-0.8-0.1
	c-0.2-0.1-0.3-0.2-0.4-0.3c-0.1-0.1-0.1-0.3-0.1-0.5c0-0.2,0.1-0.5,0.3-0.6c0.2-0.2,0.5-0.2,0.9-0.3l1.7,0L77.9,31.7z M88.9,36
	l1.6-5l1,0.3l0,4c0,0.4,0,0.6,0,0.8c0.1-0.2,0.3-0.4,0.5-0.7l2.3-3.1l0.9,0.3l-1.6,5l-0.6-0.2l1.4-4.2l-2.8,3.7L91,36.6L91,31.9
	l-1.4,4.3L88.9,36z M95.8,35.5c0.4-0.8,0.9-1.3,1.6-1.5c0.6-0.2,1.3-0.2,2,0.2c0.4,0.2,0.8,0.5,1,0.9c0.2,0.4,0.4,0.8,0.3,1.3
	c0,0.5-0.1,0.9-0.4,1.4c-0.2,0.5-0.6,0.9-1,1.1c-0.4,0.3-0.8,0.4-1.3,0.4c-0.5,0-0.9-0.1-1.3-0.3c-0.4-0.2-0.8-0.5-1-0.9
	c-0.2-0.4-0.3-0.8-0.3-1.3C95.5,36.3,95.6,35.9,95.8,35.5z M96.5,35.8c-0.3,0.6-0.4,1.1-0.2,1.6c0.1,0.5,0.4,0.8,0.9,1.1
	c0.5,0.2,0.9,0.3,1.4,0.1c0.5-0.2,0.9-0.6,1.2-1.2c0.2-0.4,0.3-0.7,0.3-1.1c0-0.4-0.1-0.7-0.2-1c-0.2-0.3-0.4-0.5-0.7-0.7
	c-0.4-0.2-0.9-0.3-1.4-0.1C97.3,34.7,96.8,35.1,96.5,35.8z M104.1,41l0.5,0.5c-0.4,0.4-0.9,0.6-1.4,0.7c-0.5,0.1-1-0.1-1.4-0.4
	c-0.5-0.3-0.8-0.6-1-1c-0.2-0.4-0.2-0.8-0.2-1.3c0.1-0.5,0.3-0.9,0.5-1.3c0.3-0.5,0.6-0.8,1-1.1c0.4-0.2,0.8-0.3,1.3-0.3
	s0.9,0.2,1.3,0.4c0.4,0.3,0.8,0.6,0.9,1.1c0.2,0.4,0.2,0.9,0,1.4l-0.7-0.2c0.1-0.4,0.1-0.7,0-1c-0.1-0.3-0.3-0.5-0.6-0.7
	c-0.3-0.2-0.7-0.3-1-0.3c-0.3,0-0.6,0.1-0.9,0.4c-0.3,0.2-0.5,0.5-0.7,0.8c-0.2,0.4-0.4,0.7-0.5,1.1c-0.1,0.4,0,0.7,0.1,1
	c0.1,0.3,0.4,0.5,0.6,0.7c0.3,0.2,0.7,0.3,1,0.2C103.4,41.5,103.8,41.3,104.1,41L104.1,41z M107.8,39.5l0.5,0.5l-1.5,1.8
	c0.2,0.2,0.5,0.3,0.6,0.3c0.2,0,0.5-0.1,1-0.4c0.3-0.2,0.6-0.3,0.8-0.3c0.2,0,0.3-0.1,0.5,0c0.2,0,0.4,0.1,0.5,0.3
	c0.2,0.2,0.3,0.3,0.3,0.3l-0.4,0.5c0,0-0.1,0-0.1-0.1c-0.1-0.1-0.1-0.1-0.1-0.1c-0.2-0.1-0.3-0.2-0.5-0.2c-0.2,0-0.4,0.1-0.7,0.3
	c-0.4,0.2-0.7,0.3-0.9,0.3c-0.2,0-0.3,0-0.5-0.1c0.2,0.3,0.2,0.8,0.1,1.4l-0.3,2l-0.7-0.6l0.3-1.7c0.1-0.5,0.1-0.8,0.1-1
	c0-0.2-0.1-0.4-0.3-0.6l-1.6,1.9l-0.5-0.5L107.8,39.5z M109.3,44.3c0.6-0.6,1.3-0.9,2-0.9c0.7,0,1.3,0.3,1.8,0.8
	c0.3,0.4,0.6,0.7,0.7,1.2c0.1,0.4,0.1,0.9-0.1,1.3c-0.2,0.4-0.4,0.8-0.8,1.2c-0.4,0.4-0.8,0.6-1.3,0.8c-0.5,0.1-0.9,0.1-1.3,0
	c-0.4-0.1-0.8-0.4-1.1-0.7c-0.3-0.4-0.6-0.8-0.7-1.2c-0.1-0.4-0.1-0.9,0.1-1.3C108.7,45,109,44.6,109.3,44.3z M109.8,44.8
	c-0.5,0.4-0.7,0.9-0.7,1.4c0,0.5,0.1,0.9,0.5,1.3c0.4,0.4,0.8,0.6,1.3,0.6c0.5,0,1-0.3,1.5-0.7c0.3-0.3,0.5-0.6,0.7-0.9
	c0.1-0.3,0.2-0.7,0.1-1c-0.1-0.3-0.2-0.6-0.5-0.9c-0.3-0.4-0.8-0.5-1.3-0.6C110.9,44,110.4,44.3,109.8,44.8z M111.5,50.5l4.2-3.3
	l1.2,1.6c0.2,0.3,0.4,0.6,0.5,0.9c0.1,0.3,0.1,0.5,0,0.8c-0.1,0.2-0.2,0.4-0.4,0.6c-0.2,0.1-0.4,0.2-0.6,0.2c-0.2,0-0.5,0-0.7-0.1
	c0.1,0.3,0.1,0.6,0.1,0.9c-0.1,0.3-0.2,0.5-0.5,0.7c-0.2,0.2-0.4,0.3-0.6,0.3c-0.2,0-0.4,0-0.6,0c-0.2-0.1-0.4-0.1-0.6-0.3
	c-0.2-0.1-0.4-0.4-0.6-0.6L111.5,50.5z M114.3,49.1L115,50c0.2,0.2,0.3,0.4,0.5,0.5c0.2,0.1,0.3,0.2,0.5,0.2c0.2,0,0.3-0.1,0.4-0.2
	c0.1-0.1,0.2-0.2,0.3-0.4c0.1-0.1,0.1-0.3,0-0.5c-0.1-0.2-0.2-0.4-0.4-0.7l-0.7-0.8L114.3,49.1z M112.4,50.6l0.8,1
	c0.1,0.2,0.2,0.3,0.3,0.4c0.1,0.1,0.2,0.2,0.4,0.2c0.1,0,0.3,0.1,0.4,0c0.1,0,0.3-0.1,0.4-0.2c0.2-0.1,0.3-0.3,0.3-0.4
	c0.1-0.2,0-0.3,0-0.5c-0.1-0.2-0.2-0.4-0.4-0.7l-0.8-1L112.4,50.6z M117.8,56.6l0.2,0.7c-0.6,0.2-1.1,0.1-1.5,0
	c-0.4-0.2-0.8-0.5-1.1-1c-0.3-0.5-0.4-1-0.4-1.4c0-0.4,0.2-0.8,0.5-1.2c0.3-0.4,0.7-0.7,1.1-0.9c0.5-0.3,1-0.4,1.4-0.4
	c0.5,0,0.9,0.1,1.3,0.3c0.4,0.2,0.7,0.6,0.9,1c0.3,0.5,0.4,0.9,0.3,1.4c-0.1,0.4-0.3,0.9-0.6,1.2l-0.5-0.5c0.3-0.3,0.4-0.6,0.5-0.9
	c0-0.3,0-0.6-0.2-0.9c-0.2-0.4-0.5-0.6-0.8-0.7c-0.3-0.1-0.6-0.2-1-0.1c-0.3,0.1-0.7,0.2-1,0.4c-0.4,0.2-0.7,0.5-0.9,0.7
	c-0.2,0.3-0.3,0.6-0.4,0.9c0,0.3,0.1,0.6,0.2,0.9c0.2,0.3,0.5,0.6,0.8,0.7C117,56.7,117.4,56.7,117.8,56.6z M121.7,56.7l0.3,0.6
	l-2.1,1c0.1,0.3,0.3,0.5,0.4,0.5c0.2,0.1,0.5,0.1,1,0.1c0.4,0,0.7,0,0.8,0c0.2,0,0.3,0.1,0.5,0.2c0.2,0.1,0.3,0.3,0.4,0.5
	c0.1,0.2,0.2,0.4,0.2,0.4l-0.6,0.2c0,0,0-0.1-0.1-0.1c0-0.1,0-0.1-0.1-0.1c-0.1-0.2-0.2-0.3-0.4-0.4c-0.1-0.1-0.4-0.1-0.8-0.1
	c-0.5,0-0.8,0-1-0.1c-0.2-0.1-0.3-0.2-0.4-0.3c0.1,0.3-0.1,0.8-0.4,1.3l-1.2,1.7l-0.4-0.8l0.9-1.4c0.3-0.4,0.4-0.7,0.5-0.9
	c0.1-0.2,0-0.4-0.1-0.7l-2.3,1l-0.3-0.6L121.7,56.7z M118.5,62.3l5.7,0.3l0.2,0.7L120,67l-0.2-0.8l1.3-1.1l-0.7-2.1l-1.7-0.1
	L118.5,62.3z M121,63.1l0.5,1.7l1.2-1c0.4-0.3,0.7-0.5,0.9-0.7c-0.4,0-0.7,0-1.1,0L121,63.1z M120.8,71.7l5.2-0.9l-0.4-2.3
	c-0.1-0.5-0.2-0.8-0.3-1c-0.1-0.2-0.3-0.4-0.6-0.5c-0.3-0.1-0.5-0.1-0.8-0.1c-0.4,0.1-0.7,0.2-0.9,0.5c-0.2,0.3-0.3,0.7-0.3,1.2
	c-0.1-0.2-0.2-0.3-0.3-0.4c-0.2-0.2-0.5-0.3-0.8-0.5l-1.6-0.7l0.1,0.9l1.2,0.5c0.3,0.1,0.6,0.3,0.8,0.4c0.2,0.1,0.3,0.2,0.4,0.3
	c0.1,0.1,0.1,0.2,0.2,0.3c0,0.1,0.1,0.2,0.1,0.4l0.1,0.8l-2.3,0.4L120.8,71.7z M123.6,70.5l-0.2-1.5c-0.1-0.3-0.1-0.6,0-0.8
	c0-0.2,0.1-0.3,0.2-0.5c0.1-0.1,0.3-0.2,0.4-0.2c0.2,0,0.5,0,0.7,0.2c0.2,0.2,0.3,0.4,0.4,0.8l0.3,1.7L123.6,70.5z M123.8,74.6
	c0.9,0,1.6,0.2,2.1,0.7c0.5,0.5,0.8,1.1,0.8,1.8c0,0.5-0.1,0.9-0.3,1.3c-0.2,0.4-0.5,0.7-1,0.9c-0.4,0.2-0.9,0.3-1.4,0.3
	c-0.5,0-1-0.1-1.4-0.3c-0.4-0.2-0.8-0.5-1-0.9c-0.2-0.4-0.3-0.8-0.3-1.3c0-0.5,0.1-0.9,0.3-1.3c0.2-0.4,0.6-0.7,1-0.9
	C122.9,74.7,123.4,74.6,123.8,74.6z M123.8,75.3c-0.6,0-1.1,0.2-1.5,0.5c-0.4,0.3-0.5,0.8-0.5,1.3c0,0.5,0.2,1,0.6,1.3
	c0.4,0.3,0.9,0.5,1.6,0.5c0.4,0,0.8-0.1,1.1-0.2c0.3-0.2,0.6-0.4,0.7-0.7c0.2-0.3,0.3-0.6,0.2-0.9c0-0.5-0.2-0.9-0.5-1.3
	C125.2,75.5,124.6,75.3,123.8,75.3z M126.6,81.4l-0.5,3.4l-0.6-0.1l0.4-2.7l-1.6-0.2l-0.2,1.3c-0.1,0.5-0.2,0.8-0.3,1.1
	c-0.1,0.3-0.3,0.5-0.6,0.6c-0.3,0.1-0.6,0.2-0.9,0.1c-0.3,0-0.5-0.1-0.7-0.3c-0.2-0.1-0.4-0.4-0.5-0.6c-0.1-0.3-0.1-0.7-0.1-1.2
	l0.3-2.1L126.6,81.4z M121.8,81.4l-0.2,1.4c-0.1,0.4,0,0.7,0.1,0.9c0.1,0.2,0.3,0.3,0.6,0.4c0.2,0,0.4,0,0.6-0.1
	c0.2-0.1,0.3-0.2,0.4-0.4c0.1-0.2,0.1-0.5,0.2-1l0.1-0.9L121.8,81.4z M125.8,87l-0.7,3.2l-5.2-1.2l0.2-0.7l4.6,1l0.4-1.9l-2.7-0.6
	c-0.5-0.1-0.9-0.2-1.2-0.3c-0.2-0.1-0.4-0.3-0.5-0.5c-0.1-0.2-0.1-0.4-0.1-0.7c0-0.2,0.1-0.3,0.2-0.5l0.6,0.3
	c-0.1,0.1-0.1,0.2-0.2,0.3c0,0.2,0,0.3,0.1,0.4c0.1,0.1,0.4,0.2,0.8,0.3L125.8,87z M119.8,89.6l4.3,3.6l-0.3,0.7l-5.7,0.3l0.3-0.8
	l1.7-0.1l0.7-2.1l-1.3-1.1L119.8,89.6z M121.3,91.8l-0.6,1.7l1.6,0c0.5,0,0.9,0,1.2,0c-0.3-0.2-0.6-0.4-0.9-0.6L121.3,91.8z
	 M118.1,98.9l-0.5,0.6c-0.5-0.4-0.7-0.8-0.9-1.3c-0.1-0.5-0.1-1,0.2-1.5c0.2-0.5,0.5-0.9,0.9-1.1c0.4-0.2,0.8-0.3,1.3-0.3
	c0.5,0,0.9,0.1,1.4,0.3c0.5,0.2,0.9,0.5,1.2,0.9c0.3,0.4,0.4,0.8,0.5,1.2c0,0.4-0.1,0.9-0.2,1.3c-0.2,0.5-0.5,0.8-0.9,1
	c-0.4,0.2-0.8,0.3-1.3,0.2l0.1-0.7c0.4,0,0.7,0,1-0.1c0.3-0.1,0.5-0.4,0.6-0.7c0.2-0.4,0.2-0.7,0.2-1c-0.1-0.3-0.2-0.6-0.5-0.8
	c-0.3-0.2-0.5-0.4-0.9-0.6c-0.4-0.2-0.8-0.3-1.2-0.3c-0.4,0-0.7,0.1-0.9,0.2c-0.3,0.2-0.5,0.4-0.6,0.7c-0.2,0.4-0.2,0.7-0.1,1
	C117.5,98.3,117.7,98.6,118.1,98.9L118.1,98.9z M115,100.4l4,2.5l0.9-1.5l0.5,0.3l-2.2,3.5l-0.5-0.3l0.9-1.5l-4-2.5L115,100.4z
	 M117.5,106.4l-0.4,0.5l-1.8-1.4l-0.8,1c-0.4,0.5-0.7,0.7-1,0.9c-0.3,0.1-0.5,0.1-0.8,0.1c-0.3-0.1-0.5-0.2-0.7-0.3
	c-0.3-0.3-0.5-0.6-0.6-1c-0.1-0.4,0.1-0.9,0.6-1.5l1.3-1.6L117.5,106.4z M113.4,104l-0.8,1c-0.3,0.4-0.5,0.7-0.4,1
	c0,0.2,0.2,0.4,0.4,0.6c0.2,0.1,0.3,0.2,0.5,0.2c0.2,0,0.4-0.1,0.5-0.2c0.2-0.1,0.4-0.4,0.7-0.7l0.6-0.7L113.4,104z"/>
<path id="path24" class="st2" d="M63.2,114.8l1.4-4.1l0.8,0.3l0,3.3c0,0.3,0,0.5,0,0.7c0.1-0.1,0.3-0.3,0.5-0.6l2-2.5l0.7,0.3
	l-1.4,4.1l-0.5-0.2l1.2-3.5l-2.4,3l-0.5-0.2l0-3.9l-1.2,3.5L63.2,114.8z M69.2,114.5c0.1-0.7,0.4-1.2,0.9-1.6c0.5-0.3,1-0.5,1.6-0.4
	c0.4,0.1,0.7,0.2,1,0.5c0.3,0.2,0.5,0.5,0.6,0.9c0.1,0.4,0.1,0.8,0.1,1.2c-0.1,0.4-0.2,0.8-0.5,1.1c-0.2,0.3-0.5,0.5-0.9,0.7
	c-0.4,0.1-0.7,0.2-1.1,0.1c-0.4-0.1-0.8-0.2-1-0.5c-0.3-0.2-0.5-0.6-0.6-0.9C69.2,115.3,69.2,114.9,69.2,114.5z M69.8,114.6
	c-0.1,0.5,0,1,0.2,1.3c0.2,0.3,0.6,0.6,1,0.6c0.4,0.1,0.8,0,1.1-0.3c0.3-0.3,0.5-0.7,0.6-1.2c0.1-0.4,0-0.7,0-1
	c-0.1-0.3-0.2-0.5-0.4-0.7c-0.2-0.2-0.5-0.3-0.7-0.3c-0.4-0.1-0.8,0-1.1,0.2C70.1,113.6,69.9,114,69.8,114.6z M78,116.1l0.6,0.2
	c-0.1,0.5-0.3,0.8-0.7,1.1c-0.3,0.2-0.7,0.4-1.2,0.4c-0.5,0-0.9-0.1-1.1-0.3c-0.3-0.2-0.5-0.5-0.7-0.8c-0.2-0.4-0.2-0.8-0.2-1.2
	c0-0.5,0.1-0.9,0.3-1.2c0.2-0.3,0.4-0.6,0.8-0.8c0.3-0.2,0.7-0.3,1.1-0.3c0.4,0,0.8,0.1,1.1,0.3c0.3,0.2,0.5,0.5,0.6,0.9l-0.6,0.1
	c-0.1-0.3-0.2-0.6-0.4-0.7c-0.2-0.1-0.4-0.2-0.7-0.2c-0.3,0-0.6,0.1-0.8,0.2c-0.2,0.2-0.4,0.4-0.5,0.6c-0.1,0.3-0.1,0.6-0.1,0.8
	c0,0.4,0,0.7,0.2,1c0.1,0.3,0.3,0.5,0.5,0.6c0.2,0.1,0.5,0.2,0.7,0.2c0.3,0,0.6-0.1,0.8-0.3C77.7,116.7,77.9,116.4,78,116.1z
	 M80,113.2l0.6,0l0.1,1.9c0.3,0,0.4-0.1,0.5-0.2c0.1-0.1,0.2-0.4,0.4-0.8c0.1-0.3,0.2-0.5,0.3-0.6c0.1-0.1,0.2-0.2,0.3-0.3
	c0.1-0.1,0.3-0.1,0.5-0.2c0.2,0,0.3,0,0.4,0l0,0.5c0,0-0.1,0-0.1,0c-0.1,0-0.1,0-0.1,0c-0.2,0-0.3,0.1-0.4,0.2
	c-0.1,0.1-0.2,0.3-0.3,0.6c-0.1,0.4-0.2,0.6-0.3,0.7c-0.1,0.1-0.2,0.2-0.3,0.3c0.3,0.1,0.6,0.3,0.9,0.7l1,1.4l-0.7,0.1l-0.8-1.1
	c-0.2-0.3-0.4-0.5-0.6-0.6c-0.1-0.1-0.3-0.2-0.5-0.1l0.2,2l-0.6,0L80,113.2z M84.9,117.1l-1-4.3l1.6-0.4c0.3-0.1,0.6-0.1,0.8-0.1
	c0.2,0,0.4,0.1,0.6,0.3c0.2,0.2,0.3,0.3,0.3,0.5c0,0.2,0,0.4,0,0.6c-0.1,0.2-0.2,0.3-0.4,0.5c0.3,0,0.5,0.1,0.7,0.3
	c0.2,0.2,0.3,0.4,0.4,0.6c0,0.2,0,0.4,0,0.6c0,0.2-0.1,0.3-0.2,0.5c-0.1,0.1-0.2,0.2-0.4,0.3c-0.2,0.1-0.4,0.2-0.7,0.2L84.9,117.1z
	 M84.9,114.5l0.9-0.2c0.3-0.1,0.4-0.1,0.5-0.2c0.1-0.1,0.2-0.2,0.3-0.3c0-0.1,0.1-0.2,0-0.4c0-0.1-0.1-0.3-0.2-0.4
	c-0.1-0.1-0.2-0.1-0.3-0.2c-0.1,0-0.4,0-0.7,0.1l-0.9,0.2L84.9,114.5z M85.3,116.4l1.1-0.2c0.2,0,0.3-0.1,0.4-0.1
	c0.1-0.1,0.2-0.1,0.3-0.2c0.1-0.1,0.1-0.2,0.2-0.3c0-0.1,0-0.2,0-0.4c0-0.2-0.1-0.3-0.2-0.4c-0.1-0.1-0.2-0.2-0.4-0.2
	c-0.2,0-0.4,0-0.6,0.1l-1,0.2L85.3,116.4z M89.2,116l0.3-4.7l0.6-0.2l3,3.7l-0.6,0.2l-0.9-1.1l-1.8,0.5l-0.1,1.4L89.2,116z
	 M89.9,113.9l1.4-0.4l-0.8-1c-0.2-0.3-0.4-0.6-0.6-0.8c0,0.3,0,0.6,0,0.9L89.9,113.9z"/>
<path id="path26" class="st2" d="M50.5,76.2l-0.6,2l0.6,2H50l-1-2l1-2H50.5z M48.9,76.2l-0.6,2l0.6,2h-0.6l-1-2l1-2H48.9z
	 M55.2,81.9c-1.1,0-2-0.5-2.7-1.4c-0.6-0.9-1-2.1-1-3.5c0-1.4,0.3-2.5,1-3.4c0.7-0.9,1.6-1.4,2.7-1.4c1.1,0,2,0.5,2.7,1.4
	c0.7,0.9,1,2.1,1,3.4c0,1.4-0.3,2.6-1,3.5C57.2,81.4,56.4,81.9,55.2,81.9z M55.2,80.5c0.6,0,1-0.3,1.4-0.8c0.4-0.5,0.6-1.4,0.6-2.7
	c0-1.1-0.2-1.9-0.5-2.5c-0.3-0.6-0.8-0.9-1.5-0.9c-1.3,0-2,1.2-2,3.5c0,1.1,0.2,2,0.5,2.6C54.1,80.2,54.6,80.5,55.2,80.5z
	 M60.4,81.7v-9.4h5.4v1.4h-3.9v2.4h1.5c0.8,0,1.4,0.1,1.8,0.2c0.4,0.1,0.8,0.4,1.1,0.9c0.3,0.5,0.4,1,0.4,1.6c0,0.8-0.2,1.5-0.7,2
	c-0.5,0.5-1.2,0.8-2.1,0.8H60.4z M61.9,80.3h1.7c1,0,1.5-0.5,1.5-1.4c0-0.4-0.1-0.7-0.3-1c-0.2-0.3-0.6-0.4-1.3-0.4h-1.6V80.3z
	 M69.7,81.7h-1.6v-9.4h3.5c1,0,1.8,0.3,2.2,0.8c0.5,0.6,0.7,1.2,0.7,2c0,0.9-0.3,1.6-0.8,2.1c-0.5,0.5-1.2,0.8-2,0.8h-2.2V81.7z
	 M69.7,76.6h1.8c0.5,0,0.8-0.1,1.1-0.4c0.3-0.3,0.4-0.6,0.4-1c0-0.4-0.1-0.7-0.3-1c-0.2-0.3-0.7-0.4-1.3-0.4h-1.7V76.6z M82.1,81.7
	h-1.7l-0.7-2.2h-3.3l-0.7,2.2h-1.3l2.9-9.4h1.9L82.1,81.7z M79.3,78.1L78.1,74l-1.3,4.2H79.3z M82.3,79l1.4-0.3
	c0.2,1.2,0.9,1.8,2,1.8c0.6,0,1-0.1,1.3-0.4c0.3-0.3,0.4-0.7,0.4-1.1c0-1-0.5-1.5-1.5-1.5h-0.8v-1.2h0.7c0.4,0,0.8-0.1,1-0.4
	c0.3-0.2,0.4-0.6,0.4-1c0-0.4-0.1-0.7-0.4-1c-0.3-0.2-0.7-0.4-1.1-0.4c-1,0-1.6,0.5-1.8,1.5l-1.4-0.2c0.3-1.8,1.4-2.7,3.2-2.7
	c0.9,0,1.7,0.2,2.2,0.7c0.6,0.5,0.8,1.1,0.8,1.8c0,1-0.5,1.7-1.6,2.1c1.2,0.3,1.8,1,1.8,2.2c0,0.8-0.3,1.5-0.9,2.1
	c-0.6,0.6-1.4,0.9-2.5,0.9c-1,0-1.8-0.3-2.4-0.8C82.7,80.6,82.4,79.9,82.3,79z M96.1,81.7h-5.6v-9.4H96v1.4h-4v2.5h3.2v1.4H92v2.6
	h4.1L96.1,81.7z M97.5,81.7v-9.4h1.6v7.9h3.1v-7.9h1.5v7.9h1.1v3.4h-1.1l-0.2-2H97.5z M105.4,76.3h0.6l1,2l-1,1.9h-0.6l0.6-1.9
	L105.4,76.3z M107,76.3h0.6l1,2l-1,1.9H107l0.6-1.9L107,76.3z"/>
<path id="path28" class="st2" d="M48.1,113.6c0.5-0.6,1-1,1.6-1.1c0.6-0.1,1.2,0.1,1.7,0.5c0.3,0.3,0.6,0.6,0.8,0.9
	c0.2,0.4,0.2,0.8,0.2,1.2c-0.1,0.4-0.2,0.8-0.5,1.2c-0.4,0.6-0.9,0.9-1.5,1c-0.6,0.1-1.2,0-1.8-0.5c-0.6-0.4-0.9-1-0.9-1.6
	C47.6,114.7,47.7,114.1,48.1,113.6z M48.6,114c-0.3,0.5-0.5,0.9-0.4,1.4c0.1,0.4,0.3,0.8,0.7,1.1c0.4,0.3,0.8,0.4,1.2,0.3
	c0.4-0.1,0.9-0.3,1.2-0.8c0.2-0.3,0.4-0.7,0.5-1c0-0.3,0-0.5-0.1-0.8c-0.1-0.3-0.3-0.5-0.5-0.7c-0.4-0.3-0.8-0.4-1.2-0.3
	C49.5,113.2,49,113.5,48.6,114z M53.9,114.9l2.5,1.6l-0.3,0.5l-1.9-1.3l-2.3,3.4l-0.5-0.4L53.9,114.9z M54.6,120.8l2.1-4.2l1.6,0.8
	c0.4,0.2,0.7,0.4,0.8,0.5c0.2,0.2,0.4,0.4,0.4,0.7c0.1,0.3,0,0.5-0.1,0.8c-0.2,0.4-0.5,0.6-0.8,0.7c-0.4,0.1-0.8,0-1.4-0.3l-1.1-0.6
	l-0.8,1.7L54.6,120.8z M56.2,118.9l1.1,0.6c0.4,0.2,0.6,0.2,0.9,0.2c0.2,0,0.4-0.2,0.5-0.5c0.1-0.2,0.1-0.3,0.1-0.5
	c0-0.2-0.1-0.3-0.2-0.4c-0.1-0.1-0.3-0.2-0.6-0.4l-1.1-0.6L56.2,118.9z M58.9,122.9l1.8-4.3l0.6,0.2l-0.7,1.8l2.3,1l0.7-1.8l0.6,0.2
	l-1.8,4.3l-0.6-0.2l0.8-2l-2.3-1l-0.8,2L58.9,122.9z M65.8,122.9c0.2-0.8,0.4-1.3,0.8-1.6c0.4-0.3,0.8-0.4,1.3-0.3
	c0.5,0.1,0.8,0.3,1,0.7c0.2,0.5,0.2,1.1,0,2c-0.2,0.8-0.4,1.3-0.8,1.6c-0.4,0.3-0.8,0.4-1.3,0.3c-0.5-0.1-0.8-0.4-1-0.8
	C65.6,124.4,65.6,123.7,65.8,122.9z M66.4,123c-0.2,0.7-0.2,1.3-0.1,1.5c0.1,0.3,0.3,0.5,0.6,0.5c0.3,0.1,0.5,0,0.8-0.2
	c0.2-0.2,0.4-0.7,0.6-1.4c0.2-0.7,0.2-1.3,0.1-1.6c-0.1-0.3-0.3-0.5-0.6-0.5c-0.3-0.1-0.5,0-0.7,0.2C66.8,121.8,66.5,122.3,66.4,123
	z M69.6,123.7c0.1-0.8,0.4-1.3,0.7-1.7c0.3-0.3,0.8-0.5,1.3-0.4c0.5,0.1,0.8,0.3,1,0.7c0.2,0.4,0.3,1.1,0.1,2
	c-0.1,0.8-0.4,1.3-0.7,1.7c-0.3,0.3-0.8,0.5-1.3,0.4c-0.5-0.1-0.8-0.3-1-0.7C69.4,125.2,69.4,124.6,69.6,123.7z M70.2,123.9
	c-0.1,0.7-0.2,1.3,0,1.6c0.1,0.3,0.3,0.5,0.6,0.5c0.3,0.1,0.5,0,0.7-0.3c0.2-0.2,0.4-0.7,0.6-1.4c0.1-0.7,0.2-1.3,0-1.6
	c-0.1-0.3-0.3-0.5-0.6-0.5c-0.3-0.1-0.5,0-0.7,0.3C70.5,122.6,70.3,123.1,70.2,123.9z M73.3,124.3c0.1-0.8,0.2-1.4,0.5-1.7
	c0.3-0.4,0.7-0.6,1.2-0.5c0.5,0,0.8,0.2,1.1,0.6c0.3,0.4,0.4,1.1,0.3,1.9c-0.1,0.8-0.2,1.4-0.5,1.7c-0.3,0.4-0.7,0.6-1.2,0.5
	c-0.5,0-0.8-0.2-1.1-0.6C73.3,125.8,73.2,125.2,73.3,124.3z M73.9,124.3c-0.1,0.8,0,1.3,0.2,1.5c0.2,0.3,0.4,0.4,0.7,0.4
	c0.3,0,0.5-0.1,0.7-0.3c0.2-0.2,0.3-0.7,0.4-1.5c0.1-0.8,0-1.3-0.2-1.5c-0.2-0.3-0.4-0.4-0.7-0.4c-0.3,0-0.5,0.1-0.7,0.3
	C74.1,123.1,73.9,123.6,73.9,124.3z M77,124.6c0-0.8,0.1-1.4,0.3-1.8c0.3-0.4,0.6-0.6,1.2-0.7c0.5,0,0.8,0.1,1.1,0.4
	c0.3,0.4,0.5,1,0.6,1.9c0,0.8-0.1,1.4-0.3,1.8c-0.2,0.4-0.6,0.6-1.2,0.7c-0.5,0-0.8-0.1-1.2-0.5C77.2,126.1,77,125.5,77,124.6z
	 M77.6,124.6c0,0.8,0.1,1.3,0.3,1.5c0.2,0.3,0.4,0.4,0.7,0.4c0.3,0,0.5-0.2,0.7-0.4c0.2-0.3,0.2-0.8,0.2-1.5c0-0.8-0.1-1.3-0.3-1.5
	c-0.2-0.2-0.4-0.4-0.7-0.4c-0.3,0-0.5,0.2-0.7,0.4C77.7,123.3,77.6,123.9,77.6,124.6z M80.9,124.5c-0.1-0.8,0-1.4,0.3-1.8
	c0.2-0.4,0.6-0.7,1.1-0.7c0.5,0,0.8,0.1,1.1,0.4c0.4,0.4,0.6,1,0.6,1.9c0.1,0.8,0,1.4-0.3,1.8c-0.2,0.4-0.6,0.7-1.1,0.7
	c-0.5,0-0.9-0.1-1.2-0.4C81.2,125.9,81,125.3,80.9,124.5z M81.5,124.4c0.1,0.8,0.2,1.3,0.4,1.5c0.2,0.2,0.4,0.4,0.7,0.3
	c0.3,0,0.5-0.2,0.7-0.4c0.2-0.3,0.2-0.8,0.2-1.5c-0.1-0.8-0.2-1.3-0.4-1.5c-0.2-0.2-0.5-0.4-0.7-0.3c-0.3,0-0.5,0.2-0.6,0.4
	C81.5,123.1,81.5,123.7,81.5,124.4z M84.6,124.2c-0.1-0.8-0.1-1.4,0.1-1.8c0.2-0.4,0.5-0.7,1-0.8c0.5-0.1,0.8,0,1.2,0.3
	c0.4,0.3,0.7,0.9,0.8,1.8c0.1,0.8,0.1,1.4-0.1,1.8c-0.2,0.4-0.5,0.7-1,0.8c-0.5,0.1-0.9,0-1.2-0.3C85.1,125.6,84.8,125,84.6,124.2z
	 M85.2,124c0.1,0.7,0.3,1.2,0.6,1.4c0.2,0.2,0.5,0.3,0.8,0.2c0.3-0.1,0.5-0.2,0.6-0.5c0.1-0.3,0.1-0.8,0-1.5
	c-0.1-0.7-0.3-1.2-0.6-1.4c-0.2-0.2-0.5-0.3-0.8-0.2c-0.3,0.1-0.5,0.2-0.6,0.5C85.1,122.8,85.1,123.3,85.2,124z M88.4,123.4
	c-0.2-0.8-0.2-1.4-0.1-1.8c0.2-0.5,0.5-0.8,1-0.9c0.4-0.1,0.8-0.1,1.2,0.2c0.4,0.3,0.7,0.9,1,1.7c0.2,0.8,0.2,1.4,0.1,1.8
	c-0.2,0.5-0.5,0.8-1,0.9c-0.4,0.1-0.9,0-1.2-0.2C89,124.8,88.6,124.3,88.4,123.4z M89,123.3c0.2,0.7,0.4,1.2,0.7,1.4
	c0.2,0.2,0.5,0.3,0.8,0.2c0.3-0.1,0.4-0.3,0.6-0.6c0.1-0.3,0.1-0.8-0.1-1.5c-0.2-0.7-0.4-1.2-0.7-1.4c-0.2-0.2-0.5-0.3-0.8-0.2
	c-0.3,0.1-0.4,0.3-0.5,0.6C88.8,122,88.8,122.6,89,123.3z M92.1,122.4c-0.3-0.7-0.3-1.3-0.2-1.8c0.1-0.5,0.4-0.8,0.9-1
	c0.4-0.2,0.8-0.1,1.2,0.1c0.4,0.3,0.8,0.8,1.1,1.6c0.3,0.7,0.3,1.3,0.2,1.8c-0.1,0.5-0.4,0.8-0.9,1c-0.4,0.2-0.9,0.1-1.2-0.1
	C92.8,123.8,92.4,123.3,92.1,122.4z M92.7,122.2c0.2,0.7,0.5,1.2,0.8,1.4c0.3,0.2,0.5,0.2,0.8,0.1c0.3-0.1,0.4-0.3,0.5-0.6
	c0.1-0.3,0-0.8-0.2-1.5c-0.2-0.7-0.5-1.2-0.8-1.4c-0.3-0.2-0.5-0.2-0.8-0.1c-0.3,0.1-0.4,0.3-0.5,0.6
	C92.4,121,92.5,121.5,92.7,122.2z M95.7,121.1c-0.3-0.7-0.4-1.3-0.4-1.8c0.1-0.5,0.4-0.8,0.8-1c0.4-0.2,0.8-0.2,1.2,0
	c0.5,0.2,0.9,0.7,1.2,1.5c0.3,0.7,0.4,1.3,0.4,1.8c-0.1,0.5-0.4,0.8-0.8,1c-0.4,0.2-0.8,0.2-1.3,0C96.4,122.4,96.1,121.9,95.7,121.1
	L95.7,121.1z M96.2,120.9c0.3,0.7,0.6,1.1,0.9,1.3c0.3,0.2,0.5,0.2,0.8,0.1c0.2-0.1,0.4-0.3,0.5-0.6c0.1-0.3-0.1-0.8-0.4-1.5
	c-0.3-0.7-0.6-1.1-0.9-1.3c-0.3-0.2-0.5-0.2-0.8-0.1c-0.2,0.1-0.4,0.3-0.5,0.6C95.8,119.7,95.9,120.2,96.2,120.9L96.2,120.9z
	 M99.2,119.7c-0.4-0.7-0.6-1.3-0.6-1.7c0-0.5,0.3-0.9,0.7-1.1c0.4-0.2,0.8-0.3,1.2-0.1c0.5,0.2,0.9,0.6,1.4,1.4
	c0.4,0.7,0.6,1.2,0.6,1.7c0,0.5-0.3,0.9-0.7,1.1c-0.4,0.2-0.8,0.3-1.3,0.1C100,120.9,99.6,120.4,99.2,119.7z M99.7,119.4
	c0.4,0.7,0.7,1,1,1.2c0.3,0.1,0.6,0.1,0.8,0c0.2-0.1,0.4-0.4,0.4-0.7c0-0.3-0.2-0.8-0.5-1.4c-0.4-0.7-0.7-1-1-1.2
	c-0.3-0.1-0.6-0.1-0.8,0c-0.2,0.1-0.4,0.4-0.4,0.7C99.1,118.2,99.3,118.7,99.7,119.4z M102.5,117.6c-0.4-0.7-0.6-1.2-0.6-1.7
	c0-0.5,0.2-0.9,0.7-1.1c0.4-0.2,0.8-0.3,1.2-0.2c0.5,0.2,1,0.6,1.4,1.3c0.4,0.7,0.6,1.2,0.6,1.7c0,0.5-0.2,0.9-0.7,1.1
	c-0.4,0.2-0.8,0.3-1.2,0.2C103.5,118.8,103,118.4,102.5,117.6z M103.1,117.3c0.4,0.6,0.8,1,1,1.1c0.3,0.1,0.6,0.1,0.8,0
	c0.2-0.1,0.4-0.4,0.4-0.7c0-0.3-0.2-0.8-0.6-1.4c-0.4-0.6-0.8-1-1-1.1c-0.3-0.1-0.6-0.1-0.8,0.1c-0.2,0.1-0.3,0.4-0.4,0.7
	C102.5,116.2,102.7,116.7,103.1,117.3z M105.7,115.6c-0.5-0.6-0.7-1.2-0.8-1.6c0-0.5,0.1-0.9,0.6-1.2c0.4-0.3,0.7-0.4,1.2-0.3
	c0.5,0.1,1,0.5,1.6,1.2c0.5,0.6,0.7,1.2,0.8,1.6c0,0.5-0.1,0.9-0.6,1.2c-0.4,0.3-0.8,0.4-1.2,0.3
	C106.7,116.6,106.2,116.2,105.7,115.6z M106.1,115.2c0.5,0.6,0.9,0.9,1.2,1c0.3,0.1,0.6,0,0.8-0.1c0.2-0.2,0.3-0.4,0.3-0.7
	c0-0.3-0.3-0.8-0.7-1.4c-0.5-0.6-0.9-0.9-1.2-1c-0.3-0.1-0.6,0-0.8,0.1c-0.2,0.2-0.3,0.4-0.3,0.7
	C105.4,114.1,105.7,114.6,106.1,115.2z"/>
<path id="path30" class="st2" d="M44.7,110.5c0-0.2-0.1-0.4-0.1-0.7c-0.1-0.3-0.2-0.5-0.2-0.7c0-0.2,0-0.3,0.1-0.4
	c0.1-0.1,0.2-0.1,0.3-0.1c0.1,0,0.2,0,0.3,0.1c0.1,0.1,0.1,0.2,0.1,0.4c0,0.1,0,0.3-0.1,0.6c-0.1,0.3-0.1,0.5-0.2,0.7
	c0.2-0.1,0.3-0.3,0.5-0.4c0.2-0.3,0.4-0.4,0.5-0.5c0.1-0.1,0.2-0.1,0.3-0.1c0.1,0,0.2,0,0.3,0.1c0.1,0.1,0.1,0.2,0.1,0.3
	c0,0.1-0.1,0.2-0.2,0.3c-0.1,0.1-0.4,0.2-0.8,0.3c-0.2,0.1-0.5,0.1-0.6,0.2c0.2,0.1,0.4,0.2,0.6,0.2c0.4,0.1,0.7,0.2,0.8,0.3
	c0.1,0.1,0.2,0.2,0.2,0.4c0,0.1,0,0.2-0.1,0.3c-0.1,0.1-0.2,0.1-0.3,0.1c-0.1,0-0.2,0-0.3-0.1c-0.1-0.1-0.3-0.2-0.5-0.5
	c-0.1-0.2-0.3-0.3-0.5-0.5c0,0.2,0,0.4,0.1,0.6c0.1,0.4,0.2,0.6,0.2,0.8c0,0.1,0,0.2-0.1,0.3c-0.1,0.1-0.2,0.1-0.2,0.1
	c-0.1,0-0.2,0-0.3-0.1c-0.1-0.1-0.1-0.2-0.1-0.3c0-0.2,0-0.3,0.1-0.6c0.1-0.2,0.1-0.4,0.1-0.5c0-0.1,0-0.2,0.1-0.4
	c-0.2,0.1-0.4,0.3-0.5,0.4c-0.2,0.3-0.4,0.4-0.5,0.5c-0.1,0.1-0.2,0.1-0.3,0.1c-0.1,0-0.2,0-0.3-0.1c-0.1-0.1-0.1-0.2-0.1-0.2
	c0-0.1,0-0.2,0.1-0.3c0.1-0.1,0.2-0.2,0.3-0.2c0.1,0,0.3-0.1,0.6-0.2c0.2,0,0.4-0.1,0.6-0.2c-0.2-0.1-0.4-0.2-0.6-0.2
	c-0.4-0.1-0.6-0.2-0.7-0.2c-0.1-0.1-0.2-0.2-0.2-0.4c0-0.1,0-0.2,0.1-0.2c0.1-0.1,0.2-0.1,0.3-0.1c0.1,0,0.2,0,0.3,0.1
	c0.1,0.1,0.3,0.2,0.4,0.4C44.3,110.3,44.5,110.4,44.7,110.5L44.7,110.5z"/>
</svg>
