<?xml version="1.0" encoding="UTF-8" standalone="no"?>
<svg
   xmlns:dc="http://purl.org/dc/elements/1.1/"
   xmlns:cc="http://creativecommons.org/ns#"
   xmlns:rdf="http://www.w3.org/1999/02/22-rdf-syntax-ns#"
   xmlns:svg="http://www.w3.org/2000/svg"
   xmlns="http://www.w3.org/2000/svg"
   viewBox="0 0 155.9055 155.9055"
   id="svg27"
   height="155.9055"
   width="155.9055"
   version="1.1">
  <metadata
     id="metadata33">
    <rdf:RDF>
      <cc:Work
         rdf:about="">
        <dc:format>image/svg+xml</dc:format>
        <dc:type
           rdf:resource="http://purl.org/dc/dcmitype/StillImage" />
      </cc:Work>
    </rdf:RDF>
  </metadata>
  <defs
     id="defs31" />
  <path
     id="path2"
     style="fill:none;stroke:#1b1918;stroke-width:1.41729999;stroke-linecap:butt;stroke-linejoin:miter;stroke-dasharray:none"
     d="m 77.9528,21.2598 c 31.3106,0 56.6929,25.3823 56.6929,56.693 0,31.3106 -25.3823,56.6929 -56.6929,56.6929 -31.3107,0 -56.693,-25.3823 -56.693,-56.6929 0,-31.3107 25.3823,-56.693 56.693,-56.693 z" />
  <path
     id="path4"
     style="fill:none;stroke:#1b1918;stroke-width:0.7087;stroke-linecap:butt;stroke-linejoin:miter;stroke-dasharray:none"
     d="m 77.9528,23.5984 c 30.0191,0 54.3543,24.3352 54.3543,54.3544 0,30.0191 -24.3352,54.3543 -54.3543,54.3543 -30.0192,0 -54.3544,-24.3352 -54.3544,-54.3543 0,-30.0192 24.3352,-54.3544 54.3544,-54.3544 z" />
  <path
     id="path6"
     style="fill:none;stroke:#1b1918;stroke-width:0.7087;stroke-linecap:butt;stroke-linejoin:miter;stroke-dasharray:none"
     d="m 77.9494,42.7938 c 19.4074,0 35.1402,15.7328 35.1402,35.1405 0,19.4074 -15.7328,35.1403 -35.1402,35.1403 -19.4074,0 -35.1403,-15.7329 -35.1403,-35.1403 0,-19.4077 15.7329,-35.1405 35.1403,-35.1405 z" />
  <path
     id="path8"
     style="fill:#1b1918;fill-rule:evenodd"
     d="m 55.4426,112.3328 0.1958,-0.6055 c 0.4533,0.1593 0.781,0.2968 0.9873,0.4138 -0.0541,-0.5147 -0.0836,-0.8702 -0.0864,-1.0632 h 0.623 c -0.0088,0.2823 -0.0408,0.6346 -0.0995,1.0587 0.294,-0.1477 0.6305,-0.2852 1.0092,-0.4093 l 0.1958,0.6055 c -0.3611,0.1199 -0.7149,0.2004 -1.0629,0.2398 0.174,0.1505 0.4181,0.4212 0.7341,0.8087 l -0.5119,0.3642 c -0.1653,-0.2253 -0.3614,-0.5323 -0.5865,-0.9201 -0.212,0.4023 -0.3977,0.7095 -0.5573,0.9201 l -0.5031,-0.3642 c 0.3291,-0.4079 0.566,-0.6772 0.7081,-0.8087 -0.3671,-0.0717 -0.7152,-0.1523 -1.0457,-0.2398 z" />
  <path
     id="path10"
     style="fill:#1b1918;fill-rule:evenodd"
     d="m 96.8179,112.7078 0.1959,-0.6055 c 0.4532,0.1593 0.7809,0.2968 0.9873,0.4139 -0.0542,-0.5148 -0.0837,-0.8703 -0.0865,-1.0633 h 0.6231 c -0.0088,0.2823 -0.0408,0.6347 -0.0995,1.0587 0.2939,-0.1477 0.6304,-0.2851 1.0091,-0.4093 l 0.1959,0.6055 c -0.3612,0.1199 -0.7149,0.2004 -1.063,0.2398 0.174,0.1505 0.4181,0.4212 0.7342,0.8087 l -0.512,0.3643 c -0.1652,-0.2254 -0.3614,-0.5324 -0.5865,-0.9202 -0.212,0.4023 -0.3977,0.7096 -0.5573,0.9202 l -0.5031,-0.3643 c 0.3291,-0.4079 0.5661,-0.6772 0.7081,-0.8087 -0.3671,-0.0717 -0.7152,-0.1522 -1.0457,-0.2398 z" />
  <path
     id="path12"
     style="fill:#1b1918;fill-rule:evenodd"
     d="m 52.5526,108.7089 c -0.4932,0.5684 -1.0085,0.902 -1.5451,1.0007 -0.5366,0.0981 -1.0078,-0.0292 -1.4151,-0.3827 -0.2667,-0.2313 -0.4405,-0.5151 -0.5241,-0.8521 -0.0828,-0.3365 -0.0632,-0.6885 0.0598,-1.0568 0.1216,-0.3673 0.3314,-0.7228 0.6284,-1.0655 0.3014,-0.3472 0.6305,-0.6072 0.9868,-0.7784 0.3563,-0.1721 0.7041,-0.2344 1.042,-0.1874 0.3399,0.0471 0.6347,0.1798 0.885,0.3972 0.2721,0.2361 0.4467,0.5247 0.5264,0.8662 0.0785,0.3413 0.0567,0.6945 -0.0672,1.0602 -0.1233,0.3645 -0.3155,0.6976 -0.5769,0.9986 z m -0.388,-0.3509 c 0.3583,-0.413 0.5468,-0.8186 0.5655,-1.218 0.019,-0.3991 -0.1123,-0.7214 -0.3943,-0.9664 -0.2875,-0.2494 -0.6273,-0.3345 -1.0213,-0.2562 -0.3932,0.0785 -0.781,0.3382 -1.1634,0.7789 -0.2418,0.2787 -0.4136,0.5565 -0.5142,0.8329 -0.1009,0.2763 -0.1247,0.5385 -0.0711,0.7852 0.0538,0.2471 0.1754,0.4532 0.3656,0.6179 0.2702,0.2344 0.5981,0.3263 0.9842,0.2747 0.3861,-0.0513 0.8019,-0.3339 1.249,-0.849 z m -5.5038,-2.0625 -1.62,-1.8805 0.4037,-0.3475 1.2889,1.4961 1.0618,-0.9147 -0.5955,-0.6917 c -0.22,-0.2551 -0.366,-0.483 -0.4374,-0.6843 -0.0726,-0.2006 -0.0677,-0.4152 0.015,-0.6448 0.0817,-0.2288 0.2296,-0.4349 0.4425,-0.6183 0.1741,-0.1499 0.3643,-0.2576 0.5715,-0.322 0.2075,-0.0646 0.4144,-0.074 0.621,-0.0266 0.2064,0.0467 0.4442,0.2256 0.7118,0.5363 l 0.9771,1.1344 z m 2.7204,-3.0126 -0.6602,-0.7665 c -0.1783,-0.207 -0.3617,-0.3189 -0.551,-0.3365 -0.1888,-0.0167 -0.3833,0.0601 -0.5828,0.2319 -0.1426,0.123 -0.2353,0.2545 -0.2798,0.396 -0.0439,0.1414 -0.0366,0.2783 0.0227,0.4102 0.0598,0.1329 0.1998,0.3257 0.4187,0.5799 l 0.4405,0.5114 z m -5.9964,-1.0256 -0.2727,-0.4272 3.3786,-2.1566 -0.6806,-1.0664 -3.3789,2.1566 -0.2726,-0.4274 3.3786,-2.1566 -0.6803,-1.0664 -3.3792,2.1568 -0.2724,-0.4274 3.3789,-2.1566 -0.184,-0.288 1.5131,-0.9658 0.241,0.3779 -1.0642,0.6792 2.1223,3.3247 z m 0.7481,-7.6595 -4.1378,1.8717 -1.1369,-2.514 0.4853,-0.2194 0.9283,2.052 1.2713,-0.5752 -0.8688,-1.9207 0.4853,-0.2194 0.8688,1.9207 1.4103,-0.6378 -0.9658,-2.135 0.4853,-0.2194 z m -4.1015,-6.4205 0.0091,-0.5295 c 0.504,-0.0317 0.917,0.0496 1.2407,0.2441 0.324,0.1944 0.5397,0.4827 0.6477,0.8654 0.1114,0.3957 0.1066,0.7444 -0.0158,1.0471 -0.1214,0.3022 -0.3461,0.5689 -0.673,0.8002 -0.3277,0.2319 -0.6993,0.4068 -1.1165,0.5242 -0.455,0.1281 -0.872,0.1672 -1.2521,0.1162 -0.3801,-0.051 -0.6962,-0.1865 -0.9479,-0.4068 -0.252,-0.2202 -0.4232,-0.4927 -0.5142,-0.8161 -0.104,-0.3685 -0.08,-0.7087 0.0723,-1.0213 0.1522,-0.3138 0.4155,-0.5763 0.7906,-0.7883 l 0.269,0.4399 c -0.2937,0.1743 -0.4907,0.3637 -0.5899,0.5661 -0.0995,0.2029 -0.1145,0.4272 -0.0454,0.6726 0.0794,0.2818 0.2262,0.4955 0.4405,0.6395 0.214,0.1438 0.4686,0.2163 0.7606,0.2163 0.2933,9e-4 0.5839,-0.0394 0.8716,-0.1204 0.3716,-0.1046 0.6834,-0.2416 0.9346,-0.4102 0.2523,-0.1692 0.419,-0.3685 0.5026,-0.599 0.083,-0.2304 0.093,-0.4569 0.03,-0.6803 -0.0765,-0.2724 -0.2347,-0.4756 -0.4739,-0.6114 -0.2407,-0.1358 -0.5534,-0.1851 -0.9406,-0.1483 z m 0.8762,-3.3409 -3.9433,0.7189 0.226,1.239 -0.5242,0.0955 -0.5425,-2.9769 0.5238,-0.0955 0.226,1.239 3.9435,-0.7192 z m -0.4632,-3.2904 -4.528,0.3446 -0.1089,-1.43 c -0.0221,-0.2909 0.0054,-0.5276 0.0834,-0.711 0.0785,-0.1825 0.2092,-0.3308 0.3926,-0.4447 0.1819,-0.1145 0.3773,-0.1795 0.5862,-0.1953 0.1927,-0.0148 0.3787,0.0156 0.5561,0.0907 0.1775,0.0745 0.3254,0.197 0.4445,0.3674 0.0629,-0.2367 0.1862,-0.4247 0.3708,-0.5627 0.1834,-0.1386 0.407,-0.2183 0.6706,-0.2384 0.2132,-0.0162 0.4131,0.0068 0.6013,0.0686 0.1879,0.0615 0.335,0.144 0.443,0.2472 0.1063,0.1034 0.1919,0.2369 0.2551,0.3996 0.0635,0.1639 0.1041,0.3671 0.1228,0.6101 z m -2.6631,-0.3059 -0.0627,-0.824 c -0.0172,-0.2237 -0.0473,-0.3827 -0.0892,-0.4768 -0.055,-0.125 -0.1384,-0.216 -0.2486,-0.2727 -0.1106,-0.0567 -0.2447,-0.0797 -0.4037,-0.0675 -0.1508,0.0116 -0.2812,0.0519 -0.3906,0.1216 -0.1103,0.0689 -0.1826,0.1622 -0.2163,0.2781 -0.0334,0.1157 -0.04,0.3107 -0.019,0.5839 l 0.0578,0.7617 z m 2.0934,-0.1593 -0.0723,-0.9491 c -0.0122,-0.1632 -0.0286,-0.2772 -0.0482,-0.3427 -0.0332,-0.1133 -0.0816,-0.2077 -0.1457,-0.2814 -0.0635,-0.0735 -0.1531,-0.131 -0.2676,-0.1732 -0.1145,-0.0423 -0.2438,-0.0573 -0.3883,-0.0462 -0.1695,0.013 -0.3135,0.0603 -0.4332,0.1434 -0.1199,0.0825 -0.1998,0.1902 -0.2403,0.3234 -0.0409,0.1327 -0.0519,0.3206 -0.0335,0.563 l 0.0669,0.8816 z m -1.857,-4.0068 c -0.7503,-0.0572 -1.3258,-0.2724 -1.7246,-0.6443 -0.3985,-0.3722 -0.5771,-0.8263 -0.5363,-1.364 0.0269,-0.3521 0.1508,-0.6611 0.3716,-0.9289 0.2208,-0.2668 0.5153,-0.4612 0.8841,-0.582 0.3674,-0.1213 0.7779,-0.1647 1.2303,-0.1304 0.4583,0.0349 0.8634,0.1443 1.2135,0.328 0.3503,0.1837 0.6077,0.4255 0.7713,0.7251 0.1647,0.3007 0.2338,0.6165 0.2086,0.9473 -0.0272,0.3592 -0.1548,0.6715 -0.3818,0.9389 -0.2271,0.2664 -0.5238,0.4597 -0.8912,0.5782 -0.3663,0.1182 -0.7481,0.1624 -1.1455,0.1321 z m 0.0505,-0.5207 c 0.5451,0.0414 0.983,-0.0493 1.3149,-0.2721 0.332,-0.2228 0.5126,-0.5202 0.5409,-0.8927 0.0289,-0.3795 -0.1054,-0.703 -0.4031,-0.9728 -0.2976,-0.2687 -0.7373,-0.4255 -1.3189,-0.4697 -0.368,-0.0281 -0.6934,-3e-4 -0.9754,0.0836 -0.2821,0.0836 -0.5066,0.2208 -0.6724,0.411 -0.1667,0.1905 -0.2594,0.4111 -0.2787,0.6619 -0.0269,0.3566 0.095,0.6747 0.3663,0.9542 0.2712,0.2795 0.7463,0.4447 1.4264,0.4966 z m 2.4582,-10.6092 0.284,-0.4471 c 0.4465,0.2359 0.756,0.521 0.9306,0.8555 0.1749,0.3351 0.2089,0.6937 0.1009,1.0766 -0.1114,0.3955 -0.2973,0.6906 -0.5598,0.8847 -0.2611,0.1945 -0.5919,0.3048 -0.9916,0.3317 -0.4008,0.0266 -0.8087,-0.0182 -1.226,-0.1358 -0.4549,-0.1278 -0.8311,-0.3124 -1.1287,-0.5542 -0.2977,-0.2421 -0.4964,-0.5224 -0.5964,-0.8419 -0.1001,-0.3191 -0.1038,-0.6409 -0.0128,-0.9646 0.1038,-0.3682 0.3016,-0.646 0.595,-0.8334 0.2934,-0.1882 0.6551,-0.2747 1.0857,-0.2596 l -3e-4,0.5156 c -0.3413,-0.0048 -0.6083,0.0541 -0.7985,0.1752 -0.1911,0.1207 -0.3206,0.3044 -0.3898,0.5499 -0.0794,0.2818 -0.0655,0.5408 0.042,0.7753 0.1074,0.2344 0.2865,0.4291 0.536,0.5816 0.2497,0.1537 0.5187,0.271 0.8067,0.3521 0.3711,0.1046 0.7087,0.1505 1.0109,0.1378 0.3033,-0.0128 0.5499,-0.0958 0.7412,-0.2486 0.1911,-0.1534 0.3178,-0.3413 0.3807,-0.5647 0.0768,-0.2724 0.0479,-0.5284 -0.0853,-0.769 -0.1344,-0.2413 -0.375,-0.4465 -0.7245,-0.6171 z m 1.4142,-5.2127 c -0.671,-0.341 -1.1194,-0.7605 -1.3448,-1.2571 -0.2253,-0.4967 -0.2157,-0.9848 0.0284,-1.4653 0.1598,-0.3149 0.3931,-0.5524 0.6998,-0.7149 0.3065,-0.1618 0.6531,-0.2281 1.0401,-0.1981 0.3855,0.0292 0.7812,0.1466 1.1857,0.3521 0.4099,0.2083 0.7418,0.4646 0.9944,0.7687 0.2531,0.3042 0.398,0.6262 0.434,0.9658 0.0365,0.341 -0.0207,0.659 -0.1712,0.955 -0.163,0.3211 -0.4009,0.5604 -0.7132,0.72 -0.3118,0.159 -0.6599,0.2233 -1.0446,0.1916 C 42.6654,61.018 42.296,60.912 41.9406,60.7314 Z M 42.1872,60.27 c 0.487,0.2474 0.9266,0.3322 1.3187,0.2539 0.3917,-0.0785 0.6729,-0.2837 0.8421,-0.6168 0.1724,-0.3393 0.1727,-0.6894 0.0014,-1.0528 -0.1714,-0.3625 -0.5173,-0.676 -1.0377,-0.9405 -0.3288,-0.167 -0.6401,-0.2662 -0.9323,-0.2971 -0.2928,-0.0312 -0.5528,0.0094 -0.779,0.1211 -0.2268,0.1122 -0.3974,0.28 -0.5114,0.5045 -0.1621,0.3186 -0.1715,0.6591 -0.028,1.0214 0.1431,0.3622 0.5181,0.6973 1.1262,1.0063 z m 0.6758,-5.8428 1.4337,-2.0126 0.4337,0.309 -1.1395,1.5998 3.2649,2.3256 -0.2939,0.4127 z m 6.0565,-0.5165 -3.4421,-2.9622 0.9413,-1.0936 c 0.1653,-0.1919 0.3028,-0.3294 0.4119,-0.4127 0.1505,-0.1179 0.307,-0.1911 0.4686,-0.2203 0.1621,-0.028 0.3396,-0.0105 0.5318,0.053 0.1924,0.0632 0.3733,0.1687 0.5442,0.3158 0.2917,0.2509 0.4717,0.5423 0.5386,0.8731 0.0683,0.3311 -0.0751,0.7018 -0.428,1.1117 l -0.6392,0.743 1.4037,1.2081 z m -1.4769,-1.9397 0.644,-0.7487 c 0.2138,-0.248 0.3099,-0.4702 0.2903,-0.6692 -0.0207,-0.1982 -0.1295,-0.3824 -0.3294,-0.5542 -0.1431,-0.1233 -0.2931,-0.1993 -0.4481,-0.2262 -0.1554,-0.0269 -0.2931,-0.0045 -0.4119,0.0669 -0.076,0.0473 -0.1891,0.1579 -0.3379,0.3311 l -0.6378,0.7412 z m 4.0207,-0.9465 -1.8533,-4.3974 0.4212,-0.3628 4.1426,2.4247 -0.436,0.3756 -1.2331,-0.754 -1.2192,1.0505 0.5843,1.313 z M 51.0792,48.894 52.0659,48.0441 50.942,47.3502 c -0.3407,-0.2115 -0.6157,-0.3917 -0.8263,-0.5394 0.1533,0.2582 0.29,0.5247 0.411,0.7999 z m 4.2627,-1.1143 -2.6416,-3.6939 0.4125,-0.2948 1.0882,1.5217 1.6064,-1.1489 -1.0883,-1.5217 0.4125,-0.2948 2.6416,3.6936 -0.4124,0.2951 -1.2433,-1.7385 -1.6064,1.1486 1.2433,1.7385 z m 2.0378,-6.7593 0.4097,-0.2069 1.6214,3.2097 0.1944,-4.127 0.4473,-0.2256 2.0472,4.0532 -0.4096,0.207 -1.6172,-3.2015 -0.1938,4.1162 -0.4519,0.2282 z m 9.0247,1.0389 -0.479,0.1656 -0.5976,-1.7283 c -0.3637,0.3368 -0.7067,0.5618 -1.0287,0.6732 -0.2511,0.0868 -0.4975,0.0939 -0.7376,0.0202 -0.2403,-0.0726 -0.4308,-0.2058 -0.5694,-0.398 -0.1392,-0.1928 -0.269,-0.4621 -0.3892,-0.8099 l -0.4366,-1.2625 0.4794,-0.1659 0.4181,1.2101 c 0.1618,0.4686 0.3401,0.7524 0.5349,0.8507 0.1947,0.097 0.3934,0.1111 0.5953,0.0414 0.337,-0.1165 0.6601,-0.328 0.9697,-0.6341 l -0.722,-2.0889 0.4788,-0.1655 z m 1.8173,-0.5485 -1.0213,-4.4246 2.6886,-0.6205 0.1199,0.5191 -2.1945,0.5062 0.3135,1.3598 2.0542,-0.4739 0.1199,0.519 -2.0542,0.4739 0.3481,1.5081 2.2833,-0.5267 0.1196,0.5187 z m 4.5306,-0.9612 -0.3447,-4.5281 0.5054,-0.0382 0.1423,1.8655 1.969,-0.15 -0.1417,-1.8655 0.5051,-0.0385 0.345,4.528 -0.5055,0.0386 -0.1624,-2.1314 -1.9692,0.15 0.1624,2.1311 z m 4.9014,-0.3118 0.1293,-4.5391 0.5068,0.0144 -0.0533,1.87 1.9743,0.0562 0.0528,-1.8703 0.5071,0.0144 -0.1293,4.5394 -0.5065,-0.0144 0.0606,-2.1365 -1.974,-0.0561 -0.0607,2.1365 z m 5.1327,-1.9689 c 0.1352,-0.7405 0.409,-1.2901 0.8203,-1.6484 0.4119,-0.3574 0.8822,-0.4878 1.4125,-0.3912 0.3473,0.0632 0.6418,0.2191 0.8853,0.4666 0.2424,0.2472 0.4051,0.5604 0.4867,0.94 0.0822,0.3778 0.0828,0.7906 0.0014,1.2367 -0.0825,0.4524 -0.2333,0.8439 -0.4527,1.1727 -0.2188,0.3294 -0.4864,0.5601 -0.8013,0.6917 -0.3164,0.1326 -0.6375,0.1686 -0.9641,0.1091 -0.3543,-0.0646 -0.6517,-0.2242 -0.8937,-0.4776 -0.2416,-0.2537 -0.4028,-0.5689 -0.4822,-0.9468 -0.0797,-0.3764 -0.0836,-0.7608 -0.0122,-1.1528 z m 0.5128,0.1043 c -0.0981,0.5377 -0.0539,0.9827 0.1332,1.3362 0.1874,0.3532 0.4643,0.5638 0.832,0.6307 0.3744,0.0683 0.7101,-0.0314 1.0091,-0.2993 0.2985,-0.2682 0.5,-0.6888 0.6046,-1.2631 0.0664,-0.3629 0.0726,-0.6894 0.0188,-0.9786 -0.0542,-0.2894 -0.1673,-0.5269 -0.3388,-0.7117 -0.1726,-0.1854 -0.3818,-0.3008 -0.6296,-0.3459 -0.3517,-0.064 -0.6808,0.0239 -0.9867,0.2648 -0.3064,0.2407 -0.5204,0.6959 -0.6426,1.3669 z m 5.5842,-1.2223 0.4417,0.1244 -0.9746,3.4614 2.9327,-2.9101 0.4822,0.1358 -1.2308,4.3713 -0.4419,-0.1244 0.9723,-3.4526 -2.9254,2.9024 -0.4873,-0.1372 z m 2.1297,-0.5338 0.3084,0.0867 c -0.0958,0.2444 -0.2273,0.4162 -0.3934,0.5142 -0.1667,0.0993 -0.3561,0.1183 -0.5692,0.0584 -0.214,-0.0603 -0.3663,-0.1757 -0.4564,-0.3449 -0.0899,-0.1704 -0.1125,-0.3853 -0.0658,-0.6458 l 0.3082,0.0871 c -0.0154,0.1437 0.0028,0.2596 0.053,0.3463 0.0501,0.0879 0.1349,0.148 0.2522,0.1809 0.1361,0.0383 0.2481,0.0349 0.3359,-0.0119 0.0879,-0.0454 0.1642,-0.1361 0.2271,-0.271 z m 4.9561,5.6546 c 0.3759,-0.652 0.8186,-1.0775 1.3266,-1.2765 0.508,-0.1984 0.9947,-0.1633 1.4616,0.1063 0.3058,0.1763 0.5309,0.4218 0.6772,0.7367 0.1448,0.3144 0.1927,0.6642 0.1425,1.0489 -0.0499,0.3838 -0.1879,0.7727 -0.4147,1.1656 -0.2293,0.3982 -0.5031,0.7163 -0.8203,0.9521 -0.3169,0.2367 -0.6463,0.3643 -0.9873,0.3821 -0.3422,0.0187 -0.6571,-0.0555 -0.9445,-0.2214 -0.3121,-0.18 -0.5383,-0.43 -0.6815,-0.7503 -0.142,-0.3197 -0.1879,-0.6709 -0.1358,-1.0533 0.0516,-0.3813 0.1769,-0.745 0.3762,-1.0902 z m 0.4476,0.2707 c -0.273,0.4733 -0.3807,0.9076 -0.3234,1.3033 0.0575,0.3955 0.2477,0.6872 0.5714,0.8737 0.3297,0.1902 0.6792,0.2089 1.0511,0.0572 0.3713,-0.1522 0.7027,-0.4807 0.9941,-0.9864 0.1843,-0.3195 0.3002,-0.6251 0.3464,-0.9153 0.0462,-0.2906 0.0199,-0.5525 -0.0799,-0.7844 C 98.8764,41.8581 98.718,41.6789 98.5,41.5534 98.1901,41.3748 97.8506,41.347 97.4815,41.4711 c -0.3694,0.1236 -0.724,0.4805 -1.0647,1.0713 z m 3.812,5.0059 2.3256,-3.2649 -1.0259,-0.7305 0.309,-0.434 2.4647,1.7558 -0.309,0.4337 -1.0258,-0.7308 -2.3256,3.265 z m 2.6104,2.0583 3.1386,-3.2823 1.0366,0.991 c 0.2106,0.2016 0.3484,0.3963 0.413,0.5848 0.0635,0.1882 0.0655,0.3858 0.005,0.593 -0.0593,0.2072 -0.161,0.3858 -0.3059,0.5372 -0.1335,0.1397 -0.2919,0.2412 -0.4742,0.3042 -0.182,0.0629 -0.3742,0.0708 -0.5763,0.0235 0.1117,0.2183 0.1451,0.4402 0.1001,0.6664 -0.0437,0.2259 -0.1571,0.4346 -0.3396,0.6256 -0.1477,0.1545 -0.3121,0.2707 -0.493,0.3507 -0.1808,0.0799 -0.3458,0.117 -0.4949,0.1119 -0.1482,-0.0056 -0.301,-0.0479 -0.4569,-0.1267 -0.1565,-0.0793 -0.3226,-0.2032 -0.4989,-0.3719 z m 2.1858,-1.5523 0.5973,0.5712 c 0.1621,0.1551 0.2908,0.2534 0.3852,0.2951 0.1245,0.0564 0.2472,0.0683 0.3671,0.0368 0.1199,-0.0317 0.235,-0.1043 0.3453,-0.2196 0.1046,-0.1092 0.1746,-0.2265 0.2092,-0.3515 0.036,-0.1248 0.0278,-0.2427 -0.0247,-0.3512 -0.0524,-0.1086 -0.1777,-0.258 -0.3761,-0.4474 l -0.5522,-0.528 z m -1.451,1.5177 0.688,0.6576 c 0.1184,0.1131 0.2066,0.1871 0.265,0.2226 0.1003,0.0623 0.1996,0.1 0.2962,0.1122 0.0967,0.0122 0.2016,-0.0048 0.3149,-0.0499 0.1134,-0.0453 0.2197,-0.1205 0.3198,-0.2253 0.1176,-0.1228 0.193,-0.2543 0.2262,-0.396 0.0343,-0.1415 0.0218,-0.275 -0.0369,-0.4014 -0.0581,-0.1259 -0.1757,-0.2733 -0.3515,-0.4411 l -0.6389,-0.6111 z m 2.5359,3.3364 3.4282,-2.9781 1.8096,2.0829 -0.4022,0.3492 -1.4772,-1.7002 -1.0536,0.915 1.3827,1.5917 -0.4019,0.3492 -1.3827,-1.5914 -1.1685,1.0151 1.5367,1.7688 -0.4017,0.3493 z m 3.3902,4.4215 3.3789,-2.1569 -0.6778,-1.0616 0.449,-0.2866 1.628,2.5509 -0.4488,0.2866 -0.6777,-1.0619 -3.3786,2.1569 z m 4.3588,4.5861 0.0927,0.5213 c -0.4884,0.1281 -0.909,0.1273 -1.2642,-0.0011 -0.3552,-0.1287 -0.6225,-0.3702 -0.802,-0.7251 -0.1851,-0.3671 -0.2471,-0.7104 -0.1853,-1.0307 0.0612,-0.3197 0.2304,-0.6247 0.5068,-0.9147 0.2772,-0.2903 0.6083,-0.5332 0.9952,-0.7285 0.4216,-0.2132 0.8238,-0.3314 1.2065,-0.3546 0.3829,-0.0227 0.7188,0.0496 1.0085,0.2174 0.2895,0.1678 0.51,0.4022 0.6614,0.7021 0.1726,0.3416 0.2145,0.68 0.1247,1.0165 -0.089,0.3371 -0.2971,0.6452 -0.6245,0.9252 l -0.3484,-0.3801 c 0.2549,-0.2273 0.4116,-0.4513 0.4703,-0.6687 0.059,-0.2182 0.0303,-0.4413 -0.0845,-0.6692 -0.1321,-0.2611 -0.3175,-0.4425 -0.555,-0.5429 -0.2375,-0.1 -0.5014,-0.1224 -0.788,-0.0663 -0.288,0.0556 -0.5655,0.1511 -0.8326,0.2857 -0.3444,0.1741 -0.6242,0.3683 -0.8382,0.582 -0.2148,0.2143 -0.3404,0.4419 -0.3781,0.6843 -0.0374,0.242 -0.004,0.4663 0.1009,0.6735 0.1276,0.2523 0.3217,0.4215 0.5825,0.5088 0.2622,0.087 0.5786,0.0757 0.9513,-0.0349 z m -0.3671,3.5122 3.7885,-1.3096 -0.4115,-1.1903 0.5037,-0.1741 0.9884,2.8602 -0.5034,0.174 -0.4113,-1.1905 -3.7885,1.3096 z m 0.9726,3.1776 4.4249,-1.021 0.3226,1.3974 c 0.0655,0.2844 0.074,0.5225 0.0241,0.7155 -0.0502,0.1922 -0.1571,0.3586 -0.3209,0.4986 -0.1633,0.1406 -0.3464,0.2342 -0.5505,0.2812 -0.1882,0.0437 -0.3764,0.0414 -0.5635,-0.0059 -0.1865,-0.0474 -0.3515,-0.1463 -0.4947,-0.2968 -0.0263,0.2435 -0.1202,0.4478 -0.282,0.612 -0.1605,0.1647 -0.3697,0.2769 -0.627,0.3364 -0.2084,0.0479 -0.4094,0.0553 -0.605,0.0227 -0.195,-0.0326 -0.3529,-0.0921 -0.4748,-0.178 -0.121,-0.0862 -0.2253,-0.2052 -0.3123,-0.3569 -0.0873,-0.1525 -0.1582,-0.3469 -0.2132,-0.5845 z m 2.6787,-0.0978 0.186,0.8053 c 0.0505,0.2186 0.1038,0.3714 0.1596,0.4581 0.0734,0.1154 0.1695,0.1928 0.2871,0.2322 0.1177,0.0394 0.2537,0.0419 0.4094,0.0059 0.1471,-0.034 0.2698,-0.0932 0.3676,-0.1789 0.0984,-0.0847 0.1562,-0.1876 0.1718,-0.3072 0.0162,-0.1194 -0.007,-0.3133 -0.0686,-0.5803 l -0.1718,-0.7444 z m -2.0457,0.4723 0.214,0.9272 c 0.0369,0.1596 0.07,0.2695 0.0995,0.3313 0.0496,0.1075 0.1117,0.1934 0.186,0.2566 0.0742,0.0632 0.1712,0.1066 0.2905,0.1312 0.1199,0.0244 0.2497,0.0199 0.3912,-0.0127 0.1655,-0.0383 0.3007,-0.1069 0.4065,-0.207 0.1063,-0.0995 0.1689,-0.218 0.1893,-0.356 0.0204,-0.1369 0.003,-0.3249 -0.0516,-0.5613 l -0.1987,-0.8617 z m 0.269,4.187 4.5278,-0.345 0.2095,2.7513 -0.531,0.0406 -0.1709,-2.2459 -1.3915,0.106 0.1601,2.1022 -0.5312,0.0402 -0.1599,-2.1021 -1.5434,0.1176 0.178,2.3363 -0.5312,0.0405 z m 0.2752,4.6185 4.5392,0.129 -0.0145,0.5068 -1.87,-0.053 -0.0561,1.974 1.8703,0.0531 -0.0148,0.5068 -4.5391,-0.129 0.0145,-0.5065 2.1364,0.0606 0.0562,-1.974 -2.1368,-0.0607 z m -0.2599,4.9068 4.4674,0.8146 -0.0907,0.4989 -1.8408,-0.3356 -0.3541,1.9429 1.8406,0.3356 -0.0913,0.4986 -4.4671,-0.8147 0.0907,-0.4986 2.1027,0.3836 0.3543,-1.9429 -2.1024,-0.3835 z m 1.1931,5.2404 c 0.7243,0.2038 1.2458,0.5281 1.5636,0.9717 0.3172,0.4433 0.4028,0.9241 0.2565,1.4428 -0.0955,0.3399 -0.278,0.6183 -0.5473,0.8374 -0.269,0.2182 -0.5962,0.3506 -0.9817,0.3963 -0.3841,0.0465 -0.7951,0.0082 -1.2316,-0.1148 -0.4425,-0.1245 -0.8181,-0.3116 -1.1248,-0.5607 -0.3076,-0.2492 -0.512,-0.5372 -0.6134,-0.8632 -0.1024,-0.3274 -0.1078,-0.6505 -0.0179,-0.97 0.0975,-0.3467 0.2843,-0.6276 0.5596,-0.845 0.2752,-0.2163 0.604,-0.3472 0.9876,-0.3909 0.3823,-0.0439 0.7656,-0.0116 1.1494,0.0964 z m -0.1522,0.5006 c -0.5264,-0.1483 -0.9734,-0.1457 -1.3431,0.0071 -0.369,0.153 -0.6049,0.409 -0.7061,0.7687 -0.1032,0.3663 -0.0351,0.7098 0.2033,1.033 0.2389,0.3223 0.6386,0.5626 1.2007,0.7208 0.3549,0.1001 0.6795,0.1369 0.9723,0.1103 0.2934,-0.0264 0.5403,-0.1168 0.7404,-0.2702 0.2007,-0.1542 0.3356,-0.352 0.4037,-0.5941 0.0969,-0.3441 0.0402,-0.6803 -0.171,-1.0074 -0.2109,-0.3277 -0.6437,-0.5834 -1.3002,-0.7682 z m -3.3344,7.1203 -0.3467,0.4003 c -0.407,-0.2994 -0.6712,-0.6268 -0.7948,-0.9836 -0.1233,-0.3569 -0.1038,-0.7169 0.0589,-1.0795 0.1687,-0.3747 0.3963,-0.6392 0.6846,-0.7925 0.2869,-0.1537 0.6304,-0.2141 1.0295,-0.1817 0.4003,0.0325 0.7974,0.1371 1.1926,0.3149 0.4311,0.1939 0.7761,0.4317 1.0349,0.7149 0.2585,0.2832 0.4139,0.5899 0.4655,0.9204 0.0518,0.3305 0.008,0.6494 -0.1296,0.9561 -0.157,0.349 -0.3937,0.5944 -0.7115,0.7365 -0.318,0.1428 -0.6882,0.1749 -1.112,0.0966 l 0.0762,-0.5099 c 0.3368,0.055 0.6095,0.036 0.8156,-0.0553 0.2066,-0.0916 0.3622,-0.254 0.4668,-0.4867 0.1202,-0.267 0.1443,-0.525 0.0729,-0.7727 -0.0717,-0.2478 -0.2205,-0.4669 -0.4445,-0.6546 -0.2242,-0.1888 -0.4731,-0.3444 -0.7458,-0.4671 -0.3518,-0.1582 -0.6789,-0.2534 -0.9796,-0.2855 -0.3019,-0.0323 -0.5579,0.0136 -0.7699,0.1367 -0.2118,0.1233 -0.3648,0.2905 -0.4598,0.5023 -0.1159,0.2579 -0.125,0.5153 -0.0292,0.773 0.0972,0.2585 0.3053,0.4972 0.6259,0.7174 z m -2.9211,1.9454 3.3687,2.1725 0.6826,-1.0587 0.4476,0.2888 -1.6399,2.5433 -0.4476,-0.2889 0.6823,-1.0584 -3.3687,-2.1722 z m 1.7045,5.5877 -0.3121,0.4 -1.5254,-1.1897 -0.5595,0.7177 c -0.2614,0.335 -0.4975,0.5417 -0.7078,0.6202 -0.2104,0.0774 -0.4213,0.0868 -0.6316,0.0284 -0.2112,-0.0596 -0.4019,-0.1554 -0.5712,-0.2875 -0.2775,-0.2165 -0.4592,-0.4855 -0.5437,-0.807 -0.0853,-0.3217 0.0409,-0.6985 0.3782,-1.1313 l 0.8921,-1.1435 z m -3.4881,-2.0767 -0.5678,0.728 c -0.2304,0.2953 -0.3177,0.5363 -0.2633,0.7231 0.0544,0.1859 0.1707,0.3484 0.3464,0.4856 0.1426,0.1111 0.2894,0.1737 0.4402,0.1865 0.1505,0.0136 0.2832,-0.023 0.3969,-0.108 0.1134,-0.0853 0.2712,-0.2568 0.4722,-0.5148 l 0.4159,-0.5332 z m 0.1494,6.0897 -0.3665,0.3506 -1.4074,-1.4711 -0.5324,0.5091 c 0.4179,0.4895 0.6452,0.9833 0.6784,1.4799 0.0343,0.4967 -0.1185,0.9077 -0.4595,1.2337 -0.3586,0.3432 -0.8002,0.4773 -1.3246,0.4014 -0.5239,-0.0754 -1.033,-0.3708 -1.5271,-0.887 -0.513,-0.5363 -0.7971,-1.0689 -0.8509,-1.597 -0.0547,-0.5284 0.1023,-0.9678 0.4697,-1.3196 0.3339,-0.3194 0.7373,-0.4538 1.2101,-0.4045 0.4728,0.0494 0.9507,0.286 1.432,0.7118 l 0.5361,-0.5128 -1.3635,-1.4252 0.3662,-0.3507 z m -2.8454,-0.4493 c -0.3969,-0.4147 -0.7855,-0.6602 -1.1642,-0.7356 -0.3793,-0.076 -0.699,0.0105 -0.9592,0.2597 -0.2662,0.2545 -0.3694,0.5726 -0.3082,0.9544 0.0613,0.3818 0.2971,0.788 0.7101,1.2195 0.3909,0.4087 0.777,0.6553 1.1583,0.7412 0.3804,0.0851 0.7044,3e-4 0.9714,-0.2548 0.2713,-0.2597 0.3708,-0.5837 0.3013,-0.9717 -0.0711,-0.3884 -0.3076,-0.7926 -0.7095,-1.2127 z" />
  <g
     id="Layer1000">
    <path
       id="path14"
       style="fill:#1b1918;fill-rule:evenodd"
       d="m 73.98,127.4199 c -0.0794,0.6381 -0.2976,1.1185 -0.6542,1.4408 -0.3566,0.322 -0.781,0.4522 -1.2739,0.3909 -0.3232,-0.0402 -0.6027,-0.1613 -0.8413,-0.3628 -0.2376,-0.2016 -0.406,-0.4626 -0.5043,-0.7832 -0.0984,-0.3195 -0.1236,-0.6721 -0.076,-1.0562 0.0482,-0.3901 0.1636,-0.7302 0.345,-1.0199 0.1811,-0.2903 0.413,-0.4978 0.6945,-0.6228 0.2826,-0.1261 0.5754,-0.1695 0.879,-0.1318 0.3294,0.0408 0.6123,0.1653 0.8501,0.3722 0.2373,0.2069 0.4042,0.4694 0.5003,0.7889 0.0958,0.3183 0.1228,0.6466 0.0808,0.9839 z m -0.4774,-0.0681 c 0.0579,-0.4634 -0.0102,-0.8418 -0.2035,-1.1358 -0.193,-0.2942 -0.4603,-0.4632 -0.8019,-0.5057 -0.3484,-0.0434 -0.6506,0.0556 -0.9094,0.2962 -0.2579,0.2412 -0.4178,0.6086 -0.4793,1.1033 -0.0388,0.3123 -0.0247,0.5916 0.0422,0.8362 0.0672,0.2449 0.1854,0.4433 0.3544,0.5947 0.1695,0.1508 0.369,0.2412 0.5992,0.2699 0.3268,0.0405 0.6239,-0.048 0.8907,-0.2659 0.2667,-0.218 0.4362,-0.6154 0.5076,-1.1929 z m -4.2573,1.4366 -2.2414,-0.4064 0.0814,-0.4479 1.7813,0.3231 0.6108,-3.3678 0.4598,0.0833 z m -2.2479,-4.3715 -1.038,3.7363 -1.2816,-0.3558 c -0.225,-0.0626 -0.3937,-0.1227 -0.5065,-0.1794 -0.1585,-0.0765 -0.2821,-0.1737 -0.3714,-0.2905 -0.0887,-0.1174 -0.1465,-0.2625 -0.1723,-0.4357 -0.0261,-0.1729 -0.0128,-0.3518 0.0385,-0.5372 0.0879,-0.3166 0.2543,-0.5601 0.4992,-0.7279 0.2444,-0.1693 0.6078,-0.1863 1.088,-0.053 l 0.8705,0.242 0.4232,-1.5239 z m -0.9955,1.8371 -0.877,-0.2435 c -0.2906,-0.0808 -0.5126,-0.0791 -0.6679,0.007 -0.155,0.085 -0.2622,0.2353 -0.3223,0.4519 -0.0434,0.1556 -0.0448,0.2996 -0.004,0.4305 0.0411,0.1316 0.1154,0.2316 0.2223,0.2999 0.0697,0.0428 0.2066,0.093 0.4096,0.1494 l 0.8682,0.2413 z m -2.5044,-2.8259 -1.2521,3.6703 -0.4422,-0.1511 0.5156,-1.512 -1.7226,-0.5876 -0.5156,1.512 -0.4425,-0.1508 1.2521,-3.67 0.4422,0.1508 -0.5893,1.7274 1.7229,0.5877 0.589,-1.7275 z m -5.5154,-0.0558 c -0.1876,0.4172 -0.3784,0.7373 -0.5712,0.9572 -0.1939,0.2206 -0.398,0.3654 -0.614,0.4335 -0.2151,0.0686 -0.4396,0.0496 -0.6729,-0.0553 -0.1721,-0.0774 -0.3059,-0.1831 -0.4022,-0.3183 -0.0956,-0.1355 -0.154,-0.294 -0.1724,-0.476 -0.0195,-0.1808 -0.0065,-0.3858 0.0386,-0.6137 0.0442,-0.2285 0.146,-0.5184 0.3033,-0.8682 0.1868,-0.415 0.3767,-0.7331 0.5686,-0.9536 0.1922,-0.2217 0.3966,-0.3662 0.6129,-0.4351 0.2154,-0.0695 0.441,-0.0511 0.6757,0.0547 0.3087,0.1389 0.4975,0.3693 0.5644,0.6914 0.0785,0.3917 -0.032,0.9189 -0.3308,1.5834 z m -0.4031,-0.1837 c 0.2619,-0.582 0.3748,-0.9964 0.3368,-1.2427 -0.0366,-0.2472 -0.1463,-0.4116 -0.3271,-0.493 -0.1812,-0.0813 -0.3768,-0.0535 -0.5865,0.0825 -0.2104,0.1372 -0.4451,0.4955 -0.7061,1.0761 -0.262,0.5819 -0.3748,0.9963 -0.3374,1.243 0.0363,0.2469 0.1474,0.4115 0.3323,0.4946 0.1808,0.0816 0.3639,0.0618 0.5485,-0.0578 0.2316,-0.1539 0.4785,-0.5222 0.7395,-1.1027 z m -2.5616,-1.1843 c -0.2285,0.3963 -0.4505,0.6956 -0.6639,0.8954 -0.2146,0.2002 -0.4326,0.3238 -0.6543,0.37 -0.2208,0.0467 -0.4422,0.006 -0.6635,-0.1222 -0.1636,-0.0941 -0.2863,-0.2126 -0.3688,-0.3569 -0.0817,-0.1443 -0.1236,-0.3078 -0.1242,-0.4907 -0.0011,-0.1819 0.0323,-0.3843 0.1001,-0.6069 0.0669,-0.2228 0.1967,-0.5011 0.3883,-0.8336 0.2271,-0.394 0.4482,-0.6917 0.6608,-0.8921 0.2134,-0.2013 0.4314,-0.3246 0.6531,-0.3719 0.2216,-0.0473 0.4439,-0.007 0.6673,0.1222 0.2933,0.1689 0.4577,0.417 0.4926,0.7441 0.0388,0.3977 -0.1236,0.9113 -0.4875,1.5426 z m -0.3827,-0.2231 c 0.3186,-0.5528 0.4722,-0.9539 0.4595,-1.2027 -0.0122,-0.2498 -0.1049,-0.4244 -0.2767,-0.5233 -0.1718,-0.0992 -0.3696,-0.091 -0.5919,0.0238 -0.2228,0.1154 -0.4921,0.4484 -0.8098,0.9998 -0.3186,0.5533 -0.4723,0.9541 -0.4598,1.2033 0.0116,0.2491 0.1054,0.424 0.2812,0.5252 0.1721,0.0993 0.356,0.0981 0.5516,-0.003 0.2461,-0.1298 0.5281,-0.4717 0.8459,-1.0233 z m -2.363,-1.3552 c -0.2477,0.3846 -0.4841,0.6726 -0.7075,0.8617 -0.2242,0.1893 -0.4476,0.3019 -0.6715,0.3373 -0.2228,0.0357 -0.442,-0.0164 -0.6571,-0.1548 -0.1585,-0.1023 -0.2755,-0.2267 -0.3507,-0.375 -0.0739,-0.148 -0.108,-0.3135 -0.0995,-0.4961 0.0077,-0.1817 0.0511,-0.3823 0.1296,-0.6012 0.0779,-0.2194 0.2217,-0.4909 0.4294,-0.8132 0.2461,-0.3827 0.4814,-0.669 0.7039,-0.8584 0.2234,-0.1905 0.4467,-0.3033 0.6709,-0.3393 0.2234,-0.0363 0.4437,0.0153 0.6599,0.1548 0.2849,0.1834 0.4372,0.4394 0.4556,0.7676 0.019,0.3991 -0.1687,0.9043 -0.563,1.5166 z m -0.371,-0.2416 c 0.3452,-0.5363 0.5184,-0.9294 0.5179,-1.1786 2e-4,-0.25 -0.0837,-0.4289 -0.2503,-0.5363 -0.1667,-0.1075 -0.3646,-0.1092 -0.5925,-0.005 -0.2279,0.1043 -0.5136,0.4235 -0.858,0.9587 -0.3459,0.5366 -0.5191,0.9295 -0.5188,1.1789 -8e-4,0.2494 0.0845,0.4289 0.2551,0.5386 0.1667,0.1074 0.3507,0.1154 0.5508,0.0244 0.2523,-0.1177 0.5508,-0.4451 0.8958,-0.9803 z m -2.2689,-1.4969 c -0.265,0.3727 -0.5148,0.6494 -0.7464,0.828 -0.233,0.1785 -0.4617,0.2806 -0.6868,0.3055 -0.2245,0.0253 -0.4408,-0.0368 -0.6491,-0.1851 -0.1537,-0.1094 -0.2645,-0.2392 -0.3328,-0.3909 -0.0672,-0.151 -0.0936,-0.318 -0.0765,-0.5 0.0161,-0.1814 0.0691,-0.3798 0.1576,-0.5947 0.0878,-0.2154 0.244,-0.4799 0.4665,-0.7926 0.2637,-0.3705 0.5123,-0.6457 0.7433,-0.8246 0.2316,-0.18 0.4603,-0.282 0.6857,-0.3075 0.2248,-0.0261 0.4425,0.036 0.6522,0.1854 0.2759,0.1961 0.4162,0.4589 0.4193,0.7877 6e-4,0.3997 -0.2103,0.8952 -0.633,1.4888 z m -0.3597,-0.2586 c 0.3702,-0.5195 0.5615,-0.9042 0.5726,-1.1534 0.0119,-0.2497 -0.0638,-0.4323 -0.2251,-0.5471 -0.1618,-0.115 -0.3591,-0.1261 -0.5916,-0.0331 -0.2324,0.0935 -0.5326,0.3994 -0.902,0.9178 -0.3702,0.5199 -0.5612,0.9046 -0.5726,1.1535 -0.0124,0.2494 0.0644,0.4325 0.2294,0.5499 0.1618,0.1153 0.3452,0.1315 0.5493,0.0501 0.2574,-0.106 0.5712,-0.4192 0.94,-0.9377 z m -2.2776,-1.6523 c -0.2997,0.3456 -0.5743,0.5973 -0.8221,0.7526 -0.2492,0.1557 -0.4864,0.2353 -0.7129,0.2387 -0.2256,0.004 -0.4354,-0.0791 -0.6284,-0.2466 -0.1426,-0.1236 -0.2404,-0.2633 -0.2937,-0.4207 -0.0527,-0.157 -0.0629,-0.3257 -0.0286,-0.5051 0.0334,-0.1789 0.1051,-0.3713 0.2137,-0.5769 0.108,-0.206 0.2888,-0.4546 0.5403,-0.7443 0.2979,-0.3436 0.5714,-0.5939 0.8186,-0.7498 0.248,-0.157 0.485,-0.2367 0.7121,-0.2407 0.2265,-0.004 0.4371,0.0783 0.6315,0.2469 0.256,0.222 0.3702,0.4967 0.3419,0.8246 -0.0377,0.3977 -0.2951,0.8708 -0.7724,1.4213 z m -0.3331,-0.2917 c 0.4181,-0.4821 0.6454,-0.8467 0.68,-1.0936 0.0357,-0.2474 -0.0221,-0.4362 -0.1718,-0.566 -0.1499,-0.1302 -0.3455,-0.1599 -0.5856,-0.0896 -0.2404,0.0709 -0.5683,0.3467 -0.9856,0.8274 -0.4181,0.4822 -0.6452,0.8464 -0.6803,1.0933 -0.0363,0.2469 0.0227,0.4369 0.176,0.5695 0.1497,0.1301 0.3308,0.1639 0.5417,0.1024 0.2665,-0.0808 0.6086,-0.3626 1.0256,-0.8434 z m -2.0591,-1.7804 c -0.3161,0.3308 -0.6029,0.5689 -0.8578,0.7124 -0.2562,0.1434 -0.4969,0.2114 -0.7234,0.2038 -0.2256,-0.007 -0.4308,-0.0998 -0.6157,-0.2764 -0.1366,-0.1304 -0.2276,-0.2747 -0.2732,-0.4343 -0.0451,-0.1596 -0.0471,-0.3285 -0.0043,-0.5063 0.0423,-0.1768 0.1231,-0.3656 0.2413,-0.5657 0.1179,-0.2005 0.3106,-0.44 0.5757,-0.7172 0.3143,-0.3291 0.5995,-0.5658 0.8541,-0.7095 0.2551,-0.1449 0.4957,-0.2132 0.7225,-0.2061 0.2265,0.006 0.4329,0.0992 0.6191,0.2769 0.2446,0.2339 0.3458,0.514 0.3016,0.8402 -0.0567,0.3955 -0.3368,0.8555 -0.8399,1.3822 z m -0.3189,-0.3073 c 0.4408,-0.4612 0.6854,-0.8144 0.7322,-1.0593 0.0476,-0.2455 -9e-4,-0.4368 -0.1443,-0.574 -0.1437,-0.1372 -0.3373,-0.176 -0.5805,-0.1176 -0.2438,0.0592 -0.5848,0.3189 -1.0245,0.7789 -0.441,0.4615 -0.6854,0.8144 -0.7324,1.0593 -0.0482,0.2449 0.0017,0.4374 0.1482,0.5775 0.1434,0.1369 0.3226,0.1794 0.5363,0.1281 0.2699,-0.0678 0.6256,-0.3328 1.065,-0.7929 z m -1.9412,-1.8992 c -0.3308,0.3161 -0.6278,0.5409 -0.8889,0.6727 -0.2625,0.1315 -0.5063,0.1888 -0.7319,0.1709 -0.2254,-0.0176 -0.4261,-0.1193 -0.6027,-0.3042 -0.1304,-0.1363 -0.2151,-0.2845 -0.2534,-0.4464 -0.0377,-0.1613 -0.032,-0.33 0.019,-0.5057 0.0499,-0.1749 0.1392,-0.3597 0.2665,-0.5542 0.127,-0.195 0.3302,-0.4255 0.6074,-0.6905 0.3289,-0.3144 0.6248,-0.538 0.8853,-0.6701 0.2614,-0.1332 0.5051,-0.1905 0.7313,-0.1729 0.226,0.0167 0.4278,0.1185 0.6058,0.3047 0.2341,0.2446 0.322,0.5289 0.2633,0.8527 -0.0745,0.3926 -0.375,0.8396 -0.9017,1.343 z m -0.3044,-0.3217 c 0.4612,-0.4408 0.7217,-0.7827 0.7792,-1.025 0.0584,-0.243 0.0187,-0.4366 -0.1182,-0.5797 -0.1372,-0.1437 -0.3291,-0.1913 -0.5745,-0.144 -0.2464,0.0482 -0.5984,0.292 -1.0585,0.7316 -0.4615,0.4411 -0.722,0.7827 -0.7798,1.0253 -0.0593,0.2424 -0.0182,0.4368 0.1219,0.5834 0.1372,0.1434 0.3141,0.1941 0.5298,0.1522 0.2729,-0.0553 0.6397,-0.3039 1.1001,-0.7438 z m -1.9108,-2.0656 c -0.3598,0.2826 -0.677,0.4779 -0.9496,0.5839 -0.2742,0.1057 -0.5219,0.1395 -0.745,0.1001 -0.2225,-0.0391 -0.4127,-0.1596 -0.5706,-0.3606 -0.1168,-0.1485 -0.1868,-0.3041 -0.2092,-0.4688 -0.0224,-0.1642 -3e-4,-0.3317 0.0672,-0.5015 0.0666,-0.1692 0.1732,-0.345 0.3186,-0.5261 0.1451,-0.182 0.3696,-0.392 0.671,-0.629 0.3574,-0.2812 0.6735,-0.4754 0.9456,-0.582 0.273,-0.1074 0.5207,-0.1408 0.7447,-0.102 0.2228,0.0385 0.4141,0.1593 0.5734,0.3617 0.2095,0.2659 0.2699,0.5576 0.1803,0.8739 -0.112,0.3835 -0.4538,0.8 -1.0264,1.2504 z m -0.2724,-0.3495 c 0.5014,-0.3943 0.7934,-0.7095 0.8742,-0.9454 0.0816,-0.2364 0.0606,-0.4328 -0.0618,-0.5885 -0.1231,-0.1562 -0.3093,-0.2219 -0.5585,-0.1984 -0.2494,0.0244 -0.6236,0.233 -1.1239,0.6268 -0.5017,0.3945 -0.7934,0.7095 -0.8742,0.9453 -0.0825,0.2356 -0.0601,0.4331 0.0649,0.5924 0.123,0.156 0.2942,0.2234 0.5131,0.2024 0.2766,-0.0289 0.6661,-0.2412 1.1662,-0.6346 z m -1.6824,-2.1348 c -0.3719,0.2659 -0.6982,0.4462 -0.9751,0.5394 -0.2787,0.093 -0.5278,0.1151 -0.7489,0.0655 -0.2203,-0.0493 -0.4048,-0.1786 -0.5536,-0.3866 -0.1097,-0.1537 -0.1721,-0.3124 -0.1871,-0.4777 -0.0145,-0.1652 0.015,-0.3313 0.0904,-0.498 0.0743,-0.1661 0.1888,-0.3365 0.3427,-0.5108 0.1531,-0.1752 0.3869,-0.3745 0.699,-0.5973 0.3702,-0.2645 0.6948,-0.4439 0.9715,-0.5377 0.2775,-0.0947 0.5269,-0.1168 0.7486,-0.0675 0.2211,0.0488 0.4068,0.1783 0.5564,0.3878 0.1968,0.2755 0.2438,0.5695 0.1395,0.8813 -0.1296,0.3781 -0.4904,0.7781 -1.0834,1.2016 z m -0.2557,-0.3617 c 0.5193,-0.3708 0.8255,-0.6721 0.917,-0.904 0.0924,-0.2321 0.0805,-0.4294 -0.0349,-0.5907 -0.115,-0.1616 -0.2982,-0.2361 -0.5482,-0.224 -0.2503,0.0128 -0.6338,0.2041 -1.1517,0.5741 -0.5193,0.371 -0.8254,0.6723 -0.9173,0.9039 -0.093,0.2316 -0.0796,0.43 0.038,0.5947 0.1154,0.1616 0.2835,0.237 0.5029,0.2262 0.278,-0.0161 0.6766,-0.2103 1.1942,-0.5802 z m -1.5534,-2.2419 c -0.3855,0.246 -0.7205,0.4096 -1.0023,0.4884 -0.2829,0.0782 -0.5332,0.0873 -0.7509,0.0263 -0.2177,-0.0606 -0.3952,-0.1992 -0.5329,-0.4147 -0.1018,-0.159 -0.1556,-0.3208 -0.1624,-0.487 -0.0057,-0.1655 0.0325,-0.3302 0.1165,-0.4926 0.0827,-0.1619 0.2058,-0.326 0.3682,-0.4924 0.1624,-0.1667 0.4062,-0.3538 0.7293,-0.5601 0.3833,-0.2449 0.7169,-0.4074 0.9981,-0.4867 0.2821,-0.08 0.5324,-0.0893 0.7509,-0.0284 0.2186,0.0598 0.3971,0.1987 0.5358,0.4159 0.1822,0.2854 0.2137,0.5814 0.0935,0.8875 -0.1491,0.3708 -0.5301,0.7515 -1.1438,1.1438 z m -0.2367,-0.3745 c 0.5375,-0.3435 0.8589,-0.6284 0.9624,-0.8552 0.1043,-0.2273 0.1029,-0.4246 -0.004,-0.5919 -0.1068,-0.1672 -0.286,-0.2511 -0.5363,-0.252 -0.2506,-3e-4 -0.6435,0.171 -1.1798,0.5137 -0.5377,0.3435 -0.8592,0.6284 -0.9629,0.8552 -0.1049,0.2265 -0.1021,0.4252 0.0071,0.5958 0.1071,0.1673 0.2707,0.2512 0.4907,0.252 0.2783,-0.002 0.6865,-0.1749 1.2228,-0.5176 z m -1.4921,-2.3941 c -0.4082,0.2069 -0.7574,0.3359 -1.0457,0.3863 -0.2895,0.0502 -0.5392,0.0343 -0.7501,-0.0482 -0.2106,-0.0816 -0.3733,-0.2375 -0.489,-0.4654 -0.0853,-0.1684 -0.123,-0.3348 -0.1133,-0.5006 0.011,-0.1653 0.0652,-0.3254 0.1649,-0.4785 0.0984,-0.1531 0.237,-0.3041 0.4156,-0.4535 0.178,-0.15 0.4391,-0.3118 0.7812,-0.485 0.4057,-0.2058 0.7538,-0.3342 1.0412,-0.3853 0.2888,-0.0516 0.5386,-0.036 0.7503,0.0462 0.2112,0.0814 0.3753,0.2373 0.4915,0.4672 0.1531,0.3019 0.1554,0.5995 0.0051,0.8923 -0.1851,0.3541 -0.6017,0.6951 -1.2517,1.0245 z m -0.1985,-0.396 c 0.5692,-0.2883 0.9173,-0.5403 1.0426,-0.7555 0.1265,-0.2157 0.1446,-0.4124 0.055,-0.5893 -0.0898,-0.1771 -0.2599,-0.2783 -0.5085,-0.3041 -0.2495,-0.025 -0.6574,0.1063 -1.2252,0.394 -0.5691,0.2885 -0.9172,0.5403 -1.0431,0.7554 -0.1267,0.2152 -0.1437,0.413 -0.0519,0.5939 0.0896,0.1768 0.2444,0.2766 0.4629,0.2993 0.2773,0.0258 0.7007,-0.106 1.2682,-0.3937 z M 33.207,99.4374 c -0.417,0.1882 -0.7719,0.3019 -1.0618,0.3393 -0.2912,0.0371 -0.5403,0.0102 -0.7472,-0.0816 -0.2067,-0.091 -0.3623,-0.2537 -0.4678,-0.4868 -0.0776,-0.172 -0.108,-0.3398 -0.0907,-0.5051 0.0179,-0.1647 0.0794,-0.322 0.186,-0.4708 0.1049,-0.1486 0.2503,-0.2934 0.4354,-0.4343 0.1842,-0.142 0.4524,-0.292 0.8019,-0.4498 0.4144,-0.1874 0.7679,-0.3002 1.0576,-0.3385 0.2906,-0.0388 0.5394,-0.0119 0.7472,0.0796 0.2075,0.0908 0.3643,0.2537 0.4703,0.4885 0.1395,0.3084 0.1284,0.606 -0.0346,0.8917 -0.2007,0.3456 -0.6324,0.6676 -1.2963,0.9678 z m -0.1805,-0.4045 c 0.5813,-0.2628 0.9402,-0.4989 1.0751,-0.7084 0.1361,-0.2098 0.163,-0.4056 0.0811,-0.5862 -0.0816,-0.1809 -0.2469,-0.2897 -0.4944,-0.3263 -0.248,-0.0363 -0.6616,0.0769 -1.2412,0.3388 -0.5817,0.263 -0.9406,0.4989 -1.0758,0.7083 -0.1363,0.2092 -0.1621,0.4063 -0.0788,0.5908 0.0819,0.1808 0.2322,0.2874 0.4496,0.3197 0.2755,0.038 0.7047,-0.0745 1.2844,-0.3367 z m -4.1046,-4.8612 -0.1148,-0.407 2.9554,-0.8337 -3.4648,-0.9711 -0.1253,-0.4442 3.7324,-1.0531 0.1148,0.4071 -2.9475,0.8317 3.4552,0.9686 0.1267,0.449 z m 2.7014,-4.7959 -3.7786,0.8722 -0.1051,-0.4555 1.5567,-0.3591 -0.4093,-1.7737 -1.5568,0.3594 -0.1051,-0.4555 3.7783,-0.8719 0.1054,0.4552 -1.7784,0.4105 0.4093,1.7736 1.7784,-0.4104 z m -0.8013,-3.8052 -3.8481,0.4782 -0.0578,-0.4638 1.5854,-0.197 -0.2245,-1.8062 -1.5854,0.197 -0.0576,-0.4637 3.8481,-0.4785 0.0575,0.464 -1.8113,0.2251 0.2248,1.8062 1.811,-0.2251 z m -2.437,-4.9822 c -0.4572,0.013 -0.8286,-0.0195 -1.1103,-0.0969 -0.2832,-0.0783 -0.5023,-0.1993 -0.6577,-0.3637 -0.1556,-0.1639 -0.2361,-0.3742 -0.2435,-0.6299 -0.0053,-0.1885 0.0315,-0.3552 0.1114,-0.5009 0.0803,-0.1451 0.1976,-0.2664 0.3532,-0.3625 0.1542,-0.0964 0.3445,-0.1738 0.5692,-0.2325 0.2251,-0.0598 0.5307,-0.0943 0.9136,-0.1051 0.455,-0.0128 0.8244,0.0195 1.1061,0.0964 0.2835,0.0765 0.5026,0.1973 0.6588,0.3619 0.1562,0.1639 0.2378,0.3748 0.2452,0.6322 0.0093,0.3384 -0.1157,0.6086 -0.3764,0.8093 -0.3187,0.2412 -0.8411,0.3716 -1.5696,0.3917 z m -0.0102,-0.4425 c 0.6378,-0.0178 1.0602,-0.0969 1.2657,-0.2381 0.2063,-0.1412 0.3064,-0.3112 0.3007,-0.5097 -0.0056,-0.1984 -0.1156,-0.3622 -0.3296,-0.4918 -0.2152,-0.1292 -0.6398,-0.1845 -1.2762,-0.1669 -0.6381,0.0178 -1.0602,0.0969 -1.2657,0.2378 -0.2066,0.1403 -0.3061,0.3121 -0.3004,0.5148 0.0053,0.1984 0.1026,0.3546 0.2908,0.4683 0.2395,0.1417 0.6786,0.2032 1.3147,0.1856 z m -0.0496,-2.7357 c -0.4572,-0.0128 -0.8263,-0.0658 -1.1035,-0.1587 -0.2781,-0.0941 -0.4901,-0.2271 -0.6361,-0.4003 -0.1463,-0.1721 -0.2152,-0.3866 -0.2078,-0.642 0.0051,-0.1888 0.0513,-0.3532 0.1389,-0.4941 0.0882,-0.1403 0.2123,-0.2551 0.373,-0.3424 0.1596,-0.0873 0.3538,-0.154 0.5817,-0.2002 0.2279,-0.047 0.5343,-0.0646 0.9179,-0.0541 0.4546,0.0127 0.8214,0.0658 1.099,0.1582 0.2783,0.0921 0.4903,0.225 0.6375,0.3982 0.1468,0.1724 0.2165,0.3875 0.2092,0.6449 -0.0094,0.3385 -0.1494,0.6012 -0.421,0.7869 -0.3316,0.2231 -0.8606,0.324 -1.5888,0.3036 z m 0.0145,-0.4425 c 0.6377,0.0176 1.0638,-0.0377 1.2767,-0.1672 0.214,-0.1293 0.3234,-0.2934 0.3291,-0.4918 0.0054,-0.1985 -0.0955,-0.3683 -0.3022,-0.5097 -0.2072,-0.1409 -0.6284,-0.22 -1.2642,-0.2378 -0.6384,-0.0179 -1.0642,0.0377 -1.2773,0.1669 -0.2141,0.1284 -0.3235,0.2943 -0.3291,0.4969 -0.0054,0.1985 0.083,0.3598 0.2644,0.4839 0.2313,0.1548 0.6662,0.241 1.3026,0.2588 z m 0.1286,-2.7178 c -0.456,-0.0349 -0.822,-0.1055 -1.0947,-0.2118 -0.273,-0.1074 -0.4785,-0.2503 -0.616,-0.4303 -0.1374,-0.1791 -0.1961,-0.3966 -0.1766,-0.6514 0.0142,-0.1882 0.0681,-0.3504 0.1627,-0.487 0.095,-0.1358 0.2243,-0.2443 0.389,-0.3237 0.1635,-0.0797 0.3608,-0.1369 0.5904,-0.1721 0.2299,-0.036 0.5372,-0.0388 0.9199,-0.0096 0.4532,0.0346 0.8175,0.1052 1.0899,0.2106 0.2735,0.1055 0.479,0.2486 0.6174,0.4286 0.1386,0.1792 0.1975,0.3974 0.178,0.6542 -0.0255,0.3377 -0.178,0.5933 -0.4581,0.7657 -0.3421,0.2069 -0.8756,0.2823 -1.6019,0.2268 z m 0.0358,-0.4414 c 0.6363,0.0485 1.0644,0.0139 1.2832,-0.1054 0.22,-0.1188 0.3373,-0.2776 0.3526,-0.4754 0.0148,-0.1979 -0.0779,-0.3725 -0.2772,-0.5236 -0.2001,-0.1508 -0.6171,-0.25 -1.2518,-0.2985 -0.6363,-0.0484 -1.0644,-0.0139 -1.2835,0.1052 -0.22,0.1179 -0.337,0.2784 -0.3526,0.4805 -0.0148,0.1978 0.0657,0.3634 0.2409,0.496 0.2237,0.1659 0.6537,0.2727 1.2884,0.3212 z m 0.2676,-2.8154 C 28.3215,70.9115 27.9649,70.8035 27.705,70.6697 27.4439,70.5348 27.2546,70.3712 27.1363,70.1782 27.0179,69.986 26.9821,69.7635 27.0278,69.512 c 0.0337,-0.1859 0.104,-0.3413 0.212,-0.4674 0.1083,-0.1253 0.2483,-0.2203 0.4201,-0.282 0.1712,-0.0624 0.373,-0.0993 0.6052,-0.1103 0.2324,-0.0122 0.5383,0.0167 0.9156,0.085 0.4479,0.0814 0.8025,0.1891 1.0627,0.322 0.2614,0.1333 0.4507,0.2968 0.57,0.4899 0.1194,0.1927 0.1557,0.4158 0.1097,0.6692 -0.0606,0.3331 -0.2386,0.5718 -0.5351,0.7144 -0.3612,0.1706 -0.8995,0.1904 -1.6163,0.0603 z m 0.081,-0.4354 c 0.6276,0.114 1.0573,0.1236 1.2875,0.0278 0.2308,-0.0955 0.364,-0.2415 0.3991,-0.4365 0.0358,-0.1953 -0.0385,-0.3787 -0.2213,-0.5497 -0.1837,-0.1706 -0.588,-0.3123 -1.2141,-0.4257 -0.6282,-0.114 -1.0576,-0.1236 -1.2878,-0.0278 -0.231,0.0947 -0.364,0.2421 -0.4003,0.4416 -0.0354,0.1953 0.0278,0.3683 0.1883,0.5182 0.2055,0.1879 0.6225,0.3387 1.2486,0.4521 z m 0.4862,-2.6784 c -0.4456,-0.1035 -0.7969,-0.2288 -1.05,-0.375 -0.254,-0.1474 -0.4354,-0.3198 -0.5442,-0.5185 -0.1089,-0.1979 -0.1338,-0.4215 -0.0763,-0.6707 0.0428,-0.1837 0.1208,-0.3356 0.2347,-0.4564 0.1143,-0.1201 0.2585,-0.208 0.4334,-0.2616 0.1738,-0.0539 0.377,-0.0808 0.6098,-0.0808 0.2327,-8e-4 0.5368,0.0428 0.9105,0.1296 0.443,0.1026 0.7922,0.2273 1.0454,0.373 0.2548,0.1457 0.4362,0.318 0.5459,0.5168 0.1097,0.1981 0.1352,0.4229 0.0771,0.6737 -0.0765,0.3297 -0.2659,0.5593 -0.5689,0.6877 -0.3691,0.1528 -0.9079,0.1466 -1.6174,-0.0178 z m 0.102,-0.4312 c 0.6214,0.1443 1.0502,0.1746 1.2844,0.0899 0.2356,-0.0842 0.3756,-0.2237 0.4204,-0.4167 0.0448,-0.1933 -0.0207,-0.3801 -0.1951,-0.5596 -0.1751,-0.1794 -0.572,-0.3404 -1.1922,-0.4841 -0.6216,-0.144 -1.05,-0.1744 -1.2847,-0.0902 -0.235,0.0837 -0.3753,0.2245 -0.4209,0.4218 -0.0448,0.1934 0.0096,0.3691 0.163,0.5267 0.1959,0.1979 0.6049,0.3685 1.2251,0.5122 z m 0.6421,-2.6339 c -0.4408,-0.1225 -0.7861,-0.2628 -1.033,-0.4198 -0.2472,-0.1582 -0.4209,-0.3382 -0.5213,-0.5412 -0.1003,-0.2024 -0.1156,-0.4272 -0.047,-0.6735 0.0504,-0.182 0.1346,-0.3302 0.254,-0.4462 0.119,-0.1148 0.267,-0.1964 0.4441,-0.2423 0.1761,-0.0465 0.3805,-0.0646 0.6126,-0.0544 0.2327,0.009 0.5346,0.0657 0.9043,0.1683 0.4382,0.1219 0.7815,0.2617 1.0284,0.4179 0.248,0.1564 0.422,0.3367 0.5227,0.54 0.1012,0.2026 0.1173,0.4283 0.0482,0.6763 -0.0907,0.3263 -0.2897,0.5474 -0.5979,0.6625 -0.3753,0.1369 -0.9133,0.1074 -1.6151,-0.0876 z m 0.1201,-0.4261 c 0.6149,0.1707 1.0418,0.2194 1.2799,0.1452 0.2387,-0.074 0.3847,-0.2073 0.4377,-0.3983 0.053,-0.1913 -0.0043,-0.3807 -0.1704,-0.5675 -0.1675,-0.1868 -0.5573,-0.3648 -1.1704,-0.5349 -0.6151,-0.1709 -1.0418,-0.2197 -1.2796,-0.1454 -0.2387,0.0731 -0.3846,0.2078 -0.4388,0.4031 -0.0533,0.1913 -0.0062,0.3693 0.14,0.5332 0.1871,0.206 0.5885,0.3943 1.2016,0.5646 z m 0.804,-2.7201 c -0.4252,-0.1689 -0.7535,-0.3453 -0.9817,-0.5278 -0.2293,-0.184 -0.3827,-0.3816 -0.4606,-0.5942 -0.078,-0.212 -0.0692,-0.4371 0.0252,-0.6746 0.07,-0.1755 0.1692,-0.3138 0.3005,-0.4161 0.1307,-0.1015 0.2866,-0.1667 0.4674,-0.1936 0.18,-0.0275 0.3852,-0.0236 0.6149,0.0113 0.2301,0.034 0.5246,0.1227 0.881,0.2645 0.4226,0.1678 0.7492,0.3435 0.9779,0.5255 0.2299,0.182 0.3835,0.3799 0.4621,0.5927 0.0788,0.2124 0.0705,0.4383 -0.0247,0.6775 -0.125,0.3147 -0.3467,0.5134 -0.6653,0.595 -0.3881,0.0955 -0.9195,0.0088 -1.5967,-0.2602 z m 0.1655,-0.4107 c 0.593,0.2355 1.012,0.3296 1.2566,0.2812 0.2452,-0.0479 0.4045,-0.1647 0.4779,-0.349 0.0732,-0.1845 0.0366,-0.379 -0.1088,-0.5825 -0.1463,-0.2035 -0.5148,-0.4224 -1.1064,-0.6574 -0.5933,-0.2355 -1.012,-0.3296 -1.2566,-0.2814 -0.2452,0.0473 -0.4045,0.1655 -0.4796,0.3537 -0.0734,0.1846 -0.0457,0.3665 0.0825,0.5454 0.1641,0.2248 0.5431,0.455 1.1344,0.69 z m 0.995,-2.5257 c -0.4173,-0.1879 -0.7373,-0.3787 -0.9573,-0.5712 -0.2208,-0.1939 -0.3651,-0.398 -0.4334,-0.614 -0.0689,-0.2151 -0.0496,-0.4396 0.055,-0.6729 0.0776,-0.1721 0.1831,-0.3062 0.3186,-0.4023 0.1355,-0.0958 0.2939,-0.1539 0.4759,-0.1726 0.1809,-0.0193 0.3855,-0.0062 0.6137,0.0388 0.2285,0.0443 0.5185,0.146 0.8683,0.3034 0.4147,0.1865 0.733,0.3767 0.9536,0.5686 0.2216,0.1922 0.3662,0.3966 0.4351,0.6128 0.0694,0.2155 0.051,0.4408 -0.0547,0.6758 -0.1389,0.3087 -0.3691,0.4972 -0.6914,0.5644 -0.3918,0.0785 -0.9193,-0.032 -1.5834,-0.3308 z m 0.1836,-0.4031 c 0.5817,0.2616 0.9964,0.3745 1.2428,0.3368 0.2471,-0.0369 0.4115,-0.1466 0.4929,-0.3272 0.0816,-0.1811 0.0536,-0.377 -0.0828,-0.5867 -0.1369,-0.2098 -0.4952,-0.4448 -1.0757,-0.7059 -0.5823,-0.2619 -0.9964,-0.3747 -1.2427,-0.3373 -0.2472,0.0363 -0.4119,0.1474 -0.495,0.332 -0.0813,0.1811 -0.0618,0.3642 0.0579,0.5485 0.1539,0.2318 0.5221,0.4787 1.1026,0.7398 z m 1.1418,-2.4698 c -0.4079,-0.2078 -0.7183,-0.4139 -0.9289,-0.6166 -0.2109,-0.2043 -0.3455,-0.4152 -0.4033,-0.6344 -0.0582,-0.2179 -0.0284,-0.4413 0.0875,-0.6692 0.0859,-0.1681 0.1979,-0.2968 0.3377,-0.3867 0.1397,-0.089 0.301,-0.1394 0.4835,-0.1493 0.1815,-0.0108 0.3856,0.0121 0.6112,0.0683 0.2262,0.0552 0.5108,0.1706 0.8527,0.3447 0.4053,0.2063 0.7143,0.4116 0.9252,0.6139 0.2117,0.2027 0.3464,0.4136 0.4048,0.633 0.0589,0.2186 0.0297,0.4431 -0.0871,0.6724 -0.1536,0.3016 -0.3928,0.4791 -0.7177,0.5306 -0.3951,0.0593 -0.9164,-0.0762 -1.5656,-0.4067 z m 0.2027,-0.3938 c 0.5686,0.2895 0.9771,0.4221 1.2252,0.3963 0.2485,-0.0249 0.4181,-0.1267 0.5082,-0.3033 0.0899,-0.1769 0.0714,-0.3739 -0.0544,-0.5899 -0.127,-0.2163 -0.4734,-0.4683 -1.0406,-0.7568 -0.5689,-0.2897 -0.9771,-0.4224 -1.2252,-0.3969 -0.2486,0.0244 -0.4183,0.1273 -0.5102,0.3079 -0.0901,0.1771 -0.0794,0.3608 0.0312,0.5507 0.1429,0.239 0.4989,0.5032 1.0658,0.792 z m 1.3082,-2.5041 c -0.3847,-0.2477 -0.6727,-0.4841 -0.8617,-0.7072 -0.1894,-0.2245 -0.3019,-0.4482 -0.3373,-0.6718 -0.0355,-0.2228 0.0164,-0.442 0.155,-0.6571 0.1023,-0.1585 0.2265,-0.2753 0.3747,-0.3504 0.148,-0.0745 0.3136,-0.1083 0.4961,-0.0997 0.1817,0.0076 0.3827,0.051 0.6015,0.1295 0.2191,0.0779 0.4907,0.2217 0.813,0.4292 0.3827,0.2463 0.669,0.4818 0.8586,0.7044 0.1905,0.2231 0.303,0.4464 0.339,0.6706 0.0366,0.2234 -0.0153,0.4437 -0.1547,0.6602 -0.1834,0.2846 -0.4391,0.4369 -0.7677,0.4553 -0.3991,0.0193 -0.9039,-0.1684 -1.5165,-0.563 z m 0.2415,-0.3713 c 0.5363,0.3455 0.9295,0.5187 1.1789,0.5182 0.2501,2e-4 0.4286,-0.0837 0.5361,-0.2503 0.1077,-0.167 0.1091,-0.3646 0.0056,-0.5925 -0.1043,-0.2279 -0.4237,-0.5136 -0.9589,-0.858 -0.5366,-0.3459 -0.9295,-0.5188 -1.1787,-0.5188 -0.2497,-8e-4 -0.4291,0.0845 -0.5385,0.2549 -0.1078,0.1669 -0.1154,0.3509 -0.0247,0.551 0.1176,0.2523 0.4453,0.5511 0.9802,0.8955 z m 1.6739,-5.9312 0.2877,-0.3683 1.3399,1.0472 c 0.131,-0.1676 0.1871,-0.3141 0.1681,-0.438 -0.0181,-0.1247 -0.1227,-0.3458 -0.3129,-0.6653 -0.1412,-0.2341 -0.233,-0.4079 -0.2767,-0.5227 -0.0442,-0.1145 -0.0584,-0.2404 -0.0425,-0.3767 0.0156,-0.1355 0.0669,-0.2597 0.1539,-0.3711 0.1103,-0.1414 0.1698,-0.2148 0.1789,-0.2202 l 0.3498,0.2735 c -0.0099,0.0131 -0.0298,0.0372 -0.0595,0.072 -0.0335,0.0397 -0.0533,0.0638 -0.0601,0.0726 -0.0916,0.1171 -0.1285,0.2287 -0.1103,0.3345 0.017,0.1071 0.0995,0.2772 0.2449,0.5119 0.1865,0.2951 0.288,0.5017 0.3053,0.6194 0.017,0.1159 0.0105,0.2358 -0.0184,0.3569 0.1939,-0.1369 0.515,-0.1712 0.9612,-0.1032 l 1.4638,0.2231 -0.3563,0.4561 -1.192,-0.1812 c -0.3291,-0.0521 -0.5703,-0.0691 -0.7222,-0.0504 -0.1534,0.0187 -0.2827,0.0958 -0.389,0.2321 l 1.4298,1.1172 -0.2877,0.3682 z m 2.2388,-2.799 1.9102,-1.9987 2.8035,2.6791 -0.3229,0.3378 -2.4746,-2.3649 -1.2643,1.3232 2.4744,2.365 -0.3229,0.3378 z m 2.8196,-2.9032 1.9984,-1.9106 2.6796,2.8032 -0.3379,0.3229 -2.3649,-2.4741 -1.3229,1.2645 2.3649,2.4744 -0.3379,0.3229 z" />
    <path
       id="path16"
       style="fill:#1b1918;fill-rule:evenodd"
       d="M 47.2822,38.9245 C 46.999,38.5648 46.804,38.2473 46.698,37.9749 46.5922,37.7011 46.5585,37.453 46.5982,37.23 c 0.0388,-0.2226 0.1593,-0.4128 0.3605,-0.5707 0.1483,-0.1167 0.3042,-0.1865 0.4686,-0.2094 0.1641,-0.0219 0.3317,0 0.5015,0.0674 0.1692,0.0666 0.3449,0.1732 0.5261,0.3186 0.182,0.1452 0.392,0.3697 0.629,0.671 0.2815,0.3574 0.4753,0.6735 0.5819,0.9456 0.1075,0.273 0.1412,0.521 0.1021,0.7444 -0.0383,0.2234 -0.1593,0.4147 -0.3614,0.5737 -0.2662,0.2095 -0.5576,0.2699 -0.8742,0.1803 -0.3836,-0.1119 -0.8,-0.4538 -1.2501,-1.0264 z m 0.3492,-0.2724 c 0.3946,0.5014 0.7098,0.7934 0.9456,0.8742 0.2362,0.0816 0.4326,0.0607 0.5882,-0.0618 0.1562,-0.1227 0.222,-0.3093 0.1987,-0.5584 -0.0246,-0.2495 -0.2333,-0.6236 -0.6267,-1.124 -0.3949,-0.5017 -0.7098,-0.7934 -0.9456,-0.8744 -0.2356,-0.0823 -0.4332,-0.0599 -0.5925,0.0654 -0.1559,0.1228 -0.2231,0.294 -0.2027,0.5128 0.0292,0.277 0.2413,0.6662 0.635,1.1662 z m 2.2581,-1.6838 c -0.2464,-0.3855 -0.4096,-0.7206 -0.4884,-1.0023 -0.0783,-0.2829 -0.0873,-0.5329 -0.0264,-0.7509 0.0604,-0.2177 0.1993,-0.3952 0.4147,-0.5326 0.1593,-0.1018 0.3209,-0.1559 0.487,-0.1625 0.1656,-0.0059 0.33,0.0321 0.4924,0.1163 0.1621,0.0827 0.3263,0.2057 0.4924,0.3685 0.1669,0.1621 0.3537,0.4059 0.5604,0.729 0.2452,0.3836 0.4073,0.7166 0.4867,0.9981 0.0802,0.2821 0.0893,0.5324 0.0283,0.7509 -0.0598,0.2183 -0.1987,0.3969 -0.4158,0.5355 -0.2852,0.1825 -0.5814,0.214 -0.8875,0.0938 -0.3708,-0.1488 -0.7512,-0.5298 -1.1438,-1.1438 z m 0.3744,-0.2367 c 0.3436,0.5375 0.6288,0.8589 0.8555,0.9624 0.2271,0.1043 0.4247,0.1026 0.5916,-0.004 0.1676,-0.1069 0.2515,-0.286 0.252,-0.5363 3e-4,-0.2506 -0.1709,-0.6435 -0.5136,-1.1798 -0.3436,-0.5377 -0.6285,-0.8589 -0.8552,-0.9626 -0.2268,-0.1049 -0.4252,-0.1024 -0.5959,0.0068 -0.1675,0.1068 -0.2511,0.271 -0.252,0.4907 0.002,0.2783 0.1749,0.6865 0.5176,1.2228 z m 2.2955,-1.4473 c -0.2287,-0.396 -0.3773,-0.7379 -0.4436,-1.0228 -0.0658,-0.286 -0.0638,-0.5363 0.0068,-0.7515 0.0703,-0.2145 0.2166,-0.3857 0.438,-0.5139 0.1632,-0.0944 0.3271,-0.1414 0.4935,-0.1406 0.1655,0.0014 0.3282,0.0468 0.487,0.1378 0.1579,0.0898 0.3166,0.2202 0.4753,0.39 0.1599,0.1693 0.3357,0.4213 0.5279,0.7532 0.2279,0.3937 0.375,0.7339 0.4419,1.0185 0.0674,0.2854 0.0657,0.5357 -0.0046,0.7515 -0.0694,0.2154 -0.2162,0.3877 -0.4393,0.5167 -0.2929,0.1695 -0.5902,0.1879 -0.891,0.0544 -0.3636,-0.1652 -0.727,-0.5626 -1.0919,-1.1933 z m 0.3844,-0.22 c 0.3198,0.5525 0.5902,0.8861 0.8121,0.9995 0.2223,0.1142 0.4198,0.1213 0.5913,0.0221 0.1721,-0.0995 0.2637,-0.2747 0.2756,-0.5247 0.0113,-0.2503 -0.1426,-0.6503 -0.4609,-1.2013 -0.3198,-0.5525 -0.5902,-0.8859 -0.8119,-0.9995 -0.2217,-0.1148 -0.4206,-0.1208 -0.5958,-0.0196 -0.1718,0.0995 -0.2631,0.2597 -0.2733,0.4791 -0.0105,0.2781 0.1446,0.6936 0.4629,1.2444 z m 2.3987,-1.3133 c -0.2069,-0.4082 -0.3362,-0.7577 -0.3867,-1.0457 -0.0498,-0.2894 -0.0343,-0.5392 0.0485,-0.7501 0.0819,-0.2106 0.2373,-0.3733 0.4655,-0.4889 0.1683,-0.0854 0.3347,-0.1233 0.5006,-0.1131 0.1652,0.0105 0.3254,0.0649 0.4787,0.1644 0.1528,0.0986 0.3039,0.2375 0.4533,0.4158 0.1499,0.178 0.3115,0.4391 0.485,0.7812 0.2055,0.406 0.3342,0.7538 0.3849,1.0415 0.0519,0.2886 0.0363,0.5386 -0.0459,0.75 -0.0816,0.2112 -0.2375,0.3753 -0.4671,0.4916 -0.3019,0.153 -0.5998,0.1553 -0.8927,0.0051 -0.354,-0.1851 -0.695,-0.6021 -1.0241,-1.2518 z m 0.396,-0.1984 c 0.2883,0.5692 0.54,0.9173 0.7554,1.0425 0.2157,0.1268 0.4125,0.1446 0.5891,0.055 0.1771,-0.0898 0.2783,-0.2596 0.3041,-0.5085 0.0252,-0.2494 -0.1063,-0.6573 -0.3937,-1.2251 -0.2886,-0.5692 -0.5403,-0.9173 -0.7554,-1.0429 -0.2152,-0.127 -0.4131,-0.144 -0.5939,-0.0524 -0.1772,0.0898 -0.2767,0.2446 -0.2991,0.4631 -0.026,0.2773 0.1058,0.7005 0.3935,1.2683 z m 2.5339,-1.2059 c -0.1684,-0.4255 -0.2648,-0.7852 -0.2886,-1.0769 -0.0229,-0.2925 0.0159,-0.54 0.1174,-0.7424 0.1009,-0.2021 0.271,-0.3498 0.5085,-0.4436 0.1757,-0.0694 0.345,-0.0918 0.5091,-0.0666 0.1636,0.0258 0.3181,0.0947 0.4615,0.2081 0.1431,0.1122 0.2809,0.2641 0.413,0.4555 0.1329,0.191 0.2698,0.466 0.411,0.8226 0.1673,0.4232 0.2631,0.7812 0.2872,1.0726 0.0249,0.2923 -0.0139,0.5395 -0.1151,0.7427 -0.1007,0.203 -0.271,0.3518 -0.5105,0.4465 -0.3147,0.1244 -0.6112,0.0992 -0.889,-0.0774 -0.3356,-0.2169 -0.6366,-0.6636 -0.9045,-1.3411 z m 0.4124,-0.161 c 0.2347,0.5933 0.4533,0.9632 0.6562,1.1081 0.203,0.1457 0.3975,0.1817 0.5817,0.1088 0.1845,-0.0731 0.301,-0.2327 0.3498,-0.4782 0.0479,-0.246 -0.0454,-0.6644 -0.2795,-1.256 -0.2344,-0.5936 -0.4533,-0.9632 -0.6559,-1.1084 -0.2021,-0.1462 -0.398,-0.1814 -0.5862,-0.1068 -0.1846,0.0731 -0.2982,0.2179 -0.3408,0.4337 -0.0513,0.2735 0.0406,0.7072 0.2747,1.2988 z m 2.5379,-0.9873 c -0.1471,-0.4331 -0.2257,-0.7974 -0.235,-1.0896 -0.0088,-0.2934 0.0422,-0.5386 0.1536,-0.7356 0.1106,-0.197 0.2877,-0.3362 0.5298,-0.4184 0.1786,-0.0607 0.349,-0.0749 0.5117,-0.0414 0.1621,0.0337 0.3126,0.11 0.4504,0.2304 0.1375,0.1191 0.2676,0.2778 0.3903,0.4754 0.1231,0.1973 0.2466,0.4788 0.3702,0.8419 0.146,0.4309 0.2243,0.7931 0.2342,1.0851 0.0102,0.2934 -0.0403,0.5383 -0.1517,0.7362 -0.1105,0.1978 -0.2877,0.3381 -0.5318,0.4209 -0.3203,0.1089 -0.6154,0.0689 -0.8844,-0.1207 -0.3243,-0.2333 -0.6029,-0.6943 -0.8373,-1.3842 z m 0.4201,-0.1403 c 0.2052,0.604 0.4053,0.9842 0.6009,1.1387 0.1953,0.1556 0.3878,0.2012 0.5754,0.1374 0.188,-0.0637 0.3121,-0.2177 0.3728,-0.4606 0.0601,-0.2432 -0.0125,-0.6656 -0.2171,-1.2682 -0.2053,-0.6044 -0.4054,-0.9842 -0.601,-1.1393 -0.1947,-0.1559 -0.388,-0.2007 -0.5802,-0.1355 -0.188,0.0641 -0.3084,0.203 -0.3614,0.4165 -0.0647,0.2707 0.0059,0.7083 0.2106,1.311 z m 2.601,-0.8249 c -0.1244,-0.4405 -0.1836,-0.8082 -0.1777,-1.1007 0.0071,-0.2934 0.0706,-0.5355 0.1922,-0.7265 0.1208,-0.1908 0.3047,-0.3206 0.5511,-0.3901 0.1817,-0.0513 0.352,-0.0564 0.513,-0.0144 0.1602,0.0422 0.3067,0.1264 0.4377,0.2537 0.131,0.1261 0.2528,0.2917 0.3648,0.4952 0.1128,0.2035 0.2214,0.4912 0.3254,0.8603 0.1236,0.4377 0.1826,0.8039 0.1769,1.0959 -0.0048,0.2934 -0.0683,0.5354 -0.1899,0.7274 -0.1205,0.1916 -0.3053,0.3223 -0.553,0.3923 -0.326,0.0918 -0.6186,0.0365 -0.8768,-0.1673 -0.3118,-0.2497 -0.5658,-0.7248 -0.7637,-1.4258 z m 0.4267,-0.1185 c 0.1732,0.6143 0.3532,1.0043 0.5405,1.169 0.1871,0.1656 0.3767,0.2211 0.5675,0.1673 0.1911,-0.0539 0.3232,-0.201 0.3963,-0.4403 0.0729,-0.2398 0.0227,-0.6655 -0.1502,-1.2778 -0.1732,-0.6146 -0.3532,-1.0043 -0.5403,-1.1693 -0.1863,-0.1658 -0.3773,-0.2208 -0.5723,-0.1656 -0.1911,0.0539 -0.3186,0.1866 -0.3833,0.3966 -0.0788,0.267 -0.0309,0.7078 0.1418,1.3201 z m 2.7238,-0.7024 C 67.3126,28.9621 67.2885,28.5902 67.3226,28.3 c 0.0348,-0.2917 0.1213,-0.5267 0.2605,-0.705 0.1386,-0.1786 0.3342,-0.29 0.5859,-0.3356 0.1856,-0.0338 0.3557,-0.0227 0.5116,0.0343 0.1557,0.0575 0.2934,0.1553 0.4119,0.2945 0.1185,0.138 0.2237,0.3144 0.3158,0.5278 0.0927,0.2134 0.1735,0.51 0.2418,0.8872 0.0813,0.4476 0.1049,0.8176 0.0717,1.1081 -0.0329,0.2914 -0.1193,0.5264 -0.2585,0.7056 -0.1384,0.1794 -0.3345,0.2916 -0.5879,0.3378 -0.3331,0.0604 -0.6191,-0.0226 -0.8569,-0.25 -0.2866,-0.2783 -0.4941,-0.7755 -0.6242,-1.4924 z m 0.4359,-0.0771 c 0.1143,0.6279 0.256,1.0335 0.4264,1.2152 0.1709,0.1828 0.354,0.256 0.549,0.2208 0.1953,-0.0354 0.341,-0.1695 0.4369,-0.4005 0.0952,-0.2319 0.0858,-0.6602 -0.0278,-1.2864 -0.114,-0.6281 -0.2557,-1.0335 -0.4261,-1.2155 -0.1698,-0.1828 -0.3549,-0.2557 -0.5541,-0.2197 -0.1954,0.0355 -0.3348,0.1554 -0.419,0.3586 -0.104,0.2583 -0.0986,0.7013 0.0147,1.3275 z m 2.6935,-0.483 c -0.0564,-0.4542 -0.0598,-0.8269 -0.0096,-1.1149 0.051,-0.2891 0.1502,-0.519 0.299,-0.6894 0.1486,-0.1704 0.3501,-0.271 0.6038,-0.3025 0.1874,-0.0232 0.3569,-0.0025 0.5094,0.063 0.1519,0.066 0.284,0.1712 0.3946,0.3169 0.1105,0.1446 0.2058,0.3263 0.286,0.5445 0.0805,0.2183 0.1446,0.5188 0.1919,0.8995 0.0561,0.4515 0.0592,0.822 0.0096,1.1103 -0.049,0.2891 -0.1485,0.5187 -0.2973,0.6902 -0.148,0.1712 -0.3504,0.2727 -0.6058,0.3045 -0.3362,0.0416 -0.6171,-0.0573 -0.8416,-0.2974 -0.2704,-0.2939 -0.4501,-0.8019 -0.54,-1.5247 z m 0.4397,-0.0528 c 0.0788,0.6333 0.1978,1.046 0.358,1.2368 0.1601,0.1922 0.339,0.2755 0.5357,0.2511 0.197,-0.0243 0.3498,-0.1499 0.4584,-0.3753 0.108,-0.2265 0.1225,-0.6545 0.0439,-1.286 -0.0788,-0.6336 -0.1978,-1.046 -0.3577,-1.2374 -0.1593,-0.1922 -0.3399,-0.2749 -0.5408,-0.25 -0.1971,0.0244 -0.3433,0.1364 -0.4386,0.3342 -0.1182,0.2523 -0.1374,0.6951 -0.0589,1.3266 z m 2.7031,-0.3002 c -0.0349,-0.4561 -0.0204,-0.8285 0.0434,-1.114 0.0646,-0.2863 0.1749,-0.5111 0.3316,-0.6743 0.1565,-0.163 0.3623,-0.254 0.6174,-0.2733 0.1882,-0.0145 0.3566,0.0142 0.5057,0.087 0.1488,0.0732 0.2758,0.1846 0.3793,0.3354 0.1037,0.1494 0.1902,0.3356 0.2596,0.5575 0.0703,0.2217 0.1196,0.525 0.1491,0.9074 0.0346,0.4536 0.0199,0.824 -0.0431,1.1095 -0.0626,0.2866 -0.1729,0.5114 -0.3296,0.6752 -0.1565,0.1641 -0.3631,0.2557 -0.62,0.2753 -0.3376,0.0257 -0.6131,-0.0862 -0.8263,-0.3368 -0.2562,-0.3067 -0.4116,-0.8223 -0.4671,-1.5489 z m 0.4416,-0.0317 c 0.0488,0.6364 0.148,1.0542 0.2988,1.2526 0.1508,0.1996 0.3257,0.2914 0.5236,0.2761 0.1978,-0.015 0.3563,-0.1332 0.4756,-0.3532 0.1185,-0.2208 0.1534,-0.648 0.1049,-1.2824 -0.0485,-0.6366 -0.1477,-1.0542 -0.2985,-1.2529 -0.1499,-0.1995 -0.3263,-0.2908 -0.5284,-0.2755 -0.1978,0.015 -0.3492,0.1199 -0.4538,0.3132 -0.1301,0.2461 -0.1704,0.6877 -0.1222,1.3221 z m 5.6781,-0.1284 c 0.049,-0.6412 0.2441,-1.1313 0.5851,-1.4701 0.3407,-0.3387 0.7585,-0.4889 1.2537,-0.4512 0.3246,0.0249 0.6101,0.1323 0.8575,0.3225 0.2475,0.19 0.4278,0.4428 0.5409,0.7583 0.1136,0.3144 0.1559,0.6653 0.1264,1.0514 -0.0298,0.3917 -0.1287,0.737 -0.2962,1.0349 -0.1673,0.2988 -0.3887,0.5171 -0.6642,0.6554 -0.2761,0.1392 -0.5663,0.1967 -0.8716,0.1735 -0.3311,-0.0253 -0.6194,-0.1361 -0.8669,-0.3314 -0.2466,-0.1953 -0.4263,-0.4499 -0.5371,-0.7642 -0.1112,-0.3135 -0.1534,-0.6401 -0.1276,-0.9791 z m 0.4799,0.0453 c -0.0354,0.4655 0.0505,0.8405 0.2571,1.1248 0.2072,0.2849 0.4822,0.4408 0.8255,0.4672 0.35,0.0266 0.6474,-0.0868 0.8943,-0.3393 0.2463,-0.2529 0.3883,-0.6276 0.426,-1.1245 0.0241,-0.3141 -0.0034,-0.5922 -0.0819,-0.8337 -0.0785,-0.2412 -0.2061,-0.4337 -0.3821,-0.5769 -0.1763,-0.1428 -0.3798,-0.2233 -0.6111,-0.2412 -0.3289,-0.0249 -0.6211,0.0777 -0.8771,0.3079 -0.2562,0.2304 -0.4062,0.6355 -0.4507,1.2157 z m 4.1522,-1.6304 2.2606,0.2809 -0.0561,0.4512 -1.7969,-0.223 -0.4218,3.3964 -0.464,-0.0575 z m 2.482,4.2783 0.8759,-3.7777 1.2955,0.3004 c 0.2279,0.0527 0.3991,0.1055 0.5142,0.1573 0.1615,0.0698 0.2888,0.1613 0.3835,0.2742 0.0938,0.1136 0.1573,0.2559 0.191,0.428 0.0332,0.1715 0.0278,0.3509 -0.0155,0.5383 -0.0743,0.32 -0.2299,0.5703 -0.4675,0.7486 -0.2367,0.1797 -0.5987,0.2123 -1.0845,0.0998 l -0.8802,-0.2041 -0.3571,1.5406 z m 0.915,-1.8783 0.887,0.2056 c 0.294,0.0683 0.5153,0.0567 0.667,-0.0355 0.1511,-0.0918 0.2517,-0.2463 0.3024,-0.4651 0.0363,-0.1574 0.0318,-0.3014 -0.0144,-0.4306 -0.0468,-0.1296 -0.1253,-0.2262 -0.2353,-0.29 -0.0714,-0.0397 -0.2103,-0.0839 -0.4155,-0.1315 l -0.8776,-0.2036 z m 2.6221,2.7241 1.0377,-3.7363 0.4502,0.1253 -0.4275,1.5392 1.7538,0.4873 0.4275,-1.5395 0.4504,0.1253 -1.038,3.736 -0.4505,-0.125 0.4887,-1.7586 -1.7535,-0.487 -0.4887,1.7586 z m 5.5128,-0.197 c 0.1689,-0.4252 0.3455,-0.7534 0.5281,-0.9819 0.1837,-0.229 0.3813,-0.3827 0.5939,-0.4603 0.212,-0.078 0.4371,-0.0692 0.6746,0.0252 0.1755,0.0697 0.3141,0.1692 0.4164,0.3002 0.1015,0.1309 0.1664,0.2868 0.1933,0.4677 0.0275,0.18 0.0236,0.3852 -0.0113,0.6151 -0.034,0.2299 -0.1225,0.5241 -0.2645,0.8807 -0.1678,0.4227 -0.3435,0.7492 -0.5252,0.978 -0.1823,0.2299 -0.3802,0.3835 -0.593,0.462 -0.2121,0.0788 -0.4383,0.0706 -0.6775,-0.0246 -0.3147,-0.125 -0.5134,-0.3467 -0.5947,-0.6656 -0.0958,-0.3878 -0.0091,-0.9193 0.2599,-1.5965 z m 0.4107,0.1656 c -0.2355,0.5927 -0.3296,1.0119 -0.2812,1.2563 0.048,0.2455 0.165,0.4048 0.3493,0.4779 0.1842,0.0734 0.3787,0.0369 0.5822,-0.1086 0.2035,-0.1462 0.4224,-0.5147 0.6574,-1.1063 0.2358,-0.5933 0.3296,-1.012 0.2817,-1.2566 -0.0476,-0.2452 -0.1655,-0.4048 -0.354,-0.4796 -0.1846,-0.0732 -0.3665,-0.0457 -0.5451,0.0822 -0.2248,0.1641 -0.455,0.5431 -0.6903,1.1347 z m 2.5895,1.0839 c 0.2078,-0.4076 0.4136,-0.718 0.6165,-0.9286 0.2044,-0.2112 0.4153,-0.3455 0.6341,-0.4034 0.2186,-0.0581 0.4417,-0.0283 0.6696,0.0876 0.1681,0.0856 0.2968,0.1976 0.3866,0.3374 0.089,0.1397 0.1395,0.301 0.1494,0.4835 0.0105,0.1818 -0.0122,0.3858 -0.0683,0.6115 -0.0553,0.2259 -0.1709,0.5108 -0.3447,0.8524 -0.2064,0.4056 -0.4116,0.7143 -0.6137,0.9252 -0.203,0.212 -0.4139,0.3467 -0.6333,0.4051 -0.2185,0.0589 -0.4427,0.0297 -0.6723,-0.0873 -0.3016,-0.1534 -0.4791,-0.3926 -0.5307,-0.7175 -0.0595,-0.3951 0.0763,-0.9164 0.4068,-1.5659 z m 0.3937,0.203 c -0.2894,0.5686 -0.4218,0.9771 -0.3963,1.2251 0.0253,0.2486 0.1265,0.4182 0.3033,0.508 0.1769,0.0902 0.3737,0.0717 0.5899,-0.0541 0.2163,-0.127 0.4683,-0.4737 0.7569,-1.0406 0.2897,-0.5689 0.4224,-0.9774 0.3968,-1.2254 -0.0243,-0.2484 -0.1275,-0.4182 -0.3081,-0.5103 -0.1769,-0.0901 -0.3606,-0.0794 -0.5505,0.0315 -0.2389,0.1426 -0.5028,0.4986 -0.792,1.0658 z m 2.4285,1.2441 c 0.2284,-0.3963 0.4504,-0.6956 0.6638,-0.8954 0.2146,-0.2002 0.4326,-0.3237 0.6543,-0.37 0.2208,-0.0467 0.4422,-0.0056 0.6636,0.1222 0.1635,0.0941 0.2866,0.2126 0.3688,0.3569 0.0816,0.1443 0.1235,0.3078 0.1241,0.4907 0.001,0.182 -0.032,0.3844 -0.0998,0.6069 -0.0671,0.2228 -0.197,0.5011 -0.3886,0.8336 -0.2271,0.3941 -0.4482,0.6917 -0.6608,0.8921 -0.2134,0.2013 -0.4311,0.3246 -0.6531,0.3719 -0.2216,0.0474 -0.4439,0.0065 -0.6672,-0.1222 -0.2931,-0.1689 -0.4578,-0.4169 -0.4927,-0.7441 -0.0388,-0.3977 0.1236,-0.9113 0.4876,-1.5426 z m 0.3826,0.2231 c -0.3186,0.5528 -0.4722,0.9539 -0.4595,1.2028 0.0122,0.2497 0.1049,0.4243 0.2767,0.5232 0.1721,0.0992 0.3696,0.091 0.5919,-0.0238 0.2228,-0.1153 0.4921,-0.4484 0.8098,-0.9998 0.3187,-0.5533 0.4723,-0.9541 0.4598,-1.2033 -0.0116,-0.2491 -0.1054,-0.424 -0.2812,-0.5252 -0.172,-0.0992 -0.356,-0.0981 -0.5513,0.0028 -0.2463,0.1298 -0.5284,0.4717 -0.8462,1.0233 z m 2.3366,1.3989 c 0.2478,-0.3846 0.4842,-0.6726 0.7073,-0.8617 0.2242,-0.1894 0.4479,-0.3019 0.6715,-0.3373 0.2231,-0.0358 0.4422,0.0164 0.6571,0.1547 0.1587,0.1024 0.2755,0.2268 0.3506,0.3751 0.0743,0.1479 0.1083,0.3135 0.0998,0.496 -0.008,0.1817 -0.0513,0.3824 -0.1298,0.6012 -0.0777,0.2194 -0.2214,0.491 -0.4292,0.8133 -0.246,0.3827 -0.4816,0.669 -0.7038,0.8583 -0.2234,0.1905 -0.4468,0.3033 -0.6713,0.3393 -0.2231,0.0363 -0.4436,-0.0153 -0.6599,-0.1547 -0.2846,-0.1834 -0.4368,-0.4394 -0.4555,-0.7676 -0.019,-0.3992 0.1687,-0.9043 0.5632,-1.5166 z m 0.3711,0.2415 c -0.3453,0.5363 -0.5187,0.9295 -0.5182,1.1787 -3e-4,0.25 0.0839,0.4289 0.2503,0.5363 0.167,0.1074 0.3646,0.1091 0.5925,0.0054 0.2279,-0.1043 0.5136,-0.4235 0.8583,-0.9587 0.3458,-0.5366 0.5187,-0.9295 0.5185,-1.1789 0.001,-0.2495 -0.0845,-0.4289 -0.2549,-0.5386 -0.1669,-0.1074 -0.3506,-0.1154 -0.5508,-0.0244 -0.2522,0.1176 -0.551,0.445 -0.8957,0.9802 z m 2.327,1.5653 c 0.2814,-0.3605 0.5431,-0.6259 0.7826,-0.794 0.2407,-0.1681 0.4734,-0.2599 0.6993,-0.2746 0.2256,-0.0153 0.4391,0.0564 0.6404,0.214 0.1488,0.1159 0.2537,0.2506 0.3152,0.405 0.0603,0.1542 0.0793,0.3221 0.0541,0.5032 -0.0244,0.1803 -0.0859,0.3762 -0.184,0.587 -0.0972,0.2112 -0.265,0.4686 -0.5011,0.7708 -0.2804,0.3586 -0.5406,0.6225 -0.7793,0.7909 -0.2398,0.1695 -0.4725,0.2613 -0.6987,0.2766 -0.2262,0.0162 -0.4408,-0.0555 -0.6435,-0.214 -0.2667,-0.2086 -0.3954,-0.4771 -0.3838,-0.8059 0.0173,-0.3991 0.25,-0.885 0.6988,-1.459 z m 0.3475,0.2741 c -0.3926,0.5029 -0.601,0.8788 -0.6231,1.1268 -0.0229,0.2492 0.0443,0.4348 0.2004,0.5567 0.1565,0.1222 0.3535,0.1418 0.5894,0.0596 0.2367,-0.0834 0.5502,-0.3754 0.9419,-0.8768 0.3929,-0.5032 0.6012,-0.8785 0.6236,-1.1268 0.0238,-0.2486 -0.045,-0.4351 -0.2046,-0.5598 -0.1565,-0.1222 -0.3388,-0.1469 -0.5463,-0.0743 -0.2622,0.0944 -0.5896,0.3932 -0.9813,0.8946 z m 2.1438,1.6855 c 0.2997,-0.3455 0.5743,-0.5972 0.8221,-0.7526 0.2489,-0.1556 0.4864,-0.2353 0.7126,-0.2387 0.2259,-0.0037 0.4354,0.0791 0.6287,0.2466 0.1426,0.1236 0.2404,0.2634 0.2937,0.4207 0.0527,0.157 0.0629,0.3257 0.0286,0.5051 -0.0334,0.1789 -0.1051,0.3714 -0.2137,0.5769 -0.1083,0.2061 -0.2889,0.4547 -0.5403,0.7444 -0.2982,0.3435 -0.5715,0.5938 -0.8186,0.7497 -0.2481,0.1571 -0.4853,0.2367 -0.7121,0.2407 -0.2265,0.0042 -0.4371,-0.0782 -0.6316,-0.2469 -0.2559,-0.222 -0.3702,-0.4966 -0.3418,-0.8246 0.0374,-0.3977 0.2951,-0.8708 0.7724,-1.4213 z m 0.3331,0.2917 c -0.4181,0.4822 -0.6454,0.8467 -0.68,1.0936 -0.0357,0.2475 0.0218,0.4363 0.1717,0.5661 0.15,0.1301 0.3456,0.1599 0.5857,0.0896 0.2404,-0.0709 0.5683,-0.3467 0.9856,-0.8275 0.4181,-0.4822 0.6452,-0.8464 0.6803,-1.0933 0.0363,-0.2469 -0.0227,-0.4368 -0.176,-0.5695 -0.1497,-0.1301 -0.3308,-0.1638 -0.5417,-0.1023 -0.2665,0.0808 -0.6086,0.3625 -1.0256,0.8433 z m 2.0256,1.8173 c 0.3161,-0.3308 0.603,-0.5689 0.8578,-0.7124 0.2563,-0.1434 0.4969,-0.2114 0.7231,-0.2038 0.2259,0.0071 0.4312,0.0998 0.616,0.2764 0.1366,0.1304 0.2276,0.2747 0.2732,0.4343 0.0451,0.1596 0.0471,0.3285 0.004,0.5062 -0.0422,0.1769 -0.1227,0.3657 -0.2412,0.5658 -0.1179,0.2004 -0.3104,0.44 -0.5754,0.7172 -0.3144,0.3291 -0.5996,0.5658 -0.8541,0.7095 -0.2551,0.1449 -0.4958,0.2132 -0.7229,0.2061 -0.2262,-0.0065 -0.4328,-0.0992 -0.6188,-0.277 -0.2446,-0.2338 -0.3458,-0.5139 -0.3016,-0.8401 0.0567,-0.3955 0.3365,-0.8555 0.8399,-1.3822 z m 0.3189,0.3073 c -0.4408,0.4612 -0.6854,0.8144 -0.7322,1.0593 -0.0476,0.2454 9e-4,0.4368 0.1443,0.574 0.1437,0.1372 0.3374,0.176 0.5806,0.1176 0.2435,-0.0592 0.5848,-0.3189 1.0244,-0.7789 0.4411,-0.4615 0.6854,-0.8144 0.7325,-1.0593 0.0482,-0.245 -0.002,-0.4374 -0.1483,-0.5775 -0.1434,-0.1369 -0.3228,-0.1794 -0.5363,-0.1281 -0.2698,0.0678 -0.6256,0.3328 -1.065,0.7929 z m 1.9953,1.9848 c 0.3467,-0.2988 0.6548,-0.5083 0.9224,-0.6265 0.2688,-0.1179 0.5154,-0.1627 0.7396,-0.1332 0.2239,0.0289 0.4192,0.1409 0.5865,0.3345 0.1233,0.1429 0.2001,0.2954 0.2302,0.4586 0.0294,0.163 0.0153,0.3314 -0.0448,0.504 -0.059,0.1724 -0.1574,0.3524 -0.2946,0.54 -0.1366,0.1885 -0.3514,0.4082 -0.642,0.6588 -0.3444,0.2971 -0.6511,0.5051 -0.9181,0.6239 -0.2679,0.1196 -0.5142,0.1641 -0.7396,0.1355 -0.2245,-0.0283 -0.4212,-0.1403 -0.5893,-0.3353 -0.2208,-0.2566 -0.2945,-0.5449 -0.2194,-0.8652 0.0947,-0.3883 0.4175,-0.8195 0.9691,-1.2951 z m 0.288,0.3365 c -0.4833,0.4169 -0.7608,0.7449 -0.8305,0.9841 -0.0712,0.2396 -0.0414,0.4349 0.0881,0.5851 0.1296,0.1502 0.3189,0.2078 0.5664,0.1729 0.2483,-0.0354 0.6126,-0.261 1.0948,-0.6766 0.4833,-0.417 0.7605,-0.7447 0.8308,-0.9839 0.0717,-0.2393 0.0405,-0.4354 -0.0919,-0.5888 -0.1295,-0.1505 -0.3035,-0.21 -0.5215,-0.1794 -0.2753,0.0417 -0.6546,0.271 -1.1362,0.6866 z m 1.7657,2.0627 c 0.3598,-0.2826 0.677,-0.4779 0.9496,-0.5839 0.2742,-0.1057 0.5219,-0.1395 0.745,-0.1001 0.2225,0.0391 0.4127,0.1596 0.5706,0.3606 0.1168,0.1485 0.1868,0.3041 0.2092,0.4688 0.0224,0.1642 3e-4,0.3317 -0.0675,0.5015 -0.0663,0.1692 -0.1729,0.345 -0.3183,0.5261 -0.1451,0.182 -0.3696,0.392 -0.671,0.629 -0.3574,0.2812 -0.6735,0.4754 -0.9456,0.582 -0.273,0.1074 -0.5207,0.1408 -0.7447,0.102 -0.2228,-0.0385 -0.4141,-0.1593 -0.5734,-0.3617 -0.2095,-0.2659 -0.2699,-0.5576 -0.1803,-0.8739 0.112,-0.3835 0.4538,-0.7999 1.0264,-1.2504 z m 0.2725,0.3495 c -0.5015,0.3943 -0.7935,0.7095 -0.8743,0.9454 -0.0816,0.2364 -0.0606,0.4328 0.0618,0.5885 0.1231,0.1562 0.3093,0.2219 0.5585,0.1984 0.2494,-0.0244 0.6236,-0.233 1.1239,-0.6268 0.5017,-0.3945 0.7934,-0.7095 0.8742,-0.9453 0.0825,-0.2356 0.0601,-0.4331 -0.0649,-0.5924 -0.123,-0.156 -0.2942,-0.2234 -0.5131,-0.2024 -0.2766,0.0289 -0.6661,0.2412 -1.1661,0.6346 z m 1.644,2.1634 c 0.3725,-0.2659 0.6985,-0.4464 0.9757,-0.5397 0.2784,-0.093 0.5278,-0.1151 0.7487,-0.0652 0.2205,0.0493 0.4047,0.1786 0.5533,0.3867 0.1097,0.1536 0.1723,0.3123 0.1876,0.4779 0.0142,0.165 -0.0153,0.3311 -0.0907,0.4978 -0.0745,0.1661 -0.189,0.3364 -0.3427,0.5108 -0.1533,0.1751 -0.3872,0.3744 -0.6993,0.5972 -0.3702,0.2645 -0.6948,0.4436 -0.9714,0.5378 -0.2778,0.0943 -0.527,0.1165 -0.7486,0.0671 -0.2212,-0.0484 -0.4065,-0.178 -0.5562,-0.3875 -0.197,-0.2755 -0.2438,-0.5694 -0.1395,-0.8815 0.1296,-0.3782 0.4904,-0.7779 1.0831,-1.2014 z m 0.2557,0.3615 c -0.519,0.371 -0.8251,0.6723 -0.917,0.9039 -0.0924,0.2325 -0.0805,0.4295 0.0349,0.5908 0.1154,0.1615 0.2985,0.2361 0.5482,0.2242 0.2506,-0.0128 0.6338,-0.2041 1.1517,-0.574 0.5196,-0.3711 0.8255,-0.6724 0.9173,-0.904 0.093,-0.2316 0.0802,-0.43 -0.0377,-0.5947 -0.1154,-0.1616 -0.2832,-0.237 -0.5028,-0.2262 -0.2778,0.0161 -0.6764,0.21 -1.1946,0.58 z m 1.573,2.3323 c 0.396,-0.229 0.7378,-0.3776 1.0227,-0.4439 0.2863,-0.0658 0.5366,-0.0638 0.7518,0.0068 0.2145,0.0703 0.3858,0.2166 0.5139,0.438 0.0944,0.1632 0.1412,0.3274 0.1406,0.4935 -0.001,0.1655 -0.0471,0.3285 -0.1378,0.487 -0.0898,0.1581 -0.2202,0.3169 -0.3903,0.4756 -0.169,0.1596 -0.4212,0.3356 -0.7529,0.5275 -0.394,0.2279 -0.7342,0.3751 -1.0185,0.4422 -0.2854,0.0675 -0.5357,0.0655 -0.7514,-0.0048 -0.2158,-0.0694 -0.3878,-0.2163 -0.5168,-0.4391 -0.1695,-0.2931 -0.1882,-0.5901 -0.0544,-0.8909 0.165,-0.3637 0.5627,-0.7274 1.1931,-1.0919 z m 0.2202,0.3844 c -0.5527,0.3194 -0.8864,0.5899 -0.9995,0.8118 -0.1145,0.2225 -0.1213,0.4198 -0.0221,0.5916 0.0995,0.1718 0.2747,0.2634 0.5244,0.2753 0.2506,0.0113 0.6506,-0.1423 1.2014,-0.461 0.5524,-0.3194 0.8861,-0.5901 0.9997,-0.8118 0.1148,-0.2217 0.1208,-0.4204 0.0193,-0.5958 -0.0992,-0.1718 -0.2594,-0.2628 -0.4788,-0.2733 -0.2783,-0.0105 -0.6936,0.1446 -1.2444,0.4632 z m 1.3567,2.3746 c 0.4082,-0.2067 0.7577,-0.3359 1.046,-0.3864 0.2891,-0.0499 0.5388,-0.034 0.7497,0.0485 0.2107,0.0816 0.3734,0.2372 0.489,0.4654 0.0851,0.1684 0.123,0.3348 0.1131,0.5006 -0.0108,0.1653 -0.0652,0.3254 -0.1647,0.4785 -0.0983,0.1531 -0.2375,0.3042 -0.4155,0.4536 -0.1781,0.1499 -0.4394,0.3115 -0.7813,0.485 -0.4059,0.2055 -0.7537,0.3339 -1.0414,0.3849 -0.2889,0.0519 -0.5386,0.036 -0.7501,-0.0462 -0.2114,-0.0814 -0.3753,-0.2373 -0.4915,-0.4669 -0.1531,-0.3021 -0.1553,-0.5998 -0.005,-0.8926 0.1854,-0.354 0.6021,-0.6951 1.2521,-1.0244 z m 0.1984,0.396 c -0.5692,0.2885 -0.9173,0.5402 -1.0429,0.7557 -0.1264,0.2154 -0.1442,0.4121 -0.0547,0.589 0.0899,0.1772 0.2597,0.2784 0.5086,0.3042 0.2494,0.0252 0.6573,-0.1063 1.2248,-0.394 0.5695,-0.2883 0.9173,-0.54 1.0432,-0.7555 0.1267,-0.2148 0.1437,-0.4127 0.0521,-0.5935 -0.0895,-0.1772 -0.2443,-0.2767 -0.4629,-0.2994 -0.2775,-0.0258 -0.7007,0.1057 -1.2682,0.3935 z m 4.2795,4.6553 0.136,0.4005 -2.9075,0.9876 3.5108,0.7881 0.1485,0.4371 -3.6717,1.2472 -0.1361,-0.4005 2.8999,-0.9851 -3.5017,-0.786 -0.1499,-0.4417 z m -2.4636,4.9363 3.7321,-1.0528 0.127,0.4495 -1.5378,0.434 0.4943,1.7518 1.5376,-0.4339 0.1269,0.4498 -3.732,1.0531 -0.1268,-0.4499 1.7564,-0.4958 -0.4941,-1.7515 -1.7566,0.4955 z m 0.9476,3.7712 3.8154,-0.6923 0.0837,0.4598 -1.5721,0.2852 0.3248,1.7909 1.5718,-0.2851 0.0834,0.4597 -3.8155,0.6923 -0.0833,-0.4598 1.796,-0.3257 -0.3248,-1.791 -1.7961,0.3257 z m 2.6547,4.86 c 0.4558,-0.0349 0.8285,-0.0204 1.1137,0.0433 0.2863,0.0647 0.5111,0.1749 0.6744,0.3317 0.1632,0.1562 0.2539,0.3623 0.2735,0.6174 0.0145,0.1882 -0.0145,0.3563 -0.087,0.5057 -0.0732,0.1488 -0.1848,0.2758 -0.3354,0.3793 -0.1496,0.1034 -0.3356,0.1899 -0.5575,0.2596 -0.222,0.0703 -0.5253,0.1199 -0.9074,0.1488 -0.4538,0.0346 -0.8243,0.0202 -1.1098,-0.0428 -0.2866,-0.0629 -0.5113,-0.1729 -0.6752,-0.3299 -0.1641,-0.1562 -0.2557,-0.3629 -0.2752,-0.6197 -0.0258,-0.3376 0.0861,-0.6134 0.337,-0.8266 0.3064,-0.2562 0.8223,-0.4116 1.5489,-0.4668 z m 0.0314,0.4416 c -0.6361,0.0485 -1.0542,0.148 -1.2526,0.2988 -0.1993,0.1508 -0.2911,0.3257 -0.2761,0.5233 0.015,0.1981 0.1332,0.3565 0.3535,0.4756 0.2205,0.1188 0.6477,0.1536 1.2821,0.1052 0.6366,-0.0485 1.0545,-0.1477 1.2529,-0.2985 0.1996,-0.15 0.2911,-0.3263 0.2755,-0.5284 -0.0147,-0.1981 -0.1196,-0.3492 -0.3129,-0.4538 -0.2463,-0.1301 -0.688,-0.1704 -1.3224,-0.1222 z" />
    <path
       id="path18"
       style="fill:#1b1918;fill-rule:evenodd"
       d="m 127.5426,76.3084 c 0.4572,-0.0131 0.8286,0.0195 1.1103,0.0966 0.2832,0.0786 0.5023,0.1993 0.6577,0.364 0.1556,0.1639 0.2364,0.3739 0.2438,0.6296 0.005,0.1888 -0.0315,0.3554 -0.1117,0.5011 -0.08,0.1449 -0.1973,0.2665 -0.3529,0.3626 -0.1545,0.0961 -0.3444,0.1738 -0.5692,0.2324 -0.2251,0.0599 -0.5304,0.0947 -0.9136,0.1052 -0.455,0.013 -0.8244,-0.0196 -1.1061,-0.0961 -0.2835,-0.0765 -0.5026,-0.1973 -0.6588,-0.362 -0.1562,-0.1638 -0.2381,-0.3747 -0.2455,-0.6321 -0.009,-0.3385 0.1157,-0.6086 0.3765,-0.8093 0.3186,-0.2412 0.8413,-0.3716 1.5695,-0.392 z m 0.0102,0.4427 c -0.6378,0.0179 -1.0601,0.097 -1.2654,0.2382 -0.2063,0.1411 -0.3064,0.3112 -0.3007,0.5093 0.005,0.1985 0.1156,0.3626 0.3296,0.4921 0.2152,0.1293 0.6398,0.1846 1.2762,0.1667 0.6381,-0.0178 1.0602,-0.0969 1.2654,-0.2381 0.2066,-0.14 0.3064,-0.3118 0.3007,-0.5145 -0.006,-0.1984 -0.1029,-0.3546 -0.2908,-0.4683 -0.2398,-0.1417 -0.6786,-0.2032 -1.315,-0.1854 z m 0.0329,2.8296 c 0.4561,0.0349 0.822,0.1054 1.0947,0.2117 0.273,0.1075 0.4785,0.2503 0.616,0.4303 0.1375,0.1792 0.1962,0.3966 0.1766,0.6514 -0.0142,0.1883 -0.068,0.3504 -0.1627,0.487 -0.095,0.1358 -0.2242,0.2444 -0.3889,0.3238 -0.1636,0.0796 -0.3609,0.1369 -0.5905,0.172 -0.2299,0.036 -0.5371,0.0388 -0.9198,0.0097 -0.4533,-0.0346 -0.8175,-0.1052 -1.0899,-0.2107 -0.2736,-0.1054 -0.4791,-0.2486 -0.6174,-0.4286 -0.1384,-0.1791 -0.1976,-0.3974 -0.178,-0.6542 0.0255,-0.3376 0.178,-0.5933 0.4583,-0.7656 0.3419,-0.207 0.8754,-0.2824 1.6016,-0.2268 z M 127.55,80.022 c -0.6361,-0.0484 -1.0644,-0.0138 -1.2833,0.1055 -0.2199,0.1188 -0.3373,0.2775 -0.3526,0.4754 -0.0147,0.1978 0.078,0.3724 0.2772,0.5235 0.2002,0.1508 0.6171,0.25 1.2518,0.2985 0.6367,0.0485 1.0644,0.0139 1.2835,-0.1052 0.22,-0.1179 0.3371,-0.2783 0.3527,-0.4804 0.0147,-0.1979 -0.0658,-0.3634 -0.241,-0.4961 -0.2236,-0.1658 -0.6536,-0.2727 -1.2883,-0.3212 z m -0.1922,2.7145 c 0.4541,0.0564 0.8161,0.1446 1.0834,0.2636 0.2679,0.1202 0.466,0.2727 0.595,0.459 0.1287,0.1853 0.1769,0.4056 0.1451,0.6593 -0.0229,0.1871 -0.0847,0.3464 -0.1856,0.4785 -0.1012,0.1309 -0.2356,0.2336 -0.4037,0.305 -0.1672,0.0717 -0.3668,0.1196 -0.5981,0.1437 -0.2313,0.025 -0.5383,0.0133 -0.919,-0.034 -0.4513,-0.0561 -0.8116,-0.144 -1.0789,-0.2622 -0.2681,-0.1185 -0.4668,-0.2713 -0.5964,-0.4575 -0.1295,-0.1857 -0.1786,-0.4065 -0.1465,-0.6619 0.0416,-0.3362 0.206,-0.5842 0.494,-0.7433 0.3515,-0.1904 0.8879,-0.2401 1.6107,-0.1502 z m -0.0564,0.4391 c -0.6336,-0.0785 -1.0627,-0.0644 -1.2869,0.0442 -0.2257,0.1083 -0.3504,0.2614 -0.3748,0.4581 -0.0244,0.197 0.0598,0.3759 0.2517,0.5363 0.1931,0.1602 0.6047,0.2792 1.2362,0.3577 0.6336,0.0786 1.0624,0.0644 1.2872,-0.0439 0.2254,-0.1074 0.3501,-0.2622 0.3751,-0.4635 0.0243,-0.197 -0.0482,-0.3659 -0.2172,-0.5068 -0.2151,-0.1763 -0.64,-0.3036 -1.2713,-0.3821 z m -0.358,2.7119 c 0.4501,0.0816 0.8067,0.1896 1.0666,0.3234 0.2608,0.135 0.4505,0.2985 0.5687,0.4916 0.1185,0.1921 0.1542,0.4147 0.1085,0.6661 -0.0337,0.186 -0.104,0.3413 -0.212,0.4674 -0.1086,0.1253 -0.2483,0.2203 -0.4204,0.2821 -0.1709,0.0623 -0.3727,0.0992 -0.6049,0.1102 -0.2327,0.0122 -0.5386,-0.0167 -0.9156,-0.085 -0.4478,-0.0813 -0.8025,-0.1891 -1.0627,-0.322 -0.2613,-0.1332 -0.451,-0.2968 -0.57,-0.4898 -0.1194,-0.1928 -0.1556,-0.4159 -0.1097,-0.6693 0.0604,-0.3331 0.2387,-0.5717 0.5349,-0.7143 0.3614,-0.1707 0.8997,-0.1905 1.6166,-0.0604 z m -0.0811,0.4354 c -0.6279,-0.114 -1.0573,-0.1236 -1.2875,-0.0278 -0.231,0.0955 -0.364,0.2415 -0.3994,0.4366 -0.0354,0.1953 0.0388,0.3787 0.2214,0.5496 0.184,0.1706 0.5882,0.3124 1.2143,0.4258 0.6282,0.1139 1.0577,0.1235 1.2878,0.0277 0.2311,-0.0946 0.3637,-0.242 0.4,-0.4416 0.0357,-0.1953 -0.0278,-0.3682 -0.1882,-0.5182 -0.2053,-0.1879 -0.6222,-0.3387 -1.2484,-0.4521 z m -0.5349,2.6685 c 0.4459,0.1035 0.7968,0.2288 1.05,0.3748 0.2539,0.1474 0.4354,0.32 0.5442,0.5184 0.1089,0.1979 0.1338,0.4218 0.0763,0.671 -0.0428,0.1837 -0.1205,0.3356 -0.2348,0.4564 -0.1139,0.1199 -0.2585,0.2077 -0.4334,0.2613 -0.1734,0.0542 -0.377,0.0811 -0.6097,0.0811 -0.2324,6e-4 -0.5366,-0.0428 -0.9102,-0.1295 -0.4433,-0.1027 -0.7923,-0.2274 -1.0457,-0.3731 -0.2548,-0.1457 -0.4363,-0.318 -0.5457,-0.5167 -0.11,-0.1982 -0.1355,-0.423 -0.0774,-0.6738 0.0766,-0.3297 0.2659,-0.5593 0.569,-0.6877 0.3693,-0.1528 0.9079,-0.1466 1.6174,0.0178 z m -0.1018,0.4312 c -0.6216,-0.1443 -1.0502,-0.1746 -1.2846,-0.0899 -0.2353,0.0842 -0.3756,0.2237 -0.4204,0.4167 -0.0448,0.1933 0.0207,0.3801 0.195,0.5596 0.1752,0.1794 0.5721,0.3404 1.1923,0.4841 0.6216,0.144 1.0502,0.1744 1.2846,0.0902 0.2353,-0.0836 0.3753,-0.2245 0.421,-0.4218 0.0448,-0.1936 -0.01,-0.3694 -0.163,-0.527 -0.1959,-0.1976 -0.6049,-0.3682 -1.2249,-0.5119 z m -0.684,2.7388 c 0.4332,0.1477 0.7696,0.3076 1.0072,0.4785 0.2375,0.1724 0.4008,0.3623 0.489,0.5706 0.0884,0.2078 0.0907,0.4332 0.008,0.6752 -0.061,0.1786 -0.1537,0.3218 -0.2792,0.4306 -0.1259,0.1077 -0.2784,0.1806 -0.4575,0.2163 -0.1786,0.0363 -0.3836,0.0425 -0.6149,0.0193 -0.2316,-0.0227 -0.5298,-0.0967 -0.8929,-0.2206 -0.4303,-0.1468 -0.7651,-0.3061 -1.0029,-0.4765 -0.2387,-0.1706 -0.4017,-0.3602 -0.4907,-0.5692 -0.0893,-0.208 -0.0921,-0.4342 -0.009,-0.678 0.1094,-0.3206 0.3211,-0.5298 0.6352,-0.627 0.383,-0.1148 0.9182,-0.0545 1.6075,0.1808 z m -0.1448,0.4184 c -0.6038,-0.2058 -1.0273,-0.2792 -1.2691,-0.2185 -0.2423,0.0601 -0.3957,0.1845 -0.4598,0.3721 -0.064,0.188 -0.0181,0.3802 0.1372,0.5763 0.1562,0.1962 0.5355,0.3963 1.1376,0.6018 0.604,0.2061 1.0273,0.2792 1.269,0.2191 0.2424,-0.0595 0.396,-0.1853 0.4615,-0.3772 0.0641,-0.188 0.0272,-0.3683 -0.1091,-0.5406 -0.1752,-0.2163 -0.565,-0.4275 -1.1673,-0.633 z m -0.8847,2.5764 c 0.4252,0.169 0.7534,0.3456 0.9819,0.5281 0.2288,0.1837 0.3827,0.3813 0.4604,0.5939 0.0779,0.212 0.0688,0.4371 -0.0253,0.6746 -0.0697,0.1755 -0.1695,0.3141 -0.3002,0.4164 -0.1309,0.1015 -0.2868,0.1667 -0.468,0.1934 -0.1797,0.0274 -0.3849,0.0235 -0.6148,-0.0114 -0.2302,-0.034 -0.5241,-0.1227 -0.8807,-0.2645 -0.4229,-0.1678 -0.7492,-0.3435 -0.978,-0.5255 -0.2299,-0.1823 -0.3835,-0.3798 -0.462,-0.5927 -0.0788,-0.2123 -0.0703,-0.4383 0.0246,-0.6778 0.1251,-0.3146 0.3467,-0.5131 0.6656,-0.5947 0.3881,-0.0955 0.9193,-0.0088 1.5965,0.2602 z m -0.1655,0.411 c -0.5931,-0.2358 -1.012,-0.3299 -1.2564,-0.2814 -0.2454,0.0479 -0.4048,0.1647 -0.4779,0.3489 -0.0734,0.1845 -0.0368,0.379 0.1086,0.5825 0.1462,0.2036 0.515,0.4224 1.1061,0.6574 0.5933,0.2358 1.0122,0.3299 1.2568,0.2815 0.2452,-0.0471 0.4048,-0.1656 0.4794,-0.3538 0.0734,-0.1845 0.0459,-0.3665 -0.0819,-0.5454 -0.1642,-0.2248 -0.5432,-0.4547 -1.1347,-0.6897 z m -1.0375,2.5081 c 0.4169,0.1877 0.737,0.3787 0.9575,0.5712 0.2203,0.1936 0.3651,0.398 0.4334,0.614 0.0683,0.2152 0.0496,0.4397 -0.0555,0.6727 -0.0771,0.172 -0.1831,0.3061 -0.3184,0.4025 -0.1352,0.0955 -0.2939,0.1539 -0.4756,0.1726 -0.1811,0.0193 -0.3861,0.006 -0.614,-0.0388 -0.2285,-0.0442 -0.5185,-0.146 -0.868,-0.3033 -0.415,-0.1868 -0.7333,-0.3768 -0.9538,-0.5687 -0.2214,-0.1921 -0.3663,-0.3962 -0.4351,-0.6125 -0.0692,-0.2157 -0.0511,-0.4411 0.0547,-0.6761 0.1389,-0.3087 0.3693,-0.4972 0.6911,-0.5644 0.392,-0.0785 0.9192,0.0321 1.5837,0.3308 z m -0.1837,0.4031 c -0.582,-0.2619 -0.9964,-0.3744 -1.243,-0.337 -0.2472,0.0371 -0.4113,0.1468 -0.4927,0.3274 -0.0813,0.1811 -0.0535,0.377 0.0825,0.5868 0.1375,0.2097 0.4958,0.4447 1.0761,0.7058 0.5822,0.2619 0.9966,0.3747 1.2429,0.3373 0.2469,-0.0363 0.4116,-0.1474 0.4947,-0.3322 0.0816,-0.1811 0.0621,-0.364 -0.0576,-0.5485 -0.1542,-0.2319 -0.5227,-0.4785 -1.1029,-0.7396 z m -1.2013,2.5532 c 0.3965,0.2285 0.6959,0.4501 0.8957,0.6639 0.2001,0.2148 0.3237,0.4325 0.3696,0.6542 0.0471,0.2208 0.006,0.4422 -0.1218,0.6639 -0.0944,0.1635 -0.2129,0.2863 -0.3572,0.3685 -0.1443,0.0816 -0.3078,0.1239 -0.4907,0.1241 -0.182,0.001 -0.3844,-0.0323 -0.6069,-0.0997 -0.2228,-0.0669 -0.5011,-0.1971 -0.8337,-0.3884 -0.394,-0.2273 -0.6916,-0.4481 -0.8917,-0.661 -0.2016,-0.2135 -0.3252,-0.4312 -0.3719,-0.6531 -0.0477,-0.2214 -0.007,-0.4439 0.1219,-0.667 0.1692,-0.2934 0.4169,-0.4581 0.7443,-0.4927 0.3974,-0.0391 0.9111,0.1236 1.5424,0.4873 z m -0.2228,0.3827 c -0.5528,-0.3186 -0.9542,-0.4723 -1.2031,-0.4592 -0.2497,0.0119 -0.4243,0.1046 -0.5232,0.2763 -0.099,0.1721 -0.0907,0.3697 0.0238,0.5919 0.1153,0.2228 0.4484,0.4921 1,0.8099 0.5531,0.3189 0.9539,0.4722 1.2031,0.4597 0.2491,-0.0113 0.4243,-0.1054 0.5255,-0.2812 0.0989,-0.172 0.0978,-0.356 -0.003,-0.5513 -0.1301,-0.246 -0.472,-0.5284 -1.0233,-0.8461 z m -1.4185,6.004 -0.2713,0.3807 -1.385,-0.9861 c -0.1233,0.1729 -0.1729,0.322 -0.1485,0.4447 0.0238,0.1239 0.1377,0.3402 0.3424,0.6508 0.1517,0.2277 0.2509,0.3972 0.2993,0.51 0.0494,0.1125 0.0692,0.2375 0.0593,0.3742 -0.009,0.1363 -0.0553,0.2627 -0.1369,0.3775 -0.1041,0.1463 -0.1602,0.2223 -0.169,0.2282 l -0.3617,-0.2576 c 0.009,-0.0136 0.0281,-0.0383 0.0562,-0.0746 0.0314,-0.0411 0.0504,-0.066 0.0569,-0.0754 0.0862,-0.121 0.118,-0.2341 0.095,-0.339 -0.0215,-0.106 -0.1114,-0.2727 -0.2673,-0.5003 -0.1993,-0.2869 -0.3101,-0.4887 -0.3325,-0.6052 -0.0221,-0.1154 -0.021,-0.2353 0.003,-0.3575 -0.1876,0.1454 -0.5071,0.1939 -0.9558,0.146 l -1.4723,-0.1579 0.3359,-0.4714 1.1987,0.1279 c 0.3308,0.0374 0.5726,0.0436 0.7237,0.0181 0.152,-0.0255 0.2778,-0.108 0.3782,-0.2492 l -1.478,-1.0522 0.271,-0.3807 z m -2.1115,2.8775 -1.8119,2.0885 -2.9294,-2.5406 0.3062,-0.3532 2.586,2.2427 1.1991,-1.3824 -2.5858,-2.2428 0.3062,-0.3532 z m -2.6938,3.035 -1.91,1.999 -2.8037,-2.6787 0.3228,-0.3379 2.475,2.3644 1.2639,-1.3232 -2.4746,-2.3644 0.3229,-0.3379 z m -5.2543,2.3497 c 0.2829,0.3597 0.4782,0.6772 0.5842,0.9496 0.1055,0.2738 0.1392,0.5218 0.0995,0.7449 -0.0388,0.2225 -0.1593,0.4127 -0.3603,0.5706 -0.1485,0.1168 -0.3041,0.1866 -0.4685,0.2095 -0.1641,0.0218 -0.3317,0 -0.5018,-0.0674 -0.1692,-0.0667 -0.3446,-0.1732 -0.5261,-0.3187 -0.1819,-0.1451 -0.3917,-0.3696 -0.629,-0.6709 -0.2815,-0.3575 -0.4753,-0.6735 -0.5819,-0.9457 -0.1072,-0.2729 -0.1409,-0.521 -0.1018,-0.7443 0.0383,-0.2234 0.159,-0.4147 0.3614,-0.5738 0.2659,-0.2094 0.5576,-0.2698 0.8742,-0.1803 0.3833,0.112 0.7997,0.4539 1.2501,1.0265 z m -0.3495,0.2724 c -0.3943,-0.5015 -0.7095,-0.7934 -0.9454,-0.8742 -0.2361,-0.0817 -0.4325,-0.0607 -0.5884,0.0618 -0.1559,0.1227 -0.222,0.3092 -0.1985,0.5584 0.0244,0.2494 0.2333,0.6236 0.6268,1.1239 0.3946,0.5018 0.7095,0.7935 0.9453,0.8745 0.2356,0.0822 0.4332,0.0598 0.5925,-0.0655 0.1562,-0.1227 0.2234,-0.2939 0.2027,-0.5127 -0.029,-0.277 -0.2413,-0.6662 -0.635,-1.1662 z m -2.1319,1.6866 c 0.2659,0.3722 0.4464,0.6985 0.5397,0.9757 0.093,0.2783 0.1151,0.5278 0.0652,0.7486 -0.0493,0.2203 -0.1786,0.4048 -0.3867,0.5533 -0.1533,0.1097 -0.3121,0.1724 -0.4779,0.1874 -0.165,0.0145 -0.3314,-0.015 -0.4975,-0.0907 -0.1661,-0.0743 -0.3367,-0.1888 -0.5108,-0.3424 -0.1752,-0.1534 -0.3744,-0.3872 -0.5975,-0.6993 -0.2645,-0.3702 -0.4436,-0.6948 -0.5375,-0.9715 -0.0946,-0.2778 -0.1168,-0.5269 -0.0674,-0.7486 0.0487,-0.2211 0.178,-0.4065 0.3877,-0.5562 0.2753,-0.197 0.5695,-0.2437 0.8816,-0.1397 0.3779,0.1295 0.7779,0.4907 1.2011,1.0834 z m -0.3615,0.2557 c -0.3707,-0.519 -0.672,-0.8255 -0.9039,-0.917 -0.2325,-0.0924 -0.4295,-0.0805 -0.5908,0.0348 -0.1615,0.1154 -0.2361,0.2985 -0.2239,0.5483 0.0128,0.2505 0.2041,0.6338 0.5737,1.1517 0.3711,0.5196 0.6724,0.8254 0.904,0.9173 0.2316,0.0932 0.43,0.0799 0.595,-0.0377 0.1613,-0.1154 0.2367,-0.2835 0.2259,-0.5029 -0.0161,-0.2781 -0.21,-0.6766 -0.58,-1.1945 z m -2.2382,1.5588 c 0.2466,0.3855 0.4099,0.7205 0.4887,1.0023 0.0782,0.2829 0.0873,0.5329 0.0264,0.7509 -0.0604,0.2177 -0.1993,0.3951 -0.4147,0.5326 -0.1594,0.1018 -0.3209,0.1559 -0.487,0.1624 -0.1656,0.006 -0.33,-0.032 -0.4927,-0.1162 -0.1619,-0.0828 -0.326,-0.2058 -0.4921,-0.3685 -0.167,-0.1621 -0.3538,-0.4059 -0.5604,-0.7291 -0.2452,-0.3835 -0.4073,-0.7166 -0.4867,-0.998 -0.0802,-0.2821 -0.0893,-0.5324 -0.0284,-0.7509 0.0599,-0.2183 0.1988,-0.3969 0.4159,-0.5355 0.2852,-0.1826 0.5814,-0.214 0.8875,-0.0938 0.3708,0.1488 0.7512,0.5298 1.1435,1.1438 z m -0.3742,0.2366 c -0.3435,-0.5374 -0.6287,-0.8589 -0.8555,-0.9623 -0.227,-0.1043 -0.4246,-0.1026 -0.5915,0.004 -0.1676,0.1068 -0.2515,0.286 -0.252,0.5363 -3e-4,0.2505 0.1709,0.6434 0.5136,1.1797 0.3435,0.5378 0.6284,0.8589 0.8552,0.9627 0.2268,0.1049 0.4252,0.1023 0.5958,-0.007 0.1676,-0.1069 0.2512,-0.271 0.2518,-0.4907 -0.002,-0.2784 -0.1747,-0.6865 -0.5174,-1.2229 z m -2.3882,1.5033 c 0.2067,0.4081 0.336,0.7577 0.3864,1.0457 0.0499,0.2894 0.0343,0.5391 -0.0485,0.75 -0.0816,0.2106 -0.2372,0.3733 -0.4654,0.489 -0.1684,0.0853 -0.3348,0.1233 -0.5006,0.1131 -0.1653,-0.0105 -0.3254,-0.0649 -0.4785,-0.1644 -0.1531,-0.0987 -0.3042,-0.2376 -0.4535,-0.4159 -0.1497,-0.178 -0.3116,-0.4391 -0.485,-0.7812 -0.2056,-0.4059 -0.334,-0.7537 -0.385,-1.0414 -0.0519,-0.2886 -0.036,-0.5386 0.0459,-0.7501 0.0817,-0.2112 0.2376,-0.3753 0.4672,-0.4915 0.3022,-0.1531 0.6001,-0.1554 0.8926,-0.005 0.3541,0.1851 0.6951,0.6021 1.0244,1.2518 z m -0.396,0.1984 c -0.2885,-0.5692 -0.5402,-0.9173 -0.7554,-1.0426 -0.2157,-0.1267 -0.4124,-0.1446 -0.5893,-0.055 -0.1772,0.0899 -0.2784,0.2597 -0.3039,0.5085 -0.0252,0.2495 0.106,0.6574 0.3938,1.2252 0.2885,0.5692 0.54,0.9173 0.7554,1.0428 0.2148,0.127 0.413,0.144 0.5936,0.0525 0.1771,-0.0899 0.2769,-0.2446 0.2993,-0.4632 0.0258,-0.2772 -0.106,-0.7004 -0.3935,-1.2682 z m -2.4182,1.2333 c 0.1885,0.4167 0.3016,0.7719 0.3393,1.0619 0.0372,0.2911 0.0102,0.54 -0.0816,0.7469 -0.091,0.207 -0.2537,0.3626 -0.4867,0.4677 -0.1721,0.078 -0.3399,0.1083 -0.5052,0.091 -0.1647,-0.0181 -0.322,-0.0793 -0.4708,-0.1856 -0.1485,-0.1055 -0.2934,-0.2509 -0.4345,-0.4354 -0.1418,-0.1846 -0.2917,-0.4527 -0.4499,-0.8022 -0.1874,-0.4145 -0.3002,-0.7677 -0.3382,-1.0574 -0.0388,-0.2908 -0.0122,-0.5397 0.0794,-0.7475 0.0907,-0.2075 0.2537,-0.3642 0.4887,-0.4702 0.3084,-0.1395 0.6057,-0.1284 0.8915,0.0346 0.3455,0.2006 0.6675,0.6324 0.968,1.2962 z m -0.4045,0.1806 c -0.263,-0.5814 -0.4989,-0.9405 -0.7084,-1.0752 -0.21,-0.136 -0.4056,-0.1627 -0.5865,-0.081 -0.1805,0.0819 -0.2894,0.2469 -0.3262,0.4943 -0.036,0.2483 0.0768,0.6616 0.339,1.2413 0.2628,0.5817 0.4989,0.9405 0.7084,1.0758 0.2089,0.1363 0.4059,0.1621 0.5907,0.0785 0.1809,-0.0817 0.2874,-0.2319 0.3198,-0.4493 0.0379,-0.2758 -0.0749,-0.7044 -0.3368,-1.2844 z m -2.4908,1.0942 c 0.1681,0.4255 0.2648,0.7852 0.2886,1.0769 0.0226,0.2925 -0.0159,0.54 -0.1177,0.7424 -0.1009,0.2021 -0.2707,0.3497 -0.5085,0.4436 -0.1755,0.0694 -0.3447,0.0918 -0.5088,0.0666 -0.1636,-0.0258 -0.3181,-0.0947 -0.4615,-0.2081 -0.1432,-0.1122 -0.2809,-0.2642 -0.413,-0.4555 -0.133,-0.1911 -0.2699,-0.466 -0.411,-0.8226 -0.1673,-0.4232 -0.2631,-0.7812 -0.2875,-1.0726 -0.0246,-0.2923 0.0139,-0.5395 0.1151,-0.7427 0.1009,-0.203 0.2713,-0.3518 0.5108,-0.4465 0.3147,-0.1244 0.6112,-0.0992 0.889,0.0774 0.3356,0.2169 0.6366,0.6636 0.9045,1.3411 z m -0.4124,0.161 c -0.2347,-0.5933 -0.4536,-0.9632 -0.6563,-1.1081 -0.2029,-0.1457 -0.3974,-0.1817 -0.5816,-0.1088 -0.1848,0.0731 -0.3011,0.2327 -0.3498,0.4782 -0.0479,0.246 0.0453,0.6644 0.2795,1.256 0.2344,0.5936 0.453,0.9632 0.6556,1.1084 0.2024,0.1462 0.3983,0.1814 0.5865,0.1068 0.1846,-0.0731 0.2979,-0.218 0.3407,-0.4337 0.0513,-0.2735 -0.0405,-0.7072 -0.2746,-1.2988 z m -2.6363,1.019 c 0.1245,0.4405 0.1837,0.8082 0.1778,1.1007 -0.0068,0.2934 -0.0706,0.5355 -0.1919,0.7266 -0.1208,0.1907 -0.305,0.3206 -0.5511,0.39 -0.182,0.0513 -0.3523,0.0564 -0.5133,0.0145 -0.1602,-0.0423 -0.3067,-0.1265 -0.4377,-0.2537 -0.131,-0.1262 -0.2529,-0.2917 -0.3648,-0.4953 -0.1128,-0.2035 -0.2211,-0.4912 -0.3252,-0.8603 -0.1236,-0.4376 -0.1825,-0.8039 -0.1771,-1.0958 0.0048,-0.2934 0.0683,-0.5355 0.1899,-0.7274 0.1205,-0.1916 0.3056,-0.3223 0.553,-0.3923 0.326,-0.0919 0.6186,-0.0366 0.8768,0.1672 0.3118,0.2497 0.5661,0.7248 0.7636,1.4258 z m -0.4266,0.1185 c -0.1732,-0.6142 -0.3532,-1.0043 -0.5403,-1.169 -0.1873,-0.1655 -0.3767,-0.2211 -0.5675,-0.1672 -0.191,0.0538 -0.3231,0.201 -0.3965,0.4402 -0.0726,0.2398 -0.0224,0.6656 0.1502,1.2779 0.1735,0.6145 0.3535,1.0043 0.5403,1.1692 0.1865,0.1659 0.3776,0.2209 0.5723,0.1656 0.1911,-0.0539 0.3189,-0.1865 0.3833,-0.3966 0.0788,-0.267 0.0311,-0.7078 -0.1418,-1.3201 z m -2.6161,0.7512 c 0.1029,0.4456 0.1446,0.8161 0.1245,1.1078 -0.021,0.2928 -0.0961,0.5318 -0.2268,0.7166 -0.1298,0.1848 -0.32,0.3056 -0.5689,0.3628 -0.1843,0.0425 -0.3546,0.0394 -0.5134,-0.01 -0.1581,-0.0499 -0.3002,-0.1412 -0.4252,-0.2747 -0.125,-0.1324 -0.2384,-0.3033 -0.3404,-0.5122 -0.1029,-0.2086 -0.1973,-0.5009 -0.2835,-0.8748 -0.1026,-0.4433 -0.1437,-0.8115 -0.1244,-1.1032 0.0193,-0.2928 0.0941,-0.5315 0.2248,-0.7172 0.1298,-0.1856 0.3206,-0.3073 0.5714,-0.3654 0.3297,-0.0759 0.6194,-0.007 0.8677,0.2092 0.2994,0.2645 0.5304,0.7512 0.6942,1.461 z m -0.432,0.0975 c -0.1437,-0.6216 -0.3044,-1.0199 -0.4836,-1.1934 -0.1788,-0.1743 -0.3653,-0.2389 -0.5589,-0.1944 -0.1934,0.0448 -0.3323,0.1854 -0.417,0.4206 -0.0842,0.2362 -0.0544,0.6636 0.0887,1.2839 0.1434,0.6219 0.3044,1.0201 0.4833,1.1936 0.1783,0.1749 0.3665,0.2387 0.5638,0.1931 0.1936,-0.0445 0.3274,-0.171 0.4017,-0.3779 0.0915,-0.2628 0.0652,-0.7053 -0.078,-1.3255 z m -2.6543,0.5925 c 0.0816,0.4501 0.1057,0.822 0.072,1.1123 -0.0349,0.2917 -0.1214,0.5267 -0.2608,0.705 -0.1383,0.1785 -0.3342,0.2899 -0.5857,0.3356 -0.1856,0.0337 -0.3557,0.0227 -0.5119,-0.0343 -0.1556,-0.0576 -0.2934,-0.1554 -0.4116,-0.2945 -0.1185,-0.1381 -0.2239,-0.3144 -0.316,-0.5279 -0.0927,-0.2134 -0.1732,-0.5099 -0.2418,-0.8872 -0.0811,-0.4476 -0.1049,-0.8175 -0.0715,-1.1081 0.0329,-0.2914 0.1191,-0.5264 0.2585,-0.7055 0.1381,-0.1794 0.3345,-0.2917 0.5877,-0.3379 0.3333,-0.0604 0.6193,0.0227 0.8569,0.25 0.2866,0.2784 0.4941,0.7756 0.6242,1.4925 z m -0.436,0.0771 c -0.1139,-0.6279 -0.256,-1.0335 -0.4263,-1.2152 -0.1707,-0.1829 -0.3541,-0.256 -0.5488,-0.2209 -0.1956,0.0355 -0.341,0.1695 -0.4368,0.4006 -0.0953,0.2318 -0.0859,0.6602 0.0275,1.2863 0.1142,0.6282 0.2556,1.0335 0.426,1.2155 0.1701,0.1829 0.3549,0.2557 0.5542,0.2197 0.1956,-0.0354 0.335,-0.1553 0.4192,-0.3586 0.1038,-0.2582 0.0987,-0.7013 -0.015,-1.3274 z m -2.702,0.426 c 0.0564,0.4541 0.0598,0.8269 0.0097,1.1149 -0.0511,0.2891 -0.1506,0.519 -0.2994,0.6894 -0.1482,0.1703 -0.3498,0.271 -0.6035,0.3024 -0.1873,0.0233 -0.3569,0.003 -0.5096,-0.0629 -0.1517,-0.0661 -0.2838,-0.1712 -0.3943,-0.3169 -0.1109,-0.1446 -0.2061,-0.3263 -0.2861,-0.5446 -0.0807,-0.2182 -0.1445,-0.5187 -0.1919,-0.8994 -0.0561,-0.4515 -0.0592,-0.822 -0.0096,-1.1103 0.049,-0.2892 0.1485,-0.5188 0.2973,-0.6903 0.148,-0.1712 0.3504,-0.2726 0.6058,-0.3044 0.3359,-0.0417 0.6168,0.0573 0.8413,0.2974 0.2707,0.2939 0.4505,0.8019 0.5403,1.5247 z m -0.4396,0.0527 c -0.0788,-0.6332 -0.1979,-1.0459 -0.358,-1.2367 -0.1602,-0.1922 -0.3391,-0.2755 -0.5358,-0.2512 -0.197,0.0244 -0.3501,0.15 -0.4584,0.3753 -0.1082,0.2265 -0.1224,0.6546 -0.0439,1.2861 0.0788,0.6336 0.1976,1.046 0.3575,1.2373 0.1595,0.1922 0.3398,0.275 0.5411,0.2501 0.197,-0.0244 0.3433,-0.1364 0.4385,-0.3342 0.1182,-0.2523 0.1375,-0.6951 0.059,-1.3267 z" />
  </g>
  <path
     id="path21"
     style="fill:none;stroke:#1b1918;stroke-width:0.7087;stroke-linecap:butt;stroke-linejoin:miter;stroke-dasharray:none"
     d="m 77.9494,32.7713 c 24.9429,0 45.1629,20.2201 45.1629,45.163 0,24.9426 -20.22,45.163 -45.1629,45.163 -24.9429,0 -45.163,-20.2204 -45.163,-45.163 0,-24.9429 20.2201,-45.163 45.163,-45.163 z" />
  <path
     id="path23"
     style="fill:#1b1918;fill-rule:evenodd"
     d="m 49.29,78.0259 1.3291,2.3289 h -0.7429 l -1.6433,-2.3289 1.6433,-2.3287 h 0.7534 z m 1.9783,0 1.3606,2.3289 h -0.7747 l -1.6118,-2.3289 1.6118,-2.3287 h 0.7747 z m 2.6075,-0.9525 c 0,-1.2418 0.3351,-2.2152 1.0032,-2.9182 0.6681,-0.703 1.5299,-1.0537 2.5869,-1.0537 0.6925,0 1.3153,0.1659 1.8717,0.4955 0.5548,0.3297 0.9786,0.7901 1.27,1.3816 0.2914,0.5897 0.4379,1.2595 0.4379,2.0078 0,0.7589 -0.1536,1.4392 -0.4606,2.0373 -0.307,0.6001 -0.7413,1.0536 -1.3031,1.3606 -0.5635,0.309 -1.1704,0.4623 -1.8213,0.4623 -0.7064,0 -1.3359,-0.1709 -1.8924,-0.511 -0.5547,-0.3402 -0.9771,-0.8042 -1.2631,-1.3938 -0.286,-0.5879 -0.4292,-1.2107 -0.4292,-1.8684 z m 1.0259,0.0176 c 0,0.9017 0.2424,1.6118 0.7274,2.13 0.485,0.5179 1.0936,0.7778 1.8263,0.7778 0.7467,0 1.359,-0.2616 1.842,-0.7849 0.4816,-0.5233 0.7223,-1.2665 0.7223,-2.2295 0,-0.6086 -0.1029,-1.1406 -0.3087,-1.5942 -0.2058,-0.4535 -0.5077,-0.8059 -0.9037,-1.0553 -0.3977,-0.2495 -0.8425,-0.375 -1.3363,-0.375 -0.701,0 -1.3048,0.2406 -1.8105,0.722 -0.5059,0.4816 -0.7588,1.2841 -0.7588,2.4091 z m 7.4608,-3.8639 h 4.8668 v 0.8793 h -3.8727 v 2.3131 h 1.7898 c 0.6613,0 1.1863,0.0626 1.5769,0.1899 0.3909,0.1256 0.703,0.3629 0.9386,0.7135 0.2355,0.3489 0.3523,0.7554 0.3523,1.2195 0,0.3784 -0.0836,0.7324 -0.2528,1.0604 -0.1693,0.3297 -0.4204,0.5984 -0.7555,0.8059 -0.333,0.2078 -0.9034,0.3124 -1.7076,0.3124 h -2.9358 z m 0.9941,6.6461 H 65.34 c 0.5357,0 0.9369,-0.108 1.2056,-0.3262 0.2667,-0.218 0.4011,-0.5443 0.4011,-0.9786 0,-0.3104 -0.0768,-0.5686 -0.2302,-0.7761 -0.1536,-0.2078 -0.3665,-0.3455 -0.6386,-0.4136 -0.2739,-0.068 -0.7396,-0.1012 -1.3972,-0.1012 h -1.3241 z m 5.8334,0.8479 v -7.494 h 2.8296 c 0.4969,0 0.8773,0.0244 1.1406,0.0715 0.3682,0.0612 0.6769,0.178 0.9264,0.3489 0.2494,0.1726 0.4501,0.4136 0.6018,0.7223 0.1516,0.3087 0.2267,0.6488 0.2267,1.0204 0,0.635 -0.2023,1.1739 -0.6088,1.6135 -0.4045,0.4414 -1.139,0.6611 -2.1997,0.6611 h -1.9222 v 3.0563 z m 0.9944,-3.9354 h 1.9364 c 0.6417,0 1.0953,-0.1187 1.3657,-0.3577 0.2687,-0.239 0.4028,-0.5737 0.4028,-1.008 0,-0.3124 -0.0782,-0.5811 -0.237,-0.8042 -0.1587,-0.2234 -0.3682,-0.3716 -0.6264,-0.443 -0.1673,-0.0437 -0.4763,-0.0664 -0.9244,-0.0664 h -1.9171 z m 4.4657,3.9354 2.8746,-7.494 h 1.0902 l 3.051,7.494 H 80.5374 L 79.6703,78.45 h -3.1556 l -0.8129,2.2711 z m 2.156,-3.077 h 2.5538 l -0.7815,-2.0778 c -0.2356,-0.6313 -0.4133,-1.1529 -0.5372,-1.5648 -0.1029,0.4887 -0.2409,0.9684 -0.4136,1.4429 z m 5.1217,0.9629 0.9419,-0.241 c 0.0715,0.3629 0.2634,0.7257 0.574,1.0886 0.3121,0.3628 0.724,0.5442 1.2385,0.5442 0.5233,0 0.9369,-0.1344 1.2402,-0.4045 0.3019,-0.2687 0.4535,-0.595 0.4535,-0.9771 0,-0.4116 -0.1587,-0.7413 -0.4779,-0.9836 -0.3175,-0.2444 -0.7518,-0.3665 -1.2994,-0.3665 h -0.4728 v -0.8686 c 0.4535,0 0.8008,-0.0263 1.0414,-0.0785 0.2407,-0.0524 0.4536,-0.1868 0.6384,-0.4031 0.1848,-0.2146 0.2775,-0.4603 0.2775,-0.7361 0,-0.3243 -0.1259,-0.6086 -0.3787,-0.8493 -0.2512,-0.2409 -0.593,-0.3611 -1.0222,-0.3611 -0.3767,0 -0.6979,0.0941 -0.9629,0.2843 -0.2651,0.1902 -0.4482,0.4413 -0.5514,0.7534 -0.1009,0.3124 -0.1516,0.546 -0.1516,0.6996 l -0.9525,-0.22 c 0.2339,-1.5908 1.1095,-2.3862 2.6255,-2.3862 0.7308,0 1.3082,0.2041 1.7356,0.6106 0.4272,0.4065 0.6418,0.881 0.6418,1.4253 0,0.6976 -0.3297,1.2384 -0.989,1.6223 0.3821,0.1063 0.7013,0.3225 0.9595,0.6471 0.2563,0.326 0.3855,0.7152 0.3855,1.1687 0,0.6455 -0.2494,1.1843 -0.7483,1.6189 -0.4989,0.4343 -1.1602,0.6522 -1.9834,0.6522 -1.4165,0 -2.3375,-0.7466 -2.7632,-2.2396 z m 6.7507,2.1141 v -7.494 h 5.411 v 0.8793 h -4.4166 v 2.3026 h 4.134 v 0.879 h -4.134 v 2.5538 h 4.5947 v 0.8793 z m 6.9812,-7.494 h 0.9943 v 6.6147 h 3.8934 v -6.6147 h 0.9944 v 6.6147 h 0.6803 v 2.9622 h -0.8793 v -2.0829 h -5.6831 z m 10.9547,4.7988 -1.3501,-2.3287 h 0.7537 l 1.6537,2.3287 -1.6432,2.3289 h -0.7537 z m -1.978,0 -1.3606,-2.3287 h 0.7744 l 1.6118,2.3287 -1.6118,2.3289 h -0.7744 z" />
  <path
     id="path25"
     style="fill:#1b1918;fill-rule:evenodd"
     d="m 62.3687,117.5692 1.3558,-4.0765 0.8085,0.269 0.0042,3.2063 c 0,0.2982 -0.0022,0.5207 -0.0062,0.6678 0.0958,-0.1324 0.2415,-0.3263 0.436,-0.5808 l 1.9238,-2.5092 0.7223,0.2403 -1.3558,4.0763 -0.5179,-0.1724 1.1341,-3.4101 -2.3241,3.0144 -0.4858,-0.1616 -0.0216,-3.8639 -1.1551,3.4727 z m 6.4264,-0.218 c 0.1316,-0.6996 0.4233,-1.2126 0.874,-1.5381 0.4507,-0.3254 0.9734,-0.4317 1.5692,-0.3197 0.3901,0.0731 0.7234,0.2324 1.0021,0.4771 0.2775,0.2446 0.4674,0.5487 0.5692,0.913 0.1015,0.3628 0.1134,0.7557 0.0343,1.1772 -0.0805,0.4278 -0.239,0.7949 -0.4754,1.0993 -0.2361,0.3056 -0.5292,0.5151 -0.8782,0.6287 -0.3498,0.1145 -0.7083,0.1367 -1.0749,0.0678 -0.3977,-0.0749 -0.7347,-0.2379 -1.0119,-0.4884 -0.2767,-0.2506 -0.4655,-0.5565 -0.5641,-0.9187 -0.0992,-0.3617 -0.1137,-0.7274 -0.0443,-1.0982 z m 0.576,0.1185 c -0.0955,0.508 -0.0337,0.9334 0.1846,1.2767 0.2183,0.3433 0.5337,0.5545 0.9468,0.6319 0.4206,0.0791 0.7931,-0.004 1.1208,-0.2475 0.3265,-0.2438 0.5408,-0.6369 0.6426,-1.1795 0.0643,-0.343 0.0626,-0.6537 -0.0051,-0.9312 -0.0678,-0.2772 -0.2007,-0.5074 -0.3971,-0.6899 -0.1982,-0.1826 -0.4352,-0.3005 -0.7135,-0.3527 -0.3952,-0.0742 -0.7606,-0.003 -1.0965,0.2152 -0.3359,0.2177 -0.5635,0.6432 -0.6826,1.277 z m 8.3917,1.4896 0.5647,0.1633 c -0.1349,0.4623 -0.3609,0.8101 -0.6781,1.0445 -0.3169,0.2342 -0.6987,0.3442 -1.1454,0.3292 -0.4618,-0.0159 -0.8343,-0.1228 -1.1177,-0.3212 -0.2835,-0.1979 -0.4941,-0.4782 -0.633,-0.8402 -0.1386,-0.3628 -0.2016,-0.7481 -0.1877,-1.158 0.0153,-0.4467 0.1134,-0.8336 0.2957,-1.1605 0.1823,-0.3268 0.4337,-0.5717 0.7543,-0.7336 0.3206,-0.1621 0.6704,-0.2364 1.0482,-0.2236 0.4298,0.0144 0.7869,0.136 1.0713,0.3645 0.2854,0.2291 0.479,0.5429 0.5802,0.9425 l -0.5621,0.1126 c -0.0882,-0.315 -0.2256,-0.548 -0.4096,-0.6959 -0.184,-0.1494 -0.4195,-0.2285 -0.7061,-0.2381 -0.3288,-0.0114 -0.6075,0.0581 -0.8337,0.2086 -0.2262,0.1502 -0.3892,0.3577 -0.4873,0.6208 -0.0992,0.2639 -0.1533,0.5371 -0.163,0.8198 -0.0124,0.3648 0.0298,0.6854 0.1262,0.9609 0.0966,0.2764 0.2545,0.485 0.4742,0.6273 0.2191,0.1426 0.459,0.218 0.7195,0.2268 0.3177,0.0107 0.5887,-0.072 0.8149,-0.2478 0.2262,-0.1763 0.3841,-0.4427 0.4745,-0.8019 z m 2.3823,-2.8698 0.5686,-0.0434 0.1432,1.8786 c 0.2582,-0.0199 0.4368,-0.0848 0.534,-0.1934 0.0978,-0.1085 0.2129,-0.3602 0.3472,-0.7557 0.097,-0.2911 0.1798,-0.4969 0.2486,-0.6185 0.0681,-0.1225 0.1701,-0.2288 0.3067,-0.318 0.1355,-0.0899 0.2903,-0.1418 0.4618,-0.1548 0.2183,-0.0165 0.3331,-0.0233 0.3453,-0.0204 l 0.0374,0.4907 c -0.0199,0.002 -0.0578,0.003 -0.114,0.006 -0.0626,0.003 -0.1006,0.005 -0.1148,0.006 -0.1802,0.0136 -0.3115,0.0677 -0.3928,0.1621 -0.0828,0.0947 -0.1704,0.29 -0.264,0.5848 -0.1159,0.3739 -0.2202,0.6126 -0.3129,0.7149 -0.0916,0.1012 -0.2052,0.1862 -0.3385,0.2534 0.2818,0.0547 0.5746,0.29 0.8771,0.7041 l 0.991,1.3587 -0.7036,0.0538 -0.8076,-1.1057 c -0.2211,-0.3073 -0.4025,-0.516 -0.5431,-0.6257 -0.142,-0.1105 -0.3169,-0.1573 -0.5272,-0.1414 l 0.1528,2.0044 -0.5684,0.0433 z m 5.2364,3.7619 -0.966,-4.186 1.5706,-0.3625 c 0.3195,-0.074 0.5857,-0.091 0.7991,-0.051 0.2123,0.0402 0.3935,0.1358 0.5434,0.2871 0.1505,0.15 0.2475,0.3215 0.292,0.5145 0.0414,0.1783 0.0315,0.358 -0.0286,0.538 -0.0601,0.1803 -0.1766,0.3416 -0.3501,0.4845 0.2704,0.0153 0.4946,0.0969 0.6715,0.2452 0.1775,0.1465 0.2945,0.3424 0.3507,0.5862 0.0456,0.1964 0.0456,0.3886 0.0017,0.576 -0.0437,0.1876 -0.1163,0.341 -0.2169,0.4606 -0.1009,0.1188 -0.2381,0.2234 -0.4104,0.3124 -0.1732,0.0893 -0.3929,0.1647 -0.6599,0.2262 z m -0.0045,-2.5546 0.9051,-0.2089 c 0.2455,-0.0567 0.4184,-0.114 0.517,-0.1704 0.1315,-0.0748 0.2214,-0.1692 0.2702,-0.2832 0.0487,-0.1136 0.0567,-0.2437 0.0226,-0.3912 -0.032,-0.1394 -0.0935,-0.2542 -0.1853,-0.3441 -0.0908,-0.091 -0.203,-0.142 -0.3357,-0.1522 -0.1326,-0.0105 -0.3495,0.019 -0.6497,0.0882 l -0.837,0.1933 z m 0.4467,1.9352 1.0423,-0.2407 c 0.1797,-0.0413 0.3036,-0.0773 0.3736,-0.1077 0.1216,-0.0516 0.22,-0.1145 0.2931,-0.1879 0.0734,-0.0734 0.1256,-0.1675 0.1576,-0.2823 0.0321,-0.1154 0.0321,-0.2396 0.0012,-0.3731 -0.036,-0.1567 -0.1075,-0.2829 -0.2152,-0.3804 -0.1066,-0.0975 -0.2364,-0.1528 -0.3892,-0.1667 -0.1522,-0.0139 -0.3622,0.01 -0.6284,0.0712 l -0.9683,0.2236 z m 4.2633,-0.4952 0.1072,-4.6001 0.5887,-0.21 3.0918,3.4574 -0.6095,0.2174 -0.9056,-1.0587 -1.7039,0.6083 -9e-4,1.3827 z m 0.5706,-2.077 1.3788,-0.4923 -0.8223,-0.9709 c -0.2492,-0.2954 -0.4456,-0.5428 -0.5919,-0.7413 0.0386,0.2835 0.0567,0.5692 0.055,0.8587 z" />
</svg>
