<?xml version="1.0" encoding="UTF-8" standalone="no"?>
<svg
   xmlns:dc="http://purl.org/dc/elements/1.1/"
   xmlns:cc="http://creativecommons.org/ns#"
   xmlns:rdf="http://www.w3.org/1999/02/22-rdf-syntax-ns#"
   xmlns:svg="http://www.w3.org/2000/svg"
   xmlns="http://www.w3.org/2000/svg"
   viewBox="0 0 155.9055 155.9055"
   id="svg21"
   height="155.9055"
   width="155.9055"
   version="1.1">
  <metadata
     id="metadata27">
    <rdf:RDF>
      <cc:Work
         rdf:about="">
        <dc:format>image/svg+xml</dc:format>
        <dc:type
           rdf:resource="http://purl.org/dc/dcmitype/StillImage" />
      </cc:Work>
    </rdf:RDF>
  </metadata>
  <defs
     id="defs25" />
  <path
     id="path2"
     style="fill:none;stroke:#1b1918;stroke-width:1.13390005;stroke-linecap:butt;stroke-linejoin:miter;stroke-dasharray:none"
     d="m 77.9527,24.6613 c 29.427,0 53.2913,23.8638 53.2913,53.2908 0,29.4273 -23.8643,53.2919 -53.2913,53.2919 -29.4271,0 -53.2914,-23.8646 -53.2914,-53.2919 0,-29.427 23.8643,-53.2908 53.2914,-53.2908 z" />
  <path
     id="path4"
     style="fill:none;stroke:#1b1918;stroke-width:0.85039997;stroke-linecap:butt;stroke-linejoin:miter;stroke-dasharray:none"
     d="m 77.9527,26.9285 c 28.1749,0 51.0235,22.8492 51.0235,51.0236 0,28.1755 -22.8486,51.0239 -51.0235,51.0239 -28.175,0 -51.0236,-22.8484 -51.0236,-51.0239 0,-28.1744 22.8486,-51.0236 51.0236,-51.0236 z" />
  <path
     id="path6"
     style="fill:none;stroke:#1b1918;stroke-width:0.85039997;stroke-linecap:butt;stroke-linejoin:miter;stroke-dasharray:none"
     d="m 77.9527,37.5252 c 22.3236,0 40.4274,18.1032 40.4274,40.4269 0,22.3237 -18.1038,40.4277 -40.4274,40.4277 -22.3237,0 -40.4275,-18.104 -40.4275,-40.4277 0,-22.3237 18.1038,-40.4269 40.4275,-40.4269 z" />
  <path
     id="path8"
     style="fill:#1b1918;fill-rule:evenodd"
     d="m 48.5754,113.0675 c -0.0094,-0.157 -0.0409,-0.314 -0.096,-0.4697 -0.0797,-0.2259 -0.1195,-0.3805 -0.1195,-0.4638 0,-0.1182 0.0282,-0.2081 0.0855,-0.2706 0.0573,-0.0617 0.1264,-0.092 0.2097,-0.092 0.0703,0 0.1322,0.0303 0.1849,0.092 0.0528,0.0625 0.0785,0.1512 0.0785,0.267 0,0.1011 -0.0303,0.2439 -0.09,0.4276 -0.0609,0.1838 -0.0985,0.3537 -0.1125,0.5095 0.1264,-0.0797 0.2401,-0.1766 0.3395,-0.2918 0.1558,-0.1803 0.2718,-0.2928 0.3467,-0.3361 0.0761,-0.0433 0.1522,-0.0653 0.2307,-0.0653 0.0727,0 0.1358,0.0255 0.1885,0.0773 0.0527,0.0517 0.0785,0.1136 0.0785,0.1837 0,0.0845 -0.0375,0.1606 -0.1136,0.2259 -0.0749,0.0667 -0.2634,0.134 -0.5656,0.1991 -0.1757,0.0399 -0.3221,0.0845 -0.4392,0.135 0.1195,0.0607 0.2646,0.1078 0.4356,0.1404 0.2764,0.0505 0.4579,0.1122 0.5434,0.1883 0.0867,0.0749 0.1288,0.1584 0.1288,0.2475 0,0.0679 -0.0257,0.1274 -0.0773,0.1777 -0.0515,0.0507 -0.1112,0.0761 -0.1791,0.0761 -0.0691,0 -0.1452,-0.0242 -0.2283,-0.0725 -0.0833,-0.0481 -0.1969,-0.1558 -0.3385,-0.3221 -0.0936,-0.1125 -0.2097,-0.2177 -0.3501,-0.3158 0.0046,0.1306 0.0316,0.2724 0.0795,0.4246 0.0821,0.271 0.123,0.4535 0.123,0.5492 0,0.0941 -0.0269,0.1725 -0.0818,0.2355 -0.0552,0.0637 -0.1137,0.094 -0.1746,0.094 -0.0855,0 -0.1616,-0.0327 -0.2307,-0.0988 -0.0481,-0.048 -0.0715,-0.1249 -0.0715,-0.2307 0,-0.11 0.0258,-0.2412 0.0785,-0.3958 0.0528,-0.1546 0.0855,-0.261 0.0995,-0.3194 0.0142,-0.0577 0.0269,-0.1439 0.0375,-0.2586 -0.1346,0.0885 -0.253,0.1885 -0.3525,0.2986 -0.1675,0.1871 -0.2927,0.3067 -0.3782,0.3567 -0.0597,0.0367 -0.1206,0.0551 -0.1851,0.0551 -0.0773,0 -0.144,-0.0266 -0.1989,-0.0797 -0.0552,-0.0527 -0.0821,-0.1098 -0.0821,-0.1741 0,-0.0578 0.0233,-0.1171 0.0703,-0.1808 0.0469,-0.0629 0.117,-0.1146 0.2107,-0.1556 0.0621,-0.0281 0.2027,-0.0645 0.4216,-0.1102 0.1429,-0.0292 0.2811,-0.0737 0.4157,-0.1296 -0.124,-0.0623 -0.2716,-0.1104 -0.4425,-0.1444 -0.2812,-0.0595 -0.4555,-0.1136 -0.5212,-0.1612 -0.1031,-0.0761 -0.1546,-0.1675 -0.1546,-0.274 0,-0.0625 0.0257,-0.1194 0.0773,-0.1701 0.0515,-0.0515 0.1112,-0.0773 0.1803,-0.0773 0.0749,0 0.1546,0.0234 0.2401,0.0713 0.0842,0.0483 0.1897,0.1452 0.3151,0.2908 0.1264,0.1452 0.254,0.2574 0.384,0.3371 z" />
  <g
     id="Layer1000">
    <path
       id="path10"
       style="fill:#1b1918;fill-rule:evenodd"
       d="m 46.3558,110.7859 c -0.5749,0.5496 -1.137,0.8453 -1.688,0.887 -0.5502,0.0422 -1.0072,-0.1253 -1.3683,-0.5032 -0.2336,-0.2441 -0.377,-0.5326 -0.4317,-0.8651 -0.0542,-0.3331 -0.0063,-0.684 0.1443,-1.0534 0.1502,-0.3676 0.407,-0.7262 0.7699,-1.0732 0.4994,-0.4776 1.0148,-0.7529 1.5463,-0.8263 0.5856,-0.0808 1.0723,0.0808 1.4598,0.4859 0.3906,0.4084 0.527,0.9062 0.4093,1.4953 -0.1063,0.5331 -0.3861,1.0173 -0.8416,1.453 z m -0.3549,-0.3824 c 0.4161,-0.398 0.6503,-0.7977 0.7039,-1.2005 0.0544,-0.4025 -0.0454,-0.7359 -0.296,-0.9981 -0.2571,-0.2684 -0.5879,-0.3835 -0.9938,-0.3441 -0.4056,0.0394 -0.8337,0.2741 -1.283,0.7039 -0.2894,0.2769 -0.5037,0.572 -0.6426,0.8838 -0.1051,0.239 -0.142,0.4819 -0.1077,0.7271 0.0337,0.2458 0.1327,0.4547 0.2974,0.6267 0.2641,0.2764 0.5966,0.3943 0.9978,0.3535 0.4013,-0.0411 0.8427,-0.2917 1.324,-0.7523 z m -4.733,-1.5781 -1.5381,-1.9417 0.4292,-0.3401 1.2226,1.5431 1.1293,-0.8946 -0.5661,-0.7146 c -0.2103,-0.2656 -0.3464,-0.5003 -0.4062,-0.7035 -0.0609,-0.203 -0.0434,-0.419 0.051,-0.6478 0.0947,-0.2287 0.256,-0.4342 0.4845,-0.6151 0.2143,-0.1701 0.4445,-0.2803 0.6888,-0.3308 0.2446,-0.0499 0.4586,-0.0337 0.6429,0.0508 0.1845,0.0839 0.3824,0.2585 0.5927,0.5241 l 0.9284,1.1718 z m 2.9293,-2.969 -0.6253,-0.7894 c -0.1621,-0.2047 -0.3353,-0.3237 -0.5207,-0.3583 -0.1854,-0.0346 -0.3935,0.0385 -0.6245,0.2217 -0.1565,0.1238 -0.2594,0.2568 -0.3087,0.3996 -0.0487,0.1426 -0.0468,0.2798 0.0057,0.4128 0.0519,0.1321 0.1808,0.3279 0.3875,0.5884 l 0.4187,0.529 z m -5.4819,-0.2922 -0.2738,-0.4286 3.4727,-2.2173 -0.6769,-1.0604 -3.4727,2.2175 -0.2739,-0.4288 3.4728,-2.2173 -0.684,-1.0715 -3.4728,2.2173 -0.2738,-0.4286 3.4727,-2.2173 -0.1859,-0.2911 1.5551,-0.993 0.2421,0.379 -1.0934,0.6985 2.126,3.3295 z m 1.2113,-6.9353 -4.1661,2.1056 -1.2467,-2.467 0.4887,-0.2469 1.0173,2.0129 1.2802,-0.6469 -0.9556,-1.8909 0.4887,-0.2469 0.9556,1.8907 1.4196,-0.7175 -1.0588,-2.0945 0.489,-0.2469 z m -4.1579,-5.2826 -0.0394,-0.5306 c 0.5287,-0.0862 0.9641,-0.0437 1.3056,0.1235 0.3425,0.1687 0.5874,0.4405 0.7339,0.8161 0.1287,0.3297 0.1579,0.6441 0.0887,0.9414 -0.0697,0.2965 -0.2531,0.5888 -0.5507,0.8776 -0.2977,0.2875 -0.688,0.5261 -1.1719,0.7152 -0.4787,0.1868 -0.913,0.2699 -1.3019,0.2503 -0.3892,-0.0204 -0.7186,-0.1253 -0.987,-0.3146 -0.2685,-0.1891 -0.4638,-0.4405 -0.5868,-0.7552 -0.1344,-0.3441 -0.142,-0.6817 -0.025,-1.0122 0.118,-0.3306 0.3643,-0.6259 0.7396,-0.887 l 0.3138,0.4096 c -0.5414,0.3932 -0.7194,0.8289 -0.5329,1.3068 0.0927,0.2367 0.2338,0.4192 0.4232,0.5462 0.1896,0.1264 0.4328,0.1914 0.7308,0.1953 0.2976,0.004 0.6429,-0.0714 1.0366,-0.2253 0.5941,-0.2319 0.9995,-0.5111 1.2152,-0.8368 0.2157,-0.3257 0.2557,-0.6622 0.1199,-1.0103 -0.1003,-0.2571 -0.2784,-0.4442 -0.5343,-0.559 -0.2554,-0.1159 -0.5817,-0.1332 -0.9774,-0.051 z m 0.7906,-2.7748 -3.9657,1.1177 0.3413,1.2109 -0.5272,0.1486 -0.8221,-2.9177 0.527,-0.1486 0.3432,1.2175 3.9657,-1.1174 z m -0.6367,-2.3593 -4.5482,1.0499 -0.3234,-1.4017 c -0.0658,-0.2846 -0.074,-0.519 -0.0244,-0.7055 0.0496,-0.1854 0.1548,-0.3527 0.3166,-0.5015 0.1622,-0.1488 0.3552,-0.2491 0.5797,-0.301 0.2087,-0.0482 0.4074,-0.0462 0.5959,0.0062 0.1882,0.0536 0.3512,0.1508 0.4912,0.2934 0.0289,-0.233 0.1242,-0.4331 0.2852,-0.6007 0.1607,-0.1678 0.3804,-0.2843 0.6576,-0.3483 0.2755,-0.0635 0.5298,-0.0633 0.7645,0.0019 0.2344,0.0644 0.4193,0.1798 0.5567,0.3453 0.1381,0.167 0.2452,0.4141 0.3209,0.7424 z m -2.7504,0.1131 -0.186,-0.8065 c -0.049,-0.212 -0.0986,-0.3588 -0.1477,-0.441 -0.0728,-0.1182 -0.1689,-0.1999 -0.2877,-0.2461 -0.1185,-0.0451 -0.2665,-0.0476 -0.4431,-0.0068 -0.1629,0.0377 -0.2922,0.1009 -0.3869,0.1885 -0.0944,0.0887 -0.1502,0.1897 -0.1675,0.3039 -0.0167,0.1145 0.0051,0.3067 0.0677,0.5777 l 0.1727,0.7486 z m 2.1024,-0.4853 -0.214,-0.9272 c -0.0471,-0.2044 -0.1009,-0.3504 -0.1604,-0.4394 -0.0865,-0.1284 -0.1999,-0.2148 -0.3399,-0.2596 -0.1406,-0.0443 -0.3047,-0.0454 -0.4913,-0.0023 -0.1723,0.0397 -0.3092,0.108 -0.4127,0.2066 -0.1034,0.0976 -0.1684,0.2118 -0.1961,0.3433 -0.0275,0.1324 -0.0119,0.3249 0.0467,0.5789 l 0.199,0.8617 z m -2.334,-2.8908 c -0.7895,0.0978 -1.4168,-8e-4 -1.8837,-0.2965 -0.4665,-0.2948 -0.733,-0.7018 -0.7973,-1.2206 -0.0414,-0.3353 0.0158,-0.6522 0.1703,-0.9516 0.1554,-0.2996 0.4034,-0.5524 0.7447,-0.7591 0.3401,-0.2052 0.7602,-0.3393 1.2583,-0.4011 0.686,-0.085 1.2637,0.0023 1.7339,0.2605 0.5179,0.2849 0.8119,0.705 0.881,1.2614 0.0695,0.5607 -0.1184,1.0418 -0.5646,1.444 -0.4037,0.3643 -0.9173,0.5854 -1.5426,0.663 z m -0.0564,-0.5187 c 0.5714,-0.0706 0.9978,-0.2514 1.2812,-0.5428 0.284,-0.2903 0.4034,-0.6171 0.3586,-0.9774 -0.0456,-0.3688 -0.2424,-0.6585 -0.5916,-0.8691 -0.3489,-0.2106 -0.8325,-0.2781 -1.4493,-0.2016 -0.3977,0.0493 -0.7456,0.1582 -1.0435,0.3252 -0.227,0.1289 -0.4016,0.3018 -0.5204,0.519 -0.1199,0.2174 -0.165,0.4439 -0.1358,0.6803 0.0471,0.3796 0.2432,0.6724 0.5896,0.8793 0.3464,0.2066 0.8498,0.269 1.5112,0.1871 z m 0.2154,-8.46 0.1706,-0.5037 c 0.5205,0.1267 0.9046,0.3359 1.154,0.623 0.2495,0.2889 0.3688,0.6347 0.3572,1.0378 -0.0102,0.3538 -0.1057,0.6545 -0.2855,0.9014 -0.18,0.2458 -0.4629,0.4433 -0.8498,0.593 -0.3858,0.1486 -0.8388,0.2163 -1.3578,0.2013 -0.5136,-0.0148 -0.9459,-0.1077 -1.2966,-0.2773 -0.3503,-0.1709 -0.6125,-0.396 -0.786,-0.6749 -0.1735,-0.2789 -0.2551,-0.5868 -0.2452,-0.9244 0.0105,-0.369 0.1349,-0.6828 0.3716,-0.9416 0.2379,-0.2583 0.5797,-0.4343 1.027,-0.5281 l 0.1293,0.4994 c -0.652,0.1508 -0.9856,0.4825 -1.0004,0.9953 -0.0073,0.2543 0.0516,0.4773 0.1763,0.6681 0.1251,0.1905 0.324,0.345 0.5967,0.4649 0.2727,0.1199 0.62,0.1851 1.0423,0.1973 0.6376,0.0181 1.1197,-0.0808 1.4454,-0.2965 0.3257,-0.2157 0.4938,-0.5097 0.5046,-0.8836 0.0079,-0.2755 -0.0831,-0.5176 -0.2738,-0.7228 -0.19,-0.2067 -0.4836,-0.3498 -0.8799,-0.4286 z m -0.4224,-2.8896 c -0.7894,-0.0978 -1.3739,-0.3464 -1.7543,-0.7473 -0.3807,-0.3996 -0.5398,-0.8594 -0.4754,-1.3782 0.0414,-0.3353 0.1743,-0.6287 0.3974,-0.8813 0.2237,-0.2525 0.5258,-0.4373 0.9071,-0.5544 0.3801,-0.116 0.8203,-0.1437 1.3184,-0.0819 0.686,0.085 1.2248,0.3106 1.6177,0.6757 0.4329,0.4026 0.6154,0.8819 0.5465,1.4383 -0.0694,0.5607 -0.3687,0.9814 -0.8997,1.2626 -0.4804,0.2545 -1.0323,0.3438 -1.6577,0.2665 z m 0.0717,-0.5168 c 0.5715,0.0709 1.029,-3e-4 1.3751,-0.2137 0.3461,-0.2124 0.5417,-0.5004 0.5862,-0.8604 0.0457,-0.3687 -0.0742,-0.6978 -0.3614,-0.9873 -0.2874,-0.2894 -0.7395,-0.4725 -1.3566,-0.549 -0.3977,-0.0494 -0.7617,-0.0287 -1.0911,0.0606 -0.2517,0.0698 -0.4632,0.1948 -0.6313,0.3762 -0.1695,0.1817 -0.2687,0.3903 -0.2979,0.6267 -0.047,0.3796 0.0717,0.7115 0.3572,0.9967 0.2854,0.2849 0.7585,0.4683 1.4198,0.5502 z m -1.6608,-4.6806 0.5247,-2.2606 0.5335,0.1239 -0.4096,1.7654 4.0133,0.9315 -0.1148,0.4952 z m 5.239,-1.8912 -4.4246,-1.4877 0.4601,-1.3677 c 0.1083,-0.3223 0.2157,-0.5496 0.3243,-0.6843 0.1462,-0.1837 0.3435,-0.303 0.5924,-0.3577 0.2486,-0.055 0.5244,-0.0323 0.8249,0.0686 0.3977,0.1338 0.6877,0.3447 0.8699,0.6318 0.1832,0.2875 0.1908,0.6809 0.023,1.1793 l -0.3121,0.9289 1.8043,0.6066 z m -2.1614,-1.2634 0.3155,-0.9383 c 0.0995,-0.2954 0.1052,-0.5343 0.0173,-0.716 -0.0879,-0.182 -0.2668,-0.3178 -0.5366,-0.4085 -0.1752,-0.059 -0.3359,-0.0754 -0.483,-0.0505 -0.1483,0.0258 -0.2611,0.0785 -0.3396,0.1579 -0.0783,0.0799 -0.1593,0.2452 -0.2432,0.4947 l -0.3124,0.9289 z m 3.2329,-1.8823 -3.791,-3.0965 0.2009,-0.5049 4.9145,0.2764 -0.2143,0.538 -1.4772,-0.1145 -0.5969,1.499 1.161,0.9082 z M 36.023,61.1212 36.5077,59.904 35.1581,59.798 c -0.4144,-0.0318 -0.7478,-0.0663 -1.0003,-0.1049 0.2602,0.1573 0.5099,0.3319 0.7511,0.525 z m 3.0132,-2.0948 -4.1607,-2.1158 0.2305,-0.4532 1.7143,0.8719 0.9012,-1.7722 -1.7144,-0.872 0.2304,-0.4532 4.1607,2.1158 -0.2304,0.4532 -1.9582,-0.9958 -0.9011,1.7722 1.9581,0.9958 z m -1.9905,-6.0769 0.2475,-0.3835 3.1181,2.0111 -2.0084,-3.7323 0.2753,-0.4264 3.9226,2.5299 -0.2472,0.3836 -3.123,-2.014 2.0109,3.738 -0.2729,0.4235 z m 7.8514,-2.9517 -0.3127,0.4008 -1.4751,-1.1506 c -0.1219,0.4808 -0.2886,0.8566 -0.4989,1.1265 -0.1604,0.2055 -0.3614,0.3435 -0.6029,0.413 -0.241,0.0683 -0.476,0.0601 -0.7033,-0.0261 -0.2279,-0.0856 -0.4949,-0.2486 -0.8011,-0.4873 l -1.0828,-0.8447 0.3129,-0.4011 1.0401,0.8116 c 0.3614,0.282 0.6567,0.4283 0.8849,0.4396 0.2291,0.0119 0.4224,-0.0839 0.582,-0.2885 0.2166,-0.2778 0.371,-0.6316 0.4629,-1.0599 l -1.7992,-1.4034 0.3127,-0.4011 z m 0.6693,-0.7662 -3.3738,-3.2259 1.9102,-1.9975 0.3958,0.3784 -1.5588,1.6302 1.0369,0.9913 1.4641,-1.5313 0.3957,0.3784 -1.4641,1.5313 1.1497,1.0993 1.6217,-1.6963 0.3958,0.3784 z m 2.5877,-2.685 -3.0611,-3.524 0.3838,-0.3334 1.2614,1.4519 1.5009,-1.3039 -1.2614,-1.4519 0.3841,-0.3337 3.0612,3.5241 -0.3841,0.3336 -1.4406,-1.6586 -1.5009,1.3037 1.4405,1.6585 z m 3.0473,-2.6467 -2.7159,-3.7965 0.4136,-0.2959 1.1191,1.5642 1.6171,-1.1566 -1.1191,-1.5644 0.4136,-0.2957 2.7159,3.7965 -0.4139,0.2959 -1.2778,-1.787 -1.6172,1.1569 1.2781,1.7866 z m 2.0236,-4.2492 c -0.3988,-0.6882 -0.5533,-1.3042 -0.4637,-1.8496 0.0887,-0.5445 0.3594,-0.949 0.8118,-1.2109 0.2923,-0.1695 0.6063,-0.2407 0.9425,-0.2155 0.3362,0.0261 0.6662,0.1554 0.9896,0.3887 0.3217,0.2327 0.6097,0.5669 0.8614,1.0015 0.3462,0.5978 0.4919,1.1639 0.438,1.6973 -0.0595,0.5882 -0.3314,1.0233 -0.8167,1.3043 -0.4889,0.2831 -1.0048,0.2982 -1.5497,0.0447 -0.4929,-0.229 -0.8974,-0.6151 -1.2132,-1.1605 z m 0.4553,-0.2548 c 0.2885,0.4986 0.6216,0.8204 1.0006,0.9672 0.3781,0.148 0.7257,0.1298 1.0397,-0.0522 0.3215,-0.1862 0.5114,-0.4804 0.5687,-0.8841 0.0575,-0.4039 -0.0698,-0.8751 -0.3813,-1.4128 -0.2007,-0.3469 -0.4368,-0.6245 -0.7072,-0.8334 -0.2075,-0.1584 -0.4346,-0.2517 -0.6812,-0.2761 -0.2469,-0.0252 -0.4731,0.0216 -0.6792,0.1409 -0.3311,0.1919 -0.5238,0.487 -0.5788,0.8867 -0.0547,0.3997 0.0847,0.8875 0.4187,1.4638 z m 2.6452,-4.2644 0.4156,-0.188 1.5296,3.3806 0.3364,-4.225 0.4624,-0.2089 1.9241,4.2528 -0.4158,0.1879 -1.5318,-3.3854 -0.3374,4.231 -0.4592,0.2078 z m 1.3743,-1.8808 0.2908,-0.1318 c 0.0887,0.2619 0.0975,0.4844 0.0289,0.6678 -0.0686,0.1826 -0.1992,0.3183 -0.3923,0.4056 -0.1939,0.0876 -0.3821,0.0961 -0.5638,0.027 -0.182,-0.0703 -0.3424,-0.224 -0.4802,-0.4635 l 0.2911,-0.1318 c 0.1627,0.2415 0.3552,0.3115 0.5772,0.2112 0.1236,-0.0559 0.2069,-0.1304 0.2457,-0.2234 0.0408,-0.0921 0.0408,-0.2126 0.0026,-0.3611 z m 4.7389,1.8884 c -0.2599,-0.7517 -0.2939,-1.3861 -0.1014,-1.9043 0.1913,-0.5176 0.5343,-0.8629 1.0284,-1.0335 0.3192,-0.1103 0.6412,-0.1199 0.966,-0.0309 0.3254,0.0896 0.6242,0.2798 0.8972,0.5706 0.2715,0.29 0.4901,0.673 0.6539,1.1475 0.2257,0.6534 0.2603,1.2367 0.1055,1.7501 -0.1709,0.5661 -0.521,0.9408 -1.0511,1.1239 -0.5341,0.1846 -1.0434,0.1006 -1.5296,-0.2523 -0.4402,-0.3191 -0.7633,-0.7755 -0.9689,-1.3711 z m 0.4955,-0.163 c 0.188,0.5443 0.4533,0.9238 0.7971,1.1407 0.343,0.2174 0.6877,0.2659 1.0307,0.1477 0.3512,-0.1214 0.5939,-0.3742 0.7274,-0.7594 0.1335,-0.3853 0.0989,-0.872 -0.104,-1.4596 -0.131,-0.379 -0.3096,-0.6965 -0.5349,-0.953 -0.1735,-0.1953 -0.3788,-0.3302 -0.6157,-0.4014 -0.2376,-0.072 -0.4689,-0.0691 -0.6939,0.0085 -0.3615,0.1247 -0.6072,0.3776 -0.7376,0.7594 -0.1301,0.3819 -0.0868,0.8873 0.1309,1.5171 z m 5.4803,0.7804 -0.927,-4.0147 -1.226,0.2832 -0.1233,-0.5338 2.9537,-0.6817 0.1233,0.5335 -1.2325,0.2846 0.927,4.0144 z m 2.3918,-0.508 -0.5737,-4.6326 1.4275,-0.1769 c 0.29,-0.0357 0.5242,-0.0196 0.7044,0.0487 0.1795,0.0686 0.3348,0.1905 0.4661,0.3671 0.1312,0.1766 0.2111,0.379 0.2395,0.6075 0.0263,0.2126 0.0037,0.4102 -0.0678,0.5922 -0.0728,0.1817 -0.1865,0.3336 -0.343,0.4583 0.2288,0.0527 0.4184,0.1684 0.5684,0.3456 0.1502,0.1774 0.2432,0.4079 0.2781,0.6902 0.0348,0.2806 0.0082,0.5335 -0.0808,0.7603 -0.0882,0.2264 -0.2223,0.3985 -0.4011,0.5178 -0.1803,0.1202 -0.4374,0.201 -0.7716,0.2427 z m 0.1721,-2.7476 0.8215,-0.1018 c 0.2157,-0.0266 0.3671,-0.0606 0.4538,-0.1009 0.1253,-0.0603 0.2163,-0.1474 0.2747,-0.2608 0.057,-0.1133 0.0748,-0.2602 0.0524,-0.4402 -0.0204,-0.1658 -0.07,-0.3007 -0.1474,-0.4042 -0.0785,-0.1029 -0.1732,-0.1689 -0.2851,-0.1979 -0.112,-0.0289 -0.3053,-0.0269 -0.5814,0.0074 l -0.7623,0.0944 z m 0.2653,2.1416 0.9445,-0.1171 c 0.2081,-0.0258 0.3589,-0.064 0.4533,-0.1142 0.1369,-0.0726 0.2344,-0.1766 0.2934,-0.311 0.0586,-0.1355 0.0768,-0.2988 0.0533,-0.4887 -0.0219,-0.1754 -0.0754,-0.3186 -0.163,-0.4317 -0.0862,-0.1131 -0.1931,-0.1896 -0.3209,-0.2304 -0.129,-0.0414 -0.322,-0.0457 -0.5808,-0.0137 l -0.8776,0.1089 z m 3.3024,0.1349 -0.1338,-4.6658 2.7629,-0.0794 0.0159,0.5477 -2.2547,0.0646 0.0411,1.4338 2.1178,-0.061 0.0156,0.5477 -2.1178,0.0606 0.0456,1.59 2.346,-0.0675 0.0156,0.5474 z m 4.71,-0.0606 0.1182,-4.1185 -1.2577,-0.036 0.0156,-0.5474 3.0299,0.0868 -0.0155,0.5473 -1.2643,-0.0362 -0.1182,4.1187 z m 5.355,-1.1778 0.4855,0.2174 c -0.1757,0.5062 -0.4201,0.8691 -0.7296,1.0899 -0.311,0.2211 -0.6667,0.3073 -1.0667,0.2577 -0.3515,-0.0434 -0.6417,-0.167 -0.8705,-0.3694 -0.2276,-0.2024 -0.3977,-0.5026 -0.5102,-0.9017 -0.1114,-0.3983 -0.1358,-0.8555 -0.072,-1.3708 0.0632,-0.5103 0.1964,-0.9318 0.3985,-1.2646 0.2033,-0.3327 0.4521,-0.5726 0.7461,-0.7188 0.2939,-0.1463 0.608,-0.1987 0.9434,-0.1571 0.3665,0.0454 0.6672,0.199 0.9022,0.4593 0.2347,0.2607 0.3776,0.6179 0.4289,1.072 l -0.5094,0.0814 c -0.0887,-0.6633 -0.3872,-1.0267 -0.8963,-1.0897 -0.2526,-0.0314 -0.4802,0.006 -0.682,0.1126 -0.2013,0.1063 -0.3739,0.2897 -0.519,0.5499 -0.1452,0.2599 -0.243,0.5995 -0.2948,1.019 -0.0786,0.633 -0.0253,1.1223 0.1587,1.467 0.184,0.3447 0.4606,0.5397 0.8317,0.5856 0.2738,0.034 0.5233,-0.0337 0.7458,-0.2044 0.2234,-0.1692 0.3937,-0.4481 0.5097,-0.8353 z m 2.0627,2.0284 0.9315,-4.0135 -1.2257,-0.2844 0.1236,-0.5334 2.9528,0.6851 -0.1236,0.5335 -1.2322,-0.286 -0.9314,4.0135 z m 2.3774,0.5664 1.2663,-4.4929 1.3844,0.39 c 0.2815,0.0794 0.4907,0.1848 0.6307,0.3181 0.1386,0.1326 0.2347,0.305 0.2872,0.5187 0.0527,0.2137 0.0479,0.4312 -0.0145,0.6528 -0.0581,0.2061 -0.1556,0.3796 -0.2919,0.5196 -0.1378,0.1395 -0.3014,0.2356 -0.4938,0.2897 0.1904,0.1372 0.3203,0.3172 0.3897,0.5389 0.0698,0.2217 0.0664,0.4703 -0.0107,0.7441 -0.0766,0.2721 -0.1993,0.4949 -0.3691,0.6692 -0.1692,0.1749 -0.3595,0.2815 -0.5706,0.3223 -0.2126,0.0409 -0.4811,0.0159 -0.8051,-0.0754 z m 1.2235,-2.4661 0.7965,0.2245 c 0.2095,0.0589 0.362,0.0858 0.4578,0.0827 0.1386,-0.0073 0.2563,-0.0521 0.3541,-0.134 0.0963,-0.0825 0.1698,-0.2109 0.2188,-0.3856 0.0453,-0.161 0.0521,-0.3044 0.0207,-0.4297 -0.0323,-0.1253 -0.0941,-0.2228 -0.186,-0.2931 -0.0921,-0.0697 -0.2712,-0.1429 -0.5388,-0.2183 l -0.7396,-0.2083 z m -0.5854,2.0769 0.9159,0.258 c 0.2021,0.0569 0.3557,0.0799 0.4623,0.0705 0.1542,-0.0141 0.2846,-0.0722 0.3909,-0.1732 0.1066,-0.1023 0.1865,-0.2454 0.2384,-0.4297 0.0479,-0.1704 0.0539,-0.3231 0.0173,-0.4615 -0.0357,-0.1375 -0.1046,-0.2494 -0.2066,-0.3367 -0.1029,-0.0879 -0.2792,-0.1667 -0.5301,-0.2373 l -0.8513,-0.2401 z m 2.9628,1.4919 1.7269,-4.3368 2.5679,1.0228 -0.2027,0.5088 -2.0954,-0.8345 -0.5306,1.3326 1.9684,0.7837 -0.2027,0.5089 -1.9684,-0.7838 -0.5885,1.4777 2.1804,0.8682 -0.2026,0.5088 z m 3.4532,1.4068 2.1155,-4.161 0.4532,0.2305 -0.8716,1.7144 1.7722,0.9011 0.8716,-1.7144 0.4533,0.2305 -2.1155,4.161 -0.4533,-0.2305 0.9959,-1.9585 -1.7726,-0.9011 -0.9955,1.9585 z m 3.5858,1.851 2.5296,-3.9228 0.4272,0.2755 -1.0423,1.6163 1.671,1.0775 1.0423,-1.6164 0.4275,0.2756 -2.5296,3.9231 -0.4275,-0.2758 1.1905,-1.8462 -1.671,-1.0774 -1.1902,1.8462 z m 4.6859,0.322 c 0.4919,-0.625 1.0069,-0.9966 1.5466,-1.1151 0.5389,-0.1193 1.0148,-0.0176 1.4256,0.3056 0.2656,0.2089 0.4481,0.4745 0.549,0.7957 0.1004,0.3223 0.1024,0.6763 0.005,1.0632 -0.0969,0.3853 -0.3007,0.7764 -0.6111,1.171 -0.4275,0.5431 -0.8992,0.8878 -1.4151,1.0352 -0.5683,0.1625 -1.0729,0.0709 -1.5137,-0.2758 -0.4439,-0.3492 -0.6491,-0.8232 -0.6154,-1.423 0.0304,-0.5428 0.2396,-1.0615 0.629,-1.5568 z m 0.4054,0.3286 c -0.3563,0.4527 -0.5318,0.8813 -0.5281,1.2878 0.003,0.4059 0.148,0.7219 0.4331,0.9464 0.2923,0.2299 0.6358,0.2971 1.0321,0.201 0.3963,-0.0961 0.7869,-0.3886 1.1713,-0.877 0.248,-0.3152 0.4184,-0.6372 0.5122,-0.9655 0.0706,-0.2514 0.0729,-0.4972 0.005,-0.735 -0.0681,-0.2387 -0.1953,-0.4317 -0.3824,-0.5789 -0.3005,-0.2364 -0.6463,-0.3064 -1.0378,-0.2094 -0.3915,0.0969 -0.7931,0.407 -1.205,0.9306 z m 4.7928,4.9317 0.2597,0.4643 c -0.4428,0.3013 -0.8555,0.4465 -1.2357,0.4388 -0.3815,-0.0082 -0.7185,-0.1514 -1.0099,-0.4297 -0.2557,-0.2446 -0.415,-0.5173 -0.4777,-0.8161 -0.0621,-0.2985 -0.0193,-0.6406 0.129,-1.0281 0.1483,-0.3861 0.4014,-0.7674 0.7603,-1.143 0.3551,-0.3713 0.7137,-0.6301 1.0746,-0.7764 0.3617,-0.1457 0.7044,-0.1896 1.0275,-0.1315 0.3235,0.0581 0.6064,0.2035 0.8507,0.4371 0.267,0.2554 0.4167,0.5579 0.4499,0.9071 0.0326,0.3495 -0.0658,0.7211 -0.296,1.116 l -0.4572,-0.2387 c 0.3248,-0.5851 0.3022,-1.055 -0.0689,-1.4094 -0.1837,-0.1757 -0.3886,-0.2817 -0.614,-0.3166 -0.2253,-0.0349 -0.4734,0.0091 -0.7449,0.1315 -0.2716,0.1219 -0.5528,0.3359 -0.8447,0.6415 -0.4408,0.4609 -0.6903,0.8853 -0.7481,1.2716 -0.0584,0.3864 0.0473,0.7081 0.3175,0.9666 0.1995,0.1905 0.4399,0.2852 0.7203,0.281 0.2806,-0.0026 0.5833,-0.1245 0.9076,-0.366 z m 0.4604,2.8434 3.1212,-2.6895 -0.8212,-0.9533 0.4147,-0.3574 1.9789,2.2966 -0.415,0.3575 -0.8255,-0.9584 -3.1215,2.6895 z m 5.2602,-1.0094 0.3158,0.3986 -1.5636,1.2387 0.5658,0.7146 c 0.2078,0.2622 0.3433,0.4961 0.4053,0.7007 0.0613,0.205 0.0454,0.421 -0.0481,0.6495 -0.0939,0.2279 -0.2546,0.4328 -0.4819,0.6128 -0.2809,0.2228 -0.5911,0.3407 -0.9295,0.3526 -0.3379,0.0125 -0.6778,-0.1978 -1.0199,-0.6295 l -0.9026,-1.1396 z m -2.929,2.969 0.5746,0.7257 c 0.195,0.246 0.3877,0.3861 0.5777,0.4215 0.1902,0.0332 0.4013,-0.0411 0.6332,-0.2248 0.1525,-0.1207 0.2514,-0.2545 0.2962,-0.3994 0.0454,-0.1457 0.042,-0.2829 -0.0105,-0.4104 -0.0532,-0.1282 -0.1831,-0.3218 -0.3889,-0.5817 l -0.4203,-0.5307 z m 5.5859,0.4969 0.2549,0.44 -1.8108,1.0491 0.3756,0.6485 c 0.5899,-0.3001 1.1355,-0.4115 1.6342,-0.3325 0.4994,0.0771 0.8679,0.3206 1.1038,0.728 0.2406,0.4155 0.2661,0.8716 0.0762,1.3697 -0.1896,0.4977 -0.6151,0.9388 -1.2761,1.3215 -0.6551,0.3795 -1.2515,0.538 -1.7896,0.4742 -0.5371,-0.0629 -0.9357,-0.3169 -1.1936,-0.7622 -0.2506,-0.4329 -0.277,-0.8745 -0.0771,-1.3255 0.1987,-0.4504 0.5485,-0.8501 1.0482,-1.1988 l -0.3756,-0.6485 -1.7543,1.0162 -0.2549,-0.4399 z m -1.1625,2.6998 c -0.5093,0.295 -0.8489,0.6213 -1.0179,0.9779 -0.1695,0.3552 -0.1644,0.6891 0.0153,0.9995 0.1857,0.3206 0.4748,0.4944 0.8674,0.5219 0.3932,0.0269 0.8535,-0.1126 1.3839,-0.4199 0.5114,-0.2962 0.8546,-0.6207 1.0295,-0.9731 0.1752,-0.3526 0.1707,-0.6877 -0.0144,-1.0074 -0.1834,-0.3169 -0.4757,-0.4893 -0.8739,-0.5159 -0.3992,-0.0275 -0.8623,0.1114 -1.3899,0.417 z m 2.6096,4.8444 c 0.7407,-0.2892 1.3731,-0.3481 1.8984,-0.1766 0.5249,0.1706 0.8835,0.4997 1.0735,0.9864 0.123,0.3149 0.1454,0.6361 0.0694,0.9644 -0.0768,0.3285 -0.2548,0.6349 -0.5346,0.919 -0.2792,0.2826 -0.6534,0.5164 -1.1208,0.699 -0.6438,0.2511 -1.2254,0.309 -1.7448,0.1746 -0.572,-0.1485 -0.9606,-0.4836 -1.1644,-1.0057 -0.2055,-0.5264 -0.142,-1.0387 0.1916,-1.5384 0.3013,-0.4524 0.7447,-0.7934 1.3317,-1.0227 z m 0.1826,0.4887 c -0.5366,0.2094 -0.9054,0.4898 -1.1084,0.8418 -0.2038,0.3513 -0.2387,0.6977 -0.1069,1.0355 0.1353,0.3462 0.3975,0.5786 0.7875,0.6968 0.3903,0.1182 0.8754,0.0643 1.4545,-0.1616 0.3733,-0.146 0.6837,-0.337 0.9312,-0.5723 0.1882,-0.1808 0.3149,-0.3915 0.3764,-0.6313 0.0626,-0.2401 0.0507,-0.4708 -0.0357,-0.6928 -0.1392,-0.3563 -0.4014,-0.5918 -0.7881,-0.7069 -0.3866,-0.1148 -0.89,-0.0513 -1.5105,0.1908 z m 3.7082,2.9987 0.7577,2.1935 -0.5176,0.1788 -0.5916,-1.7127 -3.8945,1.3454 -0.1658,-0.4808 z m -3.5095,4.4107 4.5482,-1.0499 0.3245,1.4057 c 0.0766,0.3314 0.1041,0.5814 0.0822,0.7529 -0.0286,0.233 -0.1343,0.4379 -0.3174,0.6151 -0.1832,0.1771 -0.4298,0.3022 -0.7388,0.3736 -0.4087,0.0944 -0.7664,0.0666 -1.072,-0.0828 -0.3064,-0.1491 -0.519,-0.4802 -0.6372,-0.9924 l -0.2206,-0.955 -1.8547,0.4283 z m 2.5027,-0.0558 0.2225,0.9643 c 0.0703,0.3039 0.1905,0.5103 0.3606,0.6191 0.17,0.1092 0.3937,0.1313 0.6709,0.0672 0.18,-0.0417 0.3257,-0.112 0.438,-0.2103 0.1128,-0.0995 0.1814,-0.2036 0.2066,-0.3121 0.0247,-0.1092 0.007,-0.2926 -0.0518,-0.5488 l -0.2206,-0.955 z m -1.6688,3.7049 4.6324,-0.574 0.0626,0.5048 -1.9088,0.2364 0.2446,1.9732 1.9086,-0.2364 0.0626,0.5046 -4.6323,0.574 -0.0627,-0.5049 2.1801,-0.2701 -0.2443,-1.9729 -2.1801,0.2698 z m 2.8503,5.2285 c 0.782,-0.0227 1.3782,0.0657 1.7872,0.2645 0.409,0.1992 0.6199,0.504 0.6318,0.9144 0.0105,0.364 -0.1442,0.6554 -0.4651,0.8745 -0.3878,0.2656 -1.0154,0.4107 -1.8819,0.4357 -0.7787,0.0224 -1.3737,-0.0649 -1.7839,-0.2628 -0.4099,-0.1978 -0.6211,-0.5037 -0.633,-0.9164 -0.0104,-0.364 0.1593,-0.6665 0.5089,-0.9094 0.3492,-0.2415 0.9618,-0.3756 1.836,-0.4005 z m 0.0153,0.4822 c -0.7583,0.0218 -1.2654,0.1094 -1.5188,0.2607 -0.2543,0.1523 -0.3782,0.3416 -0.3717,0.5675 0.006,0.2141 0.1418,0.3884 0.4077,0.525 0.2656,0.1361 0.7741,0.1931 1.5267,0.1715 0.7611,-0.0221 1.2674,-0.1091 1.5205,-0.2611 0.2531,-0.1519 0.3762,-0.3435 0.3694,-0.574 -0.006,-0.2117 -0.1415,-0.3849 -0.4074,-0.5196 -0.2659,-0.1346 -0.7741,-0.1919 -1.5264,-0.17 z m 0.0745,2.9094 c 0.7801,0.0593 1.3638,0.2095 1.7496,0.4502 0.386,0.2409 0.5638,0.5661 0.5326,0.9754 -0.0275,0.3631 -0.2118,0.6366 -0.5539,0.8209 -0.4136,0.2236 -1.0528,0.3024 -1.9174,0.2364 -0.7766,-0.059 -1.3592,-0.2081 -1.7464,-0.4479 -0.3872,-0.2395 -0.5649,-0.5658 -0.5335,-0.9776 0.0275,-0.3629 0.2279,-0.6461 0.601,-0.8513 0.3727,-0.2035 0.9958,-0.2727 1.868,-0.2061 z m -0.0354,0.4811 c -0.7566,-0.0576 -1.2699,-0.0236 -1.5378,0.1006 -0.2687,0.1247 -0.4116,0.3002 -0.4289,0.5255 -0.0161,0.2135 0.1004,0.4011 0.3504,0.5647 0.25,0.163 0.7497,0.273 1.5003,0.3302 0.7597,0.0576 1.2722,0.0239 1.5398,-0.1006 0.2676,-0.1247 0.4099,-0.3024 0.4275,-0.5321 0.0159,-0.2111 -0.1006,-0.3977 -0.3509,-0.5595 -0.2503,-0.1616 -0.7498,-0.2716 -1.5004,-0.3288 z m -0.199,2.768 c 0.7764,0.0964 1.3521,0.2738 1.7263,0.5323 0.3742,0.2591 0.5366,0.5922 0.4861,0.9998 -0.0448,0.3612 -0.2418,0.6259 -0.5921,0.7937 -0.4238,0.2038 -1.0659,0.2523 -1.9264,0.1457 -0.7731,-0.0958 -1.3479,-0.2721 -1.7232,-0.53 -0.3756,-0.2577 -0.5378,-0.5919 -0.487,-1.0018 0.0448,-0.3611 0.2582,-0.6347 0.6406,-0.8218 0.3821,-0.1856 1.0074,-0.2253 1.8757,-0.1179 z m -0.0581,0.4791 c -0.7529,-0.0933 -1.2674,-0.0837 -1.5409,0.0277 -0.2741,0.1117 -0.4255,0.2804 -0.4533,0.5046 -0.0261,0.2126 0.0814,0.4054 0.3234,0.5808 0.2421,0.1746 0.7359,0.3081 1.4831,0.4006 0.756,0.0935 1.2697,0.0841 1.5426,-0.0278 0.2733,-0.1117 0.4238,-0.2824 0.4522,-0.5111 0.026,-0.2101 -0.0817,-0.402 -0.324,-0.5754 -0.2424,-0.1735 -0.7359,-0.307 -1.4831,-0.3994 z m -0.385,2.7694 c 0.7696,0.14 1.3346,0.3501 1.6932,0.6296 0.3588,0.2798 0.502,0.6216 0.4286,1.0256 -0.0652,0.358 -0.277,0.6111 -0.6364,0.7588 -0.4346,0.1794 -1.0783,0.1913 -1.9315,0.036 -0.7662,-0.1395 -1.3303,-0.3481 -1.6903,-0.627 -0.3603,-0.2784 -0.5032,-0.6214 -0.4292,-1.0279 0.0652,-0.358 0.294,-0.6188 0.686,-0.784 0.392,-0.1636 1.019,-0.1678 1.8796,-0.0111 z m -0.0853,0.4748 c -0.7463,-0.1358 -1.2606,-0.1553 -1.5398,-0.0595 -0.2803,0.0958 -0.4408,0.2557 -0.4813,0.4779 -0.0383,0.2106 0.0581,0.4093 0.29,0.5984 0.2316,0.1879 0.7172,0.3492 1.4579,0.4839 0.7494,0.1366 1.2625,0.1562 1.5417,0.0601 0.2792,-0.0961 0.4391,-0.258 0.4805,-0.4848 0.038,-0.2083 -0.0587,-0.4059 -0.2908,-0.593 -0.2322,-0.1868 -0.7175,-0.3481 -1.4582,-0.483 z m -0.5805,2.8253 c 0.7529,0.212 1.2954,0.4745 1.6262,0.7866 0.3308,0.3121 0.4411,0.6662 0.3297,1.0613 -0.0987,0.3504 -0.3334,0.5822 -0.7053,0.6956 -0.4495,0.1375 -1.0916,0.0885 -1.9261,-0.1468 -0.7498,-0.2112 -1.2915,-0.4723 -1.6237,-0.7838 -0.3322,-0.3112 -0.4422,-0.6661 -0.3302,-1.0638 0.0989,-0.3501 0.3512,-0.5882 0.7571,-0.7158 0.4056,-0.1258 1.0301,-0.0706 1.8723,0.1667 z m -0.1298,0.4646 c -0.7303,-0.2058 -1.2402,-0.2738 -1.5274,-0.2049 -0.288,0.0691 -0.4629,0.2131 -0.5241,0.4305 -0.0581,0.2058 0.019,0.413 0.2319,0.6228 0.2129,0.2092 0.6812,0.4156 1.4057,0.6197 0.7333,0.2066 1.2424,0.2746 1.5293,0.2052 0.2869,-0.0692 0.4615,-0.2152 0.5241,-0.4371 0.0573,-0.2038 -0.0201,-0.4096 -0.2336,-0.6177 -0.2134,-0.208 -0.6814,-0.4144 -1.4059,-0.6185 z m -0.7816,2.6674 c 0.7416,0.2494 1.2705,0.5386 1.5855,0.8666 0.3146,0.3285 0.4073,0.6874 0.2763,1.0766 -0.1159,0.3449 -0.3619,0.5649 -0.739,0.6596 -0.4558,0.1148 -1.0944,0.034 -1.9165,-0.2424 -0.7384,-0.2483 -1.2662,-0.5357 -1.5825,-0.8634 -0.3164,-0.3274 -0.4085,-0.6874 -0.277,-1.0789 0.1159,-0.345 0.3799,-0.5703 0.7917,-0.6772 0.4116,-0.1057 1.0324,-0.0195 1.8615,0.2591 z m -0.1525,0.4578 c -0.7191,-0.2418 -1.2251,-0.3351 -1.5154,-0.2804 -0.2911,0.0545 -0.4728,0.1897 -0.5448,0.4037 -0.0683,0.203 -0.001,0.4136 0.2007,0.6338 0.2024,0.2191 0.6596,0.4488 1.3731,0.6886 0.722,0.2429 1.2271,0.3362 1.5174,0.2812 0.29,-0.055 0.4714,-0.1922 0.5451,-0.4108 0.0675,-0.2007 3e-4,-0.4102 -0.2027,-0.6284 -0.2029,-0.2183 -0.6599,-0.4476 -1.3734,-0.6877 z m -0.9867,2.7187 c 0.7138,0.3209 1.2115,0.6602 1.4927,1.0176 0.2812,0.3575 0.3382,0.7237 0.1698,1.0985 -0.1491,0.3319 -0.4155,0.5266 -0.7999,0.5839 -0.4649,0.0697 -1.0928,-0.0731 -1.8836,-0.4286 -0.7104,-0.3195 -1.2076,-0.6573 -1.4905,-1.0145 -0.2826,-0.3569 -0.3393,-0.724 -0.1698,-1.1007 0.1491,-0.3319 0.4337,-0.5304 0.8544,-0.5964 0.4198,-0.0649 1.0292,0.0816 1.8269,0.4402 z m -0.1967,0.4405 c -0.692,-0.311 -1.1863,-0.4535 -1.4806,-0.4275 -0.295,0.0258 -0.4892,0.1426 -0.5816,0.3487 -0.0879,0.195 -0.042,0.411 0.1377,0.6503 0.1797,0.2378 0.6123,0.5111 1.2991,0.8198 0.6948,0.3123 1.1883,0.4546 1.4823,0.4283 0.2939,-0.0264 0.4881,-0.1452 0.5828,-0.3555 0.0867,-0.193 0.0405,-0.4082 -0.14,-0.6452 -0.1806,-0.2372 -0.6129,-0.5102 -1.2997,-0.8189 z m -1.1611,2.522 c 0.6973,0.3546 1.1784,0.7174 1.4423,1.0879 0.2636,0.3708 0.303,0.7393 0.1168,1.1053 -0.165,0.3245 -0.4403,0.5062 -0.8269,0.5451 -0.4677,0.0473 -1.0879,-0.1256 -1.861,-0.5185 -0.6942,-0.3532 -1.1749,-0.7146 -1.44,-1.0848 -0.2653,-0.3699 -0.3041,-0.7396 -0.117,-1.1075 0.165,-0.3246 0.4589,-0.5091 0.8818,-0.555 0.4227,-0.0445 1.0242,0.1309 1.804,0.5275 z m -0.2177,0.4306 c -0.6761,-0.3439 -1.1631,-0.51 -1.4581,-0.4981 -0.296,0.0117 -0.4955,0.1188 -0.5979,0.3203 -0.0972,0.1908 -0.0618,0.4088 0.1063,0.656 0.1684,0.2466 0.5874,0.54 1.2583,0.8813 0.6789,0.3452 1.1654,0.5111 1.4602,0.4989 0.295,-0.0122 0.4946,-0.1216 0.5989,-0.3269 0.0961,-0.1888 0.0601,-0.4059 -0.1088,-0.6514 -0.169,-0.2454 -0.5877,-0.5388 -1.2589,-0.8801 z m -1.3714,2.5574 c 0.6574,0.4241 1.0987,0.8342 1.3235,1.2297 0.2245,0.3957 0.2259,0.7662 0.003,1.1114 -0.197,0.3059 -0.4895,0.4587 -0.8782,0.4575 -0.4702,-5e-4 -1.0695,-0.2358 -1.7983,-0.7058 -0.6545,-0.4224 -1.0955,-0.8308 -1.3218,-1.2263 -0.2259,-0.3951 -0.2267,-0.7667 -0.003,-1.1137 0.1973,-0.3058 0.5086,-0.4595 0.934,-0.4618 0.425,-0.001 1.0055,0.2348 1.7408,0.709 z m -0.2605,0.4062 c -0.6375,-0.4113 -1.1052,-0.6262 -1.4,-0.6446 -0.2954,-0.0184 -0.5049,0.0677 -0.6273,0.2577 -0.116,0.1797 -0.1032,0.4002 0.0388,0.6636 0.142,0.2622 0.5289,0.5969 1.1616,1.0051 0.6401,0.4127 1.107,0.6273 1.4015,0.6455 0.2948,0.0178 0.5045,-0.0703 0.6293,-0.2642 0.1148,-0.178 0.1012,-0.3974 -0.0417,-0.6591 -0.1431,-0.2613 -0.5295,-0.5961 -1.1622,-1.004 z" />
    <path
       id="path12"
       style="fill:#1b1918;fill-rule:evenodd"
       d="m 115.4302,103.8657 c 0.6372,0.4538 1.0593,0.8841 1.2654,1.2894 0.206,0.4057 0.1902,0.7759 -0.0479,1.1104 -0.2112,0.2965 -0.5103,0.4357 -0.8986,0.4167 -0.4694,-0.0221 -1.0574,-0.2849 -1.7637,-0.7881 -0.6344,-0.4518 -1.0562,-0.8804 -1.2637,-1.2858 -0.2078,-0.405 -0.1917,-0.7764 0.0479,-1.1126 0.2112,-0.2965 0.5292,-0.4356 0.9544,-0.4183 0.4243,0.0181 0.9935,0.2809 1.7062,0.7883 z m -0.2792,0.3937 c -0.6177,-0.4399 -1.0749,-0.6763 -1.3686,-0.7081 -0.2942,-0.0323 -0.5074,0.0442 -0.6387,0.2282 -0.1241,0.1743 -0.1213,0.3951 0.008,0.6647 0.1301,0.2685 0.5009,0.6208 1.1143,1.0576 0.6202,0.4419 1.0766,0.6778 1.3702,0.7093 0.2934,0.0317 0.5072,-0.0471 0.6407,-0.2348 0.123,-0.1723 0.1196,-0.3923 -0.0114,-0.6601 -0.1307,-0.2679 -0.5014,-0.62 -1.1148,-1.0568 z m -1.7159,2.3224 c 0.5911,0.5128 0.9701,0.9811 1.1365,1.4046 0.1661,0.4232 0.115,0.7906 -0.154,1.1007 -0.2386,0.2749 -0.5496,0.3846 -0.9343,0.3288 -0.4651,-0.0672 -1.0253,-0.3849 -1.6801,-0.9533 -0.5884,-0.5105 -0.9674,-0.9774 -1.1352,-1.4006 -0.1678,-0.4232 -0.1163,-0.7911 0.1545,-1.1032 0.2384,-0.2747 0.5683,-0.3827 0.9898,-0.3252 0.4207,0.059 0.9621,0.3748 1.6228,0.9482 z m -0.3152,0.3651 c -0.5731,-0.4972 -1.0054,-0.7758 -1.2945,-0.8359 -0.29,-0.0601 -0.5097,-0.005 -0.6577,0.1661 -0.1403,0.1619 -0.1587,0.3818 -0.0553,0.6625 0.1035,0.2797 0.4391,0.6661 1.0078,1.1593 0.5754,0.4992 1.0068,0.7779 1.296,0.8374 0.2891,0.0592 0.5093,0.002 0.6604,-0.1724 0.1386,-0.1601 0.1565,-0.3792 0.0519,-0.6585 -0.1046,-0.2792 -0.4399,-0.665 -1.0086,-1.1585 z m -1.8422,2.0775 c 0.5655,0.5409 0.9213,1.027 1.0672,1.4579 0.1455,0.4309 0.0769,0.7951 -0.2069,1.0919 -0.2514,0.2631 -0.5675,0.3577 -0.949,0.2835 -0.4615,-0.0896 -1.0055,-0.434 -1.6322,-1.0333 -0.5633,-0.5383 -0.919,-1.023 -1.0661,-1.4538 -0.1474,-0.4309 -0.0783,-0.796 0.2072,-1.0945 0.2517,-0.2631 0.5862,-0.3549 1.0046,-0.277 0.4172,0.0791 0.9428,0.421 1.5752,1.0253 z m -0.3328,0.3496 c -0.5482,-0.5242 -0.9666,-0.8235 -1.2526,-0.8975 -0.2869,-0.074 -0.5086,-0.0289 -0.6647,0.1344 -0.148,0.1547 -0.1769,0.3736 -0.0873,0.659 0.0898,0.2843 0.4064,0.6863 0.9507,1.2067 0.5505,0.5261 0.968,0.8252 1.254,0.8986 0.2861,0.0734 0.5089,0.0264 0.6679,-0.1403 0.1465,-0.1531 0.1746,-0.3711 0.0836,-0.6551 -0.091,-0.2837 -0.4073,-0.6854 -0.9516,-1.2058 z" />
  </g>
  <path
     id="path15"
     style="fill:#1b1918;fill-rule:evenodd"
     d="m 48.9591,76.14 -0.6097,2.1078 0.6097,2.0931 H 48.3494 L 47.2465,78.2478 48.3494,76.14 Z m -1.7126,0 -0.6486,2.1078 0.6486,2.0931 H 46.5979 L 45.5477,78.2478 46.5979,76.14 Z m 6.6767,5.9593 C 52.7108,82.097 51.7654,81.6035 51.0894,80.6165 50.4159,79.6269 50.078,78.4066 50.078,76.9533 c 0,-1.4434 0.3583,-2.651 1.0754,-3.6207 0.7192,-0.9723 1.6668,-1.4585 2.8429,-1.4585 1.1872,0 2.1257,0.4862 2.8134,1.4585 0.6894,0.9697 1.0341,2.1849 1.0341,3.6431 0,1.5301 -0.3586,2.7677 -1.0732,3.7102 -0.7169,0.9423 -1.6645,1.4111 -2.8474,1.4134 z m 0.0136,-1.4409 c 0.5938,0 1.0939,-0.2653 1.5049,-0.7985 0.411,-0.5332 0.6165,-1.4978 0.6165,-2.899 0,-1.1384 -0.1712,-2.0313 -0.5093,-2.6762 -0.3379,-0.6471 -0.8655,-0.9697 -1.5775,-0.9697 -1.4114,0 -2.1147,1.2328 -2.1147,3.6978 0,1.1954 0.178,2.103 0.5389,2.7207 0.3583,0.6174 0.8722,0.9249 1.5412,0.9249 z m 5.4394,1.2872 v -9.9175 h 5.7175 v 1.4383 h -4.0734 v 2.5866 h 1.58 c 0.7971,0 1.4292,0.0745 1.893,0.2259 0.4635,0.1485 0.8424,0.4686 1.1395,0.9595 0.2965,0.4887 0.4451,1.0664 0.4451,1.7362 0,0.8853 -0.2557,1.6022 -0.7696,2.1501 -0.5114,0.5482 -1.2626,0.8209 -2.2468,0.8209 z m 1.6441,-1.54 h 1.8405 c 1.0296,0 1.5458,-0.4986 1.5458,-1.4981 0,-0.4116 -0.1143,-0.7538 -0.3428,-1.0267 -0.2259,-0.2753 -0.6848,-0.4116 -1.3699,-0.4116 h -1.6736 z m 8.2088,1.54 h -1.6438 v -9.9175 h 3.7378 c 1.0661,0 1.8564,0.2925 2.3723,0.8753 0.5136,0.5828 0.7719,1.2722 0.7719,2.0659 0,0.9076 -0.2784,1.6418 -0.8357,2.2022 -0.5573,0.563 -1.2651,0.8433 -2.1214,0.8433 h -2.2811 z m 0,-5.4635 h 1.948 c 0.5068,0 0.8949,-0.1363 1.1619,-0.4067 0.2696,-0.2727 0.402,-0.6324 0.402,-1.0837 0,-0.4068 -0.1233,-0.754 -0.3699,-1.0466 -0.2489,-0.2902 -0.6965,-0.434 -1.3425,-0.434 h -1.7995 z m 13.125,5.4635 h -1.758 l -0.7308,-2.3609 h -3.5119 l -0.7148,2.3609 h -1.404 l 3.0299,-9.9175 h 2.0254 z m -2.9296,-3.7919 -1.3309,-4.4268 -1.3314,4.4268 z m 3.1649,0.9003 1.5117,-0.2752 c 0.2217,1.2549 0.9159,1.8796 2.0803,1.8796 0.6279,0 1.0846,-0.1562 1.3678,-0.4685 0.2831,-0.3127 0.4246,-0.6996 0.4246,-1.1656 0,-1.0367 -0.5253,-1.5551 -1.5778,-1.5551 h -0.7968 v -1.3071 h 0.7214 c 0.4522,0 0.8082,-0.129 1.0755,-0.3892 0.265,-0.2579 0.3971,-0.6077 0.3971,-1.0491 0,-0.4365 -0.1505,-0.7812 -0.4473,-1.0318 -0.2993,-0.2529 -0.6896,-0.377 -1.1715,-0.377 -1.0891,0 -1.7195,0.5408 -1.893,1.6271 l -1.459,-0.2407 c 0.3127,-1.8847 1.4545,-2.8273 3.4251,-2.8273 0.9955,0 1.7833,0.2506 2.3655,0.7541 0.5822,0.5008 0.8722,1.1259 0.8722,1.8773 0,1.0837 -0.5502,1.808 -1.6529,2.1725 1.2807,0.2903 1.9202,1.069 1.9202,2.3312 0,0.8581 -0.3038,1.5874 -0.9088,2.1875 -0.6071,0.6001 -1.4794,0.9003 -2.6166,0.9026 C 85.1309,82.097 84.27,81.8218 83.649,81.2662 83.0256,80.7106 82.6739,79.9741 82.5894,79.054 Z m 14.5613,2.8916 h -5.9321 v -9.9175 h 5.8728 v 1.4754 h -4.2287 v 2.6884 h 3.3976 v 1.4386 h -3.3976 v 2.7751 h 4.288 z m 1.512,0 v -9.9175 h 1.6463 v 8.3775 h 3.2514 v -8.3775 h 1.6395 v 8.3775 h 1.1509 v 3.6258 h -1.1373 l -0.2009,-2.0858 z m 8.2839,-5.7909 h 0.6279 l 1.0709,2.1229 -1.0709,2.0486 h -0.6279 l 0.6279,-2.0486 z m 1.6988,0 h 0.6282 l 1.0843,2.1229 -1.0843,2.0486 h -0.6282 l 0.6282,-2.0486 z" />
  <path
     id="path17"
     style="fill:#1b1918;fill-rule:evenodd"
     d="m 49.9272,117.4337 2.6149,-4.0201 1.5177,0.9873 c 0.2668,0.1735 0.4623,0.3192 0.5873,0.4363 0.1761,0.1613 0.3008,0.3316 0.3751,0.5105 0.0737,0.1797 0.0975,0.379 0.0708,0.5975 -0.0263,0.2186 -0.1048,0.4272 -0.2344,0.6265 -0.2217,0.3407 -0.5184,0.5593 -0.8895,0.6531 -0.3713,0.0958 -0.8419,-0.0428 -1.4111,-0.4127 l -1.0312,-0.671 -1.0664,1.6396 z m 1.9063,-1.7643 1.0389,0.6758 c 0.3444,0.2239 0.629,0.3186 0.8577,0.2849 0.2274,-0.0346 0.4162,-0.1675 0.5678,-0.4006 0.1092,-0.1675 0.1607,-0.3387 0.1534,-0.5139 -0.0074,-0.1752 -0.0678,-0.3277 -0.1812,-0.4564 -0.0748,-0.0816 -0.2324,-0.2015 -0.4728,-0.358 l -1.0287,-0.6692 z m 2.5699,1.9894 c 0.3571,-0.7101 0.8285,-1.1705 1.4128,-1.3802 0.5839,-0.2101 1.1775,-0.1627 1.7818,0.1411 0.396,0.199 0.7044,0.4732 0.9278,0.8215 0.2225,0.3478 0.3325,0.7331 0.3288,1.1549 -0.0028,0.4209 -0.1114,0.8458 -0.3265,1.2739 -0.2183,0.4339 -0.5018,0.7786 -0.8493,1.0326 -0.3481,0.2548 -0.7268,0.3892 -1.1361,0.4034 -0.411,0.0144 -0.8022,-0.072 -1.1741,-0.2591 -0.4043,-0.2032 -0.7149,-0.4819 -0.9355,-0.8365 -0.2194,-0.3538 -0.3271,-0.7407 -0.3214,-1.1599 0.0054,-0.4184 0.1026,-0.8156 0.2917,-1.1917 z m 0.5816,0.3047 c -0.2593,0.5156 -0.3248,0.9913 -0.1964,1.427 0.1284,0.4359 0.4017,0.7596 0.8206,0.9703 0.4266,0.2143 0.8524,0.2409 1.279,0.0805 0.4258,-0.1608 0.777,-0.5165 1.0537,-1.0673 0.1751,-0.3478 0.2692,-0.6817 0.282,-1.0003 0.0125,-0.3186 -0.0587,-0.6066 -0.2134,-0.8632 -0.1557,-0.2568 -0.3739,-0.4566 -0.6563,-0.5987 -0.4008,-0.2015 -0.8152,-0.2372 -1.2427,-0.1077 -0.4277,0.1301 -0.803,0.5162 -1.1265,1.1594 z m 7.0093,3.9027 0.53,0.3872 c -0.3186,0.4337 -0.6885,0.7115 -1.1109,0.836 -0.4223,0.1247 -0.8648,0.0941 -1.3277,-0.0927 -0.4782,-0.193 -0.828,-0.4479 -1.0491,-0.7645 -0.2217,-0.3158 -0.3353,-0.6908 -0.3421,-1.1234 -0.0071,-0.4334 0.0745,-0.8617 0.246,-1.2863 0.1868,-0.4627 0.4377,-0.8309 0.754,-1.1039 0.3161,-0.2735 0.6732,-0.4337 1.0721,-0.4813 0.398,-0.0473 0.7934,0.009 1.1846,0.1667 0.445,0.1797 0.7733,0.4439 0.9839,0.7923 0.2117,0.3495 0.2945,0.7523 0.248,1.2104 L 62.5507,120.31 c 0.0278,-0.3642 -0.0269,-0.661 -0.1636,-0.8869 -0.1357,-0.2271 -0.3523,-0.4 -0.6494,-0.5202 -0.3404,-0.1375 -0.6593,-0.1706 -0.9541,-0.0998 -0.2948,0.0712 -0.5454,0.2265 -0.7486,0.4646 -0.205,0.2387 -0.3666,0.5046 -0.4848,0.7977 -0.1525,0.3776 -0.231,0.7299 -0.2352,1.0559 -0.0043,0.3271 0.0819,0.606 0.2573,0.8396 0.1752,0.2333 0.3977,0.404 0.6679,0.5131 0.3291,0.1326 0.6452,0.1494 0.9493,0.0519 0.3047,-0.0984 0.5729,-0.3175 0.8048,-0.6597 z m 4.4492,1.3439 0.5698,0.3257 c -0.2679,0.4666 -0.6044,0.7841 -1.0103,0.955 -0.4056,0.171 -0.8487,0.1902 -1.3297,0.0562 -0.4966,-0.1384 -0.8728,-0.3524 -1.1282,-0.6424 -0.2554,-0.2888 -0.4105,-0.6485 -0.4654,-1.0777 -0.0553,-0.43 -0.0224,-0.8649 0.1006,-1.3059 0.1338,-0.4805 0.3418,-0.8745 0.6256,-1.1812 0.2837,-0.3073 0.6208,-0.5063 1.0114,-0.5981 0.3906,-0.0916 0.7894,-0.0803 1.1962,0.0331 0.4623,0.1287 0.8178,0.3544 1.0664,0.6772 0.2495,0.3235 0.3767,0.7146 0.3818,1.1747 l -0.6395,-0.0249 c -0.013,-0.3654 -0.1006,-0.654 -0.2616,-0.8635 -0.1602,-0.2103 -0.3949,-0.358 -0.7036,-0.4439 -0.3537,-0.0986 -0.6743,-0.0961 -0.9595,0.007 -0.2849,0.1037 -0.5165,0.286 -0.6916,0.5454 -0.1772,0.2602 -0.3079,0.5425 -0.3926,0.847 -0.1095,0.3923 -0.1477,0.7512 -0.1154,1.0757 0.0323,0.3252 0.1488,0.593 0.3492,0.8053 0.2004,0.2124 0.4405,0.3569 0.7214,0.4352 0.3419,0.0952 0.6577,0.0765 0.9491,-0.0545 0.2919,-0.1318 0.5335,-0.3795 0.7259,-0.7458 z m 1.8221,-2.7357 0.5664,0.106 -0.6993,3.733 3.2088,-3.2627 0.6177,0.1157 -0.8833,4.714 -0.5661,-0.1063 0.6976,-3.723 -3.2003,3.2541 -0.6245,-0.1168 z m 7.6286,5.8221 0.3643,-4.782 -2.1192,-0.1616 c -0.4266,-0.0323 -0.7526,-0.0133 -0.9808,0.0553 -0.2279,0.0688 -0.4167,0.2069 -0.5655,0.4138 -0.1491,0.2069 -0.2339,0.4422 -0.254,0.705 -0.0258,0.3396 0.0627,0.6338 0.2639,0.8833 0.2016,0.2491 0.529,0.422 0.9825,0.5204 -0.174,0.0672 -0.307,0.1378 -0.4,0.2089 -0.1972,0.1554 -0.3883,0.3546 -0.5714,0.597 l -0.9264,1.2396 0.7903,0.0601 0.7081,-0.9471 c 0.2058,-0.2744 0.375,-0.4819 0.5057,-0.6253 0.1318,-0.1434 0.2469,-0.2409 0.3458,-0.2951 0.0981,-0.0527 0.1985,-0.0879 0.298,-0.1049 0.0725,-0.009 0.1899,-0.008 0.3537,0.005 l 0.7322,0.0558 -0.1616,2.124 z m -0.4308,-2.7198 -1.3584,-0.1035 c -0.2891,-0.0221 -0.5116,-0.0692 -0.6695,-0.1417 -0.1582,-0.0715 -0.2744,-0.1764 -0.3478,-0.3152 -0.0746,-0.1381 -0.1063,-0.2838 -0.0944,-0.4383 0.0173,-0.2262 0.1128,-0.4068 0.2877,-0.5403 0.1746,-0.1332 0.4385,-0.1859 0.7911,-0.159 l 1.5117,0.1151 z m 1.5576,2.7399 0.0224,-0.6695 0.6695,0.0227 -0.0226,0.6692 c -0.0083,0.2466 -0.0584,0.4448 -0.1517,0.5936 -0.0921,0.1491 -0.2355,0.2625 -0.4292,0.3385 l -0.1522,-0.2594 c 0.1267,-0.0505 0.2211,-0.1279 0.2826,-0.2308 0.063,-0.104 0.1015,-0.2548 0.1148,-0.4532 z m 3.6349,0.0261 -0.5661,-4.7625 0.9448,-0.1122 1.5267,3.2371 c 0.1415,0.3016 0.2449,0.5276 0.311,0.6784 0.0337,-0.1795 0.089,-0.4448 0.1641,-0.794 l 0.7526,-3.4489 0.8439,-0.1004 0.5661,4.7625 -0.6055,0.072 -0.4734,-3.9841 -0.9167,4.1494 -0.5678,0.0674 -1.8564,-3.8939 0.4822,4.0572 z m 4.8438,-2.8876 c -0.1788,-0.7745 -0.1103,-1.4298 0.2052,-1.9645 0.3155,-0.5343 0.8025,-0.8773 1.4613,-1.0292 0.432,-0.0998 0.8444,-0.0859 1.2387,0.0394 0.3935,0.1256 0.7243,0.3518 0.9908,0.6786 0.2667,0.3257 0.4543,0.7223 0.5621,1.1891 0.1094,0.4731 0.1114,0.9196 0.0062,1.3369 -0.1052,0.4183 -0.3107,0.7636 -0.6168,1.036 -0.3067,0.2736 -0.663,0.4567 -1.069,0.5505 -0.4408,0.1018 -0.8577,0.0856 -1.254,-0.0462 -0.3946,-0.1324 -0.7248,-0.3611 -0.9882,-0.6874 -0.2627,-0.3254 -0.4416,-0.6931 -0.5363,-1.1032 z m 0.6421,-0.137 c 0.1298,0.5624 0.3829,0.9703 0.7602,1.2235 0.377,0.2534 0.7943,0.3279 1.2509,0.2225 0.4655,-0.1074 0.8099,-0.3589 1.0358,-0.7549 0.2248,-0.3957 0.2679,-0.8937 0.1293,-1.4941 -0.0876,-0.3796 -0.2285,-0.6968 -0.4221,-0.9499 -0.1939,-0.2531 -0.4326,-0.4295 -0.7155,-0.5278 -0.2837,-0.0984 -0.5791,-0.1128 -0.8872,-0.0417 -0.4371,0.1009 -0.779,0.3382 -1.025,0.7109 -0.2463,0.3731 -0.2883,0.91 -0.1264,1.6115 z m 7.8122,-1.5139 0.6534,-0.0621 c 0.0499,0.5354 -0.0422,0.989 -0.2755,1.3626 -0.2333,0.3733 -0.5845,0.6443 -1.0545,0.8118 -0.4858,0.1729 -0.9167,0.2149 -1.2923,0.1248 -0.3753,-0.089 -0.7092,-0.2937 -1.0015,-0.6129 -0.2931,-0.3195 -0.5165,-0.6939 -0.6701,-1.1253 -0.1672,-0.47 -0.2242,-0.912 -0.1689,-1.3261 0.055,-0.4144 0.2157,-0.7713 0.4821,-1.0715 0.2665,-0.2999 0.5993,-0.5204 0.997,-0.6619 0.4521,-0.161 0.8725,-0.1814 1.2617,-0.0606 0.3903,0.1207 0.7197,0.367 0.989,0.7404 l -0.5372,0.3478 c -0.2211,-0.2911 -0.4589,-0.4768 -0.7112,-0.555 -0.2523,-0.0797 -0.5289,-0.0652 -0.8311,0.0422 -0.3458,0.1233 -0.6063,0.3098 -0.7798,0.559 -0.1732,0.2486 -0.2574,0.5312 -0.2514,0.8441 0.0053,0.3147 0.0609,0.6208 0.1672,0.9185 0.1366,0.3838 0.3118,0.6993 0.5253,0.9459 0.2137,0.2472 0.4634,0.3988 0.7494,0.4569 0.2861,0.0581 0.5658,0.038 0.8402,-0.0598 0.3342,-0.119 0.5817,-0.3163 0.7444,-0.5913 0.1627,-0.2758 0.2177,-0.6177 0.1638,-1.0275 z m -0.0504,-3.2443 0.5797,-0.2622 0.8671,1.9162 c 0.2633,-0.1193 0.4258,-0.2554 0.4864,-0.4065 0.061,-0.1516 0.0859,-0.4595 0.0763,-0.9252 -0.0094,-0.343 -0.0012,-0.5902 0.0246,-0.7441 0.0244,-0.1545 0.0913,-0.3047 0.2002,-0.451 0.1082,-0.1457 0.2505,-0.2591 0.4254,-0.3382 0.2228,-0.1009 0.3408,-0.1519 0.3547,-0.153 l 0.2264,0.5003 c -0.0204,0.009 -0.0592,0.0258 -0.1173,0.0493 -0.0649,0.0269 -0.104,0.0437 -0.1182,0.0499 -0.1843,0.0833 -0.3011,0.1902 -0.3501,0.3203 -0.051,0.1307 -0.0683,0.3691 -0.0541,0.7143 0.0209,0.4366 0.0025,0.7266 -0.055,0.8694 -0.0576,0.1409 -0.1449,0.2736 -0.2588,0.3952 0.3166,-0.0505 0.7137,0.0847 1.1888,0.4039 l 1.5582,1.0474 -0.718,0.3249 -1.2691,-0.8521 c -0.3486,-0.2378 -0.6188,-0.3878 -0.8084,-0.449 -0.1911,-0.0618 -0.3923,-0.0443 -0.6069,0.053 l 0.9249,2.0443 -0.5796,0.2622 z m 5.487,2.761 -2.1291,-4.2974 1.6129,-0.7991 c 0.3277,-0.1624 0.6123,-0.2497 0.8547,-0.2613 0.2412,-0.0111 0.4623,0.0462 0.6641,0.1718 0.2024,0.1241 0.3521,0.2851 0.4502,0.4833 0.0907,0.1831 0.1264,0.3809 0.1077,0.5921 -0.019,0.2109 -0.104,0.4164 -0.2554,0.616 0.2976,-0.0527 0.5621,-0.0218 0.7926,0.0935 0.2304,0.1137 0.4081,0.296 0.532,0.546 0.1001,0.2021 0.1497,0.4107 0.1505,0.6256 6e-4,0.2154 -0.0388,0.4003 -0.117,0.5564 -0.0788,0.1551 -0.2007,0.3036 -0.3651,0.4448 -0.1653,0.1417 -0.3844,0.2803 -0.6585,0.4161 z m -0.6636,-2.7732 0.9292,-0.4603 c 0.252,-0.125 0.4247,-0.2316 0.5173,-0.3186 0.1236,-0.1151 0.1971,-0.241 0.2206,-0.3773 0.0235,-0.1361 -0.001,-0.2795 -0.0763,-0.4306 -0.0708,-0.1432 -0.1672,-0.2523 -0.2897,-0.3263 -0.1221,-0.0754 -0.2574,-0.1017 -0.4042,-0.0788 -0.1468,0.023 -0.3747,0.1111 -0.6829,0.2636 l -0.8594,0.4258 z m 0.9839,1.9865 1.0704,-0.5303 c 0.1842,-0.091 0.3098,-0.1619 0.3778,-0.2132 0.1188,-0.0873 0.2092,-0.1808 0.2702,-0.2795 0.0607,-0.0986 0.0933,-0.2143 0.0981,-0.3478 0.005,-0.1332 -0.027,-0.2682 -0.095,-0.4051 -0.0796,-0.161 -0.1896,-0.28 -0.3314,-0.3577 -0.1411,-0.0785 -0.2962,-0.1049 -0.4663,-0.0808 -0.1686,0.0241 -0.3906,0.104 -0.6638,0.2393 l -0.9944,0.4926 z m 2.9821,-0.9802 -1.0165,-5.0352 0.589,-0.3739 4.2185,3.0031 -0.61,0.3872 -1.2472,-0.9301 -1.7051,1.082 0.3396,1.5063 z m 0.1097,-2.4021 1.3802,-0.8756 -1.1347,-0.8549 c -0.3439,-0.2602 -0.6191,-0.4811 -0.8269,-0.6611 0.1117,0.2991 0.2015,0.6055 0.271,0.9213 z" />
  <path
     id="path19"
     style="fill:#1b1918;fill-rule:evenodd"
     d="m 107.4394,113.0675 c -0.009,-0.157 -0.0409,-0.314 -0.0961,-0.4697 -0.0796,-0.2259 -0.1194,-0.3805 -0.1194,-0.4638 0,-0.1182 0.0282,-0.2081 0.0855,-0.2706 0.0573,-0.0617 0.1264,-0.092 0.2097,-0.092 0.0703,0 0.1322,0.0303 0.1849,0.092 0.0527,0.0625 0.0785,0.1512 0.0785,0.267 0,0.1011 -0.0304,0.2439 -0.0901,0.4276 -0.0609,0.1838 -0.0984,0.3537 -0.1124,0.5095 0.1264,-0.0797 0.24,-0.1766 0.3395,-0.2918 0.1558,-0.1803 0.2718,-0.2928 0.3467,-0.3361 0.0761,-0.0433 0.1522,-0.0653 0.2307,-0.0653 0.0727,0 0.1358,0.0255 0.1885,0.0773 0.0527,0.0517 0.0785,0.1136 0.0785,0.1837 0,0.0845 -0.0376,0.1606 -0.1137,0.2259 -0.0748,0.0667 -0.2634,0.134 -0.5655,0.1991 -0.1758,0.0399 -0.3222,0.0845 -0.4392,0.135 0.1194,0.0607 0.2646,0.1078 0.4356,0.1404 0.2764,0.0505 0.4579,0.1122 0.5434,0.1883 0.0867,0.0749 0.1288,0.1584 0.1288,0.2475 0,0.0679 -0.0258,0.1274 -0.0773,0.1777 -0.0515,0.0507 -0.1112,0.0761 -0.1791,0.0761 -0.0691,0 -0.1452,-0.0242 -0.2283,-0.0725 -0.0833,-0.0481 -0.1969,-0.1558 -0.3385,-0.3221 -0.0937,-0.1125 -0.2097,-0.2177 -0.3501,-0.3158 0.005,0.1306 0.0316,0.2724 0.0795,0.4246 0.0821,0.271 0.123,0.4535 0.123,0.5492 0,0.0941 -0.027,0.1725 -0.0819,0.2355 -0.0551,0.0637 -0.1136,0.094 -0.1745,0.094 -0.0855,0 -0.1616,-0.0327 -0.2307,-0.0988 -0.0481,-0.048 -0.0715,-0.1249 -0.0715,-0.2307 0,-0.11 0.0258,-0.2412 0.0785,-0.3958 0.0527,-0.1546 0.0855,-0.261 0.0995,-0.3194 0.0141,-0.0577 0.0269,-0.1439 0.0375,-0.2586 -0.1346,0.0885 -0.253,0.1885 -0.3525,0.2986 -0.1675,0.1871 -0.2928,0.3067 -0.3782,0.3567 -0.0597,0.0367 -0.1207,0.0551 -0.1852,0.0551 -0.0773,0 -0.144,-0.0266 -0.1989,-0.0797 -0.0551,-0.0527 -0.0821,-0.1098 -0.0821,-0.1741 0,-0.0578 0.0234,-0.1171 0.0703,-0.1808 0.047,-0.0629 0.1171,-0.1146 0.2107,-0.1556 0.0621,-0.0281 0.2027,-0.0645 0.4216,-0.1102 0.143,-0.0292 0.2812,-0.0737 0.4158,-0.1296 -0.124,-0.0623 -0.2716,-0.1104 -0.4425,-0.1444 -0.2812,-0.0595 -0.4556,-0.1136 -0.5213,-0.1612 -0.103,-0.0761 -0.1546,-0.1675 -0.1546,-0.274 0,-0.0625 0.0258,-0.1194 0.0773,-0.1701 0.0516,-0.0515 0.1113,-0.0773 0.1804,-0.0773 0.0749,0 0.1545,0.0234 0.24,0.0713 0.0843,0.0483 0.1897,0.1452 0.3152,0.2908 0.1264,0.1452 0.254,0.2574 0.384,0.3371 z" />
</svg>
