<?xml version="1.0" encoding="utf-8"?>
<!-- Generator: Adobe Illustrator 26.4.1, SVG Export Plug-In . SVG Version: 6.00 Build 0)  -->
<svg version="1.1"
	 id="svg32" xmlns:svg="http://www.w3.org/2000/svg" xmlns:rdf="http://www.w3.org/1999/02/22-rdf-syntax-ns#" xmlns:cc="http://creativecommons.org/ns#" xmlns:dc="http://purl.org/dc/elements/1.1/"
	 xmlns="http://www.w3.org/2000/svg" xmlns:xlink="http://www.w3.org/1999/xlink" x="0px" y="0px" viewBox="0 0 155.9 155.9"
	 style="enable-background:new 0 0 155.9 155.9;" xml:space="preserve">
<style type="text/css">
	.st0{fill:none;stroke:#1B1918;stroke-width:1.1339;}
	.st1{fill:none;stroke:#1B1918;stroke-width:0.7087;}
	.st2{fill-rule:evenodd;clip-rule:evenodd;fill:#1B1918;}
	.st3{fill:none;stroke:#1B1918;stroke-width:0.8504;}
</style>
<path id="path6" class="st0" d="M78,24.1c29.7,0,53.9,24.1,53.9,53.9c0,29.7-24.1,53.9-53.9,53.9c-29.7,0-53.9-24.1-53.9-53.9
	C24.1,48.2,48.2,24.1,78,24.1z"/>
<path id="path8" class="st1" d="M78.2,44.9c18.4,0,33.3,14.9,33.3,33.3s-14.9,33.3-33.3,33.3c-18.4,0-33.3-14.9-33.3-33.3
	S59.8,44.9,78.2,44.9z"/>
<path id="path10" class="st2" d="M105.2,103.1c0-0.2-0.1-0.4-0.1-0.6c-0.1-0.3-0.2-0.5-0.2-0.6c0-0.2,0-0.3,0.1-0.3
	c0.1-0.1,0.2-0.1,0.3-0.1c0.1,0,0.2,0,0.2,0.1c0.1,0.1,0.1,0.2,0.1,0.3c0,0.1,0,0.3-0.1,0.5c-0.1,0.2-0.1,0.5-0.1,0.7
	c0.2-0.1,0.3-0.2,0.4-0.4c0.2-0.2,0.3-0.4,0.4-0.4c0.1-0.1,0.2-0.1,0.3-0.1c0.1,0,0.2,0,0.2,0.1c0.1,0.1,0.1,0.1,0.1,0.2
	c0,0.1,0,0.2-0.1,0.3c-0.1,0.1-0.3,0.2-0.7,0.3c-0.2,0.1-0.4,0.1-0.6,0.2c0.2,0.1,0.3,0.1,0.6,0.2c0.4,0.1,0.6,0.1,0.7,0.2
	c0.1,0.1,0.2,0.2,0.2,0.3c0,0.1,0,0.2-0.1,0.2c-0.1,0.1-0.1,0.1-0.2,0.1c-0.1,0-0.2,0-0.3-0.1c-0.1-0.1-0.3-0.2-0.4-0.4
	c-0.1-0.1-0.3-0.3-0.4-0.4c0,0.2,0,0.3,0.1,0.5c0.1,0.3,0.2,0.6,0.2,0.7c0,0.1,0,0.2-0.1,0.3c-0.1,0.1-0.1,0.1-0.2,0.1
	c-0.1,0-0.2,0-0.3-0.1c-0.1-0.1-0.1-0.2-0.1-0.3c0-0.1,0-0.3,0.1-0.5c0.1-0.2,0.1-0.3,0.1-0.4c0-0.1,0-0.2,0-0.3
	c-0.2,0.1-0.3,0.2-0.5,0.4c-0.2,0.2-0.4,0.4-0.5,0.5c-0.1,0-0.2,0.1-0.2,0.1c-0.1,0-0.2,0-0.3-0.1c-0.1-0.1-0.1-0.1-0.1-0.2
	c0-0.1,0-0.1,0.1-0.2c0.1-0.1,0.1-0.1,0.3-0.2c0.1,0,0.3-0.1,0.5-0.1c0.2,0,0.4-0.1,0.5-0.2c-0.2-0.1-0.3-0.1-0.6-0.2
	c-0.4-0.1-0.6-0.1-0.7-0.2c-0.1-0.1-0.2-0.2-0.2-0.3c0-0.1,0-0.2,0.1-0.2c0.1-0.1,0.1-0.1,0.2-0.1c0.1,0,0.2,0,0.3,0.1
	c0.1,0.1,0.2,0.2,0.4,0.4C104.9,102.9,105,103,105.2,103.1L105.2,103.1z"/>
<path id="path12" class="st2" d="M50.2,102.8c0-0.2-0.1-0.4-0.1-0.6c-0.1-0.3-0.2-0.5-0.2-0.6c0-0.2,0-0.3,0.1-0.3
	c0.1-0.1,0.2-0.1,0.3-0.1c0.1,0,0.2,0,0.2,0.1c0.1,0.1,0.1,0.2,0.1,0.3c0,0.1,0,0.3-0.1,0.5c-0.1,0.2-0.1,0.5-0.1,0.7
	c0.2-0.1,0.3-0.2,0.4-0.4c0.2-0.2,0.3-0.4,0.4-0.4c0.1-0.1,0.2-0.1,0.3-0.1c0.1,0,0.2,0,0.2,0.1c0.1,0.1,0.1,0.1,0.1,0.2
	c0,0.1,0,0.2-0.1,0.3c-0.1,0.1-0.3,0.2-0.7,0.3c-0.2,0.1-0.4,0.1-0.6,0.2c0.2,0.1,0.3,0.1,0.6,0.2c0.4,0.1,0.6,0.1,0.7,0.2
	c0.1,0.1,0.2,0.2,0.2,0.3c0,0.1,0,0.2-0.1,0.2c-0.1,0.1-0.1,0.1-0.2,0.1c-0.1,0-0.2,0-0.3-0.1c-0.1-0.1-0.3-0.2-0.4-0.4
	c-0.1-0.1-0.3-0.3-0.4-0.4c0,0.2,0,0.3,0.1,0.5c0.1,0.3,0.2,0.6,0.2,0.7c0,0.1,0,0.2-0.1,0.3c-0.1,0.1-0.1,0.1-0.2,0.1
	c-0.1,0-0.2,0-0.3-0.1c-0.1-0.1-0.1-0.2-0.1-0.3c0-0.1,0-0.3,0.1-0.5c0.1-0.2,0.1-0.3,0.1-0.4c0-0.1,0-0.2,0-0.3
	c-0.2,0.1-0.3,0.2-0.5,0.4c-0.2,0.2-0.4,0.4-0.5,0.5c-0.1,0-0.2,0.1-0.2,0.1c-0.1,0-0.2,0-0.3-0.1c-0.1-0.1-0.1-0.1-0.1-0.2
	c0-0.1,0-0.1,0.1-0.2c0.1-0.1,0.1-0.1,0.3-0.2c0.1,0,0.3-0.1,0.5-0.1c0.2,0,0.4-0.1,0.5-0.2c-0.2-0.1-0.3-0.1-0.6-0.2
	c-0.4-0.1-0.6-0.1-0.7-0.2c-0.1-0.1-0.2-0.2-0.2-0.3c0-0.1,0-0.2,0.1-0.2c0.1-0.1,0.1-0.1,0.2-0.1c0.1,0,0.2,0,0.3,0.1
	c0.1,0.1,0.2,0.2,0.4,0.4C49.9,102.5,50,102.7,50.2,102.8L50.2,102.8z"/>
<path id="path14" class="st2" d="M88.1,32.9c0-0.2-0.1-0.4-0.1-0.7c-0.1-0.3-0.2-0.5-0.2-0.7c0-0.2,0-0.3,0.1-0.4
	c0.1-0.1,0.2-0.1,0.3-0.1c0.1,0,0.2,0,0.3,0.1c0.1,0.1,0.1,0.2,0.1,0.4c0,0.1,0,0.3-0.1,0.6c-0.1,0.3-0.1,0.5-0.2,0.7
	c0.2-0.1,0.3-0.3,0.5-0.4c0.2-0.3,0.4-0.4,0.5-0.5c0.1-0.1,0.2-0.1,0.3-0.1c0.1,0,0.2,0,0.3,0.1c0.1,0.1,0.1,0.2,0.1,0.3
	c0,0.1-0.1,0.2-0.2,0.3c-0.1,0.1-0.4,0.2-0.8,0.3c-0.2,0.1-0.5,0.1-0.6,0.2c0.2,0.1,0.4,0.2,0.6,0.2c0.4,0.1,0.7,0.2,0.8,0.3
	c0.1,0.1,0.2,0.2,0.2,0.4c0,0.1,0,0.2-0.1,0.3c-0.1,0.1-0.2,0.1-0.3,0.1c-0.1,0-0.2,0-0.3-0.1c-0.1-0.1-0.3-0.2-0.5-0.5
	c-0.1-0.2-0.3-0.3-0.5-0.5c0,0.2,0,0.4,0.1,0.6c0.1,0.4,0.2,0.6,0.2,0.8c0,0.1,0,0.2-0.1,0.3c-0.1,0.1-0.2,0.1-0.2,0.1
	c-0.1,0-0.2,0-0.3-0.1c-0.1-0.1-0.1-0.2-0.1-0.3c0-0.2,0-0.3,0.1-0.6c0.1-0.2,0.1-0.4,0.1-0.5c0-0.1,0-0.2,0.1-0.4
	c-0.2,0.1-0.4,0.3-0.5,0.4c-0.2,0.3-0.4,0.4-0.5,0.5c-0.1,0.1-0.2,0.1-0.3,0.1c-0.1,0-0.2,0-0.3-0.1c-0.1-0.1-0.1-0.2-0.1-0.2
	c0-0.1,0-0.2,0.1-0.3c0.1-0.1,0.2-0.2,0.3-0.2c0.1,0,0.3-0.1,0.6-0.2c0.2,0,0.4-0.1,0.6-0.2c-0.2-0.1-0.4-0.2-0.6-0.2
	c-0.4-0.1-0.6-0.2-0.7-0.2c-0.1-0.1-0.2-0.2-0.2-0.4c0-0.1,0-0.2,0.1-0.2c0.1-0.1,0.2-0.1,0.3-0.1c0.1,0,0.2,0,0.3,0.1
	c0.1,0.1,0.3,0.2,0.4,0.4C87.7,32.6,87.9,32.7,88.1,32.9z"/>
<path id="path16" class="st2" d="M104,116.3c0-0.2-0.1-0.4-0.1-0.7c-0.1-0.3-0.2-0.5-0.2-0.7c0-0.2,0-0.3,0.1-0.4
	c0.1-0.1,0.2-0.1,0.3-0.1c0.1,0,0.2,0,0.3,0.1c0.1,0.1,0.1,0.2,0.1,0.4c0,0.1,0,0.3-0.1,0.6c-0.1,0.3-0.1,0.5-0.2,0.7
	c0.2-0.1,0.3-0.3,0.5-0.4c0.2-0.3,0.4-0.4,0.5-0.5c0.1-0.1,0.2-0.1,0.3-0.1c0.1,0,0.2,0,0.3,0.1c0.1,0.1,0.1,0.2,0.1,0.3
	c0,0.1-0.1,0.2-0.2,0.3c-0.1,0.1-0.4,0.2-0.8,0.3c-0.2,0.1-0.5,0.1-0.6,0.2c0.2,0.1,0.4,0.2,0.6,0.2c0.4,0.1,0.7,0.2,0.8,0.3
	c0.1,0.1,0.2,0.2,0.2,0.4c0,0.1,0,0.2-0.1,0.3c-0.1,0.1-0.2,0.1-0.3,0.1c-0.1,0-0.2,0-0.3-0.1c-0.1-0.1-0.3-0.2-0.5-0.5
	c-0.1-0.2-0.3-0.3-0.5-0.5c0,0.2,0,0.4,0.1,0.6c0.1,0.4,0.2,0.6,0.2,0.8c0,0.1,0,0.2-0.1,0.3c-0.1,0.1-0.2,0.1-0.2,0.1
	c-0.1,0-0.2,0-0.3-0.1c-0.1-0.1-0.1-0.2-0.1-0.3c0-0.2,0-0.3,0.1-0.6c0.1-0.2,0.1-0.4,0.1-0.5c0-0.1,0-0.2,0.1-0.4
	c-0.2,0.1-0.4,0.3-0.5,0.4c-0.2,0.3-0.4,0.4-0.5,0.5c-0.1,0.1-0.2,0.1-0.3,0.1c-0.1,0-0.2,0-0.3-0.1c-0.1-0.1-0.1-0.2-0.1-0.2
	c0-0.1,0-0.2,0.1-0.3c0.1-0.1,0.2-0.2,0.3-0.2c0.1,0,0.3-0.1,0.6-0.2c0.2,0,0.4-0.1,0.6-0.2c-0.2-0.1-0.4-0.2-0.6-0.2
	c-0.4-0.1-0.6-0.2-0.7-0.2c-0.1-0.1-0.2-0.2-0.2-0.4c0-0.1,0-0.2,0.1-0.2c0.1-0.1,0.2-0.1,0.3-0.1c0.1,0,0.2,0,0.3,0.1
	c0.1,0.1,0.3,0.2,0.4,0.4C103.7,116,103.9,116.2,104,116.3L104,116.3z"/>
<path id="path18" class="st2" d="M51.8,116.3c0-0.2-0.1-0.4-0.1-0.7c-0.1-0.3-0.2-0.5-0.2-0.7c0-0.2,0-0.3,0.1-0.4
	c0.1-0.1,0.2-0.1,0.3-0.1c0.1,0,0.2,0,0.3,0.1c0.1,0.1,0.1,0.2,0.1,0.4c0,0.1,0,0.3-0.1,0.6c-0.1,0.3-0.1,0.5-0.2,0.7
	c0.2-0.1,0.3-0.3,0.5-0.4c0.2-0.3,0.4-0.4,0.5-0.5c0.1-0.1,0.2-0.1,0.3-0.1c0.1,0,0.2,0,0.3,0.1c0.1,0.1,0.1,0.2,0.1,0.3
	c0,0.1-0.1,0.2-0.2,0.3c-0.1,0.1-0.4,0.2-0.8,0.3c-0.2,0.1-0.5,0.1-0.6,0.2c0.2,0.1,0.4,0.2,0.6,0.2c0.4,0.1,0.7,0.2,0.8,0.3
	c0.1,0.1,0.2,0.2,0.2,0.4c0,0.1,0,0.2-0.1,0.3c-0.1,0.1-0.2,0.1-0.3,0.1c-0.1,0-0.2,0-0.3-0.1c-0.1-0.1-0.3-0.2-0.5-0.5
	c-0.1-0.2-0.3-0.3-0.5-0.5c0,0.2,0,0.4,0.1,0.6c0.1,0.4,0.2,0.6,0.2,0.8c0,0.1,0,0.2-0.1,0.3c-0.1,0.1-0.2,0.1-0.2,0.1
	c-0.1,0-0.2,0-0.3-0.1c-0.1-0.1-0.1-0.2-0.1-0.3c0-0.2,0-0.3,0.1-0.6c0.1-0.2,0.1-0.4,0.1-0.5c0-0.1,0-0.2,0.1-0.4
	c-0.2,0.1-0.4,0.3-0.5,0.4c-0.2,0.3-0.4,0.4-0.5,0.5c-0.1,0.1-0.2,0.1-0.3,0.1c-0.1,0-0.2,0-0.3-0.1c-0.1-0.1-0.1-0.2-0.1-0.2
	c0-0.1,0-0.2,0.1-0.3c0.1-0.1,0.2-0.2,0.3-0.2c0.1,0,0.3-0.1,0.6-0.2c0.2,0,0.4-0.1,0.6-0.2c-0.2-0.1-0.4-0.2-0.6-0.2
	c-0.4-0.1-0.6-0.2-0.7-0.2c-0.1-0.1-0.2-0.2-0.2-0.4c0-0.1,0-0.2,0.1-0.2c0.1-0.1,0.2-0.1,0.3-0.1c0.1,0,0.2,0,0.3,0.1
	c0.1,0.1,0.3,0.2,0.4,0.4C51.5,116,51.6,116.2,51.8,116.3z"/>
<path id="path20" class="st3" d="M78,26.6c28.3,0,51.3,23,51.3,51.3c0,28.3-23,51.3-51.3,51.3c-28.3,0-51.3-23-51.3-51.3
	C26.6,49.6,49.6,26.6,78,26.6z"/>
<path id="path22" class="st2" d="M47.4,98.7c-0.7,0.4-1.3,0.6-1.9,0.5c-0.5-0.1-0.9-0.4-1.2-0.8c-0.2-0.3-0.2-0.6-0.2-0.9
	c0-0.3,0.2-0.7,0.4-1c0.2-0.3,0.6-0.6,1-0.9c0.6-0.3,1.2-0.5,1.7-0.4c0.6,0.1,1,0.3,1.3,0.8c0.3,0.5,0.3,1,0,1.5
	C48.4,98,48,98.4,47.4,98.7z M47.2,98.3c0.5-0.3,0.8-0.6,1-1c0.1-0.4,0.1-0.7-0.1-1c-0.2-0.3-0.5-0.5-0.9-0.6
	c-0.4-0.1-0.9,0.1-1.4,0.4c-0.3,0.2-0.6,0.4-0.8,0.7c-0.2,0.2-0.3,0.4-0.3,0.7c0,0.2,0,0.5,0.1,0.7c0.2,0.3,0.5,0.5,0.9,0.6
	C46.1,98.8,46.6,98.6,47.2,98.3z M42.9,95.6l-1-2.3l0.5-0.2l0.8,1.8l1.3-0.6l-0.4-0.8c-0.1-0.3-0.2-0.6-0.2-0.8
	c0-0.2,0.1-0.4,0.2-0.6c0.1-0.2,0.4-0.4,0.6-0.5c0.2-0.1,0.5-0.2,0.7-0.2c0.2,0,0.5,0.1,0.6,0.2c0.2,0.1,0.3,0.3,0.4,0.7l0.6,1.4
	L42.9,95.6z M46.5,93.4l-0.4-0.9c-0.1-0.2-0.2-0.4-0.4-0.5C45.5,92,45.3,92,45,92.1c-0.2,0.1-0.3,0.2-0.4,0.3
	c-0.1,0.1-0.1,0.3-0.1,0.4c0,0.1,0.1,0.4,0.2,0.7l0.3,0.6L46.5,93.4z M41.1,91.6L41,91.1l4-1.1l-0.3-1.2l-4,1.1l-0.1-0.5l4-1.1
	l-0.3-1.2l-4,1.1L40,87.7l4-1.1l-0.1-0.3l1.8-0.5l0.1,0.4l-1.2,0.4l1.1,3.8L41.1,91.6z M44.3,85.3l-4.6,0.8l-0.5-2.7l0.5-0.1
	l0.4,2.2l1.4-0.3l-0.4-2.1l0.5-0.1l0.4,2.1l1.6-0.3l-0.4-2.3l0.5-0.1L44.3,85.3z M41.9,79.1l0.1-0.5c0.5,0.1,0.9,0.2,1.2,0.5
	c0.3,0.3,0.4,0.6,0.5,1c0,0.4,0,0.7-0.2,0.9c-0.2,0.3-0.4,0.5-0.8,0.7c-0.4,0.2-0.8,0.3-1.3,0.3c-0.5,0-1,0-1.3-0.1
	c-0.4-0.1-0.7-0.3-0.9-0.6c-0.2-0.3-0.3-0.6-0.3-0.9c0-0.4,0.1-0.7,0.3-1c0.2-0.3,0.5-0.5,1-0.6l0.2,0.5c-0.6,0.2-0.9,0.6-0.9,1.1
	c0,0.3,0.1,0.5,0.2,0.6c0.1,0.2,0.4,0.3,0.6,0.4c0.3,0.1,0.6,0.1,1.1,0.1c0.6,0,1.1-0.2,1.4-0.4c0.3-0.2,0.4-0.6,0.4-0.9
	c0-0.3-0.1-0.5-0.3-0.7C42.6,79.2,42.3,79.1,41.9,79.1z M43.6,76.6l-4.1-0.3l-0.1,1.3l-0.5,0l0.2-3l0.5,0l-0.1,1.3l4.1,0.3
	L43.6,76.6z M43.7,74.2l-4.6-0.8l0.3-1.4c0.1-0.3,0.1-0.5,0.3-0.7c0.1-0.2,0.3-0.3,0.5-0.3c0.2-0.1,0.4-0.1,0.7,0
	c0.2,0,0.4,0.1,0.5,0.2c0.2,0.1,0.3,0.3,0.3,0.5c0.1-0.2,0.3-0.3,0.5-0.4c0.2-0.1,0.5-0.1,0.7-0.1c0.3,0.1,0.5,0.2,0.7,0.3
	c0.2,0.2,0.3,0.3,0.4,0.5c0.1,0.2,0.1,0.5,0,0.8L43.7,74.2z M41.1,73.2l0.1-0.8c0-0.2,0.1-0.4,0-0.5c0-0.1-0.1-0.3-0.2-0.3
	c-0.1-0.1-0.2-0.1-0.4-0.2c-0.2,0-0.3,0-0.4,0c-0.1,0-0.2,0.1-0.3,0.2c-0.1,0.1-0.1,0.3-0.2,0.6L39.7,73L41.1,73.2z M43.3,73.6
	l0.2-0.9c0-0.2,0-0.4,0-0.5c0-0.2-0.1-0.3-0.2-0.4c-0.1-0.1-0.3-0.2-0.5-0.2c-0.2,0-0.3,0-0.5,0c-0.1,0-0.2,0.1-0.3,0.2
	c-0.1,0.1-0.1,0.3-0.2,0.6l-0.2,0.9L43.3,73.6z M42.1,70c-0.8-0.2-1.3-0.5-1.6-1c-0.3-0.5-0.4-0.9-0.3-1.4c0.1-0.3,0.3-0.6,0.5-0.8
	c0.3-0.2,0.6-0.4,1-0.4c0.4-0.1,0.8,0,1.3,0.1c0.7,0.2,1.2,0.5,1.5,0.9c0.4,0.5,0.5,1,0.3,1.5c-0.2,0.5-0.5,0.9-1.1,1.1
	C43.3,70.2,42.7,70.2,42.1,70z M42.3,69.5c0.6,0.2,1,0.2,1.4,0c0.4-0.2,0.6-0.4,0.7-0.8c0.1-0.4,0-0.7-0.2-1
	c-0.2-0.3-0.7-0.6-1.3-0.7c-0.4-0.1-0.7-0.1-1.1-0.1c-0.3,0-0.5,0.1-0.7,0.3c-0.2,0.2-0.3,0.3-0.4,0.6c-0.1,0.4,0,0.7,0.2,1
	C41.2,69.1,41.6,69.3,42.3,69.5z M45.8,61.8l0.4-0.4c0.4,0.3,0.7,0.7,0.8,1c0.1,0.4,0.1,0.7-0.1,1.1c-0.1,0.3-0.3,0.6-0.6,0.7
	c-0.3,0.2-0.6,0.2-1,0.2c-0.4,0-0.9-0.1-1.3-0.3c-0.5-0.2-0.8-0.5-1.1-0.8c-0.3-0.3-0.4-0.6-0.5-0.9c-0.1-0.3,0-0.6,0.1-0.9
	c0.2-0.3,0.4-0.6,0.7-0.7c0.3-0.1,0.7-0.2,1.2-0.1l-0.1,0.5c-0.7-0.1-1.1,0.1-1.3,0.5c-0.1,0.2-0.1,0.5-0.1,0.7
	c0,0.2,0.2,0.4,0.4,0.7c0.2,0.2,0.5,0.4,0.9,0.6c0.6,0.3,1.1,0.4,1.4,0.3c0.4-0.1,0.7-0.3,0.8-0.6c0.1-0.3,0.1-0.5,0-0.8
	C46.3,62.3,46.1,62,45.8,61.8L45.8,61.8z M46.7,58.8c-0.6-0.5-1-1-1.2-1.5c-0.1-0.5-0.1-1,0.2-1.4c0.2-0.3,0.5-0.5,0.8-0.6
	c0.3-0.1,0.7-0.1,1.1-0.1c0.4,0.1,0.8,0.3,1.2,0.6c0.6,0.4,0.9,0.9,1.1,1.4c0.2,0.6,0.1,1.1-0.2,1.5c-0.3,0.5-0.8,0.7-1.4,0.7
	C47.7,59.4,47.2,59.2,46.7,58.8z M47,58.4c0.5,0.3,0.9,0.5,1.3,0.5c0.4,0,0.7-0.2,0.9-0.5c0.2-0.3,0.3-0.6,0.2-1
	c-0.1-0.4-0.4-0.8-0.9-1.1c-0.3-0.2-0.7-0.4-1-0.5c-0.3-0.1-0.5,0-0.7,0c-0.2,0.1-0.4,0.2-0.6,0.4c-0.2,0.3-0.3,0.7-0.2,1
	C46.1,57.6,46.4,58,47,58.4z M47.6,53.4l1.5-1.8l0.4,0.4l-1.2,1.4l3.1,2.7l-0.3,0.4L47.6,53.4z M53.1,54.2l-3.2-3.4l1-1
	c0.2-0.2,0.4-0.4,0.6-0.5c0.2-0.1,0.4-0.1,0.7,0c0.2,0.1,0.5,0.2,0.7,0.4c0.3,0.3,0.4,0.6,0.5,1c0,0.3-0.1,0.7-0.5,1.1l-0.7,0.7
	l1.3,1.4L53.1,54.2z M51.8,52.1l0.7-0.7c0.2-0.2,0.3-0.4,0.3-0.6c0-0.2-0.1-0.4-0.3-0.6c-0.1-0.1-0.3-0.2-0.4-0.3
	c-0.1,0-0.3-0.1-0.4,0c-0.1,0-0.3,0.1-0.4,0.3l-0.7,0.7L51.8,52.1z M55.6,51.9l-1.7-4.6l0.4-0.3l4.1,2.7l-0.5,0.4l-1.2-0.8l-1.3,1
	l0.5,1.4L55.6,51.9z M55.2,49.7l1-0.8l-1.1-0.8c-0.3-0.2-0.6-0.4-0.8-0.6c0.1,0.3,0.3,0.5,0.4,0.8L55.2,49.7z M58.9,49.4l-2.5-3.9
	l0.4-0.3l1,1.6l1.7-1.1l-1-1.6l0.4-0.3l2.5,3.9L61,48.1l-1.2-1.9l-1.7,1.1l1.2,1.9L58.9,49.4z M60.4,43.1l0.4-0.2l1.5,3.4l0.3-4.2
	l0.5-0.2l1.9,4.3l-0.4,0.2l-1.5-3.4l-0.3,4.2l-0.5,0.2L60.4,43.1z M68.6,44.9L68.1,45l-0.6-1.8c-0.4,0.3-0.7,0.6-1,0.7
	c-0.2,0.1-0.5,0.1-0.7,0c-0.2-0.1-0.4-0.2-0.6-0.4c-0.1-0.2-0.3-0.5-0.4-0.8l-0.4-1.3l0.5-0.2l0.4,1.2c0.1,0.4,0.3,0.7,0.5,0.9
	c0.2,0.1,0.4,0.2,0.6,0.1c0.3-0.1,0.7-0.3,1-0.6l-0.7-2.2l0.5-0.2L68.6,44.9z M69.6,44.6l-1.1-4.5l2.7-0.6l0.1,0.5l-2.2,0.5l0.3,1.4
	l2.1-0.5l0.1,0.5l-2.1,0.5L70,44l2.3-0.5l0.1,0.5L69.6,44.6z M73.2,43.8l-0.4-4.7l0.5,0l0.1,1.9l2-0.2L75.4,39l0.5,0l0.4,4.7l-0.5,0
	l-0.2-2.2l-2,0.2l0.2,2.2L73.2,43.8z M77.3,43.5l0.1-4.7l0.5,0l-0.1,1.9l2,0.1l0.1-1.9l0.5,0l-0.1,4.7l-0.5,0l0.1-2.2l-2-0.1
	l-0.1,2.2L77.3,43.5z M81.5,41.4c0.1-0.8,0.3-1.4,0.7-1.8c0.4-0.4,0.9-0.5,1.4-0.5c0.3,0,0.6,0.2,0.9,0.4c0.3,0.2,0.4,0.5,0.6,0.9
	c0.1,0.4,0.1,0.8,0.1,1.3c-0.1,0.7-0.3,1.2-0.7,1.6C84,43.9,83.5,44,83,44c-0.6-0.1-1-0.4-1.3-0.9C81.5,42.6,81.4,42,81.5,41.4z
	 M82,41.5c-0.1,0.6,0,1,0.2,1.4c0.2,0.3,0.5,0.5,0.9,0.6c0.4,0,0.7-0.1,1-0.4c0.3-0.3,0.5-0.7,0.6-1.4c0-0.4,0-0.8-0.1-1.1
	c-0.1-0.3-0.2-0.5-0.4-0.6c-0.2-0.2-0.4-0.3-0.6-0.3c-0.4,0-0.7,0.1-1,0.4C82.2,40.4,82.1,40.8,82,41.5L82,41.5z M86.9,39.8l0.4,0.1
	l-1,3.6l3-3l0.5,0.1l-1.3,4.5L88.1,45l1-3.6l-3,3l-0.5-0.1L86.9,39.8z M89.1,39.3l0.3,0.1c-0.1,0.3-0.2,0.4-0.4,0.5
	c-0.2,0.1-0.4,0.1-0.6,0.1c-0.2-0.1-0.4-0.2-0.4-0.3c-0.1-0.2-0.1-0.4-0.1-0.7l0.3,0.1c0,0.3,0.1,0.5,0.3,0.5c0.1,0,0.2,0,0.3,0
	C89,39.5,89.1,39.4,89.1,39.3z M91.7,43.8c0.3-0.7,0.7-1.2,1.2-1.5c0.5-0.2,1-0.3,1.5,0c0.3,0.1,0.5,0.4,0.7,0.6
	c0.2,0.3,0.3,0.6,0.3,1c0,0.4-0.1,0.8-0.3,1.3c-0.3,0.6-0.7,1.1-1.1,1.3c-0.5,0.3-1,0.3-1.5,0.1c-0.5-0.2-0.8-0.6-0.9-1.2
	C91.3,44.9,91.4,44.4,91.7,43.8z M92.1,44c-0.2,0.5-0.3,1-0.2,1.4c0.1,0.4,0.3,0.7,0.6,0.8c0.3,0.2,0.7,0.1,1.1-0.1
	c0.4-0.2,0.7-0.6,0.9-1.1c0.2-0.4,0.3-0.7,0.3-1.1c0-0.3,0-0.5-0.2-0.7c-0.1-0.2-0.3-0.4-0.5-0.5c-0.3-0.2-0.7-0.1-1.1,0
	C92.7,43,92.4,43.4,92.1,44z M95.6,48.3l2.1-3.6l-1.1-0.6l0.3-0.5l2.6,1.5l-0.3,0.5L98.1,45l-2.1,3.6L95.6,48.3z M97.7,49.6l2.7-3.8
	l1.2,0.8c0.2,0.2,0.4,0.3,0.5,0.5c0.1,0.2,0.1,0.4,0.1,0.6c0,0.2-0.1,0.4-0.2,0.6c-0.1,0.2-0.3,0.3-0.4,0.4
	c-0.2,0.1-0.4,0.1-0.6,0.1c0.1,0.2,0.2,0.4,0.2,0.6c0,0.2-0.1,0.5-0.3,0.7c-0.2,0.2-0.4,0.4-0.6,0.5c-0.2,0.1-0.4,0.1-0.6,0.1
	c-0.2,0-0.5-0.1-0.7-0.3L97.7,49.6z M99.7,47.7l0.7,0.5c0.2,0.1,0.3,0.2,0.4,0.2c0.1,0,0.3,0,0.4,0c0.1,0,0.2-0.1,0.3-0.3
	c0.1-0.1,0.2-0.3,0.2-0.4c0-0.1,0-0.2-0.1-0.3c-0.1-0.1-0.2-0.2-0.4-0.4l-0.6-0.4L99.7,47.7z M98.4,49.4l0.8,0.6
	c0.2,0.1,0.3,0.2,0.4,0.2c0.1,0,0.3,0,0.4,0c0.1-0.1,0.3-0.2,0.4-0.3c0.1-0.1,0.2-0.3,0.2-0.4c0-0.1,0-0.3-0.1-0.4
	c-0.1-0.1-0.2-0.3-0.4-0.4l-0.7-0.5L98.4,49.4z M100.7,51.8l3.2-3.4l2,1.9l-0.4,0.4l-1.6-1.6l-1,1l1.5,1.5l-0.4,0.4l-1.5-1.5
	l-1.1,1.2l1.7,1.6l-0.4,0.4L100.7,51.8z M104,55.2l3.1-2.7l-0.8-1l0.4-0.4l2,2.3l-0.4,0.4l-0.8-1l-3.1,2.7L104,55.2z M108.5,58.3
	l0.2,0.5c-0.5,0.2-0.9,0.3-1.3,0.2c-0.4-0.1-0.7-0.3-0.9-0.6c-0.2-0.3-0.3-0.6-0.3-0.9c0-0.3,0.1-0.6,0.3-1c0.2-0.4,0.5-0.7,1-1
	c0.4-0.3,0.8-0.5,1.2-0.6c0.4-0.1,0.7-0.1,1,0.1c0.3,0.1,0.6,0.3,0.8,0.6c0.2,0.3,0.3,0.6,0.3,1c0,0.3-0.2,0.7-0.5,1l-0.4-0.3
	c0.4-0.5,0.5-1,0.2-1.4c-0.1-0.2-0.3-0.4-0.5-0.4c-0.2-0.1-0.5-0.1-0.8,0c-0.3,0.1-0.6,0.2-1,0.5c-0.5,0.4-0.8,0.7-1,1.1
	c-0.1,0.4-0.1,0.7,0.1,1c0.2,0.2,0.4,0.4,0.7,0.4C107.8,58.6,108.2,58.5,108.5,58.3z M108.4,61.2l3.6-2.1l-0.6-1.1l0.5-0.3l1.5,2.6
	l-0.5,0.3l-0.6-1.1l-3.6,2.1L108.4,61.2z M109.5,63.4l4.3-1.9l0.6,1.3c0.1,0.3,0.2,0.5,0.2,0.7c0,0.2-0.1,0.4-0.2,0.6
	c-0.1,0.2-0.3,0.3-0.5,0.4c-0.2,0.1-0.4,0.1-0.6,0.1c-0.2,0-0.4-0.1-0.5-0.2c0,0.2,0,0.4-0.2,0.6c-0.1,0.2-0.3,0.4-0.6,0.5
	c-0.3,0.1-0.5,0.2-0.7,0.1c-0.2,0-0.4-0.1-0.6-0.2c-0.2-0.1-0.3-0.4-0.5-0.7L109.5,63.4z M112.2,62.8l0.3,0.8
	c0.1,0.2,0.2,0.3,0.2,0.4c0.1,0.1,0.2,0.2,0.3,0.2c0.1,0,0.3,0,0.4-0.1c0.2-0.1,0.3-0.2,0.3-0.3c0.1-0.1,0.1-0.2,0.1-0.3
	c0-0.1-0.1-0.3-0.2-0.6l-0.3-0.7L112.2,62.8z M110.2,63.7l0.4,0.9c0.1,0.2,0.2,0.3,0.2,0.4c0.1,0.1,0.2,0.2,0.4,0.2
	c0.1,0,0.3,0,0.5-0.1c0.2-0.1,0.3-0.2,0.4-0.3c0.1-0.1,0.1-0.2,0.1-0.4c0-0.1-0.1-0.3-0.2-0.6l-0.4-0.8L110.2,63.7z M111,66.9
	l4.5-1.3l0.8,2.7l-0.5,0.1l-0.6-2.2l-1.4,0.4l0.6,2l-0.5,0.1l-0.6-2l-1.5,0.4l0.6,2.3l-0.5,0.1L111,66.9z M112,70.5l4.6-0.8l0.1,0.5
	l-1.9,0.3l0.4,2l1.9-0.3l0.1,0.5l-4.6,0.8l-0.1-0.5l2.2-0.4l-0.4-2l-2.2,0.4L112,70.5z M112.6,74.5l4.7-0.4l0,0.5l-1.9,0.1l0.2,2
	l1.9-0.1l0,0.5l-4.7,0.4l0-0.5l2.2-0.2l-0.2-2l-2.2,0.2L112.6,74.5z M115.1,78.5c0.8,0.1,1.4,0.3,1.8,0.7c0.4,0.4,0.6,0.8,0.5,1.4
	c0,0.3-0.1,0.6-0.4,0.9c-0.2,0.3-0.5,0.5-0.9,0.6c-0.4,0.1-0.8,0.2-1.3,0.1c-0.7-0.1-1.2-0.3-1.6-0.6c-0.5-0.4-0.7-0.9-0.6-1.4
	c0-0.6,0.3-1,0.8-1.3C114,78.6,114.5,78.5,115.1,78.5z M115.1,79.1c-0.6,0-1,0-1.4,0.3c-0.3,0.2-0.5,0.5-0.5,0.9
	c0,0.4,0.1,0.7,0.4,1c0.3,0.3,0.8,0.4,1.4,0.5c0.4,0,0.8,0,1.1-0.1c0.2-0.1,0.5-0.2,0.6-0.4c0.2-0.2,0.2-0.4,0.3-0.6
	c0-0.4-0.1-0.7-0.4-1C116.2,79.3,115.8,79.1,115.1,79.1z M113.6,85.8l-0.2,0.5c-0.5-0.2-0.8-0.5-1-0.8c-0.2-0.3-0.3-0.7-0.2-1.1
	c0.1-0.3,0.2-0.6,0.4-0.8c0.2-0.2,0.5-0.4,0.9-0.5c0.4-0.1,0.9-0.1,1.4,0c0.5,0.1,0.9,0.2,1.2,0.5c0.3,0.2,0.5,0.5,0.7,0.8
	c0.1,0.3,0.2,0.6,0.1,1c-0.1,0.4-0.2,0.7-0.5,0.9c-0.3,0.2-0.6,0.3-1.1,0.4l-0.1-0.5c0.7-0.1,1-0.3,1.1-0.8c0-0.3,0-0.5-0.1-0.7
	c-0.1-0.2-0.3-0.4-0.5-0.5c-0.3-0.2-0.6-0.3-1-0.4c-0.6-0.1-1.1-0.1-1.5,0.1c-0.4,0.2-0.6,0.4-0.6,0.8c0,0.3,0,0.5,0.2,0.8
	C113,85.5,113.3,85.6,113.6,85.8L113.6,85.8z M111.5,87.7l4,1.1l0.3-1.2l0.5,0.1l-0.8,2.9l-0.5-0.1l0.3-1.2l-4-1.1L111.5,87.7z
	 M115,91.8l-0.2,0.5l-1.9-0.7l-0.3,0.8c-0.1,0.3-0.3,0.5-0.4,0.7c-0.1,0.2-0.3,0.2-0.6,0.3c-0.2,0-0.5,0-0.8-0.1
	c-0.3-0.1-0.6-0.3-0.8-0.6c-0.2-0.3-0.2-0.7,0-1.2l0.5-1.4L115,91.8z M111,90.7l-0.3,0.9c-0.1,0.3-0.1,0.5-0.1,0.7
	c0.1,0.2,0.2,0.3,0.5,0.4c0.2,0.1,0.3,0.1,0.5,0.1c0.1,0,0.3-0.1,0.4-0.2c0.1-0.1,0.2-0.3,0.3-0.6l0.2-0.6L111,90.7z M113.4,95.8
	l-0.3,0.4l-1.8-1l-0.4,0.6c0.6,0.4,0.9,0.8,1.1,1.2c0.2,0.5,0.2,0.9-0.1,1.3c-0.2,0.4-0.6,0.7-1.1,0.8c-0.5,0.1-1.1-0.1-1.8-0.4
	c-0.7-0.4-1.1-0.8-1.3-1.3c-0.2-0.5-0.2-1,0.1-1.4c0.2-0.4,0.6-0.7,1.1-0.7c0.5-0.1,1,0.1,1.6,0.3l0.4-0.6l-1.8-1l0.3-0.4
	L113.4,95.8z M110.4,96.2c-0.5-0.3-1-0.4-1.4-0.4c-0.4,0-0.7,0.2-0.9,0.5c-0.2,0.3-0.2,0.7,0,1c0.2,0.4,0.5,0.7,1.1,1
	c0.5,0.3,1,0.4,1.4,0.4c0.4,0,0.7-0.2,0.9-0.5c0.2-0.3,0.2-0.7,0-1C111.3,96.8,111,96.5,110.4,96.2L110.4,96.2z"/>
<path id="path24" class="st2" d="M42.5,102.9l-4.4,2.9l-1.1-1.7c-0.2-0.3-0.3-0.5-0.4-0.7c-0.1-0.2-0.2-0.5-0.1-0.7
	c0-0.2,0.1-0.4,0.2-0.6c0.1-0.2,0.3-0.4,0.5-0.5c0.4-0.2,0.8-0.3,1.2-0.3c0.4,0.1,0.8,0.4,1.2,1.1l0.7,1.1l1.8-1.2L42.5,102.9z
	 M39.8,103.8l-0.7-1.1c-0.2-0.4-0.5-0.6-0.7-0.7c-0.2-0.1-0.5,0-0.8,0.1c-0.2,0.1-0.3,0.3-0.4,0.4c-0.1,0.2-0.1,0.4,0,0.5
	c0,0.1,0.1,0.3,0.3,0.6l0.7,1.1L39.8,103.8z M37.8,100.2c-0.8,0.4-1.5,0.5-2.2,0.3c-0.7-0.2-1.2-0.6-1.5-1.3
	c-0.2-0.4-0.3-0.9-0.3-1.3c0-0.5,0.2-0.9,0.4-1.3c0.3-0.4,0.6-0.7,1.1-0.9c0.5-0.3,0.9-0.4,1.4-0.4c0.5,0,0.9,0.1,1.3,0.4
	c0.4,0.2,0.7,0.6,0.9,1c0.2,0.4,0.3,0.9,0.3,1.4c0,0.5-0.2,0.9-0.5,1.3C38.6,99.7,38.2,100,37.8,100.2z M37.5,99.6
	c0.6-0.3,0.9-0.7,1.1-1.2c0.2-0.5,0.1-0.9-0.1-1.4c-0.2-0.5-0.6-0.8-1.1-0.9c-0.5-0.1-1,0-1.6,0.3c-0.4,0.2-0.7,0.4-0.9,0.7
	c-0.2,0.3-0.3,0.6-0.4,0.9c0,0.3,0,0.7,0.2,1c0.2,0.4,0.6,0.7,1.1,0.9C36.2,100.1,36.8,100,37.5,99.6z M34.5,90.7l0-0.7
	c0.6,0,1.1,0.1,1.5,0.4c0.4,0.3,0.7,0.7,0.9,1.2c0.2,0.5,0.2,1,0.1,1.4c-0.1,0.4-0.4,0.8-0.7,1.1c-0.4,0.3-0.8,0.5-1.3,0.7
	c-0.5,0.2-1,0.2-1.5,0.1c-0.5-0.1-0.8-0.3-1.2-0.6c-0.3-0.3-0.6-0.7-0.7-1.1c-0.2-0.5-0.2-1,0-1.4c0.1-0.4,0.4-0.8,0.9-1.1l0.4,0.6
	c-0.3,0.2-0.5,0.5-0.6,0.8c-0.1,0.3-0.1,0.6,0,0.9c0.1,0.4,0.3,0.7,0.6,0.9c0.3,0.2,0.6,0.3,0.9,0.3c0.3,0,0.7,0,1-0.2
	c0.4-0.1,0.8-0.3,1.1-0.5c0.3-0.2,0.5-0.5,0.5-0.8c0.1-0.3,0.1-0.6,0-0.9c-0.1-0.4-0.3-0.7-0.6-0.8C35.4,90.7,35,90.6,34.5,90.7z
	 M33.3,85.2l0.1-0.7c0.6,0,1.1,0.2,1.4,0.6c0.4,0.3,0.6,0.8,0.7,1.3c0.1,0.6,0.1,1-0.1,1.4c-0.2,0.4-0.5,0.7-0.9,1
	c-0.4,0.3-0.9,0.4-1.4,0.5c-0.5,0.1-1,0.1-1.5-0.1c-0.4-0.1-0.8-0.4-1.1-0.7c-0.3-0.3-0.5-0.8-0.5-1.2c-0.1-0.5,0-1,0.2-1.4
	c0.2-0.4,0.5-0.7,1-0.9l0.3,0.7c-0.4,0.2-0.6,0.4-0.7,0.7c-0.1,0.3-0.2,0.6-0.1,0.9c0.1,0.4,0.2,0.7,0.5,1c0.2,0.2,0.5,0.4,0.9,0.4
	c0.3,0.1,0.7,0.1,1,0c0.4-0.1,0.8-0.2,1.1-0.4c0.3-0.2,0.5-0.4,0.6-0.7c0.1-0.3,0.1-0.6,0.1-0.9c-0.1-0.4-0.2-0.7-0.5-0.9
	C34.2,85.3,33.8,85.2,33.3,85.2L33.3,85.2z M29.6,83.7l0-0.6l4.2-0.3l-4.4-2.5l-0.1-0.7l5.3-0.4l0,0.6l-4.2,0.3l4.4,2.5l0.1,0.7
	L29.6,83.7z M29.3,77.9l0-0.6l4.2,0.1l-4.1-2.9l0-0.7l5.3,0.1l0,0.6l-4.2-0.1l4.1,2.9l0,0.7L29.3,77.9z M28.1,75.3l0-0.4
	c0.3,0,0.5,0.2,0.7,0.3c0.2,0.2,0.2,0.4,0.2,0.7c0,0.3-0.1,0.6-0.3,0.7c-0.2,0.2-0.4,0.3-0.7,0.3l0-0.4c0.2,0,0.3-0.1,0.4-0.2
	c0.1-0.1,0.1-0.2,0.1-0.4c0-0.2,0-0.3-0.1-0.4C28.4,75.4,28.3,75.3,28.1,75.3L28.1,75.3z M33.7,68.7L34,68c0.5,0.2,0.9,0.6,1.2,1
	c0.2,0.4,0.3,0.9,0.2,1.5c-0.1,0.6-0.3,1-0.6,1.3c-0.3,0.3-0.7,0.5-1.1,0.6c-0.5,0.1-0.9,0.1-1.4,0c-0.5-0.1-1-0.3-1.4-0.6
	c-0.4-0.3-0.6-0.6-0.8-1c-0.1-0.4-0.2-0.9-0.1-1.3c0.1-0.5,0.3-0.9,0.6-1.2c0.3-0.3,0.7-0.5,1.2-0.6l0,0.7c-0.4,0.1-0.7,0.2-0.9,0.4
	c-0.2,0.2-0.3,0.5-0.4,0.8c-0.1,0.4,0,0.8,0.1,1.1c0.1,0.3,0.4,0.5,0.7,0.7c0.3,0.2,0.6,0.3,1,0.3c0.4,0.1,0.8,0.1,1.2,0
	c0.4-0.1,0.6-0.2,0.8-0.5c0.2-0.2,0.3-0.5,0.4-0.8c0.1-0.4,0-0.7-0.2-1C34.4,69.1,34.1,68.9,33.7,68.7L33.7,68.7z M30.8,66l0.2-0.7
	l2.2,0.6c0.1-0.3,0.1-0.5,0-0.7c-0.1-0.2-0.3-0.4-0.7-0.7c-0.3-0.2-0.5-0.4-0.6-0.6c-0.1-0.1-0.2-0.3-0.2-0.5c0-0.2,0-0.4,0-0.6
	c0.1-0.3,0.1-0.4,0.1-0.4l0.6,0.2c0,0,0,0.1,0,0.1c0,0.1,0,0.1,0,0.1c-0.1,0.2-0.1,0.4,0,0.5c0.1,0.1,0.3,0.3,0.6,0.6
	c0.4,0.3,0.6,0.5,0.7,0.7c0.1,0.1,0.1,0.3,0.1,0.5c0.2-0.3,0.6-0.5,1.2-0.7l2-0.6l-0.2,0.8L35,65.2c-0.4,0.1-0.8,0.2-1,0.4
	c-0.2,0.1-0.3,0.3-0.4,0.5l2.4,0.7l-0.2,0.7L30.8,66z M36.9,63.9l-4.2-3.8l0.3-0.7l5.7-0.1L38.4,60l-1.7,0l-0.8,2.1l1.3,1.1
	L36.9,63.9z M35.4,61.7l0.6-1.7l-1.6,0c-0.5,0-0.9,0-1.2,0c0.3,0.2,0.6,0.4,0.8,0.6L35.4,61.7z M41.1,55.1l-4.6-2.6l-1.2,2
	c-0.2,0.4-0.4,0.7-0.4,1c0,0.3,0,0.5,0.1,0.8c0.1,0.2,0.3,0.4,0.6,0.6c0.3,0.2,0.7,0.2,1,0.2c0.3-0.1,0.7-0.3,1-0.7
	c0,0.2,0,0.4,0,0.5c0.1,0.3,0.2,0.6,0.3,0.9l0.8,1.5l0.4-0.8l-0.6-1.2c-0.2-0.3-0.3-0.6-0.4-0.8c-0.1-0.2-0.1-0.4-0.1-0.5
	c0-0.1,0-0.2,0-0.3c0-0.1,0.1-0.2,0.2-0.4l0.4-0.7l2,1.2L41.1,55.1z M38.2,54.3l-0.7,1.3c-0.2,0.3-0.3,0.5-0.5,0.6
	c-0.1,0.1-0.3,0.2-0.5,0.2c-0.2,0-0.3,0-0.5-0.1c-0.2-0.1-0.4-0.3-0.4-0.5c-0.1-0.2,0-0.5,0.2-0.9l0.8-1.5L38.2,54.3z M40.4,48.1
	l-0.5-0.4l0.4-0.5l0.5,0.4c0.4-0.5,0.9-0.8,1.5-0.9c0.5-0.1,1,0.1,1.4,0.4c0.4,0.3,0.7,0.8,0.7,1.3c0.1,0.5-0.1,1.1-0.5,1.6l0.5,0.4
	L44,51l-0.5-0.4c-0.4,0.5-0.9,0.8-1.4,0.9c-0.5,0.1-1,0-1.5-0.4c-0.5-0.4-0.7-0.8-0.7-1.4C39.9,49.1,40,48.6,40.4,48.1z M41.3,47.9
	l2.2,1.7c0.3-0.4,0.4-0.7,0.4-1.1c0-0.4-0.2-0.7-0.5-0.9c-0.3-0.3-0.7-0.4-1-0.3C41.9,47.4,41.6,47.6,41.3,47.9z M40.9,48.4
	c-0.3,0.4-0.4,0.7-0.4,1.1c0,0.4,0.2,0.7,0.5,0.9c0.3,0.3,0.7,0.4,1,0.3c0.4-0.1,0.7-0.3,1-0.6L40.9,48.4z M46.4,48.1l-3.6-3.8
	l2.8-2.6l0.4,0.5l-2.3,2.1l1.1,1.2l2.1-2l0.4,0.5l-2.1,2l1.2,1.3l2.4-2.2l0.4,0.5L46.4,48.1z M47.2,40.3l2.5-2l2.9,3.7l0.4-0.3
	l1.1,1.5l-0.5,0.4l-0.8-1l-2.8,2.2l0.8,1l-0.5,0.4l-1.1-1.5l0.3-0.3c-0.1-0.8-0.7-1.9-1.9-3.5L47.2,40.3z M49.5,39.2l-1.5,1.1
	l0.2,0.2c0.3,0.4,0.6,0.9,1,1.5c0.4,0.7,0.7,1.3,0.8,1.8l1.9-1.5L49.5,39.2z M54,41.7l-2.6-4.6l3.3-1.9l0.3,0.5l-2.7,1.5l0.8,1.4
	l2.5-1.4l0.3,0.5l-2.5,1.4l0.9,1.6l2.8-1.6l0.3,0.5L54,41.7z M58.3,39.3l-2.2-4.8l1.8-0.8c0.3-0.1,0.6-0.2,0.8-0.3
	c0.3-0.1,0.5-0.1,0.7,0c0.2,0,0.4,0.1,0.6,0.3c0.2,0.2,0.3,0.4,0.4,0.6c0.2,0.4,0.2,0.8,0.1,1.2c-0.1,0.4-0.5,0.8-1.2,1.1L58,37
	l0.9,2L58.3,39.3z M57.8,36.4l1.2-0.6c0.4-0.2,0.7-0.4,0.8-0.6c0.1-0.2,0.1-0.5,0-0.8c-0.1-0.2-0.2-0.4-0.4-0.4
	c-0.2-0.1-0.3-0.1-0.5-0.1c-0.1,0-0.3,0.1-0.6,0.2L57,34.7L57.8,36.4z M61.8,37.6l0.2-5.7l0.7-0.2l3.7,4.3l-0.8,0.3L64.7,35
	l-2.1,0.7l0,1.7L61.8,37.6z M62.6,35.1l1.7-0.6l-1-1.2c-0.3-0.4-0.5-0.7-0.7-0.9c0,0.4,0.1,0.7,0,1.1L62.6,35.1z M65.9,30.8l0.7-0.2
	l1.1,4.6l2.7-0.6L69.2,30l0.7-0.2l1.1,4.6l0.5-0.1l0.5,2l-0.6,0.1L71,35.1L67.1,36L65.9,30.8z M72,29.6l0.6,0l0.3,4.2l2.5-4.4
	l0.7-0.1l0.4,5.3l-0.6,0l-0.3-4.2l-2.5,4.4l-0.7,0.1L72,29.6z M81.9,34.7l0.1-5.3l-2.3,0c-0.5,0-0.8,0-1.1,0.1
	c-0.2,0.1-0.4,0.3-0.6,0.5c-0.2,0.2-0.2,0.5-0.2,0.8c0,0.4,0.1,0.7,0.3,1c0.2,0.3,0.6,0.4,1.1,0.5c-0.2,0.1-0.3,0.2-0.4,0.3
	c-0.2,0.2-0.4,0.4-0.6,0.7l-0.9,1.4l0.9,0l0.7-1.1c0.2-0.3,0.4-0.6,0.5-0.7c0.1-0.2,0.3-0.3,0.4-0.3c0.1-0.1,0.2-0.1,0.3-0.1
	c0.1,0,0.2,0,0.4,0l0.8,0l0,2.4L81.9,34.7z M81.3,31.7l-1.5,0c-0.3,0-0.6,0-0.7-0.1c-0.2-0.1-0.3-0.2-0.4-0.3
	c-0.1-0.1-0.1-0.3-0.1-0.5c0-0.3,0.1-0.5,0.3-0.6s0.5-0.2,0.9-0.2l1.7,0L81.3,31.7z M92.1,36.9L94,32l1,0.4l-0.2,3.9
	c0,0.4,0,0.6,0,0.8c0.1-0.2,0.3-0.4,0.6-0.7l2.5-3l0.9,0.3l-1.9,4.9l-0.6-0.2l1.6-4.1l-3,3.6l-0.6-0.2l0.2-4.8l-1.6,4.2L92.1,36.9z
	 M98.8,37c0.4-0.8,1-1.2,1.6-1.4c0.7-0.2,1.3-0.1,2,0.3c0.4,0.2,0.7,0.6,1,1c0.2,0.4,0.3,0.8,0.3,1.3c0,0.5-0.2,0.9-0.4,1.4
	c-0.3,0.5-0.6,0.8-1,1.1c-0.4,0.3-0.8,0.4-1.3,0.4c-0.5,0-0.9-0.1-1.3-0.4c-0.4-0.2-0.8-0.6-1-1c-0.2-0.4-0.3-0.8-0.3-1.3
	C98.5,37.9,98.6,37.4,98.8,37z M99.5,37.4c-0.3,0.6-0.4,1.1-0.3,1.6c0.1,0.5,0.4,0.9,0.8,1.1c0.5,0.3,0.9,0.3,1.4,0.2
	c0.5-0.2,0.9-0.5,1.2-1.1c0.2-0.4,0.3-0.7,0.4-1.1c0-0.4,0-0.7-0.2-1c-0.2-0.3-0.4-0.5-0.7-0.7c-0.4-0.2-0.9-0.3-1.4-0.2
	C100.3,36.3,99.8,36.7,99.5,37.4z M106.8,43.2l0.4,0.6c-0.5,0.4-1,0.5-1.4,0.5c-0.5,0-0.9-0.2-1.4-0.5c-0.4-0.4-0.7-0.7-0.9-1.1
	c-0.1-0.4-0.1-0.8,0-1.3c0.1-0.5,0.4-0.9,0.7-1.3c0.3-0.4,0.7-0.7,1.1-0.9c0.4-0.2,0.9-0.2,1.3-0.2c0.4,0.1,0.8,0.3,1.2,0.6
	c0.4,0.3,0.7,0.7,0.8,1.2c0.1,0.4,0.1,0.9-0.1,1.4l-0.6-0.3c0.1-0.4,0.2-0.7,0.1-1c-0.1-0.3-0.2-0.5-0.5-0.8c-0.3-0.3-0.6-0.4-1-0.4
	c-0.3,0-0.6,0.1-0.9,0.3c-0.3,0.2-0.5,0.4-0.8,0.7c-0.3,0.4-0.5,0.7-0.6,1c-0.1,0.3-0.1,0.7,0,1c0.1,0.3,0.3,0.6,0.5,0.8
	c0.3,0.2,0.6,0.4,1,0.4C106.1,43.6,106.5,43.5,106.8,43.2L106.8,43.2z M110.5,41.8l0.5,0.5l-1.6,1.7c0.2,0.2,0.4,0.3,0.6,0.3
	c0.2,0,0.5-0.1,1-0.3c0.3-0.2,0.6-0.2,0.8-0.3c0.2,0,0.3,0,0.5,0c0.2,0,0.4,0.1,0.5,0.3c0.2,0.2,0.3,0.3,0.3,0.3l-0.4,0.4
	c0,0-0.1-0.1-0.1-0.1c-0.1-0.1-0.1-0.1-0.1-0.1c-0.2-0.2-0.3-0.2-0.5-0.2c-0.2,0-0.4,0.1-0.8,0.2c-0.4,0.2-0.7,0.3-0.9,0.3
	c-0.2,0-0.3,0-0.5-0.1c0.2,0.3,0.2,0.8,0.1,1.4l-0.4,2l-0.6-0.6l0.3-1.7c0.1-0.5,0.1-0.8,0.1-1c0-0.2-0.1-0.4-0.3-0.6l-1.7,1.8
	l-0.5-0.5L110.5,41.8z M111.7,46.7c0.7-0.6,1.3-0.8,2-0.8c0.7,0,1.3,0.3,1.8,0.9c0.3,0.4,0.5,0.8,0.6,1.2c0.1,0.4,0,0.9-0.2,1.3
	c-0.2,0.4-0.5,0.8-0.9,1.2c-0.4,0.3-0.8,0.6-1.3,0.7c-0.5,0.1-0.9,0.1-1.3-0.1c-0.4-0.2-0.8-0.4-1.1-0.8c-0.3-0.4-0.5-0.8-0.6-1.2
	c-0.1-0.5,0-0.9,0.2-1.3C111.1,47.4,111.3,47.1,111.7,46.7z M112.1,47.3c-0.5,0.4-0.8,0.9-0.8,1.4c-0.1,0.5,0.1,0.9,0.4,1.3
	c0.3,0.4,0.8,0.6,1.3,0.6c0.5,0,1-0.2,1.5-0.6c0.3-0.3,0.6-0.6,0.7-0.9c0.1-0.3,0.2-0.6,0.1-1c0-0.3-0.2-0.6-0.4-0.9
	c-0.3-0.4-0.7-0.6-1.2-0.6C113.3,46.6,112.8,46.8,112.1,47.3z M113.5,53.1l4.4-2.9l1.1,1.7c0.2,0.3,0.4,0.6,0.4,0.9
	c0,0.3,0,0.5-0.1,0.8c-0.1,0.2-0.3,0.4-0.5,0.6c-0.2,0.1-0.4,0.2-0.6,0.2c-0.2,0-0.5-0.1-0.7-0.2c0.1,0.3,0.1,0.6,0,0.9
	c-0.1,0.3-0.3,0.5-0.5,0.7c-0.2,0.1-0.4,0.2-0.7,0.2c-0.2,0-0.4,0-0.6-0.1c-0.2-0.1-0.4-0.2-0.5-0.3c-0.2-0.2-0.4-0.4-0.5-0.7
	L113.5,53.1z M116.4,52l0.6,1c0.2,0.3,0.3,0.4,0.4,0.5c0.1,0.1,0.3,0.2,0.4,0.2c0.2,0,0.3,0,0.5-0.1c0.1-0.1,0.3-0.2,0.3-0.4
	c0.1-0.1,0.1-0.3,0-0.5c0-0.2-0.2-0.4-0.4-0.7l-0.6-0.9L116.4,52z M114.4,53.3l0.7,1.1c0.1,0.2,0.2,0.3,0.3,0.4
	c0.1,0.1,0.2,0.2,0.3,0.3c0.1,0.1,0.2,0.1,0.4,0.1c0.1,0,0.3-0.1,0.4-0.2c0.2-0.1,0.3-0.2,0.3-0.4c0.1-0.2,0.1-0.3,0-0.5
	c0-0.2-0.2-0.4-0.3-0.7l-0.7-1L114.4,53.3z M119.3,59.5l0.2,0.7c-0.6,0.1-1.1,0.1-1.5-0.1c-0.4-0.2-0.8-0.5-1.1-1
	c-0.3-0.5-0.4-1-0.3-1.4c0-0.4,0.2-0.8,0.5-1.2c0.3-0.4,0.7-0.7,1.1-0.9c0.5-0.3,1-0.4,1.4-0.4c0.5,0,0.9,0.1,1.2,0.4
	c0.4,0.2,0.7,0.6,0.9,1c0.2,0.5,0.3,0.9,0.3,1.4c-0.1,0.4-0.3,0.8-0.6,1.2l-0.5-0.5c0.3-0.3,0.4-0.6,0.5-0.9c0-0.3,0-0.6-0.2-0.9
	c-0.2-0.4-0.4-0.6-0.7-0.8c-0.3-0.1-0.6-0.2-1-0.1c-0.3,0.1-0.7,0.2-1,0.3c-0.4,0.2-0.7,0.5-0.9,0.7c-0.2,0.3-0.4,0.6-0.4,0.9
	c0,0.3,0,0.6,0.2,0.9c0.2,0.3,0.4,0.6,0.8,0.7C118.5,59.6,118.9,59.6,119.3,59.5z M123.4,60.2l0.2,0.7l-2.2,0.7
	c0.1,0.3,0.2,0.5,0.4,0.6c0.2,0.1,0.5,0.2,1,0.2c0.4,0,0.6,0.1,0.8,0.1c0.2,0,0.3,0.1,0.5,0.3c0.1,0.1,0.3,0.3,0.3,0.5
	c0.1,0.3,0.1,0.4,0.1,0.4l-0.6,0.2c0,0,0-0.1,0-0.1c0-0.1,0-0.1,0-0.1c-0.1-0.2-0.2-0.4-0.3-0.4c-0.1-0.1-0.4-0.1-0.8-0.2
	c-0.5,0-0.8-0.1-0.9-0.2c-0.1-0.1-0.3-0.2-0.4-0.3c0,0.4-0.2,0.8-0.6,1.3l-1.3,1.6l-0.3-0.8l1.1-1.3c0.3-0.4,0.5-0.6,0.6-0.8
	c0.1-0.2,0.1-0.4,0-0.7l-2.4,0.8l-0.2-0.7L123.4,60.2z M119.5,65.4l5.6,0.8l0.2,0.8l-4.7,3.3l-0.2-0.8l1.4-1l-0.5-2.2l-1.7-0.2
	L119.5,65.4z M122,66.4l0.4,1.8l1.3-0.9c0.4-0.3,0.7-0.5,1-0.6c-0.4,0-0.7,0-1.1-0.1L122,66.4z M121.3,74.9l5.2-0.7l-0.3-2.3
	c-0.1-0.5-0.2-0.8-0.3-1c-0.1-0.2-0.3-0.4-0.6-0.5c-0.3-0.1-0.5-0.1-0.8-0.1c-0.4,0.1-0.7,0.2-0.9,0.5c-0.2,0.3-0.3,0.7-0.3,1.2
	c-0.1-0.2-0.2-0.3-0.3-0.4c-0.2-0.2-0.5-0.3-0.8-0.5l-1.6-0.7l0.1,0.9l1.2,0.5c0.3,0.2,0.6,0.3,0.8,0.4c0.2,0.1,0.3,0.2,0.4,0.3
	c0.1,0.1,0.1,0.2,0.2,0.3c0,0.1,0.1,0.2,0.1,0.4l0.1,0.8l-2.3,0.3L121.3,74.9z M124.1,73.8l-0.2-1.5c0-0.3,0-0.6,0-0.8
	c0-0.2,0.1-0.3,0.3-0.4c0.1-0.1,0.3-0.2,0.5-0.2c0.2,0,0.5,0,0.6,0.2c0.2,0.2,0.3,0.4,0.4,0.8l0.2,1.7L124.1,73.8z M124,78.1
	c0.9,0.1,1.5,0.4,2,0.9c0.5,0.5,0.7,1.1,0.6,1.9c0,0.5-0.2,0.9-0.4,1.3c-0.3,0.4-0.6,0.6-1,0.8c-0.4,0.2-0.9,0.2-1.4,0.2
	c-0.5,0-1-0.2-1.4-0.4c-0.4-0.2-0.7-0.6-0.9-1c-0.2-0.4-0.3-0.8-0.2-1.3c0-0.5,0.2-0.9,0.5-1.3c0.3-0.4,0.6-0.6,1-0.8
	C123.1,78.1,123.5,78.1,124,78.1z M123.9,78.8c-0.6,0-1.1,0.1-1.5,0.4c-0.4,0.3-0.6,0.7-0.6,1.2c0,0.5,0.1,1,0.5,1.3
	c0.3,0.4,0.9,0.6,1.5,0.6c0.4,0,0.8,0,1.1-0.1c0.3-0.1,0.6-0.3,0.8-0.6c0.2-0.3,0.3-0.6,0.3-0.9c0-0.5-0.1-0.9-0.4-1.3
	S124.7,78.9,123.9,78.8z M126.1,84.8l-0.6,3.4l-0.6-0.1l0.5-2.7l-1.6-0.3l-0.2,1.2c-0.1,0.5-0.2,0.8-0.3,1.1
	c-0.1,0.3-0.3,0.4-0.6,0.6c-0.3,0.1-0.6,0.2-0.9,0.1c-0.3,0-0.5-0.1-0.7-0.3c-0.2-0.2-0.4-0.4-0.5-0.6c-0.1-0.3-0.1-0.7,0-1.2l0.3-2
	L126.1,84.8z M121.4,84.7l-0.2,1.4c-0.1,0.4,0,0.7,0.1,0.9c0.1,0.2,0.3,0.3,0.6,0.4c0.2,0,0.4,0,0.6-0.1c0.2-0.1,0.3-0.2,0.4-0.4
	c0.1-0.2,0.2-0.5,0.2-1l0.2-0.9L121.4,84.7z M125,90.5l-0.9,3.2l-5.1-1.5l0.2-0.7l4.5,1.3l0.5-1.8l-2.6-0.8
	c-0.5-0.2-0.9-0.3-1.1-0.4c-0.2-0.1-0.4-0.3-0.5-0.5c-0.1-0.2-0.1-0.4,0-0.7c0-0.1,0.1-0.3,0.2-0.5l0.6,0.3
	c-0.1,0.1-0.1,0.2-0.2,0.3c0,0.2,0,0.3,0.1,0.4c0.1,0.1,0.4,0.2,0.8,0.3L125,90.5z M118.9,92.8l4,4.1l-0.3,0.7l-5.7-0.2l0.3-0.7
	l1.7,0.1l0.9-2l-1.2-1.2L118.9,92.8z M120.2,95l-0.8,1.6l1.6,0.1c0.5,0,0.9,0.1,1.2,0.1c-0.3-0.2-0.6-0.4-0.8-0.7L120.2,95z
	 M116.4,101.8l-0.5,0.5c-0.4-0.4-0.7-0.9-0.8-1.3s0-1,0.3-1.4c0.3-0.5,0.6-0.8,1-1c0.4-0.2,0.8-0.3,1.3-0.2c0.5,0.1,0.9,0.2,1.4,0.5
	c0.5,0.3,0.8,0.6,1.1,1c0.3,0.4,0.4,0.8,0.4,1.2c0,0.4-0.1,0.9-0.4,1.3c-0.3,0.5-0.6,0.8-1,1c-0.4,0.2-0.9,0.2-1.4,0.1l0.2-0.7
	c0.4,0.1,0.7,0.1,1,0c0.3-0.1,0.5-0.3,0.7-0.6c0.2-0.4,0.3-0.7,0.3-1c0-0.3-0.2-0.6-0.4-0.9c-0.2-0.3-0.5-0.5-0.8-0.6
	c-0.4-0.2-0.8-0.4-1.1-0.4c-0.4-0.1-0.7,0-1,0.2c-0.3,0.2-0.5,0.4-0.7,0.7c-0.2,0.3-0.3,0.7-0.2,1
	C115.8,101.2,116,101.5,116.4,101.8z M113.3,103.1l3.8,2.7l1-1.4l0.5,0.4l-2.4,3.4l-0.5-0.4l1-1.4l-3.8-2.7L113.3,103.1z
	 M115.3,109.1l-0.5,0.5l-1.7-1.5l-0.8,1c-0.4,0.4-0.7,0.7-1,0.8c-0.3,0.1-0.5,0.1-0.8,0.1c-0.3-0.1-0.5-0.2-0.7-0.3
	c-0.3-0.3-0.5-0.6-0.5-1c-0.1-0.4,0.2-0.9,0.7-1.5l1.3-1.5L115.3,109.1z M111.3,106.6l-0.8,1c-0.3,0.4-0.5,0.7-0.5,0.9
	c0,0.2,0.2,0.4,0.4,0.6c0.2,0.1,0.3,0.2,0.5,0.2c0.2,0,0.4,0,0.5-0.2c0.2-0.1,0.4-0.3,0.7-0.7l0.6-0.7L111.3,106.6z"/>
<path id="path26" class="st2" d="M59.9,123.3l1.7-5.1l1,0.3l0,4c0,0.4,0,0.7,0,0.8c0.1-0.2,0.3-0.4,0.5-0.7l2.4-3.1l0.9,0.3
	l-1.7,5.1l-0.6-0.2l1.4-4.2l-2.9,3.7l-0.6-0.2l0-4.8l-1.5,4.3L59.9,123.3z M67.4,122.9c0.2-0.9,0.5-1.5,1.1-1.9
	c0.6-0.4,1.2-0.6,2-0.4c0.5,0.1,0.9,0.3,1.3,0.6c0.3,0.3,0.6,0.7,0.7,1.1c0.1,0.5,0.2,0.9,0.1,1.5c-0.1,0.5-0.3,1-0.6,1.4
	c-0.3,0.4-0.7,0.7-1.1,0.8c-0.4,0.1-0.9,0.2-1.3,0.1c-0.5-0.1-0.9-0.3-1.3-0.6c-0.3-0.3-0.6-0.7-0.7-1.1
	C67.3,123.9,67.3,123.4,67.4,122.9z M68.1,123.1c-0.1,0.6,0,1.2,0.2,1.6c0.3,0.4,0.7,0.7,1.2,0.8c0.5,0.1,1,0,1.4-0.3
	c0.4-0.3,0.7-0.8,0.8-1.5c0.1-0.4,0.1-0.8,0-1.2c-0.1-0.3-0.3-0.6-0.5-0.9c-0.2-0.2-0.5-0.4-0.9-0.4c-0.5-0.1-0.9,0-1.4,0.3
	C68.5,121.7,68.2,122.3,68.1,123.1z M78,124.8l0.7,0.2c-0.2,0.6-0.4,1-0.8,1.3c-0.4,0.3-0.9,0.4-1.4,0.4c-0.6,0-1-0.1-1.4-0.4
	c-0.4-0.2-0.6-0.6-0.8-1c-0.2-0.5-0.3-0.9-0.3-1.4c0-0.6,0.1-1,0.4-1.5c0.2-0.4,0.5-0.7,0.9-0.9c0.4-0.2,0.8-0.3,1.3-0.3
	c0.5,0,1,0.2,1.3,0.4c0.4,0.3,0.6,0.7,0.7,1.2L78,123c-0.1-0.4-0.3-0.7-0.5-0.9c-0.2-0.2-0.5-0.3-0.9-0.3c-0.4,0-0.8,0.1-1,0.3
	c-0.3,0.2-0.5,0.5-0.6,0.8c-0.1,0.3-0.2,0.7-0.2,1c0,0.5,0,0.9,0.2,1.2c0.1,0.3,0.3,0.6,0.6,0.8c0.3,0.2,0.6,0.3,0.9,0.3
	c0.4,0,0.7-0.1,1-0.3C77.7,125.6,77.9,125.3,78,124.8z M80.5,121.3l0.7-0.1l0.2,2.3c0.3,0,0.5-0.1,0.7-0.2c0.1-0.1,0.3-0.4,0.4-0.9
	c0.1-0.4,0.2-0.6,0.3-0.8c0.1-0.2,0.2-0.3,0.4-0.4c0.2-0.1,0.4-0.2,0.6-0.2c0.3,0,0.4,0,0.4,0l0,0.6c0,0-0.1,0-0.1,0
	c-0.1,0-0.1,0-0.1,0c-0.2,0-0.4,0.1-0.5,0.2c-0.1,0.1-0.2,0.4-0.3,0.7c-0.1,0.5-0.3,0.8-0.4,0.9c-0.1,0.1-0.3,0.2-0.4,0.3
	c0.4,0.1,0.7,0.4,1.1,0.9l1.2,1.7l-0.9,0.1l-1-1.4c-0.3-0.4-0.5-0.6-0.7-0.8c-0.2-0.1-0.4-0.2-0.7-0.2l0.2,2.5l-0.7,0.1L80.5,121.3z
	 M86.4,126l-1.2-5.2l2-0.5c0.4-0.1,0.7-0.1,1-0.1c0.3,0.1,0.5,0.2,0.7,0.4c0.2,0.2,0.3,0.4,0.4,0.6c0.1,0.2,0,0.4,0,0.7
	c-0.1,0.2-0.2,0.4-0.4,0.6c0.3,0,0.6,0.1,0.8,0.3c0.2,0.2,0.4,0.4,0.4,0.7c0.1,0.2,0.1,0.5,0,0.7c-0.1,0.2-0.1,0.4-0.3,0.6
	c-0.1,0.1-0.3,0.3-0.5,0.4c-0.2,0.1-0.5,0.2-0.8,0.3L86.4,126z M86.4,122.8l1.1-0.3c0.3-0.1,0.5-0.1,0.6-0.2
	c0.2-0.1,0.3-0.2,0.3-0.4c0.1-0.1,0.1-0.3,0-0.5c0-0.2-0.1-0.3-0.2-0.4c-0.1-0.1-0.3-0.2-0.4-0.2c-0.2,0-0.4,0-0.8,0.1l-1,0.2
	L86.4,122.8z M87,125.2l1.3-0.3c0.2-0.1,0.4-0.1,0.5-0.1c0.2-0.1,0.3-0.1,0.4-0.2c0.1-0.1,0.2-0.2,0.2-0.4c0-0.1,0-0.3,0-0.5
	c0-0.2-0.1-0.4-0.3-0.5c-0.1-0.1-0.3-0.2-0.5-0.2c-0.2,0-0.5,0-0.8,0.1l-1.2,0.3L87,125.2z M91.8,124.7L92,119l0.7-0.2l3.8,4.4
	l-0.8,0.3l-1.1-1.3l-2.1,0.7l0,1.7L91.8,124.7z M92.5,122.2l1.7-0.6l-1-1.2c-0.3-0.4-0.5-0.7-0.7-0.9c0,0.4,0.1,0.7,0,1.1
	L92.5,122.2z"/>
<path id="path28" class="st2" d="M50.5,76.2l-0.6,2l0.6,2H50l-1-2l1-2H50.5z M48.9,76.2l-0.6,2l0.6,2h-0.6l-1-2l1-2H48.9z
	 M55.2,81.9c-1.1,0-2-0.5-2.7-1.4c-0.6-0.9-1-2.1-1-3.5c0-1.4,0.3-2.5,1-3.4c0.7-0.9,1.6-1.4,2.7-1.4c1.1,0,2,0.5,2.7,1.4
	c0.7,0.9,1,2.1,1,3.4c0,1.4-0.3,2.6-1,3.5C57.2,81.4,56.4,81.9,55.2,81.9z M55.2,80.5c0.6,0,1-0.3,1.4-0.8c0.4-0.5,0.6-1.4,0.6-2.7
	c0-1.1-0.2-1.9-0.5-2.5c-0.3-0.6-0.8-0.9-1.5-0.9c-1.3,0-2,1.2-2,3.5c0,1.1,0.2,2,0.5,2.6C54.1,80.2,54.6,80.5,55.2,80.5z
	 M60.4,81.7v-9.4h5.4v1.4h-3.9v2.4h1.5c0.8,0,1.4,0.1,1.8,0.2c0.4,0.1,0.8,0.4,1.1,0.9c0.3,0.5,0.4,1,0.4,1.6c0,0.8-0.2,1.5-0.7,2
	c-0.5,0.5-1.2,0.8-2.1,0.8H60.4z M61.9,80.3h1.7c1,0,1.5-0.5,1.5-1.4c0-0.4-0.1-0.7-0.3-1c-0.2-0.3-0.6-0.4-1.3-0.4h-1.6V80.3z
	 M69.7,81.7h-1.6v-9.4h3.5c1,0,1.8,0.3,2.2,0.8c0.5,0.6,0.7,1.2,0.7,2c0,0.9-0.3,1.6-0.8,2.1c-0.5,0.5-1.2,0.8-2,0.8h-2.2V81.7z
	 M69.7,76.6h1.8c0.5,0,0.8-0.1,1.1-0.4c0.3-0.3,0.4-0.6,0.4-1c0-0.4-0.1-0.7-0.3-1c-0.2-0.3-0.7-0.4-1.3-0.4h-1.7V76.6z M82.1,81.7
	h-1.7l-0.7-2.2h-3.3l-0.7,2.2h-1.3l2.9-9.4h1.9L82.1,81.7z M79.3,78.1L78.1,74l-1.3,4.2H79.3z M82.3,79l1.4-0.3
	c0.2,1.2,0.9,1.8,2,1.8c0.6,0,1-0.1,1.3-0.4c0.3-0.3,0.4-0.7,0.4-1.1c0-1-0.5-1.5-1.5-1.5h-0.8v-1.2h0.7c0.4,0,0.8-0.1,1-0.4
	c0.3-0.2,0.4-0.6,0.4-1c0-0.4-0.1-0.7-0.4-1c-0.3-0.2-0.7-0.4-1.1-0.4c-1,0-1.6,0.5-1.8,1.5l-1.4-0.2c0.3-1.8,1.4-2.7,3.2-2.7
	c0.9,0,1.7,0.2,2.2,0.7c0.6,0.5,0.8,1.1,0.8,1.8c0,1-0.5,1.7-1.6,2.1c1.2,0.3,1.8,1,1.8,2.2c0,0.8-0.3,1.5-0.9,2.1
	c-0.6,0.6-1.4,0.9-2.5,0.9c-1,0-1.8-0.3-2.4-0.8C82.7,80.6,82.4,79.9,82.3,79z M96.1,81.7h-5.6v-9.4H96v1.4h-4v2.5h3.2v1.4H92v2.6
	h4.1L96.1,81.7z M97.5,81.7v-9.4h1.6v7.9h3.1v-7.9h1.5v7.9h1.1v3.4h-1.1l-0.2-2H97.5z M105.4,76.3h0.6l1,2l-1,1.9h-0.6l0.6-1.9
	L105.4,76.3z M107,76.3h0.6l1,2l-1,1.9H107l0.6-1.9L107,76.3z"/>
<path id="path30" class="st2" d="M54.7,106.9c0.5-0.6,1-1,1.5-1.2c0.5-0.1,1-0.1,1.4,0.2c0.3,0.2,0.5,0.5,0.6,0.8
	c0.1,0.3,0.1,0.7,0.1,1.1c-0.1,0.4-0.3,0.8-0.6,1.2c-0.4,0.6-0.9,0.9-1.4,1.1c-0.6,0.2-1.1,0.1-1.5-0.2c-0.5-0.3-0.7-0.8-0.7-1.4
	C54.1,107.9,54.3,107.4,54.7,106.9z M55.1,107.2c-0.3,0.5-0.5,0.9-0.5,1.3c0,0.4,0.2,0.7,0.5,0.9c0.3,0.2,0.6,0.3,1,0.2
	c0.4-0.1,0.8-0.4,1.1-0.9c0.2-0.3,0.4-0.7,0.5-1c0.1-0.3,0-0.5,0-0.7c-0.1-0.2-0.2-0.4-0.4-0.6c-0.3-0.2-0.7-0.3-1-0.2
	C55.9,106.3,55.5,106.6,55.1,107.2z M59.3,107.3l2,1.2l-0.3,0.5l-1.6-0.9l-2.1,3.6l-0.4-0.3L59.3,107.3z M59.6,112.8l2.1-4.2
	l1.3,0.6c0.3,0.2,0.5,0.3,0.6,0.4c0.2,0.2,0.3,0.4,0.3,0.6c0,0.3,0,0.5-0.2,0.8c-0.2,0.4-0.4,0.6-0.7,0.8c-0.3,0.1-0.7,0.1-1.2-0.1
	l-0.9-0.4l-0.9,1.7L59.6,112.8z M61.2,110.9l0.9,0.4c0.3,0.1,0.5,0.2,0.7,0.1c0.2-0.1,0.4-0.2,0.5-0.5c0.1-0.2,0.1-0.3,0.1-0.5
	c0-0.2,0-0.3-0.1-0.4c-0.1-0.1-0.2-0.2-0.5-0.3l-0.9-0.4L61.2,110.9z M63,114.4l1.7-4.3l0.5,0.2l-0.7,1.8l1.8,0.7L67,111l0.5,0.2
	l-1.7,4.3l-0.5-0.2l0.8-2l-1.8-0.7l-0.8,2L63,114.4z M68.5,113.9c0.2-0.8,0.4-1.3,0.7-1.7c0.3-0.3,0.6-0.5,1-0.4
	c0.4,0.1,0.6,0.3,0.7,0.7c0.2,0.4,0.1,1.1-0.1,1.9c-0.2,0.8-0.4,1.3-0.7,1.7c-0.3,0.3-0.6,0.5-1,0.4c-0.4-0.1-0.6-0.3-0.7-0.7
	C68.3,115.4,68.3,114.8,68.5,113.9z M69,114c-0.2,0.7-0.2,1.3-0.1,1.5c0.1,0.3,0.2,0.5,0.5,0.5c0.2,0,0.4,0,0.6-0.3
	c0.2-0.2,0.4-0.7,0.6-1.4c0.2-0.7,0.2-1.3,0.1-1.5c-0.1-0.3-0.2-0.5-0.5-0.5c-0.2,0-0.4,0-0.6,0.3C69.4,112.8,69.2,113.3,69,114z
	 M71.4,114.6c0.1-0.8,0.3-1.4,0.5-1.7c0.3-0.4,0.6-0.5,1-0.5c0.4,0,0.6,0.2,0.8,0.6c0.2,0.4,0.3,1.1,0.2,1.9
	c-0.1,0.8-0.3,1.3-0.5,1.7c-0.3,0.4-0.6,0.5-1,0.5c-0.4,0-0.6-0.3-0.8-0.6C71.3,116.1,71.3,115.5,71.4,114.6z M71.8,114.7
	c-0.1,0.8-0.1,1.3,0,1.5c0.1,0.3,0.3,0.4,0.5,0.5c0.2,0,0.4-0.1,0.6-0.3c0.2-0.2,0.3-0.7,0.4-1.5c0.1-0.8,0.1-1.3,0-1.5
	c-0.1-0.3-0.3-0.4-0.5-0.4c-0.2,0-0.4,0.1-0.6,0.3C72.1,113.4,71.9,113.9,71.8,114.7z M74.4,115c0.1-0.8,0.2-1.4,0.5-1.7
	c0.2-0.4,0.6-0.6,1-0.5c0.4,0,0.6,0.2,0.8,0.6c0.2,0.4,0.3,1.1,0.2,1.9c-0.1,0.8-0.2,1.4-0.4,1.7c-0.2,0.4-0.6,0.6-1,0.5
	c-0.4,0-0.6-0.2-0.9-0.6C74.4,116.5,74.3,115.9,74.4,115z M74.9,115c-0.1,0.8,0,1.3,0.1,1.5c0.1,0.3,0.3,0.4,0.5,0.4
	c0.2,0,0.4-0.1,0.6-0.4c0.2-0.3,0.3-0.7,0.3-1.5c0.1-0.8,0-1.3-0.1-1.5c-0.1-0.3-0.3-0.4-0.5-0.4c-0.2,0-0.4,0.1-0.6,0.4
	S74.9,114.3,74.9,115z M77.3,115.2c0-0.8,0.1-1.4,0.3-1.8c0.2-0.4,0.5-0.6,0.9-0.6c0.4,0,0.7,0.1,0.9,0.5c0.3,0.4,0.4,1,0.4,1.9
	c0,0.8-0.1,1.4-0.3,1.8c-0.2,0.4-0.5,0.6-0.9,0.6c-0.4,0-0.7-0.2-0.9-0.5C77.4,116.7,77.3,116.1,77.3,115.2z M77.8,115.2
	c0,0.8,0.1,1.3,0.3,1.5c0.2,0.3,0.3,0.4,0.6,0.4c0.2,0,0.4-0.1,0.5-0.4c0.1-0.3,0.2-0.8,0.2-1.5c0-0.8-0.1-1.3-0.3-1.5
	c-0.2-0.3-0.3-0.4-0.6-0.4c-0.2,0-0.4,0.1-0.5,0.4C77.8,113.9,77.7,114.5,77.8,115.2z M80.3,115.1c-0.1-0.8,0-1.4,0.2-1.8
	c0.2-0.4,0.5-0.6,0.9-0.7c0.4,0,0.7,0.1,0.9,0.4c0.3,0.4,0.5,1,0.5,1.9c0.1,0.8,0,1.4-0.2,1.8c-0.2,0.4-0.5,0.6-0.9,0.7
	c-0.4,0-0.7-0.1-0.9-0.5C80.6,116.6,80.4,116,80.3,115.1z M80.8,115.1c0.1,0.8,0.2,1.3,0.3,1.5c0.2,0.2,0.4,0.4,0.6,0.3
	c0.2,0,0.4-0.2,0.5-0.4c0.1-0.3,0.2-0.8,0.1-1.5c-0.1-0.8-0.2-1.3-0.3-1.5c-0.2-0.2-0.4-0.4-0.6-0.3c-0.2,0-0.4,0.2-0.5,0.4
	C80.8,113.8,80.7,114.3,80.8,115.1z M83.2,114.9c-0.1-0.8-0.1-1.4,0-1.8c0.1-0.4,0.4-0.7,0.8-0.8c0.4-0.1,0.7,0,0.9,0.3
	c0.3,0.3,0.6,0.9,0.7,1.8c0.1,0.8,0.1,1.4,0,1.8c-0.1,0.4-0.4,0.7-0.8,0.8c-0.4,0.1-0.7-0.1-1-0.4C83.6,116.3,83.4,115.7,83.2,114.9
	z M83.7,114.8c0.1,0.7,0.3,1.2,0.5,1.5c0.2,0.2,0.4,0.3,0.6,0.3c0.2,0,0.4-0.2,0.5-0.5c0.1-0.3,0.1-0.8-0.1-1.5
	c-0.1-0.7-0.3-1.2-0.5-1.5c-0.2-0.2-0.4-0.3-0.6-0.3c-0.2,0-0.4,0.2-0.5,0.5C83.5,113.5,83.5,114,83.7,114.8z M86.2,114.3
	c-0.2-0.8-0.2-1.4-0.1-1.8c0.1-0.4,0.4-0.7,0.8-0.8c0.4-0.1,0.7,0,0.9,0.3c0.3,0.3,0.6,0.9,0.8,1.8c0.2,0.8,0.2,1.4,0.1,1.8
	c-0.1,0.4-0.4,0.7-0.8,0.8c-0.4,0.1-0.7,0-1-0.3C86.7,115.7,86.4,115.1,86.2,114.3z M86.7,114.2c0.2,0.7,0.4,1.2,0.6,1.4
	c0.2,0.2,0.4,0.3,0.6,0.3c0.2,0,0.4-0.2,0.4-0.5c0.1-0.3,0-0.8-0.1-1.5c-0.2-0.7-0.4-1.2-0.6-1.4c-0.2-0.2-0.4-0.3-0.6-0.2
	c-0.2,0-0.3,0.2-0.4,0.5C86.5,112.9,86.5,113.4,86.7,114.2z M89,113.6c-0.3-0.7-0.3-1.3-0.3-1.8c0.1-0.4,0.3-0.7,0.7-0.9
	c0.3-0.1,0.7-0.1,1,0.2c0.4,0.3,0.7,0.8,1,1.7c0.3,0.7,0.3,1.3,0.3,1.8c-0.1,0.5-0.3,0.7-0.7,0.9c-0.3,0.1-0.7,0-1-0.2
	C89.6,114.9,89.3,114.4,89,113.6z M89.5,113.4c0.2,0.7,0.5,1.2,0.7,1.4c0.2,0.2,0.4,0.3,0.7,0.2c0.2-0.1,0.3-0.3,0.4-0.5
	c0.1-0.3,0-0.8-0.3-1.5c-0.2-0.7-0.5-1.2-0.7-1.4c-0.2-0.2-0.4-0.3-0.7-0.2c-0.2,0.1-0.3,0.2-0.4,0.5
	C89.1,112.2,89.2,112.7,89.5,113.4z M91.8,112.6c-0.3-0.7-0.5-1.3-0.4-1.8c0-0.5,0.2-0.8,0.6-0.9c0.3-0.1,0.7-0.1,1,0.1
	c0.4,0.3,0.8,0.8,1.1,1.6c0.3,0.7,0.5,1.3,0.4,1.7c0,0.5-0.2,0.8-0.6,0.9c-0.3,0.2-0.7,0.1-1-0.1C92.5,113.9,92.2,113.4,91.8,112.6z
	 M92.2,112.4c0.3,0.7,0.6,1.1,0.8,1.3c0.2,0.2,0.5,0.2,0.7,0.1c0.2-0.1,0.3-0.3,0.3-0.6c0-0.3-0.1-0.8-0.4-1.5
	c-0.3-0.7-0.6-1.1-0.8-1.3c-0.2-0.2-0.5-0.2-0.7-0.1c-0.2,0.1-0.3,0.3-0.3,0.6C91.8,111.2,91.9,111.7,92.2,112.4z M94.6,111.3
	c-0.3-0.7-0.5-1.3-0.5-1.7c0-0.5,0.2-0.8,0.6-1c0.3-0.2,0.7-0.1,1,0.1c0.4,0.2,0.8,0.8,1.2,1.5c0.3,0.7,0.5,1.3,0.5,1.7
	c0,0.5-0.2,0.8-0.6,1c-0.3,0.2-0.7,0.1-1-0.1C95.4,112.6,95,112.1,94.6,111.3z M95,111.1c0.3,0.7,0.6,1.1,0.9,1.3
	c0.2,0.2,0.5,0.2,0.7,0.1c0.2-0.1,0.3-0.3,0.3-0.6c0-0.3-0.1-0.8-0.5-1.5c-0.3-0.7-0.6-1.1-0.9-1.3c-0.2-0.2-0.5-0.2-0.7-0.1
	c-0.2,0.1-0.3,0.3-0.3,0.6C94.5,110,94.7,110.4,95,111.1z M97.1,110c-0.4-0.7-0.6-1.2-0.7-1.7c0-0.5,0.1-0.8,0.5-1
	c0.3-0.2,0.6-0.2,1,0c0.4,0.2,0.9,0.7,1.3,1.4c0.4,0.7,0.6,1.2,0.7,1.7c0,0.5-0.1,0.8-0.5,1c-0.3,0.2-0.7,0.2-1,0
	C98,111.2,97.6,110.7,97.1,110z M97.6,109.7c0.4,0.6,0.7,1,1,1.2c0.3,0.1,0.5,0.2,0.7,0c0.2-0.1,0.3-0.3,0.2-0.6
	c0-0.3-0.2-0.8-0.6-1.4c-0.4-0.6-0.7-1-1-1.2c-0.3-0.1-0.5-0.1-0.7,0c-0.2,0.1-0.3,0.3-0.2,0.6C96.9,108.6,97.1,109.1,97.6,109.7z
	 M99.6,108.4c-0.5-0.6-0.8-1.1-0.9-1.6c-0.1-0.4,0-0.8,0.4-1.1c0.3-0.2,0.6-0.3,1-0.1c0.4,0.2,0.9,0.6,1.5,1.3
	c0.5,0.6,0.8,1.1,0.9,1.6c0.1,0.4,0,0.8-0.4,1.1c-0.3,0.2-0.6,0.3-1,0.1C100.6,109.5,100.1,109.1,99.6,108.4z M100,108.1
	c0.5,0.6,0.8,1,1.1,1.1c0.3,0.1,0.5,0.1,0.7,0c0.2-0.1,0.2-0.3,0.2-0.6c0-0.3-0.3-0.7-0.8-1.3c-0.5-0.6-0.8-1-1.1-1.1
	c-0.3-0.1-0.5-0.1-0.7,0c-0.2,0.1-0.2,0.3-0.2,0.6C99.3,107.1,99.5,107.5,100,108.1z"/>
</svg>
