<?xml version="1.0" encoding="UTF-8" standalone="no"?>
<svg
   xmlns:dc="http://purl.org/dc/elements/1.1/"
   xmlns:cc="http://creativecommons.org/ns#"
   xmlns:rdf="http://www.w3.org/1999/02/22-rdf-syntax-ns#"
   xmlns:svg="http://www.w3.org/2000/svg"
   xmlns="http://www.w3.org/2000/svg"
   viewBox="0 0 119.0551 119.0551"
   id="svg21"
   height="119.0551"
   width="119.0551"
   version="1.1">
  <metadata
     id="metadata27">
    <rdf:RDF>
      <cc:Work
         rdf:about="">
        <dc:format>image/svg+xml</dc:format>
        <dc:type
           rdf:resource="http://purl.org/dc/dcmitype/StillImage" />
      </cc:Work>
    </rdf:RDF>
  </metadata>
  <defs
     id="defs25" />
  <path
     id="path2"
     style="fill:none;stroke:#1b1918;stroke-width:1.70079994;stroke-linecap:butt;stroke-linejoin:miter;stroke-dasharray:none"
     d="m 59.5276,4.252 c 30.5277,0 55.2755,24.7478 55.2755,55.2756 0,30.5277 -24.7478,55.2755 -55.2755,55.2755 C 28.9998,114.8031 4.252,90.0553 4.252,59.5276 4.252,28.9998 28.9998,4.252 59.5276,4.252 Z" />
  <path
     id="path4"
     style="fill:none;stroke:#1b1918;stroke-width:1.13390005;stroke-linecap:butt;stroke-linejoin:miter;stroke-dasharray:none"
     d="m 59.5276,6.378 c 29.3536,0 53.1496,23.796 53.1496,53.1496 0,29.3536 -23.796,53.1496 -53.1496,53.1496 C 30.174,112.6772 6.378,88.8812 6.378,59.5276 6.378,30.174 30.174,6.378 59.5276,6.378 Z" />
  <path
     id="path6"
     style="fill:none;stroke:#1b1918;stroke-width:0.85039997;stroke-linecap:butt;stroke-linejoin:round;stroke-dasharray:none"
     d="M 110.7612,73.7008 H 92.0098 C 86.542,86.2143 74.0585,94.9606 59.5295,94.9606 45.0006,94.9606 32.5171,86.2143 27.0493,73.7008 H 8.312 M 110.5452,45.3543 H 92.0098 C 86.542,32.8408 74.0585,24.0945 59.5295,24.0945 c -14.5289,0 -27.0124,8.7463 -32.4802,21.2598 H 8.3574" />
  <path
     id="path8"
     style="fill:#1b1918;fill-rule:evenodd"
     d="m 13.0742,39.1054 c 0.2325,-0.5077 0.6268,-0.8595 1.1829,-1.0543 0.5568,-0.1958 1.1237,-0.1615 1.7017,0.1032 0.5952,0.2724 1.0032,0.6854 1.2245,1.2405 0.2214,0.5541 0.2098,1.0981 -0.034,1.631 -0.2463,0.538 -0.6451,0.9023 -1.1962,1.0933 -0.5511,0.1911 -1.1302,0.1475 -1.7388,-0.1312 -0.6219,-0.2843 -1.0323,-0.7282 -1.2319,-1.3309 -0.1726,-0.5232 -0.142,-1.0406 0.0918,-1.5516 z m 0.1817,0.1496 c -0.1596,0.3487 -0.1579,0.6891 0.0057,1.0191 0.2035,0.411 0.6171,0.7597 1.2419,1.0457 0.6392,0.2925 1.1939,0.3821 1.6633,0.2667 0.3583,-0.0898 0.6154,-0.3056 0.7728,-0.6494 0.1681,-0.3674 0.1627,-0.7359 -0.0145,-1.1061 -0.178,-0.371 -0.5754,-0.6973 -1.1942,-0.9805 -0.671,-0.307 -1.2317,-0.4036 -1.6813,-0.2914 -0.3583,0.091 -0.6227,0.3226 -0.7937,0.6959 z m 3.0235,-6.0698 0.8464,0.4314 -0.0581,0.1018 c -0.3013,-0.0953 -0.5247,-0.1015 -0.667,-0.0207 -0.1426,0.0808 -0.3033,0.2769 -0.4816,0.5893 l -0.3592,0.6282 1.4783,0.8453 0.085,-0.1488 c 0.262,-0.4578 0.4831,-0.7767 0.6645,-0.9587 0.18,-0.182 0.3909,-0.2934 0.633,-0.3348 0.2406,-0.0408 0.4767,0.0043 0.7069,0.1358 0.2787,0.1593 0.4638,0.4011 0.5565,0.7276 0.0927,0.3249 -0.0049,0.7396 -0.2926,1.243 l -0.9031,1.5798 -0.1018,-0.0581 c 0.1239,-0.2336 0.171,-0.4011 0.1406,-0.5035 C 18.498,37.3414 18.3591,37.2195 18.112,37.078 l -2.3757,-1.3581 c -0.1903,-0.1085 -0.3255,-0.1686 -0.408,-0.1794 -0.0816,-0.0119 -0.1533,0.0045 -0.2157,0.0499 -0.0632,0.0453 -0.1448,0.1471 -0.248,0.3053 l -0.1015,-0.0581 z m 2.594,3.6244 c 0.1179,-0.1474 0.2029,-0.2659 0.2539,-0.3552 0.1293,-0.2259 0.1707,-0.4728 0.125,-0.7424 -0.0462,-0.2684 -0.2029,-0.4791 -0.4699,-0.6316 -0.2756,-0.1576 -0.5341,-0.1791 -0.7767,-0.0646 -0.2418,0.1148 -0.4471,0.3195 -0.6154,0.614 -0.0468,0.0816 -0.0873,0.1695 -0.1214,0.2625 z m 1.8252,-2.8797 -0.0916,-0.0732 c 0.0054,-0.0096 0.0261,-0.0428 0.063,-0.0995 0.0915,-0.1335 0.1303,-0.248 0.1179,-0.3398 -0.0136,-0.0927 -0.133,-0.2294 -0.3589,-0.4102 L 18.2911,31.299 c -0.2177,-0.1737 -0.3781,-0.2576 -0.4816,-0.2528 -0.1035,0.0045 -0.2316,0.0935 -0.3861,0.2667 l -0.0915,-0.0731 1.0307,-1.2901 0.0915,0.0732 c -0.1131,0.176 -0.1573,0.3112 -0.1312,0.407 0.0252,0.095 0.1423,0.2259 0.3495,0.3918 l 2.1382,1.7081 c 0.17,0.1361 0.2831,0.2169 0.3381,0.2398 0.0559,0.0238 0.1015,0.0273 0.1384,0.0094 0.0362,-0.0196 0.0955,-0.0805 0.1794,-0.1854 l 0.5241,-0.6556 c 0.1318,-0.1653 0.1967,-0.2742 0.1945,-0.3246 -0.0029,-0.0508 -0.1219,-0.1707 -0.3563,-0.358 l -2.1379,-1.7082 c -0.2021,-0.1616 -0.3544,-0.2458 -0.455,-0.2531 -0.1003,-0.0065 -0.2262,0.0677 -0.3762,0.2211 l -0.0915,-0.0732 0.9941,-1.2441 0.0916,0.0732 c -0.1146,0.1777 -0.1585,0.3143 -0.1302,0.4104 0.0278,0.0958 0.1446,0.2251 0.3487,0.3881 l 2.1379,1.7084 c 0.2183,0.1743 0.356,0.2608 0.413,0.2608 0.057,-3e-4 0.1599,-0.093 0.3073,-0.2775 l 0.5315,-0.6653 c 0.0731,-0.0913 0.1128,-0.1565 0.119,-0.1973 0.0074,-0.04 -0.0022,-0.0768 -0.0275,-0.1094 -0.026,-0.0332 -0.1357,-0.1267 -0.3288,-0.2809 l -2.1382,-1.7085 c -0.2055,-0.1641 -0.3583,-0.2486 -0.4583,-0.2537 -0.0998,-0.0034 -0.2242,0.0706 -0.3728,0.222 l -0.0915,-0.0731 1.0306,-1.2895 0.0913,0.0728 c -0.0947,0.1253 -0.1491,0.2319 -0.1658,0.3206 -0.0164,0.0882 -0.0026,0.1661 0.0434,0.2333 0.0456,0.0683 0.1474,0.165 0.3047,0.2906 l 2.1353,1.7061 c 0.1735,0.1387 0.2906,0.2194 0.3495,0.243 0.0604,0.0235 0.1293,0.0258 0.2075,0.0079 0.078,-0.0181 0.1823,-0.1069 0.311,-0.2645 l 1.0587,0.8459 -0.0688,0.0864 c -0.3306,-0.1505 -0.6061,-0.2276 -0.8241,-0.2287 -0.2191,-0.0017 -0.4107,0.049 -0.5737,0.1519 -0.1627,0.1015 -0.3535,0.29 -0.5729,0.5644 z m 2.5327,-9.3535 1.2362,1.1715 0.6528,-0.6891 c 0.169,-0.1783 0.2549,-0.3223 0.258,-0.4328 0.0051,-0.1471 -0.0774,-0.3087 -0.246,-0.4867 l 0.0805,-0.0851 1.0899,1.033 -0.0805,0.0847 c -0.1729,-0.1233 -0.2917,-0.1944 -0.3552,-0.214 -0.0797,-0.0232 -0.1653,-0.0181 -0.2554,0.0159 -0.0904,0.034 -0.1979,0.1156 -0.3215,0.2463 l -0.6525,0.6888 1.0315,0.9777 c 0.1386,0.1313 0.2285,0.2047 0.2696,0.2211 0.0417,0.0156 0.0862,0.0176 0.1327,0.0034 0.047,-0.0136 0.1117,-0.0646 0.1927,-0.1502 l 0.5015,-0.5292 c 0.1669,-0.1761 0.2758,-0.3161 0.3277,-0.4196 0.0507,-0.1026 0.0751,-0.2259 0.072,-0.3673 -0.0051,-0.1857 -0.0567,-0.4193 -0.154,-0.7011 l 0.0893,-0.0943 0.5281,1.0119 -2.2838,2.4103 -0.0851,-0.0805 0.1049,-0.1108 c 0.07,-0.074 0.1182,-0.161 0.1454,-0.2608 0.0227,-0.0726 0.0179,-0.1415 -0.0156,-0.2055 -0.032,-0.0649 -0.1244,-0.169 -0.2772,-0.3138 l -2.0336,-1.9267 c -0.1981,-0.188 -0.3387,-0.2841 -0.4221,-0.2869 -0.1145,-0.0023 -0.2321,0.0607 -0.3551,0.1905 l -0.1049,0.1108 -0.0851,-0.0805 2.2845,-2.4108 0.7203,0.6196 -0.0851,0.0896 c -0.1964,-0.125 -0.3438,-0.1979 -0.4433,-0.2171 -0.0995,-0.0196 -0.2016,-0.0063 -0.307,0.0385 -0.0808,0.04 -0.1956,0.1372 -0.3424,0.2923 z m 5.7209,-5.5378 0.9788,1.0908 -0.0765,0.0601 c -0.3731,-0.2636 -0.7149,-0.3977 -1.0242,-0.3989 -0.3101,-0.0019 -0.5981,0.1012 -0.866,0.311 -0.223,0.1749 -0.3815,0.3912 -0.4725,0.6474 -0.0913,0.2557 -0.0913,0.5491 0.0011,0.881 0.0927,0.3309 0.2846,0.6829 0.576,1.0545 0.2404,0.307 0.4978,0.5352 0.7722,0.6835 0.2747,0.1482 0.557,0.2046 0.8473,0.1715 0.2911,-0.0346 0.5624,-0.1506 0.8138,-0.3476 0.2191,-0.1717 0.3759,-0.3702 0.4694,-0.5952 0.0947,-0.2254 0.1324,-0.5565 0.1137,-0.9933 l 0.1176,-0.0094 c 0.0664,0.4337 0.0408,0.8091 -0.0757,1.126 -0.1167,0.316 -0.3308,0.5964 -0.6409,0.8396 -0.5604,0.4391 -1.1576,0.5712 -1.7912,0.3949 -0.4728,-0.1307 -0.8739,-0.4054 -1.2027,-0.8249 -0.2653,-0.3385 -0.4332,-0.7095 -0.5043,-1.1106 -0.0712,-0.4023 -0.0352,-0.7847 0.1069,-1.1478 0.1428,-0.3637 0.371,-0.6678 0.6848,-0.9139 0.2438,-0.191 0.5312,-0.32 0.8634,-0.3863 0.0978,-0.017 0.163,-0.038 0.1925,-0.0613 0.0445,-0.0346 0.0709,-0.0816 0.0797,-0.1391 0.0079,-0.0794 -0.0102,-0.1656 -0.055,-0.26 z m 4.523,-2.9503 0.5882,0.8257 -0.1012,0.0655 c -0.1165,-0.1363 -0.2123,-0.2267 -0.2869,-0.2684 -0.1219,-0.0669 -0.2443,-0.0964 -0.3674,-0.0853 -0.1236,0.0105 -0.2593,0.0635 -0.4087,0.1601 l -0.5094,0.3294 1.7864,2.7618 c 0.144,0.2228 0.2577,0.3467 0.3418,0.3711 0.1154,0.0311 0.2433,0.0011 0.3836,-0.0896 l 0.1244,-0.0805 0.0635,0.0983 -1.5389,0.9956 -0.0638,-0.0984 0.1301,-0.0842 c 0.1548,-0.1 0.2339,-0.2171 0.2395,-0.352 0.002,-0.0825 -0.0623,-0.2257 -0.1936,-0.4284 l -1.7861,-2.7618 -0.434,0.2807 c -0.1692,0.1094 -0.2809,0.1995 -0.3359,0.2701 -0.0711,0.0938 -0.1077,0.2089 -0.1117,0.3481 -0.0036,0.1381 0.0414,0.2934 0.1344,0.4655 l -0.1009,0.0652 -0.5119,-0.8751 z m 4.8571,-0.2375 c 0.2934,-0.0825 0.5381,-0.0975 0.7348,-0.0423 0.2724,0.0769 0.4745,0.2398 0.606,0.4887 0.1001,0.1899 0.1367,0.4031 0.1083,0.6401 -0.0283,0.2367 -0.1253,0.4493 -0.2922,0.6389 -0.1661,0.1894 -0.4632,0.3974 -0.8912,0.6234 l -1.7947,0.9467 -0.0547,-0.1034 0.1418,-0.0749 c 0.1581,-0.0833 0.2443,-0.1936 0.2602,-0.3308 0.0088,-0.0878 -0.044,-0.2386 -0.1562,-0.4515 l -1.3011,-2.4665 c -0.1242,-0.2355 -0.2293,-0.3702 -0.3155,-0.403 -0.1162,-0.0443 -0.2452,-0.0287 -0.3889,0.0473 l -0.1418,0.0745 -0.0547,-0.1034 1.6424,-0.8663 c 0.3065,-0.1618 0.5636,-0.269 0.7722,-0.3217 0.3166,-0.08 0.5933,-0.074 0.8311,0.0198 0.2381,0.0936 0.4153,0.2509 0.5332,0.4743 0.1006,0.1907 0.1332,0.3917 0.097,0.604 -0.0366,0.2115 -0.148,0.4139 -0.336,0.6061 z m -1.5519,0.6191 c 0.0759,-0.023 0.1604,-0.0553 0.2523,-0.095 0.0924,-0.0405 0.1919,-0.089 0.2982,-0.1451 0.2729,-0.144 0.4634,-0.2827 0.5697,-0.4133 0.106,-0.1307 0.1642,-0.2764 0.1727,-0.4366 0.0082,-0.1587 -0.0253,-0.3101 -0.101,-0.4538 -0.1173,-0.2222 -0.3078,-0.3628 -0.5717,-0.4246 -0.2639,-0.0607 -0.5698,3e-4 -0.9164,0.1831 -0.1868,0.0986 -0.345,0.2078 -0.4726,0.3277 z m 0.9632,1.826 c 0.2443,-0.0637 0.4731,-0.1525 0.6848,-0.2642 0.3402,-0.1797 0.5596,-0.3928 0.6574,-0.6394 0.0978,-0.2464 0.0873,-0.4822 -0.0309,-0.7064 -0.0777,-0.1474 -0.1945,-0.2685 -0.3495,-0.3609 -0.1548,-0.0933 -0.3433,-0.131 -0.5661,-0.1139 -0.2225,0.017 -0.4686,0.0963 -0.7359,0.2375 -0.1159,0.0609 -0.2137,0.1151 -0.2939,0.1624 -0.0802,0.0474 -0.1432,0.0887 -0.1891,0.1245 z m 4.1451,-6.3697 c 0.5184,-0.2069 1.0468,-0.1888 1.5834,0.0541 0.5378,0.243 0.9241,0.6591 1.1597,1.2498 0.2423,0.6081 0.2523,1.1886 0.0289,1.7428 -0.2225,0.5539 -0.6066,0.9391 -1.1509,1.1562 -0.5496,0.2192 -1.0896,0.207 -1.62,-0.0351 -0.5306,-0.2424 -0.9192,-0.6738 -1.1673,-1.2957 -0.2531,-0.6353 -0.2438,-1.2396 0.0281,-1.8134 0.2364,-0.4977 0.616,-0.8506 1.1381,-1.0587 z m 0.0278,0.2336 c -0.3558,0.142 -0.5899,0.3892 -0.6993,0.7407 -0.1367,0.4382 -0.0786,0.9759 0.176,1.614 0.2602,0.6531 0.5995,1.101 1.0188,1.3419 0.3211,0.1823 0.6562,0.2039 1.0074,0.0638 0.3753,-0.1496 0.6259,-0.4198 0.7535,-0.8101 0.1275,-0.3915 0.0651,-0.9017 -0.1869,-1.5338 -0.2732,-0.6855 -0.612,-1.1427 -1.0145,-1.3717 -0.3223,-0.1817 -0.6735,-0.197 -1.055,-0.0448 z m 8.8648,-2.6895 0.424,1.4031 -0.0952,0.0218 C 50.8842,10.4984 50.6316,10.2319 50.3521,10.0998 50.072,9.9666 49.7673,9.9377 49.4359,10.0142 49.1596,10.078 48.9243,10.2067 48.7335,10.4 c -0.191,0.1934 -0.3155,0.4587 -0.3727,0.7986 -0.0565,0.339 -0.0318,0.7389 0.0745,1.1993 0.0876,0.3798 0.2239,0.6956 0.4096,0.9462 0.186,0.2506 0.4176,0.4218 0.6948,0.5145 0.2783,0.0924 0.5729,0.1023 0.8841,0.0303 0.2713,-0.0626 0.4975,-0.1757 0.6778,-0.3399 0.1811,-0.1641 0.3554,-0.4478 0.5238,-0.8515 l 0.1106,0.0414 c -0.1239,0.4209 -0.3059,0.75 -0.5457,0.9879 -0.2398,0.2364 -0.5525,0.3997 -0.9366,0.4884 -0.6936,0.1601 -1.2906,0.0263 -1.7898,-0.4017 -0.3727,-0.3189 -0.6193,-0.7376 -0.7392,-1.2572 -0.097,-0.4189 -0.0916,-0.826 0.0141,-1.2197 0.1058,-0.3943 0.3005,-0.7254 0.5834,-0.9938 0.2835,-0.269 0.6194,-0.4476 1.0077,-0.5375 0.3019,-0.0697 0.6166,-0.0646 0.9457,0.0162 0.0958,0.0261 0.1635,0.0348 0.2004,0.0263 0.055,-0.0127 0.0989,-0.0442 0.1309,-0.0927 0.0411,-0.0683 0.061,-0.1542 0.0604,-0.2585 z m 5.7645,-0.5947 c 0.5564,-0.0423 1.0553,0.1329 1.4947,0.5255 0.4405,0.3923 0.6846,0.9051 0.7328,1.5392 0.0496,0.6526 -0.1146,1.2096 -0.4936,1.6716 C 57.9019,13.074 57.42,13.3268 56.8358,13.371 56.2459,13.4158 55.7342,13.2429 55.3005,12.8531 54.8666,12.4634 54.6248,11.9353 54.574,11.2677 54.5224,10.586 54.7121,10.012 55.1429,9.546 55.5174,9.1417 55.9851,8.9181 56.5458,8.8756 Z m -0.0434,0.2313 c -0.3821,0.0292 -0.6794,0.1953 -0.8889,0.498 -0.2614,0.377 -0.3668,0.9077 -0.3147,1.5928 0.053,0.701 0.243,1.2297 0.5712,1.5849 0.2517,0.2701 0.5652,0.3906 0.9423,0.3619 0.4028,-0.0303 0.7225,-0.2134 0.9609,-0.5476 0.2387,-0.3354 0.3319,-0.8411 0.2806,-1.5194 C 57.998,10.3419 57.8112,9.8042 57.4957,9.4652 57.2426,9.1956 56.912,9.076 56.5024,9.1069 Z M 63.6639,8.9711 63.6613,9.9788 63.5443,9.9765 C 63.5391,9.773 63.4989,9.6083 63.4232,9.4847 63.3461,9.3597 63.252,9.2801 63.1392,9.2455 63.0261,9.21 62.8628,9.1908 62.6482,9.1868 l -1.2087,-0.0215 -0.0589,3.2884 c -0.0051,0.2849 0.0283,0.4666 0.0997,0.5437 0.0723,0.0783 0.2404,0.1236 0.5055,0.1369 l -0.002,0.1171 -1.8457,-0.0332 0.002,-0.117 c 0.2645,-0.0037 0.434,-0.0431 0.5091,-0.1188 0.0751,-0.0743 0.1151,-0.2548 0.1202,-0.5397 l 0.0491,-2.736 C 60.8236,9.4218 60.7901,9.2404 60.7175,9.163 60.6453,9.085 60.4772,9.0397 60.2133,9.0264 l 0.0019,-0.1171 z m 2.5064,2.6745 -0.1681,1.2486 c -0.036,0.2685 -0.0295,0.4388 0.0207,0.5111 0.0671,0.1032 0.1811,0.1653 0.3421,0.1871 l 0.1633,0.0218 -0.0156,0.116 -1.8295,-0.2461 0.0156,-0.1159 0.161,0.0215 c 0.1803,0.0244 0.3183,-0.017 0.4113,-0.1238 0.0508,-0.0587 0.0927,-0.2104 0.1253,-0.453 l 0.3719,-2.7638 C 65.8043,9.7807 65.7989,9.6106 65.7505,9.5386 65.6804,9.4351 65.5651,9.3728 65.4029,9.3509 l -0.1607,-0.0218 0.0156,-0.1159 1.5653,0.2106 c 0.3824,0.0513 0.6775,0.1315 0.8881,0.2395 0.2097,0.108 0.3776,0.2662 0.5037,0.4734 0.1264,0.2072 0.1718,0.4382 0.1372,0.6939 -0.0468,0.349 -0.1998,0.6168 -0.4589,0.8042 -0.2591,0.1871 -0.5981,0.2526 -1.0177,0.1962 -0.1032,-0.0139 -0.2129,-0.036 -0.3299,-0.0672 -0.1185,-0.0301 -0.2432,-0.07 -0.3753,-0.1182 z m 0.0241,-0.1806 c 0.1077,0.0366 0.2043,0.0661 0.2888,0.087 0.0834,0.0224 0.1568,0.0377 0.2171,0.0457 0.2177,0.0294 0.4159,-0.0304 0.5965,-0.1778 0.1805,-0.1471 0.2894,-0.3546 0.3254,-0.6219 0.0246,-0.1845 0.0102,-0.3617 -0.044,-0.5295 C 67.5247,10.1007 67.4331,9.968 67.3064,9.8711 67.1783,9.7741 67.0269,9.7135 66.852,9.69 66.7443,9.6755 66.6054,9.6775 66.4325,9.6948 Z m 4.9538,1.7119 -1.6274,-0.3714 -0.4314,0.5939 c -0.1066,0.1471 -0.1707,0.2613 -0.1888,0.3415 -0.0145,0.0633 0.0031,0.1273 0.0533,0.19 0.0493,0.0612 0.174,0.123 0.3725,0.1837 l -0.0261,0.1142 -1.3246,-0.3022 0.026,-0.1142 c 0.1826,0.0093 0.3048,-0.0048 0.3677,-0.0425 0.1284,-0.0754 0.2908,-0.2506 0.4875,-0.5247 l 2.2666,-3.1207 0.1046,0.0238 0.6633,3.8282 c 0.053,0.3078 0.1185,0.5136 0.1953,0.6202 0.0771,0.1055 0.1993,0.1823 0.3691,0.2319 L 72.43,14.9428 70.7737,14.565 70.7998,14.4507 c 0.1687,0.0298 0.288,0.0281 0.358,-0.0059 0.07,-0.034 0.112,-0.0856 0.1276,-0.1542 0.0207,-0.0907 0.0122,-0.2441 -0.0255,-0.4592 z M 71.1051,12.9271 70.7845,11.0707 69.6708,12.6 Z m 4.2724,0.5828 1.8615,0.7192 0.4473,-1.158 c 0.0788,-0.2041 0.1176,-0.3438 0.1171,-0.4181 -0.0012,-0.0564 -0.0264,-0.1148 -0.0766,-0.1749 -0.0663,-0.0802 -0.1474,-0.138 -0.2423,-0.1746 l -0.1426,-0.055 0.0422,-0.1094 1.7224,0.6653 -0.0423,0.1091 -0.1426,-0.055 c -0.0952,-0.0368 -0.1936,-0.0493 -0.2962,-0.0365 -0.0757,0.0065 -0.1375,0.0374 -0.1842,0.0924 -0.0479,0.0547 -0.1092,0.1808 -0.1851,0.377 l -1.0046,2.601 c -0.0786,0.203 -0.1174,0.3427 -0.1171,0.417 0.0014,0.0573 0.0252,0.1157 0.0731,0.1746 0.0686,0.0811 0.1505,0.1395 0.2458,0.1761 l 0.1426,0.0552 -0.0423,0.1092 -1.7223,-0.6653 0.0422,-0.1092 0.1426,0.055 c 0.1647,0.0638 0.3028,0.0613 0.4156,-0.0053 0.074,-0.0446 0.157,-0.1868 0.25,-0.4275 l 0.4731,-1.2246 -1.8618,-0.7191 -0.4731,1.2248 c -0.0782,0.203 -0.1173,0.3427 -0.1168,0.417 0,0.057 0.025,0.1154 0.0749,0.1755 0.0666,0.0802 0.1465,0.1377 0.2417,0.1743 l 0.1443,0.0558 -0.0422,0.1092 -1.7218,-0.665 0.0423,-0.1092 0.1423,0.055 c 0.1666,0.0644 0.3058,0.0624 0.4186,-0.0042 0.072,-0.0454 0.1537,-0.188 0.2467,-0.4286 l 1.0048,-2.6011 c 0.0788,-0.2041 0.118,-0.3438 0.1174,-0.4181 -0.0014,-0.0564 -0.0255,-0.1142 -0.0734,-0.1735 -0.0686,-0.0813 -0.1505,-0.1395 -0.2455,-0.176 l -0.1426,-0.0553 0.0423,-0.1091 1.7217,0.6653 -0.0419,0.1091 -0.1446,-0.0558 c -0.0952,-0.0369 -0.1925,-0.0488 -0.2951,-0.0363 -0.0737,0.0076 -0.1346,0.0385 -0.182,0.0932 -0.0479,0.0547 -0.1105,0.1803 -0.1862,0.3768 z m 7.6941,1.9982 C 83.1903,15.2796 83.2289,15.116 83.1864,15.0174 83.1438,14.9182 83.01,14.8096 82.785,14.6925 l 0.0541,-0.104 1.6489,0.8583 -0.0541,0.1038 c -0.2381,-0.1143 -0.4076,-0.1548 -0.5085,-0.1208 -0.1004,0.0335 -0.2166,0.1769 -0.3481,0.4295 l -1.2634,2.4276 c -0.1316,0.2525 -0.1826,0.4303 -0.152,0.5315 0.0298,0.1023 0.1602,0.2177 0.3904,0.3472 l -0.0539,0.104 -1.6489,-0.8583 0.0538,-0.1037 c 0.2461,0.1184 0.419,0.1593 0.521,0.1255 0.1015,-0.0351 0.2172,-0.1774 0.3476,-0.4283 l 1.1435,-2.1968 -2.9498,1.3592 c -0.0833,0.1641 -0.1298,0.2795 -0.1383,0.3455 -0.0093,0.0647 0.0136,0.133 0.0692,0.2021 0.0555,0.0695 0.1737,0.1542 0.3554,0.2535 l -0.0541,0.104 -1.6432,-0.8555 0.0541,-0.1038 c 0.2384,0.1146 0.4076,0.1551 0.5085,0.1208 0.1004,-0.0332 0.2169,-0.1769 0.3484,-0.4297 l 1.2634,-2.4273 c 0.1315,-0.2526 0.1823,-0.4301 0.1519,-0.5315 -0.0297,-0.1024 -0.1601,-0.2177 -0.3906,-0.3473 l 0.0542,-0.1037 1.6429,0.8552 -0.0538,0.1037 c -0.2424,-0.1165 -0.4127,-0.1576 -0.5145,-0.1238 -0.1004,0.0334 -0.2166,0.1768 -0.3481,0.4294 l -1.1463,2.2028 z m 3.8381,3.9268 0.6984,-1.1041 c 0.1304,-0.2061 0.2007,-0.3458 0.2126,-0.4192 0.0125,-0.074 -0.0102,-0.15 -0.0672,-0.2282 -0.0578,-0.0791 -0.1578,-0.1656 -0.3024,-0.2594 l 0.0626,-0.0989 1.5599,0.987 -0.0626,0.0989 c -0.1502,-0.0927 -0.2724,-0.1468 -0.3657,-0.1635 -0.0941,-0.0173 -0.1726,-0.0029 -0.2367,0.0439 -0.0635,0.0456 -0.1584,0.1675 -0.2843,0.366 l -1.4491,2.2906 c -0.1326,0.2098 -0.2026,0.3527 -0.2111,0.4306 -0.0077,0.0774 0.0153,0.1505 0.0688,0.2217 0.0533,0.0697 0.1537,0.1548 0.2991,0.2545 l -0.0626,0.099 -1.56,-0.9868 0.0627,-0.0989 c 0.159,0.0955 0.282,0.1502 0.3691,0.1641 0.0881,0.015 0.1635,0.0012 0.2259,-0.0391 0.0632,-0.0408 0.1604,-0.1638 0.292,-0.3716 l 0.6185,-0.9777 c -0.5791,-0.0842 -1.0106,-0.2163 -1.2946,-0.396 -0.2132,-0.1349 -0.3597,-0.2866 -0.4402,-0.4552 -0.0802,-0.169 -0.1055,-0.313 -0.0754,-0.4337 0.0295,-0.1199 0.1389,-0.3289 0.3271,-0.6265 l 0.3912,-0.6179 c 0.1278,-0.2022 0.1978,-0.3413 0.2109,-0.419 0.0127,-0.0765 -0.0114,-0.1545 -0.0689,-0.2336 -0.0584,-0.0776 -0.1582,-0.1627 -0.2994,-0.2542 l 0.0627,-0.099 1.571,0.9939 -0.0627,0.0989 c -0.1528,-0.0967 -0.2798,-0.1528 -0.3818,-0.1698 -0.1021,-0.0173 -0.1854,6e-4 -0.2483,0.0555 -0.0632,0.0536 -0.1528,0.1727 -0.2679,0.3549 l -0.3198,0.5055 c -0.1502,0.2369 -0.2423,0.4133 -0.2792,0.5298 -0.0357,0.1156 -0.0294,0.227 0.0199,0.3316 0.0487,0.1052 0.1363,0.1979 0.2636,0.2784 0.2682,0.1698 0.6092,0.2854 1.0239,0.3475 z m 4.3075,0.8912 -1.1126,1.2895 0.7186,0.6199 c 0.1862,0.1605 0.3339,0.2396 0.4447,0.2376 0.1472,-0.002 0.3048,-0.0916 0.4746,-0.2685 l 0.0887,0.0763 -0.9811,1.137 -0.0884,-0.0766 c 0.1153,-0.1783 0.1805,-0.3004 0.1973,-0.3645 0.0195,-0.0808 0.0104,-0.1661 -0.0278,-0.2546 -0.038,-0.0887 -0.1247,-0.1922 -0.2608,-0.3095 l -0.7186,-0.6199 -0.9286,1.076 c -0.1245,0.1446 -0.1939,0.2378 -0.2084,0.2795 -0.0136,0.0428 -0.0133,0.087 0.0029,0.1329 0.0158,0.0462 0.0697,0.1083 0.159,0.1854 l 0.5519,0.4762 c 0.1837,0.1585 0.3288,0.2608 0.4343,0.3079 0.1048,0.0459 0.2293,0.0643 0.3705,0.0547 0.1851,-0.0136 0.4161,-0.076 0.693,-0.1863 l 0.0984,0.0848 -0.9862,0.5746 -2.514,-2.1691 0.0765,-0.0887 0.1154,0.0998 c 0.0774,0.0666 0.1666,0.1105 0.2673,0.1332 0.0737,0.0193 0.142,0.0111 0.2049,-0.0252 0.0632,-0.0352 0.1627,-0.1324 0.3002,-0.2917 l 1.8301,-2.1212 c 0.1783,-0.2066 0.2676,-0.3515 0.2667,-0.4351 -0.0031,-0.1142 -0.0714,-0.229 -0.2069,-0.3458 l -0.1154,-0.0995 0.0763,-0.0887 2.5149,2.1696 -0.5854,0.7483 -0.0935,-0.0807 c 0.1156,-0.2022 0.1814,-0.3527 0.1961,-0.4533 0.015,-0.1001 -0.0031,-0.2015 -0.053,-0.3047 -0.0434,-0.0788 -0.146,-0.1891 -0.3078,-0.3286 z m 2.5722,4.6721 1.3719,1.449 0.9014,-0.8532 c 0.1591,-0.1505 0.254,-0.2599 0.2855,-0.3274 0.0232,-0.0513 0.0255,-0.1148 0.0062,-0.1908 -0.0255,-0.1009 -0.074,-0.1879 -0.144,-0.2619 l -0.1049,-0.1108 0.0851,-0.0805 1.2691,1.3405 -0.0851,0.0805 -0.1049,-0.1108 c -0.0703,-0.074 -0.1536,-0.1279 -0.2517,-0.1602 -0.0711,-0.0266 -0.1403,-0.0255 -0.2061,0.004 -0.0666,0.0289 -0.1763,0.1165 -0.3291,0.261 l -2.025,1.9171 c -0.1579,0.1497 -0.2532,0.2591 -0.2849,0.326 -0.0233,0.0524 -0.0267,0.1154 -0.0088,0.1893 0.0269,0.1024 0.076,0.1905 0.146,0.2645 l 0.1051,0.1111 -0.085,0.0803 -1.2693,-1.3405 0.085,-0.0805 0.1052,0.1108 c 0.1213,0.1284 0.2469,0.1854 0.3775,0.1737 0.0862,-0.0085 0.222,-0.1011 0.4094,-0.2783 l 0.9532,-0.9028 -1.3719,-1.4491 -0.9533,0.9025 c -0.1582,0.1497 -0.2534,0.2591 -0.2849,0.3263 -0.0244,0.0516 -0.0269,0.1151 -0.0077,0.1908 0.0258,0.1009 0.0732,0.1873 0.1432,0.2613 l 0.1066,0.1123 -0.0851,0.0805 -1.269,-1.3405 0.085,-0.0805 0.1049,0.1111 c 0.1227,0.1295 0.2492,0.1876 0.3798,0.176 0.0845,-0.0102 0.2197,-0.1037 0.4071,-0.2809 l 2.0248,-1.9171 c 0.159,-0.1505 0.2542,-0.2599 0.2857,-0.3271 0.023,-0.0516 0.0261,-0.1142 0.0082,-0.1882 -0.0269,-0.1029 -0.0759,-0.1905 -0.146,-0.2645 l -0.1051,-0.1111 0.085,-0.0805 1.2691,1.3405 -0.085,0.0805 -0.1063,-0.1122 c -0.0703,-0.0743 -0.1531,-0.127 -0.2509,-0.1596 -0.0697,-0.025 -0.1383,-0.023 -0.2047,0.0059 -0.0666,0.0289 -0.1771,0.1154 -0.3299,0.26 z m 3.8092,4.2721 1.231,1.5706 0.9769,-0.7656 c 0.1723,-0.1349 0.2772,-0.2353 0.3146,-0.2993 0.0278,-0.0491 0.0363,-0.112 0.0238,-0.1894 -0.0159,-0.1029 -0.0558,-0.1942 -0.1188,-0.2741 l -0.0941,-0.1205 0.0922,-0.072 1.1386,1.4531 -0.0921,0.0723 -0.0941,-0.1205 c -0.0629,-0.0802 -0.1412,-0.1415 -0.2356,-0.1829 -0.0686,-0.0331 -0.1374,-0.0382 -0.2058,-0.015 -0.0688,0.0224 -0.1862,0.0992 -0.3517,0.2291 l -2.1949,1.72 c -0.1712,0.1344 -0.2761,0.2345 -0.3141,0.2982 -0.028,0.0499 -0.0374,0.1123 -0.0263,0.1877 0.0172,0.1046 0.0578,0.1967 0.1207,0.2769 l 0.0944,0.1202 -0.0924,0.0723 -1.1387,-1.453 0.0921,-0.0723 0.0942,0.1202 c 0.1091,0.1391 0.2287,0.2077 0.36,0.2083 0.0864,-6e-4 0.2304,-0.0802 0.4334,-0.2392 l 1.0335,-0.8099 -1.2311,-1.5709 -1.0335,0.8101 c -0.1712,0.1341 -0.2764,0.2341 -0.3141,0.2982 -0.0289,0.049 -0.0374,0.112 -0.0252,0.1891 0.0161,0.1029 0.0553,0.1933 0.1182,0.2738 l 0.0955,0.1216 -0.0921,0.0723 -1.1387,-1.4528 0.0921,-0.0723 0.0941,0.1202 c 0.1103,0.1406 0.2308,0.2101 0.362,0.2106 0.0851,-0.0022 0.2282,-0.0827 0.4312,-0.2417 l 2.1948,-1.7201 c 0.1721,-0.1349 0.2773,-0.235 0.315,-0.2991 0.0275,-0.049 0.0365,-0.1111 0.0258,-0.1865 -0.0176,-0.1049 -0.0581,-0.197 -0.1211,-0.2769 l -0.0941,-0.1205 0.0921,-0.072 1.1387,1.4528 -0.0921,0.0722 -0.0955,-0.1219 c -0.063,-0.0802 -0.1403,-0.1406 -0.235,-0.1822 -0.0669,-0.0312 -0.1352,-0.0357 -0.2041,-0.0131 -0.0692,0.0224 -0.1871,0.0984 -0.3526,0.2282 z m 5.7169,4.6491 c 0.2746,0.4855 0.3285,1.0117 0.1598,1.5763 -0.1678,0.5655 -0.5281,1.0046 -1.0814,1.3176 -0.5697,0.3223 -1.1435,0.4104 -1.7229,0.2641 -0.5788,-0.1457 -1.0125,-0.4742 -1.3011,-0.9841 -0.2914,-0.5151 -0.3523,-1.0517 -0.1839,-1.6101 0.1683,-0.5584 0.5434,-1.0018 1.1262,-1.3315 0.5949,-0.3367 1.195,-0.409 1.8002,-0.2171 0.5253,0.167 0.9261,0.4955 1.2031,0.9848 z m -0.2277,0.0589 c -0.1887,-0.3336 -0.4654,-0.532 -0.8285,-0.593 -0.4527,-0.0759 -0.9777,0.0542 -1.5755,0.3926 -0.612,0.3461 -1.01,0.7427 -1.192,1.1906 -0.1372,0.343 -0.1131,0.6777 0.0729,1.0068 0.199,0.3515 0.5006,0.5636 0.9045,0.6373 0.4048,0.0734 0.9023,-0.0573 1.4944,-0.3923 0.6421,-0.3634 1.0494,-0.7609 1.222,-1.1906 0.1367,-0.3438 0.1044,-0.6939 -0.0978,-1.0514 z m 4.5196,5.5151 c 0.0266,0.059 0.0244,0.1219 -0.007,0.1882 -0.0318,0.0667 -0.0822,0.1154 -0.1511,0.1466 -0.1712,0.0774 -0.3583,0.0547 -0.5615,-0.0661 -0.2033,-0.121 -0.3912,-0.3736 -0.565,-0.7588 -0.1743,-0.3858 -0.2404,-0.6948 -0.1967,-0.9275 0.0442,-0.2316 0.1514,-0.3858 0.3226,-0.4629 0.0669,-0.0303 0.1366,-0.0371 0.2069,-0.0176 0.0717,0.0187 0.1213,0.0604 0.1499,0.1239 0.0284,0.0632 0.0284,0.1284 -2e-4,0.1962 -0.0292,0.0677 -0.1089,0.1811 -0.2396,0.3387 -0.1868,0.2234 -0.2265,0.4541 -0.1185,0.6931 0.1069,0.2367 0.3062,0.3597 0.5982,0.3693 0.206,0.0032 0.3441,0.0168 0.4127,0.0394 0.068,0.0219 0.1173,0.0681 0.1488,0.1375 z m -1.929,0.8926 c 0.2347,-0.106 0.366,-0.2109 0.3938,-0.3146 0.028,-0.104 -0.0102,-0.2724 -0.1146,-0.5034 l 0.1066,-0.0482 0.7654,1.694 -0.1066,0.0482 c -0.1165,-0.2373 -0.2248,-0.3739 -0.3251,-0.4094 -0.0995,-0.036 -0.2795,0.0048 -0.5392,0.1222 l -2.4939,1.1265 c -0.2597,0.1173 -0.4096,0.2253 -0.4482,0.3237 -0.0399,0.0989 -0.009,0.2704 0.0922,0.5145 l -0.1066,0.0482 -0.7654,-1.694 0.1069,-0.0482 c 0.1199,0.2452 0.2304,0.3844 0.3316,0.421 0.1012,0.0351 0.2804,-0.0054 0.5381,-0.1219 l 2.2569,-1.0194 -3.1586,-0.756 c -0.167,0.0777 -0.275,0.1395 -0.3226,0.1863 -0.0474,0.045 -0.0715,0.1128 -0.0706,0.2018 0.001,0.0887 0.0414,0.2285 0.1227,0.4187 l -0.1066,0.0482 -0.7625,-1.6881 0.1066,-0.0482 c 0.1165,0.2373 0.2245,0.3739 0.3251,0.4094 0.0993,0.036 0.2795,-0.0051 0.5392,-0.1225 l 2.4939,-1.1265 c 0.2597,-0.1171 0.4093,-0.2251 0.4482,-0.3237 0.0397,-0.0986 0.009,-0.2701 -0.0924,-0.5142 l 0.1068,-0.0482 0.7625,1.688 -0.1068,0.0482 c -0.1182,-0.2412 -0.2268,-0.379 -0.3277,-0.4155 -0.0992,-0.0358 -0.2792,0.0054 -0.5389,0.1224 l -2.2632,1.0222 z" />
  <path
     id="path10"
     style="fill:#1b1918;fill-rule:evenodd"
     d="m 21.566,40.462 c 0.263,-0.4921 0.6786,-0.8189 1.2458,-0.9791 0.5675,-0.1607 1.1313,-0.0915 1.692,0.2084 0.5771,0.3087 0.9587,0.7461 1.1455,1.3138 0.1865,0.567 0.1414,1.1089 -0.1349,1.6257 -0.279,0.5219 -0.6996,0.8606 -1.2615,1.0174 -0.5618,0.1567 -1.1369,0.0773 -1.7274,-0.2384 -0.6029,-0.3223 -0.9853,-0.7906 -1.1472,-1.4046 -0.14,-0.5329 -0.0774,-1.0474 0.1877,-1.5432 z m 0.1718,0.1607 c -0.1806,0.3379 -0.2002,0.6781 -0.0573,1.0174 0.178,0.4229 0.5689,0.7965 1.175,1.1205 0.6199,0.3317 1.1678,0.4553 1.6438,0.3694 0.3631,-0.0678 0.633,-0.2673 0.8113,-0.6007 0.1904,-0.3563 0.2077,-0.7242 0.0538,-1.1049 -0.1548,-0.3813 -0.5312,-0.7316 -1.1313,-1.0522 -0.6505,-0.3481 -1.2044,-0.4794 -1.66,-0.3949 -0.3631,0.0686 -0.6417,0.2832 -0.8353,0.6454 z m 4.0402,-6.8133 0.8546,0.5457 -0.0694,0.0986 c -0.159,-0.0831 -0.2818,-0.1307 -0.3665,-0.1417 -0.1384,-0.0165 -0.2625,0.002 -0.3728,0.0584 -0.1105,0.0558 -0.2168,0.1559 -0.3189,0.3013 l -0.3492,0.496 2.6892,1.8933 c 0.2171,0.1528 0.3688,0.2251 0.4558,0.2163 0.1191,-0.0142 0.2262,-0.0899 0.3223,-0.2265 l 0.0853,-0.121 0.0959,0.0671 -1.0551,1.499 -0.0958,-0.0675 0.089,-0.1264 c 0.1063,-0.1508 0.1358,-0.2891 0.0907,-0.4161 -0.0292,-0.0774 -0.1423,-0.1862 -0.3399,-0.3251 l -2.6892,-1.8933 -0.2976,0.4224 c -0.116,0.1649 -0.186,0.2902 -0.2104,0.3764 -0.0311,0.1134 -0.0218,0.2339 0.0264,0.3645 0.0485,0.1293 0.1482,0.2566 0.2988,0.3813 l -0.0692,0.0984 -0.8022,-0.6203 z m 4.8889,-2.3715 c 0.2506,-0.1735 0.4768,-0.2676 0.6809,-0.2792 0.2823,-0.0161 0.5267,0.072 0.7322,0.2645 0.1564,0.1468 0.2605,0.3365 0.3109,0.5695 0.0505,0.233 0.0281,0.4657 -0.068,0.6996 -0.0952,0.233 -0.3081,0.5266 -0.6392,0.8798 l -1.3881,1.48 -0.0854,-0.0799 0.1095,-0.1171 c 0.1224,-0.1304 0.168,-0.2628 0.1383,-0.3977 -0.0201,-0.0856 -0.1194,-0.2112 -0.2948,-0.3759 l -2.0339,-1.9074 c -0.1944,-0.1823 -0.3379,-0.2753 -0.4297,-0.2781 -0.1245,-0.004 -0.2412,0.0527 -0.3526,0.1715 l -0.1095,0.1168 -0.0853,-0.0802 1.2699,-1.3541 c 0.2373,-0.2532 0.4454,-0.4383 0.6251,-0.5562 0.2735,-0.1786 0.5369,-0.2631 0.7923,-0.252 0.2556,0.0108 0.4745,0.1018 0.6587,0.2744 0.1574,0.1474 0.2537,0.3268 0.2886,0.5394 0.0346,0.2121 -0.0051,0.4397 -0.1199,0.6823 z m -1.2654,1.0914 c 0.0644,-0.0465 0.1338,-0.1046 0.2075,-0.1721 0.0743,-0.0683 0.1522,-0.1466 0.2347,-0.2344 0.2109,-0.2251 0.3458,-0.4181 0.4037,-0.5763 0.0578,-0.1582 0.0652,-0.3149 0.0209,-0.4691 -0.0439,-0.1525 -0.125,-0.2849 -0.2434,-0.396 -0.1832,-0.1718 -0.4094,-0.2427 -0.6789,-0.2152 -0.2691,0.0286 -0.5386,0.186 -0.8068,0.472 -0.1443,0.1539 -0.2579,0.3089 -0.3399,0.464 z m 1.5061,1.4125 c 0.21,-0.1401 0.3971,-0.2985 0.5609,-0.4734 0.2634,-0.2807 0.4009,-0.5536 0.413,-0.8187 0.0122,-0.2647 -0.0745,-0.4844 -0.2593,-0.6579 -0.1216,-0.1139 -0.2713,-0.1902 -0.4482,-0.227 -0.1766,-0.0377 -0.3674,-0.0117 -0.5723,0.0768 -0.2047,0.0887 -0.4113,0.2438 -0.6182,0.4646 -0.0896,0.0955 -0.1644,0.1783 -0.2248,0.2491 -0.0607,0.0712 -0.1063,0.1307 -0.1384,0.1795 z m 1.743,-6.9211 1.0477,1.3428 0.7483,-0.5837 c 0.1936,-0.1514 0.2999,-0.2809 0.3198,-0.3898 0.0269,-0.1448 -0.0304,-0.3169 -0.171,-0.5178 l 0.0924,-0.072 0.9236,1.1837 -0.0922,0.072 c -0.1525,-0.148 -0.2596,-0.2358 -0.3191,-0.2648 -0.0754,-0.0348 -0.1608,-0.0425 -0.2552,-0.0223 -0.0943,0.0201 -0.2126,0.085 -0.3543,0.1955 l -0.7483,0.5837 0.8742,1.1205 c 0.1173,0.1506 0.1953,0.2367 0.2333,0.2591 0.0391,0.0218 0.0827,0.0301 0.1309,0.0233 0.0485,-0.0066 0.1199,-0.0474 0.2129,-0.1199 l 0.5749,-0.4485 c 0.1913,-0.1491 0.32,-0.2715 0.3866,-0.3659 0.0655,-0.0939 0.108,-0.2121 0.1262,-0.3524 0.0226,-0.1842 0.0065,-0.4229 -0.0477,-0.7163 l 0.1024,-0.0799 0.371,1.0794 -2.6181,2.0424 -0.072,-0.0924 0.1202,-0.0939 c 0.0805,-0.0626 0.1412,-0.1414 0.1829,-0.2361 0.0334,-0.0683 0.0385,-0.1372 0.0153,-0.2055 -0.0221,-0.0692 -0.0981,-0.1857 -0.2274,-0.3515 L 32.4848,27.8016 C 32.3169,27.5862 32.1922,27.4703 32.11,27.455 c -0.1125,-0.0193 -0.2384,0.0255 -0.3795,0.1355 l -0.1202,0.0938 -0.072,-0.0924 2.6186,-2.043 0.6197,0.7203 -0.0973,0.076 c -0.176,-0.1531 -0.3106,-0.2469 -0.4062,-0.2809 -0.0955,-0.0343 -0.1984,-0.0363 -0.3092,-0.0077 -0.0859,0.0275 -0.214,0.1066 -0.3824,0.2379 z m 6.7782,-4.7928 0.5281,0.8654 -0.1058,0.0581 c -0.1062,-0.1443 -0.1955,-0.2412 -0.267,-0.2883 -0.1168,-0.0754 -0.2367,-0.1134 -0.3603,-0.1111 -0.1241,0.0017 -0.2633,0.0448 -0.4189,0.1304 l -0.5318,0.2922 1.5849,2.8823 c 0.1278,0.2325 0.2324,0.3643 0.3146,0.3943 0.1128,0.0394 0.2426,0.0187 0.3889,-0.0618 l 0.1298,-0.0714 0.0564,0.1026 -1.6061,0.8833 -0.0564,-0.1026 0.1355,-0.0746 c 0.1616,-0.089 0.2489,-0.2001 0.2642,-0.3342 0.0077,-0.0822 -0.0462,-0.2296 -0.1624,-0.4414 l -1.5849,-2.8819 -0.4527,0.2491 c -0.1766,0.097 -0.2945,0.1789 -0.3543,0.2455 -0.0777,0.0885 -0.1224,0.2007 -0.1363,0.3393 -0.0136,0.1375 0.0204,0.2954 0.1009,0.4737 L 36.79,24.8346 36.3416,23.9253 Z m 5.2928,-2.5847 0.6401,1.3184 -0.0901,0.0369 c -0.2861,-0.3563 -0.5775,-0.5794 -0.8745,-0.6659 -0.2974,-0.0873 -0.603,-0.0677 -0.9179,0.0601 -0.263,0.1066 -0.4748,0.271 -0.633,0.4921 -0.1581,0.2208 -0.2389,0.5026 -0.242,0.8473 -0.002,0.3433 0.0856,0.7347 0.263,1.1724 0.1468,0.3614 0.3311,0.6514 0.5539,0.8697 0.2231,0.2182 0.4791,0.3503 0.7673,0.3982 0.2895,0.0474 0.582,0.0108 0.8779,-0.1094 0.258,-0.1046 0.4635,-0.2523 0.6154,-0.4427 0.1531,-0.1905 0.2807,-0.4984 0.383,-0.9236 l 0.1156,0.0236 c -0.0558,0.4354 -0.1836,0.7888 -0.3829,1.0612 -0.1996,0.2716 -0.4825,0.4822 -0.8476,0.6305 -0.6596,0.2676 -1.2702,0.2299 -1.8309,-0.1143 -0.4181,-0.2559 -0.7279,-0.6304 -0.9283,-1.1245 -0.1619,-0.3985 -0.2208,-0.8013 -0.1786,-1.2067 0.0422,-0.4062 0.1823,-0.7636 0.4192,-1.0737 0.2376,-0.3102 0.5409,-0.5398 0.9102,-0.6894 0.2869,-0.1165 0.5987,-0.1613 0.9363,-0.1335 0.0987,0.0104 0.167,0.0085 0.2021,-0.0057 0.0522,-0.0213 0.0908,-0.0593 0.1148,-0.112 0.0295,-0.0742 0.0358,-0.1621 0.0188,-0.265 z m 5.6467,-1.6253 0.3322,0.9578 -0.1157,0.0343 c -0.0734,-0.1636 -0.14,-0.2772 -0.1998,-0.3385 -0.0981,-0.0983 -0.2072,-0.161 -0.3286,-0.1851 -0.1213,-0.0246 -0.2667,-0.0119 -0.4371,0.0386 l -0.5813,0.1729 0.9368,3.1527 c 0.0754,0.2543 0.1497,0.4053 0.2237,0.4521 0.102,0.0627 0.233,0.0697 0.3931,0.0224 l 0.142,-0.0422 0.0335,0.1122 -1.7569,0.5219 -0.0335,-0.112 0.1483,-0.0442 c 0.1766,-0.0525 0.2857,-0.1426 0.3291,-0.2704 0.0249,-0.0788 0.0037,-0.2342 -0.0652,-0.4658 l -0.9369,-3.1527 -0.4952,0.1472 c -0.1933,0.0575 -0.326,0.1125 -0.3985,0.1649 -0.0947,0.0698 -0.1622,0.1698 -0.2053,0.3025 -0.0422,0.1315 -0.0428,0.2931 -0.0019,0.4844 l -0.1151,0.0343 -0.2449,-0.9839 z m 5.3512,1.3592 c 0.3039,0.0198 0.5397,0.087 0.707,0.2046 0.231,0.163 0.3676,0.3841 0.4084,0.6625 0.0315,0.2123 -0.0051,0.4258 -0.1105,0.6395 -0.1055,0.2137 -0.2679,0.3821 -0.4884,0.5054 -0.2197,0.123 -0.5689,0.2208 -1.048,0.2911 l -2.0072,0.2957 -0.0173,-0.116 0.1585,-0.0232 c 0.1771,-0.0261 0.295,-0.1015 0.3557,-0.2254 0.0374,-0.0799 0.038,-0.2398 0.0031,-0.4779 l -0.4062,-2.7587 c -0.0388,-0.2636 -0.0932,-0.4254 -0.1633,-0.485 -0.0949,-0.0802 -0.2219,-0.1085 -0.3829,-0.085 l -0.1582,0.0232 -0.0173,-0.1156 1.8371,-0.2704 c 0.3428,-0.0505 0.6211,-0.0664 0.8351,-0.0465 0.3255,0.03 0.5843,0.1278 0.7773,0.2953 0.1933,0.1676 0.3081,0.3751 0.345,0.6248 0.0314,0.2132 -0.0048,0.4136 -0.1097,0.6018 -0.1049,0.1874 -0.2773,0.341 -0.5182,0.4598 z m -1.6696,0.0672 c 0.0791,0.0036 0.1698,0.0014 0.2696,-0.0057 0.1006,-0.0074 0.2103,-0.0201 0.3294,-0.0374 0.3052,-0.0451 0.5309,-0.1123 0.6746,-0.2004 0.1437,-0.0879 0.2469,-0.2058 0.3081,-0.3541 0.0607,-0.1468 0.0794,-0.3007 0.0559,-0.4615 -0.0366,-0.2486 -0.1695,-0.4447 -0.3977,-0.5907 -0.2285,-0.1449 -0.5375,-0.1894 -0.9253,-0.1324 -0.2089,0.0309 -0.3943,0.0814 -0.5547,0.1519 z m 0.3005,2.0426 c 0.2517,0.0213 0.4969,0.0136 0.7339,-0.0213 0.3806,-0.0561 0.6582,-0.1845 0.8325,-0.3843 0.1743,-0.1999 0.2429,-0.4258 0.2061,-0.6764 -0.0244,-0.165 -0.0941,-0.318 -0.2095,-0.4564 -0.1148,-0.1397 -0.2804,-0.2378 -0.4961,-0.2962 -0.2154,-0.0578 -0.4736,-0.0649 -0.773,-0.0207 -0.1295,0.019 -0.2398,0.0374 -0.3311,0.0553 -0.0915,0.0181 -0.1644,0.0363 -0.2197,0.0544 z m 5.669,-4.0998 -0.0091,1.7031 0.949,0.0051 c 0.2458,0.0011 0.4096,-0.0349 0.4924,-0.108 0.1109,-0.0969 0.1724,-0.2676 0.1868,-0.5125 l 0.1171,6e-4 -0.0079,1.5015 -0.1171,-6e-4 C 61.6025,19.766 61.5728,19.6305 61.5438,19.571 61.5064,19.497 61.4441,19.438 61.3576,19.3952 61.2711,19.3524 61.1379,19.3303 60.9582,19.3294 l -0.949,-0.0051 -0.0077,1.4213 c -8e-4,0.1908 0.0071,0.3067 0.023,0.3478 0.0173,0.0412 0.0462,0.0749 0.0884,0.0993 0.0422,0.0249 0.1233,0.0371 0.2412,0.0377 l 0.7291,0.0039 c 0.2427,0.0014 0.4195,-0.015 0.5301,-0.0479 0.1097,-0.0331 0.2163,-0.0998 0.3175,-0.1987 0.1318,-0.1307 0.267,-0.328 0.4062,-0.5919 l 0.1298,9e-4 -0.377,1.0772 -3.3205,-0.0176 6e-4,-0.1171 0.1525,6e-4 c 0.102,5e-4 0.1987,-0.0238 0.2899,-0.072 0.0684,-0.0332 0.1151,-0.0839 0.1392,-0.1522 0.0255,-0.0678 0.038,-0.2064 0.0391,-0.4167 l 0.0151,-2.8015 c 0.0014,-0.273 -0.0247,-0.4411 -0.0797,-0.504 -0.0765,-0.0851 -0.2029,-0.1279 -0.3818,-0.1287 l -0.1525,-9e-4 6e-4,-0.117 3.3213,0.0175 0.0405,0.9494 -0.1235,-6e-4 C 61.9872,17.8841 61.9396,17.7267 61.8857,17.6409 61.8318,17.555 61.7525,17.4895 61.6473,17.4433 61.5631,17.4118 61.4134,17.3945 61.2,17.3934 Z m 5.5287,2.2068 1.9715,0.3098 0.1927,-1.2262 c 0.034,-0.2163 0.0423,-0.3609 0.0261,-0.4334 -0.013,-0.055 -0.0502,-0.1066 -0.1117,-0.1548 -0.0819,-0.0646 -0.1732,-0.1038 -0.2738,-0.1196 l -0.1508,-0.0238 0.0181,-0.1157 1.8238,0.2866 -0.0181,0.1156 -0.1511,-0.0238 c -0.1006,-0.0156 -0.1996,-0.0071 -0.2971,0.027 -0.0728,0.0224 -0.1267,0.0654 -0.1607,0.1289 -0.0351,0.0638 -0.0686,0.1999 -0.1012,0.4077 l -0.4328,2.7547 c -0.0338,0.2151 -0.0423,0.3597 -0.0264,0.4322 0.0133,0.0559 0.049,0.1078 0.1086,0.1554 0.0839,0.0646 0.1763,0.1043 0.2772,0.1202 l 0.1508,0.0238 -0.0181,0.1156 -1.8239,-0.2865 0.0182,-0.1157 0.1511,0.0238 c 0.1743,0.0272 0.3087,-0.004 0.405,-0.0932 0.063,-0.0593 0.114,-0.2155 0.154,-0.4703 l 0.2038,-1.2971 -1.9715,-0.3099 -0.2038,1.2972 c -0.0338,0.2151 -0.0423,0.3597 -0.0264,0.4322 0.0125,0.0556 0.049,0.1075 0.1106,0.1557 0.0819,0.0643 0.1723,0.1037 0.2729,0.1196 l 0.1531,0.0241 -0.0184,0.1156 -1.8235,-0.2865 0.0184,-0.1157 0.1508,0.0235 c 0.1763,0.0278 0.3118,-0.0034 0.4082,-0.0924 0.0606,-0.0595 0.1105,-0.2163 0.1505,-0.4711 L 65.137,18.273 c 0.0341,-0.2163 0.0428,-0.3612 0.0267,-0.4334 -0.0133,-0.055 -0.0491,-0.1066 -0.1086,-0.1542 -0.0842,-0.065 -0.1766,-0.1046 -0.2772,-0.1202 l -0.1508,-0.0238 0.0181,-0.1157 1.8236,0.2866 -0.0182,0.1156 -0.1528,-0.0241 c -0.1009,-0.0158 -0.1987,-0.007 -0.2962,0.027 -0.0703,0.0226 -0.1233,0.066 -0.1582,0.1295 -0.0354,0.0635 -0.07,0.1996 -0.1026,0.4074 z m 6.211,1.4168 1.8824,0.6624 0.4119,-1.1707 C 74.1263,20.2958 74.1609,20.1552 74.158,20.0809 74.1549,20.0245 74.128,19.967 74.0764,19.9083 74.0075,19.83 73.9247,19.7748 73.8286,19.741 l -0.144,-0.0507 0.0389,-0.1106 1.7413,0.6129 -0.0388,0.1105 -0.144,-0.0507 c -0.0964,-0.0337 -0.1951,-0.0434 -0.2971,-0.0275 -0.0757,0.0088 -0.1364,0.0414 -0.1814,0.0978 -0.0462,0.0561 -0.1038,0.184 -0.1738,0.3824 l -0.9255,2.6303 c -0.0723,0.2052 -0.1069,0.3461 -0.1046,0.4203 0.0031,0.0573 0.0289,0.1149 0.0785,0.1724 0.0709,0.0788 0.1545,0.1346 0.2509,0.1687 l 0.144,0.0507 -0.0389,0.1103 -1.7413,-0.6129 0.0389,-0.1103 0.144,0.0505 c 0.1666,0.0587 0.3044,0.0522 0.4152,-0.0179 0.0729,-0.0467 0.1514,-0.1913 0.237,-0.4345 l 0.436,-1.2387 -1.8825,-0.6625 -0.436,1.2387 c -0.0723,0.2053 -0.1071,0.3459 -0.1043,0.4201 0.002,0.057 0.0283,0.1148 0.0802,0.1732 0.0692,0.0783 0.1505,0.1333 0.2469,0.1673 l 0.146,0.0513 -0.0388,0.1102 -1.7414,-0.6125 0.0389,-0.1106 0.1443,0.0508 c 0.1683,0.0592 0.3072,0.0533 0.4181,-0.017 0.0706,-0.0477 0.1479,-0.1925 0.2336,-0.4357 l 0.9257,-2.6303 c 0.0726,-0.2066 0.1075,-0.3472 0.1046,-0.4215 -0.0028,-0.0564 -0.0286,-0.1134 -0.0785,-0.1712 -0.0708,-0.0791 -0.1547,-0.1349 -0.2508,-0.1687 l -0.144,-0.0507 0.0388,-0.1103 1.7413,0.6129 -0.0388,0.1102 -0.146,-0.0513 c -0.0964,-0.034 -0.1942,-0.0431 -0.2962,-0.0272 -0.0734,0.0097 -0.1333,0.0425 -0.1792,0.0987 -0.0462,0.0561 -0.1049,0.1834 -0.1746,0.3818 z m 7.7323,1.0355 c 0.4921,0.263 0.8189,0.6786 0.9791,1.2458 0.1607,0.5675 0.0915,1.1313 -0.2084,1.692 -0.3087,0.5771 -0.746,0.9587 -1.3138,1.1455 -0.5669,0.1865 -1.1089,0.1414 -1.6257,-0.1349 -0.5218,-0.279 -0.8606,-0.6996 -1.0173,-1.2615 -0.1568,-0.5618 -0.0774,-1.1369 0.2384,-1.7274 0.3223,-0.6029 0.7905,-0.9853 1.4045,-1.1472 0.5329,-0.14 1.0474,-0.0774 1.5432,0.1877 z m -0.1607,0.1718 c -0.3379,-0.1806 -0.6781,-0.2002 -1.0174,-0.0573 -0.4229,0.178 -0.7965,0.5689 -1.1205,1.175 -0.3317,0.6199 -0.4553,1.1678 -0.3694,1.6438 0.0678,0.3631 0.2673,0.6329 0.6007,0.8112 0.3563,0.1905 0.7242,0.2078 1.1049,0.0539 0.3813,-0.1548 0.7317,-0.5312 1.0523,-1.1313 0.3481,-0.6506 0.4793,-1.2044 0.3948,-1.66 -0.0686,-0.3631 -0.2832,-0.6417 -0.6454,-0.8353 z m 6.8043,4.0663 -0.762,1.252 -0.0799,-0.0561 c 0.1448,-0.4334 0.1746,-0.7991 0.0867,-1.0956 -0.0879,-0.2974 -0.2696,-0.5437 -0.5476,-0.7393 -0.2319,-0.1635 -0.4848,-0.2525 -0.7563,-0.2659 -0.2713,-0.0136 -0.5519,0.0712 -0.8433,0.2552 -0.29,0.1842 -0.5715,0.4697 -0.8433,0.8557 -0.2245,0.3189 -0.3688,0.631 -0.4318,0.9366 -0.0626,0.3056 -0.0354,0.5924 0.0805,0.8609 0.1168,0.2687 0.3062,0.4949 0.5673,0.6786 0.2276,0.1604 0.4631,0.2534 0.7055,0.2781 0.2429,0.0255 0.5709,-0.034 0.9839,-0.178 l 0.0428,0.1099 c -0.3963,0.1888 -0.7628,0.2725 -1.0998,0.2526 -0.3362,-0.0207 -0.6665,-0.1446 -0.989,-0.3716 -0.582,-0.4099 -0.8808,-0.9437 -0.8949,-1.601 -0.0111,-0.4904 0.136,-0.9536 0.443,-1.3896 0.2475,-0.3517 0.5542,-0.6193 0.9179,-0.8033 0.3645,-0.1843 0.741,-0.2599 1.1296,-0.2288 0.3895,0.0318 0.7466,0.1627 1.0726,0.3921 0.2534,0.1783 0.4595,0.4161 0.6191,0.7152 0.0445,0.0887 0.0833,0.1451 0.1142,0.1666 0.046,0.0326 0.0987,0.0445 0.1562,0.036 0.0785,-0.0153 0.1556,-0.0575 0.233,-0.1275 z m 4.3809,4.2111 -0.6596,0.7699 -0.0879,-0.0822 c 0.1043,-0.146 0.1687,-0.2608 0.1913,-0.3433 0.0358,-0.1346 0.0346,-0.2602 -0.0059,-0.377 -0.0397,-0.1176 -0.1239,-0.2367 -0.2537,-0.358 l -0.4425,-0.415 -2.2499,2.399 c -0.1814,0.1936 -0.2743,0.3336 -0.2775,0.4212 -0.0028,0.1196 0.0573,0.2364 0.1789,0.3506 l 0.1083,0.1015 -0.0802,0.0853 -1.3369,-1.2537 0.08,-0.0854 0.1131,0.1058 c 0.1343,0.1261 0.267,0.1749 0.3994,0.1477 0.0805,-0.0182 0.2041,-0.1148 0.3691,-0.2912 l 2.2501,-2.3989 -0.377,-0.3535 c -0.1471,-0.138 -0.2616,-0.2248 -0.3433,-0.2611 -0.108,-0.0465 -0.2287,-0.0541 -0.3648,-0.0243 -0.1349,0.0297 -0.2747,0.1108 -0.4192,0.2426 l -0.0876,-0.0822 0.7259,-0.7078 z m 0.7024,3.8781 0.1052,0.1349 c 0.3246,0.4159 0.5357,0.7416 0.6355,0.9782 0.0998,0.2356 0.123,0.4731 0.0695,0.7127 -0.0536,0.2381 -0.1846,0.4396 -0.3938,0.6029 -0.2531,0.1973 -0.547,0.2767 -0.8844,0.239 -0.3356,-0.0377 -0.6826,-0.2852 -1.0389,-0.7421 l -1.1194,-1.4349 0.0922,-0.072 c 0.1692,0.2029 0.3064,0.3101 0.4127,0.3208 0.1049,0.0117 0.2704,-0.0708 0.4949,-0.246 l 2.1577,-1.6832 c 0.2245,-0.1752 0.3447,-0.3155 0.3592,-0.4204 0.0153,-0.1054 -0.0553,-0.2645 -0.2112,-0.4779 l 0.0924,-0.072 1.1353,1.4553 -0.0924,0.072 c -0.1692,-0.203 -0.3064,-0.3104 -0.4122,-0.3212 -0.1051,-0.0113 -0.2704,0.0709 -0.4952,0.2461 z m -1.6667,1.2999 c 0.0915,0.165 0.1689,0.2886 0.2324,0.3697 0.1599,0.2052 0.3728,0.3373 0.6395,0.3971 0.2659,0.0593 0.5202,-0.0059 0.7625,-0.1953 0.2503,-0.1953 0.3682,-0.426 0.3543,-0.6942 -0.0147,-0.267 -0.1258,-0.5346 -0.3347,-0.8022 -0.0579,-0.0743 -0.1239,-0.1448 -0.1967,-0.2117 z M 94.4269,39.71 93.9983,38.937 92.85,39.5736 c -0.2237,0.1242 -0.3578,0.2353 -0.4014,0.3354 -0.0443,0.0986 -0.0139,0.2429 0.0901,0.4303 l 0.0479,0.0864 -0.1026,0.0567 -0.8949,-1.6143 0.1023,-0.0567 0.063,0.1134 c 0.0578,0.1043 0.1244,0.1803 0.1998,0.229 0.0748,0.0476 0.1471,0.0666 0.2186,0.0545 0.0708,-0.0108 0.1978,-0.0675 0.3806,-0.169 l 2.4387,-1.3521 c 0.1794,-0.0995 0.2954,-0.1786 0.3467,-0.2378 0.0524,-0.059 0.0757,-0.1313 0.0708,-0.218 -0.0039,-0.0856 -0.0396,-0.1897 -0.1063,-0.3101 l -0.0479,-0.0862 0.1026,-0.0567 0.8949,1.6143 -0.1023,0.0567 -0.0476,-0.0862 c -0.0746,-0.1343 -0.1454,-0.2202 -0.2135,-0.2579 -0.0677,-0.0371 -0.1343,-0.0547 -0.2009,-0.0536 -0.0647,0.0012 -0.1982,0.0578 -0.4,0.1698 l -1.0857,0.6021 0.4286,0.7727 c 0.5579,-0.2755 1.1087,-0.3234 1.6526,-0.1446 0.5434,0.1783 0.9525,0.5137 1.2257,1.0066 0.2628,0.4737 0.3121,0.9939 0.1494,1.5608 -0.1621,0.5672 -0.5284,1.008 -1.099,1.3243 -0.5465,0.3031 -1.1112,0.3881 -1.6951,0.256 -0.5825,-0.1327 -1.0236,-0.468 -1.3209,-1.004 -0.1928,-0.3478 -0.2827,-0.7022 -0.2682,-1.0605 0.0139,-0.3583 0.1202,-0.701 0.3197,-1.027 0.1993,-0.3248 0.4763,-0.5913 0.8312,-0.7979 z m 2.8553,0.8064 c -0.1987,-0.3583 -0.5071,-0.5638 -0.9255,-0.6168 -0.4184,-0.0527 -0.9108,0.078 -1.4783,0.3926 -0.5295,0.2937 -0.9051,0.6355 -1.1265,1.0247 -0.2208,0.3901 -0.2248,0.7784 -0.0099,1.1659 0.2092,0.3773 0.5205,0.5922 0.9346,0.6466 0.4139,0.0542 0.9006,-0.0734 1.4604,-0.3841 0.5675,-0.3143 0.9564,-0.6636 1.1665,-1.0465 0.2094,-0.3838 0.2029,-0.7776 -0.0213,-1.1824 z" />
  <g
     id="Layer1000">
    <path
       id="path12"
       style="fill:#1b1918;fill-rule:evenodd"
       d="m 16.7423,76.5564 c 0.2075,0.5182 0.1902,1.0466 -0.0522,1.5834 -0.2421,0.5381 -0.6579,0.925 -1.2484,1.1611 -0.6074,0.2432 -1.188,0.2537 -1.7427,0.0312 -0.5539,-0.222 -0.94,-0.6055 -1.1577,-1.1495 -0.2197,-0.549 -0.2083,-1.0893 0.0332,-1.62 0.2418,-0.5309 0.6726,-0.9201 1.2943,-1.169 0.6347,-0.2539 1.2393,-0.2452 1.8133,0.0258 0.4981,0.2359 0.8515,0.6149 1.0602,1.137 z m -0.2336,0.0281 c -0.1423,-0.3558 -0.3901,-0.5896 -0.7416,-0.6985 -0.4382,-0.136 -0.9759,-0.0774 -1.614,0.178 -0.6525,0.2611 -1.1001,0.601 -1.3402,1.0205 -0.182,0.3215 -0.203,0.6565 -0.0627,1.0077 0.1503,0.375 0.4207,0.6251 0.811,0.7523 0.3918,0.127 0.902,0.0641 1.5336,-0.1888 0.6851,-0.2741 1.1418,-0.6134 1.3705,-1.0165 0.1812,-0.3223 0.1962,-0.6735 0.0434,-1.0547 z m 2.7669,5.5134 -0.8858,0.4799 -0.0542,-0.1041 c 0.1763,-0.1017 0.3016,-0.216 0.3736,-0.3415 0.0732,-0.1273 0.0978,-0.2481 0.0743,-0.364 -0.023,-0.1162 -0.0842,-0.2687 -0.1834,-0.4589 L 18.0403,80.2375 15.1248,81.76 c -0.2523,0.1318 -0.396,0.2483 -0.4294,0.3478 -0.0343,0.1009 0.0065,0.2704 0.1219,0.5094 l -0.1038,0.0541 -0.8546,-1.6362 0.104,-0.0541 c 0.1298,0.2302 0.2452,0.3603 0.3478,0.3901 0.1012,0.0303 0.2789,-0.021 0.5312,-0.1528 l 2.4259,-1.2668 c 0.2526,-0.1318 0.3957,-0.2481 0.4289,-0.3487 0.034,-0.1009 -0.0068,-0.2701 -0.1213,-0.5082 l 0.1037,-0.0542 z m -1.0176,2.7586 -1.0588,0.6829 c -0.2279,0.1468 -0.3529,0.2622 -0.3753,0.3475 -0.0349,0.118 -0.0082,0.2452 0.0799,0.3816 l 0.0893,0.1383 -0.0986,0.0635 -1.0004,-1.5514 0.0984,-0.0632 0.0882,0.1363 c 0.0986,0.1531 0.2196,0.2311 0.3614,0.2325 0.0774,3e-4 0.2199,-0.0661 0.4257,-0.1987 l 2.3437,-1.5112 c 0.2276,-0.1471 0.3535,-0.2616 0.3768,-0.345 0.0331,-0.1207 0.0059,-0.2488 -0.0828,-0.386 l -0.0879,-0.1367 0.0984,-0.0635 0.856,1.3275 c 0.2089,0.3243 0.3399,0.6007 0.3943,0.8311 0.0539,0.2296 0.0426,0.4598 -0.0331,0.6905 -0.0754,0.2305 -0.222,0.415 -0.4388,0.5548 -0.296,0.1907 -0.599,0.2483 -0.9097,0.1729 C 19.0743,86.0845 18.8042,85.8694 18.5749,85.5133 18.5185,85.426 18.464,85.3279 18.4119,85.2188 18.3577,85.1094 18.307,84.9883 18.258,84.8565 Z m 0.153,-0.0986 c 0.0423,0.1057 0.0825,0.1981 0.1213,0.2761 0.0372,0.0779 0.0732,0.1434 0.1061,0.1947 0.119,0.1846 0.2933,0.2968 0.5224,0.3385 0.2293,0.0417 0.4578,-0.0102 0.6846,-0.1565 0.1564,-0.1009 0.2817,-0.2268 0.3741,-0.3767 0.093,-0.15 0.1344,-0.3059 0.1259,-0.4652 -0.0094,-0.1601 -0.0615,-0.3149 -0.1571,-0.4632 -0.0589,-0.0912 -0.1508,-0.1956 -0.276,-0.316 z m 2.3395,3.3128 1.2316,1.5702 0.9765,-0.7663 c 0.1721,-0.1349 0.277,-0.2352 0.3147,-0.2993 0.0278,-0.049 0.036,-0.112 0.0235,-0.1893 -0.0159,-0.1029 -0.0561,-0.1942 -0.1188,-0.2742 l -0.0943,-0.1201 0.0921,-0.0723 1.1395,1.4524 -0.0921,0.0723 -0.0944,-0.1202 c -0.0629,-0.0802 -0.1412,-0.1414 -0.2356,-0.1828 -0.0686,-0.0332 -0.1375,-0.0383 -0.2055,-0.015 -0.0691,0.0227 -0.1865,0.0995 -0.352,0.2293 l -2.1941,1.7209 c -0.1712,0.1344 -0.2761,0.2347 -0.3138,0.2985 -0.0283,0.0499 -0.0374,0.1123 -0.0263,0.1877 0.0173,0.1043 0.0578,0.1964 0.1207,0.2769 l 0.0944,0.1202 -0.0921,0.0723 -1.1395,-1.4528 0.0921,-0.0723 0.0944,0.1202 c 0.1088,0.1389 0.2288,0.2075 0.36,0.2081 0.0865,-3e-4 0.2302,-0.0802 0.4331,-0.2393 l 1.0333,-0.8104 -1.2317,-1.5701 -1.0332,0.8101 c -0.1712,0.1344 -0.2761,0.2345 -0.3138,0.2985 -0.0289,0.0491 -0.0377,0.112 -0.0252,0.1894 0.0161,0.1029 0.0552,0.193 0.1182,0.2735 l 0.0955,0.1216 -0.0921,0.0723 -1.1393,-1.4524 0.0921,-0.0723 0.0944,0.1204 c 0.1103,0.1404 0.2305,0.2098 0.3617,0.2104 0.0851,-0.0023 0.2282,-0.0828 0.4312,-0.2421 l 2.194,-1.7209 c 0.1723,-0.1352 0.2772,-0.235 0.3149,-0.2994 0.0278,-0.049 0.0366,-0.1111 0.0258,-0.1865 -0.0175,-0.1049 -0.0584,-0.1967 -0.121,-0.2769 l -0.0944,-0.1202 0.0921,-0.0723 1.1393,1.4525 -0.0922,0.0723 -0.0955,-0.1219 c -0.0629,-0.0803 -0.1403,-0.1406 -0.235,-0.182 -0.0669,-0.0315 -0.1352,-0.0357 -0.2041,-0.0131 -0.0691,0.0224 -0.1871,0.0984 -0.3526,0.2282 z m 3.4177,4.3586 c 0.356,-0.3376 0.7123,-0.5743 1.0715,-0.7104 0.3591,-0.136 0.686,-0.1757 0.9811,-0.1165 0.2304,0.0428 0.4152,0.1389 0.5547,0.286 0.2273,0.2399 0.3093,0.5698 0.246,0.991 -0.0768,0.5253 -0.3736,1.0324 -0.8909,1.5228 -0.3614,0.343 -0.7189,0.5834 -1.0712,0.7189 -0.3523,0.1358 -0.6613,0.1763 -0.9298,0.1233 -0.2673,-0.0536 -0.4731,-0.1556 -0.6156,-0.3059 -0.2824,-0.2979 -0.3422,-0.7115 -0.1786,-1.243 0.1375,-0.4484 0.4152,-0.8702 0.8328,-1.2662 z m 0.3727,0.5063 c -0.4291,0.4073 -0.7299,0.7925 -0.9019,1.1556 -0.146,0.3042 -0.1361,0.5429 0.028,0.7158 0.0783,0.0825 0.1962,0.1332 0.3552,0.1511 0.159,0.0181 0.3467,-0.0329 0.5658,-0.1531 0.33,-0.1794 0.7359,-0.4975 1.2155,-0.9524 0.356,-0.3376 0.6179,-0.6565 0.786,-0.9547 0.1248,-0.2228 0.1817,-0.4128 0.1721,-0.5695 -0.0079,-0.1103 -0.055,-0.2106 -0.1389,-0.2994 -0.0986,-0.1037 -0.2338,-0.1516 -0.4042,-0.144 -0.2319,0.0108 -0.5029,0.1245 -0.8136,0.3447 -0.3109,0.2186 -0.5983,0.4541 -0.864,0.7059 z m 2.0501,1.957 c 0.3208,-0.3711 0.6522,-0.642 0.9961,-0.8127 0.3441,-0.1712 0.665,-0.2432 0.9646,-0.2132 0.2336,0.0199 0.4269,0.097 0.5802,0.2296 0.2503,0.216 0.3643,0.5364 0.3427,0.9621 -0.024,0.5301 -0.2695,1.0642 -0.7355,1.6033 -0.326,0.377 -0.6577,0.6517 -0.995,0.8212 -0.337,0.1701 -0.6406,0.2412 -0.9128,0.2149 -0.2715,-0.027 -0.4864,-0.1083 -0.6431,-0.2435 -0.3104,-0.2685 -0.4108,-0.6744 -0.3008,-1.2192 0.0927,-0.4598 0.3274,-0.9071 0.7036,-1.3425 z m 0.4212,0.4669 c -0.3869,0.4476 -0.648,0.8608 -0.7832,1.2393 -0.1154,0.3169 -0.0817,0.5536 0.0986,0.7095 0.0859,0.0743 0.2084,0.1131 0.3682,0.1151 0.1599,0.0022 0.3416,-0.0669 0.548,-0.2081 0.3104,-0.2115 0.6831,-0.5681 1.1154,-1.0681 0.3206,-0.3713 0.5499,-0.7146 0.6877,-1.0278 0.102,-0.2342 0.1397,-0.4286 0.1148,-0.5837 -0.0187,-0.1091 -0.0754,-0.2044 -0.1678,-0.2843 -0.1083,-0.0935 -0.2478,-0.1278 -0.4167,-0.1032 -0.2293,0.0335 -0.4878,0.1735 -0.7753,0.4235 -0.288,0.2483 -0.5505,0.5111 -0.7897,0.7878 z m 2.3023,1.8518 c 0.3053,-0.3843 0.6247,-0.6687 0.9615,-0.8535 0.3365,-0.1851 0.6545,-0.2704 0.9547,-0.2528 0.2344,0.0099 0.4309,0.0793 0.5896,0.2052 0.2588,0.2055 0.3858,0.521 0.3824,0.9471 -0.0023,0.5306 -0.2253,1.0743 -0.6687,1.6324 -0.3098,0.3904 -0.6298,0.6784 -0.9601,0.862 -0.3296,0.1837 -0.6298,0.2674 -0.9031,0.2523 -0.2724,-0.0158 -0.4904,-0.0878 -0.6525,-0.2165 -0.3215,-0.2554 -0.4383,-0.6568 -0.351,-1.2056 0.0735,-0.4635 0.2895,-0.9201 0.6472,-1.3706 z m 0.4402,0.449 c -0.3679,0.4632 -0.6117,0.887 -0.7313,1.2705 -0.1018,0.3218 -0.0587,0.5568 0.1281,0.705 0.089,0.0706 0.2129,0.1043 0.3728,0.0998 0.1598,-0.0045 0.3384,-0.0811 0.5388,-0.2307 0.3013,-0.2243 0.6588,-0.5959 1.0701,-1.1135 0.305,-0.3841 0.5199,-0.7367 0.6446,-1.0553 0.0921,-0.2381 0.1219,-0.4343 0.0904,-0.5879 -0.0232,-0.1086 -0.0839,-0.2013 -0.1797,-0.2773 -0.112,-0.089 -0.2526,-0.1173 -0.4204,-0.0859 -0.2279,0.0431 -0.4802,0.1936 -0.7571,0.4553 -0.2772,0.2602 -0.5287,0.5335 -0.7563,0.82 z m 2.2972,1.6385 c 0.2631,-0.4142 0.5513,-0.7305 0.8666,-0.9496 0.3155,-0.2194 0.6224,-0.3376 0.9232,-0.3518 0.2339,-0.0145 0.4365,0.0337 0.6077,0.1426 0.279,0.1771 0.4383,0.4773 0.4794,0.9017 0.0533,0.5278 -0.1114,1.0919 -0.4938,1.6937 -0.2673,0.4203 -0.5553,0.7404 -0.8643,0.9575 -0.3087,0.2174 -0.5987,0.332 -0.8716,0.3458 -0.2725,0.0128 -0.497,-0.0362 -0.6716,-0.1471 -0.3464,-0.2202 -0.5051,-0.6072 -0.4756,-1.1622 0.0244,-0.4685 0.1913,-0.9451 0.5,-1.4306 z m 0.4847,0.4002 c -0.3175,0.4995 -0.5153,0.9462 -0.5938,1.3402 -0.0678,0.3306 0,0.5596 0.2009,0.6877 0.0961,0.061 0.2229,0.0814 0.3813,0.0601 0.1587,-0.021 0.3283,-0.1162 0.5117,-0.286 0.2763,-0.2543 0.5927,-0.6613 0.9473,-1.2195 0.2633,-0.4138 0.4399,-0.7869 0.5306,-1.1171 0.0667,-0.2463 0.0757,-0.4445 0.0284,-0.5941 -0.0346,-0.1055 -0.1046,-0.1911 -0.2078,-0.2569 -0.1207,-0.0765 -0.2636,-0.0901 -0.4272,-0.0413 -0.2219,0.0669 -0.4572,0.2432 -0.7052,0.5323 -0.2483,0.2877 -0.47,0.5859 -0.6662,0.8946 z m 2.543,1.4859 c 0.2438,-0.4257 0.517,-0.7551 0.822,-0.9884 0.305,-0.2336 0.6064,-0.3657 0.906,-0.3937 0.233,-0.0253 0.4377,0.0136 0.6137,0.1142 0.2866,0.1644 0.4598,0.457 0.5204,0.8787 0.0774,0.525 -0.0612,1.0959 -0.4155,1.7147 -0.2478,0.4323 -0.5208,0.7654 -0.8192,0.9964 -0.2985,0.231 -0.5828,0.3592 -0.855,0.3855 -0.2718,0.0252 -0.4983,-0.0133 -0.6777,-0.1162 -0.3561,-0.2041 -0.5324,-0.5831 -0.5284,-1.139 0.0028,-0.4691 0.1477,-0.953 0.4337,-1.4522 z m 0.5026,0.3776 c -0.2943,0.5134 -0.4714,0.9689 -0.5318,1.3663 -0.0524,0.3331 0.0258,0.559 0.2327,0.6775 0.0987,0.0564 0.2262,0.0709 0.3835,0.0425 0.1574,-0.0283 0.3223,-0.1312 0.4981,-0.3092 0.2642,-0.2668 0.5615,-0.688 0.8901,-1.2617 0.244,-0.4258 0.4033,-0.8065 0.4787,-1.1404 0.0553,-0.2492 0.055,-0.4476 9e-4,-0.5947 -0.0391,-0.1038 -0.1131,-0.1863 -0.2191,-0.2469 -0.1242,-0.0712 -0.2676,-0.0783 -0.4286,-0.0219 -0.2189,0.0769 -0.4459,0.264 -0.6801,0.5641 -0.2349,0.2988 -0.4424,0.6069 -0.6244,0.9244 z m 2.5322,1.3031 c 0.2035,-0.4465 0.445,-0.7996 0.727,-1.0602 0.2821,-0.2607 0.5701,-0.4203 0.8657,-0.4759 0.2297,-0.0465 0.4372,-0.0266 0.6217,0.0573 0.3007,0.1372 0.5,0.4124 0.5995,0.8268 0.1256,0.5154 0.0406,1.0968 -0.2551,1.7456 -0.2066,0.4536 -0.4479,0.8102 -0.724,1.0678 -0.2755,0.258 -0.5468,0.4116 -0.8155,0.4629 -0.2682,0.0505 -0.4972,0.0329 -0.6854,-0.0527 -0.3736,-0.1704 -0.584,-0.5318 -0.6316,-1.0854 -0.0405,-0.4674 0.059,-0.9626 0.2977,-1.4862 z m 0.5351,0.3297 c -0.2452,0.5383 -0.3795,1.0083 -0.4028,1.4094 -0.0215,0.3367 0.0771,0.5541 0.2943,0.6531 0.1032,0.047 0.2316,0.0499 0.3858,0.007 0.1539,-0.0429 0.3089,-0.1605 0.4671,-0.3541 0.2384,-0.29 0.4958,-0.737 0.7699,-1.3385 0.2035,-0.4465 0.3268,-0.8405 0.3711,-1.1798 0.032,-0.2534 0.0136,-0.4507 -0.0542,-0.5924 -0.0487,-0.0995 -0.1298,-0.1749 -0.2409,-0.2257 -0.1304,-0.0592 -0.2738,-0.053 -0.4289,0.0182 -0.2106,0.0966 -0.4195,0.3038 -0.625,0.6244 -0.2064,0.3192 -0.3844,0.6452 -0.5364,0.9783 z m 2.7051,1.1046 c 0.1781,-0.4572 0.3992,-0.8237 0.6659,-1.0998 0.2667,-0.2764 0.5451,-0.4518 0.8374,-0.5241 0.2264,-0.0598 0.4348,-0.0519 0.6236,0.0215 0.3081,0.1199 0.523,0.3835 0.6457,0.7914 0.1548,0.5077 0.1026,1.0931 -0.1556,1.7575 -0.1806,0.4643 -0.4011,0.8343 -0.6619,1.1072 -0.2608,0.273 -0.5227,0.442 -0.788,0.5086 -0.2648,0.0655 -0.4947,0.0609 -0.6874,-0.0139 -0.3827,-0.1488 -0.6132,-0.4975 -0.6923,-1.0477 -0.0669,-0.4643 0.0043,-0.9643 0.2126,-1.5007 z m 0.5534,0.2988 c -0.2143,0.5513 -0.3218,1.0281 -0.3223,1.4298 -0.0023,0.3376 0.1085,0.5491 0.3308,0.6355 0.106,0.0411 0.2344,0.0366 0.3858,-0.015 0.1513,-0.0516 0.2993,-0.1777 0.4464,-0.3798 0.2214,-0.3033 0.453,-0.7643 0.6925,-1.3802 0.1778,-0.4573 0.2787,-0.8575 0.3033,-1.1991 0.0176,-0.2545 -0.0122,-0.4507 -0.0876,-0.5885 -0.0541,-0.0963 -0.1397,-0.1669 -0.2534,-0.2111 -0.1335,-0.0519 -0.2764,-0.0374 -0.4272,0.0422 -0.2049,0.1086 -0.4013,0.3271 -0.5884,0.6588 -0.188,0.3308 -0.3473,0.6661 -0.4799,1.0074 z m 2.6994,0.9167 c 0.1355,-0.4717 0.3223,-0.8566 0.563,-1.1557 0.2403,-0.2996 0.5017,-0.4997 0.786,-0.5983 0.2203,-0.08 0.4283,-0.091 0.6231,-0.0352 0.3177,0.0913 0.5556,0.3342 0.7149,0.7294 0.2004,0.4915 0.2018,1.0791 0.0051,1.7642 -0.1375,0.4791 -0.3235,0.8674 -0.5585,1.1631 -0.2347,0.2954 -0.4804,0.4876 -0.7384,0.578 -0.2577,0.0893 -0.487,0.1057 -0.6857,0.0487 -0.3946,-0.1133 -0.6559,-0.4396 -0.7846,-0.9805 -0.1092,-0.4563 -0.0836,-0.9606 0.0751,-1.5137 z m 0.5783,0.2472 c -0.1636,0.5686 -0.2271,1.0531 -0.1911,1.4533 0.0286,0.3362 0.1582,0.5369 0.3872,0.6027 0.1094,0.0312 0.2367,0.015 0.383,-0.0499 0.146,-0.0652 0.2818,-0.2044 0.4099,-0.4193 0.193,-0.322 0.3815,-0.8019 0.5641,-1.4371 0.1355,-0.4717 0.1992,-0.8796 0.193,-1.2217 -0.0059,-0.2552 -0.053,-0.4479 -0.1409,-0.578 -0.0629,-0.0913 -0.1542,-0.1537 -0.2715,-0.1874 -0.1378,-0.0397 -0.2787,-0.0122 -0.4215,0.0808 -0.1942,0.127 -0.3702,0.3625 -0.5262,0.7098 -0.157,0.3464 -0.2851,0.695 -0.386,1.0468 z m 2.8417,0.7013 c 0.1094,-0.4782 0.275,-0.8728 0.4989,-1.1846 0.2239,-0.3124 0.474,-0.5264 0.7523,-0.6403 0.2157,-0.0919 0.4229,-0.1143 0.6205,-0.0692 0.322,0.074 0.5729,0.3036 0.7535,0.6894 0.2267,0.4799 0.2602,1.0664 0.1012,1.7614 -0.1114,0.4856 -0.2758,0.8836 -0.4944,1.1917 -0.2183,0.3079 -0.453,0.5128 -0.7058,0.6174 -0.2523,0.1032 -0.4805,0.1321 -0.682,0.0859 -0.4003,-0.0916 -0.6789,-0.4031 -0.8368,-0.936 -0.1338,-0.4499 -0.1361,-0.9547 -0.0074,-1.5157 z m 0.5907,0.2152 c -0.1321,0.5768 -0.1692,1.0641 -0.1114,1.4618 0.0468,0.3339 0.1871,0.5272 0.4196,0.5805 0.1108,0.0252 0.2369,0.002 0.3792,-0.0708 0.1423,-0.0729 0.2705,-0.2192 0.3867,-0.4406 0.1752,-0.3322 0.3373,-0.8217 0.4847,-1.466 0.1097,-0.4782 0.1514,-0.889 0.1264,-1.2303 -0.0198,-0.2545 -0.0773,-0.4444 -0.172,-0.5694 -0.0678,-0.0879 -0.1624,-0.1452 -0.2818,-0.1724 -0.1395,-0.032 -0.2786,0.003 -0.4161,0.1038 -0.1871,0.1372 -0.3498,0.3818 -0.487,0.7372 -0.1378,0.3544 -0.2466,0.7096 -0.3283,1.0662 z m 2.8001,0.5017 c 0.0644,-0.4864 0.1922,-0.8949 0.3858,-1.2263 0.1936,-0.3319 0.4224,-0.5686 0.6891,-0.7081 0.2058,-0.1117 0.4102,-0.1533 0.6112,-0.127 0.3276,0.0434 0.5986,0.2483 0.8146,0.6157 0.271,0.4564 0.3592,1.0372 0.2659,1.7442 -0.0652,0.4941 -0.1916,0.9056 -0.3801,1.2328 -0.1885,0.3271 -0.4031,0.553 -0.6449,0.6808 -0.2418,0.1265 -0.466,0.1766 -0.6712,0.1494 -0.4068,-0.0535 -0.7135,-0.3376 -0.921,-0.8535 -0.1752,-0.4351 -0.2248,-0.9377 -0.1494,-1.508 z m 0.6083,0.1587 c -0.0774,0.5865 -0.0686,1.0752 0.0261,1.4658 0.078,0.3283 0.2358,0.5074 0.4723,0.5386 0.1128,0.015 0.2361,-0.0198 0.371,-0.106 0.1349,-0.0859 0.2486,-0.2435 0.3436,-0.4751 0.1434,-0.347 0.2588,-0.8495 0.3452,-1.5049 0.0644,-0.4864 0.0672,-0.8992 0.0102,-1.2368 -0.0433,-0.2514 -0.1185,-0.4351 -0.2245,-0.5507 -0.0757,-0.0808 -0.1754,-0.1293 -0.2965,-0.1452 -0.142,-0.0187 -0.2772,0.0292 -0.4048,0.1423 -0.1734,0.1542 -0.3123,0.413 -0.4155,0.7798 -0.1041,0.3657 -0.1792,0.7294 -0.2271,1.0922 z m 2.9106,0.2858 c 0.0372,-0.4893 0.1423,-0.904 0.3172,-1.2459 0.1749,-0.3421 0.3904,-0.591 0.6486,-0.7449 0.1996,-0.123 0.4011,-0.176 0.6032,-0.1607 0.3297,0.0249 0.6117,0.2148 0.8479,0.5694 0.2956,0.4408 0.4161,1.016 0.3622,1.7266 -0.0377,0.4969 -0.1411,0.9151 -0.3115,1.2521 -0.1698,0.337 -0.3716,0.5746 -0.6061,0.7155 -0.2341,0.1397 -0.4552,0.2023 -0.6616,0.1868 -0.4093,-0.0312 -0.7313,-0.298 -0.9669,-0.8014 -0.1992,-0.4246 -0.2763,-0.9238 -0.233,-1.4975 z m 0.6163,0.125 c -0.0448,0.5899 -0.0091,1.0771 0.1074,1.4618 0.0961,0.3234 0.2636,0.4938 0.5012,0.5116 0.1134,0.009 0.235,-0.0328 0.3648,-0.1264 0.1298,-0.0932 0.2347,-0.2571 0.3166,-0.4932 0.1239,-0.3546 0.2112,-0.8626 0.2614,-1.5219 0.0371,-0.4893 0.017,-0.9014 -0.0584,-1.2354 -0.0573,-0.2488 -0.1426,-0.4277 -0.2548,-0.5374 -0.0803,-0.0765 -0.1823,-0.1194 -0.3042,-0.1287 -0.1429,-0.0108 -0.2752,0.0445 -0.3963,0.1647 -0.1644,0.1635 -0.2891,0.4297 -0.3716,0.8016 -0.0836,0.3708 -0.1383,0.7382 -0.1661,1.1033 z m 2.8383,0.108 c -0.0102,-0.4907 0.0547,-0.9136 0.1959,-1.2705 0.1412,-0.3575 0.3316,-0.6259 0.574,-0.8042 0.1868,-0.1415 0.3824,-0.2135 0.5851,-0.2177 0.3305,-0.007 0.6296,0.155 0.8986,0.4853 0.3367,0.4102 0.5116,0.9711 0.5264,1.684 0.0102,0.4981 -0.0525,0.9241 -0.1897,1.2759 -0.1369,0.3518 -0.3146,0.6078 -0.5346,0.7705 -0.2197,0.1615 -0.4337,0.2452 -0.6406,0.2494 -0.4105,0.008 -0.7566,-0.2262 -1.0395,-0.7044 -0.239,-0.4036 -0.364,-0.8932 -0.3756,-1.4683 z m 0.6253,0.0649 c 0.0122,0.5916 0.0947,1.0732 0.2475,1.4451 0.1264,0.3126 0.3098,0.466 0.5479,0.4609 0.1137,-0.002 0.2308,-0.0553 0.351,-0.1607 0.1202,-0.1055 0.2089,-0.2784 0.2678,-0.5216 0.0891,-0.3648 0.1273,-0.879 0.1137,-1.5398 -0.0099,-0.4907 -0.0694,-0.8991 -0.1766,-1.224 -0.0811,-0.2423 -0.1831,-0.4121 -0.3053,-0.5108 -0.087,-0.0683 -0.193,-0.1012 -0.3152,-0.0986 -0.1431,0.003 -0.2696,0.0708 -0.3787,0.2021 -0.148,0.1783 -0.2463,0.4555 -0.2925,0.8334 -0.0477,0.3773 -0.0669,0.7483 -0.0596,1.114 z m 2.9223,-0.133 c -0.0372,-0.4892 0.0042,-0.915 0.1256,-1.2792 0.1213,-0.3646 0.2965,-0.6432 0.5286,-0.8346 0.1789,-0.1516 0.3702,-0.2344 0.5723,-0.2497 0.3294,-0.0249 0.637,0.1199 0.9238,0.4351 0.3589,0.3909 0.5647,0.9411 0.6186,1.6521 0.0377,0.4969 -0.0015,0.9258 -0.1188,1.2846 -0.1171,0.3589 -0.2806,0.6242 -0.4913,0.7988 -0.2106,0.1735 -0.4195,0.2687 -0.6258,0.2843 -0.4094,0.0312 -0.768,-0.1839 -1.0769,-0.646 -0.2608,-0.3897 -0.4125,-0.8716 -0.4561,-1.4454 z m 0.6281,0.0307 c 0.0445,0.5898 0.1537,1.0661 0.3266,1.4289 0.1437,0.3053 0.335,0.4482 0.5729,0.43 0.1134,-0.008 0.227,-0.068 0.3413,-0.18 0.1145,-0.1117 0.1933,-0.2894 0.2386,-0.5355 0.0689,-0.369 0.0786,-0.8846 0.0287,-1.5437 -0.0372,-0.4893 -0.1191,-0.8938 -0.2441,-1.2124 -0.0941,-0.2372 -0.2055,-0.4014 -0.3331,-0.4929 -0.0907,-0.0638 -0.1981,-0.0904 -0.32,-0.0814 -0.1429,0.0111 -0.2653,0.0856 -0.3668,0.2228 -0.1381,0.1863 -0.2208,0.4683 -0.2463,0.8484 -0.0267,0.3793 -0.0255,0.7506 0.0022,1.1158 z m 4.1633,-2.9291 -0.9445,4.7665 -0.2512,0.0331 0.9442,-4.7664 z m 3.5645,0.2282 c -0.0578,-0.2511 -0.1349,-0.4005 -0.2313,-0.4479 -0.0966,-0.0479 -0.269,-0.0436 -0.5162,0.0133 l -0.0263,-0.1139 1.8113,-0.4181 0.0264,0.1142 c -0.2554,0.0678 -0.4108,0.1469 -0.4652,0.2381 -0.0547,0.0907 -0.0499,0.2753 0.0142,0.5528 l 0.6154,2.6665 c 0.0641,0.2776 0.1406,0.4456 0.2293,0.5029 0.0893,0.0587 0.2634,0.0618 0.5227,0.0108 l 0.0264,0.1139 -1.8113,0.4181 -0.0264,-0.1142 c 0.2642,-0.0697 0.4224,-0.1505 0.4779,-0.2426 0.0542,-0.0925 0.0496,-0.2759 -0.0139,-0.5517 l -0.557,-2.4128 -1.3606,2.9489 c 0.0434,0.1791 0.0828,0.2968 0.119,0.3526 0.0349,0.0556 0.0967,0.0924 0.184,0.1088 0.0873,0.0165 0.2324,0.004 0.4348,-0.0379 l 0.0264,0.1139 -1.8048,0.4167 -0.0264,-0.1142 c 0.2554,-0.0675 0.4105,-0.1469 0.4649,-0.2384 0.055,-0.0904 0.0502,-0.2753 -0.0139,-0.5528 l -0.6154,-2.6665 c -0.0641,-0.2775 -0.1406,-0.4454 -0.2296,-0.5029 -0.089,-0.0584 -0.263,-0.0615 -0.5224,-0.0102 l -0.0264,-0.1142 1.8051,-0.4164 0.0261,0.1139 c -0.2599,0.0686 -0.4161,0.1483 -0.4717,0.2398 -0.0544,0.0904 -0.0496,0.275 0.0145,0.5528 l 0.5584,2.4193 z m 3.3126,0.4555 1.8961,-0.6225 -0.3872,-1.1792 c -0.0683,-0.208 -0.1267,-0.3407 -0.1741,-0.398 -0.0368,-0.0428 -0.0932,-0.072 -0.17,-0.0867 -0.1024,-0.0201 -0.2016,-0.0136 -0.2982,0.0181 l -0.1452,0.0477 -0.0365,-0.1112 1.754,-0.5757 0.0366,0.1111 -0.1451,0.0477 c -0.097,0.032 -0.1812,0.0847 -0.2523,0.1593 -0.0544,0.053 -0.0828,0.1162 -0.0842,0.1882 -0.0026,0.0726 0.0298,0.2092 0.0955,0.409 l 0.8694,2.6493 c 0.068,0.2069 0.1264,0.3396 0.1735,0.3968 0.0374,0.0437 0.0927,0.0735 0.1675,0.0891 0.1041,0.0189 0.2044,0.0124 0.3013,-0.0193 l 0.1452,-0.0479 0.0365,0.1114 -1.754,0.5757 -0.0366,-0.1111 0.1451,-0.0479 c 0.1678,-0.055 0.2733,-0.144 0.3184,-0.2673 0.0292,-0.0814 0.0031,-0.2438 -0.0771,-0.489 l -0.4096,-1.2475 -1.8961,0.6224 0.4096,1.2476 c 0.0677,0.2066 0.1261,0.3396 0.1734,0.3968 0.0363,0.0437 0.0925,0.0734 0.1693,0.0882 0.1023,0.0198 0.2004,0.0139 0.2973,-0.0182 l 0.1471,-0.0481 0.0366,0.1114 -1.7538,0.5754 -0.0365,-0.1111 0.1451,-0.0477 c 0.1695,-0.0558 0.2761,-0.1451 0.3212,-0.2684 0.0269,-0.0808 0,-0.2426 -0.0806,-0.4878 l -0.8693,-2.6496 c -0.0684,-0.2078 -0.1265,-0.3404 -0.1741,-0.3977 -0.0366,-0.0428 -0.0921,-0.0725 -0.1667,-0.0879 -0.1043,-0.0195 -0.2046,-0.0124 -0.3016,0.0193 l -0.1451,0.0476 -0.0363,-0.1114 1.7538,-0.5754 0.0366,0.1111 -0.1471,0.0482 c -0.097,0.032 -0.18,0.0842 -0.2515,0.159 -0.0521,0.0525 -0.0796,0.1151 -0.0819,0.1874 -0.0023,0.0726 0.0289,0.2095 0.0944,0.4093 z m 4.7804,-1.7413 1.8187,-0.8218 -0.5114,-1.1313 c -0.0901,-0.1992 -0.1624,-0.3251 -0.2157,-0.3767 -0.0411,-0.0388 -0.1004,-0.0618 -0.1783,-0.0683 -0.1038,-0.009 -0.2018,0.008 -0.2945,0.0502 l -0.1392,0.0629 -0.0482,-0.1066 1.6824,-0.7605 0.0481,0.1068 -0.1391,0.063 c -0.093,0.0419 -0.1713,0.1032 -0.2339,0.1851 -0.0485,0.0587 -0.07,0.1244 -0.0635,0.1961 0.0054,0.0726 0.0522,0.2047 0.1386,0.3966 l 1.1483,2.541 c 0.0899,0.1984 0.1622,0.324 0.2152,0.3759 0.0417,0.0394 0.1,0.0629 0.1757,0.0705 0.1058,0.008 0.205,-0.01 0.298,-0.0516 l 0.1391,-0.0629 0.0482,0.1066 -1.6823,0.7602 -0.0482,-0.1065 0.1392,-0.063 c 0.161,-0.0725 0.2559,-0.1726 0.2877,-0.2999 0.0201,-0.0842 -0.023,-0.2429 -0.129,-0.4779 l -0.5409,-1.1965 -1.8184,0.8218 0.5406,1.1965 c 0.0898,0.1984 0.1618,0.3243 0.2151,0.3761 0.0406,0.0397 0.0998,0.0632 0.1778,0.0695 0.1037,0.009 0.2007,-0.008 0.2936,-0.0496 l 0.1412,-0.0638 0.0482,0.1066 -1.6821,0.7602 -0.0482,-0.1066 0.1392,-0.0629 c 0.1627,-0.0737 0.2588,-0.174 0.2906,-0.3013 0.0181,-0.0831 -0.0261,-0.2412 -0.1321,-0.4765 l -1.1486,-2.541 c -0.0902,-0.1993 -0.1622,-0.3251 -0.2155,-0.377 -0.0411,-0.0385 -0.0992,-0.0621 -0.1752,-0.0694 -0.106,-0.008 -0.2049,0.01 -0.2976,0.0515 l -0.1392,0.063 -0.0482,-0.1069 1.6821,-0.76 0.0482,0.1066 -0.1412,0.0638 c -0.0929,0.042 -0.1698,0.1029 -0.2327,0.1848 -0.0465,0.0576 -0.0669,0.123 -0.0615,0.195 0.0054,0.0726 0.0513,0.2053 0.1378,0.3969 z m 4.966,-2.1983 c -0.2659,-0.4124 -0.4326,-0.8064 -0.4998,-1.1846 -0.0672,-0.3781 -0.0459,-0.7066 0.0669,-0.9856 0.0848,-0.2185 0.2135,-0.3824 0.3838,-0.4923 0.2778,-0.1792 0.6171,-0.1982 1.0197,-0.0582 0.5017,0.1727 0.945,0.5582 1.3314,1.1574 0.2701,0.4187 0.4402,0.8144 0.5082,1.1858 0.0681,0.3713 0.0508,0.6825 -0.051,0.9365 -0.1023,0.2529 -0.2406,0.4363 -0.4147,0.5482 -0.345,0.2226 -0.7625,0.2047 -1.2543,-0.0544 -0.4153,-0.2182 -0.7784,-0.5692 -1.0902,-1.0528 z m 0.5666,-0.2727 c 0.3206,0.4972 0.6435,0.864 0.9686,1.1002 0.2719,0.1998 0.5083,0.2344 0.7084,0.1051 0.0955,-0.0615 0.1672,-0.1681 0.2143,-0.3211 0.0473,-0.1528 0.0317,-0.3467 -0.0456,-0.5843 -0.1154,-0.3574 -0.3527,-0.8152 -0.711,-1.3708 -0.2659,-0.4124 -0.5306,-0.7288 -0.7925,-0.9493 -0.1959,-0.1636 -0.3722,-0.2548 -0.5279,-0.2744 -0.1099,-0.0128 -0.2174,0.015 -0.32,0.0811 -0.1202,0.0776 -0.1925,0.2018 -0.2163,0.3707 -0.0323,0.2296 0.0292,0.5171 0.188,0.8632 0.1576,0.3461 0.3356,0.6721 0.534,0.9796 z m 2.4443,-1.6591 c -0.2829,-0.4008 -0.4657,-0.7877 -0.5485,-1.1625 -0.083,-0.3753 -0.0754,-0.7041 0.0258,-0.9876 0.0754,-0.2219 0.1973,-0.3911 0.3629,-0.5079 0.2701,-0.1905 0.6083,-0.224 1.0162,-0.1007 0.5088,0.1517 0.9677,0.5185 1.3788,1.101 0.2871,0.4071 0.4736,0.7954 0.557,1.1636 0.0833,0.3683 0.0793,0.6798 -0.0119,0.9377 -0.0919,0.2569 -0.2223,0.4459 -0.3915,0.5653 -0.3353,0.2367 -0.7535,0.2361 -1.2558,-0.002 -0.4237,-0.2007 -0.8013,-0.5363 -1.133,-1.0066 z m 0.5548,-0.2959 c 0.341,0.4833 0.6789,0.8365 1.0136,1.059 0.2798,0.1882 0.5176,0.2129 0.7124,0.0754 0.0927,-0.0655 0.1599,-0.1749 0.2007,-0.3297 0.0408,-0.1547 0.0173,-0.3478 -0.07,-0.5819 -0.1301,-0.3524 -0.3864,-0.7999 -0.7674,-1.3399 -0.2829,-0.4011 -0.5607,-0.7064 -0.8317,-0.9156 -0.2024,-0.1554 -0.3824,-0.239 -0.5385,-0.2523 -0.1106,-0.008 -0.2166,0.0241 -0.3164,0.0944 -0.1171,0.0827 -0.184,0.2097 -0.2007,0.3793 -0.0229,0.231 0.0508,0.5156 0.2237,0.8549 0.1718,0.339 0.3634,0.6573 0.5743,0.9564 z m 2.2807,-1.6696 c -0.3228,-0.3697 -0.5445,-0.7356 -0.6655,-1.0999 -0.1214,-0.3645 -0.1477,-0.6927 -0.0763,-0.985 0.0522,-0.2285 0.1559,-0.4093 0.3087,-0.5426 0.2489,-0.2174 0.5819,-0.2854 1.0003,-0.2049 0.5216,0.0984 1.016,0.4158 1.4848,0.9527 0.3277,0.3756 0.5534,0.7424 0.6741,1.1002 0.121,0.3574 0.1491,0.6678 0.085,0.9337 -0.0646,0.265 -0.1751,0.4666 -0.331,0.6026 -0.3093,0.2699 -0.7251,0.3127 -1.2493,0.1273 -0.4425,-0.1559 -0.8523,-0.4507 -1.2308,-0.8841 z m 0.5213,-0.3518 c 0.3889,0.4456 0.7617,0.762 1.1174,0.9488 0.298,0.1584 0.5366,0.1584 0.7164,0.0014 0.0856,-0.0746 0.1411,-0.1905 0.1655,-0.3484 0.0247,-0.1582 -0.0187,-0.3478 -0.1295,-0.5717 -0.1659,-0.3371 -0.4669,-0.7558 -0.9017,-1.2535 -0.3226,-0.3697 -0.6305,-0.6446 -0.9216,-0.8249 -0.2174,-0.1338 -0.4048,-0.1984 -0.5618,-0.1953 -0.1109,0.0034 -0.2129,0.0462 -0.305,0.1264 -0.1077,0.0944 -0.161,0.2273 -0.1605,0.398 0.0012,0.2319 0.1038,0.5077 0.311,0.8271 0.2058,0.3198 0.4292,0.6166 0.6698,0.8921 z m 2.1776,-1.9976 c -0.3376,-0.356 -0.5743,-0.7123 -0.7104,-1.0715 -0.136,-0.3591 -0.1757,-0.686 -0.1165,-0.981 0.0428,-0.2305 0.1389,-0.4153 0.286,-0.5548 0.2399,-0.2273 0.5698,-0.3092 0.991,-0.246 0.5253,0.0768 1.0324,0.3736 1.5228,0.8909 0.343,0.3614 0.5834,0.7189 0.7189,1.0712 0.1358,0.3524 0.1763,0.6613 0.1233,0.9298 -0.0536,0.2673 -0.1556,0.4731 -0.3059,0.6157 -0.2979,0.2823 -0.7115,0.3421 -1.243,0.1785 -0.4484,-0.1374 -0.8702,-0.4152 -1.2662,-0.8328 z m 0.5063,-0.3727 c 0.4073,0.4291 0.7925,0.7299 1.1556,0.902 0.3042,0.1459 0.5429,0.136 0.7158,-0.0281 0.0825,-0.0782 0.1332,-0.1962 0.1511,-0.3552 0.0181,-0.159 -0.0329,-0.3467 -0.1531,-0.5658 -0.1794,-0.3299 -0.4975,-0.7359 -0.9524,-1.2155 -0.3376,-0.356 -0.6565,-0.6179 -0.9547,-0.786 -0.2228,-0.1248 -0.4128,-0.1817 -0.5695,-0.1721 -0.1103,0.0079 -0.2106,0.055 -0.2994,0.1389 -0.1037,0.0987 -0.1516,0.2339 -0.144,0.4042 0.0108,0.2319 0.1245,0.5029 0.3447,0.8136 0.2186,0.3109 0.4541,0.5984 0.7059,0.864 z" />
    <path
       id="path14"
       style="fill:#1b1918;fill-rule:evenodd"
       d="m 94.415,93.0166 c -0.3711,-0.3209 -0.6421,-0.6522 -0.8127,-0.9961 -0.1712,-0.3441 -0.2432,-0.665 -0.2132,-0.9646 0.0198,-0.2336 0.0969,-0.4269 0.2296,-0.5802 0.216,-0.2503 0.5363,-0.3643 0.9621,-0.3428 0.5301,0.0241 1.0641,0.2696 1.6033,0.7356 0.377,0.326 0.6516,0.6577 0.8212,0.995 0.17,0.337 0.2412,0.6406 0.2148,0.9128 -0.0269,0.2715 -0.1083,0.4864 -0.2435,0.6431 -0.2684,0.3104 -0.6743,0.4108 -1.2192,0.3008 -0.4597,-0.0927 -0.907,-0.3274 -1.3424,-0.7036 z m 0.4668,-0.4212 c 0.4476,0.3869 0.8609,0.648 1.2393,0.7832 0.3169,0.1154 0.5536,0.0817 0.7095,-0.0986 0.0743,-0.0859 0.1131,-0.2084 0.1151,-0.3683 0.0023,-0.1598 -0.0669,-0.3415 -0.208,-0.5479 -0.2115,-0.3104 -0.5681,-0.6831 -1.0681,-1.1154 -0.3714,-0.3206 -0.7146,-0.5499 -1.0279,-0.6877 -0.2341,-0.1021 -0.4286,-0.1398 -0.5836,-0.1148 -0.1092,0.0187 -0.2044,0.0754 -0.2843,0.1678 -0.0936,0.1083 -0.1279,0.2477 -0.1032,0.4167 0.0334,0.2293 0.1735,0.4878 0.4235,0.7753 0.2483,0.288 0.5111,0.5505 0.7877,0.7897 z m 1.8754,-2.283 c -0.3843,-0.3053 -0.6687,-0.6248 -0.8535,-0.9615 -0.1851,-0.3365 -0.2704,-0.6546 -0.2528,-0.9547 0.0099,-0.2345 0.0793,-0.4309 0.2052,-0.5896 0.2055,-0.2589 0.521,-0.3858 0.947,-0.3824 0.5307,0.0022 1.0744,0.2253 1.6325,0.6687 0.3904,0.3098 0.6784,0.6298 0.862,0.96 0.1837,0.3297 0.2673,0.6299 0.2523,0.9032 -0.0159,0.2724 -0.0879,0.4904 -0.2165,0.6525 -0.2554,0.3214 -0.6568,0.4382 -1.2056,0.3509 -0.4635,-0.0734 -0.9201,-0.2894 -1.3706,-0.6471 z m 0.449,-0.4402 c 0.4632,0.3679 0.887,0.6117 1.2705,0.7313 0.3218,0.1018 0.5567,0.0587 0.705,-0.1281 0.0706,-0.089 0.1043,-0.2129 0.0998,-0.3728 -0.0046,-0.1599 -0.0811,-0.3384 -0.2308,-0.5389 -0.2242,-0.3013 -0.5958,-0.6587 -1.1134,-1.07 -0.3841,-0.305 -0.7367,-0.5199 -1.0553,-0.6446 -0.2382,-0.0922 -0.4343,-0.1219 -0.588,-0.0905 -0.1085,0.0233 -0.2012,0.084 -0.2772,0.1798 -0.089,0.1119 -0.1173,0.2525 -0.0859,0.4203 0.0431,0.2279 0.1936,0.4802 0.4553,0.7572 0.2602,0.2772 0.5335,0.5286 0.82,0.7563 z m 1.7008,-2.2527 c -0.4141,-0.2631 -0.7305,-0.5514 -0.9496,-0.8666 -0.2194,-0.3155 -0.3376,-0.6225 -0.3518,-0.9232 -0.0144,-0.2339 0.0338,-0.4366 0.1426,-0.6078 0.1772,-0.2789 0.4774,-0.4382 0.9017,-0.4793 0.5278,-0.0533 1.0919,0.1114 1.6937,0.4938 0.4204,0.2673 0.7404,0.5553 0.9576,0.8643 0.2174,0.3087 0.3319,0.5986 0.3458,0.8716 0.0127,0.2724 -0.0363,0.4969 -0.1471,0.6715 -0.2203,0.3464 -0.6072,0.5052 -1.1622,0.4757 -0.4686,-0.0244 -0.9451,-0.1913 -1.4307,-0.5 z m 0.4003,-0.4848 c 0.4994,0.3175 0.9462,0.5154 1.3402,0.5939 0.3305,0.0677 0.5596,0 0.6877,-0.201 0.0609,-0.0961 0.0813,-0.2228 0.0601,-0.3812 -0.021,-0.1588 -0.1162,-0.3283 -0.286,-0.5117 -0.2543,-0.2764 -0.6614,-0.5927 -1.2195,-0.9473 -0.4139,-0.2634 -0.7869,-0.44 -1.1171,-0.5307 -0.2464,-0.0666 -0.4445,-0.0757 -0.5942,-0.0283 -0.1054,0.0346 -0.191,0.1046 -0.2568,0.2078 -0.0765,0.1207 -0.0901,0.2636 -0.0414,0.4271 0.0669,0.222 0.2432,0.4573 0.5324,0.7053 0.2877,0.2483 0.5859,0.47 0.8946,0.6661 z m 1.5145,-2.5253 c -0.4257,-0.2438 -0.7551,-0.5171 -0.9884,-0.8221 -0.2336,-0.305 -0.3657,-0.6063 -0.3937,-0.9059 -0.0253,-0.2331 0.0136,-0.4377 0.1142,-0.6137 0.1644,-0.2866 0.4569,-0.4598 0.8787,-0.5205 0.525,-0.0774 1.0959,0.0612 1.7147,0.4156 0.4323,0.2477 0.7654,0.5207 0.9964,0.8192 0.231,0.2985 0.3591,0.5828 0.3855,0.8549 0.0252,0.2719 -0.0133,0.4983 -0.1162,0.6778 -0.2041,0.356 -0.5831,0.5323 -1.139,0.5284 -0.4691,-0.0029 -0.953,-0.1477 -1.4522,-0.4337 z m 0.3776,-0.5026 c 0.5134,0.2942 0.9689,0.4714 1.3663,0.5318 0.3331,0.0524 0.559,-0.0258 0.6775,-0.2328 0.0564,-0.0986 0.0708,-0.2262 0.0425,-0.3835 -0.0283,-0.1573 -0.1312,-0.3223 -0.3093,-0.498 -0.2667,-0.2642 -0.6879,-0.5616 -1.2617,-0.8901 -0.4257,-0.2441 -0.8064,-0.4034 -1.1403,-0.4788 -0.2492,-0.0553 -0.4476,-0.055 -0.5947,-8e-4 -0.1038,0.0391 -0.1863,0.1131 -0.2469,0.2191 -0.0712,0.1241 -0.0783,0.2676 -0.0219,0.4286 0.0768,0.2188 0.2639,0.4459 0.5641,0.68 0.2988,0.235 0.6069,0.4425 0.9244,0.6245 z m 1.3635,-2.5016 c -0.4465,-0.2035 -0.7997,-0.445 -1.0602,-0.7271 -0.2608,-0.282 -0.4204,-0.57 -0.4759,-0.8657 -0.0465,-0.2296 -0.0267,-0.4371 0.0572,-0.6216 0.1372,-0.3008 0.4125,-0.5001 0.8269,-0.5996 0.5153,-0.1255 1.0967,-0.0405 1.7456,0.2552 0.4535,0.2066 0.8101,0.4478 1.0678,0.7239 0.2579,0.2756 0.4116,0.5468 0.4629,0.8156 0.0504,0.2681 0.0329,0.4972 -0.0527,0.6854 -0.1704,0.3736 -0.5318,0.5839 -1.0854,0.6315 -0.4675,0.0406 -0.9627,-0.0589 -1.4862,-0.2976 z m 0.3296,-0.5352 c 0.5383,0.2452 1.0083,0.3796 1.4094,0.4028 0.3368,0.0216 0.5542,-0.0771 0.6531,-0.2942 0.0471,-0.1032 0.0499,-0.2316 0.007,-0.3858 -0.0428,-0.1539 -0.1604,-0.309 -0.354,-0.4672 -0.29,-0.2384 -0.737,-0.4957 -1.3386,-0.7699 -0.4464,-0.2035 -0.8404,-0.3268 -1.1797,-0.371 -0.2535,-0.032 -0.4507,-0.0136 -0.5925,0.0541 -0.0995,0.0488 -0.1749,0.1299 -0.2256,0.241 -0.0593,0.1304 -0.053,0.2738 0.0181,0.4289 0.0967,0.2106 0.3039,0.4195 0.6245,0.625 0.3192,0.2064 0.6452,0.3844 0.9782,0.5363 z m 1.143,-2.6889 c -0.4573,-0.178 -0.8238,-0.3991 -1.0999,-0.6659 -0.2764,-0.2667 -0.4518,-0.5451 -0.5241,-0.8373 -0.0598,-0.2265 -0.0519,-0.4349 0.0215,-0.6237 0.1199,-0.3081 0.3836,-0.523 0.7915,-0.6457 0.5077,-0.1548 1.093,-0.1026 1.7575,0.1556 0.4643,0.1806 0.8342,0.4011 1.1072,0.6619 0.2729,0.2608 0.4419,0.5227 0.5085,0.788 0.0655,0.2648 0.0609,0.4947 -0.0139,0.6874 -0.1488,0.3827 -0.4975,0.6132 -1.0477,0.6923 -0.4643,0.0669 -0.9643,-0.0043 -1.5006,-0.2126 z m 0.2987,-0.5534 c 0.5514,0.2143 1.0282,0.3218 1.4298,0.3223 0.3376,0.0023 0.5491,-0.1085 0.6356,-0.3308 0.0411,-0.106 0.0365,-0.2344 -0.0151,-0.3858 -0.0516,-0.1513 -0.1777,-0.2993 -0.3798,-0.4464 -0.3033,-0.2214 -0.7642,-0.453 -1.3802,-0.6925 -0.4572,-0.1777 -0.8575,-0.2787 -1.1991,-0.3033 -0.2545,-0.0176 -0.4507,0.0122 -0.5884,0.0876 -0.0964,0.0541 -0.167,0.1397 -0.2112,0.2534 -0.0519,0.1335 -0.0374,0.2764 0.0422,0.4272 0.1086,0.2049 0.3271,0.4014 0.6588,0.5884 0.3308,0.188 0.6661,0.3473 1.0074,0.4799 z" />
  </g>
  <path
     id="path17"
     style="fill:#1b1918;fill-rule:evenodd"
     d="m 24.3995,77.9372 -0.6732,0.4357 -0.0587,-0.1302 c 0.2049,-0.1805 0.3209,-0.3208 0.3455,-0.4212 0.0255,-0.0992 -0.0153,-0.2687 -0.1224,-0.5057 l -0.252,-0.5578 -1.8423,0.8316 c -0.2043,0.0922 -0.322,0.1585 -0.352,0.197 -0.0298,0.0397 -0.0491,0.0891 -0.0593,0.148 -0.009,0.0587 0.0168,0.1554 0.078,0.2908 l -0.1069,0.0482 -0.5989,-1.3271 0.1065,-0.0482 c 0.0891,0.1868 0.1735,0.2948 0.2518,0.3234 0.0799,0.0295 0.2341,-0.0079 0.4643,-0.112 l 1.4099,-0.6363 c 0.1885,-0.0851 0.3042,-0.1506 0.3481,-0.1954 0.0434,-0.0459 0.0655,-0.0994 0.0652,-0.1635 -0.0011,-0.0627 -0.0334,-0.1692 -0.0986,-0.3181 l 0.1068,-0.0481 z m -1.1752,2.4168 c 0.0481,0.0862 0.0586,0.1757 0.0323,0.2687 -0.0267,0.0919 -0.0822,0.1616 -0.1673,0.2092 -0.0842,0.0471 -0.1737,0.0573 -0.2667,0.0312 -0.093,-0.0264 -0.1633,-0.0814 -0.2109,-0.1664 -0.0471,-0.0842 -0.0576,-0.1738 -0.0312,-0.2667 0.0261,-0.093 0.0819,-0.1639 0.1661,-0.2109 0.0862,-0.0482 0.1758,-0.0587 0.2687,-0.0324 0.0919,0.0267 0.1619,0.0831 0.209,0.1673 z m 4.255,3.4112 1.2294,1.5718 0.9777,-0.7645 c 0.1723,-0.1349 0.2775,-0.235 0.3152,-0.2988 0.0278,-0.0493 0.036,-0.1122 0.0238,-0.1893 -0.0159,-0.1032 -0.0558,-0.1945 -0.1185,-0.2744 l -0.0941,-0.1205 0.0924,-0.072 1.137,1.4542 -0.0921,0.0723 -0.0941,-0.1205 c -0.063,-0.0802 -0.1409,-0.1417 -0.2356,-0.1831 -0.0683,-0.0335 -0.1372,-0.0386 -0.2055,-0.0153 -0.0692,0.0224 -0.1865,0.0989 -0.3521,0.2287 l -2.1968,1.7175 c -0.1715,0.1341 -0.2764,0.2342 -0.3141,0.298 -0.0283,0.0498 -0.0377,0.1122 -0.0269,0.1876 0.0173,0.1043 0.0578,0.1967 0.1204,0.277 l 0.0944,0.1204 -0.0924,0.072 -1.1372,-1.4541 0.0924,-0.0723 0.0941,0.1204 c 0.1086,0.1392 0.2282,0.2078 0.3594,0.2087 0.0865,-6e-4 0.2305,-0.08 0.4337,-0.239 l 1.0344,-0.8087 -1.2294,-1.5721 -1.0344,0.809 c -0.1715,0.1341 -0.2763,0.2339 -0.314,0.2979 -0.0292,0.0488 -0.0377,0.1117 -0.0258,0.1891 0.0161,0.1029 0.0552,0.1933 0.1182,0.2735 l 0.0952,0.1222 -0.0921,0.072 -1.1373,-1.4542 0.0924,-0.072 0.0941,0.1202 c 0.11,0.1409 0.2302,0.2104 0.3615,0.2112 0.085,-0.0023 0.2284,-0.0825 0.4314,-0.2415 l 2.1969,-1.7175 c 0.1723,-0.1349 0.2775,-0.2347 0.3152,-0.2988 0.0277,-0.049 0.0368,-0.1111 0.026,-0.1865 -0.0172,-0.1049 -0.0581,-0.197 -0.1207,-0.2772 l -0.0941,-0.1202 0.0924,-0.0723 1.137,1.4542 -0.0924,0.0723 -0.0953,-0.1222 c -0.0629,-0.0802 -0.1403,-0.1406 -0.2347,-0.1823 -0.0669,-0.0315 -0.1352,-0.036 -0.2041,-0.0136 -0.0692,0.0227 -0.1874,0.0984 -0.3529,0.2279 z m 6.3961,4.9961 c 0.1769,-0.1874 0.2586,-0.3342 0.2447,-0.4408 -0.0139,-0.1069 -0.1131,-0.2481 -0.2977,-0.4221 l 0.0805,-0.085 1.3522,1.2755 -0.0805,0.0851 c -0.1979,-0.1749 -0.3498,-0.2602 -0.4561,-0.2549 -0.1058,0.0046 -0.2566,0.1109 -0.4522,0.3181 l -1.8779,1.9905 c -0.1956,0.2072 -0.2931,0.3642 -0.2914,0.47 8e-4,0.1066 0.0947,0.2531 0.2809,0.4408 l -0.0802,0.085 -1.3522,-1.2756 0.0803,-0.085 c 0.2043,0.1811 0.3597,0.2678 0.4668,0.263 0.1072,-0.0062 0.2574,-0.1117 0.4516,-0.3175 l 1.6994,-1.8011 -3.2089,0.5026 c -0.125,0.1352 -0.2009,0.2333 -0.2273,0.2945 -0.0266,0.0598 -0.0232,0.1318 0.0113,0.2135 0.0349,0.0819 0.1253,0.1958 0.273,0.341 l -0.0805,0.085 -1.3473,-1.2713 0.0802,-0.0851 c 0.1982,0.1752 0.3501,0.2602 0.4564,0.2549 0.1057,-0.0046 0.2568,-0.1109 0.4521,-0.3181 l 1.878,-1.9908 c 0.1956,-0.2072 0.2928,-0.3639 0.2914,-0.4697 -9e-4,-0.1065 -0.0947,-0.2531 -0.2812,-0.4407 l 0.0805,-0.0851 1.3473,1.2714 -0.0802,0.085 c -0.2013,-0.1783 -0.3541,-0.2642 -0.4612,-0.2597 -0.1055,0.0049 -0.2566,0.1112 -0.4521,0.3184 l -1.704,1.8062 z m 1.533,5.7764 0.0624,-0.0992 c 0.2321,0.1358 0.3985,0.1902 0.5028,0.1647 0.1027,-0.0252 0.2299,-0.159 0.3813,-0.4006 l 0.701,-1.1177 -0.0734,-0.0498 c -0.0661,-0.0414 -0.1293,-0.0633 -0.1885,-0.0647 -0.0578,-0.0014 -0.114,0.0105 -0.1656,0.0357 -0.0524,0.0247 -0.3067,0.167 -0.7636,0.4267 l -1.1611,0.663 -0.9255,-0.5803 0.0624,-0.0989 c 0.2902,0.1244 0.5499,0.1426 0.7798,0.0556 0.2307,-0.0868 0.6673,-0.3042 1.3127,-0.65 0.2319,-0.1333 0.4255,-0.2013 0.5805,-0.2038 -0.0578,-0.1463 -0.0816,-0.2903 -0.07,-0.4312 0.0108,-0.1417 0.0669,-0.3943 0.1684,-0.7577 0.078,-0.2874 0.1168,-0.4717 0.1168,-0.5533 -6e-4,-0.0808 -0.0315,-0.1415 -0.095,-0.1811 -0.0587,-0.0369 -0.1525,-0.0587 -0.2809,-0.0635 -0.125,-0.0054 -0.2194,-0.0278 -0.2837,-0.0681 -0.0752,-0.047 -0.1239,-0.1083 -0.1452,-0.1845 -0.0204,-0.0754 -0.0107,-0.1457 0.0312,-0.2129 0.0502,-0.0799 0.1332,-0.129 0.2483,-0.1448 0.1148,-0.0162 0.2464,0.0212 0.3929,0.1133 0.1432,0.0896 0.2486,0.207 0.3164,0.3518 0.0677,0.1449 0.0949,0.2807 0.0816,0.4105 -0.0128,0.129 -0.0644,0.3611 -0.1548,0.6996 -0.081,0.3044 -0.1287,0.515 -0.1411,0.629 -0.0131,0.1145 0.0051,0.218 0.0544,0.3126 0.0493,0.095 0.1349,0.1806 0.256,0.2566 0.0413,0.0261 0.1,0.055 0.1746,0.0864 l 0.6253,-0.9969 C 37.9599,91.643 38.0248,91.47 38.003,91.3666 37.9803,91.262 37.8587,91.1358 37.6356,90.9859 l 0.0621,-0.0992 1.5695,0.9839 -0.0621,0.0992 c -0.2304,-0.1344 -0.396,-0.1882 -0.4983,-0.1619 -0.1018,0.0261 -0.229,0.1596 -0.3804,0.4011 l -0.625,0.9967 c 0.0436,0.0428 0.0858,0.0771 0.1292,0.104 0.1349,0.0848 0.2548,0.1279 0.3606,0.1304 0.1049,0.0017 0.2055,-0.0258 0.3013,-0.0847 0.095,-0.0581 0.2653,-0.1931 0.5097,-0.4031 0.2619,-0.2282 0.4484,-0.3748 0.5573,-0.4419 0.1094,-0.0669 0.2443,-0.1024 0.4056,-0.1066 0.1607,-0.004 0.3138,0.0397 0.4589,0.1307 0.1395,0.0873 0.2296,0.1862 0.2707,0.2965 0.0403,0.1108 0.0341,0.2089 -0.0198,0.2945 -0.042,0.0669 -0.1003,0.1068 -0.1772,0.1213 -0.0771,0.0145 -0.153,-0.0028 -0.2301,-0.051 -0.0607,-0.038 -0.1222,-0.1134 -0.1846,-0.2254 -0.0626,-0.1148 -0.1247,-0.191 -0.1854,-0.229 -0.0595,-0.0374 -0.127,-0.036 -0.2029,0.002 -0.0763,0.038 -0.2245,0.1522 -0.4431,0.341 -0.286,0.2503 -0.4898,0.4102 -0.6103,0.4819 -0.1216,0.072 -0.2599,0.1131 -0.4167,0.1247 0.0434,0.1244 0.0661,0.2472 0.0689,0.3693 0.0023,0.1231 -0.0085,0.4332 -0.0329,0.9335 -0.019,0.4765 -8e-4,0.7962 0.0562,0.9584 0.0564,0.163 0.174,0.328 0.3534,0.4927 l -0.062,0.0992 -0.9253,-0.5803 c 0.0074,-0.0607 0.0318,-0.4059 0.0743,-1.0378 l 0.0683,-1.0414 c 0.0054,-0.0635 9e-4,-0.1378 -0.015,-0.2203 -0.015,-0.0824 -0.07,-0.1539 -0.1656,-0.2137 -0.0192,-0.0122 -0.0436,-0.0261 -0.0711,-0.0411 l -0.701,1.118 c -0.1514,0.2412 -0.2163,0.4144 -0.195,0.517 0.0204,0.1038 0.1411,0.2294 0.3622,0.3782 l -0.062,0.0992 z m 6.9939,1.3453 1.8119,0.8365 0.5202,-1.127 c 0.0918,-0.1987 0.1395,-0.3356 0.1437,-0.4099 0.0023,-0.0564 -0.0193,-0.1162 -0.0652,-0.1795 -0.0612,-0.0844 -0.1386,-0.1471 -0.231,-0.1899 l -0.1386,-0.0638 0.049,-0.1063 1.6764,0.7736 -0.049,0.1063 -0.1389,-0.064 c -0.0927,-0.0428 -0.1902,-0.0616 -0.2931,-0.0553 -0.076,0.0017 -0.1398,0.0286 -0.1899,0.0802 -0.0511,0.0516 -0.1205,0.1735 -0.2087,0.3645 l -1.1687,2.5317 c -0.0913,0.1978 -0.1389,0.3347 -0.1434,0.4087 -0.0023,0.0573 0.0178,0.1171 0.0621,0.1792 0.0632,0.085 0.1411,0.1485 0.2338,0.1913 l 0.1386,0.0641 -0.049,0.1063 -1.6761,-0.7739 0.049,-0.1063 0.1386,0.0641 c 0.1605,0.074 0.2982,0.0805 0.4153,0.0212 0.0768,-0.0399 0.1684,-0.1766 0.2767,-0.4107 l 0.5502,-1.192 -1.8119,-0.8365 -0.5503,1.1923 c -0.0912,0.1975 -0.1391,0.3345 -0.1434,0.4087 -0.0034,0.0567 0.0176,0.1168 0.0638,0.1797 0.0612,0.0842 0.1372,0.1469 0.2299,0.1897 l 0.1406,0.0649 -0.0491,0.1063 -1.6761,-0.7736 0.0491,-0.1063 0.1389,0.0638 c 0.1621,0.0748 0.3007,0.0819 0.4178,0.0227 0.0748,-0.0408 0.1655,-0.1778 0.2735,-0.4122 L 42.3677,94.5 c 0.0916,-0.1987 0.1395,-0.3356 0.1438,-0.4099 0.0022,-0.0561 -0.0182,-0.1156 -0.0621,-0.1777 -0.0632,-0.0853 -0.1415,-0.1488 -0.2339,-0.1914 l -0.1386,-0.064 0.0491,-0.1063 1.6758,0.7736 -0.049,0.1063 -0.1406,-0.065 c -0.0925,-0.0428 -0.1891,-0.0609 -0.292,-0.0547 -0.074,0.0026 -0.1369,0.0298 -0.1877,0.0811 -0.0513,0.0516 -0.1219,0.1732 -0.21,0.364 z m 7.9912,1.5038 c 0.0723,-0.2475 0.0782,-0.4153 0.0173,-0.504 -0.0607,-0.0887 -0.2132,-0.1695 -0.4567,-0.2407 l 0.0329,-0.1122 1.7841,0.5216 -0.0329,0.1125 c -0.2559,-0.066 -0.43,-0.0729 -0.5221,-0.0198 -0.0921,0.0521 -0.1783,0.2154 -0.2582,0.4887 l -0.7682,2.6265 c -0.08,0.2736 -0.0953,0.4578 -0.046,0.5511 0.0491,0.0947 0.1996,0.1825 0.4508,0.265 l -0.0329,0.1123 -1.7844,-0.5219 0.0328,-0.1122 c 0.2645,0.0686 0.4423,0.0751 0.5355,0.0221 0.0927,-0.0542 0.1786,-0.2163 0.258,-0.4879 l 0.695,-2.3765 -2.6297,1.9057 c -0.0499,0.1775 -0.0731,0.2993 -0.0686,0.366 0.0034,0.0654 0.0391,0.1278 0.1072,0.1848 0.068,0.0572 0.2004,0.1173 0.398,0.1797 l -0.0329,0.1122 -1.7782,-0.5198 0.0329,-0.1123 c 0.2559,0.0658 0.43,0.0729 0.5224,0.0196 0.0918,-0.0522 0.1783,-0.2157 0.2582,-0.489 l 0.7679,-2.6266 c 0.08,-0.2735 0.0956,-0.4575 0.046,-0.551 -0.0491,-0.0944 -0.1993,-0.1823 -0.4505,-0.2648 l 0.0329,-0.1122 1.7779,0.5198 -0.0329,0.1126 c -0.2602,-0.0675 -0.4354,-0.0746 -0.5289,-0.0219 -0.0916,0.0525 -0.1777,0.2155 -0.2577,0.489 l -0.697,2.3834 z m 6.1336,-1.169 c 0.0643,0.0088 0.1162,0.0445 0.1559,0.1057 0.0394,0.0627 0.0539,0.1313 0.0434,0.2061 -0.0261,0.186 -0.1449,0.3322 -0.3558,0.4397 -0.2106,0.1071 -0.5247,0.1312 -0.9434,0.0728 -0.4192,-0.0587 -0.7157,-0.1681 -0.8892,-0.3291 -0.172,-0.1607 -0.2452,-0.3339 -0.2194,-0.5196 0.0102,-0.0728 0.042,-0.1355 0.0961,-0.1845 0.0539,-0.0505 0.1157,-0.0703 0.1843,-0.0607 0.0688,0.0097 0.1241,0.0445 0.1661,0.1052 0.0414,0.0606 0.0949,0.1885 0.1584,0.3832 0.0893,0.2773 0.2631,0.4337 0.5227,0.47 0.2574,0.036 0.4678,-0.0669 0.6316,-0.3087 0.1128,-0.1726 0.1981,-0.282 0.2537,-0.3277 0.0547,-0.0459 0.1205,-0.0629 0.1956,-0.0524 z m -0.2747,2.1076 c 0.0357,-0.2552 0.0173,-0.4221 -0.0558,-0.5009 -0.0732,-0.0794 -0.2359,-0.1369 -0.487,-0.1721 l 0.0161,-0.1159 1.8411,0.2574 -0.0161,0.1159 c -0.2628,-0.0281 -0.436,-0.0096 -0.5196,0.0561 -0.0836,0.0649 -0.1451,0.239 -0.1845,0.5213 l -0.3788,2.7102 c -0.0394,0.2821 -0.028,0.4666 0.0346,0.5516 0.0624,0.0868 0.2237,0.152 0.4842,0.1968 l -0.0162,0.1159 -1.8411,-0.2571 0.0162,-0.1159 c 0.2715,0.0292 0.4481,0.0102 0.5332,-0.0559 0.0836,-0.0669 0.1451,-0.2398 0.1842,-0.5199 l 0.3427,-2.4525 -2.3252,2.2672 c -0.0235,0.1828 -0.0289,0.307 -0.0148,0.3721 0.0128,0.0641 0.0573,0.1208 0.133,0.1673 0.0754,0.0468 0.2151,0.087 0.4195,0.1199 l -0.0161,0.1159 -1.8346,-0.2562 0.0161,-0.116 c 0.2628,0.0281 0.436,0.01 0.5196,-0.0564 0.0836,-0.0649 0.1452,-0.2392 0.1846,-0.5213 l 0.3787,-2.7102 c 0.0394,-0.282 0.028,-0.4663 -0.0346,-0.5519 -0.0624,-0.0861 -0.2237,-0.1513 -0.4842,-0.1964 l 0.0162,-0.1159 1.8346,0.2565 -0.0162,0.1159 c -0.2673,-0.0289 -0.4416,-0.0105 -0.5264,0.055 -0.083,0.0652 -0.1448,0.2393 -0.1842,0.5213 l -0.3436,2.4594 z m 6.8848,1.2591 1.9763,-0.2761 -0.1718,-1.2294 C 64.9114,97.8622 64.8774,97.7213 64.8411,97.6567 64.8125,97.6079 64.762,97.5691 64.6892,97.541 64.5919,97.503 64.493,97.492 64.3924,97.5061 l -0.1514,0.021 -0.0161,-0.1159 1.8283,-0.2554 0.0162,0.1159 -0.1514,0.021 c -0.1009,0.0142 -0.1931,0.0513 -0.2764,0.112 -0.0632,0.0428 -0.102,0.0997 -0.1162,0.1703 -0.0153,0.0712 -0.0077,0.2112 0.0212,0.4196 l 0.3861,2.7615 c 0.0301,0.2157 0.0641,0.3566 0.1004,0.4212 0.0289,0.0496 0.0782,0.0887 0.1488,0.1173 0.0992,0.0372 0.1993,0.0485 0.3002,0.0343 l 0.1513,-0.0209 0.0162,0.1159 -1.8283,0.2554 -0.0162,-0.1159 0.1514,-0.0213 c 0.1749,-0.0244 0.2942,-0.0935 0.3605,-0.2066 0.0431,-0.0749 0.0465,-0.2396 0.0108,-0.495 l -0.1817,-1.3002 -1.9766,0.2761 0.1817,1.3005 c 0.0303,0.2154 0.0641,0.3563 0.1004,0.4212 0.028,0.0496 0.0779,0.0888 0.151,0.1168 0.097,0.0377 0.1948,0.0494 0.296,0.0352 l 0.1533,-0.0216 0.0162,0.116 -1.8284,0.2557 -0.0161,-0.116 0.1514,-0.0212 c 0.1768,-0.0247 0.2973,-0.0939 0.3636,-0.2073 0.0409,-0.0745 0.0431,-0.2389 0.0074,-0.4943 L 62.3602,98.4399 C 62.3299,98.223 62.2962,98.0821 62.2596,98.0172 62.231,97.9688 62.1819,97.9296 62.1111,97.9013 62.0118,97.8636 61.9118,97.8528 61.8109,97.8667 l -0.1514,0.0213 -0.0162,-0.116 1.8284,-0.2554 0.0161,0.116 -0.1533,0.0212 c -0.1009,0.0142 -0.1922,0.0511 -0.2755,0.1117 -0.0607,0.0425 -0.099,0.0992 -0.114,0.1701 -0.015,0.0711 -0.0088,0.2112 0.0204,0.4195 z m 6.4397,-3.3177 c 0.5358,-0.1567 1.0602,-0.0887 1.5713,0.2041 0.5125,0.2926 0.8575,0.7438 1.0361,1.3541 0.1836,0.6282 0.1386,1.207 -0.1364,1.7377 -0.2741,0.5301 -0.6928,0.8773 -1.2552,1.042 -0.5678,0.1658 -1.1044,0.1029 -1.6095,-0.1885 -0.5051,-0.2917 -0.8512,-0.758 -1.0392,-1.4006 -0.1919,-0.6562 -0.1253,-1.2569 0.1999,-1.8023 0.2823,-0.4731 0.6936,-0.7886 1.233,-0.9465 z m 0.0057,0.2353 c -0.3679,0.1074 -0.6242,0.3317 -0.7665,0.6713 -0.1774,0.4232 -0.1706,0.964 0.0224,1.6234 0.1973,0.6749 0.4927,1.1528 0.8873,1.4323 0.3021,0.212 0.6338,0.265 0.9966,0.1587 0.3878,-0.1133 0.6628,-0.3585 0.8269,-0.735 0.1638,-0.3773 0.1502,-0.8915 -0.0405,-1.5443 -0.2073,-0.7084 -0.5012,-1.1956 -0.8802,-1.4618 -0.3036,-0.2115 -0.6517,-0.26 -1.046,-0.1446 z m 6.969,-0.4413 c 0.2979,-0.0641 0.5431,-0.0644 0.7361,0.0031 0.2671,0.0932 0.459,0.2681 0.5746,0.525 0.0885,0.1953 0.1117,0.4107 0.0692,0.6451 -0.0428,0.2344 -0.1528,0.4411 -0.3311,0.62 -0.1774,0.1788 -0.4864,0.3685 -0.9278,0.5674 l -1.8493,0.8351 -0.0482,-0.1068 0.146,-0.0658 c 0.163,-0.0737 0.256,-0.1786 0.2801,-0.3144 0.0141,-0.087 -0.0292,-0.2409 -0.1282,-0.4603 l -1.1471,-2.5415 c -0.1097,-0.2427 -0.2067,-0.3836 -0.2903,-0.4216 -0.1134,-0.0513 -0.2429,-0.0436 -0.3915,0.0233 l -0.146,0.066 -0.0481,-0.1068 1.6922,-0.764 c 0.3161,-0.1426 0.5792,-0.2341 0.7906,-0.2738 0.3212,-0.0604 0.5967,-0.0374 0.8283,0.0709 0.2322,0.108 0.3994,0.2758 0.5032,0.5062 0.0887,0.1962 0.1091,0.3989 0.0598,0.6086 -0.0494,0.2089 -0.1732,0.4043 -0.3725,0.5843 z m -1.5871,0.5227 c 0.0774,-0.0182 0.1638,-0.0451 0.2579,-0.0794 0.0947,-0.0346 0.1967,-0.0771 0.3065,-0.1264 0.2811,-0.127 0.4799,-0.2537 0.5938,-0.3776 0.114,-0.1239 0.1809,-0.2659 0.199,-0.4252 0.0181,-0.1576 -0.006,-0.311 -0.0728,-0.4592 -0.1032,-0.2288 -0.2849,-0.381 -0.5446,-0.4587 -0.2594,-0.0768 -0.5686,-0.0348 -0.9261,0.1265 -0.1924,0.087 -0.3568,0.1862 -0.4918,0.2982 z m 0.8495,1.8819 c 0.2478,-0.0488 0.4816,-0.1233 0.6999,-0.222 0.3506,-0.1581 0.5822,-0.3577 0.695,-0.5978 0.1129,-0.2401 0.1171,-0.4759 0.0128,-0.707 -0.0686,-0.1519 -0.1777,-0.28 -0.3268,-0.3815 -0.1486,-0.1026 -0.3348,-0.1517 -0.5582,-0.1485 -0.2231,0.0034 -0.4734,0.0674 -0.7489,0.1919 -0.1193,0.0538 -0.2202,0.102 -0.3033,0.144 -0.0831,0.0425 -0.1482,0.0799 -0.1964,0.1125 z m 5.0811,-7.314 0.5624,0.8363 -0.0981,0.0637 c -0.1182,-0.1658 -0.244,-0.2795 -0.3758,-0.3396 -0.1338,-0.0603 -0.2563,-0.0737 -0.3694,-0.0388 -0.1134,0.0337 -0.2596,0.1091 -0.4394,0.2262 l -1.0134,0.6594 1.7938,2.7569 c 0.1554,0.2387 0.2849,0.3705 0.3872,0.3943 0.1038,0.0244 0.2685,-0.0323 0.4955,-0.1698 l 0.0638,0.0981 -1.5471,1.0069 -0.0641,-0.0984 c 0.2168,-0.1511 0.3353,-0.2786 0.3552,-0.3835 0.0204,-0.1035 -0.0474,-0.2755 -0.2027,-0.5142 l -1.4924,-2.2938 c -0.1554,-0.239 -0.2849,-0.3702 -0.3881,-0.3937 -0.1038,-0.0244 -0.2685,0.0326 -0.4947,0.1695 l -0.0637,-0.0981 z m 2.8035,-2.1883 c 0.4396,-0.3439 0.9519,-0.4748 1.5352,-0.392 0.5842,0.0822 1.0718,0.3736 1.4636,0.8744 0.403,0.5154 0.5754,1.0698 0.5164,1.6645 -0.0584,0.5942 -0.3189,1.0718 -0.7804,1.4327 -0.466,0.3645 -0.9878,0.5043 -1.565,0.4206 -0.5771,-0.0839 -1.0712,-0.3889 -1.4836,-0.9164 -0.4212,-0.5386 -0.5817,-1.1214 -0.4816,-1.7484 0.0873,-0.544 0.3526,-0.9893 0.7954,-1.3354 z m 0.0924,0.2163 c -0.3019,0.2361 -0.4572,0.5391 -0.4638,0.9073 -0.0082,0.459 0.1985,0.9587 0.6217,1.4999 0.4331,0.5538 0.8844,0.8886 1.3544,1.0023 0.3591,0.0847 0.6868,0.0113 0.9847,-0.2214 0.3184,-0.2489 0.4831,-0.5786 0.4961,-0.9887 0.0125,-0.4116 -0.1905,-0.8842 -0.6095,-1.4199 -0.4543,-0.5814 -0.9079,-0.9252 -1.3586,-1.0324 -0.36,-0.0839 -0.7016,0 -1.025,0.2529 z m 5.0995,-1.8338 0.9167,0.8649 c 0.1971,0.1859 0.3391,0.2798 0.4272,0.2812 0.1228,0.0054 0.2398,-0.0508 0.3515,-0.169 l 0.1128,-0.1199 0.0854,0.0805 -1.2668,1.3425 -0.0851,-0.0802 0.1114,-0.1182 c 0.1247,-0.1324 0.1715,-0.2687 0.1392,-0.4065 -0.0184,-0.0751 -0.1168,-0.1978 -0.2951,-0.3659 l -2.0282,-1.9137 c -0.1973,-0.186 -0.3384,-0.2806 -0.4252,-0.2832 -0.125,-0.0034 -0.2429,0.0536 -0.3552,0.1726 l -0.1114,0.1182 -0.085,-0.0802 1.0837,-1.1489 c 0.2647,-0.2806 0.502,-0.4739 0.7126,-0.5819 0.2101,-0.1074 0.4366,-0.1514 0.6784,-0.1332 0.242,0.0181 0.456,0.1162 0.6437,0.2933 0.2563,0.2416 0.3847,0.5222 0.3855,0.8417 9e-4,0.3197 -0.1434,0.6332 -0.434,0.9413 -0.0714,0.0757 -0.1533,0.152 -0.2469,0.2288 -0.0935,0.0788 -0.1987,0.1568 -0.3152,0.2358 z m -0.1324,-0.1247 c 0.0927,-0.0663 0.1727,-0.1275 0.2393,-0.184 0.0666,-0.0547 0.1219,-0.1051 0.1635,-0.1496 0.1508,-0.1599 0.218,-0.3558 0.2036,-0.5882 -0.0145,-0.2327 -0.1194,-0.4419 -0.3155,-0.627 -0.1355,-0.1279 -0.2877,-0.2194 -0.4556,-0.2733 -0.1678,-0.0541 -0.3291,-0.0573 -0.4816,-0.0108 -0.1536,0.0474 -0.2911,0.135 -0.4124,0.2634 -0.0743,0.0791 -0.1536,0.1933 -0.2407,0.3435 z m 1.9803,-5.8728 c 0.322,-0.4558 0.775,-0.7288 1.3575,-0.8172 0.5831,-0.0896 1.1339,0.0493 1.6532,0.4161 0.5343,0.3779 0.8589,0.8592 0.9737,1.4457 0.1151,0.5856 0.0031,1.1179 -0.3351,1.5964 -0.3415,0.4833 -0.8007,0.7674 -1.3776,0.8533 -0.5768,0.0859 -1.1381,-0.0641 -1.6849,-0.4507 -0.5581,-0.3946 -0.8796,-0.9066 -0.9643,-1.5356 -0.0729,-0.5462 0.0532,-1.0491 0.3775,-1.508 z m 0.1505,0.1806 c -0.2211,0.3129 -0.2826,0.648 -0.1828,1.0023 0.1242,0.4419 0.466,0.8612 1.027,1.2577 0.574,0.4057 1.1027,0.5964 1.5854,0.5698 0.3685,-0.0218 0.6613,-0.1865 0.8796,-0.4952 0.233,-0.33 0.2959,-0.6931 0.1905,-1.0899 -0.1066,-0.3975 -0.4368,-0.7918 -0.9924,-1.1844 -0.6024,-0.4257 -1.1356,-0.6247 -1.5982,-0.5975 -0.3691,0.0232 -0.6718,0.2018 -0.9091,0.5372 z m 1.9089,-3.2826 1.6591,-3.1518 0.1038,0.0544 c -0.1171,0.2407 -0.1596,0.4119 -0.1267,0.5125 0.0331,0.1018 0.1751,0.2183 0.4263,0.3504 l 2.1129,1.1123 c 0.4082,0.2149 0.6735,0.3254 0.7951,0.3291 0.1214,0.0043 0.2486,-0.121 0.3833,-0.377 l 1.1965,0.6299 -0.0513,0.0975 c -0.3056,-0.0896 -0.5769,-0.1163 -0.8107,-0.0814 -0.235,0.0354 -0.4218,0.1174 -0.5624,0.2449 -0.1398,0.1287 -0.2685,0.3033 -0.3847,0.5239 l -0.5105,0.97 c -0.2236,0.4246 -0.2724,0.7971 -0.1474,1.1174 0.1242,0.3198 0.3107,0.5701 0.5596,0.7512 l -0.0516,0.0978 -1.1965,-0.6299 c 0.1321,-0.3135 0.0793,-0.6525 -0.1576,-1.017 -0.2373,-0.3649 -0.58,-0.7118 -1.031,-1.0412 -0.4507,-0.3302 -0.8323,-0.5774 -1.1455,-0.7424 -0.1874,-0.0987 -0.3373,-0.1483 -0.4504,-0.1477 -0.1125,6e-4 -0.1976,0.0269 -0.2534,0.0797 -0.057,0.0518 -0.1409,0.1766 -0.2534,0.3722 z m 0.697,-0.8081 c 1.0857,0.6313 1.8185,1.1299 2.1969,1.497 0.3793,0.3656 0.6381,0.7273 0.7787,1.0831 l 0.7415,-1.4083 c 0.1315,-0.2503 0.1891,-0.4121 0.1707,-0.4844 -0.0179,-0.0731 -0.1475,-0.1729 -0.3892,-0.3002 l -2.899,-1.5262 z" />
  <path
     id="path19"
     style="fill:#1b1918;fill-rule:evenodd"
     d="m 16.1169,55.2677 -2.52,4.5031 0.5599,4.4969 h -0.58 l -2.4199,-4.4969 4.3398,-4.5031 z m 4.1001,0 -2.5002,4.5031 0.6401,4.4969 h -0.62 l -2.4202,-4.4969 4.3002,-4.5031 z m 6.5114,9.1998 c -1.0666,0 -1.9298,-0.2166 -2.5866,-0.6531 -0.6568,-0.4368 -1.15,-1.0335 -1.4799,-1.7867 -0.33,-0.7568 -0.4936,-1.4902 -0.4936,-2.2068 0,-1.4434 0.4136,-2.9001 1.2402,-4.3667 0.8266,-1.4667 1.9434,-2.6433 3.3435,-3.5235 1.4031,-0.8833 2.7898,-1.3232 4.1564,-1.3232 0.8002,0 1.5602,0.2032 2.2802,0.6066 0.72,0.4034 1.2798,0.9635 1.6801,1.6866 0.4,0.7234 0.5998,1.4502 0.5998,2.187 0,1.6466 -0.5233,3.2966 -1.5732,4.9532 -1.0469,1.6566 -2.2266,2.8568 -3.5334,3.5966 -0.9902,0.5533 -2.2,0.83 -3.6335,0.83 z m 3.8702,-13.0799 c -0.5168,0 -0.9533,0.0933 -1.3167,0.2798 -0.36,0.1834 -0.7367,0.4969 -1.1268,0.9334 -0.3931,0.4368 -0.79,1.0602 -1.1934,1.87 -0.4065,0.8133 -0.7866,1.9168 -1.1398,3.3101 -0.3569,1.3966 -0.5335,2.5599 -0.5335,3.49 0,0.7968 0.1735,1.3966 0.5168,1.8068 0.3467,0.4065 0.79,0.61 1.33,0.61 0.72,0 1.3266,-0.2367 1.8301,-0.7135 0.9966,-0.9465 1.8099,-2.3332 2.44,-4.1598 0.6299,-1.8301 0.9431,-3.4569 0.9431,-4.8836 0,-0.8932 -0.1664,-1.54 -0.5031,-1.9434 -0.3368,-0.4 -0.7501,-0.5998 -1.2467,-0.5998 z m 15.645,-0.7801 h 0.3398 c -0.3566,1.6234 -1.4632,2.5101 -3.3134,2.66 -0.7764,0.0632 -1.3433,0.15 -1.7033,0.26 -0.36,0.1068 -0.7467,0.3299 -1.16,0.6701 -0.4133,0.3433 -0.7664,0.7665 -1.0632,1.2699 -0.2934,0.5034 -0.5834,1.1667 -0.8635,1.9933 1.2969,-1.5698 2.7533,-2.3533 4.3736,-2.3533 0.8464,0 1.5333,0.2534 2.0599,0.7568 0.5267,0.5032 0.7901,1.1733 0.7901,2.0067 0,1.6566 -0.6268,3.1666 -1.88,4.5232 -1.2535,1.3567 -2.6436,2.0333 -4.1734,2.0333 -0.8334,0 -1.4902,-0.2466 -1.9701,-0.7367 -0.4768,-0.4932 -0.7166,-1.1599 -0.7166,-2.0066 0,-1.2232 0.32,-2.6666 0.9632,-4.33 0.6435,-1.6633 1.3102,-2.9466 2.0035,-3.8466 0.6965,-0.9034 1.3833,-1.5035 2.0699,-1.8034 0.6834,-0.2999 1.5633,-0.4768 2.6402,-0.5366 0.5998,-0.0334 0.9864,-0.0802 1.1599,-0.1369 0.1701,-0.0598 0.3201,-0.1998 0.4434,-0.4232 z m -3.7834,5.0202 c -0.3966,0 -0.7733,0.2466 -1.1333,0.7364 -0.3566,0.4901 -0.7835,1.4567 -1.2702,2.8967 -0.4899,1.44 -0.7334,2.6334 -0.7334,3.5836 0,0.7098 0.2801,1.0633 0.8436,1.0633 0.6032,0 1.2734,-0.83 2.0098,-2.4869 0.7367,-1.6565 1.1066,-3.1932 1.1066,-4.6032 0,-0.7934 -0.2732,-1.1899 -0.8231,-1.1899 z m 5.6347,0.0198 3.3933,-0.54 h 0.6168 l -0.4532,1.5899 c 0.6831,-0.6233 1.2467,-1.0431 1.6832,-1.2631 0.4368,-0.2168 0.8699,-0.3268 1.3,-0.3268 0.6134,0 1.0868,0.2367 1.4201,0.7067 0.3334,0.4734 0.5,1.0499 0.5,1.7334 0,1.8666 -0.6468,3.5234 -1.9369,4.9665 -1.1398,1.2768 -2.3865,1.9134 -3.7366,1.9134 -0.2401,0 -0.4433,-0.0232 -0.6134,-0.07 -0.1667,-0.0465 -0.4031,-0.1499 -0.7098,-0.3098 l -0.5068,1.7699 c -0.18,0.6432 -0.2733,1.1299 -0.2733,1.4633 0,0.21 0.07,0.3767 0.2134,0.4966 0.1401,0.1202 0.4598,0.2234 0.9633,0.3101 l -0.08,0.36 h -5.2401 l 0.0799,-0.36 c 0.4235,-0.0133 0.7736,-0.1465 1.0568,-0.3999 0.2801,-0.2569 0.54,-0.8034 0.7866,-1.6433 l 2.3533,-8.227 c 0.1769,-0.6131 0.2634,-1.0465 0.2634,-1.3 0,-0.1131 -0.0267,-0.2032 -0.0766,-0.2797 -0.0533,-0.0734 -0.1366,-0.1301 -0.2568,-0.1602 -0.1165,-0.0332 -0.3932,-0.0499 -0.8266,-0.0499 z m 1.72,7.4968 c 0.1968,0.32 0.3734,0.5332 0.5301,0.6432 0.1534,0.1068 0.3368,0.1601 0.5465,0.1601 0.207,0 0.4102,-0.0567 0.61,-0.1701 0.1968,-0.1133 0.4434,-0.3432 0.7368,-0.6865 0.2934,-0.3467 0.5734,-0.7866 0.8433,-1.3266 0.2701,-0.54 0.4867,-1.1534 0.65,-1.8403 0.1635,-0.6831 0.2435,-1.3399 0.2435,-1.9632 0,-0.5001 -0.0902,-0.8635 -0.2668,-1.0934 -0.18,-0.2267 -0.3966,-0.3398 -0.65,-0.3398 -0.2267,0 -0.4433,0.0598 -0.6434,0.1766 -0.2931,0.1666 -0.6367,0.4833 -1.0333,0.9467 z m 17.6585,-7.8968 -1.92,6.4899 -0.2001,0.7901 c -0.0201,0.0966 -0.03,0.17 -0.03,0.2168 0,0.0766 0.0266,0.1432 0.0833,0.2033 0.0533,0.0567 0.11,0.0867 0.1667,0.0867 0.1335,0 0.32,-0.1035 0.5567,-0.3101 0.0967,-0.0868 0.3266,-0.3833 0.6934,-0.8966 l 0.3398,0.1766 c -0.4631,0.8433 -0.9532,1.4567 -1.4765,1.8434 -0.5202,0.3866 -1.0834,0.5799 -1.6866,0.5799 -0.3702,0 -0.65,-0.0932 -0.8467,-0.2832 -0.1934,-0.1902 -0.29,-0.43 -0.29,-0.72 0,-0.2534 0.1066,-0.7234 0.32,-1.4133 l 0.2367,-0.7934 c -0.7569,1.2965 -1.4834,2.2133 -2.1801,2.7467 -0.4034,0.3099 -0.8334,0.4632 -1.2901,0.4632 -0.6001,0 -1.0332,-0.2466 -1.3033,-0.7367 -0.2668,-0.4898 -0.4,-1.0465 -0.4,-1.6631 0,-0.9167 0.28,-1.9701 0.8433,-3.1569 0.5635,-1.19 1.3034,-2.1433 2.2201,-2.8667 0.7534,-0.5967 1.4601,-0.8966 2.1234,-0.8966 0.3665,0 0.6599,0.1066 0.8833,0.3166 0.2234,0.2135 0.3866,0.5967 0.4898,1.1568 l 0.36,-1.1933 z m -3.1335,1.8632 c 0,-0.5264 -0.0833,-0.9065 -0.2466,-1.1398 -0.1199,-0.1632 -0.28,-0.2435 -0.4833,-0.2435 -0.2066,0 -0.4167,0.0967 -0.6332,0.2934 -0.4403,0.4 -0.9168,1.2166 -1.4267,2.4469 -0.5103,1.2299 -0.7634,2.2898 -0.7634,3.1864 0,0.3436 0.0567,0.5936 0.1732,0.7435 0.1134,0.1534 0.2401,0.2299 0.3767,0.2299 0.2968,0 0.5933,-0.1701 0.8966,-0.5065 0.43,-0.4802 0.8201,-1.0667 1.1668,-1.7601 0.6267,-1.22 0.9399,-2.3034 0.9399,-3.2502 z m 5.3584,0.4768 0.3999,-2.48 h 0.4201 c 0.1432,0.2166 0.3099,0.3234 0.4967,0.3234 0.1233,0 0.3033,-0.0201 0.54,-0.0666 0.8367,-0.1701 1.4332,-0.2568 1.7832,-0.2568 0.7569,0 1.37,0.1667 1.8369,0.4966 0.47,0.3334 0.7033,0.7801 0.7033,1.3402 0,0.5066 -0.2367,0.9766 -0.7101,1.41 -0.4734,0.4331 -1.1333,0.7432 -1.98,0.9332 1.26,0.2735 1.8901,0.9601 1.8901,2.0667 0,0.8467 -0.3801,1.5701 -1.1435,2.1699 -0.7633,0.6035 -1.6801,0.9034 -2.7567,0.9034 -0.7599,0 -1.3898,-0.2032 -1.8898,-0.6131 -0.4969,-0.4102 -0.8535,-0.9102 -1.0701,-1.5001 l 0.2999,-0.1468 c 0.5134,0.9201 1.15,1.3802 1.9035,1.3802 0.6432,0 1.1667,-0.2934 1.5698,-0.8802 0.4034,-0.5865 0.6069,-1.1832 0.6069,-1.7898 0,-0.5034 -0.1202,-0.86 -0.3569,-1.0667 -0.2398,-0.21 -0.61,-0.3169 -1.12,-0.3234 l 0.1367,-0.4601 c 0.6834,0 1.2401,-0.2165 1.6633,-0.6534 0.4235,-0.4365 0.6367,-0.9498 0.6367,-1.5431 0,-0.3901 -0.11,-0.6736 -0.3333,-0.8433 -0.2231,-0.1735 -0.47,-0.2603 -0.7433,-0.2603 -0.3532,0 -0.7534,0.1301 -1.1968,0.3935 -0.4433,0.2633 -0.8331,0.7534 -1.1664,1.4666 z m 10.6018,2.9002 c -0.0567,0.4232 -0.0867,0.7732 -0.0867,1.0465 0,0.4901 0.1434,0.8802 0.4266,1.1733 0.2835,0.2934 0.6633,0.4402 1.1401,0.4402 0.4567,0 0.9133,-0.0967 1.3734,-0.2934 0.4598,-0.1967 0.9932,-0.5366 1.5999,-1.0267 l 0.3001,0.2466 c -0.75,0.8501 -1.4768,1.4533 -2.1869,1.8133 -0.7098,0.36 -1.4933,0.54 -2.3533,0.54 -1.0865,0 -1.84,-0.2599 -2.2567,-0.7798 -0.4167,-0.5201 -0.6233,-1.1234 -0.6233,-1.8068 0,-1.0667 0.3101,-2.1333 0.9334,-3.2 0.62,-1.0667 1.4667,-1.9233 2.5399,-2.5668 1.0701,-0.6432 2.1467,-0.9666 3.2267,-0.9666 0.5468,0 0.9601,0.1301 1.2401,0.39 0.2801,0.26 0.4201,0.5868 0.4201,0.9834 0,0.4768 -0.1366,0.9365 -0.4102,1.3833 -0.3798,0.6134 -0.8566,1.1032 -1.4332,1.4766 -0.5734,0.3767 -1.2166,0.6601 -1.9267,0.8535 -0.4802,0.1298 -1.1199,0.2267 -1.9233,0.2934 z M 80.39,59.9876 c 0.5768,-0.0833 1.0233,-0.2001 1.3433,-0.3467 0.3167,-0.1434 0.6302,-0.3767 0.9335,-0.7001 0.3067,-0.32 0.57,-0.7231 0.7934,-1.2132 0.2231,-0.4902 0.3331,-0.9499 0.3331,-1.3768 0,-0.18 -0.0499,-0.3232 -0.1531,-0.4266 -0.1001,-0.1032 -0.2302,-0.1568 -0.3869,-0.1568 -0.3167,0 -0.6699,0.2169 -1.0633,0.6503 -0.72,0.7931 -1.3198,1.9831 -1.8,3.5699 z m 15.0182,3.9634 c -0.3999,0.3167 -0.8132,0.4765 -1.2331,0.4765 -0.8268,0 -1.2401,-0.3999 -1.2401,-1.1999 0,-0.29 0.0768,-0.7067 0.2333,-1.2467 l 0.4634,-1.6466 c -1.04,1.5599 -1.8901,2.6334 -2.55,3.2168 -0.6633,0.583 -1.2634,0.8764 -1.8,0.8764 -0.3801,0 -0.6934,-0.1298 -0.94,-0.3931 -0.2466,-0.2634 -0.3702,-0.5834 -0.3702,-0.9601 0,-0.3266 0.0834,-0.7668 0.2469,-1.3266 l 1.1132,-3.8968 c 0.1834,-0.6367 0.2767,-1.0599 0.2767,-1.2666 0,-0.3435 -0.3334,-0.5167 -1.0001,-0.5167 l 0.0802,-0.3801 3.3599,-0.58 h 0.5899 l -1.91,6.6433 c -0.0864,0.3002 -0.1298,0.5068 -0.1298,0.6202 0,0.1431 0.0899,0.2166 0.2667,0.2166 0.2832,0 0.7232,-0.3433 1.3198,-1.0302 0.5967,-0.6865 1.26,-1.7197 1.9902,-3.0931 l 0.8567,-2.9968 2.4667,-0.0799 -1.9103,6.7966 c -0.0765,0.2801 -0.1131,0.4669 -0.1131,0.5666 0,0.1633 0.0732,0.2435 0.2234,0.2435 0.2398,0 0.6298,-0.4167 1.1766,-1.2466 l 0.3399,0.2332 c -0.1134,0.1766 -0.32,0.4533 -0.6233,0.83 -0.5667,0.7067 -0.8501,1.2201 -0.8501,1.5401 0,0.1834 0.14,0.4533 0.4167,0.8099 0.2168,0.2602 0.3234,0.5 0.3234,0.7134 0,0.6333 -0.4467,1.3034 -1.3399,2.0132 L 94.9416,67.701 c 0.1301,-0.3767 0.1934,-0.6568 0.1934,-0.8399 0,-0.1568 -0.0465,-0.4034 -0.1432,-0.7436 -0.0734,-0.2732 -0.11,-0.4898 -0.11,-0.6533 0,-0.4366 0.1766,-0.94 0.5264,-1.5132 z m 7.5484,0.3167 2.52,-4.5068 -0.5598,-4.4932 h 0.5799 l 2.42,4.4932 -4.3399,4.5068 z m -4.1,0 2.5001,-4.5068 -0.64,-4.4932 h 0.6199 l 2.4202,4.4932 -4.3001,4.5068 z" />
</svg>
