<?xml version="1.0" encoding="UTF-8" standalone="no"?>
<svg
   xmlns:dc="http://purl.org/dc/elements/1.1/"
   xmlns:cc="http://creativecommons.org/ns#"
   xmlns:rdf="http://www.w3.org/1999/02/22-rdf-syntax-ns#"
   xmlns:svg="http://www.w3.org/2000/svg"
   xmlns="http://www.w3.org/2000/svg"
   viewBox="0 0 127.5591 127.5591"
   id="svg21"
   height="127.5591"
   width="127.5591"
   version="1.1">
  <metadata
     id="metadata27">
    <rdf:RDF>
      <cc:Work
         rdf:about="">
        <dc:format>image/svg+xml</dc:format>
        <dc:type
           rdf:resource="http://purl.org/dc/dcmitype/StillImage" />
      </cc:Work>
    </rdf:RDF>
  </metadata>
  <defs
     id="defs25" />
  <path
     id="path2"
     style="fill:none;stroke:#1b1918;stroke-width:1.41729999;stroke-linecap:butt;stroke-linejoin:miter;stroke-dasharray:none"
     d="m 62.0028,7.1416 c 30.5279,0 55.2756,24.7477 55.2756,55.2755 0,30.5278 -24.7477,55.2755 -55.2756,55.2755 -30.5278,0 -55.2755,-24.7477 -55.2755,-55.2755 0,-30.5278 24.7477,-55.2755 55.2755,-55.2755 z" />
  <path
     id="path4"
     style="fill:none;stroke:#1b1918;stroke-width:0.85039997;stroke-linecap:butt;stroke-linejoin:miter;stroke-dasharray:none"
     d="m 62.0028,9.4983 c 29.2263,0 52.9188,23.6926 52.9188,52.9188 0,29.2262 -23.6925,52.9188 -52.9188,52.9188 C 32.7766,115.3359 9.084,91.6433 9.084,62.4171 9.084,33.1909 32.7766,9.4983 62.0028,9.4983 Z" />
  <path
     id="path6"
     style="fill:none;stroke:#1b1918;stroke-width:2.26769996;stroke-linecap:butt;stroke-linejoin:miter;stroke-dasharray:none"
     d="m 27.8895,48.0172 c 5.6177,-13.2914 18.7761,-22.6188 34.1133,-22.6188 15.3371,0 28.4958,9.3274 34.1132,22.6188 m 0,28.8 c -5.6177,13.2914 -18.7761,22.6185 -34.1132,22.6185 -15.3369,0 -28.4956,-9.3271 -34.1133,-22.6185" />
  <path
     id="path8"
     style="fill:#1b1918;fill-rule:evenodd"
     d="m 17.8551,41.1267 c -0.324,-0.1681 -0.5708,-0.3585 -0.7409,-0.5697 -0.1248,-0.1559 -0.2191,-0.3305 -0.2826,-0.5224 -0.0641,-0.1917 -0.0885,-0.3779 -0.074,-0.5593 0.0193,-0.2415 0.0955,-0.4921 0.2299,-0.7509 0.2435,-0.4689 0.5836,-0.7676 1.0207,-0.8986 0.4371,-0.1298 0.9148,-0.0604 1.4332,0.2089 0.5139,0.2667 0.8436,0.6154 0.989,1.0449 0.1457,0.4297 0.097,0.8784 -0.1454,1.345 -0.2455,0.4728 -0.5848,0.7744 -1.0188,0.9034 -0.4334,0.1287 -0.9039,0.0621 -1.4111,-0.2013 z m 0.3218,-0.6726 c 0.3603,0.1871 0.6766,0.2452 0.9493,0.1757 0.2721,-0.0703 0.4751,-0.2333 0.6078,-0.4892 0.1332,-0.2566 0.1499,-0.5148 0.0513,-0.775 -0.0995,-0.2602 -0.3337,-0.4862 -0.7027,-0.6775 -0.3646,-0.1894 -0.6784,-0.2509 -0.9406,-0.1834 -0.2628,0.0666 -0.4626,0.2324 -0.6004,0.4978 -0.1374,0.265 -0.1573,0.5258 -0.0601,0.7818 0.0978,0.2565 0.3291,0.4799 0.6954,0.6698 z m 0.8181,-5.0823 1.4326,-2.2586 0.5111,0.3243 -1.0443,1.6466 0.7007,0.4445 0.5173,-0.8155 c 0.1426,-0.2245 0.2889,-0.3943 0.4374,-0.5074 0.1488,-0.1137 0.3305,-0.1761 0.5457,-0.1866 0.2143,-0.0113 0.4215,0.0463 0.6208,0.1724 0.2041,0.1295 0.3458,0.2937 0.4238,0.4924 0.0782,0.1975 0.1017,0.381 0.0691,0.551 -0.0323,0.1687 -0.1278,0.3787 -0.2863,0.6285 l -0.9048,1.4264 z m 2.9007,0.9817 0.3761,-0.593 c 0.1202,-0.1894 0.1956,-0.3291 0.2262,-0.4173 0.0303,-0.0884 0.0318,-0.1823 0.0026,-0.2806 -0.0289,-0.0981 -0.091,-0.1775 -0.1863,-0.2376 -0.1386,-0.0878 -0.2707,-0.1017 -0.3971,-0.0428 -0.1261,0.0601 -0.2653,0.2098 -0.4181,0.4505 l -0.3932,0.6199 z m 0.1726,-5.4088 0.4739,-0.5488 2.2519,1.9446 0.6729,-0.7796 -2.2518,-1.9445 0.4739,-0.5488 2.2519,1.9446 0.6928,-0.802 -2.2519,-1.9448 0.474,-0.5488 2.2518,1.9448 0.2092,-0.2423 1.0483,0.9054 -0.3955,0.4578 -0.5904,-0.51 -2.6014,3.0124 z m 6.9863,-2.3627 -2.4812,-2.5809 1.9103,-1.8363 0.4195,0.4362 -1.3879,1.334 0.5508,0.5732 1.2906,-1.2407 0.4193,0.4365 -1.2904,1.2404 0.6721,0.6993 1.4383,-1.3824 0.4193,0.436 z m 4.4393,-5.502 0.6837,-0.2625 c 0.1585,0.3764 0.1979,0.7171 0.1193,1.0222 -0.0788,0.3044 -0.269,0.5754 -0.5714,0.8124 -0.3742,0.2936 -0.7821,0.4067 -1.224,0.3401 -0.4414,-0.0672 -0.836,-0.322 -1.1841,-0.7659 -0.3676,-0.4689 -0.532,-0.9286 -0.4937,-1.3782 0.0382,-0.4493 0.2554,-0.8291 0.6502,-1.1387 0.3447,-0.2704 0.7053,-0.3875 1.08,-0.3523 0.2231,0.0201 0.4547,0.1182 0.6962,0.2939 l -0.4575,0.5749 c -0.1477,-0.1193 -0.3076,-0.1803 -0.4796,-0.182 -0.1724,-0.0014 -0.3339,0.0573 -0.4847,0.1755 -0.2095,0.1641 -0.3206,0.3722 -0.3328,0.6242 -0.0134,0.2517 0.1119,0.5453 0.3753,0.881 0.2786,0.3554 0.542,0.559 0.788,0.6094 0.2475,0.0508 0.4731,-0.0045 0.6783,-0.1655 0.1514,-0.1188 0.2447,-0.2688 0.2778,-0.4505 0.0335,-0.1817 -0.0062,-0.3945 -0.121,-0.638 z m 3.5541,-0.7594 -1.6144,-2.4991 -0.8903,0.5755 -0.3286,-0.5086 2.3857,-1.5409 0.3285,0.5086 -0.8864,0.5723 1.6141,2.499 z m 1.394,-4.9173 1.2674,-0.6653 c 0.2517,-0.1321 0.4439,-0.2194 0.5777,-0.2636 0.1352,-0.0437 0.2682,-0.0575 0.4,-0.0434 0.1324,0.0153 0.2596,0.0607 0.3824,0.1364 0.1224,0.0759 0.2202,0.1828 0.2919,0.3194 0.0774,0.1477 0.1089,0.3048 0.0939,0.47 -0.0145,0.1658 -0.0746,0.3149 -0.1783,0.4487 0.2222,-0.0445 0.4201,-0.026 0.5955,0.0553 0.1744,0.0817 0.3099,0.2138 0.4062,0.3974 0.076,0.1446 0.1163,0.3025 0.1208,0.4743 0.0045,0.1718 -0.0298,0.3288 -0.1032,0.4719 -0.0734,0.1418 -0.1902,0.2671 -0.3503,0.3759 -0.1007,0.0669 -0.3544,0.2095 -0.7606,0.4263 l -1.0797,0.5667 z m 0.9185,0.1902 0.3832,0.7305 0.4193,-0.22 c 0.2486,-0.1306 0.4016,-0.2157 0.458,-0.2545 0.1027,-0.07 0.1693,-0.1531 0.199,-0.2486 0.0301,-0.0958 0.0182,-0.1939 -0.0354,-0.2957 -0.0513,-0.0983 -0.1202,-0.1627 -0.2064,-0.1956 -0.0859,-0.0331 -0.1856,-0.0277 -0.2985,0.0156 -0.0674,0.0258 -0.2514,0.1179 -0.5519,0.2756 z m 0.6599,1.2575 0.4462,0.8498 0.5932,-0.3113 c 0.2302,-0.1207 0.3734,-0.2046 0.4289,-0.2497 0.0859,-0.0675 0.1412,-0.1505 0.1659,-0.2489 0.024,-0.0992 0.0073,-0.2046 -0.0516,-0.3172 -0.0505,-0.0961 -0.1157,-0.1644 -0.197,-0.2066 -0.0806,-0.0422 -0.1732,-0.0559 -0.2761,-0.0403 -0.1029,0.0156 -0.3011,0.0995 -0.5925,0.2526 z m 3.6734,-2.0146 c -0.1131,-0.3473 -0.1556,-0.656 -0.1287,-0.9258 0.0204,-0.1987 0.0757,-0.3892 0.1647,-0.5706 0.0887,-0.1814 0.2021,-0.3314 0.3396,-0.4507 0.1831,-0.1588 0.4133,-0.2838 0.6905,-0.3739 0.5023,-0.1639 0.9544,-0.1384 1.3575,0.0748 0.4028,0.2143 0.6948,0.5984 0.8756,1.154 0.1795,0.5508 0.1698,1.0304 -0.0275,1.4386 -0.1975,0.4084 -0.547,0.6942 -1.0471,0.8569 -0.5062,0.165 -0.9598,0.1417 -1.3595,-0.0706 -0.3994,-0.2117 -0.6882,-0.5893 -0.8651,-1.1327 z m 0.701,-0.254 c 0.1259,0.3861 0.3104,0.6491 0.5536,0.7909 0.2432,0.1408 0.5023,0.1666 0.7764,0.0773 0.275,-0.0892 0.468,-0.2616 0.5803,-0.5164 0.1114,-0.2554 0.1026,-0.5806 -0.0261,-0.976 -0.1273,-0.3903 -0.3076,-0.6542 -0.542,-0.79 -0.2339,-0.1369 -0.4927,-0.1588 -0.777,-0.0661 -0.2837,0.0925 -0.481,0.2645 -0.5913,0.5151 -0.11,0.2514 -0.1017,0.5732 0.0261,0.9652 z m 9.6347,-2.0551 0.7265,0.0932 c -0.0391,0.4065 -0.1661,0.7254 -0.3798,0.9567 -0.2141,0.2305 -0.51,0.3787 -0.8887,0.4439 -0.4686,0.0808 -0.8816,-0.0133 -1.2387,-0.2814 -0.3566,-0.2685 -0.5831,-0.6801 -0.6789,-1.2362 -0.1012,-0.5871 -0.0278,-1.0698 0.2194,-1.4474 0.2469,-0.3773 0.6179,-0.6086 1.1123,-0.6936 0.432,-0.0746 0.805,-0.0066 1.1182,0.2024 0.1868,0.1233 0.3442,0.3194 0.4734,0.589 l -0.6758,0.2888 C 53.744,13.2676 53.6323,13.138 53.4818,13.055 c -0.1513,-0.0831 -0.3211,-0.108 -0.5102,-0.0757 -0.2619,0.0453 -0.4587,0.1757 -0.5888,0.3917 -0.1312,0.2152 -0.1601,0.5332 -0.0878,0.9536 0.0765,0.445 0.2117,0.7492 0.4047,0.9105 0.1934,0.1618 0.4184,0.2202 0.6755,0.176 0.1897,-0.0326 0.3428,-0.1205 0.4584,-0.2647 0.1154,-0.144 0.1814,-0.3501 0.1959,-0.6191 z m 5.3779,-1.0559 c -0.0068,-0.3651 0.0425,-0.673 0.1468,-0.9233 0.0774,-0.1839 0.186,-0.3501 0.324,-0.4977 0.1378,-0.1477 0.29,-0.258 0.4561,-0.3323 0.2217,-0.0983 0.4779,-0.1508 0.7696,-0.1561 0.5284,-0.0103 0.953,0.1459 1.2767,0.4674 0.3229,0.3223 0.4901,0.775 0.5012,1.3589 0.0111,0.5791 -0.1381,1.0352 -0.4459,1.368 -0.3078,0.3334 -0.7254,0.5046 -1.2512,0.5148 -0.5326,0.0099 -0.9595,-0.1443 -1.2801,-0.464 -0.3201,-0.3192 -0.4862,-0.7645 -0.4972,-1.3357 z m 0.7446,-0.0386 c 0.0077,0.4057 0.1077,0.7115 0.2991,0.9179 0.1916,0.2055 0.432,0.3058 0.72,0.3004 0.2891,-0.0053 0.5238,-0.1139 0.7055,-0.3248 0.1812,-0.212 0.2676,-0.5255 0.2597,-0.9414 -0.0077,-0.4104 -0.1035,-0.7155 -0.288,-0.9136 -0.184,-0.1993 -0.4252,-0.2954 -0.724,-0.2897 -0.2985,0.0057 -0.5372,0.1128 -0.7157,0.3203 -0.1786,0.2084 -0.2645,0.5185 -0.2566,0.9309 z m 4.9062,-1.7399 2.4183,0.1834 -0.0459,0.6035 -1.6952,-0.1287 -0.2248,2.9665 -0.7231,-0.0547 z m 3.7812,3.9782 0.6074,-3.5283 1.1424,0.1964 c 0.4328,0.0746 0.7115,0.1406 0.8368,0.1984 0.1927,0.0882 0.3424,0.2322 0.4481,0.4332 0.1058,0.2007 0.1344,0.4419 0.0862,0.7225 -0.0374,0.2169 -0.108,0.3918 -0.2117,0.5261 -0.1043,0.1341 -0.2237,0.233 -0.3589,0.2965 -0.1352,0.063 -0.2679,0.0978 -0.3974,0.1032 -0.1758,0.0046 -0.4241,-0.0207 -0.7464,-0.076 l -0.4632,-0.0799 -0.229,1.3306 z m 1.2192,-2.8089 -0.1732,1.0049 0.3886,0.0669 c 0.28,0.0482 0.4697,0.0618 0.5706,0.0408 0.1009,-0.0207 0.1845,-0.0655 0.2517,-0.1358 0.0669,-0.0697 0.1097,-0.1564 0.1279,-0.2613 0.0221,-0.1287 0.0025,-0.2415 -0.0576,-0.3382 -0.0615,-0.0967 -0.1468,-0.1655 -0.2588,-0.2066 -0.0819,-0.0304 -0.2506,-0.0678 -0.5068,-0.1117 z m 5.987,4.4374 -0.7506,-0.216 -0.0714,-0.8686 -1.3799,-0.3974 -0.5114,0.7007 -0.7367,-0.212 2.3264,-3.0557 0.7358,0.2117 z m -0.8807,-1.7312 -0.1114,-1.411 -0.8311,1.1398 z m 2.4596,2.2445 1.2935,-3.3383 0.6757,0.2619 -0.5094,1.315 1.315,0.5096 0.5094,-1.315 0.6761,0.2617 -1.2935,3.3383 -0.676,-0.2616 0.5655,-1.4596 -1.315,-0.5093 -0.5655,1.4592 z m 6.1775,-1.3206 0.5993,0.3109 -1.0982,2.1152 2.3851,-1.4471 0.6392,0.3317 -1.6497,3.1776 -0.5993,-0.3109 1.0806,-2.0815 -2.3672,1.4133 -0.6392,-0.3316 z m 4.4887,2.4366 0.6123,0.3884 -0.4575,0.7214 c -0.1483,0.2338 -0.2381,0.394 -0.2687,0.4807 -0.0318,0.0879 -0.0224,0.1866 0.0269,0.2965 0.0487,0.11 0.1562,0.2177 0.3209,0.3221 0.1301,0.0827 0.2551,0.1423 0.3753,0.1788 0.119,0.036 0.2333,0.0502 0.3421,0.0423 l 0.8263,-1.3026 0.6123,0.3884 -1.9179,3.0231 -0.6123,-0.3883 0.7727,-1.2181 c -0.1584,-0.0238 -0.3067,-0.0595 -0.4442,-0.1074 -0.1375,-0.0476 -0.2639,-0.1077 -0.3792,-0.1811 -0.3014,-0.1911 -0.508,-0.4218 -0.6206,-0.6928 -0.1125,-0.2707 -0.0575,-0.5811 0.1647,-0.9318 z m 2.1005,5.7308 2.2303,-2.8003 2.0727,1.6506 -0.377,0.4734 -1.5058,-1.1991 -0.4952,0.6217 1.4003,1.1151 -0.377,0.4734 -1.4003,-1.1152 -0.6044,0.7589 1.5608,1.243 -0.377,0.4731 z m 3.5342,2.9566 2.4636,-2.5977 0.5258,0.4989 -0.9703,1.0233 1.0231,0.9703 0.9705,-1.023 0.5259,0.4986 -2.4636,2.5976 -0.5261,-0.4986 1.0771,-1.1355 -1.0233,-0.9706 -1.0769,1.1355 z m 3.4294,3.4752 2.7119,-2.3374 0.4731,0.549 -1.0681,0.9207 0.9207,1.0684 1.0681,-0.9207 0.4734,0.5491 -2.7122,2.3372 -0.4731,-0.5491 1.1854,-1.0216 -0.9207,-1.0684 -1.1854,1.0219 z m 4.4838,2.708 c 0.3067,-0.1982 0.5944,-0.3181 0.8623,-0.3612 0.197,-0.0312 0.3954,-0.0263 0.5936,0.0134 0.1981,0.0394 0.3722,0.1105 0.5227,0.2128 0.2001,0.1367 0.3798,0.3272 0.538,0.5721 0.2869,0.4439 0.3776,0.8872 0.2747,1.3317 -0.104,0.4439 -0.4008,0.8243 -0.8915,1.1415 -0.4864,0.3141 -0.9527,0.4277 -1.3978,0.3413 -0.4456,-0.0865 -0.811,-0.3512 -1.0961,-0.7931 -0.2892,-0.4474 -0.3827,-0.8918 -0.2798,-1.3326 0.1029,-0.4402 0.394,-0.8158 0.8739,-1.1259 z m 0.4249,0.6128 c -0.341,0.2203 -0.5482,0.466 -0.623,0.7376 -0.074,0.271 -0.0326,0.5281 0.1236,0.7704 0.157,0.243 0.3727,0.3853 0.6477,0.4286 0.2755,0.0426 0.5876,-0.049 0.9368,-0.2746 0.3453,-0.2231 0.5539,-0.4649 0.6254,-0.7263 0.0725,-0.261 0.0274,-0.5167 -0.135,-0.7679 -0.1618,-0.2508 -0.3787,-0.3974 -0.6491,-0.4399 -0.2713,-0.0422 -0.58,0.0482 -0.9264,0.2721 z m 4.0938,3.1884 0.3138,0.5976 -2.1104,1.1075 2.7842,0.1766 0.3348,0.6375 -3.17,1.6639 -0.3138,-0.5981 2.0764,-1.0896 -2.7505,-0.1942 -0.3345,-0.6375 z m 1.7762,1.1568 0.1556,0.2968 c -0.2043,0.0856 -0.3951,0.0973 -0.5697,0.0355 -0.1746,-0.0618 -0.3121,-0.188 -0.4125,-0.3793 -0.1006,-0.1916 -0.1267,-0.377 -0.0782,-0.5556 0.0482,-0.1789 0.1664,-0.3291 0.3529,-0.4487 l 0.1556,0.2968 c -0.0963,0.0637 -0.1553,0.1397 -0.1752,0.229 -0.0198,0.0896 0.002,0.1933 0.0635,0.3112 0.0618,0.1177 0.1347,0.1939 0.2197,0.2282 0.0848,0.0346 0.1809,0.0295 0.2883,-0.0139 z" />
  <path
     id="path10"
     style="fill:#1b1918;fill-rule:evenodd"
     d="m 26.3803,38.6731 c -0.2982,-0.2104 -0.517,-0.4326 -0.657,-0.6648 -0.1024,-0.1712 -0.1721,-0.3571 -0.2092,-0.5558 -0.0374,-0.1985 -0.0363,-0.3864 0.0022,-0.5641 0.0519,-0.237 0.1616,-0.4745 0.3297,-0.7129 0.3047,-0.4318 0.682,-0.6818 1.1327,-0.7521 0.451,-0.0694 0.9148,0.0641 1.3921,0.4009 0.4731,0.3339 0.7523,0.7242 0.8382,1.1692 0.0862,0.4456 -0.0229,0.8833 -0.3259,1.3131 -0.3073,0.4351 -0.6846,0.6879 -1.1319,0.7568 -0.4468,0.0692 -0.904,-0.0607 -1.3709,-0.3903 z m 0.4099,-0.6228 c 0.3317,0.2341 0.637,0.3345 0.9168,0.3027 0.2792,-0.0328 0.5023,-0.1669 0.6684,-0.4025 0.1669,-0.2364 0.2182,-0.4895 0.1559,-0.7611 -0.0635,-0.2713 -0.2651,-0.5267 -0.6047,-0.7665 -0.3356,-0.2367 -0.638,-0.3401 -0.907,-0.3087 -0.2693,0.0304 -0.4896,0.1676 -0.6622,0.4119 -0.1721,0.2438 -0.2271,0.4995 -0.1656,0.7665 0.0621,0.2673 0.2614,0.5199 0.5984,0.7577 z m 5.0536,-3.4189 -2.1662,-2.0392 -0.7265,0.7719 -0.4408,-0.4147 1.9468,-2.0679 0.4405,0.415 -0.7231,0.7682 2.166,2.0392 z m 0.4043,-5.4652 1.0876,-0.9306 c 0.216,-0.1845 0.3841,-0.3126 0.5049,-0.3852 0.1219,-0.0729 0.2483,-0.1159 0.3801,-0.1313 0.1327,-0.0147 0.2667,0.0012 0.4031,0.048 0.1363,0.0467 0.2554,0.1292 0.3557,0.2463 0.1083,0.1267 0.1741,0.273 0.1959,0.4374 0.023,0.1647 -0.0023,0.3237 -0.074,0.477 0.2069,-0.0927 0.404,-0.1187 0.593,-0.0785 0.1882,0.0406 0.3495,0.1395 0.4845,0.2971 0.106,0.1242 0.1805,0.269 0.2231,0.4354 0.0428,0.1664 0.0442,0.3274 0.0045,0.483 -0.04,0.1548 -0.1262,0.303 -0.258,0.4445 -0.0833,0.0879 -0.299,0.2832 -0.6468,0.5851 l -0.9264,0.7925 z m 0.9377,-0.0187 0.5363,0.6268 0.3597,-0.3076 c 0.2134,-0.1828 0.3436,-0.2996 0.39,-0.3504 0.0845,-0.0909 0.131,-0.1865 0.1387,-0.2865 0.0079,-0.0998 -0.0256,-0.1928 -0.1004,-0.2804 -0.072,-0.0842 -0.1533,-0.1318 -0.2446,-0.1445 -0.091,-0.0134 -0.1871,0.0141 -0.2875,0.0813 -0.06,0.0403 -0.2191,0.1709 -0.477,0.3915 z m 0.9229,1.0789 0.6242,0.7296 0.5091,-0.4357 c 0.1976,-0.1689 0.3186,-0.2826 0.3626,-0.3387 0.0688,-0.085 0.1043,-0.178 0.1063,-0.2795 0.0014,-0.102 -0.038,-0.2012 -0.1208,-0.2979 -0.0706,-0.0825 -0.1491,-0.1347 -0.2381,-0.1573 -0.0879,-0.0236 -0.1811,-0.0162 -0.2781,0.0218 -0.0969,0.038 -0.2713,0.1641 -0.5213,0.3779 z m 4.5876,-1.5639 -1.9565,-2.9982 2.2193,-1.4482 0.3308,0.5071 -1.6124,1.0517 0.4346,0.6658 1.499,-0.9782 0.3308,0.5068 -1.4993,0.9783 0.5301,0.8124 1.6707,-1.0902 0.3306,0.5065 z m 4.9538,-2.9404 -1.4198,-2.6144 -0.9315,0.506 -0.2888,-0.5317 2.4956,-1.3553 0.2888,0.5318 -0.9272,0.5034 1.4199,2.6144 z m 5.302,-3.6005 0.7324,-6e-4 c 0.0134,0.4082 -0.072,0.7407 -0.2542,0.9972 -0.1829,0.2563 -0.4575,0.4411 -0.8246,0.5542 -0.4544,0.14 -0.8759,0.0995 -1.2648,-0.1205 -0.3878,-0.2208 -0.6653,-0.6001 -0.8315,-1.1392 -0.1754,-0.5695 -0.1644,-1.0573 0.0324,-1.4635 0.1964,-0.406 0.5351,-0.6829 1.0145,-0.8306 0.4189,-0.129 0.7974,-0.1094 1.135,0.0578 0.201,0.0984 0.3821,0.2727 0.5448,0.5236 l -0.6333,0.373 c -0.0952,-0.1644 -0.2225,-0.2786 -0.3826,-0.3415 -0.1605,-0.0632 -0.3323,-0.0664 -0.5154,-0.01 -0.2542,0.0786 -0.4325,0.2331 -0.534,0.4641 -0.1026,0.2301 -0.0907,0.5493 0.0348,0.957 0.1333,0.4314 0.3062,0.7157 0.5179,0.8509 0.2129,0.1358 0.4434,0.165 0.6925,0.0885 0.184,-0.0567 0.3246,-0.1636 0.421,-0.3215 0.0961,-0.1576 0.1352,-0.3705 0.1151,-0.6389 z m 3.8823,0.2942 -0.669,-2.899 -1.0329,0.2387 -0.1361,-0.5899 2.7672,-0.6386 0.1361,0.5896 -1.0282,0.2372 0.6693,2.899 z m 3.5359,-4.3095 1.4273,-0.108 c 0.2834,-0.0215 0.4946,-0.0258 0.6349,-0.013 0.1415,0.0136 0.269,0.0533 0.3844,0.1187 0.1157,0.0666 0.2143,0.1588 0.2968,0.277 0.0825,0.1182 0.1298,0.2551 0.1414,0.4087 0.0125,0.1664 -0.0206,0.3232 -0.1,0.4689 -0.0791,0.1463 -0.1933,0.2596 -0.3419,0.341 0.2217,0.0476 0.396,0.1429 0.525,0.2869 0.1276,0.1442 0.1996,0.3191 0.2152,0.5261 0.0124,0.163 -0.0131,0.3237 -0.0771,0.4833 -0.0638,0.1593 -0.1577,0.29 -0.2818,0.3923 -0.1239,0.1012 -0.2806,0.1698 -0.4708,0.2061 -0.1191,0.0215 -0.4082,0.0516 -0.8674,0.0898 l -1.2158,0.0922 z m 0.7677,0.5389 0.0623,0.8223 0.472,-0.0357 c 0.28,-0.021 0.4541,-0.0386 0.5216,-0.0519 0.1218,-0.0235 0.216,-0.0731 0.2812,-0.1494 0.0654,-0.0759 0.0935,-0.1706 0.0847,-0.2854 -0.0082,-0.1106 -0.0459,-0.197 -0.112,-0.2614 -0.0654,-0.0643 -0.1595,-0.0989 -0.28,-0.104 -0.0723,-0.0031 -0.2778,0.0085 -0.616,0.034 z m 0.1071,1.4156 0.0726,0.9575 0.6681,-0.0507 c 0.2594,-0.0196 0.4241,-0.0397 0.4927,-0.0593 0.1057,-0.0277 0.1893,-0.0819 0.2511,-0.1624 0.0612,-0.0816 0.0879,-0.1848 0.0782,-0.3118 -0.0082,-0.1083 -0.0408,-0.1967 -0.0989,-0.2676 -0.057,-0.0708 -0.1366,-0.1199 -0.2372,-0.1468 -0.101,-0.0264 -0.3158,-0.0278 -0.6441,-0.0028 z m 4.6216,1.345 0.0391,-3.5798 2.6496,0.0289 -0.0065,0.6052 -1.9251,-0.021 -0.0085,0.7945 1.7898,0.0199 -0.0065,0.6049 -1.7901,-0.0196 -0.0105,0.9701 1.9951,0.0218 -0.0068,0.6049 z m 4.9476,0.2685 0.5029,-3.5448 0.7177,0.1018 -0.1981,1.3964 1.3963,0.1981 0.1981,-1.3964 0.7175,0.1018 -0.5029,3.5447 -0.7174,-0.1017 0.2197,-1.5494 -1.3964,-0.1982 -0.2197,1.5494 z m 5.1571,0.8968 1.0085,-3.4353 0.6954,0.2044 -0.3972,1.353 1.353,0.3974 0.3974,-1.3532 0.6954,0.2043 -1.0086,3.4351 -0.6953,-0.2041 0.4408,-1.5018 -1.353,-0.3972 -0.4411,1.5015 z m 5.608,-0.1057 c 0.1534,-0.3314 0.3325,-0.5865 0.5358,-0.7662 0.1499,-0.1315 0.3203,-0.2336 0.5091,-0.3058 0.1885,-0.0726 0.3736,-0.1055 0.5553,-0.0993 0.2424,0.0083 0.4958,0.0732 0.7605,0.1959 0.4796,0.222 0.7934,0.548 0.944,0.9788 0.1493,0.4309 0.1017,0.9111 -0.1438,1.4412 -0.2432,0.5255 -0.5768,0.8708 -0.9989,1.0354 -0.4229,0.165 -0.8733,0.1364 -1.3504,-0.0844 -0.4833,-0.2237 -0.7999,-0.5494 -0.9485,-0.9768 -0.1485,-0.4272 -0.1032,-0.9003 0.1369,-1.4188 z m 0.6866,0.2909 c -0.1704,0.3682 -0.2143,0.6868 -0.1324,0.9564 0.0822,0.2684 0.2546,0.4637 0.5162,0.585 0.2625,0.1214 0.521,0.1265 0.7767,0.0162 0.2554,-0.1114 0.4703,-0.3555 0.6449,-0.733 0.1726,-0.3725 0.2199,-0.6889 0.1403,-0.9477 -0.078,-0.2593 -0.2529,-0.4515 -0.5241,-0.5771 -0.271,-0.1253 -0.5324,-0.1335 -0.7838,-0.025 -0.2517,0.1095 -0.4646,0.3507 -0.6378,0.7252 z m 6.2901,3.8046 0.5023,0.5329 c -0.288,0.2897 -0.5885,0.4553 -0.9003,0.4986 -0.3118,0.0426 -0.6347,-0.0306 -0.9686,-0.2205 -0.4136,-0.235 -0.673,-0.5695 -0.7793,-1.0035 -0.1051,-0.4339 -0.019,-0.8957 0.2597,-1.3861 0.2942,-0.5182 0.6573,-0.8447 1.0876,-0.9799 0.4303,-0.135 0.864,-0.0783 1.3003,0.1695 0.381,0.2165 0.6262,0.5057 0.7359,0.866 0.066,0.214 0.0632,0.4651 -0.008,0.7554 l -0.7055,-0.2052 c 0.0544,-0.182 0.0502,-0.353 -0.0133,-0.5128 -0.0644,-0.1602 -0.1798,-0.2875 -0.3464,-0.3819 -0.2313,-0.1315 -0.466,-0.1553 -0.7039,-0.0711 -0.2378,0.0833 -0.462,0.3107 -0.6726,0.6817 -0.2231,0.3926 -0.3116,0.7132 -0.2648,0.9604 0.0468,0.2478 0.1837,0.4357 0.4102,0.5647 0.1675,0.0949 0.3416,0.1241 0.5224,0.0861 0.1809,-0.0382 0.3626,-0.1556 0.5443,-0.3543 z m 2.3167,3.2295 1.8749,-2.3099 -0.8229,-0.6682 0.3812,-0.4697 2.2051,1.7898 -0.3816,0.47 -0.8189,-0.665 -1.8751,2.3097 z m 5.4193,-0.0921 0.5278,0.4969 -0.9805,1.0412 0.7033,0.6622 c 0.3313,0.312 0.4977,0.6154 0.5003,0.9104 0.0023,0.2954 -0.0989,0.5514 -0.3036,0.7685 -0.1672,0.1777 -0.3543,0.2866 -0.5621,0.326 -0.2072,0.0402 -0.3889,0.0283 -0.5468,-0.0366 -0.1571,-0.0643 -0.345,-0.199 -0.5627,-0.4039 l -1.2299,-1.158 z m -1.5117,2.6631 0.5113,0.4817 c 0.1659,0.1559 0.2889,0.2565 0.3671,0.3007 0.0786,0.0442 0.1704,0.0621 0.2739,0.053 0.1037,-0.0091 0.1936,-0.0547 0.2715,-0.1372 0.1117,-0.119 0.1503,-0.2463 0.1168,-0.3821 -0.0343,-0.1363 -0.1542,-0.3016 -0.3617,-0.4972 l -0.5346,-0.5031 z m 5.4941,1.4769 0.4464,0.5709 -1.178,0.921 0.3571,0.4569 c 0.3751,-0.2392 0.7626,-0.3452 1.1628,-0.3175 0.4011,0.027 0.7591,0.243 1.0749,0.6469 0.3033,0.3881 0.4184,0.7951 0.3458,1.222 -0.0723,0.4255 -0.3421,0.8218 -0.8104,1.188 -0.3059,0.239 -0.6063,0.3932 -0.9011,0.4626 -0.2948,0.0692 -0.5729,0.059 -0.8343,-0.0309 -0.2616,-0.0895 -0.4986,-0.2701 -0.7112,-0.5419 -0.2165,-0.277 -0.3452,-0.531 -0.3858,-0.7626 -0.0402,-0.2318 -0.0105,-0.4847 0.0885,-0.7597 0.0989,-0.2741 0.2636,-0.5193 0.494,-0.7344 l -0.3571,-0.457 -1.1659,0.9114 -0.4465,-0.5709 z m -0.1622,2.7031 c -0.3146,0.2458 -0.5088,0.4969 -0.5816,0.754 -0.0737,0.2577 -0.023,0.4984 0.1528,0.7234 0.1808,0.2311 0.4008,0.3382 0.6607,0.3212 0.2597,-0.0164 0.5584,-0.1568 0.8972,-0.4215 0.3243,-0.2537 0.5094,-0.5063 0.5559,-0.7574 0.0459,-0.2509 -0.0119,-0.4805 -0.1752,-0.6891 -0.1585,-0.203 -0.364,-0.309 -0.6171,-0.3186 -0.2529,-0.0085 -0.5505,0.1207 -0.8927,0.388 z" />
  <g
     id="Layer1000">
    <path
       id="path12"
       style="fill:#1b1918;fill-rule:evenodd"
       d="m 15.8984,78.2991 c 0.3393,-0.1349 0.6449,-0.1967 0.9159,-0.1868 0.1995,0.0077 0.3931,0.0508 0.5799,0.1282 0.1866,0.0771 0.3436,0.1808 0.4712,0.3104 0.17,0.1726 0.3092,0.3943 0.4169,0.6653 0.1951,0.4912 0.1985,0.9436 0.0111,1.3597 -0.1882,0.4156 -0.5533,0.7311 -1.0962,0.9468 -0.5383,0.2137 -1.0176,0.2347 -1.4374,0.0635 -0.4204,-0.1712 -0.7274,-0.502 -0.9216,-0.9904 -0.1967,-0.4952 -0.2024,-0.9493 -0.0156,-1.3615 0.1863,-0.4122 0.5449,-0.7243 1.0758,-0.9352 z m 0.2979,0.6838 c -0.3773,0.1496 -0.6284,0.3506 -0.7543,0.6023 -0.1253,0.2517 -0.1346,0.512 -0.0283,0.7798 0.1068,0.2688 0.2908,0.4505 0.5524,0.5463 0.262,0.0952 0.5857,0.0657 0.9723,-0.0876 0.3816,-0.1517 0.6336,-0.3484 0.754,-0.591 0.1219,-0.2421 0.1273,-0.5018 0.017,-0.7796 -0.1102,-0.2775 -0.2945,-0.4631 -0.5516,-0.5575 -0.2579,-0.0939 -0.5782,-0.0652 -0.9615,0.0873 z m 3.229,3.1768 1.1143,2.1537 -0.5375,0.2781 -0.7812,-1.51 -2.6422,1.3668 -0.3333,-0.644 z m -1.3204,5.1502 3.1079,-1.7776 0.5754,1.0063 c 0.218,0.381 0.3447,0.6381 0.3796,0.7716 0.0547,0.2047 0.0391,0.4119 -0.0485,0.6211 -0.0876,0.2095 -0.2554,0.3852 -0.5026,0.5267 -0.191,0.1091 -0.3707,0.1658 -0.5403,0.1714 -0.1698,0.0052 -0.322,-0.024 -0.4572,-0.0878 -0.1346,-0.0641 -0.2458,-0.1446 -0.3328,-0.241 -0.1153,-0.1323 -0.254,-0.3401 -0.4161,-0.6239 l -0.2336,-0.4079 -1.1718,0.6704 z m 2.9423,-0.8478 -0.8852,0.5062 0.1959,0.3425 c 0.1408,0.2466 0.2514,0.4014 0.3316,0.466 0.0799,0.0643 0.1678,0.1003 0.2651,0.1074 0.0963,0.0074 0.1904,-0.0147 0.2828,-0.0677 0.1134,-0.0649 0.188,-0.1517 0.224,-0.2597 0.0354,-0.1088 0.0346,-0.2185 -0.0051,-0.3311 -0.0289,-0.0825 -0.1074,-0.2364 -0.2364,-0.462 z m -0.5485,4.6616 2.9217,-2.0693 0.419,0.5916 -1.1509,0.8149 0.8152,1.1509 1.1509,-0.815 0.4187,0.5913 -2.9214,2.0693 -0.419,-0.5913 1.2771,-0.9048 -0.815,-1.1506 -1.2773,0.9045 z m 6.4497,4.8478 c -0.068,-0.1798 -0.0833,-0.3439 -0.0434,-0.4927 0.0386,-0.1485 0.1154,-0.2772 0.2279,-0.3849 0.1931,-0.1849 0.4173,-0.2705 0.6719,-0.2563 0.2539,0.0139 0.5006,0.1449 0.7372,0.3923 0.235,0.2458 0.3538,0.4967 0.3575,0.7523 0.004,0.256 -0.0907,0.4768 -0.2838,0.6616 -0.1199,0.1146 -0.2565,0.1854 -0.4104,0.2124 -0.1528,0.0272 -0.3084,0.0079 -0.466,-0.0579 0.0799,0.199 0.0998,0.3887 0.0612,0.5701 -0.0402,0.1811 -0.1321,0.3407 -0.2772,0.4796 -0.2396,0.229 -0.5069,0.3393 -0.8025,0.3302 -0.2951,-0.0082 -0.5633,-0.1391 -0.8051,-0.392 -0.2247,-0.235 -0.3495,-0.489 -0.375,-0.7642 -0.0306,-0.324 0.0822,-0.6083 0.3371,-0.8521 0.1403,-0.1344 0.3024,-0.2225 0.4861,-0.2656 0.184,-0.0431 0.3784,-0.0207 0.5845,0.0672 z m 0.5976,-0.3734 c -0.0987,0.0944 -0.15,0.1965 -0.1523,0.3045 -0.002,0.1094 0.0411,0.2097 0.1293,0.3019 0.0901,0.0941 0.1896,0.1414 0.2993,0.1443 0.1094,0.0022 0.2143,-0.044 0.313,-0.1384 0.0935,-0.0893 0.1414,-0.1882 0.1448,-0.2973 0.002,-0.1097 -0.0397,-0.2101 -0.1267,-0.3008 -0.0913,-0.0952 -0.1913,-0.1434 -0.3016,-0.1454 -0.11,-0.002 -0.2123,0.042 -0.3058,0.1312 z m -1.1543,1.014 c -0.1378,0.1318 -0.2115,0.2693 -0.2217,0.413 -0.0102,0.1437 0.034,0.267 0.1338,0.3713 0.0981,0.1024 0.2157,0.1511 0.3541,0.1472 0.1377,-0.004 0.2769,-0.0737 0.4167,-0.2073 0.1221,-0.117 0.1879,-0.2446 0.1967,-0.3835 0.009,-0.1389 -0.036,-0.2608 -0.1355,-0.3648 -0.116,-0.121 -0.2438,-0.1704 -0.3852,-0.1494 -0.1406,0.0218 -0.26,0.0791 -0.3589,0.1735 z m 3.2669,1.9831 c -0.0839,-0.1723 -0.1142,-0.3345 -0.0881,-0.4864 0.0249,-0.1517 0.0895,-0.2866 0.1919,-0.4042 0.1754,-0.2019 0.3909,-0.3073 0.6454,-0.3164 0.2543,-0.0096 0.5117,0.0984 0.7702,0.3232 0.2565,0.2233 0.3977,0.4623 0.4246,0.7166 0.0272,0.2545 -0.0468,0.483 -0.2222,0.6848 -0.1089,0.125 -0.2387,0.2078 -0.3892,0.2489 -0.1497,0.0411 -0.3067,0.036 -0.4694,-0.015 0.0975,0.1907 0.1346,0.3778 0.1128,0.5618 -0.0235,0.1843 -0.1004,0.3515 -0.2322,0.5032 -0.2177,0.25 -0.4739,0.384 -0.769,0.4022 -0.2948,0.0184 -0.5735,-0.0873 -0.8377,-0.3172 -0.2451,-0.2135 -0.3926,-0.4553 -0.4433,-0.7268 -0.0598,-0.3198 0.0267,-0.6134 0.258,-0.8793 0.1275,-0.1466 0.2812,-0.2492 0.46,-0.3087 0.1792,-0.0598 0.375,-0.0553 0.5882,0.0133 z m 0.561,-0.426 c -0.0896,0.1029 -0.1313,0.2092 -0.1239,0.3172 0.0082,0.1088 0.0604,0.2049 0.1565,0.2885 0.0981,0.0856 0.2015,0.1236 0.3109,0.1162 0.1095,-0.0076 0.2095,-0.0629 0.2994,-0.1661 0.0847,-0.0975 0.1236,-0.2004 0.1168,-0.3092 -0.0077,-0.1094 -0.0587,-0.2055 -0.1537,-0.288 -0.0992,-0.0868 -0.2035,-0.1256 -0.3135,-0.1174 -0.1097,0.0082 -0.2075,0.0613 -0.2925,0.1588 z m -1.0568,1.1148 c -0.1253,0.144 -0.1862,0.2877 -0.1834,0.4317 0.0032,0.1438 0.0584,0.2628 0.1673,0.3575 0.1068,0.093 0.2287,0.1307 0.3659,0.1139 0.1369,-0.0164 0.269,-0.0983 0.396,-0.244 0.1111,-0.1276 0.165,-0.2608 0.161,-0.3997 -0.0034,-0.1392 -0.0595,-0.2565 -0.1683,-0.3512 -0.1262,-0.11 -0.2583,-0.1474 -0.3969,-0.1137 -0.1383,0.0346 -0.252,0.1026 -0.3416,0.2055 z m 3.3747,1.7297 c -0.1004,-0.1635 -0.1466,-0.3217 -0.1355,-0.4753 0.0099,-0.1534 0.0609,-0.2943 0.1511,-0.4213 0.1547,-0.218 0.3588,-0.3441 0.6114,-0.3784 0.252,-0.0343 0.5187,0.0476 0.798,0.2461 0.2775,0.197 0.4413,0.4209 0.4932,0.6712 0.0524,0.2506 8e-4,0.4853 -0.1539,0.7033 -0.0958,0.1352 -0.2169,0.2304 -0.3626,0.286 -0.1451,0.0556 -0.3016,0.066 -0.4688,0.0312 0.1159,0.1803 0.1715,0.3628 0.1678,0.5482 -0.0051,0.1854 -0.0655,0.3597 -0.1817,0.5233 -0.1919,0.2704 -0.4337,0.4291 -0.7257,0.4759 -0.2914,0.0476 -0.5794,-0.0303 -0.8646,-0.233 -0.2653,-0.1882 -0.4356,-0.4144 -0.5128,-0.6798 -0.0909,-0.3123 -0.034,-0.6128 0.1701,-0.9002 0.1126,-0.1585 0.2554,-0.2758 0.4275,-0.3527 0.1723,-0.0771 0.3676,-0.0918 0.5865,-0.0445 z m 0.5165,-0.4793 c -0.0791,0.1114 -0.11,0.2211 -0.0922,0.328 0.019,0.1074 0.0802,0.1978 0.1843,0.2718 0.106,0.0754 0.2129,0.1032 0.3209,0.085 0.108,-0.0184 0.2021,-0.0833 0.2814,-0.1947 0.0749,-0.1054 0.1032,-0.2117 0.0859,-0.3195 -0.0184,-0.108 -0.0785,-0.1987 -0.1811,-0.2715 -0.1074,-0.0763 -0.2149,-0.1046 -0.3237,-0.0859 -0.1083,0.019 -0.2007,0.0813 -0.2755,0.1868 z m -0.942,1.2135 c -0.1106,0.1556 -0.1568,0.3044 -0.14,0.4476 0.0173,0.1429 0.0842,0.256 0.2018,0.3393 0.1154,0.0822 0.2404,0.1074 0.3753,0.0777 0.1346,-0.0301 0.258,-0.1245 0.3699,-0.2821 0.0981,-0.138 0.1386,-0.2758 0.1211,-0.4138 -0.0173,-0.1381 -0.0848,-0.2492 -0.2021,-0.3325 -0.1367,-0.0973 -0.2716,-0.1214 -0.4063,-0.0743 -0.1343,0.0479 -0.2406,0.1267 -0.3197,0.2381 z m 3.596,1.457 c -0.1083,-0.1584 -0.1621,-0.3141 -0.1587,-0.4683 0.0023,-0.1536 0.0462,-0.2968 0.1301,-0.4283 0.144,-0.2251 0.3416,-0.3614 0.5919,-0.4079 0.2503,-0.0468 0.5207,0.0218 0.8093,0.2061 0.2868,0.1831 0.4614,0.3988 0.5258,0.6463 0.0646,0.2477 0.0249,0.4847 -0.1191,0.7098 -0.0893,0.14 -0.2052,0.2409 -0.3481,0.3039 -0.142,0.0626 -0.2979,0.0807 -0.4665,0.0541 0.1247,0.1746 0.189,0.354 0.1944,0.5391 0.004,0.1857 -0.0473,0.3626 -0.1553,0.5318 -0.1786,0.2795 -0.4122,0.4499 -0.7016,0.5114 -0.2886,0.0618 -0.58,-0.002 -0.8751,-0.1902 -0.2741,-0.1749 -0.4552,-0.3923 -0.5453,-0.6537 -0.1066,-0.3073 -0.0644,-0.6103 0.1253,-0.9076 0.1046,-0.1636 0.2412,-0.2877 0.4096,-0.3731 0.1681,-0.0856 0.3625,-0.11 0.5833,-0.0734 z m 0.4924,-0.5043 c -0.0737,0.1151 -0.0992,0.2262 -0.076,0.332 0.0244,0.1065 0.0899,0.1939 0.1976,0.2625 0.1094,0.07 0.2174,0.0924 0.3246,0.0691 0.1071,-0.0238 0.1978,-0.0932 0.2713,-0.2086 0.0697,-0.1089 0.0929,-0.2166 0.0703,-0.3232 -0.0239,-0.1068 -0.0885,-0.1944 -0.1945,-0.2622 -0.1111,-0.0708 -0.2197,-0.0941 -0.3274,-0.0697 -0.1074,0.0241 -0.1964,0.091 -0.2659,0.2001 z m -0.881,1.2586 c -0.1026,0.1607 -0.1417,0.3118 -0.1176,0.4538 0.0241,0.1421 0.0963,0.2515 0.2182,0.3291 0.1194,0.0763 0.2452,0.0956 0.3787,0.0587 0.133,-0.0363 0.2515,-0.1369 0.3555,-0.2999 0.0913,-0.1426 0.1247,-0.2823 0.1006,-0.4189 -0.0241,-0.1372 -0.0969,-0.245 -0.2182,-0.3226 -0.1415,-0.0902 -0.2775,-0.1077 -0.4096,-0.0539 -0.1319,0.0544 -0.2342,0.1386 -0.3076,0.2537 z m 3.6289,1.173 c -0.1227,-0.1477 -0.1908,-0.2979 -0.2015,-0.4519 -0.0119,-0.153 0.0187,-0.2996 0.0898,-0.4382 0.1225,-0.2375 0.3067,-0.3915 0.5517,-0.4612 0.2449,-0.0697 0.5204,-0.0261 0.8248,0.1307 0.3025,0.1556 0.4964,0.354 0.5834,0.5947 0.087,0.2407 0.0697,0.4802 -0.0527,0.7177 -0.076,0.1477 -0.1823,0.2591 -0.3186,0.3348 -0.1355,0.0754 -0.2892,0.108 -0.4595,0.0972 0.1403,0.1622 0.2208,0.3351 0.2435,0.5188 0.0212,0.1845 -0.0136,0.3654 -0.1058,0.5439 -0.1516,0.2948 -0.3685,0.4859 -0.6511,0.5741 -0.2815,0.0881 -0.5777,0.0518 -0.8889,-0.1086 -0.2889,-0.1488 -0.4896,-0.3484 -0.6035,-0.6004 -0.1344,-0.2962 -0.1205,-0.6018 0.0408,-0.9153 0.089,-0.1726 0.2137,-0.309 0.3733,-0.4093 0.1596,-0.1009 0.3509,-0.1429 0.5743,-0.127 z m 0.4434,-0.5479 c -0.0627,0.1216 -0.0777,0.2347 -0.0448,0.3376 0.034,0.104 0.1074,0.1848 0.2208,0.2432 0.1156,0.0595 0.2253,0.072 0.3297,0.0388 0.1046,-0.0337 0.1885,-0.1114 0.2508,-0.2327 0.0593,-0.1151 0.0726,-0.2242 0.04,-0.3283 -0.0335,-0.1043 -0.1057,-0.1856 -0.2177,-0.2432 -0.1174,-0.0604 -0.2276,-0.0731 -0.3325,-0.0394 -0.1046,0.0343 -0.1871,0.1091 -0.2463,0.224 z m -0.7609,1.3348 c -0.0873,0.1695 -0.1119,0.3237 -0.0751,0.4629 0.0372,0.1389 0.1194,0.2412 0.2478,0.3073 0.1258,0.0649 0.2531,0.0722 0.3826,0.0235 0.129,-0.0485 0.2379,-0.1596 0.3263,-0.3314 0.0774,-0.1505 0.0981,-0.2925 0.0612,-0.4266 -0.0368,-0.1344 -0.1193,-0.235 -0.2471,-0.3008 -0.1491,-0.0768 -0.2861,-0.0816 -0.4128,-0.0158 -0.1261,0.0663 -0.2202,0.1596 -0.2829,0.2809 z m 3.7783,0.9076 c -0.1295,-0.1414 -0.2049,-0.288 -0.2233,-0.441 -0.0196,-0.1523 0.0036,-0.3002 0.068,-0.4422 0.1105,-0.2435 0.2869,-0.4062 0.5281,-0.4879 0.2409,-0.0816 0.5184,-0.0519 0.8303,0.0896 0.3098,0.1406 0.5133,0.3291 0.6122,0.5652 0.099,0.2359 0.0933,0.4762 -0.0173,0.7195 -0.0685,0.151 -0.1692,0.2675 -0.3016,0.35 -0.1318,0.0822 -0.2834,0.1222 -0.4541,0.1199 0.148,0.1551 0.237,0.3238 0.2688,0.506 0.0303,0.1831 0.0045,0.3657 -0.0786,0.5485 -0.1369,0.3019 -0.3441,0.5037 -0.6219,0.6055 -0.2769,0.1021 -0.5743,0.0805 -0.8932,-0.0643 -0.2959,-0.1344 -0.5062,-0.3238 -0.6327,-0.5698 -0.1488,-0.2891 -0.1499,-0.595 -0.0042,-0.9162 0.0802,-0.1768 0.1981,-0.3191 0.3523,-0.4274 0.1545,-0.1086 0.3436,-0.1602 0.5672,-0.1554 z m 0.4159,-0.5689 c -0.0564,0.1245 -0.0661,0.2381 -0.0278,0.3393 0.0388,0.1021 0.1162,0.1792 0.2324,0.2319 0.1185,0.0539 0.2285,0.061 0.3314,0.0224 0.1023,-0.0385 0.1826,-0.1202 0.239,-0.2446 0.0533,-0.1177 0.0612,-0.2277 0.0235,-0.33 -0.0386,-0.1026 -0.1148,-0.18 -0.2296,-0.2321 -0.1199,-0.0545 -0.2308,-0.0618 -0.3339,-0.0227 -0.1029,0.0394 -0.1814,0.1182 -0.235,0.2358 z m -0.6937,1.3709 c -0.0788,0.1737 -0.0961,0.3288 -0.0521,0.466 0.0439,0.1369 0.1312,0.235 0.2625,0.2945 0.1289,0.0587 0.2565,0.0598 0.3832,0.005 0.1264,-0.055 0.2296,-0.1712 0.3096,-0.3472 0.07,-0.1542 0.0836,-0.2971 0.0402,-0.4292 -0.0434,-0.1324 -0.1307,-0.2287 -0.2619,-0.2883 -0.1525,-0.0691 -0.2897,-0.0674 -0.413,0.005 -0.1225,0.0728 -0.2121,0.1703 -0.2685,0.2948 z m 3.7732,0.5802 c -0.1428,-0.1281 -0.2324,-0.2664 -0.2656,-0.417 -0.0346,-0.1499 -0.0258,-0.2993 0.0244,-0.447 0.0859,-0.2531 0.2455,-0.4323 0.4776,-0.5372 0.2316,-0.1051 0.5108,-0.1026 0.8351,0.007 0.322,0.1097 0.5431,0.2772 0.6645,0.5023 0.1216,0.2254 0.1397,0.4649 0.0535,0.718 -0.0532,0.1571 -0.142,0.2829 -0.2658,0.3779 -0.1228,0.0947 -0.2699,0.1494 -0.44,0.1638 0.1624,0.1398 0.2679,0.2988 0.3172,0.4774 0.0482,0.1791 0.0403,0.3634 -0.0244,0.5533 -0.1065,0.3141 -0.2928,0.5352 -0.5592,0.6636 -0.2656,0.129 -0.5638,0.1366 -0.8952,0.0238 -0.3079,-0.1046 -0.5358,-0.2724 -0.6857,-0.5048 -0.1766,-0.273 -0.2078,-0.5775 -0.0944,-0.9114 0.0626,-0.1837 0.1658,-0.337 0.309,-0.46 0.1428,-0.1231 0.3259,-0.1931 0.549,-0.2101 z m 0.3581,-0.6072 c -0.044,0.1293 -0.0423,0.2435 0.0053,0.3405 0.0488,0.0978 0.1335,0.1669 0.2543,0.208 0.123,0.0417 0.2336,0.038 0.3319,-0.0102 0.0981,-0.0487 0.1698,-0.1377 0.2138,-0.2673 0.0416,-0.1221 0.0385,-0.2324 -0.0088,-0.3305 -0.0488,-0.0984 -0.1321,-0.1678 -0.2514,-0.2083 -0.1248,-0.0426 -0.2359,-0.0389 -0.3345,0.0102 -0.0984,0.049 -0.169,0.1352 -0.2106,0.2576 z m -0.5559,1.4324 c -0.0613,0.1805 -0.0632,0.3365 -0.006,0.4688 0.0573,0.1321 0.1537,0.2211 0.2903,0.2676 0.1341,0.0454 0.2611,0.034 0.3818,-0.0331 0.1205,-0.0672 0.2118,-0.1931 0.2738,-0.3762 0.0545,-0.1602 0.0539,-0.3039 -0.0022,-0.4309 -0.0561,-0.1275 -0.1525,-0.2148 -0.2889,-0.261 -0.1584,-0.0539 -0.2948,-0.0386 -0.4104,0.045 -0.1148,0.0845 -0.1945,0.1902 -0.2384,0.3198 z m 3.7763,0.3087 c -0.1551,-0.1126 -0.2582,-0.2413 -0.3064,-0.3878 -0.0496,-0.1454 -0.0562,-0.2951 -0.0213,-0.447 0.0598,-0.2605 0.2004,-0.455 0.4207,-0.5828 0.2199,-0.1282 0.4977,-0.1542 0.8314,-0.0774 0.3316,0.0762 0.5686,0.2205 0.7123,0.4323 0.1437,0.2117 0.186,0.4481 0.1262,0.7086 -0.0375,0.1616 -0.1126,0.296 -0.2262,0.4031 -0.1129,0.1066 -0.2535,0.176 -0.4213,0.2075 0.1761,0.1225 0.2968,0.2701 0.364,0.4428 0.066,0.1732 0.0771,0.3574 0.032,0.553 -0.0742,0.3232 -0.237,0.5621 -0.4892,0.7169 -0.2512,0.1553 -0.5468,0.193 -0.8881,0.1145 -0.3169,-0.0728 -0.5607,-0.2165 -0.7334,-0.4325 -0.2032,-0.254 -0.2653,-0.5537 -0.1862,-0.8972 0.0434,-0.1894 0.1307,-0.3521 0.2605,-0.489 0.1298,-0.1372 0.3047,-0.2251 0.525,-0.265 z m 0.2945,-0.6401 c -0.0306,0.133 -0.0173,0.2463 0.04,0.3382 0.0587,0.0921 0.1496,0.1525 0.2741,0.1811 0.1267,0.0289 0.2361,0.0142 0.3291,-0.0439 0.0927,-0.0584 0.155,-0.1542 0.1857,-0.2875 0.0289,-0.1261 0.0147,-0.2352 -0.0426,-0.3279 -0.0584,-0.093 -0.1485,-0.1537 -0.2709,-0.182 -0.1285,-0.0295 -0.2387,-0.0147 -0.332,0.0442 -0.093,0.059 -0.1545,0.1517 -0.1834,0.2778 z m -0.4076,1.4811 c -0.0425,0.186 -0.0286,0.3413 0.0417,0.4672 0.0703,0.1255 0.1751,0.2043 0.3157,0.2367 0.1381,0.0317 0.2634,0.008 0.3768,-0.0718 0.1128,-0.0788 0.1907,-0.2134 0.2341,-0.4016 0.038,-0.165 0.023,-0.3079 -0.0459,-0.4286 -0.0686,-0.1211 -0.1735,-0.1982 -0.3138,-0.2305 -0.1633,-0.0374 -0.2974,-0.008 -0.4039,0.0868 -0.1058,0.0955 -0.1741,0.2089 -0.2047,0.3418 z m 3.8764,-0.0315 c -0.161,-0.1043 -0.2705,-0.2276 -0.3266,-0.3713 -0.0567,-0.1426 -0.0711,-0.2917 -0.0442,-0.4453 0.0465,-0.2631 0.1766,-0.4649 0.3898,-0.6041 0.2131,-0.1392 0.4892,-0.1794 0.8265,-0.1202 0.3351,0.059 0.5792,0.1911 0.7336,0.3949 0.1545,0.2038 0.209,0.438 0.1628,0.7013 -0.029,0.1633 -0.0973,0.301 -0.205,0.4138 -0.1071,0.1126 -0.2441,0.1891 -0.4099,0.2294 0.182,0.1134 0.3104,0.2542 0.3867,0.4232 0.0748,0.1698 0.0952,0.3529 0.0603,0.5505 -0.0575,0.3268 -0.2077,0.5737 -0.4512,0.7415 -0.243,0.1681 -0.5363,0.2211 -0.881,0.1605 -0.3204,-0.0565 -0.5712,-0.1874 -0.7549,-0.3941 -0.2163,-0.2432 -0.2937,-0.5391 -0.2324,-0.8864 0.0334,-0.1913 0.1122,-0.3583 0.2347,-0.5017 0.1224,-0.1437 0.2928,-0.2406 0.5108,-0.292 z m 0.2608,-0.6545 c -0.0239,0.1347 -0.0046,0.2469 0.0575,0.3356 0.0632,0.0891 0.1573,0.1446 0.2829,0.1667 0.1281,0.0227 0.2364,0.002 0.3265,-0.0609 0.0896,-0.0629 0.1469,-0.1622 0.1704,-0.2965 0.0224,-0.1273 0.0026,-0.2356 -0.0592,-0.3254 -0.0632,-0.0896 -0.1562,-0.1457 -0.2804,-0.1676 -0.1298,-0.0229 -0.2389,-0.002 -0.3291,0.0613 -0.0896,0.0635 -0.1463,0.1596 -0.1686,0.2868 z m -0.3303,1.5004 c -0.0331,0.1879 -0.011,0.3424 0.0658,0.4643 0.0765,0.1219 0.1854,0.195 0.3277,0.22 0.1394,0.0246 0.263,-0.006 0.3722,-0.091 0.1088,-0.0848 0.1797,-0.2231 0.2131,-0.4136 0.0295,-0.1667 0.0068,-0.3084 -0.068,-0.4255 -0.0748,-0.1173 -0.1834,-0.1887 -0.3254,-0.2137 -0.165,-0.0292 -0.2974,0.007 -0.3989,0.1072 -0.1006,0.1009 -0.163,0.2177 -0.1865,0.3523 z m 3.7885,-0.2971 c -0.1703,-0.0884 -0.2914,-0.2001 -0.3611,-0.3376 -0.0709,-0.1363 -0.0998,-0.2834 -0.0879,-0.4388 0.0201,-0.2664 0.1301,-0.4799 0.3286,-0.6395 0.1984,-0.1593 0.4694,-0.2267 0.8107,-0.2007 0.3393,0.0258 0.5952,0.133 0.7687,0.3209 0.1741,0.1877 0.2512,0.4153 0.2308,0.6817 -0.0125,0.1653 -0.0669,0.3093 -0.1633,0.4323 -0.0955,0.1225 -0.2242,0.2121 -0.3852,0.2685 0.1921,0.0947 0.3336,0.2225 0.426,0.3829 0.0913,0.1616 0.1295,0.3419 0.1145,0.542 -0.0252,0.3308 -0.1505,0.5913 -0.3764,0.7824 -0.2251,0.191 -0.512,0.2727 -0.8612,0.246 -0.324,-0.0246 -0.5868,-0.1304 -0.7897,-0.318 -0.239,-0.2206 -0.345,-0.5074 -0.3184,-0.8592 0.0148,-0.1936 0.0766,-0.3677 0.1843,-0.5224 0.108,-0.1551 0.2679,-0.2682 0.4796,-0.3405 z m 0.1953,-0.6772 c -0.0102,0.1364 0.0196,0.2464 0.0902,0.3286 0.0717,0.0825 0.1709,0.1281 0.2979,0.138 0.1298,0.01 0.2356,-0.0215 0.3189,-0.0927 0.083,-0.0717 0.1304,-0.1757 0.1406,-0.3121 0.0099,-0.1287 -0.0204,-0.2347 -0.091,-0.3177 -0.0714,-0.0831 -0.1698,-0.1299 -0.2954,-0.1395 -0.1312,-0.01 -0.2381,0.0213 -0.3214,0.0933 -0.0831,0.0722 -0.1298,0.1732 -0.1398,0.3021 z m -0.1811,1.5256 c -0.0145,0.1902 0.0224,0.3419 0.1108,0.4556 0.0882,0.1136 0.2038,0.176 0.3478,0.1868 0.1412,0.0107 0.2614,-0.0318 0.3615,-0.127 0.1,-0.0953 0.157,-0.2398 0.1715,-0.4326 0.013,-0.1686 -0.0236,-0.3075 -0.1095,-0.4167 -0.0861,-0.1097 -0.2012,-0.1701 -0.3447,-0.1808 -0.1672,-0.0128 -0.2953,0.036 -0.3863,0.146 -0.0904,0.1102 -0.1409,0.2327 -0.1511,0.3687 z m 3.8265,-0.6256 c -0.1749,-0.0793 -0.3019,-0.1845 -0.3787,-0.318 -0.0777,-0.1327 -0.1145,-0.2778 -0.1109,-0.4337 0.006,-0.267 0.1044,-0.4862 0.2943,-0.6559 0.1896,-0.1696 0.4566,-0.2512 0.7988,-0.2433 0.3401,0.008 0.6015,0.1012 0.7849,0.2795 0.1834,0.1783 0.2724,0.4017 0.2665,0.669 -0.004,0.1656 -0.0505,0.3124 -0.1404,0.4402 -0.0887,0.1273 -0.2126,0.2237 -0.3705,0.2883 0.1971,0.0845 0.345,0.2047 0.4459,0.36 0.0995,0.1565 0.1474,0.3348 0.1429,0.5352 -0.0077,0.3317 -0.1191,0.5984 -0.3345,0.8011 -0.2149,0.2026 -0.4969,0.2993 -0.847,0.2914 -0.3248,-0.007 -0.5927,-0.0992 -0.8053,-0.2758 -0.2503,-0.2078 -0.3716,-0.4887 -0.3634,-0.8414 0.0043,-0.1939 0.057,-0.371 0.1565,-0.5312 0.0995,-0.1604 0.2531,-0.282 0.4609,-0.3654 z m 0.159,-0.6865 c -0.0031,0.1366 0.0326,0.2449 0.1074,0.3231 0.076,0.0786 0.1775,0.1191 0.305,0.1219 0.1299,0.003 0.2342,-0.0337 0.3136,-0.1091 0.079,-0.076 0.1207,-0.1826 0.1238,-0.3192 0.0029,-0.129 -0.0331,-0.233 -0.1077,-0.3127 -0.076,-0.079 -0.1766,-0.1204 -0.3024,-0.1233 -0.1316,-0.003 -0.2367,0.0338 -0.3161,0.11 -0.0791,0.0766 -0.1205,0.18 -0.1236,0.3093 z m -0.1003,1.533 c -0.0043,0.1907 0.0408,0.3401 0.1349,0.449 0.0941,0.1088 0.2129,0.1649 0.3572,0.1681 0.1417,0.003 0.2593,-0.0457 0.3543,-0.146 0.0947,-0.1004 0.144,-0.2478 0.1485,-0.4411 0.0037,-0.1689 -0.0399,-0.3058 -0.1315,-0.4104 -0.0918,-0.1046 -0.2101,-0.1591 -0.3538,-0.1622 -0.1675,-0.004 -0.2931,0.0516 -0.3781,0.1661 -0.0845,0.1151 -0.1284,0.2398 -0.1315,0.3765 z m 3.6997,-0.8813 c -0.1819,-0.0615 -0.3186,-0.1537 -0.4081,-0.279 -0.0905,-0.1241 -0.1412,-0.265 -0.1531,-0.4206 -0.0201,-0.2665 0.0561,-0.4941 0.2282,-0.6818 0.172,-0.1873 0.4297,-0.2948 0.771,-0.3208 0.3393,-0.0258 0.6083,0.0416 0.8084,0.2009 0.2004,0.1593 0.311,0.3728 0.3311,0.6393 0.0128,0.1652 -0.0195,0.316 -0.0961,0.4518 -0.0759,0.1355 -0.1896,0.2438 -0.3404,0.3237 0.2044,0.0646 0.3637,0.1695 0.4793,0.3144 0.1145,0.146 0.1797,0.3183 0.1948,0.5184 0.0252,0.3308 -0.0593,0.6072 -0.2537,0.83 -0.1939,0.2228 -0.4649,0.347 -0.8141,0.3733 -0.3243,0.0247 -0.5999,-0.0402 -0.8286,-0.195 -0.2699,-0.182 -0.4181,-0.4496 -0.4448,-0.8011 -0.0147,-0.1936 0.0202,-0.3753 0.1035,-0.5445 0.0831,-0.1692 0.2239,-0.3053 0.4226,-0.409 z m 0.0907,-0.6988 c 0.0103,0.1364 0.0567,0.2404 0.1387,0.311 0.0833,0.0709 0.1882,0.1012 0.3155,0.0916 0.1298,-0.01 0.2296,-0.0567 0.3013,-0.1398 0.0711,-0.0833 0.102,-0.1933 0.0918,-0.3297 -0.0099,-0.1289 -0.0558,-0.2287 -0.138,-0.3004 -0.0834,-0.0715 -0.1877,-0.1027 -0.313,-0.093 -0.1315,0.01 -0.2321,0.0567 -0.3038,0.1406 -0.0712,0.0839 -0.1024,0.1908 -0.0925,0.3197 z m 0.0514,1.5356 c 0.0144,0.1902 0.0739,0.3344 0.1783,0.4337 0.1046,0.0989 0.2281,0.1428 0.3719,0.1321 0.1414,-0.0108 0.2537,-0.0712 0.3384,-0.1806 0.0842,-0.1089 0.1188,-0.2605 0.1043,-0.4533 -0.013,-0.1686 -0.07,-0.3004 -0.1715,-0.3954 -0.1014,-0.0953 -0.2245,-0.1378 -0.3679,-0.1267 -0.1672,0.0127 -0.2866,0.0802 -0.36,0.2027 -0.0726,0.1227 -0.104,0.2511 -0.0935,0.3875 z m 4.2704,-2.9294 0.6647,-0.117 0.413,2.3473 1.0154,-2.5985 0.7089,-0.125 0.6205,3.526 -0.665,0.1171 -0.4065,-2.3097 -1.0213,2.5611 -0.7092,0.1248 z m 5.2849,2.6093 -0.9831,-3.4424 0.6968,-0.199 0.3875,1.3559 1.3558,-0.3873 -0.3872,-1.3561 0.697,-0.1989 0.9833,3.4423 -0.697,0.1993 -0.4297,-1.5049 -1.3561,0.3872 0.4297,1.5049 z m 4.583,-1.3634 -1.3221,-3.3271 0.6738,-0.2676 0.5208,1.3105 1.3104,-0.5207 -0.5207,-1.3105 0.6735,-0.2676 1.3221,3.3271 -0.6735,0.2675 -0.578,-1.4544 -1.3105,0.5207 0.5777,1.4545 z m 6.3199,-4.9678 c -0.1905,0.0224 -0.3535,-0.002 -0.4884,-0.0768 -0.135,-0.0734 -0.2413,-0.1788 -0.3187,-0.3141 -0.1326,-0.2321 -0.1615,-0.4702 -0.0867,-0.7137 0.0748,-0.2432 0.2614,-0.4507 0.5587,-0.6208 0.2954,-0.1689 0.5672,-0.2237 0.8164,-0.1655 0.2494,0.0578 0.4408,0.2029 0.5734,0.4351 0.0825,0.144 0.1182,0.2936 0.1072,0.4493 -0.0102,0.155 -0.0666,0.3013 -0.1684,0.4385 0.2123,-0.0295 0.4011,-0.003 0.5678,0.0782 0.1661,0.0825 0.299,0.2103 0.3985,0.3844 0.1647,0.288 0.2072,0.574 0.127,0.8589 -0.0793,0.2843 -0.271,0.5128 -0.5748,0.6865 -0.2821,0.1616 -0.559,0.2211 -0.8323,0.1795 -0.3214,-0.0485 -0.5703,-0.2265 -0.7455,-0.5327 -0.0964,-0.1683 -0.1429,-0.3472 -0.1403,-0.536 0.0025,-0.1888 0.0714,-0.3722 0.2061,-0.5508 z m -0.218,-0.6701 c 0.0677,0.1185 0.1545,0.1928 0.2588,0.2214 0.1057,0.0281 0.2134,0.0105 0.3243,-0.053 0.1128,-0.0643 0.1828,-0.1497 0.212,-0.2554 0.0286,-0.1057 0.0091,-0.2185 -0.0587,-0.337 -0.064,-0.1123 -0.1485,-0.1829 -0.2537,-0.2123 -0.1057,-0.0287 -0.2131,-0.0122 -0.3226,0.0504 -0.1142,0.0655 -0.1851,0.1511 -0.2137,0.2574 -0.0283,0.1063 -0.0105,0.2163 0.0536,0.3285 z m 0.7055,1.3649 c 0.0947,0.1656 0.2104,0.2702 0.3473,0.3149 0.1369,0.0446 0.2676,0.0312 0.3926,-0.0405 0.123,-0.0703 0.1987,-0.1729 0.2282,-0.3078 0.0294,-0.135 -0.0046,-0.2866 -0.1004,-0.4544 -0.0842,-0.1469 -0.1922,-0.2415 -0.3246,-0.2838 -0.1326,-0.0422 -0.2619,-0.0278 -0.3869,0.0437 -0.1454,0.0833 -0.2242,0.1956 -0.2381,0.3376 -0.0128,0.142 0.0142,0.2715 0.0819,0.3903 z m 2.8128,-2.675 c -0.189,0.0326 -0.3532,0.0161 -0.4918,-0.0513 -0.1386,-0.0664 -0.25,-0.1662 -0.3345,-0.2971 -0.1445,-0.2248 -0.1856,-0.4612 -0.1233,-0.7084 0.0621,-0.2466 0.2376,-0.4637 0.5256,-0.6488 0.286,-0.184 0.555,-0.2529 0.8067,-0.2078 0.252,0.045 0.4507,0.18 0.5953,0.4048 0.0896,0.1394 0.1329,0.2871 0.1304,0.4433 -0.0026,0.1551 -0.051,0.3044 -0.1457,0.4465 0.2106,-0.0403 0.4005,-0.0239 0.5712,0.0487 0.17,0.0737 0.3095,0.1945 0.4181,0.3634 0.1791,0.2789 0.2364,0.5624 0.1712,0.851 -0.0644,0.288 -0.2441,0.5261 -0.5383,0.7154 -0.2736,0.1758 -0.5468,0.2498 -0.8221,0.2226 -0.3237,-0.0318 -0.5813,-0.1968 -0.7721,-0.4936 -0.1049,-0.1632 -0.1605,-0.3393 -0.1678,-0.5278 -0.0074,-0.1887 0.0518,-0.3753 0.1771,-0.5609 z m -0.2522,-0.658 c 0.0737,0.1151 0.1641,0.1849 0.2698,0.2078 0.1069,0.0227 0.2137,-5e-4 0.3209,-0.0697 0.1094,-0.0703 0.1752,-0.159 0.1984,-0.2662 0.0233,-0.1071 -0.002,-0.2185 -0.0759,-0.3336 -0.0698,-0.1086 -0.1579,-0.1746 -0.2642,-0.1987 -0.1072,-0.023 -0.2138,-0.001 -0.3195,0.0671 -0.1108,0.0712 -0.1774,0.1605 -0.2004,0.2682 -0.0227,0.1077 8e-4,0.2166 0.0709,0.3251 z m 0.7752,1.3267 c 0.1032,0.1604 0.224,0.2588 0.3631,0.2965 0.1389,0.0374 0.2688,0.0173 0.3901,-0.0607 0.1191,-0.0768 0.1894,-0.1831 0.2117,-0.3195 0.0224,-0.136 -0.0192,-0.286 -0.1238,-0.4484 -0.0916,-0.1426 -0.2044,-0.2313 -0.3388,-0.2665 -0.1346,-0.0354 -0.263,-0.0144 -0.3841,0.0635 -0.1408,0.0907 -0.2137,0.207 -0.2202,0.3495 -0.0054,0.1423 0.028,0.2705 0.102,0.3856 z" />
    <path
       id="path14"
       style="fill:#1b1918;fill-rule:evenodd"
       d="m 91.542,100.9213 c -0.1853,0.0499 -0.3503,0.0493 -0.4946,-0.005 -0.144,-0.0527 -0.2648,-0.1417 -0.3608,-0.2642 -0.1653,-0.2103 -0.2282,-0.4419 -0.1897,-0.6936 0.0388,-0.2514 0.1931,-0.4839 0.4623,-0.6953 0.2676,-0.2101 0.529,-0.3039 0.7838,-0.2827 0.2551,0.021 0.4658,0.137 0.6307,0.347 0.1024,0.1304 0.1593,0.2735 0.1715,0.4292 0.0122,0.1547 -0.0224,0.3078 -0.1032,0.458 0.2058,-0.0598 0.3966,-0.0612 0.5732,-0.005 0.1763,0.0576 0.3266,0.1647 0.4504,0.3226 0.2047,0.2608 0.2883,0.5375 0.2506,0.8311 -0.0371,0.2929 -0.1936,0.5468 -0.4688,0.7628 -0.2557,0.2007 -0.521,0.3002 -0.7974,0.2988 -0.3251,-0.001 -0.5973,-0.1411 -0.815,-0.4187 -0.1199,-0.1527 -0.1919,-0.3228 -0.2168,-0.5096 -0.0253,-0.1874 0.0164,-0.3787 0.1238,-0.5752 z M 91.2288,100.29 c 0.0842,0.1075 0.1809,0.1684 0.2883,0.1815 0.1086,0.0124 0.2126,-0.0207 0.3129,-0.0995 0.1024,-0.0803 0.1594,-0.1749 0.1727,-0.2838 0.0127,-0.1088 -0.0227,-0.2174 -0.1072,-0.3248 -0.0796,-0.1018 -0.1735,-0.1593 -0.2817,-0.1732 -0.1089,-0.0128 -0.2129,0.019 -0.3118,0.0969 -0.1038,0.0814 -0.1613,0.1763 -0.1741,0.2858 -0.0128,0.1094 0.021,0.2157 0.1009,0.3171 z m 0.8963,1.2479 c 0.118,0.1499 0.2475,0.2367 0.3898,0.261 0.1417,0.0241 0.269,-0.008 0.3824,-0.0972 0.1114,-0.0873 0.1712,-0.1998 0.1808,-0.3379 0.0094,-0.1375 -0.0462,-0.2829 -0.1655,-0.4348 -0.1043,-0.1333 -0.2251,-0.2109 -0.3623,-0.2333 -0.1374,-0.0227 -0.263,0.0105 -0.3764,0.0992 -0.1318,0.1035 -0.1933,0.2262 -0.1862,0.3688 0.0079,0.1423 0.0532,0.2664 0.1374,0.3742 z m 2.3222,-3.0045 c -0.1795,0.0678 -0.3436,0.0831 -0.4924,0.0431 -0.1488,-0.0385 -0.2775,-0.1151 -0.3852,-0.2276 -0.1848,-0.1933 -0.2702,-0.4176 -0.2563,-0.6718 0.0139,-0.254 0.1449,-0.5006 0.3923,-0.7373 0.2458,-0.2353 0.4967,-0.3541 0.7523,-0.3578 0.2557,-0.0039 0.4768,0.0908 0.6614,0.2838 0.1148,0.1199 0.1856,0.2565 0.2126,0.4105 0.0272,0.1527 0.0079,0.3084 -0.0579,0.466 0.199,-0.08 0.389,-0.0998 0.5701,-0.0613 0.1811,0.04 0.3407,0.1321 0.4796,0.277 0.2293,0.2398 0.3393,0.5071 0.3305,0.8028 -0.0082,0.295 -0.1392,0.5629 -0.392,0.805 -0.235,0.2248 -0.4893,0.3495 -0.7645,0.375 -0.3237,0.0306 -0.608,-0.0822 -0.8518,-0.337 -0.1344,-0.1401 -0.2225,-0.3025 -0.2656,-0.4862 -0.0434,-0.1836 -0.0207,-0.3784 0.0669,-0.5842 z M 94.074,97.9356 c 0.0943,0.0986 0.1964,0.1499 0.3047,0.1522 0.1091,0.002 0.2095,-0.0411 0.3016,-0.1292 0.0941,-0.0902 0.1417,-0.1897 0.1443,-0.2994 0.0022,-0.1094 -0.044,-0.2143 -0.1384,-0.3129 -0.0893,-0.0933 -0.1882,-0.1415 -0.2973,-0.1446 -0.1097,-0.0023 -0.2101,0.0397 -0.3008,0.1267 -0.0952,0.091 -0.1434,0.1911 -0.1454,0.3013 -0.002,0.11 0.042,0.2126 0.1313,0.3059 z m 1.0142,1.1543 c 0.1318,0.1377 0.2693,0.2114 0.413,0.2216 0.1434,0.0102 0.267,-0.034 0.3713,-0.1338 0.1024,-0.098 0.1508,-0.2157 0.1469,-0.354 -0.004,-0.1378 -0.0734,-0.277 -0.2072,-0.4167 -0.1168,-0.1222 -0.2447,-0.1879 -0.3833,-0.1967 -0.1389,-0.0091 -0.2608,0.036 -0.3648,0.1355 -0.121,0.1159 -0.1704,0.244 -0.1497,0.3852 0.0219,0.1406 0.0791,0.2602 0.1738,0.3589 z m 2.1056,-3.267 c -0.1764,0.0763 -0.3396,0.0992 -0.4901,0.0664 -0.1503,-0.0315 -0.2824,-0.1021 -0.3955,-0.2095 -0.1936,-0.1843 -0.2894,-0.4042 -0.2874,-0.6591 0.002,-0.2542 0.121,-0.5068 0.3572,-0.7548 0.2344,-0.2464 0.4793,-0.3768 0.7347,-0.3926 0.2554,-0.0159 0.4805,0.0683 0.6741,0.2525 0.1202,0.1143 0.1973,0.2475 0.2316,0.3997 0.0343,0.1514 0.0224,0.3079 -0.036,0.4683 0.1953,-0.089 0.3838,-0.1176 0.5666,-0.0879 0.1828,0.0315 0.3467,0.116 0.4921,0.2543 0.2401,0.2285 0.3628,0.4904 0.3679,0.7863 0.0054,0.2951 -0.1128,0.5689 -0.354,0.8226 -0.2239,0.2356 -0.472,0.3719 -0.7458,0.4105 -0.322,0.0456 -0.6114,-0.0536 -0.8668,-0.2965 -0.1409,-0.1338 -0.2367,-0.292 -0.2883,-0.4734 -0.0519,-0.1814 -0.0383,-0.377 0.0397,-0.5868 z m -0.4011,-0.5794 c 0.0989,0.0941 0.2032,0.1403 0.3115,0.1378 0.1091,-0.0034 0.2072,-0.051 0.2954,-0.1434 0.0895,-0.0944 0.1323,-0.1962 0.1298,-0.3056 -0.0028,-0.1097 -0.0539,-0.212 -0.1528,-0.3064 -0.0935,-0.089 -0.1947,-0.1324 -0.3039,-0.1304 -0.1094,0.0028 -0.2078,0.0493 -0.2945,0.1406 -0.091,0.0955 -0.1344,0.1978 -0.1312,0.3081 0.0034,0.11 0.0521,0.21 0.1457,0.2993 z m 1.0672,1.1053 c 0.1381,0.1315 0.2789,0.1984 0.4229,0.2021 0.144,0.0034 0.2651,-0.0468 0.3646,-0.1511 0.0978,-0.1029 0.1406,-0.2228 0.1304,-0.3606 -0.0105,-0.1375 -0.0865,-0.2732 -0.2265,-0.4065 -0.1228,-0.1165 -0.2534,-0.1763 -0.3923,-0.1786 -0.1392,-0.0025 -0.2588,0.0482 -0.3581,0.1525 -0.1156,0.1214 -0.1587,0.2518 -0.1312,0.3918 0.0283,0.1395 0.091,0.2562 0.1902,0.3504 z m 1.8272,-3.3557 c -0.1684,0.0921 -0.3288,0.1301 -0.4819,0.1111 -0.1525,-0.0176 -0.2905,-0.0757 -0.413,-0.1723 -0.2097,-0.1659 -0.3254,-0.3759 -0.3467,-0.6299 -0.0215,-0.2534 0.0743,-0.5159 0.2866,-0.7843 0.2106,-0.2671 0.4428,-0.4193 0.6954,-0.4584 0.2531,-0.0394 0.4847,0.0238 0.6945,0.1896 0.1301,0.1027 0.2191,0.2282 0.2673,0.3768 0.0481,0.1477 0.0507,0.3044 0.007,0.4697 0.186,-0.1066 0.3711,-0.1525 0.5559,-0.1395 0.1848,0.0145 0.3558,0.0836 0.5134,0.2081 0.2602,0.2055 0.4062,0.4549 0.4385,0.7492 0.0326,0.2934 -0.0601,0.5768 -0.277,0.8515 -0.2015,0.2551 -0.4362,0.4139 -0.7052,0.4771 -0.3164,0.0751 -0.6137,0.0028 -0.8904,-0.2158 -0.1525,-0.1204 -0.2622,-0.269 -0.3302,-0.4447 -0.0683,-0.176 -0.0729,-0.3719 -0.0145,-0.5882 z m -0.4524,-0.5403 c 0.1072,0.0848 0.2152,0.1213 0.3226,0.1089 0.1086,-0.0134 0.2018,-0.07 0.2809,-0.1701 0.0808,-0.1021 0.114,-0.2072 0.1015,-0.3161 -0.0131,-0.1088 -0.0731,-0.2063 -0.1803,-0.2908 -0.1015,-0.0802 -0.2061,-0.1142 -0.3144,-0.1023 -0.1088,0.013 -0.2026,0.0683 -0.2806,0.1672 -0.0816,0.1032 -0.1154,0.2092 -0.1023,0.3186 0.0136,0.1092 0.0711,0.2047 0.1726,0.2846 z m 1.1639,1.0029 c 0.1497,0.1182 0.296,0.1721 0.44,0.1624 0.1434,-0.0096 0.2596,-0.0705 0.3489,-0.1839 0.0879,-0.1111 0.1196,-0.2347 0.0967,-0.3711 -0.023,-0.1358 -0.1112,-0.2639 -0.2628,-0.3838 -0.1327,-0.1049 -0.2685,-0.1522 -0.4071,-0.142 -0.1389,0.0102 -0.2531,0.072 -0.3424,0.1848 -0.104,0.1315 -0.1352,0.2653 -0.0947,0.4022 0.0408,0.1364 0.1143,0.2467 0.2214,0.3314 z m 1.5659,-3.45 c -0.1585,0.1083 -0.3141,0.1621 -0.4683,0.1587 -0.1536,-0.0023 -0.2968,-0.0462 -0.4283,-0.1301 -0.2251,-0.144 -0.3614,-0.3416 -0.4079,-0.5919 -0.0468,-0.2503 0.0218,-0.5207 0.206,-0.8093 0.1832,-0.2868 0.3989,-0.4614 0.6463,-0.5258 0.2478,-0.0646 0.4848,-0.0249 0.7098,0.1191 0.1401,0.0893 0.241,0.2052 0.3039,0.3481 0.0627,0.142 0.0808,0.2979 0.0542,0.4665 0.1746,-0.1247 0.354,-0.189 0.5391,-0.1944 0.1857,-0.004 0.3626,0.0473 0.5318,0.1553 0.2795,0.1786 0.4498,0.4122 0.5114,0.7016 0.0618,0.2886 -0.002,0.58 -0.1902,0.8751 -0.1749,0.2741 -0.3924,0.4552 -0.6537,0.5453 -0.3073,0.1066 -0.6103,0.0644 -0.9077,-0.1253 -0.1635,-0.1046 -0.2877,-0.2412 -0.373,-0.4096 -0.0856,-0.1681 -0.11,-0.3625 -0.0734,-0.5833 z m -0.5043,-0.4924 c 0.1151,0.0737 0.2262,0.0992 0.3319,0.076 0.1066,-0.0244 0.1939,-0.0899 0.2625,-0.1976 0.07,-0.1094 0.0924,-0.2174 0.0692,-0.3246 -0.0238,-0.1071 -0.0933,-0.1978 -0.2087,-0.2713 -0.1088,-0.0697 -0.2165,-0.0929 -0.3231,-0.0703 -0.1069,0.0239 -0.1945,0.0885 -0.2622,0.1945 -0.0709,0.1111 -0.0941,0.2197 -0.0697,0.3274 0.0241,0.1074 0.091,0.1964 0.2001,0.2659 z m 1.2586,0.881 c 0.1607,0.1026 0.3118,0.1417 0.4538,0.1176 0.142,-0.0241 0.2514,-0.0963 0.3291,-0.2182 0.0763,-0.1194 0.0955,-0.2452 0.0587,-0.3787 -0.0363,-0.133 -0.1369,-0.2515 -0.2999,-0.3555 -0.1426,-0.0913 -0.2824,-0.1247 -0.419,-0.1006 -0.1372,0.0241 -0.2449,0.0969 -0.3226,0.2182 -0.0901,0.1415 -0.1077,0.2775 -0.0538,0.4096 0.0544,0.1319 0.1386,0.2342 0.2537,0.3076 z m 1.2821,-3.6658 c -0.1531,0.116 -0.3062,0.1772 -0.4601,0.1809 -0.1536,0.0051 -0.2988,-0.032 -0.434,-0.1097 -0.2318,-0.133 -0.3773,-0.324 -0.4357,-0.5718 -0.0583,-0.2477 -0.002,-0.5213 0.1679,-0.8183 0.1692,-0.2948 0.3764,-0.4796 0.6205,-0.5556 0.2443,-0.0763 0.483,-0.0479 0.7149,0.0853 0.1437,0.0825 0.2503,0.1936 0.3197,0.3334 0.0695,0.1389 0.095,0.2936 0.0763,0.4634 0.1683,-0.1329 0.3447,-0.2055 0.5295,-0.2197 0.1851,-0.0127 0.3642,0.0301 0.5383,0.1302 0.2877,0.1649 0.4688,0.3903 0.5439,0.6763 0.0754,0.2854 0.0258,0.5794 -0.1485,0.8833 -0.1619,0.282 -0.3702,0.4734 -0.627,0.5757 -0.3022,0.1207 -0.6069,0.093 -0.9128,-0.0825 -0.1684,-0.0967 -0.2987,-0.2273 -0.392,-0.3912 -0.0935,-0.1641 -0.1267,-0.3571 -0.1009,-0.5797 z m -0.527,-0.4677 c 0.1185,0.0681 0.2308,0.0885 0.3351,0.0601 0.1054,-0.0292 0.1896,-0.0989 0.2531,-0.2095 0.0646,-0.1128 0.0819,-0.2219 0.0536,-0.3277 -0.0289,-0.1057 -0.1026,-0.1933 -0.2211,-0.2613 -0.112,-0.0644 -0.2206,-0.0825 -0.326,-0.0547 -0.106,0.0289 -0.1902,0.0975 -0.2529,0.2066 -0.0657,0.1143 -0.0836,0.224 -0.0544,0.3303 0.0295,0.106 0.1004,0.1919 0.2126,0.2562 z m 1.2989,0.8206 c 0.1655,0.095 0.3183,0.1268 0.4589,0.0959 0.1406,-0.0307 0.2466,-0.1083 0.3183,-0.2333 0.0706,-0.1231 0.0839,-0.2498 0.0408,-0.3813 -0.0428,-0.131 -0.1485,-0.2446 -0.3163,-0.341 -0.1468,-0.0842 -0.2877,-0.1111 -0.4235,-0.0805 -0.1358,0.0306 -0.2398,0.1086 -0.3115,0.2333 -0.0834,0.1454 -0.0947,0.282 -0.0346,0.4116 0.0606,0.129 0.1494,0.2273 0.2679,0.2953 z m 1.0051,-3.6728 c -0.1414,0.1298 -0.288,0.2052 -0.441,0.2234 -0.1523,0.0195 -0.3002,-0.0037 -0.4423,-0.0681 -0.2435,-0.1105 -0.4062,-0.2868 -0.4878,-0.5281 -0.0819,-0.2409 -0.0522,-0.5184 0.0896,-0.8302 0.1403,-0.3099 0.3291,-0.5134 0.5649,-0.612 0.2361,-0.099 0.4762,-0.0933 0.7197,0.017 0.1511,0.0686 0.2676,0.1692 0.3498,0.3019 0.0822,0.1315 0.1225,0.2832 0.1199,0.4541 0.1551,-0.1483 0.3238,-0.2373 0.5063,-0.269 0.1831,-0.0304 0.3657,-0.0046 0.5482,0.0785 0.3022,0.1369 0.504,0.3441 0.6058,0.6219 0.102,0.277 0.0805,0.5743 -0.0644,0.8932 -0.1343,0.2959 -0.3237,0.5063 -0.5697,0.6327 -0.2892,0.1488 -0.595,0.15 -0.9162,0.0043 -0.1769,-0.0803 -0.3192,-0.1979 -0.4274,-0.3524 -0.1086,-0.1545 -0.1602,-0.3435 -0.1554,-0.5672 z m -0.5689,-0.4158 c 0.1244,0.0564 0.2378,0.066 0.3393,0.028 0.1021,-0.0391 0.1792,-0.1165 0.2319,-0.2327 0.0538,-0.1182 0.0607,-0.2285 0.0224,-0.3311 -0.0389,-0.1026 -0.1205,-0.1825 -0.2449,-0.2392 -0.1177,-0.0533 -0.2274,-0.0613 -0.3297,-0.0236 -0.1026,0.0389 -0.1803,0.1151 -0.2322,0.2296 -0.0544,0.1202 -0.0618,0.2311 -0.0226,0.334 0.0391,0.1029 0.1179,0.1817 0.2358,0.235 z m 1.3708,0.6936 c 0.1735,0.0788 0.3286,0.0961 0.4661,0.0522 0.1369,-0.044 0.235,-0.1313 0.2945,-0.2625 0.0587,-0.129 0.0598,-0.2566 0.004,-0.3833 -0.055,-0.1264 -0.1712,-0.2296 -0.3472,-0.3095 -0.154,-0.07 -0.2971,-0.0836 -0.4292,-0.04 -0.1324,0.0431 -0.2285,0.1304 -0.288,0.2616 -0.0692,0.1525 -0.0675,0.2897 0.004,0.4131 0.0726,0.1227 0.1704,0.212 0.2948,0.2684 z m 0.7132,-3.814 c -0.1343,0.1369 -0.2766,0.2199 -0.4286,0.2463 -0.151,0.0275 -0.2999,0.0122 -0.4453,-0.0445 -0.2489,-0.0975 -0.4206,-0.265 -0.5148,-0.5017 -0.0943,-0.2364 -0.0793,-0.5151 0.0454,-0.834 0.1242,-0.3166 0.3016,-0.5298 0.5321,-0.6409 0.2304,-0.1114 0.4708,-0.1182 0.7197,-0.0207 0.1542,0.0604 0.2761,0.1545 0.3654,0.2826 0.089,0.1273 0.1369,0.2767 0.1434,0.4473 0.1471,-0.1562 0.311,-0.2539 0.4915,-0.2953 0.1812,-0.04 0.3648,-0.0238 0.5516,0.0496 0.3087,0.1207 0.5213,0.3169 0.6376,0.589 0.1165,0.2713 0.1105,0.5692 -0.017,0.8952 -0.1185,0.3027 -0.2968,0.523 -0.5355,0.6619 -0.2812,0.1641 -0.5865,0.1814 -0.9148,0.0527 -0.1808,-0.0706 -0.3293,-0.1808 -0.4456,-0.3294 -0.1165,-0.1485 -0.178,-0.3345 -0.1851,-0.5581 z m -0.5901,-0.3853 c 0.1272,0.0499 0.2412,0.0533 0.3404,0.01 0.0998,-0.0442 0.1729,-0.1256 0.2194,-0.2444 0.0473,-0.121 0.0485,-0.2316 0.005,-0.3319 -0.0439,-0.1004 -0.1298,-0.176 -0.2571,-0.2259 -0.1202,-0.0471 -0.2304,-0.0491 -0.3305,-0.0063 -0.1003,0.0443 -0.1738,0.1245 -0.2197,0.2415 -0.0482,0.1228 -0.0496,0.2339 -0.005,0.3348 0.0445,0.1006 0.1276,0.1752 0.2478,0.2222 z m 1.4057,0.6206 c 0.1774,0.0694 0.3333,0.0782 0.468,0.0272 0.1346,-0.0511 0.2279,-0.1432 0.2803,-0.2775 0.0519,-0.1321 0.0462,-0.2594 -0.0156,-0.383 -0.0615,-0.1236 -0.1831,-0.2205 -0.3631,-0.2908 -0.1576,-0.0618 -0.301,-0.0678 -0.4306,-0.0173 -0.1298,0.0501 -0.2214,0.1423 -0.2738,0.2763 -0.0612,0.1562 -0.0522,0.2931 0.0264,0.4125 0.0788,0.1185 0.1811,0.2027 0.3084,0.2526 z" />
  </g>
  <path
     id="path17"
     style="fill:#1b1918;fill-rule:evenodd"
     d="m 19.5072,73.9834 3.4376,-0.9998 0.3237,1.1132 c 0.1227,0.4215 0.1856,0.701 0.1882,0.839 0.0051,0.2121 -0.0587,0.4094 -0.1928,0.5925 -0.1343,0.1831 -0.3384,0.3146 -0.612,0.394 -0.2111,0.0615 -0.3994,0.0746 -0.5655,0.0403 -0.1664,-0.0349 -0.3075,-0.099 -0.4238,-0.1928 -0.1159,-0.0938 -0.2052,-0.1979 -0.267,-0.3121 -0.081,-0.1559 -0.1672,-0.3903 -0.2585,-0.7041 l -0.1312,-0.4513 -1.2963,0.377 z m 3.0588,-0.1346 -0.9793,0.2846 0.1102,0.3787 c 0.0791,0.2727 0.1503,0.4493 0.2132,0.5306 0.0627,0.0816 0.1398,0.1372 0.2325,0.167 0.0918,0.0294 0.1885,0.03 0.2911,3e-4 0.1253,-0.0363 0.218,-0.1035 0.2786,-0.1999 0.0598,-0.0975 0.0845,-0.2044 0.0726,-0.3231 -0.0088,-0.0871 -0.0491,-0.2549 -0.1219,-0.5046 z m -0.1944,3.3709 c 0.3382,-0.1377 0.6432,-0.2021 0.9142,-0.1947 0.1995,0.0059 0.3937,0.0476 0.5811,0.1236 0.1873,0.0754 0.3449,0.1777 0.4739,0.3061 0.1712,0.1715 0.3124,0.3918 0.4224,0.6619 0.1993,0.4895 0.2063,0.942 0.0224,1.3598 -0.1846,0.417 -0.5468,0.7356 -1.088,0.9558 -0.5363,0.2183 -1.0156,0.2432 -1.4368,0.0757 -0.4218,-0.1678 -0.7317,-0.4958 -0.9298,-0.9828 -0.201,-0.4935 -0.2103,-0.9473 -0.0272,-1.3614 0.1828,-0.4133 0.5386,-0.7286 1.0678,-0.944 z m 0.3036,0.6812 c -0.3759,0.1528 -0.6253,0.356 -0.7492,0.6089 -0.123,0.2525 -0.1301,0.513 -0.0216,0.7798 0.1092,0.2678 0.2946,0.4478 0.5568,0.5417 0.2627,0.0927 0.5865,0.0609 0.9717,-0.0958 0.3804,-0.1551 0.6307,-0.3538 0.7489,-0.5973 0.1199,-0.2432 0.1233,-0.5029 0.0105,-0.7798 -0.1126,-0.2764 -0.2982,-0.4606 -0.5562,-0.5528 -0.2588,-0.0918 -0.5788,-0.0603 -0.9609,0.0953 z m 2.3751,5.9108 0.1557,0.7157 c -0.3963,0.0995 -0.7393,0.0865 -1.0287,-0.0374 -0.2889,-0.1244 -0.5279,-0.3535 -0.7161,-0.6885 -0.233,-0.4144 -0.2829,-0.8351 -0.1499,-1.2614 0.1335,-0.4261 0.4453,-0.7776 0.9371,-1.054 0.5193,-0.2919 0.9987,-0.3846 1.4375,-0.2783 0.4379,0.1063 0.7803,0.3784 1.0264,0.8158 0.2146,0.3818 0.2758,0.756 0.1837,1.1211 -0.0536,0.2177 -0.1857,0.4314 -0.3963,0.6435 l -0.4986,-0.5398 c 0.1406,-0.1278 0.225,-0.2766 0.2528,-0.4464 0.0275,-0.1701 -0.0056,-0.3388 -0.0998,-0.5057 -0.1301,-0.2319 -0.3191,-0.3733 -0.566,-0.4238 -0.2469,-0.0513 -0.5562,0.0278 -0.9281,0.237 -0.3937,0.2211 -0.6347,0.4504 -0.722,0.6862 -0.0879,0.2367 -0.0674,0.4683 0.0601,0.6954 0.0944,0.1678 0.2285,0.2826 0.4031,0.3433 0.1746,0.0606 0.3909,0.0538 0.6491,-0.0227 z m 2.4245,3.7346 0.2251,0.6971 c -0.3847,0.1377 -0.7271,0.1584 -1.0273,0.0637 -0.2999,-0.0955 -0.5601,-0.3001 -0.7801,-0.6151 -0.2727,-0.3897 -0.3634,-0.8033 -0.273,-1.2407 0.0913,-0.4371 0.3674,-0.8172 0.8297,-1.1407 0.4882,-0.3412 0.9562,-0.4804 1.4032,-0.4178 0.4464,0.0629 0.8138,0.3002 1.1012,0.7115 0.2512,0.3589 0.3487,0.7254 0.2929,1.0979 -0.0321,0.2216 -0.1426,0.4473 -0.3314,0.6789 L 28.366,86.8927 c 0.1273,-0.1409 0.197,-0.2971 0.2078,-0.4689 0.0108,-0.1721 -0.0388,-0.3365 -0.1485,-0.4935 -0.1525,-0.218 -0.3544,-0.3404 -0.6052,-0.3662 -0.2506,-0.0272 -0.5508,0.0822 -0.9003,0.3265 -0.3702,0.2588 -0.5876,0.5105 -0.6514,0.7537 -0.0641,0.2441 -0.0213,0.4726 0.1281,0.6863 0.1103,0.1576 0.2551,0.2588 0.4346,0.3019 0.1797,0.0434 0.3943,0.0153 0.6437,-0.0862 z m 3.0161,0.2685 0.4399,0.5119 -1.8082,1.5528 2.753,-0.4527 0.4691,0.5463 -2.7161,2.3326 -0.44,-0.5122 1.7793,-1.5279 -2.7238,0.428 -0.4691,-0.5462 z m 1.9,7.1781 1.027,-1.0865 -0.1066,-0.1006 c -0.1666,-0.1576 -0.3067,-0.2432 -0.4223,-0.258 -0.1148,-0.0158 -0.3714,0.0227 -0.7696,0.1126 l -0.9136,0.2123 -0.6282,-0.5939 0.7974,-0.2075 c 0.3152,-0.0839 0.5485,-0.1304 0.6987,-0.1411 0.1511,-0.0105 0.313,0.0048 0.4845,0.0465 -0.2055,-0.2665 -0.3002,-0.5154 -0.2838,-0.7478 0.0165,-0.2319 0.11,-0.4391 0.2824,-0.6214 0.1499,-0.1587 0.3228,-0.2613 0.5184,-0.3081 0.1956,-0.0468 0.3787,-0.0295 0.5491,0.0522 0.1703,0.0819 0.3861,0.2457 0.6466,0.4918 l 1.1063,1.046 -2.4593,2.6016 z m 2.0435,-2.1619 -0.4099,-0.3875 c -0.208,-0.1968 -0.3495,-0.3218 -0.4235,-0.3742 -0.0745,-0.0524 -0.1618,-0.074 -0.2607,-0.0641 -0.0987,0.0097 -0.1891,0.0584 -0.2725,0.1463 -0.0864,0.0916 -0.1321,0.1857 -0.1374,0.2826 -0.0057,0.097 0.0209,0.1848 0.0785,0.2648 0.0584,0.0793 0.1956,0.2214 0.4119,0.4257 l 0.3886,0.3677 z m 0.1882,3.2034 0.5395,0.4224 -0.3025,0.3866 c -0.1224,0.1562 -0.2327,0.2699 -0.3299,0.3387 -0.0978,0.0695 -0.2126,0.1106 -0.3433,0.1239 -0.1313,0.0133 -0.2704,-0.0054 -0.4173,-0.0538 l 0.0703,-0.3068 c 0.1367,0.0488 0.2517,0.0596 0.3473,0.0326 0.0941,-0.0269 0.1856,-0.0938 0.2735,-0.2006 l -0.2599,-0.2036 z m 4.4572,3.9745 1.4738,-2.5841 -0.9207,-0.5253 0.2996,-0.5258 2.467,1.4071 -0.2996,0.5256 -0.9168,-0.5227 -1.4737,2.5843 z m 4.1517,-1.7757 0.7211,0.3776 -0.1216,2.0288 1.4919,-1.3111 0.6681,0.3498 -2.3352,1.8488 c -0.2534,0.2001 -0.4762,0.3367 -0.6687,0.4096 -0.1927,0.0731 -0.3844,0.0595 -0.576,-0.0408 -0.1891,-0.0992 -0.3302,-0.1891 -0.4238,-0.269 l 0.2498,-0.4768 c 0.0878,0.0533 0.1681,0.0992 0.2412,0.1375 0.1477,0.0773 0.2682,0.1054 0.3606,0.0856 0.0924,-0.0216 0.2157,-0.1063 0.3682,-0.2554 z m 3.7105,1.7351 2.3417,0.8969 -1.2801,3.3432 -0.6772,-0.2591 1.0638,-2.7782 -1.0037,-0.3844 -0.5465,1.4269 c -0.1565,0.4088 -0.2801,0.6891 -0.3688,0.8397 -0.0893,0.1516 -0.2041,0.2528 -0.3441,0.3027 -0.1406,0.0499 -0.3229,0.032 -0.548,-0.0541 -0.0794,-0.0307 -0.2194,-0.0933 -0.4223,-0.188 l 0.2004,-0.5235 0.1502,0.0601 c 0.1409,0.0538 0.2435,0.0717 0.3067,0.0521 0.0635,-0.0193 0.1233,-0.1035 0.1803,-0.252 l 0.2174,-0.5754 z m 3.7242,1.2932 0.6959,0.2024 -0.3991,1.3731 0.9272,0.2696 c 0.4371,0.1272 0.7234,0.3217 0.8597,0.5833 0.1367,0.2619 0.1627,0.5358 0.0794,0.8226 -0.068,0.2342 -0.1854,0.4162 -0.3524,0.5457 -0.1661,0.1304 -0.3336,0.2024 -0.5034,0.2163 -0.1692,0.0142 -0.3977,-0.0201 -0.6848,-0.1038 l -1.622,-0.4716 z m -0.1347,3.0591 0.6744,0.1962 c 0.2185,0.0635 0.3739,0.0972 0.4637,0.1009 0.0902,0.004 0.18,-0.0224 0.2682,-0.0774 0.0882,-0.0553 0.1474,-0.1369 0.1791,-0.2457 0.0457,-0.1568 0.0219,-0.2875 -0.0694,-0.3932 -0.0927,-0.106 -0.2747,-0.1987 -0.5485,-0.2784 l -0.705,-0.2049 z m 5.8856,0.4343 0.6642,0.3084 c -0.1599,0.3756 -0.3776,0.6412 -0.6512,0.7968 -0.2735,0.1554 -0.6006,0.2072 -0.981,0.1548 -0.4714,-0.0646 -0.8365,-0.2789 -1.0962,-0.6426 -0.2585,-0.3637 -0.3501,-0.8246 -0.2732,-1.3833 0.081,-0.5905 0.2967,-1.0284 0.6463,-1.3136 0.3495,-0.2852 0.7732,-0.3934 1.2702,-0.3251 0.4342,0.0595 0.7693,0.2369 1.0046,0.5309 0.1408,0.174 0.2315,0.4085 0.2732,0.7044 l -0.7313,0.0712 c -0.017,-0.1891 -0.0845,-0.3464 -0.203,-0.4712 -0.119,-0.1247 -0.2735,-0.2001 -0.4632,-0.2262 -0.2636,-0.036 -0.4904,0.0289 -0.6797,0.1953 -0.1902,0.1659 -0.3141,0.4601 -0.3719,0.8827 -0.0615,0.4474 -0.0247,0.7782 0.1105,0.9902 0.1355,0.2129 0.3323,0.3365 0.5908,0.3719 0.1907,0.0264 0.3631,-0.0113 0.5167,-0.1137 0.154,-0.1026 0.2792,-0.2792 0.3742,-0.5309 z m 2.3805,-2.0115 0.7232,0.0547 -0.1151,1.5208 c 0.1613,-0.004 0.2732,-0.0368 0.335,-0.1 0.0615,-0.0621 0.1636,-0.2407 0.3047,-0.5358 0.1778,-0.375 0.3464,-0.6049 0.504,-0.6874 0.1568,-0.0825 0.4006,-0.1117 0.7328,-0.0864 0.0167,0.001 0.0516,0.003 0.1052,0.005 l -0.0406,0.5338 -0.102,-0.0105 c -0.148,-0.011 -0.2574,-8e-4 -0.3283,0.0304 -0.0708,0.0311 -0.1301,0.0827 -0.178,0.1544 -0.0482,0.0715 -0.1219,0.2206 -0.2219,0.4471 -0.0533,0.1202 -0.1083,0.2199 -0.1664,0.299 -0.057,0.0794 -0.1534,0.1505 -0.2886,0.2138 0.1568,0.0572 0.2821,0.1593 0.3762,0.3052 0.0944,0.1457 0.1941,0.349 0.2999,0.6103 l 0.4121,1.014 -0.8478,-0.0644 -0.3583,-0.9513 c -0.0054,-0.0136 -0.0176,-0.0399 -0.0357,-0.0788 -0.0074,-0.013 -0.0329,-0.072 -0.0769,-0.1746 -0.0779,-0.1831 -0.1445,-0.2985 -0.1995,-0.3469 -0.0559,-0.0485 -0.1429,-0.0777 -0.2631,-0.0885 l -0.1182,1.5605 -0.7231,-0.0547 z m 6.9667,3.6383 -0.7809,0.0119 -0.3212,-0.8104 -1.436,0.0218 -0.2849,0.8192 -0.7667,0.0116 1.3359,-3.6008 0.7657,-0.0113 z m -1.3464,-1.3997 -0.5176,-1.3176 -0.4632,1.3323 z m 4.8141,0.8795 -0.2036,-1.4811 -0.1451,0.0199 c -0.227,0.0312 -0.3818,0.0867 -0.4657,0.1675 -0.0842,0.0797 -0.2149,0.3036 -0.3943,0.6704 l -0.4071,0.845 -0.856,0.1177 0.3376,-0.7515 c 0.1321,-0.2982 0.242,-0.5091 0.3276,-0.633 0.0865,-0.1241 0.1999,-0.2407 0.3399,-0.3484 -0.3364,-0.007 -0.5899,-0.089 -0.7608,-0.2471 -0.1704,-0.1582 -0.2733,-0.3612 -0.3076,-0.6098 -0.0294,-0.216 -0.0014,-0.415 0.0848,-0.597 0.0859,-0.1817 0.2143,-0.3138 0.3849,-0.3951 0.1704,-0.0816 0.4332,-0.1471 0.7881,-0.1959 l 1.5083,-0.2072 0.4873,3.5467 z m -0.4048,-2.9474 -0.559,0.0768 c -0.2838,0.0391 -0.4697,0.0711 -0.557,0.0958 -0.0876,0.0252 -0.159,0.0797 -0.2132,0.163 -0.0544,0.0831 -0.0731,0.184 -0.0567,0.3039 0.0173,0.1247 0.0621,0.2194 0.1341,0.2843 0.072,0.0652 0.1573,0.0995 0.2557,0.1046 0.0983,0.004 0.2951,-0.0136 0.5899,-0.0542 l 0.5301,-0.0728 z m 4.8041,0.1633 c -0.1102,-0.3481 -0.1502,-0.6571 -0.1213,-0.927 0.0218,-0.1984 0.0788,-0.3886 0.1692,-0.5692 0.0902,-0.1808 0.2047,-0.3299 0.343,-0.4481 0.1846,-0.1571 0.4156,-0.2804 0.6934,-0.3685 0.5037,-0.1596 0.9555,-0.1307 1.3572,0.0856 0.4008,0.2174 0.6897,0.6038 0.8663,1.1608 0.1752,0.5521 0.1618,1.0318 -0.0388,1.4383 -0.2007,0.407 -0.5522,0.6896 -1.0537,0.8487 -0.5077,0.161 -0.9609,0.1343 -1.3589,-0.0811 -0.3977,-0.2152 -0.6834,-0.595 -0.8564,-1.1395 z m 0.703,-0.2486 c 0.1228,0.3869 0.3056,0.6516 0.5477,0.7954 0.2421,0.1425 0.5009,0.1706 0.7758,0.0833 0.2756,-0.0873 0.4697,-0.258 0.584,-0.5119 0.1133,-0.2546 0.1074,-0.5797 -0.0185,-0.976 -0.1241,-0.3918 -0.3024,-0.6568 -0.5357,-0.7943 -0.2327,-0.1389 -0.4913,-0.1627 -0.7764,-0.0723 -0.2846,0.0902 -0.483,0.2608 -0.5953,0.5106 -0.112,0.2503 -0.106,0.572 0.0184,0.9652 z m 3.1037,-2.9818 2.4378,-1.1007 0.2491,0.5516 -1.7773,0.8025 0.3416,0.7563 0.8804,-0.3974 c 0.2421,-0.1094 0.4578,-0.171 0.6441,-0.1837 0.1868,-0.0133 0.3727,0.0343 0.5584,0.1437 0.1851,0.1083 0.3271,0.2699 0.4241,0.485 0.0995,0.2203 0.1278,0.4351 0.0839,0.644 -0.0431,0.2081 -0.1242,0.3742 -0.245,0.4984 -0.1196,0.1236 -0.3146,0.2466 -0.5842,0.3682 l -1.5395,0.6951 z m 1.885,2.4134 0.6404,-0.2891 c 0.2043,-0.0922 0.3441,-0.1676 0.4178,-0.2245 0.0743,-0.057 0.1267,-0.135 0.1565,-0.2333 0.0297,-0.0978 0.0212,-0.1982 -0.0253,-0.3005 -0.0674,-0.1497 -0.1703,-0.2339 -0.3084,-0.254 -0.1383,-0.019 -0.3367,0.0295 -0.5967,0.1469 l -0.6689,0.3021 z m 2.0367,-4.3378 2.1858,-1.2292 1.7547,3.1207 -0.6322,0.3555 -1.4578,-2.5932 -0.9372,0.5267 0.749,1.332 c 0.2145,0.3816 0.3514,0.6557 0.4104,0.8201 0.0595,0.1655 0.0644,0.3186 0.013,0.4583 -0.0513,0.1398 -0.1817,0.2688 -0.3914,0.3867 -0.0743,0.0417 -0.212,0.1094 -0.4147,0.2052 l -0.2747,-0.4887 0.1423,-0.0771 c 0.1315,-0.074 0.2109,-0.1417 0.2361,-0.2027 0.0255,-0.0612 -8e-4,-0.1612 -0.0788,-0.2999 l -0.3039,-0.5349 z m 5.3515,0.9274 -0.3926,-0.5612 0.5613,-0.3926 0.3929,0.5612 z m 1.4916,-1.8992 0.5395,-0.4223 0.3027,0.3866 c 0.1222,0.1562 0.2061,0.2903 0.2497,0.4011 0.044,0.112 0.0564,0.233 0.0377,0.3634 -0.0181,0.1307 -0.07,0.2611 -0.1522,0.3921 l -0.2809,-0.1421 c 0.0799,-0.1207 0.1185,-0.2301 0.1148,-0.3291 -0.0034,-0.0978 -0.0462,-0.2029 -0.129,-0.3138 l -0.2599,0.2036 z m 1.8777,-5.4201 1.7436,-1.6855 0.4207,0.4351 -1.2223,1.1815 2.0678,2.1388 -0.5215,0.504 z m 4.661,0.311 -0.5187,-0.4473 0.447,-0.5191 0.519,0.4473 z m 3.6938,-4.6687 -2.5174,-1.5854 -0.565,0.8972 -0.5119,-0.3226 1.5134,-2.4032 0.512,0.3225 -0.5621,0.8927 2.5171,1.5854 z m -1.61,-4.2026 0.403,-0.7073 2.0231,0.1945 -1.2566,-1.5381 0.3736,-0.6551 1.7638,2.3998 c 0.191,0.2605 0.3194,0.4881 0.3852,0.6832 0.0663,0.195 0.0459,0.386 -0.0615,0.574 -0.1058,0.1854 -0.2004,0.3231 -0.2838,0.4138 l -0.4677,-0.2667 c 0.0567,-0.0859 0.1055,-0.1644 0.1463,-0.2361 0.0825,-0.1449 0.1151,-0.2642 0.0983,-0.3575 -0.0181,-0.0929 -0.0983,-0.2191 -0.242,-0.3767 z m 1.9649,-3.7154 1.0472,-2.2782 3.253,1.495 -0.3027,0.6588 -2.7032,-1.2422 -0.449,0.9765 1.3887,0.6381 c 0.3977,0.1829 0.6693,0.3243 0.8136,0.4227 0.1454,0.0989 0.2392,0.2202 0.2797,0.3634 0.0406,0.1431 0.0108,0.324 -0.0895,0.5428 -0.0357,0.0774 -0.1075,0.2132 -0.2152,0.4096 l -0.5094,-0.2341 0.0698,-0.1463 c 0.0632,-0.1369 0.0876,-0.2384 0.072,-0.3025 -0.0151,-0.0646 -0.0953,-0.1298 -0.2398,-0.1964 l -0.5599,-0.2545 z m 5.7855,-5.5018 -0.2179,0.7498 -0.8689,0.0692 -0.4008,1.379 0.6993,0.5131 -0.214,0.7361 -3.0495,-2.3343 0.2137,-0.7353 z m -1.7333,0.8759 -1.4114,0.1078 1.1375,0.8342 z" />
  <path
     id="path19"
     style="fill:#1b1918;fill-rule:evenodd"
     d="m 21.3544,62.616 2.1492,4.6602 h -1.2014 l -2.6567,-4.6602 2.6567,-4.6598 h 1.2182 z m 3.1983,0 2.1996,4.6602 h -1.2522 l -2.6058,-4.6602 2.6058,-4.6598 h 1.2522 z m 4.2164,-1.9054 c 0,-2.4855 0.5412,-4.4335 1.6214,-5.8398 1.0802,-1.4068 2.4734,-2.1082 4.1823,-2.1082 1.1198,0 2.1267,0.3315 3.0262,0.9911 0.897,0.6597 1.5822,1.5814 2.0531,2.7646 0.4709,1.1796 0.708,2.5202 0.708,4.0178 0,1.5179 -0.2484,2.8793 -0.7447,4.0765 -0.4963,1.2008 -1.1987,2.1086 -2.1065,2.7229 -0.9111,0.6175 -1.8926,0.9249 -2.9443,0.9249 -1.1423,0 -2.1604,-0.3421 -3.0599,-1.0226 -0.8969,-0.681 -1.5795,-1.6091 -2.0422,-2.7891 -0.4623,-1.1763 -0.6934,-2.4225 -0.6934,-3.7381 z m 1.658,0.0347 c 0,1.8045 0.392,3.2252 1.176,4.2617 0.7843,1.0369 1.7684,1.5568 2.9529,1.5568 1.207,0 2.197,-0.5236 2.978,-1.5707 0.7783,-1.0471 1.1677,-2.5341 1.1677,-4.4608 0,-1.2184 -0.1665,-2.2826 -0.4994,-3.1904 -0.3325,-0.9074 -0.8206,-1.6124 -1.4605,-2.1119 -0.6433,-0.499 -1.3622,-0.7504 -2.1604,-0.7504 -1.1336,0 -2.1095,0.4819 -2.9275,1.4453 -0.8176,0.9633 -1.2268,2.5692 -1.2268,4.8204 z m 18.2045,-8.0878 1.32,0.0213 c -0.0595,0.7291 -0.1919,1.2388 -0.392,1.5254 -0.2005,0.2861 -0.4571,0.4675 -0.7727,0.5513 -0.3161,0.0801 -0.9366,0.1222 -1.8586,0.1222 -1.2241,0 -2.059,0.1468 -2.5044,0.4398 -0.4429,0.293 -0.7642,0.761 -0.959,1.4031 -0.1945,0.6458 -0.3015,1.4731 -0.3243,2.4887 0.3751,-0.6911 0.8124,-1.2078 1.3143,-1.5531 0.4993,-0.3458 1.066,-0.5166 1.6921,-0.5166 1.1509,0 2.1039,0.4888 2.8598,1.4661 0.7529,0.9772 1.1307,2.3002 1.1307,3.9723 0,1.267 -0.1889,2.3072 -0.5697,3.1169 -0.3807,0.8096 -0.8318,1.4378 -1.3536,1.8813 -0.5187,0.4435 -1.2294,0.6634 -2.1263,0.6634 -1.0435,0 -1.8529,-0.2935 -2.4312,-0.8833 -0.5782,-0.5897 -1.0207,-1.3439 -1.3311,-2.2618 -0.3075,-0.918 -0.4623,-2.5202 -0.4623,-4.7996 0,-2.8655 0.392,-4.7959 1.1729,-5.7908 0.7814,-0.9948 1.9857,-1.4906 3.6101,-1.4906 1.0125,0 1.5848,-0.0208 1.7231,-0.0625 0.1354,-0.0421 0.2226,-0.1398 0.2622,-0.2935 z m -0.0508,9.8677 c 0,-1.1272 -0.217,-2.0521 -0.6486,-2.7747 -0.4316,-0.7227 -1.0405,-1.0819 -1.8275,-1.0819 -0.8206,0 -1.4523,0.3801 -1.8981,1.1448 -0.4455,0.7606 -0.6684,1.7767 -0.6684,3.0507 0,1.2564 0.2453,2.2197 0.739,2.8868 0.4908,0.6666 1.1001,1.0018 1.8189,1.0018 0.7391,0 1.3368,-0.3875 1.7965,-1.1592 0.46,-0.7712 0.6882,-1.7938 0.6882,-3.0683 z m 3.3479,9.6516 V 57.1396 h 1.3536 v 1.4276 c 0.3186,-0.5513 0.6796,-0.967 1.0831,-1.2425 0.4002,-0.2759 0.8883,-0.4157 1.4606,-0.4157 0.7503,0 1.4101,0.2375 1.9827,0.7157 0.5726,0.4745 1.0039,1.1485 1.2975,2.0142 0.2902,0.8689 0.4368,1.8184 0.4368,2.8553 0,1.1064 -0.1604,2.1045 -0.4821,2.9947 -0.3216,0.8865 -0.7895,1.5674 -1.4044,2.0419 -0.6119,0.4713 -1.2579,0.7088 -1.9349,0.7088 -0.4963,0 -0.9418,-0.1292 -1.3337,-0.3875 -0.395,-0.2583 -0.7163,-0.5833 -0.9702,-0.9777 v 5.3024 z m 1.3536,-9.5363 c 0,1.3929 0.2285,2.4225 0.6825,3.0891 0.4567,0.6666 1.0095,1.0018 1.6585,1.0018 0.6598,0 1.2238,-0.3454 1.6921,-1.0365 0.4709,-0.6912 0.705,-1.7591 0.705,-3.2081 0,-1.3818 -0.2285,-2.4151 -0.6882,-3.103 -0.4597,-0.6874 -1.0069,-1.0295 -1.6442,-1.0295 -0.6317,0 -1.1902,0.3666 -1.6753,1.0962 -0.4877,0.7328 -0.7304,1.7938 -0.7304,3.19 z m 13.794,4.0071 c -0.5528,0.5833 -1.0858,0.9916 -1.5964,1.2323 -0.5105,0.2407 -1.0577,0.3597 -1.6442,0.3597 -0.9646,0 -1.7063,-0.2898 -2.225,-0.8726 -0.5192,-0.5796 -0.7784,-1.3231 -0.7784,-2.2272 0,-0.5305 0.0988,-1.0156 0.2932,-1.4554 0.1975,-0.4398 0.4541,-0.7888 0.7698,-1.0541 0.3187,-0.2652 0.674,-0.468 1.0719,-0.6041 0.2933,-0.094 0.7361,-0.1847 1.3252,-0.2759 1.2017,-0.1745 2.0901,-0.387 2.6567,-0.6314 0.0056,-0.2514 0.0086,-0.412 0.0086,-0.4782 0,-0.7472 -0.141,-1.274 -0.423,-1.5814 -0.3808,-0.4152 -0.9478,-0.6212 -1.6977,-0.6212 -0.7024,0 -1.2212,0.1537 -1.5541,0.4573 -0.3355,0.3037 -0.5808,0.8412 -0.7417,1.6161 l -1.4553,-0.2514 c 0.1328,-0.7716 0.3497,-1.3961 0.6545,-1.8711 0.3045,-0.4745 0.7443,-0.8374 1.3196,-1.0957 0.5726,-0.2551 1.241,-0.3843 1.9969,-0.3843 0.7503,0 1.3622,0.1084 1.8331,0.3282 0.4683,0.2199 0.815,0.4921 1.0349,0.8241 0.22,0.3314 0.3752,0.7504 0.4653,1.2563 0.0483,0.3144 0.0733,0.8796 0.0733,1.6929 v 2.4434 c 0,1.7068 0.0311,2.7854 0.0932,3.2428 0.0594,0.4573 0.1832,0.8934 0.3639,1.3123 h -1.5567 c -0.1496,-0.3874 -0.2454,-0.8411 -0.2876,-1.3614 z m -0.1186,-4.0839 c -0.5416,0.2722 -1.3536,0.5027 -2.4368,0.6911 -0.6149,0.1083 -1.0491,0.2305 -1.3027,0.3666 -0.254,0.1361 -0.4484,0.3352 -0.5868,0.5935 -0.1381,0.2616 -0.2087,0.5514 -0.2087,0.8726 0,0.4852 0.1496,0.8935 0.4514,1.218 0.3018,0.325 0.7417,0.4888 1.3199,0.4888 0.5723,0 1.0828,-0.1537 1.5313,-0.4643 0.4455,-0.3069 0.7753,-0.7296 0.9841,-1.2633 0.1608,-0.4157 0.2397,-1.0263 0.2397,-1.8327 z m 5.5505,0.5235 v -1.4448 c 0.6261,-0.0069 1.0548,-0.0384 1.2803,-0.0907 0.2285,-0.056 0.4455,-0.2166 0.6486,-0.4888 0.2031,-0.2722 0.3044,-0.6106 0.3044,-1.0194 0,-0.4921 -0.1324,-0.8897 -0.4002,-1.1832 -0.2682,-0.2968 -0.6119,-0.4431 -1.0379,-0.4431 -0.8374,0 -1.4243,0.6074 -1.7598,1.8221 l -1.4213,-0.2935 c 0.4399,-2.0243 1.5058,-3.0368 3.1923,-3.0368 0.9362,0 1.6697,0.3144 2.2026,0.9463 0.533,0.6314 0.7982,1.3855 0.7982,2.2618 0,0.8828 -0.3471,1.5878 -1.0379,2.1082 0.4428,0.293 0.7727,0.6666 0.9956,1.1202 0.22,0.4542 0.3299,0.9916 0.3299,1.6129 0,0.974 -0.2876,1.7628 -0.8602,2.3701 -0.5753,0.6074 -1.3761,0.9111 -2.4084,0.9111 -2.0025,0 -3.1642,-1.0962 -3.4829,-3.2882 l 1.4045,-0.3773 c 0.1268,0.6912 0.3834,1.2291 0.7727,1.6092 0.389,0.3805 0.8319,0.5694 1.3338,0.5694 0.5019,0 0.9193,-0.1746 1.2522,-0.5273 0.3329,-0.3491 0.4993,-0.7958 0.4993,-1.3402 0,-0.4226 -0.1043,-0.7893 -0.313,-1.1031 -0.2087,-0.3143 -0.4316,-0.5097 -0.6684,-0.5865 -0.2371,-0.0801 -0.6658,-0.1186 -1.2863,-0.1186 -0.0505,0 -0.1634,0.0033 -0.3381,0.0102 z m 11.6135,1.4036 1.5398,0.2509 c -0.2397,1.1069 -0.6882,1.9688 -1.3423,2.5799 -0.6542,0.6106 -1.489,0.918 -2.5071,0.918 -1.2803,0 -2.2958,-0.4889 -3.0461,-1.4661 -0.7499,-0.974 -1.125,-2.3456 -1.125,-4.1085 0,-1.822 0.3777,-3.239 1.1366,-4.2445 0.7585,-1.0087 1.7426,-1.5115 2.9526,-1.5115 1.1703,0 2.1263,0.4921 2.8684,1.48 0.7416,0.9879 1.1138,2.3771 1.1138,4.1677 0,0.1083 -0.003,0.2722 -0.0086,0.4889 H 79.164 c 0.0561,1.1901 0.3269,2.1049 0.8176,2.7363 0.4881,0.6319 1.1,0.9495 1.8305,0.9495 0.5442,0 1.0095,-0.1778 1.3932,-0.5338 0.3864,-0.356 0.6908,-0.9249 0.9164,-1.7068 z m -4.8732,-2.953 h 4.89 c -0.0647,-0.9147 -0.2536,-1.5989 -0.561,-2.0563 -0.4709,-0.7083 -1.0858,-1.0643 -1.8387,-1.0643 -0.6826,0 -1.2553,0.2824 -1.7205,0.8481 -0.4623,0.5653 -0.7189,1.3231 -0.7698,2.2725 z m 8.3112,-4.3982 h 1.489 v 9.3617 h 4.1288 v -9.3617 h 1.489 v 9.3617 h 0.9646 v 4.5862 H 94.4129 V 68.009 h -6.8532 z m 15.0911,5.4764 -2.1828,-4.6598 h 1.2182 l 2.6735,4.6598 -2.6563,4.6602 h -1.2185 z m -3.1982,0 -2.1997,-4.6598 h 1.2522 l 2.6059,4.6598 -2.6059,4.6602 h -1.2522 z" />
</svg>
