<?xml version="1.0" encoding="utf-8"?>
<!-- Generator: Adobe Illustrator 26.4.1, SVG Export Plug-In . SVG Version: 6.00 Build 0)  -->
<svg version="1.1"
	 id="svg27" xmlns:svg="http://www.w3.org/2000/svg" xmlns:rdf="http://www.w3.org/1999/02/22-rdf-syntax-ns#" xmlns:cc="http://creativecommons.org/ns#" xmlns:dc="http://purl.org/dc/elements/1.1/"
	 xmlns="http://www.w3.org/2000/svg" xmlns:xlink="http://www.w3.org/1999/xlink" x="0px" y="0px" viewBox="0 0 127.6 127.6"
	 style="enable-background:new 0 0 127.6 127.6;" xml:space="preserve">
<style type="text/css">
	.st0{fill:none;stroke:#1B1918;stroke-width:0.7087;}
	.st1{fill:none;stroke:#1B1918;stroke-width:0.8504;}
	.st2{fill-rule:evenodd;clip-rule:evenodd;fill:#1B1918;}
</style>
<path id="path4" class="st0" d="M65.1,11.6c27.7,0,50.1,22.4,50.1,50.1s-22.4,50.1-50.1,50.1S15,89.4,15,61.7S37.4,11.6,65.1,11.6z"
	/>
<path id="path6" class="st1" d="M17.4,52.6h12.3c4-15.5,18.1-27,34.9-27c16.8,0,30.9,11.5,34.9,27h13.3 M112.8,71.8H99.2
	c-4.4,15-18.2,26-34.6,26c-16.4,0-30.3-11-34.6-26H17.4"/>
<path id="path8" class="st2" d="M23.3,47c0.4-1.1-0.2-2.1-1.4-2.6c-1.3-0.4-2.3,0.1-2.7,1.2c-0.3,1,0.1,2.1,1.4,2.6
	C21.8,48.6,22.9,48.1,23.3,47z M22.9,46.9c-0.1,0.3-0.5,0.9-2,0.3c-1.4-0.5-1.6-1-1.4-1.5c0.3-0.9,1.5-0.5,2-0.3
	C23.1,45.9,23,46.5,22.9,46.9z M22,39.3l-1.3,2.6l0.3,0.1l0.1-0.1c0.1-0.2,0.2-0.3,0.4-0.1l2.6,1.4c0.3,0.1,0.2,0.3,0.1,0.4
	l-0.1,0.1l0.3,0.1l1-2c0.4-0.7,0.2-1.4-0.4-1.8c-0.5-0.3-1.3-0.3-1.9,1c-0.1,0.1-0.1,0.3-0.2,0.4L21.9,41c-0.1-0.1-0.3-0.1-0.1-0.4
	c0,0,0-0.1,0.1-0.1c0.2-0.4,0.4-0.6,1-0.7l0.1-0.2L22,39.3z M23.1,41.6c0-0.1,0-0.1,0.1-0.2c0.2-0.4,0.5-0.9,1.2-0.6
	c0.8,0.4,0.5,1,0.5,1.2c0,0,0,0.1-0.1,0.1c-0.1,0.2-0.2,0.3-0.4,0.1L23.1,41.6z M25.3,33.7l0.3,0.2l0.1-0.1c0,0,0.1-0.2,0.4,0
	l2.4,1.5c0.2,0.1,0.2,0.2,0.1,0.4l-0.3,0.4c-0.2,0.3-0.3,0.2-0.4,0.1l-2.4-1.5c-0.1-0.1-0.3-0.2-0.1-0.4l0-0.1L25.1,34l-0.9,1.5
	l0.3,0.2l0.1-0.1c0.1-0.2,0.2-0.2,0.4-0.1l2.4,1.5c0.2,0.1,0.2,0.2,0.1,0.4l-0.3,0.4c-0.2,0.3-0.3,0.2-0.4,0.1l-2.4-1.5
	c-0.1-0.1-0.3-0.2-0.1-0.4l0-0.1L24,35.7l-0.9,1.5l0.3,0.2l0-0.1c0.2-0.3,0.3-0.2,0.4-0.1l2.5,1.6c0.1,0.1,0.3,0.2,0.1,0.4l0,0.1
	l0.3,0.2l2.4-3.8c0.3-0.5,0.5-0.7,0.8-0.8c0.2-0.1,0.5-0.2,0.9-0.1l0.1-0.2l-1.2-0.5c-0.2,0.3-0.4,0.5-0.7,0.3l-2.4-1.5
	c-0.2-0.1-0.2-0.3-0.1-0.4l0-0.1l-0.3-0.2L25.3,33.7z M29.7,28.4l-2,2.3l0.2,0.2l0.1-0.1c0.2-0.2,0.3-0.1,0.4,0l2.2,1.9
	c0.1,0.1,0.2,0.2,0,0.5l-0.1,0.1l0.2,0.2L33,31l-0.6-0.8l-0.1,0.1c0.3,0.6,0,1-0.2,1.2l-0.3,0.4c-0.2,0.2-0.3,0.2-0.5,0l-1-0.9
	l0.4-0.5c0.2-0.2,0.3-0.4,0.6-0.1l0.1-0.1l-0.9-0.8l-0.1,0.1c0.3,0.3,0.1,0.5-0.2,0.8l-0.3,0.3l-0.8-0.7c-0.2-0.2-0.2-0.3,0-0.5
	l0.3-0.3c0.1-0.2,0.5-0.5,1.1-0.3l0.1-0.1L29.7,28.4z M34.5,25.3l-0.6-0.6c-0.4,0.1-0.8,0.3-1.2,0.5c-0.9,0.8-1,1.9-0.1,3
	c0.9,1,2,1.1,2.9,0.3c0.3-0.2,0.7-0.7,0.8-1.2l-0.6-0.8l-0.1,0.1c0.2,0.5,0.2,1.1-0.2,1.5c-0.3,0.3-1,0.5-2-0.5
	c-0.9-1.1-0.8-1.8-0.4-2.2c0.3-0.2,0.7-0.3,1.3,0L34.5,25.3z M37.9,21.4l-2.5,1.8l0.3,0.9l0.1-0.1c0-0.6,0.2-0.8,0.4-0.9
	c0.1-0.1,0.2-0.2,0.4,0l1.7,2.4c0.1,0.1,0.2,0.3-0.1,0.4L38.1,26l0.2,0.2l1.5-1L39.6,25L39.5,25c-0.3,0.2-0.4,0.1-0.4-0.1l-1.7-2.4
	c-0.1-0.2,0-0.3,0.1-0.4c0.1-0.1,0.4-0.3,1-0.1l0.2-0.1L37.9,21.4z M39.5,20.4l0.2,0.3l0.1-0.1c0.2-0.1,0.3-0.1,0.5,0.2l1.4,2.4
	c0.1,0.2,0.2,0.4-0.1,0.5l-0.1,0.1l0.2,0.3l1.8-1c0.2-0.1,1.3-0.7,0.7-1.8c-0.3-0.6-1-0.7-1.4-0.4l0,0c0.3-0.2,0.6-0.7,0.3-1.2
	c-0.5-0.8-1.4-0.3-1.9,0L39.5,20.4z M41,20.3c-0.1-0.2-0.1-0.3,0.1-0.4c0.2-0.1,0.7-0.3,1,0.3c0.3,0.5-0.1,0.8-0.6,1.1L41,20.3z
	 M41.7,21.6c0.1-0.1,0.2-0.1,0.3-0.2c0.7-0.3,1,0.1,1.1,0.3c0.1,0.2,0.3,0.8-0.3,1.2c0,0,0,0,0,0c-0.3,0.1-0.3,0-0.4-0.1L41.7,21.6z
	 M47.6,20.9c1-0.5,1.4-1.6,0.9-2.8c-0.5-1.2-1.6-1.6-2.7-1.2c-0.9,0.4-1.5,1.5-0.9,2.8C45.4,21,46.5,21.4,47.6,20.9z M47.4,20.6
	c-0.3,0.1-1,0.3-1.6-1.2c-0.6-1.3-0.3-1.8,0.1-2.1c0.9-0.4,1.4,0.8,1.6,1.2C48.3,20,47.8,20.5,47.4,20.6z M55.7,15.1l-0.2-0.8
	c-0.4-0.1-0.9-0.2-1.3-0.1c-1.1,0.3-1.8,1.2-1.5,2.6c0.3,1.3,1.3,1.9,2.4,1.6c0.4-0.1,0.9-0.3,1.3-0.7l-0.2-0.9l-0.2,0
	c0,0.5-0.3,1.1-0.9,1.2c-0.4,0.1-1.2,0-1.5-1.4c-0.3-1.4,0.2-2,0.7-2.1c0.3-0.1,0.7,0,1.1,0.6L55.7,15.1z M62.6,17.4
	c1.1-0.1,1.9-1,1.8-2.3c-0.1-1.3-1-2.1-2.1-2c-1,0.1-1.9,0.9-1.8,2.3C60.6,16.7,61.5,17.5,62.6,17.4z M62.6,17c-0.4,0-1-0.1-1.1-1.7
	c-0.1-1.4,0.3-1.8,0.8-1.9c0.9-0.1,1.1,1.2,1.1,1.7C63.5,16.8,62.9,17,62.6,17z M68.9,13.1L66,13.1l0,0.3l0.1,0
	c0.2,0,0.3,0.1,0.3,0.3l-0.1,2.9c0,0.3-0.1,0.3-0.3,0.3L66,17l0,0.3l1.9,0l0-0.3l-0.2,0c-0.3,0-0.3-0.2-0.3-0.3l0.1-2.8
	c0,0,0-0.1,0-0.1c0-0.1,0-0.3,0.3-0.3l0.1,0c0.3,0,0.7,0.1,1.1,0.6l0.2,0L68.9,13.1z M71.8,16.1l0.3,0c1.5,0.2,1.9-0.4,2-1
	c0.1-0.6-0.2-1.4-1.5-1.6l-1.8-0.2l0,0.3l0.1,0c0.2,0,0.3,0.1,0.3,0.4L70.7,17c0,0.3-0.2,0.3-0.4,0.3l-0.1,0l0,0.3l1.9,0.2l0-0.3
	l-0.2,0c-0.2,0-0.3-0.1-0.3-0.4L71.8,16.1z M71.8,15.8l0.2-1.5c0-0.2,0.1-0.3,0.4-0.3c0.3,0,0.8,0.2,0.7,1c-0.1,0.4-0.3,0.9-1.1,0.8
	L71.8,15.8z M78,14.7l-0.2-0.1c-0.4,0.2-0.5,0.2-0.8,0.1L76.9,15l0.1,0c0.2,0.1,0.2,0.1,0.2,0.2c0,0.1-0.1,0.1-0.1,0.2l-1.5,2.2
	c-0.1,0.2-0.2,0.4-0.7,0.3l-0.1,0.3l1.1,0.3l0.1-0.3l-0.1,0c-0.1,0-0.1,0-0.1-0.1c0,0,0,0,0,0c0,0,0.1-0.2,0.1-0.2l0.4-0.6l1.3,0.4
	l0,0.8c0,0.1,0,0.1,0,0.1c0,0,0,0,0,0c0,0.1-0.1,0-0.1,0l-0.2-0.1l-0.1,0.3l1.4,0.4l0.1-0.3c0,0-0.1,0-0.2,0
	c-0.2-0.1-0.2-0.5-0.2-0.7L78,14.7z M77.3,15.6L77.3,15.6l0.2,1.6L76.4,17L77.3,15.6z M80.3,19.2c-0.1,0.2-0.2,0.3-0.4,0.2l-0.1,0
	l-0.1,0.3l1.6,0.6l0.1-0.3l-0.1,0c-0.2-0.1-0.3-0.2-0.2-0.4l0.5-1.4l1.4,0.5l-0.5,1.4c-0.1,0.1-0.1,0.3-0.4,0.2l-0.1,0l-0.1,0.3
	l1.6,0.6l0.1-0.3l-0.1,0c-0.3-0.1-0.2-0.3-0.2-0.4l1.1-2.7c0.1-0.2,0.1-0.3,0.5-0.2l0.1-0.3l-1.6-0.6l-0.1,0.3l0.1,0
	c0.3,0.1,0.2,0.3,0.2,0.4l-0.4,1l-1.4-0.5l0.4-1c0.1-0.2,0.2-0.3,0.4-0.2l0.1,0l0.1-0.3l-1.6-0.6L81.1,16l0.1,0
	c0.2,0.1,0.3,0.2,0.2,0.4L80.3,19.2z M87.8,19.3c0.1-0.1,0.2-0.3,0.4-0.1l0.1,0.1l0.2-0.3l-1.6-0.9l-0.2,0.3l0.1,0.1
	c0.3,0.2,0.2,0.3,0.1,0.4l-1.5,2.6c-0.1,0.1-0.2,0.3-0.4,0.1L85,21.5l-0.2,0.3l1.6,0.9l0.2-0.3l-0.1-0.1c-0.3-0.2-0.2-0.3-0.1-0.4
	l0.1-0.2l2.2-0.9l0.1,0l-1.1,1.8c-0.1,0.2-0.2,0.2-0.4,0.1l-0.1-0.1L87,23l1.6,0.9l0.2-0.3l-0.1-0.1c-0.2-0.1-0.3-0.2-0.1-0.4
	l1.5-2.6c0.1-0.2,0.3-0.2,0.4-0.1l0.1,0.1l0.2-0.3L89,19.3l-0.2,0.3l0.1,0.1c0.2,0.1,0.3,0.2,0.1,0.4l0,0.1l-2.2,0.9l-0.1,0
	L87.8,19.3z M95.2,23.4l-1.4-1l-0.2,0.2l0.1,0c0.3,0.2,0.2,0.3,0.1,0.4l-0.8,1.1c-0.2-0.1-0.6-0.3-0.7-0.4c-0.3-0.2-0.3-0.4-0.1-0.5
	l0.6-0.9c0.1-0.1,0.2-0.3,0.4-0.1l0.1,0l0.2-0.2l-1.4-1l-0.2,0.2l0.1,0c0.2,0.1,0.2,0.2,0.1,0.4l-0.7,0.9c-0.2,0.2-0.4,0.7,0.3,1.1
	l0.2,0.1c0.2,0.1,0.7,0.4,0.9,0.5l-0.7,0.9c-0.1,0.1-0.2,0.3-0.4,0.1l-0.1-0.1l-0.2,0.2l1.5,1l0.2-0.2l-0.1,0
	c-0.3-0.2-0.2-0.3-0.1-0.4l1.7-2.4c0.1-0.1,0.2-0.3,0.4-0.1l0.1,0L95.2,23.4z M99,26.8l-2.2-2.1l-0.2,0.2l0.1,0.1
	c0.2,0.2,0.1,0.3,0,0.4l-2,2.1c-0.1,0.1-0.2,0.2-0.5,0l-0.1-0.1l-0.2,0.2l2.3,2.2l0.9-0.6l-0.1-0.1c-0.7,0.2-1,0-1.2-0.2l-0.4-0.3
	c-0.2-0.2-0.2-0.3,0-0.5l0.9-1l0.4,0.4c0.2,0.2,0.3,0.4,0.1,0.6l0.1,0.1l0.8-0.8l-0.1-0.1c-0.3,0.3-0.5,0.1-0.8-0.2l-0.3-0.3
	l0.7-0.8c0.2-0.2,0.3-0.2,0.5,0l0.3,0.3c0.2,0.1,0.4,0.5,0.2,1.1l0.1,0.1L99,26.8z M98.1,30.9c-0.2,0.2-0.3,0.1-0.5,0l0-0.1L97.4,31
	l1.1,1.3l0.2-0.2l0-0.1c-0.2-0.2-0.2-0.3,0-0.5l1.1-1l1,1.1l-1.1,1c-0.1,0.1-0.2,0.2-0.5,0l-0.1-0.1L99,32.8l1.1,1.3l0.2-0.2l0-0.1
	c-0.2-0.3-0.1-0.4,0-0.5l2.2-1.9c0.1-0.1,0.2-0.2,0.5,0.1l0.2-0.2l-1.1-1.3l-0.2,0.2l0.1,0.1c0.2,0.2,0.1,0.4,0,0.5l-0.8,0.7l-1-1.1
	l0.8-0.7c0.2-0.2,0.3-0.1,0.5,0l0,0.1l0.2-0.2l-1.1-1.3l-0.2,0.2l0,0.1c0.1,0.2,0.2,0.3,0,0.4L98.1,30.9z M101.7,35.3
	c-0.2,0.1-0.3,0.1-0.4-0.1l0-0.1l-0.3,0.2l0.9,1.4l0.3-0.2l0-0.1c-0.1-0.2-0.1-0.3,0.1-0.4l1.3-0.8l0.8,1.2l-1.3,0.8
	c-0.1,0.1-0.3,0.2-0.4-0.1l0-0.1l-0.3,0.2l0.9,1.4l0.3-0.2l0-0.1c-0.2-0.3,0-0.4,0.1-0.4l2.5-1.6c0.1-0.1,0.3-0.2,0.5,0.2l0.3-0.2
	l-0.9-1.4l-0.3,0.2l0,0.1c0.2,0.3,0,0.4-0.1,0.4l-0.9,0.6l-0.8-1.2l0.9-0.6c0.2-0.1,0.3-0.1,0.4,0.1l0,0.1l0.3-0.2l-0.9-1.4
	l-0.3,0.2l0,0.1c0.1,0.2,0.1,0.3-0.1,0.4L101.7,35.3z M104.8,41.7c0.5,1,1.7,1.3,2.8,0.7c1.2-0.6,1.5-1.7,1-2.8
	c-0.5-0.9-1.6-1.4-2.8-0.7C104.6,39.6,104.3,40.7,104.8,41.7z M105.1,41.6c-0.2-0.3-0.3-0.9,1.1-1.7c1.3-0.7,1.8-0.4,2.1,0
	c0.4,0.8-0.7,1.5-1.1,1.7C105.7,42.4,105.3,41.9,105.1,41.6z M110.9,45.1l-0.6-1.7l-0.3,0.1l0,0.1c0.1,0.2,0,0.3-0.2,0.4l-2.8,0.9
	c-0.2,0.1-0.3,0-0.4-0.2l0-0.1l-0.3,0.1l0.6,1.7l0.3-0.1l0-0.1c-0.1-0.3,0.1-0.4,0.2-0.4l0.2-0.1l2.2,0.8l0,0.1l-2,0.7
	c-0.2,0.1-0.3,0-0.4-0.2l0-0.1l-0.3,0.1l0.6,1.7l0.3-0.1l0-0.1c-0.1-0.2,0-0.3,0.2-0.4l2.8-0.9c0.2-0.1,0.3,0,0.4,0.2l0,0.1l0.3-0.1
	l-0.6-1.7l-0.3,0.1l0,0.1c0.1,0.2,0,0.3-0.2,0.4l-0.1,0l-2.3-0.8l0-0.1l1.9-0.6c0.1,0,0.3-0.1,0.4,0.2l0,0.1L110.9,45.1z
	 M111.2,45.4c0.2,0.6,0.6,0.7,0.8,0.6c0.2-0.1,0.3-0.3,0.2-0.5c-0.1-0.2-0.2-0.2-0.4-0.2c-0.1,0-0.1,0.1-0.1,0.1
	c0,0.1,0,0.1-0.1,0.2c-0.1,0-0.2,0-0.3-0.3c-0.1-0.2,0-0.4,0.1-0.5c0.1,0,0.1,0.1,0.2,0.1c0.1,0,0.1,0,0.2,0c0.1,0,0.3-0.1,0.2-0.3
	c-0.1-0.2-0.3-0.3-0.5-0.2C111.2,44.6,111,44.9,111.2,45.4z"/>
<path id="path10" class="st2" d="M30.9,46.1c0.5-1.1,0.1-2.2-1.1-2.8c-1.2-0.6-2.3-0.1-2.8,1c-0.5,1-0.2,2.2,1.1,2.8
	C29.2,47.6,30.4,47.2,30.9,46.1z M30.5,46c-0.2,0.3-0.6,0.9-2,0.2c-1.3-0.6-1.4-1.2-1.2-1.7c0.4-0.9,1.6-0.4,2.1-0.2
	C30.8,44.9,30.7,45.6,30.5,46z M31,37.3L29.4,40l0.6,0.7l0.1-0.2c-0.2-0.6-0.1-0.8,0-1.1c0.1-0.1,0.1-0.2,0.4-0.1l2.5,1.5
	c0.1,0.1,0.3,0.2,0.1,0.5l-0.1,0.1l0.3,0.2l1-1.6l-0.3-0.2L33.9,40c-0.2,0.3-0.3,0.2-0.4,0.1L31,38.6c-0.2-0.1-0.1-0.2-0.1-0.4
	c0.1-0.1,0.3-0.4,0.9-0.5l0.1-0.2L31,37.3z M33,34.8l0.2,0.2l0.1-0.1c0.2-0.2,0.3-0.2,0.5,0l2,1.9c0.2,0.2,0.3,0.3,0.1,0.5l-0.1,0.1
	l0.2,0.2l1.5-1.6c0.1-0.2,1.1-1.1,0.2-1.9c-0.5-0.4-1.1-0.3-1.5,0.1l0,0c0.2-0.3,0.4-0.9,0-1.3c-0.7-0.7-1.5,0.2-1.9,0.6L33,34.8z
	 M34.5,34.2c-0.1-0.1-0.2-0.2,0-0.5c0.2-0.2,0.6-0.5,1.1-0.1c0.4,0.4,0.1,0.9-0.3,1.2L34.5,34.2z M35.5,35.2
	c0.1-0.1,0.1-0.2,0.3-0.3c0.6-0.5,1-0.2,1.2-0.1c0.2,0.2,0.5,0.7,0,1.2c0,0,0,0,0,0c-0.2,0.2-0.3,0.2-0.5,0L35.5,35.2z M40.1,28.2
	l-2.5,1.9l0.2,0.2l0.1-0.1c0.3-0.2,0.4-0.1,0.5,0l1.8,2.3c0.1,0.1,0.2,0.2-0.1,0.5L40,33.1l0.2,0.2l2.6-2.1l-0.5-0.9l-0.2,0.1
	c0.1,0.7-0.2,1-0.5,1.2L41.3,32c-0.2,0.2-0.3,0.2-0.5,0L40,30.9l0.5-0.4c0.2-0.2,0.4-0.3,0.7,0l0.2-0.1l-0.7-0.9l-0.2,0.1
	c0.2,0.4,0,0.5-0.4,0.8l-0.3,0.3l-0.7-0.8c-0.2-0.2-0.1-0.3,0.1-0.5l0.3-0.3c0.2-0.1,0.6-0.4,1.1-0.1l0.2-0.1L40.1,28.2z M45.6,24.7
	l-2.8,1.6l0.2,0.9l0.2-0.1c0.1-0.6,0.3-0.8,0.5-0.9c0.1-0.1,0.2-0.1,0.4,0.1l1.4,2.5c0.1,0.1,0.2,0.3-0.1,0.4l-0.1,0.1l0.1,0.3
	l1.7-0.9l-0.1-0.3l-0.1,0.1c-0.3,0.2-0.4,0-0.4-0.1L45,25.8c-0.1-0.2,0-0.3,0.1-0.4c0.1-0.1,0.5-0.2,1.1,0l0.2-0.1L45.6,24.7z
	 M51.7,23.1l-0.4-0.7c-0.4,0-0.9,0-1.3,0.2c-1.1,0.5-1.6,1.5-1.1,2.8c0.5,1.3,1.6,1.6,2.7,1.1c0.4-0.1,0.9-0.4,1.2-0.9l-0.3-0.9
	l-0.2,0.1c0.1,0.5-0.2,1.1-0.7,1.4c-0.4,0.2-1.2,0.2-1.7-1.1c-0.5-1.3-0.1-2,0.4-2.2c0.3-0.1,0.8-0.1,1.3,0.4L51.7,23.1z M54.4,21.2
	l0.1,0.3l0.1,0c0.3-0.1,0.4,0,0.4,0.3l0.6,2.7c0.1,0.3,0,0.4-0.2,0.5l-0.1,0l0.1,0.3l2.1-0.5c0.2,0,1.5-0.4,1.3-1.5
	c-0.1-0.6-0.8-0.9-1.3-0.8l0-0.1c0.4-0.1,0.8-0.6,0.7-1.1c-0.2-0.9-1.3-0.7-1.9-0.6L54.4,21.2z M55.9,21.6c0-0.2-0.1-0.3,0.3-0.4
	c0.2-0.1,0.8-0.1,0.9,0.5c0.1,0.6-0.4,0.8-0.9,0.9L55.9,21.6z M56.3,23c0.1,0,0.2-0.1,0.4-0.1c0.8-0.1,1,0.4,1,0.6
	c0,0.2,0.1,0.8-0.7,1c0,0,0,0,0,0c-0.3,0.1-0.4,0-0.4-0.2L56.3,23z M64,19.8l-3.2,0.2l0,0.3l0.1,0c0.3,0,0.3,0.1,0.4,0.3l0.2,2.9
	c0,0.1,0,0.3-0.3,0.3l-0.1,0l0,0.3l3.4-0.3l0.1-1l-0.2,0c-0.3,0.6-0.7,0.7-1,0.7l-0.5,0c-0.2,0-0.3,0-0.4-0.3L62.4,22l0.6,0
	c0.3,0,0.5,0,0.6,0.3l0.2,0l-0.1-1.1l-0.2,0c0,0.4-0.3,0.4-0.7,0.5l-0.4,0l-0.1-1.1c0-0.2,0.1-0.3,0.3-0.3l0.4,0c0.2,0,0.7,0,1,0.6
	l0.2,0L64,19.8z M67.5,23.3c0,0.3-0.2,0.3-0.4,0.3l-0.1,0l0,0.3l1.8,0.3l0-0.3l-0.1,0c-0.2,0-0.3-0.1-0.3-0.4l0.2-1.5l1.5,0.2
	L70,23.7c0,0.1,0,0.3-0.4,0.3l-0.1,0l0,0.3l1.8,0.3l0-0.3l-0.1,0c-0.3,0-0.3-0.2-0.3-0.4l0.4-2.9c0-0.2,0-0.3,0.5-0.2l0-0.3L70,20.1
	l0,0.3l0.1,0c0.3,0,0.3,0.2,0.3,0.4l-0.1,1l-1.5-0.2l0.1-1c0-0.3,0.1-0.3,0.4-0.3l0.1,0l0-0.3l-1.8-0.3l0,0.3l0.1,0
	c0.2,0,0.3,0.1,0.3,0.3L67.5,23.3z M74.1,24.4c-0.1,0.2-0.2,0.3-0.4,0.2l-0.1,0l-0.1,0.3l1.7,0.5l0.1-0.3l-0.1,0
	c-0.2-0.1-0.3-0.1-0.3-0.4l0.4-1.4l1.5,0.4L76.5,25c0,0.1-0.1,0.3-0.4,0.2l-0.1,0L76,25.5l1.7,0.5l0.1-0.3l-0.1,0
	c-0.3-0.1-0.3-0.2-0.2-0.4l0.7-2.8c0-0.2,0.1-0.3,0.5-0.2l0.1-0.3L77,21.5l-0.1,0.3l0.1,0c0.3,0.1,0.3,0.2,0.2,0.4l-0.3,1l-1.5-0.4
	l0.3-1c0.1-0.2,0.2-0.3,0.4-0.2l0.1,0l0.1-0.3l-1.7-0.5l-0.1,0.3l0.1,0c0.2,0.1,0.3,0.1,0.3,0.4L74.1,24.4z M81.6,27.8
	c1.1,0.6,2.2,0.2,2.8-0.9c0.6-1.2,0.2-2.3-0.8-2.9c-1-0.5-2.2-0.3-2.8,0.9C80.2,26.1,80.6,27.3,81.6,27.8z M81.8,27.5
	c-0.3-0.2-0.8-0.6-0.1-2.1c0.7-1.2,1.3-1.3,1.7-1.1c0.9,0.5,0.3,1.6,0.1,2.1C82.8,27.9,82.1,27.7,81.8,27.5z M90,29.3l0.4-0.7
	c-0.2-0.4-0.5-0.8-0.9-1c-1-0.7-2.2-0.6-3,0.6c-0.8,1.1-0.5,2.2,0.5,2.9c0.3,0.2,0.8,0.5,1.4,0.5l0.6-0.7L89,30.8
	c-0.4,0.3-1.1,0.4-1.6,0.1c-0.4-0.3-0.8-0.9,0-2.1c0.8-1.1,1.6-1.2,2.1-0.8c0.3,0.2,0.5,0.6,0.4,1.2L90,29.3z M95.3,32.7L93,30.5
	l-0.8,0.5l0.1,0.1c0.6-0.1,0.8,0,1,0.2c0.1,0.1,0.2,0.2,0,0.4l-2,2.1c-0.1,0.1-0.2,0.2-0.5,0l-0.1-0.1l-0.2,0.2l1.4,1.3l0.2-0.2
	l-0.1-0.1c-0.2-0.2-0.1-0.3,0-0.5l2-2.1c0.2-0.2,0.3-0.1,0.4,0c0.1,0.1,0.4,0.4,0.3,1l0.1,0.1L95.3,32.7z M97.3,34.9l-0.2,0.2
	l0.1,0.1c0.2,0.2,0.1,0.3-0.1,0.5l-2.3,1.8c-0.2,0.1-0.3,0.2-0.5-0.2l-0.2,0.2l1.5,1.9c0.6,0.7,1.3,0.7,1.8,0.3
	c0.5-0.4,0.6-1.2-0.2-2.3c-0.1-0.1-0.2-0.2-0.3-0.3l0.9-0.7c0.1-0.1,0.2-0.2,0.5,0.1l0.1,0.1l0.2-0.2L97.3,34.9z M96.6,37.3
	c0.1,0.1,0.2,0.2,0.3,0.3c0.5,0.7,0,1.1-0.1,1.2c-0.3,0.2-0.8,0.3-1.2-0.2l-0.1-0.1c-0.2-0.2-0.1-0.4,0-0.4L96.6,37.3z M101.2,40.3
	l-0.3,0.1c0.2,0.4,0.1,0.4-0.1,0.5l-2.5,1.4c-0.2,0.1-0.3,0.2-0.5-0.2l-0.3,0.1l0.9,1.6l0.3-0.1c-0.2-0.4-0.1-0.4,0.1-0.5l1.3-0.7
	l0.4,0.7c-1.1,0.5-1.5,1.7-0.9,2.8c0.6,1,1.7,1.4,2.9,0.8c1.1-0.6,1.5-1.8,0.9-2.8c-0.5-1-1.6-1.3-2.5-1l-0.4-0.7l0.9-0.5
	c0.1-0.1,0.3-0.1,0.4,0.1l0,0.1l0.3-0.1L101.2,40.3z M102.9,44.2c0.2,0.4,0.2,1.1-1.1,1.7c-1.4,0.8-1.9,0.3-2.1,0
	c-0.2-0.3-0.3-1,1.1-1.7C102.1,43.5,102.7,43.7,102.9,44.2z"/>
<g>
	<polygon class="st2" points="16.3,85.1 17.4,85 17.1,84.4 	"/>
	<path class="st2" d="M13.6,47.6c0.3,0.1,0.5,0.1,0.7,0c0.2-0.1,0.3-0.2,0.4-0.5c0.1-0.2,0-0.4-0.1-0.6c-0.1-0.2-0.3-0.3-0.6-0.4
		c-0.3-0.1-0.5-0.1-0.7,0c-0.2,0.1-0.3,0.2-0.4,0.5c-0.1,0.2,0,0.4,0.1,0.6C13.1,47.4,13.3,47.5,13.6,47.6z"/>
	<path class="st2" d="M11.8,58c0.3,0,0.5,0,0.7-0.2c0.2-0.1,0.3-0.3,0.3-0.5c0-0.2,0-0.4-0.2-0.6c-0.1-0.2-0.4-0.2-0.7-0.3
		c-0.3,0-0.6,0-0.7,0.2c-0.2,0.1-0.3,0.3-0.3,0.5c0,0.2,0,0.4,0.2,0.6C11.3,57.9,11.5,58,11.8,58z"/>
	<path class="st2" d="M28.1,24.5c0.1-0.1,0.2-0.2,0.3-0.3c0-0.1,0.1-0.1,0.1-0.2c0-0.1,0-0.2-0.1-0.2c-0.1-0.1-0.1-0.1-0.2-0.1
		c-0.1,0-0.1,0-0.2,0c-0.1,0-0.2,0.1-0.4,0.3l-0.3,0.3l0.5,0.5L28.1,24.5z"/>
	<path class="st2" d="M17.5,39.6c0-0.1,0-0.2,0-0.2c0-0.1-0.1-0.1-0.2-0.2c-0.1,0-0.1,0-0.2,0c-0.1,0-0.1,0-0.2,0.1
		c-0.1,0.1-0.1,0.2-0.2,0.4l-0.2,0.4l0.7,0.3l0.2-0.5C17.4,39.8,17.5,39.7,17.5,39.6z"/>
	<path class="st2" d="M16,38.8c-0.1,0-0.1,0.1-0.2,0.1c0,0-0.1,0.2-0.2,0.4l-0.1,0.3l0.6,0.3l0.1-0.3c0.1-0.2,0.1-0.3,0.2-0.4
		c0-0.1,0-0.2,0-0.2c0-0.1-0.1-0.1-0.2-0.2C16.1,38.8,16,38.8,16,38.8z"/>
	<path class="st2" d="M53.6,113.1c-0.1,0-0.1,0.1-0.1,0.2c0,0.1,0,0.2,0.1,0.3c0.1,0.1,0.2,0.1,0.4,0.2l0.5,0.1l0.2-0.7l-0.5-0.1
		c-0.2,0-0.3-0.1-0.4-0.1C53.8,113,53.7,113.1,53.6,113.1z"/>
	<path class="st2" d="M35.5,105.1c-0.2-0.1-0.3-0.2-0.3-0.2c-0.1,0-0.2,0-0.2,0c-0.1,0-0.1,0.1-0.2,0.1c0,0.1-0.1,0.1-0.1,0.2
		c0,0.1,0,0.1,0.1,0.2c0,0.1,0.2,0.2,0.4,0.3l0.4,0.3l0.4-0.6L35.5,105.1z"/>
	<path class="st2" d="M27.4,23.5c0.1-0.1,0.1-0.1,0.1-0.2c0-0.1,0-0.1-0.1-0.2c-0.1-0.1-0.1-0.1-0.2-0.1c-0.1,0-0.1,0-0.2,0.1
		c0,0-0.2,0.1-0.3,0.3l-0.2,0.2l0.4,0.5l0.3-0.2C27.3,23.6,27.4,23.5,27.4,23.5z"/>
	<path class="st2" d="M18.4,87.9c-0.1,0-0.1-0.1-0.2-0.1c-0.1,0-0.1,0-0.2,0.1c-0.1,0-0.1,0.1-0.2,0.2c0,0.1,0,0.2,0,0.3
		c0,0.1,0.1,0.2,0.2,0.4l0.1,0.2l0.7-0.4l-0.1-0.3C18.5,88,18.4,87.9,18.4,87.9z"/>
	<path class="st2" d="M34.6,105.9c-0.1,0-0.2-0.1-0.2,0c-0.1,0-0.1,0.1-0.2,0.1c0,0.1-0.1,0.1-0.1,0.2c0,0.1,0,0.1,0.1,0.2
		c0,0,0.2,0.1,0.4,0.3l0.3,0.2l0.4-0.5l-0.3-0.2C34.8,106,34.7,106,34.6,105.9z"/>
	<path class="st2" d="M31.7,102.5c-0.2,0-0.4,0.2-0.6,0.4c-0.2,0.2-0.3,0.5-0.3,0.7c0,0.2,0.1,0.4,0.3,0.5c0.2,0.1,0.4,0.2,0.6,0.2
		c0.2,0,0.4-0.2,0.6-0.4c0.2-0.2,0.3-0.5,0.3-0.7c0-0.2-0.1-0.4-0.3-0.5C32.1,102.5,31.9,102.4,31.7,102.5z"/>
	<path class="st2" d="M23.1,93.5c-0.2,0-0.4,0.1-0.7,0.3c-0.2,0.2-0.4,0.4-0.4,0.6c0,0.2,0,0.4,0.2,0.6c0.1,0.2,0.3,0.3,0.5,0.3
		c0.2,0,0.4-0.1,0.7-0.3c0.2-0.2,0.4-0.4,0.4-0.6c0-0.2,0-0.4-0.1-0.6C23.4,93.6,23.3,93.5,23.1,93.5z"/>
	<path class="st2" d="M51.7,10.9c0.2,0,0.3-0.1,0.3-0.1c0.1,0,0.1-0.1,0.1-0.2c0-0.1,0-0.1,0-0.2c0-0.1-0.1-0.2-0.2-0.2
		c-0.1,0-0.3,0-0.5,0L51,10.4l0.2,0.7L51.7,10.9z"/>
	<polygon class="st2" points="114.2,38.7 113.1,38.8 113.4,39.5 	"/>
	<path class="st2" d="M112.1,36c0.1,0,0.1,0.1,0.2,0.1c0.1,0,0.1,0,0.2-0.1c0.1,0,0.1-0.1,0.2-0.2c0-0.1,0-0.2,0-0.3
		c0-0.1-0.1-0.2-0.2-0.4l-0.1-0.2l-0.7,0.4l0.1,0.3C112,35.8,112.1,35.9,112.1,36z"/>
	<path class="st2" d="M98.9,21.2c0.2,0,0.4-0.2,0.6-0.4c0.2-0.2,0.3-0.5,0.3-0.7c0-0.2-0.1-0.4-0.3-0.5c-0.2-0.1-0.4-0.2-0.6-0.2
		c-0.2,0-0.4,0.2-0.6,0.4c-0.2,0.2-0.3,0.5-0.3,0.7c0,0.2,0.1,0.4,0.3,0.5C98.5,21.2,98.7,21.3,98.9,21.2z"/>
	<path class="st2" d="M107.5,30.3c0.2,0,0.4-0.1,0.7-0.3c0.2-0.2,0.4-0.4,0.4-0.6c0-0.2,0-0.4-0.2-0.6c-0.1-0.2-0.3-0.3-0.5-0.3
		c-0.2,0-0.4,0.1-0.7,0.3c-0.2,0.2-0.4,0.4-0.4,0.6c0,0.2,0,0.4,0.1,0.6C107.1,30.2,107.3,30.3,107.5,30.3z"/>
	<path class="st2" d="M10.5,53c0.1,0,0.1-0.1,0.1-0.2c0-0.1,0-0.2,0-0.2c0,0,0,0,0,0C10.5,52.6,10.4,52.8,10.5,53
		C10.4,53,10.4,53,10.5,53z"/>
	<path class="st2" d="M118.4,65.9c-0.3,0-0.5,0-0.7,0.2c-0.2,0.1-0.3,0.3-0.3,0.5c0,0.2,0,0.4,0.2,0.6c0.1,0.2,0.4,0.2,0.7,0.3
		c0.3,0,0.6,0,0.7-0.2c0.2-0.1,0.3-0.3,0.3-0.5c0-0.2,0-0.4-0.2-0.6C118.9,66,118.7,65.9,118.4,65.9z"/>
	<path class="st2" d="M95.1,18.6c0.2,0.1,0.3,0.2,0.3,0.2c0.1,0,0.2,0,0.2,0c0.1,0,0.1-0.1,0.2-0.1c0-0.1,0.1-0.1,0.1-0.2
		c0-0.1,0-0.1-0.1-0.2c0-0.1-0.2-0.2-0.4-0.3l-0.4-0.3l-0.4,0.6L95.1,18.6z"/>
	<path class="st2" d="M56.2,9.8c0.1,0.1,0.3,0.2,0.5,0.2c0.2,0,0.4-0.1,0.5-0.3c0.1-0.2,0.1-0.4,0-0.8c-0.1-0.3-0.2-0.5-0.3-0.6
		c-0.2-0.1-0.3-0.2-0.5-0.1c-0.2,0-0.3,0.1-0.4,0.3c-0.1,0.2-0.1,0.4-0.1,0.7C56,9.4,56.1,9.6,56.2,9.8z"/>
	<path class="st2" d="M58.3,113.7c-0.2,0-0.4,0-0.6,0.2c-0.2,0.1-0.3,0.4-0.3,0.7c0,0.3,0,0.6,0.1,0.7c0.1,0.2,0.3,0.3,0.5,0.3
		c0.2,0,0.4,0,0.6-0.2c0.2-0.1,0.3-0.4,0.3-0.7c0-0.3,0-0.5-0.1-0.7C58.6,113.9,58.5,113.8,58.3,113.7z"/>
	<path class="st2" d="M72.5,9.8c0.2,0,0.4,0,0.6-0.2c0.2-0.1,0.3-0.4,0.3-0.7c0-0.3,0-0.6-0.1-0.7C73.1,8,73,7.9,72.7,7.9
		c-0.2,0-0.4,0-0.6,0.2c-0.2,0.1-0.3,0.4-0.3,0.7c0,0.3,0,0.5,0.1,0.7C72.1,9.6,72.3,9.7,72.5,9.8z"/>
	<path class="st2" d="M40.3,15.2c0.2,0.1,0.4,0.1,0.6,0c0.2-0.1,0.3-0.3,0.4-0.5c0.1-0.2,0-0.4-0.1-0.7c-0.1-0.3-0.3-0.5-0.5-0.5
		c-0.2-0.1-0.4-0.1-0.6,0c-0.2,0.1-0.3,0.3-0.4,0.5c-0.1,0.2,0,0.4,0.1,0.7C40,14.9,40.1,15.1,40.3,15.2z"/>
	<path class="st2" d="M96,17.8c0.1,0,0.2,0.1,0.2,0c0.1,0,0.1-0.1,0.2-0.1c0-0.1,0.1-0.1,0.1-0.2c0-0.1,0-0.1-0.1-0.2
		c0,0-0.2-0.1-0.4-0.3l-0.3-0.2l-0.4,0.5l0.3,0.2C95.9,17.7,96,17.7,96,17.8z"/>
	<path class="st2" d="M77.1,10.4c0.1,0,0.1-0.1,0.1-0.2c0-0.1,0-0.2-0.1-0.3c-0.1-0.1-0.2-0.1-0.4-0.2l-0.5-0.1L76,10.3l0.5,0.1
		c0.2,0,0.3,0.1,0.4,0.1C77,10.5,77,10.5,77.1,10.4z"/>
	<path class="st2" d="M114.1,85c0.1,0,0.1-0.1,0.2-0.1c0,0,0.1-0.2,0.2-0.4l0.1-0.3l-0.6-0.3l-0.1,0.3c-0.1,0.2-0.1,0.3-0.2,0.4
		c0,0.1,0,0.2,0,0.2c0,0.1,0.1,0.1,0.2,0.2C114,85.1,114,85.1,114.1,85z"/>
	<path class="st2" d="M116.5,76.3c-0.3-0.1-0.5-0.1-0.7,0c-0.2,0.1-0.3,0.2-0.4,0.5c-0.1,0.2,0,0.4,0.1,0.6c0.1,0.2,0.3,0.3,0.6,0.4
		c0.3,0.1,0.5,0.1,0.7,0c0.2-0.1,0.3-0.2,0.4-0.5c0.1-0.2,0-0.4-0.1-0.6C117.1,76.5,116.8,76.3,116.5,76.3z"/>
	<path class="st2" d="M89.5,108.5c-0.2-0.1-0.4-0.1-0.6,0c-0.2,0.1-0.3,0.3-0.4,0.5c-0.1,0.2,0,0.4,0.1,0.7c0.1,0.3,0.3,0.5,0.5,0.5
		c0.2,0.1,0.4,0.1,0.6,0c0.2-0.1,0.3-0.3,0.4-0.5c0.1-0.2,0-0.4-0.1-0.7C89.9,108.7,89.7,108.5,89.5,108.5z"/>
	<path class="st2" d="M112.6,84.2c0,0.1,0,0.2,0,0.2c0,0.1,0.1,0.1,0.2,0.2c0.1,0,0.1,0,0.2,0c0.1,0,0.1,0,0.2-0.1
		c0.1-0.1,0.1-0.2,0.2-0.4l0.2-0.4l-0.7-0.3l-0.2,0.5C112.7,84.1,112.6,84.2,112.6,84.2z"/>
	<path class="st2" d="M78.1,112.6c-0.2,0-0.3,0.1-0.3,0.1c-0.1,0-0.1,0.1-0.1,0.2c0,0.1,0,0.1,0,0.2c0,0.1,0.1,0.2,0.2,0.2
		c0.1,0,0.3,0,0.5,0l0.5-0.1l-0.2-0.7L78.1,112.6z"/>
	<path class="st2" d="M102.5,100.3c-0.1,0.1-0.1,0.1-0.1,0.2c0,0.1,0,0.1,0.1,0.2c0.1,0.1,0.1,0.1,0.2,0.1c0.1,0,0.1,0,0.2-0.1
		c0,0,0.2-0.1,0.3-0.3l0.2-0.2l-0.4-0.5l-0.3,0.2C102.6,100.1,102.5,100.2,102.5,100.3z"/>
	<path class="st2" d="M119.6,70.7c0.1-0.1,0.2-0.1,0.2-0.1c0.5-2.9,0.7-5.9,0.7-8.9c0-30.6-24.8-55.4-55.4-55.4
		c-27.4,0-50.1,19.8-54.6,45.9c0.1,0,0.2,0.1,0.2,0.2c0.1,0.1,0.1,0.3,0.1,0.4c0,0.2-0.1,0.3-0.2,0.4c-0.1,0.1-0.2,0.1-0.3,0.1
		c-0.4,2.8-0.6,5.6-0.6,8.4c0,30.6,24.8,55.4,55.4,55.4c27.2,0,49.8-19.6,54.5-45.4c-0.1,0-0.2-0.1-0.2-0.2
		c-0.1-0.1-0.1-0.3-0.1-0.4C119.4,70.9,119.5,70.8,119.6,70.7z M119.9,62l-1.1,0l0,1.1l1.1,0l0,0.5l-2.7-0.1l0-0.5l1.2,0l0-1.1
		l-1.2,0l0-0.5l2.7,0.1L119.9,62z M119.8,57.7l-1.1,0.1l0.1,1.1l1.1-0.1l0.1,0.5l-2.7,0.2l0-0.5l1.2-0.1l-0.1-1.1l-1.2,0.1l0-0.5
		l2.7-0.2L119.8,57.7z M119.5,55.3l-0.4,0.1l-0.2-1.5l-0.6,0.1l0.2,1.3l-0.5,0.1l-0.2-1.4l-0.7,0.1l0.2,1.5l-0.5,0.1l-0.3-2.1
		l2.7-0.4L119.5,55.3z M118.6,49.7l-0.6,0.1c-0.2,0.1-0.3,0.1-0.4,0.1c-0.1,0-0.1,0.1-0.2,0.2c0,0.1,0,0.2,0,0.3
		c0,0.1,0.1,0.2,0.1,0.3c0,0.1,0.1,0.2,0.2,0.2l1.1-0.3l0.1,0.5l-2.7,0.6l-0.1-0.5l1.1-0.2c-0.1-0.1-0.1-0.2-0.2-0.3
		c0-0.1-0.1-0.2-0.1-0.3c-0.1-0.3,0-0.5,0-0.7c0.1-0.2,0.3-0.3,0.6-0.4l0.9-0.2L118.6,49.7z M117.6,45.7l-1.8,0.5l2,0.6l0.2,0.5
		l-2.6,0.8l-0.1-0.5l1.7-0.5l-2-0.6l-0.2-0.5l2.6-0.8L117.6,45.7z M116.2,41.8l-1,0.4l0.4,1l1-0.4l0.2,0.5l-2.5,1l-0.2-0.5l1.1-0.4
		l-0.4-1l-1.1,0.4l-0.2-0.5l2.5-1L116.2,41.8z M114.9,38.7l-2,2.1l-0.2-0.5l0.5-0.5l-0.5-1l-0.7,0.1l-0.2-0.5l2.9-0.2L114.9,38.7z
		 M113,35c0.2,0.3,0.3,0.5,0.3,0.6c0,0.2,0,0.3,0,0.5c-0.1,0.2-0.2,0.3-0.4,0.4c-0.1,0.1-0.3,0.1-0.4,0.1c-0.1,0-0.2,0-0.3-0.1
		c-0.1,0-0.2-0.1-0.3-0.2c-0.1-0.1-0.2-0.3-0.3-0.5l-0.2-0.3l-0.9,0.5l-0.3-0.5l2.4-1.4L113,35z M111.7,32.8l-0.4,0.2l-0.7-1.1
		l-1.9,1.2l-0.3-0.5l2.3-1.5L111.7,32.8z M106.9,28.4c0.2-0.2,0.4-0.3,0.6-0.3c0.1,0,0.3,0,0.4,0c0.2,0,0.3,0,0.4,0.1
		c0.2,0.1,0.3,0.2,0.5,0.4c0.2,0.3,0.3,0.6,0.3,1c0,0.3-0.2,0.7-0.6,0.9c-0.3,0.3-0.7,0.4-1,0.3c-0.4,0-0.6-0.2-0.9-0.5
		c-0.2-0.3-0.3-0.6-0.3-1C106.4,29,106.6,28.7,106.9,28.4z M102.8,23.8c0.3-0.3,0.7-0.5,1-0.5c0.3,0,0.6,0.1,0.9,0.4
		c0.2,0.2,0.3,0.5,0.3,0.8c0,0.2-0.1,0.3-0.2,0.5l-0.5-0.3c0.1-0.1,0.1-0.2,0.1-0.4c0-0.1-0.1-0.2-0.2-0.3c-0.1-0.2-0.3-0.2-0.5-0.2
		c-0.2,0-0.4,0.1-0.6,0.3c-0.2,0.2-0.4,0.5-0.4,0.6c0,0.2,0,0.4,0.2,0.5c0.1,0.1,0.2,0.2,0.4,0.2c0.1,0,0.3,0,0.5-0.1l0.2,0.5
		c-0.3,0.1-0.5,0.2-0.8,0.2s-0.5-0.2-0.7-0.4c-0.2-0.3-0.4-0.6-0.3-0.9C102.3,24.4,102.5,24.1,102.8,23.8z M97.9,19.5
		c0.2-0.2,0.3-0.4,0.5-0.5c0.1-0.1,0.3-0.1,0.4-0.1c0.1,0,0.3,0,0.4,0c0.2,0,0.4,0.1,0.5,0.3c0.3,0.2,0.5,0.5,0.5,0.9
		c0,0.3-0.1,0.7-0.4,1c-0.3,0.4-0.6,0.6-0.9,0.6c-0.4,0-0.7,0-1-0.3c-0.3-0.2-0.5-0.5-0.5-0.9C97.5,20.2,97.6,19.9,97.9,19.5z
		 M96.5,16.8c0.2,0.1,0.3,0.2,0.4,0.3c0.1,0.1,0.1,0.2,0.2,0.3c0,0.1,0,0.2,0,0.3c0,0.1,0,0.2-0.1,0.3c-0.1,0.1-0.2,0.2-0.3,0.2
		s-0.2,0.1-0.4,0c0.1,0.1,0.2,0.3,0.2,0.4c0,0.1,0,0.3-0.1,0.4c-0.1,0.1-0.2,0.2-0.3,0.2c-0.1,0.1-0.2,0.1-0.4,0.1
		c-0.1,0-0.2,0-0.4-0.1c-0.1,0-0.3-0.2-0.6-0.4L94,18.3l1.6-2.2L96.5,16.8z M91.9,14.5l0.2-0.4l1.9,1.1l-0.2,0.4l-0.7-0.4l-1.1,2
		l-0.5-0.3l1.1-2L91.9,14.5z M88,13.5c0.2-0.4,0.5-0.7,0.8-0.8c0.3-0.1,0.7-0.1,1,0.1c0.3,0.1,0.5,0.4,0.6,0.6
		c0.1,0.2,0.1,0.4,0,0.6l-0.5-0.1c0-0.1,0-0.3,0-0.4c-0.1-0.1-0.2-0.2-0.3-0.3c-0.2-0.1-0.4-0.1-0.5,0s-0.3,0.2-0.5,0.5
		c-0.2,0.3-0.2,0.6-0.2,0.7c0,0.2,0.1,0.3,0.3,0.4c0.1,0.1,0.3,0.1,0.4,0.1c0.1,0,0.3-0.1,0.4-0.3l0.4,0.4c-0.2,0.2-0.4,0.4-0.7,0.4
		c-0.2,0-0.5,0-0.7-0.1c-0.3-0.2-0.5-0.4-0.6-0.7C87.8,14.2,87.8,13.8,88,13.5z M85,10.7l1.9,0.7l-0.2,0.4l-1.4-0.5l-0.2,0.6
		l1.3,0.5l-0.2,0.4L85,12.3L84.7,13l1.4,0.5L86,14l-1.9-0.8L85,10.7z M80.1,8.9l0.5,0.2l-0.8,2.2l0.8,0.2l0.7-2.1l0.5,0.2l-0.7,2.1
		L82,12l0.7-2.2l0.5,0.2l-0.8,2.1l0.2,0.1l-0.4,1l-0.4-0.1l0.2-0.6l-2.9-1L80.1,8.9z M76,8l2,0.5l-0.1,0.5l-1.5-0.3l-0.1,0.6L77,9.3
		c0.2,0.1,0.4,0.1,0.5,0.2c0.1,0.1,0.2,0.2,0.3,0.3c0.1,0.1,0.1,0.3,0,0.5c0,0.2-0.1,0.3-0.2,0.4c-0.1,0.1-0.2,0.2-0.4,0.2
		c-0.1,0-0.3,0-0.5,0l-1.2-0.3L76,8z M71.5,8c0.1-0.1,0.2-0.2,0.3-0.3c0.1-0.1,0.2-0.2,0.4-0.2c0.2-0.1,0.4-0.1,0.6,0
		c0.4,0,0.7,0.2,0.9,0.5C73.9,8.2,74,8.6,73.9,9c0,0.4-0.2,0.8-0.5,1c-0.3,0.2-0.6,0.3-1,0.2c-0.4,0-0.7-0.2-0.9-0.5
		c-0.2-0.3-0.3-0.6-0.2-1.1C71.3,8.4,71.4,8.2,71.5,8z M65.1,7.4c0.4,0,0.7,0.3,0.7,0.7c0,0.4-0.3,0.7-0.7,0.7
		c-0.4,0-0.7-0.3-0.7-0.7C64.4,7.7,64.7,7.4,65.1,7.4z M54.7,7.9l0.2,1.1L55.3,9c0-0.3,0-0.6,0.2-0.9c0.2-0.3,0.4-0.4,0.8-0.5
		c0.4-0.1,0.7,0,0.9,0.2s0.4,0.5,0.5,1c0,0.3,0,0.5,0,0.8c-0.1,0.2-0.2,0.4-0.3,0.5c-0.2,0.2-0.4,0.2-0.6,0.3c-0.3,0-0.5,0-0.6,0
		c-0.2,0-0.3-0.2-0.5-0.3c-0.1-0.2-0.3-0.4-0.3-0.6L55,9.5l0.2,1.1l-0.5,0.1L54.2,8L54.7,7.9z M50.6,8.9l0.3,1l0.7-0.2
		c0.3-0.1,0.6-0.1,0.8,0c0.2,0.1,0.3,0.3,0.4,0.5c0,0.2,0,0.3,0,0.5c0,0.1-0.1,0.3-0.2,0.3c-0.1,0.1-0.3,0.2-0.5,0.2l-1.2,0.4L50,9
		L50.6,8.9z M48.4,9.5l0.1,0.4l-0.8,0.2l0.7,2.2L48,12.6l-0.7-2.2l-0.8,0.2l-0.2-0.4L48.4,9.5z M43,11.9c0.1-0.3,0.3-0.6,0.7-0.7
		c0.3-0.1,0.6-0.2,0.9-0.1c0.2,0,0.3,0.2,0.5,0.3l-0.4,0.3c-0.1-0.1-0.2-0.2-0.3-0.2c-0.1,0-0.2,0-0.4,0c-0.2,0.1-0.3,0.2-0.4,0.4
		c0,0.2,0,0.4,0.1,0.7c0.1,0.3,0.3,0.5,0.5,0.6c0.2,0.1,0.3,0.1,0.5,0c0.1-0.1,0.2-0.2,0.3-0.3c0.1-0.1,0.1-0.3,0-0.5l0.6-0.1
		c0,0.3,0,0.6-0.1,0.8c-0.1,0.2-0.3,0.4-0.6,0.5c-0.3,0.2-0.7,0.2-1,0c-0.3-0.1-0.6-0.4-0.7-0.8C43,12.6,42.9,12.3,43,11.9z
		 M39.2,13.8c0-0.2,0.1-0.3,0.2-0.4c0.1-0.2,0.3-0.3,0.5-0.4c0.4-0.2,0.7-0.2,1-0.1c0.3,0.1,0.6,0.4,0.8,0.8
		c0.2,0.4,0.2,0.8,0.2,1.1c-0.1,0.3-0.3,0.6-0.7,0.8c-0.4,0.2-0.7,0.2-1,0.1c-0.3-0.1-0.6-0.4-0.8-0.7c-0.1-0.2-0.2-0.5-0.2-0.7
		C39.1,14.1,39.1,14,39.2,13.8z M35.6,15.6l0.6,0.9l0.9-0.6L36.5,15l0.5-0.3l1.5,2.3L38,17.3l-0.6-1l-0.9,0.6l0.7,1l-0.5,0.3
		l-1.5-2.3L35.6,15.6z M32.3,17.9l0.6,0.9l0.9-0.6l-0.6-0.9l0.5-0.3l1.6,2.2l-0.5,0.3l-0.7-1l-0.9,0.6l0.7,1l-0.5,0.3l-1.6-2.2
		L32.3,17.9z M30.2,19.5l0.3,0.4l-1.1,1l0.4,0.5l1-0.9l0.3,0.3l-1,0.9l0.5,0.6l1.1-1l0.3,0.3l-1.6,1.4l-1.8-2.1L30.2,19.5z
		 M26.5,22.8c0.1-0.1,0.3-0.2,0.4-0.3c0.1-0.1,0.2-0.1,0.3-0.1c0.1,0,0.2,0,0.3,0c0.1,0,0.2,0.1,0.3,0.2c0.1,0.1,0.1,0.2,0.2,0.3
		c0,0.1,0,0.2,0,0.4c0.1-0.1,0.3-0.1,0.4-0.1c0.1,0,0.3,0.1,0.4,0.2c0.1,0.1,0.1,0.2,0.2,0.3c0,0.1,0.1,0.2,0,0.4
		c0,0.1-0.1,0.2-0.2,0.3c-0.1,0.1-0.2,0.2-0.5,0.5l-0.7,0.6l-1.9-2L26.5,22.8z M24.5,25l0.3,0.3l-0.5,0.6l1.7,1.5l-0.4,0.4L24,26.3
		l-0.5,0.6l-0.3-0.3L24.5,25z M21.4,28.6c0.2-0.3,0.4-0.4,0.7-0.5c0.2,0,0.4,0,0.6,0.1l-0.2,0.5c-0.1-0.1-0.3-0.1-0.4,0
		c-0.1,0-0.2,0.1-0.3,0.2c-0.1,0.1-0.2,0.3-0.1,0.5c0,0.2,0.2,0.4,0.4,0.6c0.3,0.2,0.5,0.3,0.7,0.3c0.2,0,0.3-0.1,0.5-0.2
		c0.1-0.1,0.1-0.2,0.1-0.4c0-0.1-0.1-0.3-0.2-0.5l0.5-0.3c0.2,0.2,0.3,0.5,0.3,0.7c0,0.2-0.1,0.5-0.3,0.7c-0.2,0.3-0.5,0.4-0.8,0.5
		c-0.3,0-0.7-0.1-1-0.4c-0.3-0.3-0.6-0.6-0.6-0.9C21.1,29.3,21.2,28.9,21.4,28.6z M19.7,31.1l0.4,0.2l-0.4,0.7l1.9,1.2l-0.3,0.5
		l-1.9-1.2l-0.4,0.7L18.5,33L19.7,31.1z M17.7,34.4l0.4,0.2l-0.7,1.3l0.5,0.3l0.7-1.2l0.4,0.2l-0.7,1.2l0.6,0.4l0.8-1.3l0.4,0.2
		l-1,1.8l-2.4-1.4L17.7,34.4z M15.3,39c0.1-0.2,0.2-0.3,0.2-0.4c0.1-0.1,0.1-0.2,0.2-0.2c0.1-0.1,0.2-0.1,0.3-0.1
		c0.1,0,0.2,0,0.3,0.1c0.1,0,0.2,0.1,0.3,0.2c0.1,0.1,0.1,0.2,0.1,0.4c0.1-0.1,0.2-0.2,0.4-0.2c0.1,0,0.3,0,0.4,0.1
		c0.1,0,0.2,0.1,0.3,0.2c0.1,0.1,0.1,0.2,0.2,0.3s0,0.2,0,0.4c0,0.1-0.1,0.3-0.3,0.6l-0.4,0.8L14.8,40L15.3,39z M14.2,41.6l0.4,0.2
		l-0.3,0.8l2.1,0.8l-0.2,0.5L14.1,43l-0.3,0.8l-0.4-0.2L14.2,41.6z M12.5,46.5c0.1-0.4,0.3-0.7,0.6-0.8c0.3-0.2,0.7-0.2,1.1-0.1
		c0.4,0.1,0.7,0.3,0.9,0.6c0.2,0.3,0.2,0.6,0.1,1c-0.1,0.4-0.3,0.7-0.6,0.8c-0.3,0.2-0.7,0.2-1.1,0.1c-0.3-0.1-0.5-0.2-0.6-0.3
		c-0.1-0.1-0.2-0.2-0.3-0.3c-0.1-0.1-0.1-0.3-0.1-0.4C12.4,46.9,12.4,46.7,12.5,46.5z M11,53.4l1.8,0.3l-1.6-1.4l0.1-0.5l2.7,0.5
		l-0.1,0.5l-1.8-0.3l1.6,1.4l-0.1,0.5l-2.7-0.5L11,53.4z M11,56.2c0.3-0.2,0.6-0.3,1.1-0.3c0.4,0,0.8,0.2,1,0.4
		c0.2,0.3,0.3,0.6,0.3,1c0,0.4-0.2,0.7-0.5,0.9c-0.3,0.2-0.6,0.3-1,0.3c-0.3,0-0.5-0.1-0.7-0.2c-0.1-0.1-0.3-0.2-0.4-0.3
		c-0.1-0.1-0.2-0.2-0.2-0.4c-0.1-0.2-0.1-0.4-0.1-0.6C10.5,56.7,10.7,56.4,11,56.2z M10.3,61.9l1.1,0l0-1.1l-1.1,0l0-0.5l2.7,0.1
		l0,0.5l-1.2,0l0,1.1l1.2,0l0,0.5l-2.7-0.1L10.3,61.9z M10.5,66.1l1.1-0.1L11.5,65l-1.1,0.1l0-0.5l2.7-0.2l0,0.6L12,65l0.1,1.1
		l1.2-0.1l0,0.5l-2.7,0.2L10.5,66.1z M10.8,68.6l0.5-0.1l0.2,1.5l0.6-0.1l-0.2-1.3l0.5-0.1l0.2,1.3l0.7-0.1L13,68.2l0.5-0.1l0.3,2.1
		L11,70.6L10.8,68.6z M11.8,74.2l0.6-0.2c0.2,0,0.3-0.1,0.4-0.1c0.1,0,0.1-0.1,0.1-0.2c0-0.1,0-0.2,0-0.3c0-0.1-0.1-0.2-0.1-0.3
		c0-0.1-0.1-0.1-0.2-0.2l-1.1,0.3l-0.1-0.5l2.7-0.6l0.1,0.5l-1.1,0.2c0.1,0.1,0.1,0.2,0.2,0.3c0,0.1,0.1,0.2,0.1,0.3
		c0.1,0.3,0,0.5,0,0.7c-0.1,0.2-0.3,0.4-0.6,0.4l-0.9,0.2L11.8,74.2z M12.8,78.1l1.7-0.5l-2.1-0.6l-0.1-0.5l2.6-0.8l0.1,0.5
		l-1.7,0.5l2,0.6l0.1,0.5L13,78.6L12.8,78.1z M14.3,82.1l1-0.4l-0.4-1l-1,0.4l-0.2-0.5l2.5-1l0.2,0.5l-1.1,0.4l0.4,1l1.1-0.4
		l0.2,0.5l-2.5,1L14.3,82.1z M15.6,85.1l2-2.1l0.2,0.5L17.4,84l0.4,1l0.7,0l0.2,0.5l-2.9,0.2L15.6,85.1z M17.5,88.8
		c-0.2-0.3-0.3-0.5-0.3-0.6c0-0.2,0-0.3,0-0.5c0.1-0.2,0.2-0.3,0.4-0.4c0.1-0.1,0.3-0.1,0.4-0.1c0.1,0,0.2,0,0.3,0.1
		c0.1,0,0.2,0.1,0.2,0.2c0.1,0.1,0.2,0.3,0.3,0.5l0.2,0.3l0.9-0.5l0.3,0.5L18,89.6L17.5,88.8z M18.8,91l0.4-0.2l0.7,1.1l1.9-1.2
		l0.3,0.5l-2.3,1.5L18.8,91z M23.7,95.3c-0.2,0.2-0.4,0.3-0.6,0.3c-0.2,0-0.3,0-0.5,0c-0.2,0-0.3-0.1-0.4-0.1
		c-0.2-0.1-0.3-0.2-0.5-0.4c-0.2-0.3-0.3-0.7-0.3-1c0-0.4,0.2-0.7,0.6-0.9c0.3-0.3,0.7-0.4,1-0.3c0.3,0,0.6,0.2,0.9,0.5
		c0.2,0.3,0.3,0.6,0.3,1C24.2,94.8,24,95.1,23.7,95.3z M27.8,100c-0.3,0.3-0.7,0.5-1,0.5c-0.3,0-0.7-0.1-0.9-0.4
		c-0.2-0.2-0.3-0.5-0.3-0.8c0-0.2,0.1-0.3,0.2-0.5l0.5,0.3c-0.1,0.1-0.1,0.2-0.1,0.4c0,0.1,0.1,0.2,0.2,0.3c0.1,0.2,0.3,0.2,0.5,0.2
		s0.4-0.1,0.6-0.3c0.2-0.2,0.4-0.5,0.4-0.6s0-0.4-0.2-0.5c-0.1-0.1-0.2-0.2-0.4-0.2c-0.1,0-0.3,0-0.5,0.1l-0.2-0.5
		c0.3-0.2,0.5-0.2,0.8-0.2c0.2,0,0.5,0.2,0.7,0.4c0.2,0.3,0.4,0.6,0.4,0.9C28.3,99.3,28.1,99.7,27.8,100z M13.8,61.7
		c0-28.4,23-51.4,51.4-51.4c28.4,0,51.4,23,51.4,51.4c0,28.4-23,51.4-51.4,51.4C36.8,113.1,13.8,90.1,13.8,61.7z M32.8,104.2
		c-0.2,0.2-0.4,0.4-0.5,0.5c-0.1,0.1-0.3,0.1-0.4,0.1c-0.1,0-0.3,0-0.4,0c-0.2-0.1-0.4-0.1-0.5-0.3c-0.3-0.2-0.5-0.5-0.5-0.9
		c0-0.3,0.1-0.7,0.4-1c0.3-0.3,0.6-0.5,0.9-0.6c0.3,0,0.7,0.1,1,0.3c0.3,0.2,0.5,0.6,0.5,0.9C33.2,103.5,33,103.8,32.8,104.2z
		 M34.2,106.9c-0.2-0.1-0.3-0.2-0.4-0.3c-0.1-0.1-0.1-0.2-0.2-0.3c0-0.1-0.1-0.2,0-0.3c0-0.1,0-0.2,0.1-0.3c0.1-0.1,0.2-0.2,0.3-0.2
		c0.1,0,0.2-0.1,0.4,0c-0.1-0.1-0.2-0.3-0.2-0.4c0-0.1,0-0.3,0.1-0.4c0.1-0.1,0.2-0.2,0.3-0.2c0.1-0.1,0.2-0.1,0.3-0.1
		s0.2,0,0.4,0.1c0.1,0,0.3,0.2,0.5,0.4l0.8,0.5l-1.6,2.2L34.2,106.9z M38.8,109.2l-0.2,0.4l-1.9-1.1l0.2-0.4l0.7,0.4l1.1-2l0.5,0.3
		l-1.1,2L38.8,109.2z M42.6,110.2c-0.2,0.4-0.5,0.7-0.8,0.8c-0.3,0.1-0.7,0.1-1-0.1c-0.3-0.2-0.5-0.4-0.6-0.6
		c-0.1-0.2-0.1-0.3,0-0.6l0.5,0.1c0,0.1,0,0.3,0,0.4c0.1,0.1,0.2,0.2,0.3,0.3c0.2,0.1,0.4,0.1,0.5,0s0.3-0.2,0.5-0.5
		c0.2-0.3,0.2-0.5,0.2-0.7c0-0.2-0.1-0.3-0.3-0.4c-0.1-0.1-0.3-0.1-0.4,0c-0.1,0-0.3,0.1-0.4,0.3l-0.4-0.4c0.2-0.2,0.4-0.4,0.7-0.4
		c0.2,0,0.5,0,0.7,0.1c0.3,0.2,0.5,0.4,0.6,0.7C42.9,109.5,42.8,109.8,42.6,110.2z M45.7,112.9l-1.9-0.7l0.2-0.4l1.4,0.5l0.2-0.6
		l-1.3-0.5l0.2-0.4l1.3,0.5l0.3-0.7l-1.4-0.5l0.2-0.4l1.9,0.8L45.7,112.9z M50.8,114.6l-0.5-0.2l0.6-2.2l-0.8-0.2l-0.6,2.2l-0.5-0.1
		l0.6-2.2l-0.8-0.2l-0.6,2.2l-0.5-0.1l0.6-2.2l-0.2-0.1l0.3-1l0.5,0.1l-0.2,0.6l2.9,0.8L50.8,114.6z M54.7,115.5l-2-0.5l0.1-0.4
		l1.5,0.3l0.1-0.6l-0.7-0.2c-0.2,0-0.4-0.1-0.5-0.2c-0.1-0.1-0.2-0.2-0.3-0.3c-0.1-0.2-0.1-0.3,0-0.5c0-0.2,0.1-0.3,0.2-0.4
		c0.1-0.1,0.2-0.2,0.4-0.2s0.3,0,0.5,0l1.2,0.3L54.7,115.5z M59.2,115.5c-0.1,0.1-0.2,0.2-0.3,0.3c-0.1,0.1-0.2,0.2-0.4,0.2
		c-0.2,0-0.4,0.1-0.6,0c-0.4-0.1-0.7-0.2-0.9-0.5c-0.2-0.3-0.3-0.6-0.2-1.1c0.1-0.4,0.2-0.8,0.5-1c0.3-0.2,0.6-0.3,1-0.2
		c0.4,0,0.7,0.2,0.9,0.5c0.2,0.3,0.3,0.6,0.2,1.1C59.4,115.1,59.3,115.3,59.2,115.5z M65.1,115.8c-0.4,0-0.7-0.3-0.7-0.8
		c0-0.4,0.3-0.7,0.7-0.7c0.4,0,0.7,0.3,0.7,0.7C65.8,115.5,65.5,115.8,65.1,115.8z M75.1,115.6l-0.2-1.1l-0.4,0.1
		c0,0.3,0,0.6-0.2,0.9c-0.2,0.3-0.4,0.4-0.8,0.5c-0.4,0.1-0.7,0-1-0.2c-0.3-0.2-0.4-0.5-0.5-1c0-0.3,0-0.5,0-0.8
		c0.1-0.2,0.2-0.4,0.3-0.5c0.1-0.1,0.4-0.2,0.6-0.3c0.3-0.1,0.5-0.1,0.7,0c0.2,0.1,0.3,0.2,0.5,0.3c0.1,0.2,0.2,0.4,0.3,0.6l0.4-0.1
		l-0.2-1.1l0.5-0.1l0.5,2.7L75.1,115.6z M79.1,114.7l-0.2-1.1l-0.7,0.2c-0.3,0.1-0.6,0-0.8-0.1s-0.3-0.3-0.4-0.5c0-0.2,0-0.3,0-0.5
		c0.1-0.2,0.2-0.3,0.2-0.3c0.1-0.1,0.3-0.1,0.5-0.2l1.2-0.3l0.6,2.7L79.1,114.7z M81.4,114l-0.2-0.4l0.8-0.3l-0.7-2.1l0.5-0.2
		l0.7,2.1l0.8-0.2l0.1,0.4L81.4,114z M86.7,111.8c-0.1,0.3-0.4,0.5-0.7,0.7c-0.3,0.1-0.6,0.1-0.9,0c-0.2-0.1-0.3-0.2-0.4-0.4
		l0.5-0.3c0.1,0.1,0.2,0.2,0.3,0.2c0.1,0,0.2,0,0.4,0c0.2-0.1,0.3-0.2,0.4-0.4c0.1-0.2,0-0.4-0.1-0.7c-0.1-0.3-0.3-0.5-0.5-0.6
		c-0.2-0.1-0.3-0.1-0.5,0c-0.1,0.1-0.2,0.2-0.3,0.3c-0.1,0.1-0.1,0.3,0,0.5l-0.6,0c0-0.3,0-0.6,0.1-0.8c0.1-0.2,0.3-0.4,0.6-0.5
		c0.3-0.1,0.7-0.1,1,0c0.3,0.1,0.5,0.4,0.7,0.8C86.8,111.1,86.8,111.4,86.7,111.8z M90.7,109.8c0,0.2-0.1,0.3-0.2,0.4
		c-0.1,0.1-0.3,0.3-0.5,0.4c-0.4,0.2-0.7,0.2-1,0.1c-0.3-0.1-0.6-0.4-0.8-0.8c-0.2-0.4-0.2-0.8-0.1-1.1c0.1-0.3,0.3-0.6,0.7-0.8
		c0.4-0.2,0.7-0.2,1-0.1c0.3,0.1,0.6,0.4,0.8,0.8c0.1,0.2,0.2,0.5,0.2,0.7C90.8,109.5,90.7,109.7,90.7,109.8z M94.2,108.1l-0.6-0.9
		l-0.9,0.6l0.6,0.9l-0.5,0.3l-1.5-2.3l0.5-0.3l0.7,1l0.9-0.6l-0.6-1l0.5-0.3l1.5,2.3L94.2,108.1z M97.6,105.8l-0.6-0.9l-0.9,0.6
		l0.6,0.9l-0.5,0.3l-1.6-2.2l0.5-0.3l0.7,1l0.9-0.6l-0.7-1l0.5-0.3l1.6,2.2L97.6,105.8z M99.7,104.3l-0.3-0.4l1.1-1l-0.4-0.5l-1,0.9
		l-0.3-0.4l1-0.9l-0.5-0.6l-1.1,1l-0.3-0.3l1.6-1.4l1.8,2L99.7,104.3z M103.4,100.9c-0.2,0.1-0.3,0.2-0.4,0.3
		c-0.1,0.1-0.2,0.1-0.3,0.1c-0.1,0-0.2,0-0.3,0c-0.1,0-0.2-0.1-0.3-0.2c-0.1-0.1-0.1-0.2-0.2-0.3c0-0.1,0-0.2,0-0.4
		c-0.2,0.1-0.3,0.1-0.5,0.1c-0.1,0-0.3-0.1-0.4-0.2c-0.1-0.1-0.1-0.2-0.2-0.3c0-0.1-0.1-0.2,0-0.4c0-0.1,0.1-0.2,0.2-0.4
		c0.1-0.1,0.2-0.2,0.5-0.5l0.7-0.6l1.9,2L103.4,100.9z M105.5,98.8l-0.3-0.3l0.5-0.6l-1.7-1.5l0.4-0.4l1.7,1.5l0.5-0.6l0.4,0.3
		L105.5,98.8z M108.6,95.2c-0.2,0.3-0.5,0.4-0.7,0.5c-0.2,0-0.4,0-0.6-0.1l0.2-0.5c0.1,0.1,0.3,0.1,0.4,0c0.1,0,0.2-0.1,0.3-0.2
		c0.1-0.2,0.2-0.3,0.1-0.5c0-0.2-0.2-0.4-0.4-0.6c-0.3-0.2-0.5-0.3-0.7-0.3c-0.2,0-0.3,0.1-0.5,0.2c-0.1,0.1-0.1,0.2-0.1,0.4
		c0,0.1,0.1,0.3,0.2,0.5l-0.5,0.3c-0.2-0.3-0.3-0.5-0.3-0.7c0-0.2,0.1-0.5,0.3-0.7c0.2-0.3,0.5-0.4,0.8-0.5c0.3,0,0.7,0.1,1,0.4
		c0.4,0.3,0.6,0.6,0.6,0.9C108.9,94.6,108.8,94.9,108.6,95.2z M110.3,92.7l-0.4-0.2l0.4-0.7l-1.9-1.2l0.3-0.5l1.9,1.2l0.4-0.7
		l0.4,0.2L110.3,92.7z M112.4,89.4l-0.4-0.2l0.7-1.3l-0.5-0.3l-0.7,1.2l-0.4-0.2l0.7-1.2l-0.6-0.4l-0.8,1.3l-0.4-0.2l1-1.8l2.4,1.4
		L112.4,89.4z M114.8,84.9c-0.1,0.2-0.2,0.3-0.2,0.4c-0.1,0.1-0.1,0.2-0.2,0.2c-0.1,0-0.2,0.1-0.3,0.1c-0.1,0-0.2,0-0.3-0.1
		c-0.1,0-0.2-0.1-0.3-0.2c-0.1-0.1-0.1-0.2-0.1-0.3c-0.1,0.1-0.2,0.2-0.4,0.2c-0.1,0-0.3,0-0.4,0c-0.1-0.1-0.2-0.1-0.3-0.2
		c-0.1-0.1-0.1-0.2-0.2-0.3c0-0.1,0-0.2,0-0.4c0-0.1,0.1-0.3,0.2-0.6l0.4-0.8l2.5,1.1L114.8,84.9z M115.9,82.3l-0.4-0.2l0.3-0.8
		l-2.1-0.8l0.2-0.5l2.1,0.8l0.3-0.8l0.4,0.2L115.9,82.3z M117.7,77.4c-0.1,0.4-0.3,0.7-0.6,0.8c-0.3,0.2-0.7,0.2-1.1,0.1
		c-0.4-0.1-0.7-0.3-0.9-0.6c-0.2-0.3-0.2-0.7-0.1-1c0.1-0.4,0.3-0.7,0.6-0.8c0.3-0.2,0.7-0.2,1.1-0.1c0.3,0.1,0.5,0.2,0.6,0.3
		c0.1,0.1,0.2,0.2,0.3,0.4c0.1,0.1,0.1,0.3,0.1,0.4C117.8,77,117.8,77.2,117.7,77.4z M119.2,70.5l-1.8-0.3l1.6,1.4l-0.1,0.5
		l-2.7-0.5l0.1-0.5l1.8,0.3l-1.6-1.4l0.1-0.5l2.7,0.5L119.2,70.5z M119.3,67.7c-0.3,0.2-0.6,0.3-1.1,0.3c-0.4,0-0.8-0.2-1-0.4
		c-0.2-0.3-0.3-0.6-0.3-1c0-0.4,0.2-0.7,0.5-0.9c0.3-0.2,0.6-0.3,1-0.3c0.3,0,0.5,0.1,0.7,0.2c0.1,0.1,0.3,0.2,0.4,0.3
		c0.1,0.1,0.2,0.2,0.2,0.4c0.1,0.2,0.1,0.4,0.1,0.6C119.7,67.1,119.6,67.5,119.3,67.7z"/>
	<path class="st2" d="M73.6,113.7c-0.1-0.1-0.3-0.2-0.5-0.2c-0.2,0-0.4,0.1-0.5,0.3c-0.1,0.2-0.1,0.4,0,0.8c0.1,0.3,0.2,0.5,0.3,0.6
		c0.2,0.1,0.3,0.2,0.5,0.1c0.2,0,0.3-0.1,0.4-0.3c0.1-0.2,0.1-0.4,0.1-0.7C73.8,114.1,73.7,113.9,73.6,113.7z"/>
	<path class="st2" d="M101.9,99.2c-0.1,0.1-0.2,0.2-0.3,0.3c0,0.1-0.1,0.1-0.1,0.2c0,0.1,0,0.2,0.1,0.2c0.1,0.1,0.1,0.1,0.2,0.1
		c0.1,0,0.1,0,0.2,0c0.1,0,0.2-0.1,0.4-0.3l0.3-0.3l-0.5-0.5L101.9,99.2z"/>
	<path class="st2" d="M119.7,70.9c-0.1,0-0.1,0.1-0.1,0.2c0,0.1,0,0.2,0,0.2c0,0,0,0,0,0C119.7,71.2,119.7,71.1,119.7,70.9
		C119.8,70.9,119.7,70.9,119.7,70.9z"/>
</g>
<path id="path21" class="st2" d="M21.6,73.6l-0.3,0.1l0,0.1c0.1,0.3,0,0.3-0.2,0.4L18.7,75c-0.1,0-0.3,0.1-0.4-0.2l0-0.1L18,74.8
	l0.5,1.5l0.3-0.1l0-0.1c-0.1-0.3,0-0.3,0.2-0.4l0.9-0.3l0.4,0.2l-0.9,1c0,0-0.2,0.2-0.2,0.2c-0.1,0-0.1,0-0.1-0.1l0-0.1l-0.3,0.1
	l0.5,1.4l0.3-0.1l0-0.1c-0.1-0.2,0.3-0.6,0.6-0.9l1.1-1.2l0.7,0.3c0.3,0.1,0.4,0.2,0.5,0.5l0.3-0.1l-0.3-1L22,75.7l0,0.1
	c0,0.1,0,0.1,0,0.2c0,0-0.1,0-0.3-0.1l-1.3-0.5l0-0.1l1.1-0.4c0.1,0,0.3-0.1,0.4,0.2l0,0.1l0.3-0.1L21.6,73.6z M21.2,79.4l0.1,0.3
	c0.5,1.2,1.1,1.3,1.6,1.1c0.5-0.2,1-0.8,0.6-1.9l-0.6-1.4l-0.3,0.1l0,0.1c0.1,0.2,0.1,0.3-0.2,0.4l-2.5,1c-0.2,0.1-0.3,0-0.4-0.2
	l0-0.1l-0.3,0.1l0.6,1.5l0.3-0.1l-0.1-0.2c-0.1-0.2-0.1-0.3,0.2-0.4L21.2,79.4z M21.5,79.3l1.3-0.5c0.2-0.1,0.3,0,0.4,0.2
	c0.1,0.3,0.1,0.7-0.5,1c-0.4,0.1-0.9,0.1-1.1-0.5L21.5,79.3z M25.1,82.2L25,82.1c-0.3-0.1-0.4-0.2-0.6-0.5l-0.2,0.1l0,0
	c0.1,0.2,0,0.2,0,0.2c-0.1,0-0.1,0-0.2,0.1l-2.4,0.3c-0.2,0-0.4,0.1-0.6-0.2l-0.2,0.1l0.5,0.9l0.2-0.1l-0.1-0.1c0,0,0-0.1,0-0.1
	c0,0,0,0,0,0c0,0,0.2,0,0.2,0l0.6-0.1l0.6,1.1l-0.5,0.5c-0.1,0.1-0.1,0.1-0.1,0.1c0,0,0,0,0,0c-0.1,0-0.1,0-0.1,0l-0.1-0.1l-0.2,0.1
	l0.6,1.2l0.2-0.1c0,0,0-0.1-0.1-0.1c-0.1-0.2,0.2-0.5,0.3-0.6L25.1,82.2z M24,82.3L24,82.3l-1,1.1l-0.4-0.9L24,82.3z M26.6,86.9
	l0.6-0.4c0-0.3-0.1-0.8-0.3-1.1c-0.5-0.8-1.6-1.1-2.6-0.4c-1,0.7-1.2,1.6-0.7,2.5c0.2,0.3,0.5,0.6,1,0.8l0.8-0.4l-0.1-0.1
	c-0.4,0.2-1,0.1-1.3-0.4c-0.2-0.3-0.3-1,0.8-1.7c1.1-0.7,1.7-0.5,2-0.1c0.2,0.2,0.2,0.6-0.2,1.1L26.6,86.9z M25.5,89.3
	c-0.2,0.1-0.3,0.1-0.4-0.1l0-0.1l-0.2,0.2l0.9,1.2l0.2-0.2l0-0.1c-0.1-0.2-0.1-0.3,0.1-0.4l1.1-0.8l0.7,1l-1.1,0.8
	c-0.1,0.1-0.2,0.2-0.4-0.1l0-0.1L26.1,91l0.9,1.2l0.2-0.2l0-0.1c-0.2-0.2,0-0.3,0.1-0.4l2.2-1.5c0.1-0.1,0.2-0.2,0.4,0.1L30,90
	l-0.9-1.2L28.9,89l0,0.1c0.2,0.2,0,0.3-0.1,0.4L28.1,90l-0.7-1l0.8-0.6c0.2-0.1,0.3-0.1,0.4,0.1l0,0.1l0.2-0.2l-0.9-1.2l-0.2,0.2
	l0,0.1c0.1,0.2,0.1,0.3-0.1,0.4L25.5,89.3z M28.6,94.2c0.7,0.8,1.7,0.8,2.6,0c0.9-0.8,1-1.8,0.4-2.6C31,91,30,90.8,29,91.7
	C28.1,92.4,28,93.5,28.6,94.2z M28.9,94c-0.2-0.2-0.4-0.7,0.7-1.7c1-0.8,1.5-0.8,1.8-0.4c0.5,0.6-0.3,1.4-0.7,1.7
	C29.6,94.6,29.1,94.2,28.9,94z M29.7,96.6l0.1,0.1c0.4-0.3,1-0.2,1.6,0.3l0.3,0.3c0.6,0.6,0.8,1,0.5,1.8l0.1,0.1l0.7-1L33,98.1
	c-0.2-0.2-0.2-0.2,0-0.4l1.8-1.9c0.2-0.2,0.3-0.1,0.4,0l0.1,0.1l0.2-0.2l-2.1-2l-0.2,0.2l0.1,0.1c0.2,0.2,0.2,0.3-0.2,0.7
	c-0.5,0.5-1.3,1.1-1.8,1.3c-0.3,0.1-0.5,0.1-0.7-0.2L29.7,96.6z M32.4,97.1c-0.1,0.1-0.2,0.2-0.4,0l-0.8-0.7l0,0
	c0.1,0,0.6-0.2,1.7-1.1c0.6-0.5,0.7-0.8,1-0.5l0.2,0.2c0.2,0.2,0.1,0.3,0,0.4L32.4,97.1z M37.3,97l-0.2-0.1c-0.4,0-0.5,0-0.7-0.2
	l-0.1,0.1l0,0c0.1,0.1,0.1,0.2,0.1,0.2c0,0.1-0.1,0.1-0.2,0.1l-2,1.3c-0.2,0.1-0.3,0.3-0.7,0l-0.2,0.2l0.8,0.6l0.2-0.2l-0.1-0.1
	c0,0-0.1-0.1-0.1-0.1c0,0,0,0,0,0c0,0,0.1-0.1,0.2-0.1l0.5-0.3l0.9,0.7l-0.2,0.7c0,0.1,0,0.1,0,0.1c0,0,0,0,0,0c0,0-0.1,0-0.1,0
	l-0.1-0.1l-0.2,0.2l1,0.8l0.2-0.2c0,0-0.1-0.1-0.1-0.1c-0.1-0.2,0-0.5,0-0.7L37.3,97z M36.3,97.5L36.3,97.5l-0.4,1.4l-0.8-0.6
	L36.3,97.5z M38.4,100.8l0.2,0.2c1.1,0.7,1.6,0.4,1.9-0.1c0.3-0.4,0.4-1.3-0.6-1.8l-1.3-0.8l-0.1,0.2l0.1,0.1
	c0.2,0.1,0.2,0.2,0.1,0.4l-1.4,2.2c-0.1,0.2-0.2,0.2-0.4,0.1l-0.1-0.1l-0.1,0.2l1.4,0.9l0.1-0.2L38,102c-0.2-0.1-0.2-0.2-0.1-0.4
	L38.4,100.8z M38.6,100.6l0.7-1.2c0.1-0.2,0.2-0.2,0.4-0.1c0.2,0.2,0.5,0.5,0.2,1.1c-0.2,0.3-0.6,0.6-1.2,0.3L38.6,100.6z
	 M43.8,102.5l0.3-0.7c-0.2-0.3-0.4-0.6-0.8-0.8c-0.9-0.5-1.9-0.2-2.5,0.9c-0.6,1.1-0.3,2,0.6,2.5c0.3,0.2,0.7,0.3,1.2,0.3l0.5-0.7
	l-0.1-0.1c-0.3,0.3-0.9,0.5-1.3,0.3c-0.3-0.2-0.7-0.7-0.1-1.8c0.6-1.1,1.3-1.2,1.7-1c0.3,0.1,0.5,0.5,0.4,1.1L43.8,102.5z M44.9,102
	l-0.1,0.2l0.1,0c0.3,0.1,0.2,0.3,0.1,0.4l-1.1,2.4c-0.1,0.1-0.1,0.3-0.4,0.1l-0.1,0l-0.1,0.2l1.4,0.6l0.1-0.2l-0.1,0
	c-0.2-0.1-0.2-0.2-0.1-0.4l0.4-0.9l0.4-0.2l0.1,1.4c0,0.1,0,0.2,0,0.3c0,0.1-0.1,0.1-0.2,0l-0.1,0l-0.1,0.2l1.4,0.6l0.1-0.2l-0.1,0
	c-0.2-0.1-0.2-0.6-0.3-1l-0.1-1.6l0.7-0.3c0.3-0.1,0.5-0.2,0.7-0.1l0.1-0.2l-1-0.4l-0.1,0.2l0.1,0c0.1,0,0.1,0.1,0.1,0.1
	c0,0-0.1,0.1-0.2,0.2l-1.3,0.6l-0.1,0l0.5-1.1c0.1-0.1,0.1-0.3,0.4-0.1l0.1,0l0.1-0.2L44.9,102z M49.4,104.5c0-0.1,0.1-0.3,0.4-0.2
	l0.1,0l0.1-0.3l-1.5-0.5l-0.1,0.3l0.1,0c0.3,0.1,0.2,0.2,0.2,0.4l-0.8,2.5c0,0.1-0.1,0.3-0.4,0.2l-0.1,0l-0.1,0.3l1.5,0.5l0.1-0.3
	l-0.1,0c-0.3-0.1-0.2-0.2-0.2-0.4l0.1-0.2l1.7-1.2l0.1,0l-0.6,1.8c-0.1,0.2-0.2,0.2-0.4,0.2l-0.1,0l-0.1,0.3l1.5,0.5l0.1-0.3l-0.1,0
	c-0.2-0.1-0.3-0.1-0.2-0.4l0.8-2.5c0.1-0.2,0.2-0.2,0.4-0.2l0.1,0l0.1-0.3l-1.5-0.5l-0.1,0.3l0.1,0c0.2,0.1,0.3,0.1,0.2,0.4l0,0.1
	l-1.8,1.2l-0.1,0L49.4,104.5z M54,105.4l-1.5-0.4l-0.1,0.3l0.1,0c0.2,0,0.3,0.1,0.2,0.3l-0.6,2.6c-0.1,0.2-0.1,0.3-0.3,0.2l-0.1,0
	l-0.1,0.3l1.5,0.4l0.1-0.3l-0.1,0c-0.3-0.1-0.2-0.2-0.2-0.3l0-0.2l1.6-1.4l0.1,0l-0.4,1.9c-0.1,0.2-0.2,0.3-0.3,0.2l-0.1,0l-0.1,0.3
	l1.5,0.4l0.1-0.3l-0.1,0c-0.2,0-0.3-0.1-0.2-0.3l0.6-2.6c0.1-0.2,0.1-0.3,0.3-0.2l0.1,0l0.1-0.3l-1.5-0.3l-0.1,0.3l0.1,0
	c0.2,0,0.3,0.1,0.2,0.3l0,0.1l-1.6,1.4l-0.1,0l0.4-1.7c0-0.1,0.1-0.3,0.3-0.2l0.1,0L54,105.4z M54.4,105.3c0.5,0.1,0.8-0.1,0.8-0.4
	c0-0.2-0.1-0.4-0.2-0.4c-0.1,0-0.2,0.1-0.3,0.2c0,0.1,0,0.1,0,0.2c0,0.1,0.1,0.1,0.1,0.1c0,0-0.1,0.2-0.4,0.1
	c-0.2-0.1-0.3-0.2-0.3-0.3c0-0.1,0.1-0.1,0.1-0.1c0,0,0.1-0.1,0.1-0.1c0-0.1,0-0.3-0.2-0.3c-0.2,0-0.3,0.1-0.4,0.3
	C53.7,104.9,53.9,105.2,54.4,105.3z M58.8,106.4l0,0.3l0.1,0c0.3,0,0.3,0.2,0.3,0.3l-0.2,2.6c0,0.1,0,0.3-0.3,0.3l-0.1,0l0,0.3
	l1.6,0.1l0-0.3l-0.1,0c-0.3,0-0.3-0.2-0.3-0.3l0.1-0.9l0.3-0.3l0.5,1.2c0,0.1,0.1,0.2,0.1,0.3c0,0.1-0.1,0.1-0.1,0.1l-0.1,0l0,0.3
	l1.5,0.1l0-0.3l-0.1,0c-0.2,0-0.4-0.5-0.6-0.9l-0.6-1.5l0.5-0.6c0.2-0.2,0.4-0.3,0.6-0.3l0-0.3l-1-0.1l0,0.3l0.1,0
	c0.1,0,0.1,0,0.1,0.1c0,0,0,0.1-0.2,0.2l-1,1l-0.1,0l0.1-1.2c0-0.1,0-0.3,0.3-0.3l0.1,0l0-0.3L58.8,106.4z M64,109.1l0.3,0
	c1.3,0,1.6-0.5,1.6-1.1c0-0.5-0.3-1.3-1.5-1.2l-1.5,0l0,0.3l0.1,0c0.2,0,0.3,0.1,0.3,0.3l-0.1,2.6c0,0.2-0.1,0.3-0.3,0.3l-0.1,0
	l0,0.3l1.6,0l0-0.3l-0.2,0c-0.2,0-0.3-0.1-0.3-0.3L64,109.1z M64,108.7l0-1.4c0-0.2,0.1-0.3,0.3-0.3c0.3,0,0.7,0.1,0.7,0.8
	c0,0.4-0.2,0.9-0.9,0.8L64,108.7z M68.1,106.6l-0.2,0c-0.3,0.3-0.4,0.3-0.6,0.4l0,0.2l0.1,0c0.2,0,0.2,0.1,0.2,0.1
	c0,0.1,0,0.1,0,0.2l-0.6,2.3c-0.1,0.2-0.1,0.4-0.5,0.5l0,0.3l1-0.1l0-0.3l-0.1,0c0,0-0.1,0-0.1,0c0,0,0,0,0,0c0,0,0-0.2,0-0.2
	l0.1-0.6l1.2-0.1l0.3,0.7c0,0.1,0,0.1,0,0.1c0,0,0,0,0,0c0,0.1,0,0.1-0.1,0.1l-0.2,0l0,0.3l1.3-0.1l0-0.3c0,0-0.1,0-0.1,0
	c-0.2,0-0.4-0.4-0.4-0.5L68.1,106.6z M67.8,107.6L67.8,107.6l0.6,1.3l-1,0.1L67.8,107.6z M71.7,106.3l-1.6,0.2l0,0.3l0.1,0
	c0.2,0,0.3,0,0.3,0.2l0.3,2.6c0,0.2,0,0.3-0.2,0.3l-0.1,0l0,0.3l1.6-0.2l0-0.3l-0.1,0c-0.3,0-0.3-0.1-0.3-0.2l0-0.2l1-1.8l0.1,0
	l0.2,1.9c0,0.2-0.1,0.3-0.2,0.3l-0.1,0l0,0.3l1.5-0.2l0-0.3l-0.1,0c-0.2,0-0.3,0-0.3-0.2l-0.3-2.6c0-0.2,0-0.3,0.2-0.3l0.1,0l0-0.3
	l-1.5,0.2l0,0.3l0.1,0c0.2,0,0.3,0,0.3,0.2l0,0.1l-1,1.9l-0.1,0l-0.2-1.8c0-0.1,0-0.3,0.2-0.3l0.1,0L71.7,106.3z M71.9,106.1
	c0.5-0.1,0.7-0.4,0.6-0.6c0-0.2-0.2-0.3-0.4-0.3c-0.1,0-0.2,0.1-0.2,0.3c0,0.1,0,0.1,0.1,0.1c0.1,0,0.1,0.1,0.1,0.1
	c0,0-0.1,0.2-0.3,0.2c-0.2,0-0.4-0.1-0.4-0.1c0-0.1,0.1-0.1,0.1-0.1c0,0,0.1-0.1,0.1-0.2c0-0.1-0.1-0.2-0.3-0.2
	c-0.2,0-0.3,0.2-0.3,0.4C71.2,105.9,71.5,106.1,71.9,106.1z M78.5,106l-1.7,0.5l0.1,0.2l0.1,0c0.1,0,0.2,0,0.2,0.1l0.5,1.7
	c0,0.1,0,0.2-0.1,0.2l-0.1,0l0.1,0.2l1.2-0.3l-0.1-0.2l-0.1,0c-0.1,0-0.2,0-0.2-0.1l-0.5-1.6c0-0.2,0-0.2,0.2-0.2
	c0.2-0.1,0.4-0.1,0.8,0.2l0.1,0L78.5,106z M80,107.8c0.1,0.2,0.3,0.3,0.5,0.3c0.2-0.1,0.3-0.3,0.2-0.5c-0.1-0.2-0.3-0.4-0.5-0.3
	C80,107.4,79.9,107.6,80,107.8z M83.1,106.5c0.1,0.2,0,0.3-0.1,0.4l-0.1,0l0.1,0.2l1.4-0.6l-0.1-0.2l-0.1,0
	c-0.2,0.1-0.3,0.1-0.4-0.1l-0.6-1.2l1.2-0.5l0.6,1.2c0.1,0.1,0.1,0.3-0.1,0.4l-0.1,0l0.1,0.2l1.4-0.6l-0.1-0.2l-0.1,0
	c-0.3,0.1-0.3,0-0.4-0.1l-1.1-2.4c-0.1-0.1-0.1-0.3,0.2-0.4l-0.1-0.2l-1.4,0.6l0.1,0.2l0.1,0c0.3-0.1,0.3,0,0.4,0.1l0.4,0.9
	l-1.2,0.5l-0.4-0.9c-0.1-0.2,0-0.3,0.1-0.4l0.1,0l-0.1-0.2l-1.4,0.6l0.1,0.2l0.1,0c0.2-0.1,0.3-0.1,0.4,0.1L83.1,106.5z M88.6,104.6
	c0.9-0.5,1.1-1.5,0.5-2.5c-0.6-1-1.6-1.3-2.5-0.8c-0.8,0.4-1.2,1.4-0.5,2.5C86.8,104.8,87.8,105.1,88.6,104.6z M88.5,104.3
	c-0.3,0.2-0.8,0.3-1.5-1c-0.6-1.1-0.5-1.6-0.1-1.8c0.7-0.4,1.3,0.6,1.5,1C89.1,103.7,88.7,104.1,88.5,104.3z M88.8,100l0.1,0.2
	l0.1-0.1c0.2-0.1,0.3-0.1,0.4,0.1l1.4,2.1c0.1,0.2,0.2,0.3,0,0.5l-0.1,0.1l0.1,0.2l1.5-1c0.2-0.1,1.1-0.7,0.5-1.6
	c-0.3-0.5-0.9-0.6-1.3-0.3l0,0c0.3-0.2,0.5-0.7,0.2-1.1c-0.5-0.7-1.3-0.2-1.7,0L88.8,100z M90.2,99.9c-0.1-0.1-0.1-0.2,0.1-0.4
	c0.2-0.1,0.6-0.3,0.9,0.2c0.3,0.4,0,0.8-0.5,1L90.2,99.9z M90.9,101c0.1,0,0.1-0.1,0.3-0.2c0.6-0.3,0.9,0.1,1,0.2
	c0.1,0.2,0.3,0.7-0.2,1.1c0,0,0,0,0,0c-0.2,0.1-0.3,0.1-0.4-0.1L90.9,101z M95.5,100c0.8-0.6,0.9-1.7,0.1-2.6
	c-0.7-0.9-1.8-1.1-2.6-0.5c-0.7,0.6-0.9,1.6-0.1,2.6C93.7,100.4,94.7,100.6,95.5,100z M95.3,99.7c-0.2,0.2-0.8,0.4-1.7-0.8
	c-0.8-1-0.7-1.5-0.3-1.8c0.6-0.5,1.4,0.4,1.7,0.8C95.9,99.1,95.6,99.6,95.3,99.7z M94.9,95.5l0.2,0.2l0.1-0.1c0.2-0.2,0.3-0.1,0.4,0
	l1.8,1.9c0.1,0.1,0.2,0.2,0,0.4l-0.1,0.1l0.2,0.2l1.1-1.1L98.4,97l-0.1,0.1c-0.2,0.2-0.3,0.1-0.4,0l-0.6-0.7l0-0.5l1.3,0.5
	c0.1,0,0.2,0.1,0.3,0.1c0.1,0.1,0,0.1,0,0.2l0,0l0.2,0.2l1.1-1l-0.2-0.2l-0.1,0.1c-0.2,0.2-0.7,0-1-0.1L97.2,95l-0.1-0.8
	c0-0.3,0-0.5,0.2-0.7l-0.2-0.2l-0.8,0.7l0.2,0.2l0,0c0.1-0.1,0.1-0.1,0.2,0c0,0,0.1,0.1,0.1,0.3l0.1,1.4l0,0l-0.8-0.8
	c-0.1-0.1-0.2-0.2,0-0.4l0.1-0.1L96,94.5L94.9,95.5z M98.6,91.8l-1,1.1l0.2,0.2c0.2-0.2,0.3-0.2,0.6-0.1l2.5,0.8
	c0.2,0.3,0.2,0.5,0.1,0.6s-0.2,0.1-0.2,0c0,0-0.1-0.1-0.1-0.1c0-0.1-0.1-0.1-0.1-0.1c-0.2-0.2-0.4-0.2-0.5-0.1
	c-0.1,0.1-0.1,0.3,0.1,0.6c0.2,0.2,0.7,0.3,1-0.1c0.2-0.3,0.2-0.6,0-1l-1.2-2.4c-0.1-0.3-0.1-0.4,0.1-0.7l-0.2-0.2l-0.8,0.9l0.2,0.2
	l0.1-0.1c0,0,0.1-0.1,0.2,0c0.1,0.1,0.2,0.3,0.3,0.4l0.5,1l0,0L99,92.4c-0.1,0-0.1,0-0.2-0.1c0,0-0.1-0.1,0-0.2L98.6,91.8z
	 M101.8,87.9l-1.6,2l0.2,0.2l0.1-0.1c0.1-0.2,0.2-0.2,0.4,0l2.1,1.6c0.2,0.2,0.1,0.3,0,0.4l-0.1,0.1l0.2,0.2l1.2-1.5
	c0.4-0.6,0.4-1.2-0.1-1.6c-0.4-0.3-1.1-0.5-1.8,0.5c-0.1,0.1-0.2,0.2-0.2,0.3l-0.7-0.6c-0.1-0.1-0.2-0.2,0-0.4c0,0,0-0.1,0.1-0.1
	c0.2-0.3,0.4-0.4,1-0.4l0.1-0.1L101.8,87.9z M102.4,90.2c0-0.1,0.1-0.1,0.1-0.2c0.2-0.3,0.6-0.7,1.1-0.3c0.6,0.5,0.3,1,0.2,1.1
	c0,0,0,0.1-0.1,0.1c-0.1,0.2-0.2,0.2-0.4,0L102.4,90.2z M103.3,85.6l-0.1,0.2c0.1,0.4,0.1,0.5-0.1,0.7l0.1,0.1l0,0
	c0.1-0.1,0.2-0.1,0.2-0.1c0.1,0,0.1,0.1,0.2,0.2l1.5,1.9c0.1,0.2,0.3,0.3,0.1,0.7l0.2,0.1l0.5-0.8l-0.2-0.1l-0.1,0.1
	c0,0-0.1,0.1-0.1,0.1c0,0,0,0,0,0c0,0-0.1-0.1-0.1-0.2l-0.4-0.5l0.7-1l0.7,0.2c0.1,0,0.1,0,0.1,0c0,0,0,0,0,0c0,0,0,0.1,0,0.1
	l-0.1,0.1l0.2,0.1l0.7-1.1l-0.2-0.1c0,0-0.1,0.1-0.1,0.1c-0.2,0.2-0.5,0.1-0.7,0L103.3,85.6z M103.9,86.4L103.9,86.4l1.4,0.3
	l-0.5,0.8L103.9,86.4z M107.3,85.2c0.2,0.1,0.2,0.2,0.1,0.4l0,0.1l0.2,0.1l0.7-1.3l-0.2-0.1l0,0.1c-0.1,0.2-0.2,0.2-0.4,0.1
	l-1.2-0.6l0.6-1.1l1.2,0.6c0.1,0.1,0.3,0.1,0.1,0.4l0,0.1l0.2,0.1l0.7-1.3l-0.2-0.1l0,0.1c-0.1,0.3-0.3,0.2-0.4,0.1l-2.4-1.2
	c-0.1-0.1-0.3-0.1-0.1-0.4l-0.2-0.1l-0.7,1.3l0.2,0.1l0-0.1c0.1-0.2,0.3-0.2,0.4-0.1l0.8,0.4l-0.6,1.1l-0.8-0.4
	c-0.2-0.1-0.2-0.2-0.1-0.4l0-0.1l-0.2-0.1l-0.7,1.3l0.2,0.1l0-0.1c0.1-0.2,0.2-0.2,0.4-0.1L107.3,85.2z M108.2,78l-0.7-0.2
	c-0.3,0.2-0.6,0.5-0.7,0.9c-0.4,0.9,0,1.9,1.2,2.4c1.2,0.5,2,0,2.4-0.9c0.1-0.3,0.2-0.8,0.1-1.3l-0.8-0.4l-0.1,0.1
	c0.4,0.3,0.6,0.8,0.5,1.3c-0.1,0.4-0.6,0.8-1.8,0.4c-1.2-0.5-1.4-1.1-1.2-1.6c0.1-0.3,0.4-0.5,1-0.5L108.2,78z M107.6,76.8l0.3,0.1
	l0-0.1c0.1-0.3,0.2-0.2,0.4-0.2l2.5,0.8c0.1,0,0.3,0.1,0.2,0.4l0,0.1l0.3,0.1l0.5-1.5l-0.3-0.1l0,0.1c-0.1,0.3-0.2,0.2-0.4,0.2
	l-0.9-0.3l-0.3-0.4l1.3-0.2c0.1,0,0.2,0,0.3,0c0.1,0,0.1,0.1,0.1,0.2l0,0.1l0.3,0.1l0.5-1.4l-0.3-0.1l0,0.1c-0.1,0.2-0.6,0.3-1,0.3
	l-1.6,0.2l-0.4-0.7c-0.2-0.3-0.2-0.4-0.1-0.7l-0.3-0.1l-0.3,1l0.3,0.1l0-0.1c0-0.1,0.1-0.1,0.1-0.1c0,0,0.1,0,0.2,0.2l0.7,1.2l0,0.1
	l-1.1-0.4c-0.1,0-0.3-0.1-0.2-0.4l0-0.1l-0.3-0.1L107.6,76.8z"/>
<path id="path23" class="st2" d="M26.8,76.9l0.1,0.3c0.5,1.4,1.2,1.5,1.8,1.2c0.5-0.2,1.1-0.9,0.5-2.1l-0.7-1.6l-0.3,0.1l0,0.1
	c0.1,0.2,0.1,0.3-0.2,0.4l-2.6,1c-0.2,0.1-0.3,0-0.4-0.2l0-0.1l-0.3,0.1l0.7,1.7l0.3-0.1l-0.1-0.2c-0.1-0.2-0.1-0.3,0.2-0.4
	L26.8,76.9z M27.1,76.8l1.3-0.5c0.2-0.1,0.3,0,0.4,0.2c0.1,0.3,0.2,0.8-0.5,1.1c-0.4,0.2-0.9,0.1-1.2-0.6L27.1,76.8z M27.8,82.6
	c0.6,1,1.7,1.3,2.7,0.7c1.1-0.6,1.4-1.7,0.8-2.7c-0.5-0.9-1.5-1.4-2.7-0.7C27.5,80.5,27.2,81.6,27.8,82.6z M28.1,82.4
	c-0.2-0.3-0.3-0.9,1-1.7c1.2-0.7,1.7-0.4,2,0c0.5,0.8-0.6,1.4-1,1.7C28.7,83.2,28.3,82.8,28.1,82.4z M34,86.7l0.6-0.5
	c0-0.4-0.2-0.8-0.4-1.2c-0.7-0.9-1.8-1.2-2.9-0.4c-1,0.7-1.2,1.8-0.5,2.8c0.2,0.3,0.6,0.7,1.1,0.9l0.8-0.5l-0.1-0.1
	c-0.5,0.2-1.1,0.1-1.4-0.4c-0.3-0.4-0.5-1.1,0.6-1.8c1.1-0.8,1.8-0.6,2.1-0.1c0.2,0.3,0.3,0.7-0.1,1.2L34,86.7z M37.2,90.2l0.5-0.6
	c-0.1-0.4-0.3-0.8-0.6-1.1c-0.8-0.8-1.9-0.9-2.9,0c-0.9,0.9-0.9,2-0.1,2.8c0.3,0.3,0.7,0.6,1.2,0.7l0.7-0.6L36,91.3
	c-0.4,0.2-1.1,0.2-1.5-0.2c-0.3-0.3-0.6-1,0.4-1.9c0.9-0.9,1.7-0.8,2.1-0.4c0.2,0.2,0.4,0.6,0.1,1.2L37.2,90.2z M39.7,91.8
	c0.1-0.1,0.2-0.2,0.4,0l0.1,0.1l0.2-0.2L39,90.5l-0.2,0.2l0.1,0.1c0.2,0.2,0.2,0.3,0.1,0.4l-1.7,2.1c-0.1,0.1-0.2,0.2-0.4,0
	l-0.1-0.1l-0.2,0.2l1.4,1.1l0.2-0.2L38,94.4c-0.2-0.2-0.2-0.3-0.1-0.4l0.1-0.2l2.2-0.5l0.1,0l-1.2,1.6c-0.2,0.2-0.3,0.2-0.4,0
	l-0.1-0.1l-0.2,0.2l1.4,1.1l0.2-0.2l-0.1-0.1c-0.2-0.1-0.2-0.2-0.1-0.4l1.7-2.1c0.2-0.2,0.3-0.2,0.4,0l0.1,0.1l0.2-0.2L40.9,92
	l-0.2,0.2l0.1,0.1c0.2,0.1,0.2,0.2,0.1,0.4l-0.1,0.1l-2.2,0.5l0,0L39.7,91.8z M44.7,94.7l-1.6-0.9L43,94.1l0.1,0.1
	c0.2,0.1,0.3,0.2,0.1,0.4L41.9,97c-0.1,0.2-0.2,0.2-0.4,0.1L41.4,97l-0.1,0.2l1.6,0.9l0.1-0.2l-0.1-0.1c-0.3-0.2-0.2-0.3-0.1-0.4
	l0.1-0.2l2.1-0.8l0.1,0l-1,1.7c-0.1,0.2-0.2,0.2-0.4,0.1l-0.1-0.1l-0.1,0.2l1.5,0.9l0.1-0.2L44.9,99c-0.2-0.1-0.3-0.2-0.1-0.4
	l1.4-2.4c0.1-0.2,0.2-0.2,0.4-0.1l0.1,0.1l0.1-0.2l-1.5-0.9l-0.1,0.2l0.1,0.1c0.2,0.1,0.3,0.2,0.1,0.4l0,0.1l-2.1,0.8l-0.1,0
	l0.9-1.6c0.1-0.1,0.1-0.3,0.4-0.1l0.1,0.1L44.7,94.7z M45.1,94.8c0.5,0.3,0.9,0.1,1-0.1c0.1-0.2,0-0.4-0.1-0.5
	c-0.1-0.1-0.3,0-0.4,0.1c0,0.1,0,0.1,0,0.2c0,0.1,0.1,0.1,0.1,0.2c0,0-0.2,0.1-0.4,0c-0.2-0.1-0.3-0.3-0.3-0.4c0,0,0.1,0,0.2,0
	c0.1,0,0.1-0.1,0.2-0.1c0.1-0.1,0.1-0.3-0.1-0.4c-0.2-0.1-0.4,0-0.5,0.1C44.5,94.2,44.7,94.5,45.1,94.8z M50.6,98.9l0.3-0.7
	c-0.2-0.3-0.6-0.6-1-0.8c-1-0.5-2.1-0.1-2.7,1.1c-0.5,1.2-0.1,2.2,1,2.6c0.3,0.2,0.9,0.3,1.4,0.2l0.4-0.8l-0.2-0.1
	c-0.3,0.4-0.9,0.6-1.4,0.4c-0.4-0.2-0.9-0.7-0.4-1.9c0.5-1.2,1.3-1.4,1.8-1.2c0.3,0.1,0.6,0.5,0.6,1.1L50.6,98.9z M52.3,98.4
	l-0.1,0.3l0.1,0c0.3,0.1,0.3,0.2,0.2,0.4l-0.8,2.6c0,0.1-0.1,0.3-0.4,0.2l-0.1,0l-0.1,0.3l1.7,0.5l0.1-0.3l-0.1,0
	c-0.3-0.1-0.3-0.2-0.2-0.4l0.3-0.9l0.4-0.3l0.3,1.4c0,0.1,0.1,0.3,0,0.3c0,0.1-0.1,0.1-0.2,0.1l-0.1,0l-0.1,0.3l1.7,0.5l0.1-0.3
	l-0.1,0c-0.3-0.1-0.4-0.6-0.5-1l-0.4-1.7l0.7-0.4c0.3-0.2,0.5-0.2,0.8-0.2l0.1-0.3l-1.2-0.3l-0.1,0.3l0.1,0c0.1,0,0.2,0.1,0.1,0.1
	c0,0,0,0.1-0.2,0.2l-1.3,0.8l-0.1,0l0.3-1.2c0-0.1,0.1-0.3,0.4-0.2l0.1,0l0.1-0.3L52.3,98.4z M59.2,100l-0.2,0
	c-0.4,0.2-0.5,0.2-0.8,0.2l0,0.2l0.1,0c0.2,0,0.2,0.1,0.2,0.2c0,0.1-0.1,0.1-0.1,0.2l-1.3,2.2c-0.1,0.2-0.2,0.4-0.7,0.4l0,0.3
	l1.1,0.2l0-0.3l-0.1,0c-0.1,0-0.1,0-0.1-0.1c0,0,0,0,0,0c0,0,0.1-0.2,0.1-0.2l0.3-0.6l1.4,0.2l0.1,0.7c0,0.1,0,0.1,0,0.1
	c0,0,0,0,0,0c0,0.1-0.1,0-0.1,0l-0.2,0l0,0.3l1.5,0.2l0-0.3c0,0-0.1,0-0.2,0c-0.2-0.1-0.3-0.5-0.3-0.6L59.2,100z M58.6,101L58.6,101
	l0.3,1.5l-1.1-0.2L58.6,101z M64,102.8l0,1c0,0.1,0,0.3-0.3,0.3l-0.1,0l0,0.3l1.7,0l0-0.3l-0.1,0c-0.3,0-0.3-0.1-0.3-0.3l0-2.8
	c0-0.2,0-0.3,0.3-0.3l0.1,0l0-0.3l-1.8,0c-1.1,0-1.7,0.3-1.7,1.1c0,0.6,0.4,1,0.9,1l0,0.1l-0.4,0.6c-0.1,0.1-0.4,0.5-0.5,0.6
	c-0.1,0.1-0.2,0.2-0.4,0.2l0,0.3l1.7,0l0-0.3l-0.1,0c-0.1,0-0.2-0.1-0.2-0.2c0-0.1,0-0.1,0.1-0.3l0.5-0.9L64,102.8z M64,102.5
	l-0.3,0c-0.7,0-0.8-0.5-0.8-0.8c0-0.8,0.5-0.8,0.8-0.8c0,0,0.1,0,0.1,0c0.3,0,0.2,0.2,0.2,0.3L64,102.5z M71.1,104l1.8-0.3l0-0.3
	l-0.1,0c-0.2,0-0.3,0-0.4-0.2l0-0.2c0.7-0.1,1.8-0.5,1.6-1.6c-0.2-0.9-1.2-1.2-2.1-1l0-0.1c0-0.2,0.1-0.2,0.3-0.2l0.1,0l0-0.3
	l-1.8,0.3l0,0.3l0.1,0c0.2,0,0.3,0,0.4,0.1l0,0.1c-0.9,0.1-1.8,0.7-1.6,1.6c0.2,1.1,1.4,1.1,2.1,1l0,0.2c0,0.2,0,0.3-0.3,0.3l-0.1,0
	L71.1,104z M71.4,102.9c-0.4,0-0.9-0.1-1.1-0.8c-0.1-0.7,0.3-1,0.7-1.1L71.4,102.9z M72,100.8c0.7-0.1,1,0.4,1.1,0.8
	c0.1,0.8-0.3,1.1-0.7,1.1L72,100.8z M77.8,98.5l-2.9,0.8l0.1,0.3l0.1,0c0.3-0.1,0.3,0,0.4,0.2l0.8,2.6c0,0.1,0.1,0.3-0.2,0.4l-0.1,0
	l0.1,0.3l3.1-0.9l-0.1-1l-0.2,0.1c-0.1,0.6-0.5,0.8-0.8,0.9l-0.5,0.1c-0.2,0.1-0.3,0-0.4-0.2l-0.4-1.2l0.6-0.2
	c0.3-0.1,0.5-0.1,0.6,0.2l0.2-0.1l-0.3-1l-0.2,0.1c0.1,0.4-0.2,0.4-0.6,0.6l-0.4,0.1l-0.3-1c-0.1-0.2,0-0.3,0.2-0.4l0.4-0.1
	c0.2-0.1,0.7-0.1,1,0.3l0.2-0.1L77.8,98.5z M81,102.5l0.2-0.1c-0.1-0.5,0.2-1.1,1-1.5l0.5-0.2c0.9-0.4,1.4-0.5,2.1,0.1l0.2-0.1
	l-0.7-1.1L84,99.7c-0.2,0.1-0.3,0.1-0.4-0.1l-1.1-2.5c-0.1-0.2,0-0.3,0.2-0.4l0.1,0l-0.1-0.3l-3,1.3l0.1,0.3l0.1,0
	c0.2-0.1,0.4-0.1,0.7,0.4c0.3,0.7,0.6,1.7,0.6,2.3c0,0.3-0.1,0.5-0.5,0.7L81,102.5z M82.8,100c0.1,0.2,0.1,0.3-0.2,0.4l-1.1,0.5
	l0-0.1c0-0.1,0.1-0.7-0.4-2.1c-0.3-0.7-0.5-1-0.1-1.2l0.3-0.1c0.3-0.1,0.3,0,0.4,0.1L82.8,100z M86.4,94.3l-2.6,1.5L84,96l0.1-0.1
	c0.3-0.1,0.3,0,0.4,0.1l1.4,2.4c0.1,0.1,0.1,0.3-0.1,0.4l-0.1,0.1l0.1,0.2l2.8-1.6l-0.3-0.9l-0.2,0.1c0,0.7-0.3,0.9-0.6,1.1L87,98
	c-0.2,0.1-0.3,0.1-0.4-0.1L86,96.8l0.5-0.3c0.2-0.1,0.4-0.2,0.6,0.1l0.2-0.1l-0.5-0.9l-0.2,0.1c0.2,0.4-0.1,0.5-0.5,0.7l-0.3,0.2
	l-0.5-0.9c-0.1-0.2-0.1-0.3,0.1-0.4l0.4-0.2c0.2-0.1,0.6-0.3,1.1,0.1l0.2-0.1L86.4,94.3z M90.2,94.4l0.3-0.2c1.2-0.9,1.1-1.6,0.7-2
	c-0.3-0.4-1.1-0.8-2.1,0.1l-1.4,1.1l0.2,0.2l0.1-0.1c0.2-0.1,0.3-0.2,0.4,0l1.7,2.2c0.1,0.2,0.1,0.3-0.1,0.4l-0.1,0.1l0.2,0.2
	l1.5-1.1l-0.2-0.2l-0.2,0.1c-0.2,0.1-0.3,0.2-0.4,0L90.2,94.4z M90,94.2L89.2,93c-0.1-0.2-0.1-0.3,0.1-0.5c0.3-0.2,0.7-0.4,1.2,0.2
	c0.3,0.3,0.4,0.8-0.2,1.3L90,94.2z M92.7,88.9l-0.2,0.2c0,0.4-0.1,0.5-0.3,0.8l0.1,0.1l0,0c0.1-0.1,0.2-0.1,0.2,0
	c0.1,0.1,0.1,0.1,0.1,0.2l1,2.3c0.1,0.2,0.2,0.4-0.1,0.7l0.2,0.2l0.8-0.8l-0.2-0.2l-0.1,0.1c0,0-0.1,0.1-0.1,0.1c0,0,0,0,0,0
	c0,0-0.1-0.2-0.1-0.2l-0.3-0.6l1-0.9l0.7,0.3c0.1,0,0.1,0.1,0.1,0.1c0,0,0,0,0,0c0,0.1,0,0.1,0,0.1l-0.1,0.1l0.2,0.2l1.1-1l-0.2-0.2
	c0,0-0.1,0.1-0.1,0.1c-0.2,0.1-0.6-0.1-0.7-0.1L92.7,88.9z M93.1,90L93.1,90l1.4,0.6l-0.8,0.8L93.1,90z M96.1,85.2l0.2,0.2l0.1-0.1
	c0.2-0.2,0.3-0.2,0.4-0.1l2.1,1.7c0.1,0.1,0.2,0.2,0,0.4L98.4,88c-0.2,0.2-0.3,0.2-0.4,0.1l-2.1-1.7c-0.1-0.1-0.2-0.2,0-0.4l0.1-0.1
	l-0.2-0.2L94.6,87l0.2,0.2l0.1-0.1c0.2-0.2,0.3-0.2,0.4-0.1l2.1,1.7c0.1,0.1,0.2,0.2,0,0.4l-0.1,0.1l0.2,0.2l1.7-2.1
	c0.4-0.5,0.6-0.6,0.9-0.7c0.3-0.1,0.6-0.1,0.9-0.1l0.1-0.1l-1-0.5c-0.2,0.3-0.4,0.5-0.7,0.3l-2.1-1.7c-0.1-0.1-0.2-0.2,0-0.4
	l0.1-0.1l-0.2-0.2L96.1,85.2z M99,81.9c-0.1-0.1-0.3-0.1-0.1-0.4l0.1-0.1l-0.2-0.1l-0.9,1.5l0.2,0.1l0.1-0.1
	c0.2-0.3,0.3-0.2,0.4-0.1l2.4,1.4c0.1,0.1,0.3,0.1,0.1,0.4l-0.1,0.1l0.2,0.1l0.9-1.6l-0.2-0.1l-0.1,0.1c-0.2,0.3-0.3,0.2-0.4,0.1
	l-0.2-0.1l-0.8-2.1l0-0.1l1.7,1c0.2,0.1,0.2,0.2,0.1,0.4l-0.1,0.1l0.2,0.1l0.9-1.5l-0.2-0.1L103,81c-0.1,0.2-0.2,0.3-0.4,0.1
	l-2.4-1.4c-0.2-0.1-0.2-0.2-0.1-0.4l0.1-0.1l-0.2-0.1L99,80.7l0.2,0.1l0.1-0.1c0.1-0.2,0.2-0.3,0.4-0.1l0.1,0l0.8,2.1l0,0.1L99,81.9
	z M103.4,76.8l0.9,0.4c0.1,0,0.3,0.1,0.2,0.3l0,0.1l0.3,0.1l0.6-1.6l-0.3-0.1l0,0.1c-0.1,0.3-0.2,0.3-0.4,0.2l-2.6-1
	c-0.1-0.1-0.3-0.1-0.2-0.4l0-0.1l-0.3-0.1l-0.6,1.7c-0.4,1-0.3,1.7,0.5,2c0.6,0.2,1.1-0.1,1.3-0.5l0.1,0l0.4,0.5
	c0.1,0.1,0.4,0.5,0.4,0.7c0,0.1,0.1,0.3,0,0.4l0.3,0.1l0.6-1.6l-0.3-0.1l0,0c0,0.1-0.1,0.2-0.2,0.1c-0.1,0-0.1-0.1-0.2-0.2l-0.7-0.8
	L103.4,76.8z M103.1,76.7L103,77c-0.3,0.7-0.7,0.6-1.1,0.5c-0.7-0.3-0.6-0.8-0.5-1.1c0,0,0-0.1,0-0.1c0.1-0.2,0.3-0.2,0.3-0.1
	L103.1,76.7z"/>
<path id="path25" class="st2" d="M30.1,60.3c0-2.1,0.6-3.8,1.7-4.9c1.1-1.2,2.6-1.8,4.4-1.8c1.2,0,2.2,0.3,3.2,0.8
	c0.9,0.6,1.7,1.3,2.2,2.3c0.5,1,0.7,2.1,0.7,3.4c0,1.3-0.3,2.4-0.8,3.5c-0.5,1-1.3,1.8-2.2,2.3c-1,0.5-2,0.8-3.1,0.8
	c-1.2,0-2.3-0.3-3.2-0.9c-0.9-0.6-1.7-1.4-2.1-2.4C30.3,62.4,30.1,61.4,30.1,60.3z M31.8,60.3c0,1.5,0.4,2.7,1.2,3.6
	c0.8,0.9,1.9,1.3,3.1,1.3c1.3,0,2.3-0.4,3.1-1.3c0.8-0.9,1.2-2.1,1.2-3.8c0-1-0.2-1.9-0.5-2.7c-0.3-0.8-0.9-1.4-1.5-1.8
	C37.8,55.2,37,55,36.2,55c-1.2,0-2.2,0.4-3.1,1.2C32.3,57,31.8,58.4,31.8,60.3z M50.9,53.4l1.4,0c-0.1,0.6-0.2,1-0.4,1.3
	c-0.2,0.2-0.5,0.4-0.8,0.5c-0.3,0.1-1,0.1-1.9,0.1c-1.3,0-2.2,0.1-2.6,0.4c-0.5,0.2-0.8,0.6-1,1.2c-0.2,0.5-0.3,1.2-0.3,2.1
	c0.4-0.6,0.9-1,1.4-1.3c0.5-0.3,1.1-0.4,1.8-0.4c1.2,0,2.2,0.4,3,1.2c0.8,0.8,1.2,1.9,1.2,3.4c0,1.1-0.2,2-0.6,2.6
	c-0.4,0.7-0.9,1.2-1.4,1.6c-0.5,0.4-1.3,0.6-2.2,0.6c-1.1,0-1.9-0.2-2.5-0.7c-0.6-0.5-1.1-1.1-1.4-1.9c-0.3-0.8-0.5-2.1-0.5-4.1
	c0-2.4,0.4-4.1,1.2-4.9c0.8-0.8,2.1-1.3,3.8-1.3c1.1,0,1.7,0,1.8-0.1C50.8,53.7,50.9,53.6,50.9,53.4L50.9,53.4z M50.9,61.8
	c0-1-0.2-1.7-0.7-2.3c-0.5-0.6-1.1-0.9-1.9-0.9c-0.9,0-1.5,0.3-2,1c-0.5,0.6-0.7,1.5-0.7,2.6c0,1.1,0.3,1.9,0.8,2.4
	c0.5,0.6,1.2,0.8,1.9,0.8c0.8,0,1.4-0.3,1.9-1C50.6,63.7,50.9,62.9,50.9,61.8z M54.4,70V57.2h1.4v1.2c0.3-0.5,0.7-0.8,1.1-1.1
	c0.4-0.2,0.9-0.4,1.5-0.4c0.8,0,1.5,0.2,2.1,0.6c0.6,0.4,1.1,1,1.4,1.7c0.3,0.7,0.5,1.5,0.5,2.4c0,0.9-0.2,1.8-0.5,2.5
	c-0.3,0.8-0.8,1.3-1.5,1.7c-0.6,0.4-1.3,0.6-2,0.6c-0.5,0-1-0.1-1.4-0.3c-0.4-0.2-0.8-0.5-1-0.8V70H54.4z M55.8,61.9
	c0,1.2,0.2,2.1,0.7,2.6c0.5,0.6,1.1,0.8,1.7,0.8c0.7,0,1.3-0.3,1.8-0.9c0.5-0.6,0.7-1.5,0.7-2.7c0-1.2-0.2-2-0.7-2.6
	c-0.5-0.6-1.1-0.9-1.7-0.9c-0.7,0-1.2,0.3-1.8,0.9C56,59.8,55.8,60.7,55.8,61.9z M70.2,65.3c-0.6,0.5-1.1,0.8-1.7,1
	c-0.5,0.2-1.1,0.3-1.7,0.3c-1,0-1.8-0.2-2.3-0.7c-0.5-0.5-0.8-1.1-0.8-1.9c0-0.4,0.1-0.9,0.3-1.2c0.2-0.4,0.5-0.7,0.8-0.9
	c0.3-0.2,0.7-0.4,1.1-0.5c0.3-0.1,0.8-0.2,1.4-0.2c1.3-0.1,2.2-0.3,2.8-0.5c0-0.2,0-0.3,0-0.4c0-0.6-0.1-1.1-0.4-1.3
	c-0.4-0.4-1-0.5-1.8-0.5c-0.7,0-1.3,0.1-1.6,0.4c-0.4,0.3-0.6,0.7-0.8,1.4L64,59.9c0.1-0.7,0.4-1.2,0.7-1.6c0.3-0.4,0.8-0.7,1.4-0.9
	c0.6-0.2,1.3-0.3,2.1-0.3c0.8,0,1.4,0.1,1.9,0.3c0.5,0.2,0.9,0.4,1.1,0.7c0.2,0.3,0.4,0.6,0.5,1.1c0.1,0.3,0.1,0.7,0.1,1.4v2.1
	c0,1.4,0,2.4,0.1,2.7c0.1,0.4,0.2,0.8,0.4,1.1h-1.6C70.4,66.1,70.3,65.7,70.2,65.3z M70.1,61.8c-0.6,0.2-1.4,0.4-2.6,0.6
	c-0.6,0.1-1.1,0.2-1.4,0.3c-0.3,0.1-0.5,0.3-0.6,0.5c-0.1,0.2-0.2,0.5-0.2,0.7c0,0.4,0.2,0.8,0.5,1c0.3,0.3,0.8,0.4,1.4,0.4
	c0.6,0,1.1-0.1,1.6-0.4c0.5-0.3,0.8-0.6,1-1.1c0.2-0.4,0.3-0.9,0.3-1.6L70.1,61.8z M75.9,62.3V61c0.7,0,1.1,0,1.3-0.1
	c0.2,0,0.5-0.2,0.7-0.4c0.2-0.2,0.3-0.5,0.3-0.9c0-0.4-0.1-0.8-0.4-1c-0.3-0.3-0.6-0.4-1.1-0.4c-0.9,0-1.5,0.5-1.8,1.5l-1.5-0.2
	c0.5-1.7,1.6-2.6,3.3-2.6c1,0,1.7,0.3,2.3,0.8c0.6,0.5,0.8,1.2,0.8,1.9c0,0.7-0.4,1.3-1.1,1.8c0.5,0.2,0.8,0.6,1,0.9
	c0.2,0.4,0.3,0.8,0.3,1.4c0,0.8-0.3,1.5-0.9,2c-0.6,0.5-1.4,0.8-2.5,0.8c-2.1,0-3.3-0.9-3.6-2.8l1.5-0.3c0.1,0.6,0.4,1,0.8,1.4
	c0.4,0.3,0.9,0.5,1.4,0.5s1-0.1,1.3-0.4c0.3-0.3,0.5-0.7,0.5-1.1c0-0.4-0.1-0.7-0.3-0.9c-0.2-0.3-0.5-0.4-0.7-0.5
	c-0.2-0.1-0.7-0.1-1.3-0.1C76.2,62.3,76.1,62.3,75.9,62.3z M88.1,63.5l1.6,0.2c-0.3,0.9-0.7,1.7-1.4,2.2c-0.7,0.5-1.6,0.8-2.6,0.8
	c-1.3,0-2.4-0.4-3.2-1.2c-0.8-0.8-1.2-2-1.2-3.5c0-1.5,0.4-2.7,1.2-3.6c0.8-0.9,1.8-1.3,3.1-1.3c1.2,0,2.2,0.4,3,1.3
	c0.8,0.8,1.2,2,1.2,3.5c0,0.1,0,0.2,0,0.4h-6.9c0.1,1,0.3,1.8,0.9,2.3c0.5,0.5,1.2,0.8,1.9,0.8c0.6,0,1.1-0.2,1.5-0.5
	C87.5,64.6,87.9,64.1,88.1,63.5z M83,61h5.1c-0.1-0.8-0.3-1.4-0.6-1.7c-0.5-0.6-1.1-0.9-1.9-0.9c-0.7,0-1.3,0.2-1.8,0.7
	C83.3,59.5,83,60.2,83,61z M91.7,57.2h1.6v7.9h4.3v-7.9h1.6v7.9h1V69h-1.3v-2.6h-7.2L91.7,57.2z"/>
</svg>
