<?xml version="1.0" encoding="UTF-8" standalone="no"?>
<svg
   xmlns:dc="http://purl.org/dc/elements/1.1/"
   xmlns:cc="http://creativecommons.org/ns#"
   xmlns:rdf="http://www.w3.org/1999/02/22-rdf-syntax-ns#"
   xmlns:svg="http://www.w3.org/2000/svg"
   xmlns="http://www.w3.org/2000/svg"
   viewBox="0 0 155.9055 155.9055"
   id="svg25"
   height="155.9055"
   width="155.9055"
   version="1.1">
  <metadata
     id="metadata31">
    <rdf:RDF>
      <cc:Work
         rdf:about="">
        <dc:format>image/svg+xml</dc:format>
        <dc:type
           rdf:resource="http://purl.org/dc/dcmitype/StillImage" />
      </cc:Work>
    </rdf:RDF>
  </metadata>
  <defs
     id="defs29" />
  <path
     id="path2"
     style="fill:none;stroke:#1b1918;stroke-width:1.41729999;stroke-linecap:butt;stroke-linejoin:miter;stroke-dasharray:none"
     d="m 77.9528,21.2598 c 31.3106,0 56.6929,25.3823 56.6929,56.693 0,31.3106 -25.3823,56.6929 -56.6929,56.6929 -31.3107,0 -56.693,-25.3823 -56.693,-56.6929 0,-31.3107 25.3823,-56.693 56.693,-56.693 z" />
  <path
     id="path4"
     style="fill:none;stroke:#1b1918;stroke-width:0.7087;stroke-linecap:butt;stroke-linejoin:miter;stroke-dasharray:none"
     d="m 77.9528,23.5984 c 30.0191,0 54.3543,24.3352 54.3543,54.3544 0,30.0191 -24.3352,54.3543 -54.3543,54.3543 -30.0192,0 -54.3544,-24.3352 -54.3544,-54.3543 0,-30.0192 24.3352,-54.3544 54.3544,-54.3544 z" />
  <path
     id="path6"
     style="fill:none;stroke:#1b1918;stroke-width:0.7087;stroke-linecap:butt;stroke-linejoin:miter;stroke-dasharray:none"
     d="m 77.9528,34.3913 c 24.0582,0 43.5614,19.5033 43.5614,43.5615 0,24.0582 -19.5032,43.5614 -43.5614,43.5614 -24.0582,0 -43.5615,-19.5032 -43.5615,-43.5614 0,-24.0582 19.5033,-43.5615 43.5615,-43.5615 z" />
  <g
     id="Layer1000">
    <path
       id="path8"
       style="fill:#1b1918;fill-rule:evenodd"
       d="m 47.9721,116.2417 c -0.485,0.559 -1.0159,0.8666 -1.5913,0.9221 -0.5755,0.0553 -1.1005,-0.1235 -1.5761,-0.5363 -0.3118,-0.2704 -0.5275,-0.5884 -0.6491,-0.9541 -0.1211,-0.3651 -0.1319,-0.7379 -0.0321,-1.118 0.0992,-0.3793 0.2948,-0.7379 0.5874,-1.0749 0.2962,-0.3416 0.631,-0.5879 1.0029,-0.737 0.3724,-0.1505 0.7455,-0.1848 1.1182,-0.1035 0.3739,0.0808 0.7076,0.2489 1.0004,0.5032 0.3177,0.2758 0.5346,0.5987 0.6522,0.9694 0.1168,0.3697 0.1256,0.7433 0.0241,1.1206 -0.1009,0.3764 -0.2795,0.7126 -0.5366,1.0085 z m -0.4549,-0.4084 c 0.3523,-0.406 0.5204,-0.8204 0.5045,-1.243 -0.0158,-0.4227 -0.1885,-0.7776 -0.5181,-1.0636 -0.3362,-0.2917 -0.7141,-0.4127 -1.1359,-0.3659 -0.4212,0.0473 -0.82,0.288 -1.1959,0.7211 -0.2378,0.2741 -0.3994,0.5539 -0.4839,0.8382 -0.0845,0.2849 -0.0862,0.5613 -0.0054,0.8283 0.0814,0.2676 0.2327,0.498 0.455,0.6908 0.3155,0.2738 0.6814,0.4014 1.0973,0.3821 0.4155,-0.0193 0.843,-0.2815 1.2824,-0.788 z m -5.1276,-1.486 -2.0118,-2.0897 0.3776,-0.3634 1.6007,1.6628 0.9933,-0.9564 -0.7399,-0.7682 c -0.2732,-0.284 -0.4634,-0.5354 -0.5706,-0.7557 -0.1074,-0.2197 -0.1346,-0.4518 -0.0816,-0.6979 0.0527,-0.2452 0.1789,-0.4634 0.3781,-0.6553 0.1625,-0.1565 0.3493,-0.2671 0.5599,-0.3297 0.2114,-0.0635 0.4308,-0.0669 0.6582,-0.009 0.227,0.0573 0.5077,0.2588 0.8402,0.6041 l 1.2135,1.2605 z m 2.4426,-3.1742 -0.8198,-0.8515 c -0.2214,-0.2299 -0.434,-0.3575 -0.6384,-0.383 -0.204,-0.0241 -0.3996,0.053 -0.5862,0.2325 -0.1332,0.1284 -0.2126,0.2681 -0.2381,0.4198 -0.0255,0.1516 0.0032,0.2999 0.0865,0.4447 0.0842,0.146 0.2622,0.3595 0.534,0.6421 l 0.5474,0.5683 z m -5.5483,-0.1219 -0.3665,-0.4657 3.0983,-2.4372 -0.9139,-1.162 -3.0983,2.4373 -0.3665,-0.4658 3.0983,-2.4375 -0.9139,-1.1616 -3.0983,2.4372 -0.3665,-0.466 3.0983,-2.4372 -0.2466,-0.3136 1.3875,-1.0916 0.3237,0.4116 -0.9754,0.7676 2.85,3.6233 z m 0.0037,-7.4381 -3.7644,2.4038 -1.7356,-2.7184 0.4413,-0.2818 1.4168,2.2187 1.1568,-0.7387 -1.3261,-2.0767 0.4417,-0.2818 1.326,2.0764 1.2827,-0.8189 -1.4737,-2.3083 0.4416,-0.282 z m -4.9819,-5.6798 -0.1338,-0.5964 c 0.489,-0.1088 0.9187,-0.0768 1.2912,0.0953 0.3722,0.1715 0.6636,0.4643 0.8737,0.879 0.2165,0.4286 0.3058,0.8215 0.2667,1.1792 -0.0383,0.3572 -0.1885,0.6894 -0.4487,0.9972 -0.2614,0.3081 -0.5811,0.5584 -0.9615,0.7509 -0.4145,0.2098 -0.8161,0.3138 -1.2053,0.3115 -0.3892,-0.002 -0.7382,-0.1094 -1.0463,-0.3203 -0.3084,-0.2109 -0.5508,-0.4926 -0.7282,-0.8433 -0.2018,-0.3988 -0.2704,-0.7846 -0.2041,-1.1585 0.0657,-0.3747 0.2548,-0.7081 0.568,-1.0003 l 0.3844,0.4558 c -0.2429,0.2381 -0.3863,0.4793 -0.4294,0.7217 -0.044,0.242 0.0017,0.4963 0.1363,0.7625 0.1545,0.3053 0.3575,0.5241 0.6075,0.6554 0.2506,0.1306 0.5213,0.1754 0.8098,0.1332 0.29,-0.042 0.5664,-0.1293 0.8286,-0.2619 0.3388,-0.1712 0.6097,-0.3702 0.8124,-0.5962 0.2036,-0.2264 0.3147,-0.4748 0.3345,-0.746 0.0201,-0.271 -0.0312,-0.5273 -0.1536,-0.7694 -0.1491,-0.2948 -0.3606,-0.5003 -0.6336,-0.6185 -0.2738,-0.1176 -0.5958,-0.1284 -0.9686,-0.0309 z m 0.5528,-2.7961 -3.6723,1.4341 0.5358,1.3717 -0.4879,0.1904 -1.2869,-3.2947 0.4878,-0.1904 0.5358,1.3714 3.6723,-1.4344 z m -0.9652,-2.4704 -4.2987,1.2121 -0.4547,-1.6132 c -0.0927,-0.3282 -0.1239,-0.6032 -0.0927,-0.8271 0.0312,-0.2225 0.1213,-0.4156 0.2707,-0.5789 0.1482,-0.1635 0.3217,-0.2729 0.5196,-0.3288 0.1834,-0.0516 0.3705,-0.0504 0.5604,0.0029 0.1902,0.0533 0.3637,0.1664 0.5204,0.3393 0.0026,-0.2815 0.0763,-0.5185 0.2211,-0.7093 0.1437,-0.1919 0.341,-0.3231 0.5913,-0.3937 0.2022,-0.057 0.4014,-0.0666 0.5984,-0.0303 0.1973,0.0363 0.36,0.1037 0.489,0.2024 0.1284,0.0989 0.2438,0.2358 0.345,0.4104 0.1012,0.1755 0.1905,0.4 0.2679,0.6741 z m -2.6524,0.1321 -0.2619,-0.9295 c -0.0712,-0.2522 -0.1395,-0.4283 -0.2033,-0.5283 -0.0839,-0.133 -0.1868,-0.2217 -0.3072,-0.2665 -0.1208,-0.0448 -0.2563,-0.0465 -0.4071,-0.004 -0.1434,0.0403 -0.2596,0.11 -0.3484,0.2095 -0.0898,0.0987 -0.1372,0.218 -0.1417,0.3561 -0.004,0.1386 0.0374,0.3625 0.1244,0.6704 l 0.2424,0.8597 z m 1.9871,-0.5601 -0.3019,-1.0706 c -0.0519,-0.1843 -0.095,-0.3113 -0.1304,-0.3824 -0.0595,-0.1236 -0.1298,-0.2228 -0.2095,-0.2951 -0.0799,-0.0729 -0.1802,-0.1222 -0.3013,-0.1497 -0.1213,-0.0272 -0.2503,-0.0213 -0.3872,0.0173 -0.1613,0.0456 -0.2888,0.1256 -0.3844,0.2424 -0.0958,0.1153 -0.1468,0.2531 -0.1536,0.4127 -0.0071,0.1587 0.028,0.3756 0.1052,0.6486 l 0.2803,0.9946 z m -2.5577,-2.8287 c -0.7282,0.1324 -1.3348,0.0397 -1.8181,-0.2772 -0.4836,-0.3169 -0.781,-0.7849 -0.8935,-1.4046 -0.074,-0.4062 -0.0434,-0.7892 0.0907,-1.1506 0.1341,-0.3603 0.3591,-0.6579 0.6746,-0.8917 0.315,-0.2336 0.692,-0.3909 1.1311,-0.4709 0.4447,-0.0808 0.86,-0.0635 1.2435,0.053 0.3847,0.116 0.6971,0.3223 0.9369,0.6191 0.2409,0.2974 0.3957,0.637 0.4651,1.0185 0.0754,0.4141 0.0423,0.8016 -0.098,1.1642 -0.1404,0.3617 -0.3674,0.6588 -0.6826,0.8892 -0.3141,0.2305 -0.6642,0.3807 -1.0497,0.451 z m -0.0992,-0.6035 c 0.5289,-0.0961 0.9195,-0.3141 1.1715,-0.6534 0.252,-0.3398 0.3396,-0.7245 0.2617,-1.154 -0.0797,-0.4379 -0.2985,-0.769 -0.6568,-0.9963 -0.3583,-0.2268 -0.8198,-0.2889 -1.3842,-0.1863 -0.3571,0.0649 -0.6582,0.1823 -0.9019,0.351 -0.2444,0.1692 -0.4187,0.3838 -0.5228,0.6426 -0.104,0.2596 -0.1301,0.534 -0.0776,0.8234 0.0748,0.4113 0.2803,0.7396 0.6168,0.9848 0.3362,0.2452 0.8337,0.3081 1.4933,0.1882 z m -0.6092,-9.5204 0.1043,-0.6021 c 0.4935,0.0865 0.8785,0.2801 1.1566,0.5814 0.2786,0.3007 0.4359,0.6828 0.4711,1.1463 0.0366,0.4791 -0.0312,0.8762 -0.2044,1.1917 -0.1718,0.3155 -0.4377,0.5649 -0.7957,0.7498 -0.3591,0.1848 -0.7503,0.2939 -1.1752,0.3262 -0.4635,0.0355 -0.8742,-0.0221 -1.2331,-0.1729 -0.3586,-0.1511 -0.6401,-0.3832 -0.8441,-0.6959 -0.2044,-0.3127 -0.3209,-0.6658 -0.3507,-1.0576 -0.034,-0.4456 0.0502,-0.8286 0.2546,-1.1486 0.2038,-0.3212 0.5059,-0.5567 0.907,-0.7072 l 0.1809,0.568 c -0.3155,0.1273 -0.5403,0.2954 -0.6727,0.5029 -0.1332,0.2069 -0.1882,0.4595 -0.1655,0.7568 0.0261,0.341 0.1298,0.6208 0.311,0.8377 0.1814,0.2165 0.4144,0.3617 0.6973,0.4328 0.2837,0.072 0.5726,0.097 0.8657,0.0746 0.3784,-0.0287 0.705,-0.1089 0.9785,-0.2401 0.2747,-0.1315 0.4722,-0.3186 0.5944,-0.5616 0.1222,-0.2426 0.1727,-0.4989 0.152,-0.7696 -0.025,-0.3294 -0.1418,-0.6001 -0.3487,-0.8138 -0.2081,-0.2134 -0.5017,-0.3464 -0.8833,-0.3988 z m -0.5712,-3.1629 c -0.7378,-0.0564 -1.3013,-0.2994 -1.6888,-0.7282 -0.3875,-0.4289 -0.5568,-0.957 -0.5089,-1.5852 0.0312,-0.4113 0.1579,-0.7741 0.3787,-1.0899 0.2212,-0.3146 0.5143,-0.5457 0.8788,-0.6922 0.3637,-0.1463 0.7682,-0.203 1.2132,-0.1692 0.4507,0.0343 0.8479,0.1561 1.1897,0.3659 0.3427,0.2095 0.5927,0.4884 0.7495,0.8359 0.1582,0.3487 0.222,0.7166 0.1925,1.1033 -0.0321,0.4198 -0.1622,0.786 -0.3895,1.1015 -0.2273,0.3141 -0.5219,0.544 -0.8853,0.6874 -0.3625,0.1435 -0.739,0.2004 -1.1299,0.1707 z m 0.057,-0.6089 c 0.536,0.0408 0.9689,-0.0712 1.2986,-0.3359 0.3299,-0.2648 0.5119,-0.6148 0.5451,-1.05 0.0337,-0.4439 -0.0941,-0.8195 -0.3833,-1.1304 -0.2891,-0.3098 -0.72,-0.4867 -1.292,-0.5301 -0.362,-0.0275 -0.6829,0.0096 -0.9615,0.1111 -0.2789,0.1021 -0.502,0.2656 -0.6681,0.4893 -0.1664,0.225 -0.2611,0.4839 -0.2835,0.7772 -0.0318,0.4167 0.0839,0.7864 0.3475,1.109 0.2631,0.3223 0.7285,0.5088 1.3972,0.5598 z m -1.8295,-5.0496 0.5165,-2.8418 0.5153,0.0939 -0.4104,2.2583 3.8789,0.7053 -0.106,0.5831 z m 5.027,-2.5062 -4.3509,-1.0091 0.381,-1.6427 c 0.0669,-0.2888 0.1321,-0.5062 0.195,-0.6528 0.085,-0.2055 0.1945,-0.3691 0.3274,-0.4909 0.1338,-0.1214 0.3005,-0.2056 0.5003,-0.252 0.1996,-0.0465 0.4071,-0.0445 0.6231,0.0056 0.3685,0.0856 0.6542,0.2758 0.8546,0.5706 0.2018,0.2946 0.2305,0.7504 0.0876,1.3663 l -0.2588,1.116 1.7745,0.4116 z m -2.1509,-1.1072 0.2608,-1.1242 c 0.0864,-0.3727 0.0782,-0.652 -0.0239,-0.8413 -0.1026,-0.1882 -0.2792,-0.3113 -0.5312,-0.3696 -0.1814,-0.042 -0.3478,-0.0326 -0.4989,0.0294 -0.1508,0.0621 -0.2653,0.1639 -0.3413,0.3039 -0.0479,0.0913 -0.1029,0.2676 -0.1632,0.5278 l -0.258,1.1132 z m 2.9273,-2.054 -3.687,-3.0475 0.2072,-0.6159 4.8127,-0.2997 -0.2143,0.6375 -1.4477,0.0582 -0.5995,1.7827 1.1287,0.8906 z m -1.3286,-1.8025 0.4853,-1.4426 -1.3221,0.0465 c -0.4016,0.0134 -0.7299,0.0148 -0.9862,0.0066 0.2566,0.1508 0.5015,0.3197 0.7365,0.5074 z m 2.8843,-2.6059 -4.0734,-1.8317 0.2432,-0.5406 1.6781,0.7546 0.9465,-2.105 -1.6781,-0.7546 0.2432,-0.5406 4.0731,1.8318 -0.2429,0.5405 -1.9174,-0.8623 -0.9465,2.105 1.9171,0.8623 z m -1.9803,-6.3068 0.2679,-0.4649 3.0642,1.7663 -1.8768,-3.8262 0.2922,-0.5071 3.8696,2.2303 -0.2679,0.4648 -3.056,-1.7614 1.8717,3.816 -0.2953,0.5125 z m 8.0019,-4.2111 -0.3438,0.483 -1.465,-1.0437 c -0.1477,0.5459 -0.3365,0.9819 -0.5675,1.3062 -0.1803,0.2531 -0.3991,0.4345 -0.6554,0.5431 -0.2554,0.1103 -0.4986,0.1324 -0.727,0.0677 -0.2285,-0.0643 -0.4902,-0.2009 -0.7847,-0.4107 l -1.0703,-0.7625 0.3438,-0.4828 1.0253,0.7305 c 0.3971,0.2829 0.7104,0.3972 0.9388,0.3419 0.2277,-0.0561 0.4142,-0.186 0.5593,-0.3895 0.2415,-0.3393 0.4204,-0.7495 0.5358,-1.2302 l -1.7708,-1.2615 0.3438,-0.4827 z m 0.5831,-0.7929 -3.3732,-2.9271 2.1138,-2.436 0.3954,0.3432 -1.7252,1.9885 1.0366,0.8995 1.6149,-1.861 0.3955,0.3433 -1.6146,1.8609 1.1494,0.9976 1.7949,-2.0685 0.3957,0.3436 z m 2.7405,-3.1499 -3.0977,-3.2176 0.4269,-0.411 1.2762,1.3255 1.6628,-1.6007 -1.2762,-1.3255 0.4269,-0.411 3.0977,3.2176 -0.4269,0.411 -1.4581,-1.5146 -1.6625,1.6008 1.4578,1.5145 z m 3.2618,-3.1096 -2.7615,-3.5101 0.4661,-0.3665 1.1375,1.4459 1.8139,-1.4266 -1.1376,-1.4463 0.4658,-0.3665 2.7615,3.5104 -0.466,0.3663 -1.2997,-1.6521 -1.8139,1.427 1.2997,1.652 z m 2.1992,-4.5085 c -0.3986,-0.6239 -0.5426,-1.2203 -0.4323,-1.7878 0.1102,-0.5672 0.4306,-1.0199 0.9615,-1.3589 0.3478,-0.222 0.714,-0.3387 1.0993,-0.3518 0.3841,-0.0122 0.7449,0.0834 1.0808,0.2869 0.3356,0.2029 0.6239,0.4924 0.864,0.8682 0.2432,0.3813 0.3847,0.7719 0.4221,1.171 0.0385,0.4 -0.0343,0.7674 -0.218,1.1016 -0.184,0.3356 -0.4399,0.6077 -0.7668,0.8163 -0.3546,0.2265 -0.7256,0.3428 -1.1145,0.3501 -0.3875,0.0071 -0.7484,-0.0904 -1.0812,-0.2948 -0.3325,-0.2035 -0.604,-0.4702 -0.8149,-0.8008 z m 0.521,-0.3203 c 0.2891,0.453 0.6386,0.7319 1.0482,0.8368 0.4099,0.1046 0.7991,0.04 1.167,-0.195 0.3751,-0.2395 0.5987,-0.5675 0.6736,-0.9853 0.0742,-0.4173 -0.0434,-0.868 -0.3521,-1.3516 -0.1953,-0.3059 -0.4178,-0.54 -0.6664,-0.7019 -0.2492,-0.1618 -0.5139,-0.242 -0.7926,-0.24 -0.2798,0.0019 -0.5437,0.0816 -0.7917,0.24 -0.3521,0.2248 -0.578,0.5395 -0.6778,0.9437 -0.0995,0.4039 0.0306,0.8881 0.3918,1.4533 z m 2.9029,-4.5229 0.4788,-0.2424 1.5965,3.1561 0.5252,-4.2293 0.5225,-0.2642 2.016,3.9855 -0.4791,0.2421 -1.5922,-3.1476 -0.5239,4.218 -0.5278,0.267 z m 1.503,-1.9627 0.3339,-0.169 c 0.0893,0.2427 0.0947,0.4609 0.0176,0.6542 -0.0769,0.1936 -0.2308,0.3481 -0.4615,0.4649 -0.2319,0.1174 -0.4485,0.15 -0.6483,0.0987 -0.1998,-0.0528 -0.3725,-0.1868 -0.5165,-0.404 l 0.3342,-0.1689 c 0.0885,0.1125 0.1865,0.1803 0.2926,0.2035 0.1068,0.0241 0.2242,0.0031 0.3512,-0.0612 0.1477,-0.0746 0.244,-0.1605 0.2885,-0.2588 0.0454,-0.0972 0.0485,-0.218 0.0083,-0.3594 z m 5.235,1.2823 c -0.2415,-0.6995 -0.2421,-1.3132 -0.002,-1.8394 0.2398,-0.5258 0.6574,-0.8906 1.2526,-1.0961 0.3904,-0.1347 0.7736,-0.1624 1.1512,-0.0848 0.3764,0.078 0.7047,0.2551 0.9839,0.5315 0.2786,0.2758 0.4912,0.6248 0.6366,1.0466 0.1474,0.4274 0.1934,0.8402 0.1367,1.237 -0.0564,0.398 -0.2132,0.7379 -0.47,1.0199 -0.2571,0.2835 -0.5695,0.4881 -0.9363,0.6146 -0.3977,0.1372 -0.7858,0.1632 -1.1656,0.0796 -0.3784,-0.0839 -0.7064,-0.263 -0.9822,-0.5397 -0.2755,-0.2755 -0.4771,-0.5987 -0.6049,-0.9692 z m 0.5814,-0.1896 c 0.1752,0.5083 0.4498,0.8612 0.8234,1.0587 0.3742,0.1976 0.7677,0.226 1.1804,0.0837 0.4206,-0.1452 0.7146,-0.4119 0.8852,-0.8005 0.1698,-0.3884 0.1611,-0.8541 -0.026,-1.3964 -0.1185,-0.343 -0.2801,-0.6228 -0.4839,-0.8382 -0.2041,-0.2157 -0.4428,-0.3554 -0.7141,-0.4189 -0.2727,-0.0635 -0.5479,-0.048 -0.826,0.0481 -0.3951,0.1364 -0.6882,0.3892 -0.8798,0.7589 -0.1914,0.3696 -0.1781,0.8708 0.0408,1.5046 z m 6.0032,0.3773 -0.8864,-3.8415 -1.4346,0.3311 -0.1179,-0.5103 3.4466,-0.7954 0.1176,0.5106 -1.4346,0.331 0.8867,3.8413 z m 2.5869,-0.5712 -0.7988,-4.3942 1.6492,-0.3 c 0.3356,-0.0609 0.6123,-0.066 0.8322,-0.0136 0.2186,0.0522 0.4023,0.1602 0.5505,0.3246 0.1488,0.163 0.2412,0.3458 0.2778,0.5482 0.0343,0.1877 0.0153,0.3736 -0.0558,0.5576 -0.0712,0.1843 -0.2002,0.3461 -0.387,0.4859 0.2798,0.0292 0.5086,0.125 0.6849,0.2874 0.1774,0.1613 0.2894,0.3702 0.3359,0.6259 0.0374,0.2066 0.0283,0.4059 -0.0267,0.5987 -0.0547,0.193 -0.1374,0.3486 -0.2477,0.4677 -0.1108,0.1182 -0.258,0.2202 -0.4414,0.3044 -0.1842,0.0842 -0.4161,0.1517 -0.6964,0.2027 z m 0.1202,-2.6529 0.9501,-0.1727 c 0.258,-0.047 0.4397,-0.098 0.5451,-0.1522 0.1404,-0.0708 0.2387,-0.165 0.2946,-0.2806 0.0561,-0.1159 0.0708,-0.2509 0.0428,-0.4051 -0.0267,-0.1462 -0.0851,-0.2687 -0.1755,-0.3665 -0.0899,-0.0989 -0.2041,-0.1573 -0.3413,-0.1746 -0.1375,-0.0173 -0.3642,0.0028 -0.6792,0.0601 l -0.8787,0.1596 z m 0.3693,2.0313 1.0942,-0.199 c 0.1885,-0.0343 0.3189,-0.0652 0.3932,-0.0936 0.1287,-0.0476 0.2341,-0.108 0.3138,-0.1808 0.0796,-0.0723 0.1386,-0.1678 0.1771,-0.2857 0.0389,-0.118 0.0451,-0.2469 0.0196,-0.387 -0.0298,-0.1649 -0.0975,-0.2996 -0.2047,-0.4056 -0.1057,-0.1063 -0.2381,-0.1701 -0.3963,-0.1922 -0.1573,-0.0221 -0.3764,-0.0076 -0.6556,0.0431 l -1.0168,0.1848 z m 3.6618,0.0071 -0.339,-4.4533 3.2159,-0.2449 0.0397,0.5222 -2.6249,0.1998 0.1043,1.3686 2.4565,-0.1871 0.04,0.5224 -2.4568,0.1871 0.1157,1.5177 2.7306,-0.2081 0.0397,0.5227 z m 5.2761,-0.2262 0.112,-3.941 -1.4717,-0.0417 0.0147,-0.5236 3.5357,0.1004 -0.0148,0.5235 -1.4717,-0.0416 -0.112,3.9407 z m 6.0288,-1.1155 0.5695,0.2214 c -0.1823,0.4669 -0.4488,0.8056 -0.7991,1.0188 -0.3501,0.2132 -0.7558,0.2917 -1.2169,0.2347 -0.4766,-0.0592 -0.8524,-0.2044 -1.1277,-0.4365 -0.2749,-0.2308 -0.4668,-0.5409 -0.5771,-0.9284 -0.11,-0.3889 -0.1395,-0.7937 -0.087,-1.2169 0.0572,-0.4609 0.1947,-0.8524 0.4138,-1.1744 0.2191,-0.3214 0.5023,-0.5513 0.8493,-0.6894 0.3472,-0.1383 0.7163,-0.1825 1.1061,-0.1343 0.4436,0.0552 0.8022,0.2137 1.0754,0.477 0.2744,0.2634 0.4456,0.6064 0.5137,1.0296 l -0.5928,0.0646 c -0.0623,-0.3345 -0.1825,-0.5882 -0.3594,-0.7588 -0.1769,-0.1718 -0.4133,-0.2756 -0.7092,-0.3124 -0.3396,-0.042 -0.6344,0.0042 -0.8827,0.1389 -0.2481,0.1349 -0.4366,0.3345 -0.5624,0.5978 -0.127,0.2639 -0.2084,0.542 -0.2446,0.8337 -0.0468,0.3767 -0.0329,0.7126 0.0416,1.0068 0.0746,0.2951 0.2186,0.5259 0.4326,0.6937 0.2137,0.1681 0.4549,0.2681 0.7242,0.3016 0.328,0.0405 0.6163,-0.0201 0.8666,-0.1809 0.2506,-0.1615 0.4391,-0.4229 0.5661,-0.7866 z m 2.0279,1.9216 0.705,-3.8786 -1.4486,-0.2633 0.0939,-0.5154 3.4801,0.6324 -0.0939,0.5154 -1.4485,-0.2634 -0.7052,3.879 z m 2.5928,0.5483 1.2121,-4.2988 1.6132,0.455 c 0.3283,0.0924 0.5791,0.2095 0.7535,0.3529 0.1737,0.1429 0.2911,0.3206 0.352,0.5335 0.0624,0.2117 0.0649,0.4167 0.0091,0.6148 -0.0516,0.1831 -0.1505,0.3421 -0.2951,0.4762 -0.1448,0.1341 -0.3319,0.2231 -0.561,0.2665 0.2384,0.1491 0.402,0.3359 0.489,0.5593 0.0887,0.2225 0.0975,0.4595 0.0269,0.7095 -0.0569,0.2024 -0.1527,0.3773 -0.2868,0.5261 -0.1338,0.1494 -0.2764,0.2528 -0.4278,0.3115 -0.1516,0.0578 -0.3285,0.0848 -0.5303,0.0797 -0.2027,-0.0054 -0.4405,-0.0465 -0.7146,-0.1239 z m 1.2728,-2.3307 0.9297,0.2622 c 0.2523,0.0712 0.438,0.1049 0.5565,0.1026 0.1573,-0.0022 0.2869,-0.0433 0.3878,-0.1227 0.1012,-0.0797 0.1737,-0.1942 0.2163,-0.3453 0.0402,-0.1431 0.0416,-0.2789 0.0031,-0.4062 -0.0372,-0.1284 -0.1143,-0.231 -0.2296,-0.307 -0.116,-0.0757 -0.3286,-0.1573 -0.6367,-0.2443 L 90.8342,29.283 Z m -0.5601,1.9871 1.0706,0.3019 c 0.184,0.0519 0.3149,0.0813 0.394,0.0884 0.1366,0.0136 0.258,0.0057 0.3614,-0.0246 0.1035,-0.0301 0.1982,-0.0899 0.2846,-0.1789 0.0868,-0.089 0.1491,-0.2021 0.1877,-0.339 0.0453,-0.1613 0.0436,-0.3121 -0.006,-0.4544 -0.0482,-0.142 -0.1391,-0.2574 -0.2715,-0.3467 -0.1316,-0.089 -0.3348,-0.1721 -0.6081,-0.2492 l -0.9946,-0.2803 z m 3.319,1.5185 1.6512,-4.1499 2.9968,1.1922 -0.1936,0.4868 -2.446,-0.9732 -0.5077,1.2753 2.2895,0.9108 -0.1938,0.4867 -2.2893,-0.9108 -0.5627,1.4142 2.5447,1.0123 -0.1939,0.487 z m 3.8801,1.5426 2.0251,-3.9807 0.5284,0.2688 -0.8343,1.6398 2.0571,1.0466 0.8343,-1.6399 0.5283,0.2687 -2.025,3.9807 -0.5284,-0.2687 0.953,-1.8737 -2.0568,-1.0465 -0.9533,1.8737 z m 4.0136,2.0512 2.4196,-3.7539 0.4981,0.3211 -0.9967,1.5466 1.9398,1.2504 0.9969,-1.5466 0.4981,0.3209 -2.4194,3.7542 -0.4983,-0.3212 1.1389,-1.7668 -1.94,-1.2504 -1.139,1.7668 z m 4.9572,0.6103 c 0.4555,-0.5837 0.9697,-0.9184 1.5415,-1.0035 0.5717,-0.0853 1.1052,0.0658 1.6018,0.4533 0.3255,0.254 0.5573,0.5601 0.6979,0.9193 0.1398,0.358 0.1698,0.7299 0.0902,1.1145 -0.0794,0.3838 -0.2563,0.7523 -0.5307,1.1041 -0.278,0.3563 -0.5995,0.62 -0.9632,0.7883 -0.3642,0.1696 -0.7347,0.2234 -1.1112,0.1616 -0.3778,-0.0615 -0.7194,-0.212 -1.0253,-0.4504 -0.3319,-0.2591 -0.5652,-0.5703 -0.7018,-0.9343 -0.1358,-0.3631 -0.1641,-0.7359 -0.0822,-1.1177 0.0811,-0.3813 0.2421,-0.7262 0.483,-1.0352 z m 0.4757,0.3844 c -0.3306,0.4237 -0.4771,0.8461 -0.4391,1.2673 0.038,0.4213 0.2287,0.7665 0.5729,1.0352 0.3506,0.2739 0.7344,0.3751 1.1534,0.3065 0.4181,-0.0692 0.8039,-0.3303 1.1568,-0.7827 0.2231,-0.286 0.3696,-0.5737 0.4394,-0.8623 0.0697,-0.2885 0.0569,-0.5649 -0.0377,-0.8271 -0.0953,-0.2631 -0.2583,-0.4853 -0.4904,-0.6665 -0.3294,-0.2568 -0.701,-0.3651 -1.1155,-0.3242 -0.4141,0.0408 -0.8271,0.3248 -1.2398,0.8538 z m 5.5074,5.5301 0.3248,0.5173 c -0.4249,0.2659 -0.8407,0.379 -1.2489,0.3407 -0.4082,-0.0374 -0.7807,-0.2166 -1.1166,-0.5377 -0.3472,-0.3317 -0.5624,-0.6724 -0.6446,-1.0228 -0.083,-0.3495 -0.0521,-0.7129 0.0907,-1.0896 0.1435,-0.3776 0.3615,-0.7203 0.656,-1.0284 0.3211,-0.3359 0.665,-0.5678 1.0329,-0.6956 0.3677,-0.1273 0.7322,-0.1429 1.0931,-0.0465 0.3611,0.0961 0.6837,0.2806 0.9677,0.5522 0.3232,0.3087 0.5162,0.65 0.5783,1.0244 0.0632,0.375 -0.004,0.7523 -0.2021,1.1325 l -0.5142,-0.3017 c 0.1496,-0.3055 0.2046,-0.5808 0.1644,-0.8234 -0.0394,-0.2432 -0.1673,-0.4677 -0.383,-0.6738 -0.2472,-0.2364 -0.5114,-0.375 -0.7911,-0.4153 -0.2795,-0.0397 -0.55,0.0082 -0.8079,0.1443 -0.2594,0.1361 -0.4907,0.3107 -0.6936,0.523 -0.2625,0.2744 -0.4519,0.5522 -0.5675,0.8331 -0.1163,0.2812 -0.1381,0.5525 -0.0667,0.8147 0.0712,0.2622 0.205,0.4867 0.4011,0.674 0.239,0.2282 0.5069,0.3515 0.8037,0.3722 0.2973,0.0196 0.6046,-0.0776 0.9235,-0.2936 z m 0.4567,2.7759 2.9959,-2.5628 -0.9573,-1.1188 0.398,-0.3404 2.2995,2.6875 -0.398,0.3407 -0.9573,-1.1188 -2.9956,2.5628 z m 5.4161,-0.5655 0.3447,0.4822 -1.5474,1.1066 0.6185,0.8652 c 0.2888,0.4042 0.451,0.7307 0.4873,0.9796 0.0346,0.2489 -9e-4,0.4709 -0.1058,0.6659 -0.106,0.1947 -0.2449,0.3543 -0.4167,0.4771 -0.2814,0.2012 -0.5969,0.2823 -0.9456,0.2415 -0.3489,-0.0391 -0.7092,-0.3198 -1.0823,-0.8416 l -0.9859,-1.3785 z m -2.8774,2.7862 0.6278,0.8779 c 0.2546,0.356 0.4839,0.5423 0.6872,0.5607 0.2029,0.017 0.3945,-0.0383 0.5728,-0.1658 0.1446,-0.1035 0.2404,-0.2308 0.2858,-0.3819 0.0456,-0.1502 0.0365,-0.3024 -0.0267,-0.4538 -0.0638,-0.1514 -0.2063,-0.383 -0.4289,-0.6942 l -0.4595,-0.6429 z m 5.5397,0.8765 0.2971,0.5128 -1.7331,1.0031 0.4311,0.745 c 0.5684,-0.2798 1.1095,-0.3538 1.6214,-0.2189 0.5123,0.1336 0.906,0.4389 1.1821,0.9159 0.2908,0.502 0.3546,1.0213 0.1902,1.5574 -0.1633,0.5352 -0.5488,0.9793 -1.1568,1.3314 -0.6319,0.3657 -1.222,0.4876 -1.7697,0.3637 -0.5479,-0.1227 -0.97,-0.4416 -1.2679,-0.9564 -0.2704,-0.4669 -0.3407,-0.9454 -0.2121,-1.4352 0.1285,-0.4901 0.4485,-0.9204 0.9627,-1.29 l -0.4346,-0.7504 -1.6789,0.9717 -0.2968,-0.513 z m -0.9286,2.8944 c -0.489,0.2826 -0.8034,0.6151 -0.9428,0.9947 -0.1401,0.3804 -0.1049,0.7529 0.106,1.1171 0.2157,0.3728 0.5233,0.5925 0.9227,0.6577 0.3991,0.0657 0.8526,-0.0479 1.3609,-0.3422 0.4813,-0.2783 0.7968,-0.6074 0.9473,-0.9867 0.1497,-0.3784 0.1171,-0.7546 -0.0992,-1.1282 -0.2197,-0.3796 -0.5335,-0.5981 -0.9411,-0.6565 -0.4076,-0.057 -0.8592,0.0575 -1.3538,0.3441 z m 3.5064,7.1226 c 0.6996,-0.2415 1.3133,-0.242 1.8394,-0.0019 0.5259,0.2398 0.8907,0.6573 1.0962,1.2526 0.1346,0.3903 0.1624,0.7736 0.0848,1.1511 -0.078,0.3765 -0.2552,0.7047 -0.5315,0.9839 -0.2759,0.2787 -0.6248,0.4913 -1.0466,0.6367 -0.4275,0.1474 -0.8402,0.1933 -1.237,0.1366 -0.398,-0.0564 -0.7379,-0.2131 -1.0199,-0.47 -0.2835,-0.2571 -0.4882,-0.5694 -0.6146,-0.9362 -0.1372,-0.3977 -0.1633,-0.7858 -0.0796,-1.1656 0.0839,-0.3785 0.263,-0.7064 0.5397,-0.9822 0.2755,-0.2756 0.5987,-0.4771 0.9691,-0.605 z m 0.1897,0.5814 c -0.5083,0.1752 -0.8612,0.4499 -1.0588,0.8235 -0.1975,0.3742 -0.2259,0.7676 -0.0836,1.1803 0.1452,0.4207 0.4119,0.7147 0.8005,0.8853 0.3884,0.1698 0.8541,0.161 1.3964,-0.0261 0.343,-0.1185 0.6227,-0.28 0.8382,-0.4839 0.2157,-0.204 0.3554,-0.4427 0.4189,-0.714 0.0635,-0.2727 0.0479,-0.5479 -0.0482,-0.826 -0.1363,-0.3952 -0.3892,-0.6883 -0.7588,-0.8799 -0.3696,-0.1913 -0.8708,-0.178 -1.5046,0.0408 z m 3.7049,3.9099 0.6494,2.8142 -0.5103,0.1176 -0.5161,-2.2365 -3.8416,0.8864 -0.1332,-0.5777 z m -3.6083,4.2857 4.3943,-0.7988 0.3016,1.6591 c 0.053,0.2917 0.0794,0.517 0.0797,0.6766 0.004,0.2222 -0.0321,0.4158 -0.1058,0.5805 -0.0748,0.1644 -0.1944,0.3079 -0.3594,0.4298 -0.1647,0.1219 -0.356,0.2021 -0.5743,0.2418 -0.3722,0.0677 -0.7098,0.0062 -1.0108,-0.1851 -0.3019,-0.1902 -0.5091,-0.5973 -0.6222,-1.2192 l -0.205,-1.1274 -1.792,0.3257 z m 2.4137,0.1635 0.2064,1.1356 c 0.0683,0.3764 0.1862,0.6295 0.3552,0.7628 0.1689,0.1321 0.3795,0.1749 0.6341,0.1287 0.1834,-0.0332 0.3322,-0.108 0.4465,-0.2248 0.1139,-0.1168 0.1785,-0.2557 0.193,-0.4144 0.008,-0.1027 -0.0119,-0.2866 -0.0595,-0.5491 l -0.2044,-1.1242 z m -1.775,3.9719 4.4535,-0.3393 0.0451,0.591 -1.8349,0.1398 0.1755,2.3014 1.8345,-0.1397 0.0451,0.591 -4.4535,0.339 -0.0451,-0.591 2.0963,-0.1596 -0.1752,-2.3011 -2.0962,0.1595 z m 2.4942,6.1569 c 0.5258,0.0399 0.9468,0.1264 1.26,0.2585 0.3138,0.1335 0.5496,0.3129 0.7064,0.54 0.157,0.2253 0.2225,0.5003 0.1978,0.824 -0.0181,0.2384 -0.0816,0.4442 -0.1919,0.6183 -0.1102,0.1729 -0.2605,0.3115 -0.4507,0.4138 -0.1893,0.1026 -0.4169,0.1769 -0.6823,0.2234 -0.2653,0.0476 -0.6193,0.0541 -1.0598,0.0204 -0.5225,-0.0397 -0.9411,-0.1259 -1.2544,-0.2571 -0.3143,-0.1313 -0.5502,-0.311 -0.7078,-0.5377 -0.1582,-0.2257 -0.2245,-0.5021 -0.1998,-0.8275 0.0326,-0.428 0.2106,-0.7534 0.5352,-0.9748 0.3954,-0.265 1.0111,-0.3651 1.8473,-0.3013 z m -0.0445,0.5595 c -0.7331,-0.0555 -1.2266,-0.0076 -1.4803,0.1449 -0.2542,0.1528 -0.3909,0.3549 -0.4099,0.606 -0.0192,0.2506 0.0859,0.4714 0.3147,0.6611 0.2293,0.1893 0.7092,0.3115 1.44,0.3671 0.733,0.0558 1.2265,0.0079 1.4802,-0.1449 0.2543,-0.1517 0.3909,-0.356 0.4105,-0.612 0.019,-0.2509 -0.0723,-0.4601 -0.2735,-0.6267 -0.2563,-0.2081 -0.7507,-0.3396 -1.4817,-0.3955 z m -0.2186,3.0048 c 0.5233,0.0649 0.9397,0.1712 1.2461,0.318 0.3073,0.1483 0.5344,0.3387 0.6801,0.5726 0.1462,0.2327 0.1987,0.5105 0.1587,0.8328 -0.0295,0.237 -0.1026,0.4397 -0.2208,0.6083 -0.1185,0.1676 -0.2752,0.2991 -0.47,0.3921 -0.1939,0.0935 -0.4249,0.157 -0.6922,0.1907 -0.267,0.0352 -0.6211,0.0247 -1.0596,-0.0297 -0.5199,-0.0644 -0.934,-0.1704 -1.2407,-0.3161 -0.3079,-0.1463 -0.5346,-0.3367 -0.6818,-0.5709 -0.1468,-0.233 -0.2004,-0.5119 -0.1601,-0.8359 0.053,-0.4261 0.246,-0.7427 0.5808,-0.9485 0.4073,-0.2458 1.0273,-0.3166 1.8595,-0.2134 z m -0.0711,0.557 c -0.7294,-0.0905 -1.2249,-0.0661 -1.4854,0.0745 -0.2613,0.1403 -0.4073,0.3359 -0.4382,0.5856 -0.0309,0.2498 0.0635,0.4751 0.2829,0.6753 0.2202,0.2001 0.6936,0.3449 1.4213,0.4351 0.7293,0.0904 1.2248,0.066 1.4853,-0.0746 0.2611,-0.1394 0.4074,-0.337 0.4391,-0.5918 0.0309,-0.2498 -0.0507,-0.4629 -0.2435,-0.639 -0.246,-0.2202 -0.7339,-0.375 -1.4615,-0.4651 z m -0.3784,3.1186 c 0.5136,0.1191 0.9167,0.2682 1.2064,0.4462 0.29,0.1794 0.4958,0.3926 0.6162,0.6404 0.1214,0.2466 0.1443,0.5286 0.0712,0.8447 -0.0542,0.2327 -0.148,0.4266 -0.2832,0.5819 -0.1352,0.1545 -0.3047,0.2688 -0.5082,0.341 -0.2024,0.0729 -0.4388,0.112 -0.7081,0.1177 -0.2696,0.0071 -0.6205,-0.0403 -1.0508,-0.1403 -0.5106,-0.1182 -0.9114,-0.2668 -1.2011,-0.4437 -0.2908,-0.1774 -0.4966,-0.3909 -0.6185,-0.6386 -0.1219,-0.2472 -0.1457,-0.5304 -0.072,-0.8481 0.0969,-0.4184 0.322,-0.7129 0.6763,-0.883 0.4309,-0.2018 1.0548,-0.2078 1.8718,-0.0182 z m -0.1287,0.5466 c -0.7161,-0.1662 -1.2113,-0.1934 -1.4851,-0.0808 -0.2747,0.1122 -0.4402,0.2917 -0.4969,0.5369 -0.057,0.2449 0.0136,0.4787 0.2109,0.701 0.1981,0.2219 0.6539,0.4152 1.368,0.5808 0.716,0.1661 1.2112,0.1933 1.4851,0.0808 0.2743,-0.1114 0.4405,-0.2929 0.4983,-0.5429 0.057,-0.2452 -0.002,-0.4657 -0.1755,-0.661 -0.2217,-0.2446 -0.6908,-0.4493 -1.4048,-0.6148 z m -0.6687,2.9364 c 0.5077,0.1431 0.9031,0.3109 1.184,0.5023 0.2815,0.193 0.4771,0.4155 0.5859,0.6689 0.1094,0.252 0.1194,0.5347 0.0312,0.847 -0.0649,0.2299 -0.1678,0.4193 -0.3101,0.5681 -0.1423,0.1477 -0.3169,0.254 -0.5238,0.3166 -0.2056,0.0632 -0.4437,0.0913 -0.713,0.0842 -0.2692,-0.0054 -0.6176,-0.0691 -1.0431,-0.1893 -0.504,-0.1421 -0.8975,-0.3093 -1.1787,-0.4995 -0.2823,-0.1911 -0.4776,-0.4136 -0.5876,-0.667 -0.1102,-0.2526 -0.121,-0.5366 -0.0323,-0.8507 0.1165,-0.4133 0.3552,-0.697 0.7169,-0.8501 0.4399,-0.1817 1.0636,-0.1582 1.8706,0.0695 z m -0.1542,0.54 c -0.7076,-0.1996 -1.2011,-0.25 -1.4797,-0.1503 -0.2795,0.0992 -0.4533,0.2705 -0.5216,0.5128 -0.0683,0.2421 -0.009,0.4791 0.178,0.7101 0.1874,0.2313 0.6336,0.4456 1.3391,0.6446 0.7075,0.1996 1.2011,0.25 1.4797,0.1502 0.2792,-0.0983 0.4535,-0.2715 0.5233,-0.5187 0.0683,-0.2424 0.0198,-0.4655 -0.1443,-0.6684 -0.2101,-0.2549 -0.669,-0.4813 -1.3745,-0.6803 z m -0.8348,3.0279 c 0.4898,0.1951 0.866,0.4028 1.1253,0.6222 0.26,0.2214 0.4315,0.4629 0.5134,0.726 0.0827,0.2622 0.0632,0.5442 -0.0567,0.8459 -0.0885,0.2219 -0.2103,0.3994 -0.3674,0.5329 -0.157,0.1321 -0.3416,0.2196 -0.5539,0.2608 -0.2112,0.0413 -0.4507,0.0445 -0.7177,0.0096 -0.2673,-0.0335 -0.6072,-0.133 -1.0179,-0.2965 -0.4867,-0.1936 -0.8606,-0.4005 -1.1206,-0.6191 -0.261,-0.2191 -0.4322,-0.4609 -0.5153,-0.7243 -0.0836,-0.2627 -0.0646,-0.5462 0.0558,-0.8492 0.1588,-0.3991 0.4258,-0.6565 0.8014,-0.7713 0.4567,-0.1349 1.074,-0.0471 1.8536,0.263 z m -0.2095,0.521 c -0.6832,-0.2718 -1.1687,-0.373 -1.4562,-0.303 -0.2883,0.07 -0.479,0.2223 -0.572,0.4561 -0.093,0.2336 -0.0584,0.4757 0.1035,0.7248 0.1624,0.2492 0.5839,0.5089 1.2651,0.7798 0.6828,0.2719 1.1684,0.3731 1.4561,0.3031 0.288,-0.0692 0.4794,-0.2234 0.574,-0.4621 0.0933,-0.2338 0.0681,-0.4606 -0.0742,-0.6794 -0.1823,-0.2753 -0.6154,-0.5483 -1.2963,-0.8193 z m -1.1044,2.7944 c 0.4808,0.216 0.8476,0.4403 1.097,0.671 0.25,0.2324 0.4108,0.4813 0.4811,0.7478 0.0711,0.2653 0.0394,0.5462 -0.0939,0.8424 -0.098,0.218 -0.2276,0.3898 -0.3903,0.5162 -0.1627,0.1253 -0.3509,0.2047 -0.5647,0.2361 -0.2128,0.0324 -0.4521,0.025 -0.7174,-0.0215 -0.2659,-0.0453 -0.601,-0.1596 -1.004,-0.341 -0.4777,-0.2149 -0.8422,-0.438 -1.0925,-0.6678 -0.2509,-0.2302 -0.4116,-0.4794 -0.483,-0.7461 -0.0718,-0.2662 -0.0406,-0.5485 0.0932,-0.8462 0.1761,-0.3914 0.4541,-0.6369 0.8345,-0.7353 0.4618,-0.1148 1.0749,3e-4 1.84,0.3444 z m -0.2321,0.5111 c -0.6704,-0.3013 -1.1509,-0.424 -1.4415,-0.3665 -0.2911,0.0573 -0.4881,0.201 -0.5913,0.4306 -0.1032,0.2293 -0.0793,0.4725 0.0715,0.7285 0.1513,0.2562 0.5609,0.534 1.2296,0.8348 0.6704,0.3013 1.1509,0.4241 1.4414,0.3665 0.2906,-0.0564 0.4887,-0.2021 0.5939,-0.4362 0.1032,-0.2296 0.0882,-0.4573 -0.0442,-0.6823 -0.1704,-0.2829 -0.5908,-0.5746 -1.2594,-0.8754 z" />
    <path
       id="path10"
       style="fill:#1b1918;fill-rule:evenodd"
       d="m 121.2647,100.1446 c 0.4567,0.2634 0.7991,0.5233 1.0245,0.7776 0.2253,0.2562 0.3602,0.5198 0.4033,0.7923 0.0445,0.2712 -0.0153,0.5473 -0.1774,0.8285 -0.1194,0.2072 -0.2656,0.3654 -0.4402,0.4748 -0.1744,0.1083 -0.3697,0.1684 -0.5854,0.1786 -0.2149,0.0105 -0.4524,-0.0207 -0.7118,-0.0935 -0.2596,-0.0718 -0.5819,-0.2192 -0.9646,-0.4397 -0.4538,-0.2616 -0.7943,-0.5201 -1.0202,-0.7738 -0.2268,-0.2543 -0.3614,-0.5182 -0.4059,-0.7909 -0.0448,-0.2719 0.0144,-0.5496 0.1774,-0.8323 0.2146,-0.3722 0.5157,-0.5887 0.904,-0.6482 0.4711,-0.0681 1.0695,0.108 1.7963,0.5266 z m -0.2823,0.4856 c -0.6367,-0.3671 -1.1027,-0.5372 -1.3975,-0.5091 -0.2954,0.0278 -0.5057,0.1511 -0.6315,0.3694 -0.1256,0.2177 -0.1259,0.462 -0.002,0.7319 0.125,0.2701 0.5048,0.5876 1.1398,0.9535 0.6369,0.3671 1.1029,0.5372 1.3974,0.5091 0.2951,-0.0269 0.5066,-0.1522 0.6347,-0.3747 0.1259,-0.218 0.1335,-0.4462 0.0241,-0.6832 -0.1409,-0.2984 -0.5301,-0.6309 -1.1653,-0.9969 z m -1.5089,2.6127 c 0.4431,0.2854 0.7722,0.5621 0.9845,0.8274 0.2123,0.2671 0.3342,0.5372 0.3637,0.8113 0.0309,0.273 -0.0426,0.546 -0.2186,0.8189 -0.1292,0.2007 -0.2832,0.3515 -0.4629,0.4522 -0.1797,0.0995 -0.3776,0.1499 -0.5938,0.1491 -0.2152,0 -0.4507,-0.0431 -0.7061,-0.1287 -0.256,-0.0842 -0.5704,-0.2475 -0.9417,-0.487 -0.4402,-0.2838 -0.7674,-0.559 -0.9805,-0.8235 -0.2138,-0.265 -0.3354,-0.5355 -0.3663,-0.8098 -0.0311,-0.2739 0.042,-0.5485 0.2186,-0.8227 0.2327,-0.3608 0.5442,-0.5621 0.9351,-0.6023 0.4737,-0.0448 1.0628,0.1607 1.768,0.6151 z m -0.3058,0.4708 c -0.618,-0.3982 -1.0749,-0.5913 -1.3706,-0.5777 -0.2965,0.0131 -0.5128,0.1259 -0.6491,0.3374 -0.1364,0.2114 -0.1489,0.4555 -0.0383,0.731 0.1114,0.2761 0.4751,0.6117 1.0913,1.0089 0.6177,0.3982 1.0747,0.5913 1.3703,0.5779 0.2959,-0.0124 0.5136,-0.1267 0.6525,-0.3427 0.1364,-0.2114 0.1557,-0.4391 0.0582,-0.6811 -0.1262,-0.3053 -0.4984,-0.6565 -1.1143,-1.0537 z m -1.7042,2.5991 c 0.4158,0.3243 0.7185,0.6293 0.9062,0.9128 0.1874,0.2849 0.2843,0.5649 0.2891,0.8404 0.006,0.2747 -0.0915,0.54 -0.2914,0.796 -0.1468,0.1885 -0.3135,0.3246 -0.5017,0.4088 -0.1877,0.0827 -0.3895,0.1151 -0.6046,0.0952 -0.2143,-0.0195 -0.4454,-0.0836 -0.692,-0.1919 -0.2471,-0.1069 -0.5456,-0.2979 -0.894,-0.5698 -0.413,-0.3223 -0.7141,-0.6256 -0.9023,-0.9082 -0.1891,-0.2834 -0.2857,-0.5635 -0.2917,-0.8396 -0.007,-0.2755 0.091,-0.5425 0.2917,-0.7996 0.2642,-0.3388 0.5925,-0.5111 0.9853,-0.516 0.476,-0.002 1.044,0.2557 1.7054,0.7719 z m -0.347,0.4414 c -0.5794,-0.4522 -1.0174,-0.6854 -1.313,-0.6988 -0.2962,-0.0136 -0.5219,0.0791 -0.6769,0.2775 -0.1545,0.1985 -0.1891,0.4403 -0.1038,0.7249 0.0862,0.2848 0.4181,0.6519 0.9961,1.1029 0.5794,0.4522 1.0171,0.6857 1.313,0.6988 0.2957,0.0144 0.5225,-0.08 0.6806,-0.2824 0.1548,-0.1987 0.1945,-0.4235 0.1191,-0.6735 -0.0981,-0.3152 -0.4371,-0.6984 -1.0151,-1.1494 z m -1.8709,2.3731 c 0.3983,0.3456 0.6846,0.6659 0.8575,0.9584 0.1724,0.2946 0.2546,0.5792 0.2449,0.8547 -0.008,0.2747 -0.1196,0.5346 -0.3322,0.7798 -0.1567,0.1803 -0.3302,0.3078 -0.5224,0.3818 -0.1919,0.0731 -0.3952,0.095 -0.6089,0.0638 -0.2129,-0.0306 -0.4402,-0.1066 -0.6809,-0.2276 -0.2412,-0.1196 -0.5295,-0.3257 -0.8631,-0.6154 -0.3957,-0.3433 -0.6806,-0.6622 -0.8538,-0.9542 -0.1741,-0.2928 -0.2563,-0.5777 -0.2478,-0.8538 0.008,-0.2752 0.1191,-0.5368 0.3328,-0.7832 0.2815,-0.3243 0.6183,-0.4793 1.0109,-0.4637 0.4756,0.0229 1.0295,0.3095 1.663,0.8594 z m -0.3696,0.4227 c -0.555,-0.4816 -0.9802,-0.7376 -1.2747,-0.7662 -0.2951,-0.0289 -0.5253,0.0519 -0.6903,0.2421 -0.165,0.1899 -0.212,0.4297 -0.1414,0.7183 0.0711,0.2891 0.3835,0.6729 0.9371,1.1534 0.5553,0.4816 0.9802,0.7375 1.2747,0.7662 0.2949,0.0297 0.5262,-0.0527 0.6945,-0.2469 0.165,-0.1899 0.2163,-0.4125 0.154,-0.6662 -0.0814,-0.3197 -0.4003,-0.7202 -0.9539,-1.2007 z m -2.0735,2.3125 c 0.3656,0.3798 0.6222,0.7245 0.7679,1.0315 0.1454,0.3087 0.2018,0.5995 0.1678,0.8731 -0.0329,0.273 -0.1673,0.5216 -0.4008,0.7469 -0.1724,0.1656 -0.3566,0.277 -0.5548,0.3337 -0.1976,0.0555 -0.4019,0.0589 -0.612,0.009 -0.2095,-0.0496 -0.4289,-0.1454 -0.6576,-0.2874 -0.2299,-0.1409 -0.4984,-0.3719 -0.8048,-0.6905 -0.3634,-0.3773 -0.6185,-0.7203 -0.7651,-1.0267 -0.1471,-0.3073 -0.2032,-0.5981 -0.17,-0.8725 0.0323,-0.2736 0.1666,-0.5239 0.4016,-0.7504 0.3093,-0.2979 0.6588,-0.422 1.0483,-0.3713 0.4717,0.0655 0.9978,0.4005 1.5795,1.0049 z m -0.406,0.3881 c -0.5099,-0.5296 -0.9102,-0.8224 -1.201,-0.8774 -0.2914,-0.0552 -0.5281,0.005 -0.7092,0.1792 -0.1812,0.1746 -0.2498,0.409 -0.2053,0.703 0.0451,0.2939 0.3218,0.7044 0.8303,1.2325 0.5097,0.5295 0.9102,0.8223 1.201,0.8773 0.2909,0.0558 0.5287,-0.005 0.7138,-0.1837 0.1811,-0.1746 0.252,-0.3915 0.2129,-0.6497 -0.0524,-0.326 -0.3342,-0.7532 -0.8425,-1.2812 z m -2.2101,2.082 c 0.3427,0.4005 0.5788,0.7597 0.7064,1.0749 0.1267,0.3166 0.1661,0.61 0.1159,0.8813 -0.0488,0.2704 -0.1973,0.5111 -0.4439,0.722 -0.1817,0.1553 -0.3722,0.2557 -0.5735,0.3004 -0.2004,0.044 -0.4045,0.0355 -0.6114,-0.0269 -0.2061,-0.0618 -0.4195,-0.1706 -0.6395,-0.3257 -0.2211,-0.1542 -0.4756,-0.4005 -0.7628,-0.7364 -0.3407,-0.398 -0.5751,-0.7555 -0.7036,-1.0698 -0.1286,-0.3155 -0.1678,-0.6092 -0.1187,-0.881 0.0484,-0.2713 0.1973,-0.5134 0.4453,-0.7254 0.3263,-0.2792 0.6823,-0.383 1.0681,-0.3093 0.4669,0.093 0.9726,0.4584 1.5177,1.0959 z m -0.4281,0.3634 c -0.4776,-0.5584 -0.8603,-0.8745 -1.1474,-0.9462 -0.2878,-0.0726 -0.5273,-0.0264 -0.7186,0.1372 -0.1911,0.1636 -0.273,0.3937 -0.2461,0.6897 0.0278,0.2962 0.2801,0.7222 0.7566,1.2792 0.4776,0.5585 0.8603,0.8742 1.1475,0.9462 0.2868,0.0729 0.5281,0.0256 0.7234,-0.1414 0.191,-0.1636 0.2746,-0.3759 0.2506,-0.6361 -0.0332,-0.3285 -0.2895,-0.7716 -0.766,-1.3286 z" />
  </g>
  <path
     id="path13"
     style="fill:#1b1918;fill-rule:evenodd"
     d="m 63.1732,126.4153 1.156,-4.1375 0.8206,0.2291 0.1604,3.2023 c 0.0145,0.2979 0.023,0.5204 0.0261,0.6675 0.0893,-0.1369 0.2254,-0.3376 0.4071,-0.6015 l 1.7997,-2.5996 0.733,0.2046 -1.1559,4.1375 -0.5259,-0.1469 0.9669,-3.4611 -2.1744,3.1238 -0.4933,-0.1378 -0.2094,-3.8585 -0.9848,3.5249 z m 6.0307,-0.6021 c 0.085,-0.707 0.3421,-1.2382 0.7702,-1.5925 0.4283,-0.3546 0.9428,-0.4952 1.5446,-0.4229 0.394,0.0473 0.7373,0.1839 1.0315,0.4099 0.2931,0.2256 0.5029,0.5164 0.6282,0.873 0.1255,0.3555 0.1632,0.747 0.1122,1.1727 -0.0519,0.432 -0.1859,0.8087 -0.4017,1.1282 -0.2154,0.3206 -0.4938,0.5488 -0.8345,0.6851 -0.3415,0.1375 -0.6979,0.1834 -1.0681,0.1389 -0.4019,-0.0484 -0.7489,-0.1887 -1.0423,-0.4203 -0.2925,-0.2316 -0.5011,-0.5244 -0.6233,-0.8796 -0.123,-0.3541 -0.1616,-0.7183 -0.1168,-1.0925 z m 0.5825,0.0799 c -0.0615,0.5134 0.0281,0.9338 0.2685,1.2617 0.2406,0.3283 0.5694,0.5179 0.9864,0.5681 0.4249,0.051 0.7915,-0.0564 1.1021,-0.3212 0.3099,-0.2647 0.4975,-0.6715 0.5633,-1.2194 0.0416,-0.3464 0.0195,-0.6563 -0.0666,-0.9287 -0.0862,-0.2721 -0.2339,-0.4932 -0.4422,-0.6624 -0.2095,-0.169 -0.4539,-0.2707 -0.7351,-0.3047 -0.3991,-0.0479 -0.7588,0.0479 -1.0797,0.2874 -0.3209,0.2395 -0.5199,0.6789 -0.5967,1.3192 z m 8.2072,1.2291 0.5652,0.1622 c -0.1341,0.4629 -0.3594,0.811 -0.6763,1.0457 -0.3167,0.2347 -0.6982,0.3455 -1.145,0.3311 -0.462,-0.0151 -0.8345,-0.1211 -1.1182,-0.3192 -0.2838,-0.1976 -0.495,-0.4774 -0.6344,-0.8391 -0.1392,-0.3628 -0.203,-0.748 -0.1897,-1.1576 0.0145,-0.4468 0.1123,-0.834 0.2937,-1.1611 0.182,-0.3271 0.4329,-0.5723 0.7532,-0.735 0.3206,-0.1627 0.6701,-0.2376 1.0479,-0.2254 0.4298,0.0139 0.7869,0.1347 1.0718,0.3628 0.2858,0.2285 0.4799,0.542 0.5817,0.9414 l -0.5618,0.114 c -0.0888,-0.3149 -0.2265,-0.5477 -0.4108,-0.6956 -0.1839,-0.1491 -0.4198,-0.2277 -0.7064,-0.237 -0.3291,-0.0105 -0.6074,0.0592 -0.8334,0.2103 -0.2259,0.1505 -0.3886,0.3583 -0.4864,0.6214 -0.0986,0.2642 -0.1522,0.5374 -0.1616,0.82 -0.0116,0.3651 0.0309,0.6855 0.1279,0.961 0.0972,0.2761 0.2554,0.4844 0.4751,0.6264 0.2197,0.1421 0.4595,0.2172 0.72,0.2257 0.3177,0.0102 0.5885,-0.0732 0.8147,-0.2492 0.2259,-0.1766 0.3832,-0.4436 0.4728,-0.8028 z m 2.0353,-2.8465 0.5686,-0.0434 0.1428,1.8785 c 0.2586,-0.0195 0.4369,-0.0844 0.5341,-0.193 0.0978,-0.1086 0.2132,-0.3603 0.3475,-0.7557 0.097,-0.2911 0.1797,-0.4969 0.2486,-0.6185 0.0681,-0.1225 0.1701,-0.2288 0.3067,-0.3181 0.1355,-0.0896 0.2903,-0.1414 0.4618,-0.1545 0.2183,-0.0167 0.3331,-0.0235 0.3453,-0.0204 l 0.0374,0.4907 c -0.0199,0.001 -0.0579,0.003 -0.114,0.005 -0.0629,0.003 -0.1006,0.005 -0.1148,0.006 -0.1803,0.0139 -0.3115,0.0678 -0.3929,0.1622 -0.0827,0.0946 -0.1703,0.29 -0.2642,0.5848 -0.1159,0.3738 -0.2202,0.6125 -0.3129,0.7149 -0.0913,0.1009 -0.2052,0.1862 -0.3385,0.2534 0.2818,0.0547 0.5746,0.29 0.8768,0.7041 l 0.9913,1.3589 -0.7039,0.0536 -0.8076,-1.1058 c -0.2208,-0.3073 -0.4022,-0.5162 -0.5428,-0.6256 -0.142,-0.1105 -0.3169,-0.1576 -0.5272,-0.1414 l 0.1525,2.004 -0.5684,0.0434 z m 4.8974,3.905 -0.7858,-4.2233 1.5851,-0.2948 c 0.3223,-0.0601 0.5888,-0.0658 0.8003,-0.0165 0.2106,0.0493 0.3875,0.1525 0.5306,0.3101 0.1443,0.1562 0.2336,0.332 0.2699,0.5264 0.0334,0.18 0.0158,0.3592 -0.0519,0.5363 -0.0678,0.1778 -0.1911,0.334 -0.3705,0.4689 0.2696,0.0272 0.4901,0.1182 0.6602,0.2741 0.1712,0.1539 0.2798,0.3546 0.3254,0.6004 0.0369,0.1984 0.0289,0.3903 -0.0232,0.576 -0.0516,0.1854 -0.1307,0.3356 -0.2364,0.4507 -0.1061,0.1142 -0.2472,0.2129 -0.4233,0.2945 -0.1771,0.0816 -0.3996,0.1474 -0.6692,0.1976 z m 0.1051,-2.552 0.9131,-0.1698 c 0.2477,-0.0462 0.4229,-0.0961 0.5238,-0.1483 0.1349,-0.0689 0.2288,-0.1596 0.2823,-0.2713 0.0533,-0.1114 0.0669,-0.2412 0.0394,-0.3897 -0.0263,-0.1406 -0.0827,-0.2583 -0.1703,-0.3518 -0.087,-0.095 -0.1967,-0.1505 -0.3291,-0.1667 -0.1321,-0.0159 -0.3501,0.004 -0.6528,0.0604 l -0.8445,0.157 z m 0.3632,1.9525 1.0516,-0.1959 c 0.1811,-0.0335 0.3067,-0.0641 0.3779,-0.0916 0.1236,-0.0462 0.2245,-0.1048 0.301,-0.1749 0.0765,-0.0703 0.1327,-0.1621 0.1695,-0.2755 0.0369,-0.1139 0.0423,-0.2378 0.0173,-0.3725 -0.0295,-0.1584 -0.0952,-0.2874 -0.1987,-0.3892 -0.1023,-0.102 -0.2296,-0.163 -0.3818,-0.1834 -0.1517,-0.0204 -0.3626,-0.006 -0.6307,0.0443 l -0.9771,0.1817 z m 3.9427,-0.2101 0.4317,-4.5811 0.6021,-0.168 2.84,3.6671 -0.6234,0.1741 -0.8288,-1.1203 -1.7422,0.4865 -0.0986,1.3793 z m 0.7157,-2.0316 1.4102,-0.3937 -0.7517,-1.0264 c -0.2276,-0.3124 -0.4062,-0.5729 -0.538,-0.7813 0.0184,0.2855 0.0164,0.5718 -0.0057,0.8604 z" />
  <path
     id="path15"
     style="fill:#1b1918;fill-rule:evenodd"
     d="m 52.9648,120.6797 0.1959,-0.6055 c 0.4532,0.1593 0.7809,0.2968 0.9873,0.4138 -0.0542,-0.5147 -0.0837,-0.8702 -0.0865,-1.0632 h 0.6231 c -0.0088,0.2823 -0.0409,0.6346 -0.0995,1.0587 0.2939,-0.1477 0.6304,-0.2852 1.0091,-0.4093 l 0.1959,0.6055 c -0.3612,0.1199 -0.7149,0.2004 -1.063,0.2398 0.174,0.1505 0.4181,0.4212 0.7342,0.8087 l -0.512,0.3642 c -0.1652,-0.2253 -0.3614,-0.5323 -0.5865,-0.9201 -0.212,0.4023 -0.3977,0.7095 -0.5573,0.9201 l -0.5031,-0.3642 c 0.3291,-0.4079 0.5661,-0.6772 0.7081,-0.8087 -0.3671,-0.0718 -0.7152,-0.1523 -1.0457,-0.2398 z" />
  <path
     id="path17"
     style="fill:#1b1918;fill-rule:evenodd"
     d="m 99.8402,120.6797 0.1959,-0.6055 c 0.4532,0.1593 0.7809,0.2968 0.9873,0.4138 -0.0542,-0.5147 -0.0837,-0.8702 -0.0865,-1.0632 h 0.6231 c -0.009,0.2823 -0.0409,0.6346 -0.0995,1.0587 0.2939,-0.1477 0.6304,-0.2852 1.0091,-0.4093 l 0.1959,0.6055 c -0.3612,0.1199 -0.7149,0.2004 -1.063,0.2398 0.174,0.1505 0.4181,0.4212 0.7342,0.8087 l -0.512,0.3642 c -0.1652,-0.2253 -0.3614,-0.5323 -0.5865,-0.9201 -0.212,0.4023 -0.3977,0.7095 -0.5573,0.9201 l -0.5031,-0.3642 c 0.3291,-0.4079 0.5661,-0.6772 0.7081,-0.8087 -0.3671,-0.0718 -0.7152,-0.1523 -1.0457,-0.2398 z" />
  <path
     id="path19"
     style="fill:#1b1918;fill-rule:evenodd"
     d="m 40.8419,70.5657 1.9601,3.4344 h -1.0959 l -2.4233,-3.4344 2.4233,-3.4345 h 1.1115 z m 2.9174,0 2.0066,3.4344 h -1.1423 l -2.3772,-3.4344 2.3772,-3.4345 h 1.1423 z m 3.846,-1.4049 c 0,-1.8317 0.4938,-3.2672 1.4791,-4.3038 0.9854,-1.0369 2.2564,-1.554 3.8155,-1.554 1.0213,0 1.9397,0.2444 2.7604,0.7305 0.818,0.4864 1.4434,1.1656 1.8728,2.0376 0.4297,0.8696 0.646,1.8575 0.646,2.9613 0,1.1191 -0.2265,2.1223 -0.6794,3.0047 -0.4527,0.885 -1.0934,1.554 -1.9217,2.0067 -0.8311,0.4555 -1.7263,0.6817 -2.6858,0.6817 -1.042,0 -1.9706,-0.252 -2.7915,-0.7537 -0.8181,-0.5018 -1.4406,-1.186 -1.8627,-2.0554 -0.4218,-0.8671 -0.6327,-1.7856 -0.6327,-2.7556 z m 1.5126,0.0258 c 0,1.33 0.3577,2.3771 1.0729,3.1414 0.7152,0.7639 1.6132,1.1474 2.6935,1.1474 1.1012,0 2.0044,-0.386 2.717,-1.1579 0.7098,-0.7716 1.065,-1.8678 1.065,-3.2876 0,-0.8981 -0.152,-1.6827 -0.4553,-2.3517 -0.3036,-0.6687 -0.7489,-1.1885 -1.3328,-1.5565 -0.5865,-0.3676 -1.2425,-0.553 -1.9707,-0.553 -1.0341,0 -1.9244,0.3552 -2.6705,1.065 -0.7461,0.71 -1.1191,1.8935 -1.1191,3.5529 z m 16.6068,-5.961 1.2041,0.0156 c -0.0541,0.5378 -0.1752,0.9134 -0.3577,1.1242 -0.1826,0.2109 -0.4167,0.3447 -0.705,0.4065 -0.288,0.0593 -0.8541,0.0902 -1.6954,0.0902 -1.1166,0 -1.8779,0.108 -2.2844,0.324 -0.404,0.2163 -0.6974,0.561 -0.8748,1.0343 -0.1775,0.476 -0.2752,1.0857 -0.2959,1.8343 0.3421,-0.5093 0.7409,-0.89 1.199,-1.1449 0.4553,-0.2545 0.9723,-0.3807 1.5435,-0.3807 1.0496,0 1.9193,0.36 2.6087,1.0806 0.6868,0.7203 1.0318,1.6954 1.0318,2.9276 0,0.934 -0.1726,1.7005 -0.5199,2.2975 -0.3472,0.5967 -0.7588,1.0599 -1.2347,1.3867 -0.4734,0.3266 -1.1217,0.4887 -1.9398,0.4887 -0.9519,0 -1.6903,-0.216 -2.2178,-0.6508 -0.5273,-0.4349 -0.9312,-0.9905 -1.2144,-1.6671 -0.2803,-0.6766 -0.4218,-1.8575 -0.4218,-3.5376 0,-2.1121 0.3578,-3.5348 1.0704,-4.2679 0.7126,-0.7333 1.8111,-1.0987 3.293,-1.0987 0.9235,0 1.4457,-0.0153 1.5718,-0.0462 0.1236,-0.0309 0.2033,-0.1029 0.2393,-0.2163 z m -0.0462,7.2732 c 0,-0.8311 -0.1982,-1.5129 -0.5919,-2.0452 -0.3935,-0.5327 -0.9493,-0.7977 -1.6671,-0.7977 -0.7486,0 -1.3249,0.2804 -1.7314,0.8439 -0.4065,0.5607 -0.6097,1.3096 -0.6097,2.2484 0,0.9264 0.2239,1.6362 0.6741,2.1277 0.4476,0.4912 1.0034,0.7384 1.6594,0.7384 0.6741,0 1.2194,-0.2857 1.6387,-0.854 0.4195,-0.5687 0.6279,-1.3224 0.6279,-2.2615 z m 3.0537,7.1135 V 66.5291 h 1.2348 v 1.0523 c 0.2908,-0.4065 0.6202,-0.7127 0.9881,-0.9159 0.3652,-0.2033 0.8102,-0.3062 1.3326,-0.3062 0.6843,0 1.2864,0.1749 1.8085,0.5273 0.5224,0.3501 0.9159,0.8464 1.1835,1.4845 0.265,0.6406 0.3988,1.3405 0.3988,2.1044 0,0.8156 -0.1468,1.5514 -0.4399,2.2074 -0.2934,0.6536 -0.7203,1.1551 -1.2813,1.5052 -0.5581,0.3472 -1.1474,0.5221 -1.7648,0.5221 -0.4527,0 -0.8592,-0.0952 -1.2169,-0.2854 -0.36,-0.1905 -0.6534,-0.4298 -0.885,-0.7206 v 3.9081 z m 1.2348,-7.0288 c 0,1.0267 0.2086,1.7856 0.6228,2.2768 0.4167,0.4915 0.9209,0.7384 1.5125,0.7384 0.6021,0 1.1166,-0.2545 1.5438,-0.7639 0.4297,-0.5094 0.6432,-1.2966 0.6432,-2.3644 0,-1.0187 -0.2084,-1.7801 -0.6279,-2.287 -0.4193,-0.5068 -0.9184,-0.7591 -1.4998,-0.7591 -0.5763,0 -1.0857,0.2702 -1.5282,0.8079 -0.445,0.5403 -0.6664,1.3224 -0.6664,2.3513 z m 12.583,2.9534 c -0.5043,0.4298 -0.9904,0.7308 -1.4562,0.9083 -0.4654,0.1774 -0.9646,0.265 -1.4998,0.265 -0.8799,0 -1.5565,-0.2134 -2.0299,-0.6432 -0.4734,-0.4272 -0.7101,-0.9751 -0.7101,-1.6412 0,-0.3912 0.0902,-0.7487 0.2676,-1.0729 0.1803,-0.3243 0.4142,-0.5814 0.7025,-0.777 0.2908,-0.1956 0.6148,-0.3447 0.9776,-0.4451 0.2676,-0.0694 0.6716,-0.1363 1.209,-0.2032 1.0962,-0.1287 1.9066,-0.2855 2.4236,-0.4657 0.0051,-0.1851 0.0077,-0.3036 0.0077,-0.3524 0,-0.5505 -0.1287,-0.9391 -0.3858,-1.1653 -0.3475,-0.3062 -0.8646,-0.4581 -1.5489,-0.4581 -0.6406,0 -1.114,0.1131 -1.4176,0.337 -0.3061,0.224 -0.5298,0.62 -0.6766,1.1912 l -1.3275,-0.1851 c 0.1211,-0.5687 0.3192,-1.0293 0.597,-1.3791 0.2778,-0.3498 0.6792,-0.6174 1.2039,-0.8079 0.5224,-0.1876 1.1321,-0.2829 1.8215,-0.2829 0.6843,0 1.2427,0.0797 1.6722,0.2418 0.4272,0.1622 0.7435,0.3629 0.9442,0.6072 0.2007,0.2444 0.3422,0.5531 0.4246,0.9261 0.0437,0.2316 0.0669,0.6483 0.0669,1.2478 v 1.8009 c 0,1.258 0.0281,2.0531 0.0848,2.3898 0.0541,0.3371 0.1672,0.6588 0.3319,0.9675 H 82.8125 C 82.6761,74.255 82.5885,73.9205 82.55,73.5369 Z m -0.108,-3.0098 c -0.4938,0.2007 -1.2348,0.3705 -2.2227,0.5094 -0.5609,0.0797 -0.9572,0.1698 -1.1885,0.2701 -0.2316,0.1004 -0.4094,0.2469 -0.5352,0.4374 -0.1262,0.1928 -0.1905,0.4065 -0.1905,0.6432 0,0.3575 0.1363,0.6585 0.4116,0.8977 0.2752,0.2393 0.6766,0.3603 1.2042,0.3603 0.5221,0 0.9878,-0.1134 1.3969,-0.3421 0.4065,-0.2265 0.7075,-0.5377 0.8977,-0.9315 0.1468,-0.3061 0.2188,-0.7563 0.2188,-1.3507 z m 5.0629,0.3858 v -1.065 c 0.5712,-0.0051 0.9624,-0.0283 1.1682,-0.0669 0.2083,-0.0413 0.4065,-0.1596 0.5916,-0.3602 0.1854,-0.2007 0.2778,-0.4502 0.2778,-0.7512 0,-0.3629 -0.1208,-0.656 -0.3651,-0.8722 -0.2446,-0.2186 -0.5584,-0.3266 -0.9468,-0.3266 -0.7642,0 -1.2994,0.4476 -1.6055,1.3428 l -1.2966,-0.216 c 0.4014,-1.4922 1.374,-2.2383 2.9123,-2.2383 0.8541,0 1.5231,0.2316 2.0092,0.6971 0.4864,0.4657 0.7282,1.0216 0.7282,1.6673 0,0.6509 -0.3166,1.1704 -0.9467,1.5537 0.4039,0.2163 0.7049,0.4915 0.9082,0.826 0.2007,0.3345 0.3007,0.7305 0.3007,1.1886 0,0.7177 -0.2622,1.2991 -0.7846,1.7467 -0.5247,0.4476 -1.2555,0.6715 -2.1968,0.6715 -1.8267,0 -2.8868,-0.8079 -3.1774,-2.4233 l 1.2813,-0.2781 c 0.1156,0.5094 0.3498,0.9057 0.7047,1.186 0.3551,0.2806 0.7591,0.4195 1.2169,0.4195 0.4581,0 0.8387,-0.1287 1.1423,-0.3886 0.3036,-0.2571 0.4553,-0.5865 0.4553,-0.9879 0,-0.3112 -0.095,-0.5814 -0.2855,-0.8129 -0.1905,-0.2316 -0.3937,-0.3756 -0.6097,-0.4323 -0.216,-0.059 -0.6072,-0.0873 -1.1733,-0.0873 -0.0462,0 -0.1491,0.0025 -0.3087,0.0076 z m 10.5945,1.0344 1.4049,0.1851 c -0.2189,0.8155 -0.6279,1.451 -1.2249,1.9012 -0.5967,0.4501 -1.3583,0.6766 -2.287,0.6766 -1.1678,0 -2.0942,-0.3603 -2.7785,-1.0806 -0.6843,-0.7177 -1.0264,-1.7288 -1.0264,-3.0279 0,-1.3431 0.3447,-2.3874 1.0366,-3.1283 0.6922,-0.7436 1.59,-1.1141 2.6938,-1.1141 1.0675,0 1.9397,0.3629 2.6164,1.0908 0.6766,0.7279 1.0162,1.7521 1.0162,3.0719 0,0.0797 -0.0026,0.2004 -0.0077,0.36 h -5.966 c 0.0513,0.8773 0.2984,1.5514 0.746,2.0171 0.4451,0.4655 1.0032,0.6996 1.6696,0.6996 0.4967,0 0.921,-0.1312 1.2708,-0.3934 0.3526,-0.2625 0.6304,-0.6817 0.8362,-1.258 z m -4.4455,-2.1767 h 4.4611 c -0.0592,-0.6738 -0.2316,-1.1781 -0.5122,-1.5152 -0.4294,-0.5224 -0.9904,-0.7846 -1.6773,-0.7846 -0.6224,0 -1.1449,0.2083 -1.5692,0.625 -0.4221,0.4167 -0.6562,0.9752 -0.7024,1.6748 z m 7.5815,-3.2415 h 1.3586 v 6.8998 h 3.7664 v -6.8998 h 1.3584 v 6.8998 h 0.8799 v 3.3806 h -1.1115 v -2.2691 h -6.2518 z m 13.7667,4.0366 -1.9913,-3.4345 h 1.1115 l 2.4389,3.4345 -2.4236,3.4344 h -1.1115 z m -2.9174,0 -2.0069,-3.4345 h 1.1424 l 2.3771,3.4345 -2.3771,3.4344 h -1.1424 z" />
  <path
     id="path21"
     style="fill:none;stroke:#1b1918;stroke-width:0.56690001;stroke-linecap:butt;stroke-linejoin:miter;stroke-dasharray:none"
     d="m 40.4555,78.0554 h 74.6254" />
  <path
     id="path23"
     style="fill:#1b1918;fill-rule:evenodd"
     d="m 51.5582,86.2574 c 0,-1.6925 0.4564,-3.0189 1.3669,-3.977 0.9105,-0.9578 2.0849,-1.4357 3.5255,-1.4357 0.9436,0 1.7923,0.2259 2.5506,0.6752 0.7557,0.4493 1.3334,1.0766 1.7305,1.8825 0.3969,0.8036 0.5967,1.7163 0.5967,2.7362 0,1.0338 -0.2092,1.9611 -0.6276,2.7763 -0.4184,0.8178 -1.0102,1.436 -1.7759,1.8544 -0.7676,0.4207 -1.595,0.6299 -2.4817,0.6299 -0.9627,0 -1.8207,-0.233 -2.579,-0.6965 -0.756,-0.4637 -1.3314,-1.0959 -1.7212,-1.8995 -0.3897,-0.8011 -0.5848,-1.6498 -0.5848,-2.5458 z m 1.3978,0.0238 c 0,1.2288 0.3305,2.1963 0.9913,2.9024 0.6607,0.7061 1.4904,1.0602 2.4888,1.0602 1.0173,0 1.8519,-0.3566 2.5104,-1.0698 0.6559,-0.7129 0.9841,-1.7257 0.9841,-3.0379 0,-0.8297 -0.1403,-1.5545 -0.4209,-2.1728 -0.2803,-0.6179 -0.6917,-1.0981 -1.2314,-1.438 -0.542,-0.3399 -1.148,-0.5111 -1.8207,-0.5111 -0.9555,0 -1.7781,0.328 -2.4675,0.9842 -0.6894,0.656 -1.0341,1.7496 -1.0341,3.2828 z M 64.0641,91.228 H 62.8948 V 81.0159 h 1.2549 v 3.6439 c 0.5301,-0.6607 1.2053,-0.991 2.0279,-0.991 0.4539,0 0.8867,0.0902 1.2932,0.2733 0.4065,0.1831 0.7393,0.4422 1.0029,0.7724 0.2616,0.3328 0.4686,0.7322 0.6157,1.2005 0.1499,0.466 0.2236,0.9675 0.2236,1.5001 0,1.2645 -0.3138,2.2439 -0.9391,2.9333 -0.6276,0.6919 -1.3788,1.0363 -2.2558,1.0363 -0.8725,0 -1.5571,-0.3637 -2.054,-1.0885 z M 64.05,87.4721 c 0,0.8844 0.1213,1.5239 0.3614,1.9185 0.3946,0.644 0.9269,0.9674 1.5998,0.9674 0.5491,0 1.0222,-0.2378 1.4191,-0.7132 0.3994,-0.4754 0.5989,-1.1837 0.5989,-2.1251 0,-0.9652 -0.1902,-1.6759 -0.5729,-2.1348 -0.3826,-0.4586 -0.8461,-0.6894 -1.3881,-0.6894 -0.5491,0 -1.0222,0.2379 -1.4193,0.7132 -0.3991,0.4754 -0.5989,1.1625 -0.5989,2.0634 z m 6.7773,3.7559 v -7.4024 h 1.1268 v 1.1338 c 0.2874,-0.5252 0.5536,-0.8725 0.7985,-1.0389 0.2449,-0.1686 0.5136,-0.2517 0.8059,-0.2517 0.4232,0 0.8535,0.133 1.2909,0.3969 l -0.447,1.1576 c -0.3042,-0.1712 -0.6086,-0.2568 -0.9128,-0.2568 -0.2735,0 -0.5182,0.0834 -0.7345,0.2472 -0.2165,0.1641 -0.371,0.3923 -0.4637,0.6849 -0.14,0.4444 -0.2092,0.9317 -0.2092,1.4618 v 3.8676 z m 9.5987,-0.9272 c -0.466,0.3971 -0.9153,0.6752 -1.3453,0.8393 -0.4303,0.1638 -0.8915,0.2446 -1.3862,0.2446 -0.813,0 -1.438,-0.1973 -1.8754,-0.5941 -0.4374,-0.3946 -0.6562,-0.9009 -0.6562,-1.5166 0,-0.3614 0.0833,-0.6919 0.2475,-0.9912 0.1664,-0.2997 0.3826,-0.5372 0.6488,-0.718 0.2687,-0.1806 0.5681,-0.3187 0.9034,-0.4114 0.2472,-0.064 0.6202,-0.1258 1.1171,-0.1876 1.0126,-0.1188 1.7615,-0.2639 2.2394,-0.4303 0.0046,-0.1712 0.0071,-0.2806 0.0071,-0.3257 0,-0.5085 -0.1191,-0.8677 -0.3566,-1.0769 C 79.6487,84.85 79.1708,84.71 78.5384,84.71 c -0.5919,0 -1.0293,0.1046 -1.3096,0.3112 -0.2829,0.207 -0.4898,0.5729 -0.6253,1.1007 l -1.2266,-0.1712 c 0.1117,-0.5253 0.2948,-0.9507 0.5516,-1.2742 0.2566,-0.3231 0.6276,-0.5703 1.1124,-0.7463 0.4827,-0.1735 1.0459,-0.2614 1.6832,-0.2614 0.6321,0 1.148,0.0734 1.5451,0.2234 0.3946,0.1497 0.6869,0.335 0.8722,0.561 0.1854,0.2259 0.3164,0.5111 0.3924,0.8557 0.0402,0.2141 0.0618,0.599 0.0618,1.1529 v 1.6639 c 0,1.1625 0.026,1.897 0.0785,2.2085 0.0499,0.3112 0.1545,0.6086 0.3064,0.8938 H 80.6683 C 80.5425,90.9641 80.4617,90.6551 80.426,90.3008 Z m -0.0998,-2.7811 c -0.4564,0.1854 -1.1412,0.3421 -2.054,0.4705 -0.5182,0.0737 -0.8841,0.1571 -1.0981,0.2498 -0.214,0.0927 -0.3779,0.2282 -0.4944,0.4039 -0.1165,0.1783 -0.176,0.3756 -0.176,0.5944 0,0.3306 0.1261,0.6086 0.3804,0.8297 0.2543,0.2211 0.625,0.3328 1.1123,0.3328 0.4827,0 0.913,-0.1046 1.2909,-0.3163 0.3756,-0.2092 0.6537,-0.4967 0.8297,-0.8603 0.1355,-0.2829 0.2021,-0.6991 0.2021,-1.2481 z m 2.5339,3.7083 v -1.0222 l 4.6876,-5.4105 c -0.5323,0.0286 -1.0006,0.0428 -1.4048,0.0428 h -2.9976 v -1.0125 h 6.0332 v 0.8249 l -4.0124,4.6924 -0.7679,0.8725 c 0.5632,-0.0476 1.091,-0.0714 1.5831,-0.0714 h 3.4254 v 1.084 z m 12.8438,-2.3962 1.2977,0.1713 c -0.2019,0.7534 -0.58,1.3405 -1.1313,1.7566 -0.5517,0.4161 -1.2552,0.625 -2.1133,0.625 -1.0794,0 -1.9352,-0.3328 -2.5673,-0.9983 -0.6324,-0.6631 -0.9485,-1.5974 -0.9485,-2.7978 0,-1.2408 0.3184,-2.206 0.9579,-2.8905 0.6395,-0.6871 1.4692,-1.0293 2.4888,-1.0293 0.9867,0 1.7923,0.3351 2.4176,1.0077 0.6251,0.6727 0.9389,1.6189 0.9389,2.8384 0,0.0737 -0.0023,0.1854 -0.0071,0.3328 h -5.5125 c 0.0476,0.8107 0.2758,1.4334 0.6893,1.8637 0.4113,0.4303 0.9273,0.6466 1.5429,0.6466 0.4587,0 0.851,-0.1213 1.1741,-0.3637 0.3258,-0.2426 0.5826,-0.6301 0.7728,-1.1625 z m -4.1077,-2.0111 h 4.1218 c -0.0547,-0.6228 -0.214,-1.0885 -0.4731,-1.4001 -0.3968,-0.4824 -0.915,-0.7251 -1.5497,-0.7251 -0.5754,0 -1.0578,0.1928 -1.4502,0.5777 -0.3897,0.3853 -0.606,0.9009 -0.6488,1.5475 z m 11.8261,1.6973 1.2266,0.1713 c -0.1355,0.8438 -0.4777,1.5023 -1.0315,1.98 -0.5539,0.4779 -1.2362,0.7154 -2.0421,0.7154 -1.0103,0 -1.8233,-0.3302 -2.4367,-0.991 -0.6157,-0.661 -0.9221,-1.6069 -0.9221,-2.8383 0,-0.7988 0.1329,-1.4953 0.3969,-2.0942 0.2639,-0.5967 0.6655,-1.046 1.2075,-1.3434 0.5397,-0.2993 1.1268,-0.449 1.764,-0.449 0.8011,0 1.4596,0.2018 1.9681,0.6083 0.5111,0.4065 0.8391,0.9842 0.9819,1.7306 l -1.2123,0.1854 c -0.1166,-0.4967 -0.3209,-0.87 -0.6183,-1.122 -0.2945,-0.2494 -0.6511,-0.3756 -1.0695,-0.3756 -0.6324,0 -1.1458,0.2259 -1.5429,0.6775 -0.3946,0.4541 -0.5919,1.1673 -0.5919,2.1467 0,0.9935 0.1902,1.7138 0.5706,2.1631 0.3827,0.4493 0.8796,0.6752 1.4905,0.6752 0.4944,0 0.9057,-0.1499 1.2336,-0.4518 0.3306,-0.2994 0.5398,-0.7631 0.6276,-1.3882 z" />
</svg>
