<?xml version="1.0" encoding="utf-8"?>
<!-- Generator: Adobe Illustrator 26.4.1, SVG Export Plug-In . SVG Version: 6.00 Build 0)  -->
<svg version="1.1"
	 id="svg34" xmlns:svg="http://www.w3.org/2000/svg" xmlns:rdf="http://www.w3.org/1999/02/22-rdf-syntax-ns#" xmlns:cc="http://creativecommons.org/ns#" xmlns:dc="http://purl.org/dc/elements/1.1/"
	 xmlns="http://www.w3.org/2000/svg" xmlns:xlink="http://www.w3.org/1999/xlink" x="0px" y="0px" viewBox="0 0 127.6 127.6"
	 style="enable-background:new 0 0 127.6 127.6;" xml:space="preserve">
<style type="text/css">
	.st0{fill:none;stroke:#1B1918;stroke-width:0.5669;}
	.st1{fill:none;stroke:#E30016;stroke-width:2.800000e-03;}
	.st2{fill-rule:evenodd;clip-rule:evenodd;fill:#1B1918;}
	.st3{fill:none;stroke:#1B1918;stroke-width:1.1339;stroke-linecap:round;}
	.st4{fill:#1B1918;}
</style>
<path id="path2" class="st0" d="M63.8,4.2c33.7,0,60.9,27.3,60.9,60.9s-27.3,60.9-60.9,60.9S2.8,98.8,2.8,65.1S30.1,4.2,63.8,4.2z"
	/>
<path id="path4" class="st1" d="M63.8,5.6c32.9,0,59.5,26.7,59.5,59.5c0,32.9-26.7,59.5-59.5,59.5C30.9,124.7,4.2,98,4.2,65.1
	C4.2,32.3,30.9,5.6,63.8,5.6z"/>
<path id="path8" class="st2" d="M17.9,81.6c-0.7,0.2-1.3,0.2-1.8,0c-0.5-0.2-0.8-0.7-1-1.2C15,79.9,15,79.5,15,79.2
	c0.1-0.4,0.3-0.7,0.5-0.9c0.3-0.3,0.6-0.5,1-0.6c0.4-0.1,0.8-0.2,1.2-0.1c0.4,0.1,0.7,0.2,1,0.5c0.3,0.3,0.5,0.6,0.6,0.9
	c0.1,0.4,0.1,0.8,0,1.1c-0.1,0.4-0.3,0.7-0.5,0.9C18.6,81.3,18.2,81.5,17.9,81.6L17.9,81.6z M17.7,81c0.5-0.2,0.8-0.4,1-0.8
	c0.2-0.4,0.2-0.7,0.1-1.1c-0.1-0.4-0.4-0.7-0.7-0.9c-0.4-0.2-0.8-0.2-1.3,0c-0.3,0.1-0.6,0.3-0.8,0.4c-0.2,0.2-0.4,0.4-0.4,0.7
	c-0.1,0.3-0.1,0.5,0,0.8c0.1,0.4,0.4,0.7,0.7,0.9C16.6,81.2,17.1,81.2,17.7,81z M14.1,76.5l-0.5-2.8l0.5-0.1l0.4,2.2l1.3-0.2l-0.2-1
	c-0.1-0.4-0.1-0.7,0-0.9c0-0.2,0.1-0.4,0.3-0.6c0.2-0.2,0.4-0.3,0.7-0.3c0.2,0,0.4,0,0.6,0c0.2,0.1,0.4,0.2,0.5,0.4
	c0.1,0.2,0.3,0.5,0.3,0.9l0.3,1.7L14.1,76.5z M17.7,75.3l-0.2-1.1c-0.1-0.3-0.1-0.5-0.3-0.7c-0.1-0.1-0.3-0.2-0.6-0.1
	c-0.2,0-0.3,0.1-0.4,0.2c-0.1,0.1-0.2,0.2-0.2,0.4c0,0.2,0,0.4,0.1,0.8l0.1,0.7L17.7,75.3z M13.2,71.7l0-0.6l3.8-0.3l-0.1-1.4
	l-3.8,0.3l0-0.6l3.8-0.3l-0.1-1.4l-3.8,0.3l0-0.6l3.8-0.3l0-0.4l1.7-0.1l0,0.5l-1.2,0.1l0.3,4.4L13.2,71.7z M17.2,65.2l-4.3-0.1
	l0-3.1l0.5,0l0,2.5l1.3,0l0-2.4l0.5,0l0,2.4l1.5,0l0-2.6l0.5,0L17.2,65.2z M16.3,57.4l0.2-0.5c0.4,0.2,0.8,0.4,1,0.8
	c0.2,0.3,0.3,0.7,0.2,1.2c-0.1,0.5-0.2,0.8-0.4,1.1c-0.2,0.3-0.5,0.4-0.9,0.5c-0.4,0.1-0.8,0.1-1.2,0.1c-0.4-0.1-0.8-0.2-1.1-0.4
	c-0.3-0.2-0.5-0.5-0.7-0.8c-0.1-0.3-0.2-0.7-0.1-1.1c0.1-0.4,0.2-0.8,0.5-1c0.3-0.3,0.6-0.4,1-0.5l0.1,0.6c-0.3,0.1-0.6,0.2-0.7,0.3
	c-0.2,0.2-0.3,0.4-0.3,0.7c0,0.3,0,0.6,0.1,0.9c0.1,0.2,0.3,0.4,0.6,0.5c0.3,0.1,0.5,0.2,0.8,0.2c0.4,0,0.7,0,1,0
	c0.3-0.1,0.5-0.2,0.7-0.4c0.2-0.2,0.3-0.4,0.3-0.7c0-0.3,0-0.6-0.2-0.8C16.9,57.7,16.6,57.5,16.3,57.4z M18.2,55.1l-3.7-0.8
	l-0.3,1.4l-0.5-0.1l0.8-3.3l0.5,0.1l-0.3,1.4l3.7,0.8L18.2,55.1z M19,52.1l-4.1-1.4l0.5-1.5c0.1-0.3,0.2-0.5,0.4-0.7
	c0.1-0.2,0.3-0.3,0.5-0.3c0.2,0,0.4,0,0.6,0c0.2,0.1,0.3,0.2,0.4,0.3c0.1,0.1,0.2,0.3,0.2,0.6c0.2-0.2,0.3-0.4,0.6-0.4
	c0.2-0.1,0.4-0.1,0.7,0c0.2,0.1,0.4,0.2,0.5,0.3c0.1,0.1,0.2,0.3,0.3,0.4c0,0.1,0.1,0.3,0,0.5c0,0.2-0.1,0.4-0.2,0.7L19,52.1z
	 M16.8,50.8l0.3-0.9c0.1-0.2,0.1-0.4,0.1-0.5c0-0.2,0-0.3-0.1-0.4c-0.1-0.1-0.2-0.2-0.3-0.2c-0.1,0-0.3-0.1-0.4,0
	c-0.1,0-0.2,0.1-0.3,0.2c-0.1,0.1-0.2,0.3-0.3,0.6l-0.3,0.8L16.8,50.8z M18.7,51.4l0.3-1c0.1-0.2,0.1-0.3,0.1-0.4c0-0.1,0-0.2,0-0.3
	c0-0.1-0.1-0.2-0.2-0.3c-0.1-0.1-0.2-0.2-0.3-0.2c-0.2-0.1-0.3-0.1-0.4,0c-0.1,0-0.3,0.1-0.3,0.2c-0.1,0.1-0.2,0.3-0.3,0.6l-0.3,0.9
	L18.7,51.4z M18.3,47.4c-0.6-0.3-1.1-0.7-1.3-1.2c-0.2-0.5-0.2-1,0.1-1.6c0.2-0.4,0.4-0.6,0.7-0.9c0.3-0.2,0.6-0.3,1-0.3
	c0.4,0,0.8,0.1,1.2,0.3c0.4,0.2,0.7,0.4,1,0.7c0.2,0.3,0.4,0.6,0.4,1c0,0.4,0,0.7-0.2,1.1c-0.2,0.4-0.4,0.7-0.7,0.9
	c-0.3,0.2-0.7,0.3-1,0.3C19,47.7,18.7,47.6,18.3,47.4z M18.6,46.9c0.5,0.2,0.9,0.3,1.3,0.1c0.4-0.1,0.7-0.4,0.8-0.8
	c0.2-0.4,0.2-0.8,0-1.1c-0.2-0.4-0.5-0.7-1-0.9c-0.3-0.1-0.6-0.2-0.9-0.2c-0.3,0-0.5,0.1-0.8,0.2c-0.2,0.1-0.4,0.3-0.5,0.6
	c-0.2,0.4-0.2,0.7-0.1,1.1C17.6,46.3,18,46.6,18.6,46.9z M23.6,38.7l0.4-0.4c0.3,0.3,0.5,0.7,0.6,1.1c0,0.4-0.1,0.8-0.3,1.2
	c-0.2,0.4-0.5,0.7-0.8,0.8c-0.3,0.1-0.7,0.2-1,0.1c-0.4-0.1-0.7-0.2-1.1-0.4c-0.4-0.2-0.7-0.5-0.9-0.8c-0.2-0.3-0.3-0.7-0.3-1
	c0-0.4,0.1-0.7,0.3-1c0.2-0.4,0.5-0.6,0.9-0.7c0.3-0.1,0.7-0.1,1.1,0l-0.2,0.5c-0.3-0.1-0.6-0.1-0.8,0c-0.2,0.1-0.4,0.2-0.6,0.5
	c-0.2,0.3-0.3,0.6-0.2,0.8c0,0.3,0.1,0.5,0.3,0.7c0.2,0.2,0.4,0.4,0.6,0.6c0.3,0.2,0.6,0.3,0.9,0.4c0.3,0.1,0.5,0,0.8-0.1
	c0.2-0.1,0.4-0.3,0.6-0.5c0.2-0.3,0.2-0.5,0.2-0.8C24,39.2,23.9,38.9,23.6,38.7z M25.1,35.4c-0.5-0.5-0.8-1-0.9-1.5
	c-0.1-0.6,0.1-1.1,0.5-1.5c0.3-0.3,0.6-0.5,0.9-0.6c0.4-0.1,0.7-0.1,1.1,0c0.4,0.1,0.7,0.3,1,0.6c0.3,0.3,0.6,0.6,0.7,1
	c0.1,0.4,0.2,0.7,0.1,1.1c-0.1,0.4-0.2,0.7-0.5,1c-0.3,0.3-0.6,0.5-0.9,0.6c-0.4,0.1-0.7,0.1-1.1,0C25.7,35.9,25.4,35.7,25.1,35.4z
	 M25.5,35c0.4,0.3,0.8,0.5,1.2,0.5c0.4,0,0.7-0.2,1-0.5c0.3-0.3,0.4-0.7,0.3-1.1c0-0.4-0.3-0.8-0.7-1.1c-0.3-0.2-0.5-0.4-0.8-0.5
	c-0.3-0.1-0.5-0.1-0.8,0c-0.3,0.1-0.5,0.2-0.7,0.4c-0.3,0.3-0.4,0.7-0.4,1.1C24.8,34.2,25,34.6,25.5,35z M27.3,29.6l2-1.9l0.3,0.4
	l-1.6,1.5l2.6,2.8l-0.4,0.4L27.3,29.6z M33,30.1l-2.8-3.2l1.2-1.1c0.2-0.2,0.4-0.3,0.5-0.4c0.2-0.1,0.4-0.2,0.5-0.2
	c0.2,0,0.4,0,0.5,0.1c0.2,0.1,0.3,0.2,0.5,0.4c0.2,0.3,0.4,0.6,0.3,0.9c0,0.3-0.2,0.7-0.7,1.1l-0.8,0.7l1.2,1.3L33,30.1z M32,28.1
	l0.8-0.7c0.3-0.2,0.4-0.5,0.5-0.7c0-0.2,0-0.4-0.2-0.6c-0.1-0.1-0.3-0.2-0.4-0.3c-0.2,0-0.3,0-0.4,0c-0.1,0-0.2,0.2-0.4,0.3
	l-0.8,0.7L32,28.1z M35.7,27.9l-1.1-4.5l0.5-0.4l3.9,2.5L38.5,26l-1.2-0.8l-1.5,1l0.4,1.3L35.7,27.9z M35.7,25.8l1.2-0.8l-1-0.7
	c-0.3-0.2-0.6-0.4-0.8-0.6c0.1,0.3,0.2,0.5,0.3,0.8L35.7,25.8z M39.9,25.1l-2.1-3.7l0.5-0.3l0.9,1.5l1.9-1.1L40.2,20l0.5-0.3
	l2.1,3.7l-0.5,0.3l-1-1.8l-1.9,1.1l1,1.8L39.9,25.1z M42.5,18.8l0.5-0.2l1.3,3.2l0.8-4l0.5-0.2l1.6,4l-0.5,0.2l-1.3-3.1l-0.8,4
	l-0.5,0.2L42.5,18.8z M51.6,20.1l-0.5,0.2l-0.5-1.7c-0.4,0.3-0.8,0.5-1.2,0.6c-0.3,0.1-0.6,0.1-0.8,0c-0.3-0.1-0.5-0.2-0.6-0.4
	c-0.1-0.2-0.2-0.4-0.3-0.8l-0.4-1.2l0.5-0.2l0.3,1.2c0.1,0.5,0.3,0.7,0.5,0.8c0.2,0.1,0.4,0.1,0.7,0c0.4-0.1,0.8-0.3,1.1-0.6l-0.6-2
	l0.5-0.2L51.6,20.1z M53.1,19.7l-0.7-4.2l3.1-0.5l0.1,0.5L53,15.9l0.2,1.3l2.3-0.4l0.1,0.5l-2.3,0.4l0.2,1.4l2.6-0.4l0.1,0.5
	L53.1,19.7z M57.5,18.9l-0.3-4.3l0.6,0l0.1,1.8l2.2-0.2L60,14.4l0.6,0l0.3,4.3l-0.6,0l-0.2-2L58,16.8l0.2,2L57.5,18.9z M62.4,18.5
	l0.1-4.3l0.6,0l0,1.8l2.2,0l0-1.8l0.6,0l-0.1,4.3l-0.6,0l0-2l-2.2,0l0,2L62.4,18.5z M67.4,16.5c0.1-0.7,0.4-1.2,0.8-1.6
	c0.4-0.3,1-0.5,1.6-0.4c0.4,0.1,0.7,0.2,1,0.4c0.3,0.2,0.5,0.5,0.6,0.9c0.1,0.4,0.2,0.7,0.1,1.2c-0.1,0.4-0.2,0.8-0.4,1.1
	c-0.2,0.3-0.5,0.5-0.8,0.7c-0.3,0.1-0.7,0.2-1.1,0.1c-0.4-0.1-0.7-0.2-1-0.4c-0.3-0.2-0.5-0.5-0.6-0.9
	C67.4,17.2,67.4,16.9,67.4,16.5z M68,16.6c-0.1,0.5,0,0.9,0.2,1.3c0.2,0.3,0.6,0.5,1,0.6c0.4,0.1,0.8,0,1.1-0.3
	c0.3-0.3,0.5-0.7,0.6-1.2c0-0.3,0-0.7-0.1-0.9c-0.1-0.3-0.2-0.5-0.4-0.7C70.2,15.2,70,15,69.7,15c-0.4-0.1-0.8,0-1.1,0.3
	C68.3,15.5,68.1,15.9,68,16.6z M73.4,15.1l0.5,0.1l-0.8,3.3l3-2.8l0.5,0.1l-1,4.2l-0.5-0.1l0.8-3.3l-3,2.8l-0.6-0.1L73.4,15.1z
	 M75.7,14.6l0.4,0.1c-0.1,0.2-0.2,0.4-0.4,0.5c-0.2,0.1-0.4,0.1-0.6,0.1c-0.2-0.1-0.4-0.2-0.5-0.3c-0.1-0.2-0.2-0.4-0.1-0.6l0.4,0.1
	c0,0.1,0,0.2,0.1,0.3c0.1,0.1,0.2,0.1,0.3,0.2c0.2,0,0.3,0,0.4,0C75.6,14.8,75.7,14.7,75.7,14.6z M79.4,19c0.3-0.7,0.6-1.1,1.1-1.4
	c0.5-0.2,1-0.3,1.6,0c0.4,0.1,0.7,0.4,0.9,0.6c0.2,0.3,0.4,0.6,0.4,1c0,0.4,0,0.8-0.2,1.2c-0.2,0.4-0.4,0.7-0.7,1
	c-0.3,0.3-0.6,0.4-1,0.5c-0.4,0-0.7,0-1.1-0.1c-0.4-0.1-0.7-0.4-0.9-0.7c-0.2-0.3-0.4-0.6-0.4-1C79.2,19.7,79.2,19.3,79.4,19
	L79.4,19z M79.9,19.2c-0.2,0.5-0.2,0.9,0,1.3c0.2,0.4,0.4,0.6,0.8,0.8c0.4,0.2,0.8,0.1,1.1,0c0.4-0.2,0.6-0.5,0.8-1
	c0.1-0.3,0.2-0.6,0.2-0.9c0-0.3-0.1-0.5-0.3-0.8c-0.2-0.2-0.4-0.4-0.6-0.5c-0.4-0.1-0.7-0.1-1.1,0C80.4,18.2,80.1,18.6,79.9,19.2
	L79.9,19.2z M84.6,23.4l1.8-3.4l-1.3-0.7l0.2-0.4l3,1.6L88.1,21l-1.3-0.7l-1.8,3.4L84.6,23.4z M87.3,24.9l2.3-3.6l1.4,0.9
	c0.3,0.2,0.5,0.4,0.6,0.5c0.1,0.2,0.2,0.4,0.2,0.6c0,0.2-0.1,0.4-0.2,0.6c-0.1,0.2-0.2,0.3-0.4,0.4c-0.2,0.1-0.4,0.1-0.6,0.1
	c0.2,0.2,0.3,0.4,0.3,0.6c0,0.2,0,0.5-0.2,0.7c-0.1,0.2-0.2,0.3-0.4,0.4c-0.2,0.1-0.3,0.2-0.5,0.2c-0.2,0-0.3,0-0.5-0.1
	c-0.2-0.1-0.4-0.2-0.6-0.3L87.3,24.9z M89.1,23.1l0.8,0.5c0.2,0.1,0.4,0.2,0.5,0.2c0.1,0,0.3,0,0.4,0c0.1,0,0.2-0.1,0.3-0.3
	c0.1-0.1,0.1-0.2,0.1-0.4c0-0.1,0-0.2-0.1-0.3c-0.1-0.1-0.3-0.2-0.5-0.4L89.8,22L89.1,23.1z M88.1,24.8l0.9,0.6
	c0.2,0.1,0.3,0.2,0.3,0.2c0.1,0,0.2,0.1,0.3,0.1c0.1,0,0.2,0,0.3-0.1c0.1-0.1,0.2-0.1,0.3-0.3c0.1-0.1,0.1-0.3,0.1-0.4
	c0-0.1-0.1-0.3-0.2-0.4c-0.1-0.1-0.3-0.3-0.5-0.4l-0.8-0.5L88.1,24.8z M91.2,27.4l2.7-3.3l2.4,1.9L96,26.4l-2-1.6l-0.8,1l1.8,1.5
	l-0.3,0.4l-1.8-1.5l-0.9,1.1L94,29l-0.3,0.4L91.2,27.4z M95.5,31l2.6-2.8l-1-1l0.3-0.4l2.5,2.3l-0.3,0.4l-1-1l-2.6,2.8L95.5,31z
	 M100.9,34.5l0.3,0.5c-0.4,0.2-0.8,0.3-1.2,0.2c-0.4-0.1-0.7-0.3-1-0.6c-0.3-0.3-0.5-0.7-0.5-1c-0.1-0.3,0-0.7,0.2-1
	c0.2-0.4,0.4-0.7,0.7-0.9c0.3-0.3,0.7-0.5,1-0.6c0.4-0.1,0.7-0.1,1.1,0c0.3,0.1,0.6,0.3,0.9,0.6c0.3,0.3,0.4,0.7,0.5,1
	c0,0.4-0.1,0.7-0.3,1.1l-0.5-0.3c0.2-0.3,0.2-0.5,0.2-0.8c0-0.2-0.1-0.5-0.3-0.7c-0.2-0.2-0.5-0.4-0.7-0.5c-0.3-0.1-0.5,0-0.8,0.1
	c-0.3,0.1-0.5,0.3-0.7,0.4c-0.3,0.2-0.5,0.5-0.6,0.8c-0.1,0.3-0.2,0.5-0.1,0.8c0,0.3,0.2,0.5,0.3,0.7c0.2,0.2,0.5,0.4,0.7,0.4
	C100.3,34.8,100.6,34.7,100.9,34.5z M101.3,37.5l3.1-2.2l-0.8-1.2l0.4-0.3l1.9,2.8l-0.4,0.3l-0.8-1.2l-3.1,2.2L101.3,37.5z
	 M103.1,40l3.7-2.1l0.8,1.4c0.2,0.3,0.3,0.5,0.3,0.8c0,0.2,0,0.4-0.1,0.6c-0.1,0.2-0.2,0.3-0.4,0.4c-0.2,0.1-0.3,0.1-0.5,0.1
	c-0.2,0-0.4-0.1-0.6-0.2c0.1,0.3,0,0.5,0,0.7c-0.1,0.2-0.2,0.4-0.5,0.5c-0.2,0.1-0.4,0.2-0.6,0.2c-0.2,0-0.4,0-0.5-0.1
	c-0.1-0.1-0.3-0.2-0.4-0.3c-0.1-0.1-0.3-0.3-0.4-0.6L103.1,40z M105.5,39.3l0.5,0.8c0.1,0.2,0.2,0.4,0.3,0.4
	c0.1,0.1,0.2,0.2,0.3,0.2c0.1,0,0.2,0,0.4-0.1c0.1-0.1,0.2-0.2,0.3-0.3c0.1-0.1,0.1-0.2,0.1-0.4c0-0.1-0.1-0.3-0.3-0.6l-0.4-0.7
	L105.5,39.3z M103.8,40.3l0.5,0.9c0.1,0.2,0.2,0.3,0.2,0.3c0.1,0.1,0.2,0.2,0.3,0.2c0.1,0,0.2,0.1,0.3,0.1c0.1,0,0.2,0,0.4-0.1
	c0.1-0.1,0.2-0.2,0.3-0.3c0.1-0.1,0.1-0.3,0.1-0.4c0-0.2-0.1-0.3-0.2-0.6l-0.5-0.9L103.8,40.3z M105.4,44l3.9-1.8l1.3,2.8l-0.5,0.2
	l-1-2.3l-1.2,0.5l1,2.2l-0.5,0.2l-1-2.2l-1.3,0.6l1.1,2.4l-0.5,0.2L105.4,44z M107.3,48.1l4.1-1.3l0.2,0.5l-1.7,0.5l0.7,2.1l1.7-0.5
	l0.2,0.5l-4.1,1.3l-0.2-0.5l1.9-0.6l-0.7-2.1l-1.9,0.6L107.3,48.1z M108.8,52.8l4.2-1l0.1,0.6l-1.7,0.4l0.5,2.2l1.7-0.4l0.1,0.6
	l-4.2,1l-0.1-0.6l2-0.5l-0.5-2.2l-2,0.5L108.8,52.8z M111.8,57.1c0.7-0.1,1.3,0,1.7,0.3c0.5,0.3,0.7,0.8,0.8,1.4
	c0.1,0.4,0,0.8-0.1,1.1c-0.1,0.3-0.4,0.6-0.7,0.8c-0.3,0.2-0.7,0.3-1.1,0.4c-0.4,0.1-0.8,0-1.2-0.1c-0.4-0.1-0.7-0.3-0.9-0.6
	c-0.2-0.3-0.4-0.6-0.4-1c-0.1-0.4,0-0.8,0.1-1.1c0.1-0.3,0.4-0.6,0.7-0.8C111.1,57.3,111.4,57.2,111.8,57.1z M111.9,57.7
	c-0.5,0.1-0.9,0.3-1.2,0.6c-0.3,0.3-0.4,0.7-0.3,1.1c0.1,0.4,0.3,0.8,0.6,1c0.3,0.2,0.8,0.3,1.3,0.2c0.3,0,0.6-0.1,0.9-0.3
	s0.4-0.4,0.5-0.6c0.1-0.2,0.1-0.5,0.1-0.8c-0.1-0.4-0.2-0.7-0.6-1C113,57.7,112.5,57.6,111.9,57.7z M111.9,65.8l-0.1,0.6
	c-0.5-0.1-0.8-0.3-1.1-0.6c-0.2-0.3-0.4-0.7-0.4-1.1c0-0.5,0.1-0.8,0.3-1.1c0.2-0.3,0.5-0.5,0.8-0.7c0.4-0.2,0.7-0.2,1.1-0.2
	c0.4,0,0.8,0.1,1.2,0.2c0.3,0.2,0.6,0.4,0.8,0.7c0.2,0.3,0.3,0.7,0.3,1c0,0.4-0.1,0.8-0.3,1.1c-0.2,0.3-0.5,0.5-0.9,0.6l-0.1-0.6
	c0.3-0.1,0.5-0.3,0.7-0.4c0.1-0.2,0.2-0.4,0.2-0.7c0-0.3-0.1-0.6-0.2-0.8c-0.2-0.2-0.4-0.4-0.6-0.5c-0.3-0.1-0.5-0.1-0.8-0.1
	c-0.4,0-0.7,0.1-1,0.2c-0.3,0.1-0.5,0.3-0.6,0.5c-0.1,0.2-0.2,0.5-0.2,0.7c0,0.3,0.1,0.6,0.3,0.8C111.2,65.6,111.5,65.7,111.9,65.8z
	 M110.3,68.3l3.8,0.3l0.1-1.4l0.5,0l-0.3,3.4l-0.5,0l0.1-1.4l-3.8-0.3L110.3,68.3z M114.2,72.2l-0.1,0.6l-1.8-0.3l-0.2,1
	c-0.1,0.5-0.2,0.8-0.3,1c-0.1,0.2-0.3,0.3-0.5,0.4c-0.2,0.1-0.4,0.1-0.6,0c-0.3-0.1-0.6-0.2-0.8-0.5c-0.2-0.3-0.3-0.7-0.2-1.3
	l0.3-1.6L114.2,72.2z M110.3,72.1l-0.2,1c-0.1,0.4,0,0.7,0.1,0.8c0.1,0.1,0.3,0.2,0.5,0.3c0.2,0,0.3,0,0.5-0.1
	c0.1-0.1,0.2-0.2,0.3-0.3c0.1-0.1,0.1-0.4,0.2-0.8l0.1-0.7L110.3,72.1z M113.3,77.1l-0.2,0.5l-1.8-0.5l-0.2,0.8c0.6,0.2,1,0.5,1.2,1
	c0.2,0.4,0.3,0.9,0.2,1.4c-0.2,0.5-0.5,0.9-1,1.2c-0.5,0.2-1,0.3-1.7,0.1c-0.7-0.2-1.2-0.5-1.4-1c-0.3-0.5-0.3-1-0.2-1.5
	c0.1-0.5,0.4-0.9,0.9-1.1c0.4-0.2,0.9-0.3,1.5-0.2l0.2-0.8l-1.8-0.5l0.2-0.5L113.3,77.1z M110.7,78.4c-0.5-0.2-1-0.1-1.3,0
	c-0.4,0.2-0.6,0.4-0.7,0.8c-0.1,0.4-0.1,0.8,0.2,1.1c0.2,0.3,0.6,0.6,1.1,0.7c0.5,0.1,1,0.1,1.3,0c0.4-0.1,0.6-0.4,0.7-0.8
	c0.1-0.4,0.1-0.8-0.2-1.1C111.6,78.7,111.2,78.5,110.7,78.4z"/>
<path id="path10" class="st2" d="M29.7,97.8l1.2,1.3l-0.3,0.3l-0.9-0.9l-1.9,1.8l-0.4-0.4L29.7,97.8z M29.3,101.7l0.4-0.4l0.4,0.4
	l-0.4,0.4L29.3,101.7z M32.5,104.6l2.5-3.5l0.5,0.3l-1,1.4l1.8,1.3l1-1.4l0.5,0.3l-2.5,3.5l-0.5-0.3l1.2-1.6l-1.8-1.3l-1.2,1.6
	L32.5,104.6z M39.1,104l0.4,0.3l-1.7,3l3.7-1.8l0.5,0.3l-2.1,3.7l-0.4-0.3l1.7-2.9l-3.7,1.8l-0.5-0.3L39.1,104z M45.9,107.5
	l-0.8,1.7c0.3,0.1,0.4,0.1,0.6,0.1c0.1-0.1,0.4-0.2,0.7-0.5c0.2-0.2,0.4-0.3,0.5-0.4c0.1-0.1,0.3-0.1,0.4-0.1c0.2,0,0.3,0,0.5,0.1
	c0.2,0.1,0.3,0.1,0.3,0.1l-0.2,0.4c0,0,0,0-0.1,0c-0.1,0-0.1,0-0.1,0c-0.2-0.1-0.3-0.1-0.4,0c-0.1,0-0.3,0.2-0.5,0.4
	c-0.2,0.2-0.4,0.4-0.6,0.4c-0.1,0.1-0.3,0.1-0.5,0.1c0.2,0.2,0.4,0.5,0.4,1l0.2,1.7l-0.6-0.3l-0.2-1.4c0-0.4-0.1-0.6-0.2-0.8
	c-0.1-0.2-0.2-0.3-0.4-0.4l-0.8,1.8l-0.5-0.2l0.8-1.8c-0.2-0.1-0.3-0.1-0.5-0.1c-0.2,0-0.4,0.2-0.7,0.4l-0.1,0l-1.1,0.8l-0.6-0.3
	l1.4-0.9c0.4-0.3,0.8-0.4,1.1-0.4c-0.1-0.1-0.2-0.3-0.2-0.4c0-0.1-0.1-0.4,0-0.7c0-0.3,0-0.6,0-0.7c0-0.1-0.1-0.2-0.3-0.3l-0.2-0.1
	l0.2-0.4c0,0,0.1,0,0.3,0.1c0.2,0.1,0.3,0.2,0.4,0.3c0.1,0.1,0.2,0.3,0.2,0.4c0,0.1,0,0.4,0,0.7c0,0.4,0,0.7,0.1,0.8
	c0.1,0.1,0.2,0.3,0.5,0.4l0.8-1.7L45.9,107.5z M47.9,112.9l1.2-4.1l0.5,0.2l-0.5,1.7l2.1,0.6l0.5-1.7l0.5,0.2l-1.2,4.1l-0.5-0.2
	l0.6-1.9l-2.1-0.6l-0.6,1.9L47.9,112.9z M54,110.1l0.5,0.1l-0.6,3.4l2.8-3l0.6,0.1l-0.7,4.2l-0.5-0.1l0.6-3.3l-2.8,3l-0.6-0.1
	L54,110.1z M58.9,110.9l0.5,0l-0.3,3.4l2.5-3.2l0.6,0l-0.3,4.3l-0.5,0l0.3-3.4l-2.5,3.2l-0.6,0L58.9,110.9z M61.2,110l0.4,0
	c0,0.2-0.2,0.4-0.3,0.5c-0.2,0.1-0.4,0.2-0.6,0.2c-0.2,0-0.4-0.1-0.6-0.2c-0.1-0.1-0.2-0.3-0.2-0.6l0.4,0c0,0.1,0.1,0.2,0.1,0.3
	c0.1,0.1,0.2,0.1,0.3,0.1c0.2,0,0.3,0,0.4-0.1C61.1,110.3,61.1,110.2,61.2,110z M67.4,115.4l-0.6-4.3l0.6-0.1l0.2,1.8l2.2-0.3
	l-0.2-1.8l0.6-0.1l0.6,4.3l-0.6,0.1l-0.3-2l-2.2,0.3l0.3,2L67.4,115.4z M72.2,112.7c-0.2-0.7-0.1-1.3,0.2-1.8
	c0.3-0.5,0.7-0.8,1.3-0.9c0.4-0.1,0.8-0.1,1.1,0c0.4,0.1,0.6,0.3,0.9,0.6c0.2,0.3,0.4,0.6,0.5,1.1c0.1,0.4,0.1,0.8,0,1.2
	c-0.1,0.4-0.3,0.7-0.6,0.9c-0.3,0.2-0.6,0.4-1,0.5c-0.4,0.1-0.8,0.1-1.1,0c-0.4-0.1-0.6-0.3-0.9-0.6C72.5,113.4,72.3,113,72.2,112.7
	L72.2,112.7z M72.8,112.6c0.1,0.5,0.3,0.9,0.7,1.1c0.3,0.2,0.7,0.3,1.1,0.2c0.4-0.1,0.7-0.3,0.9-0.7c0.2-0.4,0.2-0.8,0.1-1.3
	c-0.1-0.3-0.2-0.6-0.4-0.9c-0.2-0.2-0.4-0.4-0.6-0.5c-0.3-0.1-0.5-0.1-0.8,0c-0.4,0.1-0.7,0.3-0.9,0.6
	C72.7,111.4,72.6,111.9,72.8,112.6L72.8,112.6z M78.5,113.3l-1.3-4.1l1.5-0.5c0.3-0.1,0.6-0.1,0.8-0.1c0.2,0,0.4,0.1,0.6,0.2
	c0.2,0.1,0.3,0.3,0.3,0.5c0.1,0.2,0.1,0.4,0,0.5c0,0.2-0.1,0.4-0.3,0.5c0.3,0,0.5,0.1,0.7,0.2c0.2,0.1,0.3,0.3,0.4,0.6
	c0.1,0.2,0.1,0.4,0.1,0.6c0,0.2-0.1,0.3-0.2,0.5c-0.1,0.1-0.2,0.2-0.4,0.3c-0.2,0.1-0.4,0.2-0.6,0.3L78.5,113.3z M78.2,110.7
	l0.9-0.3c0.2-0.1,0.4-0.2,0.5-0.2c0.1-0.1,0.2-0.2,0.2-0.3c0-0.1,0-0.2,0-0.4c0-0.1-0.1-0.2-0.2-0.3c-0.1-0.1-0.2-0.1-0.3-0.1
	c-0.1,0-0.3,0-0.6,0.1l-0.8,0.3L78.2,110.7z M78.9,112.6l1-0.3c0.2-0.1,0.3-0.1,0.4-0.1c0.1-0.1,0.2-0.1,0.3-0.2
	c0.1-0.1,0.1-0.2,0.1-0.3c0-0.1,0-0.2,0-0.4c-0.1-0.2-0.1-0.3-0.2-0.4c-0.1-0.1-0.2-0.1-0.4-0.1c-0.2,0-0.4,0-0.6,0.1l-0.9,0.3
	L78.9,112.6z M81.6,107.6l2.5-1.1l0.2,0.5l-2,0.9l1.6,3.5l-0.5,0.2L81.6,107.6z M85.6,108.1c-0.4-0.6-0.5-1.2-0.3-1.7
	c0.1-0.5,0.5-1,1-1.3c0.3-0.2,0.7-0.3,1.1-0.3c0.4,0,0.7,0.1,1,0.3c0.3,0.2,0.6,0.5,0.8,0.9c0.2,0.4,0.3,0.8,0.3,1.1
	c0,0.4-0.1,0.7-0.3,1c-0.2,0.3-0.5,0.6-0.8,0.7c-0.4,0.2-0.7,0.3-1.1,0.3c-0.4,0-0.7-0.1-1-0.3C86.1,108.7,85.8,108.5,85.6,108.1z
	 M86.2,107.9c0.3,0.4,0.6,0.7,1,0.9c0.4,0.1,0.8,0.1,1.1-0.1c0.4-0.2,0.6-0.5,0.7-0.9c0.1-0.4,0-0.8-0.3-1.3
	c-0.2-0.3-0.4-0.5-0.6-0.7c-0.2-0.2-0.5-0.3-0.7-0.3c-0.3,0-0.5,0.1-0.8,0.2c-0.3,0.2-0.6,0.5-0.7,0.9
	C85.7,106.8,85.8,107.3,86.2,107.9z M91.8,106.9l-2.5-3.5l1.3-0.9c0.2-0.2,0.4-0.3,0.6-0.3c0.2-0.1,0.4-0.1,0.5-0.1
	c0.2,0,0.3,0,0.5,0.1c0.2,0.1,0.3,0.2,0.4,0.4c0.2,0.3,0.3,0.6,0.2,1c0,0.3-0.3,0.7-0.8,1l-0.9,0.6l1,1.4L91.8,106.9z M91,104.7
	l0.9-0.6c0.3-0.2,0.5-0.4,0.5-0.6c0-0.2,0-0.4-0.1-0.6c-0.1-0.1-0.2-0.2-0.4-0.3c-0.1-0.1-0.3-0.1-0.4,0c-0.1,0-0.2,0.1-0.5,0.3
	l-0.9,0.6L91,104.7z M94.2,102.6c-0.5-0.5-0.7-1.1-0.7-1.6c0-0.6,0.3-1,0.7-1.4c0.3-0.3,0.6-0.4,1-0.5c0.4-0.1,0.7,0,1.1,0.1
	c0.3,0.1,0.7,0.4,0.9,0.7c0.3,0.3,0.5,0.7,0.6,1.1c0.1,0.4,0.1,0.7,0,1.1c-0.1,0.3-0.3,0.6-0.6,0.9c-0.3,0.3-0.6,0.4-1,0.5
	c-0.4,0.1-0.7,0-1.1-0.1C94.7,103.1,94.4,102.9,94.2,102.6z M94.6,102.2c0.3,0.4,0.7,0.6,1.1,0.6c0.4,0,0.8-0.1,1.1-0.4
	c0.3-0.3,0.5-0.6,0.5-1c0-0.4-0.2-0.8-0.5-1.2c-0.2-0.3-0.5-0.5-0.7-0.6c-0.3-0.1-0.5-0.2-0.8-0.1c-0.3,0-0.5,0.2-0.7,0.3
	c-0.3,0.3-0.5,0.6-0.5,1C94,101.3,94.2,101.7,94.6,102.2z M96.9,97.1l1.8-1.9l2.8,2.6l0.3-0.3l1.1,1l-0.3,0.4l-0.7-0.7l-2,2.1
	l0.7,0.7l-0.3,0.4l-1.1-1l0.2-0.2c-0.1-0.6-0.8-1.5-1.9-2.6L96.9,97.1z M98.6,95.9l-1,1.1l0.2,0.2c0.3,0.3,0.6,0.6,1,1.1
	c0.4,0.5,0.7,0.9,0.9,1.4l1.4-1.4L98.6,95.9z"/>
<path id="path12" class="st2" d="M40.5,29.9l0.1,1.8l1.6,0.8l-0.6,0.4l-1.8-0.7l0.1-1.9L40.5,29.9z M41.6,29.1l0.1,1.8l1.6,0.8
	l-0.6,0.4l-1.8-0.7l0.1-1.9L41.6,29.1z M43.8,28.7c-0.2-0.5-0.3-0.9-0.3-1.3c0-0.3,0-0.6,0.1-0.8c0.1-0.3,0.2-0.5,0.4-0.7
	c0.2-0.2,0.5-0.5,0.9-0.6c0.7-0.3,1.3-0.3,1.9-0.1c0.6,0.2,1.1,0.7,1.4,1.5c0.3,0.7,0.4,1.4,0.2,2c-0.2,0.6-0.7,1-1.3,1.4
	c-0.7,0.3-1.3,0.3-1.9,0.1C44.6,29.9,44.1,29.4,43.8,28.7z M44.7,28.2c0.2,0.5,0.5,0.9,0.9,1c0.4,0.2,0.7,0.2,1.1,0
	c0.4-0.2,0.6-0.4,0.7-0.8c0.1-0.4,0.1-0.8-0.2-1.4c-0.2-0.5-0.5-0.9-0.9-1c-0.3-0.2-0.7-0.1-1.1,0c-0.4,0.2-0.6,0.4-0.7,0.8
	C44.4,27.3,44.5,27.7,44.7,28.2z M49.6,23.5l3.6-1.1l0.2,0.8L50.8,24l0.3,1.1l1.3-0.4c0.4-0.1,0.7-0.2,0.9-0.1
	c0.3,0,0.5,0.1,0.7,0.3c0.2,0.2,0.4,0.4,0.5,0.8c0.1,0.3,0.1,0.6,0,0.9c-0.1,0.3-0.2,0.5-0.4,0.6c-0.2,0.1-0.5,0.3-0.9,0.4L51,28.3
	L49.6,23.5z M51.8,27.2l0.9-0.3c0.3-0.1,0.5-0.2,0.6-0.2c0.1-0.1,0.2-0.2,0.3-0.3c0.1-0.1,0.1-0.3,0-0.4c-0.1-0.2-0.2-0.4-0.4-0.4
	c-0.2-0.1-0.5,0-0.9,0.1l-1,0.3L51.8,27.2z M56.9,26.8l-0.7-5l1.6-0.2c0.6-0.1,1-0.1,1.2-0.1c0.3,0,0.6,0.2,0.8,0.4
	c0.2,0.2,0.4,0.5,0.4,0.9c0,0.3,0,0.6-0.1,0.8c-0.1,0.2-0.2,0.4-0.3,0.6c-0.2,0.1-0.3,0.2-0.5,0.3c-0.2,0.1-0.6,0.2-1,0.2l-0.7,0.1
	l0.3,1.9L56.9,26.8z M57.3,22.5l0.2,1.4l0.5-0.1c0.4-0.1,0.7-0.1,0.8-0.2c0.1-0.1,0.2-0.2,0.3-0.3c0.1-0.1,0.1-0.3,0.1-0.4
	c0-0.2-0.1-0.3-0.2-0.4c-0.1-0.1-0.3-0.2-0.4-0.2c-0.1,0-0.4,0-0.7,0.1L57.3,22.5z M66.3,26.2l-1.1,0l-0.4-1.1l-2,0l-0.4,1.1l-1.1,0
	l1.9-5l1.1,0L66.3,26.2z M64.5,24.2l-0.7-1.9l-0.7,1.9L64.5,24.2z M69.2,22.9l-0.9-0.4c0.3-0.8,1-1.1,2-0.9c0.6,0.1,1,0.3,1.3,0.6
	c0.3,0.3,0.4,0.6,0.3,1c0,0.2-0.1,0.4-0.3,0.6c-0.2,0.2-0.4,0.3-0.7,0.4c0.3,0.2,0.5,0.4,0.7,0.6c0.1,0.2,0.2,0.5,0.1,0.8
	c-0.1,0.4-0.3,0.8-0.6,1c-0.4,0.2-0.9,0.3-1.5,0.2c-0.5-0.1-0.9-0.2-1.2-0.4c-0.3-0.2-0.5-0.6-0.5-1.1l1-0.2
	c0.1,0.3,0.1,0.5,0.3,0.6c0.1,0.1,0.3,0.2,0.6,0.2c0.3,0,0.6,0,0.7-0.1c0.2-0.1,0.3-0.3,0.3-0.4c0-0.2,0-0.4-0.2-0.5
	c-0.1-0.1-0.4-0.2-0.7-0.3l-0.2,0l0.1-0.7l0.1,0c0.3,0,0.6,0,0.7-0.1c0.2-0.1,0.3-0.3,0.3-0.5c0-0.2,0-0.3-0.1-0.5
	c-0.1-0.1-0.3-0.2-0.5-0.3C69.7,22.3,69.4,22.5,69.2,22.9L69.2,22.9z M73.4,27.3l1.4-4.8l3.6,1.1l-0.2,0.8l-2.6-0.8l-0.3,1.1
	l2.4,0.7l-0.2,0.8L75,25.5l-0.4,1.3l2.7,0.8L77,28.4L73.4,27.3z M81.2,24.7l0.9,0.5l-2,3.7l1.7,0.9l2-3.7l0.9,0.5l-2,3.7l0.4,0.2
	l-0.9,1.7l-0.7-0.4l0.5-1l-3.1-1.7L81.2,24.7z M85.3,32.4l1.6-0.8l0.1-1.8l0.6,0.4l0.1,1.9L86,32.8L85.3,32.4z M84.2,31.7l1.6-0.8
	l0.1-1.8l0.6,0.4l0.1,1.9l-1.7,0.7L84.2,31.7z"/>
<path id="path14" class="st2" d="M34.7,93.4c0.5-0.5,1-0.8,1.6-0.8c0.6,0,1.1,0.2,1.5,0.6c0.3,0.3,0.5,0.6,0.6,0.9
	c0.1,0.4,0.1,0.7,0,1.1c-0.1,0.4-0.3,0.7-0.6,1c-0.3,0.3-0.6,0.5-1,0.7C36.3,97,36,97,35.6,96.9c-0.4-0.1-0.7-0.3-0.9-0.5
	c-0.3-0.3-0.5-0.6-0.6-1c-0.1-0.4-0.1-0.7,0-1.1C34.2,94,34.4,93.7,34.7,93.4z M35.1,93.8c-0.4,0.4-0.5,0.8-0.5,1.2
	c0,0.4,0.2,0.8,0.5,1c0.3,0.3,0.7,0.4,1.1,0.4c0.4,0,0.8-0.2,1.2-0.6c0.2-0.3,0.4-0.5,0.5-0.8c0.1-0.3,0.1-0.5,0-0.8
	c-0.1-0.3-0.2-0.5-0.4-0.7c-0.3-0.3-0.6-0.4-1-0.4C36,93.1,35.5,93.3,35.1,93.8z M39.8,95.2l2.3,1.6l-0.3,0.4L40,95.9L37.8,99
	l-0.5-0.3L39.8,95.2z M40.6,101l2.1-3.7l1.4,0.8c0.2,0.1,0.4,0.3,0.5,0.4c0.2,0.1,0.3,0.3,0.4,0.4c0.1,0.2,0.1,0.3,0.1,0.5
	c0,0.2-0.1,0.4-0.2,0.6c-0.2,0.3-0.4,0.5-0.8,0.6c-0.3,0.1-0.8,0-1.3-0.3l-1-0.5l-0.9,1.5L40.6,101z M42.2,99.3l1,0.5
	c0.3,0.2,0.6,0.3,0.8,0.2c0.2,0,0.4-0.2,0.5-0.4c0.1-0.2,0.1-0.3,0.1-0.5c0-0.2-0.1-0.3-0.2-0.4c-0.1-0.1-0.2-0.2-0.4-0.3l-1-0.5
	L42.2,99.3z M44.7,103.3l1.8-3.9l0.5,0.2l-0.7,1.6l2,0.9l0.7-1.6l0.5,0.2l-1.8,3.9l-0.5-0.2l0.9-1.8l-2-0.9l-0.9,1.8L44.7,103.3z
	 M51.2,103.7c0.1-0.5,0.3-0.9,0.5-1.1c0.2-0.3,0.4-0.5,0.6-0.6c0.2-0.1,0.5-0.1,0.8,0c0.2,0.1,0.4,0.2,0.5,0.3
	c0.1,0.1,0.2,0.3,0.3,0.5c0.1,0.2,0.1,0.4,0.1,0.7c0,0.3-0.1,0.6-0.2,1c-0.1,0.5-0.3,0.9-0.5,1.1c-0.2,0.3-0.4,0.5-0.6,0.6
	c-0.2,0.1-0.5,0.1-0.8,0c-0.4-0.1-0.7-0.3-0.8-0.7C51,105.1,51,104.5,51.2,103.7z M51.7,103.8c-0.2,0.7-0.3,1.2-0.2,1.4
	c0.1,0.3,0.3,0.4,0.5,0.5c0.2,0.1,0.5,0,0.7-0.2c0.2-0.2,0.4-0.6,0.6-1.3c0.2-0.7,0.3-1.2,0.2-1.4c-0.1-0.3-0.3-0.4-0.5-0.5
	c-0.2-0.1-0.4,0-0.6,0.1C52.2,102.7,51.9,103.2,51.7,103.8z M54.7,104.7c0.1-0.5,0.2-0.9,0.3-1.2c0.2-0.3,0.3-0.5,0.6-0.6
	c0.2-0.1,0.5-0.2,0.8-0.1c0.2,0,0.4,0.1,0.6,0.2c0.2,0.1,0.3,0.3,0.4,0.5c0.1,0.2,0.1,0.4,0.2,0.7c0,0.3,0,0.6-0.1,1
	c-0.1,0.5-0.2,0.9-0.3,1.2c-0.2,0.3-0.3,0.5-0.6,0.6c-0.2,0.1-0.5,0.2-0.8,0.1c-0.4-0.1-0.7-0.3-0.9-0.6
	C54.6,106.1,54.5,105.5,54.7,104.7L54.7,104.7z M55.2,104.8c-0.1,0.7-0.1,1.2,0,1.4c0.1,0.3,0.3,0.4,0.5,0.4c0.2,0,0.5,0,0.7-0.2
	c0.2-0.2,0.4-0.7,0.5-1.4c0.1-0.7,0.1-1.2,0-1.4c-0.1-0.3-0.3-0.4-0.6-0.4c-0.2,0-0.4,0-0.6,0.2C55.5,103.6,55.3,104.1,55.2,104.8z
	 M58.3,105.4c0-0.5,0.1-0.9,0.2-1.2c0.1-0.3,0.3-0.5,0.5-0.7c0.2-0.2,0.5-0.2,0.8-0.2c0.2,0,0.4,0.1,0.6,0.2
	c0.2,0.1,0.3,0.3,0.4,0.4c0.1,0.2,0.2,0.4,0.2,0.7c0,0.3,0.1,0.6,0,1c0,0.5-0.1,0.9-0.2,1.2c-0.1,0.3-0.3,0.5-0.5,0.7
	c-0.2,0.2-0.5,0.2-0.8,0.2c-0.4,0-0.7-0.2-0.9-0.5C58.3,106.8,58.2,106.2,58.3,105.4L58.3,105.4z M58.8,105.4
	c-0.1,0.7,0,1.2,0.1,1.4c0.1,0.2,0.3,0.4,0.6,0.4c0.2,0,0.5-0.1,0.6-0.3c0.2-0.2,0.3-0.7,0.4-1.4c0.1-0.7,0-1.2-0.1-1.4
	c-0.1-0.2-0.3-0.4-0.6-0.4c-0.2,0-0.4,0.1-0.6,0.3C59,104.2,58.9,104.7,58.8,105.4z M62,105.6c0-0.5,0.1-0.9,0.2-1.2
	c0.1-0.3,0.3-0.5,0.5-0.7c0.2-0.2,0.5-0.2,0.8-0.2c0.2,0,0.4,0.1,0.6,0.1c0.2,0.1,0.3,0.2,0.4,0.4c0.1,0.2,0.2,0.4,0.3,0.6
	c0.1,0.3,0.1,0.6,0.1,1c0,0.5-0.1,0.9-0.2,1.2c-0.1,0.3-0.3,0.5-0.5,0.7c-0.2,0.2-0.5,0.2-0.8,0.2c-0.4,0-0.7-0.2-1-0.5
	C62.1,107,61.9,106.4,62,105.6z M62.5,105.6c0,0.7,0.1,1.2,0.2,1.4c0.2,0.2,0.4,0.4,0.6,0.4c0.2,0,0.4-0.1,0.6-0.3
	c0.2-0.2,0.3-0.7,0.3-1.4c0-0.7-0.1-1.2-0.2-1.4c-0.2-0.2-0.4-0.4-0.6-0.4c-0.2,0-0.4,0.1-0.6,0.3C62.6,104.4,62.5,104.9,62.5,105.6
	z M65.6,105.6c0-0.5,0-0.9,0.1-1.2c0.1-0.3,0.2-0.6,0.4-0.8c0.2-0.2,0.4-0.3,0.8-0.3c0.2,0,0.4,0,0.6,0.1c0.2,0.1,0.3,0.2,0.5,0.4
	c0.1,0.2,0.2,0.4,0.3,0.6c0.1,0.2,0.1,0.6,0.2,1c0,0.5,0,0.9-0.1,1.2c-0.1,0.3-0.2,0.6-0.4,0.8c-0.2,0.2-0.4,0.3-0.8,0.3
	c-0.4,0-0.7-0.1-1-0.4C65.9,107,65.7,106.4,65.6,105.6z M66.2,105.6c0.1,0.7,0.2,1.2,0.4,1.4c0.2,0.2,0.4,0.3,0.6,0.3
	c0.2,0,0.4-0.2,0.6-0.4c0.1-0.2,0.2-0.7,0.1-1.4c-0.1-0.7-0.2-1.2-0.4-1.4c-0.2-0.2-0.4-0.3-0.6-0.3c-0.2,0-0.4,0.1-0.6,0.4
	C66.2,104.4,66.1,104.9,66.2,105.6z M69.3,105.3c-0.1-0.5-0.1-0.9,0-1.2c0.1-0.3,0.2-0.6,0.3-0.8c0.2-0.2,0.4-0.3,0.7-0.4
	c0.2,0,0.4,0,0.6,0c0.2,0.1,0.4,0.2,0.5,0.3c0.1,0.2,0.3,0.3,0.4,0.6c0.1,0.2,0.2,0.6,0.3,1c0.1,0.5,0.1,0.9,0,1.2
	c-0.1,0.3-0.2,0.6-0.3,0.8c-0.2,0.2-0.4,0.3-0.7,0.4c-0.4,0.1-0.8,0-1-0.3C69.6,106.6,69.4,106.1,69.3,105.3z M69.8,105.2
	c0.1,0.7,0.3,1.1,0.5,1.4c0.2,0.2,0.4,0.3,0.7,0.2c0.2,0,0.4-0.2,0.5-0.4c0.1-0.3,0.1-0.7,0-1.4c-0.1-0.7-0.3-1.1-0.5-1.4
	c-0.2-0.2-0.4-0.3-0.7-0.2c-0.2,0-0.4,0.2-0.5,0.4C69.7,104,69.7,104.5,69.8,105.2z M72.8,104.7c-0.1-0.5-0.2-0.9-0.2-1.2
	c0-0.3,0.1-0.6,0.2-0.8c0.1-0.2,0.4-0.4,0.7-0.5c0.2-0.1,0.4-0.1,0.6,0c0.2,0,0.4,0.1,0.5,0.3c0.2,0.1,0.3,0.3,0.4,0.5
	c0.1,0.2,0.3,0.5,0.4,0.9c0.1,0.5,0.2,0.9,0.2,1.2c0,0.3-0.1,0.6-0.2,0.8c-0.1,0.2-0.4,0.4-0.7,0.5c-0.4,0.1-0.7,0.1-1.1-0.1
	C73.3,106,73,105.5,72.8,104.7L72.8,104.7z M73.3,104.6c0.2,0.7,0.4,1.1,0.6,1.3c0.2,0.2,0.5,0.2,0.7,0.2c0.2-0.1,0.4-0.2,0.5-0.5
	c0.1-0.3,0-0.7-0.2-1.4c-0.2-0.7-0.4-1.1-0.6-1.3c-0.2-0.2-0.5-0.2-0.7-0.2c-0.2,0.1-0.4,0.2-0.5,0.5
	C73.1,103.4,73.1,103.9,73.3,104.6z M76.5,103.6c-0.1-0.5-0.2-0.9-0.2-1.2c0-0.3,0.1-0.6,0.2-0.8c0.1-0.2,0.4-0.4,0.7-0.5
	c0.2-0.1,0.4-0.1,0.6,0c0.2,0,0.4,0.1,0.5,0.3c0.2,0.1,0.3,0.3,0.4,0.5c0.1,0.2,0.3,0.5,0.4,0.9c0.1,0.5,0.2,0.9,0.2,1.2
	c0,0.3-0.1,0.6-0.2,0.8c-0.1,0.2-0.4,0.4-0.7,0.5c-0.4,0.1-0.7,0.1-1.1-0.1C77,104.9,76.7,104.4,76.5,103.6L76.5,103.6z M77,103.5
	c0.2,0.7,0.4,1.1,0.6,1.3c0.2,0.2,0.5,0.2,0.7,0.2c0.2-0.1,0.4-0.2,0.5-0.5c0.1-0.3,0-0.7-0.2-1.4c-0.2-0.7-0.4-1.1-0.6-1.3
	c-0.2-0.2-0.5-0.2-0.7-0.2c-0.2,0.1-0.4,0.2-0.5,0.5C76.7,102.3,76.8,102.8,77,103.5z M79.8,102.4c-0.2-0.5-0.3-0.9-0.4-1.2
	c0-0.3,0-0.6,0.1-0.8c0.1-0.2,0.3-0.4,0.6-0.5c0.2-0.1,0.4-0.1,0.6-0.1c0.2,0,0.4,0.1,0.6,0.2c0.2,0.1,0.3,0.3,0.5,0.5
	c0.2,0.2,0.3,0.5,0.5,0.9c0.2,0.5,0.3,0.9,0.4,1.2c0,0.3,0,0.6-0.1,0.8c-0.1,0.2-0.3,0.4-0.6,0.5c-0.4,0.2-0.7,0.2-1.1,0
	C80.5,103.6,80.1,103.1,79.8,102.4L79.8,102.4z M80.3,102.1c0.3,0.6,0.6,1,0.8,1.2c0.2,0.1,0.5,0.2,0.7,0.1c0.2-0.1,0.4-0.3,0.4-0.6
	c0.1-0.3-0.1-0.7-0.4-1.4c-0.3-0.6-0.6-1-0.8-1.2c-0.2-0.1-0.5-0.2-0.7-0.1c-0.2,0.1-0.4,0.3-0.4,0.5C79.9,101,80,101.5,80.3,102.1z
	 M83.1,100.7c-0.2-0.4-0.4-0.8-0.5-1.1c-0.1-0.3,0-0.6,0.1-0.9c0.1-0.2,0.3-0.4,0.6-0.6c0.2-0.1,0.4-0.2,0.6-0.2
	c0.2,0,0.4,0,0.6,0.1c0.2,0.1,0.4,0.2,0.5,0.4c0.2,0.2,0.4,0.5,0.6,0.8c0.2,0.4,0.4,0.8,0.5,1.1c0.1,0.3,0,0.6-0.1,0.9
	c-0.1,0.2-0.3,0.4-0.6,0.6c-0.4,0.2-0.7,0.2-1.1,0.1C83.9,101.9,83.5,101.4,83.1,100.7z M83.6,100.5c0.3,0.6,0.6,1,0.9,1.1
	c0.3,0.1,0.5,0.1,0.7,0c0.2-0.1,0.3-0.3,0.4-0.6c0-0.3-0.1-0.7-0.5-1.4c-0.3-0.6-0.6-1-0.9-1.1c-0.3-0.1-0.5-0.1-0.7,0
	c-0.2,0.1-0.3,0.3-0.4,0.6C83.1,99.4,83.2,99.8,83.6,100.5L83.6,100.5z M86.2,98.9c-0.3-0.4-0.5-0.8-0.6-1.1c-0.1-0.3-0.1-0.6,0-0.9
	c0.1-0.3,0.2-0.5,0.5-0.6c0.2-0.1,0.4-0.2,0.6-0.2c0.2,0,0.4,0,0.6,0.1c0.2,0.1,0.4,0.2,0.6,0.4c0.2,0.2,0.4,0.4,0.7,0.8
	c0.3,0.4,0.5,0.8,0.6,1.1c0.1,0.3,0.1,0.6,0,0.9c-0.1,0.3-0.2,0.5-0.5,0.7c-0.3,0.2-0.7,0.3-1.1,0.2C87.1,99.9,86.7,99.5,86.2,98.9z
	 M86.6,98.6c0.4,0.6,0.7,0.9,1,1c0.3,0.1,0.5,0.1,0.7-0.1c0.2-0.1,0.3-0.3,0.3-0.6c0-0.3-0.2-0.7-0.6-1.3c-0.4-0.6-0.7-0.9-1-1
	c-0.3-0.1-0.5-0.1-0.7,0.1C86.1,96.8,86,97,86,97.2C86,97.5,86.2,98,86.6,98.6z M89.1,96.8c-0.3-0.4-0.6-0.7-0.7-1
	c-0.1-0.3-0.2-0.6-0.1-0.8c0-0.3,0.2-0.5,0.4-0.7c0.2-0.2,0.4-0.3,0.5-0.3c0.2,0,0.4,0,0.6,0c0.2,0.1,0.4,0.2,0.6,0.3
	c0.2,0.1,0.5,0.4,0.7,0.7c0.3,0.4,0.6,0.7,0.7,1c0.1,0.3,0.2,0.6,0.1,0.8c0,0.3-0.2,0.5-0.4,0.7c-0.3,0.3-0.6,0.4-1,0.3
	C90.2,97.7,89.7,97.4,89.1,96.8z M89.5,96.4c0.5,0.5,0.8,0.8,1.1,0.9c0.3,0.1,0.5,0,0.7-0.1c0.2-0.2,0.3-0.4,0.2-0.7
	c0-0.3-0.3-0.7-0.8-1.2c-0.5-0.5-0.8-0.8-1.1-0.9c-0.3-0.1-0.5,0-0.7,0.1c-0.2,0.2-0.3,0.4-0.2,0.6C88.8,95.5,89.1,95.9,89.5,96.4z
	 M91.9,94.4c-0.4-0.3-0.6-0.7-0.8-1c-0.2-0.3-0.2-0.6-0.2-0.8c0-0.3,0.1-0.5,0.3-0.7c0.2-0.2,0.3-0.3,0.5-0.3c0.2-0.1,0.4-0.1,0.6,0
	c0.2,0,0.4,0.1,0.6,0.2c0.2,0.1,0.5,0.3,0.8,0.6c0.4,0.3,0.6,0.7,0.8,1c0.2,0.3,0.2,0.6,0.2,0.8c0,0.3-0.1,0.5-0.4,0.7
	c-0.3,0.3-0.6,0.4-1,0.4C93,95.2,92.5,94.9,91.9,94.4z M92.2,94c0.5,0.5,0.9,0.7,1.2,0.8c0.3,0,0.5,0,0.7-0.2
	c0.2-0.2,0.2-0.4,0.2-0.7c-0.1-0.3-0.3-0.7-0.9-1.1c-0.5-0.5-0.9-0.7-1.2-0.8c-0.3,0-0.5,0-0.7,0.2c-0.2,0.2-0.2,0.4-0.2,0.6
	C91.4,93.1,91.7,93.5,92.2,94z"/>
<path id="path16" class="st3" d="M90.8,34.1c8.6,7.5,14,18.4,14.1,30.7c0.1,10-3.4,19.1-9.2,26.3 M32.4,91.6
	c-6-7.1-9.6-16.2-9.7-26.1c-0.1-12.3,5.2-23.3,13.6-30.9"/>
<g>
	<path class="st4" d="M33.3,19.4c0.1,0.1,0.2,0.1,0.3,0c0.1,0,0.1-0.1,0.1-0.3c0-0.1-0.1-0.4-0.4-0.7c-0.2-0.4-0.4-0.6-0.5-0.7
		c-0.1-0.1-0.2-0.1-0.3,0c-0.1,0-0.1,0.1-0.1,0.3c0,0.1,0.1,0.4,0.4,0.7C33,19.2,33.2,19.4,33.3,19.4z"/>
	<path class="st4" d="M29.8,21.9c0.1,0.1,0.2,0.1,0.3,0c0.1-0.1,0.1-0.1,0.1-0.3c0-0.1-0.2-0.4-0.5-0.7c-0.3-0.3-0.5-0.5-0.6-0.6
		c-0.1-0.1-0.2-0.1-0.3,0c-0.1,0.1-0.1,0.1-0.1,0.3c0,0.1,0.2,0.4,0.5,0.7C29.5,21.7,29.7,21.9,29.8,21.9z"/>
	<path class="st4" d="M35,18.3c0.1,0.1,0.2,0.1,0.3,0c0.1,0,0.1-0.1,0.1-0.3c0-0.1-0.1-0.4-0.4-0.7c-0.2-0.4-0.4-0.6-0.5-0.7
		c-0.1-0.1-0.2-0.1-0.3,0c-0.1,0-0.1,0.1-0.1,0.3c0,0.1,0.1,0.4,0.4,0.7C34.7,18,34.9,18.2,35,18.3z"/>
	<path class="st4" d="M31.5,20.7c0.1,0.1,0.2,0.1,0.3,0c0.1-0.1,0.1-0.1,0.1-0.3c0-0.1-0.2-0.4-0.4-0.7c-0.3-0.4-0.4-0.6-0.5-0.6
		c-0.1-0.1-0.2-0.1-0.3,0c-0.1,0.1-0.1,0.1-0.1,0.3c0,0.1,0.2,0.4,0.4,0.7C31.2,20.4,31.4,20.6,31.5,20.7z"/>
	<path class="st4" d="M55.7,10.8c0.1,0.1,0.1,0.2,0.2,0.1c0.1,0,0.2-0.1,0.2-0.2c0-0.1,0-0.4,0-0.8c-0.1-0.4-0.1-0.7-0.2-0.8
		c-0.1-0.1-0.1-0.2-0.2-0.1c-0.1,0-0.1,0.1-0.2,0.2c0,0.1,0,0.4,0,0.8C55.6,10.4,55.7,10.7,55.7,10.8z"/>
	<path class="st4" d="M62,10.2c0.1,0.1,0.1,0.2,0.2,0.2c0.1,0,0.2-0.1,0.2-0.2c0-0.1,0.1-0.4,0.1-0.8c0-0.4,0-0.7-0.1-0.8
		c-0.1-0.1-0.1-0.2-0.2-0.2c-0.1,0-0.2,0.1-0.2,0.2c0,0.1-0.1,0.4-0.1,0.8C61.9,9.8,62,10.1,62,10.2z"/>
	<path class="st4" d="M51.6,11.6c0.1,0.1,0.2,0.1,0.2,0.1c0.1,0,0.1-0.1,0.2-0.2c0-0.1,0-0.4-0.1-0.8c-0.1-0.4-0.2-0.7-0.3-0.8
		c-0.1-0.1-0.2-0.1-0.2-0.1c-0.1,0-0.1,0.1-0.2,0.2c0,0.1,0,0.4,0.1,0.8C51.4,11.2,51.5,11.5,51.6,11.6z"/>
	<path class="st4" d="M57.8,10.5c0.1,0.1,0.1,0.2,0.2,0.1c0.1,0,0.2-0.1,0.2-0.2c0-0.1,0-0.4,0-0.8c-0.1-0.4-0.1-0.7-0.2-0.8
		c-0.1-0.1-0.1-0.2-0.2-0.1c-0.1,0-0.2,0.1-0.2,0.2c0,0.1,0,0.4,0,0.8C57.7,10.1,57.7,10.4,57.8,10.5z"/>
	<path class="st4" d="M53.6,11.1c0.1,0.1,0.2,0.1,0.2,0.1c0.1,0,0.1-0.1,0.2-0.2c0-0.1,0-0.4-0.1-0.8c-0.1-0.4-0.1-0.7-0.2-0.8
		c-0.1-0.1-0.2-0.2-0.2-0.1c-0.1,0-0.1,0.1-0.2,0.2c0,0.1,0,0.4,0.1,0.8C53.5,10.8,53.6,11,53.6,11.1z"/>
	<path class="st4" d="M28.2,23.3c0.1,0.1,0.2,0.1,0.3,0c0.1-0.1,0.1-0.1,0-0.3c0-0.1-0.2-0.3-0.5-0.7c-0.3-0.3-0.5-0.5-0.6-0.6
		c-0.1-0.1-0.2-0.1-0.3,0c-0.1,0.1-0.1,0.1,0,0.3c0,0.1,0.2,0.3,0.5,0.7C27.9,23,28.1,23.2,28.2,23.3z"/>
	<path class="st4" d="M59.9,10.3c0.1,0.1,0.1,0.2,0.2,0.2c0.1,0,0.2-0.1,0.2-0.2c0-0.1,0-0.4,0-0.8c0-0.4-0.1-0.7-0.1-0.8
		c-0.1-0.1-0.1-0.2-0.2-0.2c-0.1,0-0.2,0.1-0.2,0.2c0,0.1,0,0.4,0,0.8C59.8,10,59.9,10.2,59.9,10.3z"/>
	<path class="st4" d="M10,50.3c0.4,0.1,0.7,0.2,0.8,0.2c0.1,0,0.2-0.1,0.2-0.2c0-0.1,0-0.2-0.1-0.3c-0.1-0.1-0.4-0.2-0.8-0.3
		c-0.4-0.1-0.7-0.2-0.8-0.2c-0.1,0-0.2,0.1-0.2,0.2c0,0.1,0,0.2,0.1,0.3C9.3,50,9.6,50.1,10,50.3z"/>
	<path class="st4" d="M8.7,56.5c0.4,0.1,0.7,0.1,0.8,0.1c0.1,0,0.2-0.1,0.2-0.2c0-0.1,0-0.2-0.1-0.2c-0.1-0.1-0.4-0.1-0.8-0.2
		c-0.4-0.1-0.7-0.1-0.8-0.1c-0.1,0-0.2,0.1-0.2,0.2c0,0.1,0,0.2,0.1,0.2C8,56.4,8.2,56.4,8.7,56.5z"/>
	<path class="st4" d="M26.6,24.7c0.1,0,0.2,0,0.3,0c0.1-0.1,0.1-0.2,0-0.3c0-0.1-0.2-0.3-0.5-0.7c-0.3-0.3-0.5-0.5-0.6-0.5
		c-0.1,0-0.2,0-0.3,0c-0.1,0.1-0.1,0.2,0,0.3c0,0.1,0.2,0.3,0.5,0.7C26.3,24.4,26.5,24.6,26.6,24.7z"/>
	<path class="st4" d="M11.3,46.1c0.4,0.2,0.7,0.2,0.8,0.2c0.1,0,0.2-0.1,0.2-0.1c0-0.1,0-0.2-0.1-0.3c-0.1-0.1-0.3-0.2-0.7-0.4
		c-0.4-0.2-0.7-0.2-0.8-0.2c-0.1,0-0.2,0.1-0.2,0.1c0,0.1,0,0.2,0.1,0.3C10.7,45.9,10.9,46,11.3,46.1z"/>
	<path class="st4" d="M9,54.5c0.4,0.1,0.7,0.1,0.8,0.1c0.1,0,0.2-0.1,0.2-0.2c0-0.1,0-0.2-0.1-0.2C9.8,54,9.6,54,9.1,53.9
		c-0.4-0.1-0.7-0.1-0.8-0.1c-0.1,0-0.2,0.1-0.2,0.2c0,0.1,0,0.2,0.1,0.2C8.3,54.3,8.6,54.4,9,54.5z"/>
	<path class="st4" d="M9.5,52.3c0.4,0.1,0.7,0.1,0.8,0.1c0.1,0,0.2-0.1,0.2-0.2c0-0.1,0-0.2-0.1-0.2c-0.1-0.1-0.4-0.2-0.8-0.3
		c-0.4-0.1-0.7-0.1-0.8-0.1c-0.1,0-0.2,0.1-0.2,0.2c0,0.1,0,0.2,0.1,0.2C8.8,52.2,9.1,52.2,9.5,52.3z"/>
	<path class="st4" d="M25.1,26.1c0.1,0,0.2,0,0.3,0c0.1-0.1,0.1-0.2,0-0.3c0-0.1-0.2-0.3-0.5-0.7c-0.3-0.3-0.5-0.5-0.6-0.5
		c-0.1,0-0.2,0-0.3,0c-0.1,0.1-0.1,0.2,0,0.3c0,0.1,0.2,0.3,0.5,0.7C24.8,25.9,25,26.1,25.1,26.1z"/>
	<path class="st4" d="M23,27.1c0.3,0.3,0.5,0.5,0.7,0.5c0.1,0,0.2,0,0.3,0c0.1-0.1,0.1-0.2,0-0.3c0-0.1-0.2-0.3-0.5-0.6
		c-0.3-0.3-0.5-0.5-0.7-0.5c-0.1,0-0.2,0-0.3,0c-0.1,0.1-0.1,0.2,0,0.3C22.5,26.6,22.7,26.8,23,27.1z"/>
	<path class="st4" d="M21.6,28.7c0.3,0.3,0.6,0.4,0.7,0.5c0.1,0,0.2,0,0.3,0c0.1-0.1,0.1-0.2,0-0.3c-0.1-0.1-0.2-0.3-0.6-0.6
		c-0.3-0.3-0.6-0.4-0.7-0.5c-0.1,0-0.2,0-0.3,0c-0.1,0.1-0.1,0.2,0,0.3C21,28.2,21.2,28.4,21.6,28.7z"/>
	<path class="st4" d="M20.2,30.4c0.3,0.3,0.6,0.4,0.7,0.5c0.1,0,0.2,0,0.3-0.1c0.1-0.1,0.1-0.2,0-0.3c-0.1-0.1-0.3-0.3-0.6-0.6
		c-0.3-0.3-0.6-0.4-0.7-0.5c-0.1,0-0.2,0-0.3,0.1c-0.1,0.1-0.1,0.2,0,0.3C19.6,29.9,19.8,30.1,20.2,30.4z"/>
	<path class="st4" d="M10.6,48.2c0.4,0.1,0.7,0.2,0.8,0.2c0.1,0,0.2-0.1,0.2-0.1c0-0.1,0-0.2-0.1-0.3c-0.1-0.1-0.3-0.2-0.8-0.3
		c-0.4-0.1-0.7-0.2-0.8-0.2c-0.1,0-0.2,0.1-0.2,0.1c0,0.1,0,0.2,0.1,0.3C10,47.9,10.2,48,10.6,48.2z"/>
	<path class="st4" d="M114.1,43.4c0,0.1,0.1,0.1,0.2,0.1c0.1,0,0.4-0.1,0.8-0.3c0.4-0.2,0.6-0.3,0.7-0.4c0.1-0.1,0.1-0.2,0.1-0.3
		c0-0.1-0.1-0.1-0.2-0.1c-0.1,0-0.4,0.1-0.8,0.3c-0.4,0.2-0.6,0.3-0.7,0.4C114,43.2,114,43.3,114.1,43.4z"/>
	<path class="st4" d="M103,26.9c0.1,0.1,0.2,0.1,0.3,0c0.1,0,0.3-0.2,0.7-0.5c0.3-0.3,0.5-0.5,0.5-0.6c0-0.1,0-0.2,0-0.3
		c-0.1-0.1-0.2-0.1-0.3,0c-0.1,0-0.3,0.2-0.7,0.5c-0.3,0.3-0.5,0.5-0.5,0.6C102.9,26.7,102.9,26.8,103,26.9z"/>
	<path class="st4" d="M101.5,25.4c0.1,0.1,0.2,0.1,0.3,0c0.1,0,0.3-0.2,0.6-0.5c0.3-0.3,0.5-0.5,0.5-0.7c0-0.1,0-0.2,0-0.3
		c-0.1-0.1-0.2-0.1-0.3,0c-0.1,0-0.3,0.2-0.6,0.5c-0.3,0.3-0.5,0.5-0.5,0.7C101.4,25.3,101.4,25.4,101.5,25.4z"/>
	<path class="st4" d="M99.9,24c0.1,0.1,0.2,0.1,0.3,0c0.1-0.1,0.3-0.2,0.6-0.6c0.3-0.3,0.4-0.6,0.5-0.7c0-0.1,0-0.2,0-0.3
		c-0.1-0.1-0.2-0.1-0.3,0c-0.1,0.1-0.3,0.2-0.6,0.6c-0.3,0.3-0.4,0.6-0.5,0.7C99.8,23.9,99.8,23.9,99.9,24z"/>
	<path class="st4" d="M114.9,45.3c0,0.1,0.1,0.1,0.2,0.1c0.1,0,0.4-0.1,0.8-0.2c0.4-0.2,0.7-0.3,0.7-0.4c0.1-0.1,0.1-0.2,0.1-0.3
		c0-0.1-0.1-0.1-0.2-0.1c-0.1,0-0.4,0.1-0.8,0.2c-0.4,0.2-0.7,0.3-0.7,0.4C114.8,45.2,114.8,45.3,114.9,45.3z"/>
	<path class="st4" d="M98.3,22.6c0.1,0.1,0.2,0.1,0.3,0c0.1-0.1,0.3-0.3,0.6-0.6c0.3-0.3,0.4-0.6,0.5-0.7c0-0.1,0-0.2-0.1-0.3
		c-0.1-0.1-0.2-0.1-0.3,0c-0.1,0.1-0.3,0.3-0.6,0.6c-0.3,0.3-0.4,0.6-0.5,0.7C98.2,22.5,98.2,22.6,98.3,22.6z"/>
	<path class="st4" d="M115.7,47.1c-0.1,0.1-0.1,0.2-0.1,0.3c0,0.1,0.1,0.1,0.2,0.1c0.1,0,0.4-0.1,0.8-0.2c0.4-0.1,0.7-0.3,0.8-0.3
		c0.1-0.1,0.1-0.2,0.1-0.3c0-0.1-0.1-0.1-0.2-0.1c-0.1,0-0.4,0.1-0.8,0.2C116,46.9,115.8,47,115.7,47.1z"/>
	<path class="st4" d="M117.4,53.1c-0.1,0.1-0.1,0.2-0.1,0.2c0,0.1,0.1,0.1,0.2,0.2c0.1,0,0.4,0,0.8-0.1c0.4-0.1,0.7-0.2,0.8-0.3
		c0.1-0.1,0.1-0.2,0.1-0.2c0-0.1-0.1-0.1-0.2-0.2c-0.1,0-0.4,0-0.8,0.1C117.8,53,117.5,53.1,117.4,53.1z"/>
	<path class="st4" d="M116.9,51.1c-0.1,0.1-0.1,0.2-0.1,0.3c0,0.1,0.1,0.1,0.2,0.2c0.1,0,0.4,0,0.8-0.2c0.4-0.1,0.7-0.2,0.8-0.3
		c0.1-0.1,0.1-0.2,0.1-0.3c0-0.1-0.1-0.1-0.2-0.2c-0.1,0-0.4,0-0.8,0.2C117.3,50.9,117,51,116.9,51.1z"/>
	<path class="st4" d="M64.3,10.4c0.1,0,0.2-0.1,0.2-0.2c0.1-0.1,0.1-0.4,0.1-0.8c0-0.4,0-0.7-0.1-0.8c0-0.1-0.1-0.2-0.2-0.2
		c-0.1,0-0.2,0.1-0.2,0.2c-0.1,0.1-0.1,0.4-0.1,0.8c0,0.4,0,0.7,0.1,0.8C64.2,10.3,64.3,10.4,64.3,10.4z"/>
	<path class="st4" d="M116.3,49.1c-0.1,0.1-0.1,0.2-0.1,0.3c0,0.1,0.1,0.1,0.2,0.2c0.1,0,0.4,0,0.8-0.2c0.4-0.1,0.7-0.2,0.8-0.3
		c0.1-0.1,0.1-0.2,0.1-0.3c0-0.1-0.1-0.1-0.2-0.2c-0.1,0-0.4,0-0.8,0.2C116.7,48.9,116.4,49,116.3,49.1z"/>
	<path class="st4" d="M68.5,10.6c0.1,0,0.2,0,0.2-0.2c0.1-0.1,0.1-0.4,0.1-0.8c0-0.4,0-0.7,0-0.8c0-0.1-0.1-0.2-0.2-0.2
		c-0.1,0-0.2,0-0.2,0.2c-0.1,0.1-0.1,0.4-0.1,0.8c0,0.4,0,0.7,0,0.8C68.4,10.5,68.4,10.6,68.5,10.6z"/>
	<path class="st4" d="M70.6,10.8c0.1,0,0.2,0,0.2-0.1c0.1-0.1,0.1-0.4,0.2-0.8c0.1-0.4,0.1-0.7,0-0.8c0-0.1-0.1-0.2-0.2-0.2
		c-0.1,0-0.2,0-0.2,0.1c-0.1,0.1-0.1,0.4-0.2,0.8c-0.1,0.4-0.1,0.7,0,0.8C70.5,10.7,70.5,10.8,70.6,10.8z"/>
	<path class="st4" d="M66.4,10.4c0.1,0,0.2-0.1,0.2-0.2c0.1-0.1,0.1-0.4,0.1-0.8c0-0.4,0-0.7-0.1-0.8c0-0.1-0.1-0.2-0.2-0.2
		c-0.1,0-0.2,0.1-0.2,0.2c-0.1,0.1-0.1,0.4-0.1,0.8c0,0.4,0,0.7,0.1,0.8C66.3,10.4,66.3,10.4,66.4,10.4z"/>
	<path class="st4" d="M96.9,21.3c0.1-0.1,0.3-0.3,0.6-0.6c0.3-0.3,0.4-0.6,0.5-0.7c0-0.1,0-0.2-0.1-0.3c-0.1-0.1-0.2-0.1-0.3,0
		c-0.1,0.1-0.3,0.3-0.6,0.6c-0.3,0.3-0.4,0.6-0.5,0.7c0,0.1,0,0.2,0.1,0.3C96.7,21.4,96.8,21.4,96.9,21.3z"/>
	<path class="st4" d="M88,15.8c0.1-0.1,0.2-0.3,0.4-0.7c0.2-0.4,0.3-0.6,0.3-0.8c0-0.1,0-0.2-0.1-0.3c-0.1,0-0.2,0-0.3,0.1
		c-0.1,0.1-0.2,0.3-0.4,0.7c-0.2,0.4-0.3,0.6-0.3,0.8c0,0.1,0,0.2,0.1,0.3C87.8,15.9,87.9,15.9,88,15.8z"/>
	<path class="st4" d="M95.2,20.1c0.1-0.1,0.3-0.3,0.5-0.6c0.3-0.4,0.4-0.6,0.4-0.7c0-0.1,0-0.2-0.1-0.3c-0.1-0.1-0.2,0-0.3,0
		c-0.1,0.1-0.3,0.3-0.5,0.6c-0.3,0.4-0.4,0.6-0.4,0.7c0,0.1,0,0.2,0.1,0.3C95,20.2,95.1,20.2,95.2,20.1z"/>
	<path class="st4" d="M93.5,18.9c0.1-0.1,0.3-0.3,0.5-0.7c0.2-0.4,0.4-0.6,0.4-0.7c0-0.1,0-0.2-0.1-0.3c-0.1,0-0.2,0-0.3,0
		c-0.1,0.1-0.3,0.3-0.5,0.7c-0.2,0.4-0.4,0.6-0.4,0.7c0,0.1,0,0.2,0.1,0.3C93.3,19,93.4,19,93.5,18.9z"/>
	<path class="st4" d="M91.7,17.8c0.1-0.1,0.3-0.3,0.5-0.7c0.2-0.4,0.3-0.6,0.3-0.8c0-0.1,0-0.2-0.1-0.3c-0.1,0-0.2,0-0.3,0
		c-0.1,0.1-0.3,0.3-0.5,0.7c-0.2,0.4-0.3,0.6-0.3,0.8c0,0.1,0,0.2,0.1,0.3C91.5,17.9,91.6,17.9,91.7,17.8z"/>
	<path class="st4" d="M89.8,16.8c0.1-0.1,0.2-0.3,0.4-0.7c0.2-0.4,0.3-0.6,0.3-0.8c0-0.1,0-0.2-0.1-0.3c-0.1,0-0.2,0-0.3,0.1
		c-0.1,0.1-0.2,0.3-0.4,0.7c-0.2,0.4-0.3,0.6-0.3,0.8c0,0.1,0,0.2,0.1,0.3C89.7,16.9,89.7,16.8,89.8,16.8z"/>
	<path class="st4" d="M113.2,41.5c0,0.1,0.1,0.1,0.2,0.1c0.1,0,0.4-0.1,0.8-0.3c0.4-0.2,0.6-0.3,0.7-0.4c0.1-0.1,0.1-0.2,0.1-0.3
		c0-0.1-0.1-0.1-0.2-0.1c-0.1,0-0.4,0.1-0.8,0.3c-0.4,0.2-0.6,0.3-0.7,0.4C113.2,41.3,113.2,41.4,113.2,41.5z"/>
	<path class="st4" d="M13.2,86.3c0-0.1-0.1-0.1-0.2-0.1c-0.1,0-0.4,0.1-0.8,0.2c-0.4,0.2-0.7,0.3-0.7,0.4c-0.1,0.1-0.1,0.2-0.1,0.3
		c0,0.1,0.1,0.1,0.2,0.1c0.1,0,0.4-0.1,0.8-0.2c0.4-0.2,0.7-0.3,0.7-0.4C13.2,86.5,13.3,86.4,13.2,86.3z"/>
	<path class="st4" d="M17.1,93.8c0-0.1-0.1-0.1-0.3-0.1c-0.1,0-0.4,0.1-0.7,0.4c-0.4,0.2-0.6,0.4-0.7,0.5c-0.1,0.1-0.1,0.2,0,0.3
		c0,0.1,0.1,0.1,0.3,0.1c0.1,0,0.4-0.1,0.7-0.4c0.4-0.2,0.6-0.4,0.7-0.5C17.1,94,17.1,93.9,17.1,93.8z"/>
	<path class="st4" d="M117.9,55.6c0.1,0,0.4,0,0.8-0.1c0.4-0.1,0.7-0.1,0.8-0.2c0.1-0.1,0.2-0.2,0.1-0.2c0-0.1-0.1-0.1-0.2-0.2
		c-0.1,0-0.4,0-0.8,0.1c-0.4,0.1-0.7,0.1-0.8,0.2c-0.1,0.1-0.1,0.2-0.1,0.2C117.7,55.5,117.8,55.6,117.9,55.6z"/>
	<path class="st4" d="M7.2,64.9C7.3,65,7.6,65,8,65c0.4,0,0.7,0,0.8-0.1c0.1,0,0.2-0.1,0.2-0.2c0-0.1-0.1-0.2-0.2-0.2
		c-0.1-0.1-0.4-0.1-0.8-0.1c-0.4,0-0.7,0-0.8,0.1c-0.1,0-0.2,0.1-0.2,0.2C7,64.8,7.1,64.9,7.2,64.9z"/>
	<path class="st4" d="M18.2,95.6c0-0.1-0.1-0.1-0.3-0.1c-0.1,0-0.4,0.1-0.7,0.4c-0.4,0.2-0.6,0.4-0.7,0.5c-0.1,0.1-0.1,0.2,0,0.3
		c0,0.1,0.1,0.1,0.3,0.1c0.1,0,0.4-0.1,0.7-0.4c0.4-0.2,0.6-0.4,0.7-0.5C18.3,95.7,18.3,95.6,18.2,95.6z"/>
	<path class="st4" d="M120.1,59.3c-0.1,0-0.4,0-0.8,0c-0.4,0-0.7,0.1-0.8,0.1c-0.1,0.1-0.2,0.1-0.2,0.2c0,0.1,0.1,0.2,0.2,0.2
		c0.1,0,0.4,0,0.8,0c0.4,0,0.7-0.1,0.8-0.1c0.1-0.1,0.2-0.1,0.2-0.2C120.3,59.4,120.2,59.3,120.1,59.3z"/>
	<path class="st4" d="M118.2,57.7c0.1,0,0.4,0,0.8,0c0.4-0.1,0.7-0.1,0.8-0.2c0.1-0.1,0.2-0.1,0.1-0.2c0-0.1-0.1-0.1-0.2-0.2
		c-0.1,0-0.4,0-0.8,0c-0.4,0.1-0.7,0.1-0.8,0.2c-0.1,0.1-0.2,0.1-0.1,0.2C118,57.6,118.1,57.7,118.2,57.7z"/>
	<path class="st4" d="M15,90.1c0-0.1-0.1-0.1-0.3-0.1c-0.1,0-0.4,0.1-0.8,0.3c-0.4,0.2-0.6,0.3-0.7,0.4c-0.1,0.1-0.1,0.2-0.1,0.3
		c0,0.1,0.1,0.1,0.3,0.1c0.1,0,0.4-0.1,0.8-0.3c0.4-0.2,0.6-0.3,0.7-0.4C15,90.3,15.1,90.2,15,90.1z"/>
	<path class="st4" d="M14.1,88.2c0-0.1-0.1-0.1-0.2-0.1c-0.1,0-0.4,0.1-0.8,0.3c-0.4,0.2-0.6,0.3-0.7,0.4c-0.1,0.1-0.1,0.2-0.1,0.3
		c0,0.1,0.1,0.1,0.2,0.1c0.1,0,0.4-0.1,0.8-0.3c0.4-0.2,0.6-0.3,0.7-0.4C14.1,88.4,14.1,88.3,14.1,88.2z"/>
	<path class="st4" d="M16,92.2c0.1-0.1,0.1-0.2,0-0.3c0-0.1-0.1-0.1-0.3-0.1c-0.1,0-0.4,0.1-0.8,0.3c-0.4,0.2-0.6,0.4-0.7,0.5
		c-0.1,0.1-0.1,0.2,0,0.3c0,0.1,0.1,0.1,0.3,0.1c0.1,0,0.4-0.1,0.8-0.3C15.7,92.5,15.9,92.4,16,92.2z"/>
	<path class="st4" d="M19.4,97.6c0.1-0.1,0.1-0.2,0-0.3c-0.1-0.1-0.1-0.1-0.3-0.1c-0.1,0-0.4,0.2-0.7,0.4c-0.4,0.3-0.6,0.4-0.6,0.5
		c-0.1,0.1-0.1,0.2,0,0.3c0.1,0.1,0.1,0.1,0.3,0.1c0.1,0,0.4-0.2,0.7-0.4C19.1,97.8,19.3,97.7,19.4,97.6z"/>
	<path class="st4" d="M20.7,99.2c0.1-0.1,0.1-0.2,0-0.3c-0.1-0.1-0.1-0.1-0.3-0.1c-0.1,0-0.4,0.2-0.7,0.5c-0.3,0.3-0.5,0.5-0.6,0.6
		c-0.1,0.1-0.1,0.2,0,0.3c0.1,0.1,0.1,0.1,0.3,0.1c0.1,0,0.4-0.2,0.7-0.5C20.4,99.5,20.6,99.3,20.7,99.2z"/>
	<path class="st4" d="M12.5,84.4c0-0.1-0.1-0.1-0.2-0.1c-0.1,0-0.4,0.1-0.8,0.2c-0.4,0.2-0.7,0.3-0.7,0.4c-0.1,0.1-0.1,0.2-0.1,0.3
		c0,0.1,0.1,0.1,0.2,0.1c0.1,0,0.4-0.1,0.8-0.2c0.4-0.2,0.7-0.3,0.7-0.4C12.5,84.5,12.5,84.5,12.5,84.4z"/>
	<path class="st4" d="M7.4,60.7c0.1,0.1,0.4,0.1,0.8,0.1c0.4,0,0.7,0,0.8,0c0.1,0,0.2-0.1,0.2-0.2c0-0.1,0-0.2-0.2-0.2
		c-0.1-0.1-0.4-0.1-0.8-0.1c-0.4,0-0.7,0-0.8,0c-0.1,0-0.2,0.1-0.2,0.2C7.2,60.5,7.2,60.6,7.4,60.7z"/>
	<path class="st4" d="M63.8,6.7C31.6,6.7,5.4,32.9,5.4,65.1s26.2,58.4,58.4,58.4s58.4-26.2,58.4-58.4S96,6.7,63.8,6.7z M119.7,52.8
		c0.1,0.2,0,0.4-0.2,0.6c-0.2,0.2-0.5,0.3-1.1,0.5c-0.5,0.1-0.9,0.1-1.2,0c-0.2-0.1-0.4-0.2-0.4-0.5c-0.1-0.2,0-0.4,0.2-0.6
		c0.2-0.2,0.5-0.3,1.1-0.5c0.5-0.1,0.9-0.1,1.1,0C119.5,52.5,119.6,52.6,119.7,52.8z M119.2,50.7c0.1,0.2,0,0.4-0.2,0.6
		c-0.2,0.2-0.5,0.4-1,0.5c-0.5,0.1-0.9,0.2-1.1,0.1c-0.2-0.1-0.4-0.2-0.5-0.4c-0.1-0.2,0-0.4,0.2-0.6c0.2-0.2,0.5-0.4,1-0.5
		c0.5-0.1,0.9-0.2,1.1-0.1C118.9,50.3,119.1,50.4,119.2,50.7z M118.6,48.7c0.1,0.2,0,0.4-0.2,0.6c-0.2,0.2-0.5,0.4-1,0.5
		c-0.5,0.1-0.9,0.2-1.1,0.1c-0.2-0.1-0.4-0.2-0.5-0.4c-0.1-0.2,0-0.4,0.2-0.6c0.2-0.2,0.5-0.4,1-0.5c0.5-0.1,0.9-0.2,1.1-0.1
		C118.4,48.3,118.5,48.4,118.6,48.7z M117.9,46.5c0.1,0.2,0,0.4-0.1,0.6c-0.2,0.2-0.5,0.4-1,0.6c-0.5,0.2-0.9,0.2-1.1,0.2
		c-0.2-0.1-0.4-0.2-0.5-0.4c-0.1-0.2,0-0.4,0.1-0.6c0.2-0.2,0.5-0.4,1-0.6c0.5-0.2,0.9-0.2,1.1-0.2
		C117.7,46.2,117.8,46.3,117.9,46.5z M117.1,44.4c0.1,0.2,0.1,0.4-0.1,0.6c-0.1,0.2-0.5,0.4-1,0.6c-0.5,0.2-0.9,0.3-1.1,0.2
		c-0.3-0.1-0.4-0.2-0.5-0.4c-0.1-0.2-0.1-0.4,0.1-0.6c0.1-0.2,0.5-0.4,1-0.6c0.5-0.2,0.9-0.3,1.1-0.2
		C116.9,44.1,117.1,44.2,117.1,44.4z M116.3,42.4L116.3,42.4c0.1,0.2,0.1,0.4-0.1,0.6c-0.1,0.2-0.5,0.4-0.9,0.7
		c-0.5,0.2-0.9,0.3-1.1,0.3c-0.3,0-0.4-0.2-0.5-0.4c-0.1-0.2-0.1-0.4,0.1-0.6c0.1-0.2,0.5-0.4,1-0.7c0.5-0.2,0.9-0.3,1.1-0.3
		C116,42.1,116.2,42.2,116.3,42.4z M115.4,40.5c0.1,0.2,0.1,0.4-0.1,0.6c-0.1,0.2-0.5,0.4-0.9,0.7c-0.5,0.2-0.9,0.3-1.1,0.3
		c-0.3,0-0.4-0.2-0.5-0.4c-0.1-0.2-0.1-0.4,0.1-0.6c0.1-0.2,0.5-0.4,1-0.7c0.5-0.2,0.9-0.3,1.1-0.3
		C115.2,40.2,115.3,40.3,115.4,40.5z M113.6,36.9l-1,0.6l0.5,0.8l1-0.6l0.2,0.4l-2.5,1.4l-0.2-0.4l1.1-0.6l-0.5-0.8l-1.1,0.6
		l-0.2-0.4l2.5-1.4L113.6,36.9z M112.1,34.6l-0.9,0.6l0.5,0.8l0.9-0.6l0.3,0.4l-2.4,1.5l-0.3-0.4l1.1-0.7l-0.5-0.8l-1.1,0.7
		l-0.3-0.4l2.4-1.5L112.1,34.6z M110.3,31.9l0.3,0.4l-1.6,1.1l2.1-0.3l0.3,0.4l-2.3,1.7l-0.3-0.4l1.5-1.1l-2.1,0.3l-0.3-0.4
		L110.3,31.9z M106.5,29.2c0.1-0.1,0.3-0.2,0.4-0.2c0.1,0,0.3,0,0.3,0.1c0.1,0.1,0.1,0.2,0.1,0.4c0,0.1-0.1,0.3-0.2,0.4
		c-0.1,0.1-0.3,0.2-0.4,0.2c-0.1,0-0.3,0-0.3-0.1c-0.1-0.1-0.1-0.2-0.1-0.4C106.3,29.5,106.3,29.3,106.5,29.2z M104.8,25.2
		c0.2,0.2,0.2,0.4,0.1,0.6c-0.1,0.3-0.3,0.6-0.7,0.9c-0.4,0.4-0.7,0.6-1,0.6c-0.3,0-0.5,0-0.6-0.2c-0.2-0.2-0.2-0.4-0.1-0.6
		c0.1-0.2,0.3-0.6,0.7-0.9c0.4-0.4,0.7-0.6,1-0.6C104.4,25,104.6,25,104.8,25.2z M103.2,23.6c0.2,0.2,0.2,0.4,0.2,0.6
		c0,0.3-0.3,0.6-0.6,1c-0.4,0.4-0.7,0.6-0.9,0.7c-0.3,0.1-0.5,0-0.6-0.1c-0.2-0.2-0.2-0.4-0.2-0.6c0-0.3,0.3-0.6,0.6-1
		c0.4-0.4,0.7-0.6,0.9-0.7C102.8,23.4,103,23.5,103.2,23.6z M100.9,22c0.2-0.1,0.5,0,0.6,0.1c0.2,0.1,0.2,0.4,0.2,0.6
		c0,0.3-0.2,0.6-0.6,1c-0.4,0.4-0.7,0.6-0.9,0.7c-0.2,0.1-0.5,0-0.6-0.1c-0.2-0.1-0.2-0.4-0.2-0.6c0-0.3,0.2-0.6,0.6-1
		C100.4,22.3,100.7,22.1,100.9,22z M99.2,20.6c0.2-0.1,0.5-0.1,0.6,0.1c0.2,0.1,0.3,0.3,0.2,0.6c0,0.3-0.2,0.6-0.5,1
		c-0.3,0.4-0.6,0.7-0.9,0.8c-0.2,0.1-0.5,0.1-0.6-0.1c-0.2-0.1-0.3-0.3-0.2-0.6c0-0.3,0.2-0.6,0.5-1C98.7,21,99,20.7,99.2,20.6z
		 M97.6,19.3c0.2-0.1,0.5-0.1,0.6,0.1c0.2,0.1,0.3,0.3,0.2,0.6c0,0.3-0.2,0.6-0.5,1c-0.3,0.4-0.6,0.7-0.9,0.8
		c-0.2,0.1-0.5,0.1-0.6-0.1c-0.2-0.1-0.3-0.3-0.2-0.6c0-0.3,0.2-0.6,0.5-1C97,19.7,97.3,19.4,97.6,19.3z M95.8,18.1
		c0.2-0.1,0.5-0.1,0.6,0.1c0.2,0.1,0.3,0.3,0.3,0.6c0,0.3-0.2,0.6-0.5,1c-0.3,0.4-0.6,0.7-0.8,0.8c-0.2,0.1-0.5,0.1-0.6-0.1
		c-0.2-0.1-0.3-0.3-0.3-0.6c0-0.3,0.2-0.6,0.5-1.1C95.2,18.4,95.5,18.2,95.8,18.1z M93.9,16.9c0.2-0.1,0.4-0.1,0.6,0
		c0.2,0.1,0.3,0.3,0.3,0.6c0,0.3-0.1,0.6-0.4,1.1c-0.3,0.5-0.6,0.7-0.8,0.8c-0.2,0.1-0.4,0.1-0.6,0c-0.2-0.1-0.3-0.3-0.3-0.6
		c0-0.3,0.1-0.6,0.4-1.1C93.4,17.2,93.7,17,93.9,16.9z M92,15.7c0.2-0.1,0.4-0.1,0.6,0c0.2,0.1,0.3,0.3,0.3,0.6
		c0,0.3-0.1,0.6-0.4,1.1c-0.3,0.5-0.5,0.8-0.7,0.9c-0.2,0.1-0.4,0.1-0.6,0c-0.2-0.1-0.3-0.3-0.3-0.6c0-0.3,0.1-0.6,0.4-1.1
		C91.5,16.1,91.8,15.8,92,15.7z M90.1,14.7c0.2-0.1,0.4-0.1,0.6,0c0.2,0.1,0.3,0.3,0.3,0.5c0,0.3-0.1,0.6-0.3,1.1
		c-0.2,0.5-0.5,0.8-0.7,0.9c-0.2,0.1-0.4,0.1-0.6,0c-0.2-0.1-0.3-0.3-0.3-0.5c0-0.3,0.1-0.6,0.3-1.1C89.6,15.1,89.8,14.8,90.1,14.7z
		 M87.5,14.6c0.2-0.5,0.5-0.8,0.7-0.9c0.2-0.1,0.4-0.1,0.6,0c0.2,0.1,0.3,0.3,0.3,0.5c0,0.3-0.1,0.6-0.3,1.1
		c-0.2,0.5-0.5,0.8-0.7,0.9c-0.2,0.1-0.4,0.1-0.6,0c-0.2-0.1-0.3-0.3-0.3-0.5C87.1,15.5,87.3,15.1,87.5,14.6z M85.2,12.1l-0.4,1
		l0.9,0.3l0.4-1l0.4,0.2l-1,2.7L85,15.1l0.5-1.2l-0.9-0.3l-0.5,1.2l-0.4-0.2l1-2.7L85.2,12.1z M82.6,11.1l-0.4,1.1l0.9,0.3l0.4-1.1
		l0.4,0.2L83,14.3l-0.4-0.2l0.4-1.2l-0.9-0.3l-0.4,1.2l-0.4-0.2l0.9-2.7L82.6,11.1z M79.5,10.1l0.4,0.1l-0.5,1.8l1.4-1.6l0.5,0.1
		l-0.8,2.8l-0.4-0.1l0.5-1.8L79.2,13l-0.5-0.1L79.5,10.1z M74.9,10.5c0-0.2,0.1-0.3,0.2-0.4c0.1-0.1,0.2-0.1,0.4-0.1
		c0.1,0,0.2,0.1,0.3,0.2c0.1,0.1,0.1,0.3,0,0.4c0,0.2-0.1,0.3-0.2,0.4c-0.1,0.1-0.2,0.1-0.4,0.1c-0.1,0-0.2-0.1-0.3-0.2
		S74.8,10.6,74.9,10.5z M70,9.7c0.1-0.5,0.2-0.9,0.4-1.1c0.2-0.2,0.4-0.3,0.6-0.3c0.2,0,0.4,0.2,0.5,0.4c0.1,0.2,0.1,0.6,0.1,1.2
		c-0.1,0.5-0.2,0.9-0.4,1.1c-0.2,0.2-0.4,0.3-0.6,0.3c-0.2,0-0.4-0.2-0.5-0.4C70,10.6,69.9,10.3,70,9.7z M67.9,9.5
		c0-0.5,0.1-0.9,0.3-1.1c0.2-0.2,0.3-0.3,0.6-0.3c0.2,0,0.4,0.1,0.5,0.4c0.1,0.2,0.2,0.6,0.1,1.1c0,0.5-0.1,0.9-0.3,1.1
		c-0.2,0.2-0.3,0.3-0.6,0.3c-0.2,0-0.4-0.1-0.5-0.4C67.9,10.4,67.8,10.1,67.9,9.5z M65.9,8.3C66.1,8.1,66.3,8,66.5,8
		c0.2,0,0.4,0.1,0.5,0.3c0.1,0.2,0.2,0.6,0.2,1.1c0,0.5-0.1,0.9-0.2,1.1c-0.1,0.2-0.3,0.3-0.6,0.3c-0.2,0-0.4-0.1-0.5-0.3
		c-0.1-0.2-0.2-0.6-0.2-1.1C65.7,8.9,65.8,8.5,65.9,8.3z M63.8,8.2C64,8,64.2,7.9,64.4,7.9c0.2,0,0.4,0.1,0.5,0.3
		c0.1,0.2,0.2,0.6,0.2,1.1c0,0.5-0.1,0.9-0.2,1.1c-0.1,0.2-0.3,0.3-0.6,0.3c-0.2,0-0.4-0.1-0.5-0.3c-0.1-0.2-0.2-0.6-0.2-1.1
		C63.6,8.8,63.7,8.4,63.8,8.2z M61.6,8.3c0.1-0.2,0.3-0.3,0.5-0.3c0.2,0,0.4,0.1,0.6,0.3C62.9,8.5,63,8.8,63,9.4
		c0,0.5,0,0.9-0.2,1.1c-0.1,0.2-0.3,0.3-0.5,0.3c-0.2,0-0.4-0.1-0.6-0.3c-0.1-0.2-0.2-0.6-0.2-1.1C61.4,8.9,61.5,8.5,61.6,8.3z
		 M59.4,8.4c0.1-0.2,0.3-0.3,0.5-0.4c0.2,0,0.4,0.1,0.6,0.3c0.2,0.2,0.3,0.6,0.3,1.1c0,0.5,0,0.9-0.1,1.1c-0.1,0.2-0.3,0.3-0.5,0.4
		c-0.2,0-0.4-0.1-0.6-0.3c-0.2-0.2-0.3-0.6-0.3-1.1C59.3,9,59.3,8.6,59.4,8.4z M57.2,8.6c0.1-0.2,0.3-0.4,0.5-0.4
		c0.2,0,0.4,0.1,0.6,0.3c0.2,0.2,0.3,0.6,0.4,1.1c0.1,0.5,0,0.9-0.1,1.2c-0.1,0.2-0.3,0.4-0.5,0.4c-0.2,0-0.4-0.1-0.6-0.2
		c-0.2-0.2-0.3-0.6-0.4-1.1C57.1,9.2,57.1,8.8,57.2,8.6z M55.1,8.9c0.1-0.2,0.3-0.4,0.5-0.4c0.2,0,0.4,0.1,0.6,0.3
		c0.2,0.2,0.3,0.6,0.4,1.1c0.1,0.5,0,0.9-0.1,1.2c-0.1,0.2-0.3,0.4-0.5,0.4c-0.2,0-0.4-0.1-0.6-0.2c-0.2-0.2-0.3-0.6-0.4-1.1
		C55,9.5,55,9.1,55.1,8.9z M53,9.3c0.1-0.2,0.3-0.4,0.5-0.4c0.2,0,0.4,0,0.6,0.2c0.2,0.2,0.3,0.5,0.4,1.1c0.1,0.5,0.1,0.9,0,1.2
		c-0.1,0.2-0.3,0.4-0.5,0.4c-0.2,0-0.4,0-0.6-0.2c-0.2-0.2-0.3-0.5-0.4-1.1C52.9,9.9,52.9,9.5,53,9.3z M50.8,9.7
		c0.1-0.2,0.2-0.4,0.5-0.4c0.2-0.1,0.4,0,0.6,0.2c0.2,0.2,0.3,0.5,0.5,1.1c0.1,0.5,0.1,0.9,0,1.2c-0.1,0.2-0.2,0.4-0.5,0.4
		c-0.2,0.1-0.4,0-0.6-0.2c-0.2-0.2-0.3-0.5-0.5-1.1C50.7,10.4,50.7,10,50.8,9.7z M47.5,10.3l0.3,1.1l0.9-0.3L48.4,10l0.5-0.1
		l0.8,2.8l-0.5,0.1l-0.3-1.2L48,11.8l0.3,1.2l-0.5,0.1l-0.8-2.8L47.5,10.3z M44.9,11.1l0.4,1.1l0.9-0.3l-0.4-1.1l0.4-0.2l0.9,2.7
		l-0.4,0.1l-0.4-1.2l-0.9,0.3l0.4,1.2L45.4,14l-0.9-2.7L44.9,11.1z M42.3,12.1l0.7,1.8l0.2-2.1l0.4-0.2l1.1,2.7l-0.4,0.2l-0.7-1.7
		l-0.2,2.1l-0.4,0.2l-1.1-2.7L42.3,12.1z M38.3,15c0-0.1,0.1-0.2,0.2-0.3c0.1-0.1,0.2-0.1,0.4,0c0.1,0.1,0.2,0.2,0.3,0.3
		c0.1,0.1,0.1,0.3,0.1,0.4c0,0.1-0.1,0.2-0.2,0.3c-0.1,0.1-0.2,0.1-0.4,0c-0.1-0.1-0.2-0.2-0.3-0.3C38.3,15.3,38.3,15.2,38.3,15z
		 M34,16.3c0.2-0.1,0.4-0.1,0.6,0c0.2,0.1,0.5,0.4,0.8,0.8c0.3,0.5,0.4,0.8,0.4,1.1c0,0.3-0.1,0.4-0.3,0.6c-0.2,0.1-0.4,0.1-0.6,0
		c-0.2-0.1-0.5-0.4-0.8-0.8c-0.3-0.5-0.4-0.8-0.4-1.1C33.7,16.6,33.8,16.4,34,16.3z M32.2,17.4c0.2-0.1,0.4-0.1,0.6,0
		c0.2,0.1,0.5,0.4,0.8,0.8c0.3,0.5,0.4,0.8,0.4,1.1c0,0.3-0.1,0.4-0.3,0.6c-0.2,0.1-0.4,0.1-0.6,0c-0.2-0.1-0.5-0.4-0.8-0.8
		c-0.3-0.5-0.4-0.8-0.4-1.1C31.9,17.7,32,17.5,32.2,17.4z M30.4,18.7c0.2-0.1,0.4-0.1,0.6-0.1c0.2,0.1,0.5,0.4,0.8,0.8
		c0.3,0.4,0.5,0.8,0.5,1c0,0.3-0.1,0.5-0.3,0.6c-0.2,0.1-0.4,0.2-0.6,0.1c-0.2-0.1-0.5-0.4-0.8-0.8c-0.3-0.4-0.5-0.8-0.5-1
		C30.1,19,30.2,18.8,30.4,18.7z M28.6,20c0.2-0.1,0.4-0.2,0.6-0.1c0.2,0.1,0.5,0.3,0.9,0.8c0.3,0.4,0.5,0.8,0.5,1
		c0,0.3-0.1,0.5-0.2,0.6c-0.2,0.1-0.4,0.2-0.6,0.1c-0.2-0.1-0.5-0.3-0.9-0.8c-0.3-0.4-0.5-0.8-0.5-1C28.3,20.3,28.4,20.1,28.6,20z
		 M26.9,21.4c0.2-0.1,0.4-0.2,0.6-0.1c0.2,0.1,0.5,0.3,0.9,0.7c0.4,0.4,0.5,0.7,0.6,1c0,0.3,0,0.5-0.2,0.6c-0.2,0.1-0.4,0.2-0.6,0.1
		c-0.2-0.1-0.5-0.3-0.9-0.7c-0.4-0.4-0.5-0.7-0.6-1C26.6,21.8,26.7,21.5,26.9,21.4z M25.2,22.9c0.2-0.2,0.4-0.2,0.6-0.1
		c0.3,0.1,0.6,0.3,0.9,0.7c0.4,0.4,0.6,0.7,0.6,1c0,0.3,0,0.5-0.2,0.6c-0.2,0.2-0.4,0.2-0.6,0.1c-0.2-0.1-0.6-0.3-0.9-0.7
		c-0.4-0.4-0.6-0.7-0.6-1C25,23.2,25,23,25.2,22.9z M23.7,24.3c0.2-0.2,0.4-0.2,0.6-0.1c0.3,0.1,0.6,0.3,0.9,0.7
		c0.4,0.4,0.6,0.7,0.6,1c0,0.3,0,0.5-0.2,0.6c-0.2,0.2-0.4,0.2-0.6,0.1c-0.2-0.1-0.6-0.3-0.9-0.7c-0.4-0.4-0.6-0.7-0.6-1
		C23.5,24.7,23.5,24.5,23.7,24.3z M22.1,25.9c0.2-0.2,0.4-0.2,0.6-0.2c0.3,0,0.6,0.3,1,0.6c0.4,0.4,0.6,0.7,0.7,0.9
		c0.1,0.3,0,0.5-0.1,0.6c-0.2,0.2-0.4,0.2-0.6,0.2c-0.3,0-0.6-0.3-1-0.6c-0.4-0.4-0.6-0.7-0.7-0.9C21.9,26.3,22,26.1,22.1,25.9z
		 M20.6,27.5c0.1-0.2,0.4-0.2,0.6-0.2c0.3,0,0.6,0.2,1,0.6c0.4,0.4,0.6,0.7,0.7,0.9c0.1,0.2,0,0.5-0.1,0.6c-0.1,0.2-0.4,0.2-0.6,0.2
		c-0.3,0-0.6-0.2-1-0.6c-0.4-0.4-0.6-0.7-0.7-0.9C20.4,27.9,20.5,27.7,20.6,27.5z M19.2,29.2c0.1-0.2,0.3-0.3,0.6-0.2
		c0.3,0,0.6,0.2,1,0.5c0.4,0.3,0.7,0.6,0.8,0.9c0.1,0.2,0.1,0.5-0.1,0.6c-0.1,0.2-0.3,0.3-0.6,0.2c-0.3,0-0.6-0.2-1-0.5
		c-0.4-0.3-0.7-0.6-0.8-0.9C19,29.6,19.1,29.4,19.2,29.2z M16.9,32.3l0.9,0.7l0.5-0.8l-0.9-0.7l0.3-0.4l2.3,1.7l-0.3,0.4l-1-0.7
		l-0.5,0.8l1,0.7l-0.3,0.4l-2.3-1.7L16.9,32.3z M15.4,34.6l1,0.6l0.5-0.8l-1-0.6l0.3-0.4l2.4,1.5l-0.3,0.4l-1.1-0.7l-0.5,0.8
		l1.1,0.7l-0.3,0.4L15.1,35L15.4,34.6z M13.9,37l1.7,1l-1.2-1.8l0.2-0.4l2.5,1.4l-0.2,0.4l-1.6-0.9l1.1,1.7l-0.2,0.4l-2.5-1.4
		L13.9,37z M12.6,41.4c0.1-0.1,0.1-0.2,0.3-0.2c0.1,0,0.3,0,0.4,0c0.2,0.1,0.3,0.2,0.3,0.3c0.1,0.1,0.1,0.3,0,0.4
		c-0.1,0.1-0.1,0.2-0.3,0.2c-0.1,0-0.3,0-0.4,0c-0.2-0.1-0.3-0.2-0.3-0.3C12.6,41.7,12.6,41.5,12.6,41.4z M10.1,45.3
		c0.1-0.2,0.3-0.3,0.5-0.4c0.3-0.1,0.6,0,1.1,0.2c0.5,0.2,0.8,0.4,1,0.6c0.2,0.2,0.2,0.4,0.1,0.6c-0.1,0.2-0.3,0.3-0.5,0.4
		c-0.3,0.1-0.6,0-1.1-0.2c-0.5-0.2-0.8-0.4-1-0.6C10,45.8,10,45.6,10.1,45.3z M9.3,47.4c0.1-0.2,0.2-0.4,0.5-0.4
		c0.3-0.1,0.6,0,1.1,0.2c0.5,0.2,0.8,0.4,1,0.6c0.2,0.2,0.2,0.4,0.1,0.6c-0.1,0.2-0.2,0.4-0.5,0.4c-0.2,0.1-0.6,0-1.1-0.2
		c-0.5-0.2-0.8-0.4-1-0.6C9.3,47.9,9.3,47.7,9.3,47.4z M8.7,49.6c0.1-0.2,0.2-0.4,0.5-0.4c0.2-0.1,0.6,0,1.2,0.1
		c0.5,0.1,0.9,0.3,1,0.5c0.2,0.2,0.2,0.4,0.2,0.6c-0.1,0.2-0.2,0.4-0.5,0.4c-0.2,0.1-0.6,0-1.2-0.1c-0.5-0.1-0.9-0.3-1-0.5
		C8.7,50,8.6,49.8,8.7,49.6z M8.6,51.3c0.2-0.1,0.6-0.1,1.2,0c0.5,0.1,0.9,0.3,1.1,0.5C11,52,11,52.2,11,52.4
		c-0.1,0.2-0.2,0.4-0.4,0.5c-0.2,0.1-0.6,0.1-1.2-0.1c-0.5-0.1-0.9-0.3-1.1-0.5c-0.2-0.2-0.2-0.4-0.2-0.6
		C8.2,51.5,8.3,51.4,8.6,51.3z M8.1,53.4c0.2-0.1,0.6-0.1,1.2,0c0.5,0.1,0.9,0.2,1.1,0.4c0.2,0.2,0.3,0.4,0.2,0.6
		c0,0.2-0.2,0.4-0.4,0.5c-0.2,0.1-0.6,0.1-1.2,0c-0.5-0.1-0.9-0.2-1.1-0.4c-0.2-0.2-0.3-0.4-0.2-0.6C7.7,53.7,7.8,53.5,8.1,53.4z
		 M7.7,55.5c0.2-0.1,0.6-0.1,1.2,0c0.5,0.1,0.9,0.2,1.1,0.4c0.2,0.2,0.3,0.4,0.2,0.6c0,0.2-0.2,0.4-0.4,0.5c-0.2,0.1-0.6,0.1-1.2,0
		c-0.5-0.1-0.9-0.2-1.1-0.4c-0.2-0.2-0.3-0.4-0.2-0.6C7.3,55.7,7.5,55.6,7.7,55.5z M7.4,57.7c0.2-0.1,0.6-0.1,1.2-0.1
		C9,57.7,9.4,57.8,9.6,58c0.2,0.2,0.3,0.4,0.3,0.6c0,0.2-0.2,0.4-0.4,0.5c-0.2,0.1-0.6,0.1-1.2,0.1c-0.5-0.1-0.9-0.2-1.1-0.4
		C7,58.6,6.9,58.4,7,58.2C7,57.9,7.1,57.8,7.4,57.7z M7.1,59.9c0.2-0.1,0.6-0.2,1.1-0.1c0.5,0,0.9,0.1,1.1,0.3
		c0.2,0.2,0.3,0.3,0.3,0.6c0,0.2-0.1,0.4-0.4,0.5c-0.2,0.1-0.6,0.2-1.2,0.1c-0.5,0-0.9-0.1-1.1-0.3c-0.2-0.2-0.3-0.3-0.3-0.6
		C6.8,60.2,6.9,60,7.1,59.9z M6.9,62.1c0.2-0.1,0.6-0.2,1.1-0.2c0.5,0,0.9,0.1,1.1,0.2c0.2,0.1,0.3,0.3,0.3,0.6
		c0,0.2-0.1,0.4-0.3,0.5C9,63.4,8.6,63.4,8,63.4c-0.5,0-0.9-0.1-1.1-0.2c-0.2-0.1-0.3-0.3-0.3-0.6C6.6,62.4,6.7,62.2,6.9,62.1z
		 M6.9,64.2C7.1,64,7.5,64,8,64c0.5,0,0.9,0.1,1.1,0.2c0.2,0.1,0.3,0.3,0.3,0.6c0,0.2-0.1,0.4-0.3,0.5c-0.2,0.1-0.6,0.2-1.1,0.2
		c-0.5,0-0.9-0.1-1.1-0.2c-0.2-0.1-0.3-0.3-0.3-0.6C6.5,64.5,6.7,64.3,6.9,64.2z M6.7,68.7l1.1-0.1l-0.1-0.9l-1.1,0.1l0-0.5l2.9-0.2
		l0,0.5l-1.2,0.1l0.1,0.9l1.2-0.1l0,0.5l-2.9,0.2L6.7,68.7z M6.9,71.4L8,71.3l-0.1-0.9l-1.1,0.1l0-0.5l2.9-0.2l0,0.5l-1.2,0.1
		l0.1,0.9l1.2-0.1l0,0.5l-2.9,0.2L6.9,71.4z M7.2,74.1l1.9-0.2l-2-0.7l-0.1-0.5l2.8-0.4l0.1,0.4L8.1,73l2,0.7l0.1,0.5l-2.8,0.4
		L7.2,74.1z M9,78.4c0-0.1,0-0.2,0.1-0.4c0.1-0.1,0.2-0.2,0.4-0.2c0.2,0,0.3,0,0.4,0c0.1,0.1,0.2,0.2,0.2,0.3c0,0.1,0,0.2-0.1,0.4
		c-0.1,0.1-0.2,0.2-0.4,0.2c-0.2,0-0.3,0-0.4,0C9.1,78.6,9,78.5,9,78.4z M9.4,83.2c-0.1-0.2,0-0.4,0.1-0.6c0.2-0.2,0.5-0.4,1-0.6
		c0.5-0.2,0.9-0.2,1.1-0.2c0.2,0.1,0.4,0.2,0.5,0.4c0.1,0.2,0,0.4-0.1,0.6c-0.2,0.2-0.5,0.4-1,0.6c-0.5,0.2-0.9,0.2-1.1,0.2
		C9.7,83.5,9.5,83.4,9.4,83.2z M10.2,85.3c-0.1-0.2-0.1-0.4,0.1-0.6c0.1-0.2,0.5-0.4,1-0.6c0.5-0.2,0.9-0.3,1.1-0.2
		c0.3,0.1,0.4,0.2,0.5,0.4c0.1,0.2,0.1,0.4-0.1,0.6c-0.1,0.2-0.5,0.4-1,0.6c-0.5,0.2-0.9,0.3-1.1,0.2C10.4,85.6,10.3,85.5,10.2,85.3
		z M10.9,87.2c-0.1-0.2-0.1-0.4,0.1-0.6c0.1-0.2,0.5-0.4,1-0.6c0.5-0.2,0.9-0.3,1.1-0.2c0.3,0.1,0.4,0.2,0.5,0.4
		c0.1,0.2,0.1,0.4-0.1,0.6c-0.1,0.2-0.5,0.4-1,0.6c-0.5,0.2-0.9,0.3-1.1,0.2C11.2,87.6,11,87.4,10.9,87.2z M11.9,89.2
		c-0.1-0.2-0.1-0.4,0.1-0.6c0.1-0.2,0.5-0.4,0.9-0.7c0.5-0.2,0.9-0.3,1.1-0.3c0.3,0,0.4,0.2,0.5,0.4c0.1,0.2,0.1,0.4-0.1,0.6
		c-0.1,0.2-0.5,0.4-1,0.7c-0.5,0.2-0.9,0.3-1.1,0.3C12.1,89.6,11.9,89.5,11.9,89.2z M12.8,91.3c-0.1-0.2-0.1-0.4,0-0.6
		c0.1-0.2,0.4-0.5,0.9-0.7c0.5-0.2,0.8-0.4,1.1-0.3c0.3,0,0.4,0.1,0.5,0.3c0.1,0.2,0.1,0.4,0,0.6c-0.1,0.2-0.4,0.5-0.9,0.7
		c-0.5,0.2-0.8,0.4-1.1,0.3C13.1,91.6,12.9,91.5,12.8,91.3z M13.9,93.2c-0.1-0.2-0.1-0.4,0-0.6c0.1-0.2,0.4-0.5,0.9-0.7
		c0.5-0.3,0.8-0.4,1.1-0.4c0.3,0,0.4,0.1,0.6,0.3c0.1,0.2,0.1,0.4,0,0.6c-0.1,0.2-0.4,0.5-0.9,0.8c-0.5,0.3-0.8,0.4-1.1,0.4
		C14.2,93.5,14,93.4,13.9,93.2z M15,95.1c-0.1-0.2-0.1-0.4,0-0.6c0.1-0.2,0.4-0.5,0.8-0.8c0.5-0.3,0.8-0.4,1.1-0.4
		c0.3,0,0.4,0.1,0.6,0.3c0.1,0.2,0.1,0.4,0,0.6c-0.1,0.2-0.4,0.5-0.8,0.8c-0.5,0.3-0.8,0.4-1.1,0.4S15.1,95.3,15,95.1z M16.1,96.9
		c-0.1-0.2-0.1-0.4,0-0.6s0.4-0.5,0.8-0.8c0.5-0.3,0.8-0.4,1.1-0.4c0.3,0,0.4,0.1,0.6,0.3c0.1,0.2,0.1,0.4,0,0.6
		c-0.1,0.2-0.4,0.5-0.8,0.8c-0.5,0.3-0.8,0.4-1.1,0.4C16.5,97.2,16.3,97.1,16.1,96.9z M17.4,98.7c-0.1-0.2-0.1-0.4-0.1-0.6
		c0.1-0.2,0.4-0.5,0.8-0.8c0.4-0.3,0.8-0.5,1-0.5c0.3,0,0.5,0.1,0.6,0.3c0.1,0.2,0.2,0.4,0.1,0.6c-0.1,0.2-0.4,0.5-0.8,0.8
		c-0.4,0.3-0.8,0.5-1,0.5C17.7,99,17.5,98.9,17.4,98.7z M18.8,100.5c-0.1-0.2-0.2-0.4-0.1-0.6c0.1-0.2,0.3-0.5,0.8-0.9
		c0.4-0.3,0.8-0.5,1-0.5c0.3,0,0.5,0.1,0.6,0.2c0.1,0.2,0.2,0.4,0.1,0.6c-0.1,0.2-0.3,0.5-0.8,0.9c-0.4,0.3-0.8,0.5-1,0.5
		C19.1,100.7,18.9,100.7,18.8,100.5z M21.2,103.4l0.9-0.7l-0.6-0.7l-0.9,0.7l-0.3-0.4l2.2-1.9l0.3,0.4l-0.9,0.8l0.6,0.7l0.9-0.8
		l0.3,0.4l-2.2,1.9L21.2,103.4z M23.1,105.4l0.8-0.8l-0.6-0.7l-0.8,0.8l-0.3-0.3l2.1-2l0.3,0.3l-0.9,0.9l0.6,0.7l0.9-0.9l0.3,0.3
		l-2.1,2L23.1,105.4z M25.5,107.7l-0.3-0.3l1.3-1.4l-2,0.7l-0.3-0.3l2-2.1l0.3,0.3l-1.3,1.4l2-0.7l0.3,0.3L25.5,107.7z M63.8,118.7
		c-29.5,0-53.6-24-53.6-53.6c0-29.5,24-53.6,53.6-53.6s53.6,24,53.6,53.6C117.3,94.7,93.3,118.7,63.8,118.7z M117.2,55.5
		c0-0.2,0-0.4,0.2-0.6c0.2-0.2,0.5-0.3,1.1-0.4c0.5-0.1,0.9-0.1,1.1,0c0.2,0.1,0.4,0.3,0.4,0.5c0,0.2,0,0.4-0.2,0.6
		c-0.2,0.2-0.5,0.3-1.1,0.4c-0.5,0.1-0.9,0.1-1.2,0C117.4,55.9,117.3,55.8,117.2,55.5z M117.6,57.6c0-0.2,0.1-0.4,0.2-0.6
		c0.2-0.2,0.6-0.3,1.1-0.4c0.5-0.1,0.9,0,1.1,0.1c0.2,0.1,0.4,0.3,0.4,0.5c0,0.2-0.1,0.4-0.3,0.6c-0.2,0.2-0.6,0.3-1.1,0.4
		c-0.5,0.1-0.9,0-1.2-0.1C117.7,58,117.6,57.8,117.6,57.6z M120,64.4c-0.1,0.1-0.2,0.1-0.4,0.2c-0.2,0-0.3,0-0.4-0.1
		c-0.1-0.1-0.2-0.2-0.2-0.3c0-0.1,0-0.2,0.2-0.3c0.1-0.1,0.2-0.1,0.4-0.2c0.2,0,0.3,0,0.4,0.1c0.1,0.1,0.2,0.2,0.2,0.3
		C120.1,64.2,120.1,64.3,120,64.4z M119.3,60.3c-0.5,0-0.9,0-1.1-0.1c-0.2-0.1-0.3-0.3-0.4-0.5c0-0.2,0.1-0.4,0.3-0.6
		c0.2-0.2,0.6-0.3,1.1-0.3c0.5,0,0.9,0,1.1,0.1c0.2,0.1,0.3,0.3,0.4,0.5c0,0.2-0.1,0.4-0.3,0.6C120.2,60.2,119.9,60.3,119.3,60.3z"
		/>
	<path class="st4" d="M7.2,62.9C7.3,62.9,7.6,62.9,8,63c0.4,0,0.7,0,0.8-0.1c0.1,0,0.2-0.1,0.2-0.2c0-0.1-0.1-0.2-0.2-0.2
		c-0.1-0.1-0.4-0.1-0.8-0.1c-0.4,0-0.7,0-0.8,0.1c-0.1,0-0.2,0.1-0.2,0.2C7,62.7,7.1,62.8,7.2,62.9z"/>
	<path class="st4" d="M7.6,58.5c0.1,0.1,0.4,0.1,0.8,0.2c0.4,0.1,0.7,0.1,0.8,0c0.1,0,0.2-0.1,0.2-0.2c0-0.1,0-0.2-0.1-0.2
		c-0.1-0.1-0.4-0.1-0.8-0.2C8,58,7.7,58,7.6,58c-0.1,0-0.2,0.1-0.2,0.2C7.4,58.3,7.5,58.4,7.6,58.5z"/>
	<path class="st4" d="M11.7,82.6c0.1-0.1,0.1-0.2,0.1-0.3c0-0.1-0.1-0.1-0.2-0.1c-0.1,0-0.4,0.1-0.8,0.2c-0.4,0.1-0.7,0.3-0.8,0.3
		c-0.1,0.1-0.1,0.2-0.1,0.3c0,0.1,0.1,0.1,0.2,0.1c0.1,0,0.4-0.1,0.8-0.2C11.3,82.8,11.6,82.7,11.7,82.6z"/>
</g>
<g id="Layer1001">
	<path id="path25" class="st2" d="M48.4,40.3h30.9h0.2v0.2v33.3c0.1,1.2-0.2,2.4-1.1,3.3c-0.7,0.7-1.7,1.2-3.1,1.3v0
		c-2,0.2-3.6,0.2-4.9,0.2c-3.5,0.1-4.6,0.1-6,2.8l-0.2,0.3L64,81.4c-1.9-3-3.5-3-8.9-3.1c-0.4,0-0.8,0-1.2,0c0,0,0,0,0,0
		c-1.9,0-3.3-0.3-4.2-1c-1-0.7-1.5-1.8-1.5-3.2v0c0,0,0,0,0,0L48.4,40.3z M79,40.8H48.6v33.3v0c0,1.2,0.4,2.2,1.3,2.8
		c0.9,0.6,2.2,1,4,0.9h0c0.4,0,0.8,0,1.2,0c5.5,0,7.2,0,9.1,3c1.5-2.7,2.6-2.7,6.2-2.7c1.3,0,2.8,0,4.9-0.2h0c1.3,0,2.2-0.5,2.8-1.1
		c0.7-0.8,1-1.9,0.9-2.9v0V40.8z M48.2,74.1V40.6v-0.2h0.2"/>
	<path id="path27" class="st2" d="M62.6,51.1c-0.7-0.6-2.2-0.5-2.5-1.8c0-0.2,0.1-0.3,0.2-0.2c0.2,0.7,1.6,1.5,1.5,0.6
		c-0.1-1.1-1.9-1.1-1.7-3c0-0.5,0.1-0.6,0.2-0.2c0,1,0.5,2,1.4,1.7c0.6-0.3-0.7-2.7,0.8-4.1c0.3-0.2,0.4-0.2,0.1,0.1
		c-0.3,0.5-0.3,0.9-0.2,1.1c0.1,0.4,0.4,0.3,0.7,0c1.2-1.1,1.2-0.9,1.6-1.1c0,0.1,0,0,0.1,0.1c-2.7,1.4-3.5,5.2-1.3,6.6
		c0.2,0,0.5,0,0.6-0.1c-0.3-0.6-0.6-1.3-0.4-1.9c0.1-0.1,0-0.1,0.1-0.1c0.2,2.2,1.8,2,2,0.8c-0.2-0.6-0.5-1.2-0.4-2.1
		c0.1-0.3,0.2-0.4,0.2,0.1c0,0.3,0.1,1,0.3,1.2c0.1,0.2,0.4,1.2,1.4-0.5c0.3-1.3-0.6-1.3-0.7-2.4c0-0.4-0.1-0.7,0.1-1.1
		c0.1,0,0.1,0.2,0.1,0.3c0.1,0.8,0.3,1.1,0.5,1.5c0.1,0.1,0.4,0.1,0.5-0.2c0.2-0.7,0.1-1.9,0-2.6c0,0.1,0.1,0.1,0.2,0.2
		c1,3.3-1.1,6.9-3.2,7c-0.1,0.1-0.4,0.5-0.5,0.6c0.1,0,0.3,0,0.4,0.1c0,0.1-0.2,0.1-0.4,0.1c-0.5-0.2-1.1-0.3-1.6-0.5
		c-0.2-0.2-0.4-0.3-0.4-0.5C62.3,51,62.5,51,62.6,51.1L62.6,51.1z"/>
	<path id="path29" class="st2" d="M62,52c0.1-0.1,0.3-0.1,0.4-0.2c0.3-0.1,0.4,0.3,0.1,0.4C62.4,52.2,62.2,52.2,62,52z M64.2,52
		c-0.1-0.1-0.3-0.1-0.4-0.2c-0.3-0.1-0.4,0.3-0.1,0.4C63.9,52.2,64,52.2,64.2,52z M59.9,52.5c0-0.1-0.2-0.2-0.1-0.3
		c0.3-0.1,0.4,0,0.3,0.1C60,52.3,60.1,52.5,59.9,52.5z M70.2,59.3c0-0.1-0.9-0.4-1.9-0.2c-1,0.2-2.1,0.2-3.1-0.1c-1,0-1.7,0.3-2,0.2
		c-0.2-0.1-0.4-0.8-0.3-1.3c0.5-1.1,1.9-2.4,1.5-5.3c0.7,0,1.1-0.7,1-0.8c-0.6,0.2-1,0.1-1.3,0.1l-1.9-0.6c-0.7,0.7-1.6,0.5-2.6,0.5
		c0,0.5,0.1,0.9,0.2,1.3c1,0,1.5,0.3,2.1,0.9c0,0,0.1,0.1,0.1,0.1c0.8,1.7-5.6,1.9-4.1,6c-0.3,0.7-0.3,1.5,0,2.2
		c-1.1,0.2-1.4,0.5-2.3,0.6c-0.5,0.1-1.4-0.1-1.6,0c-0.9,1.2-1.9,2.1-3,2.7c-0.2,0.1-0.3,0.3-0.4,0.5c-0.1,0.8-0.4,1.1-0.4,1.6
		c-0.1,0.3-0.4,0.5-0.4,0.9l0.3-0.3l0.2,0.3l0.7-0.6c0-0.1,0-0.2-0.1-0.3c-0.3-0.2,0-0.6,0.3-0.8c-0.8-0.1-0.4-0.7,0.3-0.3
		c0-0.1,0-0.4,0.1-0.5c0.9-1.6,2.5-2.5,4-2.6c1.3-0.1,1.7,0.6,2.7,0.8c0.4,0.7,1,1.7,1.2,4.1c0.6,1.3,1.3,2.8,1.4,3.8
		c-0.6,0.6-0.5,0.8-0.5,1.3c0,0.2-0.2,0.2-0.2,0.3c-0.1,0-0.2,0.1-0.2,0.2c0,0.1-0.2-0.1-0.2,0c-0.1,0.2-0.4,0.4-0.5,0.7l0.2,0.1
		l0.2-0.1l0.1,0.3l0.8-0.2c0-0.1,0-0.2,0-0.3c0,0-0.1,0-0.1-0.1c0.1-0.3,0.3-0.7,0.5-0.9c-0.2-0.3,0.1-0.6,0.3-0.7
		c0.3,0.2,0.5,0.1,0.6,0c-0.5-1.3-1.2-3.1-1.4-4.3c-0.7-1.7-0.2-2.2,0.2-3.3c3.2,1.1,3.8-0.8,5.6-1.1l0,0.1
		c-1.2,3.2,0.7,4.2,0.4,5.1c0,0,0,0,0,0c0,0,0,0,0,0c-0.4,1-1.4,1.7-1.9,3.1c0,0,0,0,0,0c0,0,0,0,0,0c0,0,0,0,0,0c0,0,0,0,0,0
		c0,0,0,0,0,0c0,0,0,0,0,0c0,0,0,0,0,0c0,0,0,0,0,0c0,0,0,0,0,0c0,0,0,0,0,0c0,0,0,0,0,0c0,0,0,0,0,0c0,0,0,0,0,0c0,0,0,0,0,0
		c0,0,0,0,0,0c0,0,0,0,0,0c0,0,0,0,0,0c0,0,0,0,0,0c0,0,0,0,0,0c0,0,0,0,0,0c0,0,0,0,0,0c0,0,0,0,0,0c-0.1,0.1-0.1,0.1-0.2,0.2
		c0,0,0,0,0,0c0,0,0,0,0,0c0,0,0,0,0,0c0,0,0,0,0,0c0,0,0,0,0,0c-0.1,0.1-0.2,0.2-0.3,0.4l-0.6,0.7c0,0,0,0,0,0c0,0,0,0,0,0
		c-0.1,0.1-0.2,0.2-0.3,0.3c0,0,0,0,0,0c0,0,0,0,0,0c0,0,0,0,0,0c0,0,0,0,0,0c0,0,0,0,0,0c0,0,0,0,0,0c0,0,0,0,0,0c0,0,0,0,0,0
		c0,0,0,0,0,0c0,0,0,0,0,0c-0.1,0.1-0.1,0.1-0.2,0.2h0c0,0,0,0,0,0h0.2l0.2-0.1l0,0.1l0.7,0c0,0,0,0,0,0l0,0c0,0,0-0.2,0.1-0.3
		c0-0.2,0.1-0.5,0.3-0.7c0,0,0,0,0,0c0,0,0,0,0,0c0,0,0,0,0,0c0,0,0,0,0,0c0,0,0,0,0,0c0.1-0.1,0.3-0.2,0.5-0.3c0,0,0,0,0,0
		c0,0,0,0,0,0c0,0,0,0,0-0.1v0c0,0,0,0,0-0.1c0,0,0,0,0,0c0.1-0.5,0.4-1,0.7-1.5c0,0,0,0,0,0c0,0,0,0,0,0c0.5-0.8,1-1.5,1.6-1.9
		c-0.6-0.9-0.6-1.5-0.3-2c0.4-0.6,1.2-1,1.5-2c1.1,0.9,2.8,1.6,4.3,3.1c1.1,2.5,2.3,4.2,0.5,5.5c-0.4,0.1-0.4,0.5-0.5,0.6
		c0.4-0.3,0.4-0.1,0.6,0c0.2,0,0.4,0,0.6,0c0.1-0.2,0.2-0.3,0.3-0.5c-0.2-1,0.2-1.1,0.7-1.1c-0.2-1.8-1.4-3.5-1.3-5.1
		c-5.3-4.1-0.2-4.7-2.2-7.1c0.5-0.4,0.5-0.8,0.5-1.1c-0.2,0.1-0.7,0.4-0.9,0.4C71.2,59.8,70.8,59.5,70.2,59.3L70.2,59.3z"/>
	<path id="path31" class="st2" d="M46.7,38.8h34v19.9l7.7-7.5l-0.1,8.1c-0.9,0.9-1.7,1.8-2.6,2.7c0.4,0.1,0.6,0.4,0.6,0.9
		c0.3-0.2,0.6-0.2,0.9,0.1c0.2-0.5,0.7-0.7,1.3-0.4c0.6-0.7,1.9,0,0.6,1.5c0.6,0.7,0.3,1.4-0.9,2c0.1,0.5,0,0.9-0.9,1.2
		c0.3,0.3,0.6,0.6,0.8,0.9c0.7-1,0.4-1.9,1.5-1.9c0.5,0.1,0.9,0.8,0.6,1.4c-0.6,0.9-1.3,0-1.9,1v7.8c-0.7,0.9-1.3,1.9-2,2.8
		c0.9,0.4,1.4,0.8,1.2,1.4c1,0.1,1.3,0.6,1.1,1.4c1,0.8,0.6,2-1,1.4c-0.1,0.7-0.6,0.9-1.4,0.6c-0.4,0.6-1.1,0.4-1.8-0.2
		c-0.7-0.3-0.9,0-0.5,0.9c0.4,0.1,0.7,0.3,1.1,0.4c0,0,0,0,0,0c1.7-0.9,2.3,0.3,2,1c-0.5,1.2-2,0.5-2.2-0.6
		c-0.4-0.1-0.8-0.3-1.2-0.4c0,0.3-0.1,0.5-0.1,0.8c0.8,1.4,0.9,2.2-0.7,1.8c-0.6,0.8-1.2,0.6-1.8-0.3c-0.6,1.4-1.4,0.8-2.2-0.2
		c-0.5,0.5-1.3,0.8-2.3,0.8H70l-1-1.2c-0.9,0-1.8,0.1-2.8,0.1c0.8,1.2,3.1,1.4,3.5,2.6h-2.3c-1-1.2-2.2-2.1-3.7-2.5
		c-1.4,0.4-2.6,1.3-3.7,2.5h-2.3c0.4-1.1,2.7-1.3,3.5-2.6c-0.9,0-1.8-0.1-2.8-0.1l-1,1.2h-6.5c-1,0-1.8-0.2-2.3-0.8
		c-0.8,1-1.6,1.5-2.2,0.2c-0.6,0.9-1.2,1.1-1.8,0.3c-1.6,0.4-1.5-0.4-0.7-1.8c0-0.3-0.1-0.5-0.1-0.8c-0.4,0.1-0.8,0.3-1.2,0.4
		c-0.2,1.1-1.7,1.7-2.2,0.6c-0.3-0.8,0.3-2,2-1c0,0,0,0,0,0c0.4-0.1,0.7-0.3,1.1-0.4c0.4-0.9,0.2-1.2-0.5-0.9
		c-0.8,0.6-1.4,0.8-1.8,0.2c-0.8,0.2-1.3,0-1.4-0.6c-1.7,0.6-2-0.6-1-1.4c-0.3-0.8,0.1-1.3,1.1-1.4c-0.3-0.6,0.3-1.1,1.2-1.4
		c-0.7-0.9-1.3-1.9-2-2.8v-7.8c-0.6-0.9-1.3,0-1.9-1c-0.3-0.6,0.1-1.2,0.6-1.4c1.1,0,0.8,0.9,1.5,1.9c0.3-0.3,0.6-0.6,0.8-0.9
		c-0.9-0.3-0.9-0.7-0.9-1.2c-1.2-0.6-1.5-1.3-0.9-2c-1.3-1.5,0.1-2.2,0.6-1.5c0.6-0.3,1.1-0.1,1.3,0.4c0.2-0.3,0.5-0.3,0.9-0.1
		c0-0.5,0.2-0.8,0.6-0.9c-0.9-0.9-1.7-1.8-2.6-2.7l-0.1-8.1l7.6,7.4L46.7,38.8z M80.7,60.1v1.5l0.8,0c0.1-0.9,0.5-1.4,1.2-1.6
		c-0.1-1.3,0.6-1.9,1.6-1.3l3.6-3.7v-2.4L80.7,60.1z M80.7,61.7V64l7.3,7.4c0-0.7,0-1.4,0-2.1L80.7,61.7z M80.7,70.1v5.7
		c0.1,2.3-1.1,4.7-4.4,4.8c-2.5,0.2-4.4,0.2-5.8,0.2c0.6,0.9,1.4,1.7,2.3,2.4c0.6-1.6,1.2-1.8,2-0.7c0.3-0.7,0.9-0.7,1.5-0.5
		c0.4-0.7,0.9-0.6,1.3-0.3c0.4-0.8,1-1.3,2.1-1.3c0.3-0.8,0.8-1.3,1.6-1.4c0.1-1.3-0.4-2.3,0.3-3c-0.3-0.8-0.6-1.5,0.1-2.3
		c-0.4-0.7-0.4-1.4,0-1.9C82.5,70.3,81.7,69.7,80.7,70.1z M69.5,80.8c-0.6,0-1.2,0.1-1.6,0.1l6.1,6.9h2.2L69.5,80.8z M66.1,81.5
		C66.1,81.5,66.1,81.5,66.1,81.5l0,1.4l0.4,0.4v-1.4L66.1,81.5z M64.9,82.7c-0.3,0.4-0.5,0.8-0.8,1.3c-0.4-0.6-0.8-1.2-1.2-1.6
		c-0.6,0.5-1,1-1,1.9c0.6,0.2,1.2,0.5,1.8,1.1c0.6-0.6,1.2-0.9,1.8-1.1C65.6,83.6,65.4,83.1,64.9,82.7z M59.8,80.8
		c-0.5-0.1-1-0.1-1.6-0.2l-6.7,7.2h2.2L59.8,80.8z M57.2,80.5c-1.2,0-2.7,0-4.4-0.1c-4.2,0.1-6.1-1.6-6.1-4.4v-6
		c-0.9-0.3-1.6,0.3-1,1.8c0.4,0.5,0.4,1.2,0,1.9c0.7,0.8,0.4,1.5,0.1,2.3c0.7,0.7,0.2,1.8,0.3,3c0.8,0.1,1.3,0.6,1.6,1.4
		c1.1,0,1.7,0.5,2.1,1.3c0.4-0.2,0.9-0.3,1.3,0.3c0.6-0.2,1.2-0.2,1.5,0.5c0.7-1.1,1.4-0.9,2,0.7C55.7,82.4,56.6,81.5,57.2,80.5z
		 M46.7,64.1v-2.3l-7.1,7.4c0,0.7,0,1.4,0,2.1L46.7,64.1z M46.7,61.6V60l-7-7.4v2.4l3.6,3.7c0.9-0.6,1.6,0,1.6,1.3
		c0.7,0.1,1.1,0.7,1.2,1.6L46.7,61.6z M64.5,82.1l-0.2,0.1c0,0,0.1,0,0.1,0.1c-0.1,0.2-0.2,0.3-0.3,0.5c-2.2-3.5-3.9-3.3-10.7-3.3
		c-4,0.1-5.8-1.5-5.8-4.2V40h32.2V75c0.1,2.1-1,4.4-4.2,4.5C68,80.1,66.4,78.9,64.5,82.1z M63.8,86.7c-1-0.3-2-0.4-3.1-0.2
		c-0.3-0.4-0.4-0.7,0.4-0.8c0.4-0.1,0.8,0,1.2,0.4c0.1-0.5-0.3-0.8-1.2-0.9c-0.3-0.7,0-0.8,0.7-0.4c0.7,0.1,1.3,0.5,1.9,1
		c0,0.1,0,0.3,0,0.4c0.1-0.1,0.1-0.1,0.2-0.2c0.1,0.1,0.1,0.1,0.2,0.2c0-0.1,0-0.3,0-0.4c0.5-0.6,1.2-0.9,1.9-1
		c0.7-0.4,0.9-0.3,0.7,0.4c-0.9,0-1.3,0.3-1.2,0.9c0.4-0.4,0.8-0.5,1.2-0.4c0.8,0,0.7,0.4,0.4,0.8C65.8,86.3,64.8,86.4,63.8,86.7z
		 M87.9,57.2l-0.4,0.4v1.4l0.4-0.4L87.9,57.2z M87.2,57.9l-0.4,0.4v1.4l0.4-0.4V57.9z M86.6,58.6L86.2,59v1.4l0.4-0.4V58.6z
		 M86,59.3l-0.4,0.4v1.4l0.4-0.4V59.3z M82.8,62.7c-0.7-0.8-1.2-1.6,0.3-2.3c0.2-2.3,1.1-1.6,1.2-0.2c0.8-0.1,1,0.3,0.8,1.2
		c0.2,0.5,0.2,0.9-0.1,1.2c1.5-0.1,0.9,1.5,0.5,2.9c-0.6-0.4-1-1-1-3c-0.2-0.7-0.3-1.3-0.4-1.9c-0.3,0-0.5,0.6-0.6,1.3
		C82.8,61.4,82.8,62,82.8,62.7z M87.4,63.3c0.3-0.6,0.7-0.4,1-0.3c0.9-0.7,1.2,0,0.3,1c0.6,0.8,0.3,1.4-0.8,1.7
		c-0.2,0.6-0.2,1-0.7,1c-0.1-0.5-0.1-1,0.3-1.3c0.7-1.3,0.9-1.9,0-1.5C85.8,64.6,86,63,87.4,63.3z M87.9,73.4L87.5,73v1.4l0.4,0.4
		V73.4z M71.1,86.7l-0.4-0.4v1.4l0.4,0.4V86.7z M87.3,72.8l-0.4-0.4v1.4l0.4,0.4V72.8z M70.4,86.1l-0.4-0.4v1.4l0.4,0.4V86.1z
		 M86.6,72.1l-0.4-0.4v1.4l0.4,0.4V72.1z M69.8,85.4L69.4,85v1.4l0.4,0.4L69.8,85.4z M86,71.4L85.6,71v1.4l0.4,0.4L86,71.4z
		 M69.2,84.7l-0.4-0.4v1.4l0.4,0.4V84.7z M85.3,70.6l-0.4-0.4v1.4l0.4,0.4V70.6z M68.5,83.9l-0.4-0.4V85l0.4,0.4V83.9z M84.6,69.9
		l-0.4-0.4V71l0.4,0.4L84.6,69.9z M67.8,83.2l-0.4-0.4v1.4l0.4,0.4V83.2z M84,69.3l-0.4-0.4v1.4l0.4,0.4V69.3z M67.2,82.6l-0.4-0.4
		v1.4l0.4,0.4V82.6z M83.3,68.5L83,68.2v1.4l0.4,0.4L83.3,68.5z M82.7,67.8l-0.4-0.4v1.4l0.4,0.4V67.8z M82.1,67.1l-0.4-0.4v1.4
		l0.4,0.4V67.1z M81.4,66.5L81,66.1v1.4l0.4,0.4L81.4,66.5z M85.9,85.6c-0.2,0-0.4,0.2-0.4,0.3c0,0.2,0.2,0.3,0.4,0.3
		c0.2,0,0.4-0.2,0.4-0.3C86.3,85.7,86.1,85.6,85.9,85.6z M82.4,74c0.1-2.9,0.5-2.7,1.1-1c0.6,0.8,0.4,1.5-0.6,2
		C82.2,75.5,82,75.1,82.4,74z M85.2,74.8c1-1.4,1.5-1.4,1.4,0.7c1.1,0.7,0.9,1.1-0.2,1.5c0.3,0.5,0.4,1-0.4,1.3
		c-0.1,0.8-0.2,1.5-1.4,1.5c-1,2.5-2.9,0.3-0.4-0.5c-0.3-0.7-0.1-1.2,0.8-1.3c-0.6-1,0.6-1.3,0.3-2c-0.4-0.1-0.8-0.1-1.2,0.5
		c0,1-0.5,1.4-1.3,1.2c0,0.8,0,1.6-0.6,2.3c-0.6-1.2-0.6-2.1,0.3-2.5c0-1.4,0.3-2.1,1.2-1.3C83.8,75.2,84.2,74.6,85.2,74.8
		L85.2,74.8z M86.9,81c1.3,0.5,1.3,0.9,1.2,1.3c0.2,0.8-0.1,0.9-0.8,0.1c-0.7-0.2-0.8-0.6-0.9-1.1c-0.6,0.3-1,0.3-0.9-0.3
		c-1.1,0.2-0.7-1,0.4-0.9C86.6,79.9,87.2,80,86.9,81z M86,83.4c-1,1.2-2.2-1.3-0.2-0.9c0.7-0.3,1.1-0.1,1.2,0.3
		C87.3,83.9,86.8,83.9,86,83.4z M83.2,82.5c1.9-1.1,0.2-1.9-0.5-0.6c-0.7-0.2-1,0-0.8,0.8c0,0,0,0,0,0
		C82.5,83.2,82.9,83.1,83.2,82.5z M80.8,85.3c1.6-0.9,2.6-0.6,2,0.9c1.1,1.3,0.8,1.8-0.3,1.2c-0.2,1.1-0.9,0.7-1.6-0.1
		c-0.5,0.8-1.2,0.9-2-0.2c-1.2,0.5-2,0.7-2.3,0.1c-1.1-0.9-1.1-1.2,0-0.9c0.4-1,0.8-0.6,1.4,0c0.6-0.7,1-0.2,1.4,0.3
		c0.7-0.4,1.4-0.2,2.1,0c-0.7-0.6-1.5-1-2.5-1.1c-0.2-0.7,0.1-1,0.8-0.7C80.1,84.3,80.5,84.1,80.8,85.3z M77.7,82.2H78
		c0.7-1,1.4-1.2,2.1-1.2c0.6-1.7,1.8-1.8,1.1,0.1c0.3,0.7,0.1,1.3-1.2,1.6c0.7,0.9,0.2,1.5-1.5,1.7c-0.2,1-4.2,1.1-1.6-0.3
		c1.1-0.2,2.1-0.5,1.8-1.4c0.7,0,1-0.4,1.3-0.9c-0.6,0.4-1.2,0.7-1.8,0.7c-0.5,0.7-1,0.1-1.5,0.6c-1.3,1.9-3.5,0.7-0.4-0.3
		C76.7,82,77.2,81.5,77.7,82.2z M39.7,57.2l0.4,0.4v1.4l-0.4-0.4V57.2z M40.4,57.9l0.4,0.4v1.4l-0.4-0.4V57.9z M41,58.6l0.4,0.4v1.4
		L41,60V58.6z M41.6,59.3l0.4,0.4v1.4l-0.4-0.4V59.3z M44.8,62.7c0.7-0.8,1.2-1.6-0.3-2.3c-0.2-2.3-1.1-1.6-1.2-0.2
		c-0.8-0.1-1,0.3-0.8,1.2c-0.2,0.5-0.2,0.9,0.1,1.2c-1.5-0.1-0.9,1.5-0.5,2.9c0.6-0.4,1-1,1-3c0.2-0.7,0.3-1.3,0.4-1.9
		c0.3,0,0.5,0.6,0.6,1.3C44.7,61.4,44.8,62,44.8,62.7z M40.2,63.3c-0.3-0.6-0.7-0.4-1-0.3c-0.9-0.7-1.2,0-0.3,1
		c-0.6,0.8-0.3,1.4,0.8,1.7c0.2,0.6,0.2,1,0.7,1c0.1-0.5,0.1-1-0.3-1.3c-0.7-1.3-0.9-1.9,0-1.5C41.7,64.6,41.6,63,40.2,63.3z
		 M39.7,73.4l0.4-0.4v1.4l-0.4,0.4V73.4z M56.5,86.7l0.4-0.4v1.4l-0.4,0.4V86.7z M40.3,72.8l0.4-0.4v1.4l-0.4,0.4L40.3,72.8z
		 M57.1,86.1l0.4-0.4v1.4l-0.4,0.4V86.1z M40.9,72.1l0.4-0.4v1.4l-0.4,0.4V72.1z M57.8,85.4l0.4-0.4v1.4l-0.4,0.4V85.4z M41.6,71.4
		L42,71v1.4l-0.4,0.4V71.4z M58.4,84.7l0.4-0.4v1.4l-0.4,0.4V84.7z M42.3,70.6l0.4-0.4v1.4l-0.4,0.4L42.3,70.6z M59.1,83.9l0.4-0.4
		V85l-0.4,0.4L59.1,83.9z M43,69.9l0.4-0.4V71L43,71.4V69.9z M59.8,83.2l0.4-0.4v1.4l-0.4,0.4V83.2z M43.6,69.3l0.4-0.4v1.4
		l-0.4,0.4V69.3z M60.4,82.6l0.4-0.4v1.4L60.4,84V82.6z M44.2,68.5l0.4-0.4v1.4L44.2,70V68.5z M61.1,81.9l0.4-0.4v1.4l-0.4,0.4V81.9
		z M44.9,67.8l0.4-0.4v1.4l-0.4,0.4V67.8z M45.5,67.1l0.4-0.4v1.4l-0.4,0.4V67.1z M46.2,66.5l0.4-0.4v1.4l-0.4,0.4V66.5z M41.7,85.6
		c0.2,0,0.4,0.2,0.4,0.3c0,0.2-0.2,0.3-0.4,0.3c-0.2,0-0.4-0.2-0.4-0.3C41.3,85.7,41.5,85.6,41.7,85.6z M45.2,74
		c-0.1-2.9-0.5-2.7-1.1-1c-0.6,0.8-0.4,1.5,0.6,2C45.4,75.5,45.6,75.1,45.2,74z M42.4,74.8c-1-1.4-1.5-1.4-1.4,0.7
		c-1.1,0.7-0.9,1.1,0.2,1.5c-0.3,0.5-0.4,1,0.4,1.3c0.1,0.8,0.2,1.5,1.4,1.5c1,2.5,2.9,0.3,0.4-0.5c0.3-0.7,0.1-1.2-0.8-1.3
		c0.6-1-0.6-1.3-0.3-2c0.4-0.1,0.8-0.1,1.2,0.5c0,1,0.5,1.4,1.3,1.2c0,0.8,0,1.6,0.6,2.3c0.6-1.2,0.6-2.1-0.3-2.5
		c0-1.4-0.3-2.1-1.2-1.3C43.7,75.2,43.4,74.6,42.4,74.8z M40.6,81c-1.3,0.5-1.3,0.9-1.2,1.3c-0.2,0.8,0.1,0.9,0.8,0.1
		c0.7-0.2,0.8-0.6,0.9-1.1c0.6,0.3,1,0.3,0.9-0.3c1.1,0.2,0.7-1-0.4-0.9C41,79.9,40.4,80,40.6,81z M41.6,83.4c1,1.2,2.2-1.3,0.2-0.9
		c-0.7-0.3-1.1-0.1-1.2,0.3C40.3,83.9,40.8,83.9,41.6,83.4z M44.4,82.5c-1.9-1.1-0.2-1.9,0.5-0.6c0.7-0.2,1,0,0.8,0.8c0,0,0,0,0,0
		C45.1,83.2,44.7,83.1,44.4,82.5z M46.7,85.3c-1.6-0.9-2.6-0.6-2,0.9c-1.1,1.3-0.8,1.8,0.3,1.2c0.2,1.1,0.9,0.7,1.6-0.1
		c0.5,0.8,1.2,0.9,2-0.2c1.2,0.5,2,0.7,2.3,0.1c1.1-0.9,1.1-1.2,0-0.9c-0.4-1-0.8-0.6-1.4,0c-0.6-0.7-1-0.2-1.4,0.3
		c-0.7-0.4-1.4-0.2-2.1,0c0.7-0.6,1.5-1,2.5-1.1c0.2-0.7-0.1-1-0.8-0.7C47.5,84.3,47.1,84.1,46.7,85.3z M49.9,82.2h-0.3
		c-0.7-1-1.4-1.2-2.1-1.2c-0.6-1.7-1.8-1.8-1.1,0.1c-0.3,0.7-0.1,1.3,1.2,1.6c-0.7,0.9-0.2,1.5,1.5,1.7c0.2,1,4.2,1.1,1.6-0.3
		c-1.1-0.2-2.1-0.5-1.8-1.4c-0.7,0-1-0.4-1.3-0.9c0.6,0.4,1.2,0.7,1.8,0.7c0.5,0.7,1,0.1,1.5,0.6c1.3,1.9,3.5,0.7,0.4-0.3
		C50.9,82,50.3,81.5,49.9,82.2z"/>
</g>
</svg>
