<?xml version="1.0" encoding="utf-8"?>
<!-- Generator: Adobe Illustrator 26.4.1, SVG Export Plug-In . SVG Version: 6.00 Build 0)  -->
<svg version="1.1"
	 id="svg29" xmlns:svg="http://www.w3.org/2000/svg" xmlns:rdf="http://www.w3.org/1999/02/22-rdf-syntax-ns#" xmlns:cc="http://creativecommons.org/ns#" xmlns:dc="http://purl.org/dc/elements/1.1/"
	 xmlns="http://www.w3.org/2000/svg" xmlns:xlink="http://www.w3.org/1999/xlink" x="0px" y="0px" viewBox="0 0 155.9 155.9"
	 style="enable-background:new 0 0 155.9 155.9;" xml:space="preserve">
<style type="text/css">
	.st0{fill:none;stroke:#FFFFFF;stroke-width:0.5669;}
	.st1{fill:none;stroke:#1B1918;stroke-width:1.4173;}
	.st2{fill:none;stroke:#1B1918;stroke-width:0.5669;}
	.st3{fill-rule:evenodd;clip-rule:evenodd;fill:#1B1918;}
	.st4{fill:#1B1918;}
</style>
<path id="path2" class="st0" d="M0,0v155.9h155.9V0H0z"/>
<path id="path8" class="st1" d="M78,25.1c29.2,0,52.9,23.7,52.9,52.9c0,29.2-23.7,52.9-52.9,52.9c-29.2,0-52.9-23.7-52.9-52.9
	C25.1,48.8,48.8,25.1,78,25.1z"/>
<path id="path10" class="st2" d="M78,26.6c28.3,0,51.3,23,51.3,51.3c0,28.3-23,51.3-51.3,51.3c-28.3,0-51.3-23-51.3-51.3
	C26.6,49.6,49.6,26.6,78,26.6z"/>
<path id="path12" class="st3" d="M31.9,80.9c-0.8,0-1.4-0.1-1.8-0.4c-0.4-0.3-0.6-0.7-0.7-1.2c0-0.3,0.1-0.6,0.2-0.9
	c0.2-0.3,0.4-0.5,0.8-0.7c0.3-0.2,0.8-0.3,1.2-0.3c0.7,0,1.2,0.1,1.6,0.4c0.5,0.3,0.7,0.7,0.7,1.3c0,0.5-0.2,1-0.7,1.3
	C33,80.7,32.5,80.9,31.9,80.9z M31.9,80.4c0.6,0,1-0.2,1.3-0.4c0.3-0.3,0.4-0.6,0.4-0.9c0-0.4-0.2-0.6-0.5-0.9
	c-0.3-0.2-0.8-0.3-1.4-0.3c-0.4,0-0.7,0.1-1,0.2c-0.2,0.1-0.4,0.3-0.5,0.5C30.1,78.8,30,79,30,79.2c0,0.4,0.2,0.7,0.5,0.9
	C30.8,80.3,31.3,80.4,31.9,80.4z M29.6,76.1l0.2-2.4l0.5,0l-0.1,1.9l1.4,0.1l0.1-0.9c0-0.3,0.1-0.6,0.2-0.8c0.1-0.2,0.2-0.3,0.5-0.4
	c0.2-0.1,0.5-0.1,0.7-0.1c0.3,0,0.5,0.1,0.7,0.2c0.2,0.1,0.3,0.3,0.4,0.5c0.1,0.2,0.1,0.4,0.1,0.8l-0.1,1.4L29.6,76.1z M33.6,76
	l0.1-1c0-0.2,0-0.4-0.1-0.6c-0.1-0.1-0.3-0.2-0.6-0.3c-0.2,0-0.4,0-0.5,0.1c-0.1,0.1-0.2,0.2-0.3,0.3c0,0.1-0.1,0.3-0.1,0.7l0,0.6
	L33.6,76z M29.9,72.1l0.1-0.5l3.9,0.7l0.2-1.2l-3.9-0.7l0.1-0.5l3.9,0.7l0.2-1.2l-3.9-0.7l0.1-0.5l3.9,0.7l0.1-0.3l1.7,0.3l-0.1,0.4
	L35,69.2l-0.7,3.7L29.9,72.1z M35.2,68.1L30.9,67l0.7-2.6l0.5,0.1l-0.5,2.1l1.3,0.3l0.5-2l0.5,0.1l-0.5,2l1.5,0.4l0.6-2.2l0.5,0.1
	L35.2,68.1z M35.5,61.7l0.3-0.4c0.4,0.3,0.7,0.6,0.9,0.9c0.1,0.3,0.2,0.7,0,1.1c-0.1,0.3-0.3,0.6-0.5,0.7c-0.2,0.2-0.6,0.3-0.9,0.3
	c-0.4,0-0.8,0-1.3-0.2c-0.5-0.2-0.8-0.4-1.1-0.6c-0.3-0.3-0.4-0.5-0.5-0.8c-0.1-0.3-0.1-0.6,0-0.9c0.1-0.3,0.3-0.6,0.6-0.8
	c0.3-0.2,0.7-0.2,1.1-0.2l0,0.5c-0.6-0.1-1,0.2-1.2,0.6c-0.1,0.2-0.1,0.5,0,0.7c0.1,0.2,0.2,0.4,0.4,0.6c0.2,0.2,0.5,0.4,0.9,0.5
	c0.6,0.2,1,0.3,1.4,0.1c0.4-0.1,0.6-0.3,0.7-0.7c0.1-0.2,0.1-0.5,0-0.7C36.1,62.1,35.8,61.8,35.5,61.7z M37.9,60.2l-3.6-1.6
	l-0.5,1.1l-0.5-0.2l1.2-2.7L35,57l-0.5,1.1l3.6,1.6L37.9,60.2z M38.9,58L35,55.7l0.7-1.2c0.1-0.2,0.3-0.4,0.4-0.5
	c0.2-0.1,0.3-0.1,0.6-0.1c0.2,0,0.4,0.1,0.6,0.2c0.2,0.1,0.3,0.2,0.4,0.4c0.1,0.2,0.1,0.3,0.2,0.5c0.2-0.1,0.4-0.2,0.6-0.2
	c0.2,0,0.5,0.1,0.7,0.2c0.2,0.1,0.4,0.3,0.5,0.5c0.1,0.2,0.2,0.4,0.2,0.6c0,0.2-0.1,0.5-0.3,0.7L38.9,58z M36.9,56.3l0.4-0.7
	c0.1-0.2,0.2-0.3,0.2-0.4c0-0.1,0-0.3,0-0.4c-0.1-0.1-0.2-0.2-0.3-0.3c-0.1-0.1-0.3-0.1-0.4-0.1c-0.1,0-0.2,0-0.3,0.1
	c-0.1,0.1-0.2,0.2-0.3,0.4l-0.4,0.6L36.9,56.3z M38.6,57.3l0.5-0.8c0.1-0.2,0.2-0.3,0.2-0.4c0-0.1,0-0.3-0.1-0.4
	c-0.1-0.1-0.2-0.2-0.3-0.3c-0.1-0.1-0.3-0.1-0.4-0.1c-0.1,0-0.3,0-0.4,0.1c-0.1,0.1-0.2,0.2-0.3,0.4l-0.4,0.7L38.6,57.3z M38.8,53.8
	c-0.6-0.4-1-0.9-1.2-1.4c-0.2-0.5-0.1-1,0.2-1.4c0.2-0.3,0.4-0.5,0.7-0.6c0.3-0.1,0.6-0.2,1-0.1c0.4,0.1,0.8,0.2,1.2,0.5
	c0.6,0.4,0.9,0.8,1.1,1.3c0.2,0.5,0.2,1-0.1,1.5c-0.3,0.5-0.7,0.7-1.3,0.7C39.8,54.3,39.3,54.1,38.8,53.8z M39,53.4
	c0.5,0.3,0.9,0.4,1.3,0.4c0.4,0,0.7-0.2,0.9-0.5c0.2-0.3,0.2-0.6,0.1-1c-0.1-0.4-0.4-0.7-0.9-1c-0.3-0.2-0.6-0.3-1-0.4
	c-0.2,0-0.5,0-0.7,0.1c-0.2,0.1-0.4,0.2-0.5,0.4c-0.2,0.3-0.2,0.6-0.1,1C38.2,52.7,38.5,53,39,53.4z M44.4,47.3l0.4-0.3
	c0.3,0.4,0.5,0.8,0.5,1.2c0,0.4-0.1,0.7-0.4,1c-0.2,0.3-0.5,0.4-0.8,0.5c-0.3,0.1-0.6,0-1-0.1c-0.4-0.1-0.8-0.4-1.1-0.7
	c-0.4-0.3-0.6-0.7-0.8-1c-0.2-0.3-0.2-0.7-0.2-1c0-0.3,0.2-0.6,0.4-0.8c0.2-0.3,0.5-0.4,0.8-0.5c0.3,0,0.7,0,1.1,0.2l-0.2,0.4
	c-0.6-0.3-1-0.2-1.3,0.1c-0.2,0.2-0.3,0.4-0.3,0.6c0,0.2,0,0.5,0.2,0.7c0.1,0.3,0.3,0.5,0.7,0.8c0.5,0.4,0.9,0.6,1.3,0.7
	c0.4,0,0.7-0.1,0.9-0.3c0.2-0.2,0.3-0.4,0.2-0.7C44.8,47.9,44.7,47.6,44.4,47.3z M45.9,44.8c-0.5-0.6-0.7-1.1-0.8-1.7
	c0-0.5,0.2-1,0.6-1.3c0.2-0.2,0.5-0.3,0.9-0.4c0.3,0,0.7,0,1,0.2c0.3,0.2,0.7,0.4,1,0.8c0.4,0.5,0.7,1,0.7,1.5c0,0.6-0.1,1-0.5,1.4
	c-0.4,0.4-0.9,0.5-1.5,0.3C46.8,45.5,46.3,45.3,45.9,44.8z M46.3,44.5c0.4,0.4,0.7,0.7,1.1,0.7c0.4,0.1,0.7,0,1-0.2
	c0.3-0.2,0.4-0.5,0.4-0.9c0-0.4-0.2-0.8-0.6-1.3c-0.2-0.3-0.5-0.5-0.8-0.7C47.1,42,46.9,42,46.7,42c-0.2,0-0.4,0.1-0.6,0.2
	c-0.3,0.2-0.4,0.5-0.4,0.9C45.7,43.5,45.9,44,46.3,44.5z M47.9,40.2l1.7-1.4l0.3,0.4l-1.4,1.1l2.4,3.1l-0.4,0.3L47.9,40.2z M53,41.9
	l-2.4-3.8l1.2-0.7c0.3-0.2,0.5-0.3,0.7-0.3c0.2,0,0.4,0,0.7,0.1c0.2,0.1,0.4,0.3,0.6,0.6c0.2,0.3,0.3,0.7,0.3,1
	c0,0.3-0.3,0.6-0.7,0.9l-0.8,0.5l1,1.5L53,41.9z M52.1,39.7l0.8-0.5c0.3-0.2,0.4-0.3,0.4-0.5c0-0.2,0-0.4-0.2-0.6
	c-0.1-0.2-0.2-0.3-0.3-0.3c-0.1-0.1-0.2-0.1-0.3-0.1c-0.1,0-0.3,0.1-0.5,0.2l-0.8,0.5L52.1,39.7z M55.6,40.1l-0.7-4.6l0.5-0.2
	l3.3,3.4l-0.5,0.2l-1-1l-1.4,0.7l0.2,1.4L55.6,40.1z M55.7,38l1.1-0.6L56,36.5c-0.3-0.3-0.5-0.5-0.6-0.7c0.1,0.3,0.1,0.6,0.2,0.9
	L55.7,38z M59.2,38.4l-1.8-4.1l0.4-0.2l0.8,1.7l1.7-0.8l-0.8-1.7l0.4-0.2l1.8,4.1l-0.4,0.2l-0.9-1.9l-1.7,0.8l0.9,1.9L59.2,38.4z
	 M61.3,32.6l0.4-0.1l1.2,3.4l0.7-4l0.5-0.2l1.5,4.2l-0.4,0.1l-1.2-3.4l-0.7,4l-0.5,0.2L61.3,32.6z M68.9,35.1l-0.5,0.1L68,33.4
	c-0.4,0.3-0.7,0.5-1.1,0.5c-0.2,0.1-0.5,0-0.7-0.1c-0.2-0.1-0.4-0.2-0.5-0.4c-0.1-0.2-0.2-0.5-0.3-0.8l-0.3-1.3l0.5-0.1l0.3,1.2
	c0.1,0.4,0.2,0.7,0.4,0.9c0.2,0.1,0.4,0.2,0.6,0.1c0.3-0.1,0.7-0.2,1-0.5l-0.5-2.1l0.5-0.1L68.9,35.1z M69.9,34.8l-0.8-4.4l2.6-0.5
	l0.1,0.5l-2.1,0.4l0.3,1.4l2-0.4l0.1,0.5l-2,0.4l0.3,1.5l2.2-0.4l0.1,0.5L69.9,34.8z M73.4,34.3l-0.3-4.5l0.5,0l0.1,1.8l1.9-0.1
	l-0.1-1.8l0.5,0l0.3,4.5l-0.5,0L75.7,32l-1.9,0.1l0.2,2.1L73.4,34.3z M77.3,34l0.2-4.5l0.5,0l-0.1,1.8l1.9,0.1l0.1-1.8l0.5,0
	l-0.2,4.5l-0.5,0l0.1-2.1l-1.9-0.1L77.8,34L77.3,34z M81.3,32c0.1-0.8,0.3-1.3,0.7-1.7c0.4-0.4,0.8-0.5,1.3-0.5
	c0.3,0,0.6,0.2,0.8,0.4c0.2,0.2,0.4,0.5,0.5,0.9c0.1,0.4,0.1,0.8,0.1,1.3c-0.1,0.7-0.3,1.2-0.6,1.6c-0.4,0.4-0.8,0.6-1.4,0.5
	c-0.5-0.1-0.9-0.3-1.2-0.9C81.3,33.1,81.2,32.6,81.3,32z M81.8,32c-0.1,0.5,0,1,0.2,1.3c0.2,0.3,0.5,0.5,0.8,0.6
	c0.4,0,0.7-0.1,0.9-0.4c0.3-0.3,0.4-0.7,0.5-1.3c0-0.4,0-0.7-0.1-1c-0.1-0.2-0.2-0.4-0.4-0.6c-0.2-0.2-0.4-0.3-0.6-0.3
	c-0.4,0-0.7,0.1-1,0.4C82,30.9,81.9,31.4,81.8,32z M86.2,30.2l0.4,0.1l-0.7,3.5l2.6-3.1l0.5,0.1l-0.8,4.4l-0.4-0.1l0.7-3.5l-2.6,3.1
	l-0.5-0.1L86.2,30.2z M88.3,29.5l0.3,0.1c-0.1,0.3-0.2,0.4-0.3,0.5c-0.2,0.1-0.3,0.1-0.5,0.1c-0.2,0-0.4-0.1-0.5-0.3
	c-0.1-0.2-0.1-0.4-0.1-0.6l0.3,0.1c0,0.3,0.1,0.4,0.3,0.5c0.1,0,0.2,0,0.3,0C88.2,29.7,88.2,29.6,88.3,29.5z M91.1,33.6
	c0.3-0.7,0.6-1.2,1.1-1.5c0.5-0.3,0.9-0.3,1.4-0.2c0.3,0.1,0.6,0.3,0.7,0.6c0.2,0.3,0.3,0.6,0.3,1c0,0.4,0,0.8-0.2,1.3
	c-0.2,0.6-0.5,1.1-1,1.4c-0.5,0.3-1,0.4-1.5,0.2c-0.5-0.2-0.8-0.5-1-1.1C90.8,34.7,90.9,34.2,91.1,33.6z M91.5,33.8
	c-0.2,0.5-0.2,1-0.1,1.3c0.1,0.4,0.4,0.6,0.7,0.7c0.3,0.1,0.7,0.1,1-0.1c0.3-0.2,0.6-0.6,0.8-1.2c0.1-0.4,0.2-0.7,0.2-1
	c0-0.2-0.1-0.5-0.2-0.7c-0.1-0.2-0.3-0.3-0.5-0.4c-0.3-0.1-0.7-0.1-1,0.1C92,32.8,91.7,33.2,91.5,33.8z M95.2,37.5l1.6-3.6l-1.1-0.5
	l0.2-0.5l2.7,1.2l-0.2,0.5l-1.1-0.5l-1.6,3.6L95.2,37.5z M97.4,38.5l2-4l1.2,0.6c0.3,0.1,0.4,0.3,0.5,0.4c0.1,0.2,0.2,0.3,0.2,0.5
	c0,0.2,0,0.4-0.1,0.6c-0.1,0.2-0.2,0.3-0.4,0.4c-0.2,0.1-0.3,0.2-0.5,0.2c0.2,0.2,0.2,0.4,0.3,0.6s0,0.5-0.1,0.7
	c-0.1,0.2-0.3,0.4-0.5,0.6c-0.2,0.1-0.4,0.2-0.6,0.2c-0.2,0-0.5-0.1-0.7-0.2L97.4,38.5z M99,36.4l0.7,0.4c0.2,0.1,0.3,0.1,0.4,0.2
	c0.1,0,0.3,0,0.4-0.1c0.1-0.1,0.2-0.2,0.3-0.3c0.1-0.1,0.1-0.3,0.1-0.4c0-0.1,0-0.2-0.1-0.3c-0.1-0.1-0.2-0.2-0.5-0.3l-0.7-0.3
	L99,36.4z M98.1,38.2l0.8,0.4c0.2,0.1,0.3,0.1,0.4,0.1c0.1,0,0.3,0,0.4-0.1c0.1-0.1,0.2-0.2,0.3-0.4c0.1-0.2,0.1-0.3,0.1-0.4
	c0-0.1-0.1-0.3-0.1-0.4c-0.1-0.1-0.2-0.2-0.5-0.3l-0.8-0.4L98.1,38.2z M100.6,40.1l2.4-3.8l2.2,1.4l-0.3,0.4l-1.8-1.2l-0.7,1.2
	l1.7,1.1l-0.3,0.4l-1.7-1.1l-0.8,1.3l1.9,1.2l-0.3,0.4L100.6,40.1z M104.3,42.6l2.3-3.2l-1-0.7l0.3-0.4l2.4,1.7l-0.3,0.4l-1-0.7
	l-2.3,3.2L104.3,42.6z M109.2,44.7l0.3,0.4c-0.4,0.3-0.8,0.5-1.2,0.5c-0.4,0-0.7-0.1-1-0.4c-0.3-0.2-0.4-0.5-0.5-0.8
	c-0.1-0.3,0-0.6,0.1-1c0.1-0.4,0.4-0.8,0.7-1.1c0.3-0.4,0.7-0.6,1-0.8c0.3-0.2,0.7-0.2,1-0.2c0.3,0,0.6,0.2,0.8,0.4
	c0.3,0.2,0.4,0.5,0.5,0.8c0,0.3,0,0.7-0.2,1.1l-0.4-0.2c0.3-0.6,0.2-1-0.1-1.3c-0.2-0.2-0.4-0.3-0.6-0.3c-0.2,0-0.5,0-0.7,0.2
	c-0.3,0.1-0.5,0.3-0.8,0.7c-0.4,0.5-0.6,0.9-0.7,1.3c0,0.4,0.1,0.7,0.3,0.9c0.2,0.2,0.4,0.3,0.7,0.2C108.6,45,108.9,44.9,109.2,44.7
	z M109.8,47.4l2.8-2.7l-0.8-0.9l0.4-0.4l2,2.1l-0.4,0.4L113,45l-2.8,2.7L109.8,47.4z M111.3,49.1l3.4-2.9l0.9,1.1
	c0.2,0.2,0.3,0.4,0.3,0.6c0,0.2,0,0.4,0,0.6c-0.1,0.2-0.2,0.4-0.4,0.5c-0.2,0.1-0.3,0.2-0.5,0.3c-0.2,0-0.4,0-0.5,0
	c0.1,0.2,0.1,0.4,0,0.6c-0.1,0.2-0.2,0.4-0.4,0.6c-0.2,0.2-0.4,0.3-0.7,0.3c-0.2,0-0.4,0-0.6,0c-0.2-0.1-0.4-0.2-0.6-0.5L111.3,49.1
	z M113.6,47.8l0.5,0.6c0.1,0.2,0.2,0.3,0.3,0.3c0.1,0.1,0.2,0.1,0.4,0.1c0.1,0,0.2-0.1,0.4-0.2c0.1-0.1,0.2-0.2,0.2-0.3
	c0-0.1,0-0.2,0-0.3c0-0.1-0.1-0.3-0.3-0.5l-0.5-0.6L113.6,47.8z M112,49.1l0.6,0.7c0.1,0.2,0.2,0.3,0.3,0.3c0.1,0.1,0.3,0.1,0.4,0.1
	c0.1,0,0.3-0.1,0.4-0.2c0.1-0.1,0.2-0.2,0.3-0.4c0-0.1,0.1-0.3,0-0.4c0-0.1-0.1-0.3-0.3-0.5l-0.5-0.6L112,49.1z M113.6,51.9l3.7-2.6
	l1.5,2.2l-0.4,0.3l-1.2-1.8l-1.1,0.8l1.2,1.7l-0.4,0.3l-1.2-1.7l-1.2,0.9l1.3,1.8l-0.4,0.3L113.6,51.9z M115.6,54.8l3.9-2.3l0.2,0.4
	l-1.6,0.9l1,1.6l1.6-0.9l0.2,0.4l-3.9,2.3l-0.2-0.4l1.8-1.1l-1-1.6l-1.8,1.1L115.6,54.8z M117.5,58.2l4.1-1.8l0.2,0.4l-1.7,0.8
	l0.8,1.7l1.7-0.8l0.2,0.4l-4.1,1.8l-0.2-0.4l1.9-0.9l-0.8-1.7l-1.9,0.9L117.5,58.2z M121.2,60.9c0.7-0.2,1.3-0.3,1.8-0.1
	c0.5,0.2,0.8,0.5,1,1c0.1,0.3,0.1,0.6,0,0.9c-0.1,0.3-0.3,0.6-0.5,0.9c-0.3,0.3-0.6,0.5-1.1,0.6c-0.6,0.2-1.2,0.2-1.7,0.1
	c-0.5-0.2-0.9-0.5-1.1-1c-0.2-0.5-0.1-1,0.2-1.5C120.2,61.4,120.6,61.1,121.2,60.9z M121.4,61.4c-0.5,0.2-0.9,0.4-1.1,0.8
	c-0.2,0.3-0.3,0.7-0.1,1c0.1,0.3,0.4,0.6,0.7,0.7c0.4,0.1,0.8,0.1,1.4-0.1c0.4-0.1,0.7-0.3,0.9-0.5c0.2-0.2,0.3-0.4,0.4-0.6
	c0.1-0.2,0.1-0.4,0-0.7c-0.1-0.3-0.4-0.6-0.7-0.7C122.5,61.2,122,61.2,121.4,61.4L121.4,61.4z M122.7,67.8l0,0.5
	c-0.5,0-0.9-0.1-1.2-0.2c-0.3-0.2-0.5-0.5-0.6-0.9c-0.1-0.3-0.1-0.6,0-0.9c0.1-0.3,0.3-0.5,0.6-0.8c0.3-0.2,0.7-0.4,1.2-0.6
	c0.5-0.1,0.9-0.2,1.3-0.1c0.4,0.1,0.7,0.2,0.9,0.4c0.2,0.2,0.4,0.5,0.5,0.8c0.1,0.3,0.1,0.7-0.1,1c-0.1,0.3-0.4,0.6-0.8,0.8
	l-0.3-0.4c0.6-0.3,0.8-0.7,0.6-1.2c-0.1-0.2-0.2-0.4-0.3-0.6c-0.2-0.1-0.4-0.2-0.7-0.3c-0.3,0-0.6,0-1,0.1c-0.6,0.2-1,0.4-1.2,0.7
	c-0.2,0.3-0.3,0.6-0.2,1c0.1,0.3,0.2,0.5,0.5,0.6C122,67.8,122.3,67.8,122.7,67.8L122.7,67.8z M121.6,70.4l3.9-0.7l-0.2-1.2l0.5-0.1
	l0.5,2.9l-0.5,0.1l-0.2-1.2l-3.9,0.7L121.6,70.4z M126.4,72.4l0,0.5l-1.9,0.1l0.1,0.9c0,0.3,0,0.6-0.1,0.8c-0.1,0.2-0.2,0.4-0.4,0.5
	c-0.2,0.1-0.4,0.2-0.7,0.2c-0.3,0-0.7,0-0.9-0.2c-0.3-0.2-0.4-0.5-0.5-1l-0.1-1.4L126.4,72.4z M122.5,73.2l0.1,0.9
	c0,0.3,0.1,0.5,0.2,0.6c0.1,0.1,0.3,0.2,0.6,0.2c0.2,0,0.3-0.1,0.4-0.2c0.1-0.1,0.2-0.2,0.2-0.3c0-0.1,0-0.4,0-0.7l0-0.6L122.5,73.2
	z M126.9,76.4l0,0.5l-2-0.1l0,0.7c0.6,0.1,1.1,0.2,1.5,0.6c0.4,0.3,0.5,0.7,0.5,1.2c0,0.5-0.2,0.8-0.6,1.2c-0.4,0.3-1,0.4-1.7,0.4
	c-0.7,0-1.3-0.2-1.7-0.5c-0.4-0.3-0.6-0.7-0.6-1.2c0-0.5,0.2-0.9,0.6-1.1c0.4-0.3,0.9-0.4,1.5-0.4l0-0.7l-1.9-0.1l0-0.5L126.9,76.4z
	 M124.6,78c-0.6,0-1,0.1-1.3,0.3c-0.3,0.2-0.5,0.5-0.5,0.8c0,0.4,0.1,0.6,0.4,0.9c0.3,0.2,0.8,0.3,1.3,0.4c0.6,0,1-0.1,1.3-0.3
	c0.3-0.2,0.5-0.5,0.5-0.8c0-0.4-0.1-0.6-0.4-0.9C125.6,78.2,125.1,78,124.6,78z"/>
<path id="path14" class="st3" d="M30.7,90l4.1-1.2l0.4,1.6c0.1,0.3,0.1,0.5,0.1,0.6c0,0.2,0,0.4,0,0.6c-0.1,0.2-0.2,0.3-0.3,0.4
	c-0.1,0.1-0.3,0.2-0.5,0.3c-0.4,0.1-0.7,0.1-1-0.1c-0.3-0.2-0.5-0.5-0.7-1.1l-0.3-1.1l-1.7,0.5L30.7,90z M33,90l0.3,1.1
	c0.1,0.4,0.2,0.6,0.4,0.7c0.2,0.1,0.4,0.1,0.6,0.1c0.2,0,0.3-0.1,0.4-0.3c0.1-0.1,0.1-0.3,0.1-0.4c0-0.1,0-0.3-0.1-0.5l-0.3-1.1
	L33,90z M33.7,92.8c0.7-0.3,1.3-0.3,1.8-0.1c0.5,0.2,0.9,0.6,1.1,1.2c0.1,0.4,0.2,0.7,0.1,1.1c-0.1,0.4-0.2,0.7-0.5,1
	c-0.3,0.3-0.6,0.5-1,0.7c-0.4,0.2-0.8,0.2-1.2,0.2c-0.4,0-0.7-0.2-1-0.4c-0.3-0.2-0.5-0.5-0.6-0.9c-0.1-0.4-0.2-0.7-0.1-1.1
	c0.1-0.4,0.2-0.7,0.5-1C33,93.2,33.3,93,33.7,92.8z M33.9,93.4c-0.5,0.2-0.8,0.5-1,0.8c-0.2,0.4-0.2,0.7,0,1.1
	c0.2,0.4,0.4,0.7,0.8,0.8c0.4,0.1,0.8,0.1,1.3-0.1c0.3-0.1,0.6-0.3,0.8-0.5c0.2-0.2,0.3-0.4,0.4-0.7c0-0.3,0-0.5-0.1-0.8
	c-0.1-0.4-0.4-0.6-0.8-0.8C34.9,93.1,34.5,93.1,33.9,93.4z M36.2,100.1l0.1,0.6c-0.5,0.1-0.9,0.1-1.2-0.1c-0.4-0.2-0.6-0.4-0.8-0.8
	C34.1,99.4,34,99,34,98.7c0-0.3,0.2-0.7,0.4-1c0.2-0.3,0.6-0.5,0.9-0.7c0.4-0.2,0.8-0.3,1.2-0.3c0.4,0,0.7,0.1,1,0.3
	c0.3,0.2,0.5,0.5,0.7,0.8c0.2,0.4,0.3,0.8,0.2,1.1c-0.1,0.4-0.2,0.7-0.5,1l-0.4-0.4c0.2-0.2,0.4-0.5,0.4-0.7c0-0.2,0-0.5-0.1-0.7
	c-0.2-0.3-0.3-0.5-0.6-0.6c-0.2-0.1-0.5-0.2-0.8-0.1c-0.3,0-0.5,0.1-0.8,0.3c-0.3,0.2-0.6,0.4-0.8,0.6c-0.2,0.2-0.3,0.5-0.3,0.7
	c0,0.3,0,0.5,0.2,0.7c0.1,0.3,0.4,0.5,0.6,0.6C35.6,100.2,35.9,100.2,36.2,100.1z M38.4,103.7l0.2,0.6c-0.5,0.2-0.9,0.2-1.2,0
	c-0.4-0.1-0.7-0.4-0.9-0.8c-0.2-0.4-0.4-0.8-0.4-1.1c0-0.3,0.1-0.7,0.3-1c0.2-0.3,0.5-0.6,0.8-0.8c0.4-0.2,0.8-0.4,1.1-0.4
	c0.4,0,0.7,0,1,0.2c0.3,0.2,0.6,0.4,0.8,0.7c0.2,0.4,0.3,0.7,0.3,1.1c0,0.4-0.2,0.7-0.4,1l-0.4-0.4c0.2-0.3,0.3-0.5,0.3-0.7
	c0-0.2-0.1-0.5-0.2-0.7c-0.2-0.3-0.4-0.5-0.6-0.6c-0.3-0.1-0.5-0.1-0.8,0c-0.3,0.1-0.5,0.2-0.8,0.3c-0.3,0.2-0.5,0.4-0.7,0.7
	c-0.2,0.2-0.3,0.5-0.2,0.7c0,0.3,0.1,0.5,0.2,0.7c0.2,0.3,0.4,0.4,0.7,0.5C37.7,103.9,38,103.9,38.4,103.7z M41.3,103.1l0.3,0.4
	l-2.8,2l4.1-0.1l0.3,0.5l-3.5,2.5l-0.3-0.4l2.8-2l-4.1,0.1l-0.3-0.5L41.3,103.1z M43.7,106.2l0.3,0.4l-2.6,2.2l4.1-0.5l0.4,0.4
	l-3.2,2.8l-0.3-0.4l2.6-2.2l-4.1,0.5l-0.4-0.4L43.7,106.2z M45.8,107.2l0.2,0.3c-0.2,0.1-0.4,0.2-0.6,0.2c-0.2,0-0.4-0.1-0.5-0.3
	c-0.2-0.2-0.2-0.4-0.2-0.6c0-0.2,0.1-0.4,0.3-0.6l0.2,0.3c-0.1,0.1-0.1,0.2-0.1,0.3c0,0.1,0,0.2,0.1,0.3c0.1,0.1,0.2,0.2,0.3,0.2
	C45.6,107.3,45.7,107.3,45.8,107.2z M46.6,113.3l0.3,0.5c-0.4,0.3-0.8,0.4-1.2,0.3c-0.4,0-0.8-0.2-1.1-0.5c-0.3-0.3-0.5-0.6-0.6-1
	c-0.1-0.3-0.1-0.7,0.1-1c0.1-0.4,0.3-0.7,0.6-1c0.3-0.3,0.6-0.5,1-0.7c0.4-0.1,0.7-0.1,1.1,0c0.3,0.1,0.7,0.3,0.9,0.5
	c0.3,0.3,0.5,0.6,0.6,1c0.1,0.4,0,0.7-0.2,1.1l-0.5-0.3c0.1-0.3,0.2-0.6,0.2-0.8c0-0.2-0.2-0.4-0.4-0.6c-0.2-0.2-0.5-0.4-0.8-0.4
	c-0.3,0-0.5,0-0.8,0.1c-0.2,0.1-0.5,0.3-0.7,0.5c-0.3,0.3-0.4,0.5-0.5,0.8c-0.1,0.3-0.1,0.5-0.1,0.8c0.1,0.3,0.2,0.5,0.4,0.6
	c0.2,0.2,0.5,0.3,0.8,0.4C46,113.6,46.3,113.5,46.6,113.3z M49.2,111.8l0.4,0.4l-1.2,1.5c0.2,0.2,0.4,0.2,0.5,0.2
	c0.1,0,0.4-0.1,0.8-0.3c0.3-0.1,0.5-0.2,0.6-0.3c0.1,0,0.3-0.1,0.4,0c0.2,0,0.3,0.1,0.4,0.2c0.2,0.1,0.3,0.2,0.3,0.2l-0.3,0.4
	c0,0,0,0-0.1-0.1c0,0-0.1-0.1-0.1-0.1c-0.1-0.1-0.3-0.2-0.4-0.1c-0.1,0-0.3,0.1-0.6,0.3c-0.3,0.2-0.6,0.3-0.7,0.3
	c-0.1,0-0.3,0-0.4,0c0.2,0.2,0.2,0.6,0.2,1.1l-0.2,1.7l-0.6-0.4l0.2-1.4c0-0.4,0.1-0.7,0-0.8c0-0.2-0.1-0.3-0.3-0.5l-1.2,1.6
	l-0.4-0.4L49.2,111.8z M48.9,117.1l3.8-2.5l0.5,0.4l-1.1,4.5l-0.5-0.4l0.3-1.3l-1.5-1l-1.1,0.8L48.9,117.1z M50.9,116.3l1.2,0.8
	l0.3-1.2c0.1-0.4,0.2-0.7,0.3-0.9c-0.2,0.2-0.4,0.4-0.7,0.5L50.9,116.3z M55.5,121.3l2.1-3.7l-1.7-0.9c-0.3-0.2-0.6-0.3-0.8-0.3
	c-0.2,0-0.4,0-0.6,0.1c-0.2,0.1-0.4,0.3-0.5,0.5c-0.2,0.3-0.2,0.5-0.1,0.8c0.1,0.3,0.3,0.5,0.6,0.8c-0.2,0-0.3,0-0.4,0
	c-0.2,0-0.5,0.1-0.7,0.3l-1.2,0.6l0.6,0.4l0.9-0.5c0.3-0.1,0.5-0.2,0.6-0.3c0.2-0.1,0.3-0.1,0.4-0.1c0.1,0,0.2,0,0.3,0
	c0.1,0,0.2,0.1,0.3,0.1l0.6,0.3L55,121L55.5,121.3z M56.2,118.9l-1.1-0.6c-0.2-0.1-0.4-0.3-0.5-0.4c-0.1-0.1-0.2-0.2-0.2-0.4
	c0-0.1,0-0.3,0.1-0.4c0.1-0.2,0.2-0.3,0.4-0.3c0.2,0,0.4,0,0.7,0.2l1.2,0.7L56.2,118.9z M60.7,119.5l0.2-0.5l0.5,0.2l-0.2,0.5
	c0.5,0.2,0.8,0.5,1,0.9c0.2,0.4,0.2,0.8,0,1.2c-0.2,0.4-0.4,0.7-0.8,0.9c-0.4,0.2-0.9,0.2-1.4,0l-0.2,0.5l-0.5-0.2l0.2-0.5
	c-0.5-0.2-0.8-0.5-1-0.9c-0.2-0.4-0.2-0.8-0.1-1.3c0.2-0.4,0.5-0.7,0.9-0.9C59.7,119.3,60.2,119.3,60.7,119.5L60.7,119.5z M61,120.1
	l-0.8,2.1c0.3,0.1,0.7,0.1,0.9,0c0.3-0.1,0.5-0.3,0.6-0.6c0.1-0.3,0.1-0.6,0-0.9C61.6,120.5,61.3,120.3,61,120.1z M60.5,119.9
	c-0.3-0.1-0.6-0.1-0.9,0c-0.3,0.1-0.5,0.3-0.6,0.6c-0.1,0.3-0.1,0.6,0,0.9c0.1,0.3,0.4,0.5,0.7,0.6L60.5,119.9z M62.1,124.1l1.2-4.1
	l3,0.9l-0.1,0.5l-2.4-0.7l-0.4,1.3l2.3,0.7l-0.1,0.5l-2.3-0.7l-0.4,1.4l2.5,0.7l-0.1,0.5L62.1,124.1z M67.3,121.1l2.5,0.6l-0.8,3.7
	l0.4,0.1l-0.3,1.5l-0.5-0.1l0.2-1l-2.8-0.6l-0.2,1l-0.5-0.1l0.3-1.5l0.3,0.1c0.5-0.4,0.9-1.4,1.2-3L67.3,121.1z M69.2,122.1
	l-1.5-0.3l0,0.2c-0.1,0.4-0.2,0.8-0.4,1.4c-0.2,0.6-0.4,1.1-0.7,1.4l1.9,0.4L69.2,122.1z M69.9,126.1l0.6-4.3l3.1,0.4l-0.1,0.5
	l-2.5-0.3l-0.2,1.3l2.3,0.3l-0.1,0.5l-2.3-0.3l-0.2,1.5l2.6,0.3l-0.1,0.5L69.9,126.1z M73.9,126.5l0.3-4.3l1.6,0.1
	c0.3,0,0.5,0.1,0.6,0.1c0.2,0.1,0.4,0.1,0.5,0.2c0.1,0.1,0.2,0.3,0.3,0.4c0.1,0.2,0.1,0.4,0.1,0.6c0,0.4-0.2,0.7-0.4,0.9
	c-0.3,0.2-0.7,0.3-1.3,0.3l-1.1-0.1l-0.1,1.7L73.9,126.5z M74.6,124.3l1.1,0.1c0.4,0,0.6,0,0.8-0.1c0.2-0.1,0.3-0.3,0.3-0.6
	c0-0.2,0-0.3-0.1-0.5c-0.1-0.1-0.2-0.2-0.3-0.3c-0.1,0-0.3-0.1-0.5-0.1l-1.1-0.1L74.6,124.3z M77,126.7l1.6-4.3l0.6,0l1.8,4.3
	l-0.6,0l-0.5-1.3l-1.8,0l-0.4,1.3L77,126.7z M78.2,124.9l1.5,0l-0.5-1.2c-0.1-0.4-0.3-0.7-0.3-0.9c-0.1,0.3-0.1,0.6-0.2,0.8
	L78.2,124.9z M80.9,122.4l0.6-0.1l0.5,3.8l2.2-0.3l-0.5-3.8l0.6-0.1l0.5,3.8l0.4-0.1l0.2,1.7l-0.5,0.1l-0.2-1.2l-3.2,0.4L80.9,122.4
	z M85.2,121.8l0.5-0.1l0.6,3.4l1.7-3.7l0.6-0.1l0.7,4.2l-0.5,0.1l-0.6-3.3l-1.7,3.7l-0.6,0.1L85.2,121.8z M93.4,124.2l-1.2-4.1
	l-1.8,0.5c-0.4,0.1-0.6,0.2-0.8,0.4c-0.2,0.1-0.3,0.3-0.3,0.5c-0.1,0.2-0.1,0.4,0,0.7c0.1,0.3,0.2,0.5,0.5,0.7
	c0.2,0.1,0.6,0.2,1,0.1c-0.1,0.1-0.2,0.2-0.3,0.3c-0.1,0.2-0.2,0.4-0.3,0.7l-0.4,1.3l0.7-0.2l0.3-1c0.1-0.3,0.2-0.5,0.2-0.7
	c0.1-0.2,0.1-0.3,0.2-0.4c0.1-0.1,0.1-0.1,0.2-0.2c0.1,0,0.2-0.1,0.3-0.1l0.6-0.2l0.5,1.8L93.4,124.2z M92.2,122.1l-1.2,0.3
	c-0.2,0.1-0.5,0.1-0.6,0.1c-0.2,0-0.3-0.1-0.4-0.2c-0.1-0.1-0.2-0.2-0.2-0.3c-0.1-0.2,0-0.4,0.1-0.5c0.1-0.2,0.3-0.3,0.6-0.4
	l1.3-0.4L92.2,122.1z M94.2,119.3l2.6-1l0.2,0.5l-2.1,0.8l1.4,3.5l-0.5,0.2L94.2,119.3z M97.4,120.4c-0.3-0.6-0.4-1.2-0.3-1.7
	c0.2-0.5,0.5-0.9,1-1.2c0.4-0.2,0.7-0.3,1.1-0.2c0.4,0,0.7,0.1,1,0.4c0.3,0.2,0.6,0.5,0.8,0.9c0.2,0.4,0.3,0.8,0.3,1.2
	c0,0.4-0.1,0.7-0.3,1c-0.2,0.3-0.5,0.5-0.8,0.7c-0.4,0.2-0.7,0.3-1.1,0.2c-0.4,0-0.7-0.2-1-0.4C97.8,121,97.6,120.8,97.4,120.4z
	 M97.9,120.2c0.2,0.5,0.5,0.8,0.9,0.9c0.4,0.1,0.8,0.1,1.1-0.1c0.4-0.2,0.6-0.5,0.7-0.9c0.1-0.4,0-0.8-0.2-1.3
	c-0.2-0.3-0.4-0.6-0.6-0.7c-0.2-0.2-0.5-0.3-0.7-0.3c-0.3,0-0.5,0-0.8,0.2c-0.4,0.2-0.6,0.5-0.7,0.8
	C97.5,119.1,97.6,119.6,97.9,120.2z M102.6,120l-2.3-3.6l1.4-0.9c0.2-0.2,0.4-0.3,0.6-0.3c0.2-0.1,0.4-0.1,0.6-0.1
	c0.2,0,0.3,0.1,0.5,0.2c0.2,0.1,0.3,0.2,0.4,0.4c0.2,0.3,0.3,0.6,0.2,1c-0.1,0.3-0.3,0.7-0.9,1l-0.9,0.6l0.9,1.5L102.6,120z
	 M101.9,117.8l0.9-0.6c0.3-0.2,0.5-0.4,0.5-0.6c0.1-0.2,0-0.4-0.1-0.6c-0.1-0.2-0.2-0.3-0.4-0.3c-0.1-0.1-0.3-0.1-0.4,0
	c-0.1,0-0.2,0.1-0.5,0.3l-0.9,0.6L101.9,117.8z M104.5,116.4c-0.4-0.6-0.6-1.1-0.6-1.7c0.1-0.6,0.3-1,0.8-1.4c0.3-0.2,0.7-0.4,1-0.4
	c0.4,0,0.7,0,1.1,0.2c0.3,0.2,0.6,0.4,0.9,0.8c0.3,0.3,0.4,0.7,0.5,1.1c0.1,0.4,0,0.7-0.1,1.1c-0.1,0.3-0.4,0.6-0.7,0.9
	c-0.3,0.2-0.7,0.4-1,0.4c-0.4,0-0.7,0-1.1-0.2C105,117,104.7,116.7,104.5,116.4z M104.9,116.1c0.3,0.4,0.7,0.6,1.1,0.7
	c0.4,0.1,0.8,0,1.1-0.3c0.3-0.3,0.5-0.6,0.6-1c0-0.4-0.1-0.8-0.5-1.3c-0.2-0.3-0.5-0.5-0.7-0.6c-0.3-0.1-0.5-0.2-0.8-0.2
	c-0.3,0-0.5,0.1-0.7,0.3c-0.3,0.2-0.5,0.6-0.6,1C104.4,115.1,104.6,115.6,104.9,116.1z M106.9,111.6l2-1.7l2.5,2.9l0.3-0.3l1,1.1
	l-0.4,0.3l-0.7-0.8l-2.1,1.9l0.7,0.8l-0.4,0.3l-1-1.1l0.2-0.2c-0.1-0.6-0.6-1.5-1.7-2.7L106.9,111.6z M108.8,110.7l-1.1,1l0.1,0.2
	c0.2,0.3,0.5,0.7,0.9,1.2c0.4,0.5,0.6,1,0.7,1.4l1.5-1.3L108.8,110.7z M113.6,111.2l-3.2-2.8l0.6-0.6l3,1.2c0.3,0.1,0.5,0.2,0.6,0.3
	c-0.1-0.1-0.2-0.3-0.4-0.6l-1.6-2.7l0.5-0.6l3.2,2.8l-0.4,0.4l-2.7-2.4l1.9,3.3l-0.3,0.4l-3.6-1.5l2.8,2.4L113.6,111.2z M115,106.3
	c-0.6-0.4-0.9-0.9-1-1.4c-0.1-0.5,0-1.1,0.4-1.6c0.2-0.3,0.5-0.6,0.9-0.7c0.3-0.2,0.7-0.2,1.1-0.1c0.4,0.1,0.7,0.2,1.1,0.5
	c0.4,0.3,0.6,0.5,0.8,0.9c0.2,0.3,0.2,0.7,0.2,1.1c0,0.4-0.2,0.7-0.4,1c-0.2,0.3-0.5,0.6-0.9,0.7c-0.3,0.1-0.7,0.2-1.1,0.1
	C115.7,106.7,115.3,106.5,115,106.3z M115.4,105.8c0.4,0.3,0.8,0.4,1.2,0.4c0.4-0.1,0.7-0.3,1-0.6c0.2-0.3,0.3-0.7,0.2-1.1
	c-0.1-0.4-0.4-0.8-0.8-1.1c-0.3-0.2-0.6-0.3-0.8-0.4c-0.3-0.1-0.5,0-0.8,0.1c-0.2,0.1-0.5,0.3-0.6,0.5c-0.2,0.3-0.3,0.7-0.3,1.1
	C114.6,105.1,114.9,105.5,115.4,105.8z M119.7,100.1l0.4-0.4c0.3,0.3,0.5,0.7,0.6,1.1c0.1,0.4,0,0.8-0.2,1.2
	c-0.2,0.4-0.5,0.7-0.8,0.8c-0.3,0.2-0.7,0.2-1,0.2c-0.4,0-0.8-0.2-1.1-0.4c-0.4-0.2-0.7-0.5-0.9-0.8c-0.2-0.3-0.3-0.7-0.3-1
	c0-0.4,0.1-0.7,0.3-1c0.2-0.4,0.5-0.6,0.8-0.8c0.3-0.1,0.7-0.2,1.1-0.1l-0.2,0.5c-0.3-0.1-0.6-0.1-0.8,0c-0.2,0.1-0.4,0.3-0.5,0.5
	c-0.2,0.3-0.2,0.6-0.2,0.8c0,0.3,0.1,0.5,0.3,0.7c0.2,0.2,0.4,0.4,0.6,0.5c0.3,0.2,0.6,0.3,0.9,0.3c0.3,0,0.5,0,0.8-0.1
	c0.2-0.1,0.4-0.3,0.5-0.5c0.2-0.3,0.2-0.6,0.2-0.8C120.1,100.6,120,100.4,119.7,100.1L119.7,100.1z M117.7,98l0.2-0.5l1.7,0.8
	c0.1-0.2,0.1-0.4,0.1-0.6c0-0.1-0.2-0.4-0.5-0.7c-0.2-0.2-0.3-0.4-0.4-0.5c-0.1-0.1-0.1-0.3-0.1-0.4c0-0.2,0-0.3,0.1-0.5
	c0.1-0.2,0.1-0.3,0.1-0.3l0.4,0.2c0,0,0,0.1,0,0.1c0,0.1,0,0.1-0.1,0.1c-0.1,0.2-0.1,0.3,0,0.4c0,0.1,0.2,0.3,0.4,0.5
	c0.3,0.3,0.4,0.5,0.5,0.6c0,0.1,0.1,0.3,0.1,0.4c0.2-0.2,0.5-0.4,1-0.4l1.7-0.2l-0.3,0.6l-1.4,0.2c-0.4,0-0.6,0.1-0.8,0.2
	c-0.2,0.1-0.3,0.2-0.4,0.4l1.8,0.8l-0.2,0.5L117.7,98z M123,96.6l-4-1.6l0.6-1.5c0.1-0.3,0.3-0.5,0.4-0.7c0.2-0.2,0.3-0.2,0.5-0.3
	c0.2,0,0.4,0,0.6,0c0.2,0.1,0.3,0.2,0.4,0.3c0.1,0.2,0.2,0.3,0.2,0.6c0.2-0.2,0.4-0.4,0.6-0.4c0.2-0.1,0.4,0,0.7,0
	c0.2,0.1,0.3,0.2,0.5,0.3c0.1,0.1,0.2,0.3,0.3,0.4c0,0.2,0.1,0.3,0,0.5c0,0.2-0.1,0.4-0.2,0.7L123,96.6z M120.9,95.1l0.3-0.9
	c0.1-0.2,0.1-0.4,0.2-0.5c0-0.2,0-0.3-0.1-0.4c-0.1-0.1-0.2-0.2-0.3-0.2c-0.1-0.1-0.3-0.1-0.4,0c-0.1,0-0.2,0.1-0.3,0.2
	c-0.1,0.1-0.2,0.3-0.3,0.6l-0.3,0.8L120.9,95.1z M122.7,95.9l0.4-1c0.1-0.2,0.1-0.3,0.1-0.4c0-0.1,0-0.2,0-0.3
	c0-0.1-0.1-0.2-0.1-0.3c-0.1-0.1-0.2-0.2-0.3-0.2c-0.1-0.1-0.3-0.1-0.4,0c-0.1,0-0.3,0.1-0.4,0.2c-0.1,0.1-0.2,0.3-0.3,0.6l-0.4,0.9
	L122.7,95.9z M124.2,93.5l-3.7-2.8l0.2-0.6l4.6-0.5l-0.2,0.6l-1.4,0.1l-0.5,1.7l1.1,0.8L124.2,93.5z M122.9,91.8l0.4-1.4l-1.3,0.1
	c-0.4,0-0.7,0-0.9,0c0.3,0.1,0.5,0.3,0.7,0.5L122.9,91.8z"/>
<path id="path16" class="st3" d="M50.5,76.2l-0.6,2l0.6,2H50l-1-2l1-2H50.5z M48.9,76.2l-0.6,2l0.6,2h-0.6l-1-2l1-2H48.9z
	 M55.2,81.9c-1.1,0-2-0.5-2.7-1.4c-0.6-0.9-1-2.1-1-3.5c0-1.4,0.3-2.5,1-3.4c0.7-0.9,1.6-1.4,2.7-1.4c1.1,0,2,0.5,2.7,1.4
	c0.7,0.9,1,2.1,1,3.4c0,1.4-0.3,2.6-1,3.5C57.2,81.4,56.4,81.9,55.2,81.9z M55.2,80.5c0.6,0,1-0.3,1.4-0.8c0.4-0.5,0.6-1.4,0.6-2.7
	c0-1.1-0.2-1.9-0.5-2.5c-0.3-0.6-0.8-0.9-1.5-0.9c-1.3,0-2,1.2-2,3.5c0,1.1,0.2,2,0.5,2.6C54.1,80.2,54.6,80.5,55.2,80.5z
	 M60.4,81.7v-9.4h5.4v1.4h-3.9v2.4h1.5c0.8,0,1.4,0.1,1.8,0.2c0.4,0.1,0.8,0.4,1.1,0.9c0.3,0.5,0.4,1,0.4,1.6c0,0.8-0.2,1.5-0.7,2
	c-0.5,0.5-1.2,0.8-2.1,0.8H60.4z M61.9,80.3h1.7c1,0,1.5-0.5,1.5-1.4c0-0.4-0.1-0.7-0.3-1c-0.2-0.3-0.6-0.4-1.3-0.4h-1.6V80.3z
	 M69.7,81.7h-1.6v-9.4h3.5c1,0,1.8,0.3,2.2,0.8c0.5,0.6,0.7,1.2,0.7,2c0,0.9-0.3,1.6-0.8,2.1c-0.5,0.5-1.2,0.8-2,0.8h-2.2V81.7z
	 M69.7,76.6h1.8c0.5,0,0.8-0.1,1.1-0.4c0.3-0.3,0.4-0.6,0.4-1c0-0.4-0.1-0.7-0.3-1c-0.2-0.3-0.7-0.4-1.3-0.4h-1.7V76.6z M82.1,81.7
	h-1.7l-0.7-2.2h-3.3l-0.7,2.2h-1.3l2.9-9.4h1.9L82.1,81.7z M79.3,78.1L78.1,74l-1.3,4.2H79.3z M82.3,79l1.4-0.3
	c0.2,1.2,0.9,1.8,2,1.8c0.6,0,1-0.1,1.3-0.4c0.3-0.3,0.4-0.7,0.4-1.1c0-1-0.5-1.5-1.5-1.5h-0.8v-1.2h0.7c0.4,0,0.8-0.1,1-0.4
	c0.3-0.2,0.4-0.6,0.4-1c0-0.4-0.1-0.7-0.4-1c-0.3-0.2-0.7-0.4-1.1-0.4c-1,0-1.6,0.5-1.8,1.5l-1.4-0.2c0.3-1.8,1.4-2.7,3.2-2.7
	c0.9,0,1.7,0.2,2.2,0.7c0.6,0.5,0.8,1.1,0.8,1.8c0,1-0.5,1.7-1.6,2.1c1.2,0.3,1.8,1,1.8,2.2c0,0.8-0.3,1.5-0.9,2.1
	c-0.6,0.6-1.4,0.9-2.5,0.9c-1,0-1.8-0.3-2.4-0.8C82.7,80.6,82.4,79.9,82.3,79z M96.1,81.7h-5.6v-9.4H96v1.4h-4v2.5h3.2v1.4H92v2.6
	h4.1L96.1,81.7z M97.5,81.7v-9.4h1.6v7.9h3.1v-7.9h1.5v7.9h1.1v3.4h-1.1l-0.2-2H97.5z M105.4,76.3h0.6l1,2l-1,1.9h-0.6l0.6-1.9
	L105.4,76.3z M107,76.3h0.6l1,2l-1,1.9H107l0.6-1.9L107,76.3z"/>
<path id="path18" class="st3" d="M31.9,84.9c0-0.2-0.1-0.4-0.1-0.7c-0.1-0.3-0.2-0.5-0.2-0.7c0-0.2,0-0.3,0.1-0.4
	c0.1-0.1,0.2-0.1,0.3-0.1c0.1,0,0.2,0,0.3,0.1c0.1,0.1,0.1,0.2,0.1,0.4c0,0.1,0,0.3-0.1,0.6c-0.1,0.3-0.1,0.5-0.2,0.7
	c0.2-0.1,0.3-0.3,0.5-0.4c0.2-0.3,0.4-0.4,0.5-0.5c0.1-0.1,0.2-0.1,0.3-0.1c0.1,0,0.2,0,0.3,0.1c0.1,0.1,0.1,0.2,0.1,0.3
	c0,0.1-0.1,0.2-0.2,0.3c-0.1,0.1-0.4,0.2-0.8,0.3c-0.2,0.1-0.5,0.1-0.6,0.2c0.2,0.1,0.4,0.2,0.6,0.2c0.4,0.1,0.7,0.2,0.8,0.3
	c0.1,0.1,0.2,0.2,0.2,0.4c0,0.1,0,0.2-0.1,0.3c-0.1,0.1-0.2,0.1-0.3,0.1c-0.1,0-0.2,0-0.3-0.1c-0.1-0.1-0.3-0.2-0.5-0.5
	c-0.1-0.2-0.3-0.3-0.5-0.5c0,0.2,0,0.4,0.1,0.6c0.1,0.4,0.2,0.6,0.2,0.8c0,0.1,0,0.2-0.1,0.3c-0.1,0.1-0.2,0.1-0.2,0.1
	c-0.1,0-0.2,0-0.3-0.1c-0.1-0.1-0.1-0.2-0.1-0.3c0-0.2,0-0.3,0.1-0.6c0.1-0.2,0.1-0.4,0.1-0.5c0-0.1,0-0.2,0.1-0.4
	c-0.2,0.1-0.4,0.3-0.5,0.4c-0.2,0.3-0.4,0.4-0.5,0.5c-0.1,0.1-0.2,0.1-0.3,0.1c-0.1,0-0.2,0-0.3-0.1c-0.1-0.1-0.1-0.2-0.1-0.2
	c0-0.1,0-0.2,0.1-0.3c0.1-0.1,0.2-0.2,0.3-0.2c0.1,0,0.3-0.1,0.6-0.2c0.2,0,0.4-0.1,0.6-0.2c-0.2-0.1-0.4-0.2-0.6-0.2
	c-0.4-0.1-0.6-0.2-0.7-0.2c-0.1-0.1-0.2-0.2-0.2-0.4c0-0.1,0-0.2,0.1-0.2c0.1-0.1,0.2-0.1,0.3-0.1c0.1,0,0.2,0,0.3,0.1
	c0.1,0.1,0.3,0.2,0.4,0.4C31.5,84.6,31.7,84.8,31.9,84.9z"/>
<path id="path20" class="st3" d="M123.5,84.9c0-0.2-0.1-0.4-0.1-0.7c-0.1-0.3-0.2-0.5-0.2-0.7c0-0.2,0-0.3,0.1-0.4
	c0.1-0.1,0.2-0.1,0.3-0.1c0.1,0,0.2,0,0.3,0.1c0.1,0.1,0.1,0.2,0.1,0.4c0,0.1,0,0.3-0.1,0.6c-0.1,0.3-0.1,0.5-0.2,0.7
	c0.2-0.1,0.3-0.3,0.5-0.4c0.2-0.3,0.4-0.4,0.5-0.5c0.1-0.1,0.2-0.1,0.3-0.1c0.1,0,0.2,0,0.3,0.1c0.1,0.1,0.1,0.2,0.1,0.3
	c0,0.1-0.1,0.2-0.2,0.3c-0.1,0.1-0.4,0.2-0.8,0.3c-0.2,0.1-0.5,0.1-0.6,0.2c0.2,0.1,0.4,0.2,0.6,0.2c0.4,0.1,0.7,0.2,0.8,0.3
	c0.1,0.1,0.2,0.2,0.2,0.4c0,0.1,0,0.2-0.1,0.3c-0.1,0.1-0.2,0.1-0.3,0.1c-0.1,0-0.2,0-0.3-0.1c-0.1-0.1-0.3-0.2-0.5-0.5
	c-0.1-0.2-0.3-0.3-0.5-0.5c0,0.2,0,0.4,0.1,0.6c0.1,0.4,0.2,0.6,0.2,0.8c0,0.1,0,0.2-0.1,0.3c-0.1,0.1-0.2,0.1-0.2,0.1
	c-0.1,0-0.2,0-0.3-0.1c-0.1-0.1-0.1-0.2-0.1-0.3c0-0.2,0-0.3,0.1-0.6c0.1-0.2,0.1-0.4,0.1-0.5c0-0.1,0-0.2,0.1-0.4
	c-0.2,0.1-0.4,0.3-0.5,0.4c-0.2,0.3-0.4,0.4-0.5,0.5c-0.1,0.1-0.2,0.1-0.3,0.1c-0.1,0-0.2,0-0.3-0.1c-0.1-0.1-0.1-0.2-0.1-0.2
	c0-0.1,0-0.2,0.1-0.3c0.1-0.1,0.2-0.2,0.3-0.2c0.1,0,0.3-0.1,0.6-0.2c0.2,0,0.4-0.1,0.6-0.2c-0.2-0.1-0.4-0.2-0.6-0.2
	c-0.4-0.1-0.6-0.2-0.7-0.2c-0.1-0.1-0.2-0.2-0.2-0.4c0-0.1,0-0.2,0.1-0.2c0.1-0.1,0.2-0.1,0.3-0.1c0.1,0,0.2,0,0.3,0.1
	c0.1,0.1,0.3,0.2,0.4,0.4C123.1,84.6,123.3,84.8,123.5,84.9z"/>
<g>
	<path class="st4" d="M37.9,72.7c0.2,0.1,0.4,0.1,0.9,0.2c0.4,0.1,0.7,0.1,0.8,0c0.2,0,0.3-0.1,0.3-0.1c0.1-0.1,0.1-0.1,0.1-0.2
		c0-0.1,0-0.2,0-0.2c0-0.1-0.1-0.1-0.3-0.2c-0.2-0.1-0.4-0.1-0.9-0.2C38.4,72,38.2,72,38,72c-0.2,0-0.3,0.1-0.3,0.1
		c-0.1,0.1-0.1,0.1-0.1,0.2c0,0.1,0,0.2,0,0.2C37.7,72.6,37.8,72.7,37.9,72.7z"/>
	<path class="st4" d="M49.4,51.8c0.1,0.1,0.2,0.1,0.3,0.1c0.1,0,0.1,0,0.2-0.1c0.1-0.1,0.1-0.1,0.1-0.2c0-0.1,0-0.2-0.1-0.3
		c-0.1-0.1-0.3-0.4-0.6-0.6c-0.3-0.3-0.5-0.5-0.6-0.5c-0.1-0.1-0.2-0.1-0.3-0.1c-0.1,0-0.1,0-0.2,0.1c-0.1,0.1-0.1,0.1-0.1,0.2
		c0,0.1,0,0.2,0.1,0.3c0.1,0.2,0.3,0.4,0.6,0.6C49.1,51.6,49.3,51.7,49.4,51.8z"/>
	<path class="st4" d="M37.6,76c0.2,0.1,0.5,0.1,0.9,0.1c0.4,0,0.7,0,0.8,0c0.2,0,0.3-0.1,0.3-0.1c0.1-0.1,0.1-0.1,0.1-0.2
		c0-0.1,0-0.2-0.1-0.2c0-0.1-0.1-0.1-0.3-0.2c-0.2-0.1-0.5-0.1-0.9-0.1c-0.4,0-0.7,0-0.8,0c-0.2,0-0.3,0.1-0.3,0.1
		c-0.1,0.1-0.1,0.1-0.1,0.2c0,0.1,0,0.2,0.1,0.2C37.4,75.9,37.4,76,37.6,76z"/>
	<path class="st4" d="M53.6,46.8c0.3,0.3,0.4,0.5,0.6,0.6c0.1,0.1,0.2,0.1,0.3,0.1c0.1,0,0.1,0,0.2-0.1c0.1,0,0.1-0.1,0.1-0.2
		c0-0.1,0-0.2-0.1-0.3c-0.1-0.2-0.2-0.4-0.5-0.7c-0.3-0.3-0.4-0.5-0.6-0.6c-0.1-0.1-0.2-0.1-0.3-0.1c-0.1,0-0.2,0-0.2,0.1
		c-0.1,0-0.1,0.1-0.1,0.2c0,0.1,0,0.2,0.1,0.3C53.2,46.3,53.3,46.5,53.6,46.8z"/>
	<path class="st4" d="M62.5,42.5c0.1,0.1,0.2,0.2,0.3,0.2c0.1,0,0.2,0,0.2,0c0.1,0,0.1-0.1,0.2-0.2c0-0.1,0-0.2,0-0.3
		c0-0.2-0.1-0.4-0.3-0.8c-0.2-0.4-0.3-0.6-0.4-0.7c-0.1-0.1-0.2-0.2-0.3-0.2c-0.1,0-0.2,0-0.2,0c-0.1,0-0.1,0.1-0.2,0.2
		c0,0.1,0,0.2,0,0.3c0,0.2,0.1,0.4,0.3,0.8C62.3,42.1,62.4,42.3,62.5,42.5z"/>
	<path class="st4" d="M51.1,48.9c0.3,0.3,0.5,0.5,0.6,0.6c0.1,0.1,0.2,0.1,0.3,0.1c0.1,0,0.1,0,0.2-0.1c0.1-0.1,0.1-0.1,0.1-0.2
		c0-0.1,0-0.2-0.1-0.3c-0.1-0.2-0.3-0.4-0.5-0.7c-0.3-0.3-0.5-0.5-0.6-0.6c-0.1-0.1-0.2-0.1-0.3-0.1c-0.1,0-0.1,0-0.2,0.1
		c-0.1,0.1-0.1,0.1-0.1,0.2c0,0.1,0,0.2,0.1,0.3C50.7,48.4,50.8,48.6,51.1,48.9z"/>
	<path class="st4" d="M56.3,44.9c0.2,0.3,0.4,0.6,0.5,0.7c0.1,0.1,0.2,0.2,0.3,0.2c0.1,0,0.2,0,0.2,0c0.1,0,0.1-0.1,0.1-0.2
		c0-0.1,0-0.2,0-0.3c-0.1-0.2-0.2-0.4-0.4-0.8c-0.2-0.3-0.4-0.6-0.5-0.7c-0.1-0.1-0.2-0.2-0.3-0.2c-0.1,0-0.2,0-0.2,0
		c-0.1,0-0.1,0.1-0.1,0.2c0,0.1,0,0.2,0,0.3C55.9,44.3,56.1,44.5,56.3,44.9z"/>
	<path class="st4" d="M37.6,79.4c0.2,0,0.5,0.1,0.9,0c0.4,0,0.7,0,0.8-0.1c0.2,0,0.3-0.1,0.3-0.2c0-0.1,0.1-0.1,0.1-0.2
		c0-0.1,0-0.1-0.1-0.2c-0.1-0.1-0.1-0.1-0.3-0.1c-0.2,0-0.5-0.1-0.9,0c-0.4,0-0.7,0-0.8,0.1c-0.2,0-0.3,0.1-0.3,0.2
		c-0.1,0.1-0.1,0.1-0.1,0.2c0,0.1,0,0.1,0.1,0.2C37.3,79.4,37.4,79.4,37.6,79.4z"/>
	<path class="st4" d="M50.6,104.9c-0.1,0-0.2,0-0.3,0.1c-0.2,0.1-0.4,0.3-0.7,0.5c-0.3,0.3-0.5,0.5-0.6,0.6
		c-0.1,0.1-0.1,0.2-0.1,0.3c0,0.1,0,0.1,0.1,0.2c0.1,0.1,0.1,0.1,0.2,0.1c0.1,0,0.2,0,0.3-0.1c0.2-0.1,0.4-0.3,0.7-0.5
		c0.3-0.3,0.5-0.5,0.6-0.6c0.1-0.1,0.1-0.2,0.1-0.3c0-0.1,0-0.1-0.1-0.2C50.7,104.9,50.6,104.9,50.6,104.9z"/>
	<path class="st4" d="M43.4,94.7c0-0.1,0-0.2,0-0.2c0-0.1-0.1-0.1-0.2-0.2c-0.1,0-0.2,0-0.3,0c-0.2,0-0.4,0.1-0.8,0.3
		c-0.4,0.2-0.6,0.3-0.7,0.4c-0.1,0.1-0.2,0.2-0.2,0.3c0,0.1,0,0.2,0,0.2c0,0.1,0.1,0.1,0.2,0.2c0.1,0,0.2,0,0.3,0
		c0.2,0,0.4-0.1,0.8-0.3c0.4-0.2,0.6-0.3,0.7-0.4C43.3,94.9,43.4,94.8,43.4,94.7z"/>
	<path class="st4" d="M46.7,100.3c0-0.1,0-0.2-0.1-0.2c0-0.1-0.1-0.1-0.2-0.1c-0.1,0-0.2,0-0.3,0c-0.2,0.1-0.4,0.2-0.7,0.4
		c-0.3,0.2-0.5,0.4-0.6,0.5c-0.1,0.1-0.2,0.2-0.2,0.3c0,0.1,0,0.2,0.1,0.2c0,0.1,0.1,0.1,0.2,0.1c0.1,0,0.2,0,0.3,0
		c0.2-0.1,0.4-0.2,0.7-0.4c0.3-0.2,0.5-0.4,0.6-0.5C46.7,100.4,46.7,100.3,46.7,100.3z"/>
	<path class="st4" d="M39.5,82.7c0.1-0.1,0.2-0.1,0.3-0.2c0-0.1,0.1-0.1,0-0.2c0-0.1,0-0.1-0.1-0.2c-0.1-0.1-0.2-0.1-0.3-0.1
		c-0.2,0-0.5,0-0.9,0c-0.4,0.1-0.7,0.1-0.8,0.2c-0.1,0.1-0.2,0.1-0.3,0.2c0,0.1-0.1,0.1,0,0.2c0,0.1,0,0.1,0.1,0.2
		c0.1,0.1,0.2,0.1,0.3,0.1c0.2,0,0.5,0,0.9,0C39.1,82.8,39.4,82.7,39.5,82.7z"/>
	<path class="st4" d="M48.7,102.8c0-0.1,0-0.1-0.1-0.2c-0.1-0.1-0.1-0.1-0.2-0.1c-0.1,0-0.2,0-0.3,0.1c-0.2,0.1-0.4,0.2-0.7,0.5
		c-0.3,0.3-0.5,0.5-0.6,0.6c-0.1,0.1-0.1,0.2-0.1,0.3c0,0.1,0,0.1,0.1,0.2c0.1,0.1,0.1,0.1,0.2,0.1c0.1,0,0.2,0,0.3-0.1
		c0.2-0.1,0.4-0.3,0.7-0.5c0.3-0.3,0.5-0.5,0.6-0.6C48.7,103,48.7,102.9,48.7,102.8z"/>
	<path class="st4" d="M44.9,97.6c0-0.1,0-0.2,0-0.2c0-0.1-0.1-0.1-0.2-0.1c-0.1,0-0.2,0-0.3,0c-0.2,0-0.4,0.2-0.8,0.4
		c-0.4,0.2-0.6,0.4-0.7,0.5c-0.1,0.1-0.2,0.2-0.2,0.3c0,0.1,0,0.2,0,0.2c0,0.1,0.1,0.1,0.2,0.1c0.1,0,0.2,0,0.3,0
		c0.2,0,0.4-0.2,0.8-0.4c0.4-0.2,0.6-0.4,0.7-0.5C44.9,97.7,44.9,97.7,44.9,97.6z"/>
	<path class="st4" d="M40,85.8c0.1-0.1,0.2-0.1,0.3-0.2c0-0.1,0.1-0.1,0-0.2c0-0.1-0.1-0.1-0.1-0.2c-0.1-0.1-0.2-0.1-0.3-0.1
		c-0.2,0-0.5,0-0.9,0.1c-0.4,0.1-0.7,0.1-0.8,0.2c-0.1,0.1-0.2,0.1-0.3,0.2c0,0.1-0.1,0.1,0,0.2c0,0.1,0.1,0.1,0.1,0.2
		c0.1,0.1,0.2,0.1,0.3,0.1c0.2,0,0.5,0,0.9-0.1C39.6,86,39.9,85.9,40,85.8z"/>
	<path class="st4" d="M42.1,91.8c0-0.1,0-0.1,0-0.2c0-0.1-0.1-0.1-0.1-0.2c-0.1,0-0.2,0-0.3,0c-0.2,0-0.5,0.1-0.8,0.3
		c-0.4,0.2-0.6,0.3-0.8,0.4c-0.1,0.1-0.2,0.2-0.2,0.3c0,0.1,0,0.2,0,0.2c0,0.1,0.1,0.1,0.1,0.2c0.1,0,0.2,0.1,0.3,0
		c0.2,0,0.5-0.1,0.8-0.3c0.4-0.2,0.6-0.3,0.8-0.4C42,92,42.1,91.9,42.1,91.8z"/>
	<path class="st4" d="M40.9,89c0.1-0.1,0.2-0.2,0.3-0.2c0-0.1,0-0.1,0-0.2c0-0.1-0.1-0.1-0.1-0.2c-0.1,0-0.2-0.1-0.3-0.1
		c-0.2,0-0.5,0.1-0.9,0.2c-0.4,0.1-0.7,0.2-0.8,0.3c-0.1,0.1-0.2,0.2-0.3,0.2c0,0.1,0,0.1,0,0.2c0,0.1,0.1,0.1,0.1,0.2
		c0.1,0,0.2,0.1,0.3,0.1c0.2,0,0.5-0.1,0.9-0.2C40.5,89.2,40.7,89.1,40.9,89z"/>
	<path class="st4" d="M59.6,43.9c0.1,0.1,0.2,0.2,0.3,0.2c0.1,0,0.2,0,0.2,0c0.1,0,0.1-0.1,0.2-0.2c0-0.1,0-0.2,0-0.3
		c0-0.2-0.2-0.4-0.3-0.8c-0.2-0.4-0.3-0.6-0.4-0.7c-0.1-0.1-0.2-0.2-0.3-0.2c-0.1,0-0.2,0-0.2,0c-0.1,0-0.1,0.1-0.2,0.2
		c0,0.1,0,0.2,0,0.3c0,0.2,0.2,0.4,0.3,0.8C59.3,43.5,59.5,43.8,59.6,43.9z"/>
	<path class="st4" d="M115.5,68.6c-0.1,0.1-0.2,0.1-0.3,0.2c0,0.1,0,0.1,0,0.2c0,0.1,0.1,0.1,0.1,0.2c0.1,0,0.2,0.1,0.3,0.1
		c0.2,0,0.5,0,0.9-0.1c0.4-0.1,0.7-0.2,0.8-0.2c0.1-0.1,0.2-0.1,0.3-0.2c0-0.1,0-0.1,0-0.2c0-0.1-0.1-0.1-0.1-0.2
		c-0.1,0-0.2-0.1-0.3-0.1c-0.2,0-0.5,0-0.9,0.1C115.9,68.5,115.7,68.6,115.5,68.6z"/>
	<path class="st4" d="M113.2,62.7c0,0.1,0,0.2,0,0.2c0,0.1,0.1,0.1,0.2,0.2c0.1,0,0.2,0,0.3,0c0.2,0,0.4-0.1,0.8-0.3
		c0.4-0.2,0.6-0.3,0.7-0.4s0.2-0.2,0.2-0.3c0-0.1,0-0.2,0-0.2c0-0.1-0.1-0.1-0.2-0.2c-0.1,0-0.2,0-0.3,0c-0.2,0-0.4,0.1-0.8,0.3
		c-0.4,0.2-0.6,0.3-0.7,0.4C113.3,62.6,113.2,62.7,113.2,62.7z"/>
	<path class="st4" d="M114.6,65.5c-0.1,0.1-0.2,0.2-0.2,0.2c0,0.1,0,0.1,0,0.2c0,0.1,0.1,0.1,0.1,0.2c0.1,0,0.2,0.1,0.3,0
		c0.2,0,0.5-0.1,0.8-0.2c0.4-0.1,0.6-0.2,0.8-0.3c0.1-0.1,0.2-0.2,0.2-0.2c0-0.1,0-0.1,0-0.2c0-0.1-0.1-0.1-0.1-0.2
		c-0.1,0-0.2-0.1-0.3,0c-0.2,0-0.5,0.1-0.8,0.2C115,65.3,114.7,65.4,114.6,65.5z"/>
	<path class="st4" d="M108.3,54.5c0,0.1,0,0.2,0.1,0.2c0,0.1,0.1,0.1,0.2,0.1c0.1,0,0.2,0,0.3-0.1c0.2-0.1,0.4-0.2,0.7-0.5
		c0.3-0.3,0.5-0.4,0.6-0.6c0.1-0.1,0.1-0.2,0.1-0.3c0-0.1,0-0.2-0.1-0.2c0-0.1-0.1-0.1-0.2-0.1c-0.1,0-0.2,0-0.3,0.1
		c-0.2,0.1-0.4,0.2-0.7,0.5c-0.3,0.3-0.5,0.4-0.6,0.6C108.4,54.3,108.3,54.4,108.3,54.5z"/>
	<path class="st4" d="M110.2,57.1c0,0.1,0,0.2,0.1,0.2c0,0.1,0.1,0.1,0.2,0.1c0.1,0,0.2,0,0.3,0c0.2-0.1,0.4-0.2,0.8-0.4
		c0.3-0.2,0.6-0.4,0.7-0.5c0.1-0.1,0.2-0.2,0.2-0.3c0-0.1,0-0.2,0-0.2c0-0.1-0.1-0.1-0.2-0.1c-0.1,0-0.2,0-0.3,0
		c-0.2,0.1-0.4,0.2-0.8,0.4c-0.3,0.2-0.6,0.4-0.7,0.5C110.2,56.9,110.2,57,110.2,57.1z"/>
	<path class="st4" d="M118.4,78.3c-0.2,0-0.5-0.1-0.9-0.1c-0.4,0-0.7,0-0.8,0c-0.2,0-0.3,0.1-0.3,0.1c-0.1,0.1-0.1,0.1-0.1,0.2
		c0,0.1,0,0.2,0.1,0.2c0,0.1,0.1,0.1,0.3,0.1c0.2,0,0.5,0.1,0.9,0.1c0.4,0,0.7,0,0.8,0c0.2,0,0.3-0.1,0.3-0.1
		c0.1-0.1,0.1-0.1,0.1-0.2c0-0.1,0-0.2-0.1-0.2C118.6,78.4,118.5,78.4,118.4,78.3z"/>
	<path class="st4" d="M116.2,71.8c-0.1,0.1-0.2,0.1-0.3,0.2c0,0.1-0.1,0.1,0,0.2c0,0.1,0,0.1,0.1,0.2c0.1,0.1,0.2,0.1,0.3,0.1
		c0.2,0,0.5,0,0.9,0c0.4-0.1,0.7-0.1,0.8-0.2c0.1-0.1,0.2-0.1,0.3-0.2c0-0.1,0.1-0.1,0-0.2c0-0.1,0-0.1-0.1-0.2
		c-0.1-0.1-0.2-0.1-0.3-0.1c-0.2,0-0.5,0-0.9,0C116.6,71.7,116.3,71.8,116.2,71.8z"/>
	<path class="st4" d="M118.2,74.9c-0.2,0-0.5,0-0.9,0c-0.4,0-0.7,0.1-0.8,0.1c-0.1,0.1-0.2,0.1-0.3,0.2c0,0.1-0.1,0.1-0.1,0.2
		c0,0.1,0,0.1,0.1,0.2c0.1,0.1,0.2,0.1,0.3,0.1c0.2,0,0.5,0,0.9,0c0.4,0,0.7-0.1,0.8-0.1c0.1-0.1,0.2-0.1,0.3-0.2
		c0-0.1,0.1-0.1,0.1-0.2c0-0.1,0-0.1-0.1-0.2C118.5,75,118.4,74.9,118.2,74.9z"/>
	<path class="st4" d="M101.9,47.9c0.1,0,0.2,0,0.3-0.1c0.1-0.1,0.3-0.3,0.6-0.6c0.3-0.3,0.4-0.5,0.5-0.7c0.1-0.1,0.1-0.3,0.1-0.3
		c0-0.1-0.1-0.1-0.1-0.2c-0.1,0-0.1-0.1-0.2-0.1c-0.1,0-0.2,0-0.3,0.1c-0.1,0.1-0.3,0.3-0.6,0.6c-0.3,0.3-0.4,0.6-0.5,0.7
		c-0.1,0.1-0.1,0.3-0.1,0.3c0,0.1,0.1,0.1,0.1,0.2C101.7,47.9,101.8,47.9,101.9,47.9z"/>
	<path class="st4" d="M84.1,40.1c0.3,0,0.5,0,0.7-0.2c0.2-0.2,0.4-0.4,0.4-0.8c0.1-0.4,0-0.7-0.1-0.9c-0.1-0.2-0.3-0.4-0.6-0.4
		c-0.3,0-0.5,0-0.7,0.2c-0.2,0.2-0.3,0.4-0.4,0.8c-0.1,0.4,0,0.7,0.1,0.9C83.7,39.9,83.9,40,84.1,40.1z"/>
	<path class="st4" d="M71.8,39.7C71.9,39.9,72,40,72,40c0.1,0,0.1,0.1,0.2,0c0.1,0,0.1,0,0.2-0.1c0.1-0.1,0.1-0.2,0.1-0.3
		c0-0.2,0-0.5,0-0.9c-0.1-0.4-0.1-0.7-0.2-0.8c-0.1-0.1-0.1-0.2-0.2-0.3c-0.1,0-0.1-0.1-0.2,0c-0.1,0-0.1,0-0.2,0.1
		c-0.1,0.1-0.1,0.2-0.1,0.3c0,0.2,0,0.5,0,0.9C71.7,39.3,71.8,39.6,71.8,39.7z"/>
	<path class="st4" d="M68.6,40.4c0.1,0.1,0.1,0.2,0.2,0.3c0.1,0,0.1,0,0.2,0c0.1,0,0.1-0.1,0.2-0.1c0-0.1,0.1-0.2,0.1-0.3
		c0-0.2,0-0.5-0.1-0.9C69.1,39,69,38.7,69,38.6c-0.1-0.1-0.1-0.2-0.2-0.3c-0.1,0-0.1,0-0.2,0c-0.1,0-0.1,0.1-0.2,0.1
		c0,0.1-0.1,0.2-0.1,0.3c0,0.2,0,0.5,0.1,0.9C68.5,40,68.6,40.2,68.6,40.4z"/>
	<path class="st4" d="M106.5,52.3c0.1,0,0.2,0,0.3-0.1c0.2-0.1,0.4-0.2,0.7-0.5c0.3-0.3,0.5-0.5,0.6-0.6c0.1-0.1,0.1-0.2,0.1-0.3
		c0-0.1,0-0.1-0.1-0.2c-0.1-0.1-0.1-0.1-0.2-0.1c-0.1,0-0.2,0-0.3,0.1c-0.2,0.1-0.4,0.3-0.7,0.5c-0.3,0.3-0.5,0.5-0.6,0.6
		c-0.1,0.1-0.1,0.2-0.1,0.3s0,0.1,0.1,0.2C106.4,52.3,106.5,52.3,106.5,52.3z"/>
	<path class="st4" d="M92,40.8c0.1,0,0.2,0,0.3-0.1c0.1-0.1,0.1-0.1,0.2-0.2c0-0.1,0-0.2,0-0.3c0-0.1-0.1-0.2-0.2-0.2
		c-0.1,0-0.2-0.1-0.5-0.2l-0.3-0.1l-0.4,0.9l0.4,0.1C91.8,40.7,92,40.8,92,40.8z"/>
	<path class="st4" d="M104.3,50c0.1,0,0.2,0,0.3-0.1c0.1-0.1,0.4-0.3,0.6-0.6c0.3-0.3,0.5-0.5,0.5-0.6c0.1-0.1,0.1-0.2,0.1-0.3
		c0-0.1,0-0.1-0.1-0.2c-0.1-0.1-0.1-0.1-0.2-0.1c-0.1,0-0.2,0-0.3,0.1c-0.2,0.1-0.4,0.3-0.6,0.6c-0.3,0.3-0.5,0.5-0.5,0.6
		c-0.1,0.1-0.1,0.2-0.1,0.3c0,0.1,0,0.1,0.1,0.2C104.1,50,104.2,50,104.3,50z"/>
	<path class="st4" d="M65.5,41.3c0.1,0.1,0.2,0.2,0.2,0.2c0.1,0,0.1,0,0.2,0c0.1,0,0.1-0.1,0.2-0.1c0-0.1,0.1-0.2,0-0.3
		c0-0.2-0.1-0.5-0.2-0.8c-0.1-0.4-0.2-0.6-0.3-0.8c-0.1-0.1-0.2-0.2-0.2-0.2c-0.1,0-0.1,0-0.2,0c-0.1,0-0.1,0.1-0.2,0.1
		c0,0.1-0.1,0.2,0,0.3c0,0.2,0.1,0.5,0.2,0.8C65.3,40.9,65.4,41.2,65.5,41.3z"/>
	<path class="st4" d="M99.3,46c0.1,0,0.2-0.1,0.3-0.2c0.1-0.1,0.3-0.4,0.5-0.7c0.2-0.3,0.4-0.6,0.4-0.7c0-0.1,0.1-0.3,0-0.3
		c0-0.1-0.1-0.1-0.1-0.2c-0.1,0-0.1-0.1-0.2,0c-0.1,0-0.2,0.1-0.3,0.2c-0.1,0.1-0.3,0.4-0.5,0.7c-0.2,0.3-0.4,0.6-0.4,0.7
		c0,0.2-0.1,0.3,0,0.3c0,0.1,0.1,0.1,0.1,0.2C99.1,46,99.2,46,99.3,46z"/>
	<path class="st4" d="M111.8,59.9c0,0.1,0,0.2,0,0.2c0,0.1,0.1,0.1,0.2,0.2c0.1,0,0.2,0,0.3,0c0.2,0,0.4-0.2,0.8-0.3
		c0.4-0.2,0.6-0.3,0.7-0.4c0.1-0.1,0.2-0.2,0.2-0.3c0-0.1,0-0.2,0-0.2c0-0.1-0.1-0.1-0.2-0.2c-0.1,0-0.2,0-0.3,0
		c-0.2,0-0.4,0.2-0.8,0.3c-0.4,0.2-0.6,0.3-0.7,0.4C111.9,59.7,111.8,59.8,111.8,59.9z"/>
	<path class="st4" d="M94.7,112.8c-0.1-0.1-0.2-0.2-0.3-0.2c-0.1,0-0.2,0-0.2,0c-0.1,0-0.1,0.1-0.2,0.2c0,0.1,0,0.2,0,0.3
		c0,0.2,0.1,0.4,0.3,0.8c0.2,0.4,0.3,0.6,0.4,0.7c0.1,0.1,0.2,0.2,0.3,0.2c0.1,0,0.2,0,0.2,0h0c0.1,0,0.1-0.1,0.2-0.2
		c0-0.1,0-0.2,0-0.3c0-0.2-0.1-0.4-0.3-0.8C95,113.2,94.8,113,94.7,112.8z"/>
	<path class="st4" d="M98.1,112c-0.2-0.4-0.4-0.6-0.5-0.7c-0.1-0.1-0.2-0.2-0.3-0.2c-0.1,0-0.2,0-0.2,0c-0.1,0-0.1,0.1-0.1,0.2
		c0,0.1,0,0.2,0,0.3c0,0.2,0.2,0.4,0.4,0.8c0.2,0.4,0.4,0.6,0.5,0.7c0.1,0.1,0.2,0.2,0.3,0.2c0.1,0,0.2,0,0.2,0
		c0.1,0,0.1-0.1,0.1-0.2c0-0.1,0-0.2,0-0.3C98.4,112.6,98.3,112.4,98.1,112z"/>
	<path class="st4" d="M100.9,110.2c-0.2-0.3-0.4-0.5-0.5-0.7s-0.2-0.2-0.3-0.2c-0.1,0-0.2,0-0.2,0.1c-0.1,0-0.1,0.1-0.1,0.2
		c0,0.1,0,0.2,0,0.3c0.1,0.2,0.2,0.4,0.4,0.7c0.2,0.3,0.4,0.5,0.5,0.6c0.1,0.1,0.2,0.2,0.3,0.2c0.1,0,0.2,0,0.2-0.1v0
		c0.1,0,0.1-0.1,0.1-0.2c0-0.1,0-0.2,0-0.3C101.2,110.8,101.1,110.5,100.9,110.2z"/>
	<path class="st4" d="M62.5,114.6c-0.1,0-0.2,0-0.3,0.1c-0.1,0.1-0.1,0.1-0.2,0.2c0,0.1,0,0.2,0,0.3c0,0.1,0.1,0.2,0.2,0.2
		c0.1,0,0.2,0.1,0.5,0.2l0.3,0.1l0.4-0.9l-0.4-0.1C62.8,114.7,62.6,114.6,62.5,114.6z"/>
	<path class="st4" d="M85.5,115.9c-0.1-0.1-0.1-0.2-0.2-0.3c-0.1,0-0.1-0.1-0.2,0c-0.1,0-0.1,0.1-0.2,0.1c-0.1,0.1-0.1,0.2-0.1,0.3
		c0,0.2,0,0.5,0.1,0.9c0.1,0.4,0.1,0.7,0.2,0.8c0.1,0.1,0.1,0.2,0.2,0.3c0.1,0,0.1,0.1,0.2,0c0.1,0,0.1-0.1,0.2-0.1
		c0.1-0.1,0.1-0.2,0.1-0.3c0-0.2,0-0.5-0.1-0.9C85.7,116.3,85.6,116.1,85.5,115.9z"/>
	<path class="st4" d="M91.8,114.1c-0.1-0.1-0.2-0.2-0.3-0.2c-0.1,0-0.2,0-0.2,0c-0.1,0-0.1,0.1-0.2,0.1c0,0.1,0,0.2,0,0.3
		c0,0.2,0.1,0.5,0.3,0.8c0.2,0.4,0.3,0.6,0.4,0.8c0.1,0.1,0.2,0.2,0.3,0.2c0.1,0,0.2,0,0.2,0v0c0.1,0,0.1-0.1,0.2-0.1
		c0-0.1,0.1-0.2,0-0.3c0-0.2-0.1-0.5-0.3-0.8C92,114.5,91.9,114.2,91.8,114.1z"/>
	<path class="st4" d="M88.7,115.1c-0.1-0.1-0.2-0.2-0.2-0.3c-0.1,0-0.1,0-0.2,0c-0.1,0-0.1,0.1-0.2,0.1c0,0.1-0.1,0.2-0.1,0.3
		c0,0.2,0.1,0.5,0.2,0.9c0.1,0.4,0.2,0.7,0.3,0.8c0.1,0.1,0.2,0.2,0.2,0.3c0.1,0,0.1,0,0.2,0c0.1,0,0.1-0.1,0.2-0.1
		c0-0.1,0.1-0.2,0.1-0.3c0-0.2-0.1-0.5-0.2-0.9C88.9,115.5,88.8,115.3,88.7,115.1z"/>
	<path class="st4" d="M70.3,115.6c-0.3,0-0.5,0-0.7,0.2c-0.2,0.2-0.4,0.4-0.4,0.8c-0.1,0.4,0,0.7,0.1,0.9c0.1,0.2,0.3,0.4,0.6,0.4
		c0.3,0,0.5,0,0.7-0.2c0.2-0.2,0.3-0.4,0.4-0.8c0.1-0.4,0-0.7-0.1-0.9C70.8,115.8,70.6,115.6,70.3,115.6z"/>
	<path class="st4" d="M108.1,103.5c-0.3-0.3-0.5-0.4-0.7-0.5c-0.1-0.1-0.3-0.1-0.3-0.1c-0.1,0-0.1,0-0.2,0.1
		c-0.1,0.1-0.1,0.1-0.1,0.2c0,0.1,0,0.2,0.1,0.3c0.1,0.1,0.3,0.4,0.6,0.6c0.3,0.3,0.5,0.4,0.7,0.5c0.1,0.1,0.3,0.1,0.3,0.1
		c0.1,0,0.1,0,0.2-0.1c0.1-0.1,0.1-0.1,0.1-0.2c0-0.1,0-0.2-0.1-0.3C108.7,104,108.4,103.7,108.1,103.5z"/>
	<path class="st4" d="M105.3,105.4c-0.1-0.1-0.2-0.1-0.3-0.1c-0.1,0-0.1,0-0.2,0.1c-0.1,0.1-0.1,0.1-0.1,0.2c0,0.1,0,0.2,0.1,0.3
		c0.1,0.2,0.3,0.4,0.5,0.7c0.3,0.3,0.5,0.5,0.6,0.6c0.1,0.1,0.2,0.1,0.3,0.1c0.1,0,0.1,0,0.2-0.1c0.1-0.1,0.1-0.1,0.1-0.2
		c0-0.1,0-0.2-0.1-0.3c-0.1-0.2-0.3-0.4-0.5-0.7C105.6,105.6,105.4,105.5,105.3,105.4z"/>
	<path class="st4" d="M52.9,107.1c-0.1,0-0.2,0-0.3,0.1c-0.1,0.1-0.4,0.3-0.6,0.6c-0.3,0.3-0.4,0.5-0.5,0.7
		c-0.1,0.1-0.1,0.3-0.1,0.3c0,0.1,0,0.1,0.1,0.2c0.1,0.1,0.1,0.1,0.2,0.1c0.1,0,0.2,0,0.3-0.1c0.1-0.1,0.4-0.3,0.6-0.6
		c0.3-0.3,0.4-0.5,0.5-0.7c0.1-0.1,0.1-0.3,0.1-0.3c0-0.1,0-0.1-0.1-0.2C53.1,107.1,53,107.1,52.9,107.1z"/>
	<path class="st4" d="M118.2,81.6c-0.2-0.1-0.5-0.1-0.9-0.1c-0.4,0-0.7,0-0.8,0c-0.2,0-0.3,0.1-0.3,0.1c-0.1,0.1-0.1,0.1-0.1,0.2
		c0,0.1,0,0.2,0.1,0.2c0,0.1,0.1,0.1,0.3,0.2c0.2,0.1,0.5,0.1,0.9,0.1c0.4,0,0.7,0,0.8,0c0.2,0,0.3-0.1,0.3-0.1
		c0.1-0.1,0.1-0.1,0.1-0.2c0-0.1,0-0.2-0.1-0.2C118.4,81.7,118.3,81.7,118.2,81.6z"/>
	<path class="st4" d="M103.5,108.1c-0.3-0.3-0.5-0.5-0.6-0.6c-0.1-0.1-0.2-0.1-0.3-0.1c-0.1,0-0.1,0-0.2,0.1
		c-0.1,0.1-0.1,0.1-0.1,0.2c0,0.1,0,0.2,0.1,0.3c0.1,0.2,0.3,0.4,0.5,0.7c0.3,0.3,0.5,0.5,0.6,0.6c0.1,0.1,0.2,0.1,0.3,0.1
		c0.1,0,0.1,0,0.2-0.1c0.1-0.1,0.1-0.1,0.1-0.2c0-0.1,0-0.2-0.1-0.3C103.9,108.7,103.8,108.4,103.5,108.1z"/>
	<path class="st4" d="M55.7,109.1c-0.1,0-0.1-0.1-0.2-0.1c-0.1,0-0.2,0.1-0.3,0.1c-0.1,0.1-0.3,0.3-0.6,0.7
		c-0.2,0.3-0.4,0.6-0.4,0.7s-0.1,0.3-0.1,0.3c0,0.1,0.1,0.1,0.1,0.2c0.1,0,0.1,0.1,0.2,0.1c0.1,0,0.2-0.1,0.3-0.1
		c0.1-0.1,0.3-0.3,0.6-0.7c0.2-0.3,0.4-0.6,0.4-0.7c0.1-0.1,0.1-0.3,0.1-0.3C55.8,109.2,55.7,109.2,55.7,109.1z"/>
	<path class="st4" d="M78,35.6c-23.4,0-42.4,19-42.4,42.4c0,23.4,19,42.4,42.4,42.4c23.4,0,42.4-19,42.4-42.4
		C120.3,54.6,101.3,35.6,78,35.6z M119.3,78.7c0,0.3-0.1,0.6-0.4,0.8c-0.3,0.2-0.8,0.3-1.4,0.3c-0.7,0-1.1-0.1-1.4-0.4
		c-0.2-0.2-0.3-0.5-0.3-0.8c0-0.3,0.1-0.6,0.4-0.8c0.3-0.2,0.7-0.3,1.4-0.3c0.7,0,1.1,0.1,1.4,0.4C119.1,78.1,119.3,78.4,119.3,78.7
		z M118.9,76c-0.3,0.2-0.7,0.4-1.4,0.4c-0.7,0-1.1,0-1.4-0.2c-0.3-0.2-0.4-0.4-0.4-0.8c0-0.3,0.1-0.6,0.3-0.8
		c0.2-0.2,0.7-0.4,1.4-0.4c0.7,0,1.1,0,1.4,0.2c0.3,0.2,0.4,0.4,0.4,0.8C119.2,75.5,119.1,75.8,118.9,76z M118.8,71.8
		c0,0.3,0,0.6-0.3,0.8c-0.3,0.3-0.7,0.4-1.4,0.5c-0.7,0.1-1.1,0-1.4-0.2c-0.3-0.2-0.4-0.4-0.5-0.7c0-0.3,0.1-0.6,0.3-0.9
		c0.2-0.2,0.7-0.4,1.3-0.5c0.6-0.1,1.1,0,1.4,0.2C118.6,71.3,118.8,71.5,118.8,71.8z M118.2,68.4c0.1,0.3,0,0.6-0.2,0.8
		c-0.2,0.3-0.7,0.5-1.3,0.6c-0.6,0.1-1.1,0.1-1.5,0c-0.3-0.1-0.4-0.4-0.5-0.7c-0.1-0.3,0-0.6,0.2-0.9c0.2-0.3,0.6-0.5,1.3-0.6
		c0.6-0.1,1.1-0.1,1.5,0C117.9,67.8,118.1,68.1,118.2,68.4z M117.2,65c0.1,0.3,0.1,0.6-0.1,0.9c-0.2,0.3-0.6,0.6-1.2,0.8
		c-0.6,0.2-1.1,0.2-1.5,0.1c-0.3-0.1-0.5-0.3-0.6-0.6c-0.1-0.3-0.1-0.6,0.1-0.9c0.2-0.3,0.6-0.5,1.2-0.7c0.6-0.2,1.1-0.2,1.4-0.1
		C116.9,64.5,117.1,64.7,117.2,65z M115.3,61.2c0.3,0.1,0.5,0.3,0.6,0.6h0c0.1,0.3,0.1,0.6,0,0.9c-0.2,0.3-0.5,0.6-1.1,0.9
		c-0.6,0.3-1.1,0.4-1.4,0.3c-0.3-0.1-0.5-0.3-0.6-0.6c-0.1-0.3-0.1-0.6,0-0.9c0.2-0.3,0.5-0.6,1.1-0.9
		C114.5,61.2,115,61.1,115.3,61.2z M113.8,58.2c0.3,0.1,0.5,0.2,0.7,0.5c0.2,0.3,0.2,0.6,0,0.9c-0.1,0.3-0.5,0.6-1.1,0.9
		c-0.6,0.3-1.1,0.4-1.4,0.3c-0.3-0.1-0.5-0.2-0.7-0.5c-0.2-0.3-0.2-0.6,0-0.9c0.1-0.3,0.5-0.6,1.1-0.9
		C113,58.2,113.5,58.1,113.8,58.2z M112.7,55.7c0.2,0.3,0.2,0.6,0.1,0.9c-0.1,0.3-0.5,0.7-1,1c-0.6,0.4-1,0.5-1.4,0.5
		c-0.3,0-0.5-0.2-0.7-0.5c-0.2-0.3-0.2-0.6-0.1-0.9c0.1-0.3,0.4-0.7,1-1c0.5-0.4,1-0.5,1.4-0.5C112.3,55.3,112.6,55.4,112.7,55.7z
		 M110.7,52.8c0.2,0.3,0.3,0.5,0.2,0.8c-0.1,0.4-0.4,0.7-0.9,1.1c-0.5,0.4-1,0.6-1.3,0.6c-0.3,0-0.6-0.1-0.8-0.4
		c-0.2-0.3-0.3-0.6-0.2-0.9c0.1-0.3,0.4-0.7,0.9-1.1c0.5-0.4,1-0.6,1.3-0.6C110.3,52.4,110.5,52.6,110.7,52.8z M107.8,49.9
		c0.3,0,0.6,0.1,0.8,0.4c0.2,0.3,0.3,0.5,0.2,0.8c-0.1,0.4-0.3,0.8-0.8,1.2c-0.5,0.4-0.9,0.7-1.3,0.7c-0.3,0-0.6-0.1-0.8-0.4
		c-0.2-0.3-0.3-0.5-0.2-0.9c0.1-0.3,0.3-0.7,0.8-1.1C107,50.1,107.5,49.9,107.8,49.9z M105.3,47.5c0.3,0,0.6,0.1,0.8,0.3
		c0.2,0.2,0.3,0.5,0.3,0.8c0,0.4-0.3,0.8-0.7,1.3c-0.5,0.5-0.9,0.7-1.2,0.8c-0.3,0-0.6-0.1-0.8-0.3c-0.2-0.2-0.4-0.5-0.3-0.8
		c0-0.3,0.3-0.7,0.7-1.2C104.6,47.8,105,47.5,105.3,47.5z M102.7,45.3c0.3-0.1,0.6,0,0.8,0.2c0.3,0.2,0.4,0.5,0.4,0.8
		c0,0.4-0.2,0.8-0.6,1.3c-0.4,0.5-0.8,0.8-1.1,0.9c-0.3,0.1-0.6,0-0.8-0.2c-0.3-0.2-0.4-0.5-0.4-0.8c0-0.3,0.2-0.8,0.6-1.3
		C101.9,45.7,102.3,45.4,102.7,45.3z M98.7,44.3c0.4-0.6,0.7-0.9,1-1c0.3-0.1,0.6-0.1,0.9,0.1c0.3,0.2,0.4,0.4,0.5,0.7
		c0,0.4-0.1,0.8-0.5,1.4c-0.4,0.6-0.7,0.9-1,1c-0.3,0.1-0.6,0.1-0.9-0.1c-0.3-0.2-0.4-0.4-0.5-0.8C98.2,45.3,98.4,44.9,98.7,44.3z
		 M94.9,40.2l0.6,0.3l-0.6,1.2l1.2,0.6l0.6-1.2l0.6,0.3l-1.6,3.1l-0.6-0.3l0.7-1.3l-1.2-0.6l-0.7,1.3l-0.6-0.3L94.9,40.2z
		 M92.1,39.2c0.4,0.2,0.6,0.3,0.8,0.4c0.2,0.1,0.3,0.3,0.3,0.5c0.1,0.2,0,0.4-0.1,0.7c-0.1,0.2-0.2,0.4-0.3,0.5
		c-0.1,0.1-0.3,0.2-0.4,0.2c-0.1,0-0.3,0-0.4,0c-0.2,0-0.4-0.1-0.7-0.2L90.9,41l-0.5,1.2L89.8,42l1.3-3.2L92.1,39.2z M87.7,37.8
		l2.3,0.6L89.8,39l-1.6-0.5l-0.8,2.8l-0.7-0.2L87.7,37.8z M82.7,38.6c0.1-0.3,0.2-0.6,0.3-0.8c0.1-0.2,0.2-0.3,0.4-0.4
		c0.2-0.1,0.3-0.2,0.5-0.2c0.2-0.1,0.5-0.1,0.8,0c0.5,0.1,0.9,0.3,1.1,0.7c0.2,0.4,0.3,0.8,0.2,1.4c-0.1,0.6-0.3,1-0.7,1.2
		c-0.4,0.3-0.8,0.3-1.3,0.3c-0.5-0.1-0.9-0.3-1.1-0.7C82.7,39.6,82.6,39.2,82.7,38.6z M71.1,37.5c0.2-0.3,0.4-0.4,0.7-0.5
		c0.3,0,0.6,0,0.8,0.3c0.3,0.3,0.4,0.7,0.5,1.4c0.1,0.7,0,1.1-0.2,1.4c-0.2,0.3-0.4,0.4-0.7,0.5c-0.3,0-0.6-0.1-0.9-0.3
		c-0.2-0.2-0.4-0.7-0.5-1.3C70.9,38.3,70.9,37.9,71.1,37.5z M67.7,38.3c0.1-0.3,0.4-0.4,0.7-0.5v0c0.3-0.1,0.6,0,0.8,0.2
		c0.3,0.2,0.5,0.7,0.6,1.3c0.1,0.6,0.1,1.1,0,1.5c-0.1,0.3-0.4,0.4-0.7,0.5c-0.3,0.1-0.6,0-0.9-0.2c-0.3-0.2-0.5-0.6-0.6-1.3
		C67.6,39.1,67.6,38.6,67.7,38.3z M64.4,39.3c0.1-0.3,0.3-0.5,0.6-0.6c0.3-0.1,0.6-0.1,0.9,0.1c0.3,0.2,0.6,0.6,0.8,1.2
		c0.2,0.6,0.2,1.1,0.1,1.5c-0.1,0.3-0.3,0.5-0.6,0.6c-0.3,0.1-0.6,0.1-0.9-0.1c-0.3-0.2-0.5-0.6-0.7-1.2
		C64.3,40.1,64.3,39.6,64.4,39.3z M61.2,40.6c0.1-0.3,0.3-0.5,0.6-0.6c0.3-0.1,0.6-0.1,0.9,0c0.3,0.2,0.6,0.5,0.9,1.1
		c0.3,0.6,0.4,1.1,0.3,1.4c-0.1,0.3-0.3,0.5-0.6,0.6c-0.3,0.1-0.6,0.1-0.9,0C62,43,61.7,42.6,61.4,42C61.2,41.4,61.1,40.9,61.2,40.6
		z M58.2,42.1c0.1-0.3,0.2-0.5,0.5-0.7c0.3-0.2,0.6-0.2,0.9,0c0.3,0.1,0.6,0.5,0.9,1.1c0.3,0.6,0.4,1.1,0.3,1.4
		c-0.1,0.3-0.2,0.5-0.5,0.7c-0.3,0.2-0.6,0.2-0.9,0c-0.3-0.1-0.6-0.5-0.9-1.1C58.2,42.9,58.1,42.4,58.2,42.1z M55.7,43.2
		c0.3-0.2,0.6-0.2,0.9-0.1c0.3,0.1,0.7,0.5,1,1c0.4,0.6,0.5,1,0.5,1.4c0,0.3-0.2,0.5-0.5,0.7c-0.3,0.2-0.6,0.2-0.9,0.1
		c-0.3-0.1-0.7-0.4-1-1c-0.4-0.5-0.5-1-0.5-1.4C55.3,43.6,55.4,43.3,55.7,43.2z M52.8,45.2c0.3-0.2,0.5-0.3,0.8-0.2
		c0.4,0.1,0.7,0.4,1.1,0.9c0.4,0.5,0.6,1,0.6,1.3c0,0.3-0.1,0.6-0.4,0.8c-0.3,0.2-0.6,0.3-0.9,0.2c-0.3-0.1-0.7-0.4-1.1-0.9
		c-0.4-0.5-0.6-1-0.6-1.3C52.4,45.6,52.6,45.4,52.8,45.2z M50.3,47.3c0.3-0.2,0.5-0.3,0.8-0.2c0.4,0.1,0.8,0.3,1.2,0.8
		c0.4,0.5,0.7,0.9,0.7,1.3c0,0.3-0.1,0.6-0.4,0.8c-0.3,0.2-0.5,0.3-0.9,0.2c-0.3-0.1-0.7-0.3-1.1-0.8c-0.4-0.5-0.7-0.9-0.7-1.3
		C49.9,47.8,50,47.5,50.3,47.3z M47.8,49.8c0.2-0.2,0.5-0.3,0.8-0.3c0.4,0,0.8,0.3,1.3,0.7c0.5,0.5,0.7,0.9,0.8,1.2
		c0,0.3-0.1,0.6-0.3,0.8c-0.2,0.2-0.5,0.4-0.8,0.3c-0.3,0-0.7-0.3-1.2-0.7c-0.5-0.5-0.7-0.9-0.8-1.2C47.4,50.3,47.5,50,47.8,49.8z
		 M44,54.5l1.1,0.8l0.8-1.1l-1.1-0.8l0.4-0.6l2.8,2l-0.4,0.6l-1.2-0.9l-0.8,1.1l1.2,0.9l-0.4,0.6l-2.8-2L44,54.5z M41.7,58.2
		l1.2,0.7l0.7-1.2L42.4,57l0.3-0.6l3,1.7l-0.3,0.6l-1.3-0.8l-0.7,1.2l1.3,0.8l-0.3,0.6l-3-1.7L41.7,58.2z M39.8,62l2.1,1l-1.5-2.2
		l0.3-0.6l3.2,1.4l-0.3,0.6l-2.1-0.9l1.5,2.2l-0.3,0.6l-3.2-1.4L39.8,62z M37.5,71.5c0.3-0.2,0.8-0.2,1.4-0.2
		c0.7,0.1,1.1,0.3,1.4,0.5c0.2,0.2,0.3,0.5,0.3,0.8c0,0.3-0.2,0.6-0.5,0.8c-0.3,0.2-0.8,0.2-1.4,0.1c-0.6-0.1-1.1-0.3-1.4-0.5
		c-0.2-0.2-0.3-0.5-0.3-0.8C37.1,71.9,37.2,71.7,37.5,71.5z M37.1,74.8c0.3-0.2,0.8-0.3,1.4-0.2c0.7,0,1.1,0.2,1.4,0.4
		c0.2,0.2,0.3,0.5,0.3,0.8c0,0.3-0.2,0.6-0.4,0.8c-0.3,0.2-0.7,0.3-1.4,0.2c-0.7,0-1.1-0.2-1.4-0.4c-0.2-0.2-0.3-0.5-0.3-0.8
		C36.7,75.3,36.9,75,37.1,74.8z M37,78.3c0.3-0.2,0.7-0.4,1.4-0.4c0.7,0,1.1,0.1,1.4,0.3c0.2,0.2,0.4,0.4,0.4,0.8
		c0,0.3-0.1,0.6-0.4,0.8c-0.3,0.2-0.7,0.3-1.4,0.3c-0.7,0-1.1-0.1-1.4-0.3c-0.2-0.2-0.4-0.4-0.4-0.8C36.7,78.8,36.8,78.5,37,78.3z
		 M36.9,82.6c0-0.3,0-0.6,0.3-0.8c0.3-0.3,0.7-0.4,1.4-0.5c0.7-0.1,1.1,0,1.4,0.2c0.3,0.2,0.4,0.4,0.5,0.7c0,0.3-0.1,0.6-0.3,0.9
		c-0.2,0.2-0.7,0.4-1.3,0.5c-0.6,0.1-1.1,0-1.4-0.2C37.1,83.2,36.9,83,36.9,82.6z M37.4,85.9c-0.1-0.3,0-0.6,0.2-0.8
		c0.2-0.3,0.7-0.5,1.3-0.6c0.6-0.1,1.1-0.1,1.5,0.1c0.3,0.1,0.4,0.4,0.5,0.7c0.1,0.3,0,0.6-0.2,0.9c-0.2,0.2-0.7,0.4-1.3,0.5
		c-0.6,0.1-1.1,0.1-1.4-0.1C37.6,86.5,37.5,86.3,37.4,85.9z M38.2,89.4c-0.1-0.3,0-0.6,0.1-0.9c0.2-0.3,0.6-0.5,1.3-0.7
		c0.6-0.2,1.1-0.2,1.5-0.1c0.3,0.1,0.5,0.3,0.6,0.7c0.1,0.3,0,0.6-0.2,0.9c-0.2,0.3-0.6,0.5-1.3,0.7c-0.6,0.2-1.1,0.2-1.4,0.1
		C38.5,89.9,38.3,89.7,38.2,89.4z M40,93.3c-0.3-0.1-0.5-0.3-0.6-0.6c-0.1-0.3-0.1-0.6,0-0.9c0.2-0.3,0.6-0.6,1.2-0.8
		c0.6-0.2,1.1-0.3,1.4-0.2c0.3,0.1,0.5,0.3,0.6,0.6c0.1,0.3,0.1,0.6-0.1,0.9c-0.2,0.3-0.6,0.6-1.2,0.8C40.8,93.3,40.3,93.4,40,93.3z
		 M41.3,96.3c-0.3-0.1-0.5-0.3-0.6-0.6c-0.1-0.3-0.1-0.6,0-0.9c0.2-0.3,0.5-0.6,1.1-0.9c0.6-0.3,1.1-0.4,1.4-0.3
		c0.3,0.1,0.5,0.3,0.6,0.6c0.1,0.3,0.1,0.6,0,0.9c-0.2,0.3-0.5,0.6-1.1,0.9C42.1,96.3,41.7,96.4,41.3,96.3z M43,99.3
		c-0.3,0-0.5-0.2-0.7-0.5c-0.2-0.3-0.2-0.6-0.1-0.9c0.1-0.3,0.5-0.7,1.1-1c0.6-0.3,1-0.5,1.4-0.4c0.3,0,0.5,0.2,0.7,0.5
		c0.2,0.3,0.2,0.6,0.1,0.9c-0.1,0.3-0.5,0.6-1.1,1C43.8,99.3,43.4,99.4,43,99.3z M44.2,101.8c-0.2-0.3-0.2-0.6-0.2-0.8
		c0.1-0.3,0.4-0.7,1-1.1c0.5-0.4,1-0.6,1.4-0.5c0.3,0,0.5,0.2,0.7,0.4c0.2,0.3,0.2,0.6,0.2,0.9c-0.1,0.3-0.4,0.7-1,1.1
		c-0.5,0.4-1,0.6-1.3,0.5C44.7,102.2,44.4,102.1,44.2,101.8z M47.1,104.9c-0.3,0-0.6-0.1-0.8-0.4v0c-0.2-0.3-0.3-0.5-0.2-0.8
		c0.1-0.4,0.3-0.8,0.8-1.2c0.5-0.4,0.9-0.7,1.3-0.7c0.3,0,0.6,0.1,0.8,0.4c0.2,0.3,0.3,0.5,0.2,0.9c-0.1,0.3-0.3,0.7-0.8,1.1
		C47.9,104.7,47.5,104.9,47.1,104.9z M49.4,107.3c-0.3,0-0.6-0.1-0.8-0.3c-0.2-0.2-0.3-0.5-0.3-0.8c0.1-0.4,0.3-0.8,0.8-1.2
		c0.5-0.5,0.9-0.7,1.3-0.7c0.3,0,0.6,0.1,0.8,0.3c0.2,0.2,0.3,0.5,0.3,0.9c0,0.3-0.3,0.7-0.8,1.2C50.2,107.1,49.8,107.3,49.4,107.3z
		 M52,109.6c-0.3,0.1-0.6,0-0.8-0.2c-0.3-0.2-0.4-0.5-0.4-0.8c0-0.4,0.2-0.8,0.7-1.3c0.4-0.5,0.8-0.8,1.2-0.9c0.3-0.1,0.6,0,0.8,0.2
		c0.3,0.2,0.4,0.5,0.4,0.8c0,0.3-0.2,0.7-0.7,1.3C52.8,109.3,52.4,109.6,52,109.6z M55.9,110.8c-0.4,0.5-0.7,0.9-1.1,1
		c-0.3,0.1-0.6,0-0.8-0.2c-0.3-0.2-0.4-0.4-0.4-0.7c0-0.4,0.2-0.8,0.5-1.3c0.4-0.5,0.7-0.9,1.1-1c0.3-0.1,0.6,0,0.8,0.2
		c0.3,0.2,0.4,0.5,0.4,0.8C56.4,109.8,56.3,110.2,55.9,110.8z M59.1,114.7l0.6-1.2l-1.2-0.6l-0.6,1.2l-0.6-0.3l1.6-3.1l0.6,0.3
		l-0.7,1.3L60,113l0.7-1.3l0.6,0.3l-1.6,3.1L59.1,114.7z M62.4,116.2c-0.4-0.2-0.6-0.3-0.8-0.4c-0.2-0.1-0.3-0.3-0.3-0.5
		c-0.1-0.2,0-0.4,0.1-0.7c0.1-0.2,0.2-0.3,0.3-0.5c0.1-0.1,0.3-0.2,0.4-0.2c0.1,0,0.3,0,0.4,0c0.2,0,0.4,0.1,0.7,0.2l0.4,0.2
		l0.5-1.2l0.7,0.3l-1.3,3.2L62.4,116.2z M66.8,117.7l-2.3-0.6l0.2-0.6l1.6,0.5l0.8-2.8l0.7,0.2L66.8,117.7z M71.8,117L71.8,117
		c-0.1,0.3-0.2,0.6-0.3,0.8c-0.1,0.2-0.2,0.3-0.4,0.4c-0.2,0.1-0.3,0.2-0.5,0.2c-0.2,0.1-0.5,0.1-0.8,0c-0.5-0.1-0.9-0.3-1.1-0.7
		c-0.2-0.4-0.3-0.8-0.2-1.4c0.1-0.6,0.3-1,0.7-1.2c0.4-0.3,0.8-0.3,1.3-0.3c0.5,0.1,0.9,0.3,1.1,0.7C71.8,116,71.9,116.5,71.8,117z
		 M41.2,78c0-20.2,16.5-36.7,36.7-36.7s36.7,16.5,36.7,36.7S98.2,114.7,78,114.7S41.2,98.2,41.2,78z M86.3,118.1
		c-0.1,0.3-0.4,0.4-0.7,0.5v0c-0.3,0.1-0.6,0-0.8-0.2c-0.3-0.2-0.5-0.7-0.6-1.3c-0.1-0.6-0.1-1.1,0.1-1.5c0.1-0.3,0.4-0.4,0.7-0.5
		c0.3-0.1,0.6,0,0.9,0.2c0.2,0.2,0.4,0.7,0.5,1.3C86.5,117.3,86.5,117.7,86.3,118.1z M89.7,117.2c-0.1,0.3-0.3,0.5-0.7,0.6h0
		c-0.3,0.1-0.6,0-0.9-0.1c-0.3-0.2-0.5-0.6-0.7-1.3c-0.2-0.6-0.2-1.1-0.1-1.5c0.1-0.3,0.3-0.5,0.7-0.6c0.3-0.1,0.6,0,0.9,0.2
		c0.3,0.2,0.5,0.6,0.7,1.3C89.8,116.4,89.9,116.9,89.7,117.2z M93,116.1c-0.1,0.3-0.3,0.5-0.6,0.6c-0.3,0.1-0.6,0.1-0.9,0
		c-0.3-0.2-0.6-0.6-0.8-1.2c-0.2-0.6-0.3-1.1-0.2-1.4c0.1-0.3,0.3-0.5,0.6-0.6c0.3-0.1,0.6-0.1,0.9,0.1c0.3,0.2,0.6,0.6,0.8,1.2
		C93,115.2,93.1,115.7,93,116.1z M96,114.7c-0.1,0.3-0.3,0.5-0.6,0.6v0c-0.3,0.1-0.6,0.1-0.9,0c-0.3-0.2-0.6-0.5-0.9-1.1
		c-0.3-0.6-0.4-1.1-0.3-1.4c0.1-0.3,0.3-0.5,0.6-0.6c0.3-0.1,0.6-0.1,0.9,0c0.3,0.2,0.6,0.5,0.9,1.1C96,113.9,96.1,114.4,96,114.7z
		 M99.1,113c0,0.3-0.2,0.5-0.5,0.7c-0.3,0.2-0.6,0.2-0.9,0.1c-0.3-0.1-0.7-0.5-1-1.1c-0.3-0.6-0.5-1-0.4-1.4c0-0.3,0.2-0.5,0.5-0.7
		c0.3-0.2,0.6-0.2,0.9-0.1c0.3,0.1,0.6,0.5,1,1.1C99,112.2,99.1,112.7,99.1,113z M101.5,111.9c-0.3,0.2-0.6,0.2-0.8,0.2
		c-0.3-0.1-0.7-0.4-1.1-1c-0.4-0.5-0.6-1-0.5-1.4c0-0.3,0.2-0.5,0.4-0.7c0.3-0.2,0.6-0.2,0.9-0.2c0.3,0.1,0.7,0.4,1.1,1
		c0.4,0.5,0.6,1,0.5,1.3C102,111.4,101.8,111.7,101.5,111.9z M104.3,109.7c-0.3,0.2-0.5,0.3-0.8,0.2c-0.4-0.1-0.8-0.3-1.2-0.8
		c-0.4-0.5-0.7-0.9-0.7-1.3c0-0.3,0.1-0.6,0.4-0.8c0.3-0.2,0.5-0.3,0.9-0.2c0.3,0.1,0.7,0.3,1.1,0.8c0.4,0.5,0.7,0.9,0.7,1.3
		C104.7,109.3,104.6,109.5,104.3,109.7z M106.8,107.5c-0.2,0.2-0.5,0.3-0.8,0.3c-0.4-0.1-0.8-0.3-1.2-0.8c-0.5-0.5-0.7-0.9-0.7-1.3
		c0-0.3,0.1-0.6,0.3-0.8c0.2-0.2,0.5-0.3,0.9-0.3c0.3,0,0.7,0.3,1.2,0.8c0.4,0.5,0.7,0.9,0.7,1.3C107.1,107,107,107.3,106.8,107.5z
		 M109.2,105c-0.2,0.3-0.5,0.4-0.8,0.4c-0.4,0-0.8-0.2-1.3-0.7c-0.5-0.4-0.8-0.8-0.8-1.2c-0.1-0.3,0-0.6,0.2-0.8
		c0.2-0.3,0.5-0.4,0.8-0.4c0.3,0,0.7,0.2,1.3,0.7c0.5,0.4,0.8,0.8,0.8,1.2C109.5,104.4,109.4,104.7,109.2,105z M112.8,100.1
		l-1.1-0.7l-0.7,1.1l1.1,0.7l-0.4,0.6l-2.9-1.9l0.4-0.6l1.3,0.8l0.7-1.1l-1.3-0.8l0.4-0.6l2.9,1.9L112.8,100.1z M114.9,96.3
		l-1.2-0.6l-0.6,1.2l1.2,0.6l-0.3,0.6l-3.1-1.6l0.3-0.6l1.3,0.7l0.6-1.2l-1.3-0.7l0.3-0.6l3.1,1.6L114.9,96.3z M116.7,92.3l-2.1-0.8
		l1.6,2.1l-0.3,0.6l-3.2-1.3l0.2-0.6l2.1,0.8l-1.6-2.1l0.3-0.6l3.2,1.3L116.7,92.3z M118.7,82.8c-0.3,0.2-0.8,0.3-1.4,0.2
		c-0.7,0-1.1-0.2-1.4-0.4c-0.2-0.2-0.3-0.5-0.3-0.8c0-0.3,0.2-0.6,0.4-0.8c0.3-0.2,0.7-0.3,1.4-0.2c0.7,0,1.1,0.2,1.4,0.4
		c0.2,0.2,0.3,0.5,0.3,0.8C119,82.4,118.9,82.6,118.7,82.8z"/>
</g>
</svg>
