<?xml version="1.0" encoding="UTF-8" standalone="no"?>
<svg
   xmlns:dc="http://purl.org/dc/elements/1.1/"
   xmlns:cc="http://creativecommons.org/ns#"
   xmlns:rdf="http://www.w3.org/1999/02/22-rdf-syntax-ns#"
   xmlns:svg="http://www.w3.org/2000/svg"
   xmlns="http://www.w3.org/2000/svg"
   viewBox="0 0 127.5591 127.5591"
   id="svg32"
   height="127.5591"
   width="127.5591"
   version="1.1">
  <metadata
     id="metadata38">
    <rdf:RDF>
      <cc:Work
         rdf:about="">
        <dc:format>image/svg+xml</dc:format>
        <dc:type
           rdf:resource="http://purl.org/dc/dcmitype/StillImage" />
      </cc:Work>
    </rdf:RDF>
  </metadata>
  <defs
     id="defs36" />
  <path
     id="path2"
     style="fill:none;stroke:#1b1918;stroke-width:1.13390005;stroke-linecap:butt;stroke-linejoin:miter;stroke-dasharray:none"
     d="m 63.723,7.9934 c 30.0448,0 54.4007,24.3559 54.4007,54.4007 0,30.0448 -24.3559,54.4007 -54.4007,54.4007 -30.0448,0 -54.4007,-24.3559 -54.4007,-54.4007 0,-30.0448 24.3559,-54.4007 54.4007,-54.4007 z" />
  <path
     id="path4"
     style="fill:none;stroke:#1b1918;stroke-width:0.85039997;stroke-linecap:butt;stroke-linejoin:miter;stroke-dasharray:none"
     d="m 63.723,10.3921 c 28.72,0 52.002,23.282 52.002,52.002 0,28.72 -23.282,52.002 -52.002,52.002 -28.7201,0 -52.002,-23.282 -52.002,-52.002 0,-28.72 23.2819,-52.002 52.002,-52.002 z" />
  <path
     id="path6"
     style="fill:none;stroke:#1b1918;stroke-width:0.85039997;stroke-linecap:butt;stroke-linejoin:miter;stroke-dasharray:none"
     d="m 37.1446,46.4278 c 5.4236,-9.0091 15.2966,-15.0355 26.5785,-15.0355 11.2816,0 21.1547,6.0264 26.5782,15.0355 m -4.6445,37.8754 c -5.6109,5.6174 -13.3665,9.0927 -21.9337,9.0927 -8.5674,0 -16.3227,-3.4753 -21.9339,-9.0927" />
  <path
     id="path8"
     style="fill:none;stroke:#1b1918;stroke-width:0.85039997;stroke-linecap:butt;stroke-linejoin:miter;stroke-dasharray:none"
     d="m 96.6671,45.796 c 2.4154,5.0283 3.7686,10.6631 3.7686,16.6144 0,7.583 -2.1974,14.6526 -5.9893,20.6076" />
  <path
     id="path10"
     style="fill:none;stroke:#1b1918;stroke-width:0.85039997;stroke-linecap:butt;stroke-linejoin:miter;stroke-dasharray:none"
     d="m 29.9285,45.796 c -2.4154,5.0283 -3.7687,10.6631 -3.7687,16.6144 0,7.583 2.1974,14.6526 5.9893,20.6076" />
  <path
     id="path12"
     style="fill:none;stroke:#1b1918;stroke-width:1.13390005;stroke-linecap:butt;stroke-linejoin:miter;stroke-dasharray:none"
     d="m 34.0948,45.4694 c 5.8797,-10.2708 16.9455,-17.1915 29.6283,-17.1915 12.6828,0 23.7484,6.9207 29.628,17.1915 m -4.8274,40.3501 c -6.2195,6.5823 -15.0298,10.6908 -24.8006,10.6908 -9.771,0 -18.5814,-4.1085 -24.8009,-10.6908" />
  <path
     id="path14"
     style="fill:none;stroke:#1b1918;stroke-width:1.13390005;stroke-linecap:butt;stroke-linejoin:miter;stroke-dasharray:none"
     d="m 100.1455,44.1247 c 2.6594,5.5338 4.1499,11.7354 4.1499,18.2857 0,8.3608 -2.4279,16.1535 -6.6158,22.7143" />
  <path
     id="path16"
     style="fill:none;stroke:#1b1918;stroke-width:1.13390005;stroke-linecap:butt;stroke-linejoin:miter;stroke-dasharray:none"
     d="m 26.4501,44.1247 c -2.6595,5.5338 -4.1499,11.7354 -4.1499,18.2857 0,8.3608 2.4278,16.1535 6.6157,22.7143" />
  <path
     id="path18"
     style="fill:#1b1918;fill-rule:evenodd"
     d="m 21.7562,82.692 c -0.6837,0.309 -1.3028,0.3665 -1.8559,0.1738 -0.5527,-0.1934 -0.96,-0.5803 -1.2228,-1.1622 -0.1724,-0.3813 -0.2359,-0.7651 -0.1928,-1.1532 0.0437,-0.3875 0.1916,-0.7353 0.4448,-1.0426 0.252,-0.3069 0.5842,-0.5541 0.9961,-0.7404 0.4175,-0.1885 0.8302,-0.2732 1.2359,-0.2531 0.4065,0.0198 0.7642,0.1463 1.0729,0.379 0.3101,0.2333 0.5457,0.5295 0.7072,0.8875 0.1758,0.3886 0.2381,0.7781 0.1894,1.1687 -0.0493,0.3898 -0.1999,0.7379 -0.4533,1.0418 -0.2525,0.3036 -0.5595,0.5371 -0.9215,0.7007 z m -0.2455,-0.5689 c 0.4964,-0.2242 0.8269,-0.5341 0.9916,-0.9301 0.1647,-0.3957 0.1562,-0.7954 -0.0261,-1.1984 -0.1857,-0.4111 -0.4816,-0.6829 -0.8901,-0.819 -0.4076,-0.1349 -0.8767,-0.0825 -1.4065,0.1568 -0.3351,0.1513 -0.6024,0.3404 -0.8008,0.5663 -0.1982,0.2262 -0.3172,0.4799 -0.3561,0.76 -0.0385,0.2809 0.0029,0.557 0.1256,0.8289 0.1743,0.3858 0.457,0.6582 0.8479,0.8166 0.3909,0.1588 0.8951,0.0987 1.5145,-0.1811 z m -4.1788,-4.089 -0.8187,-2.823 0.51,-0.148 0.6511,2.2465 1.3422,-0.3892 -0.301,-1.0381 c -0.1114,-0.3835 -0.1633,-0.6984 -0.1551,-0.9467 0.0071,-0.2478 0.0924,-0.4689 0.256,-0.6645 0.1627,-0.195 0.379,-0.3311 0.6483,-0.4093 0.2194,-0.0635 0.4388,-0.0746 0.6576,-0.0315 0.2197,0.0426 0.4175,0.1429 0.5944,0.3025 0.1766,0.1584 0.3331,0.4717 0.4683,0.9383 l 0.4938,1.7027 z M 21.02,76.3396 20.6864,75.189 c -0.0901,-0.3107 -0.2205,-0.525 -0.392,-0.6443 -0.1715,-0.1182 -0.3833,-0.1412 -0.635,-0.0681 -0.1803,0.0522 -0.3172,0.1403 -0.4116,0.2642 -0.0949,0.1239 -0.1389,0.2704 -0.1327,0.4397 0.0069,0.1706 0.0658,0.4461 0.1764,0.8277 l 0.2225,0.7679 z m -5.053,-3.0759 -0.1004,-0.5919 3.9394,-0.6664 -0.2501,-1.4771 -3.939,0.6664 -0.1003,-0.5922 3.9393,-0.6664 -0.25,-1.4771 -3.9391,0.6664 -0.1003,-0.5922 3.9393,-0.6664 -0.0675,-0.3991 1.7637,-0.2982 0.0888,0.5235 -1.2405,0.2101 0.7793,4.6057 z m 3.5521,-6.9151 -4.5133,0.3421 -0.2469,-3.2587 0.5295,-0.0403 0.2015,2.6604 1.3867,-0.1052 -0.1888,-2.49 0.5298,-0.0402 0.1888,2.4899 1.5378,-0.1165 -0.2097,-2.7671 0.5295,-0.0403 z m -1.6872,-7.7522 0.1619,-0.5981 c 0.4898,0.1338 0.86,0.3654 1.1126,0.695 0.2525,0.33 0.3758,0.7305 0.3679,1.2013 -0.0082,0.4865 -0.114,0.8811 -0.318,1.1835 -0.2033,0.3019 -0.495,0.529 -0.8734,0.6815 -0.3798,0.153 -0.7846,0.2262 -1.2163,0.2191 -0.4712,-0.008 -0.8805,-0.1043 -1.2283,-0.2903 -0.3475,-0.1859 -0.61,-0.4464 -0.7866,-0.7812 -0.1766,-0.3351 -0.2611,-0.7019 -0.2543,-1.1001 0.0074,-0.453 0.1287,-0.8314 0.3646,-1.135 0.2358,-0.3048 0.5626,-0.5145 0.9816,-0.6288 l 0.1295,0.5902 c -0.3305,0.0989 -0.5731,0.2478 -0.7262,0.4442 -0.1539,0.1967 -0.2327,0.4459 -0.2378,0.7483 -0.006,0.3467 0.0725,0.6387 0.235,0.8743 0.1627,0.2355 0.3843,0.4036 0.6627,0.5023 0.2798,0.0992 0.5686,0.1516 0.8668,0.1567 0.3844,0.0065 0.7215,-0.0439 1.01,-0.1508 0.2892,-0.1069 0.506,-0.2772 0.6523,-0.5105 0.146,-0.2339 0.2208,-0.4876 0.2253,-0.7625 0.0057,-0.3348 -0.0864,-0.6188 -0.2755,-0.8538 -0.1899,-0.235 -0.474,-0.3966 -0.8538,-0.4853 z m 1.9766,-2.5362 -3.9586,-0.5377 -0.201,1.4783 -0.5261,-0.0715 0.4825,-3.5515 0.5261,0.0714 -0.2007,1.4783 3.9586,0.5377 z m 0.5046,-2.9452 -4.413,-1.0046 0.3767,-1.656 c 0.0768,-0.3367 0.1826,-0.597 0.3183,-0.7809 0.1358,-0.1831 0.3096,-0.311 0.5216,-0.3841 0.2115,-0.074 0.4187,-0.087 0.6222,-0.0408 0.188,0.0428 0.3541,0.1346 0.4972,0.2741 0.1432,0.1397 0.2427,0.3245 0.2985,0.5544 0.1389,-0.2494 0.3192,-0.4246 0.5406,-0.5244 0.2208,-0.1009 0.46,-0.1221 0.7169,-0.0635 0.2077,0.0471 0.3897,0.1352 0.5476,0.2628 0.1579,0.1276 0.2699,0.2667 0.3371,0.417 0.0663,0.1502 0.1026,0.3279 0.1077,0.5323 0.0054,0.2058 -0.0241,0.4485 -0.0882,0.7299 z m -2.4248,-1.1679 0.2174,-0.9544 c 0.059,-0.2588 0.0837,-0.4487 0.0754,-0.5683 -0.0102,-0.159 -0.0586,-0.288 -0.1442,-0.3861 -0.0859,-0.0984 -0.2056,-0.1658 -0.3606,-0.201 -0.1469,-0.0334 -0.2846,-0.028 -0.4113,0.0176 -0.1279,0.0445 -0.2279,0.1276 -0.2988,0.2486 -0.0706,0.121 -0.1423,0.3404 -0.2143,0.6568 l -0.201,0.8824 z m 2.0404,0.4646 0.2503,-1.0992 c 0.0431,-0.1891 0.066,-0.3235 0.0692,-0.4034 0.0065,-0.1389 -0.008,-0.2611 -0.0437,-0.3645 -0.036,-0.1032 -0.1012,-0.1959 -0.1956,-0.279 -0.0947,-0.0833 -0.2123,-0.1403 -0.3532,-0.1723 -0.1655,-0.0377 -0.3177,-0.0278 -0.4595,0.0295 -0.1414,0.0564 -0.2531,0.1542 -0.3367,0.2928 -0.0831,0.1378 -0.1568,0.3481 -0.2206,0.6281 l -0.2327,1.0214 z M 19.243,48.2854 c -0.7002,-0.2693 -1.1764,-0.669 -1.4278,-1.198 -0.2512,-0.5292 -0.2622,-1.0907 -0.0329,-1.6866 0.15,-0.3906 0.3784,-0.7058 0.6848,-0.9479 0.3062,-0.2412 0.6577,-0.3804 1.0543,-0.4164 0.3954,-0.0366 0.8047,0.0261 1.2268,0.1882 0.4275,0.1644 0.7778,0.3986 1.0485,0.7013 0.2716,0.303 0.4334,0.6463 0.4845,1.0296 0.0521,0.3846 0.0071,0.7602 -0.1341,1.1267 -0.1531,0.3983 -0.3861,0.7163 -0.6982,0.9562 -0.3121,0.2389 -0.6653,0.3764 -1.0596,0.4098 -0.3934,0.0338 -0.7755,-0.0204 -1.1463,-0.1629 z m 0.2324,-0.5746 c 0.5083,0.1956 0.961,0.2129 1.3584,0.0516 0.3971,-0.161 0.6755,-0.4479 0.8342,-0.8609 0.1619,-0.421 0.1471,-0.8226 -0.0431,-1.2087 -0.1907,-0.3847 -0.5575,-0.6817 -1.1001,-0.8904 -0.3433,-0.1318 -0.6656,-0.189 -0.9657,-0.1715 -0.3002,0.0179 -0.5644,0.1117 -0.7912,0.2809 -0.2265,0.1701 -0.394,0.3935 -0.5009,0.6719 -0.1519,0.3954 -0.1471,0.7877 0.0148,1.1772 0.1618,0.3895 0.5592,0.7061 1.1936,0.9499 z m 4.7736,-8.841 0.4297,-0.4462 c 0.3651,0.3529 0.578,0.7342 0.6406,1.1449 0.0627,0.4108 -0.0221,0.8209 -0.2556,1.2297 -0.2416,0.4227 -0.5242,0.7175 -0.8485,0.8841 -0.3234,0.167 -0.6882,0.2257 -1.0936,0.1772 -0.4065,-0.0488 -0.7968,-0.1794 -1.1715,-0.3935 -0.4093,-0.2338 -0.7214,-0.5153 -0.9369,-0.8455 -0.2151,-0.3305 -0.3197,-0.6852 -0.3135,-1.0636 0.0065,-0.3787 0.1092,-0.741 0.3067,-1.0868 0.2245,-0.3932 0.5131,-0.6667 0.866,-0.8192 0.3532,-0.1536 0.741,-0.18 1.1631,-0.0785 l -0.1707,0.5797 c -0.3373,-0.0726 -0.6216,-0.059 -0.8504,0.0396 -0.2293,0.0984 -0.4187,0.279 -0.5686,0.5415 -0.1721,0.301 -0.2438,0.5947 -0.2149,0.8796 0.0292,0.2846 0.1426,0.5385 0.3391,0.7591 0.1975,0.2216 0.4254,0.4067 0.6845,0.5547 0.3337,0.1905 0.6534,0.3087 0.9576,0.3541 0.305,0.0453 0.5771,5e-4 0.8178,-0.1338 0.2403,-0.1347 0.428,-0.3209 0.5643,-0.5596 0.1661,-0.2908 0.222,-0.5842 0.1695,-0.881 -0.0532,-0.2974 -0.2242,-0.576 -0.5147,-0.8365 z m 1.3348,-3.3435 c -0.5853,-0.4691 -0.9176,-0.9944 -0.9967,-1.5749 -0.079,-0.5803 0.0811,-1.1188 0.4802,-1.6169 0.2617,-0.3265 0.5749,-0.5576 0.9403,-0.6953 0.3651,-0.1369 0.7421,-0.163 1.131,-0.0771 0.3878,0.0853 0.7588,0.2693 1.1118,0.5519 0.3574,0.2863 0.6202,0.6157 0.7863,0.9864 0.167,0.3711 0.2168,0.7473 0.1494,1.1279 -0.0672,0.3822 -0.2242,0.7266 -0.4697,1.033 -0.2668,0.3331 -0.5854,0.5652 -0.9556,0.699 -0.3699,0.1332 -0.7483,0.1571 -1.1341,0.0692 -0.3853,-0.0873 -0.7328,-0.2549 -1.0429,-0.5032 z m 0.396,-0.477 c 0.4249,0.3404 0.851,0.4946 1.2784,0.4614 0.4275,-0.0328 0.7796,-0.2219 1.0562,-0.5672 0.2821,-0.352 0.3901,-0.739 0.3257,-1.1644 -0.0646,-0.4247 -0.3243,-0.819 -0.7781,-1.1824 -0.2869,-0.2299 -0.5766,-0.3824 -0.868,-0.4566 -0.2916,-0.074 -0.5717,-0.065 -0.839,0.0275 -0.2676,0.0932 -0.4947,0.2556 -0.6812,0.4884 -0.2647,0.3305 -0.3792,0.7058 -0.343,1.1259 0.0358,0.4204 0.3184,0.8424 0.849,1.2674 z m 1.4692,-5.4445 2.0115,-2.126 0.3858,0.3648 -1.5988,1.69 2.9021,2.7454 -0.4124,0.4362 z m 5.8544,0.4235 -2.9511,-3.4314 1.2957,-1.1146 c 0.2273,-0.1956 0.4113,-0.3342 0.5505,-0.4161 0.1924,-0.1171 0.3798,-0.1851 0.5615,-0.2052 0.182,-0.019 0.3688,0.0122 0.5598,0.0938 0.1911,0.0816 0.3595,0.2078 0.5057,0.3779 0.2501,0.2908 0.3697,0.6173 0.3566,0.9788 -0.0113,0.3611 -0.2613,0.7511 -0.7469,1.1687 l -0.8801,0.7568 1.2035,1.3998 z m -1.0945,-2.1938 0.8864,-0.7622 c 0.2943,-0.2529 0.455,-0.4859 0.4848,-0.7016 0.0289,-0.2154 -0.0414,-0.4218 -0.2124,-0.6205 -0.123,-0.1429 -0.2647,-0.2353 -0.4254,-0.2747 -0.1608,-0.0397 -0.315,-0.0252 -0.4612,0.0437 -0.0939,0.0459 -0.2444,0.157 -0.4496,0.3336 l -0.8779,0.7549 z m 3.8019,-0.1888 -1.1767,-4.7026 0.5392,-0.3782 4.1068,2.6484 -0.5581,0.3912 -1.2161,-0.8226 -1.5605,1.0942 0.3855,1.4048 z m -9e-4,-2.2691 1.2631,-0.8855 -1.1072,-0.7563 c -0.335,-0.2308 -0.6038,-0.4269 -0.8078,-0.5879 0.1182,0.2775 0.2165,0.5624 0.2956,0.8569 z m 4.1372,-0.6154 -2.2244,-3.9419 0.5233,-0.295 0.9165,1.6242 2.0369,-1.1494 -0.9164,-1.6243 0.5227,-0.2948 2.2243,3.9419 -0.5229,0.2948 -1.0469,-1.8553 -2.037,1.1494 1.0469,1.8553 z m 2.3899,-6.4687 0.4955,-0.2236 1.4754,3.2663 0.7206,-4.2582 0.5403,-0.244 1.8632,4.1247 -0.4955,0.2239 -1.4715,-3.2579 -0.7189,4.2469 -0.5459,0.2469 z m 9.3963,1.2734 -0.5718,0.1831 -0.5556,-1.736 c -0.4513,0.3535 -0.8691,0.5925 -1.2532,0.7155 -0.3002,0.0961 -0.5876,0.1106 -0.8611,0.0431 -0.2744,-0.0658 -0.4853,-0.1953 -0.6316,-0.3864 -0.1463,-0.191 -0.2755,-0.4606 -0.3872,-0.8095 l -0.4059,-1.2686 0.5717,-0.1828 0.3889,1.2149 c 0.1505,0.4706 0.3351,0.7535 0.5545,0.847 0.2185,0.0927 0.449,0.1007 0.6899,0.0236 0.4023,-0.1287 0.796,-0.3532 1.1815,-0.6733 l -0.6715,-2.0982 0.5717,-0.1831 z m 1.2676,-0.2937 -1.0179,-4.4102 3.1844,-0.735 0.1194,0.5173 -2.5994,0.5999 0.3127,1.3552 2.4332,-0.5615 0.1194,0.5176 -2.433,0.5615 0.3467,1.5027 2.7042,-0.624 0.1194,0.5174 z m 4.4436,-0.9187 -0.3421,-4.5131 0.5989,-0.0453 0.1409,1.8595 2.3321,-0.1769 -0.1409,-1.8595 0.5987,-0.0453 0.3421,4.513 -0.5987,0.0453 -0.161,-2.124 -2.332,0.1769 0.161,2.124 z m 4.8575,-0.347 0.0756,-4.5255 0.6004,0.0102 -0.0312,1.8646 2.3386,0.0392 0.0312,-1.8647 0.6004,0.01 -0.0757,4.5255 -0.6004,-0.0102 0.0357,-2.13 -2.3386,-0.0388 -0.0357,2.1299 z m 4.9597,-2.1064 c 0.1012,-0.7432 0.3807,-1.2986 0.8377,-1.6651 0.4569,-0.3662 1.0012,-0.506 1.6339,-0.4201 0.4144,0.0564 0.7738,0.2061 1.08,0.4488 0.305,0.2423 0.5213,0.5524 0.6477,0.93 0.1264,0.3764 0.1596,0.7892 0.0986,1.2373 -0.0615,0.4539 -0.2086,0.8487 -0.441,1.1818 -0.2325,0.3339 -0.5296,0.5703 -0.8907,0.7084 -0.3623,0.1389 -0.7381,0.1814 -1.1273,0.1287 -0.423,-0.0576 -0.7858,-0.2112 -1.0911,-0.4598 -0.3044,-0.2489 -0.5193,-0.561 -0.6426,-0.9369 -0.1236,-0.3753 -0.1585,-0.7594 -0.1052,-1.1531 z m 0.6126,0.0941 c -0.0731,0.5394 0.0139,0.9842 0.2622,1.3337 0.248,0.3495 0.5913,0.5545 1.0298,0.614 0.4471,0.0607 0.8346,-0.0462 1.1662,-0.32 0.3308,-0.2742 0.5355,-0.6993 0.6137,-1.2753 0.0493,-0.3646 0.0309,-0.6914 -0.0553,-0.9794 -0.0864,-0.288 -0.2384,-0.5236 -0.4552,-0.7053 -0.2177,-0.1814 -0.4737,-0.2928 -0.7691,-0.333 -0.4198,-0.057 -0.8005,0.0379 -1.142,0.2851 -0.3422,0.2472 -0.5587,0.7064 -0.6503,1.3802 z m 5.455,-1.5389 0.5301,0.1207 -0.7954,3.4949 3.1447,-2.9603 0.5783,0.1319 -1.0046,4.4132 -0.5301,-0.1207 0.7934,-3.4858 -3.1368,2.9523 -0.5842,-0.133 z m 2.4415,-0.559 0.3699,0.0842 c -0.0876,0.2469 -0.2242,0.4209 -0.4093,0.5213 -0.1851,0.1017 -0.4051,0.123 -0.6611,0.0646 -0.2568,-0.0584 -0.4467,-0.1729 -0.5692,-0.3424 -0.1221,-0.1704 -0.17,-0.3867 -0.1417,-0.6492 l 0.3696,0.0842 c -0.0036,0.1449 0.0292,0.2617 0.097,0.3484 0.0674,0.0876 0.1729,0.1474 0.3135,0.1794 0.1636,0.0372 0.2942,0.0323 0.3926,-0.0156 0.0981,-0.0467 0.1783,-0.1386 0.2387,-0.2749 z m 3.5198,4.6426 c 0.2726,-0.6988 0.6749,-1.173 1.205,-1.4219 0.5303,-0.2486 1.0921,-0.2565 1.6869,-0.0247 0.3897,0.1523 0.7038,0.3822 0.9445,0.6897 0.2395,0.3073 0.377,0.6594 0.411,1.0562 0.0346,0.3957 -0.0301,0.8048 -0.1945,1.2257 -0.1664,0.4269 -0.4022,0.7761 -0.7064,1.0454 -0.3044,0.2702 -0.6485,0.43 -1.0321,0.4794 -0.3846,0.0501 -0.7599,0.0031 -1.1259,-0.1398 -0.3974,-0.155 -0.7143,-0.3898 -0.9524,-0.703 -0.2376,-0.3132 -0.3733,-0.6673 -0.4048,-1.0616 -0.0318,-0.3937 0.0241,-0.7752 0.1687,-1.1454 z m 0.5734,0.2352 c -0.1981,0.5072 -0.2177,0.9599 -0.0584,1.3581 0.159,0.398 0.4445,0.6775 0.8566,0.8385 0.4204,0.1639 0.8221,0.1511 1.209,-0.0371 0.3858,-0.1888 0.6846,-0.5542 0.8958,-1.0959 0.1338,-0.3424 0.1924,-0.6644 0.1763,-0.9646 -0.0165,-0.3005 -0.1089,-0.565 -0.277,-0.7926 -0.1689,-0.2273 -0.3914,-0.3957 -0.6692,-0.5043 -0.3946,-0.1539 -0.7872,-0.1511 -1.1773,0.0091 -0.3903,0.1599 -0.7089,0.5556 -0.9558,1.1888 z m 4.6003,4.4995 1.9815,-3.4693 -1.2958,-0.7399 0.2634,-0.4609 3.1124,1.7773 -0.2633,0.4612 -1.2954,-0.7398 -1.9815,3.469 z m 2.6275,1.4369 2.6158,-3.6936 1.3858,0.9814 c 0.2821,0.1998 0.4819,0.3971 0.6001,0.5927 0.1171,0.1956 0.1687,0.4053 0.1551,0.629 -0.0125,0.2237 -0.0794,0.4204 -0.2001,0.5905 -0.1114,0.1573 -0.2597,0.2755 -0.4434,0.3546 -0.1839,0.0788 -0.3926,0.1 -0.6264,0.0638 0.1774,0.2236 0.2701,0.4572 0.2778,0.7001 0.0088,0.2424 -0.0632,0.4717 -0.2155,0.6866 -0.123,0.1737 -0.2738,0.3084 -0.4524,0.4053 -0.178,0.0972 -0.3495,0.1474 -0.5139,0.152 -0.1644,0.0039 -0.3424,-0.0307 -0.5332,-0.1038 -0.1922,-0.074 -0.4051,-0.1939 -0.6406,-0.3606 z m 2.0061,-1.7941 0.7988,0.5658 c 0.2168,0.1536 0.3826,0.2492 0.4963,0.2874 0.1511,0.0513 0.2886,0.0556 0.4119,0.0142 0.1239,-0.0417 0.2319,-0.1267 0.3237,-0.2565 0.087,-0.1228 0.1346,-0.252 0.1409,-0.3867 0.0079,-0.1352 -0.0306,-0.2593 -0.1154,-0.371 -0.0847,-0.1117 -0.2599,-0.2617 -0.525,-0.4493 L 90.0907,21.797 Z m -1.2096,1.7079 0.9201,0.6514 c 0.1582,0.112 0.2736,0.1848 0.3464,0.2183 0.1259,0.0592 0.2441,0.0926 0.3532,0.0989 0.1092,0.0062 0.22,-0.0184 0.3328,-0.074 0.1131,-0.0556 0.2106,-0.1426 0.2943,-0.2602 0.098,-0.1386 0.1471,-0.2832 0.1485,-0.436 0.0017,-0.1522 -0.0459,-0.2931 -0.1417,-0.4232 -0.0956,-0.1295 -0.2617,-0.2781 -0.4964,-0.4442 l -0.8546,-0.6052 z m 2.9186,2.7297 2.9562,-3.4273 2.4747,2.1347 -0.3467,0.402 -2.02,-1.7425 -0.9085,1.0531 1.891,1.6311 -0.347,0.4022 -1.8909,-1.631 -1.0075,1.1678 2.1013,1.8128 -0.3466,0.4019 z m 4.2071,3.7798 2.9039,-2.744 -1.0248,-1.0842 0.3861,-0.3646 2.4616,2.6051 -0.3861,0.3645 -1.0244,-1.0842 -2.9038,2.7439 z m 5.3278,3.7363 0.2508,0.5664 c -0.4649,0.2044 -0.898,0.2576 -1.3019,0.1607 -0.404,-0.0972 -0.7518,-0.3308 -1.0423,-0.7013 -0.2999,-0.3832 -0.4663,-0.7563 -0.4981,-1.1197 -0.0323,-0.3625 0.0511,-0.7225 0.2489,-1.0794 0.199,-0.358 0.4674,-0.6698 0.8073,-0.9363 0.3708,-0.2905 0.7492,-0.4731 1.1367,-0.5479 0.3872,-0.0743 0.7549,-0.0375 1.1033,0.1117 0.3481,0.1488 0.6446,0.3806 0.89,0.6942 0.2795,0.3566 0.4238,0.7268 0.4318,1.1111 0.009,0.3855 -0.1132,0.7543 -0.3669,1.1067 l -0.4722,-0.377 c 0.1947,-0.2849 0.2894,-0.5533 0.2846,-0.8022 -0.005,-0.2498 -0.1001,-0.493 -0.2866,-0.7311 -0.2137,-0.273 -0.4586,-0.4504 -0.7333,-0.5312 -0.2744,-0.0805 -0.5525,-0.0714 -0.8308,0.0275 -0.2801,0.0989 -0.5375,0.2401 -0.7722,0.4241 -0.3027,0.2369 -0.5329,0.4881 -0.6897,0.7528 -0.1573,0.2651 -0.2185,0.5341 -0.1851,0.8076 0.0338,0.2736 0.1355,0.5176 0.305,0.7342 0.2067,0.2636 0.457,0.4261 0.7518,0.4898 0.2954,0.0627 0.6179,0.0097 0.9689,-0.1607 z m 0.2188,3.1059 3.3531,-2.1719 -0.811,-1.252 0.4456,-0.2889 1.9486,3.0084 -0.4457,0.2886 -0.8109,-1.2521 -3.3534,2.1719 z m 1.5778,2.5387 3.9985,-2.12 0.7957,1.5004 c 0.1619,0.3053 0.2517,0.5715 0.2687,0.7994 0.0167,0.2273 -0.0314,0.4376 -0.1445,0.6312 -0.1117,0.1942 -0.2603,0.3396 -0.4445,0.4374 -0.1704,0.0902 -0.356,0.129 -0.5556,0.1168 -0.1996,-0.0122 -0.3957,-0.0873 -0.5882,-0.2251 0.0578,0.2798 0.0357,0.5298 -0.0669,0.7504 -0.1015,0.2205 -0.269,0.3926 -0.5017,0.5159 -0.188,0.0998 -0.3833,0.1519 -0.5862,0.1581 -0.203,0.0066 -0.3785,-0.0258 -0.5276,-0.0955 -0.1485,-0.0706 -0.2919,-0.1814 -0.4294,-0.3328 -0.1381,-0.1525 -0.2744,-0.3554 -0.4096,-0.6103 z m 2.599,-0.6984 0.4584,0.8648 c 0.1245,0.2347 0.2296,0.3949 0.3138,0.4799 0.1117,0.114 0.2327,0.1798 0.3614,0.1985 0.1293,0.0184 0.2642,-0.0088 0.4045,-0.0834 0.133,-0.0706 0.2336,-0.1647 0.3002,-0.282 0.0678,-0.1171 0.0893,-0.2452 0.0638,-0.3833 -0.0255,-0.1377 -0.1142,-0.3506 -0.2665,-0.6375 l -0.4237,-0.7996 z m -1.8487,0.9802 0.5281,0.9961 c 0.0907,0.1712 0.161,0.288 0.2109,0.3506 0.0856,0.1097 0.1763,0.1928 0.2707,0.2475 0.095,0.0547 0.2049,0.0825 0.3305,0.0839 0.1259,0.0011 0.2526,-0.0326 0.3799,-0.1 0.1502,-0.0797 0.259,-0.1866 0.3291,-0.3223 0.07,-0.1353 0.091,-0.2824 0.0637,-0.4417 -0.0269,-0.1587 -0.1082,-0.3662 -0.2429,-0.6202 l -0.4907,-0.9252 z m 1.3167,3.78 4.195,-1.6991 1.2268,3.0288 -0.4921,0.1993 -1.0015,-2.4724 -1.2889,0.5222 0.9374,2.3142 -0.4923,0.1995 -0.9375,-2.3144 -1.4295,0.5791 1.0418,2.5721 -0.4921,0.1993 z m 1.5865,4.2429 4.347,-1.2603 0.1672,0.5769 -1.7909,0.5193 0.6511,2.2464 1.7912,-0.5193 0.167,0.5766 -4.347,1.2603 -0.1672,-0.5766 2.046,-0.5933 -0.6511,-2.2462 -2.046,0.5931 z m 1.2308,4.7083 4.4629,-0.7551 0.1001,0.5922 -1.8389,0.3112 0.3904,2.306 1.8388,-0.3113 0.1001,0.5922 -4.4626,0.7551 -0.1004,-0.5921 2.1005,-0.3552 -0.39,-2.3063 -2.1005,0.3555 z m 2.9985,4.5669 c 0.7498,-0.0124 1.3411,0.1803 1.7722,0.5766 0.4309,0.3966 0.6512,0.9133 0.6619,1.5517 0.007,0.4184 -0.087,0.796 -0.2803,1.1353 -0.1939,0.3381 -0.4677,0.5987 -0.8218,0.7806 -0.3532,0.182 -0.7563,0.277 -1.2081,0.2846 -0.4581,0.0074 -0.8705,-0.0785 -1.2351,-0.2579 -0.3653,-0.1795 -0.6437,-0.4371 -0.8345,-0.7736 -0.1922,-0.337 -0.2908,-0.7021 -0.2973,-1.095 -0.007,-0.4266 0.0901,-0.8085 0.2897,-1.1478 0.1998,-0.3384 0.4759,-0.5981 0.8291,-0.7767 0.3524,-0.1785 0.7268,-0.2712 1.1242,-0.2778 z m -5e-4,0.6197 c -0.5446,0.0091 -0.9709,0.1624 -1.279,0.4606 -0.3082,0.298 -0.4587,0.6682 -0.4516,1.1104 0.007,0.451 0.1715,0.818 0.4924,1.1046 0.3209,0.2858 0.7721,0.4238 1.3535,0.4142 0.3674,-0.0063 0.688,-0.0737 0.9596,-0.2024 0.2718,-0.129 0.4816,-0.3147 0.6284,-0.5565 0.1466,-0.2426 0.218,-0.5125 0.2132,-0.8107 -0.007,-0.4235 -0.1585,-0.7855 -0.4541,-1.0859 -0.296,-0.3008 -0.783,-0.4456 -1.4624,-0.4343 z m -0.741,8.1578 -0.1965,0.5874 c -0.4813,-0.1625 -0.837,-0.4153 -1.0698,-0.7594 -0.2327,-0.3442 -0.3322,-0.7512 -0.2965,-1.2206 0.0369,-0.4853 0.1659,-0.8731 0.3873,-1.1625 0.2205,-0.2894 0.5249,-0.4989 0.9119,-0.6293 0.3883,-0.1301 0.7968,-0.1794 1.2274,-0.1468 0.4697,0.0357 0.8725,0.1561 1.2087,0.3619 0.3361,0.2064 0.5828,0.4819 0.7392,0.8266 0.1568,0.3447 0.2194,0.7158 0.1891,1.1129 -0.034,0.4518 -0.1774,0.8223 -0.4306,1.1117 -0.2534,0.2903 -0.5924,0.4805 -1.0173,0.5695 l -0.0941,-0.5967 c 0.3356,-0.0791 0.5864,-0.2134 0.7509,-0.4005 0.1652,-0.1871 0.2588,-0.4314 0.2814,-0.733 0.0264,-0.3456 -0.0348,-0.6418 -0.1831,-0.8867 -0.1482,-0.2446 -0.3597,-0.4255 -0.6318,-0.5403 -0.2736,-0.1157 -0.559,-0.1851 -0.8564,-0.2075 -0.3832,-0.0292 -0.7225,0.0011 -1.0168,0.091 -0.295,0.0896 -0.5215,0.2469 -0.6814,0.4714 -0.1593,0.2245 -0.2492,0.4734 -0.2699,0.7475 -0.0252,0.3342 0.0499,0.623 0.2248,0.8688 0.1758,0.2455 0.4496,0.4238 0.8235,0.5346 z m -1.9228,2.4426 3.9394,0.6665 0.2488,-1.4709 0.5236,0.0884 -0.5981,3.534 -0.5233,-0.0885 0.2489,-1.4712 -3.9393,-0.6664 z m 3.8574,4.2829 -0.1695,0.5763 -1.8499,-0.544 -0.3038,1.0341 c -0.1423,0.4833 -0.3017,0.8161 -0.4777,1.0006 -0.1769,0.1829 -0.3761,0.2931 -0.597,0.3317 -0.2219,0.0368 -0.4359,0.0255 -0.6409,-0.0349 -0.3367,-0.0989 -0.5984,-0.2999 -0.7838,-0.6038 -0.1862,-0.303 -0.1876,-0.7656 -0.004,-1.3892 l 0.4844,-1.6475 z m -4.0206,-0.5562 -0.3084,1.0492 c -0.125,0.4254 -0.1307,0.7248 -0.0182,0.8985 0.1128,0.1727 0.2767,0.2909 0.4901,0.3538 0.1729,0.0507 0.3342,0.0476 0.4831,-0.0105 0.1485,-0.0575 0.2644,-0.1596 0.3455,-0.3047 0.0811,-0.1454 0.1769,-0.404 0.2863,-0.7759 l 0.2259,-0.7681 z m 2.6495,5.1778 -0.2154,0.5607 -1.8941,-0.7282 -0.313,0.8141 c 0.5823,0.2704 0.9851,0.6497 1.2042,1.139 0.2208,0.4892 0.2307,0.9941 0.0303,1.5154 -0.2112,0.5485 -0.5797,0.9294 -1.1069,1.1409 -0.5261,0.212 -1.122,0.1908 -1.7867,-0.0649 -0.6902,-0.2653 -1.1619,-0.6531 -1.4125,-1.1639 -0.252,-0.5103 -0.2696,-1.0463 -0.0533,-1.6087 0.1962,-0.5105 0.529,-0.8699 0.997,-1.0805 0.468,-0.2107 1.0114,-0.2319 1.6299,-0.0618 l 0.3152,-0.8204 -1.8349,-0.7052 0.2157,-0.5607 z m -2.8738,1.1095 c -0.534,-0.2052 -0.9963,-0.2418 -1.3844,-0.11 -0.3892,0.1315 -0.6602,0.3963 -0.8133,0.7946 -0.1564,0.407 -0.1343,0.7891 0.0684,1.146 0.2026,0.3566 0.5805,0.6418 1.1361,0.8555 0.5261,0.2024 0.9862,0.2415 1.3807,0.1191 0.3938,-0.1228 0.6696,-0.3881 0.8266,-0.7963 0.1596,-0.415 0.1324,-0.8013 -0.081,-1.1596 -0.2146,-0.3581 -0.5922,-0.6412 -1.1331,-0.8493 z" />
  <path
     id="path20"
     style="fill:#1b1918;fill-rule:evenodd"
     d="m 30.7137,98.1539 2.4894,-2.8789 1.0868,0.94 c 0.191,0.1649 0.3288,0.3007 0.4147,0.4062 0.1207,0.1459 0.2007,0.2931 0.2398,0.4416 0.0382,0.1494 0.0354,0.3084 -0.0088,0.4774 -0.0442,0.1689 -0.1284,0.3248 -0.2517,0.4674 -0.2109,0.2441 -0.468,0.3838 -0.7699,0.4175 -0.3022,0.0355 -0.6574,-0.1241 -1.0647,-0.4765 l -0.7387,-0.6383 -1.0148,1.1738 z m 1.6891,-1.1815 0.7438,0.6432 c 0.2467,0.2131 0.4604,0.3183 0.6435,0.3163 0.1826,-0.0025 0.3456,-0.0867 0.4896,-0.2534 0.104,-0.1202 0.1629,-0.2495 0.176,-0.3878 0.0133,-0.1383 -0.0179,-0.265 -0.0933,-0.3784 -0.0499,-0.0723 -0.1607,-0.1837 -0.333,-0.3325 l -0.7365,-0.6367 z m 3.0337,2.7343 c 0.3651,-0.5142 0.79,-0.819 1.2733,-0.9133 0.4833,-0.095 0.9434,0.0133 1.381,0.324 0.2866,0.2035 0.4958,0.4552 0.6293,0.7554 0.133,0.2996 0.1729,0.6151 0.1196,0.9456 -0.0524,0.3297 -0.1887,0.65 -0.409,0.9598 -0.2228,0.3144 -0.4864,0.5508 -0.7894,0.7084 -0.3036,0.1582 -0.6169,0.2186 -0.9397,0.1806 -0.324,-0.0377 -0.6205,-0.1528 -0.8901,-0.3441 -0.2923,-0.2075 -0.5032,-0.4635 -0.6335,-0.7682 -0.1296,-0.3036 -0.1681,-0.62 -0.1131,-0.9482 0.0544,-0.3277 0.1782,-0.6276 0.3716,-0.9 z m 0.4195,0.309 c -0.265,0.3733 -0.3733,0.7387 -0.3249,1.0958 0.0485,0.3572 0.2243,0.6435 0.5276,0.8589 0.309,0.2194 0.6395,0.2911 0.9935,0.2166 0.3535,-0.0751 0.6715,-0.3121 0.9544,-0.7107 0.1792,-0.2522 0.2929,-0.5028 0.3411,-0.7511 0.0479,-0.2483 0.0263,-0.4831 -0.0641,-0.7025 -0.0916,-0.2205 -0.2387,-0.4033 -0.4431,-0.5482 -0.2902,-0.2061 -0.6111,-0.284 -0.962,-0.2333 -0.351,0.0505 -0.6917,0.3087 -1.0225,0.7745 z m 6.3439,4.5759 0.3745,0.362 c -0.2974,0.3064 -0.618,0.485 -0.9635,0.5372 -0.3455,0.0521 -0.69,-0.0202 -1.0335,-0.2172 -0.3552,-0.2035 -0.6027,-0.4416 -0.7421,-0.7143 -0.1403,-0.2727 -0.1888,-0.5791 -0.1474,-0.9201 0.0416,-0.3419 0.1522,-0.6696 0.3328,-0.9845 0.197,-0.3436 0.4342,-0.606 0.7123,-0.7863 0.2781,-0.1806 0.5763,-0.2682 0.8946,-0.2619 0.3184,0.006 0.6231,0.0926 0.9133,0.259 0.3306,0.1897 0.5599,0.4326 0.688,0.7294 0.1284,0.2976 0.15,0.6233 0.0638,0.9785 l -0.487,-0.1448 c 0.0615,-0.2832 0.0505,-0.5222 -0.0323,-0.7146 -0.0822,-0.1934 -0.2336,-0.3527 -0.4541,-0.4794 -0.2529,-0.1448 -0.4998,-0.2058 -0.7396,-0.1817 -0.2392,0.0241 -0.453,0.1188 -0.6386,0.284 -0.1868,0.1656 -0.3425,0.3569 -0.4675,0.5746 -0.1607,0.2804 -0.2605,0.5488 -0.299,0.8045 -0.0389,0.2568 -0.0014,0.4853 0.1111,0.688 0.1125,0.2024 0.269,0.3603 0.4697,0.4753 0.2443,0.1404 0.4907,0.1877 0.7404,0.144 0.25,-0.0445 0.4847,-0.1876 0.7041,-0.4317 z m 4.7084,2.0418 0.424,0.3025 c -0.2488,0.3472 -0.5394,0.5712 -0.8733,0.6741 -0.3342,0.1026 -0.6857,0.0824 -1.0545,-0.0616 -0.3813,-0.1488 -0.6613,-0.3475 -0.8396,-0.5967 -0.1792,-0.2488 -0.2727,-0.5448 -0.2823,-0.888 -0.0094,-0.3442 0.0515,-0.6849 0.1834,-1.0231 0.144,-0.3688 0.3395,-0.6636 0.5881,-0.883 0.2484,-0.2199 0.5301,-0.3506 0.8459,-0.3917 0.3155,-0.0414 0.6299,-6e-4 0.9417,0.121 0.3549,0.1386 0.6176,0.3447 0.7883,0.6197 0.1709,0.2749 0.2406,0.5941 0.208,0.9578 l -0.5031,-0.0709 c 0.019,-0.2891 -0.0272,-0.5238 -0.1378,-0.7021 -0.11,-0.1789 -0.2831,-0.3141 -0.5201,-0.4065 -0.2713,-0.106 -0.5247,-0.1295 -0.7583,-0.0703 -0.233,0.0593 -0.4303,0.1845 -0.5893,0.3753 -0.1605,0.1916 -0.286,0.404 -0.3773,0.6375 -0.1174,0.3011 -0.1763,0.5817 -0.1766,0.8402 -6e-4,0.2597 0.0703,0.4802 0.2117,0.6636 0.1415,0.1837 0.3195,0.3169 0.5349,0.4008 0.2625,0.1026 0.5131,0.1129 0.7538,0.0329 0.2406,-0.0811 0.4512,-0.2577 0.6324,-0.5315 z m 3.0365,-1.5239 0.4396,0.1259 -0.8294,2.8975 2.7771,-2.34 0.4796,0.1375 -1.0477,3.6587 -0.4393,-0.1259 0.8271,-2.8896 -2.7697,2.3335 -0.4847,-0.1386 z m 7.048,5.5006 0.6557,-3.7488 -1.6614,-0.2905 c -0.3342,-0.0584 -0.5936,-0.0686 -0.779,-0.0318 -0.1851,0.0366 -0.3447,0.131 -0.4785,0.2832 -0.1335,0.1519 -0.2188,0.3311 -0.2548,0.5372 -0.0468,0.2661 6e-4,0.5054 0.1406,0.718 0.14,0.2126 0.3852,0.3739 0.7362,0.4867 -0.1429,0.0397 -0.2535,0.085 -0.3323,0.1344 -0.1681,0.1074 -0.3342,0.25 -0.4974,0.4274 l -0.8269,0.9077 0.6196,0.1083 0.6322,-0.6937 c 0.1837,-0.2007 0.333,-0.3518 0.4473,-0.4549 0.1153,-0.1029 0.2134,-0.1713 0.2959,-0.2064 0.0817,-0.0343 0.1636,-0.0541 0.2435,-0.0598 0.0578,-0.002 0.1505,0.008 0.2787,0.0306 l 0.5745,0.1003 -0.2914,1.6651 z m -0.1312,-2.1812 -1.0647,-0.186 c -0.2268,-0.0399 -0.3989,-0.0944 -0.5179,-0.1638 -0.1196,-0.0683 -0.2033,-0.1605 -0.2506,-0.2758 -0.0482,-0.1145 -0.0618,-0.2322 -0.0405,-0.3532 0.0309,-0.1772 0.1202,-0.3124 0.2684,-0.4045 0.1483,-0.0919 0.3606,-0.1131 0.6372,-0.0647 l 1.1852,0.2073 z m 2.5041,2.427 0.0403,-0.5298 0.53,0.0403 -0.0402,0.5298 c -0.015,0.1953 -0.0612,0.3509 -0.1403,0.4657 -0.078,0.1148 -0.1953,0.1998 -0.3515,0.254 l -0.112,-0.2112 c 0.102,-0.0357 0.1797,-0.0938 0.2319,-0.1735 0.0533,-0.0802 0.0887,-0.1984 0.106,-0.3552 z m 4.2582,-2.5622 1.5885,-0.0346 0.0085,0.388 -1.1211,0.0244 0.0511,2.3701 -0.4675,0.01 z m 2.9716,2.6759 -0.0403,-0.5301 0.5301,-0.0403 0.0402,0.5301 z m 4.3367,-0.4414 -0.6557,-3.7491 0.7438,-0.1298 1.3505,2.4987 c 0.1253,0.2325 0.2168,0.4074 0.2761,0.5239 0.019,-0.1437 0.051,-0.3563 0.0955,-0.6367 l 0.4462,-2.7652 0.6641,-0.1162 0.6557,3.7491 -0.4765,0.0833 -0.5485,-3.1362 -0.5457,3.3276 -0.4467,0.0779 -1.6407,-3.0044 0.5584,3.1938 z m 5.0848,-2.8891 c -0.1984,-0.5986 -0.1922,-1.1213 0.0178,-1.5669 0.2098,-0.4456 0.5692,-0.7521 1.0789,-0.921 0.3339,-0.1103 0.6605,-0.1298 0.9816,-0.0595 0.3201,0.07 0.5979,0.2247 0.8326,0.4631 0.2347,0.2379 0.4118,0.5375 0.5315,0.8983 0.121,0.3657 0.1556,0.718 0.1032,1.0557 -0.0525,0.3381 -0.1894,0.6264 -0.4111,0.864 -0.2222,0.2386 -0.4904,0.4096 -0.8042,0.5133 -0.3404,0.1128 -0.6715,0.131 -0.9941,0.0559 -0.3214,-0.0754 -0.5992,-0.2316 -0.8311,-0.4706 -0.2319,-0.2375 -0.4002,-0.5151 -0.5051,-0.8323 z m 0.4975,-0.155 c 0.1437,0.4345 0.3738,0.7381 0.6902,0.9105 0.3166,0.1726 0.6514,0.2007 1.0049,0.0836 0.3597,-0.1191 0.6131,-0.343 0.7628,-0.6724 0.1485,-0.3291 0.146,-0.7256 -0.0077,-1.19 -0.0972,-0.2936 -0.2318,-0.5334 -0.4033,-0.7194 -0.1715,-0.1857 -0.3734,-0.3073 -0.6041,-0.3645 -0.2316,-0.0567 -0.4663,-0.0462 -0.7041,0.0326 -0.3379,0.1117 -0.5908,0.3243 -0.7577,0.6372 -0.167,0.3127 -0.1608,0.7398 0.019,1.2824 z m 7.4673,-2.3085 0.5125,-0.0916 c 0.0742,0.4204 0.0314,0.7849 -0.1287,1.0956 -0.1602,0.3107 -0.4204,0.5476 -0.7813,0.7109 -0.373,0.1684 -0.7106,0.2299 -1.0136,0.1831 -0.303,-0.0459 -0.58,-0.1859 -0.8323,-0.4192 -0.2525,-0.2339 -0.4535,-0.5153 -0.6032,-0.8464 -0.163,-0.3609 -0.237,-0.7064 -0.22,-1.0378 0.0162,-0.3311 0.1199,-0.6239 0.3113,-0.8785 0.191,-0.2548 0.4399,-0.4509 0.7449,-0.5887 0.3473,-0.157 0.6784,-0.2007 0.9941,-0.1304 0.3164,0.07 0.5931,0.2432 0.8303,0.521 l -0.4022,0.3101 c -0.1936,-0.2157 -0.394,-0.3467 -0.5984,-0.3923 -0.205,-0.0465 -0.4227,-0.0173 -0.6543,0.0876 -0.2656,0.1199 -0.4597,0.2846 -0.5805,0.4929 -0.1205,0.2081 -0.1689,0.4369 -0.1437,0.684 0.0249,0.2484 0.0887,0.4867 0.1922,0.7155 0.1329,0.2942 0.2922,0.5323 0.4771,0.7135 0.1851,0.182 0.3926,0.2854 0.6224,0.3126 0.2302,0.0273 0.4499,-0.007 0.6608,-0.1023 0.2565,-0.1159 0.4394,-0.288 0.5502,-0.5159 0.1103,-0.2287 0.1315,-0.5029 0.0624,-0.8237 z m 1.0048,-3.284 0.4386,-0.2506 0.8277,1.4497 c 0.199,-0.1137 0.3175,-0.2333 0.3537,-0.3572 0.0372,-0.1241 0.0341,-0.3693 -0.0082,-0.7367 -0.0326,-0.2699 -0.0448,-0.466 -0.0357,-0.5896 0.0077,-0.1236 0.0493,-0.2478 0.1247,-0.3714 0.0746,-0.1227 0.1783,-0.2228 0.311,-0.2984 0.1684,-0.0961 0.2577,-0.1455 0.2684,-0.1474 l 0.2163,0.3784 c -0.0153,0.009 -0.0451,0.0246 -0.089,0.0476 -0.0493,0.0264 -0.0791,0.0422 -0.0896,0.0482 -0.1394,0.0796 -0.2239,0.1729 -0.2531,0.2792 -0.0303,0.1072 -0.0264,0.2965 0.0105,0.5683 0.049,0.3433 0.0561,0.5738 0.021,0.6909 -0.0352,0.1159 -0.0939,0.227 -0.1749,0.3313 0.2463,-0.0632 0.57,0.0142 0.9694,0.231 l 1.3088,0.7115 -0.5431,0.3102 -1.0662,-0.5789 c -0.2933,-0.1618 -0.5176,-0.2605 -0.672,-0.2945 -0.1554,-0.0349 -0.3133,-0.006 -0.4757,0.0867 l 0.883,1.5463 -0.4388,0.2506 z m 5.7878,0.9542 -2.1974,-3.1077 1.1659,-0.8243 c 0.2373,-0.1678 0.4496,-0.271 0.6381,-0.3098 0.1873,-0.0386 0.3682,-0.021 0.542,0.0527 0.1737,0.0723 0.3109,0.1806 0.4121,0.3237 0.0936,0.1324 0.146,0.2829 0.1571,0.451 0.0113,0.1678 -0.0304,0.3391 -0.1245,0.5142 0.2268,-0.0779 0.438,-0.0859 0.633,-0.0241 0.1947,0.061 0.3563,0.182 0.4842,0.3626 0.1031,0.1463 0.168,0.3036 0.1947,0.472 0.0269,0.1686 0.0193,0.3186 -0.0233,0.4504 -0.0428,0.1312 -0.1199,0.263 -0.2313,0.3937 -0.1122,0.1315 -0.267,0.267 -0.4651,0.4071 z m -0.8614,-2.0929 0.6718,-0.475 c 0.1823,-0.129 0.3047,-0.2339 0.3665,-0.3133 0.0831,-0.1051 0.125,-0.2131 0.1267,-0.3228 0.0017,-0.1095 -0.0354,-0.2189 -0.1128,-0.3283 -0.0731,-0.1035 -0.1621,-0.1772 -0.2673,-0.22 -0.1049,-0.0442 -0.2143,-0.0481 -0.3266,-0.0119 -0.1122,0.0358 -0.2803,0.1327 -0.5028,0.2903 l -0.6214,0.4394 z m 1.0159,1.4366 0.7739,-0.547 c 0.1329,-0.0942 0.2228,-0.1653 0.2698,-0.2141 0.0822,-0.083 0.142,-0.1672 0.1775,-0.252 0.0357,-0.085 0.0468,-0.1797 0.0343,-0.2846 -0.0128,-0.1054 -0.0542,-0.2072 -0.1242,-0.3064 -0.0825,-0.1162 -0.1834,-0.1956 -0.3041,-0.2392 -0.1202,-0.0442 -0.2452,-0.0459 -0.3753,-0.006 -0.1296,0.0394 -0.2937,0.1296 -0.491,0.269 l -0.7192,0.5086 z m 3.4467,-1.9825 -1.4151,-3.8225 0.4158,-0.3654 3.676,1.8366 -0.4306,0.3784 -1.0919,-0.576 -1.2038,1.0576 0.4507,1.1389 z m -0.2087,-1.8967 0.9743,-0.8557 -0.9944,-0.531 c -0.3016,-0.1618 -0.5445,-0.3013 -0.7296,-0.4167 0.1244,0.2208 0.2327,0.4499 0.3259,0.6888 z" />
  <path
     id="path22"
     style="fill:#1b1918;fill-rule:evenodd"
     d="m 23.9156,86.7813 c 0.6647,0 1.2033,0.5385 1.2033,1.2033 0,0.6644 -0.5386,1.203 -1.2033,1.203 -0.6644,0 -1.203,-0.5386 -1.203,-1.203 0,-0.6648 0.5386,-1.2033 1.203,-1.2033 z" />
  <path
     id="path24"
     style="fill:#1b1918;fill-rule:evenodd"
     d="m 103.0921,86.7813 c 0.6647,0 1.2033,0.5385 1.2033,1.2033 0,0.6644 -0.5386,1.203 -1.2033,1.203 -0.6644,0 -1.203,-0.5386 -1.203,-1.203 0,-0.6648 0.5386,-1.2033 1.203,-1.2033 z" />
  <path
     id="path26"
     style="fill:#1b1918;fill-rule:evenodd"
     d="m 30.8803,41.025 c -0.6791,-0.4779 -1.0828,-1.0358 -1.2101,-1.6716 -0.1275,-0.6361 0.0122,-1.2422 0.419,-1.8204 0.2665,-0.379 0.597,-0.656 0.9913,-0.8331 0.3937,-0.1769 0.8087,-0.2313 1.2444,-0.1633 0.4345,0.0675 0.8575,0.2452 1.2668,0.5329 0.415,0.2923 0.7282,0.6378 0.9371,1.0361 0.2101,0.3988 0.2911,0.811 0.2429,1.2364 -0.0481,0.4269 -0.1975,0.8181 -0.4481,1.1739 -0.2719,0.3866 -0.6075,0.6653 -1.0077,0.8385 -0.3994,0.1729 -0.8158,0.225 -1.2484,0.1547 -0.4317,-0.0697 -0.8274,-0.231 -1.1872,-0.4841 z m 0.4043,-0.5545 c 0.4932,0.3473 0.9751,0.4879 1.4454,0.4218 0.4697,-0.066 0.8461,-0.2988 1.1281,-0.6999 0.2872,-0.4081 0.3799,-0.8438 0.2795,-1.3096 -0.1012,-0.4646 -0.415,-0.8824 -0.9416,-1.2529 -0.3331,-0.2341 -0.6636,-0.3824 -0.991,-0.4445 -0.3274,-0.062 -0.6361,-0.0325 -0.925,0.0882 -0.2894,0.1216 -0.5295,0.3166 -0.7191,0.5865 -0.2702,0.3838 -0.3705,0.8065 -0.3019,1.2685 0.0686,0.4618 0.4102,0.9091 1.0256,1.3419 z m 1.6648,-6.2237 2.2155,-2.3653 0.4292,0.402 -1.7609,1.8799 3.2289,3.0243 -0.4546,0.4853 z m 6.582,0.4575 -3.0813,-3.9529 1.4928,-1.1634 c 0.2622,-0.2043 0.4728,-0.3478 0.6312,-0.4314 0.2192,-0.1191 0.4301,-0.1843 0.6319,-0.1967 0.2027,-0.0116 0.4073,0.0329 0.6143,0.1335 0.2069,0.1003 0.3866,0.2492 0.5394,0.445 0.2611,0.3351 0.3759,0.7022 0.3424,1.1016 -0.0323,0.3991 -0.3294,0.8169 -0.8887,1.2529 l -1.0142,0.7906 1.2569,1.612 z m -1.0936,-2.4846 1.0216,-0.7962 c 0.3385,-0.2639 0.5289,-0.5128 0.5732,-0.7501 0.0433,-0.2367 -0.0233,-0.4685 -0.2019,-0.6976 -0.1284,-0.1647 -0.2803,-0.2741 -0.4558,-0.3265 -0.1754,-0.0528 -0.3469,-0.0448 -0.5125,0.0238 -0.1063,0.0456 -0.2786,0.1607 -0.515,0.3449 l -1.0111,0.7884 z m 5.1372,-0.6134 -2.4094,-4.3948 0.5831,-0.3198 0.9927,1.8108 2.2711,-1.245 -0.9927,-1.811 0.5833,-0.3195 2.4092,4.3948 -0.5831,0.3198 -1.1341,-2.0687 -2.2711,1.2449 1.1341,2.0688 z m 5.9434,-5.8774 c -0.1672,-0.5672 -0.2443,-1.0431 -0.2304,-1.4244 0.0147,-0.3826 0.1091,-0.7013 0.2846,-0.9561 0.1743,-0.2545 0.4368,-0.4331 0.786,-0.536 0.2571,-0.076 0.4983,-0.0913 0.7248,-0.0448 0.2254,0.0465 0.4309,0.1488 0.614,0.3078 0.1829,0.1576 0.3515,0.3668 0.506,0.6265 0.1556,0.2594 0.3036,0.6284 0.4439,1.1038 0.1664,0.5641 0.2429,1.0375 0.2299,1.4185 -0.0125,0.3821 -0.1072,0.7007 -0.2821,0.9567 -0.174,0.2559 -0.4373,0.4354 -0.7885,0.5391 -0.4621,0.1363 -0.8745,0.0791 -1.236,-0.1729 -0.4354,-0.3093 -0.7857,-0.9153 -1.0522,-1.8182 z m 0.6052,-0.176 c 0.2333,0.7912 0.4802,1.2898 0.7413,1.495 0.2616,0.2064 0.5284,0.2687 0.7991,0.1888 0.2707,-0.0799 0.4603,-0.2781 0.5683,-0.5933 0.1072,-0.3163 0.044,-0.868 -0.1888,-1.6571 -0.2335,-0.7912 -0.4802,-1.2898 -0.7415,-1.495 -0.2602,-0.2067 -0.5292,-0.2685 -0.8056,-0.1868 -0.2707,0.0799 -0.4538,0.2593 -0.5485,0.5363 -0.1162,0.3518 -0.0573,0.9229 0.1757,1.7121 z m 3.6397,-1.0947 c -0.1329,-0.5763 -0.1814,-1.0559 -0.1446,-1.4358 0.0377,-0.381 0.1514,-0.6933 0.3416,-0.9371 0.1894,-0.2438 0.4621,-0.4062 0.8167,-0.4879 0.2613,-0.0603 0.5031,-0.0612 0.7265,-0.0014 0.2222,0.0601 0.4209,0.1746 0.5944,0.3444 0.1729,0.1684 0.3288,0.3873 0.4672,0.6557 0.14,0.2684 0.2653,0.6454 0.377,1.1285 0.1321,0.5728 0.18,1.0502 0.1443,1.4298 -0.0355,0.3807 -0.1491,0.693 -0.3393,0.9379 -0.1888,0.245 -0.4624,0.4085 -0.8193,0.4907 -0.4697,0.1086 -0.8778,0.0267 -1.2234,-0.2469 -0.4161,-0.3347 -0.7293,-0.9606 -0.9411,-1.8779 z m 0.6146,-0.1395 c 0.1856,0.8039 0.4019,1.3164 0.6502,1.537 0.2489,0.2216 0.5111,0.2999 0.7864,0.2364 0.2749,-0.0635 0.4762,-0.2501 0.6029,-0.5582 0.1261,-0.3092 0.0961,-0.8637 -0.089,-1.6653 -0.1854,-0.8037 -0.4017,-1.3164 -0.6503,-1.537 -0.2475,-0.2219 -0.5122,-0.2996 -0.7931,-0.2347 -0.275,0.0635 -0.4683,0.2316 -0.5794,0.5023 -0.1375,0.3441 -0.1126,0.9179 0.0723,1.7195 z m 3.9469,-0.824 c -0.0445,-0.5899 -0.0198,-1.0715 0.074,-1.4412 0.0947,-0.371 0.254,-0.6627 0.4791,-0.875 0.2239,-0.2123 0.5178,-0.3317 0.8807,-0.3592 0.2676,-0.0201 0.5068,0.0156 0.7183,0.1086 0.2106,0.093 0.39,0.2358 0.5357,0.43 0.1457,0.1925 0.2665,0.4323 0.3629,0.7189 0.0978,0.286 0.1649,0.678 0.2024,1.1724 0.0442,0.5862 0.0195,1.0653 -0.0732,1.4349 -0.0924,0.371 -0.252,0.6627 -0.4768,0.8762 -0.2239,0.2134 -0.519,0.3339 -0.8841,0.3614 -0.4805,0.0363 -0.8716,-0.1063 -1.1721,-0.4286 -0.3609,-0.3937 -0.576,-1.0599 -0.6469,-1.9984 z m 0.6287,-0.0454 c 0.0621,0.8226 0.1985,1.3621 0.4108,1.6175 0.2126,0.2568 0.46,0.3736 0.7415,0.3523 0.2815,-0.0212 0.5086,-0.1752 0.6803,-0.4606 0.1713,-0.2866 0.2254,-0.8394 0.1636,-1.6597 -0.0621,-0.8226 -0.1987,-1.362 -0.411,-1.6174 -0.2112,-0.2569 -0.4612,-0.3737 -0.7487,-0.3518 -0.2814,0.0212 -0.498,0.1581 -0.6488,0.409 -0.1877,0.3195 -0.2497,0.8907 -0.1877,1.7107 z m 3.841,-0.2245 c 0.0025,-0.5916 0.0655,-1.0695 0.1882,-1.4306 0.1242,-0.3623 0.3064,-0.6407 0.5477,-0.8343 0.2401,-0.1936 0.5425,-0.2891 0.9065,-0.2877 0.2681,0.0014 0.5037,0.0559 0.7075,0.1656 0.2024,0.1094 0.3696,0.2661 0.4995,0.4714 0.1298,0.2035 0.2313,0.4521 0.3044,0.7452 0.0748,0.2934 0.1106,0.6891 0.1083,1.1849 -0.0026,0.5879 -0.0655,1.0635 -0.1874,1.4247 -0.1216,0.3622 -0.3038,0.6403 -0.5451,0.8353 -0.2401,0.1951 -0.5437,0.2914 -0.9099,0.2897 -0.4819,-0.0019 -0.8606,-0.1751 -1.1341,-0.5207 -0.3286,-0.4212 -0.4899,-1.1021 -0.4856,-2.0435 z m 0.6301,0.0051 c -0.0037,0.8249 0.0893,1.3734 0.2807,1.645 0.1913,0.2727 0.4288,0.409 0.7112,0.4101 0.2823,0.0015 0.5207,-0.1338 0.7146,-0.4047 0.1936,-0.2722 0.2917,-0.819 0.2954,-1.6416 0.0036,-0.8249 -0.0896,-1.3734 -0.2807,-1.6449 -0.1902,-0.2727 -0.43,-0.4091 -0.7183,-0.4105 -0.2823,-0.0011 -0.5091,0.1179 -0.6794,0.3563 -0.2124,0.3033 -0.3198,0.8677 -0.3235,1.6903 z m 4.0031,0.112 c 0.087,-0.5854 0.2172,-1.0494 0.3903,-1.3893 0.1744,-0.341 0.3943,-0.5904 0.6605,-0.7477 0.2653,-0.1574 0.5786,-0.209 0.9386,-0.1557 0.265,0.0394 0.4906,0.127 0.6766,0.2645 0.1848,0.1372 0.328,0.3163 0.4275,0.5377 0.0992,0.2197 0.1644,0.4805 0.195,0.7813 0.0323,0.3007 0.0113,0.6976 -0.0615,1.188 -0.0865,0.5813 -0.2163,1.0434 -0.3881,1.3836 -0.1723,0.3412 -0.392,0.5904 -0.6588,0.7489 -0.2653,0.159 -0.5796,0.2111 -0.9419,0.1576 -0.4768,-0.0709 -0.8266,-0.2962 -1.0485,-0.6769 -0.2651,-0.4638 -0.3277,-1.1608 -0.1897,-2.092 z m 0.6231,0.0947 c -0.1211,0.8158 -0.1069,1.3722 0.0436,1.6682 0.1505,0.2973 0.3663,0.466 0.6455,0.5074 0.2792,0.0413 0.5346,-0.0587 0.765,-0.2991 0.2305,-0.2418 0.4054,-0.769 0.5262,-1.5826 0.121,-0.8161 0.1068,-1.3722 -0.0437,-1.6685 -0.1494,-0.2967 -0.3674,-0.466 -0.6525,-0.5082 -0.2792,-0.0414 -0.5208,0.0442 -0.7232,0.2557 -0.2534,0.2701 -0.4402,0.8132 -0.5609,1.6271 z m 3.9804,0.5255 c 0.1686,-0.5669 0.3634,-1.008 0.5828,-1.3198 0.2211,-0.3129 0.4739,-0.5287 0.76,-0.6466 0.2848,-0.1185 0.602,-0.125 0.951,-0.0212 0.2571,0.0768 0.4677,0.1953 0.6324,0.3577 0.1635,0.1618 0.28,0.3597 0.3469,0.5927 0.0672,0.2319 0.0947,0.4992 0.0825,0.8011 -0.0107,0.3022 -0.0878,0.6922 -0.2293,1.1673 -0.1678,0.5635 -0.362,1.0023 -0.5802,1.3147 -0.2189,0.3135 -0.4717,0.5292 -0.758,0.6483 -0.2855,0.1196 -0.6041,0.1267 -0.955,0.0221 -0.4618,-0.1375 -0.7764,-0.4102 -0.942,-0.8184 -0.1967,-0.4966 -0.1598,-1.1956 0.1089,-2.0979 z m 0.6032,0.182 c -0.2356,0.7906 -0.3005,1.3433 -0.1933,1.6577 0.1068,0.3155 0.2965,0.5131 0.5669,0.5936 0.2707,0.0808 0.5374,0.0178 0.7999,-0.1877 0.2625,-0.2066 0.51,-0.7035 0.745,-1.4921 0.2355,-0.7906 0.3005,-1.3431 0.1933,-1.6575 -0.106,-0.3152 -0.2976,-0.5133 -0.574,-0.5958 -0.2704,-0.0805 -0.5216,-0.0298 -0.752,0.1508 -0.2895,0.2316 -0.5511,0.7427 -0.7858,1.531 z m 3.6482,1.1154 c 0.2058,-0.5544 0.4291,-0.9816 0.6687,-1.2787 0.2409,-0.2973 0.5077,-0.496 0.8008,-0.595 0.2919,-0.0992 0.6091,-0.085 0.9501,0.0417 0.2515,0.0933 0.4541,0.2256 0.6075,0.3985 0.1525,0.1724 0.2557,0.3773 0.3073,0.6143 0.0519,0.2359 0.0615,0.5043 0.0295,0.8048 -0.0307,0.301 -0.1333,0.6851 -0.3059,1.1497 -0.2047,0.5513 -0.4269,0.9763 -0.6656,1.2736 -0.2389,0.2982 -0.5057,0.4969 -0.7991,0.5967 -0.2925,0.1006 -0.6108,0.0867 -0.9544,-0.0405 -0.4515,-0.1678 -0.7475,-0.4607 -0.8858,-0.8791 -0.1636,-0.5082 -0.0808,-1.2033 0.2469,-2.086 z m 0.5899,0.2214 c -0.2872,0.7736 -0.3884,1.3207 -0.3022,1.6416 0.0859,0.3217 0.2622,0.5312 0.5267,0.6295 0.2647,0.0984 0.5352,0.0533 0.8104,-0.1346 0.2755,-0.1888 0.5553,-0.6684 0.8416,-1.4397 0.2872,-0.7733 0.3884,-1.3204 0.3022,-1.6413 -0.0848,-0.3214 -0.2631,-0.5318 -0.5332,-0.6321 -0.2648,-0.0984 -0.5188,-0.0644 -0.7606,0.1009 -0.3038,0.2117 -0.5986,0.7047 -0.8849,1.4757 z m 3.6895,1.5123 c 0.2798,-0.5213 0.559,-0.9142 0.8371,-1.1755 0.2792,-0.262 0.5706,-0.4224 0.8745,-0.4802 0.3027,-0.0587 0.6148,-0.0014 0.9357,0.1706 0.2361,0.1267 0.4187,0.2855 0.5474,0.4777 0.1276,0.1916 0.2018,0.4087 0.2205,0.6505 0.019,0.2407 -0.0079,0.508 -0.0805,0.8014 -0.0714,0.2939 -0.2253,0.6602 -0.4598,1.0973 -0.2778,0.5179 -0.5561,0.9087 -0.8331,1.1707 -0.2772,0.263 -0.5686,0.4232 -0.873,0.4824 -0.3033,0.0596 -0.6171,0.0026 -0.9397,-0.1706 -0.4246,-0.2276 -0.6781,-0.5582 -0.758,-0.9913 -0.0924,-0.5261 0.0842,-1.2033 0.5289,-2.033 z m 0.5545,0.2999 c -0.39,0.7268 -0.5649,1.2552 -0.5233,1.5846 0.0414,0.3305 0.1871,0.5624 0.436,0.6956 0.2489,0.1335 0.523,0.1258 0.8212,-0.0227 0.2988,-0.1497 0.6415,-0.5865 1.0301,-1.3116 0.3898,-0.7268 0.5647,-1.2552 0.523,-1.5848 -0.04,-0.33 -0.1879,-0.5627 -0.4419,-0.6991 -0.2489,-0.1332 -0.5052,-0.1343 -0.7671,-0.0036 -0.3299,0.1683 -0.6894,0.6165 -1.078,1.3416 z m 3.4846,1.872 c 0.3402,-0.4839 0.665,-0.8402 0.9723,-1.0661 0.309,-0.2265 0.6174,-0.3507 0.9261,-0.3716 0.3076,-0.0216 0.6106,0.0731 0.9082,0.2823 0.2194,0.1542 0.3816,0.3339 0.4859,0.54 0.1034,0.2055 0.1513,0.43 0.1406,0.6724 -0.0099,0.2412 -0.0689,0.5034 -0.1763,0.7857 -0.1063,0.2832 -0.3033,0.6285 -0.5885,1.0338 -0.3385,0.4811 -0.6619,0.8354 -0.968,1.0622 -0.3073,0.2276 -0.6157,0.3518 -0.925,0.3736 -0.3084,0.0229 -0.6128,-0.0717 -0.9125,-0.2823 -0.394,-0.2773 -0.6054,-0.6359 -0.6327,-1.0755 -0.0286,-0.5335 0.2282,-1.1846 0.7699,-1.9545 z m 0.514,0.3643 c -0.4746,0.6749 -0.7118,1.178 -0.7101,1.5103 0.0011,0.333 0.1182,0.5808 0.3489,0.7432 0.231,0.1624 0.504,0.1877 0.8181,0.0762 0.3144,-0.1125 0.7072,-0.5051 1.1806,-1.178 0.4745,-0.6747 0.7118,-1.1781 0.7101,-1.5103 -3e-4,-0.3322 -0.119,-0.5811 -0.3549,-0.747 -0.2307,-0.1624 -0.485,-0.1944 -0.7608,-0.0963 -0.3481,0.1275 -0.7586,0.5292 -1.2319,1.2019 z m 3.1252,2.3116 c 0.3849,-0.4493 0.7423,-0.7727 1.0697,-0.9683 0.3291,-0.1959 0.648,-0.2897 0.9573,-0.2812 0.3084,0.0079 0.601,0.131 0.8773,0.3679 0.2036,0.1746 0.3476,0.3688 0.432,0.584 0.0834,0.2146 0.1092,0.4425 0.0754,0.6828 -0.0329,0.2393 -0.1168,0.4944 -0.2506,0.7654 -0.1329,0.2715 -0.3622,0.5964 -0.6848,0.9728 -0.3827,0.4462 -0.7387,0.7679 -1.0653,0.9644 -0.3274,0.1973 -0.6463,0.2911 -0.9564,0.2835 -0.3092,-0.0069 -0.6032,-0.1302 -0.881,-0.3686 -0.3659,-0.3135 -0.5422,-0.6908 -0.5272,-1.131 0.0227,-0.5337 0.3407,-1.1571 0.9536,-1.8717 z m 0.4767,0.4119 c -0.5368,0.6262 -0.8212,1.1044 -0.8515,1.4352 -0.0306,0.3316 0.0621,0.5893 0.2764,0.773 0.2143,0.1839 0.4836,0.2352 0.807,0.1542 0.3237,-0.0819 0.7523,-0.4349 1.2878,-1.0593 0.5369,-0.6262 0.8212,-1.1047 0.8512,-1.4355 0.0318,-0.3308 -0.0626,-0.5899 -0.2814,-0.7775 -0.2143,-0.184 -0.4644,-0.2399 -0.7484,-0.1687 -0.3583,0.0935 -0.8056,0.4541 -1.3411,1.0786 z m 3.07,2.6422 c 0.4504,-0.3836 0.854,-0.6472 1.2081,-0.7892 0.3557,-0.142 0.6854,-0.1848 0.9896,-0.1281 0.3033,0.0561 0.5728,0.2233 0.8087,0.5006 0.1737,0.2041 0.2857,0.4186 0.3353,0.6443 0.0491,0.225 0.0389,0.4541 -0.032,0.6862 -0.07,0.2311 -0.1925,0.47 -0.3674,0.7166 -0.1737,0.2475 -0.4507,0.5327 -0.8283,0.8538 -0.4478,0.381 -0.8495,0.6432 -1.203,0.7861 -0.354,0.1437 -0.6837,0.1868 -0.9887,0.1307 -0.3044,-0.0553 -0.5754,-0.2228 -0.813,-0.5018 -0.3121,-0.3671 -0.4274,-0.767 -0.3435,-1.1996 0.1057,-0.5236 0.5173,-1.0896 1.2342,-1.6996 z m 0.4067,0.4813 c -0.6284,0.5346 -0.9839,0.9626 -1.0655,1.2846 -0.0822,0.3226 -0.0309,0.5916 0.1522,0.8068 0.1828,0.2148 0.4408,0.3075 0.7727,0.2783 0.3328,-0.0303 0.8113,-0.3121 1.4378,-0.8452 0.6281,-0.5347 0.9839,-0.9627 1.0652,-1.2847 0.0831,-0.3217 0.0304,-0.5925 -0.1564,-0.8121 -0.1832,-0.2149 -0.4213,-0.3093 -0.713,-0.2835 -0.3685,0.0366 -0.8665,0.3226 -1.493,0.8558 z m 2.528,2.98 c 0.4875,-0.335 0.9158,-0.5558 1.2826,-0.6607 0.3686,-0.1046 0.7008,-0.1137 0.9973,-0.0258 0.2962,0.0867 0.5471,0.2809 0.7534,0.5808 0.1517,0.2211 0.2413,0.4456 0.2673,0.6755 0.0255,0.2288 -0.0079,0.4558 -0.1023,0.6792 -0.0933,0.2225 -0.2398,0.4479 -0.4388,0.6752 -0.1984,0.2285 -0.5032,0.4833 -0.9119,0.7642 -0.4844,0.3331 -0.9111,0.5528 -1.277,0.6585 -0.3671,0.1066 -0.6996,0.1154 -0.9972,0.0284 -0.2971,-0.0862 -0.5494,-0.2807 -0.7569,-0.5826 -0.273,-0.3971 -0.3464,-0.8067 -0.2188,-1.2285 0.159,-0.51 0.6264,-1.031 1.4023,-1.5642 z m 0.3549,0.5208 c -0.6798,0.4671 -1.0775,0.8563 -1.1914,1.1684 -0.1151,0.3127 -0.0916,0.5854 0.0683,0.8181 0.1599,0.2327 0.407,0.3515 0.7401,0.3563 0.3342,0.004 0.8391,-0.2273 1.5171,-0.6931 0.6798,-0.4674 1.0775,-0.8566 1.1914,-1.1687 0.1157,-0.3115 0.091,-0.5862 -0.0723,-0.8237 -0.1601,-0.2328 -0.3872,-0.351 -0.68,-0.3552 -0.3705,-0.0014 -0.8952,0.2318 -1.5732,0.6979 z" />
  <path
     id="path28"
     style="fill:#1b1918;fill-rule:evenodd"
     d="m 39.2723,89.2582 0.3915,0.3367 -2.2187,2.5793 3.9523,-1.088 0.4269,0.3671 -2.8017,3.257 -0.3912,-0.3364 2.2127,-2.5722 -3.9418,1.0848 -0.4315,-0.3713 z m 1.0627,6.4182 2.2779,-3.6425 0.4834,0.3021 -0.9389,1.501 1.8825,1.1772 0.9386,-1.5009 0.4833,0.3021 -2.278,3.6426 -0.4833,-0.3022 1.0721,-1.7144 -1.8825,-1.1772 -1.0721,1.7144 z m 4.292,2.5622 2.0069,-3.7987 0.5037,0.2662 -0.8269,1.5653 1.963,1.0369 0.8269,-1.5653 0.504,0.2662 -2.0066,3.799 -0.504,-0.2665 0.9445,-1.7878 -1.9633,-1.0369 -0.9442,1.7878 z m 7.1005,0.7889 c 0.1425,-0.4864 0.3078,-0.8651 0.4949,-1.1336 0.1882,-0.2687 0.4045,-0.4544 0.6488,-0.5567 0.2441,-0.1023 0.5157,-0.1094 0.8153,-0.0215 0.2205,0.0646 0.4014,0.1655 0.5431,0.3041 0.1409,0.1381 0.2412,0.3073 0.2996,0.5066 0.0584,0.1987 0.0831,0.428 0.074,0.6868 -0.0085,0.2591 -0.0731,0.5936 -0.1927,1.0012 -0.1418,0.4836 -0.3068,0.8603 -0.4927,1.129 -0.1862,0.2696 -0.4022,0.4553 -0.6474,0.5585 -0.2438,0.1037 -0.5171,0.1111 -0.8184,0.0226 -0.3963,-0.1162 -0.6667,-0.3489 -0.8101,-0.6981 -0.1704,-0.4252 -0.1415,-1.0245 0.0856,-1.7989 z m 0.5176,0.1539 c -0.199,0.6783 -0.2526,1.1526 -0.1596,1.4216 0.093,0.2701 0.2559,0.4388 0.4881,0.5068 0.2324,0.0683 0.4609,0.0133 0.6849,-0.1638 0.2242,-0.178 0.4348,-0.6052 0.6332,-1.2816 0.199,-0.6783 0.2526,-1.1525 0.1593,-1.4218 -0.0915,-0.2696 -0.2568,-0.4388 -0.4935,-0.5083 -0.2324,-0.0683 -0.4473,-0.0241 -0.6443,0.1321 -0.2472,0.1993 -0.4697,0.6387 -0.6681,1.315 z m 3.086,0.8581 c 0.082,-0.5004 0.1993,-0.8966 0.3518,-1.1858 0.154,-0.29 0.3456,-0.5008 0.5755,-0.6324 0.2296,-0.1318 0.4983,-0.172 0.8064,-0.1216 0.2268,0.0372 0.419,0.1148 0.5766,0.235 0.1567,0.1196 0.2772,0.2753 0.3594,0.466 0.0825,0.1897 0.1352,0.4144 0.1579,0.6721 0.0235,0.2585 6e-4,0.5981 -0.068,1.0177 -0.0811,0.4972 -0.1984,0.8915 -0.3501,1.1809 -0.1517,0.2902 -0.3433,0.5011 -0.5737,0.6338 -0.2294,0.1329 -0.4995,0.1738 -0.8093,0.123 -0.4076,-0.0666 -0.7047,-0.2642 -0.8901,-0.593 -0.2214,-0.4011 -0.2665,-0.9992 -0.1364,-1.7957 z m 0.5327,0.089 c -0.114,0.6979 -0.1089,1.1749 0.0164,1.4306 0.1256,0.2566 0.3081,0.404 0.5471,0.4428 0.2387,0.0391 0.4589,-0.0437 0.6593,-0.2469 0.2007,-0.2041 0.3572,-0.654 0.4709,-1.3499 0.1139,-0.6976 0.1088,-1.1746 -0.0167,-1.4303 -0.1242,-0.2566 -0.3087,-0.404 -0.5525,-0.4439 -0.239,-0.0392 -0.4468,0.0311 -0.6231,0.2103 -0.2205,0.2282 -0.3878,0.6917 -0.5014,1.3873 z m 3.2369,0.5445 c 0.0382,-0.5057 0.121,-0.9105 0.248,-1.2118 0.1284,-0.3022 0.301,-0.5287 0.5187,-0.6798 0.2175,-0.1508 0.4816,-0.2143 0.7929,-0.1907 0.2293,0.0173 0.4274,0.0785 0.5947,0.1842 0.1667,0.106 0.2999,0.2506 0.3985,0.4334 0.0984,0.182 0.1704,0.4011 0.2152,0.6563 0.0459,0.2551 0.0522,0.5955 0.0201,1.0193 -0.038,0.5026 -0.1207,0.9054 -0.2466,1.207 -0.1261,0.3022 -0.2988,0.5289 -0.517,0.6809 -0.2169,0.1522 -0.4825,0.2163 -0.7957,0.1925 -0.4119,-0.0312 -0.7248,-0.2024 -0.9377,-0.514 -0.2554,-0.3804 -0.3518,-0.9725 -0.2911,-1.7773 z m 0.5385,0.0428 c -0.0535,0.705 -0.007,1.1798 0.1398,1.4236 0.1474,0.2449 0.3419,0.3758 0.5831,0.3943 0.2415,0.0181 0.4535,-0.0834 0.6355,-0.3031 0.1826,-0.2208 0.2996,-0.6825 0.3526,-1.3855 0.0533,-0.7047 0.0071,-1.1795 -0.14,-1.4236 -0.146,-0.2446 -0.3427,-0.3759 -0.5888,-0.3946 -0.2415,-0.0181 -0.4424,0.0698 -0.6029,0.2637 -0.1998,0.2463 -0.3262,0.7222 -0.3793,1.4252 z m 3.2738,0.1865 c -0.0057,-0.5071 0.0416,-0.9175 0.1423,-1.2288 0.1015,-0.3121 0.254,-0.553 0.4578,-0.7223 0.2035,-0.1692 0.4612,-0.2551 0.7733,-0.2585 0.2299,-0.0025 0.4325,0.0411 0.6086,0.1321 0.1749,0.091 0.3203,0.2234 0.4342,0.3972 0.114,0.1726 0.2047,0.3849 0.2713,0.6349 0.0678,0.2503 0.1038,0.5891 0.1086,1.014 0.0054,0.504 -0.042,0.9124 -0.1415,1.2237 -0.0995,0.3121 -0.2517,0.5527 -0.4561,0.7231 -0.2029,0.1704 -0.462,0.2571 -0.7761,0.2608 -0.4127,0.004 -0.7396,-0.1389 -0.9788,-0.4312 -0.2872,-0.3566 -0.4346,-0.9382 -0.4436,-1.745 z m 0.54,-0.004 c 0.0079,0.7069 0.0952,1.1761 0.2627,1.4062 0.1679,0.2314 0.3728,0.3447 0.6149,0.3422 0.2421,-0.003 0.4447,-0.1222 0.6069,-0.3569 0.1627,-0.2358 0.2395,-0.7058 0.2316,-1.4108 -0.008,-0.7067 -0.0953,-1.1758 -0.2631,-1.4063 -0.1664,-0.231 -0.3739,-0.3447 -0.6208,-0.3418 -0.2418,0.0025 -0.4345,0.1077 -0.5774,0.3146 -0.178,0.2628 -0.2628,0.7478 -0.2548,1.4528 z m 3.1941,-0.0304 c -0.0709,-0.502 -0.0771,-0.9153 -0.0173,-1.2367 0.0603,-0.3226 0.1805,-0.5811 0.3608,-0.775 0.18,-0.1942 0.4246,-0.3127 0.7336,-0.3563 0.2276,-0.0323 0.4343,-0.015 0.6202,0.0524 0.1854,0.0678 0.347,0.1803 0.4822,0.3379 0.1352,0.1568 0.2523,0.3555 0.3509,0.5947 0.0995,0.2398 0.1786,0.5709 0.2382,0.9916 0.0705,0.4992 0.0759,0.9102 0.0175,1.2316 -0.0584,0.3223 -0.1783,0.5809 -0.3588,0.7762 -0.1795,0.195 -0.4252,0.3143 -0.7362,0.3585 -0.4088,0.0579 -0.7515,-0.0425 -1.0261,-0.3013 -0.3308,-0.3169 -0.5519,-0.8745 -0.665,-1.6736 z m 0.5349,-0.0737 c 0.0992,0.7002 0.246,1.154 0.4419,1.361 0.1961,0.2075 0.4141,0.2936 0.6539,0.2599 0.2396,-0.034 0.4252,-0.1786 0.5559,-0.4323 0.1307,-0.2548 0.1463,-0.7308 0.0476,-1.4286 -0.0989,-0.7002 -0.246,-1.154 -0.4422,-1.3607 -0.1947,-0.2078 -0.415,-0.2936 -0.6596,-0.2591 -0.2395,0.0338 -0.4173,0.1627 -0.5321,0.3864 -0.1425,0.2835 -0.1641,0.7756 -0.0654,1.4734 z m 3.2584,-0.4098 c -0.1143,-0.4941 -0.1559,-0.9051 -0.1245,-1.2308 0.0326,-0.3266 0.1299,-0.5945 0.2929,-0.8034 0.1624,-0.2089 0.3957,-0.3481 0.6998,-0.4184 0.224,-0.0516 0.4315,-0.0524 0.6228,-0.0011 0.1905,0.0513 0.3609,0.1497 0.5094,0.2948 0.1482,0.1443 0.282,0.3322 0.4011,0.5624 0.1196,0.2299 0.227,0.553 0.3229,0.9672 0.1133,0.4909 0.1544,0.9002 0.1238,1.2254 -0.0303,0.3263 -0.1275,0.5938 -0.2905,0.8042 -0.1619,0.2097 -0.3963,0.3501 -0.7022,0.4206 -0.4025,0.093 -0.7523,0.023 -1.0485,-0.2111 -0.3569,-0.2872 -0.6253,-0.8235 -0.807,-1.6098 z m 0.5267,-0.1197 c 0.159,0.6889 0.3446,1.1282 0.5575,1.3173 0.2135,0.1899 0.4383,0.2571 0.6741,0.2024 0.2359,-0.0544 0.4079,-0.2143 0.5165,-0.4785 0.1083,-0.265 0.0825,-0.7407 -0.0763,-1.4275 -0.159,-0.6888 -0.3447,-1.1282 -0.5578,-1.3173 -0.2121,-0.1902 -0.4391,-0.2568 -0.6798,-0.2012 -0.2358,0.0547 -0.4014,0.1984 -0.4966,0.4311 -0.1176,0.2948 -0.0964,0.7869 0.0624,1.4737 z m 3.2147,-0.784 c -0.1496,-0.4845 -0.2211,-0.8915 -0.2134,-1.2184 0.0088,-0.3282 0.0864,-0.6023 0.2336,-0.8226 0.1468,-0.2202 0.3696,-0.3758 0.6678,-0.468 0.2197,-0.068 0.4263,-0.0836 0.6208,-0.0465 0.1939,0.0375 0.371,0.1231 0.5295,0.2571 0.1585,0.1333 0.3056,0.3107 0.4408,0.5315 0.1363,0.2209 0.267,0.5352 0.3923,0.9414 0.1488,0.4813 0.2194,0.8864 0.2129,1.2133 -0.0065,0.3274 -0.0842,0.6015 -0.2316,0.8228 -0.146,0.2212 -0.3696,0.3782 -0.6698,0.4709 -0.3946,0.1219 -0.7487,0.0774 -1.061,-0.1347 -0.3768,-0.2602 -0.6835,-0.7758 -0.9219,-1.5468 z m 0.5165,-0.1576 c 0.2089,0.6755 0.4258,1.1004 0.652,1.2733 0.2267,0.174 0.4558,0.2245 0.6871,0.1531 0.231,-0.0715 0.3912,-0.2435 0.4802,-0.5148 0.0887,-0.2724 0.0286,-0.7447 -0.1797,-1.4182 -0.2087,-0.6755 -0.4258,-1.1004 -0.6523,-1.2733 -0.2251,-0.1743 -0.4564,-0.2242 -0.6922,-0.1514 -0.2313,0.0715 -0.3861,0.2271 -0.4643,0.466 -0.0958,0.3025 -0.0389,0.7918 0.1692,1.4653 z m 3.0464,-0.9842 c -0.2086,-0.4624 -0.3297,-0.8572 -0.3626,-1.1826 -0.0317,-0.3269 0.0114,-0.6084 0.1302,-0.8453 0.1184,-0.2364 0.3203,-0.4187 0.6046,-0.5468 0.2097,-0.0947 0.4127,-0.1358 0.6103,-0.1231 0.197,0.0131 0.3835,0.0763 0.5573,0.1897 0.1737,0.1125 0.3418,0.2707 0.5031,0.4728 0.1624,0.2024 0.3311,0.4983 0.506,0.8855 0.2072,0.4595 0.3274,0.8527 0.3611,1.1778 0.0341,0.3257 -0.009,0.6072 -0.1278,0.8453 -0.1176,0.2376 -0.32,0.4207 -0.6063,0.55 -0.3768,0.1697 -0.7336,0.1695 -1.0698,-0.0023 -0.4059,-0.2118 -0.7742,-0.6854 -1.1061,-1.421 z m 0.4929,-0.2203 c 0.2909,0.6443 0.5587,1.0392 0.8045,1.1829 0.2466,0.1446 0.4799,0.1664 0.7007,0.0669 0.2206,-0.0995 0.3583,-0.29 0.413,-0.5703 0.0545,-0.2812 -0.0637,-0.7424 -0.3537,-1.385 -0.2906,-0.6446 -0.5587,-1.0392 -0.8048,-1.1829 -0.2452,-0.1451 -0.4807,-0.1661 -0.7058,-0.0644 -0.2205,0.0995 -0.3549,0.273 -0.4028,0.5196 -0.0578,0.3121 0.0592,0.7906 0.3489,1.4332 z m 2.969,-1.4014 c -0.2469,-0.4431 -0.4011,-0.8263 -0.4612,-1.1478 -0.0595,-0.3228 -0.0402,-0.6072 0.0582,-0.8529 0.098,-0.2458 0.2837,-0.4445 0.5561,-0.5964 0.201,-0.1117 0.3997,-0.1701 0.5978,-0.1741 0.1973,-0.0034 0.3884,0.0437 0.5712,0.1418 0.1826,0.0975 0.3634,0.2409 0.5414,0.4288 0.1792,0.1877 0.3722,0.4683 0.5789,0.8397 0.2455,0.4402 0.3985,0.8217 0.4595,1.1429 0.0615,0.3214 0.0422,0.6058 -0.0559,0.8529 -0.0972,0.2467 -0.2834,0.4465 -0.5578,0.5993 -0.3606,0.2012 -0.7163,0.231 -1.0659,0.0881 -0.4226,-0.1766 -0.8294,-0.6173 -1.2223,-1.3223 z m 0.4726,-0.2611 c 0.3441,0.6177 0.6446,0.9882 0.9017,1.1106 0.2577,0.123 0.4924,0.1253 0.7038,0.0074 0.2115,-0.1179 0.3325,-0.3192 0.3631,-0.6032 0.0304,-0.2846 -0.1264,-0.7345 -0.4694,-1.3502 -0.3441,-0.6176 -0.6446,-0.9881 -0.902,-1.1106 -0.2565,-0.1239 -0.4929,-0.1247 -0.7086,-0.0045 -0.2115,0.1179 -0.3308,0.3022 -0.3575,0.5522 -0.0312,0.3158 0.1259,0.7826 0.4689,1.3983 z m 2.8051,-1.5982 c -0.2945,-0.4127 -0.4906,-0.7764 -0.5862,-1.089 -0.0949,-0.3144 -0.1077,-0.599 -0.0371,-0.8544 0.07,-0.2551 0.2324,-0.4731 0.4864,-0.6545 0.1871,-0.1335 0.3782,-0.2135 0.5746,-0.2395 0.1956,-0.0256 0.3909,0 0.5837,0.0773 0.1922,0.0766 0.3877,0.1987 0.5856,0.3657 0.1987,0.1667 0.4218,0.4241 0.6687,0.7699 0.2928,0.4102 0.4876,0.7724 0.5839,1.0848 0.097,0.3127 0.1095,0.5973 0.0394,0.8538 -0.0691,0.256 -0.2318,0.4754 -0.4875,0.6579 -0.3362,0.2398 -0.6863,0.309 -1.0494,0.2061 -0.4397,-0.1284 -0.8932,-0.521 -1.3621,-1.1781 z m 0.4408,-0.3121 c 0.4108,0.5755 0.7504,0.9105 1.0197,1.0035 0.2698,0.0935 0.5031,0.0695 0.7001,-0.0711 0.197,-0.1406 0.2948,-0.3544 0.2937,-0.6398 -0.0014,-0.2863 -0.2072,-0.7158 -0.6168,-1.2895 -0.4108,-0.5754 -0.7507,-0.9105 -1.0199,-1.0032 -0.2688,-0.0947 -0.504,-0.0692 -0.705,0.0743 -0.197,0.1406 -0.2948,0.337 -0.2937,0.5885 0.0043,0.3171 0.212,0.7636 0.6219,1.3373 z m 2.6791,-1.8912 c -0.33,-0.3853 -0.5571,-0.7302 -0.6798,-1.0335 -0.1222,-0.3045 -0.1599,-0.5871 -0.1122,-0.8476 0.0473,-0.2602 0.1899,-0.4918 0.4271,-0.6948 0.1747,-0.1494 0.3581,-0.246 0.5514,-0.2891 0.1924,-0.0425 0.3892,-0.0343 0.5879,0.0258 0.1984,0.0592 0.4039,0.1638 0.6157,0.3129 0.2126,0.1486 0.4575,0.3853 0.7339,0.7081 0.3276,0.3827 0.5533,0.7265 0.6769,1.029 0.1238,0.3033 0.1615,0.5856 0.1145,0.8473 -0.0465,0.261 -0.1894,0.4938 -0.428,0.6979 -0.3138,0.2687 -0.6565,0.3685 -1.0273,0.2979 -0.4493,-0.0893 -0.9354,-0.4408 -1.4601,-1.0539 z m 0.4113,-0.3495 c 0.4597,0.5368 0.8277,0.8407 1.1041,0.9099 0.2769,0.0694 0.5071,0.0249 0.691,-0.1324 0.184,-0.1576 0.2625,-0.379 0.2365,-0.6633 -0.0267,-0.2852 -0.2693,-0.6948 -0.728,-1.2302 -0.4598,-0.5372 -0.8274,-0.8408 -1.1041,-0.9097 -0.2761,-0.0706 -0.5079,-0.0246 -0.6956,0.1361 -0.1837,0.1573 -0.2642,0.3617 -0.2409,0.6117 0.0323,0.3158 0.2786,0.7424 0.737,1.2779 z" />
  <path
     id="path30"
     style="fill:#1b1918;fill-rule:evenodd"
     d="m 32.917,62.5156 1.6288,2.8536 h -0.9105 l -2.0134,-2.8536 2.0134,-2.8534 h 0.9233 z m 2.4239,0 1.6671,2.8536 h -0.949 l -1.9749,-2.8536 1.9749,-2.8534 h 0.949 z m 3.1955,-1.1668 c 0,-1.5219 0.4102,-2.7147 1.2289,-3.5759 0.8186,-0.8614 1.8745,-1.2909 3.1697,-1.2909 0.8487,0 1.6117,0.203 2.2935,0.6069 0.6797,0.404 1.199,0.9683 1.5559,1.6929 0.3569,0.7222 0.5366,1.5431 0.5366,2.4602 0,0.9294 -0.1882,1.7631 -0.5644,2.4961 -0.3761,0.7353 -0.9085,1.2912 -1.5964,1.6674 -0.6906,0.3781 -1.4344,0.5663 -2.2315,0.5663 -0.8657,0 -1.6373,-0.2094 -2.319,-0.6261 -0.6797,-0.417 -1.1971,-0.9854 -1.5477,-1.7079 -0.3504,-0.7203 -0.5256,-1.4834 -0.5256,-2.289 z m 1.2566,0.0213 c 0,1.1049 0.2971,1.9749 0.8913,2.6096 0.5944,0.6349 1.3402,0.9532 2.2379,0.9532 0.9147,0 1.6651,-0.3206 2.2569,-0.9618 0.5899,-0.6411 0.885,-1.5516 0.885,-2.7314 0,-0.7461 -0.1261,-1.3978 -0.3784,-1.9537 -0.252,-0.5555 -0.6219,-0.9873 -1.1069,-1.2931 -0.4876,-0.3056 -1.0324,-0.4595 -1.6373,-0.4595 -0.8592,0 -1.5988,0.2951 -2.2187,0.885 -0.6197,0.5899 -0.9298,1.5732 -0.9298,2.9517 z m 13.7968,-4.9524 1.0004,0.013 c -0.0451,0.4465 -0.1454,0.7586 -0.2971,0.934 -0.1519,0.1752 -0.3464,0.2863 -0.5856,0.3376 -0.2396,0.0491 -0.7098,0.0749 -1.4086,0.0749 -0.9278,0 -1.5604,0.0898 -1.898,0.2693 -0.3357,0.1794 -0.5792,0.466 -0.7269,0.8591 -0.1474,0.3955 -0.2284,0.902 -0.2457,1.5239 0.2843,-0.4232 0.6157,-0.7395 0.9961,-0.951 0.3784,-0.2117 0.8079,-0.3163 1.2824,-0.3163 0.8722,0 1.5945,0.2993 2.1673,0.8977 0.5707,0.5984 0.857,1.4085 0.857,2.4324 0,0.7759 -0.1432,1.4128 -0.4318,1.9086 -0.2885,0.4958 -0.6304,0.8804 -1.0258,1.152 -0.3932,0.2715 -0.9318,0.4062 -1.6115,0.4062 -0.7909,0 -1.4043,-0.1797 -1.8425,-0.5409 -0.4383,-0.3611 -0.7736,-0.8229 -1.0089,-1.385 -0.233,-0.5621 -0.3503,-1.5432 -0.3503,-2.9389 0,-1.7547 0.297,-2.9367 0.8889,-3.5459 0.5922,-0.6092 1.5049,-0.9127 2.736,-0.9127 0.7673,0 1.201,-0.0128 1.3059,-0.0383 0.1026,-0.0258 0.1687,-0.0856 0.1987,-0.1797 z M 53.5513,62.46 c 0,-0.6902 -0.1644,-1.2566 -0.4916,-1.6991 -0.3271,-0.4425 -0.7886,-0.6624 -1.385,-0.6624 -0.6219,0 -1.1007,0.2327 -1.4385,0.701 -0.3376,0.4657 -0.5066,1.0879 -0.5066,1.868 0,0.7693 0.186,1.3592 0.5601,1.7677 0.3719,0.4082 0.8337,0.6134 1.3785,0.6134 0.5601,0 1.0131,-0.2373 1.3615,-0.7098 0.3487,-0.4722 0.5216,-1.0984 0.5216,-1.8788 z m 2.5373,5.91 v -9.2078 h 1.0258 v 0.8742 c 0.2415,-0.3376 0.5151,-0.5922 0.8209,-0.7608 0.3033,-0.169 0.6733,-0.2546 1.107,-0.2546 0.5686,0 1.0686,0.1454 1.5026,0.4382 0.434,0.2906 0.7608,0.7033 0.9834,1.2334 0.2199,0.5321 0.331,1.1134 0.331,1.7484 0,0.6775 -0.1216,1.2886 -0.3653,1.8337 -0.2438,0.5429 -0.5984,0.9599 -1.0645,1.2504 -0.4637,0.2886 -0.9532,0.434 -1.4663,0.434 -0.3762,0 -0.7138,-0.0791 -1.0109,-0.2373 C 57.653,65.5637 57.4095,65.3647 57.217,65.1231 V 68.37 Z m 1.0258,-5.8394 c 0,0.8529 0.1732,1.4834 0.5173,1.8915 0.3462,0.4082 0.7651,0.6135 1.2569,0.6135 0.5001,0 0.9275,-0.2115 1.2824,-0.6347 0.3569,-0.4232 0.5344,-1.0772 0.5344,-1.9644 0,-0.8462 -0.1732,-1.4789 -0.5216,-1.9001 -0.3484,-0.4209 -0.7631,-0.6304 -1.2461,-0.6304 -0.4788,0 -0.902,0.2245 -1.2697,0.6712 -0.3696,0.4488 -0.5536,1.0985 -0.5536,1.9534 z m 10.4542,2.4537 c -0.419,0.3571 -0.8229,0.6071 -1.2098,0.7545 -0.387,0.1474 -0.8017,0.2203 -1.2461,0.2203 -0.7311,0 -1.2932,-0.1775 -1.6864,-0.5343 -0.3934,-0.3549 -0.5899,-0.8102 -0.5899,-1.3638 0,-0.3248 0.0749,-0.6219 0.2223,-0.8912 0.1496,-0.2693 0.3441,-0.483 0.5833,-0.6455 0.2416,-0.1624 0.5109,-0.2865 0.8125,-0.3699 0.2222,-0.0575 0.5578,-0.1131 1.0043,-0.1689 0.9107,-0.1069 1.584,-0.237 2.0134,-0.3867 0.0043,-0.1539 0.0065,-0.2522 0.0065,-0.2928 0,-0.4575 -0.1068,-0.7801 -0.3206,-0.9683 -0.2885,-0.2543 -0.7183,-0.3804 -1.2866,-0.3804 -0.5324,0 -0.9255,0.0941 -1.1778,0.2801 -0.2543,0.1859 -0.4402,0.515 -0.5621,0.9895 l -1.103,-0.1539 c 0.1007,-0.4725 0.2651,-0.8549 0.4961,-1.1458 0.2307,-0.2905 0.5641,-0.5127 1.0001,-0.6709 0.4339,-0.1562 0.9405,-0.2353 1.5134,-0.2353 0.5686,0 1.0324,0.0663 1.3892,0.201 0.3549,0.1346 0.6177,0.3013 0.7844,0.5046 0.1667,0.2029 0.2843,0.4594 0.3526,0.7693 0.0366,0.1924 0.0556,0.5386 0.0556,1.0366 v 1.4961 c 0,1.0452 0.0235,1.7056 0.0706,1.9857 0.045,0.2801 0.1388,0.5471 0.2758,0.8036 h -1.1798 c -0.1134,-0.2372 -0.186,-0.515 -0.218,-0.8336 z m -0.0899,-2.5008 c -0.4104,0.1667 -1.0258,0.3079 -1.8467,0.4232 -0.466,0.0664 -0.7951,0.1412 -0.9873,0.2245 -0.1925,0.0834 -0.3399,0.2053 -0.4448,0.3634 -0.1046,0.1602 -0.1582,0.3377 -0.1582,0.5344 0,0.297 0.1134,0.5471 0.3422,0.7458 0.2287,0.199 0.5621,0.2993 1.0003,0.2993 0.4337,0 0.8207,-0.0941 1.1605,-0.2843 0.3376,-0.1879 0.5876,-0.4467 0.7458,-0.7736 0.1219,-0.2545 0.1817,-0.6284 0.1817,-1.1222 z m 4.2067,0.3206 v -0.8847 c 0.4745,-0.0042 0.7993,-0.0235 0.9703,-0.0555 0.1732,-0.0343 0.3376,-0.1327 0.4915,-0.2994 0.1539,-0.1666 0.2307,-0.3739 0.2307,-0.6242 0,-0.3013 -0.1003,-0.5448 -0.3033,-0.7245 -0.2032,-0.1817 -0.4637,-0.2713 -0.7866,-0.2713 -0.6347,0 -1.0794,0.3719 -1.3337,1.1158 l -1.0772,-0.1798 c 0.3334,-1.2396 1.1413,-1.8595 2.4194,-1.8595 0.7095,0 1.2654,0.1925 1.6693,0.5794 0.404,0.3867 0.6049,0.8484 0.6049,1.385 0,0.5406 -0.263,0.9723 -0.7866,1.2909 0.3356,0.1794 0.5857,0.4082 0.7546,0.686 0.1667,0.2781 0.25,0.6072 0.25,0.9876 0,0.5964 -0.218,1.0794 -0.6519,1.4513 -0.436,0.3719 -1.0429,0.5579 -1.8253,0.5579 -1.5176,0 -2.3981,-0.6713 -2.6396,-2.0135 l 1.0644,-0.231 c 0.0961,0.4232 0.2906,0.7526 0.5857,0.9853 0.2948,0.233 0.6304,0.3487 1.0108,0.3487 0.3804,0 0.6967,-0.1069 0.949,-0.3229 0.2523,-0.2137 0.3785,-0.4872 0.3785,-0.8206 0,-0.2588 -0.0791,-0.4833 -0.2373,-0.6755 -0.1582,-0.1925 -0.3271,-0.3121 -0.5066,-0.3591 -0.1797,-0.0491 -0.5045,-0.0726 -0.9748,-0.0726 -0.0383,0 -0.1239,0.002 -0.2562,0.0062 z m 8.8015,0.8595 1.1671,0.1536 c -0.1817,0.6778 -0.5216,1.2056 -1.0174,1.5798 -0.4958,0.3739 -1.1285,0.5621 -1.9001,0.5621 -0.9703,0 -1.7399,-0.2994 -2.3085,-0.8977 -0.5683,-0.5965 -0.8527,-1.4364 -0.8527,-2.5158 0,-1.1157 0.2863,-1.9834 0.8615,-2.5991 0.5749,-0.6176 1.3206,-0.9255 2.2377,-0.9255 0.8869,0 1.6115,0.3013 2.1738,0.9062 0.5622,0.605 0.8442,1.4556 0.8442,2.5521 0,0.0663 -0.0023,0.1667 -0.0065,0.2993 h -4.9564 c 0.0425,0.7288 0.2478,1.2889 0.6197,1.6756 0.3699,0.3869 0.8336,0.5814 1.3872,0.5814 0.4125,0 0.7651,-0.1089 1.0559,-0.3269 0.2929,-0.218 0.5236,-0.5663 0.6945,-1.0451 z m -3.6932,-1.8082 h 3.706 c -0.0491,-0.5602 -0.1922,-0.9791 -0.4252,-1.2592 -0.3569,-0.4337 -0.8229,-0.6517 -1.3935,-0.6517 -0.5173,0 -0.9513,0.1729 -1.304,0.5193 -0.3503,0.3462 -0.5448,0.8102 -0.5833,1.3916 z m 6.2988,-2.6932 h 1.1285 v 5.7325 h 3.1292 v -5.7325 h 1.1284 v 5.7325 h 0.7311 v 2.8083 h -0.9232 v -1.8851 h -5.194 z m 11.4373,3.3534 -1.6543,-2.8534 h 0.9232 l 2.0262,2.8534 -2.0132,2.8536 h -0.9235 z m -2.4239,0 -1.6671,-2.8534 h 0.949 l 1.9749,2.8534 -1.9749,2.8536 h -0.949 z" />
</svg>
