<?xml version="1.0" encoding="utf-8"?>
<!-- Generator: Adobe Illustrator 26.4.1, SVG Export Plug-In . SVG Version: 6.00 Build 0)  -->
<svg version="1.1"
	 id="svg44" xmlns:svg="http://www.w3.org/2000/svg" xmlns:rdf="http://www.w3.org/1999/02/22-rdf-syntax-ns#" xmlns:cc="http://creativecommons.org/ns#" xmlns:dc="http://purl.org/dc/elements/1.1/"
	 xmlns="http://www.w3.org/2000/svg" xmlns:xlink="http://www.w3.org/1999/xlink" x="0px" y="0px" viewBox="0 0 155.9 155.9"
	 style="enable-background:new 0 0 155.9 155.9;" xml:space="preserve">
<style type="text/css">
	.st0{fill:#1B1918;}
	.st1{fill:none;stroke:#1B1918;stroke-width:0.7087;}
	.st2{fill:none;stroke:#1B1918;stroke-width:0.8504;}
	.st3{fill-rule:evenodd;clip-rule:evenodd;fill:#1B1918;}
</style>
<g id="path6">
	<path class="st0" d="M78,134.9C46.6,134.9,21,109.3,21,78S46.6,21,78,21c31.4,0,56.9,25.5,56.9,56.9S109.3,134.9,78,134.9z
		 M78,25.3c-29,0-52.7,23.6-52.7,52.7c0,29,23.6,52.7,52.7,52.7c29,0,52.7-23.6,52.7-52.7C130.6,48.9,107,25.3,78,25.3z"/>
</g>
<path id="path8" class="st1" d="M78.2,44.9c18.4,0,33.3,14.9,33.3,33.3s-14.9,33.3-33.3,33.3c-18.4,0-33.3-14.9-33.3-33.3
	S59.8,44.9,78.2,44.9z"/>
<path id="path10" class="st2" d="M78,26.6c28.3,0,51.3,23,51.3,51.3c0,28.3-23,51.3-51.3,51.3c-28.3,0-51.3-23-51.3-51.3
	C26.6,49.6,49.6,26.6,78,26.6z"/>
<path id="path12" class="st3" d="M31.9,80.9c-0.8,0-1.4-0.1-1.8-0.4c-0.4-0.3-0.6-0.7-0.7-1.2c0-0.3,0.1-0.6,0.2-0.9
	c0.2-0.3,0.4-0.5,0.8-0.7c0.3-0.2,0.8-0.3,1.2-0.3c0.7,0,1.2,0.1,1.6,0.4c0.5,0.3,0.7,0.7,0.7,1.3c0,0.5-0.2,1-0.7,1.3
	C33.1,80.7,32.6,80.9,31.9,80.9z M31.9,80.4c0.6,0,1-0.2,1.3-0.4c0.3-0.3,0.4-0.6,0.4-0.9c0-0.4-0.2-0.6-0.5-0.9
	c-0.3-0.2-0.8-0.3-1.4-0.3c-0.4,0-0.7,0.1-1,0.2c-0.2,0.1-0.4,0.3-0.5,0.5C30.1,78.8,30,79,30,79.2c0,0.4,0.2,0.7,0.5,0.9
	C30.8,80.3,31.3,80.4,31.9,80.4z M29.6,76.1l0.2-2.4l0.5,0l-0.1,1.9l1.4,0.1l0.1-0.9c0-0.3,0.1-0.6,0.2-0.8c0.1-0.2,0.2-0.3,0.5-0.4
	c0.2-0.1,0.5-0.1,0.7-0.1c0.3,0,0.5,0.1,0.7,0.2c0.2,0.1,0.3,0.3,0.4,0.5c0.1,0.2,0.1,0.4,0.1,0.8l-0.1,1.4L29.6,76.1z M33.6,76
	l0.1-1c0-0.2,0-0.4-0.1-0.6c-0.1-0.1-0.3-0.2-0.6-0.3c-0.2,0-0.4,0-0.5,0.1c-0.1,0.1-0.2,0.2-0.3,0.3c0,0.1-0.1,0.3-0.1,0.7l0,0.6
	L33.6,76z M29.9,72.1l0.1-0.5l3.9,0.7l0.2-1.2l-3.9-0.7l0.1-0.5l3.9,0.7l0.2-1.2l-3.9-0.7l0.1-0.5l3.9,0.7l0.1-0.3l1.7,0.3l-0.1,0.4
	L35,69.2L34.3,73L29.9,72.1z M35.2,68.1L30.9,67l0.7-2.6l0.5,0.1l-0.5,2.1l1.3,0.3l0.5-2l0.5,0.1l-0.5,2l1.5,0.4l0.6-2.2l0.5,0.1
	L35.2,68.1z M35.5,61.6l0.3-0.4c0.4,0.3,0.7,0.6,0.9,0.9c0.1,0.3,0.2,0.7,0,1.1c-0.1,0.3-0.3,0.6-0.5,0.7c-0.2,0.2-0.6,0.3-0.9,0.3
	c-0.4,0-0.8,0-1.3-0.2c-0.5-0.2-0.8-0.4-1.1-0.6c-0.3-0.3-0.4-0.5-0.5-0.8c-0.1-0.3-0.1-0.6,0-0.9c0.1-0.3,0.3-0.6,0.6-0.8
	c0.3-0.2,0.7-0.2,1.1-0.2l0,0.5c-0.6-0.1-1,0.2-1.2,0.6c-0.1,0.2-0.1,0.5,0,0.7c0.1,0.2,0.2,0.4,0.4,0.6c0.2,0.2,0.5,0.4,0.9,0.5
	c0.6,0.2,1,0.3,1.4,0.1c0.4-0.1,0.6-0.3,0.7-0.7c0.1-0.2,0.1-0.5,0-0.7C36.1,62,35.9,61.8,35.5,61.6L35.5,61.6z M37.9,60.1l-3.6-1.6
	l-0.5,1.1l-0.5-0.2l1.2-2.7L35,57l-0.5,1.1l3.6,1.6L37.9,60.1z M38.9,58L35,55.7l0.7-1.2c0.1-0.2,0.3-0.4,0.4-0.5
	c0.2-0.1,0.3-0.1,0.6-0.1c0.2,0,0.4,0.1,0.6,0.2c0.2,0.1,0.3,0.2,0.4,0.4c0.1,0.2,0.1,0.3,0.2,0.5c0.2-0.1,0.4-0.2,0.6-0.2
	c0.2,0,0.5,0.1,0.7,0.2c0.2,0.1,0.4,0.3,0.5,0.5c0.1,0.2,0.2,0.4,0.2,0.6c0,0.2-0.1,0.5-0.3,0.7L38.9,58z M36.9,56.3l0.4-0.7
	c0.1-0.2,0.2-0.3,0.2-0.4c0-0.1,0-0.3,0-0.4c-0.1-0.1-0.2-0.2-0.3-0.3c-0.1-0.1-0.3-0.1-0.4-0.1c-0.1,0-0.2,0-0.3,0.1
	c-0.1,0.1-0.2,0.2-0.3,0.4l-0.4,0.6L36.9,56.3z M38.6,57.3l0.5-0.8c0.1-0.2,0.2-0.3,0.2-0.4c0-0.1,0-0.3-0.1-0.4
	c-0.1-0.1-0.2-0.2-0.3-0.3c-0.1-0.1-0.3-0.1-0.4-0.1c-0.1,0-0.3,0-0.4,0.1c-0.1,0.1-0.2,0.2-0.3,0.4l-0.4,0.7L38.6,57.3z M38.8,53.8
	c-0.6-0.4-1-0.9-1.2-1.4c-0.2-0.5-0.1-1,0.2-1.4c0.2-0.3,0.4-0.5,0.7-0.6c0.3-0.1,0.6-0.2,1-0.1c0.4,0.1,0.8,0.2,1.2,0.5
	c0.6,0.4,0.9,0.8,1.1,1.3c0.2,0.5,0.2,1-0.1,1.5c-0.3,0.5-0.7,0.7-1.3,0.7C39.8,54.3,39.3,54.1,38.8,53.8z M39.1,53.4
	c0.5,0.3,0.9,0.4,1.3,0.4c0.4,0,0.7-0.2,0.9-0.5c0.2-0.3,0.2-0.6,0.1-1c-0.1-0.4-0.4-0.7-0.9-1c-0.3-0.2-0.6-0.3-1-0.4
	c-0.2,0-0.5,0-0.7,0.1c-0.2,0.1-0.4,0.2-0.5,0.4c-0.2,0.3-0.2,0.6-0.1,1C38.2,52.7,38.5,53,39.1,53.4z M44.4,47.3l0.4-0.3
	c0.3,0.4,0.5,0.8,0.5,1.2c0,0.4-0.1,0.7-0.4,1c-0.2,0.3-0.5,0.4-0.8,0.5c-0.3,0.1-0.6,0-1-0.1c-0.4-0.1-0.8-0.4-1.1-0.7
	c-0.4-0.3-0.6-0.7-0.8-1c-0.2-0.3-0.2-0.7-0.2-1c0-0.3,0.2-0.6,0.4-0.8c0.2-0.3,0.5-0.4,0.8-0.5c0.3,0,0.7,0,1.1,0.2l-0.2,0.4
	c-0.6-0.3-1-0.2-1.3,0.1c-0.2,0.2-0.3,0.4-0.3,0.6c0,0.2,0,0.5,0.2,0.7c0.1,0.3,0.3,0.5,0.7,0.8c0.5,0.4,0.9,0.6,1.3,0.7
	c0.4,0,0.7-0.1,0.9-0.3c0.2-0.2,0.3-0.4,0.2-0.7C44.8,47.9,44.7,47.6,44.4,47.3z M45.9,44.8c-0.5-0.6-0.7-1.1-0.8-1.7
	c0-0.5,0.2-1,0.6-1.3c0.2-0.2,0.5-0.3,0.9-0.4c0.3,0,0.7,0,1,0.2c0.3,0.2,0.7,0.4,1,0.8c0.4,0.5,0.7,1,0.7,1.5c0,0.6-0.1,1-0.5,1.4
	c-0.4,0.4-0.9,0.5-1.5,0.3C46.8,45.6,46.3,45.3,45.9,44.8z M46.3,44.5c0.4,0.4,0.7,0.7,1.1,0.7c0.4,0.1,0.7,0,1-0.2
	c0.3-0.2,0.4-0.5,0.4-0.9c0-0.4-0.2-0.8-0.6-1.3c-0.2-0.3-0.5-0.5-0.8-0.7C47.2,42,46.9,42,46.7,42c-0.2,0-0.4,0.1-0.6,0.2
	c-0.3,0.2-0.4,0.5-0.4,0.9C45.7,43.6,45.9,44,46.3,44.5z M47.9,40.2l1.7-1.4l0.3,0.4l-1.4,1.1l2.4,3.1l-0.4,0.3L47.9,40.2z
	 M52.9,41.9l-2.4-3.8l1.2-0.7c0.3-0.2,0.5-0.3,0.7-0.3c0.2,0,0.4,0,0.7,0.1c0.2,0.1,0.4,0.3,0.6,0.6c0.2,0.3,0.3,0.7,0.3,1
	c0,0.3-0.3,0.6-0.7,0.9l-0.8,0.5l1,1.5L52.9,41.9z M52.1,39.7l0.8-0.5c0.3-0.2,0.4-0.3,0.4-0.5c0-0.2,0-0.4-0.2-0.6
	c-0.1-0.2-0.2-0.3-0.3-0.3c-0.1-0.1-0.2-0.1-0.3-0.1c-0.1,0-0.3,0.1-0.5,0.2l-0.8,0.5L52.1,39.7z M55.6,40.1l-0.7-4.6l0.5-0.2
	l3.3,3.4l-0.5,0.2l-1-1l-1.4,0.7l0.2,1.4L55.6,40.1z M55.7,38l1.1-0.6L56,36.5c-0.3-0.3-0.5-0.5-0.6-0.7c0.1,0.3,0.1,0.6,0.2,0.9
	L55.7,38z M59.2,38.4l-1.8-4.1l0.4-0.2l0.8,1.7l1.7-0.8l-0.8-1.7l0.4-0.2l1.8,4.1l-0.4,0.2l-0.9-1.9l-1.7,0.8l0.9,1.9L59.2,38.4z
	 M61.3,32.6l0.4-0.1l1.2,3.4l0.7-4l0.5-0.2l1.5,4.2L65,36l-1.2-3.4l-0.7,4l-0.5,0.2L61.3,32.6z M68.9,35l-0.5,0.1l-0.4-1.7
	c-0.4,0.3-0.7,0.5-1.1,0.5c-0.2,0.1-0.5,0-0.7-0.1c-0.2-0.1-0.4-0.2-0.5-0.4c-0.1-0.2-0.2-0.5-0.3-0.8l-0.3-1.3l0.5-0.1l0.3,1.2
	c0.1,0.4,0.2,0.7,0.4,0.9c0.2,0.1,0.4,0.2,0.6,0.1c0.3-0.1,0.7-0.2,1-0.5l-0.5-2.1l0.5-0.1L68.9,35z M69.9,34.9l-0.8-4.4l2.6-0.5
	l0.1,0.5l-2.1,0.4l0.3,1.4l2-0.4l0.1,0.5l-2,0.4l0.3,1.5l2.2-0.4l0.1,0.5L69.9,34.9z M73.4,34.3l-0.3-4.5l0.5,0l0.1,1.8l1.9-0.1
	l-0.1-1.8l0.5,0l0.3,4.5l-0.5,0L75.7,32l-1.9,0.1l0.2,2.1L73.4,34.3z M77.3,34l0.2-4.5l0.5,0l-0.1,1.8l1.9,0.1l0.1-1.8l0.5,0
	l-0.2,4.5l-0.5,0l0.1-2.1l-1.9-0.1L77.8,34L77.3,34z M81.3,31.9c0.1-0.8,0.3-1.3,0.7-1.7c0.4-0.4,0.8-0.5,1.3-0.5
	c0.3,0,0.6,0.2,0.8,0.4c0.2,0.2,0.4,0.5,0.5,0.9c0.1,0.4,0.1,0.8,0.1,1.3c-0.1,0.7-0.3,1.2-0.6,1.6c-0.4,0.4-0.8,0.6-1.4,0.5
	c-0.5-0.1-0.9-0.3-1.2-0.9C81.3,33.1,81.2,32.5,81.3,31.9z M81.8,32c-0.1,0.5,0,1,0.2,1.3c0.2,0.3,0.5,0.5,0.8,0.6
	c0.4,0,0.7-0.1,0.9-0.4c0.3-0.3,0.4-0.7,0.5-1.3c0-0.4,0-0.7-0.1-1c-0.1-0.2-0.2-0.4-0.4-0.6c-0.2-0.2-0.4-0.3-0.6-0.3
	c-0.4,0-0.7,0.1-1,0.4C82,30.9,81.9,31.4,81.8,32z M86.2,30.2l0.4,0.1l-0.7,3.5l2.6-3.1l0.5,0.1l-0.8,4.4l-0.4-0.1l0.7-3.5l-2.6,3.1
	l-0.5-0.1L86.2,30.2z M88.3,29.5l0.3,0.1c-0.1,0.3-0.2,0.4-0.3,0.5c-0.2,0.1-0.3,0.1-0.5,0.1c-0.2,0-0.4-0.1-0.5-0.3
	c-0.1-0.2-0.1-0.4-0.1-0.6l0.3,0.1c0,0.3,0.1,0.4,0.3,0.5c0.1,0,0.2,0,0.3,0C88.2,29.8,88.2,29.7,88.3,29.5z M91.1,33.6
	c0.3-0.7,0.6-1.2,1.1-1.5c0.5-0.3,0.9-0.3,1.4-0.2c0.3,0.1,0.6,0.3,0.7,0.6c0.2,0.3,0.3,0.6,0.3,1c0,0.4,0,0.8-0.2,1.3
	c-0.2,0.6-0.5,1.1-1,1.4c-0.5,0.3-1,0.4-1.5,0.2c-0.5-0.2-0.8-0.5-1-1.1C90.8,34.7,90.9,34.2,91.1,33.6z M91.5,33.8
	c-0.2,0.5-0.2,1-0.1,1.3c0.1,0.4,0.4,0.6,0.7,0.7c0.3,0.1,0.7,0.1,1-0.1c0.3-0.2,0.6-0.6,0.8-1.2c0.1-0.4,0.2-0.7,0.2-1
	c0-0.2-0.1-0.5-0.2-0.7c-0.1-0.2-0.3-0.3-0.5-0.4c-0.3-0.1-0.7-0.1-1,0.1C92,32.8,91.8,33.2,91.5,33.8z M95.3,37.5l1.6-3.6l-1.1-0.5
	l0.2-0.5l2.7,1.2l-0.2,0.5l-1.1-0.5l-1.6,3.6L95.3,37.5z M97.4,38.5l2-4l1.2,0.6c0.3,0.1,0.4,0.3,0.5,0.4c0.1,0.2,0.2,0.3,0.2,0.5
	c0,0.2,0,0.4-0.1,0.6c-0.1,0.2-0.2,0.3-0.4,0.4c-0.2,0.1-0.3,0.2-0.5,0.2c0.2,0.2,0.2,0.4,0.3,0.6s0,0.5-0.1,0.7
	c-0.1,0.2-0.3,0.4-0.5,0.6c-0.2,0.1-0.4,0.2-0.6,0.2c-0.2,0-0.5-0.1-0.7-0.2L97.4,38.5z M99,36.4l0.7,0.4c0.2,0.1,0.3,0.1,0.4,0.2
	c0.1,0,0.3,0,0.4-0.1c0.1-0.1,0.2-0.2,0.3-0.3c0.1-0.1,0.1-0.3,0.1-0.4c0-0.1,0-0.2-0.1-0.3c-0.1-0.1-0.2-0.2-0.5-0.3l-0.7-0.3
	L99,36.4z M98.1,38.2l0.8,0.4c0.2,0.1,0.3,0.1,0.4,0.1c0.1,0,0.3,0,0.4-0.1c0.1-0.1,0.2-0.2,0.3-0.4c0.1-0.2,0.1-0.3,0.1-0.4
	c0-0.1-0.1-0.3-0.1-0.4c-0.1-0.1-0.2-0.2-0.5-0.3l-0.8-0.4L98.1,38.2z M100.6,40.2l2.4-3.8l2.2,1.4l-0.3,0.4l-1.8-1.2l-0.7,1.2
	l1.7,1.1l-0.3,0.4l-1.7-1.1l-0.8,1.3l1.9,1.2l-0.3,0.4L100.6,40.2z M104.3,42.7l2.3-3.2l-1-0.7l0.3-0.4l2.4,1.7l-0.3,0.4l-1-0.7
	l-2.3,3.2L104.3,42.7z M109.2,44.6l0.3,0.4c-0.4,0.3-0.8,0.5-1.2,0.5c-0.4,0-0.7-0.1-1-0.4c-0.3-0.2-0.4-0.5-0.5-0.8
	c-0.1-0.3,0-0.6,0.1-1c0.1-0.4,0.4-0.8,0.7-1.1c0.3-0.4,0.7-0.6,1-0.8c0.3-0.2,0.7-0.2,1-0.2c0.3,0,0.6,0.2,0.8,0.4
	c0.3,0.2,0.4,0.5,0.5,0.8c0,0.3,0,0.7-0.2,1.1l-0.4-0.2c0.3-0.6,0.2-1-0.1-1.3c-0.2-0.2-0.4-0.3-0.6-0.3c-0.2,0-0.5,0-0.7,0.2
	c-0.3,0.1-0.5,0.3-0.8,0.7c-0.4,0.5-0.6,0.9-0.7,1.3c0,0.4,0.1,0.7,0.3,0.9c0.2,0.2,0.4,0.3,0.7,0.2C108.6,45,108.9,44.9,109.2,44.6
	z M109.8,47.4l2.8-2.7l-0.8-0.9l0.4-0.4l2,2.1l-0.4,0.4l-0.8-0.9l-2.8,2.7L109.8,47.4z M111.3,49.1l3.4-2.9l0.9,1.1
	c0.2,0.2,0.3,0.4,0.3,0.6c0,0.2,0,0.4,0,0.6c-0.1,0.2-0.2,0.4-0.4,0.5c-0.2,0.1-0.3,0.2-0.5,0.3c-0.2,0-0.4,0-0.5,0
	c0.1,0.2,0.1,0.4,0,0.6c-0.1,0.2-0.2,0.4-0.4,0.6c-0.2,0.2-0.4,0.3-0.7,0.3c-0.2,0-0.4,0-0.6,0c-0.2-0.1-0.4-0.2-0.6-0.5L111.3,49.1
	z M113.6,47.8l0.5,0.6c0.1,0.2,0.2,0.3,0.3,0.3c0.1,0.1,0.2,0.1,0.4,0.1c0.1,0,0.2-0.1,0.4-0.2c0.1-0.1,0.2-0.2,0.2-0.3
	c0-0.1,0-0.2,0-0.3c0-0.1-0.1-0.3-0.3-0.5l-0.5-0.6L113.6,47.8z M112.1,49.1l0.6,0.7c0.1,0.2,0.2,0.3,0.3,0.3
	c0.1,0.1,0.3,0.1,0.4,0.1c0.1,0,0.3-0.1,0.4-0.2c0.1-0.1,0.2-0.2,0.3-0.4c0-0.1,0.1-0.3,0-0.4c0-0.1-0.1-0.3-0.3-0.5l-0.5-0.6
	L112.1,49.1z M113.6,51.9l3.7-2.6l1.5,2.2l-0.4,0.3l-1.2-1.8l-1.1,0.8l1.2,1.7l-0.4,0.3l-1.2-1.7l-1.2,0.9l1.3,1.8l-0.4,0.3
	L113.6,51.9z M115.6,54.9l3.9-2.3l0.2,0.4l-1.6,0.9l1,1.6l1.6-0.9l0.2,0.4l-3.9,2.3l-0.2-0.4l1.8-1.1l-1-1.6l-1.8,1.1L115.6,54.9z
	 M117.5,58.2l4.1-1.8l0.2,0.4l-1.7,0.8l0.8,1.7l1.7-0.8l0.2,0.4l-4.1,1.8l-0.2-0.4l1.9-0.9l-0.8-1.7l-1.9,0.9L117.5,58.2z
	 M121.2,60.9c0.7-0.2,1.3-0.3,1.8-0.1c0.5,0.2,0.8,0.5,1,1c0.1,0.3,0.1,0.6,0,0.9c-0.1,0.3-0.3,0.6-0.5,0.9
	c-0.3,0.3-0.6,0.5-1.1,0.6c-0.6,0.2-1.2,0.2-1.7,0.1c-0.5-0.2-0.9-0.5-1.1-1c-0.2-0.5-0.1-1,0.2-1.5
	C120.2,61.4,120.6,61.1,121.2,60.9z M121.3,61.4c-0.5,0.2-0.9,0.4-1.1,0.8c-0.2,0.3-0.3,0.7-0.1,1c0.1,0.3,0.4,0.6,0.7,0.7
	c0.4,0.1,0.8,0.1,1.4-0.1c0.4-0.1,0.7-0.3,0.9-0.5c0.2-0.2,0.3-0.4,0.4-0.6c0.1-0.2,0.1-0.4,0-0.7c-0.1-0.3-0.4-0.6-0.7-0.7
	C122.4,61.1,122,61.2,121.3,61.4L121.3,61.4z M122.7,67.8l0,0.5c-0.5,0-0.9-0.1-1.2-0.2c-0.3-0.2-0.5-0.5-0.6-0.9
	c-0.1-0.3-0.1-0.6,0-0.9c0.1-0.3,0.3-0.5,0.6-0.8c0.3-0.2,0.7-0.4,1.2-0.6c0.5-0.1,0.9-0.2,1.3-0.1c0.4,0.1,0.7,0.2,0.9,0.4
	c0.2,0.2,0.4,0.5,0.5,0.8c0.1,0.3,0.1,0.7-0.1,1c-0.1,0.3-0.4,0.6-0.8,0.8l-0.3-0.4c0.6-0.3,0.8-0.7,0.6-1.2
	c-0.1-0.2-0.2-0.4-0.3-0.6c-0.2-0.1-0.4-0.2-0.7-0.3c-0.3,0-0.6,0-1,0.1c-0.6,0.2-1,0.4-1.2,0.7c-0.2,0.3-0.3,0.6-0.2,1
	c0.1,0.3,0.2,0.5,0.5,0.6C122,67.8,122.3,67.8,122.7,67.8L122.7,67.8z M121.6,70.4l3.9-0.7l-0.2-1.2l0.5-0.1l0.5,2.9l-0.5,0.1
	l-0.2-1.2l-3.9,0.7L121.6,70.4z M126.5,72.4l0,0.5l-1.9,0.1l0.1,0.9c0,0.3,0,0.6-0.1,0.8c-0.1,0.2-0.2,0.4-0.4,0.5
	c-0.2,0.1-0.4,0.2-0.7,0.2c-0.3,0-0.7,0-0.9-0.2c-0.3-0.2-0.4-0.5-0.5-1l-0.1-1.4L126.5,72.4z M122.5,73.2l0.1,0.9
	c0,0.3,0.1,0.5,0.2,0.6c0.1,0.1,0.3,0.2,0.6,0.2c0.2,0,0.3-0.1,0.4-0.2c0.1-0.1,0.2-0.2,0.2-0.3c0-0.1,0-0.4,0-0.7l0-0.6L122.5,73.2
	z M126.9,76.4l0,0.5l-2-0.1l0,0.7c0.6,0.1,1.1,0.2,1.5,0.6c0.4,0.3,0.5,0.7,0.5,1.2c0,0.5-0.2,0.8-0.6,1.2c-0.4,0.3-1,0.4-1.7,0.4
	c-0.7,0-1.3-0.2-1.7-0.5c-0.4-0.3-0.6-0.7-0.6-1.2c0-0.5,0.2-0.9,0.6-1.1c0.4-0.3,0.9-0.4,1.5-0.4l0-0.7l-1.9-0.1l0-0.5L126.9,76.4z
	 M124.5,78c-0.6,0-1,0.1-1.3,0.3c-0.3,0.2-0.5,0.5-0.5,0.8c0,0.4,0.1,0.6,0.4,0.9c0.3,0.2,0.8,0.3,1.3,0.4c0.6,0,1-0.1,1.3-0.3
	c0.3-0.2,0.5-0.5,0.5-0.8c0-0.4-0.1-0.6-0.4-0.9C125.6,78.2,125.1,78,124.5,78z"/>
<path id="path14" class="st3" d="M30.7,90l4.1-1.2l0.4,1.6c0.1,0.3,0.1,0.5,0.1,0.6c0,0.2,0,0.4,0,0.6c-0.1,0.2-0.2,0.3-0.3,0.4
	c-0.1,0.1-0.3,0.2-0.5,0.3c-0.4,0.1-0.7,0.1-1-0.1c-0.3-0.2-0.5-0.5-0.7-1.1l-0.3-1.1l-1.7,0.5L30.7,90z M33,90l0.3,1.1
	c0.1,0.4,0.2,0.6,0.4,0.7c0.2,0.1,0.4,0.1,0.6,0.1c0.2,0,0.3-0.1,0.4-0.3c0.1-0.1,0.1-0.3,0.1-0.4c0-0.1,0-0.3-0.1-0.5l-0.3-1.1
	L33,90z M33.7,92.8c0.7-0.3,1.3-0.3,1.8-0.1c0.5,0.2,0.9,0.6,1.1,1.2c0.1,0.4,0.2,0.7,0.1,1.1c-0.1,0.4-0.2,0.7-0.5,1
	c-0.3,0.3-0.6,0.5-1,0.7c-0.4,0.2-0.8,0.2-1.2,0.2c-0.4,0-0.7-0.2-1-0.4c-0.3-0.2-0.5-0.5-0.6-0.9c-0.1-0.4-0.2-0.7-0.1-1.1
	c0.1-0.4,0.2-0.7,0.5-1C33,93.2,33.3,93,33.7,92.8z M33.9,93.4c-0.5,0.2-0.8,0.5-1,0.8c-0.2,0.4-0.2,0.7,0,1.1
	c0.2,0.4,0.4,0.7,0.8,0.8c0.4,0.1,0.8,0.1,1.3-0.1c0.3-0.1,0.6-0.3,0.8-0.5c0.2-0.2,0.3-0.4,0.4-0.7c0-0.3,0-0.5-0.1-0.8
	c-0.1-0.4-0.4-0.6-0.8-0.8C34.9,93.1,34.5,93.1,33.9,93.4z M36.2,100.1l0.1,0.6c-0.5,0.1-0.9,0.1-1.2-0.1c-0.4-0.2-0.6-0.4-0.8-0.8
	C34.1,99.4,34,99,34,98.7c0-0.3,0.2-0.7,0.4-1c0.2-0.3,0.6-0.5,0.9-0.7c0.4-0.2,0.8-0.3,1.2-0.3c0.4,0,0.7,0.1,1,0.3
	c0.3,0.2,0.5,0.5,0.7,0.8c0.2,0.4,0.3,0.8,0.2,1.1c-0.1,0.4-0.2,0.7-0.5,1l-0.4-0.4c0.2-0.2,0.4-0.5,0.4-0.7c0-0.2,0-0.5-0.1-0.7
	c-0.2-0.3-0.3-0.5-0.6-0.6c-0.2-0.1-0.5-0.2-0.8-0.1c-0.3,0-0.5,0.1-0.8,0.3c-0.3,0.2-0.6,0.4-0.8,0.6c-0.2,0.2-0.3,0.5-0.3,0.7
	c0,0.3,0,0.5,0.2,0.7c0.1,0.3,0.4,0.5,0.6,0.6C35.6,100.2,35.9,100.2,36.2,100.1z M38.4,103.7l0.2,0.6c-0.5,0.2-0.9,0.2-1.2,0
	c-0.4-0.1-0.7-0.4-0.9-0.8c-0.2-0.4-0.4-0.8-0.4-1.1c0-0.3,0.1-0.7,0.3-1c0.2-0.3,0.5-0.6,0.8-0.8c0.4-0.2,0.8-0.4,1.1-0.4
	c0.4,0,0.7,0,1,0.2c0.3,0.2,0.6,0.4,0.8,0.7c0.2,0.4,0.3,0.7,0.3,1.1c0,0.4-0.2,0.7-0.4,1l-0.4-0.4c0.2-0.3,0.3-0.5,0.3-0.7
	c0-0.2-0.1-0.5-0.2-0.7c-0.2-0.3-0.4-0.5-0.6-0.6c-0.3-0.1-0.5-0.1-0.8,0c-0.3,0.1-0.5,0.2-0.8,0.3c-0.3,0.2-0.5,0.4-0.7,0.7
	c-0.2,0.2-0.3,0.5-0.2,0.7c0,0.3,0.1,0.5,0.2,0.7c0.2,0.3,0.4,0.4,0.7,0.5C37.7,103.9,38,103.9,38.4,103.7z M41.3,103.1l0.3,0.4
	l-2.8,2l4.1-0.1l0.3,0.5l-3.5,2.5l-0.3-0.4l2.8-2l-4.1,0.1l-0.3-0.5L41.3,103.1z M43.7,106.2l0.3,0.4l-2.6,2.2l4.1-0.5l0.4,0.4
	l-3.2,2.8l-0.3-0.4l2.6-2.2l-4.1,0.5l-0.4-0.4L43.7,106.2z M45.8,107.2l0.2,0.3c-0.2,0.1-0.4,0.2-0.6,0.2c-0.2,0-0.4-0.1-0.5-0.3
	c-0.2-0.2-0.2-0.4-0.2-0.6c0-0.2,0.1-0.4,0.3-0.6l0.2,0.3c-0.1,0.1-0.1,0.2-0.1,0.3c0,0.1,0,0.2,0.1,0.3c0.1,0.1,0.2,0.2,0.3,0.2
	C45.6,107.3,45.7,107.3,45.8,107.2z M46.6,113.3l0.3,0.5c-0.4,0.3-0.8,0.4-1.2,0.3c-0.4,0-0.8-0.2-1.1-0.5c-0.3-0.3-0.5-0.6-0.6-1
	c-0.1-0.3-0.1-0.7,0.1-1c0.1-0.4,0.3-0.7,0.6-1c0.3-0.3,0.6-0.5,1-0.7c0.4-0.1,0.7-0.1,1.1,0c0.3,0.1,0.7,0.3,0.9,0.5
	c0.3,0.3,0.5,0.6,0.6,1c0.1,0.4,0,0.7-0.2,1.1l-0.5-0.3c0.1-0.3,0.2-0.6,0.2-0.8c0-0.2-0.2-0.4-0.4-0.6c-0.2-0.2-0.5-0.4-0.8-0.4
	c-0.3,0-0.5,0-0.8,0.1c-0.2,0.1-0.5,0.3-0.7,0.5c-0.3,0.3-0.4,0.5-0.5,0.8c-0.1,0.3-0.1,0.5-0.1,0.8c0.1,0.3,0.2,0.5,0.4,0.6
	c0.2,0.2,0.5,0.3,0.8,0.4C46,113.6,46.3,113.5,46.6,113.3z M49.2,111.8l0.4,0.4l-1.2,1.5c0.2,0.2,0.4,0.2,0.5,0.2
	c0.1,0,0.4-0.1,0.8-0.3c0.3-0.1,0.5-0.2,0.6-0.3c0.1,0,0.3-0.1,0.4,0c0.2,0,0.3,0.1,0.4,0.2c0.2,0.1,0.3,0.2,0.3,0.2l-0.3,0.4
	c0,0,0,0-0.1-0.1c0,0-0.1-0.1-0.1-0.1c-0.1-0.1-0.3-0.2-0.4-0.1c-0.1,0-0.3,0.1-0.6,0.3c-0.3,0.2-0.6,0.3-0.7,0.3
	c-0.1,0-0.3,0-0.4,0c0.2,0.2,0.2,0.6,0.2,1.1l-0.2,1.7l-0.6-0.4l0.2-1.4c0-0.4,0.1-0.7,0-0.8c0-0.2-0.1-0.3-0.3-0.5l-1.2,1.6
	l-0.4-0.4L49.2,111.8z M48.9,117.1l3.8-2.5l0.5,0.4l-1.1,4.5l-0.5-0.4l0.3-1.3l-1.5-1l-1.1,0.8L48.9,117.1z M50.9,116.3l1.2,0.8
	l0.3-1.2c0.1-0.4,0.2-0.7,0.3-0.9c-0.2,0.2-0.4,0.4-0.7,0.5L50.9,116.3z M55.5,121.3l2.1-3.7l-1.7-0.9c-0.3-0.2-0.6-0.3-0.8-0.3
	c-0.2,0-0.4,0-0.6,0.1c-0.2,0.1-0.4,0.3-0.5,0.5c-0.2,0.3-0.2,0.5-0.1,0.8c0.1,0.3,0.3,0.5,0.6,0.8c-0.2,0-0.3,0-0.4,0
	c-0.2,0-0.5,0.1-0.7,0.3l-1.2,0.6l0.6,0.4l0.9-0.5c0.3-0.1,0.5-0.2,0.6-0.3c0.2-0.1,0.3-0.1,0.4-0.1c0.1,0,0.2,0,0.3,0
	c0.1,0,0.2,0.1,0.3,0.1l0.6,0.3L55,121L55.5,121.3z M56.2,118.9l-1.1-0.6c-0.2-0.1-0.4-0.3-0.5-0.4c-0.1-0.1-0.2-0.2-0.2-0.4
	c0-0.1,0-0.3,0.1-0.4c0.1-0.2,0.2-0.3,0.4-0.3c0.2,0,0.4,0,0.7,0.2l1.2,0.7L56.2,118.9z M60.7,119.5l0.2-0.5l0.5,0.2l-0.2,0.5
	c0.5,0.2,0.8,0.5,1,0.9c0.2,0.4,0.2,0.8,0,1.2c-0.2,0.4-0.4,0.7-0.8,0.9c-0.4,0.2-0.9,0.2-1.4,0l-0.2,0.5l-0.5-0.2l0.2-0.5
	c-0.5-0.2-0.8-0.5-1-0.9c-0.2-0.4-0.2-0.8-0.1-1.3c0.2-0.4,0.5-0.7,0.9-0.9C59.7,119.3,60.2,119.3,60.7,119.5L60.7,119.5z M61,120.1
	l-0.8,2.1c0.3,0.1,0.7,0.1,0.9,0c0.3-0.1,0.5-0.3,0.6-0.6c0.1-0.3,0.1-0.6,0-0.9C61.6,120.5,61.3,120.3,61,120.1z M60.5,119.9
	c-0.3-0.1-0.6-0.1-0.9,0c-0.3,0.1-0.5,0.3-0.6,0.6c-0.1,0.3-0.1,0.6,0,0.9c0.1,0.3,0.4,0.5,0.7,0.6L60.5,119.9z M62.1,124.1l1.2-4.1
	l3,0.9l-0.1,0.5l-2.4-0.7l-0.4,1.3l2.3,0.7l-0.1,0.5l-2.3-0.7l-0.4,1.4l2.5,0.7l-0.1,0.5L62.1,124.1z M67.3,121.1l2.5,0.6l-0.8,3.7
	l0.4,0.1l-0.3,1.5l-0.5-0.1l0.2-1l-2.8-0.6l-0.2,1l-0.5-0.1l0.3-1.5l0.3,0.1c0.5-0.4,0.9-1.4,1.2-3L67.3,121.1z M69.2,122.1
	l-1.5-0.3l0,0.2c-0.1,0.4-0.2,0.8-0.4,1.4c-0.2,0.6-0.4,1.1-0.7,1.4l1.9,0.4L69.2,122.1z M69.9,126.1l0.6-4.3l3.1,0.4l-0.1,0.5
	l-2.5-0.3l-0.2,1.3l2.3,0.3l-0.1,0.5l-2.3-0.3l-0.2,1.5l2.6,0.3l-0.1,0.5L69.9,126.1z M73.9,126.5l0.3-4.3l1.6,0.1
	c0.3,0,0.5,0.1,0.6,0.1c0.2,0.1,0.4,0.1,0.5,0.2c0.1,0.1,0.2,0.3,0.3,0.4c0.1,0.2,0.1,0.4,0.1,0.6c0,0.4-0.2,0.7-0.4,0.9
	c-0.3,0.2-0.7,0.3-1.3,0.3l-1.1-0.1l-0.1,1.7L73.9,126.5z M74.6,124.3l1.1,0.1c0.4,0,0.6,0,0.8-0.1c0.2-0.1,0.3-0.3,0.3-0.6
	c0-0.2,0-0.3-0.1-0.5c-0.1-0.1-0.2-0.2-0.3-0.3c-0.1,0-0.3-0.1-0.5-0.1l-1.1-0.1L74.6,124.3z M77,126.7l1.6-4.3l0.6,0l1.8,4.3
	l-0.6,0l-0.5-1.3l-1.8,0l-0.4,1.3L77,126.7z M78.2,124.9l1.5,0l-0.5-1.2c-0.1-0.4-0.3-0.7-0.3-0.9c-0.1,0.3-0.1,0.6-0.2,0.8
	L78.2,124.9z M80.9,122.4l0.6-0.1l0.5,3.8l2.2-0.3l-0.5-3.8l0.6-0.1l0.5,3.8l0.4-0.1l0.2,1.7l-0.5,0.1l-0.2-1.2l-3.2,0.4L80.9,122.4
	z M85.2,121.8l0.5-0.1l0.6,3.4l1.7-3.7l0.6-0.1l0.7,4.2l-0.5,0.1l-0.6-3.3l-1.7,3.7l-0.6,0.1L85.2,121.8z M93.4,124.2l-1.2-4.1
	l-1.8,0.5c-0.4,0.1-0.6,0.2-0.8,0.4c-0.2,0.1-0.3,0.3-0.3,0.5c-0.1,0.2-0.1,0.4,0,0.7c0.1,0.3,0.2,0.5,0.5,0.7
	c0.2,0.1,0.6,0.2,1,0.1c-0.1,0.1-0.2,0.2-0.3,0.3c-0.1,0.2-0.2,0.4-0.3,0.7l-0.4,1.3l0.7-0.2l0.3-1c0.1-0.3,0.2-0.5,0.2-0.7
	c0.1-0.2,0.1-0.3,0.2-0.4c0.1-0.1,0.1-0.1,0.2-0.2c0.1,0,0.2-0.1,0.3-0.1l0.6-0.2l0.5,1.8L93.4,124.2z M92.2,122.1l-1.2,0.3
	c-0.2,0.1-0.5,0.1-0.6,0.1c-0.2,0-0.3-0.1-0.4-0.2c-0.1-0.1-0.2-0.2-0.2-0.3c-0.1-0.2,0-0.4,0.1-0.5c0.1-0.2,0.3-0.3,0.6-0.4
	l1.3-0.4L92.2,122.1z M94.2,119.3l2.6-1l0.2,0.5l-2.1,0.8l1.4,3.5l-0.5,0.2L94.2,119.3z M97.4,120.4c-0.3-0.6-0.4-1.2-0.3-1.7
	c0.2-0.5,0.5-0.9,1-1.2c0.4-0.2,0.7-0.3,1.1-0.2c0.4,0,0.7,0.1,1,0.4c0.3,0.2,0.6,0.5,0.8,0.9c0.2,0.4,0.3,0.8,0.3,1.2
	c0,0.4-0.1,0.7-0.3,1c-0.2,0.3-0.5,0.5-0.8,0.7c-0.4,0.2-0.7,0.3-1.1,0.2c-0.4,0-0.7-0.2-1-0.4C97.8,121,97.6,120.8,97.4,120.4z
	 M97.9,120.2c0.2,0.5,0.5,0.8,0.9,0.9c0.4,0.1,0.8,0.1,1.1-0.1c0.4-0.2,0.6-0.5,0.7-0.9c0.1-0.4,0-0.8-0.2-1.3
	c-0.2-0.3-0.4-0.6-0.6-0.7c-0.2-0.2-0.5-0.3-0.7-0.3c-0.3,0-0.5,0-0.8,0.2c-0.4,0.2-0.6,0.5-0.7,0.8
	C97.5,119.1,97.6,119.6,97.9,120.2z M102.6,120l-2.3-3.6l1.4-0.9c0.2-0.2,0.4-0.3,0.6-0.3c0.2-0.1,0.4-0.1,0.6-0.1
	c0.2,0,0.3,0.1,0.5,0.2c0.2,0.1,0.3,0.2,0.4,0.4c0.2,0.3,0.3,0.6,0.2,1c-0.1,0.3-0.3,0.7-0.9,1l-0.9,0.6l0.9,1.5L102.6,120z
	 M101.9,117.8l0.9-0.6c0.3-0.2,0.5-0.4,0.5-0.6c0.1-0.2,0-0.4-0.1-0.6c-0.1-0.2-0.2-0.3-0.4-0.3c-0.1-0.1-0.3-0.1-0.4,0
	c-0.1,0-0.2,0.1-0.5,0.3l-0.9,0.6L101.9,117.8z M104.5,116.4c-0.4-0.6-0.6-1.1-0.6-1.7c0.1-0.6,0.3-1,0.8-1.4c0.3-0.2,0.7-0.4,1-0.4
	c0.4,0,0.7,0,1.1,0.2c0.3,0.2,0.6,0.4,0.9,0.8c0.3,0.3,0.4,0.7,0.5,1.1c0.1,0.4,0,0.7-0.1,1.1c-0.1,0.3-0.4,0.6-0.7,0.9
	c-0.3,0.2-0.7,0.4-1,0.4c-0.4,0-0.7,0-1.1-0.2C105,117,104.7,116.7,104.5,116.4z M104.9,116.1c0.3,0.4,0.7,0.6,1.1,0.7
	c0.4,0.1,0.8,0,1.1-0.3c0.3-0.3,0.5-0.6,0.6-1c0-0.4-0.1-0.8-0.5-1.3c-0.2-0.3-0.5-0.5-0.7-0.6c-0.3-0.1-0.5-0.2-0.8-0.2
	c-0.3,0-0.5,0.1-0.7,0.3c-0.3,0.2-0.5,0.6-0.6,1C104.4,115.1,104.6,115.6,104.9,116.1z M106.9,111.6l2-1.7l2.5,2.9l0.3-0.3l1,1.1
	l-0.4,0.3l-0.7-0.8l-2.1,1.9l0.7,0.8l-0.4,0.3l-1-1.1l0.2-0.2c-0.1-0.6-0.6-1.5-1.7-2.7L106.9,111.6z M108.8,110.7l-1.1,1l0.1,0.2
	c0.2,0.3,0.5,0.7,0.9,1.2c0.4,0.5,0.6,1,0.7,1.4l1.5-1.3L108.8,110.7z M113.6,111.2l-3.2-2.8l0.6-0.6l3,1.2c0.3,0.1,0.5,0.2,0.6,0.3
	c-0.1-0.1-0.2-0.3-0.4-0.6l-1.6-2.7l0.5-0.6l3.2,2.8l-0.4,0.4l-2.7-2.4l1.9,3.3l-0.3,0.4l-3.6-1.5l2.8,2.4L113.6,111.2z M115,106.3
	c-0.6-0.4-0.9-0.9-1-1.4c-0.1-0.5,0-1.1,0.4-1.6c0.2-0.3,0.5-0.6,0.9-0.7c0.3-0.2,0.7-0.2,1.1-0.1c0.4,0.1,0.7,0.2,1.1,0.5
	c0.4,0.3,0.6,0.5,0.8,0.9c0.2,0.3,0.2,0.7,0.2,1.1c0,0.4-0.2,0.7-0.4,1c-0.2,0.3-0.5,0.6-0.9,0.7c-0.3,0.1-0.7,0.2-1.1,0.1
	C115.7,106.7,115.3,106.5,115,106.3z M115.4,105.8c0.4,0.3,0.8,0.4,1.2,0.4c0.4-0.1,0.7-0.3,1-0.6c0.2-0.3,0.3-0.7,0.2-1.1
	c-0.1-0.4-0.4-0.8-0.8-1.1c-0.3-0.2-0.6-0.3-0.8-0.4c-0.3-0.1-0.5,0-0.8,0.1c-0.2,0.1-0.5,0.3-0.6,0.5c-0.2,0.3-0.3,0.7-0.3,1.1
	C114.6,105.1,114.9,105.5,115.4,105.8z M119.7,100.1l0.4-0.4c0.3,0.3,0.5,0.7,0.6,1.1c0.1,0.4,0,0.8-0.2,1.2
	c-0.2,0.4-0.5,0.7-0.8,0.8c-0.3,0.2-0.7,0.2-1,0.2c-0.4,0-0.8-0.2-1.1-0.4c-0.4-0.2-0.7-0.5-0.9-0.8c-0.2-0.3-0.3-0.7-0.3-1
	c0-0.4,0.1-0.7,0.3-1c0.2-0.4,0.5-0.6,0.8-0.8c0.3-0.1,0.7-0.2,1.1-0.1l-0.2,0.5c-0.3-0.1-0.6-0.1-0.8,0c-0.2,0.1-0.4,0.3-0.5,0.5
	c-0.2,0.3-0.2,0.6-0.2,0.8c0,0.3,0.1,0.5,0.3,0.7c0.2,0.2,0.4,0.4,0.6,0.5c0.3,0.2,0.6,0.3,0.9,0.3c0.3,0,0.5,0,0.8-0.1
	c0.2-0.1,0.4-0.3,0.5-0.5c0.2-0.3,0.2-0.6,0.2-0.8C120.1,100.6,120,100.4,119.7,100.1L119.7,100.1z M117.7,98l0.2-0.5l1.7,0.8
	c0.1-0.2,0.1-0.4,0.1-0.6c0-0.1-0.2-0.4-0.5-0.7c-0.2-0.2-0.3-0.4-0.4-0.5c-0.1-0.1-0.1-0.3-0.1-0.4c0-0.2,0-0.3,0.1-0.5
	c0.1-0.2,0.1-0.3,0.1-0.3l0.4,0.2c0,0,0,0.1,0,0.1c0,0.1,0,0.1-0.1,0.1c-0.1,0.2-0.1,0.3,0,0.4c0,0.1,0.2,0.3,0.4,0.5
	c0.3,0.3,0.4,0.5,0.5,0.6c0,0.1,0.1,0.3,0.1,0.4c0.2-0.2,0.5-0.4,1-0.4l1.7-0.2l-0.3,0.6l-1.4,0.2c-0.4,0-0.6,0.1-0.8,0.2
	c-0.2,0.1-0.3,0.2-0.4,0.4l1.8,0.8l-0.2,0.5L117.7,98z M123,96.6l-4-1.6l0.6-1.5c0.1-0.3,0.3-0.5,0.4-0.7c0.2-0.2,0.3-0.2,0.5-0.3
	c0.2,0,0.4,0,0.6,0c0.2,0.1,0.3,0.2,0.4,0.3c0.1,0.2,0.2,0.3,0.2,0.6c0.2-0.2,0.4-0.4,0.6-0.4c0.2-0.1,0.4,0,0.7,0
	c0.2,0.1,0.3,0.2,0.5,0.3c0.1,0.1,0.2,0.3,0.3,0.4c0,0.2,0.1,0.3,0,0.5c0,0.2-0.1,0.4-0.2,0.7L123,96.6z M120.9,95.1l0.3-0.9
	c0.1-0.2,0.1-0.4,0.2-0.5c0-0.2,0-0.3-0.1-0.4c-0.1-0.1-0.2-0.2-0.3-0.2c-0.1-0.1-0.3-0.1-0.4,0c-0.1,0-0.2,0.1-0.3,0.2
	c-0.1,0.1-0.2,0.3-0.3,0.6l-0.3,0.8L120.9,95.1z M122.7,95.9l0.4-1c0.1-0.2,0.1-0.3,0.1-0.4c0-0.1,0-0.2,0-0.3
	c0-0.1-0.1-0.2-0.1-0.3c-0.1-0.1-0.2-0.2-0.3-0.2c-0.1-0.1-0.3-0.1-0.4,0c-0.1,0-0.3,0.1-0.4,0.2c-0.1,0.1-0.2,0.3-0.3,0.6l-0.4,0.9
	L122.7,95.9z M124.2,93.5l-3.7-2.8l0.2-0.6l4.6-0.5l-0.2,0.6l-1.4,0.1l-0.5,1.7l1.1,0.8L124.2,93.5z M122.9,91.8l0.4-1.4l-1.3,0.1
	c-0.4,0-0.7,0-0.9,0c0.3,0.1,0.5,0.3,0.7,0.5L122.9,91.8z"/>
<path id="path16" class="st3" d="M50.5,76.2l-0.6,2l0.6,2H50l-1-2l1-2H50.5z M48.9,76.2l-0.6,2l0.6,2h-0.6l-1-2l1-2H48.9z
	 M55.2,81.9c-1.1,0-2-0.5-2.7-1.4c-0.6-0.9-1-2.1-1-3.5c0-1.4,0.3-2.5,1-3.4c0.7-0.9,1.6-1.4,2.7-1.4c1.1,0,2,0.5,2.7,1.4
	c0.7,0.9,1,2.1,1,3.4c0,1.4-0.3,2.6-1,3.5C57.2,81.4,56.4,81.9,55.2,81.9z M55.2,80.5c0.6,0,1-0.3,1.4-0.8c0.4-0.5,0.6-1.4,0.6-2.7
	c0-1.1-0.2-1.9-0.5-2.5c-0.3-0.6-0.8-0.9-1.5-0.9c-1.3,0-2,1.2-2,3.5c0,1.1,0.2,2,0.5,2.6C54.1,80.2,54.6,80.5,55.2,80.5z
	 M60.4,81.7v-9.4h5.4v1.4h-3.9v2.4h1.5c0.8,0,1.4,0.1,1.8,0.2c0.4,0.1,0.8,0.4,1.1,0.9c0.3,0.5,0.4,1,0.4,1.6c0,0.8-0.2,1.5-0.7,2
	c-0.5,0.5-1.2,0.8-2.1,0.8H60.4z M61.9,80.3h1.7c1,0,1.5-0.5,1.5-1.4c0-0.4-0.1-0.7-0.3-1c-0.2-0.3-0.6-0.4-1.3-0.4h-1.6V80.3z
	 M69.7,81.7h-1.6v-9.4h3.5c1,0,1.8,0.3,2.2,0.8c0.5,0.6,0.7,1.2,0.7,2c0,0.9-0.3,1.6-0.8,2.1c-0.5,0.5-1.2,0.8-2,0.8h-2.2V81.7z
	 M69.7,76.6h1.8c0.5,0,0.8-0.1,1.1-0.4c0.3-0.3,0.4-0.6,0.4-1c0-0.4-0.1-0.7-0.3-1c-0.2-0.3-0.7-0.4-1.3-0.4h-1.7V76.6z M82.1,81.7
	h-1.7l-0.7-2.2h-3.3l-0.7,2.2h-1.3l2.9-9.4h1.9L82.1,81.7z M79.3,78.1L78.1,74l-1.3,4.2H79.3z M82.3,79l1.4-0.3
	c0.2,1.2,0.9,1.8,2,1.8c0.6,0,1-0.1,1.3-0.4c0.3-0.3,0.4-0.7,0.4-1.1c0-1-0.5-1.5-1.5-1.5h-0.8v-1.2h0.7c0.4,0,0.8-0.1,1-0.4
	c0.3-0.2,0.4-0.6,0.4-1c0-0.4-0.1-0.7-0.4-1c-0.3-0.2-0.7-0.4-1.1-0.4c-1,0-1.6,0.5-1.8,1.5l-1.4-0.2c0.3-1.8,1.4-2.7,3.2-2.7
	c0.9,0,1.7,0.2,2.2,0.7c0.6,0.5,0.8,1.1,0.8,1.8c0,1-0.5,1.7-1.6,2.1c1.2,0.3,1.8,1,1.8,2.2c0,0.8-0.3,1.5-0.9,2.1
	c-0.6,0.6-1.4,0.9-2.5,0.9c-1,0-1.8-0.3-2.4-0.8C82.7,80.6,82.4,79.9,82.3,79z M96.1,81.7h-5.6v-9.4H96v1.4h-4v2.5h3.2v1.4H92v2.6
	h4.1L96.1,81.7z M97.5,81.7v-9.4h1.6v7.9h3.1v-7.9h1.5v7.9h1.1v3.4h-1.1l-0.2-2H97.5z M105.4,76.3h0.6l1,2l-1,1.9h-0.6l0.6-1.9
	L105.4,76.3z M107,76.3h0.6l1,2l-1,1.9H107l0.6-1.9L107,76.3z"/>
<path id="path18" class="st3" d="M49.1,54.1c-0.5-0.5-0.8-1-0.8-1.6c0-0.6,0.2-1.1,0.6-1.5c0.3-0.3,0.6-0.5,0.9-0.6
	c0.4-0.1,0.7-0.1,1.1,0c0.4,0.1,0.7,0.3,1.1,0.6c0.5,0.4,0.7,0.9,0.7,1.5c0,0.6-0.2,1.1-0.6,1.6c-0.5,0.5-1,0.7-1.6,0.7
	C50,54.7,49.5,54.5,49.1,54.1z M49.5,53.6c0.4,0.4,0.8,0.5,1.2,0.5c0.4,0,0.8-0.2,1.1-0.5c0.3-0.3,0.4-0.7,0.4-1.1
	c0-0.4-0.2-0.8-0.6-1.2c-0.3-0.3-0.6-0.4-0.9-0.5c-0.2-0.1-0.5-0.1-0.8,0c-0.3,0.1-0.5,0.2-0.7,0.4c-0.3,0.3-0.5,0.7-0.4,1.1
	C48.8,52.8,49.1,53.2,49.5,53.6z M51.5,48.5l2.1-1.8l0.3,0.4l-1.6,1.4l2.5,2.9l-0.5,0.4L51.5,48.5z M57,49.5l-2.3-3.6l1.4-0.9
	c0.3-0.2,0.6-0.3,0.8-0.4c0.3-0.1,0.5-0.1,0.7,0c0.2,0.1,0.4,0.3,0.6,0.5c0.2,0.3,0.3,0.7,0.2,1c-0.1,0.3-0.4,0.7-0.9,1l-1,0.6
	l0.9,1.5L57,49.5z M56.3,47.3l1-0.6c0.3-0.2,0.5-0.4,0.6-0.6c0.1-0.2,0-0.4-0.1-0.6c-0.1-0.1-0.2-0.2-0.3-0.3
	c-0.1-0.1-0.3-0.1-0.4,0c-0.1,0-0.3,0.1-0.6,0.3l-1,0.6L56.3,47.3z M60.7,47.1l-1.9-3.8l0.5-0.3l0.8,1.6l2.1-1L61.3,42l0.5-0.3
	l1.9,3.8l-0.5,0.3L62.4,44l-2.1,1l0.9,1.8L60.7,47.1z M65.8,42.5c-0.2-0.7-0.2-1.3-0.1-1.7c0.1-0.4,0.4-0.7,0.9-0.8
	c0.4-0.1,0.8-0.1,1.1,0.2c0.4,0.3,0.7,0.8,0.9,1.6c0.2,0.7,0.2,1.2,0.1,1.7c-0.1,0.4-0.4,0.7-0.9,0.8c-0.4,0.1-0.8,0.1-1.1-0.2
	C66.3,43.8,66,43.3,65.8,42.5z M66.3,42.3c0.2,0.7,0.4,1.1,0.6,1.3c0.2,0.2,0.5,0.2,0.7,0.2c0.2-0.1,0.4-0.2,0.5-0.5
	c0.1-0.3,0.1-0.7-0.1-1.4c-0.2-0.7-0.4-1.1-0.6-1.3c-0.2-0.2-0.5-0.2-0.7-0.2c-0.2,0.1-0.4,0.2-0.5,0.5
	C66.1,41.2,66.1,41.7,66.3,42.3z M69.5,41.4c-0.1-0.7-0.1-1.3,0.1-1.7c0.2-0.4,0.5-0.7,1-0.7c0.4-0.1,0.8,0,1.1,0.3
	c0.4,0.3,0.6,0.8,0.8,1.6c0.1,0.7,0.1,1.3-0.1,1.7c-0.2,0.4-0.5,0.7-1,0.7c-0.4,0.1-0.8,0-1.1-0.3C69.9,42.8,69.6,42.2,69.5,41.4z
	 M70.1,41.3c0.1,0.7,0.3,1.1,0.5,1.3c0.2,0.2,0.4,0.3,0.7,0.2c0.2,0,0.4-0.2,0.6-0.5c0.1-0.3,0.1-0.7,0-1.4
	c-0.1-0.7-0.3-1.1-0.5-1.3c-0.2-0.2-0.4-0.3-0.7-0.2c-0.2,0-0.4,0.2-0.5,0.5C69.9,40.2,69.9,40.6,70.1,41.3z M73.3,40.7
	c-0.1-0.7,0-1.3,0.2-1.7c0.2-0.4,0.6-0.6,1-0.6c0.4,0,0.8,0.1,1,0.4c0.3,0.3,0.5,0.9,0.6,1.7c0.1,0.7,0,1.3-0.2,1.7
	c-0.2,0.4-0.6,0.6-1,0.6c-0.4,0-0.8-0.1-1.1-0.4C73.6,42.1,73.4,41.5,73.3,40.7z M73.9,40.7c0.1,0.7,0.2,1.2,0.4,1.4
	c0.2,0.2,0.4,0.3,0.7,0.3c0.2,0,0.4-0.2,0.6-0.4c0.1-0.3,0.2-0.7,0.1-1.4c-0.1-0.7-0.2-1.2-0.4-1.4c-0.2-0.2-0.4-0.3-0.7-0.3
	c-0.2,0-0.4,0.2-0.6,0.4C73.9,39.5,73.9,40,73.9,40.7z M77.2,40.4c0-0.7,0.2-1.3,0.4-1.6c0.3-0.4,0.6-0.5,1.1-0.5
	c0.4,0,0.8,0.2,1,0.5c0.3,0.4,0.4,1,0.4,1.8c0,0.7-0.2,1.3-0.4,1.6c-0.3,0.4-0.6,0.5-1.1,0.5c-0.4,0-0.8-0.2-1-0.5
	C77.3,41.8,77.2,41.2,77.2,40.4z M77.8,40.4c0,0.7,0.1,1.2,0.2,1.4c0.2,0.2,0.4,0.4,0.6,0.4c0.3,0,0.5-0.1,0.6-0.3
	c0.2-0.2,0.3-0.7,0.3-1.4c0-0.7-0.1-1.2-0.2-1.4c-0.2-0.2-0.4-0.4-0.6-0.4c-0.2,0-0.5,0.1-0.6,0.3C77.9,39.3,77.8,39.8,77.8,40.4z
	 M81.1,40.6c0.1-0.7,0.3-1.2,0.6-1.6c0.3-0.3,0.7-0.5,1.2-0.4c0.4,0.1,0.7,0.2,0.9,0.6c0.3,0.4,0.3,1,0.2,1.8
	c-0.1,0.7-0.3,1.2-0.6,1.6c-0.3,0.3-0.7,0.5-1.2,0.4c-0.4-0.1-0.7-0.3-1-0.6C81.1,41.9,81,41.3,81.1,40.6z M81.7,40.6
	c-0.1,0.7-0.1,1.2,0.1,1.4c0.1,0.3,0.3,0.4,0.6,0.4c0.2,0,0.5-0.1,0.7-0.3c0.2-0.2,0.3-0.7,0.4-1.4c0.1-0.7,0.1-1.2-0.1-1.4
	C83.2,39.2,83,39,82.8,39c-0.2,0-0.5,0.1-0.7,0.3C81.9,39.5,81.8,39.9,81.7,40.6z M85,41.1c0.2-0.7,0.4-1.2,0.7-1.5
	c0.3-0.3,0.7-0.4,1.2-0.3c0.4,0.1,0.7,0.3,0.9,0.7c0.2,0.4,0.2,1,0,1.8c-0.2,0.7-0.4,1.2-0.7,1.5c-0.3,0.3-0.7,0.4-1.2,0.3
	c-0.4-0.1-0.7-0.3-0.9-0.7C84.8,42.4,84.8,41.8,85,41.1z M85.5,41.2c-0.2,0.7-0.2,1.2-0.1,1.4c0.1,0.3,0.3,0.4,0.6,0.5
	c0.2,0.1,0.5,0,0.7-0.2c0.2-0.2,0.4-0.6,0.6-1.3c0.2-0.7,0.2-1.2,0.1-1.4c-0.1-0.3-0.3-0.4-0.6-0.5c-0.2-0.1-0.5,0-0.7,0.2
	C85.9,40.1,85.7,40.5,85.5,41.2z M88.8,42c0.2-0.7,0.5-1.2,0.9-1.4c0.4-0.3,0.8-0.3,1.2-0.2c0.4,0.1,0.7,0.4,0.8,0.8
	c0.2,0.4,0.1,1-0.1,1.8c-0.2,0.7-0.5,1.2-0.9,1.4c-0.4,0.3-0.8,0.3-1.2,0.2c-0.4-0.1-0.7-0.4-0.8-0.8C88.5,43.3,88.5,42.7,88.8,42z
	 M89.3,42.1c-0.2,0.7-0.3,1.1-0.2,1.4c0.1,0.3,0.3,0.5,0.5,0.5c0.2,0.1,0.5,0,0.7-0.1c0.2-0.2,0.5-0.6,0.7-1.2
	c0.2-0.7,0.3-1.1,0.2-1.4c-0.1-0.3-0.3-0.5-0.5-0.5c-0.2-0.1-0.5,0-0.7,0.1C89.8,41.1,89.6,41.5,89.3,42.1z M92.4,43.3
	c0.3-0.7,0.6-1.1,1-1.3c0.4-0.2,0.8-0.3,1.2-0.1c0.4,0.2,0.6,0.4,0.7,0.8c0.1,0.5,0,1-0.3,1.8c-0.3,0.7-0.6,1.1-1,1.3
	c-0.4,0.2-0.8,0.3-1.2,0.1c-0.4-0.2-0.6-0.5-0.8-0.9C92,44.6,92.1,44,92.4,43.3z M93,43.5c-0.3,0.6-0.4,1.1-0.3,1.4
	c0.1,0.3,0.2,0.5,0.4,0.6c0.2,0.1,0.5,0.1,0.7-0.1c0.3-0.2,0.5-0.5,0.8-1.2c0.3-0.6,0.4-1.1,0.3-1.4c-0.1-0.3-0.2-0.5-0.5-0.6
	c-0.2-0.1-0.5-0.1-0.7,0.1C93.5,42.5,93.2,42.9,93,43.5z M96,44.9c0.4-0.6,0.7-1,1.1-1.2c0.4-0.2,0.8-0.2,1.2,0.1
	c0.4,0.2,0.6,0.5,0.6,0.9c0.1,0.5-0.1,1-0.5,1.7c-0.4,0.6-0.7,1-1.1,1.2c-0.4,0.2-0.8,0.2-1.2-0.1c-0.4-0.2-0.6-0.5-0.7-1
	C95.4,46.2,95.6,45.6,96,44.9L96,44.9z M96.5,45.2c-0.4,0.6-0.5,1.1-0.5,1.3c0,0.3,0.2,0.5,0.4,0.6c0.2,0.1,0.5,0.1,0.7,0
	c0.3-0.1,0.6-0.5,0.9-1.1c0.4-0.6,0.5-1.1,0.5-1.3c0-0.3-0.2-0.5-0.4-0.6c-0.2-0.1-0.5-0.1-0.7,0C97.1,44.2,96.8,44.6,96.5,45.2z
	 M99.3,46.9c0.4-0.6,0.8-1,1.3-1.1c0.4-0.2,0.8-0.1,1.2,0.2c0.3,0.2,0.5,0.6,0.6,1c0,0.5-0.2,1-0.6,1.7c-0.4,0.6-0.8,1-1.2,1.1
	c-0.4,0.2-0.8,0.1-1.2-0.2c-0.3-0.2-0.5-0.6-0.6-1C98.6,48.1,98.8,47.6,99.3,46.9z M99.8,47.3c-0.4,0.6-0.6,1-0.6,1.3
	c0,0.3,0.1,0.5,0.3,0.7c0.2,0.1,0.4,0.2,0.7,0.1c0.3-0.1,0.6-0.4,1-1c0.4-0.6,0.6-1,0.6-1.3c0-0.3-0.1-0.5-0.3-0.7
	c-0.2-0.1-0.4-0.2-0.7-0.1C100.5,46.4,100.2,46.7,99.8,47.3z M102.5,49.3c0.5-0.5,1-0.8,1.4-0.9c0.4-0.1,0.8,0,1.2,0.4
	c0.3,0.3,0.4,0.6,0.4,1c0,0.5-0.3,1-0.9,1.6c-0.5,0.5-1,0.8-1.4,0.9c-0.4,0.1-0.8,0-1.2-0.4c-0.3-0.3-0.4-0.7-0.4-1.1
	C101.7,50.4,102,49.9,102.5,49.3z M102.9,49.7c-0.5,0.5-0.7,0.9-0.8,1.2c0,0.3,0,0.5,0.2,0.7c0.2,0.2,0.4,0.2,0.7,0.2
	c0.3-0.1,0.7-0.3,1.1-0.8c0.5-0.5,0.7-0.9,0.8-1.2c0-0.3,0-0.5-0.2-0.7c-0.2-0.2-0.4-0.2-0.7-0.2C103.8,48.9,103.4,49.2,102.9,49.7z
	 M105.4,52c0.5-0.5,1-0.7,1.5-0.8c0.4-0.1,0.8,0.1,1.1,0.5c0.3,0.3,0.4,0.7,0.3,1.1c-0.1,0.5-0.4,1-1,1.5c-0.5,0.5-1,0.7-1.5,0.8
	c-0.4,0.1-0.8-0.1-1.1-0.5c-0.3-0.3-0.4-0.7-0.3-1.1C104.4,53,104.7,52.5,105.4,52z M105.7,52.4c-0.5,0.5-0.8,0.8-0.9,1.1
	c-0.1,0.3,0,0.5,0.2,0.7c0.2,0.2,0.4,0.3,0.7,0.2c0.3,0,0.7-0.3,1.2-0.7c0.5-0.5,0.8-0.8,0.9-1.1c0.1-0.3,0-0.5-0.2-0.7
	c-0.2-0.2-0.4-0.3-0.7-0.2C106.7,51.7,106.2,51.9,105.7,52.4z"/>
<path id="path20" class="st3" d="M31.9,84.9c0-0.2-0.1-0.4-0.1-0.7c-0.1-0.3-0.2-0.5-0.2-0.7c0-0.2,0-0.3,0.1-0.4
	c0.1-0.1,0.2-0.1,0.3-0.1c0.1,0,0.2,0,0.3,0.1c0.1,0.1,0.1,0.2,0.1,0.4c0,0.1,0,0.3-0.1,0.6c-0.1,0.3-0.1,0.5-0.2,0.7
	c0.2-0.1,0.3-0.3,0.5-0.4c0.2-0.3,0.4-0.4,0.5-0.5c0.1-0.1,0.2-0.1,0.3-0.1c0.1,0,0.2,0,0.3,0.1c0.1,0.1,0.1,0.2,0.1,0.3
	c0,0.1-0.1,0.2-0.2,0.3c-0.1,0.1-0.4,0.2-0.8,0.3c-0.2,0.1-0.5,0.1-0.6,0.2c0.2,0.1,0.4,0.2,0.6,0.2c0.4,0.1,0.7,0.2,0.8,0.3
	c0.1,0.1,0.2,0.2,0.2,0.4c0,0.1,0,0.2-0.1,0.3c-0.1,0.1-0.2,0.1-0.3,0.1c-0.1,0-0.2,0-0.3-0.1c-0.1-0.1-0.3-0.2-0.5-0.5
	c-0.1-0.2-0.3-0.3-0.5-0.5c0,0.2,0,0.4,0.1,0.6c0.1,0.4,0.2,0.6,0.2,0.8c0,0.1,0,0.2-0.1,0.3c-0.1,0.1-0.2,0.1-0.2,0.1
	c-0.1,0-0.2,0-0.3-0.1c-0.1-0.1-0.1-0.2-0.1-0.3c0-0.2,0-0.3,0.1-0.6c0.1-0.2,0.1-0.4,0.1-0.5c0-0.1,0-0.2,0.1-0.4
	c-0.2,0.1-0.4,0.3-0.5,0.4c-0.2,0.3-0.4,0.4-0.5,0.5c-0.1,0.1-0.2,0.1-0.3,0.1c-0.1,0-0.2,0-0.3-0.1c-0.1-0.1-0.1-0.2-0.1-0.2
	c0-0.1,0-0.2,0.1-0.3c0.1-0.1,0.2-0.2,0.3-0.2c0.1,0,0.3-0.1,0.6-0.2c0.2,0,0.4-0.1,0.6-0.2c-0.2-0.1-0.4-0.2-0.6-0.2
	c-0.4-0.1-0.6-0.2-0.7-0.2c-0.1-0.1-0.2-0.2-0.2-0.4c0-0.1,0-0.2,0.1-0.2c0.1-0.1,0.2-0.1,0.3-0.1c0.1,0,0.2,0,0.3,0.1
	c0.1,0.1,0.3,0.2,0.4,0.4C31.5,84.6,31.7,84.8,31.9,84.9z"/>
<path id="path22" class="st3" d="M57.6,107.4l0.5,0.3l-2,3.2l4.2-1.8l0.5,0.3l-2.6,4l-0.5-0.3l2-3.2l-4.2,1.8l-0.5-0.3L57.6,107.4z
	 M59.1,113.9l2-4.4l0.6,0.3l-0.8,1.8l2.3,1l0.8-1.8l0.6,0.3l-2,4.4l-0.6-0.3l0.9-2.1l-2.3-1l-0.9,2.1L59.1,113.9z M63.5,115.9
	l1.5-4.5l0.6,0.2l-0.6,1.9l2.3,0.8l0.6-1.9l0.6,0.2l-1.5,4.5l-0.6-0.2l0.7-2.1l-2.3-0.8l-0.7,2.1L63.5,115.9z M70.1,115.3
	c0.1-0.6,0.2-1,0.4-1.3c0.2-0.3,0.4-0.6,0.7-0.7c0.3-0.1,0.6-0.2,0.9-0.1c0.3,0,0.5,0.1,0.6,0.3c0.2,0.1,0.3,0.3,0.4,0.5
	c0.1,0.2,0.1,0.5,0.2,0.8c0,0.3,0,0.7-0.1,1.1c-0.1,0.6-0.2,1-0.4,1.3c-0.2,0.3-0.4,0.6-0.7,0.7c-0.3,0.1-0.6,0.2-0.9,0.1
	c-0.5-0.1-0.8-0.3-1-0.7C70,116.9,70,116.2,70.1,115.3L70.1,115.3z M70.7,115.4c-0.1,0.8-0.1,1.3,0,1.6c0.1,0.3,0.3,0.5,0.6,0.5
	c0.3,0,0.5,0,0.7-0.3c0.2-0.2,0.4-0.7,0.5-1.5c0.1-0.8,0.1-1.3,0-1.6c-0.1-0.3-0.3-0.5-0.6-0.5c-0.3,0-0.5,0-0.7,0.2
	C71,114.2,70.9,114.7,70.7,115.4z M73.6,115.9c0-0.6,0.1-1,0.3-1.4c0.1-0.3,0.3-0.6,0.6-0.8c0.2-0.2,0.5-0.2,0.9-0.2
	c0.3,0,0.5,0.1,0.7,0.2c0.2,0.1,0.3,0.3,0.4,0.5c0.1,0.2,0.2,0.4,0.2,0.7c0.1,0.3,0.1,0.7,0,1.1c0,0.6-0.1,1-0.3,1.3
	c-0.1,0.3-0.3,0.6-0.6,0.8c-0.2,0.2-0.5,0.2-0.9,0.2c-0.5,0-0.8-0.2-1-0.6C73.6,117.5,73.5,116.8,73.6,115.9z M74.2,115.9
	c-0.1,0.8,0,1.3,0.2,1.6c0.2,0.3,0.4,0.4,0.7,0.4c0.3,0,0.5-0.1,0.7-0.3c0.2-0.2,0.3-0.8,0.4-1.5c0.1-0.8,0-1.3-0.2-1.6
	c-0.2-0.3-0.4-0.4-0.7-0.4c-0.3,0-0.5,0.1-0.7,0.3C74.4,114.6,74.2,115.2,74.2,115.9L74.2,115.9z M77,116.2c0-0.6,0-1,0.1-1.4
	c0.1-0.4,0.3-0.6,0.5-0.8c0.2-0.2,0.5-0.3,0.9-0.3c0.3,0,0.5,0,0.7,0.1c0.2,0.1,0.4,0.2,0.5,0.4c0.1,0.2,0.2,0.4,0.3,0.7
	c0.1,0.3,0.1,0.7,0.1,1.1c0,0.6,0,1-0.1,1.4c-0.1,0.4-0.3,0.6-0.5,0.8c-0.2,0.2-0.5,0.3-0.9,0.3c-0.5,0-0.8-0.1-1.1-0.5
	C77.2,117.7,77.1,117.1,77,116.2L77,116.2z M77.6,116.1c0,0.8,0.1,1.3,0.3,1.6c0.2,0.3,0.4,0.4,0.7,0.4c0.3,0,0.5-0.1,0.7-0.4
	c0.2-0.3,0.3-0.8,0.2-1.6c0-0.8-0.1-1.3-0.3-1.6c-0.2-0.3-0.4-0.4-0.7-0.4c-0.3,0-0.5,0.1-0.6,0.4C77.7,114.8,77.6,115.4,77.6,116.1
	z M80.5,116.1c-0.1-0.6-0.1-1,0-1.4c0.1-0.4,0.2-0.6,0.4-0.9c0.2-0.2,0.5-0.3,0.8-0.4c0.3,0,0.5,0,0.7,0.1c0.2,0.1,0.4,0.2,0.5,0.4
	c0.1,0.2,0.3,0.4,0.4,0.7c0.1,0.3,0.2,0.6,0.2,1.1c0.1,0.6,0.1,1,0,1.4c-0.1,0.4-0.2,0.6-0.4,0.9c-0.2,0.2-0.5,0.3-0.8,0.4
	c-0.5,0.1-0.8-0.1-1.1-0.4C80.9,117.6,80.6,117,80.5,116.1z M81.1,116c0.1,0.8,0.3,1.3,0.5,1.5c0.2,0.2,0.5,0.3,0.7,0.3
	c0.3,0,0.5-0.2,0.6-0.5c0.1-0.3,0.2-0.8,0.1-1.6c-0.1-0.8-0.3-1.3-0.5-1.5c-0.2-0.2-0.5-0.3-0.7-0.3c-0.3,0-0.5,0.2-0.6,0.4
	C81.1,114.7,81,115.2,81.1,116z M84.1,115.6c-0.1-0.6-0.1-1-0.1-1.4c0.1-0.4,0.2-0.7,0.4-0.9c0.2-0.2,0.5-0.4,0.8-0.4
	c0.3,0,0.5,0,0.7,0c0.2,0.1,0.4,0.2,0.6,0.4c0.2,0.2,0.3,0.4,0.4,0.6c0.1,0.3,0.2,0.6,0.3,1.1c0.1,0.6,0.1,1,0.1,1.4
	c-0.1,0.4-0.2,0.7-0.4,0.9c-0.2,0.2-0.5,0.4-0.8,0.4c-0.5,0.1-0.8,0-1.2-0.3C84.5,117.1,84.3,116.5,84.1,115.6z M84.7,115.5
	c0.1,0.8,0.3,1.3,0.5,1.5c0.2,0.2,0.5,0.3,0.7,0.3c0.3,0,0.5-0.2,0.6-0.5c0.1-0.3,0.1-0.8,0-1.6c-0.1-0.8-0.3-1.3-0.5-1.5
	c-0.2-0.2-0.5-0.3-0.7-0.3c-0.3,0-0.5,0.2-0.6,0.5C84.6,114.2,84.6,114.8,84.7,115.5L84.7,115.5z M87.5,114.9
	c-0.2-0.5-0.2-1-0.2-1.4c0-0.4,0.1-0.7,0.3-0.9c0.2-0.2,0.4-0.4,0.8-0.5c0.2-0.1,0.5-0.1,0.7,0c0.2,0,0.4,0.1,0.6,0.3
	c0.2,0.2,0.3,0.4,0.5,0.6c0.1,0.2,0.3,0.6,0.4,1.1c0.2,0.5,0.2,1,0.2,1.4c0,0.4-0.1,0.7-0.3,0.9c-0.2,0.2-0.4,0.4-0.8,0.5
	c-0.4,0.1-0.8,0.1-1.2-0.2C88.1,116.4,87.8,115.8,87.5,114.9z M88.1,114.8c0.2,0.8,0.4,1.2,0.7,1.4c0.2,0.2,0.5,0.3,0.8,0.2
	c0.3-0.1,0.4-0.3,0.5-0.6c0.1-0.3,0.1-0.8-0.2-1.6c-0.2-0.8-0.4-1.2-0.7-1.4c-0.2-0.2-0.5-0.3-0.8-0.2c-0.3,0.1-0.4,0.2-0.5,0.5
	C87.8,113.5,87.9,114,88.1,114.8z M90.9,113.9c-0.2-0.5-0.3-1-0.3-1.3c0-0.4,0-0.7,0.2-0.9c0.1-0.3,0.4-0.4,0.7-0.6
	c0.2-0.1,0.5-0.1,0.7-0.1c0.2,0,0.4,0.1,0.6,0.2c0.2,0.1,0.4,0.3,0.5,0.6c0.2,0.2,0.3,0.6,0.5,1c0.2,0.5,0.3,1,0.3,1.3
	c0,0.4,0,0.7-0.2,0.9c-0.1,0.3-0.4,0.5-0.7,0.6c-0.4,0.2-0.8,0.1-1.2-0.1C91.6,115.3,91.2,114.7,90.9,113.9L90.9,113.9z M91.4,113.7
	c0.3,0.7,0.6,1.2,0.8,1.4c0.3,0.2,0.5,0.2,0.8,0.1c0.3-0.1,0.4-0.3,0.5-0.6c0.1-0.3,0-0.8-0.3-1.6c-0.3-0.7-0.6-1.2-0.8-1.4
	c-0.3-0.2-0.5-0.2-0.8-0.1c-0.3,0.1-0.4,0.3-0.5,0.6C91,112.4,91.1,113,91.4,113.7z M94.1,112.6c-0.3-0.5-0.4-0.9-0.5-1.3
	c-0.1-0.4,0-0.7,0.1-0.9c0.1-0.3,0.3-0.5,0.6-0.6c0.2-0.1,0.5-0.2,0.7-0.2c0.2,0,0.4,0.1,0.6,0.2c0.2,0.1,0.4,0.3,0.6,0.5
	c0.2,0.2,0.4,0.5,0.6,1c0.3,0.5,0.4,0.9,0.5,1.3c0.1,0.4,0,0.7-0.1,0.9c-0.1,0.3-0.3,0.5-0.6,0.6c-0.4,0.2-0.8,0.2-1.2,0.1
	C94.9,113.9,94.5,113.4,94.1,112.6z M94.6,112.3c0.4,0.7,0.7,1.1,1,1.3c0.3,0.1,0.5,0.2,0.8,0c0.2-0.1,0.4-0.3,0.4-0.7
	c0-0.3-0.1-0.8-0.5-1.5c-0.4-0.7-0.7-1.1-1-1.3c-0.3-0.1-0.5-0.2-0.8,0c-0.2,0.1-0.4,0.3-0.4,0.6C94.1,111.1,94.3,111.6,94.6,112.3z
	 M97.2,111c-0.3-0.5-0.5-0.9-0.6-1.2c-0.1-0.4-0.1-0.7,0-1c0.1-0.3,0.3-0.5,0.6-0.7c0.2-0.1,0.4-0.2,0.7-0.2c0.2,0,0.4,0,0.6,0.1
	c0.2,0.1,0.4,0.2,0.6,0.4c0.2,0.2,0.4,0.5,0.7,0.9c0.3,0.5,0.5,0.9,0.6,1.2c0.1,0.4,0.1,0.7,0,1c-0.1,0.3-0.3,0.5-0.6,0.7
	c-0.4,0.2-0.8,0.3-1.2,0.2C98.2,112.2,97.7,111.7,97.2,111L97.2,111z M97.7,110.7c0.4,0.7,0.8,1.1,1.1,1.2c0.3,0.1,0.6,0.1,0.8,0
	c0.2-0.1,0.3-0.4,0.4-0.7c0-0.3-0.2-0.8-0.6-1.5c-0.4-0.7-0.8-1.1-1.1-1.2c-0.3-0.1-0.6-0.1-0.8,0c-0.2,0.1-0.3,0.4-0.4,0.6
	C97.1,109.5,97.3,110,97.7,110.7z"/>
<path id="path24" class="st3" d="M123.5,84.9c0-0.2-0.1-0.4-0.1-0.7c-0.1-0.3-0.2-0.5-0.2-0.7c0-0.2,0-0.3,0.1-0.4
	c0.1-0.1,0.2-0.1,0.3-0.1c0.1,0,0.2,0,0.3,0.1c0.1,0.1,0.1,0.2,0.1,0.4c0,0.1,0,0.3-0.1,0.6c-0.1,0.3-0.1,0.5-0.2,0.7
	c0.2-0.1,0.3-0.3,0.5-0.4c0.2-0.3,0.4-0.4,0.5-0.5c0.1-0.1,0.2-0.1,0.3-0.1c0.1,0,0.2,0,0.3,0.1c0.1,0.1,0.1,0.2,0.1,0.3
	c0,0.1-0.1,0.2-0.2,0.3c-0.1,0.1-0.4,0.2-0.8,0.3c-0.2,0.1-0.5,0.1-0.6,0.2c0.2,0.1,0.4,0.2,0.6,0.2c0.4,0.1,0.7,0.2,0.8,0.3
	c0.1,0.1,0.2,0.2,0.2,0.4c0,0.1,0,0.2-0.1,0.3c-0.1,0.1-0.2,0.1-0.3,0.1c-0.1,0-0.2,0-0.3-0.1c-0.1-0.1-0.3-0.2-0.5-0.5
	c-0.1-0.2-0.3-0.3-0.5-0.5c0,0.2,0,0.4,0.1,0.6c0.1,0.4,0.2,0.6,0.2,0.8c0,0.1,0,0.2-0.1,0.3c-0.1,0.1-0.2,0.1-0.2,0.1
	c-0.1,0-0.2,0-0.3-0.1c-0.1-0.1-0.1-0.2-0.1-0.3c0-0.2,0-0.3,0.1-0.6c0.1-0.2,0.1-0.4,0.1-0.5c0-0.1,0-0.2,0.1-0.4
	c-0.2,0.1-0.4,0.3-0.5,0.4c-0.2,0.3-0.4,0.4-0.5,0.5c-0.1,0.1-0.2,0.1-0.3,0.1c-0.1,0-0.2,0-0.3-0.1c-0.1-0.1-0.1-0.2-0.1-0.2
	c0-0.1,0-0.2,0.1-0.3c0.1-0.1,0.2-0.2,0.3-0.2c0.1,0,0.3-0.1,0.6-0.2c0.2,0,0.4-0.1,0.6-0.2c-0.2-0.1-0.4-0.2-0.6-0.2
	c-0.4-0.1-0.6-0.2-0.7-0.2c-0.1-0.1-0.2-0.2-0.2-0.4c0-0.1,0-0.2,0.1-0.2c0.1-0.1,0.2-0.1,0.3-0.1c0.1,0,0.2,0,0.3,0.1
	c0.1,0.1,0.3,0.2,0.4,0.4C123.1,84.6,123.3,84.8,123.5,84.9z"/>
<path id="path26" class="st2" d="M78,36.3c23,0,41.6,18.6,41.6,41.6c0,23-18.6,41.6-41.6,41.6c-23,0-41.6-18.6-41.6-41.6
	C36.3,55,55,36.3,78,36.3z"/>
<path id="path28" class="st3" d="M40.3,77.8c0-0.2-0.1-0.4-0.1-0.7c-0.1-0.3-0.2-0.5-0.2-0.7c0-0.2,0-0.3,0.1-0.4
	c0.1-0.1,0.2-0.1,0.3-0.1c0.1,0,0.2,0,0.3,0.1c0.1,0.1,0.1,0.2,0.1,0.4c0,0.1,0,0.3-0.1,0.6c-0.1,0.3-0.1,0.5-0.2,0.7
	c0.2-0.1,0.3-0.3,0.5-0.4c0.2-0.3,0.4-0.4,0.5-0.5c0.1-0.1,0.2-0.1,0.3-0.1c0.1,0,0.2,0,0.3,0.1c0.1,0.1,0.1,0.2,0.1,0.3
	c0,0.1-0.1,0.2-0.2,0.3c-0.1,0.1-0.4,0.2-0.8,0.3c-0.2,0.1-0.5,0.1-0.6,0.2c0.2,0.1,0.4,0.2,0.6,0.2c0.4,0.1,0.7,0.2,0.8,0.3
	c0.1,0.1,0.2,0.2,0.2,0.4c0,0.1,0,0.2-0.1,0.3c-0.1,0.1-0.2,0.1-0.3,0.1c-0.1,0-0.2,0-0.3-0.1c-0.1-0.1-0.3-0.2-0.5-0.5
	c-0.1-0.2-0.3-0.3-0.5-0.5c0,0.2,0,0.4,0.1,0.6c0.1,0.4,0.2,0.6,0.2,0.8c0,0.1,0,0.2-0.1,0.3C40.6,80,40.5,80,40.4,80
	c-0.1,0-0.2,0-0.3-0.1C40,79.8,40,79.7,40,79.6c0-0.2,0-0.3,0.1-0.6c0.1-0.2,0.1-0.4,0.1-0.5c0-0.1,0-0.2,0.1-0.4
	c-0.2,0.1-0.4,0.3-0.5,0.4c-0.2,0.3-0.4,0.4-0.5,0.5c-0.1,0.1-0.2,0.1-0.3,0.1c-0.1,0-0.2,0-0.3-0.1c-0.1-0.1-0.1-0.2-0.1-0.2
	c0-0.1,0-0.2,0.1-0.3c0.1-0.1,0.2-0.2,0.3-0.2c0.1,0,0.3-0.1,0.6-0.2c0.2,0,0.4-0.1,0.6-0.2c-0.2-0.1-0.4-0.2-0.6-0.2
	c-0.4-0.1-0.6-0.2-0.7-0.2c-0.1-0.1-0.2-0.2-0.2-0.4c0-0.1,0-0.2,0.1-0.2c0.1-0.1,0.2-0.1,0.3-0.1c0.1,0,0.2,0,0.3,0.1
	c0.1,0.1,0.3,0.2,0.4,0.4C39.9,77.6,40.1,77.7,40.3,77.8z"/>
<path id="path30" class="st3" d="M115.2,77.8c0-0.2-0.1-0.4-0.1-0.7c-0.1-0.3-0.2-0.5-0.2-0.7c0-0.2,0-0.3,0.1-0.4
	c0.1-0.1,0.2-0.1,0.3-0.1c0.1,0,0.2,0,0.3,0.1c0.1,0.1,0.1,0.2,0.1,0.4c0,0.1,0,0.3-0.1,0.6c-0.1,0.3-0.1,0.5-0.2,0.7
	c0.2-0.1,0.3-0.3,0.5-0.4c0.2-0.3,0.4-0.4,0.5-0.5c0.1-0.1,0.2-0.1,0.3-0.1c0.1,0,0.2,0,0.3,0.1c0.1,0.1,0.1,0.2,0.1,0.3
	c0,0.1-0.1,0.2-0.2,0.3c-0.1,0.1-0.4,0.2-0.8,0.3c-0.2,0.1-0.5,0.1-0.6,0.2c0.2,0.1,0.4,0.2,0.6,0.2c0.4,0.1,0.7,0.2,0.8,0.3
	c0.1,0.1,0.2,0.2,0.2,0.4c0,0.1,0,0.2-0.1,0.3c-0.1,0.1-0.2,0.1-0.3,0.1c-0.1,0-0.2,0-0.3-0.1c-0.1-0.1-0.3-0.2-0.5-0.5
	c-0.1-0.2-0.3-0.3-0.5-0.5c0,0.2,0,0.4,0.1,0.6c0.1,0.4,0.2,0.6,0.2,0.8c0,0.1,0,0.2-0.1,0.3c-0.1,0.1-0.2,0.1-0.2,0.1
	c-0.1,0-0.2,0-0.3-0.1c-0.1-0.1-0.1-0.2-0.1-0.3c0-0.2,0-0.3,0.1-0.6c0.1-0.2,0.1-0.4,0.1-0.5c0-0.1,0-0.2,0.1-0.4
	c-0.2,0.1-0.4,0.3-0.5,0.4c-0.2,0.3-0.4,0.4-0.5,0.5c-0.1,0.1-0.2,0.1-0.3,0.1c-0.1,0-0.2,0-0.3-0.1c-0.1-0.1-0.1-0.2-0.1-0.2
	c0-0.1,0-0.2,0.1-0.3c0.1-0.1,0.2-0.2,0.3-0.2c0.1,0,0.3-0.1,0.6-0.2c0.2,0,0.4-0.1,0.6-0.2c-0.2-0.1-0.4-0.2-0.6-0.2
	c-0.4-0.1-0.6-0.2-0.7-0.2c-0.1-0.1-0.2-0.2-0.2-0.4c0-0.1,0-0.2,0.1-0.2c0.1-0.1,0.2-0.1,0.3-0.1c0.1,0,0.2,0,0.3,0.1
	c0.1,0.1,0.3,0.2,0.4,0.4C114.9,77.6,115.1,77.7,115.2,77.8L115.2,77.8z"/>
</svg>
