<?xml version="1.0" encoding="utf-8"?>
<!-- Generator: Adobe Illustrator 26.4.1, SVG Export Plug-In . SVG Version: 6.00 Build 0)  -->
<svg version="1.1"
	 id="svg29" xmlns:svg="http://www.w3.org/2000/svg" xmlns:rdf="http://www.w3.org/1999/02/22-rdf-syntax-ns#" xmlns:cc="http://creativecommons.org/ns#" xmlns:dc="http://purl.org/dc/elements/1.1/"
	 xmlns="http://www.w3.org/2000/svg" xmlns:xlink="http://www.w3.org/1999/xlink" x="0px" y="0px" viewBox="0 0 155.9 155.9"
	 style="enable-background:new 0 0 155.9 155.9;" xml:space="preserve">
<style type="text/css">
	.st0{fill:none;stroke:#1B1918;stroke-width:1.4173;}
	.st1{fill:none;stroke:#1B1918;stroke-width:0.5669;}
	.st2{fill-rule:evenodd;clip-rule:evenodd;fill:#1B1918;}
	.st3{fill:#1B1918;}
</style>
<path id="path6" class="st0" d="M78,25.1c29.2,0,52.9,23.7,52.9,52.9c0,29.2-23.7,52.9-52.9,52.9c-29.2,0-52.9-23.7-52.9-52.9
	C25.1,48.8,48.8,25.1,78,25.1z"/>
<path id="path8" class="st1" d="M78,26.6c28.3,0,51.3,23,51.3,51.3c0,28.3-23,51.3-51.3,51.3c-28.3,0-51.3-23-51.3-51.3
	C26.6,49.6,49.6,26.6,78,26.6z"/>
<path id="path10" class="st2" d="M31.9,80.9c-0.8,0-1.4-0.1-1.8-0.4c-0.4-0.3-0.6-0.7-0.7-1.2c0-0.3,0.1-0.6,0.2-0.9
	c0.2-0.3,0.4-0.5,0.8-0.7c0.3-0.2,0.8-0.3,1.2-0.3c0.7,0,1.2,0.1,1.6,0.4c0.5,0.3,0.7,0.7,0.7,1.3c0,0.5-0.2,1-0.7,1.3
	C33,80.7,32.5,80.9,31.9,80.9z M31.9,80.4c0.6,0,1-0.2,1.3-0.4c0.3-0.3,0.4-0.6,0.4-0.9c0-0.4-0.2-0.6-0.5-0.9
	c-0.3-0.2-0.8-0.3-1.4-0.3c-0.4,0-0.7,0.1-1,0.2c-0.2,0.1-0.4,0.3-0.5,0.5C30.1,78.8,30,79,30,79.2c0,0.4,0.2,0.7,0.5,0.9
	C30.8,80.3,31.3,80.4,31.9,80.4z M29.6,76.1l0.2-2.4l0.5,0l-0.1,1.9l1.4,0.1l0.1-0.9c0-0.3,0.1-0.6,0.2-0.8c0.1-0.2,0.2-0.3,0.5-0.4
	c0.2-0.1,0.5-0.1,0.7-0.1c0.3,0,0.5,0.1,0.7,0.2c0.2,0.1,0.3,0.3,0.4,0.5c0.1,0.2,0.1,0.4,0.1,0.8l-0.1,1.4L29.6,76.1z M33.6,76
	l0.1-1c0-0.2,0-0.4-0.1-0.6c-0.1-0.1-0.3-0.2-0.6-0.3c-0.2,0-0.4,0-0.5,0.1c-0.1,0.1-0.2,0.2-0.3,0.3c0,0.1-0.1,0.3-0.1,0.7l0,0.6
	L33.6,76z M29.9,72.1l0.1-0.5l3.9,0.7l0.2-1.2l-3.9-0.7l0.1-0.5l3.9,0.7l0.2-1.2l-3.9-0.7l0.1-0.5l3.9,0.7l0.1-0.3l1.7,0.3l-0.1,0.4
	L35,69.2l-0.7,3.7L29.9,72.1z M35.2,68.1L30.9,67l0.7-2.6l0.5,0.1l-0.5,2.1l1.3,0.3l0.5-2l0.5,0.1l-0.5,2l1.5,0.4l0.6-2.2l0.5,0.1
	L35.2,68.1z M35.5,61.7l0.3-0.4c0.4,0.3,0.7,0.6,0.9,0.9c0.1,0.3,0.2,0.7,0,1.1c-0.1,0.3-0.3,0.6-0.5,0.7c-0.2,0.2-0.6,0.3-0.9,0.3
	c-0.4,0-0.8,0-1.3-0.2c-0.5-0.2-0.8-0.4-1.1-0.6c-0.3-0.3-0.4-0.5-0.5-0.8c-0.1-0.3-0.1-0.6,0-0.9c0.1-0.3,0.3-0.6,0.6-0.8
	c0.3-0.2,0.7-0.2,1.1-0.2l0,0.5c-0.6-0.1-1,0.2-1.2,0.6c-0.1,0.2-0.1,0.5,0,0.7c0.1,0.2,0.2,0.4,0.4,0.6c0.2,0.2,0.5,0.4,0.9,0.5
	c0.6,0.2,1,0.3,1.4,0.1c0.4-0.1,0.6-0.3,0.7-0.7c0.1-0.2,0.1-0.5,0-0.7C36.1,62.1,35.8,61.8,35.5,61.7z M37.9,60.2l-3.6-1.6
	l-0.5,1.1l-0.5-0.2l1.2-2.7L35,57l-0.5,1.1l3.6,1.6L37.9,60.2z M38.9,58L35,55.7l0.7-1.2c0.1-0.2,0.3-0.4,0.4-0.5
	c0.2-0.1,0.3-0.1,0.6-0.1c0.2,0,0.4,0.1,0.6,0.2c0.2,0.1,0.3,0.2,0.4,0.4c0.1,0.2,0.1,0.3,0.2,0.5c0.2-0.1,0.4-0.2,0.6-0.2
	c0.2,0,0.5,0.1,0.7,0.2c0.2,0.1,0.4,0.3,0.5,0.5c0.1,0.2,0.2,0.4,0.2,0.6c0,0.2-0.1,0.5-0.3,0.7L38.9,58z M36.9,56.3l0.4-0.7
	c0.1-0.2,0.2-0.3,0.2-0.4c0-0.1,0-0.3,0-0.4c-0.1-0.1-0.2-0.2-0.3-0.3c-0.1-0.1-0.3-0.1-0.4-0.1c-0.1,0-0.2,0-0.3,0.1
	c-0.1,0.1-0.2,0.2-0.3,0.4l-0.4,0.6L36.9,56.3z M38.6,57.3l0.5-0.8c0.1-0.2,0.2-0.3,0.2-0.4c0-0.1,0-0.3-0.1-0.4
	c-0.1-0.1-0.2-0.2-0.3-0.3c-0.1-0.1-0.3-0.1-0.4-0.1c-0.1,0-0.3,0-0.4,0.1c-0.1,0.1-0.2,0.2-0.3,0.4l-0.4,0.7L38.6,57.3z M38.8,53.8
	c-0.6-0.4-1-0.9-1.2-1.4c-0.2-0.5-0.1-1,0.2-1.4c0.2-0.3,0.4-0.5,0.7-0.6c0.3-0.1,0.6-0.2,1-0.1c0.4,0.1,0.8,0.2,1.2,0.5
	c0.6,0.4,0.9,0.8,1.1,1.3c0.2,0.5,0.2,1-0.1,1.5c-0.3,0.5-0.7,0.7-1.3,0.7C39.8,54.3,39.3,54.1,38.8,53.8z M39,53.4
	c0.5,0.3,0.9,0.4,1.3,0.4c0.4,0,0.7-0.2,0.9-0.5c0.2-0.3,0.2-0.6,0.1-1c-0.1-0.4-0.4-0.7-0.9-1c-0.3-0.2-0.6-0.3-1-0.4
	c-0.2,0-0.5,0-0.7,0.1c-0.2,0.1-0.4,0.2-0.5,0.4c-0.2,0.3-0.2,0.6-0.1,1C38.2,52.7,38.5,53,39,53.4z M44.4,47.3l0.4-0.3
	c0.3,0.4,0.5,0.8,0.5,1.2c0,0.4-0.1,0.7-0.4,1c-0.2,0.3-0.5,0.4-0.8,0.5c-0.3,0.1-0.6,0-1-0.1c-0.4-0.1-0.8-0.4-1.1-0.7
	c-0.4-0.3-0.6-0.7-0.8-1c-0.2-0.3-0.2-0.7-0.2-1c0-0.3,0.2-0.6,0.4-0.8c0.2-0.3,0.5-0.4,0.8-0.5c0.3,0,0.7,0,1.1,0.2l-0.2,0.4
	c-0.6-0.3-1-0.2-1.3,0.1c-0.2,0.2-0.3,0.4-0.3,0.6c0,0.2,0,0.5,0.2,0.7c0.1,0.3,0.3,0.5,0.7,0.8c0.5,0.4,0.9,0.6,1.3,0.7
	c0.4,0,0.7-0.1,0.9-0.3c0.2-0.2,0.3-0.4,0.2-0.7C44.8,47.9,44.7,47.6,44.4,47.3z M45.9,44.8c-0.5-0.6-0.7-1.1-0.8-1.7
	c0-0.5,0.2-1,0.6-1.3c0.2-0.2,0.5-0.3,0.9-0.4c0.3,0,0.7,0,1,0.2c0.3,0.2,0.7,0.4,1,0.8c0.4,0.5,0.7,1,0.7,1.5c0,0.6-0.1,1-0.5,1.4
	c-0.4,0.4-0.9,0.5-1.5,0.3C46.8,45.5,46.3,45.3,45.9,44.8z M46.3,44.5c0.4,0.4,0.7,0.7,1.1,0.7c0.4,0.1,0.7,0,1-0.2
	c0.3-0.2,0.4-0.5,0.4-0.9c0-0.4-0.2-0.8-0.6-1.3c-0.2-0.3-0.5-0.5-0.8-0.7C47.1,42,46.9,42,46.7,42c-0.2,0-0.4,0.1-0.6,0.2
	c-0.3,0.2-0.4,0.5-0.4,0.9C45.7,43.5,45.9,44,46.3,44.5z M47.9,40.2l1.7-1.4l0.3,0.4l-1.4,1.1l2.4,3.1l-0.4,0.3L47.9,40.2z M53,41.9
	l-2.4-3.8l1.2-0.7c0.3-0.2,0.5-0.3,0.7-0.3c0.2,0,0.4,0,0.7,0.1c0.2,0.1,0.4,0.3,0.6,0.6c0.2,0.3,0.3,0.7,0.3,1
	c0,0.3-0.3,0.6-0.7,0.9l-0.8,0.5l1,1.5L53,41.9z M52.1,39.7l0.8-0.5c0.3-0.2,0.4-0.3,0.4-0.5c0-0.2,0-0.4-0.2-0.6
	c-0.1-0.2-0.2-0.3-0.3-0.3c-0.1-0.1-0.2-0.1-0.3-0.1c-0.1,0-0.3,0.1-0.5,0.2l-0.8,0.5L52.1,39.7z M55.6,40.1l-0.7-4.6l0.5-0.2
	l3.3,3.4l-0.5,0.2l-1-1l-1.4,0.7l0.2,1.4L55.6,40.1z M55.7,38l1.1-0.6L56,36.5c-0.3-0.3-0.5-0.5-0.6-0.7c0.1,0.3,0.1,0.6,0.2,0.9
	L55.7,38z M59.2,38.4l-1.8-4.1l0.4-0.2l0.8,1.7l1.7-0.8l-0.8-1.7l0.4-0.2l1.8,4.1l-0.4,0.2l-0.9-1.9l-1.7,0.8l0.9,1.9L59.2,38.4z
	 M61.3,32.6l0.4-0.1l1.2,3.4l0.7-4l0.5-0.2l1.5,4.2l-0.4,0.1l-1.2-3.4l-0.7,4l-0.5,0.2L61.3,32.6z M68.9,35.1l-0.5,0.1L68,33.4
	c-0.4,0.3-0.7,0.5-1.1,0.5c-0.2,0.1-0.5,0-0.7-0.1c-0.2-0.1-0.4-0.2-0.5-0.4c-0.1-0.2-0.2-0.5-0.3-0.8l-0.3-1.3l0.5-0.1l0.3,1.2
	c0.1,0.4,0.2,0.7,0.4,0.9c0.2,0.1,0.4,0.2,0.6,0.1c0.3-0.1,0.7-0.2,1-0.5l-0.5-2.1l0.5-0.1L68.9,35.1z M69.9,34.8l-0.8-4.4l2.6-0.5
	l0.1,0.5l-2.1,0.4l0.3,1.4l2-0.4l0.1,0.5l-2,0.4l0.3,1.5l2.2-0.4l0.1,0.5L69.9,34.8z M73.4,34.3l-0.3-4.5l0.5,0l0.1,1.8l1.9-0.1
	l-0.1-1.8l0.5,0l0.3,4.5l-0.5,0L75.7,32l-1.9,0.1l0.2,2.1L73.4,34.3z M77.3,34l0.2-4.5l0.5,0l-0.1,1.8l1.9,0.1l0.1-1.8l0.5,0
	l-0.2,4.5l-0.5,0l0.1-2.1l-1.9-0.1L77.8,34L77.3,34z M81.3,32c0.1-0.8,0.3-1.3,0.7-1.7c0.4-0.4,0.8-0.5,1.3-0.5
	c0.3,0,0.6,0.2,0.8,0.4c0.2,0.2,0.4,0.5,0.5,0.9c0.1,0.4,0.1,0.8,0.1,1.3c-0.1,0.7-0.3,1.2-0.6,1.6c-0.4,0.4-0.8,0.6-1.4,0.5
	c-0.5-0.1-0.9-0.3-1.2-0.9C81.3,33.1,81.2,32.6,81.3,32z M81.8,32c-0.1,0.5,0,1,0.2,1.3c0.2,0.3,0.5,0.5,0.8,0.6
	c0.4,0,0.7-0.1,0.9-0.4c0.3-0.3,0.4-0.7,0.5-1.3c0-0.4,0-0.7-0.1-1c-0.1-0.2-0.2-0.4-0.4-0.6c-0.2-0.2-0.4-0.3-0.6-0.3
	c-0.4,0-0.7,0.1-1,0.4C82,30.9,81.9,31.4,81.8,32z M86.2,30.2l0.4,0.1l-0.7,3.5l2.6-3.1l0.5,0.1l-0.8,4.4l-0.4-0.1l0.7-3.5l-2.6,3.1
	l-0.5-0.1L86.2,30.2z M88.3,29.5l0.3,0.1c-0.1,0.3-0.2,0.4-0.3,0.5c-0.2,0.1-0.3,0.1-0.5,0.1c-0.2,0-0.4-0.1-0.5-0.3
	c-0.1-0.2-0.1-0.4-0.1-0.6l0.3,0.1c0,0.3,0.1,0.4,0.3,0.5c0.1,0,0.2,0,0.3,0C88.2,29.7,88.2,29.6,88.3,29.5z M91.1,33.6
	c0.3-0.7,0.6-1.2,1.1-1.5c0.5-0.3,0.9-0.3,1.4-0.2c0.3,0.1,0.6,0.3,0.7,0.6c0.2,0.3,0.3,0.6,0.3,1c0,0.4,0,0.8-0.2,1.3
	c-0.2,0.6-0.5,1.1-1,1.4c-0.5,0.3-1,0.4-1.5,0.2c-0.5-0.2-0.8-0.5-1-1.1C90.8,34.7,90.9,34.2,91.1,33.6z M91.5,33.8
	c-0.2,0.5-0.2,1-0.1,1.3c0.1,0.4,0.4,0.6,0.7,0.7c0.3,0.1,0.7,0.1,1-0.1c0.3-0.2,0.6-0.6,0.8-1.2c0.1-0.4,0.2-0.7,0.2-1
	c0-0.2-0.1-0.5-0.2-0.7c-0.1-0.2-0.3-0.3-0.5-0.4c-0.3-0.1-0.7-0.1-1,0.1C92,32.8,91.7,33.2,91.5,33.8z M95.2,37.5l1.6-3.6l-1.1-0.5
	l0.2-0.5l2.7,1.2l-0.2,0.5l-1.1-0.5l-1.6,3.6L95.2,37.5z M97.4,38.5l2-4l1.2,0.6c0.3,0.1,0.4,0.3,0.5,0.4c0.1,0.2,0.2,0.3,0.2,0.5
	c0,0.2,0,0.4-0.1,0.6c-0.1,0.2-0.2,0.3-0.4,0.4c-0.2,0.1-0.3,0.2-0.5,0.2c0.2,0.2,0.2,0.4,0.3,0.6s0,0.5-0.1,0.7
	c-0.1,0.2-0.3,0.4-0.5,0.6c-0.2,0.1-0.4,0.2-0.6,0.2c-0.2,0-0.5-0.1-0.7-0.2L97.4,38.5z M99,36.4l0.7,0.4c0.2,0.1,0.3,0.1,0.4,0.2
	c0.1,0,0.3,0,0.4-0.1c0.1-0.1,0.2-0.2,0.3-0.3c0.1-0.1,0.1-0.3,0.1-0.4c0-0.1,0-0.2-0.1-0.3c-0.1-0.1-0.2-0.2-0.5-0.3l-0.7-0.3
	L99,36.4z M98.1,38.2l0.8,0.4c0.2,0.1,0.3,0.1,0.4,0.1c0.1,0,0.3,0,0.4-0.1c0.1-0.1,0.2-0.2,0.3-0.4c0.1-0.2,0.1-0.3,0.1-0.4
	c0-0.1-0.1-0.3-0.1-0.4c-0.1-0.1-0.2-0.2-0.5-0.3l-0.8-0.4L98.1,38.2z M100.6,40.1l2.4-3.8l2.2,1.4l-0.3,0.4l-1.8-1.2l-0.7,1.2
	l1.7,1.1l-0.3,0.4l-1.7-1.1l-0.8,1.3l1.9,1.2l-0.3,0.4L100.6,40.1z M104.3,42.6l2.3-3.2l-1-0.7l0.3-0.4l2.4,1.7l-0.3,0.4l-1-0.7
	l-2.3,3.2L104.3,42.6z M109.2,44.7l0.3,0.4c-0.4,0.3-0.8,0.5-1.2,0.5c-0.4,0-0.7-0.1-1-0.4c-0.3-0.2-0.4-0.5-0.5-0.8
	c-0.1-0.3,0-0.6,0.1-1c0.1-0.4,0.4-0.8,0.7-1.1c0.3-0.4,0.7-0.6,1-0.8c0.3-0.2,0.7-0.2,1-0.2c0.3,0,0.6,0.2,0.8,0.4
	c0.3,0.2,0.4,0.5,0.5,0.8c0,0.3,0,0.7-0.2,1.1l-0.4-0.2c0.3-0.6,0.2-1-0.1-1.3c-0.2-0.2-0.4-0.3-0.6-0.3c-0.2,0-0.5,0-0.7,0.2
	c-0.3,0.1-0.5,0.3-0.8,0.7c-0.4,0.5-0.6,0.9-0.7,1.3c0,0.4,0.1,0.7,0.3,0.9c0.2,0.2,0.4,0.3,0.7,0.2C108.6,45,108.9,44.9,109.2,44.7
	z M109.8,47.4l2.8-2.7l-0.8-0.9l0.4-0.4l2,2.1l-0.4,0.4L113,45l-2.8,2.7L109.8,47.4z M111.3,49.1l3.4-2.9l0.9,1.1
	c0.2,0.2,0.3,0.4,0.3,0.6c0,0.2,0,0.4,0,0.6c-0.1,0.2-0.2,0.4-0.4,0.5c-0.2,0.1-0.3,0.2-0.5,0.3c-0.2,0-0.4,0-0.5,0
	c0.1,0.2,0.1,0.4,0,0.6c-0.1,0.2-0.2,0.4-0.4,0.6c-0.2,0.2-0.4,0.3-0.7,0.3c-0.2,0-0.4,0-0.6,0c-0.2-0.1-0.4-0.2-0.6-0.5L111.3,49.1
	z M113.6,47.8l0.5,0.6c0.1,0.2,0.2,0.3,0.3,0.3c0.1,0.1,0.2,0.1,0.4,0.1c0.1,0,0.2-0.1,0.4-0.2c0.1-0.1,0.2-0.2,0.2-0.3
	c0-0.1,0-0.2,0-0.3c0-0.1-0.1-0.3-0.3-0.5l-0.5-0.6L113.6,47.8z M112,49.1l0.6,0.7c0.1,0.2,0.2,0.3,0.3,0.3c0.1,0.1,0.3,0.1,0.4,0.1
	c0.1,0,0.3-0.1,0.4-0.2c0.1-0.1,0.2-0.2,0.3-0.4c0-0.1,0.1-0.3,0-0.4c0-0.1-0.1-0.3-0.3-0.5l-0.5-0.6L112,49.1z M113.6,51.9l3.7-2.6
	l1.5,2.2l-0.4,0.3l-1.2-1.8l-1.1,0.8l1.2,1.7l-0.4,0.3l-1.2-1.7l-1.2,0.9l1.3,1.8l-0.4,0.3L113.6,51.9z M115.6,54.8l3.9-2.3l0.2,0.4
	l-1.6,0.9l1,1.6l1.6-0.9l0.2,0.4l-3.9,2.3l-0.2-0.4l1.8-1.1l-1-1.6l-1.8,1.1L115.6,54.8z M117.5,58.2l4.1-1.8l0.2,0.4l-1.7,0.8
	l0.8,1.7l1.7-0.8l0.2,0.4l-4.1,1.8l-0.2-0.4l1.9-0.9l-0.8-1.7l-1.9,0.9L117.5,58.2z M121.2,60.9c0.7-0.2,1.3-0.3,1.8-0.1
	c0.5,0.2,0.8,0.5,1,1c0.1,0.3,0.1,0.6,0,0.9c-0.1,0.3-0.3,0.6-0.5,0.9c-0.3,0.3-0.6,0.5-1.1,0.6c-0.6,0.2-1.2,0.2-1.7,0.1
	c-0.5-0.2-0.9-0.5-1.1-1c-0.2-0.5-0.1-1,0.2-1.5C120.2,61.4,120.6,61.1,121.2,60.9z M121.4,61.4c-0.5,0.2-0.9,0.4-1.1,0.8
	c-0.2,0.3-0.3,0.7-0.1,1c0.1,0.3,0.4,0.6,0.7,0.7c0.4,0.1,0.8,0.1,1.4-0.1c0.4-0.1,0.7-0.3,0.9-0.5c0.2-0.2,0.3-0.4,0.4-0.6
	c0.1-0.2,0.1-0.4,0-0.7c-0.1-0.3-0.4-0.6-0.7-0.7C122.5,61.2,122,61.2,121.4,61.4L121.4,61.4z M122.7,67.8l0,0.5
	c-0.5,0-0.9-0.1-1.2-0.2c-0.3-0.2-0.5-0.5-0.6-0.9c-0.1-0.3-0.1-0.6,0-0.9c0.1-0.3,0.3-0.5,0.6-0.8c0.3-0.2,0.7-0.4,1.2-0.6
	c0.5-0.1,0.9-0.2,1.3-0.1c0.4,0.1,0.7,0.2,0.9,0.4c0.2,0.2,0.4,0.5,0.5,0.8c0.1,0.3,0.1,0.7-0.1,1c-0.1,0.3-0.4,0.6-0.8,0.8
	l-0.3-0.4c0.6-0.3,0.8-0.7,0.6-1.2c-0.1-0.2-0.2-0.4-0.3-0.6c-0.2-0.1-0.4-0.2-0.7-0.3c-0.3,0-0.6,0-1,0.1c-0.6,0.2-1,0.4-1.2,0.7
	c-0.2,0.3-0.3,0.6-0.2,1c0.1,0.3,0.2,0.5,0.5,0.6C122,67.8,122.3,67.8,122.7,67.8L122.7,67.8z M121.6,70.4l3.9-0.7l-0.2-1.2l0.5-0.1
	l0.5,2.9l-0.5,0.1l-0.2-1.2l-3.9,0.7L121.6,70.4z M126.4,72.4l0,0.5l-1.9,0.1l0.1,0.9c0,0.3,0,0.6-0.1,0.8c-0.1,0.2-0.2,0.4-0.4,0.5
	c-0.2,0.1-0.4,0.2-0.7,0.2c-0.3,0-0.7,0-0.9-0.2c-0.3-0.2-0.4-0.5-0.5-1l-0.1-1.4L126.4,72.4z M122.5,73.2l0.1,0.9
	c0,0.3,0.1,0.5,0.2,0.6c0.1,0.1,0.3,0.2,0.6,0.2c0.2,0,0.3-0.1,0.4-0.2c0.1-0.1,0.2-0.2,0.2-0.3c0-0.1,0-0.4,0-0.7l0-0.6L122.5,73.2
	z M126.9,76.4l0,0.5l-2-0.1l0,0.7c0.6,0.1,1.1,0.2,1.5,0.6c0.4,0.3,0.5,0.7,0.5,1.2c0,0.5-0.2,0.8-0.6,1.2c-0.4,0.3-1,0.4-1.7,0.4
	c-0.7,0-1.3-0.2-1.7-0.5c-0.4-0.3-0.6-0.7-0.6-1.2c0-0.5,0.2-0.9,0.6-1.1c0.4-0.3,0.9-0.4,1.5-0.4l0-0.7l-1.9-0.1l0-0.5L126.9,76.4z
	 M124.6,78c-0.6,0-1,0.1-1.3,0.3c-0.3,0.2-0.5,0.5-0.5,0.8c0,0.4,0.1,0.6,0.4,0.9c0.3,0.2,0.8,0.3,1.3,0.4c0.6,0,1-0.1,1.3-0.3
	c0.3-0.2,0.5-0.5,0.5-0.8c0-0.4-0.1-0.6-0.4-0.9C125.6,78.2,125.1,78,124.6,78z"/>
<path id="path12" class="st2" d="M30.7,90l4.1-1.2l0.4,1.6c0.1,0.3,0.1,0.5,0.1,0.6c0,0.2,0,0.4,0,0.6c-0.1,0.2-0.2,0.3-0.3,0.4
	c-0.1,0.1-0.3,0.2-0.5,0.3c-0.4,0.1-0.7,0.1-1-0.1c-0.3-0.2-0.5-0.5-0.7-1.1l-0.3-1.1l-1.7,0.5L30.7,90z M33,90l0.3,1.1
	c0.1,0.4,0.2,0.6,0.4,0.7c0.2,0.1,0.4,0.1,0.6,0.1c0.2,0,0.3-0.1,0.4-0.3c0.1-0.1,0.1-0.3,0.1-0.4c0-0.1,0-0.3-0.1-0.5l-0.3-1.1
	L33,90z M33.7,92.8c0.7-0.3,1.3-0.3,1.8-0.1c0.5,0.2,0.9,0.6,1.1,1.2c0.1,0.4,0.2,0.7,0.1,1.1c-0.1,0.4-0.2,0.7-0.5,1
	c-0.3,0.3-0.6,0.5-1,0.7c-0.4,0.2-0.8,0.2-1.2,0.2c-0.4,0-0.7-0.2-1-0.4c-0.3-0.2-0.5-0.5-0.6-0.9c-0.1-0.4-0.2-0.7-0.1-1.1
	c0.1-0.4,0.2-0.7,0.5-1C33,93.2,33.3,93,33.7,92.8z M33.9,93.4c-0.5,0.2-0.8,0.5-1,0.8c-0.2,0.4-0.2,0.7,0,1.1
	c0.2,0.4,0.4,0.7,0.8,0.8c0.4,0.1,0.8,0.1,1.3-0.1c0.3-0.1,0.6-0.3,0.8-0.5c0.2-0.2,0.3-0.4,0.4-0.7c0-0.3,0-0.5-0.1-0.8
	c-0.1-0.4-0.4-0.6-0.8-0.8C34.9,93.1,34.5,93.1,33.9,93.4z M36.2,100.1l0.1,0.6c-0.5,0.1-0.9,0.1-1.2-0.1c-0.4-0.2-0.6-0.4-0.8-0.8
	C34.1,99.4,34,99,34,98.7c0-0.3,0.2-0.7,0.4-1c0.2-0.3,0.6-0.5,0.9-0.7c0.4-0.2,0.8-0.3,1.2-0.3c0.4,0,0.7,0.1,1,0.3
	c0.3,0.2,0.5,0.5,0.7,0.8c0.2,0.4,0.3,0.8,0.2,1.1c-0.1,0.4-0.2,0.7-0.5,1l-0.4-0.4c0.2-0.2,0.4-0.5,0.4-0.7c0-0.2,0-0.5-0.1-0.7
	c-0.2-0.3-0.3-0.5-0.6-0.6c-0.2-0.1-0.5-0.2-0.8-0.1c-0.3,0-0.5,0.1-0.8,0.3c-0.3,0.2-0.6,0.4-0.8,0.6c-0.2,0.2-0.3,0.5-0.3,0.7
	c0,0.3,0,0.5,0.2,0.7c0.1,0.3,0.4,0.5,0.6,0.6C35.6,100.2,35.9,100.2,36.2,100.1z M38.4,103.7l0.2,0.6c-0.5,0.2-0.9,0.2-1.2,0
	c-0.4-0.1-0.7-0.4-0.9-0.8c-0.2-0.4-0.4-0.8-0.4-1.1c0-0.3,0.1-0.7,0.3-1c0.2-0.3,0.5-0.6,0.8-0.8c0.4-0.2,0.8-0.4,1.1-0.4
	c0.4,0,0.7,0,1,0.2c0.3,0.2,0.6,0.4,0.8,0.7c0.2,0.4,0.3,0.7,0.3,1.1c0,0.4-0.2,0.7-0.4,1l-0.4-0.4c0.2-0.3,0.3-0.5,0.3-0.7
	c0-0.2-0.1-0.5-0.2-0.7c-0.2-0.3-0.4-0.5-0.6-0.6c-0.3-0.1-0.5-0.1-0.8,0c-0.3,0.1-0.5,0.2-0.8,0.3c-0.3,0.2-0.5,0.4-0.7,0.7
	c-0.2,0.2-0.3,0.5-0.2,0.7c0,0.3,0.1,0.5,0.2,0.7c0.2,0.3,0.4,0.4,0.7,0.5C37.7,103.9,38,103.9,38.4,103.7z M41.3,103.1l0.3,0.4
	l-2.8,2l4.1-0.1l0.3,0.5l-3.5,2.5l-0.3-0.4l2.8-2l-4.1,0.1l-0.3-0.5L41.3,103.1z M43.7,106.2l0.3,0.4l-2.6,2.2l4.1-0.5l0.4,0.4
	l-3.2,2.8l-0.3-0.4l2.6-2.2l-4.1,0.5l-0.4-0.4L43.7,106.2z M45.8,107.2l0.2,0.3c-0.2,0.1-0.4,0.2-0.6,0.2c-0.2,0-0.4-0.1-0.5-0.3
	c-0.2-0.2-0.2-0.4-0.2-0.6c0-0.2,0.1-0.4,0.3-0.6l0.2,0.3c-0.1,0.1-0.1,0.2-0.1,0.3c0,0.1,0,0.2,0.1,0.3c0.1,0.1,0.2,0.2,0.3,0.2
	C45.6,107.3,45.7,107.3,45.8,107.2z M46.6,113.3l0.3,0.5c-0.4,0.3-0.8,0.4-1.2,0.3c-0.4,0-0.8-0.2-1.1-0.5c-0.3-0.3-0.5-0.6-0.6-1
	c-0.1-0.3-0.1-0.7,0.1-1c0.1-0.4,0.3-0.7,0.6-1c0.3-0.3,0.6-0.5,1-0.7c0.4-0.1,0.7-0.1,1.1,0c0.3,0.1,0.7,0.3,0.9,0.5
	c0.3,0.3,0.5,0.6,0.6,1c0.1,0.4,0,0.7-0.2,1.1l-0.5-0.3c0.1-0.3,0.2-0.6,0.2-0.8c0-0.2-0.2-0.4-0.4-0.6c-0.2-0.2-0.5-0.4-0.8-0.4
	c-0.3,0-0.5,0-0.8,0.1c-0.2,0.1-0.5,0.3-0.7,0.5c-0.3,0.3-0.4,0.5-0.5,0.8c-0.1,0.3-0.1,0.5-0.1,0.8c0.1,0.3,0.2,0.5,0.4,0.6
	c0.2,0.2,0.5,0.3,0.8,0.4C46,113.6,46.3,113.5,46.6,113.3z M49.2,111.8l0.4,0.4l-1.2,1.5c0.2,0.2,0.4,0.2,0.5,0.2
	c0.1,0,0.4-0.1,0.8-0.3c0.3-0.1,0.5-0.2,0.6-0.3c0.1,0,0.3-0.1,0.4,0c0.2,0,0.3,0.1,0.4,0.2c0.2,0.1,0.3,0.2,0.3,0.2l-0.3,0.4
	c0,0,0,0-0.1-0.1c0,0-0.1-0.1-0.1-0.1c-0.1-0.1-0.3-0.2-0.4-0.1c-0.1,0-0.3,0.1-0.6,0.3c-0.3,0.2-0.6,0.3-0.7,0.3
	c-0.1,0-0.3,0-0.4,0c0.2,0.2,0.2,0.6,0.2,1.1l-0.2,1.7l-0.6-0.4l0.2-1.4c0-0.4,0.1-0.7,0-0.8c0-0.2-0.1-0.3-0.3-0.5l-1.2,1.6
	l-0.4-0.4L49.2,111.8z M48.9,117.1l3.8-2.5l0.5,0.4l-1.1,4.5l-0.5-0.4l0.3-1.3l-1.5-1l-1.1,0.8L48.9,117.1z M50.9,116.3l1.2,0.8
	l0.3-1.2c0.1-0.4,0.2-0.7,0.3-0.9c-0.2,0.2-0.4,0.4-0.7,0.5L50.9,116.3z M55.5,121.3l2.1-3.7l-1.7-0.9c-0.3-0.2-0.6-0.3-0.8-0.3
	c-0.2,0-0.4,0-0.6,0.1c-0.2,0.1-0.4,0.3-0.5,0.5c-0.2,0.3-0.2,0.5-0.1,0.8c0.1,0.3,0.3,0.5,0.6,0.8c-0.2,0-0.3,0-0.4,0
	c-0.2,0-0.5,0.1-0.7,0.3l-1.2,0.6l0.6,0.4l0.9-0.5c0.3-0.1,0.5-0.2,0.6-0.3c0.2-0.1,0.3-0.1,0.4-0.1c0.1,0,0.2,0,0.3,0
	c0.1,0,0.2,0.1,0.3,0.1l0.6,0.3L55,121L55.5,121.3z M56.2,118.9l-1.1-0.6c-0.2-0.1-0.4-0.3-0.5-0.4c-0.1-0.1-0.2-0.2-0.2-0.4
	c0-0.1,0-0.3,0.1-0.4c0.1-0.2,0.2-0.3,0.4-0.3c0.2,0,0.4,0,0.7,0.2l1.2,0.7L56.2,118.9z M60.7,119.5l0.2-0.5l0.5,0.2l-0.2,0.5
	c0.5,0.2,0.8,0.5,1,0.9c0.2,0.4,0.2,0.8,0,1.2c-0.2,0.4-0.4,0.7-0.8,0.9c-0.4,0.2-0.9,0.2-1.4,0l-0.2,0.5l-0.5-0.2l0.2-0.5
	c-0.5-0.2-0.8-0.5-1-0.9c-0.2-0.4-0.2-0.8-0.1-1.3c0.2-0.4,0.5-0.7,0.9-0.9C59.7,119.3,60.2,119.3,60.7,119.5L60.7,119.5z M61,120.1
	l-0.8,2.1c0.3,0.1,0.7,0.1,0.9,0c0.3-0.1,0.5-0.3,0.6-0.6c0.1-0.3,0.1-0.6,0-0.9C61.6,120.5,61.3,120.3,61,120.1z M60.5,119.9
	c-0.3-0.1-0.6-0.1-0.9,0c-0.3,0.1-0.5,0.3-0.6,0.6c-0.1,0.3-0.1,0.6,0,0.9c0.1,0.3,0.4,0.5,0.7,0.6L60.5,119.9z M62.1,124.1l1.2-4.1
	l3,0.9l-0.1,0.5l-2.4-0.7l-0.4,1.3l2.3,0.7l-0.1,0.5l-2.3-0.7l-0.4,1.4l2.5,0.7l-0.1,0.5L62.1,124.1z M67.3,121.1l2.5,0.6l-0.8,3.7
	l0.4,0.1l-0.3,1.5l-0.5-0.1l0.2-1l-2.8-0.6l-0.2,1l-0.5-0.1l0.3-1.5l0.3,0.1c0.5-0.4,0.9-1.4,1.2-3L67.3,121.1z M69.2,122.1
	l-1.5-0.3l0,0.2c-0.1,0.4-0.2,0.8-0.4,1.4c-0.2,0.6-0.4,1.1-0.7,1.4l1.9,0.4L69.2,122.1z M69.9,126.1l0.6-4.3l3.1,0.4l-0.1,0.5
	l-2.5-0.3l-0.2,1.3l2.3,0.3l-0.1,0.5l-2.3-0.3l-0.2,1.5l2.6,0.3l-0.1,0.5L69.9,126.1z M73.9,126.5l0.3-4.3l1.6,0.1
	c0.3,0,0.5,0.1,0.6,0.1c0.2,0.1,0.4,0.1,0.5,0.2c0.1,0.1,0.2,0.3,0.3,0.4c0.1,0.2,0.1,0.4,0.1,0.6c0,0.4-0.2,0.7-0.4,0.9
	c-0.3,0.2-0.7,0.3-1.3,0.3l-1.1-0.1l-0.1,1.7L73.9,126.5z M74.6,124.3l1.1,0.1c0.4,0,0.6,0,0.8-0.1c0.2-0.1,0.3-0.3,0.3-0.6
	c0-0.2,0-0.3-0.1-0.5c-0.1-0.1-0.2-0.2-0.3-0.3c-0.1,0-0.3-0.1-0.5-0.1l-1.1-0.1L74.6,124.3z M77,126.7l1.6-4.3l0.6,0l1.8,4.3
	l-0.6,0l-0.5-1.3l-1.8,0l-0.4,1.3L77,126.7z M78.2,124.9l1.5,0l-0.5-1.2c-0.1-0.4-0.3-0.7-0.3-0.9c-0.1,0.3-0.1,0.6-0.2,0.8
	L78.2,124.9z M80.9,122.4l0.6-0.1l0.5,3.8l2.2-0.3l-0.5-3.8l0.6-0.1l0.5,3.8l0.4-0.1l0.2,1.7l-0.5,0.1l-0.2-1.2l-3.2,0.4L80.9,122.4
	z M85.2,121.8l0.5-0.1l0.6,3.4l1.7-3.7l0.6-0.1l0.7,4.2l-0.5,0.1l-0.6-3.3l-1.7,3.7l-0.6,0.1L85.2,121.8z M93.4,124.2l-1.2-4.1
	l-1.8,0.5c-0.4,0.1-0.6,0.2-0.8,0.4c-0.2,0.1-0.3,0.3-0.3,0.5c-0.1,0.2-0.1,0.4,0,0.7c0.1,0.3,0.2,0.5,0.5,0.7
	c0.2,0.1,0.6,0.2,1,0.1c-0.1,0.1-0.2,0.2-0.3,0.3c-0.1,0.2-0.2,0.4-0.3,0.7l-0.4,1.3l0.7-0.2l0.3-1c0.1-0.3,0.2-0.5,0.2-0.7
	c0.1-0.2,0.1-0.3,0.2-0.4c0.1-0.1,0.1-0.1,0.2-0.2c0.1,0,0.2-0.1,0.3-0.1l0.6-0.2l0.5,1.8L93.4,124.2z M92.2,122.1l-1.2,0.3
	c-0.2,0.1-0.5,0.1-0.6,0.1c-0.2,0-0.3-0.1-0.4-0.2c-0.1-0.1-0.2-0.2-0.2-0.3c-0.1-0.2,0-0.4,0.1-0.5c0.1-0.2,0.3-0.3,0.6-0.4
	l1.3-0.4L92.2,122.1z M94.2,119.3l2.6-1l0.2,0.5l-2.1,0.8l1.4,3.5l-0.5,0.2L94.2,119.3z M97.4,120.4c-0.3-0.6-0.4-1.2-0.3-1.7
	c0.2-0.5,0.5-0.9,1-1.2c0.4-0.2,0.7-0.3,1.1-0.2c0.4,0,0.7,0.1,1,0.4c0.3,0.2,0.6,0.5,0.8,0.9c0.2,0.4,0.3,0.8,0.3,1.2
	c0,0.4-0.1,0.7-0.3,1c-0.2,0.3-0.5,0.5-0.8,0.7c-0.4,0.2-0.7,0.3-1.1,0.2c-0.4,0-0.7-0.2-1-0.4C97.8,121,97.6,120.8,97.4,120.4z
	 M97.9,120.2c0.2,0.5,0.5,0.8,0.9,0.9c0.4,0.1,0.8,0.1,1.1-0.1c0.4-0.2,0.6-0.5,0.7-0.9c0.1-0.4,0-0.8-0.2-1.3
	c-0.2-0.3-0.4-0.6-0.6-0.7c-0.2-0.2-0.5-0.3-0.7-0.3c-0.3,0-0.5,0-0.8,0.2c-0.4,0.2-0.6,0.5-0.7,0.8
	C97.5,119.1,97.6,119.6,97.9,120.2z M102.6,120l-2.3-3.6l1.4-0.9c0.2-0.2,0.4-0.3,0.6-0.3c0.2-0.1,0.4-0.1,0.6-0.1
	c0.2,0,0.3,0.1,0.5,0.2c0.2,0.1,0.3,0.2,0.4,0.4c0.2,0.3,0.3,0.6,0.2,1c-0.1,0.3-0.3,0.7-0.9,1l-0.9,0.6l0.9,1.5L102.6,120z
	 M101.9,117.8l0.9-0.6c0.3-0.2,0.5-0.4,0.5-0.6c0.1-0.2,0-0.4-0.1-0.6c-0.1-0.2-0.2-0.3-0.4-0.3c-0.1-0.1-0.3-0.1-0.4,0
	c-0.1,0-0.2,0.1-0.5,0.3l-0.9,0.6L101.9,117.8z M104.5,116.4c-0.4-0.6-0.6-1.1-0.6-1.7c0.1-0.6,0.3-1,0.8-1.4c0.3-0.2,0.7-0.4,1-0.4
	c0.4,0,0.7,0,1.1,0.2c0.3,0.2,0.6,0.4,0.9,0.8c0.3,0.3,0.4,0.7,0.5,1.1c0.1,0.4,0,0.7-0.1,1.1c-0.1,0.3-0.4,0.6-0.7,0.9
	c-0.3,0.2-0.7,0.4-1,0.4c-0.4,0-0.7,0-1.1-0.2C105,117,104.7,116.7,104.5,116.4z M104.9,116.1c0.3,0.4,0.7,0.6,1.1,0.7
	c0.4,0.1,0.8,0,1.1-0.3c0.3-0.3,0.5-0.6,0.6-1c0-0.4-0.1-0.8-0.5-1.3c-0.2-0.3-0.5-0.5-0.7-0.6c-0.3-0.1-0.5-0.2-0.8-0.2
	c-0.3,0-0.5,0.1-0.7,0.3c-0.3,0.2-0.5,0.6-0.6,1C104.4,115.1,104.6,115.6,104.9,116.1z M106.9,111.6l2-1.7l2.5,2.9l0.3-0.3l1,1.1
	l-0.4,0.3l-0.7-0.8l-2.1,1.9l0.7,0.8l-0.4,0.3l-1-1.1l0.2-0.2c-0.1-0.6-0.6-1.5-1.7-2.7L106.9,111.6z M108.8,110.7l-1.1,1l0.1,0.2
	c0.2,0.3,0.5,0.7,0.9,1.2c0.4,0.5,0.6,1,0.7,1.4l1.5-1.3L108.8,110.7z M113.6,111.2l-3.2-2.8l0.6-0.6l3,1.2c0.3,0.1,0.5,0.2,0.6,0.3
	c-0.1-0.1-0.2-0.3-0.4-0.6l-1.6-2.7l0.5-0.6l3.2,2.8l-0.4,0.4l-2.7-2.4l1.9,3.3l-0.3,0.4l-3.6-1.5l2.8,2.4L113.6,111.2z M115,106.3
	c-0.6-0.4-0.9-0.9-1-1.4c-0.1-0.5,0-1.1,0.4-1.6c0.2-0.3,0.5-0.6,0.9-0.7c0.3-0.2,0.7-0.2,1.1-0.1c0.4,0.1,0.7,0.2,1.1,0.5
	c0.4,0.3,0.6,0.5,0.8,0.9c0.2,0.3,0.2,0.7,0.2,1.1c0,0.4-0.2,0.7-0.4,1c-0.2,0.3-0.5,0.6-0.9,0.7c-0.3,0.1-0.7,0.2-1.1,0.1
	C115.7,106.7,115.3,106.5,115,106.3z M115.4,105.8c0.4,0.3,0.8,0.4,1.2,0.4c0.4-0.1,0.7-0.3,1-0.6c0.2-0.3,0.3-0.7,0.2-1.1
	c-0.1-0.4-0.4-0.8-0.8-1.1c-0.3-0.2-0.6-0.3-0.8-0.4c-0.3-0.1-0.5,0-0.8,0.1c-0.2,0.1-0.5,0.3-0.6,0.5c-0.2,0.3-0.3,0.7-0.3,1.1
	C114.6,105.1,114.9,105.5,115.4,105.8z M119.7,100.1l0.4-0.4c0.3,0.3,0.5,0.7,0.6,1.1c0.1,0.4,0,0.8-0.2,1.2
	c-0.2,0.4-0.5,0.7-0.8,0.8c-0.3,0.2-0.7,0.2-1,0.2c-0.4,0-0.8-0.2-1.1-0.4c-0.4-0.2-0.7-0.5-0.9-0.8c-0.2-0.3-0.3-0.7-0.3-1
	c0-0.4,0.1-0.7,0.3-1c0.2-0.4,0.5-0.6,0.8-0.8c0.3-0.1,0.7-0.2,1.1-0.1l-0.2,0.5c-0.3-0.1-0.6-0.1-0.8,0c-0.2,0.1-0.4,0.3-0.5,0.5
	c-0.2,0.3-0.2,0.6-0.2,0.8c0,0.3,0.1,0.5,0.3,0.7c0.2,0.2,0.4,0.4,0.6,0.5c0.3,0.2,0.6,0.3,0.9,0.3c0.3,0,0.5,0,0.8-0.1
	c0.2-0.1,0.4-0.3,0.5-0.5c0.2-0.3,0.2-0.6,0.2-0.8C120.1,100.6,120,100.4,119.7,100.1L119.7,100.1z M117.7,98l0.2-0.5l1.7,0.8
	c0.1-0.2,0.1-0.4,0.1-0.6c0-0.1-0.2-0.4-0.5-0.7c-0.2-0.2-0.3-0.4-0.4-0.5c-0.1-0.1-0.1-0.3-0.1-0.4c0-0.2,0-0.3,0.1-0.5
	c0.1-0.2,0.1-0.3,0.1-0.3l0.4,0.2c0,0,0,0.1,0,0.1c0,0.1,0,0.1-0.1,0.1c-0.1,0.2-0.1,0.3,0,0.4c0,0.1,0.2,0.3,0.4,0.5
	c0.3,0.3,0.4,0.5,0.5,0.6c0,0.1,0.1,0.3,0.1,0.4c0.2-0.2,0.5-0.4,1-0.4l1.7-0.2l-0.3,0.6l-1.4,0.2c-0.4,0-0.6,0.1-0.8,0.2
	c-0.2,0.1-0.3,0.2-0.4,0.4l1.8,0.8l-0.2,0.5L117.7,98z M123,96.6l-4-1.6l0.6-1.5c0.1-0.3,0.3-0.5,0.4-0.7c0.2-0.2,0.3-0.2,0.5-0.3
	c0.2,0,0.4,0,0.6,0c0.2,0.1,0.3,0.2,0.4,0.3c0.1,0.2,0.2,0.3,0.2,0.6c0.2-0.2,0.4-0.4,0.6-0.4c0.2-0.1,0.4,0,0.7,0
	c0.2,0.1,0.3,0.2,0.5,0.3c0.1,0.1,0.2,0.3,0.3,0.4c0,0.2,0.1,0.3,0,0.5c0,0.2-0.1,0.4-0.2,0.7L123,96.6z M120.9,95.1l0.3-0.9
	c0.1-0.2,0.1-0.4,0.2-0.5c0-0.2,0-0.3-0.1-0.4c-0.1-0.1-0.2-0.2-0.3-0.2c-0.1-0.1-0.3-0.1-0.4,0c-0.1,0-0.2,0.1-0.3,0.2
	c-0.1,0.1-0.2,0.3-0.3,0.6l-0.3,0.8L120.9,95.1z M122.7,95.9l0.4-1c0.1-0.2,0.1-0.3,0.1-0.4c0-0.1,0-0.2,0-0.3
	c0-0.1-0.1-0.2-0.1-0.3c-0.1-0.1-0.2-0.2-0.3-0.2c-0.1-0.1-0.3-0.1-0.4,0c-0.1,0-0.3,0.1-0.4,0.2c-0.1,0.1-0.2,0.3-0.3,0.6l-0.4,0.9
	L122.7,95.9z M124.2,93.5l-3.7-2.8l0.2-0.6l4.6-0.5l-0.2,0.6l-1.4,0.1l-0.5,1.7l1.1,0.8L124.2,93.5z M122.9,91.8l0.4-1.4l-1.3,0.1
	c-0.4,0-0.7,0-0.9,0c0.3,0.1,0.5,0.3,0.7,0.5L122.9,91.8z"/>
<path id="path14" class="st2" d="M50.5,76.2l-0.6,2l0.6,2H50l-1-2l1-2H50.5z M48.9,76.2l-0.6,2l0.6,2h-0.6l-1-2l1-2H48.9z
	 M55.2,81.9c-1.1,0-2-0.5-2.7-1.4c-0.6-0.9-1-2.1-1-3.5c0-1.4,0.3-2.5,1-3.4c0.7-0.9,1.6-1.4,2.7-1.4c1.1,0,2,0.5,2.7,1.4
	c0.7,0.9,1,2.1,1,3.4c0,1.4-0.3,2.6-1,3.5C57.2,81.4,56.4,81.9,55.2,81.9z M55.2,80.5c0.6,0,1-0.3,1.4-0.8c0.4-0.5,0.6-1.4,0.6-2.7
	c0-1.1-0.2-1.9-0.5-2.5c-0.3-0.6-0.8-0.9-1.5-0.9c-1.3,0-2,1.2-2,3.5c0,1.1,0.2,2,0.5,2.6C54.1,80.2,54.6,80.5,55.2,80.5z
	 M60.4,81.7v-9.4h5.4v1.4h-3.9v2.4h1.5c0.8,0,1.4,0.1,1.8,0.2c0.4,0.1,0.8,0.4,1.1,0.9c0.3,0.5,0.4,1,0.4,1.6c0,0.8-0.2,1.5-0.7,2
	c-0.5,0.5-1.2,0.8-2.1,0.8H60.4z M61.9,80.3h1.7c1,0,1.5-0.5,1.5-1.4c0-0.4-0.1-0.7-0.3-1c-0.2-0.3-0.6-0.4-1.3-0.4h-1.6V80.3z
	 M69.7,81.7h-1.6v-9.4h3.5c1,0,1.8,0.3,2.2,0.8c0.5,0.6,0.7,1.2,0.7,2c0,0.9-0.3,1.6-0.8,2.1c-0.5,0.5-1.2,0.8-2,0.8h-2.2V81.7z
	 M69.7,76.6h1.8c0.5,0,0.8-0.1,1.1-0.4c0.3-0.3,0.4-0.6,0.4-1c0-0.4-0.1-0.7-0.3-1c-0.2-0.3-0.7-0.4-1.3-0.4h-1.7V76.6z M82.1,81.7
	h-1.7l-0.7-2.2h-3.3l-0.7,2.2h-1.3l2.9-9.4h1.9L82.1,81.7z M79.3,78.1L78.1,74l-1.3,4.2H79.3z M82.3,79l1.4-0.3
	c0.2,1.2,0.9,1.8,2,1.8c0.6,0,1-0.1,1.3-0.4c0.3-0.3,0.4-0.7,0.4-1.1c0-1-0.5-1.5-1.5-1.5h-0.8v-1.2h0.7c0.4,0,0.8-0.1,1-0.4
	c0.3-0.2,0.4-0.6,0.4-1c0-0.4-0.1-0.7-0.4-1c-0.3-0.2-0.7-0.4-1.1-0.4c-1,0-1.6,0.5-1.8,1.5l-1.4-0.2c0.3-1.8,1.4-2.7,3.2-2.7
	c0.9,0,1.7,0.2,2.2,0.7c0.6,0.5,0.8,1.1,0.8,1.8c0,1-0.5,1.7-1.6,2.1c1.2,0.3,1.8,1,1.8,2.2c0,0.8-0.3,1.5-0.9,2.1
	c-0.6,0.6-1.4,0.9-2.5,0.9c-1,0-1.8-0.3-2.4-0.8C82.7,80.6,82.4,79.9,82.3,79z M96.1,81.7h-5.6v-9.4H96v1.4h-4v2.5h3.2v1.4H92v2.6
	h4.1L96.1,81.7z M97.5,81.7v-9.4h1.6v7.9h3.1v-7.9h1.5v7.9h1.1v3.4h-1.1l-0.2-2H97.5z M105.4,76.3h0.6l1,2l-1,1.9h-0.6l0.6-1.9
	L105.4,76.3z M107,76.3h0.6l1,2l-1,1.9H107l0.6-1.9L107,76.3z"/>
<path id="path16" class="st2" d="M31.9,84.9c0-0.2-0.1-0.4-0.1-0.7c-0.1-0.3-0.2-0.5-0.2-0.7c0-0.2,0-0.3,0.1-0.4
	c0.1-0.1,0.2-0.1,0.3-0.1c0.1,0,0.2,0,0.3,0.1c0.1,0.1,0.1,0.2,0.1,0.4c0,0.1,0,0.3-0.1,0.6c-0.1,0.3-0.1,0.5-0.2,0.7
	c0.2-0.1,0.3-0.3,0.5-0.4c0.2-0.3,0.4-0.4,0.5-0.5c0.1-0.1,0.2-0.1,0.3-0.1c0.1,0,0.2,0,0.3,0.1c0.1,0.1,0.1,0.2,0.1,0.3
	c0,0.1-0.1,0.2-0.2,0.3c-0.1,0.1-0.4,0.2-0.8,0.3c-0.2,0.1-0.5,0.1-0.6,0.2c0.2,0.1,0.4,0.2,0.6,0.2c0.4,0.1,0.7,0.2,0.8,0.3
	c0.1,0.1,0.2,0.2,0.2,0.4c0,0.1,0,0.2-0.1,0.3c-0.1,0.1-0.2,0.1-0.3,0.1c-0.1,0-0.2,0-0.3-0.1c-0.1-0.1-0.3-0.2-0.5-0.5
	c-0.1-0.2-0.3-0.3-0.5-0.5c0,0.2,0,0.4,0.1,0.6c0.1,0.4,0.2,0.6,0.2,0.8c0,0.1,0,0.2-0.1,0.3c-0.1,0.1-0.2,0.1-0.2,0.1
	c-0.1,0-0.2,0-0.3-0.1c-0.1-0.1-0.1-0.2-0.1-0.3c0-0.2,0-0.3,0.1-0.6c0.1-0.2,0.1-0.4,0.1-0.5c0-0.1,0-0.2,0.1-0.4
	c-0.2,0.1-0.4,0.3-0.5,0.4c-0.2,0.3-0.4,0.4-0.5,0.5c-0.1,0.1-0.2,0.1-0.3,0.1c-0.1,0-0.2,0-0.3-0.1c-0.1-0.1-0.1-0.2-0.1-0.2
	c0-0.1,0-0.2,0.1-0.3c0.1-0.1,0.2-0.2,0.3-0.2c0.1,0,0.3-0.1,0.6-0.2c0.2,0,0.4-0.1,0.6-0.2c-0.2-0.1-0.4-0.2-0.6-0.2
	c-0.4-0.1-0.6-0.2-0.7-0.2c-0.1-0.1-0.2-0.2-0.2-0.4c0-0.1,0-0.2,0.1-0.2c0.1-0.1,0.2-0.1,0.3-0.1c0.1,0,0.2,0,0.3,0.1
	c0.1,0.1,0.3,0.2,0.4,0.4C31.5,84.6,31.7,84.8,31.9,84.9z"/>
<path id="path18" class="st2" d="M123.5,84.9c0-0.2-0.1-0.4-0.1-0.7c-0.1-0.3-0.2-0.5-0.2-0.7c0-0.2,0-0.3,0.1-0.4
	c0.1-0.1,0.2-0.1,0.3-0.1c0.1,0,0.2,0,0.3,0.1c0.1,0.1,0.1,0.2,0.1,0.4c0,0.1,0,0.3-0.1,0.6c-0.1,0.3-0.1,0.5-0.2,0.7
	c0.2-0.1,0.3-0.3,0.5-0.4c0.2-0.3,0.4-0.4,0.5-0.5c0.1-0.1,0.2-0.1,0.3-0.1c0.1,0,0.2,0,0.3,0.1c0.1,0.1,0.1,0.2,0.1,0.3
	c0,0.1-0.1,0.2-0.2,0.3c-0.1,0.1-0.4,0.2-0.8,0.3c-0.2,0.1-0.5,0.1-0.6,0.2c0.2,0.1,0.4,0.2,0.6,0.2c0.4,0.1,0.7,0.2,0.8,0.3
	c0.1,0.1,0.2,0.2,0.2,0.4c0,0.1,0,0.2-0.1,0.3c-0.1,0.1-0.2,0.1-0.3,0.1c-0.1,0-0.2,0-0.3-0.1c-0.1-0.1-0.3-0.2-0.5-0.5
	c-0.1-0.2-0.3-0.3-0.5-0.5c0,0.2,0,0.4,0.1,0.6c0.1,0.4,0.2,0.6,0.2,0.8c0,0.1,0,0.2-0.1,0.3c-0.1,0.1-0.2,0.1-0.2,0.1
	c-0.1,0-0.2,0-0.3-0.1c-0.1-0.1-0.1-0.2-0.1-0.3c0-0.2,0-0.3,0.1-0.6c0.1-0.2,0.1-0.4,0.1-0.5c0-0.1,0-0.2,0.1-0.4
	c-0.2,0.1-0.4,0.3-0.5,0.4c-0.2,0.3-0.4,0.4-0.5,0.5c-0.1,0.1-0.2,0.1-0.3,0.1c-0.1,0-0.2,0-0.3-0.1c-0.1-0.1-0.1-0.2-0.1-0.2
	c0-0.1,0-0.2,0.1-0.3c0.1-0.1,0.2-0.2,0.3-0.2c0.1,0,0.3-0.1,0.6-0.2c0.2,0,0.4-0.1,0.6-0.2c-0.2-0.1-0.4-0.2-0.6-0.2
	c-0.4-0.1-0.6-0.2-0.7-0.2c-0.1-0.1-0.2-0.2-0.2-0.4c0-0.1,0-0.2,0.1-0.2c0.1-0.1,0.2-0.1,0.3-0.1c0.1,0,0.2,0,0.3,0.1
	c0.1,0.1,0.3,0.2,0.4,0.4C123.1,84.6,123.3,84.8,123.5,84.9z"/>
<g>
	<path class="st3" d="M45,55.6c0.3,0.2,0.6,0.4,0.7,0.4c0.1,0.1,0.3,0.1,0.3,0.1c0.1,0,0.1-0.1,0.2-0.1c0-0.1,0.1-0.1,0.1-0.2
		c0-0.1-0.1-0.2-0.1-0.3c-0.1-0.1-0.3-0.3-0.7-0.6c-0.3-0.2-0.6-0.4-0.7-0.4c-0.1-0.1-0.3-0.1-0.3-0.1c-0.1,0-0.1,0.1-0.2,0.1
		c0,0.1-0.1,0.1-0.1,0.2c0,0.1,0.1,0.2,0.1,0.3C44.5,55.2,44.7,55.3,45,55.6z"/>
	<path class="st3" d="M39.9,64.1c-0.1,0-0.2,0-0.3,0c-0.1,0-0.2,0.1-0.2,0.2c0,0.1-0.1,0.2-0.2,0.5l-0.1,0.3l0.9,0.3l0.1-0.4
		c0.1-0.3,0.1-0.4,0.1-0.5c0-0.1,0-0.2-0.1-0.3C40.1,64.1,40,64.1,39.9,64.1z"/>
	<path class="st3" d="M38.5,72.1c0.4,0.1,0.7,0,0.9-0.1c0.2-0.1,0.4-0.4,0.4-0.6c0-0.3,0-0.5-0.2-0.7c-0.2-0.2-0.4-0.3-0.8-0.4
		c-0.4-0.1-0.7,0-0.9,0.1c-0.2,0.1-0.4,0.3-0.4,0.6c0,0.3,0,0.5,0.2,0.7C37.9,71.9,38.1,72,38.5,72.1z"/>
	<path class="st3" d="M43.5,58c0.4,0.2,0.6,0.3,0.8,0.4c0.2,0,0.3,0,0.3,0c0.1,0,0.1-0.1,0.2-0.1c0-0.1,0.1-0.1,0-0.2
		c0-0.1-0.1-0.2-0.2-0.3c-0.1-0.1-0.4-0.3-0.7-0.5c-0.4-0.2-0.6-0.3-0.8-0.4c-0.2,0-0.3,0-0.3,0c-0.1,0-0.1,0.1-0.2,0.1
		c0,0.1-0.1,0.1,0,0.2c0,0.1,0.1,0.2,0.2,0.3C42.9,57.6,43.2,57.8,43.5,58z"/>
	<path class="st3" d="M52.5,47.3c0.2,0.3,0.4,0.5,0.6,0.6c0.1,0.1,0.2,0.1,0.3,0.1c0.1,0,0.1,0,0.2-0.1c0.1,0,0.1-0.1,0.1-0.2
		c0-0.1,0-0.2-0.1-0.3c-0.1-0.2-0.2-0.4-0.5-0.7c-0.2-0.3-0.4-0.5-0.6-0.6c-0.1-0.1-0.2-0.1-0.3-0.1c-0.1,0-0.2,0-0.2,0.1
		c-0.1,0-0.1,0.1-0.1,0.2c0,0.1,0,0.2,0.1,0.3C52.1,46.8,52.2,47,52.5,47.3z"/>
	<path class="st3" d="M57,44.1c0.2,0.4,0.4,0.6,0.5,0.7c0.1,0.1,0.2,0.2,0.3,0.2c0.1,0,0.2,0,0.2,0c0.1,0,0.1-0.1,0.1-0.2
		c0-0.1,0-0.2,0-0.3c0-0.2-0.2-0.4-0.4-0.8c-0.2-0.4-0.4-0.6-0.5-0.7c-0.1-0.1-0.2-0.2-0.3-0.2c-0.1,0-0.2,0-0.2,0
		c-0.1,0-0.1,0.1-0.1,0.2c0,0.1,0,0.2,0,0.3C56.7,43.5,56.8,43.7,57,44.1z"/>
	<path class="st3" d="M54.7,45.7c0.2,0.3,0.4,0.5,0.5,0.6c0.1,0.1,0.2,0.2,0.3,0.2c0.1,0,0.2,0,0.2-0.1c0.1,0,0.1-0.1,0.1-0.2
		c0-0.1,0-0.2,0-0.3c-0.1-0.2-0.2-0.4-0.4-0.7c-0.2-0.3-0.4-0.5-0.5-0.6c-0.1-0.1-0.2-0.2-0.3-0.2c-0.1,0-0.2,0-0.2,0.1
		c-0.1,0-0.1,0.1-0.1,0.2c0,0.1,0,0.2,0,0.3C54.3,45.1,54.4,45.3,54.7,45.7z"/>
	<path class="st3" d="M51,49.8c0.1,0.1,0.2,0.1,0.3,0.1c0.1,0,0.1,0,0.2-0.1c0.1-0.1,0.1-0.1,0.1-0.2c0-0.1,0-0.2-0.1-0.3
		c-0.1-0.2-0.3-0.4-0.5-0.7c-0.3-0.3-0.5-0.5-0.6-0.6C50.3,48,50.2,48,50.1,48c-0.1,0-0.1,0-0.2,0.1c-0.1,0.1-0.1,0.1-0.1,0.2
		c0,0.1,0,0.2,0.1,0.3c0.1,0.2,0.3,0.4,0.5,0.7C50.7,49.5,50.9,49.7,51,49.8z"/>
	<path class="st3" d="M49.1,51.7c0.1,0.1,0.2,0.1,0.3,0.1c0.1,0,0.1,0,0.2-0.1c0.1-0.1,0.1-0.1,0.1-0.2c0-0.1,0-0.2-0.1-0.3
		c-0.1-0.1-0.3-0.4-0.6-0.6c-0.3-0.3-0.5-0.5-0.6-0.5s-0.2-0.1-0.3-0.1c-0.1,0-0.1,0-0.2,0.1c-0.1,0.1-0.1,0.1-0.1,0.2
		c0,0.1,0,0.2,0.1,0.3c0.1,0.2,0.3,0.4,0.6,0.6C48.8,51.5,49,51.7,49.1,51.7z"/>
	<path class="st3" d="M46.7,53.4c0.3,0.3,0.5,0.4,0.7,0.5c0.1,0.1,0.3,0.1,0.3,0.1c0.1,0,0.1-0.1,0.2-0.1c0-0.1,0.1-0.1,0.1-0.2
		c0-0.1,0-0.2-0.1-0.3c-0.1-0.1-0.3-0.3-0.6-0.6c-0.3-0.3-0.5-0.4-0.7-0.5c-0.1-0.1-0.3-0.1-0.3-0.1c-0.1,0-0.1,0.1-0.2,0.1
		c0,0.1-0.1,0.1-0.1,0.2c0,0.1,0,0.2,0.1,0.3C46.1,52.9,46.3,53.1,46.7,53.4z"/>
	<path class="st3" d="M45.7,99.2c0-0.1,0-0.2,0-0.2c0-0.1-0.1-0.1-0.2-0.1c-0.1,0-0.2,0-0.3,0c-0.2,0.1-0.4,0.2-0.8,0.4
		c-0.3,0.2-0.6,0.4-0.7,0.5c-0.1,0.1-0.2,0.2-0.2,0.3c0,0.1,0,0.2,0,0.2c0,0.1,0.1,0.1,0.2,0.1c0.1,0,0.2,0,0.3,0
		c0.2-0.1,0.4-0.2,0.8-0.4c0.3-0.2,0.6-0.4,0.7-0.5C45.6,99.4,45.7,99.3,45.7,99.2z"/>
	<path class="st3" d="M37.5,81.8c0.2,0,0.5,0,0.9,0c0.4,0,0.7-0.1,0.8-0.1c0.1-0.1,0.2-0.1,0.3-0.2c0-0.1,0.1-0.1,0.1-0.2
		c0-0.1,0-0.1-0.1-0.2c-0.1-0.1-0.1-0.1-0.3-0.1c-0.2,0-0.5,0-0.9,0c-0.4,0-0.7,0.1-0.8,0.1c-0.1,0.1-0.2,0.1-0.3,0.2
		c0,0.1-0.1,0.1-0.1,0.2c0,0.1,0,0.1,0.1,0.2C37.2,81.8,37.3,81.8,37.5,81.8z"/>
	<path class="st3" d="M52.7,107.2c-0.1-0.1-0.1-0.1-0.2-0.1c-0.1,0-0.2,0-0.3,0.1c-0.1,0.1-0.3,0.3-0.6,0.6
		c-0.3,0.3-0.4,0.5-0.5,0.7c-0.1,0.1-0.1,0.3-0.1,0.3c0,0.1,0,0.1,0.1,0.2c0.1,0.1,0.1,0.1,0.2,0.1c0.1,0,0.2,0,0.3-0.1
		c0.1-0.1,0.4-0.3,0.6-0.6c0.3-0.3,0.4-0.5,0.5-0.7c0.1-0.1,0.1-0.2,0.1-0.3C52.8,107.3,52.8,107.2,52.7,107.2z"/>
	<path class="st3" d="M44.3,96.9c0-0.1,0-0.2,0-0.2c0-0.1-0.1-0.1-0.2-0.1c-0.1,0-0.2,0-0.3,0c-0.2,0-0.4,0.2-0.8,0.4
		c-0.4,0.2-0.6,0.4-0.7,0.5c-0.1,0.1-0.2,0.2-0.2,0.3c0,0.1,0,0.2,0,0.2c0,0.1,0.1,0.1,0.2,0.1c0.1,0,0.2,0,0.3,0
		c0.2,0,0.4-0.2,0.8-0.4c0.4-0.2,0.6-0.4,0.7-0.5C44.2,97.1,44.3,97,44.3,96.9z"/>
	<path class="st3" d="M50.8,105.5c0-0.1,0-0.1-0.1-0.2c-0.1-0.1-0.1-0.1-0.2-0.1c-0.1,0-0.2,0-0.3,0.1c-0.1,0.1-0.4,0.3-0.6,0.6
		c-0.3,0.3-0.5,0.5-0.5,0.6c-0.1,0.1-0.1,0.2-0.1,0.3c0,0.1,0,0.1,0.1,0.2c0.1,0.1,0.1,0.1,0.2,0.1c0.1,0,0.2,0,0.3-0.1
		c0.1-0.1,0.4-0.3,0.6-0.6c0.3-0.3,0.5-0.5,0.5-0.6C50.8,105.7,50.8,105.6,50.8,105.5z"/>
	<path class="st3" d="M47.3,101.5c0-0.1,0-0.1-0.1-0.2c0-0.1-0.1-0.1-0.2-0.1c-0.1,0-0.2,0-0.3,0.1c-0.2,0.1-0.4,0.2-0.7,0.5
		c-0.3,0.2-0.5,0.4-0.6,0.6c-0.1,0.1-0.1,0.2-0.1,0.3c0,0.1,0,0.2,0.1,0.2c0,0.1,0.1,0.1,0.2,0.1c0.1,0,0.2,0,0.3-0.1
		c0.2-0.1,0.4-0.2,0.7-0.5c0.3-0.2,0.5-0.4,0.6-0.6C47.2,101.6,47.2,101.5,47.3,101.5z"/>
	<path class="st3" d="M43,94.5c0-0.1,0-0.1,0-0.2c0-0.1-0.1-0.1-0.2-0.2c-0.1,0-0.2,0-0.3,0c-0.2,0-0.4,0.1-0.8,0.3
		c-0.4,0.2-0.6,0.3-0.7,0.4c-0.1,0.1-0.2,0.2-0.2,0.3c0,0.1,0,0.2,0,0.2c0,0.1,0.1,0.1,0.2,0.2c0.1,0,0.2,0,0.3,0
		c0.2,0,0.4-0.1,0.8-0.3c0.4-0.2,0.6-0.3,0.7-0.4C42.9,94.7,43,94.6,43,94.5z"/>
	<path class="st3" d="M39.5,84.4c0.1-0.1,0.2-0.1,0.3-0.2c0-0.1,0.1-0.1,0-0.2c0-0.1-0.1-0.1-0.1-0.2c-0.1-0.1-0.2-0.1-0.3-0.1
		c-0.2,0-0.5,0-0.9,0.1c-0.4,0.1-0.7,0.1-0.8,0.2c-0.1,0.1-0.2,0.1-0.3,0.2c0,0.1-0.1,0.1,0,0.2c0,0.1,0.1,0.1,0.1,0.2
		c0.1,0.1,0.2,0.1,0.3,0.1c0.2,0,0.5,0,0.9-0.1C39.1,84.6,39.4,84.5,39.5,84.4z"/>
	<path class="st3" d="M40.1,87.1c0.1-0.1,0.2-0.1,0.3-0.2c0-0.1,0-0.1,0-0.2c0-0.1-0.1-0.1-0.1-0.2c-0.1,0-0.2-0.1-0.3-0.1
		c-0.2,0-0.5,0-0.9,0.1c-0.4,0.1-0.7,0.2-0.8,0.2C38.1,86.8,38,86.9,38,87c0,0.1,0,0.1,0,0.2c0,0.1,0.1,0.1,0.1,0.2
		c0.1,0,0.2,0.1,0.3,0.1c0.2,0,0.5,0,0.9-0.1C39.7,87.3,39.9,87.2,40.1,87.1z"/>
	<path class="st3" d="M41.9,92.1c0-0.1,0-0.1,0-0.2c0-0.1-0.1-0.1-0.1-0.2c-0.1,0-0.2,0-0.3,0c-0.2,0-0.4,0.1-0.8,0.3
		c-0.4,0.1-0.6,0.3-0.8,0.4c-0.1,0.1-0.2,0.2-0.2,0.3c0,0.1,0,0.1,0,0.2c0,0.1,0.1,0.1,0.1,0.2c0.1,0,0.2,0,0.3,0
		c0.2,0,0.5-0.1,0.8-0.3c0.4-0.1,0.6-0.3,0.8-0.4C41.8,92.2,41.9,92.1,41.9,92.1z"/>
	<path class="st3" d="M40.8,89.7c0.1-0.1,0.2-0.2,0.2-0.2c0-0.1,0-0.1,0-0.2c0-0.1-0.1-0.1-0.1-0.2c-0.1,0-0.2-0.1-0.3-0.1
		c-0.2,0-0.5,0.1-0.8,0.2c-0.4,0.1-0.6,0.2-0.8,0.3c-0.1,0.1-0.2,0.2-0.2,0.2c0,0.1,0,0.1,0,0.2c0,0.1,0.1,0.1,0.1,0.2
		c0.1,0,0.2,0.1,0.3,0.1c0.2,0,0.5-0.1,0.8-0.2C40.4,89.9,40.6,89.8,40.8,89.7z"/>
	<path class="st3" d="M49,103.5c0-0.1,0-0.1-0.1-0.2c-0.1-0.1-0.1-0.1-0.2-0.1c-0.1,0-0.2,0-0.3,0.1c-0.2,0.1-0.4,0.2-0.7,0.5
		c-0.3,0.3-0.5,0.5-0.6,0.6c-0.1,0.1-0.1,0.2-0.1,0.3c0,0.1,0,0.1,0.1,0.2c0.1,0.1,0.1,0.1,0.2,0.1c0.1,0,0.2,0,0.3-0.1
		c0.2-0.1,0.4-0.2,0.7-0.5c0.3-0.3,0.5-0.5,0.6-0.6C48.9,103.7,49,103.6,49,103.5z"/>
	<path class="st3" d="M112.9,61.3c0,0.1,0,0.1,0,0.2c0,0.1,0.1,0.1,0.2,0.2c0.1,0,0.2,0,0.3,0c0.2,0,0.4-0.1,0.8-0.3
		c0.4-0.2,0.6-0.3,0.7-0.4c0.1-0.1,0.2-0.2,0.2-0.3c0-0.1,0-0.2,0-0.2c0-0.1-0.1-0.1-0.2-0.2c-0.1,0-0.2,0-0.3,0
		c-0.2,0-0.4,0.1-0.8,0.3c-0.4,0.2-0.6,0.3-0.7,0.4C113,61.1,112.9,61.2,112.9,61.3z"/>
	<path class="st3" d="M110.2,56.6c0,0.1,0,0.2,0,0.2c0,0.1,0.1,0.1,0.2,0.1c0.1,0,0.2,0,0.3,0c0.2-0.1,0.4-0.2,0.8-0.4
		c0.3-0.2,0.6-0.4,0.7-0.5c0.1-0.1,0.2-0.2,0.2-0.3c0-0.1,0-0.2,0-0.2c0-0.1-0.1-0.1-0.2-0.1c-0.1,0-0.2,0-0.3,0
		c-0.2,0.1-0.4,0.2-0.8,0.4c-0.3,0.2-0.6,0.4-0.7,0.5C110.3,56.4,110.2,56.5,110.2,56.6z"/>
	<path class="st3" d="M111.6,58.9c0,0.1,0,0.2,0,0.2c0,0.1,0.1,0.1,0.2,0.1c0.1,0,0.2,0,0.3,0c0.2,0,0.4-0.2,0.8-0.4
		c0.4-0.2,0.6-0.4,0.7-0.5c0.1-0.1,0.2-0.2,0.2-0.3c0-0.1,0-0.2,0-0.2c0-0.1-0.1-0.1-0.2-0.1c-0.1,0-0.2,0-0.3,0
		c-0.2,0-0.4,0.2-0.8,0.4c-0.4,0.2-0.6,0.4-0.7,0.5C111.7,58.7,111.6,58.8,111.6,58.9z"/>
	<path class="st3" d="M108.6,54.4c0,0.1,0,0.1,0.1,0.2c0,0.1,0.1,0.1,0.2,0.1c0.1,0,0.2,0,0.3-0.1c0.2-0.1,0.4-0.2,0.7-0.5
		c0.3-0.2,0.5-0.4,0.6-0.6c0.1-0.1,0.1-0.2,0.1-0.3c0-0.1,0-0.2-0.1-0.2c0-0.1-0.1-0.1-0.2-0.1c-0.1,0-0.2,0-0.3,0.1
		c-0.2,0.1-0.4,0.2-0.7,0.5c-0.3,0.2-0.5,0.4-0.6,0.6C108.7,54.2,108.6,54.3,108.6,54.4z"/>
	<path class="st3" d="M106.9,52.3c0,0.1,0,0.1,0.1,0.2c0.1,0.1,0.1,0.1,0.2,0.1c0.1,0,0.2,0,0.3-0.1c0.2-0.1,0.4-0.2,0.7-0.5
		c0.3-0.3,0.5-0.5,0.6-0.6c0.1-0.1,0.1-0.2,0.1-0.3c0-0.1,0-0.1-0.1-0.2c-0.1-0.1-0.1-0.1-0.2-0.1c-0.1,0-0.2,0-0.3,0.1
		c-0.2,0.1-0.4,0.2-0.7,0.5c-0.3,0.3-0.5,0.5-0.6,0.6C106.9,52.1,106.9,52.2,106.9,52.3z"/>
	<path class="st3" d="M113.9,63.8c0,0.1,0,0.1,0,0.2c0,0.1,0.1,0.1,0.1,0.2c0.1,0,0.2,0,0.3,0c0.2,0,0.4-0.1,0.8-0.3
		c0.4-0.1,0.6-0.3,0.8-0.4c0.1-0.1,0.2-0.2,0.2-0.3c0-0.1,0-0.1,0-0.2h0c0-0.1-0.1-0.1-0.1-0.2c-0.1,0-0.2,0-0.3,0
		c-0.2,0-0.5,0.1-0.8,0.3c-0.4,0.1-0.6,0.3-0.8,0.4C114,63.6,114,63.7,113.9,63.8z"/>
	<path class="st3" d="M59.9,43.4c0.1,0.1,0.2,0.2,0.3,0.2c0.1,0,0.2,0,0.2,0c0.1,0,0.1-0.1,0.2-0.2c0-0.1,0-0.2,0-0.3
		c0-0.2-0.1-0.4-0.3-0.8c-0.2-0.4-0.3-0.6-0.4-0.7c-0.1-0.1-0.2-0.2-0.3-0.2c-0.1,0-0.2,0-0.2,0h0c-0.1,0-0.1,0.1-0.2,0.2
		c0,0.1,0,0.2,0,0.3c0,0.2,0.2,0.4,0.3,0.8C59.6,43.1,59.7,43.3,59.9,43.4z"/>
	<path class="st3" d="M105,50.3c0,0.1,0,0.1,0.1,0.2c0.1,0.1,0.1,0.1,0.2,0.1c0.1,0,0.2,0,0.3-0.1c0.1-0.1,0.4-0.3,0.6-0.6
		c0.3-0.3,0.5-0.5,0.5-0.6c0.1-0.1,0.1-0.2,0.1-0.3c0-0.1,0-0.1-0.1-0.2c-0.1-0.1-0.1-0.1-0.2-0.1c-0.1,0-0.2,0-0.3,0.1
		c-0.1,0.1-0.4,0.3-0.6,0.6c-0.3,0.3-0.5,0.5-0.5,0.6C105,50.1,105,50.3,105,50.3z"/>
	<path class="st3" d="M117.7,81c-0.4,0-0.7,0-0.9,0.2c-0.2,0.2-0.3,0.4-0.4,0.7c0,0.3,0.1,0.5,0.2,0.7c0.2,0.2,0.5,0.3,0.9,0.3
		c0.4,0,0.7,0,0.9-0.2c0.2-0.2,0.3-0.4,0.3-0.7c0-0.3-0.1-0.5-0.2-0.7C118.4,81.1,118.1,81,117.7,81z"/>
	<path class="st3" d="M115.1,66.1c-0.1,0.1-0.2,0.2-0.2,0.2c0,0.1,0,0.1,0,0.2c0,0.1,0.1,0.1,0.1,0.2c0.1,0,0.2,0.1,0.3,0.1
		c0.2,0,0.5-0.1,0.8-0.2c0.4-0.1,0.7-0.2,0.8-0.3c0.1-0.1,0.2-0.2,0.2-0.2c0-0.1,0-0.1,0-0.2c0-0.1-0.1-0.1-0.1-0.2
		c-0.1,0-0.2-0.1-0.3-0.1c-0.2,0-0.5,0.1-0.8,0.2C115.5,65.9,115.2,66,115.1,66.1z"/>
	<path class="st3" d="M115.8,68.7c-0.1,0.1-0.2,0.1-0.3,0.2c0,0.1,0,0.1,0,0.2c0,0.1,0.1,0.1,0.1,0.2c0.1,0,0.2,0.1,0.3,0.1
		c0.2,0,0.5,0,0.9-0.1c0.4-0.1,0.7-0.2,0.8-0.2c0.1-0.1,0.2-0.1,0.3-0.2c0-0.1,0-0.1,0-0.2c0-0.1-0.1-0.1-0.1-0.2
		c-0.1,0-0.2-0.1-0.3-0.1c-0.2,0-0.5,0-0.9,0.1C116.2,68.6,116,68.7,115.8,68.7z"/>
	<path class="st3" d="M116.4,71.4c-0.1,0.1-0.2,0.1-0.3,0.2c0,0.1-0.1,0.1,0,0.2c0,0.1,0.1,0.1,0.1,0.2c0.1,0.1,0.2,0.1,0.3,0.1
		c0.2,0,0.5,0,0.9-0.1c0.4-0.1,0.7-0.1,0.8-0.2c0.1-0.1,0.2-0.1,0.3-0.2c0-0.1,0.1-0.1,0-0.2c0-0.1-0.1-0.1-0.1-0.2
		c-0.1-0.1-0.2-0.1-0.3-0.1c-0.2,0-0.5,0-0.9,0.1C116.8,71.3,116.5,71.3,116.4,71.4z"/>
	<path class="st3" d="M70.1,39.8c0.1,0.1,0.1,0.2,0.2,0.3c0.1,0,0.1,0.1,0.2,0c0.1,0,0.1-0.1,0.2-0.1c0.1-0.1,0.1-0.2,0.1-0.3
		c0-0.2,0-0.5-0.1-0.9c-0.1-0.4-0.1-0.7-0.2-0.8c-0.1-0.1-0.1-0.2-0.2-0.3c-0.1,0-0.1-0.1-0.2,0c-0.1,0-0.1,0.1-0.2,0.1
		c-0.1,0.1-0.1,0.2-0.1,0.3c0,0.2,0,0.5,0.1,0.9C70,39.3,70.1,39.6,70.1,39.8z"/>
	<path class="st3" d="M72.8,39.3c0.1,0.1,0.1,0.2,0.2,0.3c0.1,0,0.1,0.1,0.2,0c0.1,0,0.1,0,0.2-0.1c0.1-0.1,0.1-0.2,0.1-0.3
		c0-0.2,0-0.5,0-0.9c-0.1-0.4-0.1-0.7-0.2-0.8c-0.1-0.1-0.1-0.2-0.2-0.3c-0.1,0-0.1-0.1-0.2,0c-0.1,0-0.1,0-0.2,0.1
		c-0.1,0.1-0.1,0.2-0.1,0.3c0,0.2,0,0.5,0,0.9C72.7,38.9,72.7,39.2,72.8,39.3z"/>
	<path class="st3" d="M67.4,40.4c0.1,0.1,0.2,0.2,0.2,0.2c0.1,0,0.1,0,0.2,0c0.1,0,0.1-0.1,0.2-0.1c0-0.1,0.1-0.2,0.1-0.3
		c0-0.2-0.1-0.5-0.2-0.8c-0.1-0.4-0.2-0.6-0.3-0.8c-0.1-0.1-0.2-0.2-0.2-0.2c-0.1,0-0.1,0-0.2,0c-0.1,0-0.1,0.1-0.2,0.1
		c0,0.1-0.1,0.2-0.1,0.3c0,0.2,0.1,0.5,0.2,0.8C67.3,40,67.4,40.3,67.4,40.4z"/>
	<path class="st3" d="M62.3,42.3c0.1,0.1,0.2,0.2,0.3,0.2c0.1,0,0.1,0,0.2,0c0.1,0,0.1-0.1,0.2-0.2c0-0.1,0-0.2,0-0.3
		c0-0.2-0.1-0.4-0.3-0.8c-0.2-0.4-0.3-0.6-0.4-0.7c-0.1-0.1-0.2-0.2-0.3-0.2c-0.1,0-0.2,0-0.2,0c-0.1,0-0.1,0.1-0.2,0.2
		c0,0.1,0,0.2,0,0.3c0,0.2,0.1,0.4,0.3,0.8C62.1,41.9,62.2,42.1,62.3,42.3z"/>
	<path class="st3" d="M64.9,41.2c0.1,0.1,0.2,0.2,0.2,0.2c0.1,0,0.1,0,0.2,0c0.1,0,0.1-0.1,0.2-0.1c0-0.1,0.1-0.2,0-0.3
		c0-0.2-0.1-0.5-0.2-0.8c-0.1-0.4-0.2-0.6-0.3-0.8c-0.1-0.1-0.2-0.2-0.2-0.2c-0.1,0-0.1,0-0.2,0c-0.1,0-0.1,0.1-0.2,0.1
		c0,0.1-0.1,0.2,0,0.3c0,0.2,0.1,0.5,0.2,0.8C64.7,40.8,64.8,41.1,64.9,41.2z"/>
	<path class="st3" d="M90,39.8c0.1,0,0.2,0,0.3-0.1c0.1-0.1,0.1-0.1,0.1-0.2c0-0.1,0-0.2,0-0.3c0-0.1-0.1-0.2-0.2-0.2
		c-0.1,0-0.2-0.1-0.5-0.2l-0.3-0.1l-0.3,0.9l0.4,0.1C89.8,39.7,89.9,39.8,90,39.8z"/>
	<path class="st3" d="M103.1,48.7c0.1,0.1,0.1,0.1,0.2,0.1c0.1,0,0.2,0,0.3-0.1c0.1-0.1,0.3-0.3,0.6-0.6c0.3-0.3,0.4-0.5,0.5-0.7
		c0.1-0.1,0.1-0.3,0.1-0.3c0-0.1,0-0.1-0.1-0.2c-0.1-0.1-0.1-0.1-0.2-0.1c-0.1,0-0.2,0-0.3,0.1c-0.1,0.1-0.4,0.3-0.6,0.6
		c-0.3,0.3-0.4,0.5-0.5,0.7c-0.1,0.1-0.1,0.2-0.1,0.3C103,48.6,103.1,48.7,103.1,48.7z"/>
	<path class="st3" d="M99,45.5c0.1,0,0.2-0.1,0.3-0.2c0.1-0.1,0.3-0.3,0.5-0.7c0.2-0.3,0.4-0.6,0.4-0.7c0-0.1,0.1-0.3,0-0.3
		c0-0.1-0.1-0.1-0.1-0.2c-0.1,0-0.1-0.1-0.2,0c-0.1,0-0.2,0.1-0.3,0.2c-0.1,0.1-0.3,0.3-0.5,0.7c-0.2,0.3-0.4,0.6-0.4,0.7
		c0,0.1-0.1,0.3,0,0.3c0,0.1,0.1,0.1,0.1,0.2C98.9,45.5,98.9,45.5,99,45.5z"/>
	<path class="st3" d="M101.3,47.1c0.1,0,0.2,0,0.3-0.1c0.1-0.1,0.3-0.3,0.6-0.6c0.3-0.3,0.4-0.5,0.5-0.7c0.1-0.1,0.1-0.3,0.1-0.3
		c0-0.1-0.1-0.1-0.1-0.2c-0.1,0-0.1-0.1-0.2-0.1c-0.1,0-0.2,0-0.3,0.1c-0.1,0.1-0.3,0.3-0.6,0.6c-0.3,0.3-0.4,0.5-0.5,0.7
		c-0.1,0.1-0.1,0.3-0.1,0.3c0,0.1,0.1,0.1,0.1,0.2C101.1,47.1,101.2,47.1,101.3,47.1z"/>
	<path class="st3" d="M96.5,44.1c0.1,0,0.1,0.1,0.2,0c0.1,0,0.2-0.1,0.3-0.2c0.1-0.1,0.3-0.4,0.5-0.7c0.2-0.4,0.3-0.6,0.4-0.8
		c0-0.2,0-0.3,0-0.3c0-0.1-0.1-0.1-0.1-0.2c-0.1,0-0.1-0.1-0.2,0c-0.1,0-0.2,0.1-0.3,0.2c-0.1,0.1-0.3,0.4-0.5,0.7
		c-0.2,0.4-0.3,0.6-0.4,0.8c0,0.2,0,0.3,0,0.3C96.4,44,96.4,44.1,96.5,44.1z"/>
	<path class="st3" d="M83.2,39.7c0.3,0,0.5,0,0.7-0.2c0.2-0.2,0.3-0.5,0.4-0.9c0.1-0.4,0-0.7-0.1-0.9c-0.1-0.2-0.4-0.3-0.6-0.4
		c-0.3,0-0.5,0-0.7,0.2c-0.2,0.2-0.3,0.5-0.4,0.8c0,0.4,0,0.7,0.2,0.9C82.7,39.5,82.9,39.6,83.2,39.7z"/>
	<path class="st3" d="M96.1,112.4c-0.1-0.1-0.2-0.2-0.3-0.2c-0.1,0-0.2,0-0.2,0c-0.1,0-0.1,0.1-0.2,0.2c0,0.1,0,0.2,0,0.3
		c0,0.2,0.1,0.4,0.3,0.8c0.2,0.4,0.3,0.6,0.4,0.7c0.1,0.1,0.2,0.2,0.3,0.2c0.1,0,0.2,0,0.2,0c0.1,0,0.1-0.1,0.2-0.2
		c0-0.1,0-0.2,0-0.3c0-0.2-0.2-0.4-0.3-0.8C96.4,112.8,96.2,112.6,96.1,112.4z"/>
	<path class="st3" d="M99,111.7c-0.2-0.3-0.4-0.6-0.5-0.7c-0.1-0.1-0.2-0.2-0.3-0.2c-0.1,0-0.2,0-0.2,0c-0.1,0-0.1,0.1-0.1,0.2
		c0,0.1,0,0.2,0,0.3c0.1,0.2,0.2,0.4,0.4,0.8c0.2,0.3,0.4,0.6,0.5,0.7c0.1,0.1,0.2,0.2,0.3,0.2c0.1,0,0.2,0,0.2,0
		c0.1,0,0.1-0.1,0.1-0.2c0-0.1,0-0.2,0-0.3C99.4,112.3,99.2,112.1,99,111.7z"/>
	<path class="st3" d="M104.9,106.1c-0.1-0.1-0.2-0.1-0.3-0.1c-0.1,0-0.1,0-0.2,0.1c-0.1,0.1-0.1,0.1-0.1,0.2c0,0.1,0,0.2,0.1,0.3
		c0.1,0.2,0.3,0.4,0.5,0.7c0.3,0.3,0.5,0.5,0.6,0.6c0.1,0.1,0.2,0.1,0.3,0.1c0.1,0,0.1,0,0.2-0.1c0.1-0.1,0.1-0.1,0.1-0.2
		c0-0.1,0-0.2-0.1-0.3c-0.1-0.2-0.3-0.4-0.5-0.7C105.3,106.3,105.1,106.2,104.9,106.1z"/>
	<path class="st3" d="M101.3,110.2c-0.2-0.3-0.4-0.5-0.5-0.6c-0.1-0.1-0.2-0.2-0.3-0.2c-0.1,0-0.1,0-0.2,0.1c-0.1,0-0.1,0.1-0.1,0.2
		c0,0.1,0,0.2,0,0.3c0.1,0.2,0.2,0.4,0.4,0.7c0.2,0.3,0.4,0.5,0.5,0.6c0.1,0.1,0.2,0.2,0.3,0.2c0.1,0,0.2,0,0.2-0.1
		c0.1,0,0.1-0.1,0.1-0.2c0-0.1,0-0.2,0-0.3C101.7,110.8,101.5,110.5,101.3,110.2z"/>
	<path class="st3" d="M63.1,115.2c-0.1,0-0.2,0-0.3,0.1c-0.1,0.1-0.1,0.1-0.2,0.2c0,0.1,0,0.2,0,0.3c0,0.1,0.1,0.2,0.2,0.2
		c0.1,0,0.2,0.1,0.5,0.2l0.3,0.1l0.4-0.9l-0.4-0.1C63.4,115.2,63.2,115.2,63.1,115.2z"/>
	<path class="st3" d="M93.7,113.6c-0.1-0.1-0.2-0.2-0.3-0.2c-0.1,0-0.1,0-0.2,0s-0.1,0.1-0.2,0.2c0,0.1,0,0.2,0,0.3
		c0,0.2,0.1,0.4,0.3,0.8c0.2,0.4,0.3,0.6,0.4,0.7c0.1,0.1,0.2,0.2,0.3,0.2c0.1,0,0.2,0,0.2,0c0.1,0,0.1-0.1,0.2-0.2
		c0-0.1,0-0.2,0-0.3c0-0.2-0.1-0.4-0.3-0.8C93.9,114,93.8,113.7,93.7,113.6z"/>
	<path class="st3" d="M85.9,116.1c-0.1-0.1-0.1-0.2-0.2-0.3c-0.1,0-0.1-0.1-0.2,0c-0.1,0-0.1,0.1-0.2,0.1c-0.1,0.1-0.1,0.2-0.1,0.3
		c0,0.2,0,0.5,0.1,0.9c0.1,0.4,0.1,0.7,0.2,0.8c0.1,0.1,0.1,0.2,0.2,0.3c0.1,0,0.1,0.1,0.2,0c0.1,0,0.1-0.1,0.2-0.1
		c0.1-0.1,0.1-0.2,0.1-0.3c0-0.2,0-0.5-0.1-0.9C86,116.5,85.9,116.3,85.9,116.1z"/>
	<path class="st3" d="M88.5,115.5c-0.1-0.1-0.2-0.2-0.2-0.2c-0.1,0-0.1,0-0.2,0c-0.1,0-0.1,0.1-0.2,0.1c0,0.1-0.1,0.2-0.1,0.3
		c0,0.2,0.1,0.5,0.2,0.8c0.1,0.4,0.2,0.6,0.3,0.8c0.1,0.1,0.2,0.2,0.2,0.2c0.1,0,0.1,0,0.2,0c0.1,0,0.1-0.1,0.2-0.1
		c0-0.1,0.1-0.2,0.1-0.3c0-0.2-0.1-0.5-0.2-0.8C88.7,115.9,88.6,115.6,88.5,115.5z"/>
	<path class="st3" d="M91.1,114.7c-0.1-0.1-0.2-0.2-0.2-0.2c-0.1,0-0.1,0-0.2,0c-0.1,0-0.1,0.1-0.2,0.1c0,0.1-0.1,0.2,0,0.3
		c0,0.2,0.1,0.5,0.2,0.8c0.1,0.4,0.2,0.6,0.3,0.8c0.1,0.1,0.2,0.2,0.2,0.2c0.1,0,0.1,0,0.2,0v0c0.1,0,0.1-0.1,0.2-0.1
		c0-0.1,0.1-0.2,0-0.3c0-0.2-0.1-0.5-0.2-0.8C91.3,115,91.2,114.8,91.1,114.7z"/>
	<path class="st3" d="M70,115.8c-0.3-0.1-0.5,0-0.7,0.1c-0.2,0.2-0.4,0.4-0.5,0.8c-0.1,0.4-0.1,0.7,0.1,0.9c0.1,0.2,0.3,0.4,0.6,0.4
		c0.3,0.1,0.5,0,0.7-0.1c0.2-0.2,0.4-0.4,0.5-0.8c0.1-0.4,0.1-0.7-0.1-0.9C70.4,116,70.2,115.8,70,115.8z"/>
	<path class="st3" d="M103.5,108.5c-0.2-0.3-0.4-0.5-0.6-0.6c-0.1-0.1-0.2-0.1-0.3-0.1c-0.1,0-0.1,0-0.2,0.1c-0.1,0-0.1,0.1-0.1,0.2
		c0,0.1,0,0.2,0.1,0.3c0.1,0.2,0.2,0.4,0.5,0.7c0.2,0.3,0.4,0.5,0.6,0.6c0.1,0.1,0.2,0.1,0.3,0.1c0.1,0,0.2,0,0.2-0.1
		c0.1,0,0.1-0.1,0.1-0.2c0-0.1,0-0.2-0.1-0.3C103.9,109.1,103.7,108.9,103.5,108.5z"/>
	<path class="st3" d="M54.6,108.8c-0.1,0-0.2,0-0.3,0.1c-0.1,0.1-0.3,0.3-0.6,0.6c-0.3,0.3-0.4,0.5-0.5,0.7
		c-0.1,0.1-0.1,0.3-0.1,0.3c0,0.1,0.1,0.1,0.1,0.2c0.1,0,0.1,0.1,0.2,0.1c0.1,0,0.2,0,0.3-0.1c0.1-0.1,0.3-0.3,0.6-0.6
		c0.3-0.3,0.4-0.5,0.5-0.7c0.1-0.1,0.1-0.3,0.1-0.3c0-0.1-0.1-0.1-0.1-0.2C54.7,108.8,54.7,108.8,54.6,108.8z"/>
	<path class="st3" d="M116.9,89.1c0.1,0,0.2,0,0.3,0c0.1,0,0.2-0.1,0.2-0.2c0-0.1,0.1-0.2,0.2-0.5l0.1-0.3l-0.9-0.3l-0.1,0.4
		c-0.1,0.3-0.1,0.4-0.1,0.5c0,0.1,0,0.2,0.1,0.3C116.7,89.1,116.8,89.1,116.9,89.1z"/>
	<path class="st3" d="M78,35.6c-23.4,0-42.4,19-42.4,42.4c0,23.4,19,42.4,42.4,42.4c23.4,0,42.4-19,42.4-42.4
		C120.3,54.6,101.3,35.6,78,35.6z M119.3,81.3c0.1,0.2,0.1,0.5,0.1,0.8c0,0.5-0.2,0.9-0.6,1.2c-0.3,0.3-0.8,0.4-1.3,0.4
		c-0.6,0-1-0.2-1.3-0.6c-0.3-0.3-0.4-0.7-0.4-1.2c0-0.5,0.2-0.9,0.6-1.2c0.3-0.3,0.8-0.4,1.3-0.4c0.3,0,0.6,0.1,0.9,0.2
		c0.2,0.1,0.3,0.2,0.4,0.4C119.1,81,119.2,81.1,119.3,81.3z M119,71.3c0.1,0.3,0,0.6-0.2,0.8c-0.2,0.3-0.7,0.5-1.3,0.6
		c-0.6,0.1-1.1,0.1-1.4-0.1c-0.3-0.1-0.4-0.4-0.5-0.7c-0.1-0.3,0-0.6,0.2-0.9c0.2-0.2,0.7-0.4,1.3-0.5c0.6-0.1,1.1-0.1,1.4,0.1
		C118.8,70.7,118.9,71,119,71.3z M118.4,68.5c0.1,0.3,0,0.6-0.2,0.8c-0.2,0.3-0.7,0.5-1.3,0.6c-0.6,0.1-1.1,0.1-1.4,0
		c-0.3-0.1-0.4-0.4-0.5-0.7c-0.1-0.3,0-0.6,0.2-0.9c0.2-0.3,0.6-0.5,1.3-0.6c0.6-0.1,1.1-0.1,1.4,0C118.2,68,118.4,68.2,118.4,68.5z
		 M117.7,65.8c0.1,0.3,0,0.6-0.1,0.8c-0.2,0.3-0.6,0.5-1.3,0.7c-0.6,0.2-1.1,0.2-1.4,0.1c-0.3-0.1-0.5-0.3-0.6-0.7
		c-0.1-0.3,0-0.6,0.1-0.9c0.2-0.3,0.6-0.5,1.2-0.7c0.6-0.2,1.1-0.2,1.4-0.1C117.4,65.2,117.6,65.4,117.7,65.8z M116.1,62.3
		c0.3,0.1,0.5,0.3,0.6,0.6c0.1,0.3,0.1,0.6,0,0.9c-0.2,0.3-0.6,0.6-1.2,0.8c-0.6,0.2-1.1,0.3-1.4,0.2c-0.3-0.1-0.5-0.3-0.6-0.6
		c-0.1-0.3-0.1-0.6,0.1-0.9c0.2-0.3,0.6-0.6,1.2-0.8C115.3,62.3,115.8,62.2,116.1,62.3z M115,59.7c0.3,0.1,0.5,0.3,0.6,0.6h0
		c0.1,0.3,0.1,0.6,0,0.9c-0.2,0.3-0.5,0.6-1.1,0.9c-0.6,0.3-1.1,0.4-1.4,0.3c-0.3-0.1-0.5-0.3-0.6-0.6c-0.1-0.3-0.1-0.6,0-0.9
		c0.2-0.3,0.5-0.6,1.1-0.8C114.1,59.7,114.6,59.7,115,59.7z M113.5,57.1c0.3,0,0.5,0.2,0.7,0.5c0.2,0.3,0.2,0.6,0.1,0.9
		c-0.1,0.3-0.5,0.7-1.1,1c-0.6,0.3-1,0.5-1.4,0.4c-0.3,0-0.5-0.2-0.7-0.5c-0.2-0.3-0.2-0.6-0.1-0.9c0.1-0.3,0.5-0.6,1-1
		C112.7,57.2,113.2,57.1,113.5,57.1z M112.7,55.2c0.2,0.3,0.2,0.6,0.1,0.9c-0.1,0.3-0.4,0.7-1,1c-0.5,0.4-1,0.5-1.4,0.5
		c-0.3,0-0.5-0.2-0.7-0.5c-0.2-0.3-0.2-0.6-0.1-0.9c0.1-0.3,0.4-0.6,1-1c0.5-0.4,1-0.5,1.4-0.5C112.3,54.8,112.6,54.9,112.7,55.2z
		 M111,52.8c0.2,0.3,0.3,0.5,0.2,0.8c-0.1,0.3-0.4,0.7-0.9,1.1c-0.5,0.4-1,0.6-1.3,0.6c-0.3,0-0.6-0.1-0.8-0.4
		c-0.2-0.3-0.3-0.6-0.2-0.9c0.1-0.3,0.4-0.7,0.9-1.1c0.5-0.4,0.9-0.6,1.3-0.6C110.6,52.4,110.8,52.5,111,52.8z M108.4,50.2
		c0.3,0,0.6,0.1,0.8,0.4c0.2,0.3,0.3,0.5,0.2,0.8c-0.1,0.4-0.3,0.7-0.8,1.2c-0.5,0.4-0.9,0.7-1.3,0.7c-0.3,0-0.6-0.1-0.8-0.4
		c-0.2-0.3-0.3-0.5-0.2-0.9c0.1-0.3,0.3-0.7,0.8-1.1C107.7,50.4,108.1,50.2,108.4,50.2z M107.2,48.4c0.2,0.2,0.3,0.5,0.3,0.8
		c0,0.4-0.3,0.8-0.7,1.2c-0.4,0.5-0.9,0.7-1.2,0.8c-0.3,0-0.6-0.1-0.8-0.3c-0.2-0.2-0.3-0.5-0.3-0.8c0-0.3,0.3-0.7,0.7-1.2
		c0.4-0.5,0.9-0.7,1.2-0.8C106.7,48.1,106.9,48.2,107.2,48.4z M104.3,46.2c0.3-0.1,0.6,0,0.8,0.2c0.3,0.2,0.4,0.5,0.4,0.8
		c0,0.4-0.2,0.8-0.7,1.3c-0.4,0.5-0.8,0.8-1.2,0.8c-0.3,0.1-0.6,0-0.8-0.2c-0.3-0.2-0.4-0.5-0.4-0.8c0-0.3,0.2-0.7,0.7-1.2
		C103.5,46.6,103.9,46.3,104.3,46.2z M102.1,44.5c0.3-0.1,0.6,0,0.8,0.2c0.3,0.2,0.4,0.5,0.4,0.8c0,0.4-0.2,0.8-0.6,1.3
		c-0.4,0.5-0.8,0.8-1.1,0.9c-0.3,0.1-0.6,0-0.8-0.2c-0.3-0.2-0.4-0.5-0.4-0.8s0.2-0.8,0.6-1.3C101.3,44.9,101.7,44.6,102.1,44.5z
		 M99.6,42.8c0.3-0.1,0.6-0.1,0.8,0.1c0.3,0.2,0.4,0.4,0.5,0.7c0,0.4-0.1,0.8-0.5,1.4c-0.4,0.5-0.7,0.9-1,1
		c-0.3,0.1-0.6,0.1-0.8-0.1c-0.3-0.2-0.4-0.4-0.5-0.8c0-0.3,0.1-0.8,0.5-1.3C98.9,43.3,99.2,43,99.6,42.8z M96.1,42.5
		c0.3-0.6,0.7-0.9,1-1c0.3-0.1,0.6-0.1,0.9,0.1c0.3,0.2,0.5,0.4,0.5,0.7c0.1,0.4-0.1,0.8-0.4,1.4c-0.3,0.6-0.7,0.9-1,1.1
		c-0.3,0.1-0.6,0.1-0.9-0.1c-0.3-0.2-0.5-0.4-0.5-0.7C95.7,43.5,95.8,43.1,96.1,42.5z M92.9,39.2l-0.5,1.3l1.3,0.5l0.5-1.3l0.6,0.3
		l-1.3,3.2l-0.6-0.3l0.5-1.4L92.2,41l-0.5,1.4L91,42.1l1.3-3.2L92.9,39.2z M90,38.2c0.4,0.1,0.7,0.2,0.8,0.3
		c0.2,0.1,0.3,0.3,0.4,0.5s0.1,0.4,0,0.7c-0.1,0.2-0.1,0.4-0.3,0.5c-0.1,0.1-0.2,0.2-0.4,0.2c-0.1,0-0.3,0.1-0.4,0.1
		c-0.2,0-0.4-0.1-0.7-0.1L89,40.1l-0.4,1.2L88,41.2l0.9-3.3L90,38.2z M86.1,37.2l2.3,0.5l-0.1,0.6l-1.6-0.4L86,40.7l-0.7-0.2
		L86.1,37.2z M81.7,38.3c0-0.3,0.1-0.6,0.3-0.9c0.1-0.2,0.2-0.3,0.4-0.4c0.2-0.1,0.3-0.2,0.5-0.3c0.2-0.1,0.5-0.1,0.8,0
		c0.5,0.1,0.9,0.3,1.1,0.6c0.3,0.4,0.4,0.8,0.3,1.4c-0.1,0.6-0.3,1-0.6,1.2c-0.3,0.3-0.8,0.4-1.3,0.3c-0.5-0.1-0.9-0.3-1.2-0.6
		C81.7,39.3,81.6,38.8,81.7,38.3z M72.1,37.2c0.2-0.3,0.4-0.4,0.7-0.4c0.3,0,0.6,0,0.8,0.3c0.3,0.3,0.4,0.7,0.5,1.3
		c0.1,0.6,0,1.1-0.2,1.4c-0.2,0.3-0.4,0.4-0.7,0.4c-0.3,0-0.6-0.1-0.9-0.3c-0.2-0.2-0.4-0.7-0.5-1.3C71.9,37.9,71.9,37.5,72.1,37.2z
		 M69.3,37.6c0.1-0.3,0.4-0.4,0.7-0.5c0.3-0.1,0.6,0,0.8,0.2c0.3,0.2,0.5,0.7,0.6,1.3c0.1,0.6,0.1,1.1-0.1,1.4
		c-0.1,0.3-0.4,0.4-0.7,0.5c-0.3,0.1-0.6,0-0.9-0.2c-0.2-0.2-0.4-0.7-0.5-1.3C69.1,38.4,69.1,37.9,69.3,37.6z M66.4,38.4
		c0.1-0.3,0.3-0.5,0.7-0.6c0.3-0.1,0.6,0,0.8,0.1c0.3,0.2,0.5,0.6,0.7,1.3c0.2,0.6,0.2,1.1,0.1,1.4c-0.1,0.3-0.3,0.5-0.7,0.6
		c-0.3,0.1-0.6,0-0.9-0.1c-0.3-0.2-0.5-0.6-0.7-1.2C66.3,39.2,66.3,38.7,66.4,38.4z M63.7,39.2c0.1-0.3,0.3-0.5,0.6-0.6
		c0.3-0.1,0.6-0.1,0.9,0.1c0.3,0.2,0.6,0.6,0.8,1.2c0.2,0.6,0.2,1.1,0.1,1.4c-0.1,0.3-0.3,0.5-0.6,0.6c-0.3,0.1-0.6,0.1-0.9-0.1
		c-0.3-0.2-0.5-0.6-0.7-1.2C63.7,40.1,63.6,39.6,63.7,39.2z M61,40.4c0.1-0.3,0.3-0.5,0.6-0.6c0.3-0.1,0.6-0.1,0.9,0
		c0.3,0.2,0.6,0.5,0.9,1.1c0.3,0.6,0.4,1.1,0.3,1.4c-0.1,0.3-0.3,0.5-0.6,0.6c-0.3,0.1-0.6,0.1-0.9,0c-0.3-0.2-0.6-0.5-0.8-1.1
		C61,41.2,60.9,40.7,61,40.4z M58.5,41.6c0.1-0.3,0.2-0.5,0.5-0.7c0.3-0.2,0.6-0.2,0.9,0c0.3,0.1,0.6,0.5,0.9,1.1
		c0.3,0.6,0.4,1,0.3,1.4c-0.1,0.3-0.2,0.5-0.5,0.7c-0.3,0.2-0.6,0.2-0.9,0c-0.3-0.1-0.6-0.5-0.9-1.1C58.5,42.5,58.4,42,58.5,41.6z
		 M56,43c0-0.3,0.2-0.5,0.5-0.7c0.3-0.2,0.6-0.2,0.9-0.1c0.3,0.1,0.7,0.5,1,1.1c0.3,0.6,0.5,1,0.4,1.4c0,0.3-0.2,0.5-0.5,0.7
		c-0.3,0.2-0.6,0.2-0.9,0.1c-0.3-0.1-0.6-0.5-1-1C56.1,43.8,56,43.4,56,43z M54,44c0.3-0.2,0.6-0.2,0.8-0.2c0.3,0.1,0.7,0.4,1.1,1
		c0.4,0.5,0.6,1,0.5,1.3c0,0.3-0.2,0.5-0.4,0.7c-0.3,0.2-0.6,0.2-0.9,0.2c-0.3-0.1-0.7-0.4-1-0.9c-0.4-0.5-0.6-1-0.5-1.3
		C53.6,44.4,53.7,44.2,54,44z M51.7,45.7c0.3-0.2,0.5-0.3,0.8-0.2c0.3,0.1,0.7,0.4,1.1,0.9c0.4,0.5,0.6,1,0.6,1.3
		c0,0.3-0.1,0.6-0.4,0.8c-0.3,0.2-0.6,0.3-0.9,0.2c-0.3-0.1-0.7-0.4-1.1-0.9c-0.4-0.5-0.6-0.9-0.6-1.3
		C51.3,46.1,51.5,45.9,51.7,45.7z M49.5,47.7c0.2-0.2,0.5-0.3,0.8-0.3c0.4,0.1,0.8,0.3,1.2,0.8c0.4,0.5,0.7,0.9,0.7,1.3
		c0,0.3-0.1,0.6-0.3,0.8c-0.2,0.2-0.5,0.3-0.9,0.3c-0.3,0-0.7-0.3-1.2-0.8c-0.4-0.5-0.7-0.9-0.7-1.2C49.1,48.2,49.3,47.9,49.5,47.7z
		 M47.5,49.7c0.2-0.2,0.5-0.3,0.8-0.3c0.4,0,0.8,0.3,1.2,0.7c0.5,0.4,0.7,0.9,0.8,1.2c0,0.3-0.1,0.6-0.3,0.8
		c-0.2,0.2-0.5,0.3-0.8,0.3c-0.3,0-0.7-0.3-1.2-0.7c-0.5-0.4-0.7-0.9-0.8-1.2C47.2,50.2,47.3,49.9,47.5,49.7z M45.5,51.9
		c0.2-0.3,0.5-0.4,0.8-0.4c0.4,0,0.8,0.2,1.3,0.6c0.5,0.4,0.8,0.8,0.9,1.1c0.1,0.3,0,0.6-0.2,0.8c-0.2,0.3-0.5,0.4-0.8,0.4
		c-0.3,0-0.8-0.2-1.3-0.6c-0.5-0.4-0.8-0.8-0.9-1.1C45.3,52.5,45.3,52.2,45.5,51.9z M43.8,54.2c0.2-0.3,0.4-0.4,0.7-0.4
		c0.4,0,0.8,0.2,1.3,0.5c0.5,0.4,0.8,0.7,1,1.1c0.1,0.3,0,0.6-0.2,0.8c-0.2,0.3-0.5,0.4-0.8,0.4c-0.3,0-0.8-0.2-1.3-0.5
		c-0.5-0.4-0.8-0.7-0.9-1.1C43.6,54.8,43.6,54.5,43.8,54.2z M42.2,56.7c0.2-0.3,0.4-0.5,0.7-0.5c0.4-0.1,0.8,0.1,1.4,0.4
		c0.6,0.3,0.9,0.7,1.1,1c0.1,0.3,0.1,0.6-0.1,0.9c-0.2,0.3-0.4,0.5-0.7,0.5c-0.3,0-0.8-0.1-1.3-0.4c-0.6-0.3-0.9-0.7-1-1
		C42,57.3,42,57,42.2,56.7z M39.8,61.6l1.2,0.6l0.6-1.2l-1.2-0.6l0.3-0.6l3.1,1.4l-0.3,0.6l-1.4-0.6l-0.6,1.2l1.4,0.6l-0.3,0.6
		l-3.1-1.4L39.8,61.6z M38.6,64.5c0.1-0.4,0.2-0.7,0.3-0.8c0.1-0.2,0.3-0.3,0.5-0.4c0.2-0.1,0.4-0.1,0.7,0c0.2,0.1,0.4,0.2,0.5,0.3
		c0.1,0.1,0.2,0.2,0.2,0.4c0,0.1,0.1,0.3,0,0.4c0,0.2-0.1,0.4-0.2,0.7l-0.1,0.4l1.2,0.4l-0.2,0.7l-3.3-1.1L38.6,64.5z M38.1,66
		l0.6,0.2l-0.4,1.6l2.7,0.8l-0.2,0.7l-3.3-0.9L38.1,66z M37,70.8c0.1-0.5,0.3-0.9,0.7-1.1c0.4-0.2,0.8-0.3,1.4-0.2
		c0.5,0.1,0.9,0.3,1.2,0.7c0.3,0.4,0.3,0.8,0.3,1.3c-0.1,0.5-0.3,0.9-0.7,1.1c-0.4,0.2-0.8,0.3-1.4,0.2c-0.3-0.1-0.6-0.2-0.8-0.3
		c-0.2-0.1-0.3-0.2-0.4-0.4c-0.1-0.2-0.2-0.3-0.2-0.5C36.9,71.4,36.9,71.1,37,70.8z M36.8,80.7c0.3-0.2,0.7-0.4,1.4-0.4
		c0.7,0,1.1,0,1.4,0.2c0.2,0.2,0.4,0.4,0.4,0.7c0,0.3-0.1,0.6-0.3,0.8c-0.2,0.2-0.7,0.4-1.4,0.4c-0.6,0-1.1,0-1.4-0.2
		c-0.2-0.2-0.4-0.4-0.4-0.7C36.5,81.2,36.6,80.9,36.8,80.7z M36.9,84.5c-0.1-0.3,0-0.6,0.2-0.8c0.2-0.3,0.7-0.5,1.3-0.6
		c0.6-0.1,1.1-0.1,1.4,0.1c0.3,0.1,0.4,0.4,0.5,0.7c0.1,0.3,0,0.6-0.2,0.9c-0.2,0.2-0.7,0.4-1.3,0.5c-0.6,0.1-1.1,0.1-1.4-0.1
		C37.1,85.1,37,84.9,36.9,84.5z M37.4,87.3c-0.1-0.3,0-0.6,0.2-0.8c0.2-0.3,0.7-0.5,1.3-0.6c0.6-0.1,1.1-0.1,1.4,0
		c0.3,0.1,0.4,0.4,0.5,0.7c0.1,0.3,0,0.6-0.2,0.9c-0.2,0.3-0.6,0.5-1.3,0.6c-0.6,0.1-1.1,0.1-1.4,0C37.7,87.9,37.5,87.7,37.4,87.3z
		 M38.2,90.1c-0.1-0.3,0-0.6,0.1-0.8c0.2-0.3,0.6-0.5,1.3-0.7c0.6-0.2,1.1-0.2,1.4-0.1c0.3,0.1,0.5,0.3,0.6,0.7
		c0.1,0.3,0,0.6-0.1,0.9c-0.2,0.3-0.6,0.5-1.2,0.7c-0.6,0.2-1.1,0.2-1.4,0.1C38.5,90.6,38.3,90.4,38.2,90.1z M39.8,93.5
		c-0.3-0.1-0.5-0.3-0.6-0.6c-0.1-0.3-0.1-0.6,0-0.9c0.2-0.3,0.6-0.6,1.2-0.8c0.6-0.2,1.1-0.3,1.4-0.2c0.3,0.1,0.5,0.3,0.6,0.6
		c0.1,0.3,0.1,0.6-0.1,0.9c-0.2,0.3-0.6,0.6-1.2,0.8C40.6,93.6,40.1,93.6,39.8,93.5z M40.9,96.1c-0.3-0.1-0.5-0.3-0.6-0.6
		c-0.1-0.3-0.1-0.6,0-0.9c0.2-0.3,0.5-0.6,1.1-0.9c0.6-0.3,1.1-0.4,1.4-0.3c0.3,0.1,0.5,0.3,0.6,0.6c0.1,0.3,0.1,0.6,0,0.9
		c-0.2,0.3-0.5,0.6-1.1,0.8C41.7,96.1,41.3,96.2,40.9,96.1z M42.3,98.7c-0.3,0-0.5-0.2-0.7-0.5c-0.2-0.3-0.2-0.6-0.1-0.9
		c0.1-0.3,0.5-0.7,1.1-1c0.6-0.3,1-0.5,1.4-0.4c0.3,0,0.5,0.2,0.7,0.5c0.2,0.3,0.2,0.6,0.1,0.9c-0.1,0.3-0.5,0.6-1,1
		C43.2,98.6,42.7,98.8,42.3,98.7z M43.1,100.6c-0.2-0.3-0.2-0.6-0.1-0.9c0.1-0.3,0.4-0.7,1-1c0.5-0.4,1-0.5,1.4-0.5
		c0.3,0,0.5,0.2,0.7,0.5c0.2,0.3,0.2,0.6,0.1,0.9c-0.1,0.3-0.4,0.6-1,1c-0.5,0.4-1,0.5-1.4,0.5C43.5,101.1,43.3,100.9,43.1,100.6z
		 M44.8,103.1c-0.2-0.3-0.3-0.5-0.2-0.8c0.1-0.3,0.4-0.7,0.9-1.1c0.5-0.4,1-0.6,1.3-0.6c0.3,0,0.6,0.1,0.8,0.4
		c0.2,0.3,0.3,0.6,0.2,0.9c-0.1,0.3-0.4,0.7-0.9,1.1c-0.5,0.4-0.9,0.6-1.3,0.6C45.3,103.5,45,103.3,44.8,103.1z M47.4,105.6
		c-0.3,0-0.6-0.1-0.8-0.4c-0.2-0.3-0.3-0.5-0.2-0.8c0.1-0.4,0.3-0.7,0.8-1.2c0.5-0.4,0.9-0.6,1.3-0.7c0.3,0,0.6,0.1,0.8,0.4
		c0.2,0.3,0.3,0.5,0.2,0.9c-0.1,0.3-0.3,0.7-0.8,1.1C48.2,105.4,47.8,105.6,47.4,105.6z M48.7,107.5c-0.2-0.2-0.3-0.5-0.3-0.8
		c0-0.4,0.3-0.8,0.7-1.2c0.4-0.5,0.9-0.7,1.2-0.8c0.3,0,0.6,0.1,0.8,0.3c0.2,0.2,0.3,0.5,0.3,0.8c0,0.3-0.3,0.7-0.7,1.2
		c-0.4,0.5-0.9,0.7-1.2,0.8C49.2,107.8,48.9,107.7,48.7,107.5z M51.6,109.6c-0.3,0.1-0.6,0-0.8-0.2c-0.3-0.2-0.4-0.5-0.4-0.8
		c0-0.4,0.2-0.8,0.7-1.3c0.4-0.5,0.8-0.8,1.2-0.8c0.3-0.1,0.6,0,0.8,0.2c0.3,0.2,0.4,0.5,0.4,0.8c0,0.3-0.2,0.7-0.7,1.2
		C52.3,109.3,52,109.6,51.6,109.6z M53.8,111.4c-0.3,0.1-0.6,0-0.8-0.2c-0.3-0.2-0.4-0.5-0.4-0.8c0-0.4,0.2-0.8,0.6-1.3
		c0.4-0.5,0.8-0.8,1.1-0.9c0.3-0.1,0.6,0,0.8,0.2c0.3,0.2,0.4,0.5,0.4,0.8s-0.2,0.8-0.6,1.3C54.5,111,54.1,111.3,53.8,111.4z
		 M57.3,112c-0.3,0.5-0.7,0.9-1,1c-0.3,0.1-0.6,0.1-0.8-0.1c-0.3-0.2-0.4-0.4-0.5-0.7c0-0.4,0.1-0.8,0.5-1.4c0.4-0.5,0.7-0.9,1-1
		c0.3-0.1,0.6-0.1,0.8,0.1c0.3,0.2,0.4,0.4,0.5,0.8C57.8,111,57.7,111.5,57.3,112z M60.2,115.5l0.6-1.2l-1.2-0.6l-0.6,1.2l-0.6-0.3
		l1.6-3.1l0.6,0.3l-0.7,1.3l1.2,0.6l0.7-1.3l0.6,0.3l-1.6,3.1L60.2,115.5z M63,116.7c-0.4-0.2-0.6-0.3-0.7-0.3
		c-0.2-0.1-0.3-0.3-0.3-0.5c-0.1-0.2,0-0.4,0.1-0.7c0.1-0.2,0.2-0.3,0.3-0.5c0.1-0.1,0.3-0.2,0.4-0.2c0.1,0,0.3,0,0.4,0
		c0.2,0,0.4,0.1,0.7,0.2l0.4,0.2l0.5-1.2l0.6,0.3l-1.3,3.2L63,116.7z M67,118l-2.2-0.6l0.2-0.6l1.6,0.4l0.8-2.7l0.7,0.2L67,118z
		 M71.3,117.3c-0.1,0.3-0.2,0.6-0.4,0.8c-0.1,0.2-0.3,0.3-0.4,0.4c-0.2,0.1-0.3,0.2-0.5,0.2c-0.2,0-0.5,0-0.8,0
		c-0.5-0.1-0.9-0.4-1.1-0.7c-0.2-0.4-0.3-0.8-0.1-1.4c0.1-0.5,0.4-0.9,0.7-1.2c0.4-0.2,0.8-0.3,1.3-0.2c0.5,0.1,0.9,0.4,1.1,0.7
		C71.4,116.3,71.5,116.8,71.3,117.3z M41.2,78c0-20.2,16.5-36.7,36.7-36.7s36.7,16.5,36.7,36.7S98.2,114.7,78,114.7
		S41.2,98.2,41.2,78z M86.7,118.3c-0.1,0.3-0.4,0.4-0.7,0.5c-0.3,0.1-0.6,0-0.8-0.2c-0.3-0.2-0.5-0.7-0.6-1.3
		c-0.1-0.6-0.1-1.1,0.1-1.4c0.1-0.3,0.4-0.4,0.7-0.5c0.3-0.1,0.6,0,0.9,0.2c0.2,0.2,0.4,0.7,0.5,1.3C86.9,117.5,86.8,118,86.7,118.3
		z M89.5,117.5c-0.1,0.3-0.3,0.5-0.7,0.6c-0.3,0.1-0.6,0-0.8-0.1c-0.3-0.2-0.5-0.6-0.7-1.3c-0.2-0.6-0.2-1.1-0.1-1.4
		c0.1-0.3,0.3-0.5,0.7-0.6c0.3-0.1,0.6,0,0.9,0.1c0.3,0.2,0.5,0.6,0.7,1.2C89.7,116.7,89.7,117.2,89.5,117.5z M92.2,116.7
		c-0.1,0.3-0.3,0.5-0.6,0.6c-0.3,0.1-0.6,0.1-0.9-0.1c-0.3-0.2-0.6-0.6-0.8-1.2c-0.2-0.6-0.2-1.1-0.1-1.4c0.1-0.3,0.3-0.5,0.6-0.6
		c0.3-0.1,0.6-0.1,0.9,0.1c0.3,0.2,0.5,0.6,0.7,1.2C92.3,115.8,92.3,116.3,92.2,116.7z M95,115.5c-0.1,0.3-0.3,0.5-0.6,0.6v0
		c-0.3,0.1-0.6,0.1-0.9,0c-0.3-0.2-0.6-0.5-0.9-1.1c-0.3-0.6-0.4-1.1-0.3-1.4c0.1-0.3,0.3-0.5,0.6-0.6c0.3-0.1,0.6-0.1,0.9,0
		c0.3,0.2,0.6,0.5,0.8,1.1C95,114.7,95.1,115.1,95,115.5z M97.5,114.2c-0.1,0.3-0.2,0.5-0.5,0.7c-0.3,0.2-0.6,0.2-0.9,0
		c-0.3-0.1-0.6-0.5-0.9-1.1c-0.3-0.6-0.4-1-0.3-1.4c0.1-0.3,0.2-0.5,0.5-0.7c0.3-0.2,0.6-0.2,0.9,0c0.3,0.1,0.6,0.5,0.9,1.1
		C97.5,113.4,97.6,113.9,97.5,114.2z M99.6,113.5c-0.3,0.2-0.6,0.2-0.9,0.1c-0.3-0.1-0.7-0.4-1-1c-0.4-0.5-0.5-1-0.5-1.4
		c0-0.3,0.2-0.5,0.5-0.7c0.3-0.2,0.6-0.2,0.9-0.1c0.3,0.1,0.6,0.4,1,1c0.4,0.5,0.5,1,0.5,1.4C100,113,99.9,113.3,99.6,113.5z
		 M102,111.9c-0.3,0.2-0.6,0.2-0.8,0.2c-0.3-0.1-0.7-0.4-1.1-1c-0.4-0.5-0.6-1-0.5-1.3c0-0.3,0.2-0.5,0.4-0.7
		c0.3-0.2,0.6-0.2,0.9-0.2c0.3,0.1,0.7,0.4,1,0.9c0.4,0.5,0.6,1,0.5,1.3C102.4,111.5,102.2,111.7,102,111.9z M104.2,110.2
		c-0.3,0.2-0.5,0.3-0.8,0.2c-0.3-0.1-0.7-0.4-1.1-0.9c-0.4-0.5-0.6-1-0.6-1.3c0-0.3,0.1-0.6,0.4-0.8c0.3-0.2,0.6-0.3,0.9-0.2
		c0.3,0.1,0.7,0.4,1.1,0.9c0.4,0.5,0.6,0.9,0.6,1.3C104.6,109.7,104.5,110,104.2,110.2z M106.5,108.2c-0.2,0.2-0.5,0.3-0.8,0.3
		c-0.4-0.1-0.8-0.3-1.2-0.8c-0.4-0.5-0.7-0.9-0.7-1.3c0-0.3,0.1-0.6,0.3-0.8c0.2-0.2,0.5-0.3,0.9-0.3c0.3,0,0.7,0.3,1.2,0.8
		c0.4,0.5,0.7,0.9,0.7,1.2C106.8,107.7,106.7,108,106.5,108.2z M108.5,106.2c-0.2,0.2-0.5,0.3-0.8,0.3c-0.4,0-0.8-0.3-1.2-0.7
		c-0.5-0.4-0.7-0.9-0.8-1.2c0-0.3,0.1-0.6,0.3-0.8c0.2-0.2,0.5-0.3,0.8-0.3c0.3,0,0.7,0.3,1.2,0.7c0.5,0.4,0.7,0.9,0.8,1.2
		C108.8,105.7,108.7,105.9,108.5,106.2z M110.4,103.9c-0.2,0.3-0.5,0.4-0.8,0.4c-0.4,0-0.8-0.2-1.3-0.6c-0.5-0.4-0.8-0.8-0.9-1.1
		c-0.1-0.3,0-0.6,0.2-0.8c0.2-0.3,0.5-0.4,0.8-0.4c0.3,0,0.8,0.2,1.3,0.6c0.5,0.4,0.8,0.8,0.9,1.1
		C110.7,103.4,110.6,103.7,110.4,103.9z M112.1,101.6c-0.2,0.3-0.4,0.4-0.7,0.4c-0.4,0-0.8-0.2-1.3-0.5c-0.5-0.4-0.8-0.7-1-1.1
		c-0.1-0.3,0-0.6,0.2-0.8c0.2-0.3,0.5-0.4,0.8-0.4c0.3,0,0.8,0.2,1.3,0.5c0.5,0.4,0.8,0.7,0.9,1.1
		C112.4,101.1,112.3,101.4,112.1,101.6z M113.7,99.1c-0.2,0.3-0.4,0.5-0.7,0.5c-0.4,0.1-0.8-0.1-1.4-0.4c-0.6-0.3-0.9-0.7-1.1-1
		c-0.1-0.3-0.1-0.6,0.1-0.9c0.2-0.3,0.4-0.5,0.7-0.5c0.3,0,0.8,0.1,1.3,0.4c0.6,0.3,0.9,0.7,1,1C113.9,98.5,113.9,98.8,113.7,99.1z
		 M115.1,96.6L115.1,96.6c-0.2,0.3-0.4,0.5-0.7,0.5c-0.4,0.1-0.8,0-1.4-0.3c-0.6-0.3-0.9-0.6-1.1-0.9c-0.1-0.3-0.1-0.6,0-0.9
		c0.2-0.3,0.4-0.5,0.7-0.5c0.3-0.1,0.8,0.1,1.4,0.4c0.6,0.3,0.9,0.6,1.1,0.9C115.3,96,115.2,96.3,115.1,96.6z M117.2,91.5L116,91
		l-0.4,1.3l1.3,0.4l-0.2,0.7l-3.3-1.1l0.2-0.7l1.4,0.5l0.4-1.3l-1.4-0.5l0.2-0.7l3.3,1.1L117.2,91.5z M118.1,88.7
		c-0.1,0.4-0.2,0.7-0.3,0.8c-0.1,0.2-0.3,0.3-0.5,0.4s-0.4,0.1-0.7,0c-0.2-0.1-0.4-0.1-0.5-0.3c-0.1-0.1-0.2-0.2-0.2-0.4
		c0-0.1-0.1-0.3-0.1-0.4c0-0.2,0.1-0.4,0.1-0.7l0.1-0.4l-1.2-0.4l0.2-0.7l3.3,0.9L118.1,88.7z M118.6,86.9l-0.6-0.1l0.3-1.6
		l-2.8-0.5l0.1-0.7l3.4,0.6L118.6,86.9z"/>
	<path class="st3" d="M113.7,95.4c-0.4-0.2-0.6-0.3-0.8-0.3c-0.2,0-0.3,0-0.3,0c-0.1,0-0.1,0.1-0.2,0.2c0,0.1,0,0.1,0,0.2
		c0,0.1,0.1,0.2,0.2,0.3c0.1,0.1,0.4,0.3,0.7,0.5c0.4,0.2,0.6,0.3,0.8,0.3c0.2,0,0.3,0,0.3,0c0.1,0,0.1-0.1,0.2-0.2
		c0-0.1,0-0.1,0-0.2c0-0.1-0.1-0.2-0.2-0.3C114.3,95.8,114.1,95.6,113.7,95.4z"/>
	<path class="st3" d="M112.4,97.9c-0.4-0.2-0.6-0.3-0.8-0.4c-0.2,0-0.3,0-0.3,0c-0.1,0-0.1,0.1-0.2,0.1c0,0.1-0.1,0.1,0,0.2
		c0,0.1,0.1,0.2,0.2,0.3c0.1,0.1,0.4,0.3,0.7,0.5c0.4,0.2,0.6,0.3,0.8,0.4c0.2,0,0.3,0,0.3,0c0.1,0,0.1-0.1,0.2-0.1
		c0-0.1,0.1-0.1,0-0.2c0-0.1-0.1-0.2-0.2-0.3C113,98.2,112.8,98.1,112.4,97.9z"/>
	<path class="st3" d="M56.8,110.3c-0.1,0-0.2,0.1-0.3,0.2c-0.1,0.1-0.3,0.3-0.5,0.7c-0.2,0.3-0.4,0.6-0.4,0.7c0,0.1-0.1,0.3,0,0.3
		c0,0.1,0.1,0.1,0.1,0.2c0.1,0,0.1,0.1,0.2,0c0.1,0,0.2-0.1,0.3-0.2c0.1-0.1,0.3-0.4,0.5-0.7c0.2-0.3,0.4-0.6,0.4-0.7
		c0-0.1,0.1-0.3,0-0.3c0-0.1-0.1-0.1-0.1-0.2C57,110.4,56.9,110.3,56.8,110.3z"/>
	<path class="st3" d="M110.9,100.3c-0.3-0.2-0.6-0.4-0.7-0.4c-0.1-0.1-0.3-0.1-0.3-0.1c-0.1,0-0.1,0.1-0.2,0.1
		c0,0.1-0.1,0.1-0.1,0.2c0,0.1,0.1,0.2,0.1,0.3c0.1,0.1,0.3,0.3,0.7,0.6c0.3,0.2,0.6,0.4,0.7,0.4c0.1,0.1,0.3,0.1,0.3,0.1
		c0.1,0,0.1-0.1,0.2-0.1c0-0.1,0.1-0.1,0.1-0.2c0-0.1-0.1-0.2-0.1-0.3C111.5,100.7,111.3,100.5,110.9,100.3z"/>
	<path class="st3" d="M109.3,102.5c-0.3-0.3-0.5-0.4-0.7-0.5c-0.1-0.1-0.3-0.1-0.3-0.1c-0.1,0-0.1,0.1-0.2,0.1
		c0,0.1-0.1,0.1-0.1,0.2c0,0.1,0,0.2,0.1,0.3c0.1,0.1,0.3,0.3,0.6,0.6c0.3,0.3,0.5,0.4,0.7,0.5c0.1,0.1,0.3,0.1,0.3,0.1
		c0.1,0,0.1-0.1,0.2-0.1c0-0.1,0.1-0.1,0.1-0.2c0-0.1,0-0.2-0.1-0.3C109.8,102.9,109.6,102.7,109.3,102.5z"/>
	<path class="st3" d="M106.8,104.1c-0.1-0.1-0.2-0.1-0.3-0.1c-0.1,0-0.1,0-0.2,0.1c-0.1,0.1-0.1,0.1-0.1,0.2c0,0.1,0,0.2,0.1,0.3
		c0.1,0.1,0.3,0.4,0.6,0.6c0.3,0.3,0.5,0.5,0.6,0.5c0.1,0.1,0.2,0.1,0.3,0.1c0.1,0,0.1,0,0.2-0.1v0c0.1-0.1,0.1-0.1,0.1-0.2
		c0-0.1,0-0.2-0.1-0.3c-0.1-0.2-0.3-0.4-0.6-0.6C107.2,104.4,107,104.2,106.8,104.1z"/>
</g>
</svg>
