<?xml version="1.0" encoding="UTF-8" standalone="no"?>
<svg
   xmlns:dc="http://purl.org/dc/elements/1.1/"
   xmlns:cc="http://creativecommons.org/ns#"
   xmlns:rdf="http://www.w3.org/1999/02/22-rdf-syntax-ns#"
   xmlns:svg="http://www.w3.org/2000/svg"
   xmlns="http://www.w3.org/2000/svg"
   viewBox="0 0 155.9055 155.9055"
   id="svg26"
   height="155.9055"
   width="155.9055"
   version="1.1">
  <metadata
     id="metadata32">
    <rdf:RDF>
      <cc:Work
         rdf:about="">
        <dc:format>image/svg+xml</dc:format>
        <dc:type
           rdf:resource="http://purl.org/dc/dcmitype/StillImage" />
      </cc:Work>
    </rdf:RDF>
  </metadata>
  <defs
     id="defs30" />
  <path
     id="path2"
     style="fill:none;stroke:#1b1918;stroke-width:1.41729999;stroke-linecap:butt;stroke-linejoin:miter;stroke-dasharray:none"
     d="m 77.9528,21.2598 c 31.3106,0 56.6929,25.3823 56.6929,56.693 0,31.3106 -25.3823,56.6929 -56.6929,56.6929 -31.3107,0 -56.693,-25.3823 -56.693,-56.6929 0,-31.3107 25.3823,-56.693 56.693,-56.693 z" />
  <path
     id="path4"
     style="fill:none;stroke:#1b1918;stroke-width:0.7087;stroke-linecap:butt;stroke-linejoin:miter;stroke-dasharray:none"
     d="m 77.9528,23.5984 c 30.0191,0 54.3543,24.3352 54.3543,54.3544 0,30.0191 -24.3352,54.3543 -54.3543,54.3543 -30.0192,0 -54.3544,-24.3352 -54.3544,-54.3543 0,-30.0192 24.3352,-54.3544 54.3544,-54.3544 z" />
  <path
     id="path6"
     style="fill:none;stroke:#1b1918;stroke-width:0.7087;stroke-linecap:butt;stroke-linejoin:miter;stroke-dasharray:none"
     d="m 77.9528,42.8051 c 19.4116,0 35.1476,15.736 35.1476,35.1477 0,19.4116 -15.736,35.1476 -35.1476,35.1476 -19.4117,0 -35.1477,-15.736 -35.1477,-35.1476 0,-19.4117 15.736,-35.1477 35.1477,-35.1477 z" />
  <path
     id="path8"
     style="fill:#1b1918;fill-rule:evenodd"
     d="m 54.7172,110.8412 c -0.4697,0.6026 -1.0004,0.9484 -1.5906,1.0369 -0.5898,0.0884 -1.1403,-0.0672 -1.6534,-0.4669 -0.3362,-0.2616 -0.5754,-0.5777 -0.7211,-0.9479 -0.1443,-0.3696 -0.1758,-0.7534 -0.0936,-1.1503 0.0814,-0.3966 0.2634,-0.777 0.5463,-1.1401 0.2871,-0.3682 0.6185,-0.6403 0.9941,-0.8147 0.3756,-0.1749 0.758,-0.2307 1.1466,-0.1672 0.39,0.0629 0.7429,0.218 1.0587,0.464 0.3427,0.267 0.5834,0.5879 0.7248,0.9638 0.1406,0.3747 0.1701,0.7594 0.0862,1.1537 -0.0836,0.3932 -0.2494,0.7495 -0.498,1.0687 z m -0.4916,-0.3963 c 0.341,-0.4374 0.4918,-0.8737 0.4522,-1.3085 -0.0392,-0.4348 -0.2362,-0.7911 -0.5919,-1.0681 -0.3623,-0.2823 -0.7583,-0.3866 -1.1908,-0.3155 -0.4312,0.072 -0.8292,0.3416 -1.1931,0.8087 -0.2302,0.2954 -0.3813,0.5925 -0.453,0.8904 -0.0715,0.2982 -0.0581,0.5831 0.0394,0.8538 0.0989,0.2713 0.2673,0.5006 0.5068,0.6874 0.3402,0.265 0.724,0.3762 1.1517,0.3339 0.4272,-0.0422 0.8535,-0.3362 1.2787,-0.8821 z m -5.9215,-1.8774 -2.0787,-2.1546 0.3892,-0.3753 1.654,1.7144 1.0242,-0.9882 -0.7645,-0.7923 c -0.2823,-0.2928 -0.4791,-0.5522 -0.5893,-0.7795 -0.1114,-0.2265 -0.1398,-0.466 -0.0851,-0.72 0.0539,-0.2534 0.1837,-0.4788 0.3892,-0.6769 0.1675,-0.1616 0.3603,-0.2758 0.5774,-0.341 0.2183,-0.0661 0.4445,-0.0695 0.6795,-0.01 0.2341,0.0587 0.5241,0.2665 0.8677,0.6225 l 1.2537,1.2997 z m 2.5177,-3.2788 -0.8473,-0.8782 c -0.2287,-0.237 -0.4479,-0.3685 -0.6593,-0.394 -0.2106,-0.0253 -0.4122,0.0547 -0.6044,0.2401 -0.1374,0.1326 -0.2188,0.2769 -0.2454,0.4337 -0.0261,0.1564 0.0036,0.3095 0.0895,0.4589 0.0868,0.1502 0.271,0.3708 0.5519,0.6619 l 0.5658,0.5862 z m -6.2238,-0.7563 -0.356,-0.4975 3.3086,-2.3686 -0.8881,-1.2408 -3.3089,2.3687 -0.356,-0.4975 3.3089,-2.3686 -0.8884,-1.2408 -3.3086,2.3687 -0.356,-0.4972 3.3089,-2.3687 -0.2401,-0.335 1.4816,-1.0607 0.315,0.4399 -1.0418,0.7458 2.7695,3.8687 z m 0.0811,-8.1978 -4.1162,2.0758 -1.4986,-2.9721 0.4827,-0.2435 1.2234,2.4259 1.2648,-0.6378 -1.1452,-2.2709 0.4831,-0.2435 1.1449,2.2709 1.4029,-0.7076 -1.2728,-2.5236 0.483,-0.2435 z M 39.9951,89.356 39.941,88.7278 c 0.5153,-0.0436 0.9505,0.0488 1.3073,0.2761 0.3572,0.2271 0.6149,0.5672 0.7719,1.0205 0.1622,0.4683 0.199,0.8824 0.1092,1.243 -0.0888,0.3603 -0.2883,0.6789 -0.597,0.9575 -0.3101,0.2789 -0.6718,0.4904 -1.0874,0.6344 -0.4535,0.157 -0.8787,0.2081 -1.2761,0.1514 -0.398,-0.0561 -0.7399,-0.2138 -1.0259,-0.4723 -0.2863,-0.2585 -0.4952,-0.5802 -0.6279,-0.9635 -0.1511,-0.4359 -0.1672,-0.8404 -0.0479,-1.2132 0.1191,-0.3742 0.3589,-0.6888 0.7197,-0.9445 l 0.33,0.5196 c -0.2818,0.2098 -0.4621,0.4368 -0.5395,0.6783 -0.0788,0.2421 -0.0668,0.5083 0.0341,0.7994 0.1156,0.3333 0.2925,0.5856 0.5303,0.754 0.2379,0.1687 0.5086,0.252 0.8096,0.2486 0.3022,-0.0023 0.597,-0.0536 0.8838,-0.1528 0.3702,-0.1284 0.6753,-0.2939 0.9137,-0.4969 0.2395,-0.2035 0.3872,-0.4419 0.4456,-0.7166 0.0581,-0.2744 0.0411,-0.5434 -0.0505,-0.8082 C 41.432,89.9203 41.2447,89.6808 40.9819,89.5221 40.718,89.3636 40.39,89.3081 39.9951,89.356 Z m 0.8334,-3.3608 -3.9648,0.915 0.3416,1.4809 -0.527,0.1216 -0.8209,-3.5572 0.527,-0.1216 0.3416,1.4808 3.9651,-0.9153 z m -0.5975,-3.2726 -4.5967,0.3507 -0.1315,-1.7249 c -0.0266,-0.351 -0.0023,-0.6361 0.0748,-0.8561 0.0769,-0.2185 0.2075,-0.3954 0.3921,-0.5301 0.1834,-0.1357 0.3809,-0.2111 0.593,-0.2273 0.1959,-0.0147 0.3846,0.0244 0.5663,0.1174 0.1815,0.0926 0.334,0.2426 0.457,0.4495 0.0604,-0.2846 0.1831,-0.5094 0.3688,-0.6729 0.1839,-0.1647 0.4107,-0.2574 0.678,-0.2778 0.2163,-0.0165 0.4198,0.0144 0.612,0.0913 0.1919,0.0768 0.3427,0.1783 0.4536,0.3041 0.1097,0.1262 0.1987,0.2886 0.265,0.4856 0.0669,0.1984 0.1114,0.4436 0.1338,0.737 z M 37.5202,82.3158 37.4445,81.3217 C 37.4238,81.0524 37.391,80.86 37.3467,80.746 c -0.0578,-0.1516 -0.144,-0.2625 -0.2568,-0.3322 -0.1128,-0.07 -0.2497,-0.0995 -0.411,-0.0873 -0.1534,0.0116 -0.2852,0.0584 -0.3952,0.1412 -0.1111,0.0816 -0.1834,0.1927 -0.2157,0.3319 -0.0326,0.1389 -0.0363,0.3739 -0.011,0.7033 l 0.07,0.9192 z m 2.1249,-0.1621 -0.0873,-1.1446 c -0.0151,-0.197 -0.0329,-0.3345 -0.0539,-0.4136 -0.0351,-0.1372 -0.0862,-0.2517 -0.1519,-0.3416 -0.0661,-0.0896 -0.1576,-0.1599 -0.2747,-0.2123 -0.1168,-0.0524 -0.2486,-0.0726 -0.3954,-0.0615 -0.1721,0.0133 -0.3178,0.0683 -0.438,0.167 -0.1208,0.0975 -0.2004,0.2262 -0.2395,0.3863 -0.0397,0.159 -0.0482,0.3858 -0.0261,0.6778 l 0.0814,1.0635 z M 37.709,78.1563 c -0.7639,-0.0224 -1.3564,-0.2458 -1.7767,-0.669 -0.4201,-0.4235 -0.6206,-0.9595 -0.6016,-1.6095 0.0122,-0.4261 0.1253,-0.8059 0.3379,-1.1421 0.2126,-0.335 0.5035,-0.5876 0.8723,-0.756 0.3679,-0.1689 0.782,-0.2469 1.2424,-0.2336 0.4666,0.0136 0.8821,0.1199 1.2447,0.3198 0.3634,0.1993 0.6344,0.4745 0.8129,0.8254 0.18,0.3518 0.2637,0.728 0.252,1.1282 -0.0124,0.4343 -0.1289,0.8184 -0.348,1.1546 -0.2192,0.335 -0.512,0.5862 -0.8796,0.7517 -0.3666,0.165 -0.7521,0.2421 -1.1563,0.2305 z m 0.0289,-0.6304 c 0.5545,0.0161 0.9953,-0.1205 1.3224,-0.4094 0.3277,-0.2888 0.4983,-0.6585 0.5114,-1.1092 0.0133,-0.4589 -0.1367,-0.8402 -0.4499,-1.1469 -0.3132,-0.305 -0.7659,-0.4665 -1.3581,-0.4835 -0.3742,-0.0111 -0.703,0.043 -0.9856,0.1612 -0.2829,0.1185 -0.5046,0.298 -0.6653,0.5369 -0.1604,0.2401 -0.2457,0.5114 -0.2545,0.815 -0.0125,0.4311 0.125,0.8064 0.4121,1.1262 0.2866,0.3197 0.7759,0.4895 1.4675,0.5097 z m 2.0778,-10.4012 0.2889,-0.5607 c 0.4592,0.2378 0.7784,0.5477 0.9592,0.93 0.1814,0.3827 0.2183,0.8076 0.1097,1.2748 -0.1122,0.483 -0.3016,0.8529 -0.5698,1.1103 -0.2667,0.2577 -0.6054,0.421 -1.0153,0.4924 -0.4108,0.0709 -0.8294,0.0573 -1.258,-0.0422 -0.4675,-0.1086 -0.8544,-0.292 -1.1608,-0.5517 -0.3067,-0.2593 -0.5122,-0.5748 -0.6168,-0.9459 -0.1044,-0.3716 -0.1097,-0.7548 -0.0182,-1.15 0.1046,-0.4496 0.3062,-0.8005 0.6061,-1.0525 0.2999,-0.2531 0.6701,-0.3918 1.112,-0.4158 l 0.0023,0.6154 c -0.3501,0.0275 -0.6234,0.1235 -0.8176,0.2868 -0.1955,0.1627 -0.3274,0.3943 -0.3971,0.6945 -0.0799,0.3439 -0.0643,0.6514 0.0474,0.9207 0.1114,0.2696 0.2959,0.4844 0.5524,0.6418 0.2574,0.1587 0.5338,0.2727 0.8297,0.3413 0.3816,0.0884 0.728,0.1108 1.0378,0.066 0.3112,-0.0448 0.5632,-0.1678 0.7588,-0.3691 0.1953,-0.2015 0.3243,-0.4379 0.3875,-0.7109 0.0774,-0.3325 0.0462,-0.635 -0.0915,-0.9091 -0.1392,-0.2746 -0.3873,-0.4963 -0.7467,-0.6661 z m 0.665,-3.93 c -0.697,-0.3132 -1.1588,-0.7463 -1.385,-1.2985 -0.2259,-0.5522 -0.2052,-1.1242 0.0612,-1.7172 0.1747,-0.3887 0.4247,-0.6962 0.7498,-0.9256 0.3246,-0.2279 0.69,-0.3497 1.095,-0.3639 0.4045,-0.015 0.8173,0.0714 1.2374,0.2602 0.4257,0.1913 0.7687,0.4487 1.0269,0.7722 0.2594,0.3234 0.4043,0.6817 0.4349,1.074 0.0314,0.394 -0.0355,0.7736 -0.1993,1.1387 -0.1783,0.3963 -0.4328,0.7064 -0.7642,0.9329 -0.3308,0.2256 -0.6976,0.3455 -1.1004,0.3574 -0.402,0.0122 -0.7875,-0.0643 -1.1563,-0.2302 z m 0.2682,-0.5711 c 0.506,0.2273 0.9655,0.2704 1.3785,0.1287 0.413,-0.1415 0.7123,-0.4176 0.8971,-0.8286 0.188,-0.419 0.1956,-0.8286 0.0238,-1.2317 -0.1723,-0.4019 -0.5286,-0.7245 -1.0689,-0.9671 -0.3416,-0.1537 -0.6661,-0.2297 -0.9723,-0.2288 -0.3067,0.0011 -0.5802,0.0819 -0.8203,0.2409 -0.2401,0.1605 -0.423,0.3785 -0.5471,0.6554 -0.1769,0.3935 -0.1939,0.7929 -0.051,1.1979 0.1423,0.4054 0.5289,0.7498 1.1602,1.0333 z m 0.4235,-6.23 1.616,-2.5047 0.4544,0.2931 -1.2844,1.9908 3.4192,2.2062 -0.3317,0.5142 z m 6.1205,-0.8864 -3.6365,-2.8332 1.0698,-1.3729 c 0.1879,-0.2415 0.3435,-0.4167 0.466,-0.5266 0.1687,-0.1554 0.3421,-0.2608 0.5196,-0.3175 0.178,-0.0556 0.3705,-0.0621 0.578,-0.019 0.2069,0.0431 0.4005,0.1352 0.5808,0.2758 0.3081,0.2398 0.4932,0.542 0.5527,0.9054 0.0613,0.3631 -0.1097,0.8028 -0.5108,1.3175 l -0.7265,0.9326 1.4828,1.1554 z m -1.5335,-1.9704 0.7319,-0.9394 c 0.2427,-0.3115 0.3563,-0.5765 0.343,-0.7979 -0.0147,-0.2209 -0.1264,-0.4128 -0.337,-0.5769 -0.1517,-0.1179 -0.3116,-0.1817 -0.4799,-0.1888 -0.1684,-0.0076 -0.3198,0.038 -0.4519,0.1364 -0.0845,0.0649 -0.2123,0.2058 -0.3818,0.4235 l -0.7248,0.93 z m 3.977,-1.1406 -1.9284,-4.5454 0.4827,-0.4657 4.5513,2.0143 -0.4994,0.4821 -1.3538,-0.6352 -1.397,1.3476 0.6103,1.3527 z m -0.36,-2.2833 1.1305,-1.0908 -1.2331,-0.5859 c -0.3742,-0.1789 -0.6755,-0.3337 -0.9062,-0.4632 0.163,0.2602 0.307,0.5312 0.4331,0.8152 z m 4.3248,-1.4035 -2.8505,-3.6229 0.4805,-0.3782 1.1747,1.493 1.872,-1.4731 -1.1744,-1.4928 0.4807,-0.3784 2.8505,3.623 -0.4807,0.3784 -1.3417,-1.705 -1.8722,1.4728 1.3416,1.7051 z m 1.9205,-7.0492 0.4791,-0.2778 1.8314,3.1581 0.2914,-4.3892 0.5227,-0.303 2.3125,3.9881 -0.479,0.2778 -1.8264,-3.1496 -0.2911,4.3775 -0.5281,0.3062 z m 9.972,0.3475 -0.5698,0.222 -0.674,-1.7297 c -0.4363,0.3878 -0.8462,0.6568 -1.2291,0.8062 -0.2991,0.1165 -0.5902,0.1491 -0.8728,0.0981 -0.2832,-0.0497 -0.5054,-0.1681 -0.6662,-0.3532 -0.1607,-0.1849 -0.3092,-0.4505 -0.445,-0.7986 l -0.4924,-1.2639 0.5701,-0.222 0.4719,1.211 c 0.1826,0.4688 0.3878,0.7449 0.6166,0.826 0.2281,0.0805 0.4631,0.0743 0.703,-0.0193 0.4008,-0.1562 0.7871,-0.4093 1.1588,-0.7591 l -0.8147,-2.0908 0.5697,-0.222 z m 1.518,-0.5329 -1.037,-4.492 3.2434,-0.7487 0.1219,0.527 -2.6475,0.6112 0.3186,1.3801 2.478,-0.572 0.1216,0.527 -2.478,0.572 0.3535,1.5307 2.7538,-0.6358 0.1216,0.5272 z m 4.7854,-1.0431 -0.5644,-4.5754 0.6069,-0.0749 0.2325,1.8854 2.3643,-0.2917 -0.2324,-1.8853 0.6072,-0.0749 0.5644,4.5754 -0.6072,0.0749 -0.2656,-2.1535 -2.3644,0.2917 0.2656,2.1535 z m 5.2169,-0.4969 0.1338,-4.608 0.6111,0.0178 -0.055,1.8987 2.3811,0.0691 0.0553,-1.8986 0.6114,0.0176 -0.1337,4.6083 -0.6115,-0.0179 0.0629,-2.1688 -2.3813,-0.0692 -0.063,2.1688 z m 5.4354,-2.0345 c 0.1372,-0.7517 0.4476,-1.3036 0.9295,-1.6554 0.4819,-0.3515 1.042,-0.4686 1.6818,-0.3518 0.4192,0.0766 0.7775,0.2458 1.078,0.5066 0.2991,0.2605 0.5049,0.5862 0.6157,0.9762 0.1114,0.3892 0.1261,0.8105 0.0436,1.2634 -0.0839,0.4593 -0.252,0.8538 -0.504,1.1821 -0.252,0.3294 -0.5649,0.5556 -0.9388,0.6795 -0.3747,0.1244 -0.7594,0.1505 -1.1531,0.0788 -0.4275,-0.078 -0.7895,-0.2512 -1.0888,-0.5185 -0.2982,-0.2673 -0.5023,-0.5947 -0.6106,-0.9828 -0.108,-0.3875 -0.1258,-0.7801 -0.0533,-1.1781 z m 0.6188,0.1236 c -0.0995,0.546 -0.0312,1.0024 0.2052,1.3695 0.2362,0.367 0.5758,0.5915 1.0191,0.6726 0.4518,0.0825 0.8512,-0.0085 1.2016,-0.2718 0.349,-0.2634 0.5769,-0.6866 0.6832,-1.2694 0.0674,-0.3682 0.0635,-0.7016 -0.0108,-0.9986 -0.0746,-0.2974 -0.2183,-0.5437 -0.4303,-0.7387 -0.2129,-0.1948 -0.4686,-0.3201 -0.7671,-0.3745 -0.4246,-0.0774 -0.8161,0.0017 -1.1755,0.2373 -0.3594,0.2352 -0.6009,0.693 -0.7254,1.3736 z m 6.1452,-1.1922 0.525,0.1763 -1.1625,3.4608 3.4886,-2.6793 0.5726,0.1925 -1.468,4.3699 -0.5247,-0.1763 1.1593,-3.4512 -3.4798,2.6716 -0.5785,-0.1944 z m 2.5314,-0.3175 0.3662,0.123 c -0.1139,0.2413 -0.2704,0.4037 -0.4683,0.4867 -0.1975,0.0839 -0.4229,0.0831 -0.676,-0.0019 -0.2543,-0.0854 -0.4351,-0.2209 -0.542,-0.4051 -0.1066,-0.1851 -0.1332,-0.4093 -0.0774,-0.6724 l 0.366,0.123 c -0.0185,0.1466 0.0031,0.2682 0.0626,0.3629 0.0595,0.0961 0.1602,0.1672 0.2996,0.214 0.1616,0.0544 0.2948,0.0623 0.3994,0.0241 0.1041,-0.0374 0.1951,-0.1222 0.2699,-0.2543 z m 3.5399,5.0462 c 0.3821,-0.6618 0.8597,-1.0774 1.4318,-1.2469 0.572,-0.169 1.1392,-0.091 1.7025,0.2341 0.3687,0.2129 0.6497,0.4927 0.845,0.8394 0.1939,0.3458 0.2783,0.7217 0.2517,1.1262 -0.0258,0.4039 -0.1537,0.8059 -0.3838,1.2047 -0.2333,0.4042 -0.5242,0.7194 -0.872,0.9439 -0.3478,0.2254 -0.7188,0.3334 -1.1123,0.3243 -0.3951,-0.0088 -0.7659,-0.1134 -1.1126,-0.3132 -0.3764,-0.2174 -0.6593,-0.502 -0.8512,-0.8544 -0.1911,-0.3518 -0.2733,-0.7288 -0.2447,-1.1307 0.0287,-0.4011 0.1435,-0.777 0.3456,-1.1274 z m 0.5414,0.3243 c -0.2772,0.4805 -0.3662,0.9335 -0.267,1.3587 0.0989,0.4252 0.3433,0.7509 0.7339,0.9759 0.3977,0.2296 0.8044,0.2784 1.2228,0.148 0.4173,-0.1307 0.7742,-0.4527 1.0701,-0.9658 0.1871,-0.3245 0.2957,-0.6395 0.3254,-0.9442 0.0301,-0.3053 -0.0226,-0.5856 -0.1567,-0.8404 -0.1352,-0.2552 -0.3339,-0.459 -0.5967,-0.6106 -0.3739,-0.2157 -0.7693,-0.2727 -1.1869,-0.1715 -0.4175,0.1006 -0.7991,0.4507 -1.1449,1.0499 z m 4.2528,5.2713 2.3613,-3.314 -1.2376,-0.8818 0.3138,-0.4405 2.9732,2.1186 -0.3138,0.4405 -1.2376,-0.8819 -2.3612,3.314 z m 2.6402,2.0248 3.1859,-3.3321 1.2503,1.1954 c 0.2543,0.2432 0.4267,0.4716 0.5162,0.6868 0.089,0.214 0.11,0.4328 0.0627,0.6562 -0.0459,0.2237 -0.1426,0.4116 -0.2894,0.5655 -0.1358,0.1418 -0.3028,0.239 -0.4998,0.2911 -0.197,0.0522 -0.4104,0.0426 -0.6403,-0.0291 0.1454,0.252 0.2041,0.5011 0.1751,0.7469 -0.0269,0.2457 -0.1335,0.466 -0.3189,0.6599 -0.1499,0.1567 -0.322,0.2698 -0.5161,0.341 -0.1945,0.0711 -0.3742,0.0964 -0.5409,0.0765 -0.1658,-0.0204 -0.3404,-0.0819 -0.5216,-0.1839 -0.1822,-0.1029 -0.3792,-0.2557 -0.5918,-0.459 z m 2.2887,-1.5086 0.7206,0.6888 c 0.1953,0.1868 0.3484,0.3082 0.4572,0.3632 0.1446,0.0742 0.2826,0.0992 0.4133,0.0756 0.1307,-0.0235 0.2523,-0.0929 0.364,-0.2097 0.1063,-0.1111 0.1732,-0.2342 0.1998,-0.3691 0.0281,-0.1349 0.008,-0.2659 -0.0615,-0.3909 -0.0686,-0.1253 -0.2228,-0.3027 -0.4615,-0.5309 l -0.6664,-0.637 z m -1.4726,1.5404 0.8297,0.7934 c 0.1429,0.1363 0.248,0.2268 0.3166,0.2715 0.1177,0.0786 0.2322,0.1299 0.3411,0.1525 0.1091,0.0227 0.2242,0.0139 0.3463,-0.0255 0.1219,-0.0391 0.2336,-0.1119 0.3351,-0.2185 0.1193,-0.1247 0.1908,-0.2631 0.2146,-0.4167 0.0246,-0.1534 -0.002,-0.3022 -0.08,-0.4476 -0.0768,-0.1448 -0.2219,-0.3192 -0.4337,-0.5216 l -0.7707,-0.737 z m 2.7111,3.4086 3.6229,-2.8505 2.0585,2.6161 -0.4251,0.3342 -1.6801,-2.135 -1.1132,0.8756 1.5727,1.999 -0.425,0.3342 -1.5726,-1.9987 -1.2348,0.9714 1.7478,2.2212 -0.4251,0.3345 z m 3.5983,4.8515 3.4305,-2.1886 -0.8173,-1.281 0.4558,-0.2911 1.9636,3.0779 -0.4561,0.2908 -0.8172,-1.281 -3.4305,2.1884 z m 4.5581,5.1976 0.1111,0.6208 c -0.5091,0.0904 -0.951,0.0383 -1.3272,-0.1556 -0.3761,-0.1939 -0.6639,-0.5091 -0.8614,-0.9462 -0.2044,-0.4516 -0.2787,-0.8606 -0.222,-1.228 0.0556,-0.3665 0.2254,-0.7021 0.5074,-1.0077 0.2832,-0.3061 0.6242,-0.5496 1.025,-0.731 0.4371,-0.1976 0.8561,-0.2872 1.2572,-0.2671 0.4011,0.0199 0.756,0.1454 1.0644,0.377 0.3087,0.2316 0.5459,0.5327 0.7132,0.9023 0.1899,0.4204 0.2429,0.8218 0.1582,1.2039 -0.0848,0.3832 -0.2946,0.7186 -0.631,1.0063 l -0.3756,-0.4876 c 0.2613,-0.2344 0.4201,-0.4771 0.4751,-0.7248 0.0564,-0.248 0.0204,-0.5119 -0.1066,-0.7926 -0.1454,-0.3217 -0.3447,-0.5567 -0.5967,-0.7027 -0.2523,-0.1462 -0.5295,-0.2049 -0.8289,-0.174 -0.3007,0.03 -0.5896,0.1077 -0.8662,0.233 -0.3569,0.1613 -0.6455,0.354 -0.8646,0.578 -0.22,0.2245 -0.3455,0.4753 -0.3784,0.754 -0.0329,0.2789 0.008,0.5451 0.1239,0.8002 0.1406,0.311 0.3492,0.5324 0.6253,0.6664 0.2772,0.1338 0.6089,0.1591 0.9978,0.0754 z m -0.4692,3.4025 3.845,-1.3323 -0.4975,-1.4358 0.5111,-0.1771 1.195,3.4494 -0.511,0.1772 -0.4975,-1.436 -3.8449,1.3323 z m 0.944,3.1903 4.5348,-0.8277 0.3107,1.7017 c 0.0632,0.3464 0.0683,0.6324 0.0148,0.8592 -0.0536,0.2256 -0.1653,0.4152 -0.3345,0.5683 -0.1687,0.1539 -0.3572,0.2494 -0.5664,0.2877 -0.193,0.0352 -0.3852,0.0159 -0.5754,-0.0575 -0.1899,-0.0734 -0.3572,-0.2067 -0.5015,-0.3994 -0.03,0.2891 -0.1287,0.5252 -0.2965,0.7075 -0.1658,0.1828 -0.3815,0.2988 -0.6454,0.347 -0.2135,0.0388 -0.419,0.0294 -0.618,-0.027 -0.1992,-0.0567 -0.3597,-0.1417 -0.483,-0.2554 -0.1222,-0.1139 -0.2273,-0.2661 -0.3141,-0.4552 -0.0873,-0.1905 -0.157,-0.4297 -0.21,-0.7192 z m 2.7382,0.1222 0.1789,0.9808 c 0.0485,0.2656 0.1015,0.4538 0.1571,0.5621 0.0734,0.1449 0.1706,0.2461 0.2899,0.3039 0.1199,0.0578 0.2591,0.0728 0.4181,0.0439 0.1511,-0.0275 0.2778,-0.0878 0.3785,-0.1814 0.1017,-0.093 0.1621,-0.2109 0.1797,-0.3526 0.0178,-0.1417 -0.003,-0.3759 -0.0621,-0.7007 l -0.1655,-0.9068 z m -2.0965,0.3824 0.2061,1.1296 c 0.0355,0.1942 0.0675,0.3291 0.097,0.4057 0.0493,0.1326 0.1117,0.2415 0.1865,0.3237 0.0751,0.0822 0.1735,0.1426 0.2954,0.1825 0.1216,0.0403 0.2548,0.0465 0.3994,0.0199 0.17,-0.0309 0.3089,-0.1009 0.4186,-0.2115 0.1097,-0.1097 0.1755,-0.2458 0.1979,-0.409 0.0227,-0.1625 0.008,-0.3889 -0.0451,-0.6769 l -0.1913,-1.0494 z m 0.1268,4.3563 4.5966,-0.3506 0.2531,3.319 -0.5391,0.0411 -0.2066,-2.709 -1.4126,0.1077 0.1937,2.5359 -0.5395,0.0411 -0.1933,-2.5359 -1.5664,0.1193 0.2148,2.8185 -0.5391,0.0411 z m 0.2114,4.8932 4.5967,0.3503 -0.0465,0.6098 -1.8941,-0.1443 -0.1812,2.3751 1.8942,0.1446 -0.0465,0.61 -4.5967,-0.3506 0.0465,-0.6101 2.1634,0.165 0.1811,-2.3754 -2.1634,-0.165 z m -0.4731,5.2225 4.4904,1.0429 -0.1384,0.5955 -1.8501,-0.4297 -0.5389,2.3207 1.8502,0.4295 -0.1384,0.5958 -4.4903,-1.0426 0.1383,-0.5958 2.1132,0.4907 0.5389,-2.3205 -2.1132,-0.4909 z m 0.98,5.7481 c 0.7097,0.2832 1.1897,0.6962 1.4391,1.2382 0.2495,0.542 0.2537,1.114 0.0128,1.7181 -0.1576,0.3957 -0.3943,0.7137 -0.7093,0.9569 -0.3146,0.2416 -0.6746,0.379 -1.0786,0.4108 -0.4036,0.0323 -0.8194,-0.0366 -1.2472,-0.2069 -0.4337,-0.173 -0.7875,-0.4156 -1.0593,-0.7277 -0.273,-0.3118 -0.4331,-0.6636 -0.4805,-1.0545 -0.0482,-0.392 0.002,-0.7741 0.1503,-1.1458 0.161,-0.4039 0.4019,-0.7245 0.7234,-0.9652 0.3208,-0.2395 0.682,-0.375 1.0839,-0.4042 0.4011,-0.0292 0.7895,0.0306 1.1654,0.1803 z m -0.2435,0.5822 c -0.5154,-0.2052 -0.9763,-0.2284 -1.3828,-0.0691 -0.4068,0.1587 -0.6939,0.4476 -0.8606,0.8662 -0.1701,0.4264 -0.1601,0.836 0.0289,1.2314 0.1894,0.394 0.5593,0.7013 1.1095,0.9204 0.3478,0.1389 0.6752,0.201 0.9811,0.1868 0.3064,-0.0144 0.5763,-0.1066 0.8093,-0.2758 0.233,-0.1706 0.4062,-0.3963 0.5187,-0.6783 0.1596,-0.4008 0.1593,-0.8002 -6e-4,-1.1991 -0.1595,-0.3988 -0.5606,-0.7262 -1.2035,-0.9825 z m -4.1069,7.587 -0.4144,0.4753 c -0.3892,-0.3407 -0.625,-0.718 -0.7092,-1.1327 -0.0842,-0.4147 -0.0185,-0.8362 0.1987,-1.2639 0.2245,-0.442 0.4972,-0.756 0.8189,-0.9417 0.3206,-0.1863 0.6888,-0.2636 1.1038,-0.235 0.4159,0.0295 0.8192,0.1429 1.2113,0.3421 0.428,0.2175 0.7599,0.4879 0.9952,0.8133 0.2356,0.3254 0.3597,0.6809 0.3722,1.0664 0.0125,0.3855 -0.074,0.7591 -0.2577,1.1208 -0.2089,0.4113 -0.4887,0.7038 -0.8399,0.8768 -0.352,0.174 -0.7446,0.2199 -1.1795,0.1377 l 0.1452,-0.5981 c 0.3464,0.057 0.6349,0.0289 0.8625,-0.083 0.2288,-0.1112 0.4122,-0.3045 0.5517,-0.5792 0.1598,-0.3146 0.2182,-0.6173 0.1746,-0.9053 -0.044,-0.2883 -0.1718,-0.5412 -0.3833,-0.7552 -0.2117,-0.216 -0.4529,-0.3926 -0.7237,-0.5301 -0.3492,-0.1771 -0.6803,-0.2817 -0.9918,-0.3123 -0.3129,-0.0312 -0.5871,0.028 -0.8249,0.1765 -0.2381,0.1489 -0.4198,0.3479 -0.5468,0.5976 -0.1545,0.3041 -0.1967,0.6055 -0.1284,0.9045 0.0695,0.3002 0.2571,0.5746 0.5655,0.8255 z m -3.1107,1.6656 3.314,2.3613 0.8818,-1.2376 0.4405,0.3138 -2.1186,2.9732 -0.4405,-0.3138 0.8819,-1.2376 -3.314,-2.3612 z m 1.3204,5.9032 -0.4227,0.4422 -1.4196,-1.3573 -0.7585,0.7935 c -0.3546,0.371 -0.6545,0.5975 -0.9,0.6823 -0.2455,0.0827 -0.4777,0.0892 -0.6957,0.0206 -0.2177,-0.07 -0.4062,-0.1805 -0.5635,-0.331 -0.2585,-0.2469 -0.4011,-0.5511 -0.4266,-0.9125 -0.0272,-0.3617 0.1879,-0.7807 0.6457,-1.2592 l 1.2084,-1.2642 z m -3.3778,-2.3831 -0.7699,0.805 c -0.3124,0.3266 -0.4572,0.5947 -0.4365,0.8045 0.0215,0.2089 0.1145,0.3926 0.278,0.5493 0.1327,0.1268 0.2801,0.1993 0.442,0.216 0.1613,0.0179 0.3138,-0.0206 0.4549,-0.1139 0.1412,-0.0936 0.349,-0.2826 0.622,-0.5681 l 0.5635,-0.5896 z m -0.4235,6.3218 -0.4805,0.3781 -1.2778,-1.6242 -0.6985,0.5493 c 0.3688,0.5398 0.5236,1.0817 0.4604,1.6246 -0.0621,0.5428 -0.3161,0.9898 -0.7634,1.3416 -0.4703,0.3702 -0.9916,0.5114 -1.5633,0.4218 -0.5706,-0.0887 -1.0812,-0.4178 -1.5296,-0.9881 -0.4657,-0.5919 -0.6763,-1.177 -0.6296,-1.7544 0.0454,-0.578 0.3093,-1.0562 0.7917,-1.4355 0.4377,-0.3444 0.9162,-0.4858 1.4355,-0.4263 0.5193,0.0595 1.006,0.324 1.4587,0.7954 l 0.7036,-0.5536 -1.2382,-1.5735 0.4805,-0.3782 z m -3.0932,-0.5267 c -0.3602,-0.4578 -0.7455,-0.7307 -1.154,-0.8175 -0.409,-0.0881 -0.7843,0.002 -1.1259,0.271 -0.3489,0.2747 -0.5286,0.6208 -0.5371,1.0386 -0.008,0.4178 0.1732,0.8643 0.5482,1.3408 0.3549,0.4513 0.7373,0.7254 1.1466,0.8238 0.4085,0.0978 0.788,0.009 1.1381,-0.2659 0.356,-0.2801 0.5332,-0.6327 0.5335,-1.0576 -0.001,-0.425 -0.1843,-0.8691 -0.5494,-1.3332 z" />
  <path
     id="path10"
     style="fill:#1b1918;fill-rule:evenodd"
     d="m 63.3053,117.606 1.3564,-4.0759 0.8087,0.269 0.0037,3.2063 c -3e-4,0.2979 -0.0026,0.5207 -0.0065,0.6678 0.0958,-0.1323 0.2415,-0.3262 0.4359,-0.5808 l 1.9245,-2.5087 0.7222,0.2404 -1.3566,4.076 -0.5179,-0.1724 1.1347,-3.4098 -2.3247,3.0138 -0.4859,-0.1616 -0.0207,-3.8641 -1.1556,3.4727 z m 6.1106,-0.4013 c 0.1313,-0.6999 0.4227,-1.213 0.8734,-1.5387 0.4507,-0.3254 0.9734,-0.432 1.569,-0.3203 0.39,0.0731 0.7237,0.2324 1.002,0.4768 0.2778,0.2446 0.468,0.5488 0.5698,0.9127 0.1017,0.3629 0.1136,0.756 0.0346,1.1776 -0.0803,0.4274 -0.2387,0.7945 -0.4748,1.0992 -0.2362,0.3056 -0.529,0.5154 -0.8779,0.629 -0.3501,0.1146 -0.7084,0.1367 -1.0749,0.0681 -0.398,-0.0746 -0.7348,-0.2376 -1.0123,-0.4882 -0.2766,-0.2503 -0.4657,-0.5561 -0.5644,-0.9184 -0.0992,-0.3617 -0.1139,-0.7274 -0.0445,-1.0978 z m 0.576,0.1179 c -0.0952,0.5082 -0.0334,0.9337 0.1849,1.277 0.2185,0.343 0.534,0.5539 0.947,0.6313 0.4207,0.0791 0.7931,-0.004 1.1208,-0.2478 0.3266,-0.2438 0.5403,-0.6372 0.6421,-1.1798 0.0643,-0.343 0.0626,-0.6536 -0.0054,-0.9311 -0.068,-0.277 -0.201,-0.5074 -0.3974,-0.69 -0.1979,-0.1823 -0.4351,-0.3002 -0.7135,-0.3523 -0.3952,-0.074 -0.7605,-0.002 -1.0964,0.2157 -0.3357,0.2177 -0.5633,0.6432 -0.6821,1.277 z m 8.0501,1.3873 0.565,0.163 c -0.1347,0.4626 -0.3606,0.8104 -0.6778,1.0448 -0.3169,0.2344 -0.6987,0.3444 -1.1455,0.3294 -0.4617,-0.0156 -0.8342,-0.1222 -1.1177,-0.3206 -0.2834,-0.1979 -0.494,-0.4782 -0.6332,-0.8399 -0.1389,-0.3631 -0.2018,-0.7484 -0.1879,-1.158 0.015,-0.4467 0.1131,-0.8336 0.295,-1.1608 0.1823,-0.3268 0.4337,-0.5717 0.7543,-0.7338 0.3206,-0.1622 0.6701,-0.2367 1.0483,-0.224 0.4297,0.0145 0.7866,0.1358 1.0712,0.3643 0.2854,0.229 0.4791,0.5425 0.5805,0.9422 l -0.5621,0.1131 c -0.0884,-0.3149 -0.2256,-0.5479 -0.4099,-0.6959 -0.1839,-0.1497 -0.4195,-0.2285 -0.7061,-0.2381 -0.3288,-0.0111 -0.6074,0.0584 -0.8336,0.2089 -0.2262,0.1505 -0.3892,0.358 -0.487,0.6211 -0.0992,0.2636 -0.1534,0.5371 -0.1627,0.8198 -0.0125,0.3648 0.0297,0.6854 0.1264,0.9609 0.0966,0.2764 0.2548,0.4847 0.4742,0.6273 0.2194,0.1423 0.4589,0.2177 0.7197,0.2265 0.3178,0.0105 0.5885,-0.0726 0.815,-0.248 0.2259,-0.1764 0.3838,-0.4431 0.4739,-0.8022 z m 2.0316,-2.8732 0.5684,-0.0434 0.1431,1.8785 c 0.2586,-0.0198 0.4369,-0.0845 0.5341,-0.1933 0.0978,-0.1086 0.2131,-0.36 0.3475,-0.7557 0.097,-0.2909 0.1794,-0.4969 0.2486,-0.6183 0.0678,-0.1227 0.1701,-0.2287 0.3064,-0.3183 0.1358,-0.0896 0.2903,-0.1414 0.4621,-0.1545 0.218,-0.0167 0.3331,-0.0235 0.3452,-0.0204 l 0.0375,0.4907 c -0.0199,0.001 -0.0579,0.003 -0.114,0.005 -0.0629,0.003 -0.1009,0.005 -0.1151,0.006 -0.1803,0.0139 -0.3115,0.0678 -0.3926,0.1622 -0.083,0.0946 -0.1703,0.2899 -0.2642,0.5848 -0.1159,0.3738 -0.2202,0.6125 -0.3126,0.7148 -0.0916,0.1012 -0.2055,0.1863 -0.3388,0.2538 0.2821,0.0547 0.5749,0.2897 0.8771,0.7041 l 0.991,1.3586 -0.7036,0.0536 -0.8076,-1.1058 c -0.2211,-0.3073 -0.4025,-0.5159 -0.5428,-0.6253 -0.1423,-0.1109 -0.3172,-0.1576 -0.5276,-0.1415 l 0.1528,2.0041 -0.5683,0.0434 z m 4.8813,3.7825 -0.7917,-4.2222 1.5843,-0.2971 c 0.3223,-0.0603 0.589,-0.0666 0.8005,-0.0178 0.2106,0.049 0.3875,0.1522 0.5309,0.3095 0.1446,0.1559 0.2341,0.3317 0.2707,0.5261 0.0337,0.18 0.0164,0.3592 -0.0513,0.5363 -0.0672,0.1778 -0.1905,0.334 -0.3696,0.4695 0.2695,0.0266 0.4901,0.1176 0.6607,0.2729 0.1712,0.154 0.2801,0.3544 0.326,0.6001 0.0374,0.1985 0.0295,0.3904 -0.0224,0.576 -0.0513,0.1854 -0.1301,0.3359 -0.2356,0.451 -0.1057,0.1145 -0.2471,0.2135 -0.4229,0.2951 -0.1771,0.0819 -0.3994,0.1483 -0.6687,0.1987 z m 0.1012,-2.5523 0.913,-0.1712 c 0.2478,-0.0465 0.4227,-0.0964 0.5236,-0.1488 0.1346,-0.0692 0.2285,-0.1599 0.2818,-0.2719 0.0532,-0.1114 0.0669,-0.2412 0.0388,-0.3897 -0.0264,-0.1406 -0.0828,-0.258 -0.1709,-0.3515 -0.0868,-0.0947 -0.1968,-0.1503 -0.3289,-0.1661 -0.1323,-0.0159 -0.3503,0.004 -0.6531,0.0612 l -0.8441,0.1584 z m 0.3659,1.9519 1.0517,-0.197 c 0.1811,-0.034 0.3064,-0.0649 0.3776,-0.0921 0.1236,-0.0468 0.2245,-0.1054 0.3007,-0.1757 0.0766,-0.0703 0.1324,-0.1622 0.1693,-0.2756 0.0365,-0.1139 0.0419,-0.2381 0.0167,-0.3727 -0.0298,-0.1582 -0.0958,-0.2872 -0.1993,-0.3889 -0.1026,-0.1018 -0.2299,-0.1625 -0.3821,-0.1826 -0.1517,-0.0204 -0.3626,-0.005 -0.6307,0.0451 l -0.9768,0.1831 z m 3.9309,-0.2945 0.1088,-4.6 0.5888,-0.2098 3.0906,3.4585 -0.6095,0.2175 -0.9054,-1.0594 -1.7039,0.6078 -0.0017,1.3827 z m 0.5714,-2.0766 1.3791,-0.4921 -0.8221,-0.9712 c -0.2489,-0.2954 -0.4456,-0.5428 -0.5916,-0.7413 0.0386,0.2835 0.0564,0.569 0.0547,0.8587 z" />
  <path
     id="path12"
     style="fill:#1b1918;fill-rule:evenodd"
     d="m 31.9754,69.5676 -4.8719,-1.1098 0.4189,-1.8394 c 0.0737,-0.3234 0.146,-0.5666 0.2155,-0.7313 0.0941,-0.2302 0.216,-0.4136 0.3639,-0.5505 0.1491,-0.1366 0.3354,-0.231 0.5587,-0.284 0.2231,-0.053 0.4556,-0.0516 0.6971,0.0034 0.4127,0.0941 0.7333,0.3055 0.9589,0.6349 0.2268,0.3286 0.2611,0.8385 0.1041,1.5279 l -0.2849,1.2498 1.9871,0.4527 z m -2.4112,-1.2291 0.2866,-1.2589 c 0.0952,-0.4172 0.0853,-0.7296 -0.03,-0.9408 -0.1154,-0.21 -0.3136,-0.347 -0.5959,-0.4113 -0.2032,-0.0465 -0.3892,-0.0349 -0.5581,0.0349 -0.1684,0.0703 -0.296,0.1845 -0.3807,0.3415 -0.053,0.1027 -0.1137,0.2999 -0.18,0.5913 l -0.2841,1.2464 z m 1.6532,-5.6934 c -0.773,-0.2976 -1.2983,-0.7393 -1.5755,-1.3232 -0.2775,-0.5845 -0.2889,-1.2045 -0.0357,-1.8621 0.1661,-0.4311 0.4181,-0.7789 0.7568,-1.046 0.3382,-0.2661 0.7263,-0.4198 1.1642,-0.4595 0.4365,-0.0399 0.8881,0.0298 1.3541,0.2089 0.472,0.182 0.8586,0.4405 1.1571,0.7748 0.2999,0.335 0.4782,0.714 0.5346,1.1369 0.057,0.4244 0.0071,0.8391 -0.1488,1.2439 -0.1695,0.4396 -0.4266,0.7906 -0.7716,1.0553 -0.3447,0.2636 -0.7344,0.4153 -1.1698,0.4519 -0.4343,0.0371 -0.8561,-0.0233 -1.2654,-0.1809 z m 0.2568,-0.6341 c 0.561,0.2163 1.0607,0.2356 1.4995,0.0578 0.4386,-0.1774 0.7461,-0.4938 0.9216,-0.9499 0.1791,-0.4646 0.163,-0.9082 -0.0468,-1.3342 -0.2103,-0.425 -0.6148,-0.7529 -1.2141,-0.9837 -0.3787,-0.1459 -0.7344,-0.2094 -1.0664,-0.1899 -0.3313,0.0193 -0.623,0.1228 -0.8728,0.3093 -0.2508,0.1879 -0.4356,0.4342 -0.5538,0.7415 -0.1681,0.4366 -0.1628,0.8697 0.0153,1.3 0.1785,0.43 0.6171,0.7795 1.3175,1.0491 z m 5.1701,-9.4102 0.4686,-0.498 c 0.4073,0.3849 0.6471,0.8033 0.7217,1.2557 0.0745,0.4527 -0.0145,0.9065 -0.267,1.3609 -0.2614,0.4695 -0.5692,0.7988 -0.9253,0.9868 -0.3552,0.1885 -0.7568,0.2579 -1.2053,0.2097 -0.4493,-0.049 -0.8815,-0.1885 -1.2982,-0.4201 -0.4544,-0.2528 -0.8031,-0.5598 -1.0449,-0.9215 -0.2418,-0.3623 -0.3617,-0.7523 -0.3594,-1.1704 0.0025,-0.4179 0.1111,-0.8192 0.3248,-1.2033 0.2433,-0.4374 0.5579,-0.7427 0.9457,-0.9156 0.388,-0.1741 0.8158,-0.2081 1.2832,-0.1009 l -0.1814,0.6414 c -0.373,-0.0756 -0.6865,-0.0569 -0.938,0.055 -0.2523,0.1112 -0.4589,0.313 -0.6211,0.6047 -0.1859,0.3345 -0.2616,0.6596 -0.2262,0.9737 0.0358,0.314 0.1642,0.593 0.3841,0.8336 0.2206,0.2427 0.4748,0.4437 0.7623,0.6038 0.371,0.2064 0.7254,0.3328 1.0618,0.3787 0.3374,0.0468 0.637,-0.0062 0.9009,-0.1576 0.2639,-0.1514 0.4688,-0.3594 0.6162,-0.6247 0.1798,-0.3235 0.2379,-0.6478 0.1763,-0.9749 -0.0626,-0.3277 -0.2548,-0.6329 -0.5788,-0.917 z m 4.3126,-5.8632 0.5494,-0.4073 c 0.3331,0.451 0.4952,0.9051 0.4884,1.3635 -0.0065,0.4589 -0.1743,0.8898 -0.5034,1.2926 -0.3399,0.4158 -0.7013,0.6854 -1.0851,0.8073 -0.3827,0.123 -0.7903,0.1202 -1.2232,-0.0066 -0.4334,-0.1275 -0.8345,-0.341 -1.2036,-0.6428 -0.4025,-0.3289 -0.6913,-0.6928 -0.8654,-1.0917 -0.174,-0.3994 -0.2231,-0.8042 -0.1471,-1.2155 0.0762,-0.4107 0.2543,-0.7866 0.5323,-1.127 0.3167,-0.3875 0.6806,-0.6321 1.0928,-0.7339 0.4127,-0.1026 0.8396,-0.0607 1.2807,0.1275 l -0.292,0.5993 c -0.3537,-0.1403 -0.6656,-0.1775 -0.9329,-0.1117 -0.2678,0.0649 -0.5068,0.2271 -0.7183,0.4856 -0.242,0.2962 -0.3738,0.6029 -0.3945,0.9181 -0.0202,0.3155 0.0569,0.6129 0.2307,0.8887 0.1743,0.2778 0.3889,0.5204 0.6437,0.7288 0.3289,0.2687 0.6551,0.4558 0.978,0.5604 0.324,0.1054 0.6282,0.1063 0.9145,0.004 0.2865,-0.1024 0.5249,-0.271 0.7171,-0.506 0.2342,-0.2863 0.3487,-0.5956 0.3459,-0.9284 -0.004,-0.3333 -0.1392,-0.6678 -0.408,-1.0049 z m 0.1979,-5.0876 0.436,-0.4124 2.7187,2.8754 -0.7855,-4.7029 0.4757,-0.4502 3.433,3.6309 -0.4363,0.4125 -2.7113,-2.8676 0.7838,4.6903 -0.4811,0.4549 z m 5.7393,-5.0125 0.4876,-0.3498 2.3068,3.2154 -0.1451,-4.7662 0.532,-0.3816 2.9129,4.0601 -0.4878,0.3498 -2.3009,-3.2066 0.1454,4.7532 -0.538,0.3858 z m 1.3246,-2.4276 0.3402,-0.2443 c 0.1403,0.2531 0.184,0.4941 0.1318,0.7203 -0.0519,0.2276 -0.195,0.4249 -0.4303,0.5935 -0.2364,0.1695 -0.4703,0.243 -0.6999,0.22 -0.2301,-0.0238 -0.4442,-0.1423 -0.6403,-0.358 l 0.3404,-0.2441 c 0.1168,0.1094 0.2373,0.1676 0.3586,0.1752 0.1222,0.0082 0.2483,-0.0351 0.3779,-0.1281 0.1502,-0.1077 0.242,-0.2194 0.2744,-0.3356 0.0331,-0.1157 0.0161,-0.2492 -0.0528,-0.3989 z m 9.7475,-0.4666 0.6645,-0.1618 c 0.1318,0.5445 0.1046,1.0261 -0.0794,1.4459 -0.1845,0.4204 -0.5063,0.7521 -0.966,0.9956 -0.4748,0.2511 -0.9122,0.3594 -1.3133,0.3225 -0.4006,-0.0354 -0.7753,-0.1961 -1.1248,-0.481 -0.3498,-0.286 -0.6364,-0.6384 -0.8595,-1.0599 -0.2432,-0.4595 -0.3679,-0.9068 -0.3733,-1.3422 -0.0054,-0.4354 0.1066,-0.8277 0.3365,-1.1769 0.2296,-0.349 0.5397,-0.6262 0.9283,-0.832 0.4422,-0.2338 0.8725,-0.3183 1.2918,-0.252 0.4203,0.0658 0.7973,0.2702 1.1307,0.6148 L 57.1,32.2554 c -0.2716,-0.2667 -0.5446,-0.422 -0.8161,-0.4654 -0.2724,-0.044 -0.5556,0.0125 -0.8507,0.1686 -0.3382,0.1789 -0.5788,0.4102 -0.7203,0.6928 -0.1412,0.2829 -0.1857,0.5868 -0.1324,0.9085 0.0528,0.3238 0.1562,0.6307 0.3101,0.9216 0.1985,0.3753 0.4267,0.6743 0.6835,0.8963 0.2574,0.2231 0.5374,0.3419 0.8413,0.3589 0.3036,0.017 0.5888,-0.0457 0.8572,-0.1877 0.3271,-0.1732 0.5525,-0.4136 0.6792,-0.7214 0.1258,-0.3087 0.1312,-0.6696 0.0144,-1.0843 z m 2.4903,-4.458 0.6312,-0.2027 0.6699,2.0866 c 0.2868,-0.0921 0.4714,-0.2137 0.5516,-0.3628 0.0814,-0.1494 0.144,-0.4649 0.1891,-0.9488 0.0311,-0.3555 0.0691,-0.6109 0.1142,-0.767 0.0437,-0.1571 0.1307,-0.3045 0.2611,-0.4428 0.129,-0.1381 0.2897,-0.2387 0.4802,-0.2999 0.2423,-0.0777 0.3707,-0.1162 0.3852,-0.1162 l 0.1749,0.5451 c -0.0221,0.007 -0.0646,0.0195 -0.1273,0.0371 -0.0706,0.0201 -0.1128,0.0323 -0.1284,0.0374 -0.2004,0.0644 -0.3342,0.1613 -0.4005,0.29 -0.0683,0.1293 -0.1146,0.3736 -0.1409,0.7327 -0.0301,0.4547 -0.0834,0.7524 -0.1605,0.8932 -0.0762,0.1395 -0.1819,0.2662 -0.3149,0.3785 0.3339,-0.0142 0.7288,0.1729 1.1826,0.5598 l 1.4888,1.2691 -0.7821,0.2508 -1.2121,-1.0326 c -0.3331,-0.2877 -0.5947,-0.4751 -0.7835,-0.561 -0.1905,-0.0867 -0.4011,-0.0924 -0.6347,-0.0176 l 0.7144,2.2264 -0.6313,0.2026 z m 6.7272,3.1538 1.0533,-5.2472 0.7169,-0.1216 2.842,4.5859 -0.7421,0.1261 -0.8235,-1.3966 -2.0741,0.3521 -0.2812,1.584 z m 1.074,-2.2634 1.6787,-0.2849 -0.7455,-1.2785 c -0.2254,-0.3892 -0.4006,-0.712 -0.5278,-0.9688 -0.0131,0.3325 -0.0502,0.6633 -0.1112,0.9944 z m 9.9315,1.1023 -0.0854,-4.9963 -2.2144,0.038 c -0.4456,0.0076 -0.7821,0.0587 -1.0117,0.1522 -0.2301,0.0935 -0.4121,0.2548 -0.5465,0.4839 -0.1349,0.229 -0.2004,0.4816 -0.1956,0.756 0.006,0.3549 0.1262,0.6517 0.3597,0.8909 0.233,0.239 0.5891,0.3867 1.0696,0.4448 -0.1744,0.0864 -0.3053,0.1726 -0.3946,0.2556 -0.1902,0.18 -0.3691,0.4051 -0.5352,0.6744 l -0.8411,1.3754 0.8261,-0.0139 0.6426,-1.0508 c 0.1865,-0.3047 0.3418,-0.5366 0.4637,-0.6982 0.123,-0.1613 0.2327,-0.2738 0.3305,-0.3393 0.0967,-0.0646 0.1971,-0.1105 0.2988,-0.1378 0.0743,-0.0161 0.1965,-0.0266 0.3674,-0.0294 l 0.7651,-0.0131 0.0379,2.219 z m -0.7107,-2.7799 -1.4187,0.0244 c -0.3025,0.0051 -0.538,-0.0224 -0.709,-0.0822 -0.1706,-0.0587 -0.3016,-0.1568 -0.3909,-0.2934 -0.091,-0.1358 -0.1377,-0.2838 -0.1403,-0.4456 -0.0042,-0.2361 0.0774,-0.4329 0.2458,-0.5882 0.1684,-0.1551 0.4368,-0.2356 0.8053,-0.2418 l 1.5795,-0.0269 z m 10.1018,-0.7194 0.1063,-0.6262 0.6126,0.104 -0.1063,0.6262 c 0.6217,0.1398 1.0848,0.413 1.3884,0.8198 0.305,0.4068 0.4136,0.8654 0.3269,1.3768 -0.0851,0.5011 -0.3325,0.8966 -0.7444,1.188 -0.4113,0.2897 -0.9442,0.3988 -1.6005,0.324 l -0.1074,0.633 -0.6126,-0.1041 0.1075,-0.633 c -0.5783,-0.1216 -1.0335,-0.3818 -1.3643,-0.7812 -0.3311,-0.3983 -0.4499,-0.8728 -0.3569,-1.421 0.0932,-0.5493 0.3617,-0.957 0.8042,-1.2214 0.4425,-0.2645 0.9578,-0.3589 1.5465,-0.2849 z m 0.5182,0.6613 -0.4405,2.594 c 0.4241,0.0507 0.7753,-0.0159 1.0554,-0.1996 0.2803,-0.1837 0.4532,-0.4731 0.5201,-0.8674 0.0661,-0.3875 -3e-4,-0.7137 -0.199,-0.981 -0.1993,-0.2662 -0.5105,-0.4479 -0.936,-0.546 z m -0.614,-0.0969 c -0.4087,-0.0508 -0.7571,0.013 -1.0459,0.1927 -0.2889,0.1797 -0.4675,0.468 -0.5352,0.866 -0.0666,0.3932 0.0048,0.7228 0.2143,0.9896 0.2094,0.267 0.5193,0.443 0.9289,0.5317 z m 4.6324,5.1171 1.6248,-4.7254 3.4124,1.1735 -0.1908,0.5542 -2.785,-0.9575 -0.4995,1.4519 2.607,0.8966 -0.1907,0.5542 -2.6068,-0.8964 -0.5536,1.6101 2.897,0.9964 -0.1905,0.5542 z m 8.8152,-1.7907 2.698,1.4068 -2.0392,3.911 0.396,0.2067 -0.8099,1.5533 -0.5196,-0.271 0.5389,-1.0337 -2.9333,-1.5293 -0.5389,1.0335 -0.5198,-0.271 0.8098,-1.5534 0.3405,0.1774 c 0.6394,-0.3512 1.3864,-1.3456 2.2396,-2.9826 z m 1.8391,1.62 -1.5471,-0.8064 -0.1185,0.2267 c -0.1967,0.3776 -0.5001,0.8765 -0.9097,1.4959 -0.4084,0.6202 -0.8231,1.0888 -1.2413,1.4071 l 2.0484,1.0681 z m 1.2345,5.9156 2.8882,-4.0776 2.9444,2.0854 -0.3388,0.4782 -2.4035,-1.7022 -0.8875,1.2532 2.2499,1.5931 -0.3391,0.4785 -2.2495,-1.5934 -0.9842,1.3896 2.5001,1.7708 -0.3387,0.4785 z m 5.1721,4.0522 3.435,-3.629 1.37,1.2969 c 0.2409,0.2279 0.4136,0.4141 0.5199,0.5576 0.1502,0.1984 0.246,0.3963 0.2885,0.5935 0.0417,0.1979 0.0284,0.4063 -0.0396,0.6254 -0.0681,0.2191 -0.1874,0.4184 -0.3578,0.5984 -0.2911,0.3075 -0.6364,0.4756 -1.0346,0.5023 -0.3983,0.0283 -0.8547,-0.2021 -1.368,-0.688 l -0.9309,-0.8813 -1.4009,1.48 z m 2.2853,-1.45 0.9377,0.8876 c 0.3107,0.2942 0.5848,0.4447 0.8252,0.4529 0.2395,0.0074 0.4583,-0.0932 0.6573,-0.3035 0.1432,-0.1514 0.2282,-0.3175 0.254,-0.4984 0.0255,-0.1808 -0.008,-0.3486 -0.1004,-0.5014 -0.0612,-0.0978 -0.2001,-0.2506 -0.4172,-0.4561 l -0.9284,-0.8785 z m 1.6767,5.3762 5.1157,-1.5724 0.4484,0.5724 -2.679,4.6828 -0.4643,-0.5924 0.8356,-1.3893 -1.2971,-1.656 -1.5268,0.5068 z m 2.5018,-0.1335 1.05,1.3405 0.7693,-1.2642 c 0.2347,-0.3836 0.4354,-0.6914 0.6004,-0.9255 -0.2988,0.1468 -0.6069,0.2715 -0.9272,0.3758 z m 6.1178,3.4126 0.326,0.5772 -3.8407,2.1688 1.2764,2.2606 3.841,-2.1685 0.3257,0.5771 -3.8407,2.1685 0.2231,0.3952 -1.7198,0.9711 -0.2883,-0.5105 1.2093,-0.6829 -1.8632,-3.2998 z m 3.6093,6.846 0.2251,0.5564 -3.668,1.4843 4.6661,0.9816 0.2457,0.6072 -4.6321,1.8742 -0.2253,-0.5564 3.6587,-1.4805 -4.6537,-0.9788 -0.2483,-0.6135 z m -1.4357,12.2601 4.8688,-1.1239 -0.4981,-2.1577 c -0.1003,-0.4343 -0.2202,-0.7529 -0.3597,-0.9582 -0.1395,-0.2055 -0.3351,-0.3498 -0.5871,-0.4337 -0.2522,-0.0841 -0.5127,-0.0955 -0.78,-0.0337 -0.3459,0.0799 -0.6112,0.2591 -0.7966,0.5375 -0.1851,0.2778 -0.2554,0.6567 -0.2123,1.1386 -0.121,-0.1525 -0.2324,-0.2625 -0.3322,-0.3327 -0.2157,-0.1486 -0.4731,-0.2764 -0.771,-0.383 l -1.5205,-0.536 0.1856,0.8047 1.1617,0.4096 c 0.3367,0.1194 0.5961,0.2231 0.7792,0.3084 0.1837,0.0868 0.3166,0.1707 0.4008,0.2526 0.0834,0.0811 0.1491,0.1698 0.197,0.2636 0.0315,0.0695 0.0669,0.1865 0.1055,0.3532 l 0.172,0.7455 -2.1622,0.4992 z m 2.5707,-1.2739 -0.3192,-1.3824 c -0.068,-0.2948 -0.0901,-0.531 -0.0671,-0.7104 0.0218,-0.1794 0.0904,-0.328 0.2055,-0.4439 0.1139,-0.1168 0.2488,-0.1933 0.4065,-0.2299 0.2301,-0.053 0.4396,-0.0144 0.6267,0.1182 0.1868,0.1321 0.3212,0.3782 0.4039,0.7373 l 0.3555,1.5392 z" />
  <path
     id="path14"
     style="fill:#1b1918;fill-rule:evenodd"
     d="m 126.9814,78.0701 0.1958,-0.6055 c 0.4533,0.1593 0.781,0.2968 0.9873,0.4139 -0.0541,-0.5148 -0.0836,-0.8702 -0.0864,-1.0633 h 0.623 c -0.009,0.2823 -0.0408,0.6347 -0.0995,1.0588 0.294,-0.1477 0.6305,-0.2852 1.0092,-0.4094 l 0.1958,0.6055 c -0.3611,0.1199 -0.7149,0.2004 -1.0629,0.2398 0.174,0.1505 0.4181,0.4212 0.7341,0.8087 l -0.5119,0.3643 c -0.1653,-0.2254 -0.3614,-0.5323 -0.5865,-0.9201 -0.212,0.4022 -0.3977,0.7095 -0.5573,0.9201 l -0.5031,-0.3643 c 0.3291,-0.4079 0.566,-0.6772 0.7081,-0.8087 -0.3671,-0.0717 -0.7152,-0.1522 -1.0457,-0.2398 z" />
  <path
     id="path16"
     style="fill:#1b1918;fill-rule:evenodd"
     d="m 26.106,78.0701 0.1958,-0.6055 c 0.4533,0.1593 0.781,0.2968 0.9873,0.4139 -0.0541,-0.5148 -0.0836,-0.8702 -0.0864,-1.0633 h 0.623 c -0.0088,0.2823 -0.0408,0.6347 -0.0995,1.0588 0.294,-0.1477 0.6305,-0.2852 1.0092,-0.4094 l 0.1958,0.6055 c -0.3611,0.1199 -0.7149,0.2004 -1.0629,0.2398 0.174,0.1505 0.4181,0.4212 0.7341,0.8087 l -0.5119,0.3643 c -0.1653,-0.2254 -0.3614,-0.5323 -0.5865,-0.9201 -0.212,0.4022 -0.3977,0.7095 -0.5573,0.9201 l -0.5031,-0.3643 c 0.3291,-0.4079 0.566,-0.6772 0.7081,-0.8087 -0.3671,-0.0717 -0.7152,-0.1522 -1.0457,-0.2398 z" />
  <path
     id="path18"
     style="fill:#1b1918;fill-rule:evenodd"
     d="m 28.0077,85.3359 c 0.7288,-0.1287 1.3346,-0.0332 1.8165,0.286 0.4818,0.3192 0.7772,0.7883 0.8872,1.4088 0.0717,0.4065 0.0388,0.7889 -0.0967,1.1497 -0.136,0.3598 -0.3622,0.6565 -0.6791,0.8887 -0.3155,0.2324 -0.6937,0.3878 -1.1328,0.4655 -0.4453,0.0788 -0.8606,0.0592 -1.2435,-0.059 -0.3838,-0.1179 -0.6954,-0.3254 -0.9338,-0.6233 -0.2395,-0.2988 -0.3926,-0.639 -0.4603,-1.0208 -0.0731,-0.4147 -0.0383,-0.8019 0.1037,-1.1639 0.1421,-0.3609 0.3705,-0.6568 0.6869,-0.8858 0.3152,-0.2288 0.6658,-0.3776 1.0519,-0.4459 z m 0.0961,0.604 c -0.5292,0.0936 -0.921,0.3096 -1.1744,0.6478 -0.2537,0.3384 -0.3433,0.7228 -0.2673,1.1528 0.0777,0.4382 0.2945,0.7702 0.6523,0.9995 0.3568,0.2282 0.8178,0.2923 1.383,0.1922 0.3574,-0.0629 0.6588,-0.1786 0.9037,-0.3464 0.2446,-0.1681 0.4201,-0.3815 0.5255,-0.6401 0.1052,-0.2591 0.1327,-0.5332 0.0814,-0.8229 -0.0729,-0.4116 -0.2767,-0.7407 -0.6117,-0.9878 -0.3348,-0.2467 -0.832,-0.3119 -1.4925,-0.1951 z m 3.3494,4.6446 0.7917,2.7777 -0.504,0.1437 -0.6292,-2.2076 -3.7911,1.0805 -0.1627,-0.57 z m -2.925,5.5661 4.1521,-1.6458 0.6214,1.5679 c 0.1091,0.2752 0.1789,0.4915 0.2106,0.648 0.0471,0.2168 0.0502,0.4138 0.0102,0.5896 -0.0408,0.1763 -0.1301,0.3398 -0.2681,0.4918 -0.1378,0.1519 -0.3096,0.2681 -0.5154,0.3498 -0.3518,0.1394 -0.6947,0.146 -1.0278,0.017 -0.3331,-0.1273 -0.6166,-0.4859 -0.8493,-1.0735 l -0.4221,-1.065 -1.6931,0.6713 z m 2.3986,-0.3132 0.4252,1.0729 c 0.1412,0.3555 0.3065,0.5808 0.4981,0.678 0.1913,0.0964 0.4065,0.0976 0.6474,0.002 0.1729,-0.0686 0.3045,-0.1712 0.3932,-0.3081 0.089,-0.1369 0.125,-0.2854 0.108,-0.4445 -0.0128,-0.102 -0.0678,-0.278 -0.1664,-0.5266 l -0.421,-1.0619 z m -0.2769,5.2478 3.9702,-2.0461 0.2716,0.527 -1.6359,0.843 1.0573,2.0517 1.6359,-0.843 0.2713,0.5264 -3.9703,2.046 -0.2712,-0.5266 1.8686,-0.963 -1.0574,-2.0514 -1.8686,0.9629 z m 5.3779,4.9416 c 0.4294,-0.3059 0.8079,-0.5088 1.133,-0.608 0.3265,-0.0987 0.6225,-0.1114 0.8881,-0.038 0.265,0.0731 0.4918,0.2423 0.6797,0.5063 0.1389,0.195 0.2217,0.3937 0.2486,0.5981 0.0264,0.2035 -5e-4,0.4062 -0.081,0.6066 -0.08,0.1995 -0.2073,0.4028 -0.381,0.6083 -0.1735,0.2064 -0.4411,0.4379 -0.8008,0.6945 -0.4269,0.3039 -0.8039,0.506 -1.1285,0.6057 -0.3254,0.1001 -0.6213,0.1134 -0.8878,0.04 -0.2656,-0.072 -0.4938,-0.2415 -0.6831,-0.5074 -0.2492,-0.3498 -0.3206,-0.7135 -0.2132,-1.0913 0.1338,-0.457 0.5425,-0.9278 1.226,-1.4148 z m 0.324,0.4586 c -0.5987,0.4264 -0.9474,0.7793 -1.044,1.0591 -0.0978,0.2803 -0.0732,0.523 0.0728,0.7276 0.146,0.2053 0.3683,0.3073 0.665,0.3065 0.2977,-0.001 0.7441,-0.2149 1.3414,-0.6404 0.5984,-0.4263 0.9468,-0.7792 1.0437,-1.0587 0.0987,-0.2795 0.0723,-0.5239 -0.0765,-0.7331 -0.146,-0.2049 -0.3504,-0.307 -0.6112,-0.3061 -0.3302,0.004 -0.7942,0.22 -1.3912,0.6451 z m 2.3031,3.1284 c 0.398,-0.3456 0.7552,-0.5843 1.0695,-0.7141 0.3155,-0.1295 0.6089,-0.1706 0.8805,-0.123 0.2707,0.047 0.5125,0.1939 0.7251,0.4385 0.157,0.1809 0.2585,0.3708 0.305,0.5715 0.0456,0.2001 0.0383,0.4045 -0.0227,0.6117 -0.0604,0.2064 -0.1675,0.4207 -0.3206,0.642 -0.1528,0.222 -0.3968,0.4782 -0.7305,0.7682 -0.3957,0.3436 -0.7514,0.5808 -1.0649,0.7112 -0.3144,0.131 -0.6078,0.1727 -0.8799,0.1253 -0.2716,-0.0462 -0.5148,-0.1933 -0.7288,-0.4396 -0.2815,-0.324 -0.3878,-0.6795 -0.3172,-1.0658 0.0896,-0.4675 0.451,-0.9757 1.0845,-1.5259 z m 0.3668,0.4254 c -0.555,0.4819 -0.8682,0.8666 -0.9377,1.1543 -0.0703,0.2883 -0.0224,0.5275 0.1423,0.7175 0.1653,0.1899 0.396,0.2704 0.6914,0.2409 0.2962,-0.03 0.7203,-0.2854 1.2736,-0.7659 0.555,-0.4822 0.8677,-0.8669 0.9374,-1.1546 0.0715,-0.2874 0.0219,-0.5281 -0.1465,-0.722 -0.165,-0.1899 -0.3782,-0.2721 -0.6375,-0.246 -0.3286,0.036 -0.7699,0.2951 -1.323,0.7758 z m 2.5662,2.9217 c 0.3637,-0.3818 0.6968,-0.6531 0.9973,-0.8121 0.3019,-0.1588 0.5899,-0.2274 0.8648,-0.2058 0.2741,0.0213 0.5287,0.1446 0.7634,0.3679 0.1735,0.165 0.2925,0.3447 0.3577,0.54 0.0644,0.1948 0.0766,0.3991 0.0355,0.6112 -0.0406,0.2112 -0.127,0.4345 -0.2586,0.6695 -0.1312,0.2356 -0.3498,0.5137 -0.6545,0.8337 -0.3614,0.3796 -0.6931,0.6494 -0.993,0.809 -0.3004,0.1602 -0.5884,0.2293 -0.864,0.2078 -0.2746,-0.0201 -0.5306,-0.1435 -0.7673,-0.3685 -0.3107,-0.296 -0.4501,-0.6398 -0.4164,-1.031 0.0451,-0.4739 0.3566,-1.0139 0.9351,-1.6217 z m 0.4054,0.3886 c -0.5068,0.5324 -0.7821,0.9451 -0.824,1.2382 -0.0428,0.2937 0.0275,0.5273 0.2097,0.7005 0.1823,0.1737 0.4196,0.2318 0.711,0.1746 0.2919,-0.0579 0.6899,-0.3524 1.1953,-0.883 0.5069,-0.5324 0.7818,-0.9451 0.8241,-1.2379 0.0436,-0.2931 -0.0284,-0.5281 -0.2146,-0.7053 -0.182,-0.1732 -0.402,-0.235 -0.6579,-0.1845 -0.3235,0.0669 -0.7382,0.3668 -1.2436,0.8974 z m 2.8227,2.6884 c 0.3271,-0.4133 0.6341,-0.7137 0.919,-0.8994 0.2863,-0.1857 0.567,-0.2804 0.8425,-0.2835 0.2749,-0.004 0.5397,0.0958 0.794,0.2971 0.1873,0.1485 0.3223,0.3163 0.405,0.5051 0.0817,0.1882 0.1126,0.3904 0.0907,0.6055 -0.0209,0.2137 -0.0867,0.4442 -0.1964,0.69 -0.1091,0.2466 -0.3016,0.5436 -0.576,0.89 -0.3254,0.4105 -0.6313,0.7096 -0.9153,0.8958 -0.2846,0.1868 -0.5652,0.2818 -0.8416,0.2854 -0.2753,0.005 -0.5414,-0.0946 -0.7974,-0.2973 -0.3365,-0.2665 -0.5065,-0.5961 -0.5085,-0.989 0.0017,-0.476 0.263,-1.042 0.784,-1.6997 z m 0.4388,0.3501 c -0.4563,0.5763 -0.693,1.0123 -0.7081,1.3079 -0.0158,0.2962 0.0754,0.5224 0.2724,0.6786 0.1973,0.1562 0.4391,0.1928 0.724,0.1092 0.2855,-0.0842 0.6551,-0.4133 1.1101,-0.9882 0.4563,-0.576 0.6928,-1.012 0.7081,-1.3076 0.017,-0.2957 -0.0763,-0.5233 -0.2776,-0.6826 -0.197,-0.1562 -0.4217,-0.1976 -0.672,-0.1242 -0.3161,0.0961 -0.7019,0.4326 -1.1569,1.0069 z m 3.1462,2.4384 c 0.3056,-0.4298 0.5964,-0.7458 0.8711,-0.946 0.2764,-0.2004 0.5516,-0.3095 0.8266,-0.3271 0.2744,-0.0181 0.5439,0.0675 0.8084,0.2551 0.195,0.1387 0.3385,0.2994 0.4309,0.4836 0.0913,0.1837 0.1326,0.3838 0.1222,0.5998 -0.01,0.2146 -0.0635,0.4482 -0.1605,0.6993 -0.0961,0.252 -0.273,0.5588 -0.5289,0.9188 -0.3033,0.4271 -0.5933,0.7418 -0.8671,0.9425 -0.2747,0.2012 -0.55,0.3107 -0.8258,0.3288 -0.2747,0.019 -0.5456,-0.0663 -0.8118,-0.2554 -0.3498,-0.2486 -0.5369,-0.5689 -0.5593,-0.9609 -0.0232,-0.4757 0.2083,-1.0545 0.6942,-1.7385 z m 0.4567,0.3268 c -0.4258,0.5992 -0.6395,1.0468 -0.639,1.3431 -5e-4,0.2965 0.1024,0.5178 0.3073,0.6635 0.2052,0.1457 0.4485,0.1693 0.7288,0.0712 0.2806,-0.0989 0.6327,-0.447 1.057,-1.0446 0.4258,-0.5992 0.6393,-1.0468 0.639,-1.3427 0.0017,-0.2963 -0.1035,-0.5188 -0.3127,-0.6673 -0.2049,-0.1457 -0.4317,-0.1752 -0.6775,-0.089 -0.3109,0.1125 -0.6786,0.4685 -1.1029,1.0658 z m 3.2454,2.1212 c 0.2616,-0.4578 0.5198,-0.8008 0.7735,-1.027 0.2551,-0.2268 0.5185,-0.3626 0.7903,-0.4071 0.2713,-0.0451 0.548,0.0136 0.8294,0.1743 0.2078,0.1188 0.3666,0.2645 0.4766,0.4388 0.1091,0.1735 0.1697,0.3688 0.1808,0.5848 0.0111,0.2146 -0.0193,0.4522 -0.0907,0.7118 -0.0709,0.2602 -0.2166,0.5825 -0.436,0.9663 -0.2596,0.455 -0.5173,0.7966 -0.7701,1.0234 -0.2535,0.2273 -0.5165,0.3634 -0.7892,0.4087 -0.2713,0.0459 -0.5497,-0.0125 -0.8331,-0.1743 -0.3725,-0.2129 -0.5902,-0.5134 -0.6511,-0.9014 -0.0701,-0.4709 0.1034,-1.0698 0.5196,-1.7983 z m 0.4867,0.2803 c -0.3649,0.6381 -0.5332,1.1047 -0.5038,1.3995 0.029,0.2951 0.1531,0.5051 0.3714,0.6298 0.2185,0.125 0.4629,0.1245 0.7322,-8e-4 0.2695,-0.1262 0.5853,-0.5071 0.949,-1.1435 0.3645,-0.6384 0.5326,-1.1047 0.5034,-1.3992 -0.0277,-0.2951 -0.1539,-0.506 -0.377,-0.6333 -0.2182,-0.1247 -0.4467,-0.1318 -0.6828,-0.0218 -0.2982,0.1426 -0.629,0.5329 -0.9924,1.1693 z m 3.4271,1.8388 c 0.2177,-0.4801 0.4427,-0.8458 0.6743,-1.0947 0.233,-0.2494 0.4825,-0.409 0.7489,-0.4791 0.2659,-0.07 0.5468,-0.0374 0.8422,0.0964 0.218,0.099 0.3895,0.2293 0.5153,0.3923 0.1248,0.1627 0.2036,0.3515 0.2345,0.5656 0.0311,0.2126 0.0232,0.4521 -0.0238,0.7171 -0.0465,0.2656 -0.1613,0.6004 -0.3439,1.0029 -0.2163,0.4771 -0.4408,0.8411 -0.6715,1.0905 -0.231,0.25 -0.4802,0.4099 -0.7475,0.4805 -0.2662,0.0711 -0.5485,0.0391 -0.8459,-0.0958 -0.3909,-0.1772 -0.6355,-0.4558 -0.7324,-0.8365 -0.1134,-0.4624 0.0034,-1.0749 0.3498,-1.8392 z m 0.5105,0.2339 c -0.3033,0.6693 -0.4278,1.1495 -0.3708,1.4403 0.0561,0.2911 0.1993,0.4887 0.4283,0.5924 0.2293,0.1041 0.4725,0.0808 0.7288,-0.0691 0.2568,-0.1506 0.5357,-0.5596 0.8385,-1.2272 0.3033,-0.6695 0.4275,-1.1494 0.3708,-1.44 -0.055,-0.2911 -0.2004,-0.4892 -0.4343,-0.5952 -0.229,-0.1038 -0.4572,-0.0896 -0.6823,0.0422 -0.2835,0.1695 -0.5763,0.589 -0.879,1.2566 z m 3.5631,1.5333 c 0.1695,-0.4992 0.3578,-0.8853 0.5635,-1.1557 0.2073,-0.2713 0.44,-0.4547 0.6985,-0.5505 0.2574,-0.0955 0.5403,-0.091 0.8473,0.0133 0.2268,0.0768 0.4102,0.1896 0.5513,0.3396 0.1403,0.1497 0.2373,0.33 0.2892,0.5397 0.0518,0.2086 0.0674,0.4476 0.0467,0.716 -0.0201,0.2688 -0.1017,0.6132 -0.2435,1.0319 -0.1684,0.496 -0.356,0.8804 -0.5612,1.1511 -0.2053,0.2716 -0.4377,0.4553 -0.6965,0.5519 -0.2577,0.097 -0.542,0.0927 -0.8512,-0.0125 -0.4063,-0.1377 -0.6772,-0.3911 -0.811,-0.7602 -0.1585,-0.449 -0.1027,-1.0701 0.1669,-1.8646 z m 0.5312,0.1822 c -0.2361,0.6962 -0.3126,1.1863 -0.2276,1.4701 0.0848,0.2843 0.2466,0.4666 0.4847,0.5473 0.2384,0.0811 0.4782,0.0341 0.7186,-0.1403 0.2407,-0.1751 0.4779,-0.6094 0.7135,-1.3036 0.2364,-0.6962 0.3124,-1.186 0.2276,-1.4695 -0.0836,-0.2843 -0.2477,-0.4674 -0.4909,-0.5499 -0.2382,-0.0808 -0.4638,-0.0442 -0.6747,0.1091 -0.2653,0.1967 -0.5156,0.6432 -0.7512,1.3368 z m 3.676,1.2297 c 0.1182,-0.5139 0.2667,-0.917 0.4442,-1.2067 0.1789,-0.2908 0.3917,-0.4966 0.6395,-0.618 0.2466,-0.1213 0.5284,-0.1451 0.8444,-0.0722 0.233,0.0535 0.4269,0.1474 0.5825,0.2826 0.1548,0.1346 0.2693,0.3041 0.3419,0.5077 0.0729,0.2023 0.1123,0.4385 0.1188,0.7075 0.0071,0.2696 -0.0394,0.6205 -0.1386,1.0511 -0.1174,0.5105 -0.2654,0.9119 -0.4422,1.2021 -0.1769,0.2909 -0.3895,0.497 -0.6376,0.6191 -0.2466,0.1222 -0.5297,0.1466 -0.8481,0.0734 -0.4181,-0.0963 -0.7132,-0.3208 -0.8835,-0.6749 -0.2027,-0.4306 -0.2095,-1.0542 -0.0213,-1.8717 z m 0.5468,0.1278 c -0.165,0.7164 -0.1916,1.2116 -0.0785,1.4851 0.1128,0.2744 0.2925,0.4397 0.5374,0.4961 0.2452,0.0567 0.4791,-0.0145 0.7008,-0.2121 0.2216,-0.1987 0.4141,-0.6545 0.5785,-1.3688 0.165,-0.7163 0.1913,-1.2115 0.0785,-1.4851 -0.1117,-0.2744 -0.2934,-0.4399 -0.5437,-0.4975 -0.2452,-0.0564 -0.4657,0.003 -0.6601,0.1764 -0.2444,0.2225 -0.4485,0.6919 -0.6129,1.4059 z m 3.8917,0.8431 c 0.0918,-0.5193 0.2194,-0.9295 0.3818,-1.228 0.1639,-0.2993 0.3657,-0.5159 0.6069,-0.6497 0.2401,-0.1338 0.5202,-0.1721 0.8396,-0.1157 0.2356,0.0417 0.434,0.1256 0.5964,0.2526 0.1613,0.1264 0.2844,0.29 0.3674,0.4896 0.0831,0.1981 0.1347,0.4322 0.1548,0.7004 0.021,0.269 -0.0074,0.6216 -0.0845,1.057 -0.0913,0.5157 -0.2183,0.9241 -0.3801,1.2229 -0.1616,0.2996 -0.3634,0.5162 -0.6049,0.6508 -0.2401,0.135 -0.5216,0.1738 -0.843,0.1171 -0.4227,-0.0748 -0.7288,-0.284 -0.9173,-0.629 -0.2245,-0.4195 -0.2634,-1.042 -0.1171,-1.868 z m 0.5525,0.0997 c -0.1279,0.7237 -0.1293,1.2198 -0.002,1.4871 0.1267,0.2684 0.3143,0.4241 0.5618,0.468 0.248,0.0439 0.4779,-0.0391 0.6891,-0.2477 0.2112,-0.2098 0.3801,-0.675 0.5077,-1.397 0.1281,-0.7236 0.129,-1.2194 0.0023,-1.4867 -0.1256,-0.2685 -0.3158,-0.4244 -0.5687,-0.4692 -0.2474,-0.0436 -0.4649,0.0267 -0.6502,0.2101 -0.2325,0.2347 -0.4122,0.7137 -0.54,1.4354 z m 3.8412,0.5216 c 0.04,-0.5255 0.1261,-0.9465 0.2582,-1.2597 0.1333,-0.3141 0.313,-0.5496 0.5395,-0.7067 0.2256,-0.1567 0.5006,-0.2225 0.824,-0.1981 0.2387,0.0181 0.4445,0.0819 0.6185,0.1919 0.1732,0.1103 0.3118,0.2605 0.4142,0.451 0.1023,0.1891 0.1766,0.4167 0.2233,0.6817 0.0476,0.2656 0.0542,0.6194 0.0207,1.0599 -0.0394,0.5224 -0.1256,0.9414 -0.2568,1.2546 -0.1312,0.3144 -0.3107,0.5499 -0.5377,0.7078 -0.2254,0.1579 -0.5018,0.2245 -0.8272,0.1999 -0.428,-0.0324 -0.7534,-0.2104 -0.9748,-0.5347 -0.2653,-0.3954 -0.3654,-1.0108 -0.3019,-1.8476 z m 0.5598,0.0445 c -0.0558,0.7331 -0.0079,1.2266 0.1452,1.4803 0.1525,0.2542 0.3549,0.3909 0.6057,0.4099 0.2509,0.019 0.4714,-0.0862 0.6608,-0.315 0.1896,-0.2296 0.3115,-0.7092 0.3671,-1.4402 0.0555,-0.7328 0.0073,-1.2263 -0.1454,-1.4797 -0.1514,-0.2546 -0.3561,-0.3909 -0.612,-0.4105 -0.2509,-0.019 -0.4601,0.0726 -0.6265,0.2736 -0.2081,0.2565 -0.3396,0.7511 -0.3949,1.4816 z m 3.8713,0.195 c -0.0125,-0.5269 0.0315,-0.9541 0.1318,-1.2789 0.1015,-0.326 0.2568,-0.578 0.4666,-0.7569 0.2092,-0.1786 0.4762,-0.2713 0.8005,-0.2789 0.2392,-0.006 0.4501,0.0371 0.6344,0.1295 0.1831,0.0924 0.3362,0.2282 0.4569,0.4074 0.1205,0.178 0.2172,0.3971 0.29,0.6562 0.0737,0.2593 0.1154,0.6108 0.1259,1.0528 0.0125,0.5235 -0.0315,0.949 -0.131,1.2739 -0.0995,0.3257 -0.2545,0.5779 -0.4646,0.7577 -0.2086,0.1794 -0.477,0.2732 -0.8033,0.2809 -0.4292,0.0102 -0.7705,-0.1344 -1.0233,-0.4351 -0.303,-0.3671 -0.464,-0.9698 -0.4839,-1.8086 z m 0.5616,-0.0113 c 0.0172,0.735 0.1139,1.2215 0.2914,1.4584 0.1771,0.2381 0.392,0.3538 0.6434,0.3478 0.2517,-0.006 0.4606,-0.1326 0.6265,-0.3789 0.1655,-0.2472 0.2392,-0.7368 0.2219,-1.4695 -0.0173,-0.7348 -0.1142,-1.2212 -0.2914,-1.4582 -0.176,-0.2384 -0.3931,-0.3537 -0.65,-0.3475 -0.2514,0.006 -0.4507,0.1179 -0.5961,0.3342 -0.1817,0.2761 -0.2633,0.7812 -0.2457,1.5137 z m 8.5271,-2.9999 0.5227,-0.1208 0.7954,3.4461 1.5211,-3.9807 0.5703,-0.1318 1.0046,4.3521 -0.5224,0.1204 -0.7934,-3.437 -1.5174,3.9705 -0.5766,0.133 z m 6.5226,2.9874 -1.4182,-4.2349 0.5618,-0.1882 0.5845,1.745 2.1884,-0.7331 -0.5843,-1.745 0.5619,-0.1879 1.4181,4.2349 -0.5618,0.1883 -0.6676,-1.9934 -2.1883,0.7328 0.6676,1.9933 z m 5.3478,-1.9462 -1.8397,-4.0697 0.54,-0.2444 0.758,1.677 2.103,-0.9507 -0.758,-1.6767 0.54,-0.2441 1.8397,4.0697 -0.54,0.2441 -0.8657,-1.9157 -2.1033,0.9508 0.866,1.9156 z m 6.6186,-5.9239 c -0.3058,-0.4294 -0.5088,-0.8078 -0.608,-1.133 -0.0987,-0.3265 -0.1114,-0.6225 -0.038,-0.8881 0.0731,-0.265 0.2424,-0.4918 0.5063,-0.6797 0.195,-0.1389 0.3937,-0.2217 0.5981,-0.2486 0.2035,-0.0264 0.4062,5e-4 0.6066,0.081 0.1995,0.08 0.4028,0.2073 0.6083,0.381 0.2064,0.1735 0.438,0.4411 0.6945,0.8008 0.3039,0.4269 0.506,0.8039 0.6058,1.1285 0.1,0.3254 0.1133,0.6213 0.0399,0.8878 -0.072,0.2656 -0.2415,0.4938 -0.5074,0.6831 -0.3498,0.2492 -0.7135,0.3206 -1.0913,0.2132 -0.457,-0.1338 -0.9278,-0.5425 -1.4148,-1.226 z m 0.4587,-0.324 c 0.4263,0.5987 0.7792,0.9474 1.059,1.044 0.2803,0.0978 0.523,0.0732 0.7276,-0.0728 0.2053,-0.146 0.3073,-0.3682 0.3065,-0.665 -0.002,-0.2977 -0.2149,-0.7441 -0.6404,-1.3414 -0.4263,-0.5984 -0.7792,-0.9468 -1.0587,-1.0437 -0.2795,-0.0986 -0.5239,-0.0723 -0.7331,0.0765 -0.2049,0.146 -0.307,0.3504 -0.3061,0.6112 0.004,0.3302 0.22,0.7942 0.6452,1.3912 z m 3.2266,-2.3513 c -0.3257,-0.4144 -0.5462,-0.7832 -0.6604,-1.1033 -0.1137,-0.3217 -0.1404,-0.6168 -0.0794,-0.8855 0.0607,-0.2682 0.2188,-0.5023 0.4739,-0.7027 0.1883,-0.1477 0.383,-0.2398 0.586,-0.2761 0.2018,-0.0357 0.4056,-0.0184 0.6097,0.0527 0.203,0.0703 0.4119,0.188 0.6253,0.3521 0.2143,0.1635 0.4581,0.4201 0.7311,0.7676 0.3237,0.4119 0.5431,0.7792 0.6579,1.0987 0.1154,0.3203 0.1423,0.6154 0.0813,0.885 -0.0595,0.269 -0.2182,0.5046 -0.475,0.7061 -0.3376,0.2653 -0.6976,0.3538 -1.08,0.2642 -0.4627,-0.1125 -0.9522,-0.4989 -1.4704,-1.1588 z m 0.4428,-0.3453 c 0.4541,0.5783 0.8226,0.9099 1.1069,0.9936 0.2843,0.0844 0.5256,0.0487 0.7234,-0.1066 0.1979,-0.1556 0.2897,-0.3821 0.2747,-0.6786 -0.0153,-0.2974 -0.2492,-0.7333 -0.7018,-1.3099 -0.4542,-0.5783 -0.8229,-0.9097 -1.1067,-0.9933 -0.2837,-0.0856 -0.5267,-0.0479 -0.7288,0.1109 -0.1976,0.155 -0.2902,0.3639 -0.2772,0.6244 0.0198,0.33 0.2571,0.7832 0.7095,1.3595 z m 2.9497,-2.5285 c -0.3636,-0.3818 -0.6182,-0.7276 -0.7622,-1.0355 -0.144,-0.3095 -0.1984,-0.6006 -0.163,-0.8742 0.0346,-0.2724 0.1701,-0.5207 0.4051,-0.7444 0.1732,-0.1649 0.3583,-0.2749 0.5567,-0.3305 0.1979,-0.0547 0.4022,-0.057 0.6123,-0.005 0.2089,0.0508 0.4277,0.148 0.6556,0.2912 0.2291,0.1425 0.4961,0.3747 0.8008,0.6947 0.3612,0.3793 0.6146,0.724 0.7591,1.0313 0.1455,0.3081 0.2002,0.5992 0.1653,0.8733 -0.0337,0.2733 -0.1695,0.523 -0.4059,0.7481 -0.311,0.2959 -0.6611,0.4184 -1.0503,0.3654 -0.4711,-0.0683 -0.9952,-0.4062 -1.5735,-1.014 z m 0.4079,-0.3855 c 0.5069,0.5324 0.9054,0.8277 1.1963,0.8839 0.2911,0.0572 0.5278,-0.002 0.71,-0.1749 0.1823,-0.1735 0.252,-0.4079 0.2092,-0.7016 -0.0436,-0.2945 -0.318,-0.7064 -0.8234,-1.2373 -0.5069,-0.5324 -0.9054,-0.8275 -1.196,-0.8839 -0.2902,-0.0581 -0.5286,0.002 -0.7146,0.1794 -0.1822,0.1735 -0.2545,0.3901 -0.2165,0.648 0.0507,0.3266 0.3299,0.7555 0.835,1.2864 z m 2.7182,-2.7655 c -0.3994,-0.3444 -0.6866,-0.6636 -0.8603,-0.9558 -0.1738,-0.2937 -0.2566,-0.578 -0.2483,-0.8535 0.008,-0.2747 0.1182,-0.5352 0.3299,-0.781 0.1562,-0.1811 0.3297,-0.3089 0.5216,-0.3835 0.1913,-0.074 0.3946,-0.0964 0.6086,-0.0658 0.2129,0.0301 0.4402,0.1052 0.6814,0.2251 0.2418,0.1193 0.5304,0.324 0.8652,0.6126 0.3968,0.3421 0.6828,0.6602 0.8569,0.9519 0.1749,0.2919 0.2579,0.5762 0.2503,0.8526 -0.007,0.2753 -0.1171,0.5372 -0.3303,0.7844 -0.2803,0.3251 -0.6165,0.4813 -1.0091,0.4668 -0.4756,-0.0212 -1.0304,-0.3061 -1.6659,-0.8538 z m 0.3682,-0.424 c 0.5567,0.4799 0.9825,0.7344 1.2773,0.7619 0.2954,0.0281 0.5253,-0.0536 0.6894,-0.244 0.1644,-0.1908 0.2106,-0.4306 0.1392,-0.7189 -0.0723,-0.2886 -0.3858,-0.6715 -0.9411,-1.1503 -0.5568,-0.4799 -0.9825,-0.7342 -1.277,-0.7617 -0.2949,-0.0292 -0.5262,0.0544 -0.6937,0.2489 -0.1644,0.1905 -0.2149,0.4133 -0.1519,0.6664 0.0827,0.3198 0.4028,0.7192 0.9578,1.1977 z m 2.484,-2.9929 c -0.4297,-0.3055 -0.7458,-0.5964 -0.9459,-0.871 -0.2004,-0.2764 -0.3096,-0.5517 -0.3271,-0.8266 -0.0182,-0.2744 0.0674,-0.544 0.2551,-0.8085 0.1386,-0.195 0.2993,-0.3384 0.4836,-0.4308 0.1837,-0.0913 0.3838,-0.1327 0.5998,-0.1222 0.2146,0.01 0.4481,0.0635 0.6993,0.1604 0.252,0.0961 0.5587,0.273 0.9187,0.529 0.4272,0.3033 0.7418,0.5933 0.9425,0.8671 0.2013,0.2747 0.3107,0.5499 0.3288,0.8257 0.019,0.2747 -0.0663,0.5457 -0.2554,0.8119 -0.2486,0.3498 -0.5689,0.5369 -0.9609,0.5593 -0.4757,0.0232 -1.0545,-0.2084 -1.7385,-0.6943 z m 0.3268,-0.4566 c 0.5993,0.4258 1.0469,0.6395 1.3431,0.6389 0.2965,6e-4 0.5179,-0.1023 0.6636,-0.3073 0.1457,-0.2052 0.1692,-0.4484 0.0711,-0.7287 -0.0989,-0.2807 -0.447,-0.6327 -1.0445,-1.0571 -0.5993,-0.4257 -1.0469,-0.6392 -1.3428,-0.6389 -0.2962,-0.002 -0.5187,0.1034 -0.6673,0.3126 -0.1457,0.205 -0.1752,0.4318 -0.089,0.6775 0.1125,0.311 0.4686,0.6786 1.0658,1.103 z m 2.2119,-3.1876 c -0.4578,-0.2616 -0.8008,-0.5198 -1.027,-0.7735 -0.2268,-0.2552 -0.3625,-0.5185 -0.407,-0.7903 -0.0451,-0.2713 0.0136,-0.548 0.1743,-0.8295 0.1188,-0.2077 0.2645,-0.3665 0.4388,-0.4765 0.1735,-0.1091 0.3688,-0.1698 0.5848,-0.1808 0.2146,-0.0111 0.4521,0.0193 0.7118,0.0907 0.2602,0.0709 0.5825,0.2166 0.9663,0.436 0.455,0.2596 0.7965,0.5173 1.0233,0.7701 0.2273,0.2535 0.3634,0.5165 0.4088,0.7892 0.0459,0.2713 -0.0125,0.5496 -0.1744,0.8331 -0.2129,0.3725 -0.5133,0.5902 -0.9014,0.6511 -0.4708,0.07 -1.0698,-0.1034 -1.7983,-0.5196 z m 0.2804,-0.4867 c 0.638,0.3648 1.1046,0.5332 1.3994,0.5037 0.2951,-0.0289 0.5052,-0.153 0.6299,-0.3713 0.125,-0.2186 0.1244,-0.4629 -9e-4,-0.7322 -0.1261,-0.2696 -0.5071,-0.5853 -1.1435,-0.949 -0.6383,-0.3646 -1.1046,-0.5327 -1.3991,-0.5035 -0.2951,0.0278 -0.506,0.154 -0.6333,0.377 -0.1247,0.2183 -0.1318,0.4468 -0.0218,0.6829 0.1425,0.2982 0.5329,0.629 1.1693,0.9924 z m 1.9295,-3.3809 c -0.4802,-0.2177 -0.8459,-0.4427 -1.0947,-0.6743 -0.2495,-0.233 -0.4091,-0.4825 -0.4791,-0.7489 -0.07,-0.2659 -0.0374,-0.5468 0.0964,-0.8422 0.0989,-0.218 0.2293,-0.3895 0.3923,-0.5153 0.1627,-0.1248 0.3515,-0.2036 0.5655,-0.2345 0.2126,-0.0312 0.4521,-0.0232 0.7172,0.0238 0.2656,0.0465 0.6004,0.1613 1.0029,0.3439 0.477,0.2163 0.841,0.4408 1.0905,0.6715 0.25,0.231 0.4099,0.4802 0.4804,0.7475 0.0712,0.2662 0.0392,0.5485 -0.0958,0.8459 -0.1771,0.3909 -0.4558,0.6355 -0.8365,0.7324 -0.4623,0.1134 -1.0749,-0.003 -1.8391,-0.3498 z m 0.2339,-0.5105 c 0.6692,0.3033 1.1494,0.4278 1.4402,0.3708 0.2912,-0.0561 0.4887,-0.1993 0.5925,-0.4283 0.104,-0.2293 0.0808,-0.4726 -0.0692,-0.7288 -0.1505,-0.2568 -0.5595,-0.5358 -1.2271,-0.8385 -0.6695,-0.3033 -1.1494,-0.4275 -1.44,-0.3708 -0.2911,0.055 -0.4893,0.2004 -0.5953,0.4343 -0.1037,0.229 -0.0895,0.4572 0.0423,0.6823 0.1695,0.2835 0.589,0.5763 1.2566,0.879 z m 1.5984,-3.6462 c -0.4907,-0.1927 -0.8674,-0.3988 -1.1282,-0.6171 -0.261,-0.2197 -0.4331,-0.4606 -0.5167,-0.7234 -0.0837,-0.2616 -0.0658,-0.544 0.0527,-0.8458 0.0876,-0.2229 0.2089,-0.4009 0.3654,-0.5349 0.1559,-0.133 0.3404,-0.2214 0.5525,-0.2634 0.2109,-0.0419 0.4504,-0.0462 0.7174,-0.013 0.2676,0.0326 0.6078,0.1301 1.0191,0.2917 0.4878,0.1913 0.8628,0.3968 1.1239,0.6142 0.2616,0.218 0.434,0.4587 0.5185,0.722 0.0847,0.2619 0.0671,0.5457 -0.0522,0.8496 -0.1568,0.3994 -0.4227,0.6582 -0.7977,0.7747 -0.4558,0.1369 -1.0735,0.0518 -1.8547,-0.2546 z m 0.2072,-0.5221 c 0.684,0.2687 1.1702,0.3682 1.4573,0.2962 0.288,-0.0712 0.4779,-0.2242 0.5698,-0.4584 0.0921,-0.2344 0.0564,-0.4762 -0.1066,-0.7242 -0.1638,-0.2486 -0.5865,-0.506 -1.2688,-0.7739 -0.6843,-0.2687 -1.1698,-0.3676 -1.4573,-0.2962 -0.2877,0.07 -0.4782,0.2254 -0.572,0.4646 -0.0919,0.2339 -0.0658,0.4609 0.0774,0.6789 0.1839,0.2744 0.6179,0.5454 1.3002,0.813 z m 1.2685,-3.6689 c -0.5071,-0.1446 -0.902,-0.3135 -1.1823,-0.5057 -0.2809,-0.1936 -0.4757,-0.4167 -0.5839,-0.6701 -0.1086,-0.2526 -0.118,-0.5355 -0.0289,-0.8473 0.0654,-0.2299 0.1692,-0.419 0.312,-0.5675 0.1426,-0.1474 0.3178,-0.2531 0.5247,-0.3152 0.2058,-0.0621 0.4437,-0.0896 0.713,-0.0819 0.2695,0.0065 0.6173,0.0708 1.0425,0.1922 0.5038,0.1434 0.8969,0.3121 1.1775,0.5034 0.2815,0.1916 0.4763,0.4144 0.5854,0.6684 0.1097,0.2526 0.1196,0.5366 0.03,0.8507 -0.1176,0.4127 -0.3571,0.6959 -0.7194,0.8478 -0.4405,0.1803 -1.0635,0.1551 -1.8706,-0.0748 z m 0.1559,-0.5394 c 0.707,0.2015 1.2002,0.2537 1.4792,0.1544 0.28,-0.0983 0.4541,-0.2692 0.5229,-0.511 0.0692,-0.2421 0.0103,-0.4794 -0.1757,-0.7107 -0.1868,-0.2316 -0.6324,-0.4473 -1.3374,-0.6483 -0.7067,-0.2015 -1.1999,-0.2534 -1.4788,-0.1545 -0.2798,0.0973 -0.4544,0.2705 -0.525,0.5174 -0.0689,0.2418 -0.021,0.4651 0.1423,0.6684 0.2098,0.2554 0.6678,0.4833 1.3725,0.6843 z m 0.9465,-3.7517 c -0.5193,-0.0918 -0.9295,-0.2194 -1.2279,-0.3818 -0.2994,-0.1639 -0.5159,-0.3657 -0.6497,-0.6069 -0.1338,-0.2401 -0.1721,-0.5202 -0.1157,-0.8396 0.0417,-0.2356 0.1256,-0.434 0.2526,-0.5965 0.1264,-0.1612 0.29,-0.2843 0.4895,-0.3673 0.1982,-0.0831 0.4323,-0.1347 0.7005,-0.1548 0.269,-0.021 0.6216,0.0074 1.057,0.0845 0.5156,0.0913 0.9241,0.2182 1.2229,0.3801 0.2996,0.1616 0.5161,0.3634 0.6508,0.6049 0.1349,0.2401 0.1738,0.5216 0.1171,0.843 -0.0749,0.4227 -0.2841,0.7288 -0.629,0.9173 -0.4196,0.2245 -1.0421,0.2634 -1.8681,0.1171 z m 0.0998,-0.5525 c 0.7237,0.1279 1.2198,0.1293 1.4871,0.002 0.2684,-0.1267 0.424,-0.3143 0.468,-0.5618 0.0439,-0.248 -0.0392,-0.4779 -0.2478,-0.6891 -0.2098,-0.2112 -0.6749,-0.3801 -1.3969,-0.5077 -0.7237,-0.1281 -1.2195,-0.129 -1.4868,-0.0023 -0.2684,0.1256 -0.4243,0.3158 -0.4691,0.5687 -0.0437,0.2474 0.0266,0.4648 0.21,0.6502 0.2348,0.2325 0.7138,0.4122 1.4355,0.54 z" />
  <path
     id="path20"
     style="fill:#1b1918;fill-rule:evenodd"
     d="m 58.0045,113.6251 0.1959,-0.6055 c 0.4532,0.1593 0.7809,0.2968 0.9873,0.4138 -0.0542,-0.5147 -0.0836,-0.8702 -0.0865,-1.0632 h 0.6231 c -0.0088,0.2823 -0.0408,0.6347 -0.0995,1.0587 0.2939,-0.1477 0.6304,-0.2852 1.0091,-0.4093 l 0.1959,0.6055 c -0.3611,0.1199 -0.7149,0.2004 -1.063,0.2398 0.1741,0.1505 0.4181,0.4212 0.7342,0.8087 l -0.512,0.3643 c -0.1652,-0.2254 -0.3614,-0.5324 -0.5864,-0.9202 -0.2121,0.4023 -0.3977,0.7095 -0.5573,0.9202 l -0.5032,-0.3643 c 0.3291,-0.4079 0.5661,-0.6772 0.7081,-0.8087 -0.3671,-0.0717 -0.7152,-0.1522 -1.0457,-0.2398 z" />
  <path
     id="path22"
     style="fill:#1b1918;fill-rule:evenodd"
     d="m 95.4346,113.836 0.1959,-0.6055 c 0.4532,0.1593 0.7809,0.2968 0.9873,0.4138 -0.0542,-0.5147 -0.0837,-0.8702 -0.0865,-1.0632 h 0.6231 c -0.0088,0.2823 -0.0409,0.6346 -0.0995,1.0587 0.2939,-0.1477 0.6304,-0.2852 1.0091,-0.4093 l 0.1959,0.6055 c -0.3612,0.1199 -0.7149,0.2004 -1.063,0.2398 0.174,0.1505 0.4181,0.4212 0.7342,0.8087 l -0.512,0.3643 c -0.1652,-0.2254 -0.3614,-0.5324 -0.5865,-0.9202 -0.212,0.4023 -0.3977,0.7095 -0.5573,0.9202 l -0.5031,-0.3643 c 0.3291,-0.4079 0.5661,-0.6772 0.7081,-0.8087 -0.3671,-0.0717 -0.7152,-0.1522 -1.0457,-0.2398 z" />
  <path
     id="path24"
     style="fill:#1b1918;fill-rule:evenodd"
     d="m 46.9358,77.7365 1.6339,3.4344 h -0.9134 l -2.0202,-3.4344 2.0202,-3.4345 h 0.9264 z m 2.4318,0 1.673,3.4344 h -0.9524 l -1.9817,-3.4344 1.9817,-3.4345 h 0.9524 z m 3.2063,-1.4049 c 0,-1.8317 0.4116,-3.2672 1.2331,-4.3038 0.8212,-1.0369 1.8807,-1.554 3.1804,-1.554 0.8513,0 1.6169,0.2444 2.3009,0.7305 0.682,0.4864 1.2033,1.1656 1.5613,2.0376 0.3583,0.8696 0.5386,1.8575 0.5386,2.9613 0,1.1191 -0.1888,2.1223 -0.5663,3.0047 -0.3776,0.885 -0.9114,1.554 -1.6019,2.0067 -0.6928,0.4555 -1.4391,0.6817 -2.2391,0.6817 -0.8685,0 -1.6427,-0.252 -2.3269,-0.7537 -0.6821,-0.5017 -1.2008,-1.186 -1.5529,-2.0554 -0.3515,-0.8671 -0.5272,-1.7856 -0.5272,-2.7556 z m 1.2608,0.0258 c 0,1.33 0.2982,2.3772 0.8944,3.1414 0.5961,0.7639 1.3447,1.1474 2.2453,1.1474 0.9181,0 1.6707,-0.386 2.2649,-1.1579 0.5916,-0.7716 0.8878,-1.8678 0.8878,-3.2876 0,-0.8981 -0.1267,-1.6827 -0.3796,-2.3517 -0.2531,-0.6687 -0.6242,-1.1885 -1.1109,-1.5565 -0.4889,-0.3676 -1.0357,-0.553 -1.6429,-0.553 -0.862,0 -1.6042,0.3552 -2.2261,1.065 -0.6219,0.7101 -0.9329,1.8935 -0.9329,3.5529 z m 13.8436,-5.961 1.0037,0.0156 c -0.0453,0.5378 -0.1459,0.9134 -0.2982,1.1243 -0.1522,0.2108 -0.3475,0.3446 -0.5876,0.4064 -0.2401,0.0593 -0.712,0.0902 -1.4133,0.0902 -0.9309,0 -1.5656,0.108 -1.9043,0.324 -0.3368,0.2163 -0.5814,0.561 -0.7294,1.0343 -0.148,0.476 -0.2293,1.0857 -0.2466,1.8343 0.2851,-0.5093 0.6177,-0.89 0.9995,-1.1449 0.3795,-0.2545 0.8104,-0.3807 1.2866,-0.3807 0.8751,0 1.5999,0.36 2.1748,1.0806 0.5726,0.7203 0.86,1.6954 0.86,2.9276 0,0.934 -0.144,1.7005 -0.4334,2.2975 -0.2894,0.5967 -0.6324,1.0599 -1.0293,1.3867 -0.3946,0.3266 -0.9351,0.4887 -1.6169,0.4887 -0.7937,0 -1.4091,-0.216 -1.8487,-0.6508 -0.4397,-0.4349 -0.7764,-0.9905 -1.0126,-1.6671 -0.2335,-0.6766 -0.3515,-1.8575 -0.3515,-3.5376 0,-2.1121 0.2983,-3.5348 0.8924,-4.2679 0.5939,-0.7333 1.5097,-1.0987 2.7451,-1.0987 0.7699,0 1.205,-0.0153 1.3101,-0.0462 0.1029,-0.0309 0.1696,-0.1029 0.1996,-0.2163 z m -0.0386,7.2732 c 0,-0.8311 -0.1652,-1.5129 -0.4935,-2.0452 -0.3279,-0.5327 -0.7914,-0.7977 -1.3895,-0.7977 -0.6242,0 -1.1047,0.2804 -1.4434,0.8439 -0.3387,0.5607 -0.5083,1.3096 -0.5083,2.2484 0,0.9264 0.1868,1.6362 0.5619,2.1277 0.3733,0.4913 0.8365,0.7384 1.3833,0.7384 0.5618,0 1.0165,-0.2857 1.366,-0.854 0.3498,-0.5687 0.5235,-1.3224 0.5235,-2.2615 z m 2.5456,7.1135 V 73.6999 h 1.0292 v 1.0523 c 0.2427,-0.4065 0.5171,-0.7127 0.8238,-0.9159 0.3044,-0.2033 0.6755,-0.3062 1.1109,-0.3062 0.5703,0 1.0723,0.1749 1.5074,0.5273 0.4357,0.3501 0.7637,0.8464 0.9868,1.4845 0.2208,0.6406 0.3325,1.3405 0.3325,2.1044 0,0.8156 -0.1225,1.5514 -0.3668,2.2074 -0.2447,0.6536 -0.6004,1.1551 -1.0681,1.5052 -0.4652,0.3472 -0.9567,0.5221 -1.4712,0.5221 -0.3773,0 -0.7163,-0.0952 -1.0145,-0.2854 -0.2999,-0.1905 -0.5446,-0.4298 -0.7376,-0.7206 v 3.9081 z m 1.0292,-7.0288 c 0,1.0267 0.1741,1.7856 0.5193,2.2768 0.3473,0.4915 0.7676,0.7384 1.2609,0.7384 0.5017,0 0.9306,-0.2545 1.2869,-0.7639 0.358,-0.5094 0.536,-1.2966 0.536,-2.3644 0,-1.0187 -0.1737,-1.7801 -0.5232,-2.287 -0.3495,-0.5068 -0.7657,-0.7591 -1.2504,-0.7591 -0.4805,0 -0.9051,0.2702 -1.2739,0.8079 -0.371,0.5403 -0.5556,1.3224 -0.5556,2.3513 z m 10.4893,2.9534 c -0.4203,0.4298 -0.8257,0.7308 -1.2138,0.9083 -0.388,0.1774 -0.8041,0.265 -1.2503,0.265 -0.7333,0 -1.2974,-0.2134 -1.692,-0.6432 -0.3946,-0.4272 -0.5919,-0.9751 -0.5919,-1.6412 0,-0.3912 0.0751,-0.7487 0.2228,-1.0729 0.1505,-0.3243 0.3453,-0.5814 0.5857,-0.777 0.2423,-0.1956 0.5125,-0.3447 0.8149,-0.4451 0.2231,-0.0694 0.5599,-0.1363 1.008,-0.2032 0.9136,-0.1287 1.5891,-0.2855 2.0203,-0.4657 0.0042,-0.1851 0.0062,-0.3036 0.0062,-0.3524 0,-0.5505 -0.1071,-0.9391 -0.3214,-1.1653 -0.2897,-0.3061 -0.7209,-0.4581 -1.2912,-0.4581 -0.5341,0 -0.9287,0.1131 -1.1818,0.3371 -0.2551,0.2239 -0.4416,0.6199 -0.5641,1.1911 L 77.1489,76 c 0.1009,-0.5687 0.2658,-1.0293 0.4974,-1.3791 0.2316,-0.3498 0.5661,-0.6174 1.0035,-0.8079 0.4357,-0.1876 0.9439,-0.2829 1.5185,-0.2829 0.5706,0 1.0361,0.0797 1.3941,0.2418 0.356,0.1622 0.6196,0.3629 0.7869,0.6072 0.1675,0.2444 0.2854,0.5531 0.354,0.9261 0.0363,0.2316 0.0559,0.6483 0.0559,1.2478 v 1.8009 c 0,1.258 0.0232,2.0531 0.0706,2.3898 0.045,0.3371 0.1394,0.6588 0.2766,0.9675 H 81.9227 C 81.809,81.4258 81.7359,81.0913 81.7038,80.7077 Z m -0.0901,-3.0098 c -0.4116,0.2007 -1.0293,0.3705 -1.8527,0.5094 -0.4677,0.0797 -0.798,0.1698 -0.9907,0.2701 -0.1931,0.1004 -0.3413,0.2469 -0.4462,0.4374 -0.1052,0.1928 -0.1587,0.4065 -0.1587,0.6432 0,0.3575 0.1136,0.6585 0.3429,0.8977 0.2297,0.2393 0.5641,0.3603 1.0038,0.3603 0.4354,0 0.8235,-0.1134 1.1645,-0.3421 0.339,-0.2265 0.5899,-0.5377 0.7483,-0.9315 0.1225,-0.3061 0.1826,-0.7563 0.1826,-1.3507 z m 4.2205,0.3858 v -1.065 c 0.4762,-0.0051 0.8022,-0.0283 0.974,-0.0669 0.1735,-0.0413 0.3387,-0.1595 0.4929,-0.3602 0.1548,-0.2007 0.2316,-0.4502 0.2316,-0.7512 0,-0.3629 -0.1006,-0.656 -0.3041,-0.8722 -0.2041,-0.2186 -0.4658,-0.3266 -0.7895,-0.3266 -0.6369,0 -1.0831,0.4476 -1.3382,1.3428 L 84.02,75.7684 c 0.3345,-1.4922 1.1452,-2.2383 2.4276,-2.2383 0.7121,0 1.2697,0.2316 1.675,0.6971 0.4054,0.4657 0.6069,1.0216 0.6069,1.6673 0,0.6509 -0.2639,1.1704 -0.7892,1.5537 0.3368,0.2163 0.5877,0.4915 0.7572,0.826 0.1672,0.3345 0.2508,0.7305 0.2508,1.1886 0,0.7177 -0.2188,1.2991 -0.6542,1.7467 -0.4374,0.4476 -1.0465,0.6715 -1.8312,0.6715 -1.5227,0 -2.4066,-0.8079 -2.6487,-2.4233 l 1.0681,-0.2781 c 0.0964,0.5094 0.2914,0.9057 0.5874,1.186 0.2962,0.2806 0.6327,0.4195 1.0145,0.4195 0.3818,0 0.699,-0.1287 0.9521,-0.3886 0.2532,-0.2571 0.3796,-0.5865 0.3796,-0.9879 0,-0.3112 -0.0791,-0.5814 -0.2378,-0.8129 -0.159,-0.2316 -0.3283,-0.3756 -0.5086,-0.4323 -0.18,-0.059 -0.5059,-0.0873 -0.9779,-0.0873 -0.0386,0 -0.1242,0.0025 -0.2574,0.0076 z m 8.8316,1.0344 1.1713,0.1851 c -0.1825,0.8155 -0.5236,1.451 -1.021,1.9012 -0.4975,0.4501 -1.1325,0.6766 -1.9066,0.6766 -0.9734,0 -1.7459,-0.3603 -2.3162,-1.0806 -0.5703,-0.7177 -0.8555,-1.7288 -0.8555,-3.0279 0,-1.3431 0.2871,-2.3874 0.864,-3.1283 0.5771,-0.7436 1.3255,-1.1141 2.2456,-1.1141 0.8898,0 1.6169,0.3629 2.181,1.0908 0.5641,0.728 0.847,1.7521 0.847,3.0719 0,0.0797 -0.002,0.2004 -0.0063,0.36 h -4.9734 c 0.0429,0.8773 0.2489,1.5514 0.622,2.0172 0.371,0.4654 0.8362,0.6995 1.3918,0.6995 0.4141,0 0.7676,-0.1312 1.0593,-0.3934 0.2939,-0.2625 0.5255,-0.6817 0.697,-1.258 z m -3.7057,-2.1767 h 3.7188 c -0.0494,-0.6738 -0.1931,-1.1781 -0.4269,-1.5152 -0.358,-0.5224 -0.8258,-0.7846 -1.3984,-0.7846 -0.5187,0 -0.9544,0.2084 -1.3079,0.625 -0.352,0.4167 -0.5471,0.9752 -0.5856,1.6748 z m 6.3198,-3.2415 h 1.1328 v 6.8998 h 3.1396 v -6.8998 h 1.1325 v 6.8998 h 0.7333 v 3.3806 h -0.9264 v -2.2691 h -5.2118 z m 11.4761,4.0366 -1.66,-3.4345 h 0.9267 l 2.033,3.4345 -2.0203,3.4344 h -0.9266 z m -2.4318,0 -1.6731,-3.4345 h 0.9522 l 1.9817,3.4345 -1.9817,3.4344 h -0.9522 z" />
</svg>
