<svg width="26" height="29" viewBox="0 0 26 29" fill="none" xmlns="http://www.w3.org/2000/svg">
<g clip-path="url(#clip0_746_769)">
<path d="M26 0.358379V20.1086C26 20.3057 25.8419 20.467 25.6486 20.467H16.3378C16.1446 20.467 15.9865 20.3057 15.9865 20.1086C15.9865 19.9115 16.1446 19.7502 16.3378 19.7502H25.2973V0.716757H0.702703V19.7502H10.1892C10.3824 19.7502 10.5405 19.9115 10.5405 20.1086C10.5405 20.3057 10.3824 20.467 10.1892 20.467H0.351351C0.158108 20.467 0 20.3057 0 20.1086V0.358379C0 0.16127 0.158108 0 0.351351 0H25.6486C25.8419 0 26 0.16127 26 0.358379Z" fill="black"/>
<path d="M12.9106 28.6377L12.9106 13.2848C12.9106 13.0877 13.0687 12.9264 13.2619 12.9264C13.4552 12.9264 13.6133 13.0877 13.6133 13.2848L13.6133 28.6377C13.6133 28.8348 13.4552 28.9961 13.2619 28.9961C13.0687 28.9961 12.9106 28.8348 12.9106 28.6377Z" fill="black"/>
<path d="M10.3076 16.5568C10.3076 16.4851 10.3287 16.4134 10.3743 16.3489L12.9778 12.6218C13.0446 12.5286 13.15 12.4713 13.2624 12.4713C13.3749 12.4713 13.4838 12.5286 13.547 12.6218L16.1541 16.3489C16.2665 16.5102 16.2278 16.7324 16.0732 16.8471C15.9151 16.9618 15.6973 16.9259 15.5849 16.7646L13.2659 13.4461L10.947 16.7646C10.8346 16.9259 10.6132 16.9618 10.4587 16.8471C10.3638 16.7754 10.3111 16.6679 10.3111 16.5532L10.3076 16.5568Z" fill="black"/>
</g>
<defs>
<clipPath id="clip0_746_769">
<rect width="26" height="29" fill="white"/>
</clipPath>
</defs>
</svg>
