<svg width="22" height="19" viewBox="0 0 22 19" fill="none" xmlns="http://www.w3.org/2000/svg">
<path d="M16.1304 1.77369C17.4988 1.77369 18.5064 2.1106 19.2104 2.80216C19.9012 3.48485 20.24 4.46011 20.24 5.79003C20.24 7.1155 19.47 8.56067 17.9564 10.0901L11 16.8372L4.0216 10.0546L3.9688 10.0014L3.9072 9.94822C3.9072 9.94822 3.8544 9.90388 3.7268 9.77089C3.6784 9.72213 3.5288 9.55811 3.1592 9.08821C2.8996 8.76016 2.662 8.41882 2.4596 8.07747C2.2836 7.78046 2.1164 7.39479 1.9624 6.93818C1.8304 6.53478 1.7644 6.1491 1.7644 5.79003C1.7644 4.46011 2.0988 3.48485 2.794 2.80216C3.498 2.1106 4.5056 1.77369 5.874 1.77369C6.1908 1.77369 6.5252 1.83132 6.8684 1.94658C7.2512 2.07514 7.6076 2.24803 7.9332 2.46525C8.338 2.73566 8.69 2.98835 8.9716 3.21443C9.2488 3.43608 9.5128 3.67547 9.7592 3.92372L11.0044 5.17827L12.2496 3.92372C12.496 3.67547 12.7644 3.43608 13.0372 3.21443C13.3232 2.98391 13.6752 2.73123 14.08 2.46525C14.4056 2.25246 14.762 2.07514 15.1404 1.95102C15.488 1.83576 15.8224 1.77813 16.1392 1.77813M16.1392 0.00491147C15.6332 0.00491147 15.114 0.0935722 14.586 0.270894C14.058 0.448215 13.5652 0.687599 13.112 0.989046C12.6588 1.29049 12.2672 1.57421 11.9416 1.83576C11.616 2.10174 11.3036 2.38102 11.0088 2.67803C10.714 2.38102 10.4016 2.10174 10.076 1.83576C9.7504 1.56977 9.3588 1.29049 8.9056 0.989046C8.4524 0.687599 7.9596 0.448215 7.4316 0.270894C6.9036 0.0935722 6.3844 0.00491147 5.8784 0.00491147C4.0348 0.000478437 2.6004 0.510278 1.5576 1.53431C0.5192 2.55834 0 3.97691 0 5.79003C0 6.34416 0.0968 6.91158 0.2904 7.49675C0.484 8.08191 0.6996 8.58284 0.946 8.99511C1.1924 9.40738 1.4696 9.81079 1.782 10.2009C2.0944 10.591 2.3188 10.8614 2.464 11.0121C2.6092 11.1584 2.7192 11.2693 2.8028 11.3358L10.4632 18.7833C10.6084 18.9295 10.7888 19.0049 11.0044 19.0049C11.22 19.0049 11.396 18.9295 11.5456 18.7833L19.1928 11.3624C21.0672 9.47388 22.0044 7.62087 22.0044 5.79446C22.0044 3.98135 21.4852 2.56277 20.4468 1.53874C19.4084 0.514711 17.9696 0.00491147 16.1392 0.00491147Z" fill="#1D1D1B"/>
</svg>
