<?xml version="1.0" encoding="UTF-8"?>
<svg id="Layer_1" data-name="Layer 1" xmlns="http://www.w3.org/2000/svg" viewBox="0 0 461.36 82.87">
  <g>
    <path d="M140.23,41c1.67,.22,3.77,.51,6.3,.89,2.53,.38,4.98,1.14,7.35,2.3,2.37,1.16,4.4,2.86,6.1,5.09,1.7,2.24,2.55,5.32,2.55,9.25,0,2.32-.47,4.56-1.41,6.75-.94,2.18-2.36,4.12-4.24,5.82-1.89,1.7-4.28,3.06-7.19,4.08-2.91,1.02-6.36,1.54-10.34,1.54-4.63,0-8.78-.65-12.44-1.94s-6.73-3.12-9.21-5.49l4.6-12.68c1.99,2.32,4.46,4.07,7.39,5.25,2.93,1.19,6.15,1.78,9.65,1.78,2.91,0,5.08-.46,6.5-1.37,1.43-.92,2.14-2.15,2.14-3.72,0-.75-.13-1.44-.4-2.06-.27-.62-.77-1.17-1.5-1.66-.73-.48-1.71-.93-2.95-1.33-1.24-.4-2.8-.71-4.69-.93-1.51-.16-3.43-.46-5.78-.89-2.34-.43-4.6-1.24-6.79-2.42-2.18-1.18-4.07-2.89-5.65-5.13-1.59-2.23-2.38-5.24-2.38-9.01,0-2.05,.43-4.05,1.29-6.02,.86-1.97,2.19-3.73,4-5.29,1.8-1.56,4.11-2.83,6.91-3.8,2.8-.97,6.14-1.45,10.02-1.45s7.16,.5,10.34,1.49c3.18,1,6.14,2.36,8.89,4.08l-4.6,12.52c-1.02-.86-2.17-1.6-3.43-2.22-1.27-.62-2.59-1.13-3.96-1.54-1.37-.4-2.75-.71-4.12-.93-1.37-.21-2.65-.32-3.84-.32-2.48,0-4.26,.39-5.33,1.17-1.08,.78-1.62,1.79-1.62,3.03,0,1.08,.53,2.1,1.58,3.07,1.05,.97,3.14,1.67,6.26,2.1Z"/>
    <path d="M195.97,74.77c-.92,.43-2.06,.86-3.43,1.29-1.37,.43-3.08,.65-5.13,.65-5.71,0-9.87-1.43-12.48-4.28-2.61-2.85-3.92-7.16-3.92-12.93v-13.09h-6.54v-10.91h6.54v-11.31h13.17v11.31h10.18v10.91h-10.18v12.44c0,1.99,.32,3.41,.97,4.24,.65,.84,1.86,1.25,3.64,1.25,.54,0,1.08-.08,1.62-.24,.54-.16,1.02-.35,1.45-.57l4.12,11.23Z"/>
    <path d="M213.99,34.7c3.12,0,5.9,.69,8.32,2.06,2.42,1.37,4.42,3.25,5.98,5.61v-6.87h13.09v40.4h-13.09v-6.87c-1.56,2.42-3.55,4.31-5.98,5.66-2.42,1.35-5.2,2.02-8.32,2.02-2.64,0-5.05-.53-7.23-1.58-2.18-1.05-4.04-2.5-5.57-4.36-1.54-1.86-2.72-4.07-3.56-6.62-.83-2.56-1.25-5.37-1.25-8.44s.42-5.88,1.25-8.44c.83-2.56,2.02-4.77,3.56-6.62,1.53-1.86,3.39-3.31,5.57-4.36,2.18-1.05,4.59-1.58,7.23-1.58Zm4.93,30.46c1.35,0,2.6-.24,3.76-.73,1.16-.48,2.15-1.16,2.99-2.02,.83-.86,1.48-1.86,1.94-2.99,.46-1.13,.69-2.34,.69-3.64s-.23-2.52-.69-3.68c-.46-1.16-1.1-2.17-1.94-3.03-.83-.86-1.83-1.54-2.99-2.02-1.16-.48-2.41-.73-3.76-.73-2.75,0-5,.9-6.75,2.71-1.75,1.81-2.63,4.03-2.63,6.67s.87,4.94,2.63,6.75c1.75,1.81,4,2.71,6.75,2.71Z"/>
    <path d="M273.61,34.7c1.99,0,3.88,.38,5.66,1.13l-4.52,12.44c-1.18-1.29-3.02-1.94-5.49-1.94-2.21,0-3.99,.71-5.33,2.14-1.35,1.43-2.02,3.43-2.02,6.02v21.41h-13.09V35.5h13.09v6.22c1.02-2.1,2.5-3.8,4.44-5.09,1.94-1.29,4.36-1.94,7.27-1.94Z"/>
    <path d="M312.63,74.77c-.92,.43-2.06,.86-3.43,1.29-1.37,.43-3.08,.65-5.13,.65-5.71,0-9.87-1.43-12.48-4.28-2.61-2.85-3.92-7.16-3.92-12.93v-13.09h-6.54v-10.91h6.54v-11.31h13.17v11.31h10.18v10.91h-10.18v12.44c0,1.99,.32,3.41,.97,4.24,.65,.84,1.86,1.25,3.64,1.25,.54,0,1.08-.08,1.62-.24,.54-.16,1.02-.35,1.45-.57l4.12,11.23Z"/>
    <path d="M332.66,32.44v6.87h19.31v13.09h-19.31v23.51h-14.54V19.35h38.21l-4.77,13.09h-18.91Z"/>
    <path d="M372.41,29.77h-10.75v-13.33h15.59l-4.85,13.33Zm2.5,46.13h-13.09V35.5h13.09v40.4Z"/>
    <path d="M399.56,50.05c5.76,.76,10.09,2.16,12.97,4.2,2.88,2.05,4.32,5.04,4.32,8.97,0,1.99-.34,3.82-1.01,5.49-.67,1.67-1.76,3.1-3.27,4.28-1.51,1.19-3.46,2.1-5.86,2.75-2.4,.65-5.35,.97-8.85,.97s-6.88-.53-9.98-1.58c-3.1-1.05-5.53-2.19-7.31-3.43l3.39-9.53c1.4,.92,3.24,1.81,5.53,2.67,2.29,.86,4.83,1.29,7.63,1.29,2.59,0,4.32-.27,5.21-.81,.89-.54,1.33-1.29,1.33-2.26,0-.86-.43-1.47-1.29-1.82-.86-.35-2.4-.69-4.6-1.01-3.39-.43-6.17-1.1-8.32-2.02-2.15-.92-3.84-1.95-5.05-3.11-1.21-1.16-2.03-2.38-2.46-3.68-.43-1.29-.65-2.56-.65-3.8,0-1.94,.3-3.7,.89-5.29,.59-1.59,1.59-2.95,2.99-4.08s3.24-2.01,5.53-2.63c2.29-.62,5.16-.93,8.6-.93,3.23,0,6.22,.4,8.97,1.21,2.75,.81,5.06,1.7,6.95,2.67l-3.56,9.61c-1.72-.92-3.66-1.68-5.82-2.3-2.16-.62-4.34-.93-6.54-.93-3.29,0-4.93,.78-4.93,2.34,0,1.02,.55,1.68,1.66,1.98,1.1,.3,2.27,.55,3.51,.77Z"/>
    <path d="M434.78,42.37c1.18-2.26,2.89-4.11,5.13-5.53,2.23-1.43,4.73-2.14,7.47-2.14,1.94,0,3.76,.31,5.45,.93,1.7,.62,3.18,1.55,4.44,2.79,1.26,1.24,2.26,2.77,2.99,4.6,.73,1.83,1.09,3.96,1.09,6.38v26.5h-13.17v-22.86c0-1.88-.63-3.46-1.9-4.73-1.27-1.26-2.84-1.9-4.73-1.9s-3.49,.65-4.81,1.94c-1.32,1.29-1.98,2.88-1.98,4.77v22.78h-13.09V16.52h13.09v25.85Z"/>
  </g>
  <path d="M93.02,32.5L38.94,1.28c-3.24-1.12-7.86-2.22-10.25,0-4.7,4.35,5.4,15.71,7.37,32.89-2.53-1.24-5.13-2.63-7.78-4.23-7.86-4.73-13.98-9.84-18.51-14.2-.13-.07-3.32-1.84-6.51,0-1.9,1.1-3.26,3.13-3.26,5.64V60.23c0,5.01,5.43,8.15,9.77,5.64,5.07-4.49,11.65-9.59,19.85-14.39,2.08-1.22,4.12-2.33,6.13-3.35-2.5,16.94-11.31,30.48-7.06,33.35,.7,.47,3.22,1.66,6.24,1.33,1.35-.15,2.71-.58,4.01-1.33l54.07-31.22c6.83-3.95,6.83-13.81,0-17.76Z"/>
</svg>