<svg width="26" height="29" viewBox="0 0 26 29" fill="none" xmlns="http://www.w3.org/2000/svg">
<g clip-path="url(#clip0_746_749)">
<path d="M26 0.358379V20.1086C26 20.3057 25.8419 20.467 25.6486 20.467H16.3378C16.1446 20.467 15.9865 20.3057 15.9865 20.1086C15.9865 19.9115 16.1446 19.7502 16.3378 19.7502H25.2973V0.716757H0.702703V19.7502H10.1892C10.3824 19.7502 10.5405 19.9115 10.5405 20.1086C10.5405 20.3057 10.3824 20.467 10.1892 20.467H0.351351C0.158108 20.467 0 20.3057 0 20.1086V0.358379C0 0.16127 0.158108 0 0.351351 0H25.6486C25.8419 0 26 0.16127 26 0.358379Z" fill="black"/>
<path d="M13.6148 12.8301V28.183C13.6148 28.3801 13.4567 28.5414 13.2635 28.5414C13.0702 28.5414 12.9121 28.3801 12.9121 28.183V12.8301C12.9121 12.633 13.0702 12.4717 13.2635 12.4717C13.4567 12.4717 13.6148 12.633 13.6148 12.8301Z" fill="black"/>
<path d="M16.2178 24.911C16.2178 24.9827 16.1967 25.0543 16.1511 25.1188L13.5475 28.846C13.4808 28.9392 13.3754 28.9965 13.263 28.9965C13.1505 28.9965 13.0416 28.9392 12.9784 28.846L10.3713 25.1188C10.2589 24.9576 10.2975 24.7354 10.4521 24.6207C10.6103 24.506 10.8281 24.5419 10.9405 24.7031L13.2594 28.0217L15.5784 24.7031C15.6908 24.5419 15.9121 24.506 16.0667 24.6207C16.1616 24.6924 16.2143 24.7999 16.2143 24.9146L16.2178 24.911Z" fill="black"/>
</g>
<defs>
<clipPath id="clip0_746_749">
<rect width="26" height="29" fill="white"/>
</clipPath>
</defs>
</svg>
