<svg width="46" height="52" viewBox="0 0 46 52" fill="none" xmlns="http://www.w3.org/2000/svg">
<g clip-path="url(#clip0_275_15)">
<path d="M23.0312 52.0003C20.8259 52.0003 18.6049 51.668 16.4308 50.9912C4.27816 47.2222 -2.66119 33.8726 0.958497 21.2323C3.50669 12.3488 10.8513 5.74293 19.6725 4.39339C20.0972 4.32854 20.4947 4.63655 20.557 5.07829C20.6193 5.52003 20.3232 5.93341 19.8985 5.99825C11.6734 7.25458 4.82755 13.4147 2.45469 21.6943C-0.919531 33.4795 5.54837 45.9253 16.8789 49.439C22.3688 51.1411 28.1626 50.517 33.2006 47.6842C38.2385 44.8513 41.9128 40.1462 43.5492 34.4359C44.2077 32.1421 44.5038 29.7794 44.4337 27.4126C44.422 26.9668 44.7571 26.5899 45.1896 26.5778C45.6182 26.5697 45.9805 26.9142 45.9922 27.364C46.0662 29.9091 45.7506 32.4461 45.0415 34.902C43.2882 41.0256 39.3451 46.0753 33.9409 49.1148C30.5316 51.0317 26.7989 52.0043 23.0312 52.0043V52.0003Z" fill="black"/>
<path d="M24.6756 12.0368C24.1223 12.0368 23.5613 11.9517 23.0158 11.7815C21.5352 11.3236 20.3156 10.2901 19.5792 8.87573C18.8428 7.46135 18.6831 5.83622 19.1233 4.2962C20.0351 1.1189 23.2612 -0.696707 26.3199 0.251621C29.3785 1.19995 31.124 4.55557 30.2123 7.73693C29.772 9.27695 28.7784 10.5454 27.4186 11.3114C26.5614 11.7937 25.6224 12.0368 24.6756 12.0368ZM24.6717 1.62143C22.8521 1.62143 21.165 2.8575 20.6195 4.76226C19.9533 7.08445 21.2313 9.54037 23.4639 10.2293C25.6964 10.9223 28.0576 9.59306 28.72 7.27087C29.3863 4.94868 28.1083 2.49276 25.8757 1.8038C25.4744 1.67817 25.0691 1.62143 24.6717 1.62143Z" fill="black"/>
</g>
<defs>
<clipPath id="clip0_275_15">
<rect width="46" height="52" fill="white"/>
</clipPath>
</defs>
</svg>
