<svg width="45" height="45" viewBox="0 0 45 45" fill="none" xmlns="http://www.w3.org/2000/svg">
<g clip-path="url(#clip0_746_559)">
<path d="M6.0184 12.1237C9.25289 12.1237 11.8866 9.65378 12.1136 6.50996H29.5715C33.4837 6.50996 36.6448 9.65378 36.6448 13.5445C36.6448 17.4352 33.4103 20.579 29.5715 20.579H13.5458C8.65559 20.579 4.58977 24.5461 4.58977 29.4859C4.58977 34.4257 8.57875 38.3928 13.5458 38.3928H27.5421L21.8975 43.3326C21.5202 43.7077 21.4469 44.2323 21.8206 44.6804C22.1979 45.0556 22.7253 45.1285 23.1759 44.7534C31.0036 37.9447 30.6998 38.167 30.7766 38.094C31.077 37.7189 31.077 37.1978 30.6998 36.8226C30.6264 36.7497 24.7547 31.6605 23.099 30.2362C22.7218 29.861 22.121 29.9375 21.7438 30.3092C21.3665 30.6843 21.4434 31.2818 21.8206 31.657L27.4653 36.5968H13.5458C9.63363 36.5968 6.47248 33.453 6.47248 29.5623C6.47248 25.6716 9.63363 22.5278 13.5458 22.5278H29.575C34.4652 22.5278 38.531 18.5607 38.531 13.6209C38.531 8.6811 34.542 4.71399 29.575 4.71399H12.0403C11.4395 2.02177 8.95599 0 6.09524 0C2.70706 0 0 2.69569 0 6.06183C0 9.42798 2.6337 12.1237 6.0184 12.1237ZM6.0184 1.86892C8.3517 1.86892 10.2309 3.73784 10.2309 6.05836C10.2309 8.37888 8.34821 10.2478 6.0184 10.2478C3.68858 10.2478 1.80587 8.37541 1.80587 6.05836C1.80587 3.74132 3.68858 1.87239 6.0184 1.87239V1.86892Z" fill="black"/>
<path d="M32.8086 36.9724C32.8086 40.3386 35.5191 43.0343 38.9038 43.0343C42.2885 43.0343 44.9991 40.3386 44.9991 36.9724C44.9991 33.6063 42.2885 30.9106 38.9038 30.9106C35.5925 30.8376 32.8086 33.6063 32.8086 36.9724ZM38.9807 32.7066C41.314 32.7066 43.1932 34.579 43.1932 36.896C43.1932 39.213 41.3105 41.0854 38.9807 41.0854C36.6509 41.0854 34.7682 39.213 34.7682 36.896C34.7682 34.579 36.6509 32.7066 38.9807 32.7066Z" fill="black"/>
</g>
<defs>
<clipPath id="clip0_746_559">
<rect width="45" height="45" fill="white"/>
</clipPath>
</defs>
</svg>
