<svg width="49" height="45" viewBox="0 0 49 45" fill="none" xmlns="http://www.w3.org/2000/svg">
<g clip-path="url(#clip0_746_552)">
<path d="M24.4835 45C24.2867 45 24.102 44.9139 23.9748 44.7656L0.151584 16.3442C-0.0422236 16.1128 -0.0482801 15.7804 0.136443 15.543L12.0465 0.255193C12.1707 0.0949555 12.3645 0 12.5704 0H36.9145C37.1264 0 37.3263 0.10089 37.4474 0.267062L48.873 15.7685C49.0486 16.0089 49.0365 16.3323 48.8457 16.5579L24.9892 44.7626C24.8651 44.911 24.6773 44.997 24.4805 44.997L24.4835 45ZM1.49915 15.9199L24.4835 43.3412L47.5072 16.1217L36.5783 1.2908H12.8975L1.49915 15.9199Z" fill="black"/>
<path d="M24.4832 45.0005C24.2228 45.0005 23.9775 44.8491 23.8745 44.5999L11.9614 16.1785C11.8736 15.9649 11.9039 15.7245 12.0462 15.5405L23.9593 0.255655C24.1804 -0.0262437 24.5952 -0.0826235 24.8829 0.133994C25.1736 0.350611 25.2281 0.757139 25.0071 1.03904L13.3241 16.0301L25.0919 44.1103C25.2312 44.4396 25.0707 44.8165 24.7315 44.953C24.6497 44.9856 24.5649 45.0005 24.4802 45.0005H24.4832Z" fill="black"/>
<path d="M24.5024 45.0005C24.4176 45.0005 24.3328 44.9856 24.2511 44.953C23.9149 44.8165 23.7544 44.4396 23.8907 44.1103L35.6585 16.0301L23.9755 1.03904C23.7544 0.757139 23.8089 0.350611 24.0997 0.133994C24.3904 -0.0826235 24.8022 -0.0262437 25.0233 0.255655L36.9364 15.5435C37.0787 15.7245 37.112 15.9678 37.0212 16.1815L25.1081 44.6028C25.0051 44.8521 24.7568 45.0034 24.4994 45.0034L24.5024 45.0005Z" fill="black"/>
<path d="M48.3398 16.5789H0.660157C0.296768 16.5789 0 16.2911 0 15.932C0 15.573 0.29374 15.2852 0.660157 15.2852H48.3398C48.7032 15.2852 49 15.573 49 15.932C49 16.2911 48.7063 16.5789 48.3398 16.5789Z" fill="black"/>
</g>
<defs>
<clipPath id="clip0_746_552">
<rect width="49" height="45" fill="white"/>
</clipPath>
</defs>
</svg>
