<svg width="82" height="37" viewBox="0 0 82 37" fill="none" xmlns="http://www.w3.org/2000/svg">
<g clip-path="url(#clip0_275_137)">
<path d="M0.16437 16.1275C4.043 21.5603 9.03035 26.1535 14.8016 29.4284C20.5729 32.7032 27.0759 34.6218 33.6946 34.7396C40.3132 34.8574 46.9804 33.2275 52.7816 29.9792C58.3886 26.8373 63.753 21.9668 65.5075 15.4817C66.3325 12.4271 66.1496 9.07628 64.4212 6.36748C62.6928 3.65868 60.2327 2.02884 57.418 1.01446C54.663 0.0190842 51.6579 -0.224062 48.776 0.201444C45.7299 0.653544 42.8666 2.04403 40.4999 4.03099C38.1331 6.01795 36.2741 8.75715 35.3371 11.7737C34.4001 14.7902 34.4748 17.7574 35.2699 20.6523C36.3786 24.6946 38.8312 28.4938 41.8289 31.3583C42.3701 31.875 42.9824 32.2967 43.6058 32.7032C45.0766 33.6644 46.6631 34.4319 48.2982 35.0549C51.5385 36.2896 55.0177 36.8519 58.467 36.9735C62.1366 37.1027 65.8323 36.7076 69.431 35.9781C72.4435 35.3703 75.4076 34.4888 78.2521 33.3073C79.3384 32.8552 80.4136 32.3689 81.4588 31.8256C81.9964 31.5445 82.1532 30.7771 81.862 30.268C81.5409 29.7095 80.869 29.5803 80.3314 29.8577C78.1401 30.9936 76.072 31.8066 73.6344 32.5627C70.4538 33.5467 67.1725 34.2077 63.8613 34.523C57.4852 35.1271 50.6874 34.4547 45.1251 30.986C44.778 30.7695 44.4345 30.5415 44.0985 30.306C43.9529 30.2034 43.8074 30.0932 43.6618 29.9868C43.4266 29.8197 43.9194 30.2186 43.7812 30.0818C43.6804 29.983 43.5685 29.8957 43.4677 29.7969C43.0384 29.3942 42.6352 28.9649 42.2432 28.5242C41.9632 28.2126 41.6945 27.8935 41.4294 27.5668C41.2913 27.3958 41.1569 27.2211 41.0225 27.0501C40.9217 26.9209 41.1308 27.1983 41.03 27.0615C41.0038 27.0235 40.974 26.9855 40.9479 26.9513C40.8545 26.8221 40.7612 26.6968 40.6679 26.5676C40.0295 25.6748 39.4434 24.744 38.9283 23.7714C37.8084 21.6629 37.017 19.2428 36.9162 16.8532C36.8004 14.0266 37.5807 11.333 39.1261 8.9509C40.6716 6.56883 42.8554 4.74904 45.3976 3.5637C47.9398 2.37836 50.385 2.09342 53.0653 2.34797C58.0079 2.82286 63.5775 6.06354 63.753 11.6217C63.8426 14.4863 62.6891 17.2901 61.1063 19.7025C59.5235 22.115 57.2351 24.2729 54.8236 25.9977C49.7877 29.5955 43.7775 31.7611 37.674 32.3119C31.5481 32.8666 25.3699 31.8408 19.7218 29.36C14.0737 26.8791 8.98182 23.1066 4.8568 18.445C3.87875 17.3394 2.95669 16.1845 2.09435 14.9802C1.73971 14.4825 1.12003 14.2393 0.563806 14.5699C0.0822435 14.8586 -0.194002 15.6298 0.160637 16.1275H0.16437Z" fill="black"/>
</g>
<defs>
<clipPath id="clip0_275_137">
<rect width="82" height="37" fill="white"/>
</clipPath>
</defs>
</svg>
