<svg width="67" height="58" viewBox="0 0 67 58" fill="none" xmlns="http://www.w3.org/2000/svg">
<g clip-path="url(#clip0_275_139)">
<path d="M1.24927 58.0004C0.986075 58.0004 0.722884 57.8968 0.521621 57.6948C0.119095 57.2907 0.119095 56.6327 0.521621 56.2286L42.0076 14.5794C42.4102 14.1753 43.0656 14.1753 43.4681 14.5794C43.8706 14.9836 43.8706 15.6415 43.4681 16.0456L1.97691 57.6948C1.77565 57.8968 1.51246 58.0004 1.24927 58.0004Z" fill="black"/>
<path d="M30.8137 12.077C30.5505 12.077 30.2873 11.9734 30.0861 11.7713C29.6835 11.3672 29.6835 10.7092 30.0861 10.3051L40.0512 0.306011C40.4537 -0.0980976 41.1091 -0.0980976 41.5116 0.306011C41.9142 0.71012 41.9142 1.36809 41.5116 1.7722L31.5465 11.7765C31.3453 11.9785 31.0821 12.0822 30.8189 12.0822L30.8137 12.077Z" fill="black"/>
<path d="M26.6702 47.7419C26.407 47.7419 26.1438 47.6383 25.9425 47.4363C25.54 47.0321 25.54 46.3742 25.9425 45.9701L65.2353 6.52281C65.6378 6.1187 66.2932 6.1187 66.6957 6.52281C67.0983 6.92692 67.0983 7.58489 66.6957 7.989L27.403 47.4363C27.2017 47.6383 26.9385 47.7419 26.6753 47.7419H26.6702Z" fill="black"/>
<path d="M1.03247 41.976C0.769278 41.976 0.506088 41.8724 0.304824 41.6703C-0.0977019 41.2662 -0.0977019 40.6082 0.304824 40.2041L23.1972 17.2269C23.5997 16.8228 24.2551 16.8228 24.6577 17.2269C25.0602 17.631 25.0602 18.289 24.6577 18.6931L1.76011 41.6755C1.55885 41.8776 1.29566 41.9812 1.03247 41.9812V41.976Z" fill="black"/>
</g>
<defs>
<clipPath id="clip0_275_139">
<rect width="67" height="58" fill="white"/>
</clipPath>
</defs>
</svg>
