<svg width="64" height="42" viewBox="0 0 64 42" fill="none" xmlns="http://www.w3.org/2000/svg">
<g clip-path="url(#clip0_275_144)">
<path d="M53.2626 42.0003C53.1849 42.0003 53.1073 41.9871 53.0296 41.9553C52.6957 41.8231 52.53 41.4422 52.6594 41.1009C54.6863 35.7339 56.7572 30.2795 58.7607 25.0077L61.1992 18.5879L56.5889 22.1774C53.5654 24.5316 50.542 26.8858 47.5185 29.2373C46.5582 29.9833 45.7143 30.2452 44.9325 30.0415C44.1534 29.8378 43.5347 29.1897 43.048 28.0682C39.3412 19.5243 35.6318 10.9777 31.9198 2.43649L27.3768 12.9034C25.1118 18.1197 22.8494 23.3386 20.5844 28.5549C20.0278 29.8325 19.272 30.2663 18.7335 30.4012C18.1925 30.5388 17.3202 30.5202 16.233 29.65C15.037 28.6924 13.8437 27.7322 12.6478 26.7747L10.5976 25.132C8.40252 23.3704 6.20741 21.6113 3.95535 19.8047L2.73095 18.8233L3.9657 22.0822C6.32907 28.3142 8.77269 34.7605 11.1645 41.1036C11.294 41.4448 11.1257 41.8284 10.7944 41.958C10.4604 42.0902 10.0851 41.9183 9.95826 41.5797C7.569 35.2366 5.1228 28.793 2.75942 22.5609L0.890471 17.6303C0.859408 17.551 0.830934 17.4663 0.779162 17.3076L0 14.9481L4.75522 18.7598C7.00728 20.5665 9.20239 22.3255 11.3975 24.0872L13.4477 25.7325C14.641 26.69 15.8369 27.6476 17.0303 28.6051C17.403 28.9041 17.9492 29.2347 18.4203 29.113C18.8889 28.994 19.2124 28.4491 19.4014 28.0126C21.6664 22.7964 23.9288 17.5801 26.1938 12.3638L30.8973 1.52126C30.9723 1.34932 31.05 1.18268 31.1328 1.0028L31.5884 0.00292969L32.2123 0.412931C32.6187 0.680093 32.7559 1.05835 32.8465 1.307C32.862 1.35197 32.8801 1.39693 32.8982 1.43926C36.6776 10.1366 40.4517 18.8339 44.2259 27.5312C44.5391 28.2507 44.8834 28.6633 45.2483 28.7612C45.6159 28.8564 46.1129 28.6633 46.729 28.1872C49.7525 25.8357 52.7759 23.4815 55.7968 21.1299L61.4787 16.7045C61.6056 16.6067 61.735 16.5114 61.9136 16.3818L63.9922 14.8556L59.9592 25.4918C57.9557 30.7636 55.8848 36.2153 53.8605 41.5823C53.7622 41.8442 53.5163 42.0056 53.2574 42.0056L53.2626 42.0003Z" fill="black"/>
</g>
<defs>
<clipPath id="clip0_275_144">
<rect width="64" height="42" fill="white"/>
</clipPath>
</defs>
</svg>
