<svg width="48" height="48" viewBox="0 0 48 48" fill="none" xmlns="http://www.w3.org/2000/svg">
<g clip-path="url(#clip0_746_547)">
<path d="M47.3324 47.9997H26.6348C26.2661 47.9997 25.9668 47.7017 25.9668 47.3345V18.7638C25.9668 18.3966 26.2661 18.0986 26.6348 18.0986H47.3324C47.7012 18.0986 48.0004 18.3966 48.0004 18.7638V47.3315C48.0004 47.6987 47.7012 47.9967 47.3324 47.9967V47.9997ZM27.3029 46.6693H46.6643V19.429H27.3029V46.6663V46.6693Z" fill="black"/>
<path d="M47.3324 14.8572H26.6348C26.2661 14.8572 25.9668 14.5592 25.9668 14.192V0.665203C25.9668 0.297987 26.2661 0 26.6348 0H47.3324C47.7012 0 48.0004 0.297987 48.0004 0.665203V14.192C48.0004 14.5592 47.7012 14.8572 47.3324 14.8572ZM27.3029 13.5268H46.6643V1.33041H27.3029V13.5268Z" fill="black"/>
<path d="M21.3656 29.898H0.668052C0.299263 29.898 0 29.6 0 29.2328V0.665203C0 0.297987 0.299263 0 0.668052 0H21.3656C21.7344 0 22.0336 0.297987 22.0336 0.665203V29.2328C22.0336 29.6 21.7344 29.898 21.3656 29.898ZM1.3361 28.5676H20.6975V1.33041H1.3361V28.5676Z" fill="black"/>
<path d="M21.3656 47.9998H0.668052C0.299263 47.9998 0 47.7018 0 47.3346V33.8078C0 33.4406 0.299263 33.1426 0.668052 33.1426H21.3656C21.7344 33.1426 22.0336 33.4406 22.0336 33.8078V47.3346C22.0336 47.7018 21.7344 47.9998 21.3656 47.9998ZM1.3361 46.6694H20.6975V34.473H1.3361V46.6694Z" fill="black"/>
</g>
<defs>
<clipPath id="clip0_746_547">
<rect width="48" height="48" fill="white"/>
</clipPath>
</defs>
</svg>
