<svg width="20" height="20" viewBox="0 0 20 20" fill="none" xmlns="http://www.w3.org/2000/svg">
<path fill-rule="evenodd" clip-rule="evenodd" d="M10.1318 1C5.16876 1 1.13379 5.03343 1.13379 9.99797C1.13379 11.9659 1.77131 13.7915 2.84865 15.2756L1.72289 18.6178L5.18086 17.5119C6.60117 18.4511 8.30393 19 10.1318 19C15.0948 19 19.1338 14.9625 19.1338 10.002C19.1338 5.04156 15.0948 1 10.1318 1Z" stroke="black" stroke-width="0.7" stroke-miterlimit="10"/>
<path fill-rule="evenodd" clip-rule="evenodd" d="M14.8574 12.3007C14.7997 12.1972 14.642 12.135 14.4074 12.0067C14.1728 11.8824 13.019 11.2736 12.8036 11.1908C12.5882 11.108 12.4305 11.0666 12.2767 11.315C12.119 11.5677 11.669 12.1309 11.5344 12.2966C11.3998 12.4622 11.2613 12.4829 11.0267 12.3587C10.7921 12.2344 10.0344 11.9694 9.14215 11.1163C8.446 10.4495 7.97678 9.63364 7.83832 9.38101C7.70371 9.13253 7.82294 8.99586 7.94217 8.87162C8.04986 8.7598 8.17678 8.57758 8.29601 8.43263C8.41524 8.28768 8.4537 8.18001 8.53062 8.01435C8.60754 7.8487 8.56908 7.69961 8.51139 7.57536C8.4537 7.45112 7.98448 6.21698 7.78833 5.71587C7.59218 5.21477 7.39987 5.23547 7.26141 5.23547C7.12295 5.23547 6.87296 5.28103 6.87296 5.28103C6.87296 5.28103 6.40374 5.34315 6.18836 5.59577C5.97298 5.84426 5.36914 6.45304 5.36914 7.68304C5.36914 8.91304 6.20759 10.1058 6.32681 10.2714C6.44604 10.4371 7.94986 13.0503 10.3306 14.0525C12.7152 15.0547 12.7152 14.7193 13.1459 14.6779C13.5767 14.6365 14.5344 14.0732 14.7267 13.4893C14.9228 12.9053 14.9228 12.4042 14.8651 12.3007H14.8574Z" stroke="black" stroke-width="0.7" stroke-miterlimit="10"/>
</svg>
